<svg width="640" height="696" viewBox="0 0 640 696" fill="none" xmlns="http://www.w3.org/2000/svg">
<path d="M507.703 392.502C516.533 392.502 523.754 399.67 523.093 408.476C521.4 431.003 516.135 453.153 507.464 474.087C496.75 499.953 481.046 523.455 461.249 543.252C441.453 563.048 417.95 578.752 392.085 589.466C371.151 598.137 349.001 603.402 326.474 605.095C317.668 605.757 310.499 598.536 310.499 589.705C310.499 580.874 317.672 573.789 326.468 573.01C344.792 571.389 362.794 566.985 379.847 559.921C401.833 550.814 421.81 537.466 438.637 520.639C455.464 503.812 468.812 483.835 477.919 461.849C484.982 444.797 489.387 426.794 491.008 408.47C491.786 399.674 498.872 392.502 507.703 392.502Z" fill="#CBE0FF"/>
<path d="M361.54 582.984C363.826 591.513 358.77 600.344 350.093 601.984C327.895 606.179 305.137 606.826 282.673 603.869C254.915 600.214 228.15 591.129 203.904 577.13C179.658 563.132 158.406 544.495 141.363 522.283C127.569 504.307 116.751 484.275 109.285 462.953C106.367 454.619 111.486 445.825 120.016 443.54C128.546 441.254 137.247 446.349 140.275 454.644C146.583 471.924 155.497 488.173 166.733 502.816C181.22 521.696 199.284 537.537 219.893 549.436C240.502 561.334 263.253 569.057 286.847 572.163C305.147 574.573 323.675 574.168 341.794 570.991C350.492 569.466 359.254 574.454 361.54 582.984Z" fill="url(#paint0_linear_1_4631)"/>
<path d="M171.056 531.944C164.812 538.189 154.637 538.226 148.878 531.531C134.146 514.405 122.207 495.019 113.536 474.086C102.822 448.22 97.3073 420.497 97.3073 392.5C97.3073 364.504 102.822 336.781 113.536 310.915C122.207 289.982 134.146 270.596 148.878 253.47C154.637 246.775 164.812 246.812 171.056 253.057C177.301 259.301 177.239 269.383 171.569 276.153C159.759 290.256 150.144 306.1 143.08 323.153C133.973 345.139 129.286 368.703 129.286 392.5C129.286 416.298 133.973 439.862 143.08 461.848C150.144 478.901 159.759 494.745 171.569 508.848C177.239 515.618 177.3 525.7 171.056 531.944Z" fill="url(#paint1_linear_1_4631)"/>
<path d="M139.716 293.899C132.069 289.483 129.399 279.665 134.375 272.369C147.105 253.707 162.74 237.157 180.716 223.363C202.927 206.32 228.278 193.818 255.321 186.572C282.364 179.326 310.569 177.477 338.326 181.132C360.791 184.089 382.606 190.604 402.962 200.402C410.919 204.232 413.516 214.07 409.101 221.717C404.686 229.365 394.931 231.915 386.924 228.191C370.245 220.433 352.452 215.246 334.152 212.837C310.559 209.731 286.584 211.302 263.598 217.461C240.611 223.621 219.063 234.247 200.183 248.734C185.54 259.97 172.724 273.358 162.158 288.417C157.086 295.645 147.364 298.314 139.716 293.899Z" fill="url(#paint2_linear_1_4631)"/>
<path d="M361.539 202.017C363.825 193.487 372.618 188.367 380.953 191.286C402.274 198.751 422.307 209.57 440.283 223.363C462.494 240.407 481.131 261.658 495.13 285.904C509.128 310.15 518.214 336.916 521.868 364.673C524.826 387.138 524.179 409.896 519.983 432.093C518.343 440.771 509.513 445.826 500.983 443.54C492.453 441.255 487.465 432.493 488.99 423.795C492.167 405.676 492.572 387.147 490.163 368.847C487.057 345.254 479.334 322.503 467.435 301.894C455.536 281.284 439.695 263.221 420.815 248.734C406.172 237.498 389.923 228.584 372.643 222.275C364.348 219.247 359.254 210.547 361.539 202.017Z" fill="url(#paint3_linear_1_4631)"/>
<path d="M507.703 392.502C516.533 392.502 523.754 399.671 523.093 408.476C520.812 438.836 512.048 468.421 497.322 495.208C482.595 521.995 462.312 545.247 437.901 563.44C430.82 568.717 420.898 566.462 416.166 559.006C411.434 551.55 413.694 541.724 420.704 536.354C440.601 521.111 457.167 501.868 469.298 479.802C481.429 457.736 488.799 433.438 491.008 408.471C491.786 399.674 498.872 392.502 507.703 392.502Z" fill="url(#paint4_linear_1_4631)"/>
<circle cx="309" cy="392" r="144.5" fill="white" stroke="url(#paint5_linear_1_4631)"/>
<path d="M277.034 336.04V342.34H281.994V344.24H274.534V345.92H291.454V344.24H283.994V342.34H288.974V340.66H278.994V337.72H288.854V336.04H277.034ZM282.994 354.32C286.534 354.32 288.754 352.86 288.754 351V350.32C288.754 348.42 286.514 347 282.994 347C279.474 347 277.234 348.4 277.234 350.32V351C277.234 352.88 279.474 354.32 282.994 354.32ZM282.994 348.62C285.254 348.62 286.794 349.48 286.794 350.44V350.88C286.794 351.84 285.254 352.7 282.994 352.7C280.734 352.7 279.194 351.84 279.194 350.88V350.44C279.194 349.48 280.734 348.62 282.994 348.62ZM306.057 336.06H304.097V338.6H295.897V336.08H293.937V344.24H306.057V336.06ZM300.997 353.8V347.94H308.457V346.26H291.537V347.94H298.997V353.8H300.997ZM295.897 340.28H304.097V342.54H295.897V340.28ZM323.94 348.52V335.36H321.98V340.24H317.76C317.78 340.1 317.78 339.94 317.78 339.78V336.54H309.92V338.22H315.84V339.68C315.84 341.7 314.88 342.68 309.16 345.18L309.94 346.78C314.56 344.8 316.6 343.58 317.36 341.94H321.98V348.52H323.94ZM314.4 347.54H312.42V353.6H324.32V351.88H314.4V347.54ZM341.383 353.92V352.28H331.383V350.5H340.863V345.5H329.343V347.14H338.923V348.9H329.443V353.92H341.383ZM331.203 341C331.323 341.3 331.743 341.68 332.343 342.18C333.303 342.98 334.163 343.62 335.243 344.38L336.343 342.98C335.163 342.18 334.103 341.42 333.163 340.56C332.203 339.68 332.123 338.98 332.123 337.7V335.82H330.123V337.78C330.123 339.24 329.903 339.98 328.863 340.98C328.163 341.66 326.923 342.66 325.563 343.62L326.703 345.02C327.823 344.2 329.063 343.24 329.883 342.48C330.503 341.92 331.083 341.34 331.183 341H331.203ZM340.863 344.58V335.36H338.903V338.72H335.223V340.46H338.903V344.58H340.863ZM260.649 377.8C258.909 377.96 257.489 378.04 255.789 378.1V376.96C257.929 376.72 259.029 375.66 259.029 374.36V373.84C259.029 372.38 257.609 371.2 254.809 371.2C252.009 371.2 250.589 372.36 250.589 373.84V374.36C250.589 375.66 251.669 376.72 253.829 376.96V378.14C252.509 378.16 250.969 378.16 249.049 378.16V379.84C255.209 379.84 257.629 379.74 260.809 379.42L260.649 377.8ZM263.729 381.38V375.02H266.329V373.3H263.729V367.36H261.769V381.38H263.729ZM253.949 380.84H251.969V385.62H264.229V383.92H253.949V380.84ZM255.789 368.92V367.2H253.829V368.92H249.749V370.58H259.809V368.92H255.789ZM254.809 372.76C256.389 372.76 257.089 373.34 257.089 373.98V374.22C257.089 374.86 256.389 375.44 254.809 375.44C253.229 375.44 252.529 374.86 252.529 374.22V373.98C252.529 373.34 253.229 372.76 254.809 372.76ZM270.192 382.8C270.192 384.74 272.312 386.32 275.852 386.32C279.392 386.32 281.512 384.74 281.512 382.8V382C281.512 380.06 279.392 378.48 275.852 378.48C272.312 378.48 270.192 380.06 270.192 382V382.8ZM273.272 371.26C273.272 373.38 272.192 374.36 266.632 376.68L267.412 378.26C273.712 375.58 275.212 374.46 275.212 371.4V368.5H267.392V370.18H273.272V371.26ZM281.432 378.24V367.36H279.492V370.02H276.232V371.72H279.492V373.86H275.932V375.56H279.492V378.24H281.432ZM279.572 382.68C279.572 383.66 278.132 384.7 275.852 384.7C273.572 384.7 272.132 383.66 272.132 382.68V382.12C272.132 381.14 273.572 380.1 275.852 380.1C278.132 380.1 279.572 381.14 279.572 382.12V382.68ZM287.195 382.8C287.195 384.74 289.315 386.32 292.855 386.32C296.395 386.32 298.515 384.74 298.515 382.8V382C298.515 380.06 296.395 378.48 292.855 378.48C289.315 378.48 287.195 380.06 287.195 382V382.8ZM290.275 371.26C290.275 373.38 289.195 374.36 283.635 376.68L284.415 378.26C290.715 375.58 292.215 374.46 292.215 371.4V368.5H284.395V370.18H290.275V371.26ZM298.435 378.24V367.36H296.495V370.02H293.235V371.72H296.495V373.86H292.935V375.56H296.495V378.24H298.435ZM296.575 382.68C296.575 383.66 295.135 384.7 292.855 384.7C290.575 384.7 289.135 383.66 289.135 382.68V382.12C289.135 381.14 290.575 380.1 292.855 380.1C295.135 380.1 296.575 381.14 296.575 382.12V382.68ZM304.198 382.8C304.198 384.74 306.318 386.32 309.858 386.32C313.398 386.32 315.518 384.74 315.518 382.8V382C315.518 380.06 313.398 378.48 309.858 378.48C306.318 378.48 304.198 380.06 304.198 382V382.8ZM309.778 372.1C309.778 370.32 308.338 368.06 305.198 368.06C302.058 368.06 300.618 370.32 300.618 372.1V373.12C300.618 374.9 302.058 377.16 305.198 377.16C308.338 377.16 309.778 374.9 309.778 373.12V372.1ZM315.438 378.24V367.36H313.498V369.66H310.598V371.36H313.498V373.82H310.598V375.52H313.498V378.24H315.438ZM313.578 382.68C313.578 383.66 312.138 384.7 309.858 384.7C307.578 384.7 306.138 383.66 306.138 382.68V382.12C306.138 381.14 307.578 380.1 309.858 380.1C312.138 380.1 313.578 381.14 313.578 382.12V382.68ZM307.878 373.02C307.878 374.2 307.038 375.44 305.198 375.44C303.358 375.44 302.518 374.2 302.518 373.02V372.2C302.518 371.02 303.358 369.78 305.198 369.78C307.038 369.78 307.878 371.02 307.878 372.2V373.02ZM332.322 385.8V367.36H330.342V385.8H332.322ZM322.842 376.58C323.002 376.98 323.482 377.54 324.042 378.14C324.802 378.96 325.702 379.86 327.082 381.14L328.362 379.78C327.162 378.72 326.282 377.88 325.422 376.94C324.202 375.58 323.822 374.76 323.822 373.18V368.68H321.822V373.18C321.822 374.6 321.502 375.5 320.282 376.88C319.382 377.88 318.342 378.9 317.122 379.98L318.422 381.32C319.782 380.08 320.842 379.02 321.662 378.12C322.302 377.42 322.642 377.02 322.822 376.58H322.842ZM334.045 381.66V383.34H350.965V381.66H334.045ZM342.525 374.34C342.745 374.8 343.565 375.5 344.865 376.32C346.065 377.08 347.525 377.92 349.005 378.76L349.965 377.22C348.385 376.36 347.225 375.7 345.965 374.88C343.805 373.46 343.505 372.64 343.505 370.68V368.66H341.505V370.68C341.505 372.64 341.085 373.5 339.265 374.74C337.925 375.64 336.665 376.36 335.065 377.24L336.045 378.8C337.705 377.88 338.985 377.1 340.145 376.36C341.485 375.5 342.305 374.8 342.505 374.34H342.525ZM366.728 379.04H354.988V385.82H366.728V379.04ZM359.648 375.24C357.768 375.46 356.668 375.52 353.668 375.52V373.54H358.048V371.96H353.668V369.98H358.848V368.36H351.768V377.14C356.728 377.14 357.968 377.1 359.848 376.84L359.648 375.24ZM364.788 384.16H356.928V380.7H364.788V384.16ZM359.048 373.34H361.388V378.04H363.268V367.6H361.388V371.66H359.048V373.34ZM364.828 378.08H366.728V367.36H364.828V378.08Z" fill="#19B29B"/>
<path d="M264.223 408.575V419.39H270.838V418.46H265.273V414.305H270.418V413.375H265.273V409.505H270.733V408.575H264.223ZM275.576 411.155C274.301 411.155 273.476 411.815 273.101 412.43V411.305H272.096V419.39H273.116V414.14C273.116 413.195 274.061 412.085 275.426 412.085C277.031 412.085 277.466 413.045 277.466 414.2V419.39H278.486V413.945C278.486 412.265 277.421 411.155 275.576 411.155ZM283.077 419.39L285.987 411.305H284.922L282.522 418.34L280.077 411.305H278.982L281.937 419.39H283.077ZM286.586 419.39H287.606V411.305H286.586V419.39ZM286.541 409.76H287.651V408.62H286.541V409.76ZM293.642 411.32C293.312 411.2 292.937 411.155 292.487 411.155C291.257 411.155 290.507 411.95 290.162 412.73V411.305H289.157V419.39H290.177V414.8C290.177 413.285 291.017 412.19 292.352 412.19C292.742 412.19 293.057 412.25 293.327 412.355L293.642 411.32ZM297.176 411.155C295.016 411.155 293.741 412.49 293.741 414.83V415.835C293.741 418.16 295.016 419.51 297.176 419.51C299.336 419.51 300.611 418.16 300.611 415.835V414.83C300.611 412.505 299.336 411.155 297.176 411.155ZM297.176 418.61C295.691 418.61 294.776 417.68 294.776 415.775V414.89C294.776 412.985 295.691 412.055 297.176 412.055C298.661 412.055 299.576 412.985 299.576 414.89V415.775C299.576 417.68 298.661 418.61 297.176 418.61ZM305.222 411.155C303.947 411.155 303.122 411.815 302.747 412.43V411.305H301.742V419.39H302.762V414.14C302.762 413.195 303.707 412.085 305.072 412.085C306.677 412.085 307.112 413.045 307.112 414.2V419.39H308.132V413.945C308.132 412.265 307.067 411.155 305.222 411.155ZM317.747 411.155C316.457 411.155 315.647 411.935 315.287 412.625C314.927 411.695 314.132 411.155 312.842 411.155C311.657 411.155 310.937 411.785 310.577 412.43V411.305H309.572V419.39H310.592V414.14C310.592 413.195 311.327 412.085 312.662 412.085C314.117 412.085 314.477 412.91 314.477 414.215V419.39H315.497V414.08C315.527 413.15 316.262 412.085 317.567 412.085C319.022 412.085 319.382 412.91 319.382 414.215V419.39H320.402V413.945C320.402 412.235 319.577 411.155 317.747 411.155ZM322.486 414.815V414.68C322.486 413.09 323.326 412.055 324.751 412.055C326.161 412.055 326.986 413 326.986 414.68V414.815H322.486ZM327.376 417.815C326.791 418.235 325.981 418.61 324.901 418.61C323.416 418.61 322.486 417.59 322.486 415.805V415.67H328.006V414.83C328.006 412.565 326.851 411.155 324.751 411.155C322.726 411.155 321.466 412.505 321.466 414.8V415.805C321.466 418.16 322.741 419.51 324.886 419.51C326.251 419.51 327.181 419.045 327.826 418.595L327.376 417.815ZM332.595 411.155C331.32 411.155 330.495 411.815 330.12 412.43V411.305H329.115V419.39H330.135V414.14C330.135 413.195 331.08 412.085 332.445 412.085C334.05 412.085 334.485 413.045 334.485 414.2V419.39H335.505V413.945C335.505 412.265 334.44 411.155 332.595 411.155ZM337.576 417.14C337.576 418.895 338.251 419.465 339.661 419.465C340.096 419.465 340.711 419.39 341.026 419.27L340.876 418.43C340.501 418.535 340.141 418.58 339.736 418.58C338.926 418.58 338.596 418.19 338.596 417.095V412.175H340.831V411.305H338.596V409.22H337.576V411.305H336.196V412.175H337.576V417.14ZM344.051 419.51C344.666 419.51 345.236 419.39 345.686 419.165C346.106 418.955 346.436 418.655 346.586 418.4H346.601V419.39H347.591V413.735C347.591 412.1 346.481 411.155 344.681 411.155C343.451 411.155 342.536 411.59 341.786 412.115L342.281 412.895C342.971 412.415 343.796 412.07 344.666 412.07C345.926 412.07 346.586 412.73 346.586 413.9V414.65H344.306C342.431 414.65 341.456 415.565 341.456 416.87V417.2C341.456 418.625 342.521 419.51 344.051 419.51ZM346.586 416.87C346.586 417.485 346.256 417.89 345.821 418.16C345.341 418.46 344.846 418.625 344.201 418.625C343.376 418.625 342.476 418.205 342.476 417.155V416.915C342.476 416.09 343.031 415.505 344.321 415.505H346.586V416.87ZM348.959 419.39H349.979V408.05H348.959V419.39ZM248.963 444.59H249.953L252.848 438.47C253.103 437.96 253.223 437.75 253.358 437.105V446.39H254.393V435.575H253.148L249.473 443.495L245.813 435.575H244.523V446.39H245.558V437.105C245.723 437.75 245.843 437.96 246.098 438.47L248.963 444.59ZM258.131 446.51C258.746 446.51 259.316 446.39 259.766 446.165C260.186 445.955 260.516 445.655 260.666 445.4H260.681V446.39H261.671V440.735C261.671 439.1 260.561 438.155 258.761 438.155C257.531 438.155 256.616 438.59 255.866 439.115L256.361 439.895C257.051 439.415 257.876 439.07 258.746 439.07C260.006 439.07 260.666 439.73 260.666 440.9V441.65H258.386C256.511 441.65 255.536 442.565 255.536 443.87V444.2C255.536 445.625 256.601 446.51 258.131 446.51ZM260.666 443.87C260.666 444.485 260.336 444.89 259.901 445.16C259.421 445.46 258.926 445.625 258.281 445.625C257.456 445.625 256.556 445.205 256.556 444.155V443.915C256.556 443.09 257.111 442.505 258.401 442.505H260.666V443.87ZM266.519 438.155C265.244 438.155 264.419 438.815 264.044 439.43V438.305H263.039V446.39H264.059V441.14C264.059 440.195 265.004 439.085 266.369 439.085C267.974 439.085 268.409 440.045 268.409 441.2V446.39H269.429V440.945C269.429 439.265 268.364 438.155 266.519 438.155ZM273.06 446.51C273.675 446.51 274.245 446.39 274.695 446.165C275.115 445.955 275.445 445.655 275.595 445.4H275.61V446.39H276.6V440.735C276.6 439.1 275.49 438.155 273.69 438.155C272.46 438.155 271.545 438.59 270.795 439.115L271.29 439.895C271.98 439.415 272.805 439.07 273.675 439.07C274.935 439.07 275.595 439.73 275.595 440.9V441.65H273.315C271.44 441.65 270.465 442.565 270.465 443.87V444.2C270.465 445.625 271.53 446.51 273.06 446.51ZM275.595 443.87C275.595 444.485 275.265 444.89 274.83 445.16C274.35 445.46 273.855 445.625 273.21 445.625C272.385 445.625 271.485 445.205 271.485 444.155V443.915C271.485 443.09 272.04 442.505 273.33 442.505H275.595V443.87ZM283.218 446.285C283.218 447.98 282.423 448.775 280.938 448.775C280.023 448.775 279.453 448.625 278.703 448.1L278.238 448.895C278.913 449.42 279.798 449.735 280.938 449.735C282.948 449.735 284.238 448.55 284.238 446.255V438.305H283.233V439.295C282.813 438.695 281.988 438.155 280.803 438.155C278.958 438.155 277.593 439.415 277.593 441.62V442.895C277.593 445.1 278.958 446.36 280.818 446.36C281.748 446.36 282.753 445.985 283.203 445.175H283.218V446.285ZM278.613 441.77C278.613 440.06 279.498 439.055 280.863 439.055C282.243 439.055 283.218 440.12 283.218 441.065V443.345C283.218 444.77 282.168 445.46 280.863 445.46C279.513 445.46 278.613 444.47 278.613 442.745V441.77ZM286.399 441.815V441.68C286.399 440.09 287.239 439.055 288.664 439.055C290.074 439.055 290.899 440 290.899 441.68V441.815H286.399ZM291.289 444.815C290.704 445.235 289.894 445.61 288.814 445.61C287.329 445.61 286.399 444.59 286.399 442.805V442.67H291.919V441.83C291.919 439.565 290.764 438.155 288.664 438.155C286.639 438.155 285.379 439.505 285.379 441.8V442.805C285.379 445.16 286.654 446.51 288.799 446.51C290.164 446.51 291.094 446.045 291.739 445.595L291.289 444.815ZM301.203 438.155C299.913 438.155 299.103 438.935 298.743 439.625C298.383 438.695 297.588 438.155 296.298 438.155C295.113 438.155 294.393 438.785 294.033 439.43V438.305H293.028V446.39H294.048V441.14C294.048 440.195 294.783 439.085 296.118 439.085C297.573 439.085 297.933 439.91 297.933 441.215V446.39H298.953V441.08C298.983 440.15 299.718 439.085 301.023 439.085C302.478 439.085 302.838 439.91 302.838 441.215V446.39H303.858V440.945C303.858 439.235 303.033 438.155 301.203 438.155ZM305.942 441.815V441.68C305.942 440.09 306.782 439.055 308.207 439.055C309.617 439.055 310.442 440 310.442 441.68V441.815H305.942ZM310.832 444.815C310.247 445.235 309.437 445.61 308.357 445.61C306.872 445.61 305.942 444.59 305.942 442.805V442.67H311.462V441.83C311.462 439.565 310.307 438.155 308.207 438.155C306.182 438.155 304.922 439.505 304.922 441.8V442.805C304.922 445.16 306.197 446.51 308.342 446.51C309.707 446.51 310.637 446.045 311.282 445.595L310.832 444.815ZM316.051 438.155C314.776 438.155 313.951 438.815 313.576 439.43V438.305H312.571V446.39H313.591V441.14C313.591 440.195 314.536 439.085 315.901 439.085C317.506 439.085 317.941 440.045 317.941 441.2V446.39H318.961V440.945C318.961 439.265 317.896 438.155 316.051 438.155ZM321.032 444.14C321.032 445.895 321.707 446.465 323.117 446.465C323.552 446.465 324.167 446.39 324.482 446.27L324.332 445.43C323.957 445.535 323.597 445.58 323.192 445.58C322.382 445.58 322.052 445.19 322.052 444.095V439.175H324.287V438.305H322.052V436.22H321.032V438.305H319.652V439.175H321.032V444.14ZM331.497 445.58C330.522 445.58 329.472 445.25 328.407 444.47L327.867 445.355C328.827 446.09 330.117 446.555 331.542 446.555C333.882 446.555 335.262 445.265 335.262 443.72V443.375C335.262 441.83 334.482 441.005 331.692 440.375C329.727 439.925 329.127 439.385 329.127 438.455V438.155C329.127 437.03 330.267 436.37 331.602 436.37C332.712 436.37 333.627 436.685 334.317 437.18L334.812 436.325C334.077 435.8 333.057 435.41 331.602 435.41C329.547 435.41 328.062 436.52 328.062 438.155V438.5C328.062 439.865 328.842 440.765 331.362 441.335C333.672 441.86 334.197 442.385 334.197 443.405V443.72C334.197 444.695 333.192 445.58 331.497 445.58ZM335.419 438.305L338.449 446.525L337.414 449.42L338.284 449.735L342.484 438.305H341.434L338.974 445.25L336.469 438.305H335.419ZM345.602 445.595C344.657 445.595 343.787 445.25 343.052 444.755L342.557 445.565C343.322 446.12 344.357 446.51 345.662 446.51C347.372 446.51 348.632 445.61 348.632 444.32V444.095C348.632 442.805 347.792 442.16 345.797 441.785C344.522 441.545 343.772 441.185 343.772 440.48V440.315C343.772 439.61 344.432 439.055 345.647 439.055C346.682 439.055 347.312 439.31 347.987 439.76L348.452 438.995C347.792 438.5 346.907 438.155 345.677 438.155C343.697 438.155 342.752 439.145 342.752 440.3V440.51C342.752 441.83 343.817 442.355 345.437 442.67C346.982 442.97 347.612 443.33 347.612 444.14V444.29C347.612 444.98 346.907 445.595 345.602 445.595ZM350.194 444.14C350.194 445.895 350.869 446.465 352.279 446.465C352.714 446.465 353.329 446.39 353.644 446.27L353.494 445.43C353.119 445.535 352.759 445.58 352.354 445.58C351.544 445.58 351.214 445.19 351.214 444.095V439.175H353.449V438.305H351.214V436.22H350.194V438.305H348.814V439.175H350.194V444.14ZM355.124 441.815V441.68C355.124 440.09 355.964 439.055 357.389 439.055C358.799 439.055 359.624 440 359.624 441.68V441.815H355.124ZM360.014 444.815C359.429 445.235 358.619 445.61 357.539 445.61C356.054 445.61 355.124 444.59 355.124 442.805V442.67H360.644V441.83C360.644 439.565 359.489 438.155 357.389 438.155C355.364 438.155 354.104 439.505 354.104 441.8V442.805C354.104 445.16 355.379 446.51 357.524 446.51C358.889 446.51 359.819 446.045 360.464 445.595L360.014 444.815ZM369.928 438.155C368.638 438.155 367.828 438.935 367.468 439.625C367.108 438.695 366.313 438.155 365.023 438.155C363.838 438.155 363.118 438.785 362.758 439.43V438.305H361.753V446.39H362.773V441.14C362.773 440.195 363.508 439.085 364.843 439.085C366.298 439.085 366.658 439.91 366.658 441.215V446.39H367.678V441.08C367.708 440.15 368.443 439.085 369.748 439.085C371.203 439.085 371.563 439.91 371.563 441.215V446.39H372.583V440.945C372.583 439.235 371.758 438.155 369.928 438.155Z" fill="#555555"/>
<path d="M309 179H310V135H309V179Z" fill="#CCCCCC"/>
<g filter="url(#filter0_d_1_4631)">
<circle cx="310" cy="73.0005" r="63" fill="white"/>
</g>
<path d="M283.302 59.8405C281.91 59.9685 280.774 60.0325 279.414 60.0805V59.1685C281.126 58.9765 282.006 58.1285 282.006 57.0885V56.6725C282.006 55.5045 280.87 54.5605 278.63 54.5605C276.39 54.5605 275.254 55.4885 275.254 56.6725V57.0885C275.254 58.1285 276.118 58.9765 277.846 59.1685V60.1125C276.79 60.1285 275.558 60.1285 274.022 60.1285V61.4725C278.95 61.4725 280.886 61.3925 283.43 61.1365L283.302 59.8405ZM285.766 62.7045V57.6165H287.846V56.2405H285.766V51.4885H284.198V62.7045H285.766ZM277.942 62.2725H276.358V66.0965H286.166V64.7365H277.942V62.2725ZM279.414 52.7365V51.3605H277.846V52.7365H274.582V54.0645H282.63V52.7365H279.414ZM278.63 55.8085C279.894 55.8085 280.454 56.2725 280.454 56.7845V56.9765C280.454 57.4885 279.894 57.9525 278.63 57.9525C277.366 57.9525 276.806 57.4885 276.806 56.9765V56.7845C276.806 56.2725 277.366 55.8085 278.63 55.8085ZM290.936 63.8405C290.936 65.3925 292.632 66.6565 295.464 66.6565C298.296 66.6565 299.992 65.3925 299.992 63.8405V63.2005C299.992 61.6485 298.296 60.3845 295.464 60.3845C292.632 60.3845 290.936 61.6485 290.936 63.2005V63.8405ZM293.4 54.6085C293.4 56.3045 292.536 57.0885 288.088 58.9445L288.712 60.2085C293.752 58.0645 294.952 57.1685 294.952 54.7205V52.4005H288.696V53.7445H293.4V54.6085ZM299.928 60.1925V51.4885H298.376V53.6165H295.768V54.9765H298.376V56.6885H295.528V58.0485H298.376V60.1925H299.928ZM298.44 63.7445C298.44 64.5285 297.288 65.3605 295.464 65.3605C293.64 65.3605 292.488 64.5285 292.488 63.7445V63.2965C292.488 62.5125 293.64 61.6805 295.464 61.6805C297.288 61.6805 298.44 62.5125 298.44 63.2965V63.7445ZM309.147 57.4245C309.259 57.6645 309.579 57.9685 310.059 58.3685C310.827 59.0085 311.547 59.5525 312.379 60.1285L313.275 58.9765C312.331 58.3525 311.467 57.7285 310.715 57.0405C310.011 56.4005 309.883 55.8565 309.883 54.8325V54.5125H312.907V53.1525H309.883V51.3925H308.283V53.1525H305.067V54.5125H308.283V54.8965C308.283 56.0645 308.011 56.6725 307.227 57.4405C306.651 58.0005 305.675 58.7365 304.651 59.4565L305.579 60.5925C306.475 59.9685 307.371 59.2645 308.059 58.6725C308.571 58.2405 309.035 57.6965 309.131 57.4245H309.147ZM308.843 61.3125H307.259V66.0805H316.779V64.7045H308.843V61.3125ZM316.475 62.0645V51.4885H314.907V62.0645H316.475ZM327.229 61.8725C325.949 61.9845 324.813 62.0805 323.389 62.1285V60.6885C325.085 60.4165 326.093 59.3605 326.093 58.2405V57.6325C326.093 56.3365 324.749 55.1205 322.525 55.1205C320.301 55.1205 318.957 56.3365 318.957 57.6325V58.2405C318.957 59.3925 320.013 60.4965 321.821 60.7205V62.1765C320.733 62.2085 319.469 62.2085 317.901 62.2085V63.5525C322.957 63.5525 324.701 63.4405 327.357 63.1685L327.229 61.8725ZM329.661 66.2405V58.7685H331.869V57.3925H329.661V51.4885H328.093V66.2405H329.661ZM326.685 53.1525H323.309V51.3765H321.741V53.1525H318.205V54.5125H326.685V53.1525ZM322.525 59.4565C321.245 59.4565 320.493 58.8005 320.493 58.0965V57.7765C320.493 57.0725 321.229 56.4165 322.525 56.4165C323.805 56.4165 324.557 57.0725 324.557 57.7765V58.0965C324.557 58.8005 323.821 59.4565 322.525 59.4565ZM336.224 56.8645C336.336 57.1045 336.656 57.4085 337.136 57.8085C337.904 58.4485 338.592 58.9765 339.424 59.5525L340.32 58.4005C339.376 57.7765 338.544 57.1685 337.792 56.4805C337.088 55.8405 336.96 55.2965 336.96 54.2725V53.7125H339.872V52.3525H332.256V53.7125H335.36V54.3365C335.36 55.5045 335.088 56.1125 334.304 56.8805C333.728 57.4405 332.784 58.1605 331.76 58.8805L332.688 60.0165C333.584 59.3925 334.448 58.7045 335.136 58.1125C335.648 57.6805 336.112 57.1365 336.208 56.8645H336.224ZM334.064 62.2085H342.192V66.3845H343.776V60.8485H334.064V62.2085ZM343.776 60.0805V51.4885H342.208V55.0245H339.488V56.3845H342.208V60.0805H343.776ZM282.533 84.8165H280.261V79.4885H278.677V94.2405H280.261V86.1925H282.533V84.8165ZM273.109 86.8325C273.237 87.1525 273.621 87.6005 274.069 88.0805C274.677 88.7365 275.397 89.4565 276.501 90.4805L277.525 89.3925C276.565 88.5445 275.861 87.8725 275.173 87.1205C274.197 86.0325 273.893 85.3765 273.893 84.1125V80.5605H272.293V84.1125C272.293 85.2485 272.037 85.9685 271.061 87.0725C270.341 87.8725 269.509 88.6885 268.533 89.5525L269.573 90.6245C270.661 89.6325 271.509 88.7845 272.165 88.0645C272.677 87.5045 272.949 87.1845 273.093 86.8325H273.109ZM294.647 87.0405V79.4885H293.079V82.6885H290.087C289.879 81.3285 288.663 80.0005 286.455 80.0005C284.023 80.0005 282.791 81.6005 282.791 83.0885V83.6965C282.791 85.1845 284.023 86.7845 286.455 86.7845C288.695 86.7845 289.911 85.4245 290.087 84.0485H293.079V87.0405H294.647ZM293.079 87.7605V89.6325H287.015V87.7605H285.447V94.2405H294.647V87.7605H293.079ZM286.455 85.4245C285.095 85.4245 284.311 84.4965 284.311 83.6165V83.1685C284.311 82.2885 285.095 81.3765 286.455 81.3765C287.815 81.3765 288.599 82.2885 288.599 83.1685V83.6165C288.599 84.4965 287.815 85.4245 286.455 85.4245ZM287.015 92.8965V90.9605H293.079V92.8965H287.015ZM300.522 83.6645C300.522 85.8405 300.522 86.9605 296.01 89.8565L296.89 91.0885C301.226 88.1925 301.978 86.9605 302.058 84.4645H304.186V86.8965H302.026V88.2725H304.186V93.5205H305.738V79.7925H304.186V83.0885H302.074V80.9285H296.426V82.2885H300.522V83.6645ZM308.746 79.4885H307.194V94.2405H308.746V79.4885ZM319.308 87.4565C317.9 87.5845 316.716 87.6645 315.308 87.7125V86.8485C317.02 86.6565 317.916 85.8565 317.916 84.8485V84.4325C317.916 83.2965 316.748 82.4005 314.524 82.4005C312.3 82.4005 311.132 83.2805 311.132 84.4325V84.8485C311.132 85.8565 312.028 86.6565 313.74 86.8485V87.7605C312.652 87.7765 311.42 87.7765 309.884 87.7765V89.1045C314.812 89.1045 316.892 88.9925 319.436 88.7365L319.308 87.4565ZM311.932 91.4085H320.268V94.3845H321.852V90.0645H311.932V91.4085ZM321.852 89.2965V79.4885H320.284V89.2965H321.852ZM315.308 80.6565V79.3125H313.74V80.6565H310.46V81.9685H318.54V80.6565H315.308ZM314.524 83.6485C315.804 83.6485 316.364 84.0485 316.364 84.5445V84.7365C316.364 85.2325 315.804 85.6325 314.524 85.6325C313.244 85.6325 312.684 85.2325 312.684 84.7365V84.5445C312.684 84.0485 313.244 83.6485 314.524 83.6485ZM330.703 94.2405V89.1685H336.671V87.8245H323.135V89.1685H329.103V94.2405H330.703ZM331.679 85.0245C332.543 85.4565 333.775 86.0165 335.087 86.5285L335.695 85.2485C334.511 84.8005 333.199 84.2405 332.175 83.6805C331.087 83.0885 330.687 82.5125 330.687 81.3125V80.0005H329.103V81.3125C329.103 82.5125 328.687 83.0885 327.599 83.6805C326.575 84.2405 325.263 84.8005 324.079 85.2485L324.703 86.5445C326.015 86.0325 327.247 85.4725 328.111 85.0405C329.167 84.5125 329.695 84.0965 329.887 83.7445H329.903C330.111 84.0965 330.623 84.4965 331.679 85.0245ZM347.393 88.1765V89.8725H341.329V88.1765H339.761V94.2405H348.961V88.1765H347.393ZM340.449 87.2005C342.785 87.2005 344.161 87.1045 345.969 86.8805L345.825 85.5685C343.841 85.8085 342.369 85.8565 340.609 85.8565H339.265V84.3045H344.273V80.1445H337.649V81.4725H342.705V83.0085H337.697V87.2005H340.449ZM348.961 87.4565V79.4885H347.393V87.4565H348.961ZM341.329 92.8965V91.2005H347.393V92.8965H341.329Z" fill="#222222"/>
<path d="M111.293 555.292L112 556L143.113 524.887L142.406 524.18L111.293 555.292Z" fill="#CCCCCC"/>
<g filter="url(#filter1_d_1_4631)">
<circle cx="73" cy="603" r="63" fill="white"/>
</g>
<path d="M46.3018 589.84C44.9098 589.968 43.7738 590.032 42.4138 590.08V589.168C44.1258 588.976 45.0058 588.128 45.0058 587.088V586.672C45.0058 585.504 43.8698 584.56 41.6298 584.56C39.3898 584.56 38.2538 585.488 38.2538 586.672V587.088C38.2538 588.128 39.1178 588.976 40.8458 589.168V590.112C39.7898 590.128 38.5578 590.128 37.0218 590.128V591.472C41.9498 591.472 43.8858 591.392 46.4298 591.136L46.3018 589.84ZM48.7658 592.704V587.616H50.8458V586.24H48.7658V581.488H47.1978V592.704H48.7658ZM40.9418 592.272H39.3578V596.096H49.1658V594.736H40.9418V592.272ZM42.4138 582.736V581.36H40.8458V582.736H37.5818V584.064H45.6298V582.736H42.4138ZM41.6298 585.808C42.8938 585.808 43.4538 586.272 43.4538 586.784V586.976C43.4538 587.488 42.8938 587.952 41.6298 587.952C40.3658 587.952 39.8058 587.488 39.8058 586.976V586.784C39.8058 586.272 40.3658 585.808 41.6298 585.808ZM53.9363 593.84C53.9363 595.392 55.6323 596.656 58.4643 596.656C61.2963 596.656 62.9923 595.392 62.9923 593.84V593.2C62.9923 591.648 61.2963 590.384 58.4643 590.384C55.6323 590.384 53.9363 591.648 53.9363 593.2V593.84ZM56.4003 584.608C56.4003 586.304 55.5363 587.088 51.0883 588.944L51.7123 590.208C56.7523 588.064 57.9523 587.168 57.9523 584.72V582.4H51.6963V583.744H56.4003V584.608ZM62.9283 590.192V581.488H61.3763V583.616H58.7683V584.976H61.3763V586.688H58.5283V588.048H61.3763V590.192H62.9283ZM61.4403 593.744C61.4403 594.528 60.2883 595.36 58.4643 595.36C56.6403 595.36 55.4883 594.528 55.4883 593.744V593.296C55.4883 592.512 56.6403 591.68 58.4643 591.68C60.2883 591.68 61.4403 592.512 61.4403 593.296V593.744ZM72.1468 587.424C72.2588 587.664 72.5788 587.968 73.0588 588.368C73.8268 589.008 74.5468 589.552 75.3788 590.128L76.2748 588.976C75.3308 588.352 74.4668 587.728 73.7148 587.04C73.0108 586.4 72.8828 585.856 72.8828 584.832V584.512H75.9068V583.152H72.8828V581.392H71.2828V583.152H68.0668V584.512H71.2828V584.896C71.2828 586.064 71.0108 586.672 70.2268 587.44C69.6508 588 68.6748 588.736 67.6508 589.456L68.5788 590.592C69.4748 589.968 70.3708 589.264 71.0588 588.672C71.5708 588.24 72.0348 587.696 72.1308 587.424H72.1468ZM71.8428 591.312H70.2588V596.08H79.7788V594.704H71.8428V591.312ZM79.4748 592.064V581.488H77.9068V592.064H79.4748ZM90.2293 591.872C88.9493 591.984 87.8133 592.08 86.3893 592.128V590.688C88.0853 590.416 89.0933 589.36 89.0933 588.24V587.632C89.0933 586.336 87.7493 585.12 85.5253 585.12C83.3013 585.12 81.9573 586.336 81.9573 587.632V588.24C81.9573 589.392 83.0133 590.496 84.8213 590.72V592.176C83.7333 592.208 82.4693 592.208 80.9013 592.208V593.552C85.9573 593.552 87.7013 593.44 90.3573 593.168L90.2293 591.872ZM92.6613 596.24V588.768H94.8693V587.392H92.6613V581.488H91.0933V596.24H92.6613ZM89.6853 583.152H86.3093V581.376H84.7413V583.152H81.2053V584.512H89.6853V583.152ZM85.5253 589.456C84.2453 589.456 83.4933 588.8 83.4933 588.096V587.776C83.4933 587.072 84.2293 586.416 85.5253 586.416C86.8053 586.416 87.5573 587.072 87.5573 587.776V588.096C87.5573 588.8 86.8213 589.456 85.5253 589.456ZM99.2238 586.864C99.3358 587.104 99.6558 587.408 100.136 587.808C100.904 588.448 101.592 588.976 102.424 589.552L103.32 588.4C102.376 587.776 101.544 587.168 100.792 586.48C100.088 585.84 99.9598 585.296 99.9598 584.272V583.712H102.872V582.352H95.2558V583.712H98.3598V584.336C98.3598 585.504 98.0878 586.112 97.3038 586.88C96.7278 587.44 95.7838 588.16 94.7598 588.88L95.6878 590.016C96.5838 589.392 97.4478 588.704 98.1358 588.112C98.6478 587.68 99.1118 587.136 99.2078 586.864H99.2238ZM97.0638 592.208H105.192V596.384H106.776V590.848H97.0638V592.208ZM106.776 590.08V581.488H105.208V585.024H102.488V586.384H105.208V590.08H106.776ZM45.5325 614.816H43.2605V609.488H41.6765V624.24H43.2605V616.192H45.5325V614.816ZM36.1085 616.832C36.2365 617.152 36.6205 617.6 37.0685 618.08C37.6765 618.736 38.3965 619.456 39.5005 620.48L40.5245 619.392C39.5645 618.544 38.8605 617.872 38.1725 617.12C37.1965 616.032 36.8925 615.376 36.8925 614.112V610.56H35.2925V614.112C35.2925 615.248 35.0365 615.968 34.0605 617.072C33.3405 617.872 32.5085 618.688 31.5325 619.552L32.5725 620.624C33.6605 619.632 34.5085 618.784 35.1645 618.064C35.6765 617.504 35.9485 617.184 36.0925 616.832H36.1085ZM57.647 617.04V609.488H56.079V612.688H53.087C52.879 611.328 51.663 610 49.455 610C47.023 610 45.791 611.6 45.791 613.088V613.696C45.791 615.184 47.023 616.784 49.455 616.784C51.695 616.784 52.911 615.424 53.087 614.048H56.079V617.04H57.647ZM56.079 617.76V619.632H50.015V617.76H48.447V624.24H57.647V617.76H56.079ZM49.455 615.424C48.095 615.424 47.311 614.496 47.311 613.616V613.168C47.311 612.288 48.095 611.376 49.455 611.376C50.815 611.376 51.599 612.288 51.599 613.168V613.616C51.599 614.496 50.815 615.424 49.455 615.424ZM50.015 622.896V620.96H56.079V622.896H50.015ZM63.5215 613.664C63.5215 615.84 63.5215 616.96 59.0095 619.856L59.8895 621.088C64.2255 618.192 64.9775 616.96 65.0575 614.464H67.1855V616.896H65.0255V618.272H67.1855V623.52H68.7375V609.792H67.1855V613.088H65.0735V610.928H59.4255V612.288H63.5215V613.664ZM71.7455 609.488H70.1935V624.24H71.7455V609.488ZM82.308 617.456C80.9 617.584 79.716 617.664 78.308 617.712V616.848C80.02 616.656 80.916 615.856 80.916 614.848V614.432C80.916 613.296 79.748 612.4 77.524 612.4C75.3 612.4 74.132 613.28 74.132 614.432V614.848C74.132 615.856 75.028 616.656 76.74 616.848V617.76C75.652 617.776 74.42 617.776 72.884 617.776V619.104C77.812 619.104 79.892 618.992 82.436 618.736L82.308 617.456ZM74.932 621.408H83.268V624.384H84.852V620.064H74.932V621.408ZM84.852 619.296V609.488H83.284V619.296H84.852ZM78.308 610.656V609.312H76.74V610.656H73.46V611.968H81.54V610.656H78.308ZM77.524 613.648C78.804 613.648 79.364 614.048 79.364 614.544V614.736C79.364 615.232 78.804 615.632 77.524 615.632C76.244 615.632 75.684 615.232 75.684 614.736V614.544C75.684 614.048 76.244 613.648 77.524 613.648ZM93.7025 624.24V619.168H99.6705V617.824H86.1345V619.168H92.1025V624.24H93.7025ZM94.6785 615.024C95.5425 615.456 96.7745 616.016 98.0865 616.528L98.6945 615.248C97.5105 614.8 96.1985 614.24 95.1745 613.68C94.0865 613.088 93.6865 612.512 93.6865 611.312V610H92.1025V611.312C92.1025 612.512 91.6865 613.088 90.5985 613.68C89.5745 614.24 88.2625 614.8 87.0785 615.248L87.7025 616.544C89.0145 616.032 90.2465 615.472 91.1105 615.04C92.1665 614.512 92.6945 614.096 92.8865 613.744H92.9025C93.1105 614.096 93.6225 614.496 94.6785 615.024ZM110.393 618.176V619.872H104.329V618.176H102.761V624.24H111.961V618.176H110.393ZM103.449 617.2C105.785 617.2 107.161 617.104 108.969 616.88L108.825 615.568C106.841 615.808 105.369 615.856 103.609 615.856H102.265V614.304H107.273V610.144H100.649V611.472H105.705V613.008H100.697V617.2H103.449ZM111.961 617.456V609.488H110.393V617.456H111.961ZM104.329 622.896V621.2H110.393V622.896H104.329Z" fill="#222222"/>
<path d="M507.82 555.292L507.113 556L476.001 524.887L476.708 524.18L507.82 555.292Z" fill="#CCCCCC"/>
<g filter="url(#filter2_d_1_4631)">
<circle cx="63" cy="63" r="63" transform="matrix(-1 0 0 1 609.113 540)" fill="white"/>
</g>
<path d="M520.415 589.84C519.023 589.968 517.887 590.032 516.527 590.08V589.168C518.239 588.976 519.119 588.128 519.119 587.088V586.672C519.119 585.504 517.983 584.56 515.743 584.56C513.503 584.56 512.367 585.488 512.367 586.672V587.088C512.367 588.128 513.231 588.976 514.959 589.168V590.112C513.903 590.128 512.671 590.128 511.135 590.128V591.472C516.063 591.472 517.999 591.392 520.543 591.136L520.415 589.84ZM522.879 592.704V587.616H524.959V586.24H522.879V581.488H521.311V592.704H522.879ZM515.055 592.272H513.471V596.096H523.279V594.736H515.055V592.272ZM516.527 582.736V581.36H514.959V582.736H511.695V584.064H519.743V582.736H516.527ZM515.743 585.808C517.007 585.808 517.567 586.272 517.567 586.784V586.976C517.567 587.488 517.007 587.952 515.743 587.952C514.479 587.952 513.919 587.488 513.919 586.976V586.784C513.919 586.272 514.479 585.808 515.743 585.808ZM528.05 593.84C528.05 595.392 529.746 596.656 532.578 596.656C535.41 596.656 537.106 595.392 537.106 593.84V593.2C537.106 591.648 535.41 590.384 532.578 590.384C529.746 590.384 528.05 591.648 528.05 593.2V593.84ZM530.514 584.608C530.514 586.304 529.65 587.088 525.202 588.944L525.826 590.208C530.866 588.064 532.066 587.168 532.066 584.72V582.4H525.81V583.744H530.514V584.608ZM537.042 590.192V581.488H535.49V583.616H532.882V584.976H535.49V586.688H532.642V588.048H535.49V590.192H537.042ZM535.554 593.744C535.554 594.528 534.402 595.36 532.578 595.36C530.754 595.36 529.602 594.528 529.602 593.744V593.296C529.602 592.512 530.754 591.68 532.578 591.68C534.402 591.68 535.554 592.512 535.554 593.296V593.744ZM546.26 587.424C546.372 587.664 546.692 587.968 547.172 588.368C547.94 589.008 548.66 589.552 549.492 590.128L550.388 588.976C549.444 588.352 548.58 587.728 547.828 587.04C547.124 586.4 546.996 585.856 546.996 584.832V584.512H550.02V583.152H546.996V581.392H545.396V583.152H542.18V584.512H545.396V584.896C545.396 586.064 545.124 586.672 544.34 587.44C543.764 588 542.788 588.736 541.764 589.456L542.692 590.592C543.588 589.968 544.484 589.264 545.172 588.672C545.684 588.24 546.148 587.696 546.244 587.424H546.26ZM545.956 591.312H544.372V596.08H553.892V594.704H545.956V591.312ZM553.588 592.064V581.488H552.02V592.064H553.588ZM564.343 591.872C563.063 591.984 561.927 592.08 560.503 592.128V590.688C562.199 590.416 563.207 589.36 563.207 588.24V587.632C563.207 586.336 561.863 585.12 559.639 585.12C557.415 585.12 556.071 586.336 556.071 587.632V588.24C556.071 589.392 557.127 590.496 558.935 590.72V592.176C557.847 592.208 556.583 592.208 555.015 592.208V593.552C560.071 593.552 561.815 593.44 564.471 593.168L564.343 591.872ZM566.775 596.24V588.768H568.983V587.392H566.775V581.488H565.207V596.24H566.775ZM563.799 583.152H560.423V581.376H558.855V583.152H555.319V584.512H563.799V583.152ZM559.639 589.456C558.359 589.456 557.607 588.8 557.607 588.096V587.776C557.607 587.072 558.343 586.416 559.639 586.416C560.919 586.416 561.671 587.072 561.671 587.776V588.096C561.671 588.8 560.935 589.456 559.639 589.456ZM573.337 586.864C573.449 587.104 573.769 587.408 574.249 587.808C575.017 588.448 575.705 588.976 576.537 589.552L577.433 588.4C576.489 587.776 575.657 587.168 574.905 586.48C574.201 585.84 574.073 585.296 574.073 584.272V583.712H576.985V582.352H569.369V583.712H572.473V584.336C572.473 585.504 572.201 586.112 571.417 586.88C570.841 587.44 569.897 588.16 568.873 588.88L569.801 590.016C570.697 589.392 571.561 588.704 572.249 588.112C572.761 587.68 573.225 587.136 573.321 586.864H573.337ZM571.177 592.208H579.305V596.384H580.889V590.848H571.177V592.208ZM580.889 590.08V581.488H579.321V585.024H576.601V586.384H579.321V590.08H580.889ZM519.646 614.816H517.374V609.488H515.79V624.24H517.374V616.192H519.646V614.816ZM510.222 616.832C510.35 617.152 510.734 617.6 511.182 618.08C511.79 618.736 512.51 619.456 513.614 620.48L514.638 619.392C513.678 618.544 512.974 617.872 512.286 617.12C511.31 616.032 511.006 615.376 511.006 614.112V610.56H509.406V614.112C509.406 615.248 509.15 615.968 508.174 617.072C507.454 617.872 506.622 618.688 505.646 619.552L506.686 620.624C507.774 619.632 508.622 618.784 509.278 618.064C509.79 617.504 510.062 617.184 510.206 616.832H510.222ZM531.76 617.04V609.488H530.192V612.688H527.2C526.992 611.328 525.776 610 523.568 610C521.136 610 519.904 611.6 519.904 613.088V613.696C519.904 615.184 521.136 616.784 523.568 616.784C525.808 616.784 527.024 615.424 527.2 614.048H530.192V617.04H531.76ZM530.192 617.76V619.632H524.128V617.76H522.56V624.24H531.76V617.76H530.192ZM523.568 615.424C522.208 615.424 521.424 614.496 521.424 613.616V613.168C521.424 612.288 522.208 611.376 523.568 611.376C524.928 611.376 525.712 612.288 525.712 613.168V613.616C525.712 614.496 524.928 615.424 523.568 615.424ZM524.128 622.896V620.96H530.192V622.896H524.128ZM537.635 613.664C537.635 615.84 537.635 616.96 533.123 619.856L534.003 621.088C538.339 618.192 539.091 616.96 539.171 614.464H541.299V616.896H539.139V618.272H541.299V623.52H542.851V609.792H541.299V613.088H539.187V610.928H533.539V612.288H537.635V613.664ZM545.859 609.488H544.307V624.24H545.859V609.488ZM556.421 617.456C555.013 617.584 553.829 617.664 552.421 617.712V616.848C554.133 616.656 555.029 615.856 555.029 614.848V614.432C555.029 613.296 553.861 612.4 551.637 612.4C549.413 612.4 548.245 613.28 548.245 614.432V614.848C548.245 615.856 549.141 616.656 550.853 616.848V617.76C549.765 617.776 548.533 617.776 546.997 617.776V619.104C551.925 619.104 554.005 618.992 556.549 618.736L556.421 617.456ZM549.045 621.408H557.381V624.384H558.965V620.064H549.045V621.408ZM558.965 619.296V609.488H557.397V619.296H558.965ZM552.421 610.656V609.312H550.853V610.656H547.573V611.968H555.653V610.656H552.421ZM551.637 613.648C552.917 613.648 553.477 614.048 553.477 614.544V614.736C553.477 615.232 552.917 615.632 551.637 615.632C550.357 615.632 549.797 615.232 549.797 614.736V614.544C549.797 614.048 550.357 613.648 551.637 613.648ZM567.816 624.24V619.168H573.784V617.824H560.248V619.168H566.216V624.24H567.816ZM568.792 615.024C569.656 615.456 570.888 616.016 572.2 616.528L572.808 615.248C571.624 614.8 570.312 614.24 569.288 613.68C568.2 613.088 567.8 612.512 567.8 611.312V610H566.216V611.312C566.216 612.512 565.8 613.088 564.712 613.68C563.688 614.24 562.376 614.8 561.192 615.248L561.816 616.544C563.128 616.032 564.36 615.472 565.224 615.04C566.28 614.512 566.808 614.096 567 613.744H567.016C567.224 614.096 567.736 614.496 568.792 615.024ZM584.506 618.176V619.872H578.442V618.176H576.874V624.24H586.074V618.176H584.506ZM577.562 617.2C579.898 617.2 581.274 617.104 583.082 616.88L582.938 615.568C580.954 615.808 579.482 615.856 577.722 615.856H576.378V614.304H581.386V610.144H574.762V611.472H579.818V613.008H574.81V617.2H577.562ZM586.074 617.456V609.488H584.506V617.456H586.074ZM578.442 622.896V621.2H584.506V622.896H578.442Z" fill="#222222"/>
<path d="M507.703 392.502C516.533 392.502 523.754 399.67 523.093 408.476C521.4 431.003 516.135 453.153 507.464 474.087C496.75 499.953 481.046 523.455 461.249 543.252C441.453 563.048 417.95 578.752 392.085 589.466C371.151 598.137 349.001 603.402 326.474 605.095C317.668 605.757 310.499 598.536 310.499 589.705C310.499 580.874 317.672 573.789 326.468 573.01C344.792 571.389 362.794 566.985 379.847 559.921C401.833 550.814 421.81 537.466 438.637 520.639C455.464 503.812 468.812 483.835 477.919 461.849C484.982 444.797 489.387 426.794 491.008 408.47C491.786 399.674 498.872 392.502 507.703 392.502Z" fill="#CBE0FF"/>
<path d="M361.54 582.984C363.826 591.513 358.77 600.344 350.093 601.984C327.895 606.179 305.137 606.826 282.673 603.869C254.915 600.214 228.15 591.129 203.904 577.13C179.658 563.132 158.406 544.495 141.363 522.283C127.569 504.307 116.751 484.275 109.285 462.953C106.367 454.619 111.486 445.825 120.016 443.54C128.546 441.254 137.247 446.349 140.275 454.644C146.583 471.924 155.497 488.173 166.733 502.816C181.22 521.696 199.284 537.537 219.893 549.436C240.502 561.334 263.253 569.057 286.847 572.163C305.147 574.573 323.675 574.168 341.794 570.991C350.492 569.466 359.254 574.454 361.54 582.984Z" fill="url(#paint6_linear_1_4631)"/>
<path d="M171.056 531.944C164.812 538.189 154.637 538.226 148.878 531.531C134.146 514.405 122.207 495.019 113.536 474.086C102.822 448.22 97.3073 420.497 97.3073 392.5C97.3073 364.504 102.822 336.781 113.536 310.915C122.207 289.982 134.146 270.596 148.878 253.47C154.637 246.775 164.812 246.812 171.056 253.057C177.301 259.301 177.239 269.383 171.569 276.153C159.759 290.256 150.144 306.1 143.08 323.153C133.973 345.139 129.286 368.703 129.286 392.5C129.286 416.298 133.973 439.862 143.08 461.848C150.144 478.901 159.759 494.745 171.569 508.848C177.239 515.618 177.3 525.7 171.056 531.944Z" fill="url(#paint7_linear_1_4631)"/>
<path d="M139.716 293.899C132.069 289.483 129.399 279.665 134.375 272.369C147.105 253.707 162.74 237.157 180.716 223.363C202.927 206.32 228.278 193.818 255.321 186.572C282.364 179.326 310.569 177.477 338.326 181.132C360.791 184.089 382.606 190.604 402.962 200.402C410.919 204.232 413.516 214.07 409.101 221.717C404.686 229.365 394.931 231.915 386.924 228.191C370.245 220.433 352.452 215.246 334.152 212.837C310.559 209.731 286.584 211.302 263.598 217.461C240.611 223.621 219.063 234.247 200.183 248.734C185.54 259.97 172.724 273.358 162.158 288.417C157.086 295.645 147.364 298.314 139.716 293.899Z" fill="url(#paint8_linear_1_4631)"/>
<path d="M361.539 202.017C363.825 193.487 372.618 188.367 380.953 191.286C402.274 198.751 422.307 209.57 440.283 223.363C462.494 240.407 481.131 261.658 495.13 285.904C509.128 310.15 518.214 336.916 521.868 364.673C524.826 387.138 524.179 409.896 519.983 432.093C518.343 440.771 509.513 445.826 500.983 443.54C492.453 441.255 487.465 432.493 488.99 423.795C492.167 405.676 492.572 387.147 490.163 368.847C487.057 345.254 479.334 322.503 467.435 301.894C455.536 281.284 439.695 263.221 420.815 248.734C406.172 237.498 389.923 228.584 372.643 222.275C364.348 219.247 359.254 210.547 361.539 202.017Z" fill="url(#paint9_linear_1_4631)"/>
<path d="M507.703 392.502C516.533 392.502 523.754 399.671 523.093 408.476C520.812 438.836 512.048 468.421 497.322 495.208C482.595 521.995 462.312 545.247 437.901 563.44C430.82 568.717 420.898 566.462 416.166 559.006C411.434 551.55 413.694 541.724 420.704 536.354C440.601 521.111 457.167 501.868 469.298 479.802C481.429 457.736 488.799 433.438 491.008 408.471C491.786 399.674 498.872 392.502 507.703 392.502Z" fill="url(#paint10_linear_1_4631)"/>
<circle cx="309" cy="392" r="144.5" fill="white" stroke="url(#paint11_linear_1_4631)"/>
<path d="M277.034 336.04V342.34H281.994V344.24H274.534V345.92H291.454V344.24H283.994V342.34H288.974V340.66H278.994V337.72H288.854V336.04H277.034ZM282.994 354.32C286.534 354.32 288.754 352.86 288.754 351V350.32C288.754 348.42 286.514 347 282.994 347C279.474 347 277.234 348.4 277.234 350.32V351C277.234 352.88 279.474 354.32 282.994 354.32ZM282.994 348.62C285.254 348.62 286.794 349.48 286.794 350.44V350.88C286.794 351.84 285.254 352.7 282.994 352.7C280.734 352.7 279.194 351.84 279.194 350.88V350.44C279.194 349.48 280.734 348.62 282.994 348.62ZM306.057 336.06H304.097V338.6H295.897V336.08H293.937V344.24H306.057V336.06ZM300.997 353.8V347.94H308.457V346.26H291.537V347.94H298.997V353.8H300.997ZM295.897 340.28H304.097V342.54H295.897V340.28ZM323.94 348.52V335.36H321.98V340.24H317.76C317.78 340.1 317.78 339.94 317.78 339.78V336.54H309.92V338.22H315.84V339.68C315.84 341.7 314.88 342.68 309.16 345.18L309.94 346.78C314.56 344.8 316.6 343.58 317.36 341.94H321.98V348.52H323.94ZM314.4 347.54H312.42V353.6H324.32V351.88H314.4V347.54ZM341.383 353.92V352.28H331.383V350.5H340.863V345.5H329.343V347.14H338.923V348.9H329.443V353.92H341.383ZM331.203 341C331.323 341.3 331.743 341.68 332.343 342.18C333.303 342.98 334.163 343.62 335.243 344.38L336.343 342.98C335.163 342.18 334.103 341.42 333.163 340.56C332.203 339.68 332.123 338.98 332.123 337.7V335.82H330.123V337.78C330.123 339.24 329.903 339.98 328.863 340.98C328.163 341.66 326.923 342.66 325.563 343.62L326.703 345.02C327.823 344.2 329.063 343.24 329.883 342.48C330.503 341.92 331.083 341.34 331.183 341H331.203ZM340.863 344.58V335.36H338.903V338.72H335.223V340.46H338.903V344.58H340.863ZM260.649 377.8C258.909 377.96 257.489 378.04 255.789 378.1V376.96C257.929 376.72 259.029 375.66 259.029 374.36V373.84C259.029 372.38 257.609 371.2 254.809 371.2C252.009 371.2 250.589 372.36 250.589 373.84V374.36C250.589 375.66 251.669 376.72 253.829 376.96V378.14C252.509 378.16 250.969 378.16 249.049 378.16V379.84C255.209 379.84 257.629 379.74 260.809 379.42L260.649 377.8ZM263.729 381.38V375.02H266.329V373.3H263.729V367.36H261.769V381.38H263.729ZM253.949 380.84H251.969V385.62H264.229V383.92H253.949V380.84ZM255.789 368.92V367.2H253.829V368.92H249.749V370.58H259.809V368.92H255.789ZM254.809 372.76C256.389 372.76 257.089 373.34 257.089 373.98V374.22C257.089 374.86 256.389 375.44 254.809 375.44C253.229 375.44 252.529 374.86 252.529 374.22V373.98C252.529 373.34 253.229 372.76 254.809 372.76ZM270.192 382.8C270.192 384.74 272.312 386.32 275.852 386.32C279.392 386.32 281.512 384.74 281.512 382.8V382C281.512 380.06 279.392 378.48 275.852 378.48C272.312 378.48 270.192 380.06 270.192 382V382.8ZM273.272 371.26C273.272 373.38 272.192 374.36 266.632 376.68L267.412 378.26C273.712 375.58 275.212 374.46 275.212 371.4V368.5H267.392V370.18H273.272V371.26ZM281.432 378.24V367.36H279.492V370.02H276.232V371.72H279.492V373.86H275.932V375.56H279.492V378.24H281.432ZM279.572 382.68C279.572 383.66 278.132 384.7 275.852 384.7C273.572 384.7 272.132 383.66 272.132 382.68V382.12C272.132 381.14 273.572 380.1 275.852 380.1C278.132 380.1 279.572 381.14 279.572 382.12V382.68ZM287.195 382.8C287.195 384.74 289.315 386.32 292.855 386.32C296.395 386.32 298.515 384.74 298.515 382.8V382C298.515 380.06 296.395 378.48 292.855 378.48C289.315 378.48 287.195 380.06 287.195 382V382.8ZM290.275 371.26C290.275 373.38 289.195 374.36 283.635 376.68L284.415 378.26C290.715 375.58 292.215 374.46 292.215 371.4V368.5H284.395V370.18H290.275V371.26ZM298.435 378.24V367.36H296.495V370.02H293.235V371.72H296.495V373.86H292.935V375.56H296.495V378.24H298.435ZM296.575 382.68C296.575 383.66 295.135 384.7 292.855 384.7C290.575 384.7 289.135 383.66 289.135 382.68V382.12C289.135 381.14 290.575 380.1 292.855 380.1C295.135 380.1 296.575 381.14 296.575 382.12V382.68ZM304.198 382.8C304.198 384.74 306.318 386.32 309.858 386.32C313.398 386.32 315.518 384.74 315.518 382.8V382C315.518 380.06 313.398 378.48 309.858 378.48C306.318 378.48 304.198 380.06 304.198 382V382.8ZM309.778 372.1C309.778 370.32 308.338 368.06 305.198 368.06C302.058 368.06 300.618 370.32 300.618 372.1V373.12C300.618 374.9 302.058 377.16 305.198 377.16C308.338 377.16 309.778 374.9 309.778 373.12V372.1ZM315.438 378.24V367.36H313.498V369.66H310.598V371.36H313.498V373.82H310.598V375.52H313.498V378.24H315.438ZM313.578 382.68C313.578 383.66 312.138 384.7 309.858 384.7C307.578 384.7 306.138 383.66 306.138 382.68V382.12C306.138 381.14 307.578 380.1 309.858 380.1C312.138 380.1 313.578 381.14 313.578 382.12V382.68ZM307.878 373.02C307.878 374.2 307.038 375.44 305.198 375.44C303.358 375.44 302.518 374.2 302.518 373.02V372.2C302.518 371.02 303.358 369.78 305.198 369.78C307.038 369.78 307.878 371.02 307.878 372.2V373.02ZM332.322 385.8V367.36H330.342V385.8H332.322ZM322.842 376.58C323.002 376.98 323.482 377.54 324.042 378.14C324.802 378.96 325.702 379.86 327.082 381.14L328.362 379.78C327.162 378.72 326.282 377.88 325.422 376.94C324.202 375.58 323.822 374.76 323.822 373.18V368.68H321.822V373.18C321.822 374.6 321.502 375.5 320.282 376.88C319.382 377.88 318.342 378.9 317.122 379.98L318.422 381.32C319.782 380.08 320.842 379.02 321.662 378.12C322.302 377.42 322.642 377.02 322.822 376.58H322.842ZM334.045 381.66V383.34H350.965V381.66H334.045ZM342.525 374.34C342.745 374.8 343.565 375.5 344.865 376.32C346.065 377.08 347.525 377.92 349.005 378.76L349.965 377.22C348.385 376.36 347.225 375.7 345.965 374.88C343.805 373.46 343.505 372.64 343.505 370.68V368.66H341.505V370.68C341.505 372.64 341.085 373.5 339.265 374.74C337.925 375.64 336.665 376.36 335.065 377.24L336.045 378.8C337.705 377.88 338.985 377.1 340.145 376.36C341.485 375.5 342.305 374.8 342.505 374.34H342.525ZM366.728 379.04H354.988V385.82H366.728V379.04ZM359.648 375.24C357.768 375.46 356.668 375.52 353.668 375.52V373.54H358.048V371.96H353.668V369.98H358.848V368.36H351.768V377.14C356.728 377.14 357.968 377.1 359.848 376.84L359.648 375.24ZM364.788 384.16H356.928V380.7H364.788V384.16ZM359.048 373.34H361.388V378.04H363.268V367.6H361.388V371.66H359.048V373.34ZM364.828 378.08H366.728V367.36H364.828V378.08Z" fill="#19B29B"/>
<path d="M264.223 408.575V419.39H270.838V418.46H265.273V414.305H270.418V413.375H265.273V409.505H270.733V408.575H264.223ZM275.576 411.155C274.301 411.155 273.476 411.815 273.101 412.43V411.305H272.096V419.39H273.116V414.14C273.116 413.195 274.061 412.085 275.426 412.085C277.031 412.085 277.466 413.045 277.466 414.2V419.39H278.486V413.945C278.486 412.265 277.421 411.155 275.576 411.155ZM283.077 419.39L285.987 411.305H284.922L282.522 418.34L280.077 411.305H278.982L281.937 419.39H283.077ZM286.586 419.39H287.606V411.305H286.586V419.39ZM286.541 409.76H287.651V408.62H286.541V409.76ZM293.642 411.32C293.312 411.2 292.937 411.155 292.487 411.155C291.257 411.155 290.507 411.95 290.162 412.73V411.305H289.157V419.39H290.177V414.8C290.177 413.285 291.017 412.19 292.352 412.19C292.742 412.19 293.057 412.25 293.327 412.355L293.642 411.32ZM297.176 411.155C295.016 411.155 293.741 412.49 293.741 414.83V415.835C293.741 418.16 295.016 419.51 297.176 419.51C299.336 419.51 300.611 418.16 300.611 415.835V414.83C300.611 412.505 299.336 411.155 297.176 411.155ZM297.176 418.61C295.691 418.61 294.776 417.68 294.776 415.775V414.89C294.776 412.985 295.691 412.055 297.176 412.055C298.661 412.055 299.576 412.985 299.576 414.89V415.775C299.576 417.68 298.661 418.61 297.176 418.61ZM305.222 411.155C303.947 411.155 303.122 411.815 302.747 412.43V411.305H301.742V419.39H302.762V414.14C302.762 413.195 303.707 412.085 305.072 412.085C306.677 412.085 307.112 413.045 307.112 414.2V419.39H308.132V413.945C308.132 412.265 307.067 411.155 305.222 411.155ZM317.747 411.155C316.457 411.155 315.647 411.935 315.287 412.625C314.927 411.695 314.132 411.155 312.842 411.155C311.657 411.155 310.937 411.785 310.577 412.43V411.305H309.572V419.39H310.592V414.14C310.592 413.195 311.327 412.085 312.662 412.085C314.117 412.085 314.477 412.91 314.477 414.215V419.39H315.497V414.08C315.527 413.15 316.262 412.085 317.567 412.085C319.022 412.085 319.382 412.91 319.382 414.215V419.39H320.402V413.945C320.402 412.235 319.577 411.155 317.747 411.155ZM322.486 414.815V414.68C322.486 413.09 323.326 412.055 324.751 412.055C326.161 412.055 326.986 413 326.986 414.68V414.815H322.486ZM327.376 417.815C326.791 418.235 325.981 418.61 324.901 418.61C323.416 418.61 322.486 417.59 322.486 415.805V415.67H328.006V414.83C328.006 412.565 326.851 411.155 324.751 411.155C322.726 411.155 321.466 412.505 321.466 414.8V415.805C321.466 418.16 322.741 419.51 324.886 419.51C326.251 419.51 327.181 419.045 327.826 418.595L327.376 417.815ZM332.595 411.155C331.32 411.155 330.495 411.815 330.12 412.43V411.305H329.115V419.39H330.135V414.14C330.135 413.195 331.08 412.085 332.445 412.085C334.05 412.085 334.485 413.045 334.485 414.2V419.39H335.505V413.945C335.505 412.265 334.44 411.155 332.595 411.155ZM337.576 417.14C337.576 418.895 338.251 419.465 339.661 419.465C340.096 419.465 340.711 419.39 341.026 419.27L340.876 418.43C340.501 418.535 340.141 418.58 339.736 418.58C338.926 418.58 338.596 418.19 338.596 417.095V412.175H340.831V411.305H338.596V409.22H337.576V411.305H336.196V412.175H337.576V417.14ZM344.051 419.51C344.666 419.51 345.236 419.39 345.686 419.165C346.106 418.955 346.436 418.655 346.586 418.4H346.601V419.39H347.591V413.735C347.591 412.1 346.481 411.155 344.681 411.155C343.451 411.155 342.536 411.59 341.786 412.115L342.281 412.895C342.971 412.415 343.796 412.07 344.666 412.07C345.926 412.07 346.586 412.73 346.586 413.9V414.65H344.306C342.431 414.65 341.456 415.565 341.456 416.87V417.2C341.456 418.625 342.521 419.51 344.051 419.51ZM346.586 416.87C346.586 417.485 346.256 417.89 345.821 418.16C345.341 418.46 344.846 418.625 344.201 418.625C343.376 418.625 342.476 418.205 342.476 417.155V416.915C342.476 416.09 343.031 415.505 344.321 415.505H346.586V416.87ZM348.959 419.39H349.979V408.05H348.959V419.39ZM248.963 444.59H249.953L252.848 438.47C253.103 437.96 253.223 437.75 253.358 437.105V446.39H254.393V435.575H253.148L249.473 443.495L245.813 435.575H244.523V446.39H245.558V437.105C245.723 437.75 245.843 437.96 246.098 438.47L248.963 444.59ZM258.131 446.51C258.746 446.51 259.316 446.39 259.766 446.165C260.186 445.955 260.516 445.655 260.666 445.4H260.681V446.39H261.671V440.735C261.671 439.1 260.561 438.155 258.761 438.155C257.531 438.155 256.616 438.59 255.866 439.115L256.361 439.895C257.051 439.415 257.876 439.07 258.746 439.07C260.006 439.07 260.666 439.73 260.666 440.9V441.65H258.386C256.511 441.65 255.536 442.565 255.536 443.87V444.2C255.536 445.625 256.601 446.51 258.131 446.51ZM260.666 443.87C260.666 444.485 260.336 444.89 259.901 445.16C259.421 445.46 258.926 445.625 258.281 445.625C257.456 445.625 256.556 445.205 256.556 444.155V443.915C256.556 443.09 257.111 442.505 258.401 442.505H260.666V443.87ZM266.519 438.155C265.244 438.155 264.419 438.815 264.044 439.43V438.305H263.039V446.39H264.059V441.14C264.059 440.195 265.004 439.085 266.369 439.085C267.974 439.085 268.409 440.045 268.409 441.2V446.39H269.429V440.945C269.429 439.265 268.364 438.155 266.519 438.155ZM273.06 446.51C273.675 446.51 274.245 446.39 274.695 446.165C275.115 445.955 275.445 445.655 275.595 445.4H275.61V446.39H276.6V440.735C276.6 439.1 275.49 438.155 273.69 438.155C272.46 438.155 271.545 438.59 270.795 439.115L271.29 439.895C271.98 439.415 272.805 439.07 273.675 439.07C274.935 439.07 275.595 439.73 275.595 440.9V441.65H273.315C271.44 441.65 270.465 442.565 270.465 443.87V444.2C270.465 445.625 271.53 446.51 273.06 446.51ZM275.595 443.87C275.595 444.485 275.265 444.89 274.83 445.16C274.35 445.46 273.855 445.625 273.21 445.625C272.385 445.625 271.485 445.205 271.485 444.155V443.915C271.485 443.09 272.04 442.505 273.33 442.505H275.595V443.87ZM283.218 446.285C283.218 447.98 282.423 448.775 280.938 448.775C280.023 448.775 279.453 448.625 278.703 448.1L278.238 448.895C278.913 449.42 279.798 449.735 280.938 449.735C282.948 449.735 284.238 448.55 284.238 446.255V438.305H283.233V439.295C282.813 438.695 281.988 438.155 280.803 438.155C278.958 438.155 277.593 439.415 277.593 441.62V442.895C277.593 445.1 278.958 446.36 280.818 446.36C281.748 446.36 282.753 445.985 283.203 445.175H283.218V446.285ZM278.613 441.77C278.613 440.06 279.498 439.055 280.863 439.055C282.243 439.055 283.218 440.12 283.218 441.065V443.345C283.218 444.77 282.168 445.46 280.863 445.46C279.513 445.46 278.613 444.47 278.613 442.745V441.77ZM286.399 441.815V441.68C286.399 440.09 287.239 439.055 288.664 439.055C290.074 439.055 290.899 440 290.899 441.68V441.815H286.399ZM291.289 444.815C290.704 445.235 289.894 445.61 288.814 445.61C287.329 445.61 286.399 444.59 286.399 442.805V442.67H291.919V441.83C291.919 439.565 290.764 438.155 288.664 438.155C286.639 438.155 285.379 439.505 285.379 441.8V442.805C285.379 445.16 286.654 446.51 288.799 446.51C290.164 446.51 291.094 446.045 291.739 445.595L291.289 444.815ZM301.203 438.155C299.913 438.155 299.103 438.935 298.743 439.625C298.383 438.695 297.588 438.155 296.298 438.155C295.113 438.155 294.393 438.785 294.033 439.43V438.305H293.028V446.39H294.048V441.14C294.048 440.195 294.783 439.085 296.118 439.085C297.573 439.085 297.933 439.91 297.933 441.215V446.39H298.953V441.08C298.983 440.15 299.718 439.085 301.023 439.085C302.478 439.085 302.838 439.91 302.838 441.215V446.39H303.858V440.945C303.858 439.235 303.033 438.155 301.203 438.155ZM305.942 441.815V441.68C305.942 440.09 306.782 439.055 308.207 439.055C309.617 439.055 310.442 440 310.442 441.68V441.815H305.942ZM310.832 444.815C310.247 445.235 309.437 445.61 308.357 445.61C306.872 445.61 305.942 444.59 305.942 442.805V442.67H311.462V441.83C311.462 439.565 310.307 438.155 308.207 438.155C306.182 438.155 304.922 439.505 304.922 441.8V442.805C304.922 445.16 306.197 446.51 308.342 446.51C309.707 446.51 310.637 446.045 311.282 445.595L310.832 444.815ZM316.051 438.155C314.776 438.155 313.951 438.815 313.576 439.43V438.305H312.571V446.39H313.591V441.14C313.591 440.195 314.536 439.085 315.901 439.085C317.506 439.085 317.941 440.045 317.941 441.2V446.39H318.961V440.945C318.961 439.265 317.896 438.155 316.051 438.155ZM321.032 444.14C321.032 445.895 321.707 446.465 323.117 446.465C323.552 446.465 324.167 446.39 324.482 446.27L324.332 445.43C323.957 445.535 323.597 445.58 323.192 445.58C322.382 445.58 322.052 445.19 322.052 444.095V439.175H324.287V438.305H322.052V436.22H321.032V438.305H319.652V439.175H321.032V444.14ZM331.497 445.58C330.522 445.58 329.472 445.25 328.407 444.47L327.867 445.355C328.827 446.09 330.117 446.555 331.542 446.555C333.882 446.555 335.262 445.265 335.262 443.72V443.375C335.262 441.83 334.482 441.005 331.692 440.375C329.727 439.925 329.127 439.385 329.127 438.455V438.155C329.127 437.03 330.267 436.37 331.602 436.37C332.712 436.37 333.627 436.685 334.317 437.18L334.812 436.325C334.077 435.8 333.057 435.41 331.602 435.41C329.547 435.41 328.062 436.52 328.062 438.155V438.5C328.062 439.865 328.842 440.765 331.362 441.335C333.672 441.86 334.197 442.385 334.197 443.405V443.72C334.197 444.695 333.192 445.58 331.497 445.58ZM335.419 438.305L338.449 446.525L337.414 449.42L338.284 449.735L342.484 438.305H341.434L338.974 445.25L336.469 438.305H335.419ZM345.602 445.595C344.657 445.595 343.787 445.25 343.052 444.755L342.557 445.565C343.322 446.12 344.357 446.51 345.662 446.51C347.372 446.51 348.632 445.61 348.632 444.32V444.095C348.632 442.805 347.792 442.16 345.797 441.785C344.522 441.545 343.772 441.185 343.772 440.48V440.315C343.772 439.61 344.432 439.055 345.647 439.055C346.682 439.055 347.312 439.31 347.987 439.76L348.452 438.995C347.792 438.5 346.907 438.155 345.677 438.155C343.697 438.155 342.752 439.145 342.752 440.3V440.51C342.752 441.83 343.817 442.355 345.437 442.67C346.982 442.97 347.612 443.33 347.612 444.14V444.29C347.612 444.98 346.907 445.595 345.602 445.595ZM350.194 444.14C350.194 445.895 350.869 446.465 352.279 446.465C352.714 446.465 353.329 446.39 353.644 446.27L353.494 445.43C353.119 445.535 352.759 445.58 352.354 445.58C351.544 445.58 351.214 445.19 351.214 444.095V439.175H353.449V438.305H351.214V436.22H350.194V438.305H348.814V439.175H350.194V444.14ZM355.124 441.815V441.68C355.124 440.09 355.964 439.055 357.389 439.055C358.799 439.055 359.624 440 359.624 441.68V441.815H355.124ZM360.014 444.815C359.429 445.235 358.619 445.61 357.539 445.61C356.054 445.61 355.124 444.59 355.124 442.805V442.67H360.644V441.83C360.644 439.565 359.489 438.155 357.389 438.155C355.364 438.155 354.104 439.505 354.104 441.8V442.805C354.104 445.16 355.379 446.51 357.524 446.51C358.889 446.51 359.819 446.045 360.464 445.595L360.014 444.815ZM369.928 438.155C368.638 438.155 367.828 438.935 367.468 439.625C367.108 438.695 366.313 438.155 365.023 438.155C363.838 438.155 363.118 438.785 362.758 439.43V438.305H361.753V446.39H362.773V441.14C362.773 440.195 363.508 439.085 364.843 439.085C366.298 439.085 366.658 439.91 366.658 441.215V446.39H367.678V441.08C367.708 440.15 368.443 439.085 369.748 439.085C371.203 439.085 371.563 439.91 371.563 441.215V446.39H372.583V440.945C372.583 439.235 371.758 438.155 369.928 438.155Z" fill="#555555"/>
<path d="M309 179H310V135H309V179Z" fill="#CCCCCC"/>
<g filter="url(#filter3_d_1_4631)">
<circle cx="310" cy="73" r="63" fill="white"/>
</g>
<path d="M283.802 59.84C282.41 59.968 281.274 60.032 279.914 60.08V59.168C281.626 58.976 282.506 58.128 282.506 57.088V56.672C282.506 55.504 281.37 54.56 279.13 54.56C276.89 54.56 275.754 55.488 275.754 56.672V57.088C275.754 58.128 276.618 58.976 278.346 59.168V60.112C277.29 60.128 276.058 60.128 274.522 60.128V61.472C279.45 61.472 281.386 61.392 283.93 61.136L283.802 59.84ZM286.266 62.704V57.616H288.346V56.24H286.266V51.488H284.698V62.704H286.266ZM278.442 62.272H276.858V66.096H286.666V64.736H278.442V62.272ZM279.914 52.736V51.36H278.346V52.736H275.082V54.064H283.13V52.736H279.914ZM279.13 55.808C280.394 55.808 280.954 56.272 280.954 56.784V56.976C280.954 57.488 280.394 57.952 279.13 57.952C277.866 57.952 277.306 57.488 277.306 56.976V56.784C277.306 56.272 277.866 55.808 279.13 55.808ZM291.436 63.84C291.436 65.392 293.132 66.656 295.964 66.656C298.796 66.656 300.492 65.392 300.492 63.84V63.2C300.492 61.648 298.796 60.384 295.964 60.384C293.132 60.384 291.436 61.648 291.436 63.2V63.84ZM293.9 54.608C293.9 56.304 293.036 57.088 288.588 58.944L289.212 60.208C294.252 58.064 295.452 57.168 295.452 54.72V52.4H289.196V53.744H293.9V54.608ZM300.428 60.192V51.488H298.876V53.616H296.268V54.976H298.876V56.688H296.028V58.048H298.876V60.192H300.428ZM298.94 63.744C298.94 64.528 297.788 65.36 295.964 65.36C294.14 65.36 292.988 64.528 292.988 63.744V63.296C292.988 62.512 294.14 61.68 295.964 61.68C297.788 61.68 298.94 62.512 298.94 63.296V63.744ZM309.647 57.424C309.759 57.664 310.079 57.968 310.559 58.368C311.327 59.008 312.047 59.552 312.879 60.128L313.775 58.976C312.831 58.352 311.967 57.728 311.215 57.04C310.511 56.4 310.383 55.856 310.383 54.832V54.512H313.407V53.152H310.383V51.392H308.783V53.152H305.567V54.512H308.783V54.896C308.783 56.064 308.511 56.672 307.727 57.44C307.151 58 306.175 58.736 305.151 59.456L306.079 60.592C306.975 59.968 307.871 59.264 308.559 58.672C309.071 58.24 309.535 57.696 309.631 57.424H309.647ZM309.343 61.312H307.759V66.08H317.279V64.704H309.343V61.312ZM316.975 62.064V51.488H315.407V62.064H316.975ZM327.729 61.872C326.449 61.984 325.313 62.08 323.889 62.128V60.688C325.585 60.416 326.593 59.36 326.593 58.24V57.632C326.593 56.336 325.249 55.12 323.025 55.12C320.801 55.12 319.457 56.336 319.457 57.632V58.24C319.457 59.392 320.513 60.496 322.321 60.72V62.176C321.233 62.208 319.969 62.208 318.401 62.208V63.552C323.457 63.552 325.201 63.44 327.857 63.168L327.729 61.872ZM330.161 66.24V58.768H332.369V57.392H330.161V51.488H328.593V66.24H330.161ZM327.185 53.152H323.809V51.376H322.241V53.152H318.705V54.512H327.185V53.152ZM323.025 59.456C321.745 59.456 320.993 58.8 320.993 58.096V57.776C320.993 57.072 321.729 56.416 323.025 56.416C324.305 56.416 325.057 57.072 325.057 57.776V58.096C325.057 58.8 324.321 59.456 323.025 59.456ZM336.724 56.864C336.836 57.104 337.156 57.408 337.636 57.808C338.404 58.448 339.092 58.976 339.924 59.552L340.82 58.4C339.876 57.776 339.044 57.168 338.292 56.48C337.588 55.84 337.46 55.296 337.46 54.272V53.712H340.372V52.352H332.756V53.712H335.86V54.336C335.86 55.504 335.588 56.112 334.804 56.88C334.228 57.44 333.284 58.16 332.26 58.88L333.188 60.016C334.084 59.392 334.948 58.704 335.636 58.112C336.148 57.68 336.612 57.136 336.708 56.864H336.724ZM334.564 62.208H342.692V66.384H344.276V60.848H334.564V62.208ZM344.276 60.08V51.488H342.708V55.024H339.988V56.384H342.708V60.08H344.276ZM281.513 84.816H279.241V79.488H277.657V94.24H279.241V86.192H281.513V84.816ZM272.089 86.832C272.217 87.152 272.601 87.6 273.049 88.08C273.657 88.736 274.377 89.456 275.481 90.48L276.505 89.392C275.545 88.544 274.841 87.872 274.153 87.12C273.177 86.032 272.873 85.376 272.873 84.112V80.56H271.273V84.112C271.273 85.248 271.017 85.968 270.041 87.072C269.321 87.872 268.489 88.688 267.513 89.552L268.553 90.624C269.641 89.632 270.489 88.784 271.145 88.064C271.657 87.504 271.929 87.184 272.073 86.832H272.089ZM293.627 87.04V79.488H292.059V82.688H289.067C288.859 81.328 287.643 80 285.435 80C283.003 80 281.771 81.6 281.771 83.088V83.696C281.771 85.184 283.003 86.784 285.435 86.784C287.675 86.784 288.891 85.424 289.067 84.048H292.059V87.04H293.627ZM292.059 87.76V89.632H285.995V87.76H284.427V94.24H293.627V87.76H292.059ZM285.435 85.424C284.075 85.424 283.291 84.496 283.291 83.616V83.168C283.291 82.288 284.075 81.376 285.435 81.376C286.795 81.376 287.579 82.288 287.579 83.168V83.616C287.579 84.496 286.795 85.424 285.435 85.424ZM285.995 92.896V90.96H292.059V92.896H285.995ZM299.502 83.664C299.502 85.84 299.502 86.96 294.99 89.856L295.87 91.088C300.206 88.192 300.958 86.96 301.038 84.464H303.166V86.896H301.006V88.272H303.166V93.52H304.718V79.792H303.166V83.088H301.054V80.928H295.406V82.288H299.502V83.664ZM307.726 79.488H306.174V94.24H307.726V79.488ZM318.288 87.456C316.88 87.584 315.696 87.664 314.288 87.712V86.848C316 86.656 316.896 85.856 316.896 84.848V84.432C316.896 83.296 315.728 82.4 313.504 82.4C311.28 82.4 310.112 83.28 310.112 84.432V84.848C310.112 85.856 311.008 86.656 312.72 86.848V87.76C311.632 87.776 310.4 87.776 308.864 87.776V89.104C313.792 89.104 315.872 88.992 318.416 88.736L318.288 87.456ZM310.912 91.408H319.248V94.384H320.832V90.064H310.912V91.408ZM320.832 89.296V79.488H319.264V89.296H320.832ZM314.288 80.656V79.312H312.72V80.656H309.44V81.968H317.52V80.656H314.288ZM313.504 83.648C314.784 83.648 315.344 84.048 315.344 84.544V84.736C315.344 85.232 314.784 85.632 313.504 85.632C312.224 85.632 311.664 85.232 311.664 84.736V84.544C311.664 84.048 312.224 83.648 313.504 83.648ZM332.723 94.24V89.168H338.691V87.824H325.155V89.168H331.123V94.24H332.723ZM333.699 85.024C334.563 85.456 335.795 86.016 337.107 86.528L337.715 85.248C336.531 84.8 335.219 84.24 334.195 83.68C333.107 83.088 332.707 82.512 332.707 81.312V80H331.123V81.312C331.123 82.512 330.707 83.088 329.619 83.68C328.595 84.24 327.283 84.8 326.099 85.248L326.723 86.544C328.035 86.032 329.267 85.472 330.131 85.04C331.187 84.512 331.715 84.096 331.907 83.744H331.923C332.131 84.096 332.643 84.496 333.699 85.024ZM349.413 88.176V89.872H343.349V88.176H341.781V94.24H350.981V88.176H349.413ZM342.469 87.2C344.805 87.2 346.181 87.104 347.989 86.88L347.845 85.568C345.861 85.808 344.389 85.856 342.629 85.856H341.285V84.304H346.293V80.144H339.669V81.472H344.725V83.008H339.717V87.2H342.469ZM350.981 87.456V79.488H349.413V87.456H350.981ZM343.349 92.896V91.2H349.413V92.896H343.349Z" fill="#222222"/>
<path d="M111.293 555.292L112 556L143.113 524.887L142.406 524.18L111.293 555.292Z" fill="#CCCCCC"/>
<g filter="url(#filter4_d_1_4631)">
<circle cx="73" cy="603" r="63" fill="white"/>
</g>
<path d="M55.123 591.84C53.731 591.968 52.595 592.032 51.235 592.08V591.168C52.947 590.976 53.827 590.128 53.827 589.088V588.672C53.827 587.504 52.691 586.56 50.451 586.56C48.211 586.56 47.075 587.488 47.075 588.672V589.088C47.075 590.128 47.939 590.976 49.667 591.168V592.112C48.611 592.128 47.379 592.128 45.843 592.128V593.472C50.771 593.472 52.707 593.392 55.251 593.136L55.123 591.84ZM57.587 594.704V589.616H59.667V588.24H57.587V583.488H56.019V594.704H57.587ZM49.763 594.272H48.179V598.096H57.987V596.736H49.763V594.272ZM51.235 584.736V583.36H49.667V584.736H46.403V586.064H54.451V584.736H51.235ZM50.451 587.808C51.715 587.808 52.275 588.272 52.275 588.784V588.976C52.275 589.488 51.715 589.952 50.451 589.952C49.187 589.952 48.627 589.488 48.627 588.976V588.784C48.627 588.272 49.187 587.808 50.451 587.808ZM62.7575 595.84C62.7575 597.392 64.4535 598.656 67.2855 598.656C70.1175 598.656 71.8135 597.392 71.8135 595.84V595.2C71.8135 593.648 70.1175 592.384 67.2855 592.384C64.4535 592.384 62.7575 593.648 62.7575 595.2V595.84ZM65.2215 586.608C65.2215 588.304 64.3575 589.088 59.9095 590.944L60.5335 592.208C65.5735 590.064 66.7735 589.168 66.7735 586.72V584.4H60.5175V585.744H65.2215V586.608ZM71.7495 592.192V583.488H70.1975V585.616H67.5895V586.976H70.1975V588.688H67.3495V590.048H70.1975V592.192H71.7495ZM70.2615 595.744C70.2615 596.528 69.1095 597.36 67.2855 597.36C65.4615 597.36 64.3095 596.528 64.3095 595.744V595.296C64.3095 594.512 65.4615 593.68 67.2855 593.68C69.1095 593.68 70.2615 594.512 70.2615 595.296V595.744ZM86.84 588.816H84.568V583.488H82.984V598.24H84.568V590.192H86.84V588.816ZM77.416 590.832C77.544 591.152 77.928 591.6 78.376 592.08C78.984 592.736 79.704 593.456 80.808 594.48L81.832 593.392C80.872 592.544 80.168 591.872 79.48 591.12C78.504 590.032 78.2 589.376 78.2 588.112V584.56H76.6V588.112C76.6 589.248 76.344 589.968 75.368 591.072C74.648 591.872 73.816 592.688 72.84 593.552L73.88 594.624C74.968 593.632 75.816 592.784 76.472 592.064C76.984 591.504 77.256 591.184 77.4 590.832H77.416ZM93.1145 594.928V589.568H91.5305V594.928H86.6345V596.272H100.17V594.928H93.1145ZM88.2985 584.816V586.192H96.6025V587.312C96.6025 589.296 96.4425 591.008 96.0585 593.024L97.6425 593.216C98.0105 591.216 98.1865 589.616 98.1865 586.752V584.816H88.2985ZM63.0135 612.592C60.8855 612.592 59.7815 614.032 59.7815 616.832V618.4C59.7815 621.2 60.9015 622.64 63.0135 622.64C64.5495 622.64 65.5415 621.888 65.9895 620.416H67.9415V625.52H69.4775V611.792H67.9415V614.736H65.9575C65.5095 613.328 64.5015 612.592 63.0135 612.592ZM72.2775 611.488H70.7255V626.24H72.2775V611.488ZM63.0135 621.248C61.7815 621.248 61.2695 620.208 61.2695 618.224V617.008C61.2695 615.024 61.7815 614 63.0135 614C64.2455 614 64.7575 615.024 64.7575 617.008V618.224C64.7575 620.192 64.2615 621.248 63.0135 621.248ZM66.2455 616.832C66.2455 616.576 66.2295 616.336 66.2135 616.096H67.9415V619.056H66.2135C66.2295 618.848 66.2455 618.624 66.2455 618.4V616.832ZM75.848 623.888C75.848 625.44 77.512 626.656 80.296 626.656C83.08 626.656 84.744 625.44 84.744 623.888V623.248C84.744 621.696 83.08 620.48 80.296 620.48C77.512 620.48 75.848 621.696 75.848 623.248V623.888ZM80.648 619.264V612.208H79.096V614.592H75.304V612.208H73.752V619.264H80.648ZM83.192 623.792C83.192 624.576 82.072 625.36 80.296 625.36C78.52 625.36 77.4 624.576 77.4 623.792V623.344C77.4 622.56 78.52 621.776 80.296 621.776C82.072 621.776 83.192 622.56 83.192 623.344V623.792ZM86.776 614.912H84.68V611.488H83.112V620.288H84.68V616.288H86.776V614.912ZM75.304 615.92H79.096V617.92H75.304V615.92Z" fill="#222222"/>
<path d="M507.82 555.292L507.113 556L476.001 524.887L476.708 524.18L507.82 555.292Z" fill="#CCCCCC"/>
<g filter="url(#filter5_d_1_4631)">
<circle cx="63" cy="63" r="63" transform="matrix(-1 0 0 1 609 540)" fill="white"/>
</g>
<path d="M528.123 591.84C526.731 591.968 525.595 592.032 524.235 592.08V591.168C525.947 590.976 526.827 590.128 526.827 589.088V588.672C526.827 587.504 525.691 586.56 523.451 586.56C521.211 586.56 520.075 587.488 520.075 588.672V589.088C520.075 590.128 520.939 590.976 522.667 591.168V592.112C521.611 592.128 520.379 592.128 518.843 592.128V593.472C523.771 593.472 525.707 593.392 528.251 593.136L528.123 591.84ZM530.587 594.704V589.616H532.667V588.24H530.587V583.488H529.019V594.704H530.587ZM522.763 594.272H521.179V598.096H530.987V596.736H522.763V594.272ZM524.235 584.736V583.36H522.667V584.736H519.403V586.064H527.451V584.736H524.235ZM523.451 587.808C524.715 587.808 525.275 588.272 525.275 588.784V588.976C525.275 589.488 524.715 589.952 523.451 589.952C522.187 589.952 521.627 589.488 521.627 588.976V588.784C521.627 588.272 522.187 587.808 523.451 587.808ZM535.758 595.84C535.758 597.392 537.454 598.656 540.286 598.656C543.118 598.656 544.814 597.392 544.814 595.84V595.2C544.814 593.648 543.118 592.384 540.286 592.384C537.454 592.384 535.758 593.648 535.758 595.2V595.84ZM538.222 586.608C538.222 588.304 537.358 589.088 532.91 590.944L533.534 592.208C538.574 590.064 539.774 589.168 539.774 586.72V584.4H533.518V585.744H538.222V586.608ZM544.75 592.192V583.488H543.198V585.616H540.59V586.976H543.198V588.688H540.35V590.048H543.198V592.192H544.75ZM543.262 595.744C543.262 596.528 542.11 597.36 540.286 597.36C538.462 597.36 537.31 596.528 537.31 595.744V595.296C537.31 594.512 538.462 593.68 540.286 593.68C542.11 593.68 543.262 594.512 543.262 595.296V595.744ZM549.36 595.84C549.36 597.392 551.056 598.656 553.888 598.656C556.72 598.656 558.416 597.392 558.416 595.84V595.2C558.416 593.648 556.72 592.384 553.888 592.384C551.056 592.384 549.36 593.648 549.36 595.2V595.84ZM551.824 586.608C551.824 588.304 550.96 589.088 546.512 590.944L547.136 592.208C552.176 590.064 553.376 589.168 553.376 586.72V584.4H547.12V585.744H551.824V586.608ZM558.352 592.192V583.488H556.8V585.616H554.192V586.976H556.8V588.688H553.952V590.048H556.8V592.192H558.352ZM556.864 595.744C556.864 596.528 555.712 597.36 553.888 597.36C552.064 597.36 550.912 596.528 550.912 595.744V595.296C550.912 594.512 552.064 593.68 553.888 593.68C555.712 593.68 556.864 594.512 556.864 595.296V595.744ZM562.962 595.84C562.962 597.392 564.658 598.656 567.49 598.656C570.322 598.656 572.018 597.392 572.018 595.84V595.2C572.018 593.648 570.322 592.384 567.49 592.384C564.658 592.384 562.962 593.648 562.962 595.2V595.84ZM567.426 587.28C567.426 585.856 566.274 584.048 563.762 584.048C561.25 584.048 560.098 585.856 560.098 587.28V588.096C560.098 589.52 561.25 591.328 563.762 591.328C566.274 591.328 567.426 589.52 567.426 588.096V587.28ZM571.954 592.192V583.488H570.402V585.328H568.082V586.688H570.402V588.656H568.082V590.016H570.402V592.192H571.954ZM570.466 595.744C570.466 596.528 569.314 597.36 567.49 597.36C565.666 597.36 564.514 596.528 564.514 595.744V595.296C564.514 594.512 565.666 593.68 567.49 593.68C569.314 593.68 570.466 594.512 570.466 595.296V595.744ZM565.906 588.016C565.906 588.96 565.234 589.952 563.762 589.952C562.29 589.952 561.618 588.96 561.618 588.016V587.36C561.618 586.416 562.29 585.424 563.762 585.424C565.234 585.424 565.906 586.416 565.906 587.36V588.016ZM526.619 615.248C526.619 613.824 525.467 612.016 522.955 612.016C520.443 612.016 519.291 613.824 519.291 615.248V616.064C519.291 617.488 520.443 619.296 522.955 619.296C525.467 619.296 526.619 617.488 526.619 616.064V615.248ZM521.435 622.176H529.563V626.384H531.147V620.816H521.435V622.176ZM531.147 620.048V611.488H529.595V613.36H527.275V614.72H529.595V616.688H527.275V618.048H529.595V620.048H531.147ZM525.099 615.984C525.099 616.928 524.427 617.92 522.955 617.92C521.483 617.92 520.811 616.928 520.811 615.984V615.328C520.811 614.384 521.483 613.392 522.955 613.392C524.427 613.392 525.099 614.384 525.099 615.328V615.984ZM539.694 620.704C536.91 620.704 535.246 621.872 535.246 623.36V624C535.246 625.488 536.91 626.656 539.694 626.656C542.478 626.656 544.142 625.488 544.142 624V623.36C544.142 621.872 542.478 620.704 539.694 620.704ZM535.87 619.68C538.206 619.68 539.582 619.584 541.39 619.36L541.246 618.048C539.262 618.288 537.79 618.336 536.03 618.336H534.686V616.576H539.678V612.192H533.07V613.536H538.11V615.264H533.118V619.68H535.87ZM546.174 613.696H544.078V611.488H542.51V620.512H544.078V618.048H546.174V616.672H544.078V615.072H546.174V613.696ZM539.694 625.36C537.918 625.36 536.798 624.624 536.798 623.904V623.456C536.798 622.736 537.918 622 539.694 622C541.47 622 542.59 622.736 542.59 623.456V623.904C542.59 624.624 541.47 625.36 539.694 625.36ZM548.848 623.84C548.848 625.392 550.512 626.656 553.296 626.656C556.08 626.656 557.744 625.392 557.744 623.84V623.2C557.744 621.648 556.08 620.384 553.296 620.384C550.512 620.384 548.848 621.648 548.848 623.2V623.84ZM551.632 614.608C551.632 616.272 550.832 617.056 546.32 618.944L546.912 620.224C551.936 618.096 553.184 617.184 553.184 614.72V612.4H546.928V613.744H551.632V614.608ZM556.192 623.744C556.192 624.528 555.072 625.36 553.296 625.36C551.52 625.36 550.4 624.528 550.4 623.744V623.296C550.4 622.512 551.52 621.68 553.296 621.68C555.072 621.68 556.192 622.512 556.192 623.296V623.744ZM559.776 614.848H557.68V611.488H556.112V620.192H557.68V616.224H559.776V614.848ZM569.01 621.872C567.73 621.984 566.594 622.08 565.17 622.128V620.688C566.866 620.416 567.874 619.36 567.874 618.24V617.632C567.874 616.336 566.53 615.12 564.306 615.12C562.082 615.12 560.738 616.336 560.738 617.632V618.24C560.738 619.392 561.794 620.496 563.602 620.72V622.176C562.514 622.208 561.25 622.208 559.682 622.208V623.552C564.738 623.552 566.482 623.44 569.138 623.168L569.01 621.872ZM571.442 626.24V618.768H573.65V617.392H571.442V611.488H569.874V626.24H571.442ZM568.466 613.152H565.09V611.376H563.522V613.152H559.986V614.512H568.466V613.152ZM564.306 619.456C563.026 619.456 562.274 618.8 562.274 618.096V617.776C562.274 617.072 563.01 616.416 564.306 616.416C565.586 616.416 566.338 617.072 566.338 617.776V618.096C566.338 618.8 565.602 619.456 564.306 619.456Z" fill="#222222"/>
<defs>
<filter id="filter0_d_1_4631" x="237" y="0.000488281" width="166" height="166" filterUnits="userSpaceOnUse" color-interpolation-filters="sRGB">
<feFlood flood-opacity="0" result="BackgroundImageFix"/>
<feColorMatrix in="SourceAlpha" type="matrix" values="0 0 0 0 0 0 0 0 0 0 0 0 0 0 0 0 0 0 127 0" result="hardAlpha"/>
<feOffset dx="10" dy="10"/>
<feGaussianBlur stdDeviation="10"/>
<feComposite in2="hardAlpha" operator="out"/>
<feColorMatrix type="matrix" values="0 0 0 0 0 0 0 0 0 0 0 0 0 0 0 0 0 0 0.1 0"/>
<feBlend mode="normal" in2="BackgroundImageFix" result="effect1_dropShadow_1_4631"/>
<feBlend mode="normal" in="SourceGraphic" in2="effect1_dropShadow_1_4631" result="shape"/>
</filter>
<filter id="filter1_d_1_4631" x="0" y="530" width="166" height="166" filterUnits="userSpaceOnUse" color-interpolation-filters="sRGB">
<feFlood flood-opacity="0" result="BackgroundImageFix"/>
<feColorMatrix in="SourceAlpha" type="matrix" values="0 0 0 0 0 0 0 0 0 0 0 0 0 0 0 0 0 0 127 0" result="hardAlpha"/>
<feOffset dx="10" dy="10"/>
<feGaussianBlur stdDeviation="10"/>
<feComposite in2="hardAlpha" operator="out"/>
<feColorMatrix type="matrix" values="0 0 0 0 0 0 0 0 0 0 0 0 0 0 0 0 0 0 0.1 0"/>
<feBlend mode="normal" in2="BackgroundImageFix" result="effect1_dropShadow_1_4631"/>
<feBlend mode="normal" in="SourceGraphic" in2="effect1_dropShadow_1_4631" result="shape"/>
</filter>
<filter id="filter2_d_1_4631" x="473.113" y="530" width="166" height="166" filterUnits="userSpaceOnUse" color-interpolation-filters="sRGB">
<feFlood flood-opacity="0" result="BackgroundImageFix"/>
<feColorMatrix in="SourceAlpha" type="matrix" values="0 0 0 0 0 0 0 0 0 0 0 0 0 0 0 0 0 0 127 0" result="hardAlpha"/>
<feOffset dx="10" dy="10"/>
<feGaussianBlur stdDeviation="10"/>
<feComposite in2="hardAlpha" operator="out"/>
<feColorMatrix type="matrix" values="0 0 0 0 0 0 0 0 0 0 0 0 0 0 0 0 0 0 0.1 0"/>
<feBlend mode="normal" in2="BackgroundImageFix" result="effect1_dropShadow_1_4631"/>
<feBlend mode="normal" in="SourceGraphic" in2="effect1_dropShadow_1_4631" result="shape"/>
</filter>
<filter id="filter3_d_1_4631" x="237" y="0" width="166" height="166" filterUnits="userSpaceOnUse" color-interpolation-filters="sRGB">
<feFlood flood-opacity="0" result="BackgroundImageFix"/>
<feColorMatrix in="SourceAlpha" type="matrix" values="0 0 0 0 0 0 0 0 0 0 0 0 0 0 0 0 0 0 127 0" result="hardAlpha"/>
<feOffset dx="10" dy="10"/>
<feGaussianBlur stdDeviation="10"/>
<feComposite in2="hardAlpha" operator="out"/>
<feColorMatrix type="matrix" values="0 0 0 0 0 0 0 0 0 0 0 0 0 0 0 0 0 0 0.1 0"/>
<feBlend mode="normal" in2="BackgroundImageFix" result="effect1_dropShadow_1_4631"/>
<feBlend mode="normal" in="SourceGraphic" in2="effect1_dropShadow_1_4631" result="shape"/>
</filter>
<filter id="filter4_d_1_4631" x="0" y="530" width="166" height="166" filterUnits="userSpaceOnUse" color-interpolation-filters="sRGB">
<feFlood flood-opacity="0" result="BackgroundImageFix"/>
<feColorMatrix in="SourceAlpha" type="matrix" values="0 0 0 0 0 0 0 0 0 0 0 0 0 0 0 0 0 0 127 0" result="hardAlpha"/>
<feOffset dx="10" dy="10"/>
<feGaussianBlur stdDeviation="10"/>
<feComposite in2="hardAlpha" operator="out"/>
<feColorMatrix type="matrix" values="0 0 0 0 0 0 0 0 0 0 0 0 0 0 0 0 0 0 0.1 0"/>
<feBlend mode="normal" in2="BackgroundImageFix" result="effect1_dropShadow_1_4631"/>
<feBlend mode="normal" in="SourceGraphic" in2="effect1_dropShadow_1_4631" result="shape"/>
</filter>
<filter id="filter5_d_1_4631" x="473" y="530" width="166" height="166" filterUnits="userSpaceOnUse" color-interpolation-filters="sRGB">
<feFlood flood-opacity="0" result="BackgroundImageFix"/>
<feColorMatrix in="SourceAlpha" type="matrix" values="0 0 0 0 0 0 0 0 0 0 0 0 0 0 0 0 0 0 127 0" result="hardAlpha"/>
<feOffset dx="10" dy="10"/>
<feGaussianBlur stdDeviation="10"/>
<feComposite in2="hardAlpha" operator="out"/>
<feColorMatrix type="matrix" values="0 0 0 0 0 0 0 0 0 0 0 0 0 0 0 0 0 0 0.1 0"/>
<feBlend mode="normal" in2="BackgroundImageFix" result="effect1_dropShadow_1_4631"/>
<feBlend mode="normal" in="SourceGraphic" in2="effect1_dropShadow_1_4631" result="shape"/>
</filter>
<linearGradient id="paint0_linear_1_4631" x1="349.301" y1="590.343" x2="147.621" y2="501.655" gradientUnits="userSpaceOnUse">
<stop stop-color="#34BAA5"/>
<stop offset="1" stop-color="#C7EFE9"/>
</linearGradient>
<linearGradient id="paint1_linear_1_4631" x1="160.838" y1="518.284" x2="159.75" y2="241.75" gradientUnits="userSpaceOnUse">
<stop stop-color="#319EBA"/>
<stop offset="1" stop-color="#78E3FF"/>
</linearGradient>
<linearGradient id="paint2_linear_1_4631" x1="149.325" y1="277.803" x2="358.254" y2="196.79" gradientUnits="userSpaceOnUse">
<stop stop-color="#4C8BDD"/>
<stop offset="1" stop-color="#CFE4FF"/>
</linearGradient>
<linearGradient id="paint3_linear_1_4631" x1="379.147" y1="206.597" x2="506.636" y2="431.728" gradientUnits="userSpaceOnUse">
<stop stop-color="#33B9A5"/>
<stop offset="1" stop-color="#C6EFE9"/>
</linearGradient>
<linearGradient id="paint4_linear_1_4631" x1="508.769" y1="401.882" x2="424.771" y2="553.675" gradientUnits="userSpaceOnUse">
<stop stop-color="#4D8CDE"/>
<stop offset="1" stop-color="#CAE0FE"/>
</linearGradient>
<linearGradient id="paint5_linear_1_4631" x1="309" y1="247" x2="309" y2="537" gradientUnits="userSpaceOnUse">
<stop stop-color="#33B9A5"/>
<stop offset="0.69" stop-color="#40A7C9"/>
<stop offset="1" stop-color="#5082E6"/>
</linearGradient>
<linearGradient id="paint6_linear_1_4631" x1="349.301" y1="590.343" x2="147.621" y2="501.655" gradientUnits="userSpaceOnUse">
<stop stop-color="#34BAA5"/>
<stop offset="1" stop-color="#C7EFE9"/>
</linearGradient>
<linearGradient id="paint7_linear_1_4631" x1="160.838" y1="518.284" x2="159.75" y2="241.75" gradientUnits="userSpaceOnUse">
<stop stop-color="#319EBA"/>
<stop offset="1" stop-color="#78E3FF"/>
</linearGradient>
<linearGradient id="paint8_linear_1_4631" x1="149.325" y1="277.803" x2="358.254" y2="196.79" gradientUnits="userSpaceOnUse">
<stop stop-color="#4C8BDD"/>
<stop offset="1" stop-color="#CFE4FF"/>
</linearGradient>
<linearGradient id="paint9_linear_1_4631" x1="379.147" y1="206.597" x2="506.636" y2="431.728" gradientUnits="userSpaceOnUse">
<stop stop-color="#33B9A5"/>
<stop offset="1" stop-color="#C6EFE9"/>
</linearGradient>
<linearGradient id="paint10_linear_1_4631" x1="508.769" y1="401.882" x2="424.771" y2="553.675" gradientUnits="userSpaceOnUse">
<stop stop-color="#4D8CDE"/>
<stop offset="1" stop-color="#CAE0FE"/>
</linearGradient>
<linearGradient id="paint11_linear_1_4631" x1="309" y1="247" x2="309" y2="537" gradientUnits="userSpaceOnUse">
<stop stop-color="#33B9A5"/>
<stop offset="0.69" stop-color="#40A7C9"/>
<stop offset="1" stop-color="#5082E6"/>
</linearGradient>
</defs>
</svg>
