<svg width="334" height="365" viewBox="0 0 334 365" fill="none" xmlns="http://www.w3.org/2000/svg">
<path d="M265.288 205.64C269.896 205.64 273.665 209.381 273.32 213.977C272.437 225.735 269.688 237.295 265.163 248.221C259.571 261.721 251.375 273.988 241.042 284.32C230.71 294.652 218.444 302.848 204.944 308.44C194.018 312.966 182.457 315.714 170.7 316.598C166.104 316.943 162.362 313.174 162.362 308.565C162.362 303.956 166.106 300.258 170.697 299.852C180.261 299.006 189.656 296.707 198.556 293.02C210.031 288.267 220.458 281.3 229.24 272.518C238.023 263.735 244.99 253.309 249.743 241.834C253.429 232.934 255.728 223.538 256.574 213.974C256.98 209.383 260.679 205.64 265.288 205.64Z" fill="#CBE0FF"/>
<path d="M189 305.058C190.193 309.51 187.554 314.119 183.025 314.975C171.44 317.165 159.562 317.503 147.837 315.959C133.35 314.052 119.38 309.31 106.726 302.003C94.0711 294.697 82.9794 284.97 74.0841 273.378C66.8849 263.995 61.2383 253.54 57.3419 242.412C55.8188 238.062 58.4908 233.472 62.9428 232.279C67.3947 231.086 71.9357 233.745 73.5162 238.075C76.8087 247.094 81.4611 255.574 87.3256 263.217C94.8867 273.071 104.315 281.339 115.071 287.549C125.827 293.759 137.702 297.79 150.016 299.411C159.567 300.669 169.237 300.457 178.694 298.799C183.234 298.003 187.807 300.607 189 305.058Z" fill="url(#paint0_linear_1_16786)"/>
<path d="M89.5813 278.419C86.3223 281.678 81.0117 281.697 78.006 278.203C70.3169 269.264 64.0855 259.147 59.5599 248.221C53.9681 234.721 51.09 220.252 51.09 205.64C51.09 191.027 53.9681 176.558 59.5599 163.058C64.0855 152.132 70.3169 142.015 78.006 133.076C81.0117 129.582 86.3223 129.601 89.5813 132.86C92.8404 136.12 92.8083 141.382 89.8491 144.915C83.6848 152.276 78.6666 160.545 74.98 169.445C70.2269 180.92 67.7805 193.219 67.7805 205.64C67.7805 218.06 70.2269 230.359 74.98 241.834C78.6666 250.734 83.6848 259.003 89.8491 266.364C92.8083 269.898 92.8404 275.16 89.5813 278.419Z" fill="url(#paint1_linear_1_16786)"/>
<path d="M73.2262 154.178C69.2347 151.873 67.8415 146.749 70.4386 142.941C77.0824 133.201 85.2427 124.563 94.6248 117.364C106.218 108.468 119.449 101.943 133.563 98.1615C147.677 94.3795 162.398 93.4147 176.886 95.3219C188.611 96.8655 199.996 100.266 210.62 105.38C214.773 107.378 216.129 112.513 213.825 116.505C211.52 120.496 206.429 121.827 202.25 119.883C193.545 115.834 184.258 113.127 174.707 111.87C162.393 110.249 149.88 111.069 137.883 114.283C125.886 117.498 114.639 123.044 104.785 130.605C97.1427 136.47 90.4539 143.457 84.9393 151.317C82.292 155.089 77.2177 156.482 73.2262 154.178Z" fill="url(#paint2_linear_1_16786)"/>
<path d="M188.999 106.221C190.192 101.769 194.781 99.0972 199.131 100.62C210.26 104.517 220.715 110.163 230.097 117.362C241.69 126.258 251.417 137.349 258.723 150.004C266.029 162.659 270.771 176.628 272.679 191.116C274.222 202.84 273.885 214.718 271.695 226.304C270.839 230.833 266.23 233.471 261.778 232.278C257.326 231.085 254.723 226.512 255.519 221.973C257.177 212.516 257.388 202.845 256.131 193.294C254.51 180.98 250.479 169.106 244.269 158.349C238.058 147.593 229.79 138.165 219.937 130.604C212.294 124.739 203.813 120.087 194.794 116.795C190.465 115.214 187.806 110.673 188.999 106.221Z" fill="url(#paint3_linear_1_16786)"/>
<path d="M265.288 205.64C269.896 205.64 273.665 209.381 273.32 213.977C272.129 229.823 267.556 245.264 259.869 259.245C252.183 273.226 241.597 285.361 228.856 294.857C225.161 297.611 219.982 296.434 217.512 292.542C215.043 288.651 216.222 283.523 219.881 280.72C230.265 272.764 238.912 262.721 245.243 251.204C251.575 239.687 255.422 227.005 256.574 213.974C256.98 209.383 260.679 205.64 265.288 205.64Z" fill="url(#paint4_linear_1_16786)"/>
<circle cx="161.577" cy="205.377" r="75.4181" fill="white" stroke="url(#paint5_linear_1_16786)" stroke-width="0.521924"/>
<path d="M144.817 175.821V179.109H147.406V180.101H143.512V180.978H152.343V180.101H148.45V179.109H151.049V178.232H145.84V176.698H150.986V175.821H144.817ZM147.928 185.362C149.776 185.362 150.934 184.6 150.934 183.629V183.274C150.934 182.282 149.765 181.541 147.928 181.541C146.091 181.541 144.922 182.272 144.922 183.274V183.629C144.922 184.61 146.091 185.362 147.928 185.362ZM147.928 182.387C149.107 182.387 149.911 182.836 149.911 183.337V183.566C149.911 184.067 149.107 184.516 147.928 184.516C146.748 184.516 145.945 184.067 145.945 183.566V183.337C145.945 182.836 146.748 182.387 147.928 182.387ZM159.965 175.831H158.942V177.157H154.662V175.842H153.639V180.101H159.965V175.831ZM157.324 185.09V182.032H161.218V181.155H152.387V182.032H156.28V185.09H157.324ZM154.662 178.034H158.942V179.213H154.662V178.034ZM169.299 182.335V175.466H168.276V178.013H166.073C166.084 177.94 166.084 177.856 166.084 177.773V176.082H161.981V176.959H165.071V177.721C165.071 178.775 164.57 179.286 161.585 180.591L161.992 181.426C164.403 180.393 165.468 179.756 165.864 178.9H168.276V182.335H169.299ZM164.32 181.823H163.286V184.986H169.497V184.088H164.32V181.823ZM178.403 185.153V184.297H173.184V183.368H178.131V180.758H172.119V181.614H177.119V182.533H172.171V185.153H178.403ZM173.09 178.41C173.152 178.566 173.371 178.765 173.685 179.026C174.186 179.443 174.634 179.777 175.198 180.174L175.772 179.443C175.156 179.026 174.603 178.629 174.113 178.18C173.611 177.721 173.57 177.355 173.57 176.687V175.706H172.526V176.729C172.526 177.491 172.411 177.877 171.868 178.399C171.503 178.754 170.856 179.276 170.146 179.777L170.741 180.508C171.325 180.08 171.973 179.579 172.401 179.182C172.724 178.89 173.027 178.587 173.079 178.41H173.09ZM178.131 180.278V175.466H177.108V177.22H175.188V178.128H177.108V180.278H178.131ZM136.266 196.915C135.358 196.998 134.616 197.04 133.729 197.071V196.476C134.846 196.351 135.42 195.798 135.42 195.119V194.848C135.42 194.086 134.679 193.47 133.218 193.47C131.756 193.47 131.015 194.076 131.015 194.848V195.119C131.015 195.798 131.579 196.351 132.706 196.476V197.092C132.017 197.103 131.213 197.103 130.211 197.103V197.98C133.426 197.98 134.689 197.927 136.349 197.76L136.266 196.915ZM137.873 198.783V195.464H139.23V194.566H137.873V191.466H136.85V198.783H137.873ZM132.769 198.502H131.735V200.996H138.134V200.109H132.769V198.502ZM133.729 192.28V191.382H132.706V192.28H130.577V193.147H135.827V192.28H133.729ZM133.218 194.284C134.042 194.284 134.408 194.587 134.408 194.921V195.046C134.408 195.38 134.042 195.683 133.218 195.683C132.393 195.683 132.028 195.38 132.028 195.046V194.921C132.028 194.587 132.393 194.284 133.218 194.284ZM141.246 199.525C141.246 200.537 142.353 201.362 144.201 201.362C146.048 201.362 147.155 200.537 147.155 199.525V199.107C147.155 198.094 146.048 197.27 144.201 197.27C142.353 197.27 141.246 198.094 141.246 199.107V199.525ZM142.854 193.502C142.854 194.608 142.29 195.119 139.388 196.33L139.795 197.155C143.084 195.756 143.867 195.172 143.867 193.575V192.061H139.785V192.938H142.854V193.502ZM147.113 197.145V191.466H146.1V192.854H144.399V193.742H146.1V194.859H144.242V195.746H146.1V197.145H147.113ZM146.142 199.462C146.142 199.973 145.391 200.516 144.201 200.516C143.011 200.516 142.259 199.973 142.259 199.462V199.17C142.259 198.658 143.011 198.115 144.201 198.115C145.391 198.115 146.142 198.658 146.142 199.17V199.462ZM150.121 199.525C150.121 200.537 151.227 201.362 153.075 201.362C154.923 201.362 156.029 200.537 156.029 199.525V199.107C156.029 198.094 154.923 197.27 153.075 197.27C151.227 197.27 150.121 198.094 150.121 199.107V199.525ZM151.728 193.502C151.728 194.608 151.165 195.119 148.263 196.33L148.67 197.155C151.958 195.756 152.741 195.172 152.741 193.575V192.061H148.659V192.938H151.728V193.502ZM155.987 197.145V191.466H154.975V192.854H153.273V193.742H154.975V194.859H153.117V195.746H154.975V197.145H155.987ZM155.016 199.462C155.016 199.973 154.265 200.516 153.075 200.516C151.885 200.516 151.133 199.973 151.133 199.462V199.17C151.133 198.658 151.885 198.115 153.075 198.115C154.265 198.115 155.016 198.658 155.016 199.17V199.462ZM158.995 199.525C158.995 200.537 160.102 201.362 161.949 201.362C163.797 201.362 164.903 200.537 164.903 199.525V199.107C164.903 198.094 163.797 197.27 161.949 197.27C160.102 197.27 158.995 198.094 158.995 199.107V199.525ZM161.907 193.94C161.907 193.011 161.156 191.831 159.517 191.831C157.878 191.831 157.127 193.011 157.127 193.94V194.472C157.127 195.401 157.878 196.581 159.517 196.581C161.156 196.581 161.907 195.401 161.907 194.472V193.94ZM164.862 197.145V191.466H163.849V192.666H162.335V193.554H163.849V194.838H162.335V195.725H163.849V197.145H164.862ZM163.891 199.462C163.891 199.973 163.139 200.516 161.949 200.516C160.759 200.516 160.008 199.973 160.008 199.462V199.17C160.008 198.658 160.759 198.115 161.949 198.115C163.139 198.115 163.891 198.658 163.891 199.17V199.462ZM160.916 194.42C160.916 195.036 160.477 195.683 159.517 195.683C158.557 195.683 158.118 195.036 158.118 194.42V193.992C158.118 193.376 158.557 192.729 159.517 192.729C160.477 192.729 160.916 193.376 160.916 193.992V194.42ZM173.673 201.09V191.466H172.64V201.09H173.673ZM168.725 196.278C168.809 196.487 169.059 196.779 169.352 197.092C169.748 197.52 170.218 197.99 170.938 198.658L171.606 197.948C170.98 197.395 170.521 196.957 170.072 196.466C169.435 195.756 169.237 195.328 169.237 194.504V192.155H168.193V194.504C168.193 195.245 168.026 195.714 167.389 196.435C166.92 196.957 166.377 197.489 165.74 198.053L166.419 198.752C167.128 198.105 167.682 197.552 168.11 197.082C168.444 196.717 168.621 196.508 168.715 196.278H168.725ZM174.573 198.93V199.806H183.404V198.93H174.573ZM178.999 195.109C179.113 195.349 179.541 195.714 180.22 196.142C180.846 196.539 181.608 196.978 182.381 197.416L182.882 196.612C182.057 196.163 181.452 195.819 180.794 195.391C179.667 194.65 179.51 194.222 179.51 193.199V192.145H178.466V193.199C178.466 194.222 178.247 194.671 177.297 195.318C176.598 195.788 175.94 196.163 175.105 196.623L175.616 197.437C176.483 196.957 177.151 196.55 177.756 196.163C178.456 195.714 178.884 195.349 178.988 195.109H178.999ZM191.631 197.562H185.503V201.101H191.631V197.562ZM187.936 195.579C186.954 195.694 186.38 195.725 184.814 195.725V194.692H187.1V193.867H184.814V192.833H187.518V191.988H183.823V196.57C186.412 196.57 187.059 196.55 188.04 196.414L187.936 195.579ZM190.618 200.234H186.516V198.428H190.618V200.234ZM187.622 194.587H188.844V197.04H189.825V191.591H188.844V193.71H187.622V194.587ZM190.639 197.061H191.631V191.466H190.639V197.061Z" fill="#19B29B"/>
<path d="M138.522 213.767V219.412H141.974V218.926H139.07V216.758H141.755V216.272H139.07V214.252H141.919V213.767H138.522ZM144.447 215.114C143.782 215.114 143.351 215.458 143.155 215.779V215.192H142.631V219.412H143.163V216.672C143.163 216.178 143.656 215.599 144.369 215.599C145.207 215.599 145.434 216.1 145.434 216.703V219.412H145.966V216.57C145.966 215.693 145.41 215.114 144.447 215.114ZM148.362 219.412L149.881 215.192H149.325L148.072 218.864L146.796 215.192H146.225L147.767 219.412H148.362ZM150.194 219.412H150.726V215.192H150.194V219.412ZM150.17 214.385H150.749V213.79H150.17V214.385ZM153.876 215.2C153.704 215.137 153.508 215.114 153.273 215.114C152.631 215.114 152.24 215.529 152.06 215.936V215.192H151.535V219.412H152.068V217.016C152.068 216.225 152.506 215.654 153.203 215.654C153.406 215.654 153.571 215.685 153.712 215.74L153.876 215.2ZM155.721 215.114C154.593 215.114 153.928 215.81 153.928 217.032V217.556C153.928 218.77 154.593 219.474 155.721 219.474C156.848 219.474 157.514 218.77 157.514 217.556V217.032C157.514 215.818 156.848 215.114 155.721 215.114ZM155.721 219.005C154.946 219.005 154.468 218.519 154.468 217.525V217.063C154.468 216.069 154.946 215.583 155.721 215.583C156.496 215.583 156.973 216.069 156.973 217.063V217.525C156.973 218.519 156.496 219.005 155.721 219.005ZM159.92 215.114C159.254 215.114 158.824 215.458 158.628 215.779V215.192H158.104V219.412H158.636V216.672C158.636 216.178 159.129 215.599 159.842 215.599C160.679 215.599 160.906 216.1 160.906 216.703V219.412H161.439V216.57C161.439 215.693 160.883 215.114 159.92 215.114ZM166.457 215.114C165.784 215.114 165.361 215.521 165.173 215.881C164.985 215.395 164.57 215.114 163.897 215.114C163.279 215.114 162.903 215.442 162.715 215.779V215.192H162.191V219.412H162.723V216.672C162.723 216.178 163.106 215.599 163.803 215.599C164.563 215.599 164.751 216.03 164.751 216.711V219.412H165.283V216.64C165.299 216.155 165.682 215.599 166.363 215.599C167.123 215.599 167.311 216.03 167.311 216.711V219.412H167.843V216.57C167.843 215.677 167.412 215.114 166.457 215.114ZM168.931 217.024V216.953C168.931 216.123 169.369 215.583 170.113 215.583C170.849 215.583 171.279 216.077 171.279 216.953V217.024H168.931ZM171.483 218.59C171.177 218.809 170.755 219.005 170.191 219.005C169.416 219.005 168.931 218.472 168.931 217.541V217.47H171.812V217.032C171.812 215.849 171.209 215.114 170.113 215.114C169.056 215.114 168.398 215.818 168.398 217.016V217.541C168.398 218.77 169.064 219.474 170.183 219.474C170.896 219.474 171.381 219.232 171.718 218.997L171.483 218.59ZM174.207 215.114C173.541 215.114 173.111 215.458 172.915 215.779V215.192H172.39V219.412H172.923V216.672C172.923 216.178 173.416 215.599 174.128 215.599C174.966 215.599 175.193 216.1 175.193 216.703V219.412H175.725V216.57C175.725 215.693 175.17 215.114 174.207 215.114ZM176.806 218.237C176.806 219.153 177.158 219.451 177.894 219.451C178.121 219.451 178.442 219.412 178.607 219.349L178.528 218.911C178.333 218.965 178.145 218.989 177.933 218.989C177.511 218.989 177.338 218.785 177.338 218.214V215.646H178.505V215.192H177.338V214.104H176.806V215.192H176.086V215.646H176.806V218.237ZM180.186 219.474C180.507 219.474 180.804 219.412 181.039 219.294C181.258 219.185 181.431 219.028 181.509 218.895H181.517V219.412H182.033V216.46C182.033 215.607 181.454 215.114 180.515 215.114C179.873 215.114 179.395 215.341 179.004 215.615L179.262 216.022C179.622 215.771 180.053 215.591 180.507 215.591C181.164 215.591 181.509 215.936 181.509 216.546V216.938H180.319C179.34 216.938 178.831 217.415 178.831 218.096V218.269C178.831 219.012 179.387 219.474 180.186 219.474ZM181.509 218.096C181.509 218.417 181.337 218.629 181.11 218.77C180.859 218.926 180.601 219.012 180.264 219.012C179.833 219.012 179.364 218.793 179.364 218.245V218.12C179.364 217.689 179.653 217.384 180.327 217.384H181.509V218.096ZM182.747 219.412H183.28V213.493H182.747V219.412ZM130.557 233.472H131.074L132.585 230.278C132.718 230.012 132.781 229.902 132.851 229.566V234.412H133.391V228.767H132.741L130.823 232.901L128.913 228.767H128.24V234.412H128.78V229.566C128.866 229.902 128.929 230.012 129.062 230.278L130.557 233.472ZM135.342 234.474C135.663 234.474 135.961 234.412 136.196 234.294C136.415 234.185 136.587 234.028 136.665 233.895H136.673V234.412H137.19V231.46C137.19 230.607 136.611 230.114 135.671 230.114C135.029 230.114 134.552 230.341 134.16 230.615L134.418 231.022C134.779 230.771 135.209 230.591 135.663 230.591C136.321 230.591 136.665 230.936 136.665 231.546V231.938H135.475C134.497 231.938 133.988 232.415 133.988 233.096V233.269C133.988 234.012 134.544 234.474 135.342 234.474ZM136.665 233.096C136.665 233.417 136.493 233.629 136.266 233.77C136.016 233.926 135.757 234.012 135.421 234.012C134.99 234.012 134.52 233.793 134.52 233.245V233.12C134.52 232.689 134.81 232.384 135.483 232.384H136.665V233.096ZM139.72 230.114C139.055 230.114 138.624 230.458 138.428 230.779V230.192H137.904V234.412H138.436V231.672C138.436 231.178 138.929 230.599 139.642 230.599C140.48 230.599 140.707 231.1 140.707 231.703V234.412H141.239V231.57C141.239 230.693 140.683 230.114 139.72 230.114ZM143.134 234.474C143.455 234.474 143.752 234.412 143.987 234.294C144.206 234.185 144.379 234.028 144.457 233.895H144.465V234.412H144.981V231.46C144.981 230.607 144.402 230.114 143.463 230.114C142.821 230.114 142.343 230.341 141.952 230.615L142.21 231.022C142.57 230.771 143.001 230.591 143.455 230.591C144.112 230.591 144.457 230.936 144.457 231.546V231.938H143.267C142.288 231.938 141.779 232.415 141.779 233.096V233.269C141.779 234.012 142.335 234.474 143.134 234.474ZM144.457 233.096C144.457 233.417 144.285 233.629 144.058 233.77C143.807 233.926 143.549 234.012 143.212 234.012C142.782 234.012 142.312 233.793 142.312 233.245V233.12C142.312 232.689 142.601 232.384 143.275 232.384H144.457V233.096ZM148.436 234.357C148.436 235.241 148.021 235.656 147.246 235.656C146.768 235.656 146.471 235.578 146.079 235.304L145.836 235.719C146.189 235.993 146.651 236.157 147.246 236.157C148.295 236.157 148.968 235.539 148.968 234.341V230.192H148.443V230.709C148.224 230.395 147.794 230.114 147.175 230.114C146.212 230.114 145.5 230.771 145.5 231.922V232.587C145.5 233.738 146.212 234.396 147.183 234.396C147.668 234.396 148.193 234.2 148.428 233.777H148.436V234.357ZM146.032 232C146.032 231.108 146.494 230.583 147.206 230.583C147.927 230.583 148.436 231.139 148.436 231.632V232.822C148.436 233.566 147.888 233.926 147.206 233.926C146.502 233.926 146.032 233.41 146.032 232.509V232ZM150.096 232.024V231.953C150.096 231.123 150.534 230.583 151.278 230.583C152.014 230.583 152.445 231.077 152.445 231.953V232.024H150.096ZM152.648 233.59C152.343 233.809 151.92 234.005 151.357 234.005C150.581 234.005 150.096 233.472 150.096 232.541V232.47H152.977V232.032C152.977 230.849 152.374 230.114 151.278 230.114C150.221 230.114 149.564 230.818 149.564 232.016V232.541C149.564 233.77 150.229 234.474 151.349 234.474C152.061 234.474 152.546 234.232 152.883 233.997L152.648 233.59ZM157.823 230.114C157.149 230.114 156.727 230.521 156.539 230.881C156.351 230.395 155.936 230.114 155.263 230.114C154.644 230.114 154.268 230.442 154.08 230.779V230.192H153.556V234.412H154.088V231.672C154.088 231.178 154.472 230.599 155.169 230.599C155.928 230.599 156.116 231.03 156.116 231.711V234.412H156.648V231.64C156.664 231.155 157.047 230.599 157.729 230.599C158.488 230.599 158.676 231.03 158.676 231.711V234.412H159.208V231.57C159.208 230.677 158.778 230.114 157.823 230.114ZM160.296 232.024V231.953C160.296 231.123 160.734 230.583 161.478 230.583C162.214 230.583 162.645 231.077 162.645 231.953V232.024H160.296ZM162.848 233.59C162.543 233.809 162.12 234.005 161.556 234.005C160.781 234.005 160.296 233.472 160.296 232.541V232.47H163.177V232.032C163.177 230.849 162.574 230.114 161.478 230.114C160.421 230.114 159.764 230.818 159.764 232.016V232.541C159.764 233.77 160.429 234.474 161.549 234.474C162.261 234.474 162.746 234.232 163.083 233.997L162.848 233.59ZM165.572 230.114C164.907 230.114 164.476 230.458 164.28 230.779V230.192H163.756V234.412H164.288V231.672C164.288 231.178 164.781 230.599 165.494 230.599C166.331 230.599 166.558 231.1 166.558 231.703V234.412H167.091V231.57C167.091 230.693 166.535 230.114 165.572 230.114ZM168.171 233.237C168.171 234.153 168.524 234.451 169.26 234.451C169.487 234.451 169.808 234.412 169.972 234.349L169.894 233.911C169.698 233.965 169.51 233.989 169.299 233.989C168.876 233.989 168.704 233.785 168.704 233.214V230.646H169.87V230.192H168.704V229.104H168.171V230.192H167.451V230.646H168.171V233.237ZM173.634 233.989C173.125 233.989 172.577 233.817 172.021 233.41L171.739 233.871C172.24 234.255 172.913 234.498 173.657 234.498C174.878 234.498 175.599 233.824 175.599 233.018V232.838C175.599 232.032 175.191 231.601 173.735 231.272C172.71 231.037 172.397 230.756 172.397 230.27V230.114C172.397 229.526 172.992 229.182 173.688 229.182C174.268 229.182 174.745 229.346 175.105 229.605L175.364 229.158C174.98 228.884 174.448 228.681 173.688 228.681C172.616 228.681 171.841 229.26 171.841 230.114V230.294C171.841 231.006 172.248 231.476 173.563 231.773C174.769 232.047 175.043 232.321 175.043 232.854V233.018C175.043 233.527 174.518 233.989 173.634 233.989ZM175.68 230.192L177.262 234.482L176.722 235.993L177.176 236.157L179.368 230.192H178.82L177.536 233.817L176.228 230.192H175.68ZM180.995 233.997C180.502 233.997 180.048 233.817 179.664 233.558L179.406 233.981C179.805 234.271 180.345 234.474 181.027 234.474C181.919 234.474 182.577 234.005 182.577 233.331V233.214C182.577 232.541 182.138 232.204 181.097 232.008C180.432 231.883 180.04 231.695 180.04 231.327V231.241C180.04 230.873 180.385 230.583 181.019 230.583C181.559 230.583 181.888 230.716 182.24 230.951L182.483 230.552C182.138 230.294 181.676 230.114 181.034 230.114C180.001 230.114 179.508 230.63 179.508 231.233V231.343C179.508 232.032 180.064 232.306 180.909 232.47C181.716 232.627 182.044 232.815 182.044 233.237V233.316C182.044 233.676 181.676 233.997 180.995 233.997ZM183.392 233.237C183.392 234.153 183.744 234.451 184.48 234.451C184.707 234.451 185.028 234.412 185.192 234.349L185.114 233.911C184.918 233.965 184.731 233.989 184.519 233.989C184.096 233.989 183.924 233.785 183.924 233.214V230.646H185.091V230.192H183.924V229.104H183.392V230.192H182.672V230.646H183.392V233.237ZM185.965 232.024V231.953C185.965 231.123 186.404 230.583 187.147 230.583C187.883 230.583 188.314 231.077 188.314 231.953V232.024H185.965ZM188.517 233.59C188.212 233.809 187.789 234.005 187.226 234.005C186.451 234.005 185.965 233.472 185.965 232.541V232.47H188.846V232.032C188.846 230.849 188.243 230.114 187.147 230.114C186.09 230.114 185.433 230.818 185.433 232.016V232.541C185.433 233.77 186.098 234.474 187.218 234.474C187.93 234.474 188.416 234.232 188.752 233.997L188.517 233.59ZM193.692 230.114C193.018 230.114 192.596 230.521 192.408 230.881C192.22 230.395 191.805 230.114 191.132 230.114C190.513 230.114 190.137 230.442 189.949 230.779V230.192H189.425V234.412H189.957V231.672C189.957 231.178 190.341 230.599 191.038 230.599C191.797 230.599 191.985 231.03 191.985 231.711V234.412H192.517V231.64C192.533 231.155 192.917 230.599 193.598 230.599C194.357 230.599 194.545 231.03 194.545 231.711V234.412H195.077V231.57C195.077 230.677 194.647 230.114 193.692 230.114Z" fill="#555555"/>
<path d="M161.578 94.2061H162.1V71.2414H161.578V94.2061Z" fill="#CCCCCC"/>
<g filter="url(#filter0_d_1_16786)">
<circle cx="162.1" cy="38.8812" r="32.8812" fill="white"/>
</g>
<path d="M148.506 31.2274C147.78 31.2942 147.187 31.3276 146.477 31.3526V30.8766C147.37 30.7764 147.83 30.3338 147.83 29.791V29.5739C147.83 28.9643 147.237 28.4716 146.068 28.4716C144.899 28.4716 144.306 28.9559 144.306 29.5739V29.791C144.306 30.3338 144.757 30.7764 145.659 30.8766V31.3693C145.107 31.3777 144.464 31.3777 143.663 31.3777V32.0791C146.235 32.0791 147.245 32.0374 148.573 31.9038L148.506 31.2274ZM149.792 32.7221V30.0666H150.878V29.3484H149.792V26.8682H148.974V32.7221H149.792ZM145.709 32.4967H144.882V34.4925H150.001V33.7827H145.709V32.4967ZM146.477 27.5196V26.8014H145.659V27.5196H143.955V28.2127H148.155V27.5196H146.477ZM146.068 29.123C146.727 29.123 147.02 29.3651 147.02 29.6324V29.7326C147.02 29.9998 146.727 30.242 146.068 30.242C145.408 30.242 145.116 29.9998 145.116 29.7326V29.6324C145.116 29.3651 145.408 29.123 146.068 29.123ZM152.491 33.3151C152.491 34.1251 153.376 34.7848 154.854 34.7848C156.332 34.7848 157.217 34.1251 157.217 33.3151V32.981C157.217 32.171 156.332 31.5113 154.854 31.5113C153.376 31.5113 152.491 32.171 152.491 32.981V33.3151ZM153.777 28.4966C153.777 29.3818 153.326 29.791 151.004 30.7597L151.33 31.4194C153.961 30.3004 154.587 29.8328 154.587 28.5551V27.3442H151.322V28.0457H153.777V28.4966ZM157.184 31.4111V26.8682H156.374V27.9789H155.013V28.6887H156.374V29.5822H154.887V30.2921H156.374V31.4111H157.184ZM156.407 33.2649C156.407 33.6741 155.806 34.1084 154.854 34.1084C153.902 34.1084 153.301 33.6741 153.301 33.2649V33.0311C153.301 32.6219 153.902 32.1877 154.854 32.1877C155.806 32.1877 156.407 32.6219 156.407 33.0311V33.2649ZM161.995 29.9664C162.054 30.0916 162.221 30.2503 162.471 30.4591C162.872 30.7931 163.248 31.077 163.682 31.3777L164.15 30.7764C163.657 30.4507 163.206 30.125 162.814 29.766C162.446 29.4319 162.379 29.148 162.379 28.6136V28.4465H163.958V27.7367H162.379V26.8181H161.544V27.7367H159.866V28.4465H161.544V28.647C161.544 29.2566 161.402 29.5739 160.993 29.9747C160.693 30.267 160.183 30.6511 159.649 31.0269L160.133 31.6198C160.601 31.2942 161.068 30.9267 161.427 30.6177C161.695 30.3923 161.937 30.1083 161.987 29.9664H161.995ZM161.837 31.9956H161.01V34.4842H165.979V33.766H161.837V31.9956ZM165.82 32.3881V26.8682H165.002V32.3881H165.82ZM171.433 32.2879C170.765 32.3464 170.172 32.3965 169.429 32.4215V31.6699C170.314 31.528 170.84 30.9768 170.84 30.3923V30.0749C170.84 29.3985 170.139 28.7639 168.978 28.7639C167.817 28.7639 167.116 29.3985 167.116 30.0749V30.3923C167.116 30.9935 167.667 31.5697 168.61 31.6866V32.4466C168.043 32.4633 167.383 32.4633 166.565 32.4633V33.1647C169.203 33.1647 170.114 33.1063 171.5 32.9643L171.433 32.2879ZM172.702 34.5677V30.6679H173.855V29.9497H172.702V26.8682H171.884V34.5677H172.702ZM171.149 27.7367H169.387V26.8098H168.569V27.7367H166.723V28.4465H171.149V27.7367ZM168.978 31.0269C168.31 31.0269 167.917 30.6846 167.917 30.3171V30.1501C167.917 29.7827 168.301 29.4403 168.978 29.4403C169.646 29.4403 170.038 29.7827 170.038 30.1501V30.3171C170.038 30.6846 169.654 31.0269 168.978 31.0269ZM176.127 29.6741C176.186 29.7994 176.353 29.958 176.603 30.1668C177.004 30.5008 177.363 30.7764 177.798 31.077L178.265 30.4758C177.773 30.1501 177.338 29.8328 176.946 29.4737C176.578 29.1397 176.512 28.8557 176.512 28.3213V28.029H178.031V27.3192H174.056V28.029H175.677V28.3547C175.677 28.9643 175.535 29.2816 175.125 29.6825C174.825 29.9747 174.332 30.3505 173.798 30.7263L174.282 31.3192C174.75 30.9935 175.201 30.6344 175.56 30.3255C175.827 30.1 176.069 29.8161 176.119 29.6741H176.127ZM175 32.4633H179.242V34.6428H180.069V31.7535H175V32.4633ZM180.069 31.3526V26.8682H179.251V28.7138H177.831V29.4236H179.251V31.3526H180.069ZM148.105 44.6491H146.919V41.8682H146.092V49.5677H146.919V45.3672H148.105V44.6491ZM143.186 45.7013C143.253 45.8683 143.453 46.1021 143.687 46.3526C144.004 46.695 144.38 47.0708 144.956 47.6052L145.491 47.0374C144.99 46.5948 144.622 46.2441 144.263 45.8516C143.754 45.2837 143.595 44.9413 143.595 44.2816V42.4277H142.76V44.2816C142.76 44.8745 142.627 45.2503 142.117 45.8265C141.741 46.2441 141.307 46.6699 140.798 47.1209L141.341 47.6804C141.908 47.1626 142.351 46.7201 142.693 46.3443C142.961 46.052 143.103 45.885 143.178 45.7013H143.186ZM154.428 45.8098V41.8682H153.609V43.5384H152.048C151.939 42.8286 151.304 42.1355 150.152 42.1355C148.883 42.1355 148.24 42.9705 148.24 43.7472V44.0645C148.24 44.8411 148.883 45.6762 150.152 45.6762C151.321 45.6762 151.956 44.9664 152.048 44.2482H153.609V45.8098H154.428ZM153.609 46.1856V47.1626H150.444V46.1856H149.626V49.5677H154.428V46.1856H153.609ZM150.152 44.9664C149.442 44.9664 149.033 44.482 149.033 44.0227V43.7889C149.033 43.3296 149.442 42.8536 150.152 42.8536C150.862 42.8536 151.271 43.3296 151.271 43.7889V44.0227C151.271 44.482 150.862 44.9664 150.152 44.9664ZM150.444 48.8662V47.8558H153.609V48.8662H150.444ZM157.494 44.0478C157.494 45.1835 157.494 45.7681 155.139 47.2796L155.598 47.9226C157.861 46.4111 158.254 45.7681 158.295 44.4653H159.406V45.7347H158.279V46.4528H159.406V49.1919H160.216V42.0269H159.406V43.7472H158.304V42.6198H155.356V43.3296H157.494V44.0478ZM161.786 41.8682H160.976V49.5677H161.786V41.8682ZM167.299 46.0269C166.564 46.0937 165.946 46.1355 165.211 46.1605V45.7096C166.105 45.6094 166.572 45.1919 166.572 44.6658V44.4486C166.572 43.8557 165.963 43.3881 164.802 43.3881C163.641 43.3881 163.031 43.8474 163.031 44.4486V44.6658C163.031 45.1919 163.499 45.6094 164.393 45.7096V46.1856C163.825 46.194 163.182 46.194 162.38 46.194V46.8871C164.952 46.8871 166.038 46.8286 167.366 46.695L167.299 46.0269ZM163.449 48.0896H167.8V49.6428H168.626V47.3881H163.449V48.0896ZM168.626 46.9873V41.8682H167.808V46.9873H168.626ZM165.211 42.4778V41.7764H164.393V42.4778H162.681V43.1626H166.898V42.4778H165.211ZM164.802 44.0394C165.47 44.0394 165.762 44.2482 165.762 44.5071V44.6073C165.762 44.8662 165.47 45.0749 164.802 45.0749C164.134 45.0749 163.841 44.8662 163.841 44.6073V44.5071C163.841 44.2482 164.134 44.0394 164.802 44.0394ZM173.246 49.5677V46.9205H176.361V46.219H169.296V46.9205H172.411V49.5677H173.246ZM173.755 44.7576C174.206 44.9831 174.849 45.2754 175.534 45.5426L175.851 44.8745C175.233 44.6407 174.549 44.3484 174.014 44.0561C173.446 43.7472 173.237 43.4465 173.237 42.8202V42.1355H172.411V42.8202C172.411 43.4465 172.194 43.7472 171.626 44.0561C171.091 44.3484 170.407 44.6407 169.789 44.8745L170.114 45.5509C170.799 45.2837 171.442 44.9914 171.893 44.766C172.444 44.4904 172.72 44.2733 172.82 44.0896H172.828C172.937 44.2733 173.204 44.482 173.755 44.7576ZM181.957 46.4027V47.2879H178.792V46.4027H177.974V49.5677H182.775V46.4027H181.957ZM178.333 45.8933C179.552 45.8933 180.27 45.8432 181.214 45.7263L181.139 45.0415C180.103 45.1668 179.335 45.1919 178.416 45.1919H177.715V44.3818H180.329V42.2106H176.871V42.9037H179.51V43.7054H176.896V45.8933H178.333ZM182.775 46.0269V41.8682H181.957V46.0269H182.775ZM178.792 48.8662V47.981H181.957V48.8662H178.792Z" fill="#222222"/>
<path d="M58.3907 290.6L58.7598 290.969L74.9982 274.73L74.6292 274.361L58.3907 290.6Z" fill="#CCCCCC"/>
<g filter="url(#filter1_d_1_16786)">
<circle cx="38.4047" cy="315.501" r="32.8812" fill="white"/>
</g>
<path d="M24.8089 307.847C24.0824 307.914 23.4895 307.948 22.7797 307.973V307.497C23.6732 307.396 24.1325 306.954 24.1325 306.411V306.194C24.1325 305.584 23.5396 305.092 22.3705 305.092C21.2014 305.092 20.6085 305.576 20.6085 306.194V306.411C20.6085 306.954 21.0594 307.396 21.9613 307.497V307.989C21.4101 307.998 20.7671 307.998 19.9655 307.998V308.699C22.5375 308.699 23.5479 308.657 24.8757 308.524L24.8089 307.847ZM26.0949 309.342V306.687H27.1805V305.968H26.0949V303.488H25.2766V309.342H26.0949ZM22.0114 309.117H21.1847V311.113H26.3037V310.403H22.0114V309.117ZM22.7797 304.14V303.421H21.9613V304.14H20.2577V304.833H24.4582V304.14H22.7797ZM22.3705 305.743C23.0302 305.743 23.3225 305.985 23.3225 306.252V306.353C23.3225 306.62 23.0302 306.862 22.3705 306.862C21.7108 306.862 21.4185 306.62 21.4185 306.353V306.252C21.4185 305.985 21.7108 305.743 22.3705 305.743ZM28.7935 309.935C28.7935 310.745 29.6787 311.405 31.1568 311.405C32.6349 311.405 33.5201 310.745 33.5201 309.935V309.601C33.5201 308.791 32.6349 308.131 31.1568 308.131C29.6787 308.131 28.7935 308.791 28.7935 309.601V309.935ZM30.0796 305.117C30.0796 306.002 29.6286 306.411 27.3071 307.38L27.6328 308.039C30.2633 306.92 30.8896 306.453 30.8896 305.175V303.964H27.6244V304.666H30.0796V305.117ZM33.4867 308.031V303.488H32.6767V304.599H31.3155V305.309H32.6767V306.202H31.1902V306.912H32.6767V308.031H33.4867ZM32.7101 309.885C32.7101 310.294 32.1088 310.728 31.1568 310.728C30.2048 310.728 29.6036 310.294 29.6036 309.885V309.651C29.6036 309.242 30.2048 308.808 31.1568 308.808C32.1088 308.808 32.7101 309.242 32.7101 309.651V309.885ZM38.2981 306.586C38.3565 306.712 38.5235 306.87 38.774 307.079C39.1749 307.413 39.5507 307.697 39.9849 307.998L40.4526 307.396C39.9599 307.071 39.5089 306.745 39.1164 306.386C38.749 306.052 38.6822 305.768 38.6822 305.234V305.067H40.2605V304.357H38.6822V303.438H37.8471V304.357H36.1686V305.067H37.8471V305.267C37.8471 305.877 37.7051 306.194 37.296 306.595C36.9953 306.887 36.4859 307.271 35.9515 307.647L36.4358 308.24C36.9035 307.914 37.3711 307.547 37.7302 307.238C37.9974 307.012 38.2396 306.728 38.2897 306.586H38.2981ZM38.1394 308.616H37.3127V311.104H42.2814V310.386H38.1394V308.616ZM42.1227 309.008V303.488H41.3043V309.008H42.1227ZM47.7358 308.908C47.0677 308.966 46.4748 309.016 45.7316 309.042V308.29C46.6167 308.148 47.1428 307.597 47.1428 307.012V306.695C47.1428 306.019 46.4414 305.384 45.2806 305.384C44.1199 305.384 43.4184 306.019 43.4184 306.695V307.012C43.4184 307.614 43.9695 308.19 44.9132 308.307V309.067C44.3453 309.083 43.6856 309.083 42.8672 309.083V309.785C45.5061 309.785 46.4163 309.726 47.8026 309.584L47.7358 308.908ZM49.0051 311.188V307.288H50.1575V306.57H49.0051V303.488H48.1867V311.188H49.0051ZM47.4518 304.357H45.6898V303.43H44.8714V304.357H43.0259V305.067H47.4518V304.357ZM45.2806 307.647C44.6126 307.647 44.2201 307.305 44.2201 306.937V306.77C44.2201 306.403 44.6042 306.06 45.2806 306.06C45.9487 306.06 46.3412 306.403 46.3412 306.77V306.937C46.3412 307.305 45.957 307.647 45.2806 307.647ZM52.4302 306.294C52.4887 306.419 52.6557 306.578 52.9062 306.787C53.307 307.121 53.6661 307.396 54.1004 307.697L54.568 307.096C54.0753 306.77 53.6411 306.453 53.2486 306.094C52.8811 305.76 52.8143 305.476 52.8143 304.941V304.649H54.3342V303.939H50.3592V304.649H51.9793V304.975C51.9793 305.584 51.8373 305.902 51.4281 306.302C51.1275 306.595 50.6348 306.971 50.1003 307.346L50.5847 307.939C51.0523 307.614 51.5033 307.254 51.8623 306.945C52.1296 306.72 52.3717 306.436 52.4218 306.294H52.4302ZM51.3028 309.083H55.545V311.263H56.3718V308.373H51.3028V309.083ZM56.3718 307.973V303.488H55.5534V305.334H54.1338V306.044H55.5534V307.973H56.3718ZM24.4074 321.269H23.2216V318.488H22.3949V326.188H23.2216V321.987H24.4074V321.269ZM19.4888 322.321C19.5556 322.488 19.756 322.722 19.9899 322.973C20.3072 323.315 20.683 323.691 21.2592 324.225L21.7936 323.657C21.2926 323.215 20.9251 322.864 20.5661 322.472C20.0567 321.904 19.898 321.561 19.898 320.902V319.048H19.0629V320.902C19.0629 321.495 18.9293 321.87 18.4199 322.447C18.0441 322.864 17.6099 323.29 17.1005 323.741L17.6433 324.3C18.2111 323.783 18.6537 323.34 18.9961 322.964C19.2633 322.672 19.4053 322.505 19.4805 322.321H19.4888ZM30.7303 322.43V318.488H29.9119V320.158H28.3503C28.2417 319.449 27.6071 318.755 26.4547 318.755C25.1854 318.755 24.5423 319.591 24.5423 320.367V320.684C24.5423 321.461 25.1854 322.296 26.4547 322.296C27.6238 322.296 28.2584 321.586 28.3503 320.868H29.9119V322.43H30.7303ZM29.9119 322.806V323.783H26.747V322.806H25.9286V326.188H30.7303V322.806H29.9119ZM26.4547 321.586C25.7449 321.586 25.3357 321.102 25.3357 320.643V320.409C25.3357 319.95 25.7449 319.474 26.4547 319.474C27.1645 319.474 27.5737 319.95 27.5737 320.409V320.643C27.5737 321.102 27.1645 321.586 26.4547 321.586ZM26.747 325.486V324.476H29.9119V325.486H26.747ZM33.7963 320.668C33.7963 321.803 33.7963 322.388 31.4414 323.9L31.9007 324.543C34.1638 323.031 34.5562 322.388 34.598 321.085H35.7087V322.355H34.5813V323.073H35.7087V325.812H36.5187V318.647H35.7087V320.367H34.6064V319.24H31.6585V319.95H33.7963V320.668ZM38.0886 318.488H37.2786V326.188H38.0886V318.488ZM43.6015 322.647C42.8666 322.714 42.2486 322.755 41.5138 322.781V322.33C42.4073 322.229 42.8749 321.812 42.8749 321.286V321.069C42.8749 320.476 42.2653 320.008 41.1046 320.008C39.9438 320.008 39.3342 320.467 39.3342 321.069V321.286C39.3342 321.812 39.8018 322.229 40.6954 322.33V322.806C40.1275 322.814 39.4845 322.814 38.6828 322.814V323.507C41.2549 323.507 42.3405 323.449 43.6683 323.315L43.6015 322.647ZM39.7517 324.71H44.1025V326.263H44.9292V324.008H39.7517V324.71ZM44.9292 323.607V318.488H44.1109V323.607H44.9292ZM41.5138 319.098V318.396H40.6954V319.098H38.9835V319.783H43.2006V319.098H41.5138ZM41.1046 320.659C41.7726 320.659 42.0649 320.868 42.0649 321.127V321.227C42.0649 321.486 41.7726 321.695 41.1046 321.695C40.4365 321.695 40.1442 321.486 40.1442 321.227V321.127C40.1442 320.868 40.4365 320.659 41.1046 320.659ZM49.5485 326.188V323.54H52.6634V322.839H45.5986V323.54H48.7134V326.188H49.5485ZM50.0579 321.378C50.5089 321.603 51.1519 321.895 51.8366 322.163L52.154 321.495C51.536 321.261 50.8512 320.968 50.3168 320.676C49.7489 320.367 49.5402 320.067 49.5402 319.44V318.755H48.7134V319.44C48.7134 320.067 48.4963 320.367 47.9285 320.676C47.394 320.968 46.7093 321.261 46.0913 321.495L46.417 322.171C47.1017 321.904 47.7448 321.611 48.1957 321.386C48.7468 321.11 49.0224 320.893 49.1226 320.71H49.131C49.2395 320.893 49.5068 321.102 50.0579 321.378ZM58.2597 323.023V323.908H55.0948V323.023H54.2764V326.188H59.0781V323.023H58.2597ZM54.6355 322.513C55.8547 322.513 56.5728 322.463 57.5165 322.346L57.4413 321.662C56.4058 321.787 55.6376 321.812 54.719 321.812H54.0175V321.002H56.6313V318.831H53.1741V319.524H55.8129V320.325H53.1991V322.513H54.6355ZM59.0781 322.647V318.488H58.2597V322.647H59.0781ZM55.0948 325.486V324.601H58.2597V325.486H55.0948Z" fill="#222222"/>
<path d="M265.348 290.6L264.979 290.969L248.74 274.73L249.109 274.361L265.348 290.6Z" fill="#CCCCCC"/>
<g filter="url(#filter2_d_1_16786)">
<circle cx="32.8812" cy="32.8812" r="32.8812" transform="matrix(-1 0 0 1 318.215 282.62)" fill="white"/>
</g>
<path d="M272.26 307.847C271.534 307.914 270.941 307.948 270.231 307.973V307.497C271.124 307.396 271.584 306.954 271.584 306.411V306.194C271.584 305.584 270.991 305.092 269.822 305.092C268.653 305.092 268.06 305.576 268.06 306.194V306.411C268.06 306.954 268.511 307.396 269.412 307.497V307.989C268.861 307.998 268.218 307.998 267.417 307.998V308.699C269.989 308.699 270.999 308.657 272.327 308.524L272.26 307.847ZM273.546 309.342V306.687H274.632V305.968H273.546V303.488H272.728V309.342H273.546ZM269.463 309.117H268.636V311.113H273.755V310.403H269.463V309.117ZM270.231 304.14V303.421H269.412V304.14H267.709V304.833H271.909V304.14H270.231ZM269.822 305.743C270.481 305.743 270.774 305.985 270.774 306.252V306.353C270.774 306.62 270.481 306.862 269.822 306.862C269.162 306.862 268.87 306.62 268.87 306.353V306.252C268.87 305.985 269.162 305.743 269.822 305.743ZM276.245 309.935C276.245 310.745 277.13 311.405 278.608 311.405C280.086 311.405 280.971 310.745 280.971 309.935V309.601C280.971 308.791 280.086 308.131 278.608 308.131C277.13 308.131 276.245 308.791 276.245 309.601V309.935ZM277.531 305.117C277.531 306.002 277.08 306.411 274.758 307.38L275.084 308.039C277.714 306.92 278.341 306.453 278.341 305.175V303.964H275.076V304.666H277.531V305.117ZM280.938 308.031V303.488H280.128V304.599H278.767V305.309H280.128V306.202H278.641V306.912H280.128V308.031H280.938ZM280.161 309.885C280.161 310.294 279.56 310.728 278.608 310.728C277.656 310.728 277.055 310.294 277.055 309.885V309.651C277.055 309.242 277.656 308.808 278.608 308.808C279.56 308.808 280.161 309.242 280.161 309.651V309.885ZM285.749 306.586C285.808 306.712 285.975 306.87 286.225 307.079C286.626 307.413 287.002 307.697 287.436 307.998L287.904 307.396C287.411 307.071 286.96 306.745 286.568 306.386C286.2 306.052 286.133 305.768 286.133 305.234V305.067H287.712V304.357H286.133V303.438H285.298V304.357H283.62V305.067H285.298V305.267C285.298 305.877 285.156 306.194 284.747 306.595C284.447 306.887 283.937 307.271 283.403 307.647L283.887 308.24C284.355 307.914 284.822 307.547 285.181 307.238C285.449 307.012 285.691 306.728 285.741 306.586H285.749ZM285.591 308.616H284.764V311.104H289.733V310.386H285.591V308.616ZM289.574 309.008V303.488H288.756V309.008H289.574ZM295.187 308.908C294.519 308.966 293.926 309.016 293.183 309.042V308.29C294.068 308.148 294.594 307.597 294.594 307.012V306.695C294.594 306.019 293.893 305.384 292.732 305.384C291.571 305.384 290.87 306.019 290.87 306.695V307.012C290.87 307.614 291.421 308.19 292.364 308.307V309.067C291.797 309.083 291.137 309.083 290.318 309.083V309.785C292.957 309.785 293.867 309.726 295.254 309.584L295.187 308.908ZM296.456 311.188V307.288H297.609V306.57H296.456V303.488H295.638V311.188H296.456ZM294.903 304.357H293.141V303.43H292.323V304.357H290.477V305.067H294.903V304.357ZM292.732 307.647C292.064 307.647 291.671 307.305 291.671 306.937V306.77C291.671 306.403 292.055 306.06 292.732 306.06C293.4 306.06 293.792 306.403 293.792 306.77V306.937C293.792 307.305 293.408 307.647 292.732 307.647ZM299.881 306.294C299.94 306.419 300.107 306.578 300.357 306.787C300.758 307.121 301.117 307.396 301.552 307.697L302.019 307.096C301.526 306.77 301.092 306.453 300.7 306.094C300.332 305.76 300.266 305.476 300.266 304.941V304.649H301.785V303.939H297.81V304.649H299.43V304.975C299.43 305.584 299.288 305.902 298.879 306.302C298.579 306.595 298.086 306.971 297.552 307.346L298.036 307.939C298.503 307.614 298.954 307.254 299.314 306.945C299.581 306.72 299.823 306.436 299.873 306.294H299.881ZM298.754 309.083H302.996V311.263H303.823V308.373H298.754V309.083ZM303.823 307.973V303.488H303.005V305.334H301.585V306.044H303.005V307.973H303.823ZM271.859 321.269H270.673V318.488H269.846V326.188H270.673V321.987H271.859V321.269ZM266.94 322.321C267.007 322.488 267.207 322.722 267.441 322.973C267.758 323.315 268.134 323.691 268.71 324.225L269.245 323.657C268.744 323.215 268.376 322.864 268.017 322.472C267.508 321.904 267.349 321.561 267.349 320.902V319.048H266.514V320.902C266.514 321.495 266.38 321.87 265.871 322.447C265.495 322.864 265.061 323.29 264.552 323.741L265.094 324.3C265.662 323.783 266.105 323.34 266.447 322.964C266.715 322.672 266.856 322.505 266.932 322.321H266.94ZM278.181 322.43V318.488H277.363V320.158H275.801C275.693 319.449 275.058 318.755 273.906 318.755C272.637 318.755 271.994 319.591 271.994 320.367V320.684C271.994 321.461 272.637 322.296 273.906 322.296C275.075 322.296 275.71 321.586 275.801 320.868H277.363V322.43H278.181ZM277.363 322.806V323.783H274.198V322.806H273.38V326.188H278.181V322.806H277.363ZM273.906 321.586C273.196 321.586 272.787 321.102 272.787 320.643V320.409C272.787 319.95 273.196 319.474 273.906 319.474C274.616 319.474 275.025 319.95 275.025 320.409V320.643C275.025 321.102 274.616 321.586 273.906 321.586ZM274.198 325.486V324.476H277.363V325.486H274.198ZM281.247 320.668C281.247 321.803 281.247 322.388 278.893 323.9L279.352 324.543C281.615 323.031 282.007 322.388 282.049 321.085H283.16V322.355H282.032V323.073H283.16V325.812H283.97V318.647H283.16V320.367H282.058V319.24H279.11V319.95H281.247V320.668ZM285.54 318.488H284.73V326.188H285.54V318.488ZM291.053 322.647C290.318 322.714 289.7 322.755 288.965 322.781V322.33C289.858 322.229 290.326 321.812 290.326 321.286V321.069C290.326 320.476 289.717 320.008 288.556 320.008C287.395 320.008 286.785 320.467 286.785 321.069V321.286C286.785 321.812 287.253 322.229 288.147 322.33V322.806C287.579 322.814 286.936 322.814 286.134 322.814V323.507C288.706 323.507 289.792 323.449 291.119 323.315L291.053 322.647ZM287.203 324.71H291.554V326.263H292.38V324.008H287.203V324.71ZM292.38 323.607V318.488H291.562V323.607H292.38ZM288.965 319.098V318.396H288.147V319.098H286.435V319.783H290.652V319.098H288.965ZM288.556 320.659C289.224 320.659 289.516 320.868 289.516 321.127V321.227C289.516 321.486 289.224 321.695 288.556 321.695C287.888 321.695 287.595 321.486 287.595 321.227V321.127C287.595 320.868 287.888 320.659 288.556 320.659ZM297 326.188V323.54H300.115V322.839H293.05V323.54H296.165V326.188H297ZM297.509 321.378C297.96 321.603 298.603 321.895 299.288 322.163L299.605 321.495C298.987 321.261 298.302 320.968 297.768 320.676C297.2 320.367 296.991 320.067 296.991 319.44V318.755H296.165V319.44C296.165 320.067 295.947 320.367 295.38 320.676C294.845 320.968 294.16 321.261 293.542 321.495L293.868 322.171C294.553 321.904 295.196 321.611 295.647 321.386C296.198 321.11 296.474 320.893 296.574 320.71H296.582C296.691 320.893 296.958 321.102 297.509 321.378ZM305.711 323.023V323.908H302.546V323.023H301.728V326.188H306.529V323.023H305.711ZM302.087 322.513C303.306 322.513 304.024 322.463 304.968 322.346L304.892 321.662C303.857 321.787 303.089 321.812 302.17 321.812H301.469V321.002H304.082V318.831H300.625V319.524H303.264V320.325H300.65V322.513H302.087ZM306.529 322.647V318.488H305.711V322.647H306.529ZM302.546 325.486V324.601H305.711V325.486H302.546Z" fill="#222222"/>
<path d="M265.288 205.64C269.896 205.64 273.665 209.381 273.32 213.977C272.437 225.735 269.688 237.295 265.163 248.221C259.571 261.721 251.375 273.988 241.042 284.32C230.71 294.652 218.444 302.848 204.944 308.44C194.018 312.966 182.457 315.714 170.7 316.598C166.104 316.943 162.362 313.174 162.362 308.565C162.362 303.956 166.106 300.258 170.697 299.852C180.261 299.006 189.656 296.707 198.556 293.02C210.031 288.267 220.458 281.3 229.24 272.518C238.023 263.735 244.99 253.309 249.743 241.834C253.429 232.934 255.728 223.538 256.574 213.974C256.98 209.383 260.679 205.64 265.288 205.64Z" fill="#CBE0FF"/>
<path d="M189 305.058C190.193 309.51 187.554 314.119 183.025 314.975C171.44 317.165 159.562 317.503 147.837 315.959C133.35 314.052 119.38 309.31 106.726 302.003C94.0711 294.697 82.9794 284.97 74.0841 273.378C66.8849 263.995 61.2383 253.54 57.3419 242.412C55.8188 238.062 58.4908 233.472 62.9428 232.279C67.3947 231.086 71.9357 233.745 73.5162 238.075C76.8087 247.094 81.4611 255.574 87.3256 263.217C94.8867 273.071 104.315 281.339 115.071 287.549C125.827 293.759 137.702 297.79 150.016 299.411C159.567 300.669 169.237 300.457 178.694 298.799C183.234 298.003 187.807 300.607 189 305.058Z" fill="url(#paint6_linear_1_16786)"/>
<path d="M89.5813 278.419C86.3223 281.678 81.0117 281.697 78.006 278.203C70.3169 269.264 64.0855 259.147 59.5599 248.221C53.9681 234.721 51.09 220.252 51.09 205.64C51.09 191.027 53.9681 176.558 59.5599 163.058C64.0855 152.132 70.3169 142.015 78.006 133.076C81.0117 129.582 86.3223 129.601 89.5813 132.86C92.8404 136.12 92.8083 141.382 89.8491 144.915C83.6848 152.276 78.6666 160.545 74.98 169.445C70.2269 180.92 67.7805 193.219 67.7805 205.64C67.7805 218.06 70.2269 230.359 74.98 241.834C78.6666 250.734 83.6848 259.003 89.8491 266.364C92.8083 269.898 92.8404 275.16 89.5813 278.419Z" fill="url(#paint7_linear_1_16786)"/>
<path d="M73.2262 154.178C69.2347 151.873 67.8415 146.749 70.4386 142.941C77.0824 133.201 85.2427 124.563 94.6248 117.364C106.218 108.468 119.449 101.943 133.563 98.1615C147.677 94.3795 162.398 93.4147 176.886 95.3219C188.611 96.8655 199.996 100.266 210.62 105.38C214.773 107.378 216.129 112.513 213.825 116.505C211.52 120.496 206.429 121.827 202.25 119.883C193.545 115.834 184.258 113.127 174.707 111.87C162.393 110.249 149.88 111.069 137.883 114.283C125.886 117.498 114.639 123.044 104.785 130.605C97.1427 136.47 90.4539 143.457 84.9393 151.317C82.292 155.089 77.2177 156.482 73.2262 154.178Z" fill="url(#paint8_linear_1_16786)"/>
<path d="M188.999 106.221C190.192 101.769 194.781 99.0972 199.131 100.62C210.26 104.517 220.715 110.163 230.097 117.362C241.69 126.258 251.417 137.349 258.723 150.004C266.029 162.659 270.771 176.628 272.679 191.116C274.222 202.84 273.885 214.718 271.695 226.304C270.839 230.833 266.23 233.471 261.778 232.278C257.326 231.085 254.723 226.512 255.519 221.973C257.177 212.516 257.388 202.845 256.131 193.294C254.51 180.98 250.479 169.106 244.269 158.349C238.058 147.593 229.79 138.165 219.937 130.604C212.294 124.739 203.813 120.087 194.794 116.795C190.465 115.214 187.806 110.673 188.999 106.221Z" fill="url(#paint9_linear_1_16786)"/>
<path d="M265.288 205.64C269.896 205.64 273.665 209.381 273.32 213.977C272.129 229.823 267.556 245.264 259.869 259.245C252.183 273.226 241.597 285.361 228.856 294.857C225.161 297.611 219.982 296.434 217.512 292.542C215.043 288.651 216.222 283.523 219.881 280.72C230.265 272.764 238.912 262.721 245.243 251.204C251.575 239.687 255.422 227.005 256.574 213.974C256.98 209.383 260.679 205.64 265.288 205.64Z" fill="url(#paint10_linear_1_16786)"/>
<circle cx="161.577" cy="205.377" r="75.4181" fill="white" stroke="url(#paint11_linear_1_16786)" stroke-width="0.521924"/>
<path d="M144.817 175.821V179.109H147.406V180.101H143.512V180.978H152.343V180.101H148.45V179.109H151.049V178.232H145.84V176.698H150.986V175.821H144.817ZM147.928 185.362C149.776 185.362 150.934 184.6 150.934 183.629V183.274C150.934 182.282 149.765 181.541 147.928 181.541C146.091 181.541 144.922 182.272 144.922 183.274V183.629C144.922 184.61 146.091 185.362 147.928 185.362ZM147.928 182.387C149.107 182.387 149.911 182.836 149.911 183.337V183.566C149.911 184.067 149.107 184.516 147.928 184.516C146.748 184.516 145.945 184.067 145.945 183.566V183.337C145.945 182.836 146.748 182.387 147.928 182.387ZM159.965 175.831H158.942V177.157H154.662V175.842H153.639V180.101H159.965V175.831ZM157.324 185.09V182.032H161.218V181.155H152.387V182.032H156.28V185.09H157.324ZM154.662 178.034H158.942V179.213H154.662V178.034ZM169.299 182.335V175.466H168.276V178.013H166.073C166.084 177.94 166.084 177.856 166.084 177.773V176.082H161.981V176.959H165.071V177.721C165.071 178.775 164.57 179.286 161.585 180.591L161.992 181.426C164.403 180.393 165.468 179.756 165.864 178.9H168.276V182.335H169.299ZM164.32 181.823H163.286V184.986H169.497V184.088H164.32V181.823ZM178.403 185.153V184.297H173.184V183.368H178.131V180.758H172.119V181.614H177.119V182.533H172.171V185.153H178.403ZM173.09 178.41C173.152 178.566 173.371 178.765 173.685 179.026C174.186 179.443 174.634 179.777 175.198 180.174L175.772 179.443C175.156 179.026 174.603 178.629 174.113 178.18C173.611 177.721 173.57 177.355 173.57 176.687V175.706H172.526V176.729C172.526 177.491 172.411 177.877 171.868 178.399C171.503 178.754 170.856 179.276 170.146 179.777L170.741 180.508C171.325 180.08 171.973 179.579 172.401 179.182C172.724 178.89 173.027 178.587 173.079 178.41H173.09ZM178.131 180.278V175.466H177.108V177.22H175.188V178.128H177.108V180.278H178.131ZM136.266 196.915C135.358 196.998 134.616 197.04 133.729 197.071V196.476C134.846 196.351 135.42 195.798 135.42 195.119V194.848C135.42 194.086 134.679 193.47 133.218 193.47C131.756 193.47 131.015 194.076 131.015 194.848V195.119C131.015 195.798 131.579 196.351 132.706 196.476V197.092C132.017 197.103 131.213 197.103 130.211 197.103V197.98C133.426 197.98 134.689 197.927 136.349 197.76L136.266 196.915ZM137.873 198.783V195.464H139.23V194.566H137.873V191.466H136.85V198.783H137.873ZM132.769 198.502H131.735V200.996H138.134V200.109H132.769V198.502ZM133.729 192.28V191.382H132.706V192.28H130.577V193.147H135.827V192.28H133.729ZM133.218 194.284C134.042 194.284 134.408 194.587 134.408 194.921V195.046C134.408 195.38 134.042 195.683 133.218 195.683C132.393 195.683 132.028 195.38 132.028 195.046V194.921C132.028 194.587 132.393 194.284 133.218 194.284ZM141.246 199.525C141.246 200.537 142.353 201.362 144.201 201.362C146.048 201.362 147.155 200.537 147.155 199.525V199.107C147.155 198.094 146.048 197.27 144.201 197.27C142.353 197.27 141.246 198.094 141.246 199.107V199.525ZM142.854 193.502C142.854 194.608 142.29 195.119 139.388 196.33L139.795 197.155C143.084 195.756 143.867 195.172 143.867 193.575V192.061H139.785V192.938H142.854V193.502ZM147.113 197.145V191.466H146.1V192.854H144.399V193.742H146.1V194.859H144.242V195.746H146.1V197.145H147.113ZM146.142 199.462C146.142 199.973 145.391 200.516 144.201 200.516C143.011 200.516 142.259 199.973 142.259 199.462V199.17C142.259 198.658 143.011 198.115 144.201 198.115C145.391 198.115 146.142 198.658 146.142 199.17V199.462ZM150.121 199.525C150.121 200.537 151.227 201.362 153.075 201.362C154.923 201.362 156.029 200.537 156.029 199.525V199.107C156.029 198.094 154.923 197.27 153.075 197.27C151.227 197.27 150.121 198.094 150.121 199.107V199.525ZM151.728 193.502C151.728 194.608 151.165 195.119 148.263 196.33L148.67 197.155C151.958 195.756 152.741 195.172 152.741 193.575V192.061H148.659V192.938H151.728V193.502ZM155.987 197.145V191.466H154.975V192.854H153.273V193.742H154.975V194.859H153.117V195.746H154.975V197.145H155.987ZM155.016 199.462C155.016 199.973 154.265 200.516 153.075 200.516C151.885 200.516 151.133 199.973 151.133 199.462V199.17C151.133 198.658 151.885 198.115 153.075 198.115C154.265 198.115 155.016 198.658 155.016 199.17V199.462ZM158.995 199.525C158.995 200.537 160.102 201.362 161.949 201.362C163.797 201.362 164.903 200.537 164.903 199.525V199.107C164.903 198.094 163.797 197.27 161.949 197.27C160.102 197.27 158.995 198.094 158.995 199.107V199.525ZM161.907 193.94C161.907 193.011 161.156 191.831 159.517 191.831C157.878 191.831 157.127 193.011 157.127 193.94V194.472C157.127 195.401 157.878 196.581 159.517 196.581C161.156 196.581 161.907 195.401 161.907 194.472V193.94ZM164.862 197.145V191.466H163.849V192.666H162.335V193.554H163.849V194.838H162.335V195.725H163.849V197.145H164.862ZM163.891 199.462C163.891 199.973 163.139 200.516 161.949 200.516C160.759 200.516 160.008 199.973 160.008 199.462V199.17C160.008 198.658 160.759 198.115 161.949 198.115C163.139 198.115 163.891 198.658 163.891 199.17V199.462ZM160.916 194.42C160.916 195.036 160.477 195.683 159.517 195.683C158.557 195.683 158.118 195.036 158.118 194.42V193.992C158.118 193.376 158.557 192.729 159.517 192.729C160.477 192.729 160.916 193.376 160.916 193.992V194.42ZM173.673 201.09V191.466H172.64V201.09H173.673ZM168.725 196.278C168.809 196.487 169.059 196.779 169.352 197.092C169.748 197.52 170.218 197.99 170.938 198.658L171.606 197.948C170.98 197.395 170.521 196.957 170.072 196.466C169.435 195.756 169.237 195.328 169.237 194.504V192.155H168.193V194.504C168.193 195.245 168.026 195.714 167.389 196.435C166.92 196.957 166.377 197.489 165.74 198.053L166.419 198.752C167.128 198.105 167.682 197.552 168.11 197.082C168.444 196.717 168.621 196.508 168.715 196.278H168.725ZM174.573 198.93V199.806H183.404V198.93H174.573ZM178.999 195.109C179.113 195.349 179.541 195.714 180.22 196.142C180.846 196.539 181.608 196.978 182.381 197.416L182.882 196.612C182.057 196.163 181.452 195.819 180.794 195.391C179.667 194.65 179.51 194.222 179.51 193.199V192.145H178.466V193.199C178.466 194.222 178.247 194.671 177.297 195.318C176.598 195.788 175.94 196.163 175.105 196.623L175.616 197.437C176.483 196.957 177.151 196.55 177.756 196.163C178.456 195.714 178.884 195.349 178.988 195.109H178.999ZM191.631 197.562H185.503V201.101H191.631V197.562ZM187.936 195.579C186.954 195.694 186.38 195.725 184.814 195.725V194.692H187.1V193.867H184.814V192.833H187.518V191.988H183.823V196.57C186.412 196.57 187.059 196.55 188.04 196.414L187.936 195.579ZM190.618 200.234H186.516V198.428H190.618V200.234ZM187.622 194.587H188.844V197.04H189.825V191.591H188.844V193.71H187.622V194.587ZM190.639 197.061H191.631V191.466H190.639V197.061Z" fill="#19B29B"/>
<path d="M138.522 213.767V219.412H141.974V218.926H139.07V216.758H141.755V216.272H139.07V214.252H141.919V213.767H138.522ZM144.447 215.114C143.782 215.114 143.351 215.458 143.155 215.779V215.192H142.631V219.412H143.163V216.672C143.163 216.178 143.656 215.599 144.369 215.599C145.207 215.599 145.434 216.1 145.434 216.703V219.412H145.966V216.57C145.966 215.693 145.41 215.114 144.447 215.114ZM148.362 219.412L149.881 215.192H149.325L148.072 218.864L146.796 215.192H146.225L147.767 219.412H148.362ZM150.194 219.412H150.726V215.192H150.194V219.412ZM150.17 214.385H150.749V213.79H150.17V214.385ZM153.876 215.2C153.704 215.137 153.508 215.114 153.273 215.114C152.631 215.114 152.24 215.529 152.06 215.936V215.192H151.535V219.412H152.068V217.016C152.068 216.225 152.506 215.654 153.203 215.654C153.406 215.654 153.571 215.685 153.712 215.74L153.876 215.2ZM155.721 215.114C154.593 215.114 153.928 215.81 153.928 217.032V217.556C153.928 218.77 154.593 219.474 155.721 219.474C156.848 219.474 157.514 218.77 157.514 217.556V217.032C157.514 215.818 156.848 215.114 155.721 215.114ZM155.721 219.005C154.946 219.005 154.468 218.519 154.468 217.525V217.063C154.468 216.069 154.946 215.583 155.721 215.583C156.496 215.583 156.973 216.069 156.973 217.063V217.525C156.973 218.519 156.496 219.005 155.721 219.005ZM159.92 215.114C159.254 215.114 158.824 215.458 158.628 215.779V215.192H158.104V219.412H158.636V216.672C158.636 216.178 159.129 215.599 159.842 215.599C160.679 215.599 160.906 216.1 160.906 216.703V219.412H161.439V216.57C161.439 215.693 160.883 215.114 159.92 215.114ZM166.457 215.114C165.784 215.114 165.361 215.521 165.173 215.881C164.985 215.395 164.57 215.114 163.897 215.114C163.279 215.114 162.903 215.442 162.715 215.779V215.192H162.191V219.412H162.723V216.672C162.723 216.178 163.106 215.599 163.803 215.599C164.563 215.599 164.751 216.03 164.751 216.711V219.412H165.283V216.64C165.299 216.155 165.682 215.599 166.363 215.599C167.123 215.599 167.311 216.03 167.311 216.711V219.412H167.843V216.57C167.843 215.677 167.412 215.114 166.457 215.114ZM168.931 217.024V216.953C168.931 216.123 169.369 215.583 170.113 215.583C170.849 215.583 171.279 216.077 171.279 216.953V217.024H168.931ZM171.483 218.59C171.177 218.809 170.755 219.005 170.191 219.005C169.416 219.005 168.931 218.472 168.931 217.541V217.47H171.812V217.032C171.812 215.849 171.209 215.114 170.113 215.114C169.056 215.114 168.398 215.818 168.398 217.016V217.541C168.398 218.77 169.064 219.474 170.183 219.474C170.896 219.474 171.381 219.232 171.718 218.997L171.483 218.59ZM174.207 215.114C173.541 215.114 173.111 215.458 172.915 215.779V215.192H172.39V219.412H172.923V216.672C172.923 216.178 173.416 215.599 174.128 215.599C174.966 215.599 175.193 216.1 175.193 216.703V219.412H175.725V216.57C175.725 215.693 175.17 215.114 174.207 215.114ZM176.806 218.237C176.806 219.153 177.158 219.451 177.894 219.451C178.121 219.451 178.442 219.412 178.607 219.349L178.528 218.911C178.333 218.965 178.145 218.989 177.933 218.989C177.511 218.989 177.338 218.785 177.338 218.214V215.646H178.505V215.192H177.338V214.104H176.806V215.192H176.086V215.646H176.806V218.237ZM180.186 219.474C180.507 219.474 180.804 219.412 181.039 219.294C181.258 219.185 181.431 219.028 181.509 218.895H181.517V219.412H182.033V216.46C182.033 215.607 181.454 215.114 180.515 215.114C179.873 215.114 179.395 215.341 179.004 215.615L179.262 216.022C179.622 215.771 180.053 215.591 180.507 215.591C181.164 215.591 181.509 215.936 181.509 216.546V216.938H180.319C179.34 216.938 178.831 217.415 178.831 218.096V218.269C178.831 219.012 179.387 219.474 180.186 219.474ZM181.509 218.096C181.509 218.417 181.337 218.629 181.11 218.77C180.859 218.926 180.601 219.012 180.264 219.012C179.833 219.012 179.364 218.793 179.364 218.245V218.12C179.364 217.689 179.653 217.384 180.327 217.384H181.509V218.096ZM182.747 219.412H183.28V213.493H182.747V219.412ZM130.557 233.472H131.074L132.585 230.278C132.718 230.012 132.781 229.902 132.851 229.566V234.412H133.391V228.767H132.741L130.823 232.901L128.913 228.767H128.24V234.412H128.78V229.566C128.866 229.902 128.929 230.012 129.062 230.278L130.557 233.472ZM135.342 234.474C135.663 234.474 135.961 234.412 136.196 234.294C136.415 234.185 136.587 234.028 136.665 233.895H136.673V234.412H137.19V231.46C137.19 230.607 136.611 230.114 135.671 230.114C135.029 230.114 134.552 230.341 134.16 230.615L134.418 231.022C134.779 230.771 135.209 230.591 135.663 230.591C136.321 230.591 136.665 230.936 136.665 231.546V231.938H135.475C134.497 231.938 133.988 232.415 133.988 233.096V233.269C133.988 234.012 134.544 234.474 135.342 234.474ZM136.665 233.096C136.665 233.417 136.493 233.629 136.266 233.77C136.016 233.926 135.757 234.012 135.421 234.012C134.99 234.012 134.52 233.793 134.52 233.245V233.12C134.52 232.689 134.81 232.384 135.483 232.384H136.665V233.096ZM139.72 230.114C139.055 230.114 138.624 230.458 138.428 230.779V230.192H137.904V234.412H138.436V231.672C138.436 231.178 138.929 230.599 139.642 230.599C140.48 230.599 140.707 231.1 140.707 231.703V234.412H141.239V231.57C141.239 230.693 140.683 230.114 139.72 230.114ZM143.134 234.474C143.455 234.474 143.752 234.412 143.987 234.294C144.206 234.185 144.379 234.028 144.457 233.895H144.465V234.412H144.981V231.46C144.981 230.607 144.402 230.114 143.463 230.114C142.821 230.114 142.343 230.341 141.952 230.615L142.21 231.022C142.57 230.771 143.001 230.591 143.455 230.591C144.112 230.591 144.457 230.936 144.457 231.546V231.938H143.267C142.288 231.938 141.779 232.415 141.779 233.096V233.269C141.779 234.012 142.335 234.474 143.134 234.474ZM144.457 233.096C144.457 233.417 144.285 233.629 144.058 233.77C143.807 233.926 143.549 234.012 143.212 234.012C142.782 234.012 142.312 233.793 142.312 233.245V233.12C142.312 232.689 142.601 232.384 143.275 232.384H144.457V233.096ZM148.436 234.357C148.436 235.241 148.021 235.656 147.246 235.656C146.768 235.656 146.471 235.578 146.079 235.304L145.836 235.719C146.189 235.993 146.651 236.157 147.246 236.157C148.295 236.157 148.968 235.539 148.968 234.341V230.192H148.443V230.709C148.224 230.395 147.794 230.114 147.175 230.114C146.212 230.114 145.5 230.771 145.5 231.922V232.587C145.5 233.738 146.212 234.396 147.183 234.396C147.668 234.396 148.193 234.2 148.428 233.777H148.436V234.357ZM146.032 232C146.032 231.108 146.494 230.583 147.206 230.583C147.927 230.583 148.436 231.139 148.436 231.632V232.822C148.436 233.566 147.888 233.926 147.206 233.926C146.502 233.926 146.032 233.41 146.032 232.509V232ZM150.096 232.024V231.953C150.096 231.123 150.534 230.583 151.278 230.583C152.014 230.583 152.445 231.077 152.445 231.953V232.024H150.096ZM152.648 233.59C152.343 233.809 151.92 234.005 151.357 234.005C150.581 234.005 150.096 233.472 150.096 232.541V232.47H152.977V232.032C152.977 230.849 152.374 230.114 151.278 230.114C150.221 230.114 149.564 230.818 149.564 232.016V232.541C149.564 233.77 150.229 234.474 151.349 234.474C152.061 234.474 152.546 234.232 152.883 233.997L152.648 233.59ZM157.823 230.114C157.149 230.114 156.727 230.521 156.539 230.881C156.351 230.395 155.936 230.114 155.263 230.114C154.644 230.114 154.268 230.442 154.08 230.779V230.192H153.556V234.412H154.088V231.672C154.088 231.178 154.472 230.599 155.169 230.599C155.928 230.599 156.116 231.03 156.116 231.711V234.412H156.648V231.64C156.664 231.155 157.047 230.599 157.729 230.599C158.488 230.599 158.676 231.03 158.676 231.711V234.412H159.208V231.57C159.208 230.677 158.778 230.114 157.823 230.114ZM160.296 232.024V231.953C160.296 231.123 160.734 230.583 161.478 230.583C162.214 230.583 162.645 231.077 162.645 231.953V232.024H160.296ZM162.848 233.59C162.543 233.809 162.12 234.005 161.556 234.005C160.781 234.005 160.296 233.472 160.296 232.541V232.47H163.177V232.032C163.177 230.849 162.574 230.114 161.478 230.114C160.421 230.114 159.764 230.818 159.764 232.016V232.541C159.764 233.77 160.429 234.474 161.549 234.474C162.261 234.474 162.746 234.232 163.083 233.997L162.848 233.59ZM165.572 230.114C164.907 230.114 164.476 230.458 164.28 230.779V230.192H163.756V234.412H164.288V231.672C164.288 231.178 164.781 230.599 165.494 230.599C166.331 230.599 166.558 231.1 166.558 231.703V234.412H167.091V231.57C167.091 230.693 166.535 230.114 165.572 230.114ZM168.171 233.237C168.171 234.153 168.524 234.451 169.26 234.451C169.487 234.451 169.808 234.412 169.972 234.349L169.894 233.911C169.698 233.965 169.51 233.989 169.299 233.989C168.876 233.989 168.704 233.785 168.704 233.214V230.646H169.87V230.192H168.704V229.104H168.171V230.192H167.451V230.646H168.171V233.237ZM173.634 233.989C173.125 233.989 172.577 233.817 172.021 233.41L171.739 233.871C172.24 234.255 172.913 234.498 173.657 234.498C174.878 234.498 175.599 233.824 175.599 233.018V232.838C175.599 232.032 175.191 231.601 173.735 231.272C172.71 231.037 172.397 230.756 172.397 230.27V230.114C172.397 229.526 172.992 229.182 173.688 229.182C174.268 229.182 174.745 229.346 175.105 229.605L175.364 229.158C174.98 228.884 174.448 228.681 173.688 228.681C172.616 228.681 171.841 229.26 171.841 230.114V230.294C171.841 231.006 172.248 231.476 173.563 231.773C174.769 232.047 175.043 232.321 175.043 232.854V233.018C175.043 233.527 174.518 233.989 173.634 233.989ZM175.68 230.192L177.262 234.482L176.722 235.993L177.176 236.157L179.368 230.192H178.82L177.536 233.817L176.228 230.192H175.68ZM180.995 233.997C180.502 233.997 180.048 233.817 179.664 233.558L179.406 233.981C179.805 234.271 180.345 234.474 181.027 234.474C181.919 234.474 182.577 234.005 182.577 233.331V233.214C182.577 232.541 182.138 232.204 181.097 232.008C180.432 231.883 180.04 231.695 180.04 231.327V231.241C180.04 230.873 180.385 230.583 181.019 230.583C181.559 230.583 181.888 230.716 182.24 230.951L182.483 230.552C182.138 230.294 181.676 230.114 181.034 230.114C180.001 230.114 179.508 230.63 179.508 231.233V231.343C179.508 232.032 180.064 232.306 180.909 232.47C181.716 232.627 182.044 232.815 182.044 233.237V233.316C182.044 233.676 181.676 233.997 180.995 233.997ZM183.392 233.237C183.392 234.153 183.744 234.451 184.48 234.451C184.707 234.451 185.028 234.412 185.192 234.349L185.114 233.911C184.918 233.965 184.731 233.989 184.519 233.989C184.096 233.989 183.924 233.785 183.924 233.214V230.646H185.091V230.192H183.924V229.104H183.392V230.192H182.672V230.646H183.392V233.237ZM185.965 232.024V231.953C185.965 231.123 186.404 230.583 187.147 230.583C187.883 230.583 188.314 231.077 188.314 231.953V232.024H185.965ZM188.517 233.59C188.212 233.809 187.789 234.005 187.226 234.005C186.451 234.005 185.965 233.472 185.965 232.541V232.47H188.846V232.032C188.846 230.849 188.243 230.114 187.147 230.114C186.09 230.114 185.433 230.818 185.433 232.016V232.541C185.433 233.77 186.098 234.474 187.218 234.474C187.93 234.474 188.416 234.232 188.752 233.997L188.517 233.59ZM193.692 230.114C193.018 230.114 192.596 230.521 192.408 230.881C192.22 230.395 191.805 230.114 191.132 230.114C190.513 230.114 190.137 230.442 189.949 230.779V230.192H189.425V234.412H189.957V231.672C189.957 231.178 190.341 230.599 191.038 230.599C191.797 230.599 191.985 231.03 191.985 231.711V234.412H192.517V231.64C192.533 231.155 192.917 230.599 193.598 230.599C194.357 230.599 194.545 231.03 194.545 231.711V234.412H195.077V231.57C195.077 230.677 194.647 230.114 193.692 230.114Z" fill="#555555"/>
<path d="M161.578 94.2061H162.1V71.2414H161.578V94.2061Z" fill="#CCCCCC"/>
<g filter="url(#filter3_d_1_16786)">
<circle cx="161.881" cy="38.8812" r="32.8812" fill="white"/>
</g>
<path d="M147.826 32.8288C147.1 32.8956 146.507 32.929 145.797 32.9541V32.4781C146.691 32.3779 147.15 31.9353 147.15 31.3925V31.1753C147.15 30.5657 146.557 30.073 145.388 30.073C144.219 30.073 143.626 30.5574 143.626 31.1753V31.3925C143.626 31.9353 144.077 32.3779 144.979 32.4781V32.9708C144.428 32.9791 143.785 32.9791 142.983 32.9791V33.6806C145.555 33.6806 146.566 33.6388 147.893 33.5052L147.826 32.8288ZM149.113 34.3236V31.668H150.198V30.9499H149.113V28.4697H148.294V34.3236H149.113ZM145.029 34.0981H144.202V36.094H149.321V35.3841H145.029V34.0981ZM145.797 29.121V28.4029H144.979V29.121H143.275V29.8142H147.476V29.121H145.797ZM145.388 30.7244C146.048 30.7244 146.34 30.9666 146.34 31.2338V31.334C146.34 31.6012 146.048 31.8434 145.388 31.8434C144.728 31.8434 144.436 31.6012 144.436 31.334V31.2338C144.436 30.9666 144.728 30.7244 145.388 30.7244ZM151.811 34.9165C151.811 35.7265 152.696 36.3862 154.174 36.3862C155.652 36.3862 156.538 35.7265 156.538 34.9165V34.5825C156.538 33.7724 155.652 33.1127 154.174 33.1127C152.696 33.1127 151.811 33.7724 151.811 34.5825V34.9165ZM153.097 30.0981C153.097 30.9833 152.646 31.3925 150.325 32.3611L150.65 33.0209C153.281 31.9019 153.907 31.4342 153.907 30.1565V28.9457H150.642V29.6471H153.097V30.0981ZM156.504 33.0125V28.4697H155.694V29.5803H154.333V30.2902H155.694V31.1837H154.208V31.8935H155.694V33.0125H156.504ZM155.728 34.8664C155.728 35.2756 155.126 35.7098 154.174 35.7098C153.222 35.7098 152.621 35.2756 152.621 34.8664V34.6326C152.621 34.2234 153.222 33.7891 154.174 33.7891C155.126 33.7891 155.728 34.2234 155.728 34.6326V34.8664ZM161.316 31.5678C161.374 31.6931 161.541 31.8518 161.792 32.0605C162.192 32.3946 162.568 32.6785 163.002 32.9791L163.47 32.3779C162.977 32.0522 162.526 31.7265 162.134 31.3674C161.767 31.0334 161.7 30.7494 161.7 30.215V30.048H163.278V29.3382H161.7V28.4196H160.865V29.3382H159.186V30.048H160.865V30.2484C160.865 30.858 160.723 31.1753 160.314 31.5762C160.013 31.8685 159.504 32.2526 158.969 32.6284L159.453 33.2213C159.921 32.8956 160.389 32.5282 160.748 32.2192C161.015 31.9937 161.257 31.7098 161.307 31.5678H161.316ZM161.157 33.5971H160.33V36.0856H165.299V35.3674H161.157V33.5971ZM165.14 33.9896V28.4697H164.322V33.9896H165.14ZM170.753 33.8893C170.085 33.9478 169.492 33.9979 168.749 34.023V33.2714C169.634 33.1294 170.16 32.5783 170.16 31.9937V31.6764C170.16 31 169.459 30.3653 168.298 30.3653C167.137 30.3653 166.436 31 166.436 31.6764V31.9937C166.436 32.595 166.987 33.1712 167.931 33.2881V34.048C167.363 34.0647 166.703 34.0647 165.885 34.0647V34.7662C168.524 34.7662 169.434 34.7077 170.82 34.5658L170.753 33.8893ZM172.023 36.1691V32.2693H173.175V31.5511H172.023V28.4697H171.204V36.1691H172.023ZM170.469 29.3382H168.707V28.4112H167.889V29.3382H166.043V30.048H170.469V29.3382ZM168.298 32.6284C167.63 32.6284 167.238 32.286 167.238 31.9186V31.7515C167.238 31.3841 167.622 31.0417 168.298 31.0417C168.966 31.0417 169.359 31.3841 169.359 31.7515V31.9186C169.359 32.286 168.975 32.6284 168.298 32.6284ZM175.448 31.2755C175.506 31.4008 175.673 31.5595 175.924 31.7682C176.325 32.1023 176.684 32.3779 177.118 32.6785L177.586 32.0772C177.093 31.7515 176.659 31.4342 176.266 31.0751C175.899 30.7411 175.832 30.4572 175.832 29.9227V29.6304H177.352V28.9206H173.377V29.6304H174.997V29.9561C174.997 30.5657 174.855 30.8831 174.446 31.2839C174.145 31.5762 173.652 31.952 173.118 32.3277L173.602 32.9207C174.07 32.595 174.521 32.2359 174.88 31.9269C175.147 31.7014 175.389 31.4175 175.439 31.2755H175.448ZM174.32 34.0647H178.563V36.2443H179.389V33.3549H174.32V34.0647ZM179.389 32.9541V28.4697H178.571V30.3152H177.151V31.025H178.571V32.9541H179.389ZM146.632 46.2505H145.446V43.4697H144.619V51.1691H145.446V46.9687H146.632V46.2505ZM141.713 47.3027C141.78 47.4697 141.98 47.7035 142.214 47.9541C142.531 48.2964 142.907 48.6722 143.483 49.2067L144.018 48.6388C143.517 48.1962 143.149 47.8455 142.79 47.453C142.281 46.8852 142.122 46.5428 142.122 45.8831V44.0292H141.287V45.8831C141.287 46.476 141.154 46.8518 140.644 47.428C140.268 47.8455 139.834 48.2714 139.325 48.7223L139.868 49.2818C140.435 48.7641 140.878 48.3215 141.22 47.9457C141.488 47.6534 141.63 47.4864 141.705 47.3027H141.713ZM152.955 47.4113V43.4697H152.136V45.1398H150.575C150.466 44.43 149.831 43.7369 148.679 43.7369C147.41 43.7369 146.767 44.572 146.767 45.3486V45.6659C146.767 46.4426 147.41 47.2776 148.679 47.2776C149.848 47.2776 150.483 46.5678 150.575 45.8497H152.136V47.4113H152.955ZM152.136 47.787V48.7641H148.971V47.787H148.153V51.1691H152.955V47.787H152.136ZM148.679 46.5678C147.969 46.5678 147.56 46.0835 147.56 45.6242V45.3904C147.56 44.9311 147.969 44.4551 148.679 44.4551C149.389 44.4551 149.798 44.9311 149.798 45.3904V45.6242C149.798 46.0835 149.389 46.5678 148.679 46.5678ZM148.971 50.4676V49.4572H152.136V50.4676H148.971ZM156.021 45.6492C156.021 46.7849 156.021 47.3695 153.666 48.881L154.125 49.524C156.388 48.0125 156.78 47.3695 156.822 46.0668H157.933V47.3361H156.806V48.0543H157.933V50.7933H158.743V43.6283H157.933V45.3486H156.831V44.2213H153.883V44.9311H156.021V45.6492ZM160.313 43.4697H159.503V51.1691H160.313V43.4697ZM165.826 47.6284C165.091 47.6952 164.473 47.7369 163.738 47.762V47.311C164.632 47.2108 165.099 46.7933 165.099 46.2672V46.0501C165.099 45.4572 164.49 44.9895 163.329 44.9895C162.168 44.9895 161.558 45.4488 161.558 46.0501V46.2672C161.558 46.7933 162.026 47.2108 162.92 47.311V47.787C162.352 47.7954 161.709 47.7954 160.907 47.7954V48.4885C163.479 48.4885 164.565 48.4301 165.893 48.2964L165.826 47.6284ZM161.976 49.691H166.327V51.2443H167.153V48.9896H161.976V49.691ZM167.153 48.5887V43.4697H166.335V48.5887H167.153ZM163.738 44.0793V43.3778H162.92V44.0793H161.208V44.7641H165.425V44.0793H163.738ZM163.329 45.6409C163.997 45.6409 164.289 45.8497 164.289 46.1085V46.2087C164.289 46.4676 163.997 46.6764 163.329 46.6764C162.661 46.6764 162.368 46.4676 162.368 46.2087V46.1085C162.368 45.8497 162.661 45.6409 163.329 45.6409ZM173.359 51.1691V48.5219H176.474V47.8204H169.41V48.5219H172.524V51.1691H173.359ZM173.869 46.3591C174.32 46.5845 174.963 46.8768 175.648 47.144L175.965 46.476C175.347 46.2421 174.662 45.9499 174.128 45.6576C173.56 45.3486 173.351 45.048 173.351 44.4217V43.7369H172.524V44.4217C172.524 45.048 172.307 45.3486 171.739 45.6576C171.205 45.9499 170.52 46.2421 169.902 46.476L170.228 47.1524C170.913 46.8852 171.556 46.5929 172.007 46.3674C172.558 46.0918 172.833 45.8747 172.934 45.691H172.942C173.05 45.8747 173.318 46.0835 173.869 46.3591ZM182.071 48.0042V48.8893H178.906V48.0042H178.087V51.1691H182.889V48.0042H182.071ZM178.446 47.4948C179.666 47.4948 180.384 47.4447 181.327 47.3277L181.252 46.643C180.217 46.7682 179.448 46.7933 178.53 46.7933H177.828V45.9833H180.442V43.8121H176.985V44.5052H179.624V45.3069H177.01V47.4948H178.446ZM182.889 47.6284V43.4697H182.071V47.6284H182.889ZM178.906 50.4676V49.5825H182.071V50.4676H178.906Z" fill="#222222"/>
<path d="M58.3907 290.6L58.7598 290.969L74.9982 274.73L74.6292 274.361L58.3907 290.6Z" fill="#CCCCCC"/>
<g filter="url(#filter4_d_1_16786)">
<circle cx="38.8812" cy="315.881" r="32.8812" fill="white"/>
</g>
<path d="M29.1696 309.829C28.443 309.896 27.8501 309.929 27.1403 309.954V309.478C28.0338 309.378 28.4931 308.935 28.4931 308.392V308.175C28.4931 307.566 27.9002 307.073 26.7311 307.073C25.562 307.073 24.9691 307.557 24.9691 308.175V308.392C24.9691 308.935 25.4201 309.378 26.3219 309.478V309.971C25.7708 309.979 25.1278 309.979 24.3261 309.979V310.681C26.8981 310.681 27.9086 310.639 29.2364 310.505L29.1696 309.829ZM30.4556 311.324V308.668H31.5412V307.95H30.4556V305.47H29.6372V311.324H30.4556ZM26.372 311.098H25.5453V313.094H30.6643V312.384H26.372V311.098ZM27.1403 306.121V305.403H26.3219V306.121H24.6184V306.814H28.8188V306.121H27.1403ZM26.7311 307.724C27.3908 307.724 27.6831 307.967 27.6831 308.234V308.334C27.6831 308.601 27.3908 308.843 26.7311 308.843C26.0714 308.843 25.7791 308.601 25.7791 308.334V308.234C25.7791 307.967 26.0714 307.724 26.7311 307.724ZM33.1542 311.916C33.1542 312.727 34.0394 313.386 35.5175 313.386C36.9956 313.386 37.8807 312.727 37.8807 311.916V311.582C37.8807 310.772 36.9956 310.113 35.5175 310.113C34.0394 310.113 33.1542 310.772 33.1542 311.582V311.916ZM34.4402 307.098C34.4402 307.983 33.9893 308.392 31.6677 309.361L31.9934 310.021C34.6239 308.902 35.2502 308.434 35.2502 307.157V305.946H31.9851V306.647H34.4402V307.098ZM37.8473 310.013V305.47H37.0373V306.58H35.6761V307.29H37.0373V308.184H35.5509V308.894H37.0373V310.013H37.8473ZM37.0707 311.866C37.0707 312.276 36.4695 312.71 35.5175 312.71C34.5655 312.71 33.9642 312.276 33.9642 311.866V311.633C33.9642 311.223 34.5655 310.789 35.5175 310.789C36.4695 310.789 37.0707 311.223 37.0707 311.633V311.866ZM45.7234 308.25H44.5376V305.47H43.7109V313.169H44.5376V308.969H45.7234V308.25ZM40.8048 309.303C40.8716 309.47 41.072 309.704 41.3059 309.954C41.6232 310.296 41.999 310.672 42.5752 311.207L43.1096 310.639C42.6086 310.196 42.2412 309.845 41.8821 309.453C41.3727 308.885 41.214 308.543 41.214 307.883V306.029H40.3789V307.883C40.3789 308.476 40.2453 308.852 39.7359 309.428C39.3601 309.845 38.9259 310.271 38.4165 310.722L38.9593 311.282C39.5271 310.764 39.9697 310.321 40.3121 309.946C40.5793 309.653 40.7213 309.486 40.7965 309.303H40.8048ZM48.9982 311.44V308.643H48.1715V311.44H45.6162V312.142H52.6809V311.44H48.9982ZM46.4847 306.163V306.881H50.8187V307.466C50.8187 308.501 50.7352 309.395 50.5348 310.447L51.3615 310.547C51.5536 309.503 51.6454 308.668 51.6454 307.173V306.163H46.4847ZM33.2878 321.046C32.1771 321.046 31.6009 321.797 31.6009 323.259V324.077C31.6009 325.539 32.1855 326.29 33.2878 326.29C34.0895 326.29 34.6072 325.898 34.841 325.129H35.8598V327.793H36.6615V320.628H35.8598V322.165H34.8243C34.5905 321.43 34.0644 321.046 33.2878 321.046ZM38.1229 320.47H37.3129V328.169H38.1229V320.47ZM33.2878 325.564C32.6448 325.564 32.3776 325.021 32.3776 323.985V323.351C32.3776 322.315 32.6448 321.781 33.2878 321.781C33.9308 321.781 34.198 322.315 34.198 323.351V323.985C34.198 325.013 33.9392 325.564 33.2878 325.564ZM34.9747 323.259C34.9747 323.125 34.9663 323 34.958 322.875H35.8598V324.42H34.958C34.9663 324.311 34.9747 324.194 34.9747 324.077V323.259ZM39.9864 326.942C39.9864 327.752 40.8549 328.386 42.308 328.386C43.761 328.386 44.6295 327.752 44.6295 326.942V326.608C44.6295 325.797 43.761 325.163 42.308 325.163C40.8549 325.163 39.9864 325.797 39.9864 326.608V326.942ZM42.4917 324.528V320.845H41.6817V322.09H39.7025V320.845H38.8925V324.528H42.4917ZM43.8195 326.891C43.8195 327.301 43.2349 327.71 42.308 327.71C41.381 327.71 40.7965 327.301 40.7965 326.891V326.658C40.7965 326.248 41.381 325.839 42.308 325.839C43.2349 325.839 43.8195 326.248 43.8195 326.658V326.891ZM45.69 322.257H44.5961V320.47H43.7777V325.063H44.5961V322.975H45.69V322.257ZM39.7025 322.783H41.6817V323.827H39.7025V322.783Z" fill="#222222"/>
<path d="M265.348 290.6L264.979 290.969L248.74 274.73L249.109 274.361L265.348 290.6Z" fill="#CCCCCC"/>
<g filter="url(#filter5_d_1_16786)">
<circle cx="32.8812" cy="32.8812" r="32.8812" transform="matrix(-1 0 0 1 318 283)" fill="white"/>
</g>
<path d="M276.17 309.829C275.443 309.896 274.85 309.929 274.14 309.954V309.478C275.034 309.378 275.493 308.935 275.493 308.392V308.175C275.493 307.566 274.9 307.073 273.731 307.073C272.562 307.073 271.969 307.557 271.969 308.175V308.392C271.969 308.935 272.42 309.378 273.322 309.478V309.971C272.771 309.979 272.128 309.979 271.326 309.979V310.681C273.898 310.681 274.909 310.639 276.236 310.505L276.17 309.829ZM277.456 311.324V308.668H278.541V307.95H277.456V305.47H276.637V311.324H277.456ZM273.372 311.098H272.545V313.094H277.664V312.384H273.372V311.098ZM274.14 306.121V305.403H273.322V306.121H271.618V306.814H275.819V306.121H274.14ZM273.731 307.724C274.391 307.724 274.683 307.967 274.683 308.234V308.334C274.683 308.601 274.391 308.843 273.731 308.843C273.071 308.843 272.779 308.601 272.779 308.334V308.234C272.779 307.967 273.071 307.724 273.731 307.724ZM280.154 311.916C280.154 312.727 281.039 313.386 282.517 313.386C283.996 313.386 284.881 312.727 284.881 311.916V311.582C284.881 310.772 283.996 310.113 282.517 310.113C281.039 310.113 280.154 310.772 280.154 311.582V311.916ZM281.44 307.098C281.44 307.983 280.989 308.392 278.668 309.361L278.993 310.021C281.624 308.902 282.25 308.434 282.25 307.157V305.946H278.985V306.647H281.44V307.098ZM284.847 310.013V305.47H284.037V306.58H282.676V307.29H284.037V308.184H282.551V308.894H284.037V310.013H284.847ZM284.071 311.866C284.071 312.276 283.469 312.71 282.517 312.71C281.565 312.71 280.964 312.276 280.964 311.866V311.633C280.964 311.223 281.565 310.789 282.517 310.789C283.469 310.789 284.071 311.223 284.071 311.633V311.866ZM287.254 311.916C287.254 312.727 288.139 313.386 289.617 313.386C291.095 313.386 291.98 312.727 291.98 311.916V311.582C291.98 310.772 291.095 310.113 289.617 310.113C288.139 310.113 287.254 310.772 287.254 311.582V311.916ZM288.54 307.098C288.54 307.983 288.089 308.392 285.767 309.361L286.093 310.021C288.723 308.902 289.35 308.434 289.35 307.157V305.946H286.085V306.647H288.54V307.098ZM291.947 310.013V305.47H291.137V306.58H289.776V307.29H291.137V308.184H289.65V308.894H291.137V310.013H291.947ZM291.17 311.866C291.17 312.276 290.569 312.71 289.617 312.71C288.665 312.71 288.064 312.276 288.064 311.866V311.633C288.064 311.223 288.665 310.789 289.617 310.789C290.569 310.789 291.17 311.223 291.17 311.633V311.866ZM294.353 311.916C294.353 312.727 295.238 313.386 296.716 313.386C298.195 313.386 299.08 312.727 299.08 311.916V311.582C299.08 310.772 298.195 310.113 296.716 310.113C295.238 310.113 294.353 310.772 294.353 311.582V311.916ZM296.683 307.449C296.683 306.706 296.082 305.762 294.771 305.762C293.46 305.762 292.858 306.706 292.858 307.449V307.875C292.858 308.618 293.46 309.562 294.771 309.562C296.082 309.562 296.683 308.618 296.683 307.875V307.449ZM299.046 310.013V305.47H298.236V306.43H297.025V307.14H298.236V308.167H297.025V308.877H298.236V310.013H299.046ZM298.27 311.866C298.27 312.276 297.668 312.71 296.716 312.71C295.764 312.71 295.163 312.276 295.163 311.866V311.633C295.163 311.223 295.764 310.789 296.716 310.789C297.668 310.789 298.27 311.223 298.27 311.633V311.866ZM295.89 307.833C295.89 308.326 295.539 308.843 294.771 308.843C294.002 308.843 293.652 308.326 293.652 307.833V307.491C293.652 306.998 294.002 306.48 294.771 306.48C295.539 306.48 295.89 306.998 295.89 307.491V307.833ZM275.385 322.432C275.385 321.689 274.783 320.745 273.472 320.745C272.161 320.745 271.56 321.689 271.56 322.432V322.858C271.56 323.601 272.161 324.545 273.472 324.545C274.783 324.545 275.385 323.601 275.385 322.858V322.432ZM272.679 326.048H276.921V328.244H277.748V325.338H272.679V326.048ZM277.748 324.937V320.47H276.938V321.447H275.727V322.157H276.938V323.184H275.727V323.894H276.938V324.937H277.748ZM274.591 322.816C274.591 323.309 274.241 323.827 273.472 323.827C272.704 323.827 272.353 323.309 272.353 322.816V322.474C272.353 321.981 272.704 321.463 273.472 321.463C274.241 321.463 274.591 321.981 274.591 322.474V322.816ZM282.208 325.28C280.755 325.28 279.887 325.889 279.887 326.666V327C279.887 327.777 280.755 328.386 282.208 328.386C283.662 328.386 284.53 327.777 284.53 327V326.666C284.53 325.889 283.662 325.28 282.208 325.28ZM280.213 324.745C281.432 324.745 282.15 324.695 283.094 324.578L283.019 323.894C281.983 324.019 281.215 324.044 280.296 324.044H279.595V323.125H282.2V320.837H278.751V321.539H281.382V322.44H278.776V324.745H280.213ZM285.591 321.622H284.497V320.47H283.678V325.18H284.497V323.894H285.591V323.175H284.497V322.34H285.591V321.622ZM282.208 327.71C281.282 327.71 280.697 327.326 280.697 326.95V326.716C280.697 326.34 281.282 325.956 282.208 325.956C283.135 325.956 283.72 326.34 283.72 326.716V326.95C283.72 327.326 283.135 327.71 282.208 327.71ZM286.986 326.916C286.986 327.727 287.855 328.386 289.308 328.386C290.761 328.386 291.629 327.727 291.629 326.916V326.582C291.629 325.772 290.761 325.113 289.308 325.113C287.855 325.113 286.986 325.772 286.986 326.582V326.916ZM288.439 322.098C288.439 322.967 288.022 323.376 285.667 324.361L285.976 325.029C288.598 323.919 289.25 323.443 289.25 322.157V320.946H285.984V321.647H288.439V322.098ZM290.819 326.866C290.819 327.276 290.235 327.71 289.308 327.71C288.381 327.71 287.796 327.276 287.796 326.866V326.633C287.796 326.223 288.381 325.789 289.308 325.789C290.235 325.789 290.819 326.223 290.819 326.633V326.866ZM292.69 322.223H291.596V320.47H290.778V325.013H291.596V322.942H292.69V322.223ZM297.51 325.889C296.842 325.948 296.249 325.998 295.506 326.023V325.271C296.391 325.129 296.917 324.578 296.917 323.994V323.676C296.917 323 296.215 322.365 295.055 322.365C293.894 322.365 293.192 323 293.192 323.676V323.994C293.192 324.595 293.744 325.171 294.687 325.288V326.048C294.119 326.065 293.46 326.065 292.641 326.065V326.766C295.28 326.766 296.19 326.708 297.577 326.566L297.51 325.889ZM298.779 328.169V324.269H299.931V323.551H298.779V320.47H297.961V328.169H298.779ZM297.226 321.338H295.464V320.411H294.645V321.338H292.8V322.048H297.226V321.338ZM295.055 324.628C294.387 324.628 293.994 324.286 293.994 323.919V323.752C293.994 323.384 294.378 323.042 295.055 323.042C295.723 323.042 296.115 323.384 296.115 323.752V323.919C296.115 324.286 295.731 324.628 295.055 324.628Z" fill="#222222"/>
<defs>
<filter id="filter0_d_1_16786" x="124" y="0.780755" width="86.6387" height="86.6394" filterUnits="userSpaceOnUse" color-interpolation-filters="sRGB">
<feFlood flood-opacity="0" result="BackgroundImageFix"/>
<feColorMatrix in="SourceAlpha" type="matrix" values="0 0 0 0 0 0 0 0 0 0 0 0 0 0 0 0 0 0 127 0" result="hardAlpha"/>
<feOffset dx="5.21924" dy="5.21924"/>
<feGaussianBlur stdDeviation="5.21924"/>
<feComposite in2="hardAlpha" operator="out"/>
<feColorMatrix type="matrix" values="0 0 0 0 0 0 0 0 0 0 0 0 0 0 0 0 0 0 0.1 0"/>
<feBlend mode="normal" in2="BackgroundImageFix" result="effect1_dropShadow_1_16786"/>
<feBlend mode="normal" in="SourceGraphic" in2="effect1_dropShadow_1_16786" result="shape"/>
</filter>
<filter id="filter1_d_1_16786" x="0.304193" y="277.401" width="86.6387" height="86.6395" filterUnits="userSpaceOnUse" color-interpolation-filters="sRGB">
<feFlood flood-opacity="0" result="BackgroundImageFix"/>
<feColorMatrix in="SourceAlpha" type="matrix" values="0 0 0 0 0 0 0 0 0 0 0 0 0 0 0 0 0 0 127 0" result="hardAlpha"/>
<feOffset dx="5.21924" dy="5.21924"/>
<feGaussianBlur stdDeviation="5.21924"/>
<feComposite in2="hardAlpha" operator="out"/>
<feColorMatrix type="matrix" values="0 0 0 0 0 0 0 0 0 0 0 0 0 0 0 0 0 0 0.1 0"/>
<feBlend mode="normal" in2="BackgroundImageFix" result="effect1_dropShadow_1_16786"/>
<feBlend mode="normal" in="SourceGraphic" in2="effect1_dropShadow_1_16786" result="shape"/>
</filter>
<filter id="filter2_d_1_16786" x="247.234" y="277.401" width="86.6387" height="86.6395" filterUnits="userSpaceOnUse" color-interpolation-filters="sRGB">
<feFlood flood-opacity="0" result="BackgroundImageFix"/>
<feColorMatrix in="SourceAlpha" type="matrix" values="0 0 0 0 0 0 0 0 0 0 0 0 0 0 0 0 0 0 127 0" result="hardAlpha"/>
<feOffset dx="5.21924" dy="5.21924"/>
<feGaussianBlur stdDeviation="5.21924"/>
<feComposite in2="hardAlpha" operator="out"/>
<feColorMatrix type="matrix" values="0 0 0 0 0 0 0 0 0 0 0 0 0 0 0 0 0 0 0.1 0"/>
<feBlend mode="normal" in2="BackgroundImageFix" result="effect1_dropShadow_1_16786"/>
<feBlend mode="normal" in="SourceGraphic" in2="effect1_dropShadow_1_16786" result="shape"/>
</filter>
<filter id="filter3_d_1_16786" x="123.781" y="0.780755" width="86.6387" height="86.6394" filterUnits="userSpaceOnUse" color-interpolation-filters="sRGB">
<feFlood flood-opacity="0" result="BackgroundImageFix"/>
<feColorMatrix in="SourceAlpha" type="matrix" values="0 0 0 0 0 0 0 0 0 0 0 0 0 0 0 0 0 0 127 0" result="hardAlpha"/>
<feOffset dx="5.21924" dy="5.21924"/>
<feGaussianBlur stdDeviation="5.21924"/>
<feComposite in2="hardAlpha" operator="out"/>
<feColorMatrix type="matrix" values="0 0 0 0 0 0 0 0 0 0 0 0 0 0 0 0 0 0 0.1 0"/>
<feBlend mode="normal" in2="BackgroundImageFix" result="effect1_dropShadow_1_16786"/>
<feBlend mode="normal" in="SourceGraphic" in2="effect1_dropShadow_1_16786" result="shape"/>
</filter>
<filter id="filter4_d_1_16786" x="0.780755" y="277.781" width="86.6387" height="86.6395" filterUnits="userSpaceOnUse" color-interpolation-filters="sRGB">
<feFlood flood-opacity="0" result="BackgroundImageFix"/>
<feColorMatrix in="SourceAlpha" type="matrix" values="0 0 0 0 0 0 0 0 0 0 0 0 0 0 0 0 0 0 127 0" result="hardAlpha"/>
<feOffset dx="5.21924" dy="5.21924"/>
<feGaussianBlur stdDeviation="5.21924"/>
<feComposite in2="hardAlpha" operator="out"/>
<feColorMatrix type="matrix" values="0 0 0 0 0 0 0 0 0 0 0 0 0 0 0 0 0 0 0.1 0"/>
<feBlend mode="normal" in2="BackgroundImageFix" result="effect1_dropShadow_1_16786"/>
<feBlend mode="normal" in="SourceGraphic" in2="effect1_dropShadow_1_16786" result="shape"/>
</filter>
<filter id="filter5_d_1_16786" x="247.019" y="277.781" width="86.6387" height="86.6395" filterUnits="userSpaceOnUse" color-interpolation-filters="sRGB">
<feFlood flood-opacity="0" result="BackgroundImageFix"/>
<feColorMatrix in="SourceAlpha" type="matrix" values="0 0 0 0 0 0 0 0 0 0 0 0 0 0 0 0 0 0 127 0" result="hardAlpha"/>
<feOffset dx="5.21924" dy="5.21924"/>
<feGaussianBlur stdDeviation="5.21924"/>
<feComposite in2="hardAlpha" operator="out"/>
<feColorMatrix type="matrix" values="0 0 0 0 0 0 0 0 0 0 0 0 0 0 0 0 0 0 0.1 0"/>
<feBlend mode="normal" in2="BackgroundImageFix" result="effect1_dropShadow_1_16786"/>
<feBlend mode="normal" in="SourceGraphic" in2="effect1_dropShadow_1_16786" result="shape"/>
</filter>
<linearGradient id="paint0_linear_1_16786" x1="182.612" y1="308.9" x2="77.3502" y2="262.611" gradientUnits="userSpaceOnUse">
<stop stop-color="#34BAA5"/>
<stop offset="1" stop-color="#C7EFE9"/>
</linearGradient>
<linearGradient id="paint1_linear_1_16786" x1="84.2484" y1="271.289" x2="83.6803" y2="126.959" gradientUnits="userSpaceOnUse">
<stop stop-color="#319EBA"/>
<stop offset="1" stop-color="#78E3FF"/>
</linearGradient>
<linearGradient id="paint2_linear_1_16786" x1="78.2413" y1="145.777" x2="187.286" y2="103.494" gradientUnits="userSpaceOnUse">
<stop stop-color="#4C8BDD"/>
<stop offset="1" stop-color="#CFE4FF"/>
</linearGradient>
<linearGradient id="paint3_linear_1_16786" x1="198.189" y1="108.612" x2="264.729" y2="226.113" gradientUnits="userSpaceOnUse">
<stop stop-color="#33B9A5"/>
<stop offset="1" stop-color="#C6EFE9"/>
</linearGradient>
<linearGradient id="paint4_linear_1_16786" x1="265.844" y1="210.536" x2="222.003" y2="289.76" gradientUnits="userSpaceOnUse">
<stop stop-color="#4D8CDE"/>
<stop offset="1" stop-color="#CAE0FE"/>
</linearGradient>
<linearGradient id="paint5_linear_1_16786" x1="161.577" y1="129.698" x2="161.577" y2="281.056" gradientUnits="userSpaceOnUse">
<stop stop-color="#33B9A5"/>
<stop offset="0.69" stop-color="#40A7C9"/>
<stop offset="1" stop-color="#5082E6"/>
</linearGradient>
<linearGradient id="paint6_linear_1_16786" x1="182.612" y1="308.9" x2="77.3502" y2="262.611" gradientUnits="userSpaceOnUse">
<stop stop-color="#34BAA5"/>
<stop offset="1" stop-color="#C7EFE9"/>
</linearGradient>
<linearGradient id="paint7_linear_1_16786" x1="84.2484" y1="271.289" x2="83.6803" y2="126.959" gradientUnits="userSpaceOnUse">
<stop stop-color="#319EBA"/>
<stop offset="1" stop-color="#78E3FF"/>
</linearGradient>
<linearGradient id="paint8_linear_1_16786" x1="78.2413" y1="145.777" x2="187.286" y2="103.494" gradientUnits="userSpaceOnUse">
<stop stop-color="#4C8BDD"/>
<stop offset="1" stop-color="#CFE4FF"/>
</linearGradient>
<linearGradient id="paint9_linear_1_16786" x1="198.189" y1="108.612" x2="264.729" y2="226.113" gradientUnits="userSpaceOnUse">
<stop stop-color="#33B9A5"/>
<stop offset="1" stop-color="#C6EFE9"/>
</linearGradient>
<linearGradient id="paint10_linear_1_16786" x1="265.844" y1="210.536" x2="222.003" y2="289.76" gradientUnits="userSpaceOnUse">
<stop stop-color="#4D8CDE"/>
<stop offset="1" stop-color="#CAE0FE"/>
</linearGradient>
<linearGradient id="paint11_linear_1_16786" x1="161.577" y1="129.698" x2="161.577" y2="281.056" gradientUnits="userSpaceOnUse">
<stop stop-color="#33B9A5"/>
<stop offset="0.69" stop-color="#40A7C9"/>
<stop offset="1" stop-color="#5082E6"/>
</linearGradient>
</defs>
</svg>
