<svg width="786" height="534" viewBox="0 0 786 534" fill="none" xmlns="http://www.w3.org/2000/svg">
<path d="M48.0308 2.5V486H785" stroke="#33B9A5" stroke-width="3"/>
<g opacity="0.9">
<g opacity="0.2">
<rect opacity="0.7" x="183.117" y="25" width="1" height="440" fill="url(#paint0_linear_182_2861)"/>
<rect opacity="0.7" x="299.19" y="25" width="1" height="440" fill="url(#paint1_linear_182_2861)"/>
<rect opacity="0.7" x="415.265" y="25" width="1" height="440" fill="url(#paint2_linear_182_2861)"/>
<rect opacity="0.7" x="531.338" y="25" width="1" height="440" fill="url(#paint3_linear_182_2861)"/>
<rect opacity="0.7" x="647.413" y="25" width="1" height="440" fill="url(#paint4_linear_182_2861)"/>
<path opacity="0.8" d="M67.543 464.5V24.5H764.988V464.5H67.543Z" stroke="url(#paint5_linear_182_2861)"/>
<rect opacity="0.7" x="765.488" y="98" width="1.00003" height="698.445" transform="rotate(90 765.488 98)" fill="url(#paint6_linear_182_2861)"/>
<rect opacity="0.7" x="765.488" y="171" width="1.00003" height="698.445" transform="rotate(90 765.488 171)" fill="url(#paint7_linear_182_2861)"/>
<rect opacity="0.7" x="765.488" y="244" width="1.00003" height="698.445" transform="rotate(90 765.488 244)" fill="url(#paint8_linear_182_2861)"/>
<rect opacity="0.7" x="765.488" y="317" width="1.00003" height="698.445" transform="rotate(90 765.488 317)" fill="url(#paint9_linear_182_2861)"/>
<rect opacity="0.7" x="765.488" y="390" width="1.00003" height="698.445" transform="rotate(90 765.488 390)" fill="url(#paint10_linear_182_2861)"/>
</g>
</g>
<path fill-rule="evenodd" clip-rule="evenodd" d="M721.459 50C724.222 50 726.462 47.7614 726.462 45C726.462 42.2386 724.222 40 721.459 40C718.696 40 716.456 42.2386 716.456 45C716.456 47.7614 718.696 50 721.459 50ZM415.264 116C415.264 118.761 413.024 121 410.261 121C407.498 121 405.258 118.761 405.258 116C405.258 113.239 407.498 111 410.261 111C413.024 111 415.264 113.239 415.264 116ZM407.259 176C407.259 178.761 405.019 181 402.256 181C399.493 181 397.253 178.761 397.253 176C397.253 173.239 399.493 171 402.256 171C405.019 171 407.259 173.239 407.259 176ZM430.274 232C429.361 233.215 427.908 234 426.271 234C423.508 234 421.268 231.761 421.268 229C421.268 226.239 423.508 224 426.271 224C427.908 224 429.361 224.785 430.274 226C431.187 224.785 432.64 224 434.277 224C437.04 224 439.28 226.239 439.28 229C439.28 231.761 437.04 234 434.277 234C432.64 234 431.187 233.215 430.274 232ZM225.143 239C227.907 239 230.147 236.761 230.147 234C230.147 231.239 227.907 229 225.143 229C222.38 229 220.14 231.239 220.14 234C220.14 236.761 222.38 239 225.143 239ZM346.221 298C348.984 298 351.224 295.761 351.224 293C351.224 290.239 348.984 288 346.221 288C343.457 288 341.217 290.239 341.217 293C341.217 295.761 343.457 298 346.221 298ZM308.196 308C310.959 308 313.199 305.761 313.199 303C313.199 300.239 310.959 298 308.196 298C305.433 298 303.193 300.239 303.193 303C303.193 305.761 305.433 308 308.196 308ZM169.108 340C169.108 342.761 166.868 345 164.105 345C161.341 345 159.101 342.761 159.101 340C159.101 337.239 161.341 335 164.105 335C166.868 335 169.108 337.239 169.108 340ZM176.112 367C178.875 367 181.115 364.761 181.115 362C181.115 359.239 178.875 357 176.112 357C173.349 357 171.109 359.239 171.109 362C171.109 364.761 173.349 367 176.112 367ZM136.087 405C138.85 405 141.09 402.761 141.09 400C141.09 397.239 138.85 395 136.087 395C133.323 395 131.083 397.239 131.083 400C131.083 402.761 133.323 405 136.087 405ZM254.162 380C256.925 380 259.165 377.761 259.165 375C259.165 372.239 256.925 370 254.162 370C251.399 370 249.159 372.239 249.159 375C249.159 377.761 251.399 380 254.162 380ZM297.189 356C297.189 358.761 294.949 361 292.186 361C289.423 361 287.183 358.761 287.183 356C287.183 353.239 289.423 351 292.186 351C294.949 351 297.189 353.239 297.189 356ZM311.198 410C313.961 410 316.201 407.761 316.201 405C316.201 402.239 313.961 400 311.198 400C308.435 400 306.195 402.239 306.195 405C306.195 407.761 308.435 410 311.198 410ZM383.244 415C383.244 417.761 381.004 420 378.241 420C375.478 420 373.238 417.761 373.238 415C373.238 412.239 375.478 410 378.241 410C381.004 410 383.244 412.239 383.244 415ZM371.236 307C371.236 309.761 368.996 312 366.233 312C363.47 312 361.23 309.761 361.23 307C361.23 304.239 363.47 302 366.233 302C368.996 302 371.236 304.239 371.236 307ZM379.242 293C379.242 295.761 377.002 298 374.238 298C371.475 298 369.235 295.761 369.235 293C369.235 290.239 371.475 288 374.238 288C377.002 288 379.242 290.239 379.242 293ZM393.25 298C393.25 299.636 392.465 301.088 391.25 302C392.465 302.912 393.25 304.364 393.25 306C393.25 308.761 391.01 311 388.247 311C385.484 311 383.244 308.761 383.244 306C383.244 304.364 384.03 302.912 385.245 302C384.03 301.088 383.244 299.636 383.244 298C383.244 295.239 385.484 293 388.247 293C391.01 293 393.25 295.239 393.25 298ZM431.275 270C431.275 272.761 429.035 275 426.271 275C423.508 275 421.268 272.761 421.268 270C421.268 267.239 423.508 265 426.271 265C429.035 265 431.275 267.239 431.275 270ZM469.299 258C472.062 258 474.302 255.761 474.302 253C474.302 250.239 472.062 248 469.299 248C466.536 248 464.296 250.239 464.296 253C464.296 255.761 466.536 258 469.299 258ZM402.256 197C405.019 197 407.259 194.761 407.259 192C407.259 189.239 405.019 187 402.256 187C399.493 187 397.253 189.239 397.253 192C397.253 194.761 399.493 197 402.256 197ZM393.25 229C393.25 231.761 391.01 234 388.247 234C385.484 234 383.244 231.761 383.244 229C383.244 226.239 385.484 224 388.247 224C391.01 224 393.25 226.239 393.25 229ZM356.227 234C358.99 234 361.23 231.761 361.23 229C361.23 226.239 358.99 224 356.227 224C353.464 224 351.224 226.239 351.224 229C351.224 231.761 353.464 234 356.227 234ZM518.33 150C521.093 150 523.333 147.761 523.333 145C523.333 142.239 521.093 140 518.33 140C515.567 140 513.327 142.239 513.327 145C513.327 147.761 515.567 150 518.33 150ZM571.364 165C571.364 167.761 569.124 170 566.361 170C563.598 170 561.358 167.761 561.358 165C561.358 162.239 563.598 160 566.361 160C569.124 160 571.364 162.239 571.364 165Z" fill="url(#paint11_linear_182_2861)"/>
<path d="M111.577 291.49V304.468H119.569V302.938H113.359V291.49H111.577ZM124.139 294.442C121.439 294.442 119.747 296.062 119.747 298.924V300.13C119.747 302.974 121.439 304.612 124.139 304.612C126.839 304.612 128.531 302.974 128.531 300.13V298.924C128.531 296.08 126.839 294.442 124.139 294.442ZM124.139 303.082C122.573 303.082 121.511 302.074 121.511 299.986V299.068C121.511 296.98 122.573 295.972 124.139 295.972C125.705 295.972 126.767 296.98 126.767 299.068V299.986C126.767 302.074 125.705 303.082 124.139 303.082ZM135.208 296.8L137.206 304.468H139.258L141.778 294.622H140.05L138.214 302.65H138.178L136.108 294.622H134.344L132.256 302.65H132.22L130.42 294.622H128.584L131.14 304.468H133.192L135.172 296.8H135.208Z" fill="#33B9A5"/>
<path d="M313.524 158.308H315.036L318.132 151.108C318.366 150.568 318.492 150.244 318.744 149.308V160.468H320.454V147.49H317.844L314.334 155.986L310.734 147.49H308.106V160.468H309.798V149.308C310.086 150.19 310.248 150.568 310.464 151.108L313.524 158.308ZM325.973 151.936C327.467 151.936 328.403 152.908 328.403 154.42V154.744H323.471V154.492C323.471 152.98 324.515 151.936 325.973 151.936ZM329.123 158.218C328.277 158.758 327.413 159.1 326.135 159.1C324.569 159.1 323.471 158.092 323.471 156.238V156.166H330.095V154.852C330.095 152.044 328.493 150.442 325.973 150.442C323.543 150.442 321.743 151.972 321.743 154.96V156.076C321.743 159.262 323.633 160.612 326.063 160.612C327.845 160.612 328.997 160.126 329.861 159.532L329.123 158.218ZM337.415 159.244V160.468H339.089V146.86H337.343V151.648C336.947 151.072 336.083 150.442 334.589 150.442C332.285 150.442 330.683 152.008 330.683 154.672V156.418C330.683 159.082 332.033 160.612 334.517 160.612C335.741 160.612 336.839 160.234 337.379 159.244H337.415ZM337.361 156.598C337.361 158.128 336.191 159.082 334.769 159.082C333.311 159.082 332.411 158.002 332.411 156.13V154.924C332.411 153.07 333.293 151.972 334.769 151.972C336.281 151.972 337.361 153.034 337.361 154.06V156.598ZM340.866 150.622V160.468H342.612V150.622H340.866ZM340.812 147.094V149.002H342.666V147.094H340.812ZM344.246 157.138C344.246 159.514 345.758 160.648 347.666 160.648C349.016 160.648 349.988 160.144 350.582 159.226H350.6V160.468H352.292V150.622H350.546V156.724C350.546 158.272 349.286 159.1 348.098 159.1C346.64 159.1 345.992 158.398 345.992 156.742V150.622H344.246V157.138ZM367.533 154.006C367.533 151.738 366.291 150.442 364.275 150.442C362.727 150.442 361.845 151.126 361.215 152.08C360.711 151.036 359.703 150.442 358.389 150.442C357.021 150.442 356.139 151.09 355.761 151.954H355.743V150.622H354.015V160.468H355.761V154.24C355.761 152.692 356.967 152.026 358.047 152.026C359.289 152.026 359.901 152.854 359.901 154.564V160.468H361.647V154.33C361.647 152.728 362.835 152.026 363.933 152.026C365.175 152.026 365.787 152.854 365.787 154.564V160.468H367.533V154.006Z" fill="#4A89DB"/>
<path d="M600.943 37.49V42.908H594.913V37.49H593.131V50.468H594.913V44.492H600.943V50.468H602.725V37.49H600.943ZM604.584 40.622V50.468H606.33V40.622H604.584ZM604.53 37.094V39.002H606.384V37.094H604.53ZM616.028 40.622H614.282V41.648C613.886 41.072 613.022 40.442 611.528 40.442C609.224 40.442 607.622 42.008 607.622 44.672V46.238C607.622 48.902 608.972 50.432 611.456 50.432C612.644 50.432 613.724 50.072 614.282 49.136V50.342C614.282 52.088 613.382 52.898 611.69 52.898C610.718 52.898 609.8 52.556 609.152 52.07L608.36 53.438C609.17 54.068 610.304 54.482 611.636 54.482C614.534 54.482 616.028 53.096 616.028 50.342V40.622ZM614.3 46.418C614.3 47.948 613.13 48.902 611.708 48.902C610.25 48.902 609.35 47.822 609.35 45.95V44.924C609.35 43.07 610.232 41.972 611.708 41.972C613.22 41.972 614.3 43.034 614.3 44.06V46.418ZM625.869 43.952C625.869 41.576 624.321 40.442 622.413 40.442C621.081 40.442 620.091 40.928 619.497 41.81V36.86H617.751V50.468H619.497V44.366C619.497 42.818 620.793 41.99 621.981 41.99C623.439 41.99 624.123 42.692 624.123 44.348V50.468H625.869V43.952Z" fill="#FF7400"/>
<path d="M14.468 172.524L14.468 167.358C14.468 164.55 13.172 163.2 11.048 163.2L10.598 163.2C8.798 163.2 7.862 164.298 7.628 165.882C7.25 164.334 6.17 163.794 5.036 163.794L4.658 163.794C2.534 163.794 1.49 165.162 1.49 167.916L1.49 172.524L14.468 172.524ZM8.42 170.742L8.42 168.42C8.42 165.828 9.032 165.036 10.616 165.036L11.012 165.036C12.542 165.036 12.92 165.99 12.92 168.024L12.92 170.742L8.42 170.742ZM3.02 168.564C3.02 166.53 3.164 165.612 4.694 165.612L5.018 165.612C6.638 165.612 6.962 166.638 6.962 168.438L6.962 170.742L3.02 170.742L3.02 168.564ZM11.138 162.394C13.514 162.394 14.648 160.882 14.648 158.974C14.648 157.624 14.144 156.652 13.226 156.058L13.226 156.04L14.468 156.04L14.468 154.348L4.622 154.348L4.622 156.094L10.724 156.094C12.272 156.094 13.1 157.354 13.1 158.542C13.1 160 12.398 160.648 10.742 160.648L4.622 160.648L4.622 162.394L11.138 162.394ZM13.1 149.565C13.1 150.753 12.65 151.761 12.056 152.643L13.424 153.453C14.144 152.517 14.612 151.131 14.612 149.493C14.612 147.207 13.406 145.749 11.858 145.749L11.624 145.749C9.806 145.749 9.086 146.883 8.636 149.277C8.348 150.807 8.06 151.401 7.286 151.401L7.124 151.401C6.44 151.401 5.936 150.807 5.936 149.349C5.936 148.359 6.242 147.405 6.728 146.757L5.414 145.983C4.73 146.955 4.442 148.143 4.442 149.475C4.442 152.031 5.738 153.147 7.106 153.147L7.322 153.147C9.05 153.147 9.752 151.941 10.202 149.763C10.58 147.909 10.85 147.513 11.678 147.513L11.822 147.513C12.614 147.513 13.1 148.269 13.1 149.565ZM4.622 144.686L14.468 144.686L14.468 142.94L4.622 142.94L4.622 144.686ZM1.094 144.74L3.002 144.74L3.002 142.886L1.094 142.886L1.094 144.74ZM7.952 133.044C5.576 133.044 4.442 134.592 4.442 136.5C4.442 137.85 4.946 138.858 5.864 139.452L5.864 139.47L4.622 139.47L4.622 141.162L14.468 141.162L14.468 139.416L8.366 139.416C6.818 139.416 5.99 138.12 5.99 136.932C5.99 135.474 6.692 134.79 8.348 134.79L14.468 134.79L14.468 133.044L7.952 133.044ZM5.936 127.74C5.936 126.246 6.908 125.31 8.42 125.31L8.744 125.31L8.744 130.242L8.492 130.242C6.98 130.242 5.936 129.198 5.936 127.74ZM12.218 124.59C12.758 125.436 13.1 126.3 13.1 127.578C13.1 129.144 12.092 130.242 10.238 130.242L10.166 130.242L10.166 123.618L8.852 123.618C6.044 123.618 4.442 125.22 4.442 127.74C4.442 130.17 5.972 131.97 8.96 131.97L10.076 131.97C13.262 131.97 14.612 130.08 14.612 127.65C14.612 125.868 14.126 124.716 13.532 123.852L12.218 124.59ZM13.1 119.484C13.1 120.672 12.65 121.68 12.056 122.562L13.424 123.372C14.144 122.436 14.612 121.05 14.612 119.412C14.612 117.126 13.406 115.668 11.858 115.668L11.624 115.668C9.806 115.668 9.086 116.802 8.636 119.196C8.348 120.726 8.06 121.32 7.286 121.32L7.124 121.32C6.44 121.32 5.936 120.726 5.936 119.268C5.936 118.278 6.242 117.324 6.728 116.676L5.414 115.902C4.73 116.874 4.442 118.062 4.442 119.394C4.442 121.95 5.738 123.066 7.106 123.066L7.322 123.066C9.05 123.066 9.752 121.86 10.202 119.682C10.58 117.828 10.85 117.432 11.678 117.432L11.822 117.432C12.614 117.432 13.1 118.188 13.1 119.484ZM13.1 111.6C13.1 112.788 12.65 113.796 12.056 114.678L13.424 115.488C14.144 114.552 14.612 113.166 14.612 111.528C14.612 109.242 13.406 107.784 11.858 107.784L11.624 107.784C9.806 107.784 9.086 108.918 8.636 111.312C8.348 112.842 8.06 113.436 7.286 113.436L7.124 113.436C6.44 113.436 5.936 112.842 5.936 111.384C5.936 110.394 6.242 109.44 6.728 108.792L5.414 108.018C4.73 108.99 4.442 110.178 4.442 111.51C4.442 114.066 5.738 115.182 7.106 115.182L7.322 115.182C9.05 115.182 9.752 113.976 10.202 111.798C10.58 109.944 10.85 109.548 11.678 109.548L11.822 109.548C12.614 109.548 13.1 110.304 13.1 111.6ZM1.49 103.283L14.468 103.283L14.468 95.0747L12.938 95.0747L12.938 101.501L8.582 101.501L8.582 95.5787L7.052 95.5787L7.052 101.501L3.02 101.501L3.02 95.2007L1.49 95.2007L1.49 103.283ZM14.468 93.0649L14.468 91.3189L6.116 91.3189L6.116 88.7269L4.622 88.7269L4.622 91.3189L3.722 91.3189C2.444 91.3189 2.246 90.7069 2.246 90.0409C2.246 89.6089 2.3 89.1589 2.426 88.7089L1.004 88.4389C0.859996 88.8349 0.751995 89.5729 0.751995 90.2029C0.751995 92.0749 1.67 93.0649 3.65 93.0649L4.622 93.0649L4.622 94.6849L6.116 94.6849L6.116 93.0649L14.468 93.0649ZM14.468 87.3949L14.468 85.6489L6.116 85.6489L6.116 83.0569L4.622 83.0569L4.622 85.6489L3.722 85.6489C2.444 85.6489 2.246 85.0369 2.246 84.3709C2.246 83.9389 2.3 83.4889 2.426 83.0389L1.00399 82.7689C0.859996 83.1649 0.751995 83.9029 0.751995 84.5329C0.751995 86.4049 1.67 87.3949 3.65 87.3949L4.622 87.3949L4.622 89.0149L6.116 89.0149L6.116 87.3949L14.468 87.3949ZM5.936 78.7515C5.936 77.2575 6.908 76.3215 8.42 76.3215L8.744 76.3215L8.744 81.2535L8.492 81.2535C6.98 81.2535 5.936 80.2095 5.936 78.7515ZM12.218 75.6015C12.758 76.4475 13.1 77.3115 13.1 78.5895C13.1 80.1555 12.092 81.2535 10.238 81.2535L10.166 81.2535L10.166 74.6295L8.852 74.6295C6.044 74.6295 4.442 76.2315 4.442 78.7515C4.442 81.1815 5.972 82.9815 8.96 82.9815L10.076 82.9815C13.262 82.9815 14.612 81.0915 14.612 78.6615C14.612 76.8795 14.126 75.7275 13.532 74.8635L12.218 75.6015ZM4.442 69.8115C4.442 72.3855 6.044 74.0595 8.87 74.0595L10.112 74.0595C12.938 74.0595 14.612 72.5115 14.612 69.7935C14.612 67.9935 14.054 66.8415 13.478 66.1575L12.146 67.0035C12.668 67.7055 13.046 68.4795 13.046 69.7755C13.046 71.0715 12.218 72.2955 10.094 72.2955L8.852 72.2955C6.83599 72.2955 5.99 71.1075 5.99 69.8115C5.98999 68.8575 6.16999 68.1555 6.83599 67.2375L5.522 66.4095C4.91 67.2195 4.442 68.1915 4.442 69.8115ZM11.714 64.8653C13.694 64.8653 14.612 64.0013 14.612 62.1293C14.612 61.4273 14.45 60.6893 14.288 60.2933L12.884 60.5633C13.046 61.0133 13.118 61.4273 13.118 61.8593C13.118 62.5973 12.92 63.1193 11.714 63.1193L6.11599 63.1193L6.11599 60.5273L4.62199 60.5273L4.62199 63.1193L2.13799 63.1193L2.13799 64.8653L4.62199 64.8653L4.62199 66.4853L6.11599 66.4853L6.11599 64.8653L11.714 64.8653ZM13.1 56.5012C13.1 57.6892 12.65 58.6972 12.056 59.5792L13.424 60.3892C14.144 59.4532 14.612 58.0672 14.612 56.4292C14.612 54.1432 13.406 52.6852 11.858 52.6852L11.624 52.6852C9.80599 52.6852 9.08599 53.8192 8.63599 56.2132C8.34799 57.7432 8.05999 58.3372 7.28599 58.3372L7.12399 58.3372C6.43999 58.3372 5.93599 57.7432 5.93599 56.2852C5.93599 55.2952 6.24199 54.3412 6.72799 53.6932L5.41399 52.9192C4.72999 53.8912 4.44199 55.0792 4.44199 56.4112C4.44199 58.9672 5.73799 60.0832 7.10599 60.0832L7.32199 60.0832C9.04999 60.0832 9.75199 58.8772 10.202 56.6992C10.58 54.8452 10.85 54.4492 11.678 54.4492L11.822 54.4492C12.614 54.4492 13.1 55.2052 13.1 56.5012Z" fill="#222222"/>
<path d="M9.00597 37V2M9.00597 2L13.0085 6.05797M9.00597 2L5.00342 6.05797" stroke="#444444" stroke-width="2" stroke-linecap="square"/>
<path d="M627.112 529.046C625.996 529.046 624.412 528.416 623.44 527.678L622.54 529.136C623.62 530 625.222 530.666 627.058 530.666C629.722 530.666 631.684 529.442 631.684 527.066V526.742C631.684 524.942 630.694 523.808 627.49 523.088C625.564 522.656 624.502 522.224 624.502 521.036V520.748C624.502 519.722 625.564 518.894 627.184 518.894C628.372 518.894 629.326 519.164 630.28 519.812L631.126 518.426C630.028 517.688 628.75 517.292 627.166 517.292C624.178 517.292 622.72 519.002 622.72 520.766V521.09C622.72 523.43 624.592 524.186 627.04 524.708C629.146 525.158 629.884 525.734 629.884 526.868V527.156C629.884 528.182 628.948 529.046 627.112 529.046ZM636.799 520.442C634.099 520.442 632.407 522.062 632.407 524.924V526.13C632.407 528.974 634.099 530.612 636.799 530.612C639.499 530.612 641.191 528.974 641.191 526.13V524.924C641.191 522.08 639.499 520.442 636.799 520.442ZM636.799 529.082C635.233 529.082 634.171 528.074 634.171 525.986V525.068C634.171 522.98 635.233 521.972 636.799 521.972C638.365 521.972 639.427 522.98 639.427 525.068V525.986C639.427 528.074 638.365 529.082 636.799 529.082ZM646.157 520.442C643.583 520.442 641.909 522.044 641.909 524.87V526.112C641.909 528.938 643.457 530.612 646.175 530.612C647.975 530.612 649.127 530.054 649.811 529.478L648.965 528.146C648.263 528.668 647.489 529.046 646.193 529.046C644.897 529.046 643.673 528.218 643.673 526.094V524.852C643.673 522.836 644.861 521.99 646.157 521.99C647.111 521.99 647.813 522.17 648.731 522.836L649.559 521.522C648.749 520.91 647.777 520.442 646.157 520.442ZM650.546 520.622V530.468H652.292V520.622H650.546ZM650.492 517.094V519.002H652.346V517.094H650.492ZM656.806 530.612C657.67 530.612 658.246 530.45 658.768 530.162C659.146 529.946 659.506 529.64 659.686 529.28H659.704V530.468H661.378V523.574C661.378 521.594 659.83 520.442 657.634 520.442C656.05 520.442 654.88 521.018 653.926 521.684L654.79 522.98C655.708 522.386 656.464 521.99 657.616 521.99C659.056 521.99 659.65 522.62 659.65 523.934V524.51H657.148C654.628 524.51 653.566 525.68 653.566 527.354V527.84C653.566 529.568 654.826 530.612 656.806 530.612ZM659.65 526.958C659.65 527.696 659.452 528.128 658.984 528.488C658.462 528.902 657.85 529.1 656.986 529.1C656.05 529.1 655.276 528.686 655.276 527.732V527.48C655.276 526.544 655.816 525.986 657.184 525.986H659.65V526.958ZM663.027 516.86V530.468H664.773V516.86H663.027ZM675.428 517.49H673.7L668.876 530.468H670.694L672.062 526.652H677.03L678.398 530.468H680.27L675.428 517.49ZM673.7 522.08C674.078 521 674.186 520.676 674.546 519.47C674.906 520.658 675.014 521 675.41 522.08L676.49 525.122H672.602L673.7 522.08ZM681.299 527.714C681.299 529.694 682.163 530.612 684.035 530.612C684.737 530.612 685.475 530.45 685.871 530.288L685.601 528.884C685.151 529.046 684.737 529.118 684.305 529.118C683.567 529.118 683.045 528.92 683.045 527.714V522.116H685.637V520.622H683.045V518.138H681.299V520.622H679.679V522.116H681.299V527.714ZM687.215 527.714C687.215 529.694 688.079 530.612 689.951 530.612C690.653 530.612 691.391 530.45 691.787 530.288L691.517 528.884C691.067 529.046 690.653 529.118 690.221 529.118C689.483 529.118 688.961 528.92 688.961 527.714V522.116H691.553V520.622H688.961V518.138H687.215V520.622H685.595V522.116H687.215V527.714ZM696.245 521.936C697.739 521.936 698.675 522.908 698.675 524.42V524.744H693.743V524.492C693.743 522.98 694.787 521.936 696.245 521.936ZM699.395 528.218C698.549 528.758 697.685 529.1 696.407 529.1C694.841 529.1 693.743 528.092 693.743 526.238V526.166H700.367V524.852C700.367 522.044 698.765 520.442 696.245 520.442C693.815 520.442 692.015 521.972 692.015 524.96V526.076C692.015 529.262 693.905 530.612 696.335 530.612C698.117 530.612 699.269 530.126 700.133 529.532L699.395 528.218ZM709.559 523.952C709.559 521.576 708.011 520.442 706.103 520.442C704.753 520.442 703.745 520.946 703.151 521.864H703.133V520.622H701.441V530.468H703.187V524.366C703.187 522.818 704.483 521.99 705.671 521.99C707.129 521.99 707.813 522.692 707.813 524.348V530.468H709.559V523.952ZM711.749 527.714C711.749 529.694 712.613 530.612 714.485 530.612C715.187 530.612 715.925 530.45 716.321 530.288L716.051 528.884C715.601 529.046 715.187 529.118 714.755 529.118C714.017 529.118 713.495 528.92 713.495 527.714V522.116H716.087V520.622H713.495V518.138H711.749V520.622H710.129V522.116H711.749V527.714ZM717.107 520.622V530.468H718.853V520.622H717.107ZM717.053 517.094V519.002H718.907V517.094H717.053ZM724.519 520.442C721.819 520.442 720.127 522.062 720.127 524.924V526.13C720.127 528.974 721.819 530.612 724.519 530.612C727.219 530.612 728.911 528.974 728.911 526.13V524.924C728.911 522.08 727.219 520.442 724.519 520.442ZM724.519 529.082C722.953 529.082 721.891 528.074 721.891 525.986V525.068C721.891 522.98 722.953 521.972 724.519 521.972C726.085 521.972 727.147 522.98 727.147 525.068V525.986C727.147 528.074 726.085 529.082 724.519 529.082ZM738.251 523.952C738.251 521.576 736.703 520.442 734.795 520.442C733.445 520.442 732.437 520.946 731.843 521.864H731.825V520.622H730.133V530.468H731.879V524.366C731.879 522.818 733.175 521.99 734.363 521.99C735.821 521.99 736.505 522.692 736.505 524.348V530.468H738.251V523.952Z" fill="#222222"/>
<path d="M749.477 525L784.499 525M784.499 525L780.439 529M784.499 525L780.439 521" stroke="#444444" stroke-width="2" stroke-linecap="square"/>
<defs>
<linearGradient id="paint0_linear_182_2861" x1="184.016" y1="-10.64" x2="181.801" y2="-10.6337" gradientUnits="userSpaceOnUse">
<stop stop-color="#3DABC1"/>
<stop offset="1" stop-color="#00A88E"/>
</linearGradient>
<linearGradient id="paint1_linear_182_2861" x1="300.089" y1="-10.64" x2="297.875" y2="-10.6337" gradientUnits="userSpaceOnUse">
<stop stop-color="#3DABC1"/>
<stop offset="1" stop-color="#00A88E"/>
</linearGradient>
<linearGradient id="paint2_linear_182_2861" x1="416.164" y1="-10.64" x2="413.949" y2="-10.6337" gradientUnits="userSpaceOnUse">
<stop stop-color="#3DABC1"/>
<stop offset="1" stop-color="#00A88E"/>
</linearGradient>
<linearGradient id="paint3_linear_182_2861" x1="532.237" y1="-10.64" x2="530.023" y2="-10.6337" gradientUnits="userSpaceOnUse">
<stop stop-color="#3DABC1"/>
<stop offset="1" stop-color="#00A88E"/>
</linearGradient>
<linearGradient id="paint4_linear_182_2861" x1="648.312" y1="-10.64" x2="646.097" y2="-10.6337" gradientUnits="userSpaceOnUse">
<stop stop-color="#3DABC1"/>
<stop offset="1" stop-color="#00A88E"/>
</linearGradient>
<linearGradient id="paint5_linear_182_2861" x1="694.945" y1="-11.721" x2="379.207" y2="611.764" gradientUnits="userSpaceOnUse">
<stop stop-color="#3DABC1"/>
<stop offset="1" stop-color="#00A88E"/>
</linearGradient>
<linearGradient id="paint6_linear_182_2861" x1="766.387" y1="41.426" x2="764.172" y2="41.4299" gradientUnits="userSpaceOnUse">
<stop stop-color="#3DABC1"/>
<stop offset="1" stop-color="#00A88E"/>
</linearGradient>
<linearGradient id="paint7_linear_182_2861" x1="766.387" y1="114.426" x2="764.172" y2="114.43" gradientUnits="userSpaceOnUse">
<stop stop-color="#3DABC1"/>
<stop offset="1" stop-color="#00A88E"/>
</linearGradient>
<linearGradient id="paint8_linear_182_2861" x1="766.387" y1="187.426" x2="764.172" y2="187.43" gradientUnits="userSpaceOnUse">
<stop stop-color="#3DABC1"/>
<stop offset="1" stop-color="#00A88E"/>
</linearGradient>
<linearGradient id="paint9_linear_182_2861" x1="766.387" y1="260.426" x2="764.172" y2="260.43" gradientUnits="userSpaceOnUse">
<stop stop-color="#3DABC1"/>
<stop offset="1" stop-color="#00A88E"/>
</linearGradient>
<linearGradient id="paint10_linear_182_2861" x1="766.387" y1="333.426" x2="764.172" y2="333.43" gradientUnits="userSpaceOnUse">
<stop stop-color="#3DABC1"/>
<stop offset="1" stop-color="#00A88E"/>
</linearGradient>
<linearGradient id="paint11_linear_182_2861" x1="131.084" y1="400.5" x2="584.219" y2="127.745" gradientUnits="userSpaceOnUse">
<stop stop-color="#33B9A5"/>
<stop offset="0.418447" stop-color="#40A7C9"/>
<stop offset="0.776042" stop-color="#5082E6"/>
<stop offset="1" stop-color="#FF7400"/>
</linearGradient>
</defs>
</svg>
