<svg width="787" height="534" viewBox="0 0 787 534" fill="none" xmlns="http://www.w3.org/2000/svg">
<path d="M49.0312 2.5V486H786.001" stroke="#33B9A5" stroke-width="3"/>
<g opacity="0.9">
<g opacity="0.2">
<rect opacity="0.7" x="184.117" y="25" width="1" height="440" fill="url(#paint0_linear_1_1257)"/>
<rect opacity="0.7" x="300.191" y="25" width="1" height="440" fill="url(#paint1_linear_1_1257)"/>
<rect opacity="0.7" x="416.266" y="25" width="1" height="440" fill="url(#paint2_linear_1_1257)"/>
<rect opacity="0.7" x="532.34" y="25" width="1" height="440" fill="url(#paint3_linear_1_1257)"/>
<rect opacity="0.7" x="648.412" y="25" width="1" height="440" fill="url(#paint4_linear_1_1257)"/>
<path opacity="0.8" d="M68.543 464.5V24.5H765.988V464.5H68.543Z" stroke="url(#paint5_linear_1_1257)"/>
<rect opacity="0.7" x="766.488" y="98" width="1.00003" height="698.445" transform="rotate(90 766.488 98)" fill="url(#paint6_linear_1_1257)"/>
<rect opacity="0.7" x="766.488" y="171" width="1.00003" height="698.445" transform="rotate(90 766.488 171)" fill="url(#paint7_linear_1_1257)"/>
<rect opacity="0.7" x="766.488" y="244" width="1.00003" height="698.445" transform="rotate(90 766.488 244)" fill="url(#paint8_linear_1_1257)"/>
<rect opacity="0.7" x="766.488" y="317" width="1.00003" height="698.445" transform="rotate(90 766.488 317)" fill="url(#paint9_linear_1_1257)"/>
<rect opacity="0.7" x="766.488" y="390" width="1.00003" height="698.445" transform="rotate(90 766.488 390)" fill="url(#paint10_linear_1_1257)"/>
</g>
</g>
<path fill-rule="evenodd" clip-rule="evenodd" d="M722.46 50C725.223 50 727.463 47.7614 727.463 45C727.463 42.2386 725.223 40 722.46 40C719.697 40 717.457 42.2386 717.457 45C717.457 47.7614 719.697 50 722.46 50ZM416.264 116C416.264 118.761 414.024 121 411.261 121C408.498 121 406.258 118.761 406.258 116C406.258 113.239 408.498 111 411.261 111C414.024 111 416.264 113.239 416.264 116ZM408.26 176C408.26 178.761 406.02 181 403.257 181C400.494 181 398.254 178.761 398.254 176C398.254 173.239 400.494 171 403.257 171C406.02 171 408.26 173.239 408.26 176ZM431.275 232.001C430.362 233.215 428.909 234 427.273 234C424.51 234 422.27 231.761 422.27 229C422.27 226.239 424.51 224 427.273 224C428.909 224 430.362 224.785 431.275 225.999C432.188 224.785 433.64 224 435.277 224C438.04 224 440.28 226.239 440.28 229C440.28 231.761 438.04 234 435.277 234C433.64 234 432.188 233.215 431.275 232.001ZM226.144 239C228.907 239 231.147 236.761 231.147 234C231.147 231.239 228.907 229 226.144 229C223.381 229 221.141 231.239 221.141 234C221.141 236.761 223.381 239 226.144 239ZM347.222 298C349.985 298 352.225 295.761 352.225 293C352.225 290.239 349.985 288 347.222 288C344.459 288 342.219 290.239 342.219 293C342.219 295.761 344.459 298 347.222 298ZM309.197 308C311.96 308 314.2 305.761 314.2 303C314.2 300.239 311.96 298 309.197 298C306.434 298 304.194 300.239 304.194 303C304.194 305.761 306.434 308 309.197 308ZM170.108 340C170.108 342.761 167.868 345 165.105 345C162.342 345 160.102 342.761 160.102 340C160.102 337.239 162.342 335 165.105 335C167.868 335 170.108 337.239 170.108 340ZM177.113 367C179.876 367 182.116 364.761 182.116 362C182.116 359.239 179.876 357 177.113 357C174.349 357 172.109 359.239 172.109 362C172.109 364.761 174.349 367 177.113 367ZM137.087 405C139.85 405 142.09 402.761 142.09 400C142.09 397.239 139.85 395 137.087 395C134.324 395 132.084 397.239 132.084 400C132.084 402.761 134.324 405 137.087 405ZM255.161 380C257.925 380 260.165 377.761 260.165 375C260.165 372.239 257.925 370 255.161 370C252.398 370 250.158 372.239 250.158 375C250.158 377.761 252.398 380 255.161 380ZM298.19 356C298.19 358.761 295.95 361 293.187 361C290.423 361 288.183 358.761 288.183 356C288.183 353.239 290.423 351 293.187 351C295.95 351 298.19 353.239 298.19 356ZM312.199 410C314.962 410 317.202 407.761 317.202 405C317.202 402.239 314.962 400 312.199 400C309.436 400 307.195 402.239 307.195 405C307.195 407.761 309.436 410 312.199 410ZM384.245 415C384.245 417.761 382.005 420 379.241 420C376.478 420 374.238 417.761 374.238 415C374.238 412.239 376.478 410 379.241 410C382.005 410 384.245 412.239 384.245 415ZM372.237 307C372.237 309.761 369.997 312 367.234 312C364.471 312 362.231 309.761 362.231 307C362.231 304.239 364.471 302 367.234 302C369.997 302 372.237 304.239 372.237 307ZM380.243 293C380.243 295.761 378.003 298 375.24 298C372.476 298 370.236 295.761 370.236 293C370.236 290.239 372.476 288 375.24 288C378.003 288 380.243 290.239 380.243 293ZM394.251 298C394.251 299.636 393.465 301.088 392.25 302C393.465 302.912 394.251 304.364 394.251 306C394.251 308.761 392.01 311 389.247 311C386.484 311 384.244 308.761 384.244 306C384.244 304.364 385.03 302.912 386.245 302C385.03 301.088 384.244 299.636 384.244 298C384.244 295.239 386.484 293 389.247 293C392.01 293 394.251 295.239 394.251 298ZM432.276 270C432.276 272.761 430.036 275 427.273 275C424.51 275 422.27 272.761 422.27 270C422.27 267.239 424.51 265 427.273 265C430.036 265 432.276 267.239 432.276 270ZM470.3 258C473.063 258 475.303 255.761 475.303 253C475.303 250.239 473.063 248 470.3 248C467.537 248 465.297 250.239 465.297 253C465.297 255.761 467.537 258 470.3 258ZM403.257 197C406.02 197 408.26 194.761 408.26 192C408.26 189.239 406.02 187 403.257 187C400.494 187 398.254 189.239 398.254 192C398.254 194.761 400.494 197 403.257 197ZM394.251 229C394.251 231.761 392.01 234 389.247 234C386.484 234 384.244 231.761 384.244 229C384.244 226.239 386.484 224 389.247 224C392.01 224 394.251 226.239 394.251 229ZM357.228 234C359.991 234 362.231 231.761 362.231 229C362.231 226.239 359.991 224 357.228 224C354.465 224 352.225 226.239 352.225 229C352.225 231.761 354.465 234 357.228 234ZM519.331 150C522.094 150 524.335 147.761 524.335 145C524.335 142.239 522.094 140 519.331 140C516.568 140 514.328 142.239 514.328 145C514.328 147.761 516.568 150 519.331 150ZM572.364 165C572.364 167.761 570.124 170 567.361 170C564.597 170 562.357 167.761 562.357 165C562.357 162.239 564.597 160 567.361 160C570.124 160 572.364 162.239 572.364 165Z" fill="url(#paint11_linear_1_1257)"/>
<path d="M112.577 291.49V304.468H120.569V302.938H114.359V291.49H112.577ZM125.139 294.442C122.439 294.442 120.747 296.062 120.747 298.924V300.13C120.747 302.974 122.439 304.612 125.139 304.612C127.839 304.612 129.531 302.974 129.531 300.13V298.924C129.531 296.08 127.839 294.442 125.139 294.442ZM125.139 303.082C123.573 303.082 122.511 302.074 122.511 299.986V299.068C122.511 296.98 123.573 295.972 125.139 295.972C126.705 295.972 127.767 296.98 127.767 299.068V299.986C127.767 302.074 126.705 303.082 125.139 303.082ZM136.208 296.8L138.206 304.468H140.258L142.778 294.622H141.05L139.214 302.65H139.178L137.108 294.622H135.344L133.256 302.65H133.22L131.42 294.622H129.584L132.14 304.468H134.192L136.172 296.8H136.208Z" fill="#33B9A5"/>
<path d="M314.524 158.308H316.036L319.132 151.108C319.366 150.568 319.492 150.244 319.744 149.308V160.468H321.454V147.49H318.844L315.334 155.986L311.734 147.49H309.106V160.468H310.798V149.308C311.086 150.19 311.248 150.568 311.464 151.108L314.524 158.308ZM326.973 151.936C328.467 151.936 329.403 152.908 329.403 154.42V154.744H324.471V154.492C324.471 152.98 325.515 151.936 326.973 151.936ZM330.123 158.218C329.277 158.758 328.413 159.1 327.135 159.1C325.569 159.1 324.471 158.092 324.471 156.238V156.166H331.095V154.852C331.095 152.044 329.493 150.442 326.973 150.442C324.543 150.442 322.743 151.972 322.743 154.96V156.076C322.743 159.262 324.633 160.612 327.063 160.612C328.845 160.612 329.997 160.126 330.861 159.532L330.123 158.218ZM338.415 159.244V160.468H340.089V146.86H338.343V151.648C337.947 151.072 337.083 150.442 335.589 150.442C333.285 150.442 331.683 152.008 331.683 154.672V156.418C331.683 159.082 333.033 160.612 335.517 160.612C336.741 160.612 337.839 160.234 338.379 159.244H338.415ZM338.361 156.598C338.361 158.128 337.191 159.082 335.769 159.082C334.311 159.082 333.411 158.002 333.411 156.13V154.924C333.411 153.07 334.293 151.972 335.769 151.972C337.281 151.972 338.361 153.034 338.361 154.06V156.598ZM341.866 150.622V160.468H343.612V150.622H341.866ZM341.812 147.094V149.002H343.666V147.094H341.812ZM345.246 157.138C345.246 159.514 346.758 160.648 348.666 160.648C350.016 160.648 350.988 160.144 351.582 159.226H351.6V160.468H353.292V150.622H351.546V156.724C351.546 158.272 350.286 159.1 349.098 159.1C347.64 159.1 346.992 158.398 346.992 156.742V150.622H345.246V157.138ZM368.533 154.006C368.533 151.738 367.291 150.442 365.275 150.442C363.727 150.442 362.845 151.126 362.215 152.08C361.711 151.036 360.703 150.442 359.389 150.442C358.021 150.442 357.139 151.09 356.761 151.954H356.743V150.622H355.015V160.468H356.761V154.24C356.761 152.692 357.967 152.026 359.047 152.026C360.289 152.026 360.901 152.854 360.901 154.564V160.468H362.647V154.33C362.647 152.728 363.835 152.026 364.933 152.026C366.175 152.026 366.787 152.854 366.787 154.564V160.468H368.533V154.006Z" fill="#4A89DB"/>
<path d="M601.943 37.49V42.908H595.913V37.49H594.131V50.468H595.913V44.492H601.943V50.468H603.725V37.49H601.943ZM605.584 40.622V50.468H607.33V40.622H605.584ZM605.53 37.094V39.002H607.384V37.094H605.53ZM617.028 40.622H615.282V41.648C614.886 41.072 614.022 40.442 612.528 40.442C610.224 40.442 608.622 42.008 608.622 44.672V46.238C608.622 48.902 609.972 50.432 612.456 50.432C613.644 50.432 614.724 50.072 615.282 49.136V50.342C615.282 52.088 614.382 52.898 612.69 52.898C611.718 52.898 610.8 52.556 610.152 52.07L609.36 53.438C610.17 54.068 611.304 54.482 612.636 54.482C615.534 54.482 617.028 53.096 617.028 50.342V40.622ZM615.3 46.418C615.3 47.948 614.13 48.902 612.708 48.902C611.25 48.902 610.35 47.822 610.35 45.95V44.924C610.35 43.07 611.232 41.972 612.708 41.972C614.22 41.972 615.3 43.034 615.3 44.06V46.418ZM626.869 43.952C626.869 41.576 625.321 40.442 623.413 40.442C622.081 40.442 621.091 40.928 620.497 41.81V36.86H618.751V50.468H620.497V44.366C620.497 42.818 621.793 41.99 622.981 41.99C624.439 41.99 625.123 42.692 625.123 44.348V50.468H626.869V43.952Z" fill="#FF7400"/>
<path d="M17.52 154.482L0.923998 154.482L0.923998 156.264L17.52 156.264L17.52 154.482ZM13.164 159.306L2.274 159.306L2.274 161.07L6.198 161.07L6.198 165.264L2.274 165.264L2.274 167.028L13.164 167.028L13.164 159.306ZM7.71 165.264L7.71 161.07L11.634 161.07L11.634 165.264L7.71 165.264ZM3.948 146.307L5.046 146.307C6.054 146.307 6.738 146.631 7.674 148.107C8.394 149.241 8.952 150.285 9.816 151.887L11.22 151.023C10.5 149.673 9.888 148.539 9.114 147.315C8.358 146.127 7.8 145.515 7.476 145.317C7.782 145.137 8.322 144.525 9.078 143.337C9.834 142.131 10.356 141.141 11.166 139.611L9.762 138.783C8.952 140.295 8.484 141.159 7.638 142.545C6.702 144.093 6.036 144.345 5.046 144.345L3.948 144.345L3.948 139.593L2.4 139.593L2.4 151.041L3.948 151.041L3.948 146.307ZM13.794 152.931L15.306 152.931L15.306 137.703L13.794 137.703L13.794 152.931ZM17.52 123.786L0.923997 123.786L0.923997 125.568L17.52 125.568L17.52 123.786ZM2.292 136.296L13.074 136.296L13.074 133.398C13.074 130.644 12.984 129.132 12.606 127.026L11.058 127.224C11.382 129.06 11.508 130.914 11.508 132.894L11.508 134.496L2.292 134.496L2.292 136.296ZM13.794 122.325L15.306 122.325L15.306 107.097L13.794 107.097L13.794 122.325ZM7.206 114.693C7.62 114.495 8.25 113.757 8.988 112.587C9.672 111.507 10.428 110.193 11.184 108.861L9.798 107.997C9.024 109.419 8.43 110.463 7.692 111.597C6.414 113.541 5.676 113.811 3.912 113.811L2.094 113.811L2.094 115.611L3.912 115.611C5.676 115.611 6.45 115.989 7.566 117.627C8.376 118.833 9.024 119.967 9.816 121.407L11.22 120.525C10.392 119.031 9.69 117.879 9.024 116.835C8.25 115.629 7.62 114.891 7.206 114.711L7.206 114.693ZM14.82 99.8586C16.566 99.8586 17.988 97.9506 17.988 94.7646C17.988 91.5786 16.566 89.6706 14.82 89.6706L14.1 89.6706C12.354 89.6706 10.932 91.5786 10.932 94.7646C10.932 97.9506 12.354 99.8586 14.1 99.8586L14.82 99.8586ZM5.19 94.8366C3.588 94.8366 1.554 96.1326 1.554 98.9586C1.554 101.785 3.588 103.081 5.19 103.081L6.108 103.081C7.71 103.081 9.744 101.785 9.744 98.9586C9.744 96.1326 7.71 94.8366 6.108 94.8366L5.19 94.8366ZM10.716 89.7426L0.923995 89.7426L0.923995 91.4886L2.994 91.4886L2.994 94.0986L4.524 94.0986L4.524 91.4886L6.738 91.4886L6.738 94.0986L8.268 94.0986L8.268 91.4886L10.716 91.4886L10.716 89.7426ZM14.712 91.4166C15.594 91.4166 16.53 92.7126 16.53 94.7646C16.53 96.8166 15.594 98.1126 14.712 98.1126L14.208 98.1126C13.326 98.1126 12.39 96.8166 12.39 94.7646C12.39 92.7126 13.326 91.4166 14.208 91.4166L14.712 91.4166ZM6.018 96.5466C7.08 96.5466 8.196 97.3026 8.196 98.9586C8.196 100.615 7.08 101.371 6.018 101.371L5.28 101.371C4.218 101.371 3.102 100.615 3.102 98.9586C3.102 97.3026 4.218 96.5466 5.28 96.5466L6.018 96.5466ZM11.724 80.2718C11.724 83.4398 12.966 85.2758 14.568 85.2758L15.144 85.2758C16.746 85.2758 17.988 83.4398 17.988 80.2718C17.988 77.1038 16.746 75.2678 15.144 75.2678L14.568 75.2678C12.966 75.2678 11.724 77.1038 11.724 80.2718ZM10.986 83.5478C10.986 80.9738 9.546 79.6778 8.178 79.6778L7.638 79.6778C6.27 79.6778 4.83 80.9738 4.83 83.5478C4.83 86.1218 6.252 87.4178 7.638 87.4178L8.178 87.4178C9.546 87.4178 10.986 86.1218 10.986 83.5478ZM3.786 73.0358L3.786 75.3758L0.923995 75.3758L0.923995 77.1218L11.4 77.1218L11.4 75.3758L8.664 75.3758L8.664 73.0358L7.134 73.0358L7.134 75.3758L5.316 75.3758L5.31599 73.0358L3.786 73.0358ZM16.548 80.2718C16.548 82.3058 15.828 83.5298 15.036 83.5298L14.676 83.5298C13.884 83.5298 13.164 82.3058 13.164 80.2718C13.164 78.2378 13.884 77.0138 14.676 77.0138L15.036 77.0138C15.828 77.0138 16.548 78.2378 16.548 80.2718ZM2.706 78.7958L2.706 82.6658L0.743995 82.6658L0.743995 84.4298L2.706 84.4298L2.706 88.3178L4.2 88.3178L4.2 78.7958L2.706 78.7958ZM9.564 83.5478C9.564 85.0058 8.79 85.7258 8.088 85.7258L7.728 85.7258C7.026 85.7258 6.252 85.0238 6.252 83.5478C6.252 82.0718 7.026 81.3698 7.728 81.3698L8.088 81.3698C8.79 81.3698 9.564 82.0898 9.564 83.5478ZM8.60999 59.713L8.61 69.163L3.82199 69.163L3.82199 59.911L2.30999 59.911L2.30999 70.945L10.122 70.945L10.122 66.283L13.794 66.283L13.794 72.997L15.306 72.997L15.306 57.769L13.794 57.769L13.794 64.483L10.122 64.483L10.122 59.713L8.60999 59.713Z" fill="#222222"/>
<path d="M10.0065 37V2M10.0065 2L14.009 6.05797M10.0065 2L6.00391 6.05797" stroke="#444444" stroke-width="2" stroke-linecap="square"/>
<path d="M649.885 521.918H647.329V515.924H645.547V532.52H647.329V523.466H649.885V521.918ZM639.283 524.186C639.427 524.546 639.859 525.05 640.363 525.59C641.047 526.328 641.857 527.138 643.099 528.29L644.251 527.066C643.171 526.112 642.379 525.356 641.605 524.51C640.507 523.286 640.165 522.548 640.165 521.126V517.13H638.365V521.126C638.365 522.404 638.077 523.214 636.979 524.456C636.169 525.356 635.233 526.274 634.135 527.246L635.305 528.452C636.529 527.336 637.483 526.382 638.221 525.572C638.797 524.942 639.103 524.582 639.265 524.186H639.283ZM660.94 527.588C659.464 527.732 658.096 527.84 656.386 527.894V526.274C658.312 525.968 659.428 524.78 659.428 523.52V522.836C659.428 521.378 657.934 520.01 655.396 520.01C652.858 520.01 651.364 521.378 651.364 522.836V523.52C651.364 524.834 652.552 526.058 654.622 526.31V527.948C653.344 527.984 651.868 527.984 650.068 527.984V529.496C655.756 529.496 658.078 529.388 661.084 529.1L660.94 527.588ZM663.676 532.52V515.924H661.912V532.52H663.676ZM660.112 517.796H656.26V515.798H654.496V517.796H650.518V519.326H660.112V517.796ZM655.396 524.888C653.902 524.888 653.092 524.132 653.092 523.376V522.98C653.092 522.224 653.884 521.468 655.396 521.468C656.89 521.468 657.7 522.224 657.7 522.98V523.376C657.7 524.132 656.908 524.888 655.396 524.888ZM670.32 521.972C670.446 522.242 670.806 522.584 671.346 523.034C672.21 523.754 672.984 524.348 673.92 524.996L674.928 523.7C673.866 522.998 672.93 522.314 672.084 521.54C671.292 520.82 671.148 520.208 671.148 519.056V518.426H674.424V516.896H665.856V518.426H669.348V519.128C669.348 520.442 669.042 521.126 668.16 521.99C667.512 522.62 666.45 523.43 665.298 524.24L666.342 525.518C667.35 524.816 668.322 524.042 669.096 523.376C669.672 522.89 670.194 522.278 670.302 521.972H670.32ZM667.89 527.984H677.034V532.682H678.816V526.454H667.89V527.984ZM678.816 525.59V515.924H677.052V519.902H673.992V521.432H677.052V525.59H678.816ZM696.891 528.236V522.53H699.231V520.982H696.891V515.924H695.127V528.236H696.891ZM688.089 527.372H686.307V532.358H697.341V530.828H688.089V527.372ZM694.101 523.88C692.211 524.06 690.735 524.15 688.755 524.204V520.802H686.991V524.24H683.679V525.77C689.223 525.77 691.383 525.644 694.245 525.356L694.101 523.88ZM692.535 522.692C692.787 521.648 692.949 520.028 692.949 518.75V516.77H684.795V518.3H691.185V519.002C691.185 520.028 691.059 521.234 690.789 522.476L692.535 522.692ZM712.68 525.248V515.924H710.916V525.248H712.68ZM702.33 526.058V532.502H712.68V526.058H702.33ZM704.094 527.57H710.916V530.99H704.094V527.57ZM704.184 521.288C704.292 521.558 704.67 521.954 705.21 522.404C706.074 523.124 706.938 523.844 707.874 524.546L708.918 523.304C707.856 522.53 706.794 521.684 705.948 520.91C705.084 520.118 705.012 519.524 705.012 518.408V516.608H703.212V518.48C703.212 519.74 702.96 520.424 702.042 521.342C701.412 521.972 700.26 522.944 699.108 523.826L700.17 525.086C701.124 524.33 702.222 523.412 702.96 522.728C703.518 522.224 704.076 521.594 704.166 521.288H704.184ZM727.569 523.61H718.119V518.822H727.371V517.31H716.337V525.122H720.999V528.794H714.285V530.306H729.513V528.794H722.799V525.122H727.569V523.61Z" fill="#222222"/>
<path d="M750.479 525L785.501 525M785.501 525L781.44 529M785.501 525L781.44 521" stroke="#444444" stroke-width="2" stroke-linecap="square"/>
<defs>
<linearGradient id="paint0_linear_1_1257" x1="185.016" y1="-10.64" x2="182.801" y2="-10.6337" gradientUnits="userSpaceOnUse">
<stop stop-color="#3DABC1"/>
<stop offset="1" stop-color="#00A88E"/>
</linearGradient>
<linearGradient id="paint1_linear_1_1257" x1="301.09" y1="-10.64" x2="298.876" y2="-10.6337" gradientUnits="userSpaceOnUse">
<stop stop-color="#3DABC1"/>
<stop offset="1" stop-color="#00A88E"/>
</linearGradient>
<linearGradient id="paint2_linear_1_1257" x1="417.165" y1="-10.64" x2="414.95" y2="-10.6337" gradientUnits="userSpaceOnUse">
<stop stop-color="#3DABC1"/>
<stop offset="1" stop-color="#00A88E"/>
</linearGradient>
<linearGradient id="paint3_linear_1_1257" x1="533.239" y1="-10.64" x2="531.024" y2="-10.6337" gradientUnits="userSpaceOnUse">
<stop stop-color="#3DABC1"/>
<stop offset="1" stop-color="#00A88E"/>
</linearGradient>
<linearGradient id="paint4_linear_1_1257" x1="649.311" y1="-10.64" x2="647.096" y2="-10.6337" gradientUnits="userSpaceOnUse">
<stop stop-color="#3DABC1"/>
<stop offset="1" stop-color="#00A88E"/>
</linearGradient>
<linearGradient id="paint5_linear_1_1257" x1="695.945" y1="-11.721" x2="380.207" y2="611.764" gradientUnits="userSpaceOnUse">
<stop stop-color="#3DABC1"/>
<stop offset="1" stop-color="#00A88E"/>
</linearGradient>
<linearGradient id="paint6_linear_1_1257" x1="767.387" y1="41.426" x2="765.172" y2="41.4299" gradientUnits="userSpaceOnUse">
<stop stop-color="#3DABC1"/>
<stop offset="1" stop-color="#00A88E"/>
</linearGradient>
<linearGradient id="paint7_linear_1_1257" x1="767.387" y1="114.426" x2="765.172" y2="114.43" gradientUnits="userSpaceOnUse">
<stop stop-color="#3DABC1"/>
<stop offset="1" stop-color="#00A88E"/>
</linearGradient>
<linearGradient id="paint8_linear_1_1257" x1="767.387" y1="187.426" x2="765.172" y2="187.43" gradientUnits="userSpaceOnUse">
<stop stop-color="#3DABC1"/>
<stop offset="1" stop-color="#00A88E"/>
</linearGradient>
<linearGradient id="paint9_linear_1_1257" x1="767.387" y1="260.426" x2="765.172" y2="260.43" gradientUnits="userSpaceOnUse">
<stop stop-color="#3DABC1"/>
<stop offset="1" stop-color="#00A88E"/>
</linearGradient>
<linearGradient id="paint10_linear_1_1257" x1="767.387" y1="333.426" x2="765.172" y2="333.43" gradientUnits="userSpaceOnUse">
<stop stop-color="#3DABC1"/>
<stop offset="1" stop-color="#00A88E"/>
</linearGradient>
<linearGradient id="paint11_linear_1_1257" x1="132.084" y1="400.5" x2="585.219" y2="127.745" gradientUnits="userSpaceOnUse">
<stop stop-color="#33B9A5"/>
<stop offset="0.418447" stop-color="#40A7C9"/>
<stop offset="0.776042" stop-color="#5082E6"/>
<stop offset="1" stop-color="#FF7400"/>
</linearGradient>
</defs>
</svg>
