<svg width="920" height="349" viewBox="0 0 920 349" fill="none" xmlns="http://www.w3.org/2000/svg">
<path fill-rule="evenodd" clip-rule="evenodd" d="M0.0119047 174.002C0.00397549 174.679 0 175.358 0 176.038C0 271.01 77.6411 348.001 173.416 348.001C269.191 348.001 346.832 271.01 346.832 176.038C346.832 175.358 346.828 174.679 346.82 174.002H316.611C316.621 174.679 316.626 175.358 316.626 176.038C316.626 254.089 252.749 317.795 173.416 317.795C94.0836 317.795 30.2065 254.089 30.2065 176.038C30.2065 175.358 30.2113 174.679 30.221 174.002H0.0119047ZM0.0119275 174.002C0.00398313 173.323 0 172.644 0 171.964C0 76.9907 77.6411 0 173.416 0C269.191 0 346.832 76.9907 346.832 171.964C346.832 172.644 346.828 173.323 346.82 174.002H316.611C316.621 173.323 316.626 172.644 316.626 171.964C316.626 93.9123 252.749 30.2065 173.416 30.2065C94.0836 30.2065 30.2065 93.9123 30.2065 171.964C30.2065 172.644 30.2113 173.323 30.221 174.002H0.0119275ZM286.52 174.002C286.512 174.679 286.508 175.358 286.508 176.038C286.508 271.01 364.149 348.001 459.924 348.001C555.699 348.001 633.34 271.01 633.34 176.038C633.34 175.358 633.336 174.679 633.328 174.002H603.119C603.129 174.679 603.134 175.358 603.134 176.038C603.134 254.089 539.257 317.795 459.924 317.795C380.591 317.795 316.714 254.089 316.714 176.038C316.714 175.358 316.719 174.679 316.729 174.002H286.52ZM287.012 174.002C287.004 173.323 287 172.644 287 171.964C287 76.9907 364.641 0 460.416 0C556.191 0 633.832 76.9907 633.832 171.964C633.832 172.644 633.828 173.323 633.82 174.002H603.611C603.621 173.323 603.626 172.644 603.626 171.964C603.626 93.9123 539.749 30.2065 460.416 30.2065C381.084 30.2065 317.206 93.9123 317.206 171.964C317.206 172.644 317.211 173.323 317.221 174.002H287.012ZM573.18 174.002C573.172 174.679 573.168 175.358 573.168 176.038C573.168 271.01 650.809 348.001 746.584 348.001C842.359 348.001 920 271.01 920 176.038C920 175.358 919.996 174.679 919.988 174.002H889.779C889.789 174.679 889.794 175.358 889.794 176.038C889.794 254.089 825.917 317.795 746.584 317.795C667.252 317.795 603.374 254.089 603.374 176.038C603.374 175.358 603.379 174.679 603.389 174.002H573.18ZM573.18 174.002C573.172 173.323 573.168 172.644 573.168 171.964C573.168 76.9907 650.809 0 746.584 0C842.359 0 920 76.9907 920 171.964C920 172.644 919.996 173.323 919.988 174.002H889.779C889.789 173.323 889.794 172.644 889.794 171.964C889.794 93.9123 825.917 30.2065 746.584 30.2065C667.252 30.2065 603.374 93.9123 603.374 171.964C603.374 172.644 603.379 173.323 603.389 174.002H573.18Z" fill="url(#paint0_angular_182_2164)"/>
<path fill-rule="evenodd" clip-rule="evenodd" d="M0.0111228 174.004C0.00371417 173.349 0 172.693 0 172.036C0 77.063 77.6411 0.0722656 173.416 0.0722656C269.191 0.0722656 346.832 77.063 346.832 172.036C346.832 172.693 346.829 173.349 346.821 174.004H316.612C316.621 173.349 316.626 172.693 316.626 172.036C316.626 93.9846 252.749 30.2787 173.416 30.2787C94.0836 30.2787 30.2065 93.9846 30.2065 172.036C30.2065 172.693 30.211 173.349 30.22 174.004H0.0111228Z" fill="url(#paint1_angular_182_2164)"/>
<path fill-rule="evenodd" clip-rule="evenodd" d="M0.0110566 174C0.00369205 174.653 0 175.307 0 175.962C0 270.935 77.6411 347.926 173.416 347.926C269.191 347.926 346.832 270.935 346.832 175.962C346.832 175.307 346.829 174.653 346.821 174H316.612C316.621 174.653 316.626 175.307 316.626 175.962C316.626 254.013 252.749 317.719 173.416 317.719C94.0836 317.719 30.2065 254.013 30.2065 175.962C30.2065 175.307 30.211 174.653 30.2199 174H0.0110566Z" fill="url(#paint2_angular_182_2164)"/>
<path fill-rule="evenodd" clip-rule="evenodd" d="M286.52 174.002C286.512 174.68 286.508 175.358 286.508 176.038C286.508 271.011 364.149 348.001 459.924 348.001C555.699 348.001 633.34 271.011 633.34 176.038C633.34 175.358 633.336 174.68 633.328 174.002H603.119C603.129 174.679 603.134 175.358 603.134 176.038C603.134 254.089 539.257 317.795 459.924 317.795C380.591 317.795 316.714 254.089 316.714 176.038C316.714 175.358 316.719 174.679 316.729 174.002H286.52Z" fill="url(#paint3_angular_182_2164)"/>
<path fill-rule="evenodd" clip-rule="evenodd" d="M573.18 174.004C573.172 174.682 573.168 175.36 573.168 176.04C573.168 271.013 650.809 348.003 746.584 348.003C842.359 348.003 920 271.013 920 176.04C920 175.36 919.996 174.682 919.988 174.004H889.779C889.789 174.681 889.794 175.36 889.794 176.04C889.794 254.091 825.917 317.797 746.584 317.797C667.252 317.797 603.374 254.091 603.374 176.04C603.374 175.36 603.379 174.681 603.389 174.004H573.18Z" fill="url(#paint4_angular_182_2164)"/>
<path fill-rule="evenodd" clip-rule="evenodd" d="M573.012 174.002C573.004 173.324 573 172.644 573 171.964C573 76.9912 650.641 0.000518799 746.416 0.000518799C842.191 0.000518799 919.832 76.9912 919.832 171.964C919.832 172.644 919.828 173.324 919.82 174.002H889.611C889.621 173.324 889.626 172.645 889.626 171.964C889.626 93.9129 825.749 30.207 746.416 30.207C667.084 30.207 603.206 93.9129 603.206 171.964C603.206 172.645 603.211 173.324 603.221 174.002H573.012Z" fill="url(#paint5_angular_182_2164)"/>
<path fill-rule="evenodd" clip-rule="evenodd" d="M286.52 174.004C286.512 174.682 286.508 175.36 286.508 176.04C286.508 271.013 364.149 348.003 459.924 348.003C555.699 348.003 633.34 271.013 633.34 176.04C633.34 175.36 633.336 174.682 633.328 174.004H603.119C603.129 174.681 603.134 175.36 603.134 176.04C603.134 254.091 539.257 317.797 459.924 317.797C380.591 317.797 316.714 254.091 316.714 176.04C316.714 175.36 316.719 174.681 316.729 174.004H286.52Z" fill="url(#paint6_angular_182_2164)"/>
<path fill-rule="evenodd" clip-rule="evenodd" d="M286.52 174.004C286.512 174.682 286.508 175.362 286.508 176.042C286.508 271.015 364.149 348.005 459.924 348.005C555.699 348.005 633.34 271.015 633.34 176.042C633.34 175.362 633.336 174.682 633.328 174.004H603.119C603.129 174.682 603.134 175.361 603.134 176.042C603.134 254.093 539.257 317.799 459.924 317.799C380.591 317.799 316.714 254.093 316.714 176.042C316.714 175.361 316.719 174.682 316.729 174.004H286.52Z" fill="url(#paint7_angular_182_2164)"/>
<path d="M159.681 183.6H154.501V185.3H157.701V189.36C156.941 189.74 155.921 189.94 154.841 189.94C152.261 189.94 150.601 188.48 150.601 185.14V183.48C150.601 180.14 152.121 178.68 154.621 178.68C155.981 178.68 157.121 179 158.381 180L159.401 178.4C158.061 177.34 156.481 176.88 154.621 176.88C150.961 176.88 148.621 179.02 148.621 183.22V185.4C148.621 189.64 150.961 191.74 154.781 191.74C156.581 191.74 158.421 191.32 159.681 190.44V183.6ZM167.739 180.6C167.299 180.46 166.819 180.38 166.319 180.38C164.719 180.38 163.739 181.1 163.099 182.32H163.079V180.58H161.199V191.52H163.139V185.14C163.139 183.42 164.379 182.22 165.819 182.22C166.339 182.22 166.779 182.32 167.159 182.48L167.739 180.6ZM172.479 182.04C174.139 182.04 175.179 183.12 175.179 184.8V185.16H169.699V184.88C169.699 183.2 170.859 182.04 172.479 182.04ZM175.979 189.02C175.039 189.62 174.079 190 172.659 190C170.919 190 169.699 188.88 169.699 186.82V186.74H177.059V185.28C177.059 182.16 175.279 180.38 172.479 180.38C169.779 180.38 167.779 182.08 167.779 185.4V186.64C167.779 190.18 169.879 191.68 172.579 191.68C174.559 191.68 175.839 191.14 176.799 190.48L175.979 189.02ZM182.393 182.04C184.053 182.04 185.093 183.12 185.093 184.8V185.16H179.613V184.88C179.613 183.2 180.773 182.04 182.393 182.04ZM185.893 189.02C184.953 189.62 183.993 190 182.573 190C180.833 190 179.613 188.88 179.613 186.82V186.74H186.973V185.28C186.973 182.16 185.193 180.38 182.393 180.38C179.693 180.38 177.693 182.08 177.693 185.4V186.64C177.693 190.18 179.793 191.68 182.493 191.68C184.473 191.68 185.753 191.14 186.713 190.48L185.893 189.02ZM197.186 184.28C197.186 181.64 195.466 180.38 193.346 180.38C191.846 180.38 190.726 180.94 190.066 181.96H190.046V180.58H188.166V191.52H190.106V184.74C190.106 183.02 191.546 182.1 192.866 182.1C194.486 182.1 195.246 182.88 195.246 184.72V191.52H197.186V184.28ZM132.91 204.34C132.91 201.82 131.53 200.38 129.29 200.38C127.57 200.38 126.59 201.14 125.89 202.2C125.33 201.04 124.21 200.38 122.75 200.38C121.23 200.38 120.25 201.1 119.83 202.06H119.81V200.58H117.89V211.52H119.83V204.6C119.83 202.88 121.17 202.14 122.37 202.14C123.75 202.14 124.43 203.06 124.43 204.96V211.52H126.37V204.7C126.37 202.92 127.69 202.14 128.91 202.14C130.29 202.14 130.97 203.06 130.97 204.96V211.52H132.91V204.34ZM137.718 211.68C138.678 211.68 139.318 211.5 139.898 211.18C140.318 210.94 140.718 210.6 140.918 210.2H140.938V211.52H142.798V203.86C142.798 201.66 141.078 200.38 138.638 200.38C136.878 200.38 135.578 201.02 134.518 201.76L135.478 203.2C136.498 202.54 137.338 202.1 138.618 202.1C140.218 202.1 140.878 202.8 140.878 204.26V204.9H138.098C135.298 204.9 134.118 206.2 134.118 208.06V208.6C134.118 210.52 135.518 211.68 137.718 211.68ZM140.878 207.62C140.878 208.44 140.658 208.92 140.138 209.32C139.558 209.78 138.878 210 137.918 210C136.878 210 136.018 209.54 136.018 208.48V208.2C136.018 207.16 136.618 206.54 138.138 206.54H140.878V207.62ZM153.65 204.28C153.65 201.64 151.93 200.38 149.81 200.38C148.31 200.38 147.19 200.94 146.53 201.96H146.51V200.58H144.63V211.52H146.57V204.74C146.57 203.02 148.01 202.1 149.33 202.1C150.95 202.1 151.71 202.88 151.71 204.72V211.52H153.65V204.28ZM158.443 211.68C159.403 211.68 160.043 211.5 160.623 211.18C161.043 210.94 161.443 210.6 161.643 210.2H161.663V211.52H163.523V203.86C163.523 201.66 161.803 200.38 159.363 200.38C157.603 200.38 156.303 201.02 155.243 201.76L156.203 203.2C157.223 202.54 158.063 202.1 159.343 202.1C160.943 202.1 161.603 202.8 161.603 204.26V204.9H158.823C156.023 204.9 154.843 206.2 154.843 208.06V208.6C154.843 210.52 156.243 211.68 158.443 211.68ZM161.603 207.62C161.603 208.44 161.383 208.92 160.863 209.32C160.283 209.78 159.603 210 158.643 210C157.603 210 156.743 209.54 156.743 208.48V208.2C156.743 207.16 157.343 206.54 158.863 206.54H161.603V207.62ZM174.155 200.58H172.215V201.72C171.775 201.08 170.815 200.38 169.155 200.38C166.595 200.38 164.815 202.12 164.815 205.08V206.82C164.815 209.78 166.315 211.48 169.075 211.48C170.395 211.48 171.595 211.08 172.215 210.04V211.38C172.215 213.32 171.215 214.22 169.335 214.22C168.255 214.22 167.235 213.84 166.515 213.3L165.635 214.82C166.535 215.52 167.795 215.98 169.275 215.98C172.495 215.98 174.155 214.44 174.155 211.38V200.58ZM172.235 207.02C172.235 208.72 170.935 209.78 169.355 209.78C167.735 209.78 166.735 208.58 166.735 206.5V205.36C166.735 203.3 167.715 202.08 169.355 202.08C171.035 202.08 172.235 203.26 172.235 204.4V207.02ZM180.209 202.04C181.869 202.04 182.909 203.12 182.909 204.8V205.16H177.429V204.88C177.429 203.2 178.589 202.04 180.209 202.04ZM183.709 209.02C182.769 209.62 181.809 210 180.389 210C178.649 210 177.429 208.88 177.429 206.82V206.74H184.789V205.28C184.789 202.16 183.009 200.38 180.209 200.38C177.509 200.38 175.509 202.08 175.509 205.4V206.64C175.509 210.18 177.609 211.68 180.309 211.68C182.289 211.68 183.569 211.14 184.529 210.48L183.709 209.02ZM201.003 204.34C201.003 201.82 199.623 200.38 197.383 200.38C195.663 200.38 194.683 201.14 193.983 202.2C193.423 201.04 192.303 200.38 190.843 200.38C189.323 200.38 188.343 201.1 187.923 202.06H187.903V200.58H185.983V211.52H187.923V204.6C187.923 202.88 189.263 202.14 190.463 202.14C191.843 202.14 192.523 203.06 192.523 204.96V211.52H194.463V204.7C194.463 202.92 195.783 202.14 197.003 202.14C198.383 202.14 199.063 203.06 199.063 204.96V211.52H201.003V204.34ZM206.911 202.04C208.571 202.04 209.611 203.12 209.611 204.8V205.16H204.131V204.88C204.131 203.2 205.291 202.04 206.911 202.04ZM210.411 209.02C209.471 209.62 208.511 210 207.091 210C205.351 210 204.131 208.88 204.131 206.82V206.74H211.491V205.28C211.491 202.16 209.711 200.38 206.911 200.38C204.211 200.38 202.211 202.08 202.211 205.4V206.64C202.211 210.18 204.311 211.68 207.011 211.68C208.991 211.68 210.271 211.14 211.231 210.48L210.411 209.02ZM221.704 204.28C221.704 201.64 219.984 200.38 217.864 200.38C216.364 200.38 215.244 200.94 214.584 201.96H214.564V200.58H212.684V211.52H214.624V204.74C214.624 203.02 216.064 202.1 217.384 202.1C219.004 202.1 219.764 202.88 219.764 204.72V211.52H221.704V204.28ZM224.137 208.46C224.137 210.66 225.097 211.68 227.177 211.68C227.957 211.68 228.777 211.5 229.217 211.32L228.917 209.76C228.417 209.94 227.957 210.02 227.477 210.02C226.657 210.02 226.077 209.8 226.077 208.46V202.24H228.957V200.58H226.077V197.82H224.137V200.58H222.337V202.24H224.137V208.46Z" fill="#1AB39C"/>
<path d="M166.43 242.15V263.78H180.56V260.6H170.24V254.27H179.72V251.15H170.24V245.33H180.35V242.15H166.43Z" fill="#1AB39C"/>
<path d="M104.539 81.1V82.34H109.139V95.52H110.539V82.34H115.159V81.1H104.539ZM117.889 95.68C118.709 95.68 119.469 95.52 120.069 95.22C120.629 94.94 121.069 94.54 121.269 94.2H121.289V95.52H122.609V87.98C122.609 85.8 121.129 84.54 118.729 84.54C117.089 84.54 115.869 85.12 114.869 85.82L115.529 86.86C116.449 86.22 117.549 85.76 118.709 85.76C120.389 85.76 121.269 86.64 121.269 88.2V89.2H118.229C115.729 89.2 114.429 90.42 114.429 92.16V92.6C114.429 94.5 115.849 95.68 117.889 95.68ZM121.269 92.16C121.269 92.98 120.829 93.52 120.249 93.88C119.609 94.28 118.949 94.5 118.089 94.5C116.989 94.5 115.789 93.94 115.789 92.54V92.22C115.789 91.12 116.529 90.34 118.249 90.34H121.269V92.16ZM132.813 84.74H130.993L125.793 89.84V80.4H124.433V95.52H125.793V91.46L127.533 89.78L131.533 95.52H133.193L128.493 88.88L132.813 84.74ZM134.094 95.52H135.454V84.74H134.094V95.52ZM134.034 82.68H135.514V81.16H134.034V82.68ZM142.161 84.54C140.461 84.54 139.361 85.42 138.861 86.24V84.74H137.521V95.52H138.881V88.52C138.881 87.26 140.141 85.78 141.961 85.78C144.101 85.78 144.681 87.06 144.681 88.6V95.52H146.041V88.26C146.041 86.02 144.621 84.54 142.161 84.54ZM154.962 95.38C154.962 97.64 153.902 98.7 151.922 98.7C150.702 98.7 149.942 98.5 148.942 97.8L148.322 98.86C149.222 99.56 150.402 99.98 151.922 99.98C154.602 99.98 156.322 98.4 156.322 95.34V84.74H154.982V86.06C154.422 85.26 153.322 84.54 151.742 84.54C149.282 84.54 147.462 86.22 147.462 89.16V90.86C147.462 93.8 149.282 95.48 151.762 95.48C153.002 95.48 154.342 94.98 154.942 93.9H154.962V95.38ZM148.822 89.36C148.822 87.08 150.002 85.74 151.822 85.74C153.662 85.74 154.962 87.16 154.962 88.42V91.46C154.962 93.36 153.562 94.28 151.822 94.28C150.022 94.28 148.822 92.96 148.822 90.66V89.36ZM162.984 92.52C162.984 94.86 163.884 95.62 165.764 95.62C166.344 95.62 167.164 95.52 167.584 95.36L167.384 94.24C166.884 94.38 166.404 94.44 165.864 94.44C164.784 94.44 164.344 93.92 164.344 92.46V85.9H167.324V84.74H164.344V81.96H162.984V84.74H161.144V85.9H162.984V92.52ZM173.338 84.54C171.638 84.54 170.558 85.42 170.058 86.24V80.4H168.698V95.52H170.058V88.52C170.058 87.26 171.318 85.78 173.138 85.78C175.278 85.78 175.858 87.06 175.858 88.6V95.52H177.218V88.26C177.218 86.02 175.798 84.54 173.338 84.54ZM179.999 89.42V89.24C179.999 87.12 181.119 85.74 183.019 85.74C184.899 85.74 185.999 87 185.999 89.24V89.42H179.999ZM186.519 93.42C185.739 93.98 184.659 94.48 183.219 94.48C181.239 94.48 179.999 93.12 179.999 90.74V90.56H187.359V89.44C187.359 86.42 185.819 84.54 183.019 84.54C180.319 84.54 178.639 86.34 178.639 89.4V90.74C178.639 93.88 180.339 95.68 183.199 95.68C185.019 95.68 186.259 95.06 187.119 94.46L186.519 93.42ZM192.637 95.52H193.997V80.4H192.637V95.52ZM196.848 89.42V89.24C196.848 87.12 197.968 85.74 199.868 85.74C201.748 85.74 202.848 87 202.848 89.24V89.42H196.848ZM203.368 93.42C202.588 93.98 201.508 94.48 200.068 94.48C198.088 94.48 196.848 93.12 196.848 90.74V90.56H204.208V89.44C204.208 86.42 202.668 84.54 199.868 84.54C197.168 84.54 195.488 86.34 195.488 89.4V90.74C195.488 93.88 197.188 95.68 200.048 95.68C201.868 95.68 203.108 95.06 203.968 94.46L203.368 93.42ZM208.606 95.68C209.426 95.68 210.186 95.52 210.786 95.22C211.346 94.94 211.786 94.54 211.986 94.2H212.006V95.52H213.326V87.98C213.326 85.8 211.846 84.54 209.446 84.54C207.806 84.54 206.586 85.12 205.586 85.82L206.246 86.86C207.166 86.22 208.266 85.76 209.426 85.76C211.106 85.76 211.986 86.64 211.986 88.2V89.2H208.946C206.446 89.2 205.146 90.42 205.146 92.16V92.6C205.146 94.5 206.566 95.68 208.606 95.68ZM211.986 92.16C211.986 92.98 211.546 93.52 210.966 93.88C210.326 94.28 209.666 94.5 208.806 94.5C207.706 94.5 206.506 93.94 206.506 92.54V92.22C206.506 91.12 207.246 90.34 208.966 90.34H211.986V92.16ZM222.19 95.52H223.53V80.4H222.17V86.06C221.61 85.26 220.53 84.54 218.95 84.54C216.49 84.54 214.67 86.22 214.67 89.16V91.06C214.67 94 216.49 95.68 218.97 95.68C220.21 95.68 221.57 95.18 222.17 94.1H222.19V95.52ZM216.03 89.36C216.03 87.08 217.21 85.74 219.03 85.74C220.87 85.74 222.17 87.16 222.17 88.42V91.66C222.17 93.56 220.77 94.48 219.03 94.48C217.23 94.48 216.03 93.16 216.03 90.86V89.36ZM229.392 95.52H230.752V84.74H229.392V95.52ZM229.332 82.68H230.812V81.16H229.332V82.68ZM237.46 84.54C235.76 84.54 234.66 85.42 234.16 86.24V84.74H232.82V95.52H234.18V88.52C234.18 87.26 235.44 85.78 237.26 85.78C239.4 85.78 239.98 87.06 239.98 88.6V95.52H241.34V88.26C241.34 86.02 239.92 84.54 237.46 84.54ZM109.293 122.24C109.873 123 110.973 123.68 112.493 123.68C114.953 123.68 116.773 122 116.773 119.06V117.16C116.773 114.22 115.053 112.54 112.493 112.54C111.153 112.54 109.893 113.18 109.253 114.26V112.74H107.913V127.8H109.273V122.24H109.293ZM115.413 118.86C115.413 121.14 114.233 122.48 112.413 122.48C110.573 122.48 109.273 121.2 109.273 119.94V116.78C109.273 114.88 110.933 113.78 112.413 113.78C114.253 113.78 115.413 115.06 115.413 117.36V118.86ZM124.275 112.76C123.835 112.6 123.335 112.54 122.735 112.54C121.095 112.54 120.095 113.6 119.635 114.64V112.74H118.295V123.52H119.655V117.4C119.655 115.38 120.775 113.92 122.555 113.92C123.075 113.92 123.495 114 123.855 114.14L124.275 112.76ZM127.827 123.68C128.647 123.68 129.407 123.52 130.007 123.22C130.567 122.94 131.007 122.54 131.207 122.2H131.227V123.52H132.547V115.98C132.547 113.8 131.067 112.54 128.667 112.54C127.027 112.54 125.807 113.12 124.807 113.82L125.467 114.86C126.387 114.22 127.487 113.76 128.647 113.76C130.327 113.76 131.207 114.64 131.207 116.2V117.2H128.167C125.667 117.2 124.367 118.42 124.367 120.16V120.6C124.367 122.5 125.787 123.68 127.827 123.68ZM131.207 120.16C131.207 120.98 130.767 121.52 130.187 121.88C129.547 122.28 128.887 122.5 128.027 122.5C126.927 122.5 125.727 121.94 125.727 120.54V120.22C125.727 119.12 126.467 118.34 128.187 118.34H131.207V120.16ZM138.331 112.54C135.691 112.54 133.871 114.26 133.871 117.4V118.74C133.871 121.88 135.551 123.68 138.351 123.68C140.291 123.68 141.391 123.06 142.171 122.46L141.531 121.38C140.751 121.96 139.871 122.44 138.371 122.44C136.451 122.44 135.251 121.1 135.251 118.74V117.36C135.251 115.12 136.431 113.76 138.331 113.76C139.351 113.76 140.251 113.96 141.251 114.66L141.871 113.6C140.971 112.92 139.851 112.54 138.331 112.54ZM143.894 120.52C143.894 122.86 144.794 123.62 146.674 123.62C147.254 123.62 148.074 123.52 148.494 123.36L148.294 122.24C147.794 122.38 147.314 122.44 146.774 122.44C145.694 122.44 145.254 121.92 145.254 120.46V113.9H148.234V112.74H145.254V109.96H143.894V112.74H142.054V113.9H143.894V120.52ZM149.668 123.52H151.028V112.74H149.668V123.52ZM149.608 110.68H151.088V109.16H149.608V110.68ZM157.056 112.54C154.416 112.54 152.596 114.26 152.596 117.4V118.74C152.596 121.88 154.276 123.68 157.076 123.68C159.016 123.68 160.116 123.06 160.896 122.46L160.256 121.38C159.476 121.96 158.596 122.44 157.096 122.44C155.176 122.44 153.976 121.1 153.976 118.74V117.36C153.976 115.12 155.156 113.76 157.056 113.76C158.076 113.76 158.976 113.96 159.976 114.66L160.596 113.6C159.696 112.92 158.576 112.54 157.056 112.54ZM162.639 117.42V117.24C162.639 115.12 163.759 113.74 165.659 113.74C167.539 113.74 168.639 115 168.639 117.24V117.42H162.639ZM169.159 121.42C168.379 121.98 167.299 122.48 165.859 122.48C163.879 122.48 162.639 121.12 162.639 118.74V118.56H169.999V117.44C169.999 114.42 168.459 112.54 165.659 112.54C162.959 112.54 161.279 114.34 161.279 117.4V118.74C161.279 121.88 162.979 123.68 165.839 123.68C167.659 123.68 168.899 123.06 169.759 122.46L169.159 121.42ZM174.897 122.46C173.637 122.46 172.477 122 171.497 121.34L170.837 122.42C171.857 123.16 173.237 123.68 174.977 123.68C177.257 123.68 178.937 122.48 178.937 120.76V120.46C178.937 118.74 177.817 117.88 175.157 117.38C173.457 117.06 172.457 116.58 172.457 115.64V115.42C172.457 114.48 173.337 113.74 174.957 113.74C176.337 113.74 177.177 114.08 178.077 114.68L178.697 113.66C177.817 113 176.637 112.54 174.997 112.54C172.357 112.54 171.097 113.86 171.097 115.4V115.68C171.097 117.44 172.517 118.14 174.677 118.56C176.737 118.96 177.577 119.44 177.577 120.52V120.72C177.577 121.64 176.637 122.46 174.897 122.46ZM184.819 120.52C184.819 122.86 185.719 123.62 187.599 123.62C188.179 123.62 188.999 123.52 189.419 123.36L189.219 122.24C188.719 122.38 188.239 122.44 187.699 122.44C186.619 122.44 186.179 121.92 186.179 120.46V113.9H189.159V112.74H186.179V109.96H184.819V112.74H182.979V113.9H184.819V120.52ZM194.613 112.54C191.733 112.54 190.033 114.32 190.033 117.44V118.78C190.033 121.88 191.733 123.68 194.613 123.68C197.493 123.68 199.193 121.88 199.193 118.78V117.44C199.193 114.34 197.493 112.54 194.613 112.54ZM194.613 122.48C192.633 122.48 191.413 121.24 191.413 118.7V117.52C191.413 114.98 192.633 113.74 194.613 113.74C196.593 113.74 197.813 114.98 197.813 117.52V118.7C197.813 121.24 196.593 122.48 194.613 122.48ZM207.92 122.46C206.66 122.46 205.5 122 204.52 121.34L203.86 122.42C204.88 123.16 206.26 123.68 208 123.68C210.28 123.68 211.96 122.48 211.96 120.76V120.46C211.96 118.74 210.84 117.88 208.18 117.38C206.48 117.06 205.48 116.58 205.48 115.64V115.42C205.48 114.48 206.36 113.74 207.98 113.74C209.36 113.74 210.2 114.08 211.1 114.68L211.72 113.66C210.84 113 209.66 112.54 208.02 112.54C205.38 112.54 204.12 113.86 204.12 115.4V115.68C204.12 117.44 205.54 118.14 207.7 118.56C209.76 118.96 210.6 119.44 210.6 120.52V120.72C210.6 121.64 209.66 122.46 207.92 122.46ZM216.123 123.68C216.943 123.68 217.703 123.52 218.303 123.22C218.863 122.94 219.303 122.54 219.503 122.2H219.523V123.52H220.843V115.98C220.843 113.8 219.363 112.54 216.963 112.54C215.323 112.54 214.103 113.12 213.103 113.82L213.763 114.86C214.683 114.22 215.783 113.76 216.943 113.76C218.623 113.76 219.503 114.64 219.503 116.2V117.2H216.463C213.963 117.2 212.663 118.42 212.663 120.16V120.6C212.663 122.5 214.083 123.68 216.123 123.68ZM219.503 120.16C219.503 120.98 219.063 121.52 218.483 121.88C217.843 122.28 217.183 122.5 216.323 122.5C215.223 122.5 214.023 121.94 214.023 120.54V120.22C214.023 119.12 214.763 118.34 216.483 118.34H219.503V120.16ZM226.867 123.52L230.747 112.74H229.327L226.127 122.12L222.867 112.74H221.407L225.347 123.52H226.867ZM232.249 117.42V117.24C232.249 115.12 233.369 113.74 235.269 113.74C237.149 113.74 238.249 115 238.249 117.24V117.42H232.249ZM238.769 121.42C237.989 121.98 236.909 122.48 235.469 122.48C233.489 122.48 232.249 121.12 232.249 118.74V118.56H239.609V117.44C239.609 114.42 238.069 112.54 235.269 112.54C232.569 112.54 230.889 114.34 230.889 117.4V118.74C230.889 121.88 232.589 123.68 235.449 123.68C237.269 123.68 238.509 123.06 239.369 122.46L238.769 121.42ZM108.735 148.52C108.735 150.86 109.635 151.62 111.515 151.62C112.095 151.62 112.915 151.52 113.335 151.36L113.135 150.24C112.635 150.38 112.155 150.44 111.615 150.44C110.535 150.44 110.095 149.92 110.095 148.46V141.9H113.075V140.74H110.095V137.96H108.735V140.74H106.895V141.9H108.735V148.52ZM119.088 140.54C117.388 140.54 116.308 141.42 115.808 142.24V136.4H114.448V151.52H115.808V144.52C115.808 143.26 117.068 141.78 118.888 141.78C121.028 141.78 121.608 143.06 121.608 144.6V151.52H122.968V144.26C122.968 142.02 121.548 140.54 119.088 140.54ZM125.749 145.42V145.24C125.749 143.12 126.869 141.74 128.769 141.74C130.649 141.74 131.749 143 131.749 145.24V145.42H125.749ZM132.269 149.42C131.489 149.98 130.409 150.48 128.969 150.48C126.989 150.48 125.749 149.12 125.749 146.74V146.56H133.109V145.44C133.109 142.42 131.569 140.54 128.769 140.54C126.069 140.54 124.389 142.34 124.389 145.4V146.74C124.389 149.88 126.089 151.68 128.949 151.68C130.769 151.68 132.009 151.06 132.869 150.46L132.269 149.42ZM139.248 145.42V145.24C139.248 143.12 140.368 141.74 142.268 141.74C144.148 141.74 145.248 143 145.248 145.24V145.42H139.248ZM145.768 149.42C144.988 149.98 143.908 150.48 142.468 150.48C140.488 150.48 139.248 149.12 139.248 146.74V146.56H146.608V145.44C146.608 142.42 145.068 140.54 142.268 140.54C139.568 140.54 137.888 142.34 137.888 145.4V146.74C137.888 149.88 139.588 151.68 142.448 151.68C144.268 151.68 145.508 151.06 146.368 150.46L145.768 149.42ZM152.726 140.54C151.026 140.54 149.926 141.42 149.426 142.24V140.74H148.086V151.52H149.446V144.52C149.446 143.26 150.706 141.78 152.526 141.78C154.666 141.78 155.246 143.06 155.246 144.6V151.52H156.606V144.26C156.606 142.02 155.186 140.54 152.726 140.54ZM162.727 151.52L166.607 140.74H165.187L161.987 150.12L158.727 140.74H157.267L161.207 151.52H162.727ZM167.406 151.52H168.766V140.74H167.406V151.52ZM167.346 138.68H168.826V137.16H167.346V138.68ZM176.814 140.76C176.374 140.6 175.874 140.54 175.274 140.54C173.634 140.54 172.634 141.6 172.174 142.64V140.74H170.834V151.52H172.194V145.4C172.194 143.38 173.314 141.92 175.094 141.92C175.614 141.92 176.034 142 176.394 142.14L176.814 140.76ZM181.526 140.54C178.646 140.54 176.946 142.32 176.946 145.44V146.78C176.946 149.88 178.646 151.68 181.526 151.68C184.406 151.68 186.106 149.88 186.106 146.78V145.44C186.106 142.34 184.406 140.54 181.526 140.54ZM181.526 150.48C179.546 150.48 178.326 149.24 178.326 146.7V145.52C178.326 142.98 179.546 141.74 181.526 141.74C183.506 141.74 184.726 142.98 184.726 145.52V146.7C184.726 149.24 183.506 150.48 181.526 150.48ZM192.253 140.54C190.553 140.54 189.453 141.42 188.953 142.24V140.74H187.613V151.52H188.973V144.52C188.973 143.26 190.233 141.78 192.053 141.78C194.193 141.78 194.773 143.06 194.773 144.6V151.52H196.133V144.26C196.133 142.02 194.713 140.54 192.253 140.54ZM208.954 140.54C207.234 140.54 206.154 141.58 205.674 142.5C205.194 141.26 204.134 140.54 202.414 140.54C200.834 140.54 199.874 141.38 199.394 142.24V140.74H198.054V151.52H199.414V144.52C199.414 143.26 200.394 141.78 202.174 141.78C204.114 141.78 204.594 142.88 204.594 144.62V151.52H205.954V144.44C205.994 143.2 206.974 141.78 208.714 141.78C210.654 141.78 211.134 142.88 211.134 144.62V151.52H212.494V144.26C212.494 141.98 211.394 140.54 208.954 140.54ZM215.273 145.42V145.24C215.273 143.12 216.393 141.74 218.293 141.74C220.173 141.74 221.273 143 221.273 145.24V145.42H215.273ZM221.793 149.42C221.013 149.98 219.933 150.48 218.493 150.48C216.513 150.48 215.273 149.12 215.273 146.74V146.56H222.633V145.44C222.633 142.42 221.093 140.54 218.293 140.54C215.593 140.54 213.913 142.34 213.913 145.4V146.74C213.913 149.88 215.613 151.68 218.473 151.68C220.293 151.68 221.533 151.06 222.393 150.46L221.793 149.42ZM228.751 140.54C227.051 140.54 225.951 141.42 225.451 142.24V140.74H224.111V151.52H225.471V144.52C225.471 143.26 226.731 141.78 228.551 141.78C230.691 141.78 231.271 143.06 231.271 144.6V151.52H232.631V144.26C232.631 142.02 231.211 140.54 228.751 140.54ZM235.392 148.52C235.392 150.86 236.292 151.62 238.172 151.62C238.752 151.62 239.572 151.52 239.992 151.36L239.792 150.24C239.292 150.38 238.812 150.44 238.272 150.44C237.192 150.44 236.752 149.92 236.752 148.46V141.9H239.732V140.74H236.752V137.96H235.392V140.74H233.552V141.9H235.392V148.52Z" fill="#222222"/>
<path d="M432.414 189.94C431.174 189.94 429.414 189.24 428.334 188.42L427.334 190.04C428.534 191 430.314 191.74 432.354 191.74C435.314 191.74 437.494 190.38 437.494 187.74V187.38C437.494 185.38 436.394 184.12 432.834 183.32C430.694 182.84 429.514 182.36 429.514 181.04V180.72C429.514 179.58 430.694 178.66 432.494 178.66C433.814 178.66 434.874 178.96 435.934 179.68L436.874 178.14C435.654 177.32 434.234 176.88 432.474 176.88C429.154 176.88 427.534 178.78 427.534 180.74V181.1C427.534 183.7 429.614 184.54 432.334 185.12C434.674 185.62 435.494 186.26 435.494 187.52V187.84C435.494 188.98 434.454 189.94 432.414 189.94ZM447.878 184.28C447.878 181.64 446.158 180.38 444.038 180.38C442.558 180.38 441.458 180.92 440.798 181.9V176.4H438.858V191.52H440.798V184.74C440.798 183.02 442.238 182.1 443.558 182.1C445.178 182.1 445.938 182.88 445.938 184.72V191.52H447.878V184.28ZM452.671 191.68C453.631 191.68 454.271 191.5 454.851 191.18C455.271 190.94 455.671 190.6 455.871 190.2H455.891V191.52H457.751V183.86C457.751 181.66 456.031 180.38 453.591 180.38C451.831 180.38 450.531 181.02 449.471 181.76L450.431 183.2C451.451 182.54 452.291 182.1 453.571 182.1C455.171 182.1 455.831 182.8 455.831 184.26V184.9H453.051C450.251 184.9 449.071 186.2 449.071 188.06V188.6C449.071 190.52 450.471 191.68 452.671 191.68ZM455.831 187.62C455.831 188.44 455.611 188.92 455.091 189.32C454.511 189.78 453.831 190 452.871 190C451.831 190 450.971 189.54 450.971 188.48V188.2C450.971 187.16 451.571 186.54 453.091 186.54H455.831V187.62ZM466.123 180.6C465.683 180.46 465.203 180.38 464.703 180.38C463.103 180.38 462.123 181.1 461.483 182.32H461.463V180.58H459.583V191.52H461.523V185.14C461.523 183.42 462.763 182.22 464.203 182.22C464.723 182.22 465.163 182.32 465.543 182.48L466.123 180.6ZM466.783 180.58V191.52H468.723V180.58H466.783ZM466.723 176.66V178.78H468.783V176.66H466.723ZM479.719 184.28C479.719 181.64 477.999 180.38 475.879 180.38C474.379 180.38 473.259 180.94 472.599 181.96H472.579V180.58H470.699V191.52H472.639V184.74C472.639 183.02 474.079 182.1 475.399 182.1C477.019 182.1 477.779 182.88 477.779 184.72V191.52H479.719V184.28ZM490.272 180.58H488.332V181.72C487.892 181.08 486.932 180.38 485.272 180.38C482.712 180.38 480.932 182.12 480.932 185.08V186.82C480.932 189.78 482.432 191.48 485.192 191.48C486.512 191.48 487.712 191.08 488.332 190.04V191.38C488.332 193.32 487.332 194.22 485.452 194.22C484.372 194.22 483.352 193.84 482.632 193.3L481.752 194.82C482.652 195.52 483.912 195.98 485.392 195.98C488.612 195.98 490.272 194.44 490.272 191.38V180.58ZM488.352 187.02C488.352 188.72 487.052 189.78 485.472 189.78C483.852 189.78 482.852 188.58 482.852 186.5V185.36C482.852 183.3 483.832 182.08 485.472 182.08C487.152 182.08 488.352 183.26 488.352 184.4V187.02ZM418.91 204.34C418.91 201.82 417.53 200.38 415.29 200.38C413.57 200.38 412.59 201.14 411.89 202.2C411.33 201.04 410.21 200.38 408.75 200.38C407.23 200.38 406.25 201.1 405.83 202.06H405.81V200.58H403.89V211.52H405.83V204.6C405.83 202.88 407.17 202.14 408.37 202.14C409.75 202.14 410.43 203.06 410.43 204.96V211.52H412.37V204.7C412.37 202.92 413.69 202.14 414.91 202.14C416.29 202.14 416.97 203.06 416.97 204.96V211.52H418.91V204.34ZM423.718 211.68C424.678 211.68 425.318 211.5 425.898 211.18C426.318 210.94 426.718 210.6 426.918 210.2H426.938V211.52H428.798V203.86C428.798 201.66 427.078 200.38 424.638 200.38C422.878 200.38 421.578 201.02 420.518 201.76L421.478 203.2C422.498 202.54 423.338 202.1 424.618 202.1C426.218 202.1 426.878 202.8 426.878 204.26V204.9H424.098C421.298 204.9 420.118 206.2 420.118 208.06V208.6C420.118 210.52 421.518 211.68 423.718 211.68ZM426.878 207.62C426.878 208.44 426.658 208.92 426.138 209.32C425.558 209.78 424.878 210 423.918 210C422.878 210 422.018 209.54 422.018 208.48V208.2C422.018 207.16 422.618 206.54 424.138 206.54H426.878V207.62ZM439.65 204.28C439.65 201.64 437.93 200.38 435.81 200.38C434.31 200.38 433.19 200.94 432.53 201.96H432.51V200.58H430.63V211.52H432.57V204.74C432.57 203.02 434.01 202.1 435.33 202.1C436.95 202.1 437.71 202.88 437.71 204.72V211.52H439.65V204.28ZM444.443 211.68C445.403 211.68 446.043 211.5 446.623 211.18C447.043 210.94 447.443 210.6 447.643 210.2H447.663V211.52H449.523V203.86C449.523 201.66 447.803 200.38 445.363 200.38C443.603 200.38 442.303 201.02 441.243 201.76L442.203 203.2C443.223 202.54 444.063 202.1 445.343 202.1C446.943 202.1 447.603 202.8 447.603 204.26V204.9H444.823C442.023 204.9 440.843 206.2 440.843 208.06V208.6C440.843 210.52 442.243 211.68 444.443 211.68ZM447.603 207.62C447.603 208.44 447.383 208.92 446.863 209.32C446.283 209.78 445.603 210 444.643 210C443.603 210 442.743 209.54 442.743 208.48V208.2C442.743 207.16 443.343 206.54 444.863 206.54H447.603V207.62ZM460.155 200.58H458.215V201.72C457.775 201.08 456.815 200.38 455.155 200.38C452.595 200.38 450.815 202.12 450.815 205.08V206.82C450.815 209.78 452.315 211.48 455.075 211.48C456.395 211.48 457.595 211.08 458.215 210.04V211.38C458.215 213.32 457.215 214.22 455.335 214.22C454.255 214.22 453.235 213.84 452.515 213.3L451.635 214.82C452.535 215.52 453.795 215.98 455.275 215.98C458.495 215.98 460.155 214.44 460.155 211.38V200.58ZM458.235 207.02C458.235 208.72 456.935 209.78 455.355 209.78C453.735 209.78 452.735 208.58 452.735 206.5V205.36C452.735 203.3 453.715 202.08 455.355 202.08C457.035 202.08 458.235 203.26 458.235 204.4V207.02ZM466.209 202.04C467.869 202.04 468.909 203.12 468.909 204.8V205.16H463.429V204.88C463.429 203.2 464.589 202.04 466.209 202.04ZM469.709 209.02C468.769 209.62 467.809 210 466.389 210C464.649 210 463.429 208.88 463.429 206.82V206.74H470.789V205.28C470.789 202.16 469.009 200.38 466.209 200.38C463.509 200.38 461.509 202.08 461.509 205.4V206.64C461.509 210.18 463.609 211.68 466.309 211.68C468.289 211.68 469.569 211.14 470.529 210.48L469.709 209.02ZM487.003 204.34C487.003 201.82 485.623 200.38 483.383 200.38C481.663 200.38 480.683 201.14 479.983 202.2C479.423 201.04 478.303 200.38 476.843 200.38C475.323 200.38 474.343 201.1 473.923 202.06H473.903V200.58H471.983V211.52H473.923V204.6C473.923 202.88 475.263 202.14 476.463 202.14C477.843 202.14 478.523 203.06 478.523 204.96V211.52H480.463V204.7C480.463 202.92 481.783 202.14 483.003 202.14C484.383 202.14 485.063 203.06 485.063 204.96V211.52H487.003V204.34ZM492.911 202.04C494.571 202.04 495.611 203.12 495.611 204.8V205.16H490.131V204.88C490.131 203.2 491.291 202.04 492.911 202.04ZM496.411 209.02C495.471 209.62 494.511 210 493.091 210C491.351 210 490.131 208.88 490.131 206.82V206.74H497.491V205.28C497.491 202.16 495.711 200.38 492.911 200.38C490.211 200.38 488.211 202.08 488.211 205.4V206.64C488.211 210.18 490.311 211.68 493.011 211.68C494.991 211.68 496.271 211.14 497.231 210.48L496.411 209.02ZM507.704 204.28C507.704 201.64 505.984 200.38 503.864 200.38C502.364 200.38 501.244 200.94 500.584 201.96H500.564V200.58H498.684V211.52H500.624V204.74C500.624 203.02 502.064 202.1 503.384 202.1C505.004 202.1 505.764 202.88 505.764 204.72V211.52H507.704V204.28ZM510.137 208.46C510.137 210.66 511.097 211.68 513.177 211.68C513.957 211.68 514.777 211.5 515.217 211.32L514.917 209.76C514.417 209.94 513.957 210.02 513.477 210.02C512.657 210.02 512.077 209.8 512.077 208.46V202.24H514.957V200.58H512.077V197.82H510.137V200.58H508.337V202.24H510.137V208.46Z" fill="#329EBC"/>
<path d="M459.42 260.66C456.84 260.66 454.68 259.67 453.36 258.56L451.5 261.62C453.18 263 456.12 264.11 459.24 264.11C463.44 264.11 467.19 262.61 467.19 257.78V257.39C467.19 254.42 465.48 252.32 460.38 251.18C457.83 250.61 455.7 250.31 455.7 248.21V247.85C455.7 246.68 456.96 245.24 459.69 245.24C461.43 245.24 462.84 245.45 464.58 246.59L466.38 243.62C464.19 242.21 462 241.82 459.63 241.82C453.78 241.82 451.89 245.3 451.89 247.91V248.3C451.89 253.31 455.94 253.94 459.54 254.72C462 255.26 463.35 256.01 463.35 257.75V258.08C463.35 259.55 462.15 260.66 459.42 260.66Z" fill="#329EBC"/>
<path d="M382.966 80.88C379.466 80.88 377.426 83.26 377.426 87.34V89.12C377.426 93.3 379.346 95.74 383.086 95.74C385.366 95.74 386.826 94.98 387.886 94.02L387.066 92.92C386.126 93.74 384.906 94.4 383.106 94.4C380.446 94.4 378.846 92.66 378.846 89.12V87.28C378.846 84.26 380.306 82.2 382.966 82.2C384.426 82.2 385.506 82.5 386.806 83.42L387.526 82.32C386.326 81.4 384.886 80.88 382.966 80.88ZM393.008 84.54C390.128 84.54 388.428 86.32 388.428 89.44V90.78C388.428 93.88 390.128 95.68 393.008 95.68C395.888 95.68 397.588 93.88 397.588 90.78V89.44C397.588 86.34 395.888 84.54 393.008 84.54ZM393.008 94.48C391.028 94.48 389.808 93.24 389.808 90.7V89.52C389.808 86.98 391.028 85.74 393.008 85.74C394.988 85.74 396.208 86.98 396.208 89.52V90.7C396.208 93.24 394.988 94.48 393.008 94.48ZM409.995 84.54C408.275 84.54 407.195 85.58 406.715 86.5C406.235 85.26 405.175 84.54 403.455 84.54C401.875 84.54 400.915 85.38 400.435 86.24V84.74H399.095V95.52H400.455V88.52C400.455 87.26 401.435 85.78 403.215 85.78C405.155 85.78 405.635 86.88 405.635 88.62V95.52H406.995V88.44C407.035 87.2 408.015 85.78 409.755 85.78C411.695 85.78 412.175 86.88 412.175 88.62V95.52H413.535V88.26C413.535 85.98 412.435 84.54 409.995 84.54ZM426.354 84.54C424.634 84.54 423.554 85.58 423.074 86.5C422.594 85.26 421.534 84.54 419.814 84.54C418.234 84.54 417.274 85.38 416.794 86.24V84.74H415.454V95.52H416.814V88.52C416.814 87.26 417.794 85.78 419.574 85.78C421.514 85.78 421.994 86.88 421.994 88.62V95.52H423.354V88.44C423.394 87.2 424.374 85.78 426.114 85.78C428.054 85.78 428.534 86.88 428.534 88.62V95.52H429.894V88.26C429.894 85.98 428.794 84.54 426.354 84.54ZM435.492 95.68C437.192 95.68 438.312 94.84 438.812 94.02V95.52H440.152V84.74H438.792V91.74C438.792 93 437.512 94.44 435.692 94.44C433.552 94.44 433.092 93.16 433.092 91.62V84.74H431.732V91.96C431.732 94.2 433.032 95.68 435.492 95.68ZM446.815 84.54C445.115 84.54 444.015 85.42 443.515 86.24V84.74H442.175V95.52H443.535V88.52C443.535 87.26 444.795 85.78 446.615 85.78C448.755 85.78 449.335 87.06 449.335 88.6V95.52H450.695V88.26C450.695 86.02 449.275 84.54 446.815 84.54ZM452.676 95.52H454.036V84.74H452.676V95.52ZM452.616 82.68H454.096V81.16H452.616V82.68ZM460.063 84.54C457.423 84.54 455.603 86.26 455.603 89.4V90.74C455.603 93.88 457.283 95.68 460.083 95.68C462.023 95.68 463.123 95.06 463.903 94.46L463.263 93.38C462.483 93.96 461.603 94.44 460.103 94.44C458.183 94.44 456.983 93.1 456.983 90.74V89.36C456.983 87.12 458.163 85.76 460.063 85.76C461.083 85.76 461.983 85.96 462.983 86.66L463.603 85.6C462.703 84.92 461.583 84.54 460.063 84.54ZM467.706 95.68C468.526 95.68 469.286 95.52 469.886 95.22C470.446 94.94 470.886 94.54 471.086 94.2H471.106V95.52H472.426V87.98C472.426 85.8 470.946 84.54 468.546 84.54C466.906 84.54 465.686 85.12 464.686 85.82L465.346 86.86C466.266 86.22 467.366 85.76 468.526 85.76C470.206 85.76 471.086 86.64 471.086 88.2V89.2H468.046C465.546 89.2 464.246 90.42 464.246 92.16V92.6C464.246 94.5 465.666 95.68 467.706 95.68ZM471.086 92.16C471.086 92.98 470.646 93.52 470.066 93.88C469.426 94.28 468.766 94.5 467.906 94.5C466.806 94.5 465.606 93.94 465.606 92.54V92.22C465.606 91.12 466.346 90.34 468.066 90.34H471.086V92.16ZM475.09 92.52C475.09 94.86 475.99 95.62 477.87 95.62C478.45 95.62 479.27 95.52 479.69 95.36L479.49 94.24C478.99 94.38 478.51 94.44 477.97 94.44C476.89 94.44 476.45 93.92 476.45 92.46V85.9H479.43V84.74H476.45V81.96H475.09V84.74H473.25V85.9H475.09V92.52ZM480.864 95.52H482.224V84.74H480.864V95.52ZM480.804 82.68H482.284V81.16H480.804V82.68ZM488.931 84.54C487.231 84.54 486.131 85.42 485.631 86.24V84.74H484.291V95.52H485.651V88.52C485.651 87.26 486.911 85.78 488.731 85.78C490.871 85.78 491.451 87.06 491.451 88.6V95.52H492.811V88.26C492.811 86.02 491.391 84.54 488.931 84.54ZM501.732 95.38C501.732 97.64 500.672 98.7 498.692 98.7C497.472 98.7 496.712 98.5 495.712 97.8L495.092 98.86C495.992 99.56 497.172 99.98 498.692 99.98C501.372 99.98 503.092 98.4 503.092 95.34V84.74H501.752V86.06C501.192 85.26 500.092 84.54 498.512 84.54C496.052 84.54 494.232 86.22 494.232 89.16V90.86C494.232 93.8 496.052 95.48 498.532 95.48C499.772 95.48 501.112 94.98 501.712 93.9H501.732V95.38ZM495.592 89.36C495.592 87.08 496.772 85.74 498.592 85.74C500.432 85.74 501.732 87.16 501.732 88.42V91.46C501.732 93.36 500.332 94.28 498.592 94.28C496.792 94.28 495.592 92.96 495.592 90.66V89.36ZM512.234 95.52L514.854 86.26L517.534 95.52H519.114L521.994 84.74H520.674L518.354 94.16L515.654 84.74H514.114L511.474 94.16L509.094 84.74H507.714L510.654 95.52H512.234ZM522.852 95.52H524.212V84.74H522.852V95.52ZM522.792 82.68H524.272V81.16H522.792V82.68ZM527.12 92.52C527.12 94.86 528.02 95.62 529.9 95.62C530.48 95.62 531.3 95.52 531.72 95.36L531.52 94.24C531.02 94.38 530.54 94.44 530 94.44C528.92 94.44 528.48 93.92 528.48 92.46V85.9H531.46V84.74H528.48V81.96H527.12V84.74H525.28V85.9H527.12V92.52ZM537.474 84.54C535.774 84.54 534.694 85.42 534.194 86.24V80.4H532.834V95.52H534.194V88.52C534.194 87.26 535.454 85.78 537.274 85.78C539.414 85.78 539.994 87.06 539.994 88.6V95.52H541.354V88.26C541.354 86.02 539.934 84.54 537.474 84.54ZM422.877 123.68C423.697 123.68 424.457 123.52 425.057 123.22C425.617 122.94 426.057 122.54 426.257 122.2H426.277V123.52H427.597V115.98C427.597 113.8 426.117 112.54 423.717 112.54C422.077 112.54 420.857 113.12 419.857 113.82L420.517 114.86C421.437 114.22 422.537 113.76 423.697 113.76C425.377 113.76 426.257 114.64 426.257 116.2V117.2H423.217C420.717 117.2 419.417 118.42 419.417 120.16V120.6C419.417 122.5 420.837 123.68 422.877 123.68ZM426.257 120.16C426.257 120.98 425.817 121.52 425.237 121.88C424.597 122.28 423.937 122.5 423.077 122.5C421.977 122.5 420.777 121.94 420.777 120.54V120.22C420.777 119.12 421.517 118.34 423.237 118.34H426.257V120.16ZM434.061 112.54C432.361 112.54 431.261 113.42 430.761 114.24V112.74H429.421V123.52H430.781V116.52C430.781 115.26 432.041 113.78 433.861 113.78C436.001 113.78 436.581 115.06 436.581 116.6V123.52H437.941V116.26C437.941 114.02 436.521 112.54 434.061 112.54ZM446.902 123.52H448.242V108.4H446.882V114.06C446.322 113.26 445.242 112.54 443.662 112.54C441.202 112.54 439.382 114.22 439.382 117.16V119.06C439.382 122 441.202 123.68 443.682 123.68C444.922 123.68 446.282 123.18 446.882 122.1H446.902V123.52ZM440.742 117.36C440.742 115.08 441.922 113.74 443.742 113.74C445.582 113.74 446.882 115.16 446.882 116.42V119.66C446.882 121.56 445.482 122.48 443.742 122.48C441.942 122.48 440.742 121.16 440.742 118.86V117.36ZM461.044 123.38C461.044 125.64 459.984 126.7 458.004 126.7C456.784 126.7 456.024 126.5 455.024 125.8L454.404 126.86C455.304 127.56 456.484 127.98 458.004 127.98C460.684 127.98 462.404 126.4 462.404 123.34V112.74H461.064V114.06C460.504 113.26 459.404 112.54 457.824 112.54C455.364 112.54 453.544 114.22 453.544 117.16V118.86C453.544 121.8 455.364 123.48 457.844 123.48C459.084 123.48 460.424 122.98 461.024 121.9H461.044V123.38ZM454.904 117.36C454.904 115.08 456.084 113.74 457.904 113.74C459.744 113.74 461.044 115.16 461.044 116.42V119.46C461.044 121.36 459.644 122.28 457.904 122.28C456.104 122.28 454.904 120.96 454.904 118.66V117.36ZM464.486 123.52H465.846V112.74H464.486V123.52ZM464.426 110.68H465.906V109.16H464.426V110.68ZM472.113 123.52L475.993 112.74H474.573L471.373 122.12L468.113 112.74H466.653L470.593 123.52H472.113ZM476.793 123.52H478.153V112.74H476.793V123.52ZM476.733 110.68H478.213V109.16H476.733V110.68ZM484.86 112.54C483.16 112.54 482.06 113.42 481.56 114.24V112.74H480.22V123.52H481.58V116.52C481.58 115.26 482.84 113.78 484.66 113.78C486.8 113.78 487.38 115.06 487.38 116.6V123.52H488.74V116.26C488.74 114.02 487.32 112.54 484.86 112.54ZM497.661 123.38C497.661 125.64 496.601 126.7 494.621 126.7C493.401 126.7 492.641 126.5 491.641 125.8L491.021 126.86C491.921 127.56 493.101 127.98 494.621 127.98C497.301 127.98 499.021 126.4 499.021 123.34V112.74H497.681V114.06C497.121 113.26 496.021 112.54 494.441 112.54C491.981 112.54 490.161 114.22 490.161 117.16V118.86C490.161 121.8 491.981 123.48 494.461 123.48C495.701 123.48 497.041 122.98 497.641 121.9H497.661V123.38ZM491.521 117.36C491.521 115.08 492.701 113.74 494.521 113.74C496.361 113.74 497.661 115.16 497.661 116.42V119.46C497.661 121.36 496.261 122.28 494.521 122.28C492.721 122.28 491.521 120.96 491.521 118.66V117.36ZM423.033 148.52C423.033 150.86 423.933 151.62 425.813 151.62C426.393 151.62 427.213 151.52 427.633 151.36L427.433 150.24C426.933 150.38 426.453 150.44 425.913 150.44C424.833 150.44 424.393 149.92 424.393 148.46V141.9H427.373V140.74H424.393V137.96H423.033V140.74H421.193V141.9H423.033V148.52ZM432.827 140.54C429.947 140.54 428.247 142.32 428.247 145.44V146.78C428.247 149.88 429.947 151.68 432.827 151.68C435.707 151.68 437.407 149.88 437.407 146.78V145.44C437.407 142.34 435.707 140.54 432.827 140.54ZM432.827 150.48C430.847 150.48 429.627 149.24 429.627 146.7V145.52C429.627 142.98 430.847 141.74 432.827 141.74C434.807 141.74 436.027 142.98 436.027 145.52V146.7C436.027 149.24 434.807 150.48 432.827 150.48ZM446.134 150.46C444.874 150.46 443.714 150 442.734 149.34L442.074 150.42C443.094 151.16 444.474 151.68 446.214 151.68C448.494 151.68 450.174 150.48 450.174 148.76V148.46C450.174 146.74 449.054 145.88 446.394 145.38C444.694 145.06 443.694 144.58 443.694 143.64V143.42C443.694 142.48 444.574 141.74 446.194 141.74C447.574 141.74 448.414 142.08 449.314 142.68L449.934 141.66C449.054 141 447.874 140.54 446.234 140.54C443.594 140.54 442.334 141.86 442.334 143.4V143.68C442.334 145.44 443.754 146.14 445.914 146.56C447.974 146.96 448.814 147.44 448.814 148.52V148.72C448.814 149.64 447.874 150.46 446.134 150.46ZM455.497 140.54C452.617 140.54 450.917 142.32 450.917 145.44V146.78C450.917 149.88 452.617 151.68 455.497 151.68C458.377 151.68 460.077 149.88 460.077 146.78V145.44C460.077 142.34 458.377 140.54 455.497 140.54ZM455.497 150.48C453.517 150.48 452.297 149.24 452.297 146.7V145.52C452.297 142.98 453.517 141.74 455.497 141.74C457.477 141.74 458.697 142.98 458.697 145.52V146.7C458.697 149.24 457.477 150.48 455.497 150.48ZM465.446 140.54C462.806 140.54 460.986 142.26 460.986 145.4V146.74C460.986 149.88 462.666 151.68 465.466 151.68C467.406 151.68 468.506 151.06 469.286 150.46L468.646 149.38C467.866 149.96 466.986 150.44 465.486 150.44C463.566 150.44 462.366 149.1 462.366 146.74V145.36C462.366 143.12 463.546 141.76 465.446 141.76C466.466 141.76 467.366 141.96 468.366 142.66L468.986 141.6C468.086 140.92 466.966 140.54 465.446 140.54ZM470.229 151.52H471.589V140.74H470.229V151.52ZM470.169 138.68H471.649V137.16H470.169V138.68ZM474.517 145.42V145.24C474.517 143.12 475.637 141.74 477.537 141.74C479.417 141.74 480.517 143 480.517 145.24V145.42H474.517ZM481.037 149.42C480.257 149.98 479.177 150.48 477.737 150.48C475.757 150.48 474.517 149.12 474.517 146.74V146.56H481.877V145.44C481.877 142.42 480.337 140.54 477.537 140.54C474.837 140.54 473.157 142.34 473.157 145.4V146.74C473.157 149.88 474.857 151.68 477.717 151.68C479.537 151.68 480.777 151.06 481.637 150.46L481.037 149.42ZM484.195 148.52C484.195 150.86 485.095 151.62 486.975 151.62C487.555 151.62 488.375 151.52 488.795 151.36L488.595 150.24C488.095 150.38 487.615 150.44 487.075 150.44C485.995 150.44 485.555 149.92 485.555 148.46V141.9H488.535V140.74H485.555V137.96H484.195V140.74H482.355V141.9H484.195V148.52ZM488.649 140.74L492.689 151.7L491.309 155.56L492.469 155.98L498.069 140.74H496.669L493.389 150L490.049 140.74H488.649Z" fill="#222222"/>
<path d="M719.609 177.1V191.52H728.729V189.82H721.589V184.98H728.169V183.28H721.589V178.8H728.589V177.1H719.609ZM730.962 188.46C730.962 190.66 731.922 191.68 734.002 191.68C734.782 191.68 735.602 191.5 736.042 191.32L735.742 189.76C735.242 189.94 734.782 190.02 734.302 190.02C733.482 190.02 732.902 189.8 732.902 188.46V182.24H735.782V180.58H732.902V177.82H730.962V180.58H729.162V182.24H730.962V188.46ZM745.876 184.28C745.876 181.64 744.156 180.38 742.036 180.38C740.556 180.38 739.456 180.92 738.796 181.9V176.4H736.856V191.52H738.796V184.74C738.796 183.02 740.236 182.1 741.556 182.1C743.176 182.1 743.936 182.88 743.936 184.72V191.52H745.876V184.28ZM747.688 180.58V191.52H749.628V180.58H747.688ZM747.628 176.66V178.78H749.688V176.66H747.628ZM755.764 180.38C752.904 180.38 751.044 182.16 751.044 185.3V186.68C751.044 189.82 752.764 191.68 755.784 191.68C757.784 191.68 759.064 191.06 759.824 190.42L758.884 188.94C758.104 189.52 757.244 189.94 755.804 189.94C754.364 189.94 753.004 189.02 753.004 186.66V185.28C753.004 183.04 754.324 182.1 755.764 182.1C756.824 182.1 757.604 182.3 758.624 183.04L759.544 181.58C758.644 180.9 757.564 180.38 755.764 180.38ZM763.62 191.68C764.58 191.68 765.22 191.5 765.8 191.18C766.22 190.94 766.62 190.6 766.82 190.2H766.84V191.52H768.7V183.86C768.7 181.66 766.98 180.38 764.54 180.38C762.78 180.38 761.48 181.02 760.42 181.76L761.38 183.2C762.4 182.54 763.24 182.1 764.52 182.1C766.12 182.1 766.78 182.8 766.78 184.26V184.9H764C761.2 184.9 760.02 186.2 760.02 188.06V188.6C760.02 190.52 761.42 191.68 763.62 191.68ZM766.78 187.62C766.78 188.44 766.56 188.92 766.04 189.32C765.46 189.78 764.78 190 763.82 190C762.78 190 761.92 189.54 761.92 188.48V188.2C761.92 187.16 762.52 186.54 764.04 186.54H766.78V187.62ZM770.532 176.4V191.52H772.472V176.4H770.532ZM705.91 204.34C705.91 201.82 704.53 200.38 702.29 200.38C700.57 200.38 699.59 201.14 698.89 202.2C698.33 201.04 697.21 200.38 695.75 200.38C694.23 200.38 693.25 201.1 692.83 202.06H692.81V200.58H690.89V211.52H692.83V204.6C692.83 202.88 694.17 202.14 695.37 202.14C696.75 202.14 697.43 203.06 697.43 204.96V211.52H699.37V204.7C699.37 202.92 700.69 202.14 701.91 202.14C703.29 202.14 703.97 203.06 703.97 204.96V211.52H705.91V204.34ZM710.718 211.68C711.678 211.68 712.318 211.5 712.898 211.18C713.318 210.94 713.718 210.6 713.918 210.2H713.938V211.52H715.798V203.86C715.798 201.66 714.078 200.38 711.638 200.38C709.878 200.38 708.578 201.02 707.518 201.76L708.478 203.2C709.498 202.54 710.338 202.1 711.618 202.1C713.218 202.1 713.878 202.8 713.878 204.26V204.9H711.098C708.298 204.9 707.118 206.2 707.118 208.06V208.6C707.118 210.52 708.518 211.68 710.718 211.68ZM713.878 207.62C713.878 208.44 713.658 208.92 713.138 209.32C712.558 209.78 711.878 210 710.918 210C709.878 210 709.018 209.54 709.018 208.48V208.2C709.018 207.16 709.618 206.54 711.138 206.54H713.878V207.62ZM726.65 204.28C726.65 201.64 724.93 200.38 722.81 200.38C721.31 200.38 720.19 200.94 719.53 201.96H719.51V200.58H717.63V211.52H719.57V204.74C719.57 203.02 721.01 202.1 722.33 202.1C723.95 202.1 724.71 202.88 724.71 204.72V211.52H726.65V204.28ZM731.443 211.68C732.403 211.68 733.043 211.5 733.623 211.18C734.043 210.94 734.443 210.6 734.643 210.2H734.663V211.52H736.523V203.86C736.523 201.66 734.803 200.38 732.363 200.38C730.603 200.38 729.303 201.02 728.243 201.76L729.203 203.2C730.223 202.54 731.063 202.1 732.343 202.1C733.943 202.1 734.603 202.8 734.603 204.26V204.9H731.823C729.023 204.9 727.843 206.2 727.843 208.06V208.6C727.843 210.52 729.243 211.68 731.443 211.68ZM734.603 207.62C734.603 208.44 734.383 208.92 733.863 209.32C733.283 209.78 732.603 210 731.643 210C730.603 210 729.743 209.54 729.743 208.48V208.2C729.743 207.16 730.343 206.54 731.863 206.54H734.603V207.62ZM747.155 200.58H745.215V201.72C744.775 201.08 743.815 200.38 742.155 200.38C739.595 200.38 737.815 202.12 737.815 205.08V206.82C737.815 209.78 739.315 211.48 742.075 211.48C743.395 211.48 744.595 211.08 745.215 210.04V211.38C745.215 213.32 744.215 214.22 742.335 214.22C741.255 214.22 740.235 213.84 739.515 213.3L738.635 214.82C739.535 215.52 740.795 215.98 742.275 215.98C745.495 215.98 747.155 214.44 747.155 211.38V200.58ZM745.235 207.02C745.235 208.72 743.935 209.78 742.355 209.78C740.735 209.78 739.735 208.58 739.735 206.5V205.36C739.735 203.3 740.715 202.08 742.355 202.08C744.035 202.08 745.235 203.26 745.235 204.4V207.02ZM753.209 202.04C754.869 202.04 755.909 203.12 755.909 204.8V205.16H750.429V204.88C750.429 203.2 751.589 202.04 753.209 202.04ZM756.709 209.02C755.769 209.62 754.809 210 753.389 210C751.649 210 750.429 208.88 750.429 206.82V206.74H757.789V205.28C757.789 202.16 756.009 200.38 753.209 200.38C750.509 200.38 748.509 202.08 748.509 205.4V206.64C748.509 210.18 750.609 211.68 753.309 211.68C755.289 211.68 756.569 211.14 757.529 210.48L756.709 209.02ZM774.003 204.34C774.003 201.82 772.623 200.38 770.383 200.38C768.663 200.38 767.683 201.14 766.983 202.2C766.423 201.04 765.303 200.38 763.843 200.38C762.323 200.38 761.343 201.1 760.923 202.06H760.903V200.58H758.983V211.52H760.923V204.6C760.923 202.88 762.263 202.14 763.463 202.14C764.843 202.14 765.523 203.06 765.523 204.96V211.52H767.463V204.7C767.463 202.92 768.783 202.14 770.003 202.14C771.383 202.14 772.063 203.06 772.063 204.96V211.52H774.003V204.34ZM779.911 202.04C781.571 202.04 782.611 203.12 782.611 204.8V205.16H777.131V204.88C777.131 203.2 778.291 202.04 779.911 202.04ZM783.411 209.02C782.471 209.62 781.511 210 780.091 210C778.351 210 777.131 208.88 777.131 206.82V206.74H784.491V205.28C784.491 202.16 782.711 200.38 779.911 200.38C777.211 200.38 775.211 202.08 775.211 205.4V206.64C775.211 210.18 777.311 211.68 780.011 211.68C781.991 211.68 783.271 211.14 784.231 210.48L783.411 209.02ZM794.704 204.28C794.704 201.64 792.984 200.38 790.864 200.38C789.364 200.38 788.244 200.94 787.584 201.96H787.564V200.58H785.684V211.52H787.624V204.74C787.624 203.02 789.064 202.1 790.384 202.1C792.004 202.1 792.764 202.88 792.764 204.72V211.52H794.704V204.28ZM797.137 208.46C797.137 210.66 798.097 211.68 800.177 211.68C800.957 211.68 801.777 211.5 802.217 211.32L801.917 209.76C801.417 209.94 800.957 210.02 800.477 210.02C799.657 210.02 799.077 209.8 799.077 208.46V202.24H801.957V200.58H799.077V197.82H797.137V200.58H795.337V202.24H797.137V208.46Z" fill="#4B8ADC"/>
<path d="M748.25 241.82C742.7 241.82 738.65 244.67 738.65 251.15V255.02C738.65 261.47 742.82 264.11 748.31 264.11C750.89 264.11 753.92 263.42 755.84 262.13V251.6H747.5V254.81H752.03V260C750.95 260.42 749.9 260.63 748.49 260.63C744.98 260.63 742.49 258.95 742.49 254.24V252.02C742.49 246.53 744.92 245.3 748.25 245.3C750.05 245.3 751.97 245.78 753.56 247.19L755.63 244.25C753.41 242.45 750.8 241.82 748.25 241.82Z" fill="#4B8ADC"/>
<path d="M662.72 81.1V82.34H667.32V95.52H668.72V82.34H673.34V81.1H662.72ZM678.785 84.54C677.085 84.54 676.005 85.42 675.505 86.24V80.4H674.145V95.52H675.505V88.52C675.505 87.26 676.765 85.78 678.585 85.78C680.725 85.78 681.305 87.06 681.305 88.6V95.52H682.665V88.26C682.665 86.02 681.245 84.54 678.785 84.54ZM690.566 84.76C690.126 84.6 689.626 84.54 689.026 84.54C687.386 84.54 686.386 85.6 685.926 86.64V84.74H684.586V95.52H685.946V89.4C685.946 87.38 687.066 85.92 688.846 85.92C689.366 85.92 689.786 86 690.146 86.14L690.566 84.76ZM695.278 84.54C692.398 84.54 690.698 86.32 690.698 89.44V90.78C690.698 93.88 692.398 95.68 695.278 95.68C698.158 95.68 699.858 93.88 699.858 90.78V89.44C699.858 86.34 698.158 84.54 695.278 84.54ZM695.278 94.48C693.298 94.48 692.078 93.24 692.078 90.7V89.52C692.078 86.98 693.298 85.74 695.278 85.74C697.258 85.74 698.478 86.98 698.478 89.52V90.7C698.478 93.24 697.258 94.48 695.278 94.48ZM705.046 95.68C706.746 95.68 707.866 94.84 708.366 94.02V95.52H709.706V84.74H708.346V91.74C708.346 93 707.066 94.44 705.246 94.44C703.106 94.44 702.646 93.16 702.646 91.62V84.74H701.286V91.96C701.286 94.2 702.586 95.68 705.046 95.68ZM718.728 95.38C718.728 97.64 717.668 98.7 715.688 98.7C714.468 98.7 713.708 98.5 712.708 97.8L712.088 98.86C712.988 99.56 714.168 99.98 715.688 99.98C718.368 99.98 720.088 98.4 720.088 95.34V84.74H718.748V86.06C718.188 85.26 717.088 84.54 715.508 84.54C713.048 84.54 711.228 86.22 711.228 89.16V90.86C711.228 93.8 713.048 95.48 715.528 95.48C716.768 95.48 718.108 94.98 718.708 93.9H718.728V95.38ZM712.588 89.36C712.588 87.08 713.768 85.74 715.588 85.74C717.428 85.74 718.728 87.16 718.728 88.42V91.46C718.728 93.36 717.328 94.28 715.588 94.28C713.788 94.28 712.588 92.96 712.588 90.66V89.36ZM726.75 84.54C725.05 84.54 723.97 85.42 723.47 86.24V80.4H722.11V95.52H723.47V88.52C723.47 87.26 724.73 85.78 726.55 85.78C728.69 85.78 729.27 87.06 729.27 88.6V95.52H730.63V88.26C730.63 86.02 729.21 84.54 726.75 84.54ZM737.191 92.52C737.191 94.86 738.091 95.62 739.971 95.62C740.551 95.62 741.371 95.52 741.791 95.36L741.591 94.24C741.091 94.38 740.611 94.44 740.071 94.44C738.991 94.44 738.551 93.92 738.551 92.46V85.9H741.531V84.74H738.551V81.96H737.191V84.74H735.351V85.9H737.191V92.52ZM748.885 84.76C748.445 84.6 747.945 84.54 747.345 84.54C745.705 84.54 744.705 85.6 744.245 86.64V84.74H742.905V95.52H744.265V89.4C744.265 87.38 745.385 85.92 747.165 85.92C747.685 85.92 748.105 86 748.465 86.14L748.885 84.76ZM752.437 95.68C753.257 95.68 754.017 95.52 754.617 95.22C755.177 94.94 755.617 94.54 755.817 94.2H755.837V95.52H757.157V87.98C757.157 85.8 755.677 84.54 753.277 84.54C751.637 84.54 750.417 85.12 749.417 85.82L750.077 86.86C750.997 86.22 752.097 85.76 753.257 85.76C754.937 85.76 755.817 86.64 755.817 88.2V89.2H752.777C750.277 89.2 748.977 90.42 748.977 92.16V92.6C748.977 94.5 750.397 95.68 752.437 95.68ZM755.817 92.16C755.817 92.98 755.377 93.52 754.797 93.88C754.157 94.28 753.497 94.5 752.637 94.5C751.537 94.5 750.337 93.94 750.337 92.54V92.22C750.337 91.12 751.077 90.34 752.797 90.34H755.817V92.16ZM763.621 84.54C761.921 84.54 760.821 85.42 760.321 86.24V84.74H758.981V95.52H760.341V88.52C760.341 87.26 761.601 85.78 763.421 85.78C765.561 85.78 766.141 87.06 766.141 88.6V95.52H767.501V88.26C767.501 86.02 766.081 84.54 763.621 84.54ZM772.842 94.46C771.582 94.46 770.422 94 769.442 93.34L768.782 94.42C769.802 95.16 771.182 95.68 772.922 95.68C775.202 95.68 776.882 94.48 776.882 92.76V92.46C776.882 90.74 775.762 89.88 773.102 89.38C771.402 89.06 770.402 88.58 770.402 87.64V87.42C770.402 86.48 771.282 85.74 772.902 85.74C774.282 85.74 775.122 86.08 776.022 86.68L776.642 85.66C775.762 85 774.582 84.54 772.942 84.54C770.302 84.54 769.042 85.86 769.042 87.4V87.68C769.042 89.44 770.462 90.14 772.622 90.56C774.682 90.96 775.522 91.44 775.522 92.52V92.72C775.522 93.64 774.582 94.46 772.842 94.46ZM779.504 94.24C780.084 95 781.184 95.68 782.704 95.68C785.164 95.68 786.984 94 786.984 91.06V89.16C786.984 86.22 785.264 84.54 782.704 84.54C781.364 84.54 780.104 85.18 779.464 86.26V84.74H778.124V99.8H779.484V94.24H779.504ZM785.624 90.86C785.624 93.14 784.444 94.48 782.624 94.48C780.784 94.48 779.484 93.2 779.484 91.94V88.78C779.484 86.88 781.144 85.78 782.624 85.78C784.464 85.78 785.624 87.06 785.624 89.36V90.86ZM791.231 95.68C792.051 95.68 792.811 95.52 793.411 95.22C793.971 94.94 794.411 94.54 794.611 94.2H794.631V95.52H795.951V87.98C795.951 85.8 794.471 84.54 792.071 84.54C790.431 84.54 789.211 85.12 788.211 85.82L788.871 86.86C789.791 86.22 790.891 85.76 792.051 85.76C793.731 85.76 794.611 86.64 794.611 88.2V89.2H791.571C789.071 89.2 787.771 90.42 787.771 92.16V92.6C787.771 94.5 789.191 95.68 791.231 95.68ZM794.611 92.16C794.611 92.98 794.171 93.52 793.591 93.88C792.951 94.28 792.291 94.5 791.431 94.5C790.331 94.5 789.131 93.94 789.131 92.54V92.22C789.131 91.12 789.871 90.34 791.591 90.34H794.611V92.16ZM803.755 84.76C803.315 84.6 802.815 84.54 802.215 84.54C800.575 84.54 799.575 85.6 799.115 86.64V84.74H797.775V95.52H799.135V89.4C799.135 87.38 800.255 85.92 802.035 85.92C802.555 85.92 802.975 86 803.335 86.14L803.755 84.76ZM805.248 89.42V89.24C805.248 87.12 806.368 85.74 808.268 85.74C810.148 85.74 811.248 87 811.248 89.24V89.42H805.248ZM811.768 93.42C810.988 93.98 809.908 94.48 808.468 94.48C806.488 94.48 805.248 93.12 805.248 90.74V90.56H812.608V89.44C812.608 86.42 811.068 84.54 808.268 84.54C805.568 84.54 803.888 86.34 803.888 89.4V90.74C803.888 93.88 805.588 95.68 808.448 95.68C810.268 95.68 811.508 95.06 812.368 94.46L811.768 93.42ZM818.726 84.54C817.026 84.54 815.926 85.42 815.426 86.24V84.74H814.086V95.52H815.446V88.52C815.446 87.26 816.706 85.78 818.526 85.78C820.666 85.78 821.246 87.06 821.246 88.6V95.52H822.606V88.26C822.606 86.02 821.186 84.54 818.726 84.54ZM825.367 92.52C825.367 94.86 826.267 95.62 828.147 95.62C828.727 95.62 829.547 95.52 829.967 95.36L829.767 94.24C829.267 94.38 828.787 94.44 828.247 94.44C827.167 94.44 826.727 93.92 826.727 92.46V85.9H829.707V84.74H826.727V81.96H825.367V84.74H823.527V85.9H825.367V92.52ZM700.368 123.68C701.188 123.68 701.948 123.52 702.548 123.22C703.108 122.94 703.548 122.54 703.748 122.2H703.768V123.52H705.088V115.98C705.088 113.8 703.608 112.54 701.208 112.54C699.568 112.54 698.348 113.12 697.348 113.82L698.008 114.86C698.928 114.22 700.028 113.76 701.188 113.76C702.868 113.76 703.748 114.64 703.748 116.2V117.2H700.708C698.208 117.2 696.908 118.42 696.908 120.16V120.6C696.908 122.5 698.328 123.68 700.368 123.68ZM703.748 120.16C703.748 120.98 703.308 121.52 702.728 121.88C702.088 122.28 701.428 122.5 700.568 122.5C699.468 122.5 698.268 121.94 698.268 120.54V120.22C698.268 119.12 699.008 118.34 700.728 118.34H703.748V120.16ZM711.553 112.54C709.853 112.54 708.753 113.42 708.252 114.24V112.74H706.913V123.52H708.273V116.52C708.273 115.26 709.533 113.78 711.353 113.78C713.493 113.78 714.073 115.06 714.073 116.6V123.52H715.433V116.26C715.433 114.02 714.013 112.54 711.553 112.54ZM724.393 123.52H725.733V108.4H724.373V114.06C723.813 113.26 722.733 112.54 721.153 112.54C718.693 112.54 716.873 114.22 716.873 117.16V119.06C716.873 122 718.693 123.68 721.173 123.68C722.413 123.68 723.773 123.18 724.373 122.1H724.393V123.52ZM718.233 117.36C718.233 115.08 719.413 113.74 721.233 113.74C723.073 113.74 724.373 115.16 724.373 116.42V119.66C724.373 121.56 722.973 122.48 721.233 122.48C719.433 122.48 718.233 121.16 718.233 118.86V117.36ZM731.595 123.52H732.955V112.74H731.595V123.52ZM731.535 110.68H733.015V109.16H731.535V110.68ZM739.663 112.54C737.963 112.54 736.863 113.42 736.363 114.24V112.74H735.023V123.52H736.383V116.52C736.383 115.26 737.643 113.78 739.463 113.78C741.603 113.78 742.183 115.06 742.183 116.6V123.52H743.543V116.26C743.543 114.02 742.123 112.54 739.663 112.54ZM746.303 120.52C746.303 122.86 747.203 123.62 749.083 123.62C749.663 123.62 750.483 123.52 750.903 123.36L750.703 122.24C750.203 122.38 749.723 122.44 749.183 122.44C748.103 122.44 747.663 121.92 747.663 120.46V113.9H750.643V112.74H747.663V109.96H746.303V112.74H744.463V113.9H746.303V120.52ZM752.877 117.42V117.24C752.877 115.12 753.997 113.74 755.897 113.74C757.777 113.74 758.877 115 758.877 117.24V117.42H752.877ZM759.397 121.42C758.617 121.98 757.537 122.48 756.097 122.48C754.117 122.48 752.877 121.12 752.877 118.74V118.56H760.237V117.44C760.237 114.42 758.697 112.54 755.897 112.54C753.197 112.54 751.517 114.34 751.517 117.4V118.74C751.517 121.88 753.217 123.68 756.077 123.68C757.897 123.68 759.137 123.06 759.997 122.46L759.397 121.42ZM768.618 123.38C768.618 125.64 767.558 126.7 765.578 126.7C764.358 126.7 763.598 126.5 762.598 125.8L761.978 126.86C762.878 127.56 764.058 127.98 765.578 127.98C768.258 127.98 769.978 126.4 769.978 123.34V112.74H768.638V114.06C768.078 113.26 766.978 112.54 765.398 112.54C762.938 112.54 761.118 114.22 761.118 117.16V118.86C761.118 121.8 762.938 123.48 765.418 123.48C766.658 123.48 767.998 122.98 768.598 121.9H768.618V123.38ZM762.478 117.36C762.478 115.08 763.658 113.74 765.478 113.74C767.318 113.74 768.618 115.16 768.618 116.42V119.46C768.618 121.36 767.218 122.28 765.478 122.28C763.678 122.28 762.478 120.96 762.478 118.66V117.36ZM777.98 112.76C777.54 112.6 777.04 112.54 776.44 112.54C774.8 112.54 773.8 113.6 773.34 114.64V112.74H772V123.52H773.36V117.4C773.36 115.38 774.48 113.92 776.26 113.92C776.78 113.92 777.2 114 777.56 114.14L777.98 112.76ZM778.672 123.52H780.032V112.74H778.672V123.52ZM778.612 110.68H780.092V109.16H778.612V110.68ZM782.94 120.52C782.94 122.86 783.84 123.62 785.72 123.62C786.3 123.62 787.12 123.52 787.54 123.36L787.34 122.24C786.84 122.38 786.36 122.44 785.82 122.44C784.74 122.44 784.3 121.92 784.3 120.46V113.9H787.28V112.74H784.3V109.96H782.94V112.74H781.1V113.9H782.94V120.52ZM787.394 112.74L791.434 123.7L790.054 127.56L791.214 127.98L796.814 112.74H795.414L792.134 122L788.794 112.74H787.394ZM703.97 140.54C702.25 140.54 701.17 141.58 700.69 142.5C700.21 141.26 699.15 140.54 697.43 140.54C695.85 140.54 694.89 141.38 694.41 142.24V140.74H693.07V151.52H694.43V144.52C694.43 143.26 695.41 141.78 697.19 141.78C699.13 141.78 699.61 142.88 699.61 144.62V151.52H700.97V144.44C701.01 143.2 701.99 141.78 703.73 141.78C705.67 141.78 706.15 142.88 706.15 144.62V151.52H707.51V144.26C707.51 141.98 706.41 140.54 703.97 140.54ZM712.349 151.68C713.169 151.68 713.929 151.52 714.529 151.22C715.089 150.94 715.529 150.54 715.729 150.2H715.749V151.52H717.069V143.98C717.069 141.8 715.589 140.54 713.189 140.54C711.549 140.54 710.329 141.12 709.329 141.82L709.989 142.86C710.909 142.22 712.009 141.76 713.169 141.76C714.849 141.76 715.729 142.64 715.729 144.2V145.2H712.689C710.189 145.2 708.889 146.42 708.889 148.16V148.6C708.889 150.5 710.309 151.68 712.349 151.68ZM715.729 148.16C715.729 148.98 715.289 149.52 714.709 149.88C714.069 150.28 713.409 150.5 712.549 150.5C711.449 150.5 710.249 149.94 710.249 148.54V148.22C710.249 147.12 710.989 146.34 712.709 146.34H715.729V148.16ZM723.533 140.54C721.833 140.54 720.733 141.42 720.233 142.24V140.74H718.893V151.52H720.253V144.52C720.253 143.26 721.513 141.78 723.333 141.78C725.473 141.78 726.053 143.06 726.053 144.6V151.52H727.413V144.26C727.413 142.02 725.993 140.54 723.533 140.54ZM732.254 151.68C733.074 151.68 733.834 151.52 734.434 151.22C734.994 150.94 735.434 150.54 735.634 150.2H735.654V151.52H736.974V143.98C736.974 141.8 735.494 140.54 733.094 140.54C731.454 140.54 730.234 141.12 729.234 141.82L729.894 142.86C730.814 142.22 731.914 141.76 733.074 141.76C734.754 141.76 735.634 142.64 735.634 144.2V145.2H732.594C730.094 145.2 728.794 146.42 728.794 148.16V148.6C728.794 150.5 730.214 151.68 732.254 151.68ZM735.634 148.16C735.634 148.98 735.194 149.52 734.614 149.88C733.974 150.28 733.314 150.5 732.454 150.5C731.354 150.5 730.154 149.94 730.154 148.54V148.22C730.154 147.12 730.894 146.34 732.614 146.34H735.634V148.16ZM745.798 151.38C745.798 153.64 744.738 154.7 742.758 154.7C741.538 154.7 740.778 154.5 739.778 153.8L739.158 154.86C740.058 155.56 741.238 155.98 742.758 155.98C745.438 155.98 747.158 154.4 747.158 151.34V140.74H745.818V142.06C745.258 141.26 744.158 140.54 742.578 140.54C740.118 140.54 738.298 142.22 738.298 145.16V146.86C738.298 149.8 740.118 151.48 742.598 151.48C743.838 151.48 745.178 150.98 745.778 149.9H745.798V151.38ZM739.658 145.36C739.658 143.08 740.838 141.74 742.658 141.74C744.498 141.74 745.798 143.16 745.798 144.42V147.46C745.798 149.36 744.398 150.28 742.658 150.28C740.858 150.28 739.658 148.96 739.658 146.66V145.36ZM750.04 145.42V145.24C750.04 143.12 751.16 141.74 753.06 141.74C754.94 141.74 756.04 143 756.04 145.24V145.42H750.04ZM756.56 149.42C755.78 149.98 754.7 150.48 753.26 150.48C751.28 150.48 750.04 149.12 750.04 146.74V146.56H757.4V145.44C757.4 142.42 755.86 140.54 753.06 140.54C750.36 140.54 748.68 142.34 748.68 145.4V146.74C748.68 149.88 750.38 151.68 753.24 151.68C755.06 151.68 756.3 151.06 757.16 150.46L756.56 149.42ZM769.778 140.54C768.058 140.54 766.978 141.58 766.498 142.5C766.018 141.26 764.958 140.54 763.238 140.54C761.658 140.54 760.698 141.38 760.218 142.24V140.74H758.878V151.52H760.238V144.52C760.238 143.26 761.218 141.78 762.998 141.78C764.938 141.78 765.418 142.88 765.418 144.62V151.52H766.778V144.44C766.818 143.2 767.798 141.78 769.538 141.78C771.478 141.78 771.958 142.88 771.958 144.62V151.52H773.318V144.26C773.318 141.98 772.218 140.54 769.778 140.54ZM776.097 145.42V145.24C776.097 143.12 777.217 141.74 779.117 141.74C780.997 141.74 782.097 143 782.097 145.24V145.42H776.097ZM782.617 149.42C781.837 149.98 780.757 150.48 779.317 150.48C777.337 150.48 776.097 149.12 776.097 146.74V146.56H783.457V145.44C783.457 142.42 781.917 140.54 779.117 140.54C776.417 140.54 774.737 142.34 774.737 145.4V146.74C774.737 149.88 776.437 151.68 779.297 151.68C781.117 151.68 782.357 151.06 783.217 150.46L782.617 149.42ZM789.575 140.54C787.875 140.54 786.775 141.42 786.275 142.24V140.74H784.935V151.52H786.295V144.52C786.295 143.26 787.555 141.78 789.375 141.78C791.515 141.78 792.095 143.06 792.095 144.6V151.52H793.455V144.26C793.455 142.02 792.035 140.54 789.575 140.54ZM796.216 148.52C796.216 150.86 797.116 151.62 798.996 151.62C799.576 151.62 800.396 151.52 800.816 151.36L800.616 150.24C800.116 150.38 799.636 150.44 799.096 150.44C798.016 150.44 797.576 149.92 797.576 148.46V141.9H800.556V140.74H797.576V137.96H796.216V140.74H794.376V141.9H796.216V148.52Z" fill="#222222"/>
<defs>
<radialGradient id="paint0_angular_182_2164" cx="0" cy="0" r="1" gradientUnits="userSpaceOnUse" gradientTransform="translate(417.21 185.815) rotate(-3.7504) scale(180.603 186.227)">
<stop offset="0.0948314" stop-color="#ACE4F3"/>
<stop offset="0.214596" stop-color="#319EBA"/>
<stop offset="0.475858" stop-color="#319EBA"/>
</radialGradient>
<radialGradient id="paint1_angular_182_2164" cx="0" cy="0" r="1" gradientUnits="userSpaceOnUse" gradientTransform="translate(166.616 185.813) rotate(-3.74892) scale(180.603 186.154)">
<stop offset="0.0948314" stop-color="#C1EDE6"/>
<stop offset="0.214596" stop-color="#34BAA5"/>
<stop offset="0.475858" stop-color="#33B9A5"/>
</radialGradient>
<radialGradient id="paint2_angular_182_2164" cx="0" cy="0" r="1" gradientUnits="userSpaceOnUse" gradientTransform="translate(166.616 162.191) rotate(3.7488) scale(180.603 186.147)">
<stop offset="0.0948314" stop-color="#C1EDE6"/>
<stop offset="0.214596" stop-color="#34BAA5"/>
<stop offset="0.475858" stop-color="#33B9A5"/>
</radialGradient>
<radialGradient id="paint3_angular_182_2164" cx="0" cy="0" r="1" gradientUnits="userSpaceOnUse" gradientTransform="translate(459.924 177.685) rotate(-58.2156) scale(182.657 179.615)">
<stop offset="0.133414" stop-color="#D2E6FF"/>
<stop offset="0.306443" stop-color="#4A89DB"/>
<stop offset="0.665858" stop-color="#4A89DB"/>
</radialGradient>
<radialGradient id="paint4_angular_182_2164" cx="0" cy="0" r="1" gradientUnits="userSpaceOnUse" gradientTransform="translate(739.784 162.191) rotate(3.75036) scale(180.603 186.225)">
<stop offset="0.0948314" stop-color="#D2E6FF"/>
<stop offset="0.214596" stop-color="#4A89DB"/>
<stop offset="0.475858" stop-color="#4A89DB"/>
</radialGradient>
<radialGradient id="paint5_angular_182_2164" cx="0" cy="0" r="1" gradientUnits="userSpaceOnUse" gradientTransform="translate(739.616 185.815) rotate(-3.7504) scale(180.603 186.227)">
<stop offset="0.0948314" stop-color="#D2E6FF"/>
<stop offset="0.214596" stop-color="#4A89DB"/>
<stop offset="0.475858" stop-color="#4A89DB"/>
</radialGradient>
<radialGradient id="paint6_angular_182_2164" cx="0" cy="0" r="1" gradientUnits="userSpaceOnUse" gradientTransform="translate(453.124 162.191) rotate(3.75036) scale(180.603 186.225)">
<stop offset="0.0948314" stop-color="#D2E6FF"/>
<stop offset="0.214596" stop-color="#4A89DB"/>
<stop offset="0.475858" stop-color="#4A89DB"/>
</radialGradient>
<radialGradient id="paint7_angular_182_2164" cx="0" cy="0" r="1" gradientUnits="userSpaceOnUse" gradientTransform="translate(453.124 162.191) rotate(3.7504) scale(180.603 186.227)">
<stop offset="0.0948314" stop-color="#AFE6F5"/>
<stop offset="0.214596" stop-color="#319EBA"/>
<stop offset="0.475858" stop-color="#319EBA"/>
</radialGradient>
</defs>
</svg>
