<svg width="920" height="349" viewBox="0 0 920 349" fill="none" xmlns="http://www.w3.org/2000/svg">
<path d="M699.74 207.414C704.752 207.414 708.28 205.594 708.28 202.458V201.394C708.28 198.258 704.752 196.438 699.74 196.438C694.728 196.438 691.2 198.258 691.2 201.394V202.458C691.2 205.594 694.728 207.414 699.74 207.414ZM699.74 199.294C702.876 199.294 704.78 200.358 704.78 201.59V202.262C704.78 203.494 702.876 204.558 699.74 204.558C696.604 204.558 694.7 203.494 694.7 202.262V201.59C694.7 200.358 696.604 199.294 699.74 199.294ZM694.364 214.106H690.892V221.834H708.84V218.838H694.364V214.106ZM687.812 208.702V211.642H695.904V216.29H699.404V211.642H702.456V216.29H705.956V211.642H711.668V208.702H687.812ZM733.54 196.074H729.984V222.114H733.54V196.074ZM716.936 208.226H725.336V198.09H713.436V201.086H721.836V205.342H713.436V215.926H718.812C722.228 215.926 725.448 215.786 728.08 215.394L727.688 212.426C725.084 212.762 722.2 212.93 719.652 212.93H716.936V208.226ZM748.973 222.898C753.593 222.898 757.121 221.022 757.121 217.858V216.626C757.121 213.462 753.593 211.586 748.973 211.586C744.353 211.586 740.825 213.462 740.825 216.626V217.858C740.825 221.022 744.353 222.898 748.973 222.898ZM748.973 214.47C751.409 214.47 753.649 215.562 753.649 216.878V217.606C753.649 218.922 751.409 220.014 748.973 220.014C746.537 220.014 744.297 218.922 744.297 217.606V216.878C744.297 215.562 746.537 214.47 748.973 214.47ZM749.617 199.686V202.654H753.537V205.118H749.169V208.086H753.537V211.474H757.037V196.074H753.537V199.686H749.617ZM737.185 212.034C746.117 208.254 748.301 206.602 748.301 202.15V197.614H736.877V200.61H744.773V201.814C744.773 204.782 743.681 205.79 735.757 209.15L737.185 212.034ZM773.841 199.042V202.01H777.369V204.95H773.841V207.918H777.369V211.418H780.869V196.074H777.369V199.042H773.841ZM766.337 210.046C770.509 210.046 772.973 207.162 772.973 204.138V202.906C772.973 199.882 770.509 196.998 766.337 196.998C762.137 196.998 759.701 199.882 759.701 202.906V204.138C759.701 207.162 762.137 210.046 766.337 210.046ZM766.337 200.022C768.437 200.022 769.613 201.562 769.613 202.99V204.054C769.613 205.482 768.437 207.022 766.337 207.022C764.237 207.022 763.061 205.482 763.061 204.054V202.99C763.061 201.562 764.237 200.022 766.337 200.022ZM772.805 222.898C777.425 222.898 780.953 220.994 780.953 217.83V216.598C780.953 213.434 777.425 211.53 772.805 211.53C768.185 211.53 764.657 213.434 764.657 216.598V217.83C764.657 220.994 768.185 222.898 772.805 222.898ZM772.805 214.414C775.241 214.414 777.481 215.534 777.481 216.906V217.522C777.481 218.894 775.241 220.014 772.805 220.014C770.369 220.014 768.129 218.894 768.129 217.522V216.906C768.129 215.534 770.369 214.414 772.805 214.414ZM798.037 198.314C792.857 198.314 789.077 200.974 789.077 207.022V210.634C789.077 216.654 792.969 219.118 798.093 219.118C800.501 219.118 803.329 218.474 805.121 217.27V207.442H797.337V210.438H801.565V215.282C800.557 215.674 799.577 215.87 798.261 215.87C794.985 215.87 792.661 214.302 792.661 209.906V207.834C792.661 202.71 794.929 201.562 798.037 201.562C799.717 201.562 801.509 202.01 802.993 203.326L804.925 200.582C802.853 198.902 800.417 198.314 798.037 198.314Z" fill="#4B8ADC"/>
<path d="M698.538 134.073H687.513V132.267H698.097V130.524H687.513V128.718H698.244V126.975H685.455V135.816H698.538V134.073ZM692.994 145.35V139.344H700.827V137.58H683.061V139.344H690.894V145.35H692.994ZM705.282 142.2C705.282 144.237 707.508 145.896 711.225 145.896C714.942 145.896 717.168 144.237 717.168 142.2V141.36C717.168 139.323 714.942 137.664 711.225 137.664C707.508 137.664 705.282 139.323 705.282 141.36V142.2ZM710.847 127.122H702.111V135.858H710.847V127.122ZM717.084 137.412V125.988H715.047V128.781H711.981V130.566H715.047V132.54H711.981V134.325H715.047V137.412H717.084ZM715.131 142.074C715.131 143.103 713.619 144.195 711.225 144.195C708.831 144.195 707.319 143.103 707.319 142.074V141.486C707.319 140.457 708.831 139.365 711.225 139.365C713.619 139.365 715.131 140.457 715.131 141.486V142.074ZM704.148 128.886H708.81V134.094H704.148V128.886ZM724.5 141.024C727.44 141.024 729.183 139.008 729.183 136.971V135.753C729.183 133.716 727.44 131.679 724.5 131.679C721.56 131.679 719.817 133.716 719.817 135.753V136.971C719.817 139.008 721.56 141.024 724.5 141.024ZM736.911 133.674H733.929V125.988H731.85V145.35H733.929V135.48H736.911V133.674ZM724.5 133.422C726.159 133.422 727.23 134.451 727.23 135.984V136.74C727.23 138.273 726.159 139.281 724.5 139.281C722.841 139.281 721.77 138.273 721.77 136.74V135.984C721.77 134.451 722.841 133.422 724.5 133.422ZM718.851 128.844V130.608H730.044V128.844H725.55V126.114H723.471V128.844H718.851ZM745.125 141.003V133.968H743.046V141.003H736.62V142.767H754.386V141.003H745.125ZM738.804 127.731V129.537H749.703V131.007C749.703 133.611 749.493 135.858 748.989 138.504L751.068 138.756C751.551 136.131 751.782 134.031 751.782 130.272V127.731H738.804ZM762.832 142.305C762.832 144.237 764.953 145.896 768.775 145.896C772.597 145.896 774.718 144.237 774.718 142.305V141.465C774.718 139.533 772.597 137.874 768.775 137.874C764.953 137.874 762.832 139.533 762.832 141.465V142.305ZM764.764 133.548C764.911 133.863 765.331 134.262 765.961 134.787C766.969 135.627 767.872 136.32 768.964 137.076L770.14 135.564C768.901 134.745 767.809 133.947 766.822 133.044C765.898 132.204 765.73 131.49 765.73 130.188V129.915H769.636V128.13H765.73V125.841H763.63V128.13H759.451V129.915H763.63V130.272C763.63 131.763 763.273 132.561 762.244 133.569C761.488 134.304 760.249 135.249 758.905 136.194L760.123 137.685C761.299 136.866 762.433 135.963 763.336 135.186C764.008 134.619 764.617 133.905 764.743 133.548H764.764ZM774.634 137.601V125.988H772.576V131.364H769.048V133.149H772.576V137.601H774.634ZM772.681 142.137C772.681 143.103 771.274 144.195 768.775 144.195C766.276 144.195 764.869 143.103 764.869 142.137V141.633C764.869 140.667 766.276 139.575 768.775 139.575C771.274 139.575 772.681 140.667 772.681 141.633V142.137ZM780.412 138.42V145.329H792.487V138.42H780.412ZM780.643 136.425C783.709 136.425 785.557 136.362 787.888 136.089L787.699 134.367C785.116 134.661 783.163 134.661 780.853 134.661H779.509V132.498H785.578V126.87H777.388V128.634H783.52V130.776H777.451V136.425H780.643ZM792.487 137.475V125.988H790.45V128.529H786.964V130.314H790.45V131.847H786.964V133.632H790.45V137.475H792.487ZM782.47 140.184H790.429V143.565H782.47V140.184ZM799.966 138.399C802.969 138.399 804.481 136.635 804.481 134.829V134.199C804.481 132.393 802.969 130.629 799.966 130.629C796.963 130.629 795.451 132.372 795.451 134.199V134.829C795.451 136.635 796.963 138.399 799.966 138.399ZM812.209 131.742H809.458V125.988H807.4V140.037H809.458V133.548H812.209V131.742ZM799.714 139.785H797.635V145.14H809.983V143.334H799.714V139.785ZM805.51 128.13H800.995V125.799H798.937V128.13H794.401V129.894H805.51V128.13ZM799.966 136.74C798.265 136.74 797.425 135.753 797.425 134.724V134.304C797.425 133.275 798.244 132.288 799.966 132.288C801.688 132.288 802.507 133.275 802.507 134.304V134.724C802.507 135.753 801.667 136.74 799.966 136.74ZM705.282 171.2C705.282 173.237 707.508 174.896 711.225 174.896C714.942 174.896 717.168 173.237 717.168 171.2V170.36C717.168 168.323 714.942 166.664 711.225 166.664C707.508 166.664 705.282 168.323 705.282 170.36V171.2ZM708.516 159.083C708.516 161.309 707.382 162.338 701.544 164.774L702.363 166.433C708.978 163.619 710.553 162.443 710.553 159.23V156.185H702.342V157.949H708.516V159.083ZM717.084 166.412V154.988H715.047V157.781H711.624V159.566H715.047V161.813H711.309V163.598H715.047V166.412H717.084ZM715.131 171.074C715.131 172.103 713.619 173.195 711.225 173.195C708.831 173.195 707.319 172.103 707.319 171.074V170.486C707.319 169.457 708.831 168.365 711.225 168.365C713.619 168.365 715.131 169.457 715.131 170.486V171.074ZM723.135 171.2C723.135 173.237 725.361 174.896 729.078 174.896C732.795 174.896 735.021 173.237 735.021 171.2V170.36C735.021 168.323 732.795 166.664 729.078 166.664C725.361 166.664 723.135 168.323 723.135 170.36V171.2ZM728.994 159.965C728.994 158.096 727.482 155.723 724.185 155.723C720.888 155.723 719.376 158.096 719.376 159.965V161.036C719.376 162.905 720.888 165.278 724.185 165.278C727.482 165.278 728.994 162.905 728.994 161.036V159.965ZM734.937 166.412V154.988H732.9V157.403H729.855V159.188H732.9V161.771H729.855V163.556H732.9V166.412H734.937ZM732.984 171.074C732.984 172.103 731.472 173.195 729.078 173.195C726.684 173.195 725.172 172.103 725.172 171.074V170.486C725.172 169.457 726.684 168.365 729.078 168.365C731.472 168.365 732.984 169.457 732.984 170.486V171.074ZM726.999 160.931C726.999 162.17 726.117 163.472 724.185 163.472C722.253 163.472 721.371 162.17 721.371 160.931V160.07C721.371 158.831 722.253 157.529 724.185 157.529C726.117 157.529 726.999 158.831 726.999 160.07V160.931ZM752.391 174.476V172.775H741.198V171.284H751.824V166.496H739.056V168.197H749.787V169.625H739.161V174.476H752.391ZM736.62 163.43V165.152H754.386V163.43H736.62ZM745.503 155.093C741.66 155.093 739.308 156.458 739.308 158.432V158.936C739.308 160.91 741.66 162.275 745.503 162.275C749.346 162.275 751.698 160.91 751.698 158.936V158.432C751.698 156.458 749.346 155.093 745.503 155.093ZM745.503 160.553C742.857 160.553 741.345 159.797 741.345 158.894V158.474C741.345 157.571 742.857 156.815 745.503 156.815C748.149 156.815 749.661 157.571 749.661 158.474V158.894C749.661 159.797 748.149 160.553 745.503 160.553ZM773.395 158.726H763.105V157.34H773.5V155.639H761.068V163.514H766.276V165.047H758.464V166.769H776.23V165.047H768.376V163.514H773.626V161.813H763.105V160.406H773.395V158.726ZM767.347 174.917C771.064 174.917 773.395 173.51 773.395 171.62V170.99C773.395 169.058 771.043 167.693 767.347 167.693C763.651 167.693 761.299 169.037 761.299 170.99V171.62C761.299 173.531 763.651 174.917 767.347 174.917ZM767.347 169.394C769.72 169.394 771.337 170.192 771.337 171.116V171.494C771.337 172.418 769.72 173.216 767.347 173.216C764.974 173.216 763.357 172.418 763.357 171.494V171.116C763.357 170.192 764.974 169.394 767.347 169.394ZM782.113 167.399C785.116 167.399 786.628 165.635 786.628 163.829V163.199C786.628 161.393 785.116 159.629 782.113 159.629C779.11 159.629 777.598 161.372 777.598 163.199V163.829C777.598 165.635 779.11 167.399 782.113 167.399ZM794.356 160.742H791.605V154.988H789.547V169.037H791.605V162.548H794.356V160.742ZM781.861 168.785H779.782V174.14H792.13V172.334H781.861V168.785ZM787.657 157.13H783.142V154.799H781.084V157.13H776.548V158.894H787.657V157.13ZM782.113 165.74C780.412 165.74 779.572 164.753 779.572 163.724V163.304C779.572 162.275 780.391 161.288 782.113 161.288C783.835 161.288 784.654 162.275 784.654 163.304V163.724C784.654 164.753 783.814 165.74 782.113 165.74Z" fill="#222222"/>
<path d="M422.476 196.271H418.92V222.311H422.476V208.311H426.06V205.231H422.476V196.271ZM406.936 198.371H403.352V215.423H407.608C411.024 215.423 414.804 215.255 417.436 214.835L417.044 211.783C414.412 212.147 411.108 212.343 408.448 212.343H406.936V198.371ZM425.616 207.723V210.579H435.78V213.015H428.948V222.311H446.14V213.015H439.308V210.579H449.472V207.723H425.616ZM428.976 197.027V205.679H446.056V202.795H432.504V197.027H428.976ZM432.448 215.843H442.64V219.483H432.448V215.843ZM462.973 223.095C467.593 223.095 471.121 221.219 471.121 218.055V216.823C471.121 213.659 467.593 211.783 462.973 211.783C458.353 211.783 454.825 213.659 454.825 216.823V218.055C454.825 221.219 458.353 223.095 462.973 223.095ZM462.973 214.667C465.409 214.667 467.649 215.759 467.649 217.075V217.803C467.649 219.119 465.409 220.211 462.973 220.211C460.537 220.211 458.297 219.119 458.297 217.803V217.075C458.297 215.759 460.537 214.667 462.973 214.667ZM463.617 199.883V202.851H467.537V205.315H463.169V208.283H467.537V211.671H471.037V196.271H467.537V199.883H463.617ZM451.185 212.231C460.117 208.451 462.301 206.799 462.301 202.347V197.811H450.877V200.807H458.773V202.011C458.773 204.979 457.681 205.987 449.757 209.347L451.185 212.231ZM487.841 199.239V202.207H491.369V205.147H487.841V208.115H491.369V211.615H494.869V196.271H491.369V199.239H487.841ZM480.337 210.243C484.509 210.243 486.973 207.359 486.973 204.335V203.103C486.973 200.079 484.509 197.195 480.337 197.195C476.137 197.195 473.701 200.079 473.701 203.103V204.335C473.701 207.359 476.137 210.243 480.337 210.243ZM480.337 200.219C482.437 200.219 483.613 201.759 483.613 203.187V204.251C483.613 205.679 482.437 207.219 480.337 207.219C478.237 207.219 477.061 205.679 477.061 204.251V203.187C477.061 201.759 478.237 200.219 480.337 200.219ZM486.805 223.095C491.425 223.095 494.953 221.191 494.953 218.027V216.795C494.953 213.631 491.425 211.727 486.805 211.727C482.185 211.727 478.657 213.631 478.657 216.795V218.027C478.657 221.191 482.185 223.095 486.805 223.095ZM486.805 214.611C489.241 214.611 491.481 215.731 491.481 217.103V217.719C491.481 219.091 489.241 220.211 486.805 220.211C484.369 220.211 482.129 219.091 482.129 217.719V217.103C482.129 215.731 484.369 214.611 486.805 214.611ZM510.329 216.095C507.921 216.095 505.905 215.171 504.673 214.135L502.937 216.991C504.505 218.279 507.249 219.315 510.161 219.315C514.081 219.315 517.581 217.915 517.581 213.407V213.043C517.581 210.271 515.985 208.311 511.225 207.247C508.845 206.715 506.857 206.435 506.857 204.475V204.139C506.857 203.047 508.033 201.703 510.581 201.703C512.205 201.703 513.521 201.899 515.145 202.963L516.825 200.191C514.781 198.875 512.737 198.511 510.525 198.511C505.065 198.511 503.301 201.759 503.301 204.195V204.559C503.301 209.235 507.081 209.823 510.441 210.551C512.737 211.055 513.997 211.755 513.997 213.379V213.687C513.997 215.059 512.877 216.095 510.329 216.095Z" fill="#329EBC"/>
<path d="M414.184 132.981H411.202V125.988H409.123V145.35H411.202V134.787H414.184V132.981ZM401.815 135.627C401.983 136.047 402.487 136.635 403.075 137.265C403.873 138.126 404.818 139.071 406.267 140.415L407.611 138.987C406.351 137.874 405.427 136.992 404.524 136.005C403.243 134.577 402.844 133.716 402.844 132.057V127.395H400.744V132.057C400.744 133.548 400.408 134.493 399.127 135.942C398.182 136.992 397.09 138.063 395.809 139.197L397.174 140.604C398.602 139.302 399.715 138.189 400.576 137.244C401.248 136.509 401.605 136.089 401.794 135.627H401.815ZM427.081 139.596C425.359 139.764 423.763 139.89 421.768 139.953V138.063C424.015 137.706 425.317 136.32 425.317 134.85V134.052C425.317 132.351 423.574 130.755 420.613 130.755C417.652 130.755 415.909 132.351 415.909 134.052V134.85C415.909 136.383 417.295 137.811 419.71 138.105V140.016C418.219 140.058 416.497 140.058 414.397 140.058V141.822C421.033 141.822 423.742 141.696 427.249 141.36L427.081 139.596ZM430.273 145.35V125.988H428.215V145.35H430.273ZM426.115 128.172H421.621V125.841H419.563V128.172H414.922V129.957H426.115V128.172ZM420.613 136.446C418.87 136.446 417.925 135.564 417.925 134.682V134.22C417.925 133.338 418.849 132.456 420.613 132.456C422.356 132.456 423.301 133.338 423.301 134.22V134.682C423.301 135.564 422.377 136.446 420.613 136.446ZM444.052 139.176C442.33 139.344 440.692 139.47 438.823 139.533V136.278C441.322 135.858 442.855 134.01 442.855 132.204V131.238C442.855 129.18 440.923 127.08 437.752 127.08C434.581 127.08 432.649 129.18 432.649 131.238V132.204C432.649 134.031 434.182 135.879 436.702 136.278V139.596C435.274 139.617 433.678 139.638 431.83 139.617V141.423C437.332 141.423 440.692 141.276 444.241 140.919L444.052 139.176ZM450.163 133.38H447.265V125.988H445.207V145.35H447.265V135.186H450.163V133.38ZM437.752 134.556C435.988 134.556 434.644 133.359 434.644 132.078V131.364C434.644 130.02 435.988 128.886 437.752 128.886C439.516 128.886 440.86 130.02 440.86 131.364V132.078C440.86 133.359 439.516 134.556 437.752 134.556ZM462.514 132.981C462.745 133.464 463.606 134.199 464.971 135.06C466.231 135.858 467.764 136.74 469.318 137.622L470.326 136.005C468.667 135.102 467.449 134.409 466.126 133.548C463.858 132.057 463.543 131.196 463.543 129.138V127.248H461.443V129.138C461.443 131.196 461.002 132.099 459.091 133.401C457.684 134.346 456.361 135.102 454.681 136.026L455.71 137.664C457.453 136.698 458.797 135.879 460.015 135.102C461.422 134.199 462.283 133.464 462.493 132.981H462.514ZM463.522 141.003V136.845H461.443V141.003H453.61V142.767H471.376V141.003H463.522ZM486.395 129.726H476.105V128.34H486.5V126.639H474.068V134.514H479.276V136.047H471.464V137.769H489.23V136.047H481.376V134.514H486.626V132.813H476.105V131.406H486.395V129.726ZM480.347 145.917C484.064 145.917 486.395 144.51 486.395 142.62V141.99C486.395 140.058 484.043 138.693 480.347 138.693C476.651 138.693 474.299 140.037 474.299 141.99V142.62C474.299 144.531 476.651 145.917 480.347 145.917ZM480.347 140.394C482.72 140.394 484.337 141.192 484.337 142.116V142.494C484.337 143.418 482.72 144.216 480.347 144.216C477.974 144.216 476.357 143.418 476.357 142.494V142.116C476.357 141.192 477.974 140.394 480.347 140.394ZM495.05 141.024C497.99 141.024 499.733 139.008 499.733 136.971V135.753C499.733 133.716 497.99 131.679 495.05 131.679C492.11 131.679 490.367 133.716 490.367 135.753V136.971C490.367 139.008 492.11 141.024 495.05 141.024ZM507.461 133.674H504.479V125.988H502.4V145.35H504.479V135.48H507.461V133.674ZM495.05 133.422C496.709 133.422 497.78 134.451 497.78 135.984V136.74C497.78 138.273 496.709 139.281 495.05 139.281C493.391 139.281 492.32 138.273 492.32 136.74V135.984C492.32 134.451 493.391 133.422 495.05 133.422ZM489.401 128.844V130.608H500.594V128.844H496.1V126.114H494.021V128.844H489.401ZM515.675 141.003V133.968H513.596V141.003H507.17V142.767H524.936V141.003H515.675ZM509.354 127.731V129.537H520.253V131.007C520.253 133.611 520.043 135.858 519.539 138.504L521.618 138.756C522.101 136.131 522.332 134.031 522.332 130.272V127.731H509.354ZM430.631 167.399C433.634 167.399 435.146 165.635 435.146 163.829V163.199C435.146 161.393 433.634 159.629 430.631 159.629C427.628 159.629 426.116 161.372 426.116 163.199V163.829C426.116 165.635 427.628 167.399 430.631 167.399ZM441.005 169.037V154.988H438.947V161.435H436.112V163.22H438.947V169.037H441.005ZM430.988 168.785H428.909V174.14H441.404V172.334H430.988V168.785ZM436.259 157.13H431.639V154.799H429.581V157.13H425.066V158.894H436.259V157.13ZM430.631 165.74C428.93 165.74 428.09 164.753 428.09 163.724V163.304C428.09 162.275 428.909 161.288 430.631 161.288C432.353 161.288 433.172 162.275 433.172 163.304V163.724C433.172 164.753 432.332 165.74 430.631 165.74ZM448.653 167.63H446.574V174.14H459.132V172.334H448.653V167.63ZM458.67 168.764V154.988H456.612V168.764H458.67ZM448.758 162.17C448.884 162.485 449.325 162.926 449.955 163.451C450.963 164.291 451.992 165.152 453.063 165.971L454.281 164.522C453.042 163.619 451.803 162.632 450.816 161.729C449.808 160.805 449.724 160.112 449.724 158.81V155.891H447.624V158.894C447.624 160.364 447.33 161.162 446.259 162.233C445.524 162.968 444.18 164.102 442.836 165.131L444.075 166.601C445.188 165.719 446.469 164.648 447.33 163.85C447.981 163.262 448.632 162.527 448.737 162.17H448.758ZM466.275 170.024C469.215 170.024 470.958 168.008 470.958 165.971V164.753C470.958 162.716 469.215 160.679 466.275 160.679C463.335 160.679 461.592 162.716 461.592 164.753V165.971C461.592 168.008 463.335 170.024 466.275 170.024ZM478.686 162.674H475.704V154.988H473.625V174.35H475.704V164.48H478.686V162.674ZM466.275 162.422C467.934 162.422 469.005 163.451 469.005 164.984V165.74C469.005 167.273 467.934 168.281 466.275 168.281C464.616 168.281 463.545 167.273 463.545 165.74V164.984C463.545 163.451 464.616 162.422 466.275 162.422ZM460.626 157.844V159.608H471.819V157.844H467.325V155.114H465.246V157.844H460.626ZM478.395 164.774V166.538H496.161V164.774H478.395ZM483.036 168.302H480.957V174.14H493.977V172.334H483.036V168.302ZM481.083 155.744V162.548H493.62V160.784H483.141V155.744H481.083Z" fill="#222222"/>
<path fill-rule="evenodd" clip-rule="evenodd" d="M0.0118931 174.122C0.00397164 174.8 0 175.479 0 176.158C0 271.199 77.6411 348.244 173.416 348.244C269.191 348.244 346.832 271.199 346.832 176.158C346.832 175.479 346.828 174.8 346.82 174.122H316.611C316.621 174.8 316.626 175.478 316.626 176.158C316.626 254.297 252.729 318.037 173.416 318.037C94.1038 318.037 30.2065 254.297 30.2065 176.158C30.2065 175.478 30.2113 174.8 30.2209 174.122H0.0118931ZM0.011916 174.124C0.00397927 173.445 0 172.766 0 172.085C0 77.0453 77.6411 0 173.416 0C269.191 0 346.832 77.0453 346.832 172.085C346.832 172.766 346.828 173.445 346.82 174.124H316.611C316.621 173.446 316.626 172.766 316.626 172.085C316.626 93.9468 252.729 30.2065 173.416 30.2065C94.1038 30.2065 30.2065 93.9468 30.2065 172.085C30.2065 172.766 30.2113 173.446 30.221 174.124H0.011916ZM286.52 174.122C286.512 174.8 286.508 175.479 286.508 176.158C286.508 271.199 364.149 348.244 459.924 348.244C555.699 348.244 633.34 271.199 633.34 176.158C633.34 175.479 633.336 174.8 633.328 174.122H603.119C603.129 174.8 603.134 175.478 603.134 176.158C603.134 254.297 539.236 318.037 459.924 318.037C380.612 318.037 316.714 254.297 316.714 176.158C316.714 175.478 316.719 174.8 316.729 174.122H286.52ZM286.52 174.124C286.512 173.445 286.508 172.766 286.508 172.085C286.508 77.0453 364.149 0 459.924 0C555.699 0 633.34 77.0453 633.34 172.085C633.34 172.766 633.336 173.445 633.328 174.124H603.119C603.129 173.446 603.134 172.766 603.134 172.085C603.134 93.9468 539.236 30.2065 459.924 30.2065C380.612 30.2065 316.714 93.9468 316.714 172.085C316.714 172.766 316.719 173.446 316.729 174.124H286.52ZM573.178 174.122C573.17 174.8 573.166 175.479 573.166 176.158C573.166 271.199 650.807 348.244 746.582 348.244C842.357 348.244 919.998 271.199 919.998 176.158C919.998 175.479 919.994 174.8 919.986 174.122H889.777C889.787 174.8 889.792 175.478 889.792 176.158C889.792 254.297 825.895 318.037 746.582 318.037C667.27 318.037 603.372 254.297 603.372 176.158C603.372 175.478 603.377 174.8 603.387 174.122H573.178ZM573.178 174.124C573.17 173.445 573.166 172.766 573.166 172.085C573.166 77.0453 650.807 3.05176e-05 746.582 3.05176e-05C842.357 3.05176e-05 919.998 77.0453 919.998 172.085C919.998 172.766 919.994 173.445 919.986 174.124H889.777C889.787 173.446 889.792 172.766 889.792 172.085C889.792 93.9468 825.895 30.2065 746.582 30.2065C667.27 30.2065 603.372 93.9468 603.372 172.085C603.372 172.766 603.377 173.446 603.387 174.124H573.178Z" fill="url(#paint0_angular_1_270)"/>
<path fill-rule="evenodd" clip-rule="evenodd" d="M0.0118983 174.125C0.00397337 173.447 0 172.768 0 172.088C0 77.0479 77.6411 0.00263977 173.416 0.00263977C269.191 0.00263977 346.832 77.0479 346.832 172.088C346.832 172.768 346.828 173.447 346.82 174.125H316.611C316.621 173.447 316.626 172.768 316.626 172.088C316.626 93.9494 252.729 30.2091 173.416 30.2091C94.1038 30.2091 30.2065 93.9494 30.2065 172.088C30.2065 172.768 30.2113 173.447 30.221 174.125H0.0118983Z" fill="url(#paint1_angular_1_270)"/>
<path fill-rule="evenodd" clip-rule="evenodd" d="M0.0118983 174.123C0.00397337 174.801 0 175.48 0 176.16C0 271.2 77.6411 348.245 173.416 348.245C269.191 348.245 346.832 271.2 346.832 176.16C346.832 175.48 346.828 174.801 346.82 174.123H316.611C316.621 174.801 316.626 175.48 316.626 176.16C316.626 254.299 252.729 318.039 173.416 318.039C94.1038 318.039 30.2065 254.299 30.2065 176.16C30.2065 175.48 30.2113 174.801 30.221 174.123H0.0118983Z" fill="url(#paint2_angular_1_270)"/>
<path fill-rule="evenodd" clip-rule="evenodd" d="M286.52 174.121C286.512 174.799 286.508 175.478 286.508 176.158C286.508 271.198 364.149 348.243 459.924 348.243C555.699 348.243 633.34 271.198 633.34 176.158C633.34 175.478 633.336 174.799 633.328 174.121H603.119C603.129 174.799 603.134 175.478 603.134 176.158C603.134 254.296 539.236 318.037 459.924 318.037C380.612 318.037 316.714 254.296 316.714 176.158C316.714 175.478 316.719 174.799 316.729 174.121H286.52Z" fill="url(#paint3_angular_1_270)"/>
<path fill-rule="evenodd" clip-rule="evenodd" d="M573.18 174.123C573.172 174.801 573.168 175.48 573.168 176.16C573.168 271.2 650.809 348.245 746.584 348.245C842.359 348.245 920 271.2 920 176.16C920 175.48 919.996 174.801 919.988 174.123H889.779C889.789 174.801 889.794 175.48 889.794 176.16C889.794 254.298 825.896 318.039 746.584 318.039C667.272 318.039 603.374 254.298 603.374 176.16C603.374 175.48 603.379 174.801 603.389 174.123H573.18Z" fill="url(#paint4_angular_1_270)"/>
<path fill-rule="evenodd" clip-rule="evenodd" d="M573.18 174.123C573.172 173.445 573.168 172.765 573.168 172.085C573.168 77.0445 650.809 -0.000823975 746.584 -0.000823975C842.359 -0.000823975 920 77.0445 920 172.085C920 172.765 919.996 173.445 919.988 174.123H889.779C889.789 173.445 889.794 172.765 889.794 172.085C889.794 93.946 825.896 30.2056 746.584 30.2056C667.272 30.2056 603.374 93.946 603.374 172.085C603.374 172.765 603.379 173.445 603.389 174.123H573.18Z" fill="url(#paint5_angular_1_270)"/>
<path fill-rule="evenodd" clip-rule="evenodd" d="M286.52 174.123C286.512 174.801 286.508 175.48 286.508 176.16C286.508 271.2 364.149 348.245 459.924 348.245C555.699 348.245 633.34 271.2 633.34 176.16C633.34 175.48 633.336 174.801 633.328 174.123H603.119C603.129 174.801 603.134 175.48 603.134 176.16C603.134 254.298 539.236 318.039 459.924 318.039C380.612 318.039 316.714 254.298 316.714 176.16C316.714 175.48 316.719 174.801 316.729 174.123H286.52Z" fill="url(#paint6_angular_1_270)"/>
<path fill-rule="evenodd" clip-rule="evenodd" d="M286.52 174.123C286.512 174.802 286.508 175.481 286.508 176.161C286.508 271.202 364.149 348.247 459.924 348.247C555.699 348.247 633.34 271.202 633.34 176.161C633.34 175.481 633.336 174.802 633.328 174.123H603.119C603.129 174.801 603.134 175.481 603.134 176.161C603.134 254.3 539.236 318.04 459.924 318.04C380.612 318.04 316.714 254.3 316.714 176.161C316.714 175.481 316.719 174.801 316.729 174.123H286.52Z" fill="url(#paint7_angular_1_270)"/>
<path d="M118.172 196.83V206.014H124.976V208.562H114.812V211.474H138.668V208.562H128.504V206.014H135.252V203.102H121.7V196.83H118.172ZM117.92 216.486H131.92V222.422H135.448V213.574H117.92V216.486ZM143.292 215.478H157.264V222.422H160.792V212.482H143.292V215.478ZM155.276 196.41H151.944V211.25H155.276V204.978H157.432V211.306H160.792V196.074H157.432V201.926H155.276V196.41ZM151.496 208.058C150.404 207.134 149.368 206.182 148.388 205.202C147.016 203.83 146.764 202.738 146.764 200.89V197.306H143.292V201.058C143.292 202.906 142.956 204.054 141.584 205.51C140.464 206.686 139.26 207.834 138.084 208.87L140.352 211.194C141.752 209.934 143.04 208.674 143.768 207.918C144.552 207.106 144.972 206.602 145.14 206.126H145.168C145.336 206.546 145.812 207.05 146.652 207.834C147.38 208.506 148.556 209.57 149.424 210.298L151.496 208.058ZM175.973 222.898C180.593 222.898 184.121 221.022 184.121 217.858V216.626C184.121 213.462 180.593 211.586 175.973 211.586C171.353 211.586 167.825 213.462 167.825 216.626V217.858C167.825 221.022 171.353 222.898 175.973 222.898ZM175.973 214.47C178.409 214.47 180.649 215.562 180.649 216.878V217.606C180.649 218.922 178.409 220.014 175.973 220.014C173.537 220.014 171.297 218.922 171.297 217.606V216.878C171.297 215.562 173.537 214.47 175.973 214.47ZM176.617 199.686V202.654H180.537V205.118H176.169V208.086H180.537V211.474H184.037V196.074H180.537V199.686H176.617ZM164.185 212.034C173.117 208.254 175.301 206.602 175.301 202.15V197.614H163.877V200.61H171.773V201.814C171.773 204.782 170.681 205.79 162.757 209.15L164.185 212.034ZM200.841 199.042V202.01H204.369V204.95H200.841V207.918H204.369V211.418H207.869V196.074H204.369V199.042H200.841ZM193.337 210.046C197.509 210.046 199.973 207.162 199.973 204.138V202.906C199.973 199.882 197.509 196.998 193.337 196.998C189.137 196.998 186.701 199.882 186.701 202.906V204.138C186.701 207.162 189.137 210.046 193.337 210.046ZM193.337 200.022C195.437 200.022 196.613 201.562 196.613 202.99V204.054C196.613 205.482 195.437 207.022 193.337 207.022C191.237 207.022 190.061 205.482 190.061 204.054V202.99C190.061 201.562 191.237 200.022 193.337 200.022ZM199.805 222.898C204.425 222.898 207.953 220.994 207.953 217.83V216.598C207.953 213.434 204.425 211.53 199.805 211.53C195.185 211.53 191.657 213.434 191.657 216.598V217.83C191.657 220.994 195.185 222.898 199.805 222.898ZM199.805 214.414C202.241 214.414 204.481 215.534 204.481 216.906V217.522C204.481 218.894 202.241 220.014 199.805 220.014C197.369 220.014 195.129 218.894 195.129 217.522V216.906C195.129 215.534 197.369 214.414 199.805 214.414ZM216.805 198.622V218.81H229.993V215.842H220.361V209.934H229.209V207.022H220.361V201.59H229.797V198.622H216.805Z" fill="#1AB39C"/>
<path d="M130.188 136.95C128.361 137.118 126.87 137.202 125.085 137.265V136.068C127.332 135.816 128.487 134.703 128.487 133.338V132.792C128.487 131.259 126.996 130.02 124.056 130.02C121.116 130.02 119.625 131.238 119.625 132.792V133.338C119.625 134.703 120.759 135.816 123.027 136.068V137.307C121.641 137.328 120.024 137.328 118.008 137.328V139.092C124.476 139.092 127.017 138.987 130.356 138.651L130.188 136.95ZM133.422 140.709V134.031H136.152V132.225H133.422V125.988H131.364V140.709H133.422ZM123.153 140.142H121.074V145.161H133.947V143.376H123.153V140.142ZM125.085 127.626V125.82H123.027V127.626H118.743V129.369H129.306V127.626H125.085ZM124.056 131.658C125.715 131.658 126.45 132.267 126.45 132.939V133.191C126.45 133.863 125.715 134.472 124.056 134.472C122.397 134.472 121.662 133.863 121.662 133.191V132.939C121.662 132.267 122.397 131.658 124.056 131.658ZM140.208 142.2C140.208 144.237 142.434 145.896 146.151 145.896C149.868 145.896 152.094 144.237 152.094 142.2V141.36C152.094 139.323 149.868 137.664 146.151 137.664C142.434 137.664 140.208 139.323 140.208 141.36V142.2ZM143.442 130.083C143.442 132.309 142.308 133.338 136.47 135.774L137.289 137.433C143.904 134.619 145.479 133.443 145.479 130.23V127.185H137.268V128.949H143.442V130.083ZM152.01 137.412V125.988H149.973V128.781H146.55V130.566H149.973V132.813H146.235V134.598H149.973V137.412H152.01ZM150.057 142.074C150.057 143.103 148.545 144.195 146.151 144.195C143.757 144.195 142.245 143.103 142.245 142.074V141.486C142.245 140.457 143.757 139.365 146.151 139.365C148.545 139.365 150.057 140.457 150.057 141.486V142.074ZM169.465 145.476V143.775H158.272V142.284H168.898V137.496H156.13V139.197H166.861V140.625H156.235V145.476H169.465ZM153.694 134.43V136.152H171.46V134.43H153.694ZM162.577 126.093C158.734 126.093 156.382 127.458 156.382 129.432V129.936C156.382 131.91 158.734 133.275 162.577 133.275C166.42 133.275 168.772 131.91 168.772 129.936V129.432C168.772 127.458 166.42 126.093 162.577 126.093ZM162.577 131.553C159.931 131.553 158.419 130.797 158.419 129.894V129.474C158.419 128.571 159.931 127.815 162.577 127.815C165.223 127.815 166.735 128.571 166.735 129.474V129.894C166.735 130.797 165.223 131.553 162.577 131.553ZM180.997 127.311C178.162 127.311 176.125 129.201 176.125 132.918V135.102C176.125 138.798 178.162 140.688 180.997 140.688C183.832 140.688 185.869 138.798 185.869 135.102V132.918C185.869 129.222 183.832 127.311 180.997 127.311ZM180.997 138.819C179.485 138.819 178.12 137.769 178.12 134.808V133.212C178.12 130.251 179.485 129.201 180.997 129.201C182.509 129.201 183.874 130.251 183.874 133.212V134.808C183.874 137.769 182.509 138.819 180.997 138.819ZM193.681 132.981H190.699V125.988H188.62V145.35H190.699V134.787H193.681V132.981ZM209.539 145.35V125.988H207.523V145.35H209.539ZM195.133 140.016C199.333 135.711 199.585 134.913 199.585 130.881V127.773H194.482V129.558H197.59V130.839C197.59 134.136 197.338 134.934 193.726 138.714L195.133 140.016ZM200.404 141.738C204.583 136.887 204.835 136.089 204.835 132.057V127.773H200.467V129.558H202.882V132.015C202.882 135.312 202.63 136.11 198.955 140.499L200.404 141.738ZM211.244 135.774V137.538H229.01V135.774H211.244ZM215.885 139.302H213.806V145.14H226.826V143.334H215.885V139.302ZM213.932 126.744V133.548H226.469V131.784H215.99V126.744H213.932ZM125.042 164.627V154.988H122.984V164.627H125.042ZM125.588 174.476V172.754H115.088V170.864H125.042V165.593H112.946V167.315H123.005V169.184H113.051V174.476H125.588ZM115.13 160.784C115.235 161.078 115.781 161.603 116.327 162.065C117.314 162.905 118.343 163.64 119.414 164.417L120.611 162.905C119.414 162.107 118.175 161.225 117.188 160.343C116.243 159.482 116.096 158.81 116.096 157.508V155.471H113.996V157.592C113.996 159.083 113.66 159.86 112.631 160.826C111.875 161.519 110.51 162.59 109.166 163.598L110.363 165.068C111.518 164.249 112.82 163.199 113.702 162.422C114.479 161.729 115.025 161.12 115.109 160.784H115.13ZM133.214 162.863C133.361 163.178 133.781 163.577 134.411 164.102C135.419 164.942 136.322 165.635 137.414 166.391L138.59 164.879C137.351 164.06 136.259 163.262 135.272 162.359C134.348 161.519 134.18 160.805 134.18 159.503V158.957H138.086V157.172H134.18V154.862H132.08V157.172H127.901V158.957H132.08V159.587C132.08 161.078 131.723 161.876 130.694 162.884C129.938 163.619 128.699 164.564 127.355 165.509L128.573 167C129.749 166.181 130.883 165.278 131.786 164.501C132.458 163.934 133.067 163.22 133.193 162.863H133.214ZM143.084 168.785V154.988H141.026V160.469H137.54V162.254H141.026V168.785H143.084ZM133.067 167.924H130.988V174.14H143.483V172.334H133.067V167.924ZM149.492 156.437C146.699 156.437 145.229 158.306 145.229 162.002V164.06C145.229 167.756 146.699 169.625 149.492 169.625C152.285 169.625 153.755 167.756 153.755 164.06V163.871H155.75V173.405H157.787V155.387H155.75V162.065H153.755V162.002C153.755 158.306 152.285 156.437 149.492 156.437ZM161.63 154.988H159.593V174.35H161.63V154.988ZM149.492 167.798C147.938 167.798 147.203 166.664 147.203 163.829V162.233C147.203 159.398 147.938 158.285 149.492 158.285C151.046 158.285 151.781 159.398 151.781 162.233V163.829C151.781 166.664 151.046 167.798 149.492 167.798ZM169.655 174.329H182.276V172.649H180.092V168.344H182.192V166.664H169.718V168.344H171.881V172.649H169.655V174.329ZM176.753 159.755C176.753 158.096 175.262 155.66 171.944 155.66C168.626 155.66 167.135 158.096 167.135 159.755V160.742C167.135 162.401 168.626 164.837 171.944 164.837C175.262 164.837 176.753 162.401 176.753 160.742V159.755ZM181.898 165.719V161.162H184.649V159.356H181.898V154.988H179.84V165.719H181.898ZM174.758 160.637C174.758 161.729 173.771 163.031 171.944 163.031C170.117 163.031 169.13 161.729 169.13 160.637V159.86C169.13 158.768 170.117 157.466 171.944 157.466C173.771 157.466 174.758 158.768 174.758 159.86V160.637ZM173.918 168.344H178.055V172.649H173.918V168.344ZM188.16 171.2C188.16 173.237 190.344 174.896 193.998 174.896C197.652 174.896 199.836 173.237 199.836 171.2V170.36C199.836 168.323 197.652 166.664 193.998 166.664C190.344 166.664 188.16 168.323 188.16 170.36V171.2ZM190.47 162.023C190.617 162.338 191.037 162.737 191.667 163.262C192.675 164.102 193.578 164.795 194.67 165.551L195.846 164.039C194.607 163.22 193.515 162.422 192.528 161.519C191.604 160.679 191.436 159.965 191.436 158.621V157.97H195.279V156.185H185.262V157.97H189.336V158.705C189.336 160.238 188.979 161.036 187.95 162.044C187.194 162.779 185.955 163.724 184.611 164.669L185.829 166.16C187.005 165.341 188.139 164.438 189.042 163.661C189.714 163.094 190.323 162.38 190.449 162.023H190.47ZM197.799 171.074C197.799 172.103 196.329 173.195 193.998 173.195C191.667 173.195 190.197 172.103 190.197 171.074V170.486C190.197 169.457 191.667 168.365 193.998 168.365C196.329 168.365 197.799 169.457 197.799 170.486V171.074ZM199.752 166.412V161.477H202.503V159.671H199.752V154.988H197.694V166.412H199.752ZM218.508 174.35V154.988H216.429V160.973H212.313V162.8H216.429V174.35H218.508ZM208.176 164.627C208.344 165.047 208.848 165.635 209.436 166.265C210.234 167.126 211.179 168.071 212.628 169.415L213.972 167.987C212.712 166.874 211.788 165.992 210.885 165.005C209.604 163.577 209.205 162.716 209.205 161.057V156.395H207.105V161.057C207.105 162.548 206.769 163.493 205.488 164.942C204.543 165.992 203.451 167.063 202.17 168.197L203.535 169.604C204.963 168.302 206.076 167.189 206.937 166.244C207.609 165.509 207.966 165.089 208.155 164.627H208.176ZM220.17 164.774V166.538H237.936V164.774H220.17ZM224.811 168.302H222.732V174.14H235.752V172.334H224.811V168.302ZM222.858 155.744V162.548H235.395V160.784H224.916V155.744H222.858Z" fill="#222222"/>
<defs>
<radialGradient id="paint0_angular_1_270" cx="0" cy="0" r="1" gradientUnits="userSpaceOnUse" gradientTransform="translate(417.209 185.944) rotate(-3.75301) scale(180.603 186.356)">
<stop offset="0.0948314" stop-color="#ACE4F3"/>
<stop offset="0.214596" stop-color="#319EBA"/>
<stop offset="0.475858" stop-color="#319EBA"/>
</radialGradient>
<radialGradient id="paint1_angular_1_270" cx="0" cy="0" r="1" gradientUnits="userSpaceOnUse" gradientTransform="translate(166.616 185.947) rotate(-3.75303) scale(180.604 186.357)">
<stop offset="0.0948314" stop-color="#C1EDE6"/>
<stop offset="0.214596" stop-color="#34BAA5"/>
<stop offset="0.475858" stop-color="#33B9A5"/>
</radialGradient>
<radialGradient id="paint2_angular_1_270" cx="0" cy="0" r="1" gradientUnits="userSpaceOnUse" gradientTransform="translate(166.616 162.301) rotate(3.75303) scale(180.604 186.357)">
<stop offset="0.0948314" stop-color="#C1EDE6"/>
<stop offset="0.214596" stop-color="#34BAA5"/>
<stop offset="0.475858" stop-color="#33B9A5"/>
</radialGradient>
<radialGradient id="paint3_angular_1_270" cx="0" cy="0" r="1" gradientUnits="userSpaceOnUse" gradientTransform="translate(459.924 177.807) rotate(-58.2336) scale(182.749 179.65)">
<stop offset="0.133414" stop-color="#D2E6FF"/>
<stop offset="0.306443" stop-color="#4A89DB"/>
<stop offset="0.665858" stop-color="#4A89DB"/>
</radialGradient>
<radialGradient id="paint4_angular_1_270" cx="0" cy="0" r="1" gradientUnits="userSpaceOnUse" gradientTransform="translate(739.784 162.302) rotate(3.75299) scale(180.604 186.355)">
<stop offset="0.0948314" stop-color="#D2E6FF"/>
<stop offset="0.214596" stop-color="#4A89DB"/>
<stop offset="0.475858" stop-color="#4A89DB"/>
</radialGradient>
<radialGradient id="paint5_angular_1_270" cx="0" cy="0" r="1" gradientUnits="userSpaceOnUse" gradientTransform="translate(739.784 185.945) rotate(-3.75303) scale(180.604 186.357)">
<stop offset="0.0948314" stop-color="#D2E6FF"/>
<stop offset="0.214596" stop-color="#4A89DB"/>
<stop offset="0.475858" stop-color="#4A89DB"/>
</radialGradient>
<radialGradient id="paint6_angular_1_270" cx="0" cy="0" r="1" gradientUnits="userSpaceOnUse" gradientTransform="translate(453.124 162.302) rotate(3.75299) scale(180.604 186.355)">
<stop offset="0.0948314" stop-color="#D2E6FF"/>
<stop offset="0.214596" stop-color="#4A89DB"/>
<stop offset="0.475858" stop-color="#4A89DB"/>
</radialGradient>
<radialGradient id="paint7_angular_1_270" cx="0" cy="0" r="1" gradientUnits="userSpaceOnUse" gradientTransform="translate(453.124 162.301) rotate(3.75303) scale(180.604 186.357)">
<stop offset="0.0948314" stop-color="#AFE6F5"/>
<stop offset="0.214596" stop-color="#319EBA"/>
<stop offset="0.475858" stop-color="#319EBA"/>
</radialGradient>
</defs>
</svg>
