<svg width="1170" height="330" viewBox="0 0 1170 330" fill="none" xmlns="http://www.w3.org/2000/svg">
<rect width="151.451" height="379.794" rx="75.7253" transform="matrix(0.502601 -0.864519 0.85673 0.515765 0 132)" fill="#5082E6"/>
<rect width="151.451" height="379.793" rx="75.7253" transform="matrix(0.5024 -0.864635 0.856608 0.515968 190.223 134.039)" fill="#4894D8"/>
<rect width="151.451" height="379.793" rx="75.7253" transform="matrix(0.5024 -0.864635 0.856608 0.515968 386.449 132.002)" fill="#3FA8C8"/>
<rect width="151.451" height="379.793" rx="75.7253" transform="matrix(0.5024 -0.864635 0.856608 0.515968 578.674 132.002)" fill="#39B1B5"/>
<rect width="151.451" height="379.793" rx="75.7253" transform="matrix(0.5024 -0.864635 0.856608 0.515968 768.578 130.949)" fill="#33B9A5"/>
<g filter="url(#filter0_d_1_4913)">
<rect x="616" y="41" width="134" height="246" rx="67" fill="white"/>
<rect x="616.5" y="41.5" width="133" height="245" rx="66.5" stroke="#F8F8F8"/>
</g>
<g filter="url(#filter1_d_1_4913)">
<rect x="809" y="41" width="134" height="246" rx="67" fill="white"/>
<rect x="809.5" y="41.5" width="133" height="245" rx="66.5" stroke="#F8F8F8"/>
</g>
<g filter="url(#filter2_d_1_4913)">
<rect x="999" y="41" width="134" height="246" rx="67" fill="white"/>
<rect x="999.5" y="41.5" width="133" height="245" rx="66.5" stroke="#F8F8F8"/>
</g>
<g filter="url(#filter3_d_1_4913)">
<rect x="230" y="41" width="134" height="246" rx="67" fill="white"/>
<rect x="230.5" y="41.5" width="133" height="245" rx="66.5" stroke="#F8F8F8"/>
</g>
<g filter="url(#filter4_d_1_4913)">
<rect x="422" y="41" width="134" height="246" rx="67" fill="white"/>
<rect x="422.5" y="41.5" width="133" height="245" rx="66.5" stroke="#F8F8F8"/>
</g>
<g filter="url(#filter5_d_1_4913)">
<rect x="36" y="41" width="134" height="246" rx="67" fill="white"/>
<rect x="36.5" y="41.5" width="133" height="245" rx="66.5" stroke="#F8F8F8"/>
</g>
<path d="M675.557 165.58V156.3H673.617V159.48H668.877V156.3H666.937V165.58H675.557ZM683.217 160.52H680.597V155.36H678.637V168.52H680.597V162.24H683.217V160.52ZM671.317 167.62H669.337V173.6H681.097V171.88H671.317V167.62ZM668.877 161.14H673.617V163.9H668.877V161.14ZM698.06 173.94V172.32H687.4V171H697.52V166.52H692.5V165.02H699.96V163.38H683.04V165.02H690.5V166.52H685.36V168.14H695.58V169.42H685.46V173.94H698.06ZM691.5 160.3C691.78 160.78 692.68 161.14 693.52 161.44C694.96 161.94 696.38 162.36 697.94 162.74L698.48 161.14C696.76 160.72 695.54 160.36 694.64 160.04C693.28 159.56 692.62 159.2 692.5 158.36H697.82V156.76H692.48V155.08H690.5V156.76H685.18V158.36H690.48C690.36 159.2 689.7 159.6 688.36 160.04C687.02 160.5 685.98 160.82 684.52 161.14L685.04 162.74C686.58 162.36 688.04 161.94 689.5 161.44C690.34 161.16 691.2 160.78 691.48 160.3H691.5Z" fill="#222222"/>
<path d="M855.775 153.48H853.795V159.6H865.695V157.88H855.775V153.48ZM865.315 154.52V141.36H863.355V154.52H865.315ZM858.155 147.28C858.155 148.5 857.355 149.86 855.435 149.86C853.535 149.86 852.715 148.5 852.715 147.28V146.4C852.715 145.18 853.515 143.82 855.435 143.82C857.355 143.82 858.155 145.18 858.155 146.4V147.28ZM850.815 147.36C850.815 149.18 852.315 151.58 855.435 151.58C858.555 151.58 860.055 149.18 860.055 147.36V146.32C860.055 144.5 858.555 142.1 855.435 142.1C852.315 142.1 850.815 144.5 850.815 146.32V147.36ZM872.778 146.58C872.778 149.3 872.778 150.7 867.138 154.32L868.238 155.86C873.658 152.24 874.598 150.7 874.698 147.58H877.358V150.62H874.658V152.34H877.358V158.9H879.298V141.74H877.358V145.86H874.718V143.16H867.658V144.86H872.778V146.58ZM883.058 141.36H881.118V159.8H883.058V141.36ZM899.462 159.8V141.36H897.482V147.06H893.562V148.8H897.482V159.8H899.462ZM889.622 150.54C889.782 150.94 890.262 151.5 890.822 152.1C891.582 152.92 892.482 153.82 893.862 155.1L895.142 153.74C893.942 152.68 893.062 151.84 892.202 150.9C890.982 149.54 890.602 148.72 890.602 147.14V142.7H888.602V147.14C888.602 148.56 888.282 149.46 887.062 150.84C886.162 151.84 885.122 152.86 883.902 153.94L885.202 155.28C886.562 154.04 887.622 152.98 888.442 152.08C889.082 151.38 889.422 150.98 889.602 150.54H889.622ZM864.257 175C864.397 175.3 864.797 175.68 865.397 176.18C866.357 176.98 867.217 177.64 868.257 178.36L869.377 176.92C868.197 176.14 867.157 175.38 866.217 174.52C865.337 173.72 865.177 173.04 865.177 171.76V171.14H868.837V169.44H859.297V171.14H863.177V171.84C863.177 173.3 862.837 174.06 861.857 175.02C861.137 175.72 859.957 176.62 858.677 177.52L859.837 178.94C860.957 178.16 862.037 177.3 862.897 176.56C863.537 176.02 864.117 175.34 864.237 175H864.257ZM861.437 181.74H871.117V186.98H873.097V180.04H861.437V181.74ZM875.717 172.76H873.097V168.36H871.137V179.08H873.097V174.48H875.717V172.76ZM879.62 183.82C879.62 185.76 881.74 187.32 885.28 187.32C888.82 187.32 890.94 185.76 890.94 183.82V183.02C890.94 181.08 888.82 179.52 885.28 179.52C881.74 179.52 879.62 181.08 879.62 183.02V183.82ZM881.2 174.78C881.32 175.08 881.74 175.52 882.34 176.02C883.3 176.82 884.22 177.58 885.26 178.36L886.42 176.98C885.24 176.12 884.1 175.22 883.16 174.36C882.2 173.48 882.12 172.82 882.12 171.58V169.18H880.12V171.66C880.12 173.06 879.84 173.82 878.82 174.84C878.12 175.54 876.88 176.6 875.6 177.58L876.78 178.98C877.84 178.14 879.02 177.14 879.84 176.38C880.46 175.82 881.08 175.12 881.18 174.78H881.2ZM890.86 179.26V168.36H888.9V172.34H885.2V174.04H888.9V179.26H890.86ZM889 183.7C889 184.68 887.56 185.7 885.28 185.7C883 185.7 881.56 184.68 881.56 183.7V183.14C881.56 182.16 883 181.14 885.28 181.14C887.56 181.14 889 182.16 889 183.14V183.7Z" fill="#222222"/>
<path d="M1042.8 156.82C1042.8 158.76 1044.92 160.32 1048.46 160.32C1052 160.32 1054.12 158.76 1054.12 156.82V156.02C1054.12 154.08 1052 152.52 1048.46 152.52C1044.92 152.52 1042.8 154.08 1042.8 156.02V156.82ZM1044.6 148.18C1044.74 148.48 1045.14 148.86 1045.74 149.36C1046.7 150.16 1047.56 150.82 1048.6 151.54L1049.72 150.1C1048.54 149.32 1047.5 148.56 1046.56 147.7C1045.68 146.9 1045.52 146.22 1045.52 144.94V144.2H1049.16V142.5H1039.64V144.2H1043.52V145.02C1043.52 146.48 1043.18 147.24 1042.2 148.2C1041.48 148.9 1040.3 149.8 1039.02 150.7L1040.18 152.12C1041.3 151.34 1042.38 150.48 1043.24 149.74C1043.88 149.2 1044.46 148.52 1044.58 148.18H1044.6ZM1052.18 156.7C1052.18 157.68 1050.74 158.7 1048.46 158.7C1046.18 158.7 1044.74 157.68 1044.74 156.7V156.14C1044.74 155.16 1046.18 154.14 1048.46 154.14C1050.74 154.14 1052.18 155.16 1052.18 156.14V156.7ZM1054.04 152.26V141.36H1052.08V145.88H1048.68V147.58H1052.08V152.26H1054.04ZM1061.02 148.2C1061.14 148.5 1061.56 148.92 1062.16 149.42C1063.12 150.22 1064.06 151 1065.08 151.78L1066.24 150.4C1065.06 149.54 1063.92 148.64 1062.98 147.78C1062.02 146.9 1061.94 146.24 1061.94 145V142.22H1059.94V145.08C1059.94 146.48 1059.66 147.24 1058.64 148.26C1057.94 148.96 1056.7 150.02 1055.42 151L1056.6 152.4C1057.66 151.56 1058.84 150.56 1059.66 149.8C1060.28 149.24 1060.9 148.54 1061 148.2H1061.02ZM1070.14 154.48V148.18H1072.76V146.46H1070.14V141.36H1068.18V154.48H1070.14ZM1060.86 153.38H1058.88V159.6H1070.64V157.88H1060.86V153.38ZM1086.06 142.28H1077.64V150.08H1086.06V142.28ZM1086.9 153.1V151.16H1084.92V153.1H1079.88V154.74H1084.92C1084.86 155.58 1084.5 156.12 1083.24 156.7C1082.1 157.22 1080.92 157.66 1079.12 158.32L1079.86 159.92C1081.38 159.36 1082.68 158.84 1083.8 158.36C1084.9 157.88 1085.62 157.36 1085.92 156.88C1086.22 157.36 1086.92 157.86 1088.02 158.34C1089.14 158.82 1090.44 159.34 1091.96 159.9L1092.68 158.3C1090.84 157.66 1089.8 157.24 1088.58 156.7C1087.28 156.12 1086.94 155.58 1086.9 154.74H1091.92V153.1H1086.9ZM1079.56 143.94H1084.14V148.42H1079.56V143.94ZM1091.72 151.46V141.36H1089.76V151.46H1091.72ZM1046.21 168.36H1044.27V174.78H1042.09V168.74H1040.15V185.9H1042.09V176.5H1044.27V186.8H1046.21V168.36ZM1037.99 170.12H1030.89V181.86H1033.51C1035.57 181.86 1037.01 181.76 1039.09 181.42L1038.89 179.76C1037.01 180.06 1035.71 180.14 1033.91 180.14H1032.89V171.84H1037.99V170.12ZM1061.64 179.78H1049.56V186.78H1061.64V179.78ZM1049.34 170.82H1059.52V171.9C1059.52 173.08 1059.4 174.5 1059.08 175.96H1047.14V177.64H1064.06V175.96H1061.12C1061.38 174.58 1061.52 173.08 1061.52 171.98V169.14H1049.34V170.82ZM1059.68 185.12H1051.52V181.44H1059.68V185.12ZM1074.1 177.72C1074.26 178.12 1074.76 178.68 1075.32 179.28C1076.08 180.1 1076.92 180.94 1078.28 182.18L1079.58 180.84C1078.4 179.8 1077.56 179.02 1076.7 178.08C1075.28 176.54 1075.06 175.94 1075.06 174.36V171.74H1078.92V170.02H1069.1V171.74H1073.06V174.36C1073.06 175.84 1072.84 176.6 1071.52 178.06C1070.62 179.06 1069.64 180.04 1068.44 181.12L1069.74 182.46C1071.08 181.22 1072.08 180.2 1072.9 179.3C1073.54 178.6 1073.9 178.16 1074.08 177.72H1074.1ZM1083.4 186.8V168.36H1081.42V186.8H1083.4ZM1097.48 179.02V181.2H1089.32V179.02H1087.36V186.8H1099.44V179.02H1097.48ZM1098.96 175.7C1099.22 174.34 1099.32 172.88 1099.32 171.82V169.04H1087.14V170.72H1097.32V171.74C1097.32 172.9 1097.24 174.28 1096.94 175.7H1084.94V177.38H1101.86V175.7H1098.96ZM1089.32 185.12V182.82H1097.48V185.12H1089.32Z" fill="#222222"/>
<path d="M481.497 173.8V167.46H488.957V165.78H472.037V167.46H479.497V173.8H481.497ZM482.717 162.28C483.797 162.82 485.337 163.52 486.977 164.16L487.737 162.56C486.257 162 484.617 161.3 483.337 160.6C481.977 159.86 481.477 159.14 481.477 157.64V156H479.497V157.64C479.497 159.14 478.977 159.86 477.617 160.6C476.337 161.3 474.697 162 473.217 162.56L473.997 164.18C475.637 163.54 477.177 162.84 478.257 162.3C479.577 161.64 480.237 161.12 480.477 160.68H480.497C480.757 161.12 481.397 161.62 482.717 162.28ZM502.36 165.72V168.04H494.78V165.72H492.82V173.8H504.32V165.72H502.36ZM495.12 161.52C495.26 161.8 495.72 162.22 496.26 162.64C497.12 163.3 498.16 164.06 499.2 164.72L500.28 163.28C499.12 162.54 497.94 161.76 497 160.96C496 160.12 496.04 159.52 496.04 158.24V158.12H499.74V156.44H490.12V158.12H494.04V158.32C494.04 159.78 493.9 160.48 492.82 161.44C492.08 162.1 490.82 162.98 489.54 163.8L490.64 165.24C491.72 164.54 492.94 163.66 493.76 163.02C494.4 162.52 494.98 161.84 495.1 161.52H495.12ZM504.32 164.82V155.36H502.36V164.82H504.32ZM494.78 172.12V169.7H502.36V172.12H494.78Z" fill="#222222"/>
<path d="M280.215 154.9V142.96H278.295V147.24H274.735V142.96H272.815V154.9H280.215ZM288.095 141.36H286.155V148.1H284.055V141.74H282.115V158.9H284.055V149.82H286.155V159.8H288.095V141.36ZM274.735 148.92H278.295V153.22H274.735V148.92ZM304.058 159.94V158.32H293.398V157H303.518V152.52H298.498V151.02H305.958V149.38H289.038V151.02H296.498V152.52H291.358V154.14H301.578V155.42H291.458V159.94H304.058ZM297.498 146.3C297.778 146.78 298.678 147.14 299.518 147.44C300.958 147.94 302.378 148.36 303.938 148.74L304.478 147.14C302.758 146.72 301.538 146.36 300.638 146.04C299.278 145.56 298.618 145.2 298.498 144.36H303.818V142.76H298.478V141.08H296.498V142.76H291.178V144.36H296.478C296.358 145.2 295.698 145.6 294.358 146.04C293.018 146.5 291.978 146.82 290.518 147.14L291.038 148.74C292.578 148.36 294.038 147.94 295.498 147.44C296.338 147.16 297.198 146.78 297.478 146.3H297.498ZM311.582 150.68C311.742 151.08 312.242 151.64 312.802 152.24C313.562 153.06 314.402 153.9 315.762 155.14L317.062 153.8C315.882 152.76 315.042 151.98 314.182 151.04C312.762 149.5 312.542 148.9 312.542 147.32V144.76H316.402V143.04H306.582V144.76H310.542V147.32C310.542 148.8 310.322 149.56 309.002 151.02C308.102 152.02 307.122 153 305.922 154.08L307.222 155.42C308.562 154.18 309.562 153.16 310.382 152.26C311.022 151.56 311.382 151.12 311.562 150.68H311.582ZM323.302 148.18H320.462V141.36H318.482V159.8H320.462V149.9H323.302V148.18ZM286.217 180.4H284.237V186.6H296.197V184.88H286.217V180.4ZM295.757 181.48V168.36H293.797V181.48H295.757ZM286.317 175.2C286.437 175.5 286.857 175.92 287.457 176.42C288.417 177.22 289.397 178.04 290.417 178.82L291.577 177.44C290.397 176.58 289.217 175.64 288.277 174.78C287.317 173.9 287.237 173.24 287.237 172V169.22H285.237V172.08C285.237 173.48 284.957 174.24 283.937 175.26C283.237 175.96 281.957 177.04 280.677 178.02L281.857 179.42C282.917 178.58 284.137 177.56 284.957 176.8C285.577 176.24 286.197 175.54 286.297 175.2H286.317ZM305.64 182.66V175.96H303.66V182.66H297.54V184.34H314.46V182.66H305.64ZM299.62 170.02V171.74H310V173.14C310 175.62 309.8 177.76 309.32 180.28L311.3 180.52C311.76 178.02 311.98 176.02 311.98 172.44V170.02H299.62Z" fill="#222222"/>
<path d="M73.5322 150.8V141.36H71.5722V145.36H67.8322C67.5722 143.66 66.0522 142 63.2922 142C60.2522 142 58.7122 144 58.7122 145.86V146.62C58.7122 148.48 60.2522 150.48 63.2922 150.48C66.0922 150.48 67.6122 148.78 67.8322 147.06H71.5722V150.8H73.5322ZM71.5722 151.7V154.04H63.9922V151.7H62.0322V159.8H73.5322V151.7H71.5722ZM63.2922 148.78C61.5922 148.78 60.6122 147.62 60.6122 146.52V145.96C60.6122 144.86 61.5922 143.72 63.2922 143.72C64.9922 143.72 65.9722 144.86 65.9722 145.96V146.52C65.9722 147.62 64.9922 148.78 63.2922 148.78ZM63.9922 158.12V155.7H71.5722V158.12H63.9922ZM79.8353 150.98C79.9753 151.38 80.2753 151.82 80.6753 152.3C81.4753 153.26 82.3153 154.14 83.3753 155.2L84.7153 153.88C83.5353 152.74 82.6553 151.8 81.8153 150.72C81.0153 149.68 80.7553 148.74 80.7553 147.6V145.82H83.8953V144.16H80.7553V141.76H78.8353V144.16H75.4953V145.82H78.8353V147.6C78.8353 148.74 78.6353 149.72 77.8353 150.76C76.9753 151.88 75.9353 152.96 74.7353 154.1L76.0753 155.44C77.1353 154.36 78.1553 153.26 78.9553 152.3C79.3553 151.82 79.6753 151.38 79.8153 150.98H79.8353ZM85.5953 147.98H82.8953V149.7H85.5953V158.9H87.5353V141.74H85.5953V147.98ZM91.1953 141.36H89.2553V159.8H91.1953V141.36ZM97.7984 148.26C97.9184 148.56 98.3384 149 98.9384 149.5C99.8984 150.3 100.818 151.06 101.858 151.84L103.018 150.46C101.838 149.6 100.698 148.7 99.7584 147.84C98.7984 146.96 98.7184 146.3 98.7184 145.06V142.22H96.7184V145.14C96.7184 146.54 96.4384 147.3 95.4184 148.32C94.7184 149.02 93.4784 150.08 92.1984 151.06L93.3784 152.46C94.4384 151.62 95.6184 150.62 96.4384 149.86C97.0584 149.3 97.6784 148.6 97.7784 148.26H97.7984ZM107.458 154.48V141.36H105.498V145.54H101.798V147.24H105.498V154.48H107.458ZM97.9184 153.4H95.9384V159.6H107.838V157.88H97.9184V153.4ZM113.302 156.82C113.302 158.76 115.422 160.32 118.962 160.32C122.502 160.32 124.622 158.76 124.622 156.82V156.02C124.622 154.08 122.502 152.52 118.962 152.52C115.422 152.52 113.302 154.08 113.302 156.02V156.82ZM115.102 148.18C115.242 148.48 115.642 148.86 116.242 149.36C117.202 150.16 118.062 150.82 119.102 151.54L120.222 150.1C119.042 149.32 118.002 148.56 117.062 147.7C116.182 146.9 116.022 146.22 116.022 144.94V144.2H119.662V142.5H110.142V144.2H114.022V145.02C114.022 146.48 113.682 147.24 112.702 148.2C111.982 148.9 110.802 149.8 109.522 150.7L110.682 152.12C111.802 151.34 112.882 150.48 113.742 149.74C114.382 149.2 114.962 148.52 115.082 148.18H115.102ZM122.682 156.7C122.682 157.68 121.242 158.7 118.962 158.7C116.682 158.7 115.242 157.68 115.242 156.7V156.14C115.242 155.16 116.682 154.14 118.962 154.14C121.242 154.14 122.682 155.16 122.682 156.14V156.7ZM124.542 152.26V141.36H122.582V145.88H119.182V147.58H122.582V152.26H124.542ZM139.565 142.28H131.145V150.08H139.565V142.28ZM140.405 153.1V151.16H138.425V153.1H133.385V154.74H138.425C138.365 155.58 138.005 156.12 136.745 156.7C135.605 157.22 134.425 157.66 132.625 158.32L133.365 159.92C134.885 159.36 136.185 158.84 137.305 158.36C138.405 157.88 139.125 157.36 139.425 156.88C139.725 157.36 140.425 157.86 141.525 158.34C142.645 158.82 143.945 159.34 145.465 159.9L146.185 158.3C144.345 157.66 143.305 157.24 142.085 156.7C140.785 156.12 140.445 155.58 140.405 154.74H145.425V153.1H140.405ZM133.065 143.94H137.645V148.42H133.065V143.94ZM145.225 151.46V141.36H143.265V151.46H145.225ZM91.2769 173.58C91.2769 176.3 91.2769 177.7 85.6369 181.32L86.7369 182.86C92.1569 179.24 93.0969 177.7 93.1969 174.58H95.8569V177.62H93.1569V179.34H95.8569V185.9H97.7969V168.74H95.8569V172.86H93.2169V170.16H86.1569V171.86H91.2769V173.58ZM101.557 168.36H99.6169V186.8H101.557V168.36ZM111.94 173.06C111.94 171.28 110.5 169.02 107.36 169.02C104.22 169.02 102.78 171.28 102.78 173.06V174.08C102.78 175.86 104.22 178.12 107.36 178.12C110.5 178.12 111.94 175.86 111.94 174.08V173.06ZM105.24 181.72H114.92V186.98H116.9V180.02H105.24V181.72ZM119.5 170.86H116.9V168.36H114.96V179.06H116.9V176.34H119.5V174.64H116.9V172.56H119.5V170.86ZM110.04 173.98C110.04 175.16 109.2 176.4 107.36 176.4C105.52 176.4 104.68 175.16 104.68 173.98V173.16C104.68 171.98 105.52 170.74 107.36 170.74C109.2 170.74 110.04 171.98 110.04 173.16V173.98Z" fill="#222222"/>
<defs>
<filter id="filter0_d_1_4913" x="596" y="25" width="174" height="286" filterUnits="userSpaceOnUse" color-interpolation-filters="sRGB">
<feFlood flood-opacity="0" result="BackgroundImageFix"/>
<feColorMatrix in="SourceAlpha" type="matrix" values="0 0 0 0 0 0 0 0 0 0 0 0 0 0 0 0 0 0 127 0" result="hardAlpha"/>
<feOffset dy="4"/>
<feGaussianBlur stdDeviation="10"/>
<feComposite in2="hardAlpha" operator="out"/>
<feColorMatrix type="matrix" values="0 0 0 0 0 0 0 0 0 0 0 0 0 0 0 0 0 0 0.1 0"/>
<feBlend mode="normal" in2="BackgroundImageFix" result="effect1_dropShadow_1_4913"/>
<feBlend mode="normal" in="SourceGraphic" in2="effect1_dropShadow_1_4913" result="shape"/>
</filter>
<filter id="filter1_d_1_4913" x="789" y="25" width="174" height="286" filterUnits="userSpaceOnUse" color-interpolation-filters="sRGB">
<feFlood flood-opacity="0" result="BackgroundImageFix"/>
<feColorMatrix in="SourceAlpha" type="matrix" values="0 0 0 0 0 0 0 0 0 0 0 0 0 0 0 0 0 0 127 0" result="hardAlpha"/>
<feOffset dy="4"/>
<feGaussianBlur stdDeviation="10"/>
<feComposite in2="hardAlpha" operator="out"/>
<feColorMatrix type="matrix" values="0 0 0 0 0 0 0 0 0 0 0 0 0 0 0 0 0 0 0.1 0"/>
<feBlend mode="normal" in2="BackgroundImageFix" result="effect1_dropShadow_1_4913"/>
<feBlend mode="normal" in="SourceGraphic" in2="effect1_dropShadow_1_4913" result="shape"/>
</filter>
<filter id="filter2_d_1_4913" x="979" y="25" width="174" height="286" filterUnits="userSpaceOnUse" color-interpolation-filters="sRGB">
<feFlood flood-opacity="0" result="BackgroundImageFix"/>
<feColorMatrix in="SourceAlpha" type="matrix" values="0 0 0 0 0 0 0 0 0 0 0 0 0 0 0 0 0 0 127 0" result="hardAlpha"/>
<feOffset dy="4"/>
<feGaussianBlur stdDeviation="10"/>
<feComposite in2="hardAlpha" operator="out"/>
<feColorMatrix type="matrix" values="0 0 0 0 0 0 0 0 0 0 0 0 0 0 0 0 0 0 0.1 0"/>
<feBlend mode="normal" in2="BackgroundImageFix" result="effect1_dropShadow_1_4913"/>
<feBlend mode="normal" in="SourceGraphic" in2="effect1_dropShadow_1_4913" result="shape"/>
</filter>
<filter id="filter3_d_1_4913" x="210" y="25" width="174" height="286" filterUnits="userSpaceOnUse" color-interpolation-filters="sRGB">
<feFlood flood-opacity="0" result="BackgroundImageFix"/>
<feColorMatrix in="SourceAlpha" type="matrix" values="0 0 0 0 0 0 0 0 0 0 0 0 0 0 0 0 0 0 127 0" result="hardAlpha"/>
<feOffset dy="4"/>
<feGaussianBlur stdDeviation="10"/>
<feComposite in2="hardAlpha" operator="out"/>
<feColorMatrix type="matrix" values="0 0 0 0 0 0 0 0 0 0 0 0 0 0 0 0 0 0 0.1 0"/>
<feBlend mode="normal" in2="BackgroundImageFix" result="effect1_dropShadow_1_4913"/>
<feBlend mode="normal" in="SourceGraphic" in2="effect1_dropShadow_1_4913" result="shape"/>
</filter>
<filter id="filter4_d_1_4913" x="402" y="25" width="174" height="286" filterUnits="userSpaceOnUse" color-interpolation-filters="sRGB">
<feFlood flood-opacity="0" result="BackgroundImageFix"/>
<feColorMatrix in="SourceAlpha" type="matrix" values="0 0 0 0 0 0 0 0 0 0 0 0 0 0 0 0 0 0 127 0" result="hardAlpha"/>
<feOffset dy="4"/>
<feGaussianBlur stdDeviation="10"/>
<feComposite in2="hardAlpha" operator="out"/>
<feColorMatrix type="matrix" values="0 0 0 0 0 0 0 0 0 0 0 0 0 0 0 0 0 0 0.1 0"/>
<feBlend mode="normal" in2="BackgroundImageFix" result="effect1_dropShadow_1_4913"/>
<feBlend mode="normal" in="SourceGraphic" in2="effect1_dropShadow_1_4913" result="shape"/>
</filter>
<filter id="filter5_d_1_4913" x="16" y="25" width="174" height="286" filterUnits="userSpaceOnUse" color-interpolation-filters="sRGB">
<feFlood flood-opacity="0" result="BackgroundImageFix"/>
<feColorMatrix in="SourceAlpha" type="matrix" values="0 0 0 0 0 0 0 0 0 0 0 0 0 0 0 0 0 0 127 0" result="hardAlpha"/>
<feOffset dy="4"/>
<feGaussianBlur stdDeviation="10"/>
<feComposite in2="hardAlpha" operator="out"/>
<feColorMatrix type="matrix" values="0 0 0 0 0 0 0 0 0 0 0 0 0 0 0 0 0 0 0.1 0"/>
<feBlend mode="normal" in2="BackgroundImageFix" result="effect1_dropShadow_1_4913"/>
<feBlend mode="normal" in="SourceGraphic" in2="effect1_dropShadow_1_4913" result="shape"/>
</filter>
</defs>
</svg>
