<svg width="329" height="299" viewBox="0 0 329 299" fill="none" xmlns="http://www.w3.org/2000/svg">
<path d="M2.085 3.63C2.7 2.655 3.54 2.37 4.395 2.37C5.7 2.37 6.51 3.045 6.51 4.125V4.245C6.51 5.175 5.85 6.3 4.5 6.3H3.24V7.2H4.455C5.49 7.2 6.96 7.62 6.96 9.255V9.45C6.96 10.455 6.255 11.595 4.365 11.595C3.375 11.595 2.475 11.28 1.425 10.515L0.9 11.355C1.92 12.165 3.105 12.555 4.365 12.555C7.02 12.555 7.995 10.98 7.995 9.435V9.21C7.995 7.95 7.2 6.945 5.715 6.69C7.155 6.195 7.575 5.115 7.575 4.26V4.11C7.575 2.49 6.345 1.41 4.38 1.41C2.73 1.41 1.8 2.22 1.26 3.09L2.085 3.63ZM9.17414 12.825H10.6891V11.325H9.17414V12.825ZM19.0459 6.135C19.0459 3.105 17.9059 1.41 15.3559 1.41C12.8359 1.41 11.6959 3.105 11.6959 6.135V7.815C11.6959 10.845 12.7909 12.555 15.3559 12.555C17.9509 12.555 19.0459 10.875 19.0459 7.815V6.135ZM17.9659 7.83C17.9659 10.53 17.0809 11.61 15.3559 11.61C13.6909 11.61 12.7759 10.515 12.7759 7.83V6.12C12.7759 3.465 13.6909 2.355 15.3559 2.355C17.0809 2.355 17.9659 3.45 17.9659 6.12V7.83Z" fill="#222222"/>
<path d="M5.715 174.39V163.575H4.92L1.575 165.645L2.055 166.485L4.665 164.895V174.39H5.715ZM9.17414 174.825H10.6891V173.325H9.17414V174.825ZM19.0459 168.135C19.0459 165.105 17.9059 163.41 15.3559 163.41C12.8359 163.41 11.6959 165.105 11.6959 168.135V169.815C11.6959 172.845 12.7909 174.555 15.3559 174.555C17.9509 174.555 19.0459 172.875 19.0459 169.815V168.135ZM17.9659 169.83C17.9659 172.53 17.0809 173.61 15.3559 173.61C13.6909 173.61 12.7759 172.515 12.7759 169.83V168.12C12.7759 165.465 13.6909 164.355 15.3559 164.355C17.0809 164.355 17.9659 165.45 17.9659 168.12V169.83Z" fill="#222222"/>
<path d="M1.155 92.49V93.39H8.025V92.43H2.475L5.835 88.485C6.765 87.405 7.635 86.43 7.635 85.26V85.11C7.635 83.49 6.405 82.41 4.485 82.41C2.685 82.41 1.68 83.55 1.17 84.48L2.01 85.005C2.715 83.745 3.57 83.37 4.515 83.37C5.82 83.37 6.57 84.045 6.57 85.125V85.245C6.57 85.815 6.375 86.37 5.19 87.765L1.155 92.49ZM9.17414 93.825H10.6891V92.325H9.17414V93.825ZM19.0459 87.135C19.0459 84.105 17.9059 82.41 15.3559 82.41C12.8359 82.41 11.6959 84.105 11.6959 87.135V88.815C11.6959 91.845 12.7909 93.555 15.3559 93.555C17.9509 93.555 19.0459 91.875 19.0459 88.815V87.135ZM17.9659 88.83C17.9659 91.53 17.0809 92.61 15.3559 92.61C13.6909 92.61 12.7759 91.515 12.7759 88.83V87.12C12.7759 84.465 13.6909 83.355 15.3559 83.355C17.0809 83.355 17.9659 84.45 17.9659 87.12V88.83Z" fill="#222222"/>
<path d="M19.175 249.135C19.175 246.105 18.035 244.41 15.485 244.41C12.965 244.41 11.825 246.105 11.825 249.135V250.815C11.825 253.845 12.92 255.555 15.485 255.555C18.08 255.555 19.175 253.875 19.175 250.815V249.135ZM18.095 250.83C18.095 253.53 17.21 254.61 15.485 254.61C13.82 254.61 12.905 253.515 12.905 250.83V249.12C12.905 246.465 13.82 245.355 15.485 245.355C17.21 245.355 18.095 246.45 18.095 249.12V250.83Z" fill="#222222"/>
<path d="M329 251H29V250H329V251Z" fill="#DDDDDD"/>
<path d="M329 170H29V169H329V170Z" fill="#DDDDDD"/>
<path d="M329 8H29V7H329V8Z" fill="#DDDDDD"/>
<path d="M329 89H29V88H329V89Z" fill="#DDDDDD"/>
<path d="M80.96 270.145V271.39H88.22V270.1H82.79L86.165 266.5C87.14 265.465 87.83 264.445 87.83 263.275V263.125C87.83 261.55 86.645 260.41 84.455 260.41C82.46 260.41 81.5 261.655 80.99 262.585L82.13 263.32C82.835 262.06 83.69 261.745 84.485 261.745C85.61 261.745 86.345 262.27 86.345 263.125V263.245C86.345 263.815 86.225 264.415 84.995 265.765L80.96 270.145ZM96.6553 265.135C96.6553 262.105 95.3803 260.41 92.8303 260.41C90.3103 260.41 89.0053 262.105 89.0053 265.135V266.815C89.0053 269.845 90.2653 271.555 92.8303 271.555C95.4253 271.555 96.6553 269.875 96.6553 266.815V265.135ZM95.1403 266.83C95.1403 269.5 94.1503 270.175 92.8303 270.175C91.5703 270.175 90.5203 269.485 90.5203 266.83V265.12C90.5203 262.495 91.5703 261.79 92.8303 261.79C94.1503 261.79 95.1403 262.48 95.1403 265.12V266.83ZM97.4705 270.145V271.39H104.731V270.1H99.3005L102.676 266.5C103.651 265.465 104.341 264.445 104.341 263.275V263.125C104.341 261.55 103.156 260.41 100.966 260.41C98.9705 260.41 98.0105 261.655 97.5005 262.585L98.6405 263.32C99.3455 262.06 100.201 261.745 100.996 261.745C102.121 261.745 102.856 262.27 102.856 263.125V263.245C102.856 263.815 102.736 264.415 101.506 265.765L97.4705 270.145ZM111.141 271.39V260.575H109.896L106.416 262.615L107.121 263.815L109.656 262.315V271.39H111.141Z" fill="#222222"/>
<path d="M95 250H75V249H95V250Z" fill="#33B9A5"/>
<path d="M178 250H158V93H178V250Z" fill="#33B9A5"/>
<path d="M260 250H240V249H260V250Z" fill="#33B9A5"/>
<path d="M117 73H97V250H117V73Z" fill="#4A89DB"/>
<path d="M200 44H180V250H200V44Z" fill="#4A89DB"/>
<path d="M282 87H262V250H282V87Z" fill="#4A89DB"/>
<path d="M10 299H0V289H10V299Z" fill="#33B9A5"/>
<path d="M17.55 295.06C16.05 295.06 14.71 295.59 14.71 296.66V297C14.71 298.05 16.05 298.6 17.55 298.6C19.05 298.6 20.39 298.05 20.39 297V296.66C20.39 295.61 19.05 295.06 17.55 295.06ZM13.35 293.73V294.33H21.75V293.73H17.9V292.58H20.5V291.98H15.31V290.19H20.45V289.59H14.62V292.58H17.2V293.73H13.35ZM17.55 298C16.47 298 15.39 297.63 15.39 296.96V296.7C15.39 296.03 16.47 295.66 17.55 295.66C18.63 295.66 19.71 296.03 19.71 296.7V296.96C19.71 297.63 18.63 298 17.55 298ZM28.3216 289.57V290.94H23.7816V289.57H23.0916V293.49H29.0116V289.57H28.3216ZM21.8516 294.71V295.32H25.7016V298.36H26.4116V295.32H30.2516V294.71H21.8516ZM23.7816 292.9V291.55H28.3216V292.9H23.7816ZM31.0231 294.84C33.4531 293.79 34.3831 293.2 34.7231 292.36H37.2331V295.76H37.9331V289.22H37.2331V291.74H34.8631C34.8831 291.57 34.8931 291.38 34.8931 291.18V289.82H31.0431V290.44H34.2031V291.14C34.2031 292.46 33.9331 292.87 30.7331 294.26L31.0231 294.84ZM33.0431 295.27H32.3331V298.25H38.1631V297.63H33.0431V295.27ZM40.7747 294.3V294.91H45.7247V296.05H40.8247V298.39H46.6547V297.79H41.5147V296.64H46.4147V294.3H40.7747ZM41.6547 291.87C41.7147 292.04 42.0847 292.36 42.5547 292.73C42.8447 292.96 43.2847 293.29 43.7447 293.62L44.1447 293.11C43.6247 292.76 43.0647 292.34 42.6947 292.03C42.0647 291.5 41.9747 291.27 41.9747 290.54V289.45H41.2547V290.57C41.2547 291.3 41.0947 291.64 40.5147 292.17C40.1047 292.54 39.5347 292.99 38.9047 293.43L39.3347 293.94C40.0047 293.45 40.5547 293 40.9047 292.69C41.3447 292.31 41.5947 292.03 41.6447 291.87H41.6547ZM43.6647 290.98V291.6H45.7147V293.76H46.4147V289.22H45.7147V290.98H43.6647ZM47.9762 293.76C47.9762 292.16 48.3662 290.66 49.3462 289.34H48.7262C47.7362 290.52 47.2562 292.03 47.2562 293.81V294.21C47.2562 295.99 47.7362 297.52 48.7262 298.7H49.3462C48.3162 297.29 47.9762 295.78 47.9762 294.26V293.76ZM55.1362 294.26C55.1362 295.78 54.7962 297.29 53.7662 298.7H54.3862C55.3762 297.52 55.8562 295.99 55.8562 294.21V293.81C55.8562 292.03 55.3762 290.52 54.3862 289.34H53.7662C54.7462 290.66 55.1362 292.16 55.1362 293.76V294.26ZM49.3462 291.04V291.58H51.2262V291.74C51.2262 292.29 50.8062 292.53 49.0562 293.27L49.3162 293.79C50.8462 293.14 51.4262 292.81 51.5562 292.59C51.6662 292.79 52.2662 293.16 53.7762 293.79L54.0362 293.27C52.2762 292.53 51.8662 292.3 51.8662 291.74V291.58H53.7562V291.04H49.3462ZM48.5962 294.33V294.87H51.2362V297.08H51.8662V294.87H54.5062V294.33H48.5962Z" fill="#555555"/>
<path d="M107.55 295.06C106.05 295.06 104.71 295.59 104.71 296.66V297C104.71 298.05 106.05 298.6 107.55 298.6C109.05 298.6 110.39 298.05 110.39 297V296.66C110.39 295.61 109.05 295.06 107.55 295.06ZM107.54 291.37H107.55C107.66 291.58 108.12 291.87 108.74 292.14C109.26 292.37 110.02 292.67 110.76 292.93L111.03 292.38C110.35 292.14 109.53 291.84 108.95 291.58C108.14 291.22 107.9 290.89 107.9 290.37V290.19H110.65V289.59H104.45V290.19H107.19V290.37C107.19 290.89 106.93 291.22 106.13 291.58C105.64 291.8 104.89 292.09 104.05 292.39L104.34 292.94C105.12 292.66 105.83 292.38 106.35 292.15C106.96 291.89 107.45 291.58 107.54 291.37ZM107.55 298C106.47 298 105.39 297.63 105.39 296.96V296.7C105.39 296.03 106.47 295.66 107.55 295.66C108.63 295.66 109.71 296.03 109.71 296.7V296.96C109.71 297.63 108.63 298 107.55 298ZM103.35 293.71V294.31H111.75V293.71H107.9V292.54H107.2V293.71H103.35ZM118.352 294.9V295.97H114.252V294.9H113.562V298.36H119.042V294.9H118.352ZM114.582 294.42C115.992 294.42 116.672 293.7 116.672 293V292.7C116.672 292 115.992 291.28 114.582 291.28C113.172 291.28 112.492 292 112.492 292.7V293C112.492 293.7 113.172 294.42 114.582 294.42ZM114.252 297.73V296.59H118.352V297.73H114.252ZM114.582 291.87C115.542 291.87 115.992 292.34 115.992 292.74V292.96C115.992 293.36 115.542 293.83 114.582 293.83C113.622 293.83 113.172 293.36 113.172 292.96V292.74C113.172 292.34 113.622 291.87 114.582 291.87ZM119.042 289.22H118.342V294.36H119.042V292.11H120.442V291.49H119.042V289.22ZM114.932 289.09H114.232V290.24H111.962V290.85H117.222V290.24H114.932V289.09ZM121.023 294.84C123.453 293.79 124.383 293.2 124.723 292.36H127.233V295.76H127.933V289.22H127.233V291.74H124.863C124.883 291.57 124.893 291.38 124.893 291.18V289.82H121.043V290.44H124.203V291.14C124.203 292.46 123.933 292.87 120.733 294.26L121.023 294.84ZM123.043 295.27H122.333V298.25H128.163V297.63H123.043V295.27ZM130.775 294.3V294.91H135.725V296.05H130.825V298.39H136.655V297.79H131.515V296.64H136.415V294.3H130.775ZM131.655 291.87C131.715 292.04 132.085 292.36 132.555 292.73C132.845 292.96 133.285 293.29 133.745 293.62L134.145 293.11C133.625 292.76 133.065 292.34 132.695 292.03C132.065 291.5 131.975 291.27 131.975 290.54V289.45H131.255V290.57C131.255 291.3 131.095 291.64 130.515 292.17C130.105 292.54 129.535 292.99 128.905 293.43L129.335 293.94C130.005 293.45 130.555 293 130.905 292.69C131.345 292.31 131.595 292.03 131.645 291.87H131.655ZM133.665 290.98V291.6H135.715V293.76H136.415V289.22H135.715V290.98H133.665ZM137.676 291.86C137.676 292.78 138.576 293.68 139.906 293.68C141.206 293.68 142.096 292.82 142.136 291.92H144.216V293.89H144.916V289.22H144.216V291.3H142.136C142.086 290.41 141.196 289.56 139.906 289.56C138.576 289.56 137.676 290.46 137.676 291.38V291.86ZM144.226 294.43V295.69H140.026V294.43H139.336V298.35H144.916V294.43H144.226ZM141.456 291.79C141.456 292.45 140.796 293.05 139.906 293.05C139.016 293.05 138.356 292.45 138.356 291.79V291.45C138.356 290.79 139.016 290.19 139.906 290.19C140.796 290.19 141.456 290.79 141.456 291.45V291.79ZM140.026 297.72V296.31H144.226V297.72H140.026ZM152.648 294.9C151.148 294.9 149.878 295.49 149.878 296.56V296.94C149.878 297.99 151.148 298.6 152.648 298.6C154.148 298.6 155.418 297.99 155.418 296.94V296.56C155.418 295.51 154.148 294.9 152.648 294.9ZM153.448 293.39C152.988 293.44 152.518 293.47 152.038 293.5V290.4H153.048V289.8H148.058V290.4H148.968V293.55H147.998V294.15C149.888 294.15 151.838 294.15 153.508 293.98L153.448 293.39ZM152.648 298C151.578 298 150.558 297.61 150.558 296.9V296.6C150.558 295.89 151.578 295.5 152.648 295.5C153.718 295.5 154.738 295.89 154.738 296.6V296.9C154.738 297.61 153.718 298 152.648 298ZM153.088 290.78V291.38H154.678V292.21H153.088V292.81H154.678V294.69H155.368V289.22H154.678V290.78H153.088ZM149.648 293.55V290.4H151.358V293.52C150.808 293.54 150.238 293.55 149.648 293.55ZM156.259 293.13V293.73H159.219V296.14H159.909V293.73H161.679V296.14H162.369V293.73H164.659V293.13H163.139C163.279 292.4 163.359 291.61 163.359 290.94V289.67H157.369V290.29H162.659V290.9C162.659 291.56 162.589 292.35 162.409 293.13H156.259ZM158.179 295.33H157.469V298.25H163.689V297.63H158.179V295.33Z" fill="#555555"/>
<path d="M97 289H87V299H97V289Z" fill="#4A89DB"/>
<path d="M141 53H97V73H141V53Z" fill="#F8F8F8"/>
<path d="M224 24H180V44H224V24Z" fill="#F8F8F8"/>
<path d="M101.768 66.316V67.312H107.576V66.28H103.232L105.932 63.4C106.712 62.572 107.264 61.756 107.264 60.82V60.7C107.264 59.44 106.316 58.528 104.564 58.528C102.968 58.528 102.2 59.524 101.792 60.268L102.704 60.856C103.268 59.848 103.952 59.596 104.588 59.596C105.488 59.596 106.076 60.016 106.076 60.7V60.796C106.076 61.252 105.98 61.732 104.996 62.812L101.768 66.316ZM108.684 67.804H110.052V66.424H108.684V67.804ZM111.18 66.316V67.312H116.988V66.28H112.644L115.344 63.4C116.124 62.572 116.676 61.756 116.676 60.82V60.7C116.676 59.44 115.728 58.528 113.976 58.528C112.38 58.528 111.612 59.524 111.204 60.268L112.116 60.856C112.68 59.848 113.364 59.596 114 59.596C114.9 59.596 115.488 60.016 115.488 60.7V60.796C115.488 61.252 115.392 61.732 114.408 62.812L111.18 66.316ZM123.736 62.308C123.736 59.884 122.716 58.528 120.676 58.528C118.66 58.528 117.616 59.884 117.616 62.308V63.652C117.616 66.076 118.624 67.444 120.676 67.444C122.752 67.444 123.736 66.1 123.736 63.652V62.308ZM122.524 63.664C122.524 65.8 121.732 66.34 120.676 66.34C119.668 66.34 118.828 65.788 118.828 63.664V62.296C118.828 60.196 119.668 59.632 120.676 59.632C121.732 59.632 122.524 60.184 122.524 62.296V63.664Z" fill="#222222"/>
<path d="M184.768 37.316V38.312H190.576V37.28H186.232L188.932 34.4C189.712 33.572 190.264 32.756 190.264 31.82V31.7C190.264 30.44 189.316 29.528 187.564 29.528C185.968 29.528 185.2 30.524 184.792 31.268L185.704 31.856C186.268 30.848 186.952 30.596 187.588 30.596C188.488 30.596 189.076 31.016 189.076 31.7V31.796C189.076 32.252 188.98 32.732 187.996 33.812L184.768 37.316ZM191.684 38.804H193.052V37.424H191.684V38.804ZM200.12 35.528C200.12 34.064 199.184 32.852 197.54 32.852C196.82 32.852 196.196 33.092 195.812 33.38L195.944 30.68H199.556V29.66H194.864L194.588 34.532H195.5C195.884 34.16 196.46 33.848 197.192 33.848C198.296 33.848 198.932 34.412 198.932 35.564V35.708C198.932 36.512 198.392 37.364 197.132 37.364C196.328 37.364 195.584 37.184 194.756 36.536L194.168 37.484C194.984 38.132 195.932 38.444 197.108 38.444C199.268 38.444 200.12 36.98 200.12 35.708V35.528ZM206.736 33.308C206.736 30.884 205.716 29.528 203.676 29.528C201.66 29.528 200.616 30.884 200.616 33.308V34.652C200.616 37.076 201.624 38.444 203.676 38.444C205.752 38.444 206.736 37.1 206.736 34.652V33.308ZM205.524 34.664C205.524 36.8 204.732 37.34 203.676 37.34C202.668 37.34 201.828 36.788 201.828 34.664V33.296C201.828 31.196 202.668 30.632 203.676 30.632C204.732 30.632 205.524 31.184 205.524 33.296V34.664Z" fill="#222222"/>
<path d="M300 67H256V87H300V67Z" fill="#F8F8F8"/>
<path d="M266.768 80.316V81.312H272.576V80.28H268.232L270.932 77.4C271.712 76.572 272.264 75.756 272.264 74.82V74.7C272.264 73.44 271.316 72.528 269.564 72.528C267.968 72.528 267.2 73.524 266.792 74.268L267.704 74.856C268.268 73.848 268.952 73.596 269.588 73.596C270.488 73.596 271.076 74.016 271.076 74.7V74.796C271.076 75.252 270.98 75.732 269.996 76.812L266.768 80.316ZM273.684 81.804H275.052V80.424H273.684V81.804ZM282.132 76.308C282.132 73.884 281.112 72.528 279.072 72.528C277.056 72.528 276.012 73.884 276.012 76.308V77.652C276.012 80.076 277.02 81.444 279.072 81.444C281.148 81.444 282.132 80.1 282.132 77.652V76.308ZM280.92 77.664C280.92 79.8 280.128 80.34 279.072 80.34C278.064 80.34 277.224 79.788 277.224 77.664V76.296C277.224 74.196 278.064 73.632 279.072 73.632C280.128 73.632 280.92 74.184 280.92 76.296V77.664ZM287.116 81.312V72.66H286.12L283.336 74.292L283.9 75.252L285.928 74.052V81.312H287.116Z" fill="#222222"/>
<path d="M72.72 237.308C72.72 234.884 71.7 233.528 69.66 233.528C67.644 233.528 66.6 234.884 66.6 237.308V238.652C66.6 241.076 67.608 242.444 69.66 242.444C71.736 242.444 72.72 241.1 72.72 238.652V237.308ZM71.508 238.664C71.508 240.8 70.716 241.34 69.66 241.34C68.652 241.34 67.812 240.788 67.812 238.664V237.296C67.812 235.196 68.652 234.632 69.66 234.632C70.716 234.632 71.508 235.184 71.508 237.296V238.664ZM73.6842 242.804H75.0522V241.424H73.6842V242.804ZM82.1316 237.308C82.1316 234.884 81.1116 233.528 79.0716 233.528C77.0556 233.528 76.0116 234.884 76.0116 237.308V238.652C76.0116 241.076 77.0196 242.444 79.0716 242.444C81.1476 242.444 82.1316 241.1 82.1316 238.652V237.308ZM80.9196 238.664C80.9196 240.8 80.1276 241.34 79.0716 241.34C78.0636 241.34 77.2236 240.788 77.2236 238.664V237.296C77.2236 235.196 78.0636 234.632 79.0716 234.632C80.1276 234.632 80.9196 235.184 80.9196 237.296V238.664ZM88.7358 237.308C88.7358 234.884 87.7158 233.528 85.6758 233.528C83.6598 233.528 82.6158 234.884 82.6158 237.308V238.652C82.6158 241.076 83.6238 242.444 85.6758 242.444C87.7518 242.444 88.7358 241.1 88.7358 238.652V237.308ZM87.5238 238.664C87.5238 240.8 86.7318 241.34 85.6758 241.34C84.6678 241.34 83.8278 240.788 83.8278 238.664V237.296C83.8278 235.196 84.6678 234.632 85.6758 234.632C86.7318 234.632 87.5238 235.184 87.5238 237.296V238.664Z" fill="#222222"/>
<path d="M180 73H142V93H180V73Z" fill="#F8F8F8"/>
<path d="M154.1 87.312V78.66H153.104L150.32 80.292L150.884 81.252L152.912 80.052V87.312H154.1ZM156.684 87.804H158.052V86.424H156.684V87.804ZM159.42 86.832C160.068 87.228 160.884 87.444 161.664 87.444C163.812 87.444 164.988 86.28 164.988 82.488V82.044C164.988 79.728 163.896 78.528 161.976 78.528C160.212 78.528 159.024 79.704 159.024 81.36V81.624C159.024 83.316 160.212 84.384 161.748 84.384C162.708 84.384 163.524 83.904 163.812 83.4C163.764 85.656 162.936 86.352 161.736 86.352C161.052 86.352 160.416 86.136 159.876 85.824L159.42 86.832ZM163.776 81.624C163.776 82.572 163.044 83.328 161.988 83.328C160.968 83.328 160.212 82.704 160.212 81.552V81.396C160.212 80.268 160.908 79.608 162.024 79.608C163.104 79.608 163.776 80.34 163.776 81.456V81.624ZM169.66 81.792V84.444H166.732L170.716 78.66H169.408L165.34 84.564V85.452H169.66V87.312H170.836V85.452H172.06V84.444H170.836V81.792H169.66Z" fill="#222222"/>
<path d="M237.72 237.308C237.72 234.884 236.7 233.528 234.66 233.528C232.644 233.528 231.6 234.884 231.6 237.308V238.652C231.6 241.076 232.608 242.444 234.66 242.444C236.736 242.444 237.72 241.1 237.72 238.652V237.308ZM236.508 238.664C236.508 240.8 235.716 241.34 234.66 241.34C233.652 241.34 232.812 240.788 232.812 238.664V237.296C232.812 235.196 233.652 234.632 234.66 234.632C235.716 234.632 236.508 235.184 236.508 237.296V238.664ZM238.684 242.804H240.052V241.424H238.684V242.804ZM247.132 237.308C247.132 234.884 246.112 233.528 244.072 233.528C242.056 233.528 241.012 234.884 241.012 237.308V238.652C241.012 241.076 242.02 242.444 244.072 242.444C246.148 242.444 247.132 241.1 247.132 238.652V237.308ZM245.92 238.664C245.92 240.8 245.128 241.34 244.072 241.34C243.064 241.34 242.224 240.788 242.224 238.664V237.296C242.224 235.196 243.064 234.632 244.072 234.632C245.128 234.632 245.92 235.184 245.92 237.296V238.664ZM253.736 237.308C253.736 234.884 252.716 233.528 250.676 233.528C248.66 233.528 247.616 234.884 247.616 237.308V238.652C247.616 241.076 248.624 242.444 250.676 242.444C252.752 242.444 253.736 241.1 253.736 238.652V237.308ZM252.524 238.664C252.524 240.8 251.732 241.34 250.676 241.34C249.668 241.34 248.828 240.788 248.828 238.664V237.296C248.828 235.196 249.668 234.632 250.676 234.632C251.732 234.632 252.524 235.184 252.524 237.296V238.664Z" fill="#222222"/>
<path d="M162.96 270.145V271.39H170.22V270.1H164.79L168.165 266.5C169.14 265.465 169.83 264.445 169.83 263.275V263.125C169.83 261.55 168.645 260.41 166.455 260.41C164.46 260.41 163.5 261.655 162.99 262.585L164.13 263.32C164.835 262.06 165.69 261.745 166.485 261.745C167.61 261.745 168.345 262.27 168.345 263.125V263.245C168.345 263.815 168.225 264.415 166.995 265.765L162.96 270.145ZM178.655 265.135C178.655 262.105 177.38 260.41 174.83 260.41C172.31 260.41 171.005 262.105 171.005 265.135V266.815C171.005 269.845 172.265 271.555 174.83 271.555C177.425 271.555 178.655 269.875 178.655 266.815V265.135ZM177.14 266.83C177.14 269.5 176.15 270.175 174.83 270.175C173.57 270.175 172.52 269.485 172.52 266.83V265.12C172.52 262.495 173.57 261.79 174.83 261.79C176.15 261.79 177.14 262.48 177.14 265.12V266.83ZM179.471 270.145V271.39H186.731V270.1H181.301L184.676 266.5C185.651 265.465 186.341 264.445 186.341 263.275V263.125C186.341 261.55 185.156 260.41 182.966 260.41C180.971 260.41 180.011 261.655 179.501 262.585L180.641 263.32C181.346 262.06 182.201 261.745 182.996 261.745C184.121 261.745 184.856 262.27 184.856 263.125V263.245C184.856 263.815 184.736 264.415 183.506 265.765L179.471 270.145ZM195.166 265.135C195.166 262.105 193.891 260.41 191.341 260.41C188.821 260.41 187.516 262.105 187.516 265.135V266.815C187.516 269.845 188.776 271.555 191.341 271.555C193.936 271.555 195.166 269.875 195.166 266.815V265.135ZM193.651 266.83C193.651 269.5 192.661 270.175 191.341 270.175C190.081 270.175 189.031 269.485 189.031 266.83V265.12C189.031 262.495 190.081 261.79 191.341 261.79C192.661 261.79 193.651 262.48 193.651 265.12V266.83Z" fill="#222222"/>
<path d="M244.96 270.145V271.39H252.22V270.1H246.79L250.165 266.5C251.14 265.465 251.83 264.445 251.83 263.275V263.125C251.83 261.55 250.645 260.41 248.455 260.41C246.46 260.41 245.5 261.655 244.99 262.585L246.13 263.32C246.835 262.06 247.69 261.745 248.485 261.745C249.61 261.745 250.345 262.27 250.345 263.125V263.245C250.345 263.815 250.225 264.415 248.995 265.765L244.96 270.145ZM260.655 265.135C260.655 262.105 259.38 260.41 256.83 260.41C254.31 260.41 253.005 262.105 253.005 265.135V266.815C253.005 269.845 254.265 271.555 256.83 271.555C259.425 271.555 260.655 269.875 260.655 266.815V265.135ZM259.14 266.83C259.14 269.5 258.15 270.175 256.83 270.175C255.57 270.175 254.52 269.485 254.52 266.83V265.12C254.52 262.495 255.57 261.79 256.83 261.79C258.15 261.79 259.14 262.48 259.14 265.12V266.83ZM266.886 271.39V260.575H265.641L262.161 262.615L262.866 263.815L265.401 262.315V271.39H266.886ZM270.026 270.79C270.836 271.285 271.856 271.555 272.831 271.555C275.516 271.555 276.986 270.1 276.986 265.36V264.805C276.986 261.91 275.621 260.41 273.221 260.41C271.016 260.41 269.531 261.88 269.531 263.95V264.28C269.531 266.395 271.016 267.73 272.936 267.73C274.136 267.73 275.156 267.13 275.516 266.5C275.456 269.32 274.421 270.19 272.921 270.19C272.066 270.19 271.271 269.92 270.596 269.53L270.026 270.79ZM275.471 264.28C275.471 265.465 274.556 266.41 273.236 266.41C271.961 266.41 271.016 265.63 271.016 264.19V263.995C271.016 262.585 271.886 261.76 273.281 261.76C274.631 261.76 275.471 262.675 275.471 264.07V264.28Z" fill="#222222"/>
<path d="M283 12H239V32H283V12Z" fill="#F8F8F8"/>
</svg>
