<svg width="1006" height="234" viewBox="0 0 1006 234" fill="none" xmlns="http://www.w3.org/2000/svg">
<rect width="990" height="218" rx="109" fill="url(#paint0_linear_1_10445)"/>
<path d="M759 109L749 115V103L759 109Z" fill="white"/>
<path d="M502 109L492 115V103L502 109Z" fill="white"/>
<path d="M245 109L235 115V103L245 109Z" fill="white"/>
<g filter="url(#filter0_d_1_10445)">
<circle cx="367" cy="109" r="95" fill="white"/>
</g>
<g filter="url(#filter1_d_1_10445)">
<circle cx="623" cy="109" r="95" fill="white"/>
</g>
<g filter="url(#filter2_d_1_10445)">
<path d="M976 109C976 161.467 933.467 204 881 204C828.533 204 786 161.467 786 109C786 56.5329 828.533 14 881 14C933.467 14 976 56.5329 976 109Z" fill="white"/>
</g>
<path d="M858.1 115.48H849.78V124.34H858.1V115.48ZM864.04 127.52V114.36H862.1V117.12H859.18V118.82H862.1V121.08H859.18V122.78H862.1V127.52H864.04ZM854.5 126.48H852.52V132.6H864.42V130.88H854.5V126.48ZM851.72 117.16H856.16V122.66H851.72V117.16ZM879.083 124.76V127.06H871.503V124.76H869.543V132.8H881.043V124.76H879.083ZM871.603 120.7C871.743 120.98 872.203 121.4 872.743 121.82C873.603 122.48 874.643 123.24 875.683 123.9L876.763 122.46C875.603 121.72 874.423 120.94 873.483 120.14C872.483 119.3 872.523 118.7 872.523 117.42V117.12H876.163V115.44H866.643V117.12H870.523V117.5C870.523 118.96 870.383 119.66 869.303 120.62C868.563 121.28 867.303 122.16 866.023 122.98L867.123 124.42C868.203 123.72 869.423 122.84 870.243 122.2C870.883 121.7 871.463 121.02 871.583 120.7H871.603ZM881.043 123.86V114.36H879.083V118.5H875.683V120.2H879.083V123.86H881.043ZM871.503 131.12V128.72H879.083V131.12H871.503ZM888.606 121.62C888.746 121.92 889.146 122.3 889.746 122.8C890.706 123.6 891.566 124.26 892.606 124.98L893.726 123.54C892.566 122.76 891.526 122 890.566 121.16C889.706 120.42 889.526 119.66 889.526 118.38V117.24H893.166V115.54H883.646V117.24H887.526V118.46C887.526 119.92 887.206 120.72 886.226 121.64C885.526 122.3 884.306 123.24 883.026 124.14L884.186 125.56C885.306 124.78 886.406 123.94 887.246 123.18C887.866 122.62 888.466 121.96 888.586 121.62H888.606ZM898.046 127.5V114.36H896.086V119.06H892.686V120.76H896.086V127.5H898.046ZM888.506 126.44H886.526V132.6H898.426V130.88H888.506V126.44ZM909.469 126.36C905.829 126.36 903.809 127.74 903.809 129.52V130.16C903.809 131.94 905.829 133.32 909.469 133.32C913.109 133.32 915.129 131.94 915.129 130.16V129.52C915.129 127.74 913.109 126.36 909.469 126.36ZM905.089 125.54C907.949 125.54 909.369 123.94 909.369 122.42V121.82C909.369 120.3 907.949 118.7 905.089 118.7C902.229 118.7 900.809 120.28 900.809 121.82V122.42C900.809 123.94 902.229 125.54 905.089 125.54ZM915.049 126V114.36H913.109V118.8H910.409V120.5H913.109V122.28H910.409V123.98H913.109V126H915.049ZM909.469 131.72C907.089 131.72 905.749 130.92 905.749 130.04V129.64C905.749 128.76 907.089 127.96 909.469 127.96C911.849 127.96 913.189 128.76 913.189 129.64V130.04C913.189 130.92 911.849 131.72 909.469 131.72ZM910.469 116.34H906.049V114.16H904.089V116.34H899.809V118.02H910.469V116.34ZM905.089 123.96C903.469 123.96 902.689 123.1 902.689 122.32V121.92C902.689 121.14 903.449 120.28 905.089 120.28C906.729 120.28 907.489 121.14 907.489 121.92V122.32C907.489 123.1 906.709 123.96 905.089 123.96Z" fill="#222222"/>
<path d="M863.662 99.046C862.546 99.046 860.962 98.416 859.99 97.678L859.09 99.136C860.17 100 861.772 100.666 863.608 100.666C866.272 100.666 868.234 99.442 868.234 97.066V96.742C868.234 94.942 867.244 93.808 864.04 93.088C862.114 92.656 861.052 92.224 861.052 91.036V90.748C861.052 89.722 862.114 88.894 863.734 88.894C864.922 88.894 865.876 89.164 866.83 89.812L867.676 88.426C866.578 87.688 865.3 87.292 863.716 87.292C860.728 87.292 859.27 89.002 859.27 90.766V91.09C859.27 93.43 861.142 94.186 863.59 94.708C865.696 95.158 866.434 95.734 866.434 96.868V97.156C866.434 98.182 865.498 99.046 863.662 99.046ZM874.088 100.468V89.02H878.048V87.49H868.346V89.02H872.306V100.468H874.088ZM878.737 87.49V100.468H886.945V98.938H880.519V94.582H886.441V93.052H880.519V89.02H886.819V87.49H878.737ZM888.415 100.468H890.197V95.41H893.059C895.885 95.41 897.361 93.682 897.361 91.576V91.198C897.361 89.074 895.993 87.49 893.059 87.49H888.415V100.468ZM892.951 89.038C894.625 89.038 895.561 89.74 895.561 91.216V91.54C895.561 93.106 894.625 93.862 892.753 93.862H890.197V89.038H892.951ZM903.934 92.188V96.166H899.542L905.518 87.49H903.556L897.454 96.346V97.678H903.934V100.468H905.698V97.678H907.534V96.166H905.698V92.188H903.934Z" fill="#5082E6"/>
<path d="M589.68 116.1H587.76L582.4 130.52H584.42L585.94 126.28H591.46L592.98 130.52H595.06L589.68 116.1ZM587.76 121.2C588.18 120 588.3 119.64 588.7 118.3C589.1 119.62 589.22 120 589.66 121.2L590.86 124.58H586.54L587.76 121.2ZM595.897 116.1V130.52H597.877V116.1H595.897ZM608.691 119.06C608.691 117.28 607.251 115.02 604.111 115.02C600.971 115.02 599.531 117.28 599.531 119.06V120.08C599.531 121.86 600.971 124.12 604.111 124.12C607.251 124.12 608.691 121.86 608.691 120.08V119.06ZM602.211 127.72H612.371V132.98H614.351V126.02H602.211V127.72ZM614.351 125.06V114.36H612.411V116.7H609.511V118.4H612.411V120.86H609.511V122.56H612.411V125.06H614.351ZM606.791 119.98C606.791 121.16 605.951 122.4 604.111 122.4C602.271 122.4 601.431 121.16 601.431 119.98V119.16C601.431 117.98 602.271 116.74 604.111 116.74C605.951 116.74 606.791 117.98 606.791 119.16V119.98ZM625.034 125.88C621.554 125.88 619.474 127.34 619.474 129.2V130C619.474 131.86 621.554 133.32 625.034 133.32C628.514 133.32 630.594 131.86 630.594 130V129.2C630.594 127.34 628.514 125.88 625.034 125.88ZM620.254 124.6C623.174 124.6 624.894 124.48 627.154 124.2L626.974 122.56C624.494 122.86 622.654 122.92 620.454 122.92H618.774V120.72H625.014V115.24H616.754V116.92H623.054V119.08H616.814V124.6H620.254ZM633.134 117.12H630.514V114.36H628.554V125.64H630.514V122.56H633.134V120.84H630.514V118.84H633.134V117.12ZM625.034 131.7C622.814 131.7 621.414 130.78 621.414 129.88V129.32C621.414 128.42 622.814 127.5 625.034 127.5C627.254 127.5 628.654 128.42 628.654 129.32V129.88C628.654 130.78 627.254 131.7 625.034 131.7ZM636.857 125.62V132.78H648.357V125.62H636.857ZM648.357 124.72V114.36H646.397V118.74H642.177C642.197 118.6 642.197 118.42 642.197 118.26V115.44H634.337V117.12H640.257V118.12C640.257 120.2 639.217 121.2 633.577 123.56L634.317 125.16C638.857 123.24 640.957 122.1 641.757 120.44H646.397V124.72H648.357ZM638.817 127.3H646.397V131.1H638.817V127.3ZM667.22 121.02H664.38V114.36H662.4V132.8H664.38V122.74H667.22V121.02ZM655.44 123.54C655.6 123.94 656.08 124.5 656.64 125.1C657.4 125.92 658.3 126.82 659.68 128.1L660.96 126.74C659.76 125.68 658.88 124.84 658.02 123.9C656.8 122.54 656.42 121.72 656.42 120.14V115.7H654.42V120.14C654.42 121.56 654.1 122.46 652.88 123.84C651.98 124.84 650.94 125.86 649.72 126.94L651.02 128.28C652.38 127.04 653.44 125.98 654.26 125.08C654.9 124.38 655.24 123.98 655.42 123.54H655.44Z" fill="#222222"/>
<path d="M605.662 99.046C604.546 99.046 602.962 98.416 601.99 97.678L601.09 99.136C602.17 100 603.772 100.666 605.608 100.666C608.272 100.666 610.234 99.442 610.234 97.066V96.742C610.234 94.942 609.244 93.808 606.04 93.088C604.114 92.656 603.052 92.224 603.052 91.036V90.748C603.052 89.722 604.114 88.894 605.734 88.894C606.922 88.894 607.876 89.164 608.83 89.812L609.676 88.426C608.578 87.688 607.3 87.292 605.716 87.292C602.728 87.292 601.27 89.002 601.27 90.766V91.09C601.27 93.43 603.142 94.186 605.59 94.708C607.696 95.158 608.434 95.734 608.434 96.868V97.156C608.434 98.182 607.498 99.046 605.662 99.046ZM616.088 100.468V89.02H620.048V87.49H610.346V89.02H614.306V100.468H616.088ZM620.737 87.49V100.468H628.945V98.938H622.519V94.582H628.441V93.052H622.519V89.02H628.819V87.49H620.737ZM630.415 100.468H632.197V95.41H635.059C637.885 95.41 639.361 93.682 639.361 91.576V91.198C639.361 89.074 637.993 87.49 635.059 87.49H630.415V100.468ZM634.951 89.038C636.625 89.038 637.561 89.74 637.561 91.216V91.54C637.561 93.106 636.625 93.862 634.753 93.862H632.197V89.038H634.951ZM641.596 90.172C642.298 89.254 643.054 88.876 644.116 88.876C645.286 88.876 646.258 89.452 646.258 90.586V90.73C646.258 91.846 645.7 92.926 644.08 92.926H642.55V94.474H644.152C645.664 94.474 646.834 94.978 646.834 96.688V96.922C646.834 98.092 645.97 99.046 644.08 99.046C642.964 99.046 642.064 98.722 640.804 97.804L639.922 99.226C641.146 100.198 642.568 100.666 644.08 100.666C647.266 100.666 648.616 98.812 648.616 96.904V96.634C648.616 95.14 647.734 93.952 645.988 93.646C647.59 93.07 648.022 91.738 648.022 90.712V90.532C648.022 88.588 646.492 87.292 644.098 87.292C642.154 87.292 641.074 88.156 640.318 89.236L641.596 90.172Z" fill="#5082E6"/>
<path d="M349.06 132.8V114.36H347.08V120.06H343.16V121.8H347.08V132.8H349.06ZM339.22 123.54C339.38 123.94 339.86 124.5 340.42 125.1C341.18 125.92 342.08 126.82 343.46 128.1L344.74 126.74C343.54 125.68 342.66 124.84 341.8 123.9C340.58 122.54 340.2 121.72 340.2 120.14V115.7H338.2V120.14C338.2 121.56 337.88 122.46 336.66 123.84C335.76 124.84 334.72 125.86 333.5 126.94L334.8 128.28C336.16 127.04 337.22 125.98 338.04 125.08C338.68 124.38 339.02 123.98 339.2 123.54H339.22ZM365.543 123.72V122.06H354.983V120.34H365.103V115.3H352.943V116.96H363.143V118.68H353.023V123.72H365.543ZM363.303 132.8V127.08H367.563V125.4H350.643V127.08H354.903V132.8H356.883V127.08H361.323V132.8H363.303ZM373.606 121.62C373.746 121.92 374.146 122.3 374.746 122.8C375.706 123.6 376.566 124.26 377.606 124.98L378.726 123.54C377.566 122.76 376.526 122 375.566 121.16C374.706 120.42 374.526 119.66 374.526 118.38V117.24H378.166V115.54H368.646V117.24H372.526V118.46C372.526 119.92 372.206 120.72 371.226 121.64C370.526 122.3 369.306 123.24 368.026 124.14L369.186 125.56C370.306 124.78 371.406 123.94 372.246 123.18C372.866 122.62 373.466 121.96 373.586 121.62H373.606ZM383.046 127.5V114.36H381.086V119.06H377.686V120.76H381.086V127.5H383.046ZM373.506 126.44H371.526V132.6H383.426V130.88H373.506V126.44ZM394.469 126.36C390.829 126.36 388.809 127.74 388.809 129.52V130.16C388.809 131.94 390.829 133.32 394.469 133.32C398.109 133.32 400.129 131.94 400.129 130.16V129.52C400.129 127.74 398.109 126.36 394.469 126.36ZM390.089 125.54C392.949 125.54 394.369 123.94 394.369 122.42V121.82C394.369 120.3 392.949 118.7 390.089 118.7C387.229 118.7 385.809 120.28 385.809 121.82V122.42C385.809 123.94 387.229 125.54 390.089 125.54ZM400.049 126V114.36H398.109V118.8H395.409V120.5H398.109V122.28H395.409V123.98H398.109V126H400.049ZM394.469 131.72C392.089 131.72 390.749 130.92 390.749 130.04V129.64C390.749 128.76 392.089 127.96 394.469 127.96C396.849 127.96 398.189 128.76 398.189 129.64V130.04C398.189 130.92 396.849 131.72 394.469 131.72ZM395.469 116.34H391.049V114.16H389.089V116.34H384.809V118.02H395.469V116.34ZM390.089 123.96C388.469 123.96 387.689 123.1 387.689 122.32V121.92C387.689 121.14 388.449 120.28 390.089 120.28C391.729 120.28 392.489 121.14 392.489 121.92V122.32C392.489 123.1 391.709 123.96 390.089 123.96Z" fill="#222222"/>
<path d="M348.662 99.046C347.546 99.046 345.962 98.416 344.99 97.678L344.09 99.136C345.17 100 346.772 100.666 348.608 100.666C351.272 100.666 353.234 99.442 353.234 97.066V96.742C353.234 94.942 352.244 93.808 349.04 93.088C347.114 92.656 346.052 92.224 346.052 91.036V90.748C346.052 89.722 347.114 88.894 348.734 88.894C349.922 88.894 350.876 89.164 351.83 89.812L352.676 88.426C351.578 87.688 350.3 87.292 348.716 87.292C345.728 87.292 344.27 89.002 344.27 90.766V91.09C344.27 93.43 346.142 94.186 348.59 94.708C350.696 95.158 351.434 95.734 351.434 96.868V97.156C351.434 98.182 350.498 99.046 348.662 99.046ZM359.088 100.468V89.02H363.048V87.49H353.346V89.02H357.306V100.468H359.088ZM363.737 87.49V100.468H371.945V98.938H365.519V94.582H371.441V93.052H365.519V89.02H371.819V87.49H363.737ZM373.415 100.468H375.197V95.41H378.059C380.885 95.41 382.361 93.682 382.361 91.576V91.198C382.361 89.074 380.993 87.49 378.059 87.49H373.415V100.468ZM377.951 89.038C379.625 89.038 380.561 89.74 380.561 91.216V91.54C380.561 93.106 379.625 93.862 377.753 93.862H375.197V89.038H377.951ZM383.12 98.974V100.468H391.832V98.92H385.316L389.366 94.6C390.536 93.358 391.364 92.134 391.364 90.73V90.55C391.364 88.66 389.942 87.292 387.314 87.292C384.92 87.292 383.768 88.786 383.156 89.902L384.524 90.784C385.37 89.272 386.396 88.894 387.35 88.894C388.7 88.894 389.582 89.524 389.582 90.55V90.694C389.582 91.378 389.438 92.098 387.962 93.718L383.12 98.974Z" fill="#5082E6"/>
<g filter="url(#filter3_d_1_10445)">
<circle cx="109" cy="109" r="95" fill="white"/>
</g>
<path d="M73.8 123.72C73.96 124.12 74.46 124.68 75.02 125.28C75.78 126.1 76.62 126.94 77.98 128.18L79.28 126.84C78.1 125.8 77.26 125.02 76.4 124.08C74.98 122.54 74.76 121.94 74.76 120.36V117.74H78.62V116.02H68.8V117.74H72.76V120.36C72.76 121.84 72.54 122.6 71.22 124.06C70.32 125.06 69.34 126.04 68.14 127.12L69.44 128.46C70.78 127.22 71.78 126.2 72.6 125.3C73.24 124.6 73.6 124.16 73.78 123.72H73.8ZM83.1 132.8V114.36H81.12V132.8H83.1ZM90.7231 121.62C93.5431 121.62 95.2631 120.12 95.2631 118.48V117.84C95.2631 116.2 93.5431 114.7 90.7231 114.7C87.9031 114.7 86.1831 116.2 86.1831 117.84V118.48C86.1831 120.12 87.9031 121.62 90.7231 121.62ZM100.043 128.64V114.36H98.0831V125.34H94.1831V127H98.0831V128.64H100.043ZM89.9431 127.68H87.9631V132.62H100.423V130.92H89.9431V127.68ZM91.5031 126.94V124.24C93.4431 124.16 95.1831 124.04 96.8831 123.86L96.7431 122.2C92.3631 122.56 89.4031 122.66 84.9831 122.64V124.36C86.6231 124.36 88.1431 124.34 89.5431 124.3V126.94H91.5031ZM90.7231 119.96C89.0231 119.96 88.0631 119.14 88.0631 118.36V117.96C88.0631 117.18 89.0231 116.38 90.7231 116.38C92.4231 116.38 93.3831 117.18 93.3831 117.96V118.36C93.3831 119.14 92.4231 119.96 90.7231 119.96ZM117.066 132.8V114.36H115.086V120.06H111.166V121.8H115.086V132.8H117.066ZM107.226 123.54C107.386 123.94 107.866 124.5 108.426 125.1C109.186 125.92 110.086 126.82 111.466 128.1L112.746 126.74C111.546 125.68 110.666 124.84 109.806 123.9C108.586 122.54 108.206 121.72 108.206 120.14V115.7H106.206V120.14C106.206 121.56 105.886 122.46 104.666 123.84C103.766 124.84 102.726 125.86 101.506 126.94L102.806 128.28C104.166 127.04 105.226 125.98 106.046 125.08C106.686 124.38 107.026 123.98 107.206 123.54H107.226ZM132.089 124.76V127.06H124.509V124.76H122.549V132.8H134.049V124.76H132.089ZM124.609 120.7C124.749 120.98 125.209 121.4 125.749 121.82C126.609 122.48 127.649 123.24 128.689 123.9L129.769 122.46C128.609 121.72 127.429 120.94 126.489 120.14C125.489 119.3 125.529 118.7 125.529 117.42V117.12H129.169V115.44H119.649V117.12H123.529V117.5C123.529 118.96 123.389 119.66 122.309 120.62C121.569 121.28 120.309 122.16 119.029 122.98L120.129 124.42C121.209 123.72 122.429 122.84 123.249 122.2C123.889 121.7 124.469 121.02 124.589 120.7H124.609ZM134.049 123.86V114.36H132.089V118.5H128.689V120.2H132.089V123.86H134.049ZM124.509 131.12V128.72H132.089V131.12H124.509ZM145.112 132.8V126.46H152.572V124.78H135.652V126.46H143.112V132.8H145.112ZM146.332 121.28C147.412 121.82 148.952 122.52 150.592 123.16L151.352 121.56C149.872 121 148.232 120.3 146.952 119.6C145.592 118.86 145.092 118.14 145.092 116.64V115H143.112V116.64C143.112 118.14 142.592 118.86 141.232 119.6C139.952 120.3 138.312 121 136.832 121.56L137.612 123.18C139.252 122.54 140.792 121.84 141.872 121.3C143.192 120.64 143.852 120.12 144.092 119.68H144.112C144.372 120.12 145.012 120.62 146.332 121.28Z" fill="#222222"/>
<path d="M90.6617 99.046C89.5457 99.046 87.9617 98.416 86.9897 97.678L86.0897 99.136C87.1697 100 88.7717 100.666 90.6077 100.666C93.2717 100.666 95.2337 99.442 95.2337 97.066V96.742C95.2337 94.942 94.2437 93.808 91.0397 93.088C89.1137 92.656 88.0517 92.224 88.0517 91.036V90.748C88.0517 89.722 89.1137 88.894 90.7337 88.894C91.9217 88.894 92.8757 89.164 93.8297 89.812L94.6757 88.426C93.5777 87.688 92.2997 87.292 90.7157 87.292C87.7277 87.292 86.2697 89.002 86.2697 90.766V91.09C86.2697 93.43 88.1417 94.186 90.5897 94.708C92.6957 95.158 93.4337 95.734 93.4337 96.868V97.156C93.4337 98.182 92.4977 99.046 90.6617 99.046ZM101.088 100.468V89.02H105.048V87.49H95.3455V89.02H99.3055V100.468H101.088ZM105.737 87.49V100.468H113.945V98.938H107.519V94.582H113.441V93.052H107.519V89.02H113.819V87.49H105.737ZM115.415 100.468H117.197V95.41H120.059C122.885 95.41 124.361 93.682 124.361 91.576V91.198C124.361 89.074 122.993 87.49 120.059 87.49H115.415V100.468ZM119.951 89.038C121.625 89.038 122.561 89.74 122.561 91.216V91.54C122.561 93.106 121.625 93.862 119.753 93.862H117.197V89.038H119.951ZM131.618 100.468V87.49H130.124L125.948 89.938L126.794 91.378L129.836 89.578V100.468H131.618Z" fill="#5082E6"/>
<defs>
<filter id="filter0_d_1_10445" x="262" y="4" width="230" height="230" filterUnits="userSpaceOnUse" color-interpolation-filters="sRGB">
<feFlood flood-opacity="0" result="BackgroundImageFix"/>
<feColorMatrix in="SourceAlpha" type="matrix" values="0 0 0 0 0 0 0 0 0 0 0 0 0 0 0 0 0 0 127 0" result="hardAlpha"/>
<feOffset dx="10" dy="10"/>
<feGaussianBlur stdDeviation="10"/>
<feColorMatrix type="matrix" values="0 0 0 0 0 0 0 0 0 0 0 0 0 0 0 0 0 0 0.102 0"/>
<feBlend mode="normal" in2="BackgroundImageFix" result="effect1_dropShadow_1_10445"/>
<feBlend mode="normal" in="SourceGraphic" in2="effect1_dropShadow_1_10445" result="shape"/>
</filter>
<filter id="filter1_d_1_10445" x="518" y="4" width="230" height="230" filterUnits="userSpaceOnUse" color-interpolation-filters="sRGB">
<feFlood flood-opacity="0" result="BackgroundImageFix"/>
<feColorMatrix in="SourceAlpha" type="matrix" values="0 0 0 0 0 0 0 0 0 0 0 0 0 0 0 0 0 0 127 0" result="hardAlpha"/>
<feOffset dx="10" dy="10"/>
<feGaussianBlur stdDeviation="10"/>
<feColorMatrix type="matrix" values="0 0 0 0 0 0 0 0 0 0 0 0 0 0 0 0 0 0 0.102 0"/>
<feBlend mode="normal" in2="BackgroundImageFix" result="effect1_dropShadow_1_10445"/>
<feBlend mode="normal" in="SourceGraphic" in2="effect1_dropShadow_1_10445" result="shape"/>
</filter>
<filter id="filter2_d_1_10445" x="776" y="4" width="230" height="230" filterUnits="userSpaceOnUse" color-interpolation-filters="sRGB">
<feFlood flood-opacity="0" result="BackgroundImageFix"/>
<feColorMatrix in="SourceAlpha" type="matrix" values="0 0 0 0 0 0 0 0 0 0 0 0 0 0 0 0 0 0 127 0" result="hardAlpha"/>
<feOffset dx="10" dy="10"/>
<feGaussianBlur stdDeviation="10"/>
<feColorMatrix type="matrix" values="0 0 0 0 0 0 0 0 0 0 0 0 0 0 0 0 0 0 0.102 0"/>
<feBlend mode="normal" in2="BackgroundImageFix" result="effect1_dropShadow_1_10445"/>
<feBlend mode="normal" in="SourceGraphic" in2="effect1_dropShadow_1_10445" result="shape"/>
</filter>
<filter id="filter3_d_1_10445" x="4" y="4" width="230" height="230" filterUnits="userSpaceOnUse" color-interpolation-filters="sRGB">
<feFlood flood-opacity="0" result="BackgroundImageFix"/>
<feColorMatrix in="SourceAlpha" type="matrix" values="0 0 0 0 0 0 0 0 0 0 0 0 0 0 0 0 0 0 127 0" result="hardAlpha"/>
<feOffset dx="10" dy="10"/>
<feGaussianBlur stdDeviation="10"/>
<feColorMatrix type="matrix" values="0 0 0 0 0 0 0 0 0 0 0 0 0 0 0 0 0 0 0.102 0"/>
<feBlend mode="normal" in2="BackgroundImageFix" result="effect1_dropShadow_1_10445"/>
<feBlend mode="normal" in="SourceGraphic" in2="effect1_dropShadow_1_10445" result="shape"/>
</filter>
<linearGradient id="paint0_linear_1_10445" x1="22.0757" y1="109" x2="964.719" y2="109" gradientUnits="userSpaceOnUse">
<stop stop-color="#33B9A5"/>
<stop offset="0.69" stop-color="#40A7C9"/>
<stop offset="1" stop-color="#5082E6"/>
</linearGradient>
</defs>
</svg>
