<svg width="367" height="117" viewBox="0 0 367 117" fill="none" xmlns="http://www.w3.org/2000/svg">
<g filter="url(#filter0_d_1_45861)">
<path d="M350.471 53.5C350.471 79.44 329.388 100.471 303.377 100.471C277.367 100.471 256.284 79.44 256.284 53.5C256.284 27.56 277.367 6.52914 303.377 6.52914C329.388 6.52914 350.471 27.56 350.471 53.5Z" fill="white" stroke="url(#paint0_linear_1_45861)" stroke-width="1.05828"/>
</g>
<path d="M279.375 50.1977C279.375 51.3617 280.647 52.2977 282.771 52.2977C284.895 52.2977 286.167 51.3617 286.167 50.1977V49.7177C286.167 48.5537 284.895 47.6177 282.771 47.6177C280.647 47.6177 279.375 48.5537 279.375 49.7177V50.1977ZM280.455 45.0137C280.539 45.1937 280.779 45.4217 281.139 45.7217C281.715 46.2017 282.231 46.5977 282.855 47.0297L283.527 46.1657C282.819 45.6977 282.195 45.2417 281.631 44.7257C281.103 44.2457 281.007 43.8377 281.007 43.0697V42.6257H283.191V41.6057H277.479V42.6257H279.807V43.1177C279.807 43.9937 279.603 44.4497 279.015 45.0257C278.583 45.4457 277.875 45.9857 277.107 46.5257L277.803 47.3777C278.475 46.9097 279.123 46.3937 279.639 45.9497C280.023 45.6257 280.371 45.2177 280.443 45.0137H280.455ZM285.003 50.1257C285.003 50.7137 284.139 51.3257 282.771 51.3257C281.403 51.3257 280.539 50.7137 280.539 50.1257V49.7897C280.539 49.2017 281.403 48.5897 282.771 48.5897C284.139 48.5897 285.003 49.2017 285.003 49.7897V50.1257ZM286.119 47.4617V40.9217H284.943V43.6337H282.903V44.6537H284.943V47.4617H286.119ZM290.729 44.9057C290.813 45.0857 291.053 45.3137 291.413 45.6137C291.989 46.0937 292.529 46.5017 293.153 46.9337L293.825 46.0697C293.117 45.6017 292.469 45.1337 291.905 44.6177C291.377 44.1377 291.281 43.7297 291.281 42.9617V42.5897H293.501V41.5697H287.729V42.5897H290.081V43.0097C290.081 43.8857 289.877 44.3417 289.289 44.9177C288.857 45.3377 288.125 45.8897 287.357 46.4297L288.053 47.2817C288.725 46.8137 289.397 46.2857 289.913 45.8417C290.297 45.5177 290.645 45.1097 290.717 44.9057H290.729ZM288.965 48.9497H295.061V52.0937H296.249V47.9297H288.965V48.9497ZM296.249 47.3537V40.9217H295.073V47.3537H296.249ZM306.139 51.9857V46.0337H307.795V45.0017H306.139V40.9217H304.963V51.9857H306.139ZM304.255 48.2177C303.079 48.3257 302.107 48.3977 300.655 48.4337V45.1457H299.479V48.4577C298.855 48.4697 298.135 48.4697 297.319 48.4697V49.5017C301.111 49.5017 302.359 49.4417 304.351 49.2497L304.255 48.2177ZM297.859 42.9977H302.275V43.8137C302.275 44.4017 302.251 45.6257 302.011 46.7777L303.175 46.9217C303.379 45.9737 303.451 44.4137 303.451 43.6217V41.9657H297.859V42.9977ZM313.173 48.1457H311.985V51.8657H319.161V50.8337H313.173V48.1457ZM318.897 48.7937V40.9217H317.721V48.7937H318.897ZM313.233 45.0257C313.305 45.2057 313.557 45.4577 313.917 45.7577C314.493 46.2377 315.081 46.7297 315.693 47.1977L316.389 46.3697C315.681 45.8537 314.973 45.2897 314.409 44.7737C313.833 44.2457 313.785 43.8497 313.785 43.1057V41.4377H312.585V43.1537C312.585 43.9937 312.417 44.4497 311.805 45.0617C311.385 45.4817 310.617 46.1297 309.849 46.7177L310.557 47.5577C311.193 47.0537 311.925 46.4417 312.417 45.9857C312.789 45.6497 313.161 45.2297 313.221 45.0257H313.233ZM323.207 47.0777V48.7097C322.319 48.7217 321.335 48.7337 320.207 48.7217V49.7537C323.351 49.7537 325.463 49.6697 327.491 49.4657L327.383 48.4697C326.435 48.5657 325.487 48.6257 324.419 48.6737V47.0777H326.747V46.0577H322.055V44.8937H326.447V41.7617H320.831V42.7817H325.271V43.8737H320.879V47.0777H323.207ZM329.267 51.9857V40.9217H328.091V51.9857H329.267Z" fill="#222222"/>
<path d="M279.293 60.0181C278.529 60.0181 278.043 60.4139 277.818 60.7827V58.156H277.206V64.9565H277.818V61.8081C277.818 61.2414 278.385 60.5758 279.203 60.5758C280.166 60.5758 280.427 61.1515 280.427 61.8441V64.9565H281.038V61.6912C281.038 60.6837 280.4 60.0181 279.293 60.0181ZM283.737 60.0181C282.442 60.0181 281.677 60.8187 281.677 62.2219V62.8246C281.677 64.2189 282.442 65.0285 283.737 65.0285C285.033 65.0285 285.797 64.2189 285.797 62.8246V62.2219C285.797 60.8276 285.033 60.0181 283.737 60.0181ZM283.737 64.4888C282.847 64.4888 282.298 63.9311 282.298 62.7886V62.2579C282.298 61.1155 282.847 60.5578 283.737 60.5578C284.628 60.5578 285.177 61.1155 285.177 62.2579V62.7886C285.177 63.9311 284.628 64.4888 283.737 64.4888ZM288.562 60.0181C287.797 60.0181 287.303 60.4139 287.078 60.7827V60.108H286.475V64.9565H287.087V61.8081C287.087 61.2414 287.654 60.5758 288.472 60.5758C289.435 60.5758 289.695 61.1515 289.695 61.8441V64.9565H290.307V61.6912C290.307 60.6837 289.668 60.0181 288.562 60.0181ZM291.558 62.2129V62.132C291.558 61.1785 292.062 60.5578 292.916 60.5578C293.762 60.5578 294.256 61.1245 294.256 62.132V62.2129H291.558ZM294.49 64.012C294.139 64.2639 293.654 64.4888 293.006 64.4888C292.116 64.4888 291.558 63.8771 291.558 62.8066V62.7257H294.868V62.2219C294.868 60.8636 294.175 60.0181 292.916 60.0181C291.702 60.0181 290.946 60.8276 290.946 62.2039V62.8066C290.946 64.2189 291.711 65.0285 292.997 65.0285C293.816 65.0285 294.373 64.7496 294.76 64.4798L294.49 64.012ZM297.071 64.4798C296.505 64.4798 295.983 64.2729 295.542 63.976L295.245 64.4618C295.704 64.7946 296.325 65.0285 297.107 65.0285C298.133 65.0285 298.888 64.4888 298.888 63.7152V63.5802C298.888 62.8066 298.385 62.4198 297.188 62.1949C296.424 62.051 295.974 61.8351 295.974 61.4123V61.3134C295.974 60.8906 296.37 60.5578 297.098 60.5578C297.719 60.5578 298.097 60.7107 298.502 60.9806L298.78 60.5218C298.385 60.225 297.854 60.0181 297.116 60.0181C295.929 60.0181 295.362 60.6118 295.362 61.3044V61.4303C295.362 62.2219 296.001 62.5368 296.972 62.7257C297.899 62.9056 298.277 63.1215 298.277 63.6072V63.6972C298.277 64.111 297.854 64.4798 297.071 64.4798ZM299.825 63.6072C299.825 64.6597 300.23 65.0015 301.075 65.0015C301.336 65.0015 301.705 64.9565 301.894 64.8846L301.804 64.3808C301.579 64.4438 301.363 64.4708 301.12 64.4708C300.635 64.4708 300.437 64.2369 300.437 63.5802V60.6297H301.777V60.108H300.437V58.8577H299.825V60.108H298.997V60.6297H299.825V63.6072ZM301.828 60.108L303.645 65.0375L303.025 66.7736L303.546 66.9625L306.065 60.108H305.435L303.96 64.2729L302.458 60.108H301.828ZM312.262 61.6013C312.262 62.3029 312.109 62.9146 311.839 63.3733L310.238 61.4843C311.299 60.8726 311.623 60.3509 311.623 59.7752V59.6043C311.623 59.0196 311.029 58.3719 310.067 58.3719C309.05 58.3719 308.511 59.0286 308.511 59.6043V59.7662C308.511 60.3149 308.924 60.7737 309.221 61.1245L309.392 61.3314C308.151 61.9611 307.71 62.4288 307.71 63.2474V63.4633C307.71 64.4708 308.7 65.0555 309.788 65.0555H309.842C310.553 65.0555 311.317 64.8036 311.857 64.2369L312.469 64.9565H313.188L312.217 63.8141C312.622 63.2294 312.846 62.4828 312.846 61.6013H312.262ZM309.824 64.5158C308.96 64.5158 308.313 64.012 308.313 63.4363V63.2834C308.313 62.6177 308.772 62.2759 309.752 61.7542L311.506 63.8141C311.092 64.2639 310.499 64.5158 309.824 64.5158ZM309.095 59.7392V59.6403C309.095 59.2175 309.536 58.8936 310.067 58.8936C310.598 58.8936 311.038 59.2175 311.038 59.6403V59.7392C311.038 60.126 310.876 60.5488 309.887 61.0795C309.545 60.6657 309.095 60.162 309.095 59.7392ZM315.627 63.6072C315.627 64.6597 316.031 65.0015 316.877 65.0015C317.138 65.0015 317.507 64.9565 317.696 64.8846L317.606 64.3808C317.381 64.4438 317.165 64.4708 316.922 64.4708C316.436 64.4708 316.238 64.2369 316.238 63.5802V60.6297H317.579V60.108H316.238V58.8577H315.627V60.108H314.799V60.6297H315.627V63.6072ZM320.886 60.117C320.688 60.045 320.463 60.0181 320.194 60.0181C319.456 60.0181 319.006 60.4948 318.799 60.9626V60.108H318.197V64.9565H318.808V62.2039C318.808 61.2954 319.312 60.6387 320.113 60.6387C320.346 60.6387 320.535 60.6747 320.697 60.7377L320.886 60.117ZM322.826 65.0285C323.59 65.0285 324.094 64.6507 324.319 64.2819V64.9565H324.922V60.108H324.31V63.2564C324.31 63.8231 323.734 64.4708 322.916 64.4708C321.953 64.4708 321.746 63.8951 321.746 63.2024V60.108H321.135V63.3554C321.135 64.3628 321.719 65.0285 322.826 65.0285ZM327.37 64.4798C326.803 64.4798 326.281 64.2729 325.84 63.976L325.544 64.4618C326.002 64.7946 326.623 65.0285 327.406 65.0285C328.431 65.0285 329.187 64.4888 329.187 63.7152V63.5802C329.187 62.8066 328.683 62.4198 327.487 62.1949C326.722 62.051 326.272 61.8351 326.272 61.4123V61.3134C326.272 60.8906 326.668 60.5578 327.397 60.5578C328.017 60.5578 328.395 60.7107 328.8 60.9806L329.079 60.5218C328.683 60.225 328.152 60.0181 327.415 60.0181C326.227 60.0181 325.66 60.6118 325.66 61.3044V61.4303C325.66 62.2219 326.299 62.5368 327.271 62.7257C328.197 62.9056 328.575 63.1215 328.575 63.6072V63.6972C328.575 64.111 328.152 64.4798 327.37 64.4798ZM330.123 63.6072C330.123 64.6597 330.528 65.0015 331.374 65.0015C331.634 65.0015 332.003 64.9565 332.192 64.8846L332.102 64.3808C331.877 64.4438 331.661 64.4708 331.419 64.4708C330.933 64.4708 330.735 64.2369 330.735 63.5802V60.6297H332.075V60.108H330.735V58.8577H330.123V60.108H329.296V60.6297H330.123V63.6072Z" fill="#222222"/>
<path d="M240.939 54.5552L236.706 58.7775M240.939 54.5552L236.706 50.333M240.939 54.5552L245.172 50.333M240.939 54.5552L245.172 58.7775" stroke="#AAAAAA" stroke-width="1.05828"/>
<g filter="url(#filter1_d_1_45861)">
<path d="M225.594 53.5C225.594 79.44 204.51 100.471 178.5 100.471C152.49 100.471 131.406 79.44 131.406 53.5C131.406 27.56 152.49 6.52914 178.5 6.52914C204.51 6.52914 225.594 27.56 225.594 53.5Z" fill="white" stroke="url(#paint1_linear_1_45861)" stroke-width="1.05828"/>
</g>
<path d="M176.936 52.0567V51.0727H170.936V49.9927H176.624V46.9807H169.712V47.9647H175.46V49.0327H169.772V52.0567H176.936ZM170.444 41.1247C168.62 41.1247 167.696 42.3727 167.696 43.4167V43.8727C167.696 44.9167 168.62 46.1647 170.444 46.1647C172.268 46.1647 173.192 44.9167 173.192 43.8727V43.4167C173.192 42.3727 172.268 41.1247 170.444 41.1247ZM176.624 46.4047V40.9207H175.46V42.1687H173.72V43.1647H175.46V44.2687H173.72V45.2647H175.46V46.4047H176.624ZM170.444 45.1447C169.424 45.1447 168.836 44.4727 168.836 43.8247V43.4647C168.836 42.8167 169.424 42.1567 170.444 42.1567C171.464 42.1567 172.052 42.8167 172.052 43.4647V43.8247C172.052 44.4727 171.464 45.1447 170.444 45.1447ZM180.082 50.1967C180.082 51.3607 181.354 52.2967 183.478 52.2967C185.602 52.2967 186.874 51.3607 186.874 50.1967V49.7167C186.874 48.5527 185.602 47.6167 183.478 47.6167C181.354 47.6167 180.082 48.5527 180.082 49.7167V50.1967ZM181.162 45.0127C181.246 45.1927 181.486 45.4207 181.846 45.7207C182.422 46.2007 182.938 46.5967 183.562 47.0287L184.234 46.1647C183.526 45.6967 182.902 45.2407 182.338 44.7247C181.81 44.2447 181.714 43.8367 181.714 43.0687V42.6247H183.898V41.6047H178.186V42.6247H180.514V43.1167C180.514 43.9927 180.31 44.4487 179.722 45.0247C179.29 45.4447 178.582 45.9847 177.814 46.5247L178.51 47.3767C179.182 46.9087 179.83 46.3927 180.346 45.9487C180.73 45.6247 181.078 45.2167 181.15 45.0127H181.162ZM185.71 50.1247C185.71 50.7127 184.846 51.3247 183.478 51.3247C182.11 51.3247 181.246 50.7127 181.246 50.1247V49.7887C181.246 49.2007 182.11 48.5887 183.478 48.5887C184.846 48.5887 185.71 49.2007 185.71 49.7887V50.1247ZM186.826 47.4607V40.9207H185.65V43.6327H183.61V44.6527H185.65V47.4607H186.826Z" fill="#222222"/>
<path d="M165.34 64.3799C165.601 64.7217 166.096 65.0275 166.78 65.0275C167.886 65.0275 168.705 64.2719 168.705 62.9496V62.095C168.705 60.7727 167.931 60.0171 166.78 60.0171C166.177 60.0171 165.61 60.3049 165.322 60.7907V60.107H164.72V66.8806H165.331V64.3799H165.34ZM168.093 62.8596C168.093 63.8851 167.562 64.4878 166.744 64.4878C165.916 64.4878 165.331 63.9121 165.331 63.3454V61.9241C165.331 61.0695 166.078 60.5748 166.744 60.5748C167.571 60.5748 168.093 61.1505 168.093 62.185V62.8596ZM170.615 65.0275C170.983 65.0275 171.325 64.9556 171.595 64.8206C171.847 64.6947 172.045 64.5148 172.135 64.3619H172.144V64.9556H172.738V61.5643C172.738 60.5838 172.072 60.0171 170.992 60.0171C170.255 60.0171 169.706 60.278 169.256 60.5928L169.553 61.0606C169.967 60.7727 170.462 60.5658 170.983 60.5658C171.739 60.5658 172.135 60.9616 172.135 61.6632V62.113H170.768C169.643 62.113 169.058 62.6617 169.058 63.4443V63.6422C169.058 64.4968 169.697 65.0275 170.615 65.0275ZM172.135 63.4443C172.135 63.8131 171.937 64.056 171.676 64.2179C171.388 64.3978 171.091 64.4968 170.705 64.4968C170.21 64.4968 169.67 64.2449 169.67 63.6152V63.4713C169.67 62.9766 170.003 62.6258 170.777 62.6258H172.135V63.4443ZM175.096 64.4788C174.529 64.4788 174.008 64.2719 173.567 63.9751L173.27 64.4608C173.729 64.7936 174.35 65.0275 175.132 65.0275C176.158 65.0275 176.913 64.4878 176.913 63.7142V63.5793C176.913 62.8057 176.41 62.4189 175.213 62.194C174.449 62.05 173.999 61.8342 173.999 61.4114V61.3124C173.999 60.8896 174.395 60.5568 175.123 60.5568C175.744 60.5568 176.122 60.7097 176.526 60.9796L176.805 60.5208C176.41 60.224 175.879 60.0171 175.141 60.0171C173.954 60.0171 173.387 60.6108 173.387 61.3034V61.4294C173.387 62.221 174.026 62.5358 174.997 62.7247C175.924 62.9046 176.302 63.1205 176.302 63.6063V63.6962C176.302 64.11 175.879 64.4788 175.096 64.4788ZM179.01 64.4788C178.444 64.4788 177.922 64.2719 177.481 63.9751L177.184 64.4608C177.643 64.7936 178.264 65.0275 179.046 65.0275C180.072 65.0275 180.827 64.4878 180.827 63.7142V63.5793C180.827 62.8057 180.324 62.4189 179.127 62.194C178.363 62.05 177.913 61.8342 177.913 61.4114V61.3124C177.913 60.8896 178.309 60.5568 179.037 60.5568C179.658 60.5568 180.036 60.7097 180.44 60.9796L180.719 60.5208C180.324 60.224 179.793 60.0171 179.055 60.0171C177.868 60.0171 177.301 60.6108 177.301 61.3034V61.4294C177.301 62.221 177.94 62.5358 178.911 62.7247C179.838 62.9046 180.216 63.1205 180.216 63.6063V63.6962C180.216 64.11 179.793 64.4788 179.01 64.4788ZM181.413 64.9556H182.025V60.107H181.413V64.9556ZM181.386 59.1805H182.052V58.4969H181.386V59.1805ZM184.79 60.0171C183.494 60.0171 182.73 60.8177 182.73 62.221V62.8237C182.73 64.2179 183.494 65.0275 184.79 65.0275C186.085 65.0275 186.85 64.2179 186.85 62.8237V62.221C186.85 60.8267 186.085 60.0171 184.79 60.0171ZM184.79 64.4878C183.899 64.4878 183.35 63.9301 183.35 62.7877V62.2569C183.35 61.1145 183.899 60.5568 184.79 60.5568C185.68 60.5568 186.229 61.1145 186.229 62.2569V62.7877C186.229 63.9301 185.68 64.4878 184.79 64.4878ZM189.614 60.0171C188.85 60.0171 188.355 60.4129 188.13 60.7817V60.107H187.528V64.9556H188.139V61.8072C188.139 61.2405 188.706 60.5748 189.525 60.5748C190.487 60.5748 190.748 61.1505 190.748 61.8432V64.9556H191.36V61.6902C191.36 60.6827 190.721 60.0171 189.614 60.0171Z" fill="#222222"/>
<path d="M116.061 54.5552L111.828 58.7775M116.061 54.5552L111.828 50.333M116.061 54.5552L120.295 50.333M116.061 54.5552L120.295 58.7775" stroke="#AAAAAA" stroke-width="1.05828"/>
<g filter="url(#filter2_d_1_45861)">
<path d="M100.716 53.5C100.716 79.44 79.633 100.471 53.6227 100.471C27.6124 100.471 6.52914 79.44 6.52914 53.5C6.52914 27.56 27.6124 6.52914 53.6227 6.52914C79.633 6.52914 100.716 27.56 100.716 53.5Z" fill="white" stroke="url(#paint2_linear_1_45861)" stroke-width="1.05828"/>
</g>
<path d="M43.832 47.7257C41.948 47.7257 40.496 48.5657 40.496 49.7657V50.2457C40.496 51.4457 41.948 52.2857 43.832 52.2857C45.716 52.2857 47.168 51.4457 47.168 50.2457V49.7657C47.168 48.5657 45.716 47.7257 43.832 47.7257ZM41.828 45.1937C41.912 45.3737 42.152 45.6017 42.512 45.9017C43.088 46.3817 43.604 46.7777 44.228 47.2097L44.9 46.3457C44.192 45.8777 43.568 45.4217 43.004 44.9057C42.476 44.4257 42.38 44.0177 42.38 43.2737V43.1657H44.636V42.1457H42.38V40.8377H41.18V42.1457H38.78V43.1657H41.18V43.3217C41.18 44.1737 40.976 44.6297 40.388 45.2057C39.956 45.6257 39.248 46.1657 38.48 46.7057L39.176 47.5577C39.848 47.0897 40.496 46.5737 41.012 46.1297C41.396 45.8057 41.744 45.3977 41.816 45.1937H41.828ZM48.692 43.6097H47.12V40.9217H45.944V47.5337H47.12V44.6417H48.692V43.6097ZM43.832 51.3137C42.728 51.3137 41.66 50.8697 41.66 50.1737V49.8377C41.66 49.1417 42.728 48.6977 43.832 48.6977C44.936 48.6977 46.004 49.1417 46.004 49.8377V50.1737C46.004 50.8697 44.936 51.3137 43.832 51.3137ZM52.3299 46.9937C54.1419 46.9937 55.2699 45.8177 55.2699 44.5817V44.0297C55.2699 42.7937 54.1419 41.6177 52.3299 41.6177C50.5179 41.6177 49.3899 42.7937 49.3899 44.0297V44.5817C49.3899 45.8177 50.5179 46.9937 52.3299 46.9937ZM52.3299 45.9617C51.3219 45.9617 50.5299 45.2897 50.5299 44.5097V44.1017C50.5299 43.2857 51.3219 42.6497 52.3299 42.6497C53.3379 42.6497 54.1299 43.2857 54.1299 44.1017V44.5097C54.1299 45.2897 53.3379 45.9617 52.3299 45.9617ZM56.0259 48.3977C54.0339 48.5897 52.0179 48.6617 48.8499 48.6497V49.6817C51.9939 49.6817 54.1059 49.5977 56.1339 49.3937L56.0259 48.3977ZM57.8859 51.9857V40.9217H56.7099V51.9857H57.8859ZM61.2357 50.1977C61.2357 51.3617 62.5077 52.2977 64.6318 52.2977C66.7557 52.2977 68.0278 51.3617 68.0278 50.1977V49.7177C68.0278 48.5537 66.7557 47.6177 64.6318 47.6177C62.5077 47.6177 61.2357 48.5537 61.2357 49.7177V50.1977ZM62.1837 44.7737C62.2557 44.9537 62.5077 45.2177 62.8677 45.5177C63.4437 45.9977 63.9957 46.4537 64.6197 46.9217L65.3157 46.0937C64.6077 45.5777 63.9237 45.0377 63.3597 44.5217C62.7837 43.9937 62.7357 43.5977 62.7357 42.8537V41.4137H61.5357V42.9017C61.5357 43.7417 61.3677 44.1977 60.7557 44.8097C60.3357 45.2297 59.5917 45.8657 58.8237 46.4537L59.5317 47.2937C60.1677 46.7897 60.8757 46.1897 61.3677 45.7337C61.7397 45.3977 62.1117 44.9777 62.1717 44.7737H62.1837ZM67.9797 47.4617V40.9217H66.8038V43.3097H64.5838V44.3297H66.8038V47.4617H67.9797ZM66.8637 50.1257C66.8637 50.7137 65.9997 51.3257 64.6318 51.3257C63.2637 51.3257 62.3997 50.7137 62.3997 50.1257V49.7897C62.3997 49.2017 63.2637 48.5897 64.6318 48.5897C65.9997 48.5897 66.8637 49.2017 66.8637 49.7897V50.1257Z" fill="#222222"/>
<path d="M39.5007 60.0181C38.3133 60.0181 37.4947 60.7917 37.4947 62.2039V62.8066C37.4947 64.2189 38.2504 65.0285 39.5097 65.0285C40.3823 65.0285 40.877 64.7496 41.2278 64.4798L40.94 63.994C40.5892 64.2549 40.1934 64.4708 39.5187 64.4708C38.6552 64.4708 38.1154 63.8681 38.1154 62.8066V62.186C38.1154 61.1785 38.6462 60.5668 39.5007 60.5668C39.9595 60.5668 40.3643 60.6567 40.814 60.9716L41.0929 60.4948C40.6881 60.189 40.1844 60.0181 39.5007 60.0181ZM44.3145 60.117C44.1166 60.045 43.8917 60.0181 43.6219 60.0181C42.8843 60.0181 42.4345 60.4948 42.2276 60.9626V60.108H41.6249V64.9565H42.2366V62.2039C42.2366 61.2954 42.7403 60.6387 43.5409 60.6387C43.7748 60.6387 43.9637 60.6747 44.1256 60.7377L44.3145 60.117ZM44.9858 62.2129V62.132C44.9858 61.1785 45.4895 60.5578 46.3441 60.5578C47.1897 60.5578 47.6844 61.1245 47.6844 62.132V62.2129H44.9858ZM47.9183 64.012C47.5675 64.2639 47.0817 64.4888 46.4341 64.4888C45.5435 64.4888 44.9858 63.8771 44.9858 62.8066V62.7257H48.2961V62.2219C48.2961 60.8636 47.6035 60.0181 46.3441 60.0181C45.1297 60.0181 44.3741 60.8276 44.3741 62.2039V62.8066C44.3741 64.2189 45.1387 65.0285 46.4251 65.0285C47.2437 65.0285 47.8014 64.7496 48.1882 64.4798L47.9183 64.012ZM50.2744 65.0285C50.6432 65.0285 50.985 64.9565 51.2549 64.8216C51.5068 64.6957 51.7047 64.5158 51.7946 64.3628H51.8036V64.9565H52.3973V61.5653C52.3973 60.5848 51.7317 60.0181 50.6522 60.0181C49.9146 60.0181 49.3659 60.2789 48.9161 60.5938L49.2129 61.0615C49.6267 60.7737 50.1215 60.5668 50.6432 60.5668C51.3988 60.5668 51.7946 60.9626 51.7946 61.6642V62.114H50.4273C49.3029 62.114 48.7182 62.6627 48.7182 63.4453V63.6432C48.7182 64.4978 49.3569 65.0285 50.2744 65.0285ZM51.7946 63.4453C51.7946 63.8141 51.5967 64.057 51.3359 64.2189C51.048 64.3988 50.7512 64.4978 50.3644 64.4978C49.8696 64.4978 49.3299 64.2459 49.3299 63.6162V63.4723C49.3299 62.9775 49.6627 62.6267 50.4363 62.6267H51.7946V63.4453ZM53.5955 63.6072C53.5955 64.6597 54.0003 65.0015 54.8459 65.0015C55.1068 65.0015 55.4756 64.9565 55.6645 64.8846L55.5745 64.3808C55.3496 64.4438 55.1337 64.4708 54.8909 64.4708C54.4051 64.4708 54.2072 64.2369 54.2072 63.5802V60.6297H55.5475V60.108H54.2072V58.8577H53.5955V60.108H52.768V60.6297H53.5955V63.6072ZM56.1925 64.9565H56.8041V60.108H56.1925V64.9565ZM56.1655 59.1815H56.8311V58.4978H56.1655V59.1815ZM59.6231 64.9565L61.3682 60.108H60.7295L59.2902 64.3269L57.824 60.108H57.1673L58.9394 64.9565H59.6231ZM61.7278 64.9565H62.3395V60.108H61.7278V64.9565ZM61.7008 59.1815H62.3665V58.4978H61.7008V59.1815ZM63.6472 63.6072C63.6472 64.6597 64.052 65.0015 64.8975 65.0015C65.1584 65.0015 65.5272 64.9565 65.7161 64.8846L65.6262 64.3808C65.4013 64.4438 65.1854 64.4708 64.9425 64.4708C64.4568 64.4708 64.2589 64.2369 64.2589 63.5802V60.6297H65.5992V60.108H64.2589V58.8577H63.6472V60.108H62.8196V60.6297H63.6472V63.6072ZM65.6504 60.108L67.4675 65.0375L66.8468 66.7736L67.3685 66.9625L69.8873 60.108H69.2576L67.7823 64.2729L66.2801 60.108H65.6504Z" fill="#222222"/>
<defs>
<filter id="filter0_d_1_45861" x="250.463" y="0.708589" width="116.411" height="116.166" filterUnits="userSpaceOnUse" color-interpolation-filters="sRGB">
<feFlood flood-opacity="0" result="BackgroundImageFix"/>
<feColorMatrix in="SourceAlpha" type="matrix" values="0 0 0 0 0 0 0 0 0 0 0 0 0 0 0 0 0 0 127 0" result="hardAlpha"/>
<feOffset dx="5.29141" dy="5.29141"/>
<feGaussianBlur stdDeviation="5.29141"/>
<feColorMatrix type="matrix" values="0 0 0 0 0 0 0 0 0 0 0 0 0 0 0 0 0 0 0.102 0"/>
<feBlend mode="normal" in2="BackgroundImageFix" result="effect1_dropShadow_1_45861"/>
<feBlend mode="normal" in="SourceGraphic" in2="effect1_dropShadow_1_45861" result="shape"/>
</filter>
<filter id="filter1_d_1_45861" x="125.586" y="0.708589" width="116.411" height="116.166" filterUnits="userSpaceOnUse" color-interpolation-filters="sRGB">
<feFlood flood-opacity="0" result="BackgroundImageFix"/>
<feColorMatrix in="SourceAlpha" type="matrix" values="0 0 0 0 0 0 0 0 0 0 0 0 0 0 0 0 0 0 127 0" result="hardAlpha"/>
<feOffset dx="5.29141" dy="5.29141"/>
<feGaussianBlur stdDeviation="5.29141"/>
<feColorMatrix type="matrix" values="0 0 0 0 0 0 0 0 0 0 0 0 0 0 0 0 0 0 0.102 0"/>
<feBlend mode="normal" in2="BackgroundImageFix" result="effect1_dropShadow_1_45861"/>
<feBlend mode="normal" in="SourceGraphic" in2="effect1_dropShadow_1_45861" result="shape"/>
</filter>
<filter id="filter2_d_1_45861" x="0.708589" y="0.708589" width="116.411" height="116.166" filterUnits="userSpaceOnUse" color-interpolation-filters="sRGB">
<feFlood flood-opacity="0" result="BackgroundImageFix"/>
<feColorMatrix in="SourceAlpha" type="matrix" values="0 0 0 0 0 0 0 0 0 0 0 0 0 0 0 0 0 0 127 0" result="hardAlpha"/>
<feOffset dx="5.29141" dy="5.29141"/>
<feGaussianBlur stdDeviation="5.29141"/>
<feColorMatrix type="matrix" values="0 0 0 0 0 0 0 0 0 0 0 0 0 0 0 0 0 0 0.102 0"/>
<feBlend mode="normal" in2="BackgroundImageFix" result="effect1_dropShadow_1_45861"/>
<feBlend mode="normal" in="SourceGraphic" in2="effect1_dropShadow_1_45861" result="shape"/>
</filter>
<linearGradient id="paint0_linear_1_45861" x1="303.377" y1="6" x2="303.377" y2="101" gradientUnits="userSpaceOnUse">
<stop stop-color="#33B9A5"/>
<stop offset="0.69" stop-color="#40A7C9"/>
<stop offset="1" stop-color="#5082E6"/>
</linearGradient>
<linearGradient id="paint1_linear_1_45861" x1="178.5" y1="6" x2="178.5" y2="101" gradientUnits="userSpaceOnUse">
<stop stop-color="#33B9A5"/>
<stop offset="0.69" stop-color="#40A7C9"/>
<stop offset="1" stop-color="#5082E6"/>
</linearGradient>
<linearGradient id="paint2_linear_1_45861" x1="53.6227" y1="6" x2="53.6227" y2="101" gradientUnits="userSpaceOnUse">
<stop stop-color="#33B9A5"/>
<stop offset="0.69" stop-color="#40A7C9"/>
<stop offset="1" stop-color="#5082E6"/>
</linearGradient>
</defs>
</svg>
