<svg width="692" height="220" viewBox="0 0 692 220" fill="none" xmlns="http://www.w3.org/2000/svg">
<g filter="url(#filter0_d_1_10418)">
<path d="M661 100C661 149.153 621.153 189 572 189C522.847 189 483 149.153 483 100C483 50.8467 522.847 11 572 11C621.153 11 661 50.8467 661 100Z" fill="white" stroke="url(#paint0_linear_1_10418)" stroke-width="2"/>
</g>
<path d="M522.76 93.784C522.76 96.112 525.304 97.984 529.552 97.984C533.8 97.984 536.344 96.112 536.344 93.784V92.824C536.344 90.496 533.8 88.624 529.552 88.624C525.304 88.624 522.76 90.496 522.76 92.824V93.784ZM524.92 83.416C525.088 83.776 525.568 84.232 526.288 84.832C527.44 85.792 528.472 86.584 529.72 87.448L531.064 85.72C529.648 84.784 528.4 83.872 527.272 82.84C526.216 81.88 526.024 81.064 526.024 79.528V78.64H530.392V76.6H518.968V78.64H523.624V79.624C523.624 81.376 523.216 82.288 522.04 83.44C521.176 84.28 519.76 85.36 518.224 86.44L519.616 88.144C520.96 87.208 522.256 86.176 523.288 85.288C524.056 84.64 524.752 83.824 524.896 83.416H524.92ZM534.016 93.64C534.016 94.816 532.288 96.04 529.552 96.04C526.816 96.04 525.088 94.816 525.088 93.64V92.968C525.088 91.792 526.816 90.568 529.552 90.568C532.288 90.568 534.016 91.792 534.016 92.968V93.64ZM536.248 88.312V75.232H533.896V80.656H529.816V82.696H533.896V88.312H536.248ZM545.468 83.2C545.636 83.56 546.116 84.016 546.836 84.616C547.988 85.576 549.068 86.392 550.316 87.256L551.66 85.528C550.244 84.592 548.948 83.656 547.82 82.624C546.764 81.664 546.572 80.848 546.572 79.312V78.568H551.012V76.528H539.468V78.568H544.172V79.408C544.172 81.16 543.764 82.072 542.588 83.224C541.724 84.064 540.26 85.168 538.724 86.248L540.116 87.952C541.46 87.016 542.804 85.96 543.836 85.072C544.604 84.424 545.3 83.608 545.444 83.2H545.468ZM541.94 91.288H554.132V97.576H556.508V89.248H541.94V91.288ZM556.508 88.096V75.232H554.156V88.096H556.508ZM576.287 97.36V85.456H579.6V83.392H576.287V75.232H573.936V97.36H576.287ZM572.519 89.824C570.168 90.04 568.223 90.184 565.319 90.256V83.68H562.967V90.304C561.719 90.328 560.279 90.328 558.647 90.328V92.392C566.231 92.392 568.727 92.272 572.712 91.888L572.519 89.824ZM559.727 79.384H568.559V81.016C568.559 82.192 568.511 84.64 568.031 86.944L570.359 87.232C570.767 85.336 570.911 82.216 570.911 80.632V77.32H559.727V79.384ZM590.355 89.68H587.979V97.12H602.331V95.056H590.355V89.68ZM601.803 90.976V75.232H599.451V90.976H601.803ZM590.475 83.44C590.619 83.8 591.123 84.304 591.843 84.904C592.995 85.864 594.171 86.848 595.395 87.784L596.787 86.128C595.371 85.096 593.955 83.968 592.827 82.936C591.675 81.88 591.579 81.088 591.579 79.6V76.264H589.179V79.696C589.179 81.376 588.843 82.288 587.619 83.512C586.779 84.352 585.243 85.648 583.707 86.824L585.123 88.504C586.395 87.496 587.859 86.272 588.843 85.36C589.587 84.688 590.331 83.848 590.451 83.44H590.475ZM610.423 87.544V90.808C608.647 90.832 606.679 90.856 604.423 90.832V92.896C610.711 92.896 614.935 92.728 618.991 92.32L618.775 90.328C616.879 90.52 614.983 90.64 612.847 90.736V87.544H617.503V85.504H608.119V83.176H616.903V76.912H605.671V78.952H614.551V81.136H605.767V87.544H610.423ZM622.543 97.36V75.232H620.191V97.36H622.543Z" fill="#222222"/>
<path d="M526.562 113.109C525.117 113.109 524.199 113.857 523.774 114.554V109.59H522.618V122.442H523.774V116.492C523.774 115.421 524.845 114.163 526.392 114.163C528.211 114.163 528.704 115.251 528.704 116.56V122.442H529.86V116.271C529.86 114.367 528.653 113.109 526.562 113.109ZM534.96 113.109C532.512 113.109 531.067 114.622 531.067 117.274V118.413C531.067 121.048 532.512 122.578 534.96 122.578C537.408 122.578 538.853 121.048 538.853 118.413V117.274C538.853 114.639 537.408 113.109 534.96 113.109ZM534.96 121.558C533.277 121.558 532.24 120.504 532.24 118.345V117.342C532.24 115.183 533.277 114.129 534.96 114.129C536.643 114.129 537.68 115.183 537.68 117.342V118.345C537.68 120.504 536.643 121.558 534.96 121.558ZM544.078 113.109C542.633 113.109 541.698 113.857 541.273 114.554V113.279H540.134V122.442H541.29V116.492C541.29 115.421 542.361 114.163 543.908 114.163C545.727 114.163 546.22 115.251 546.22 116.56V122.442H547.376V116.271C547.376 114.367 546.169 113.109 544.078 113.109ZM549.74 117.257V117.104C549.74 115.302 550.692 114.129 552.307 114.129C553.905 114.129 554.84 115.2 554.84 117.104V117.257H549.74ZM555.282 120.657C554.619 121.133 553.701 121.558 552.477 121.558C550.794 121.558 549.74 120.402 549.74 118.379V118.226H555.996V117.274C555.996 114.707 554.687 113.109 552.307 113.109C550.012 113.109 548.584 114.639 548.584 117.24V118.379C548.584 121.048 550.029 122.578 552.46 122.578C554.007 122.578 555.061 122.051 555.792 121.541L555.282 120.657ZM560.16 121.541C559.089 121.541 558.103 121.15 557.27 120.589L556.709 121.507C557.576 122.136 558.749 122.578 560.228 122.578C562.166 122.578 563.594 121.558 563.594 120.096V119.841C563.594 118.379 562.642 117.648 560.381 117.223C558.936 116.951 558.086 116.543 558.086 115.744V115.557C558.086 114.758 558.834 114.129 560.211 114.129C561.384 114.129 562.098 114.418 562.863 114.928L563.39 114.061C562.642 113.5 561.639 113.109 560.245 113.109C558.001 113.109 556.93 114.231 556.93 115.54V115.778C556.93 117.274 558.137 117.869 559.973 118.226C561.724 118.566 562.438 118.974 562.438 119.892V120.062C562.438 120.844 561.639 121.541 560.16 121.541ZM565.364 119.892C565.364 121.881 566.129 122.527 567.727 122.527C568.22 122.527 568.917 122.442 569.274 122.306L569.104 121.354C568.679 121.473 568.271 121.524 567.812 121.524C566.894 121.524 566.52 121.082 566.52 119.841V114.265H569.053V113.279H566.52V110.916H565.364V113.279H563.8V114.265H565.364V119.892ZM569.149 113.279L572.583 122.595L571.41 125.876L572.396 126.233L577.156 113.279H575.966L573.178 121.15L570.339 113.279H569.149ZM588.867 116.101C588.867 117.427 588.578 118.583 588.068 119.45L585.042 115.88C587.048 114.724 587.66 113.738 587.66 112.65V112.327C587.66 111.222 586.538 109.998 584.719 109.998C582.798 109.998 581.778 111.239 581.778 112.327V112.633C581.778 113.67 582.56 114.537 583.121 115.2L583.444 115.591C581.098 116.781 580.265 117.665 580.265 119.212V119.62C580.265 121.524 582.135 122.629 584.192 122.629H584.294C585.637 122.629 587.082 122.153 588.102 121.082L589.258 122.442H590.618L588.782 120.283C589.547 119.178 589.972 117.767 589.972 116.101H588.867ZM584.26 121.609C582.628 121.609 581.404 120.657 581.404 119.569V119.28C581.404 118.022 582.271 117.376 584.124 116.39L587.439 120.283C586.657 121.133 585.535 121.609 584.26 121.609ZM582.883 112.582V112.395C582.883 111.596 583.716 110.984 584.719 110.984C585.722 110.984 586.555 111.596 586.555 112.395V112.582C586.555 113.313 586.249 114.112 584.379 115.115C583.733 114.333 582.883 113.381 582.883 112.582ZM595.227 119.892C595.227 121.881 595.992 122.527 597.59 122.527C598.083 122.527 598.78 122.442 599.137 122.306L598.967 121.354C598.542 121.473 598.134 121.524 597.675 121.524C596.757 121.524 596.383 121.082 596.383 119.841V114.265H598.916V113.279H596.383V110.916H595.227V113.279H593.663V114.265H595.227V119.892ZM605.166 113.296C604.792 113.16 604.367 113.109 603.857 113.109C602.463 113.109 601.613 114.01 601.222 114.894V113.279H600.083V122.442H601.239V117.24C601.239 115.523 602.191 114.282 603.704 114.282C604.146 114.282 604.503 114.35 604.809 114.469L605.166 113.296ZM608.832 122.578C610.277 122.578 611.229 121.864 611.654 121.167V122.442H612.793V113.279H611.637V119.229C611.637 120.3 610.549 121.524 609.002 121.524C607.183 121.524 606.792 120.436 606.792 119.127V113.279H605.636V119.416C605.636 121.32 606.741 122.578 608.832 122.578ZM617.419 121.541C616.348 121.541 615.362 121.15 614.529 120.589L613.968 121.507C614.835 122.136 616.008 122.578 617.487 122.578C619.425 122.578 620.853 121.558 620.853 120.096V119.841C620.853 118.379 619.901 117.648 617.64 117.223C616.195 116.951 615.345 116.543 615.345 115.744V115.557C615.345 114.758 616.093 114.129 617.47 114.129C618.643 114.129 619.357 114.418 620.122 114.928L620.649 114.061C619.901 113.5 618.898 113.109 617.504 113.109C615.26 113.109 614.189 114.231 614.189 115.54V115.778C614.189 117.274 615.396 117.869 617.232 118.226C618.983 118.566 619.697 118.974 619.697 119.892V120.062C619.697 120.844 618.898 121.541 617.419 121.541ZM622.623 119.892C622.623 121.881 623.388 122.527 624.986 122.527C625.479 122.527 626.176 122.442 626.533 122.306L626.363 121.354C625.938 121.473 625.53 121.524 625.071 121.524C624.153 121.524 623.779 121.082 623.779 119.841V114.265H626.312V113.279H623.779V110.916H622.623V113.279H621.059V114.265H622.623V119.892Z" fill="#222222"/>
<path d="M454 102L446 110M454 102L446 94M454 102L462 94M454 102L462 110" stroke="#DDDDDD" stroke-width="2"/>
<g filter="url(#filter1_d_1_10418)">
<path d="M425 100C425 149.153 385.153 189 336 189C286.847 189 247 149.153 247 100C247 50.8467 286.847 11 336 11C385.153 11 425 50.8467 425 100Z" fill="white" stroke="url(#paint1_linear_1_10418)" stroke-width="2"/>
</g>
<path d="M335.833 97.504V95.536H323.833V93.376H335.209V87.352H321.385V89.32H332.881V91.456H321.505V97.504H335.833ZM322.849 75.64C319.201 75.64 317.353 78.136 317.353 80.224V81.136C317.353 83.224 319.201 85.72 322.849 85.72C326.497 85.72 328.345 83.224 328.345 81.136V80.224C328.345 78.136 326.497 75.64 322.849 75.64ZM335.209 86.2V75.232H332.881V77.728H329.401V79.72H332.881V81.928H329.401V83.92H332.881V86.2H335.209ZM322.849 83.68C320.809 83.68 319.633 82.336 319.633 81.04V80.32C319.633 79.024 320.809 77.704 322.849 77.704C324.889 77.704 326.065 79.024 326.065 80.32V81.04C326.065 82.336 324.889 83.68 322.849 83.68ZM342.125 93.784C342.125 96.112 344.669 97.984 348.917 97.984C353.165 97.984 355.709 96.112 355.709 93.784V92.824C355.709 90.496 353.165 88.624 348.917 88.624C344.669 88.624 342.125 90.496 342.125 92.824V93.784ZM344.285 83.416C344.453 83.776 344.933 84.232 345.653 84.832C346.805 85.792 347.837 86.584 349.085 87.448L350.429 85.72C349.013 84.784 347.765 83.872 346.637 82.84C345.581 81.88 345.389 81.064 345.389 79.528V78.64H349.757V76.6H338.333V78.64H342.989V79.624C342.989 81.376 342.581 82.288 341.405 83.44C340.541 84.28 339.125 85.36 337.589 86.44L338.981 88.144C340.325 87.208 341.621 86.176 342.653 85.288C343.421 84.64 344.117 83.824 344.261 83.416H344.285ZM353.381 93.64C353.381 94.816 351.653 96.04 348.917 96.04C346.181 96.04 344.453 94.816 344.453 93.64V92.968C344.453 91.792 346.181 90.568 348.917 90.568C351.653 90.568 353.381 91.792 353.381 92.968V93.64ZM355.613 88.312V75.232H353.261V80.656H349.181V82.696H353.261V88.312H355.613Z" fill="#222222"/>
<path d="M311.787 121.354C312.28 122 313.215 122.578 314.507 122.578C316.598 122.578 318.145 121.15 318.145 118.651V117.036C318.145 114.537 316.683 113.109 314.507 113.109C313.368 113.109 312.297 113.653 311.753 114.571V113.279H310.614V126.08H311.77V121.354H311.787ZM316.989 118.481C316.989 120.419 315.986 121.558 314.439 121.558C312.875 121.558 311.77 120.47 311.77 119.399V116.713C311.77 115.098 313.181 114.163 314.439 114.163C316.003 114.163 316.989 115.251 316.989 117.206V118.481ZM321.755 122.578C322.452 122.578 323.098 122.442 323.608 122.187C324.084 121.949 324.458 121.609 324.628 121.32H324.645V122.442H325.767V116.033C325.767 114.18 324.509 113.109 322.469 113.109C321.075 113.109 320.038 113.602 319.188 114.197L319.749 115.081C320.531 114.537 321.466 114.146 322.452 114.146C323.88 114.146 324.628 114.894 324.628 116.22V117.07H322.044C319.919 117.07 318.814 118.107 318.814 119.586V119.96C318.814 121.575 320.021 122.578 321.755 122.578ZM324.628 119.586C324.628 120.283 324.254 120.742 323.761 121.048C323.217 121.388 322.656 121.575 321.925 121.575C320.99 121.575 319.97 121.099 319.97 119.909V119.637C319.97 118.702 320.599 118.039 322.061 118.039H324.628V119.586ZM330.224 121.541C329.153 121.541 328.167 121.15 327.334 120.589L326.773 121.507C327.64 122.136 328.813 122.578 330.292 122.578C332.23 122.578 333.658 121.558 333.658 120.096V119.841C333.658 118.379 332.706 117.648 330.445 117.223C329 116.951 328.15 116.543 328.15 115.744V115.557C328.15 114.758 328.898 114.129 330.275 114.129C331.448 114.129 332.162 114.418 332.927 114.928L333.454 114.061C332.706 113.5 331.703 113.109 330.309 113.109C328.065 113.109 326.994 114.231 326.994 115.54V115.778C326.994 117.274 328.201 117.869 330.037 118.226C331.788 118.566 332.502 118.974 332.502 119.892V120.062C332.502 120.844 331.703 121.541 330.224 121.541ZM337.621 121.541C336.55 121.541 335.564 121.15 334.731 120.589L334.17 121.507C335.037 122.136 336.21 122.578 337.689 122.578C339.627 122.578 341.055 121.558 341.055 120.096V119.841C341.055 118.379 340.103 117.648 337.842 117.223C336.397 116.951 335.547 116.543 335.547 115.744V115.557C335.547 114.758 336.295 114.129 337.672 114.129C338.845 114.129 339.559 114.418 340.324 114.928L340.851 114.061C340.103 113.5 339.1 113.109 337.706 113.109C335.462 113.109 334.391 114.231 334.391 115.54V115.778C334.391 117.274 335.598 117.869 337.434 118.226C339.185 118.566 339.899 118.974 339.899 119.892V120.062C339.899 120.844 339.1 121.541 337.621 121.541ZM342.162 122.442H343.318V113.279H342.162V122.442ZM342.111 111.528H343.369V110.236H342.111V111.528ZM348.543 113.109C346.095 113.109 344.65 114.622 344.65 117.274V118.413C344.65 121.048 346.095 122.578 348.543 122.578C350.991 122.578 352.436 121.048 352.436 118.413V117.274C352.436 114.639 350.991 113.109 348.543 113.109ZM348.543 121.558C346.86 121.558 345.823 120.504 345.823 118.345V117.342C345.823 115.183 346.86 114.129 348.543 114.129C350.226 114.129 351.263 115.183 351.263 117.342V118.345C351.263 120.504 350.226 121.558 348.543 121.558ZM357.662 113.109C356.217 113.109 355.282 113.857 354.857 114.554V113.279H353.718V122.442H354.874V116.492C354.874 115.421 355.945 114.163 357.492 114.163C359.311 114.163 359.804 115.251 359.804 116.56V122.442H360.96V116.271C360.96 114.367 359.753 113.109 357.662 113.109Z" fill="#222222"/>
<path d="M218 102L210 110M218 102L210 94M218 102L226 94M218 102L226 110" stroke="#DDDDDD" stroke-width="2"/>
<g filter="url(#filter2_d_1_10418)">
<path d="M189 100C189 149.153 149.153 189 100 189C50.8467 189 11 149.153 11 100C11 50.8467 50.8467 11 100 11C149.153 11 189 50.8467 189 100Z" fill="white" stroke="url(#paint2_linear_1_10418)" stroke-width="2"/>
</g>
<path d="M81.9609 88.84C78.1929 88.84 75.2889 90.52 75.2889 92.92V93.88C75.2889 96.28 78.1929 97.96 81.9609 97.96C85.7289 97.96 88.6329 96.28 88.6329 93.88V92.92C88.6329 90.52 85.7289 88.84 81.9609 88.84ZM77.9529 83.776C78.1209 84.136 78.6009 84.592 79.3209 85.192C80.4729 86.152 81.5049 86.944 82.7529 87.808L84.0969 86.08C82.6809 85.144 81.4329 84.232 80.3049 83.2C79.2489 82.24 79.0569 81.424 79.0569 79.936V79.72H83.5689V77.68H79.0569V75.064H76.6569V77.68H71.8569V79.72H76.6569V80.032C76.6569 81.736 76.2489 82.648 75.0729 83.8C74.2089 84.64 72.7929 85.72 71.2569 86.8L72.6489 88.504C73.9929 87.568 75.2889 86.536 76.3209 85.648C77.0889 85 77.7849 84.184 77.9289 83.776H77.9529ZM91.6809 80.608H88.5369V75.232H86.1849V88.456H88.5369V82.672H91.6809V80.608ZM81.9609 96.016C79.7529 96.016 77.6169 95.128 77.6169 93.736V93.064C77.6169 91.672 79.7529 90.784 81.9609 90.784C84.1689 90.784 86.3049 91.672 86.3049 93.064V93.736C86.3049 95.128 84.1689 96.016 81.9609 96.016ZM98.9566 87.376C102.581 87.376 104.837 85.024 104.837 82.552V81.448C104.837 78.976 102.581 76.624 98.9566 76.624C95.3326 76.624 93.0766 78.976 93.0766 81.448V82.552C93.0766 85.024 95.3326 87.376 98.9566 87.376ZM98.9566 85.312C96.9406 85.312 95.3566 83.968 95.3566 82.408V81.592C95.3566 79.96 96.9406 78.688 98.9566 78.688C100.973 78.688 102.557 79.96 102.557 81.592V82.408C102.557 83.968 100.973 85.312 98.9566 85.312ZM106.349 90.184C102.365 90.568 98.3326 90.712 91.9966 90.688V92.752C98.2846 92.752 102.509 92.584 106.565 92.176L106.349 90.184ZM110.069 97.36V75.232H107.717V97.36H110.069ZM116.768 93.784C116.768 96.112 119.312 97.984 123.56 97.984C127.808 97.984 130.352 96.112 130.352 93.784V92.824C130.352 90.496 127.808 88.624 123.56 88.624C119.312 88.624 116.768 90.496 116.768 92.824V93.784ZM118.664 82.936C118.808 83.296 119.312 83.824 120.032 84.424C121.184 85.384 122.288 86.296 123.536 87.232L124.928 85.576C123.512 84.544 122.144 83.464 121.016 82.432C119.864 81.376 119.768 80.584 119.768 79.096V76.216H117.368V79.192C117.368 80.872 117.032 81.784 115.808 83.008C114.968 83.848 113.48 85.12 111.944 86.296L113.36 87.976C114.632 86.968 116.048 85.768 117.032 84.856C117.776 84.184 118.52 83.344 118.64 82.936H118.664ZM130.256 88.312V75.232H127.904V80.008H123.464V82.048H127.904V88.312H130.256ZM128.024 93.64C128.024 94.816 126.296 96.04 123.56 96.04C120.824 96.04 119.096 94.816 119.096 93.64V92.968C119.096 91.792 120.824 90.568 123.56 90.568C126.296 90.568 128.024 91.792 128.024 92.968V93.64Z" fill="#222222"/>
<path d="M75.0151 113.109C72.7711 113.109 71.2241 114.571 71.2241 117.24V118.379C71.2241 121.048 72.6521 122.578 75.0321 122.578C76.6811 122.578 77.6161 122.051 78.2791 121.541L77.7351 120.623C77.0721 121.116 76.3241 121.524 75.0491 121.524C73.4171 121.524 72.3971 120.385 72.3971 118.379V117.206C72.3971 115.302 73.4001 114.146 75.0151 114.146C75.8821 114.146 76.6471 114.316 77.4971 114.911L78.0241 114.01C77.2591 113.432 76.3071 113.109 75.0151 113.109ZM84.1125 113.296C83.7385 113.16 83.3135 113.109 82.8035 113.109C81.4095 113.109 80.5595 114.01 80.1685 114.894V113.279H79.0295V122.442H80.1855V117.24C80.1855 115.523 81.1375 114.282 82.6505 114.282C83.0925 114.282 83.4495 114.35 83.7555 114.469L84.1125 113.296ZM85.3811 117.257V117.104C85.3811 115.302 86.3331 114.129 87.9481 114.129C89.5461 114.129 90.4811 115.2 90.4811 117.104V117.257H85.3811ZM90.9231 120.657C90.2601 121.133 89.3421 121.558 88.1181 121.558C86.4351 121.558 85.3811 120.402 85.3811 118.379V118.226H91.6371V117.274C91.6371 114.707 90.3281 113.109 87.9481 113.109C85.6531 113.109 84.2251 114.639 84.2251 117.24V118.379C84.2251 121.048 85.6701 122.578 88.1011 122.578C89.6481 122.578 90.7021 122.051 91.4331 121.541L90.9231 120.657ZM95.3758 122.578C96.0728 122.578 96.7188 122.442 97.2288 122.187C97.7048 121.949 98.0788 121.609 98.2488 121.32H98.2658V122.442H99.3878V116.033C99.3878 114.18 98.1298 113.109 96.0898 113.109C94.6958 113.109 93.6588 113.602 92.8088 114.197L93.3698 115.081C94.1518 114.537 95.0868 114.146 96.0728 114.146C97.5008 114.146 98.2488 114.894 98.2488 116.22V117.07H95.6648C93.5398 117.07 92.4348 118.107 92.4348 119.586V119.96C92.4348 121.575 93.6418 122.578 95.3758 122.578ZM98.2488 119.586C98.2488 120.283 97.8748 120.742 97.3818 121.048C96.8378 121.388 96.2768 121.575 95.5458 121.575C94.6108 121.575 93.5908 121.099 93.5908 119.909V119.637C93.5908 118.702 94.2198 118.039 95.6818 118.039H98.2488V119.586ZM101.652 119.892C101.652 121.881 102.417 122.527 104.015 122.527C104.508 122.527 105.205 122.442 105.562 122.306L105.392 121.354C104.967 121.473 104.559 121.524 104.1 121.524C103.182 121.524 102.808 121.082 102.808 119.841V114.265H105.341V113.279H102.808V110.916H101.652V113.279H100.088V114.265H101.652V119.892ZM106.56 122.442H107.716V113.279H106.56V122.442ZM106.509 111.528H107.767V110.236H106.509V111.528ZM113.043 122.442L116.341 113.279H115.134L112.414 121.252L109.643 113.279H108.402L111.751 122.442H113.043ZM117.021 122.442H118.177V113.279H117.021V122.442ZM116.97 111.528H118.228V110.236H116.97V111.528ZM120.648 119.892C120.648 121.881 121.413 122.527 123.011 122.527C123.504 122.527 124.201 122.442 124.558 122.306L124.388 121.354C123.963 121.473 123.555 121.524 123.096 121.524C122.178 121.524 121.804 121.082 121.804 119.841V114.265H124.337V113.279H121.804V110.916H120.648V113.279H119.084V114.265H120.648V119.892ZM124.434 113.279L127.868 122.595L126.695 125.876L127.681 126.233L132.441 113.279H131.251L128.463 121.15L125.624 113.279H124.434Z" fill="#222222"/>
<defs>
<filter id="filter0_d_1_10418" x="472" y="0" width="220" height="220" filterUnits="userSpaceOnUse" color-interpolation-filters="sRGB">
<feFlood flood-opacity="0" result="BackgroundImageFix"/>
<feColorMatrix in="SourceAlpha" type="matrix" values="0 0 0 0 0 0 0 0 0 0 0 0 0 0 0 0 0 0 127 0" result="hardAlpha"/>
<feOffset dx="10" dy="10"/>
<feGaussianBlur stdDeviation="10"/>
<feColorMatrix type="matrix" values="0 0 0 0 0 0 0 0 0 0 0 0 0 0 0 0 0 0 0.102 0"/>
<feBlend mode="normal" in2="BackgroundImageFix" result="effect1_dropShadow_1_10418"/>
<feBlend mode="normal" in="SourceGraphic" in2="effect1_dropShadow_1_10418" result="shape"/>
</filter>
<filter id="filter1_d_1_10418" x="236" y="0" width="220" height="220" filterUnits="userSpaceOnUse" color-interpolation-filters="sRGB">
<feFlood flood-opacity="0" result="BackgroundImageFix"/>
<feColorMatrix in="SourceAlpha" type="matrix" values="0 0 0 0 0 0 0 0 0 0 0 0 0 0 0 0 0 0 127 0" result="hardAlpha"/>
<feOffset dx="10" dy="10"/>
<feGaussianBlur stdDeviation="10"/>
<feColorMatrix type="matrix" values="0 0 0 0 0 0 0 0 0 0 0 0 0 0 0 0 0 0 0.102 0"/>
<feBlend mode="normal" in2="BackgroundImageFix" result="effect1_dropShadow_1_10418"/>
<feBlend mode="normal" in="SourceGraphic" in2="effect1_dropShadow_1_10418" result="shape"/>
</filter>
<filter id="filter2_d_1_10418" x="0" y="0" width="220" height="220" filterUnits="userSpaceOnUse" color-interpolation-filters="sRGB">
<feFlood flood-opacity="0" result="BackgroundImageFix"/>
<feColorMatrix in="SourceAlpha" type="matrix" values="0 0 0 0 0 0 0 0 0 0 0 0 0 0 0 0 0 0 127 0" result="hardAlpha"/>
<feOffset dx="10" dy="10"/>
<feGaussianBlur stdDeviation="10"/>
<feColorMatrix type="matrix" values="0 0 0 0 0 0 0 0 0 0 0 0 0 0 0 0 0 0 0.102 0"/>
<feBlend mode="normal" in2="BackgroundImageFix" result="effect1_dropShadow_1_10418"/>
<feBlend mode="normal" in="SourceGraphic" in2="effect1_dropShadow_1_10418" result="shape"/>
</filter>
<linearGradient id="paint0_linear_1_10418" x1="572" y1="10" x2="572" y2="190" gradientUnits="userSpaceOnUse">
<stop stop-color="#33B9A5"/>
<stop offset="0.69" stop-color="#40A7C9"/>
<stop offset="1" stop-color="#5082E6"/>
</linearGradient>
<linearGradient id="paint1_linear_1_10418" x1="336" y1="10" x2="336" y2="190" gradientUnits="userSpaceOnUse">
<stop stop-color="#33B9A5"/>
<stop offset="0.69" stop-color="#40A7C9"/>
<stop offset="1" stop-color="#5082E6"/>
</linearGradient>
<linearGradient id="paint2_linear_1_10418" x1="100" y1="10" x2="100" y2="190" gradientUnits="userSpaceOnUse">
<stop stop-color="#33B9A5"/>
<stop offset="0.69" stop-color="#40A7C9"/>
<stop offset="1" stop-color="#5082E6"/>
</linearGradient>
</defs>
</svg>
