<svg width="564" height="323" viewBox="0 0 564 323" fill="none" xmlns="http://www.w3.org/2000/svg">
<path d="M80 2H64V18H80V2Z" fill="#33B9A5"/>
<path d="M92.443 14.402H93.565L96.846 7.466C97.135 6.888 97.271 6.65 97.424 5.919V16.442H98.597V4.185H97.186L93.021 13.161L88.873 4.185H87.411V16.442H88.584V5.919C88.771 6.65 88.907 6.888 89.196 7.466L92.443 14.402ZM102.834 16.578C103.531 16.578 104.177 16.442 104.687 16.187C105.163 15.949 105.537 15.609 105.707 15.32H105.724V16.442H106.846V10.033C106.846 8.18 105.588 7.109 103.548 7.109C102.154 7.109 101.117 7.602 100.267 8.197L100.828 9.081C101.61 8.537 102.545 8.146 103.531 8.146C104.959 8.146 105.707 8.894 105.707 10.22V11.07H103.123C100.998 11.07 99.8927 12.107 99.8927 13.586V13.96C99.8927 15.575 101.1 16.578 102.834 16.578ZM105.707 13.586C105.707 14.283 105.333 14.742 104.84 15.048C104.296 15.388 103.735 15.575 103.004 15.575C102.069 15.575 101.049 15.099 101.049 13.909V13.637C101.049 12.702 101.678 12.039 103.14 12.039H105.707V13.586ZM108.396 16.442H109.552V3.59H108.396V16.442ZM111.975 11.257V11.104C111.975 9.302 112.927 8.129 114.542 8.129C116.14 8.129 117.075 9.2 117.075 11.104V11.257H111.975ZM117.517 14.657C116.854 15.133 115.936 15.558 114.712 15.558C113.029 15.558 111.975 14.402 111.975 12.379V12.226H118.231V11.274C118.231 8.707 116.922 7.109 114.542 7.109C112.247 7.109 110.819 8.639 110.819 11.24V12.379C110.819 15.048 112.264 16.578 114.695 16.578C116.242 16.578 117.296 16.051 118.027 15.541L117.517 14.657Z" fill="#555555"/>
<path d="M152 2H136V18H152V2Z" fill="#FFC531"/>
<path d="M160.601 16.442V10.985H166.33V9.931H160.601V5.239H166.687V4.185H159.411V16.442H160.601ZM168.6 11.257V11.104C168.6 9.302 169.552 8.129 171.167 8.129C172.765 8.129 173.7 9.2 173.7 11.104V11.257H168.6ZM174.142 14.657C173.479 15.133 172.561 15.558 171.337 15.558C169.654 15.558 168.6 14.402 168.6 12.379V12.226H174.856V11.274C174.856 8.707 173.547 7.109 171.167 7.109C168.872 7.109 167.444 8.639 167.444 11.24V12.379C167.444 15.048 168.889 16.578 171.32 16.578C172.867 16.578 173.921 16.051 174.652 15.541L174.142 14.657ZM185.378 7.109C183.916 7.109 182.998 7.993 182.59 8.775C182.182 7.721 181.281 7.109 179.819 7.109C178.476 7.109 177.66 7.823 177.252 8.554V7.279H176.113V16.442H177.269V10.492C177.269 9.421 178.102 8.163 179.615 8.163C181.264 8.163 181.672 9.098 181.672 10.577V16.442H182.828V10.424C182.862 9.37 183.695 8.163 185.174 8.163C186.823 8.163 187.231 9.098 187.231 10.577V16.442H188.387V10.271C188.387 8.333 187.452 7.109 185.378 7.109ZM192.5 16.578C193.197 16.578 193.843 16.442 194.353 16.187C194.829 15.949 195.203 15.609 195.373 15.32H195.39V16.442H196.512V10.033C196.512 8.18 195.254 7.109 193.214 7.109C191.82 7.109 190.783 7.602 189.933 8.197L190.494 9.081C191.276 8.537 192.211 8.146 193.197 8.146C194.625 8.146 195.373 8.894 195.373 10.22V11.07H192.789C190.664 11.07 189.559 12.107 189.559 13.586V13.96C189.559 15.575 190.766 16.578 192.5 16.578ZM195.373 13.586C195.373 14.283 194.999 14.742 194.506 15.048C193.962 15.388 193.401 15.575 192.67 15.575C191.735 15.575 190.715 15.099 190.715 13.909V13.637C190.715 12.702 191.344 12.039 192.806 12.039H195.373V13.586ZM198.062 16.442H199.218V3.59H198.062V16.442ZM201.641 11.257V11.104C201.641 9.302 202.593 8.129 204.208 8.129C205.806 8.129 206.741 9.2 206.741 11.104V11.257H201.641ZM207.183 14.657C206.52 15.133 205.602 15.558 204.378 15.558C202.695 15.558 201.641 14.402 201.641 12.379V12.226H207.897V11.274C207.897 8.707 206.588 7.109 204.208 7.109C201.913 7.109 200.485 8.639 200.485 11.24V12.379C200.485 15.048 201.93 16.578 204.361 16.578C205.908 16.578 206.962 16.051 207.693 15.541L207.183 14.657Z" fill="#555555"/>
<path d="M494 39H64V93H494V39Z" fill="#33B9A5"/>
<path d="M564 39H494V93H564V39Z" fill="#FFC531"/>
<path d="M463.7 61.8C463.7 60.44 464.68 59.62 466.1 59.62C467.54 59.62 468.5 60.44 468.5 61.8V62.02C468.5 63.44 467.46 64.3 466.1 64.3C464.76 64.3 463.7 63.44 463.7 62.02V61.8ZM463.32 68.46C463.32 66.86 464.56 66.04 466.12 66.04C467.7 66.04 468.88 66.9 468.88 68.46V68.68C468.88 70.04 467.84 70.96 466.12 70.96C464.4 70.96 463.32 70.04 463.32 68.68V68.46ZM461.28 68.78C461.28 71.08 463.08 72.74 466.1 72.74C469.12 72.74 470.92 71.08 470.92 68.78V68.44C470.92 66.86 469.84 65.54 468.44 65.12C469.84 64.4 470.5 63.16 470.5 61.94V61.66C470.5 59.6 468.88 57.88 466.1 57.88C463.28 57.88 461.7 59.6 461.7 61.66V61.94C461.7 63.16 462.38 64.46 463.76 65.12C462.38 65.54 461.28 66.86 461.28 68.44V68.78ZM481.527 58.86C480.447 58.2 479.087 57.88 477.787 57.88C474.547 57.88 472.247 59.74 472.247 66.06V66.8C472.247 70.66 474.027 72.74 477.267 72.74C480.207 72.74 482.187 70.86 482.187 68.1V67.66C482.187 64.84 480.207 63.06 477.647 63.06C476.047 63.06 474.687 63.86 474.207 64.7C474.347 60.9 475.707 59.7 477.667 59.7C478.807 59.7 479.867 60.02 480.767 60.54L481.527 58.86ZM474.267 67.62C474.267 66.04 475.487 64.82 477.247 64.82C479.007 64.82 480.207 65.82 480.207 67.74V68C480.207 69.88 479.047 70.94 477.187 70.94C475.387 70.94 474.267 69.76 474.267 67.9V67.62Z" fill="white"/>
<path d="M538.5 72.52V58.1H536.84L532.2 60.82L533.14 62.42L536.52 60.42V72.52H538.5ZM548.747 63.32V67.74H543.867L550.507 58.1H548.327L541.547 67.94V69.42H548.747V72.52H550.707V69.42H552.747V67.74H550.707V63.32H548.747Z" fill="white"/>
<path d="M504 187H64V241H504V187Z" fill="#33B9A5"/>
<path d="M564 187H504V241H564V187Z" fill="#FFC531"/>
<path d="M473.7 209.8C473.7 208.44 474.68 207.62 476.1 207.62C477.54 207.62 478.5 208.44 478.5 209.8V210.02C478.5 211.44 477.46 212.3 476.1 212.3C474.76 212.3 473.7 211.44 473.7 210.02V209.8ZM473.32 216.46C473.32 214.86 474.56 214.04 476.12 214.04C477.7 214.04 478.88 214.9 478.88 216.46V216.68C478.88 218.04 477.84 218.96 476.12 218.96C474.4 218.96 473.32 218.04 473.32 216.68V216.46ZM471.28 216.78C471.28 219.08 473.08 220.74 476.1 220.74C479.12 220.74 480.92 219.08 480.92 216.78V216.44C480.92 214.86 479.84 213.54 478.44 213.12C479.84 212.4 480.5 211.16 480.5 209.94V209.66C480.5 207.6 478.88 205.88 476.1 205.88C473.28 205.88 471.7 207.6 471.7 209.66V209.94C471.7 211.16 472.38 212.46 473.76 213.12C472.38 213.54 471.28 214.86 471.28 216.44V216.78ZM484.707 209.8C484.707 208.44 485.687 207.62 487.107 207.62C488.547 207.62 489.507 208.44 489.507 209.8V210.02C489.507 211.44 488.467 212.3 487.107 212.3C485.767 212.3 484.707 211.44 484.707 210.02V209.8ZM484.327 216.46C484.327 214.86 485.567 214.04 487.127 214.04C488.707 214.04 489.887 214.9 489.887 216.46V216.68C489.887 218.04 488.847 218.96 487.127 218.96C485.407 218.96 484.327 218.04 484.327 216.68V216.46ZM482.287 216.78C482.287 219.08 484.087 220.74 487.107 220.74C490.127 220.74 491.927 219.08 491.927 216.78V216.44C491.927 214.86 490.847 213.54 489.447 213.12C490.847 212.4 491.507 211.16 491.507 209.94V209.66C491.507 207.6 489.887 205.88 487.107 205.88C484.287 205.88 482.707 207.6 482.707 209.66V209.94C482.707 211.16 483.387 212.46 484.767 213.12C483.387 213.54 482.287 214.86 482.287 216.44V216.78Z" fill="white"/>
<path d="M538.5 220.52V206.1H536.84L532.2 208.82L533.14 210.42L536.52 208.42V220.52H538.5ZM542.287 218.86V220.52H551.967V218.8H544.727L549.227 214C550.527 212.62 551.447 211.26 551.447 209.7V209.5C551.447 207.4 549.867 205.88 546.947 205.88C544.287 205.88 543.007 207.54 542.327 208.78L543.847 209.76C544.787 208.08 545.927 207.66 546.987 207.66C548.487 207.66 549.467 208.36 549.467 209.5V209.66C549.467 210.42 549.307 211.22 547.667 213.02L542.287 218.86Z" fill="white"/>
<path d="M498 113H64V167H498V113Z" fill="#33B9A5"/>
<path d="M564 113H498V167H564V113Z" fill="#FFC531"/>
<path d="M452.7 135.8C452.7 134.44 453.68 133.62 455.1 133.62C456.54 133.62 457.5 134.44 457.5 135.8V136.02C457.5 137.44 456.46 138.3 455.1 138.3C453.76 138.3 452.7 137.44 452.7 136.02V135.8ZM452.32 142.46C452.32 140.86 453.56 140.04 455.12 140.04C456.7 140.04 457.88 140.9 457.88 142.46V142.68C457.88 144.04 456.84 144.96 455.12 144.96C453.4 144.96 452.32 144.04 452.32 142.68V142.46ZM450.28 142.78C450.28 145.08 452.08 146.74 455.1 146.74C458.12 146.74 459.92 145.08 459.92 142.78V142.44C459.92 140.86 458.84 139.54 457.44 139.12C458.84 138.4 459.5 137.16 459.5 135.94V135.66C459.5 133.6 457.88 131.88 455.1 131.88C452.28 131.88 450.7 133.6 450.7 135.66V135.94C450.7 137.16 451.38 138.46 452.76 139.12C451.38 139.54 450.28 140.86 450.28 142.44V142.78ZM470.527 132.86C469.447 132.2 468.087 131.88 466.787 131.88C463.547 131.88 461.247 133.74 461.247 140.06V140.8C461.247 144.66 463.027 146.74 466.267 146.74C469.207 146.74 471.187 144.86 471.187 142.1V141.66C471.187 138.84 469.207 137.06 466.647 137.06C465.047 137.06 463.687 137.86 463.207 138.7C463.347 134.9 464.707 133.7 466.667 133.7C467.807 133.7 468.867 134.02 469.767 134.54L470.527 132.86ZM463.267 141.62C463.267 140.04 464.487 138.82 466.247 138.82C468.007 138.82 469.207 139.82 469.207 141.74V142C469.207 143.88 468.047 144.94 466.187 144.94C464.387 144.94 463.267 143.76 463.267 141.9V141.62ZM472.814 147.34H475.094V145.04H472.814V147.34ZM479.393 135.8C479.393 134.44 480.373 133.62 481.793 133.62C483.233 133.62 484.193 134.44 484.193 135.8V136.02C484.193 137.44 483.153 138.3 481.793 138.3C480.453 138.3 479.393 137.44 479.393 136.02V135.8ZM479.013 142.46C479.013 140.86 480.253 140.04 481.813 140.04C483.393 140.04 484.573 140.9 484.573 142.46V142.68C484.573 144.04 483.533 144.96 481.813 144.96C480.093 144.96 479.013 144.04 479.013 142.68V142.46ZM476.973 142.78C476.973 145.08 478.773 146.74 481.793 146.74C484.813 146.74 486.613 145.08 486.613 142.78V142.44C486.613 140.86 485.533 139.54 484.133 139.12C485.533 138.4 486.193 137.16 486.193 135.94V135.66C486.193 133.6 484.573 131.88 481.793 131.88C478.973 131.88 477.393 133.6 477.393 135.66V135.94C477.393 137.16 478.073 138.46 479.453 139.12C478.073 139.54 476.973 140.86 476.973 142.44V142.78Z" fill="white"/>
<path d="M523.5 146.52V132.1H521.84L517.2 134.82L518.14 136.42L521.52 134.42V146.52H523.5ZM528.927 135.08C529.707 134.06 530.547 133.64 531.727 133.64C533.027 133.64 534.107 134.28 534.107 135.54V135.7C534.107 136.94 533.487 138.14 531.687 138.14H529.987V139.86H531.767C533.447 139.86 534.747 140.42 534.747 142.32V142.58C534.747 143.88 533.787 144.94 531.687 144.94C530.447 144.94 529.447 144.58 528.047 143.56L527.067 145.14C528.427 146.22 530.007 146.74 531.687 146.74C535.227 146.74 536.727 144.68 536.727 142.56V142.26C536.727 140.6 535.747 139.28 533.807 138.94C535.587 138.3 536.067 136.82 536.067 135.68V135.48C536.067 133.32 534.367 131.88 531.707 131.88C529.547 131.88 528.347 132.84 527.507 134.04L528.927 135.08ZM538.814 147.34H541.094V145.04H538.814V147.34ZM542.973 144.86V146.52H552.653V144.8H545.413L549.913 140C551.213 138.62 552.133 137.26 552.133 135.7V135.5C552.133 133.4 550.553 131.88 547.633 131.88C544.973 131.88 543.693 133.54 543.013 134.78L544.533 135.76C545.473 134.08 546.613 133.66 547.673 133.66C549.173 133.66 550.153 134.36 550.153 135.5V135.66C550.153 136.42 549.993 137.22 548.353 139.02L542.973 144.86Z" fill="white"/>
<path d="M1.54 219.32V220.52H10.7V219.24H3.3L7.78 213.98C9.02 212.54 10.18 211.24 10.18 209.68V209.48C10.18 207.32 8.54 205.88 5.98 205.88C3.58 205.88 2.24 207.4 1.56 208.64L2.68 209.34C3.62 207.66 4.76 207.16 6.02 207.16C7.76 207.16 8.76 208.06 8.76 209.5V209.66C8.76 210.42 8.5 211.16 6.92 213.02L1.54 219.32ZM21.6922 212.18C21.6922 208.14 20.1722 205.88 16.7722 205.88C13.4122 205.88 11.8922 208.14 11.8922 212.18V214.42C11.8922 218.46 13.3522 220.74 16.7722 220.74C20.2322 220.74 21.6922 218.5 21.6922 214.42V212.18ZM20.2522 214.44C20.2522 218.04 19.0722 219.48 16.7722 219.48C14.5522 219.48 13.3322 218.02 13.3322 214.44V212.16C13.3322 208.62 14.5522 207.14 16.7722 207.14C19.0722 207.14 20.2522 208.6 20.2522 212.16V214.44ZM23.1244 219.32V220.52H32.2844V219.24H24.8844L29.3644 213.98C30.6044 212.54 31.7644 211.24 31.7644 209.68V209.48C31.7644 207.32 30.1244 205.88 27.5644 205.88C25.1644 205.88 23.8244 207.4 23.1444 208.64L24.2644 209.34C25.2044 207.66 26.3444 207.16 27.6044 207.16C29.3444 207.16 30.3444 208.06 30.3444 209.5V209.66C30.3444 210.42 30.0844 211.16 28.5044 213.02L23.1244 219.32ZM43.2766 212.18C43.2766 208.14 41.7566 205.88 38.3566 205.88C34.9966 205.88 33.4766 208.14 33.4766 212.18V214.42C33.4766 218.46 34.9366 220.74 38.3566 220.74C41.8166 220.74 43.2766 218.5 43.2766 214.42V212.18ZM41.8366 214.44C41.8366 218.04 40.6566 219.48 38.3566 219.48C36.1366 219.48 34.9166 218.02 34.9166 214.44V212.16C34.9166 208.62 36.1366 207.14 38.3566 207.14C40.6566 207.14 41.8366 208.6 41.8366 212.16V214.44Z" fill="#222222"/>
<path d="M1.54 145.32V146.52H10.7V145.24H3.3L7.78 139.98C9.02 138.54 10.18 137.24 10.18 135.68V135.48C10.18 133.32 8.54 131.88 5.98 131.88C3.58 131.88 2.24 133.4 1.56 134.64L2.68 135.34C3.62 133.66 4.76 133.16 6.02 133.16C7.76 133.16 8.76 134.06 8.76 135.5V135.66C8.76 136.42 8.5 137.16 6.92 139.02L1.54 145.32ZM21.6922 138.18C21.6922 134.14 20.1722 131.88 16.7722 131.88C13.4122 131.88 11.8922 134.14 11.8922 138.18V140.42C11.8922 144.46 13.3522 146.74 16.7722 146.74C20.2322 146.74 21.6922 144.5 21.6922 140.42V138.18ZM20.2522 140.44C20.2522 144.04 19.0722 145.48 16.7722 145.48C14.5522 145.48 13.3322 144.02 13.3322 140.44V138.16C13.3322 134.62 14.5522 133.14 16.7722 133.14C19.0722 133.14 20.2522 134.6 20.2522 138.16V140.44ZM23.1244 145.32V146.52H32.2844V145.24H24.8844L29.3644 139.98C30.6044 138.54 31.7644 137.24 31.7644 135.68V135.48C31.7644 133.32 30.1244 131.88 27.5644 131.88C25.1644 131.88 23.8244 133.4 23.1444 134.64L24.2644 135.34C25.2044 133.66 26.3444 133.16 27.6044 133.16C29.3444 133.16 30.3444 134.06 30.3444 135.5V135.66C30.3444 136.42 30.0844 137.16 28.5044 139.02L23.1244 145.32ZM39.9966 146.52V132.1H38.9366L34.4766 134.86L35.1166 135.98L38.5966 133.86V146.52H39.9966Z" fill="#222222"/>
<path d="M1.54 71.32V72.52H10.7V71.24H3.3L7.78 65.98C9.02 64.54 10.18 63.24 10.18 61.68V61.48C10.18 59.32 8.54 57.88 5.98 57.88C3.58 57.88 2.24 59.4 1.56 60.64L2.68 61.34C3.62 59.66 4.76 59.16 6.02 59.16C7.76 59.16 8.76 60.06 8.76 61.5V61.66C8.76 62.42 8.5 63.16 6.92 65.02L1.54 71.32ZM21.6922 64.18C21.6922 60.14 20.1722 57.88 16.7722 57.88C13.4122 57.88 11.8922 60.14 11.8922 64.18V66.42C11.8922 70.46 13.3522 72.74 16.7722 72.74C20.2322 72.74 21.6922 70.5 21.6922 66.42V64.18ZM20.2522 66.44C20.2522 70.04 19.0722 71.48 16.7722 71.48C14.5522 71.48 13.3322 70.02 13.3322 66.44V64.16C13.3322 60.62 14.5522 59.14 16.7722 59.14C19.0722 59.14 20.2522 60.6 20.2522 64.16V66.44ZM23.1244 71.32V72.52H32.2844V71.24H24.8844L29.3644 65.98C30.6044 64.54 31.7644 63.24 31.7644 61.68V61.48C31.7644 59.32 30.1244 57.88 27.5644 57.88C25.1644 57.88 23.8244 59.4 23.1444 60.64L24.2644 61.34C25.2044 59.66 26.3444 59.16 27.6044 59.16C29.3444 59.16 30.3444 60.06 30.3444 61.5V61.66C30.3444 62.42 30.0844 63.16 28.5044 65.02L23.1244 71.32ZM33.9166 71.32V72.52H43.0766V71.24H35.6766L40.1566 65.98C41.3966 64.54 42.5566 63.24 42.5566 61.68V61.48C42.5566 59.32 40.9166 57.88 38.3566 57.88C35.9566 57.88 34.6166 59.4 33.9366 60.64L35.0566 61.34C35.9966 59.66 37.1366 59.16 38.3966 59.16C40.1366 59.16 41.1366 60.06 41.1366 61.5V61.66C41.1366 62.42 40.8766 63.16 39.2966 65.02L33.9166 71.32Z" fill="#222222"/>
<path d="M517.265 7.14C517.265 4.74 517.85 2.49 519.32 0.51H518.36C516.875 2.28 516.155 4.545 516.155 7.215V7.815C516.155 10.485 516.875 12.78 518.36 14.55H519.32C517.775 12.435 517.265 10.17 517.265 7.89V7.14ZM522.762 12.51C524.037 12.51 524.877 11.88 525.252 11.265V12.39H526.257V4.305H525.237V9.555C525.237 10.5 524.277 11.58 522.912 11.58C521.307 11.58 520.962 10.62 520.962 9.465V4.305H519.942V9.72C519.942 11.4 520.917 12.51 522.762 12.51ZM531.254 4.155C529.979 4.155 529.154 4.815 528.779 5.43V4.305H527.774V12.39H528.794V7.14C528.794 6.195 529.739 5.085 531.104 5.085C532.709 5.085 533.144 6.045 533.144 7.2V12.39H534.164V6.945C534.164 5.265 533.099 4.155 531.254 4.155ZM535.649 12.39H536.669V4.305H535.649V12.39ZM535.604 2.76H536.714V1.62H535.604V2.76ZM538.85 10.14C538.85 11.895 539.525 12.465 540.935 12.465C541.37 12.465 541.985 12.39 542.3 12.27L542.15 11.43C541.775 11.535 541.415 11.58 541.01 11.58C540.2 11.58 539.87 11.19 539.87 10.095V5.175H542.105V4.305H539.87V2.22H538.85V4.305H537.47V5.175H538.85V10.14ZM543.466 11.625H544.981V10.125H543.466V11.625ZM543.466 4.995H544.981V3.495H543.466V4.995ZM549.371 12.375L555.821 1.575H554.876L548.411 12.375H549.371ZM555.266 6.855C553.811 6.855 552.941 7.77 552.941 9.345V10.02C552.941 11.595 553.811 12.51 555.266 12.51C556.721 12.51 557.591 11.595 557.591 10.02V9.345C557.591 7.77 556.721 6.855 555.266 6.855ZM555.266 11.745C554.396 11.745 553.811 11.25 553.811 9.99V9.375C553.811 8.13 554.396 7.62 555.266 7.62C556.136 7.62 556.721 8.13 556.721 9.375V9.99C556.721 11.25 556.136 11.745 555.266 11.745ZM548.981 1.455C547.526 1.455 546.656 2.37 546.656 3.945V4.62C546.656 6.195 547.526 7.11 548.981 7.11C550.436 7.11 551.306 6.195 551.306 4.62V3.945C551.306 2.37 550.436 1.455 548.981 1.455ZM548.981 6.345C548.111 6.345 547.526 5.85 547.526 4.59V3.975C547.526 2.73 548.111 2.22 548.981 2.22C549.851 2.22 550.436 2.73 550.436 3.975V4.59C550.436 5.85 549.851 6.345 548.981 6.345ZM560.173 7.89C560.173 10.17 559.663 12.435 558.118 14.55H559.078C560.563 12.78 561.283 10.485 561.283 7.815V7.215C561.283 4.545 560.563 2.28 559.078 0.51H558.118C559.588 2.49 560.173 4.74 560.173 7.14V7.89Z" fill="#555555"/>
<path d="M153.803 317.52V304.8H158.203V303.1H147.423V304.8H151.823V317.52H153.803ZM164.432 306.6C163.992 306.46 163.512 306.38 163.012 306.38C161.412 306.38 160.432 307.1 159.792 308.32H159.772V306.58H157.892V317.52H159.832V311.14C159.832 309.42 161.072 308.22 162.512 308.22C163.032 308.22 163.472 308.32 163.852 308.48L164.432 306.6ZM169.172 308.04C170.832 308.04 171.872 309.12 171.872 310.8V311.16H166.392V310.88C166.392 309.2 167.552 308.04 169.172 308.04ZM172.672 315.02C171.732 315.62 170.772 316 169.352 316C167.612 316 166.392 314.88 166.392 312.82V312.74H173.752V311.28C173.752 308.16 171.972 306.38 169.172 306.38C166.472 306.38 164.472 308.08 164.472 311.4V312.64C164.472 316.18 166.572 317.68 169.272 317.68C171.252 317.68 172.532 317.14 173.492 316.48L172.672 315.02ZM183.966 310.28C183.966 307.64 182.246 306.38 180.126 306.38C178.626 306.38 177.506 306.94 176.846 307.96H176.826V306.58H174.946V317.52H176.886V310.74C176.886 309.02 178.326 308.1 179.646 308.1C181.266 308.1 182.026 308.88 182.026 310.72V317.52H183.966V310.28ZM192.658 316.16V317.52H194.518V302.4H192.578V307.72C192.138 307.08 191.178 306.38 189.518 306.38C186.958 306.38 185.178 308.12 185.178 311.08V313.02C185.178 315.98 186.678 317.68 189.438 317.68C190.798 317.68 192.018 317.26 192.618 316.16H192.658ZM192.598 313.22C192.598 314.92 191.298 315.98 189.718 315.98C188.098 315.98 187.098 314.78 187.098 312.7V311.36C187.098 309.3 188.078 308.08 189.718 308.08C191.398 308.08 192.598 309.26 192.598 310.4V313.22ZM199.832 316C198.512 316 197.392 315.5 196.412 314.84L195.512 316.36C196.552 317.16 198.092 317.68 199.912 317.68C202.452 317.68 204.072 316.34 204.072 314.62V314.36C204.072 312.34 202.812 311.54 200.152 311.04C198.452 310.72 197.792 310.4 197.792 309.54V309.36C197.792 308.6 198.452 308.04 200.072 308.04C201.172 308.04 202.232 308.38 202.952 308.92L203.812 307.46C202.732 306.7 201.412 306.38 199.932 306.38C197.092 306.38 195.852 307.82 195.852 309.34V309.58C195.852 311.5 197.192 312.28 199.612 312.78C201.672 313.2 202.112 313.5 202.112 314.42V314.58C202.112 315.46 201.272 316 199.832 316ZM209.053 306.58V317.52H210.993V306.58H209.053ZM208.993 302.66V304.78H211.053V302.66H208.993ZM221.989 310.28C221.989 307.64 220.269 306.38 218.149 306.38C216.649 306.38 215.529 306.94 214.869 307.96H214.849V306.58H212.969V317.52H214.909V310.74C214.909 309.02 216.349 308.1 217.669 308.1C219.289 308.1 220.049 308.88 220.049 310.72V317.52H221.989V310.28ZM236.342 306.58H234.402V307.72C233.962 307.08 233.002 306.38 231.342 306.38C228.782 306.38 227.002 308.12 227.002 311.08V312.82C227.002 315.78 228.502 317.48 231.262 317.48C232.582 317.48 233.782 317.08 234.402 316.04V317.38C234.402 319.32 233.402 320.22 231.522 320.22C230.442 320.22 229.422 319.84 228.702 319.3L227.822 320.82C228.722 321.52 229.982 321.98 231.462 321.98C234.682 321.98 236.342 320.44 236.342 317.38V306.58ZM234.422 313.02C234.422 314.72 233.122 315.78 231.542 315.78C229.922 315.78 228.922 314.58 228.922 312.5V311.36C228.922 309.3 229.902 308.08 231.542 308.08C233.222 308.08 234.422 309.26 234.422 310.4V313.02ZM242.396 308.04C244.056 308.04 245.096 309.12 245.096 310.8V311.16H239.616V310.88C239.616 309.2 240.776 308.04 242.396 308.04ZM245.896 315.02C244.956 315.62 243.996 316 242.576 316C240.836 316 239.616 314.88 239.616 312.82V312.74H246.976V311.28C246.976 308.16 245.196 306.38 242.396 306.38C239.696 306.38 237.696 308.08 237.696 311.4V312.64C237.696 316.18 239.796 317.68 242.496 317.68C244.476 317.68 245.756 317.14 246.716 316.48L245.896 315.02ZM257.189 310.28C257.189 307.64 255.469 306.38 253.349 306.38C251.849 306.38 250.729 306.94 250.069 307.96H250.049V306.58H248.169V317.52H250.109V310.74C250.109 309.02 251.549 308.1 252.869 308.1C254.489 308.1 255.249 308.88 255.249 310.72V317.52H257.189V310.28ZM265.882 316.16V317.52H267.742V302.4H265.802V307.72C265.362 307.08 264.402 306.38 262.742 306.38C260.182 306.38 258.402 308.12 258.402 311.08V313.02C258.402 315.98 259.902 317.68 262.662 317.68C264.022 317.68 265.242 317.26 265.842 316.16H265.882ZM265.822 313.22C265.822 314.92 264.522 315.98 262.942 315.98C261.322 315.98 260.322 314.78 260.322 312.7V311.36C260.322 309.3 261.302 308.08 262.942 308.08C264.622 308.08 265.822 309.26 265.822 310.4V313.22ZM273.796 308.04C275.456 308.04 276.496 309.12 276.496 310.8V311.16H271.016V310.88C271.016 309.2 272.176 308.04 273.796 308.04ZM277.296 315.02C276.356 315.62 275.396 316 273.976 316C272.236 316 271.016 314.88 271.016 312.82V312.74H278.376V311.28C278.376 308.16 276.596 306.38 273.796 306.38C271.096 306.38 269.096 308.08 269.096 311.4V312.64C269.096 316.18 271.196 317.68 273.896 317.68C275.876 317.68 277.156 317.14 278.116 316.48L277.296 315.02ZM286.109 306.6C285.669 306.46 285.189 306.38 284.689 306.38C283.089 306.38 282.109 307.1 281.469 308.32H281.449V306.58H279.569V317.52H281.509V311.14C281.509 309.42 282.749 308.22 284.189 308.22C284.709 308.22 285.149 308.32 285.529 308.48L286.109 306.6ZM297.049 306.6C296.609 306.46 296.129 306.38 295.629 306.38C294.029 306.38 293.049 307.1 292.409 308.32H292.389V306.58H290.509V317.52H292.449V311.14C292.449 309.42 293.689 308.22 295.129 308.22C295.649 308.22 296.089 308.32 296.469 308.48L297.049 306.6ZM300.689 317.68C301.649 317.68 302.289 317.5 302.869 317.18C303.289 316.94 303.689 316.6 303.889 316.2H303.909V317.52H305.769V309.86C305.769 307.66 304.049 306.38 301.609 306.38C299.849 306.38 298.549 307.02 297.489 307.76L298.449 309.2C299.469 308.54 300.309 308.1 301.589 308.1C303.189 308.1 303.849 308.8 303.849 310.26V310.9H301.069C298.269 310.9 297.089 312.2 297.089 314.06V314.6C297.089 316.52 298.489 317.68 300.689 317.68ZM303.849 313.62C303.849 314.44 303.629 314.92 303.109 315.32C302.529 315.78 301.849 316 300.889 316C299.849 316 298.989 315.54 298.989 314.48V314.2C298.989 313.16 299.589 312.54 301.109 312.54H303.849V313.62ZM308.281 314.46C308.281 316.66 309.241 317.68 311.321 317.68C312.101 317.68 312.921 317.5 313.361 317.32L313.061 315.76C312.561 315.94 312.101 316.02 311.621 316.02C310.801 316.02 310.221 315.8 310.221 314.46V308.24H313.101V306.58H310.221V303.82H308.281V306.58H306.481V308.24H308.281V314.46ZM314.234 306.58V317.52H316.174V306.58H314.234ZM314.174 302.66V304.78H316.234V302.66H314.174ZM322.47 306.38C319.47 306.38 317.59 308.18 317.59 311.36V312.7C317.59 315.86 319.47 317.68 322.47 317.68C325.47 317.68 327.35 315.86 327.35 312.7V311.36C327.35 308.2 325.47 306.38 322.47 306.38ZM322.47 315.98C320.73 315.98 319.55 314.86 319.55 312.54V311.52C319.55 309.2 320.73 308.08 322.47 308.08C324.21 308.08 325.39 309.2 325.39 311.52V312.54C325.39 314.86 324.21 315.98 322.47 315.98ZM336.828 306.38C333.828 306.38 331.948 308.18 331.948 311.36V312.7C331.948 315.86 333.828 317.68 336.828 317.68C339.828 317.68 341.708 315.86 341.708 312.7V311.36C341.708 308.2 339.828 306.38 336.828 306.38ZM336.828 315.98C335.088 315.98 333.908 314.86 333.908 312.54V311.52C333.908 309.2 335.088 308.08 336.828 308.08C338.568 308.08 339.748 309.2 339.748 311.52V312.54C339.748 314.86 338.568 315.98 336.828 315.98ZM343.746 317.52H345.686V308.24H348.566V306.58H345.686V305.58C345.686 304.16 346.366 303.94 347.106 303.94C347.586 303.94 348.086 304 348.586 304.14L348.886 302.56C348.446 302.4 347.626 302.28 346.926 302.28C344.846 302.28 343.746 303.3 343.746 305.5V306.58H341.946V308.24H343.746V317.52ZM362.186 310.28C362.186 307.64 360.466 306.38 358.346 306.38C356.846 306.38 355.726 306.94 355.066 307.96H355.046V306.58H353.166V317.52H355.106V310.74C355.106 309.02 356.546 308.1 357.866 308.1C359.486 308.1 360.246 308.88 360.246 310.72V317.52H362.186V310.28ZM368.079 308.04C369.739 308.04 370.779 309.12 370.779 310.8V311.16H365.299V310.88C365.299 309.2 366.459 308.04 368.079 308.04ZM371.579 315.02C370.639 315.62 369.679 316 368.259 316C366.519 316 365.299 314.88 365.299 312.82V312.74H372.659V311.28C372.659 308.16 370.879 306.38 368.079 306.38C365.379 306.38 363.379 308.08 363.379 311.4V312.64C363.379 316.18 365.479 317.68 368.179 317.68C370.159 317.68 371.439 317.14 372.399 316.48L371.579 315.02ZM379.972 309L382.192 317.52H384.472L387.272 306.58H385.352L383.312 315.5H383.272L380.972 306.58H379.012L376.692 315.5H376.652L374.652 306.58H372.612L375.452 317.52H377.732L379.932 309H379.972ZM395.885 308.04C397.545 308.04 398.585 309.12 398.585 310.8V311.16H393.105V310.88C393.105 309.2 394.265 308.04 395.885 308.04ZM399.385 315.02C398.445 315.62 397.485 316 396.065 316C394.325 316 393.105 314.88 393.105 312.82V312.74H400.465V311.28C400.465 308.16 398.685 306.38 395.885 306.38C393.185 306.38 391.185 308.08 391.185 311.4V312.64C391.185 316.18 393.285 317.68 395.985 317.68C397.965 317.68 399.245 317.14 400.205 316.48L399.385 315.02ZM416.678 310.34C416.678 307.82 415.298 306.38 413.058 306.38C411.338 306.38 410.358 307.14 409.658 308.2C409.098 307.04 407.978 306.38 406.518 306.38C404.998 306.38 404.018 307.1 403.598 308.06H403.578V306.58H401.658V317.52H403.598V310.6C403.598 308.88 404.938 308.14 406.138 308.14C407.518 308.14 408.198 309.06 408.198 310.96V317.52H410.138V310.7C410.138 308.92 411.458 308.14 412.678 308.14C414.058 308.14 414.738 309.06 414.738 310.96V317.52H416.678V310.34ZM420.326 306.58H418.446V321.8H420.386V316.32C420.826 316.96 421.786 317.68 423.406 317.68C426.026 317.68 427.786 316 427.786 312.98V311.04C427.786 308.16 426.286 306.38 423.526 306.38C422.226 306.38 420.966 306.82 420.326 307.94V306.58ZM420.366 310.86C420.366 309.16 421.666 308.08 423.246 308.08C424.866 308.08 425.866 309.28 425.866 311.36V312.7C425.866 314.76 424.886 315.98 423.246 315.98C421.566 315.98 420.366 314.76 420.366 313.62V310.86ZM429.16 302.4V317.52H431.1V302.4H429.16ZM437.339 306.38C434.339 306.38 432.459 308.18 432.459 311.36V312.7C432.459 315.86 434.339 317.68 437.339 317.68C440.339 317.68 442.219 315.86 442.219 312.7V311.36C442.219 308.2 440.339 306.38 437.339 306.38ZM437.339 315.98C435.599 315.98 434.419 314.86 434.419 312.54V311.52C434.419 309.2 435.599 308.08 437.339 308.08C439.079 308.08 440.259 309.2 440.259 311.52V312.54C440.259 314.86 439.079 315.98 437.339 315.98ZM447.217 315.32L444.317 306.58H442.217L446.197 317.68L444.777 321.42L446.537 322.04L452.217 306.58H450.177L447.297 315.32H447.217ZM456.81 308.04C458.47 308.04 459.51 309.12 459.51 310.8V311.16H454.03V310.88C454.03 309.2 455.19 308.04 456.81 308.04ZM460.31 315.02C459.37 315.62 458.41 316 456.99 316C455.25 316 454.03 314.88 454.03 312.82V312.74H461.39V311.28C461.39 308.16 459.61 306.38 456.81 306.38C454.11 306.38 452.11 308.08 452.11 311.4V312.64C452.11 316.18 454.21 317.68 456.91 317.68C458.89 317.68 460.17 317.14 461.13 316.48L460.31 315.02ZM466.723 308.04C468.383 308.04 469.423 309.12 469.423 310.8V311.16H463.943V310.88C463.943 309.2 465.103 308.04 466.723 308.04ZM470.223 315.02C469.283 315.62 468.323 316 466.903 316C465.163 316 463.943 314.88 463.943 312.82V312.74H471.303V311.28C471.303 308.16 469.523 306.38 466.723 306.38C464.023 306.38 462.023 308.08 462.023 311.4V312.64C462.023 316.18 464.123 317.68 466.823 317.68C468.803 317.68 470.083 317.14 471.043 316.48L470.223 315.02ZM475.896 316C474.576 316 473.456 315.5 472.476 314.84L471.576 316.36C472.616 317.16 474.156 317.68 475.976 317.68C478.516 317.68 480.136 316.34 480.136 314.62V314.36C480.136 312.34 478.876 311.54 476.216 311.04C474.516 310.72 473.856 310.4 473.856 309.54V309.36C473.856 308.6 474.516 308.04 476.136 308.04C477.236 308.04 478.296 308.38 479.016 308.92L479.876 307.46C478.796 306.7 477.476 306.38 475.996 306.38C473.156 306.38 471.916 307.82 471.916 309.34V309.58C471.916 311.5 473.256 312.28 475.676 312.78C477.736 313.2 478.176 313.5 478.176 314.42V314.58C478.176 315.46 477.336 316 475.896 316Z" fill="#222222"/>
<path d="M67.06 265.635L66.955 267.915H67.945L67.84 265.635L69.76 266.88L70.21 266.025L68.08 264.99L70.21 263.97L69.76 263.115L67.84 264.36L67.945 262.065H66.955L67.045 264.36L65.14 263.115L64.675 263.97L66.805 264.99L64.675 266.025L65.14 266.88L67.06 265.635ZM75.1748 262.41C72.4898 262.41 70.9598 264.285 70.9598 267.24V268.725C70.9598 271.68 72.5048 273.555 75.1748 273.555C77.8448 273.555 79.3898 271.68 79.3898 268.725V267.24C79.3898 264.285 77.8448 262.41 75.1748 262.41ZM75.1748 272.61C73.2548 272.61 72.0248 271.215 72.0248 268.635V267.33C72.0248 264.75 73.2548 263.355 75.1748 263.355C77.0948 263.355 78.3248 264.75 78.3248 267.33V268.635C78.3248 271.215 77.0948 272.61 75.1748 272.61ZM81.6905 272.43C82.1255 273 82.9655 273.51 84.1055 273.51C85.9505 273.51 87.3155 272.25 87.3155 270.045V268.62C87.3155 266.415 86.0255 265.155 84.1055 265.155C83.1005 265.155 82.1705 265.635 81.6905 266.445V262.05H80.6705V273.39H81.6755V272.43H81.6905ZM86.2955 269.895C86.2955 271.605 85.4105 272.61 84.0455 272.61C82.6655 272.61 81.6905 271.65 81.6905 270.705V268.335C81.6905 266.91 82.9355 266.085 84.0455 266.085C85.4255 266.085 86.2955 267.045 86.2955 268.77V269.895ZM88.592 263.76H89.702V262.62H88.592V263.76ZM89.657 265.305H88.637V274.335C88.637 275.43 88.307 275.85 87.497 275.85C87.092 275.85 86.732 275.805 86.357 275.7L86.207 276.54C86.522 276.66 87.137 276.735 87.572 276.735C88.922 276.735 89.657 276.135 89.657 274.38V265.305ZM91.8495 268.815V268.68C91.8495 267.09 92.6895 266.055 94.1145 266.055C95.5245 266.055 96.3495 267 96.3495 268.68V268.815H91.8495ZM96.7395 271.815C96.1545 272.235 95.3445 272.61 94.2645 272.61C92.7795 272.61 91.8495 271.59 91.8495 269.805V269.67H97.3695V268.83C97.3695 266.565 96.2145 265.155 94.1145 265.155C92.0895 265.155 90.8295 266.505 90.8295 268.8V269.805C90.8295 272.16 92.1045 273.51 94.2495 273.51C95.6145 273.51 96.5445 273.045 97.1895 272.595L96.7395 271.815ZM101.375 265.155C99.3951 265.155 98.0301 266.445 98.0301 268.8V269.805C98.0301 272.16 99.2901 273.51 101.39 273.51C102.845 273.51 103.67 273.045 104.255 272.595L103.775 271.785C103.19 272.22 102.53 272.58 101.405 272.58C99.9651 272.58 99.0651 271.575 99.0651 269.805V268.77C99.0651 267.09 99.9501 266.07 101.375 266.07C102.14 266.07 102.815 266.22 103.565 266.745L104.03 265.95C103.355 265.44 102.515 265.155 101.375 265.155ZM105.547 271.14C105.547 272.895 106.222 273.465 107.632 273.465C108.067 273.465 108.682 273.39 108.997 273.27L108.847 272.43C108.472 272.535 108.112 272.58 107.707 272.58C106.897 272.58 106.567 272.19 106.567 271.095V266.175H108.802V265.305H106.567V263.22H105.547V265.305H104.167V266.175H105.547V271.14ZM109.878 273.39H110.898V265.305H109.878V273.39ZM109.833 263.76H110.943V262.62H109.833V263.76ZM115.598 273.39L118.508 265.305H117.443L115.043 272.34L112.598 265.305H111.503L114.458 273.39H115.598ZM119.635 268.815V268.68C119.635 267.09 120.475 266.055 121.9 266.055C123.31 266.055 124.135 267 124.135 268.68V268.815H119.635ZM124.525 271.815C123.94 272.235 123.13 272.61 122.05 272.61C120.565 272.61 119.635 271.59 119.635 269.805V269.67H125.155V268.83C125.155 266.565 124 265.155 121.9 265.155C119.875 265.155 118.615 266.505 118.615 268.8V269.805C118.615 272.16 119.89 273.51 122.035 273.51C123.4 273.51 124.33 273.045 124.975 272.595L124.525 271.815ZM126.593 272.625H128.108V271.125H126.593V272.625ZM126.593 265.995H128.108V264.495H126.593V265.995ZM132.829 273.39H133.879V262.575H132.829V273.39ZM143.604 265.155C142.314 265.155 141.504 265.935 141.144 266.625C140.784 265.695 139.989 265.155 138.699 265.155C137.514 265.155 136.794 265.785 136.434 266.43V265.305H135.429V273.39H136.449V268.14C136.449 267.195 137.184 266.085 138.519 266.085C139.974 266.085 140.334 266.91 140.334 268.215V273.39H141.354V268.08C141.384 267.15 142.119 266.085 143.424 266.085C144.879 266.085 145.239 266.91 145.239 268.215V273.39H146.259V267.945C146.259 266.235 145.434 265.155 143.604 265.155ZM148.733 272.43C149.168 273 149.993 273.51 151.133 273.51C152.978 273.51 154.343 272.25 154.343 270.045V268.62C154.343 266.415 153.053 265.155 151.133 265.155C150.128 265.155 149.183 265.635 148.703 266.445V265.305H147.698V276.6H148.718V272.43H148.733ZM153.323 269.895C153.323 271.605 152.438 272.61 151.073 272.61C149.693 272.61 148.718 271.65 148.718 270.705V268.335C148.718 266.91 149.963 266.085 151.073 266.085C152.453 266.085 153.323 267.045 153.323 268.77V269.895ZM159.969 265.32C159.639 265.2 159.264 265.155 158.814 265.155C157.584 265.155 156.834 265.95 156.489 266.73V265.305H155.484V273.39H156.504V268.8C156.504 267.285 157.344 266.19 158.679 266.19C159.069 266.19 159.384 266.25 159.654 266.355L159.969 265.32ZM163.504 265.155C161.344 265.155 160.069 266.49 160.069 268.83V269.835C160.069 272.16 161.344 273.51 163.504 273.51C165.664 273.51 166.939 272.16 166.939 269.835V268.83C166.939 266.505 165.664 265.155 163.504 265.155ZM163.504 272.61C162.019 272.61 161.104 271.68 161.104 269.775V268.89C161.104 266.985 162.019 266.055 163.504 266.055C164.989 266.055 165.904 266.985 165.904 268.89V269.775C165.904 271.68 164.989 272.61 163.504 272.61ZM171.146 273.39L174.056 265.305H172.991L170.591 272.34L168.146 265.305H167.051L170.006 273.39H171.146ZM175.182 268.815V268.68C175.182 267.09 176.022 266.055 177.447 266.055C178.857 266.055 179.682 267 179.682 268.68V268.815H175.182ZM180.072 271.815C179.487 272.235 178.677 272.61 177.597 272.61C176.112 272.61 175.182 271.59 175.182 269.805V269.67H180.702V268.83C180.702 266.565 179.547 265.155 177.447 265.155C175.422 265.155 174.162 266.505 174.162 268.8V269.805C174.162 272.16 175.437 273.51 177.582 273.51C178.947 273.51 179.877 273.045 180.522 272.595L180.072 271.815ZM189.986 265.155C188.696 265.155 187.886 265.935 187.526 266.625C187.166 265.695 186.371 265.155 185.081 265.155C183.896 265.155 183.176 265.785 182.816 266.43V265.305H181.811V273.39H182.831V268.14C182.831 267.195 183.566 266.085 184.901 266.085C186.356 266.085 186.716 266.91 186.716 268.215V273.39H187.736V268.08C187.766 267.15 188.501 266.085 189.806 266.085C191.261 266.085 191.621 266.91 191.621 268.215V273.39H192.641V267.945C192.641 266.235 191.816 265.155 189.986 265.155ZM194.725 268.815V268.68C194.725 267.09 195.565 266.055 196.99 266.055C198.4 266.055 199.225 267 199.225 268.68V268.815H194.725ZM199.615 271.815C199.03 272.235 198.22 272.61 197.14 272.61C195.655 272.61 194.725 271.59 194.725 269.805V269.67H200.245V268.83C200.245 266.565 199.09 265.155 196.99 265.155C194.965 265.155 193.705 266.505 193.705 268.8V269.805C193.705 272.16 194.98 273.51 197.125 273.51C198.49 273.51 199.42 273.045 200.065 272.595L199.615 271.815ZM204.834 265.155C203.559 265.155 202.734 265.815 202.359 266.43V265.305H201.354V273.39H202.374V268.14C202.374 267.195 203.319 266.085 204.684 266.085C206.289 266.085 206.724 267.045 206.724 268.2V273.39H207.744V267.945C207.744 266.265 206.679 265.155 204.834 265.155ZM209.814 271.14C209.814 272.895 210.489 273.465 211.899 273.465C212.334 273.465 212.949 273.39 213.264 273.27L213.114 272.43C212.739 272.535 212.379 272.58 211.974 272.58C211.164 272.58 210.834 272.19 210.834 271.095V266.175H213.069V265.305H210.834V263.22H209.814V265.305H208.434V266.175H209.814V271.14ZM220.01 265.155C217.85 265.155 216.575 266.49 216.575 268.83V269.835C216.575 272.16 217.85 273.51 220.01 273.51C222.17 273.51 223.445 272.16 223.445 269.835V268.83C223.445 266.505 222.17 265.155 220.01 265.155ZM220.01 272.61C218.525 272.61 217.61 271.68 217.61 269.775V268.89C217.61 266.985 218.525 266.055 220.01 266.055C221.495 266.055 222.41 266.985 222.41 268.89V269.775C222.41 271.68 221.495 272.61 220.01 272.61ZM225.235 273.39H226.255V266.175H228.49V265.305H226.255V264.33C226.255 263.235 226.585 262.845 227.395 262.845C227.8 262.845 228.16 262.89 228.535 262.995L228.685 262.155C228.37 262.035 227.755 261.96 227.32 261.96C225.97 261.96 225.235 262.53 225.235 264.285V265.305H223.855V266.175H225.235V273.39ZM234.94 264.48V267.735H231.745V268.695H234.94V272.16H235.93V268.695H239.125V267.735H235.93V264.48H234.94ZM244.744 273.39V262.575H243.949L240.604 264.645L241.084 265.485L243.694 263.895V273.39H244.744ZM250.889 273.375L257.339 262.575H256.394L249.929 273.375H250.889ZM256.784 267.855C255.329 267.855 254.459 268.77 254.459 270.345V271.02C254.459 272.595 255.329 273.51 256.784 273.51C258.239 273.51 259.109 272.595 259.109 271.02V270.345C259.109 268.77 258.239 267.855 256.784 267.855ZM256.784 272.745C255.914 272.745 255.329 272.25 255.329 270.99V270.375C255.329 269.13 255.914 268.62 256.784 268.62C257.654 268.62 258.239 269.13 258.239 270.375V270.99C258.239 272.25 257.654 272.745 256.784 272.745ZM250.499 262.455C249.044 262.455 248.174 263.37 248.174 264.945V265.62C248.174 267.195 249.044 268.11 250.499 268.11C251.954 268.11 252.824 267.195 252.824 265.62V264.945C252.824 263.37 251.954 262.455 250.499 262.455ZM250.499 267.345C249.629 267.345 249.044 266.85 249.044 265.59V264.975C249.044 263.73 249.629 263.22 250.499 263.22C251.369 263.22 251.954 263.73 251.954 264.975V265.59C251.954 266.85 251.369 267.345 250.499 267.345ZM266.281 265.155C264.301 265.155 262.936 266.445 262.936 268.8V269.805C262.936 272.16 264.196 273.51 266.296 273.51C267.751 273.51 268.576 273.045 269.161 272.595L268.681 271.785C268.096 272.22 267.436 272.58 266.311 272.58C264.871 272.58 263.971 271.575 263.971 269.805V268.77C263.971 267.09 264.856 266.07 266.281 266.07C267.046 266.07 267.721 266.22 268.471 266.745L268.936 265.95C268.261 265.44 267.421 265.155 266.281 265.155ZM272.883 265.155C270.723 265.155 269.448 266.49 269.448 268.83V269.835C269.448 272.16 270.723 273.51 272.883 273.51C275.043 273.51 276.318 272.16 276.318 269.835V268.83C276.318 266.505 275.043 265.155 272.883 265.155ZM272.883 272.61C271.398 272.61 270.483 271.68 270.483 269.775V268.89C270.483 266.985 271.398 266.055 272.883 266.055C274.368 266.055 275.283 266.985 275.283 268.89V269.775C275.283 271.68 274.368 272.61 272.883 272.61ZM285.623 265.155C284.333 265.155 283.523 265.935 283.163 266.625C282.803 265.695 282.008 265.155 280.718 265.155C279.533 265.155 278.813 265.785 278.453 266.43V265.305H277.448V273.39H278.468V268.14C278.468 267.195 279.203 266.085 280.538 266.085C281.993 266.085 282.353 266.91 282.353 268.215V273.39H283.373V268.08C283.403 267.15 284.138 266.085 285.443 266.085C286.898 266.085 287.258 266.91 287.258 268.215V273.39H288.278V267.945C288.278 266.235 287.453 265.155 285.623 265.155ZM290.752 272.43C291.187 273 292.012 273.51 293.152 273.51C294.997 273.51 296.362 272.25 296.362 270.045V268.62C296.362 266.415 295.072 265.155 293.152 265.155C292.147 265.155 291.202 265.635 290.722 266.445V265.305H289.717V276.6H290.737V272.43H290.752ZM295.342 269.895C295.342 271.605 294.457 272.61 293.092 272.61C291.712 272.61 290.737 271.65 290.737 270.705V268.335C290.737 266.91 291.982 266.085 293.092 266.085C294.472 266.085 295.342 267.045 295.342 268.77V269.895ZM299.547 273.51C300.162 273.51 300.732 273.39 301.182 273.165C301.602 272.955 301.932 272.655 302.082 272.4H302.097V273.39H303.087V267.735C303.087 266.1 301.977 265.155 300.177 265.155C298.947 265.155 298.032 265.59 297.282 266.115L297.777 266.895C298.467 266.415 299.292 266.07 300.162 266.07C301.422 266.07 302.082 266.73 302.082 267.9V268.65H299.802C297.927 268.65 296.952 269.565 296.952 270.87V271.2C296.952 272.625 298.017 273.51 299.547 273.51ZM302.082 270.87C302.082 271.485 301.752 271.89 301.317 272.16C300.837 272.46 300.342 272.625 299.697 272.625C298.872 272.625 297.972 272.205 297.972 271.155V270.915C297.972 270.09 298.527 269.505 299.817 269.505H302.082V270.87ZM308.94 265.32C308.61 265.2 308.235 265.155 307.785 265.155C306.555 265.155 305.805 265.95 305.46 266.73V265.305H304.455V273.39H305.475V268.8C305.475 267.285 306.315 266.19 307.65 266.19C308.04 266.19 308.355 266.25 308.625 266.355L308.94 265.32ZM310.06 268.815V268.68C310.06 267.09 310.9 266.055 312.325 266.055C313.735 266.055 314.56 267 314.56 268.68V268.815H310.06ZM314.95 271.815C314.365 272.235 313.555 272.61 312.475 272.61C310.99 272.61 310.06 271.59 310.06 269.805V269.67H315.58V268.83C315.58 266.565 314.425 265.155 312.325 265.155C310.3 265.155 309.04 266.505 309.04 268.8V269.805C309.04 272.16 310.315 273.51 312.46 273.51C313.825 273.51 314.755 273.045 315.4 272.595L314.95 271.815ZM321.895 273.39H322.9V262.05H321.88V266.295C321.46 265.695 320.65 265.155 319.465 265.155C317.62 265.155 316.255 266.415 316.255 268.62V270.045C316.255 272.25 317.62 273.51 319.48 273.51C320.41 273.51 321.43 273.135 321.88 272.325H321.895V273.39ZM317.275 268.77C317.275 267.06 318.16 266.055 319.525 266.055C320.905 266.055 321.88 267.12 321.88 268.065V270.495C321.88 271.92 320.83 272.61 319.525 272.61C318.175 272.61 317.275 271.62 317.275 269.895V268.77ZM327.882 271.14C327.882 272.895 328.557 273.465 329.967 273.465C330.402 273.465 331.017 273.39 331.332 273.27L331.182 272.43C330.807 272.535 330.447 272.58 330.042 272.58C329.232 272.58 328.902 272.19 328.902 271.095V266.175H331.137V265.305H328.902V263.22H327.882V265.305H326.502V266.175H327.882V271.14ZM335.227 265.155C333.067 265.155 331.792 266.49 331.792 268.83V269.835C331.792 272.16 333.067 273.51 335.227 273.51C337.387 273.51 338.662 272.16 338.662 269.835V268.83C338.662 266.505 337.387 265.155 335.227 265.155ZM335.227 272.61C333.742 272.61 332.827 271.68 332.827 269.775V268.89C332.827 266.985 333.742 266.055 335.227 266.055C336.712 266.055 337.627 266.985 337.627 268.89V269.775C337.627 271.68 336.712 272.61 335.227 272.61ZM344.833 273.51C345.448 273.51 346.018 273.39 346.468 273.165C346.888 272.955 347.218 272.655 347.368 272.4H347.383V273.39H348.373V267.735C348.373 266.1 347.263 265.155 345.463 265.155C344.233 265.155 343.318 265.59 342.568 266.115L343.063 266.895C343.753 266.415 344.578 266.07 345.448 266.07C346.708 266.07 347.368 266.73 347.368 267.9V268.65H345.088C343.213 268.65 342.238 269.565 342.238 270.87V271.2C342.238 272.625 343.303 273.51 344.833 273.51ZM347.368 270.87C347.368 271.485 347.038 271.89 346.603 272.16C346.123 272.46 345.628 272.625 344.983 272.625C344.158 272.625 343.258 272.205 343.258 271.155V270.915C343.258 270.09 343.813 269.505 345.103 269.505H347.368V270.87ZM352.891 273.39L355.801 265.305H354.736L352.336 272.34L349.891 265.305H348.796L351.751 273.39H352.891ZM356.927 268.815V268.68C356.927 267.09 357.767 266.055 359.192 266.055C360.602 266.055 361.427 267 361.427 268.68V268.815H356.927ZM361.817 271.815C361.232 272.235 360.422 272.61 359.342 272.61C357.857 272.61 356.927 271.59 356.927 269.805V269.67H362.447V268.83C362.447 266.565 361.292 265.155 359.192 265.155C357.167 265.155 355.907 266.505 355.907 268.8V269.805C355.907 272.16 357.182 273.51 359.327 273.51C360.692 273.51 361.622 273.045 362.267 272.595L361.817 271.815ZM368.041 265.32C367.711 265.2 367.336 265.155 366.886 265.155C365.656 265.155 364.906 265.95 364.561 266.73V265.305H363.556V273.39H364.576V268.8C364.576 267.285 365.416 266.19 366.751 266.19C367.141 266.19 367.456 266.25 367.726 266.355L368.041 265.32ZM370.705 273.51C371.32 273.51 371.89 273.39 372.34 273.165C372.76 272.955 373.09 272.655 373.24 272.4H373.255V273.39H374.245V267.735C374.245 266.1 373.135 265.155 371.335 265.155C370.105 265.155 369.19 265.59 368.44 266.115L368.935 266.895C369.625 266.415 370.45 266.07 371.32 266.07C372.58 266.07 373.24 266.73 373.24 267.9V268.65H370.96C369.085 268.65 368.11 269.565 368.11 270.87V271.2C368.11 272.625 369.175 273.51 370.705 273.51ZM373.24 270.87C373.24 271.485 372.91 271.89 372.475 272.16C371.995 272.46 371.5 272.625 370.855 272.625C370.03 272.625 369.13 272.205 369.13 271.155V270.915C369.13 270.09 369.685 269.505 370.975 269.505H373.24V270.87ZM380.863 273.285C380.863 274.98 380.068 275.775 378.583 275.775C377.668 275.775 377.098 275.625 376.348 275.1L375.883 275.895C376.558 276.42 377.443 276.735 378.583 276.735C380.593 276.735 381.883 275.55 381.883 273.255V265.305H380.878V266.295C380.458 265.695 379.633 265.155 378.448 265.155C376.603 265.155 375.238 266.415 375.238 268.62V269.895C375.238 272.1 376.603 273.36 378.463 273.36C379.393 273.36 380.398 272.985 380.848 272.175H380.863V273.285ZM376.258 268.77C376.258 267.06 377.143 266.055 378.508 266.055C379.888 266.055 380.863 267.12 380.863 268.065V270.345C380.863 271.77 379.813 272.46 378.508 272.46C377.158 272.46 376.258 271.47 376.258 269.745V268.77ZM384.045 268.815V268.68C384.045 267.09 384.885 266.055 386.31 266.055C387.72 266.055 388.545 267 388.545 268.68V268.815H384.045ZM388.935 271.815C388.35 272.235 387.54 272.61 386.46 272.61C384.975 272.61 384.045 271.59 384.045 269.805V269.67H389.565V268.83C389.565 266.565 388.41 265.155 386.31 265.155C384.285 265.155 383.025 266.505 383.025 268.8V269.805C383.025 272.16 384.3 273.51 386.445 273.51C387.81 273.51 388.74 273.045 389.385 272.595L388.935 271.815ZM394.559 272.43C394.994 273 395.819 273.51 396.959 273.51C398.804 273.51 400.169 272.25 400.169 270.045V268.62C400.169 266.415 398.879 265.155 396.959 265.155C395.954 265.155 395.009 265.635 394.529 266.445V265.305H393.524V276.6H394.544V272.43H394.559ZM399.149 269.895C399.149 271.605 398.264 272.61 396.899 272.61C395.519 272.61 394.544 271.65 394.544 270.705V268.335C394.544 266.91 395.789 266.085 396.899 266.085C398.279 266.085 399.149 267.045 399.149 268.77V269.895ZM401.882 268.815V268.68C401.882 267.09 402.722 266.055 404.147 266.055C405.557 266.055 406.382 267 406.382 268.68V268.815H401.882ZM406.772 271.815C406.187 272.235 405.377 272.61 404.297 272.61C402.812 272.61 401.882 271.59 401.882 269.805V269.67H407.402V268.83C407.402 266.565 406.247 265.155 404.147 265.155C402.122 265.155 400.862 266.505 400.862 268.8V269.805C400.862 272.16 402.137 273.51 404.282 273.51C405.647 273.51 406.577 273.045 407.222 272.595L406.772 271.815ZM412.996 265.32C412.666 265.2 412.291 265.155 411.841 265.155C410.611 265.155 409.861 265.95 409.516 266.73V265.305H408.511V273.39H409.531V268.8C409.531 267.285 410.371 266.19 411.706 266.19C412.096 266.19 412.411 266.25 412.681 266.355L412.996 265.32ZM414.496 273.39H415.516V266.175H417.751V265.305H415.516V264.33C415.516 263.235 415.846 262.845 416.656 262.845C417.061 262.845 417.421 262.89 417.796 262.995L417.946 262.155C417.631 262.035 417.016 261.96 416.581 261.96C415.231 261.96 414.496 262.53 414.496 264.285V265.305H413.116V266.175H414.496V273.39ZM421.489 265.155C419.329 265.155 418.054 266.49 418.054 268.83V269.835C418.054 272.16 419.329 273.51 421.489 273.51C423.649 273.51 424.924 272.16 424.924 269.835V268.83C424.924 266.505 423.649 265.155 421.489 265.155ZM421.489 272.61C420.004 272.61 419.089 271.68 419.089 269.775V268.89C419.089 266.985 420.004 266.055 421.489 266.055C422.974 266.055 423.889 266.985 423.889 268.89V269.775C423.889 271.68 422.974 272.61 421.489 272.61ZM430.54 265.32C430.21 265.2 429.835 265.155 429.385 265.155C428.155 265.155 427.405 265.95 427.06 266.73V265.305H426.055V273.39H427.075V268.8C427.075 267.285 427.915 266.19 429.25 266.19C429.64 266.19 429.955 266.25 430.225 266.355L430.54 265.32ZM439.189 265.155C437.899 265.155 437.089 265.935 436.729 266.625C436.369 265.695 435.574 265.155 434.284 265.155C433.099 265.155 432.379 265.785 432.019 266.43V265.305H431.014V273.39H432.034V268.14C432.034 267.195 432.769 266.085 434.104 266.085C435.559 266.085 435.919 266.91 435.919 268.215V273.39H436.939V268.08C436.969 267.15 437.704 266.085 439.009 266.085C440.464 266.085 440.824 266.91 440.824 268.215V273.39H441.844V267.945C441.844 266.235 441.019 265.155 439.189 265.155ZM445.473 273.51C446.088 273.51 446.658 273.39 447.108 273.165C447.528 272.955 447.858 272.655 448.008 272.4H448.023V273.39H449.013V267.735C449.013 266.1 447.903 265.155 446.103 265.155C444.873 265.155 443.958 265.59 443.208 266.115L443.703 266.895C444.393 266.415 445.218 266.07 446.088 266.07C447.348 266.07 448.008 266.73 448.008 267.9V268.65H445.728C443.853 268.65 442.878 269.565 442.878 270.87V271.2C442.878 272.625 443.943 273.51 445.473 273.51ZM448.008 270.87C448.008 271.485 447.678 271.89 447.243 272.16C446.763 272.46 446.268 272.625 445.623 272.625C444.798 272.625 443.898 272.205 443.898 271.155V270.915C443.898 270.09 444.453 269.505 445.743 269.505H448.008V270.87ZM453.861 265.155C452.586 265.155 451.761 265.815 451.386 266.43V265.305H450.381V273.39H451.401V268.14C451.401 267.195 452.346 266.085 453.711 266.085C455.316 266.085 455.751 267.045 455.751 268.2V273.39H456.771V267.945C456.771 266.265 455.706 265.155 453.861 265.155ZM461.182 265.155C459.202 265.155 457.837 266.445 457.837 268.8V269.805C457.837 272.16 459.097 273.51 461.197 273.51C462.652 273.51 463.477 273.045 464.062 272.595L463.582 271.785C462.997 272.22 462.337 272.58 461.212 272.58C459.772 272.58 458.872 271.575 458.872 269.805V268.77C458.872 267.09 459.757 266.07 461.182 266.07C461.947 266.07 462.622 266.22 463.372 266.745L463.837 265.95C463.162 265.44 462.322 265.155 461.182 265.155ZM465.369 268.815V268.68C465.369 267.09 466.209 266.055 467.634 266.055C469.044 266.055 469.869 267 469.869 268.68V268.815H465.369ZM470.259 271.815C469.674 272.235 468.864 272.61 467.784 272.61C466.299 272.61 465.369 271.59 465.369 269.805V269.67H470.889V268.83C470.889 266.565 469.734 265.155 467.634 265.155C465.609 265.155 464.349 266.505 464.349 268.8V269.805C464.349 272.16 465.624 273.51 467.769 273.51C469.134 273.51 470.064 273.045 470.709 272.595L470.259 271.815ZM475.508 273.39H476.528V266.175H478.763V265.305H476.528V264.33C476.528 263.235 476.858 262.845 477.668 262.845C478.073 262.845 478.433 262.89 478.808 262.995L478.958 262.155C478.643 262.035 478.028 261.96 477.593 261.96C476.243 261.96 475.508 262.53 475.508 264.285V265.305H474.128V266.175H475.508V273.39ZM482.501 265.155C480.341 265.155 479.066 266.49 479.066 268.83V269.835C479.066 272.16 480.341 273.51 482.501 273.51C484.661 273.51 485.936 272.16 485.936 269.835V268.83C485.936 266.505 484.661 265.155 482.501 265.155ZM482.501 272.61C481.016 272.61 480.101 271.68 480.101 269.775V268.89C480.101 266.985 481.016 266.055 482.501 266.055C483.986 266.055 484.901 266.985 484.901 268.89V269.775C484.901 271.68 483.986 272.61 482.501 272.61ZM491.551 265.32C491.221 265.2 490.846 265.155 490.396 265.155C489.166 265.155 488.416 265.95 488.071 266.73V265.305H487.066V273.39H488.086V268.8C488.086 267.285 488.926 266.19 490.261 266.19C490.651 266.19 490.966 266.25 491.236 266.355L491.551 265.32ZM495.761 264.63C496.376 263.655 497.216 263.37 498.071 263.37C499.376 263.37 500.186 264.045 500.186 265.125V265.245C500.186 266.175 499.526 267.3 498.176 267.3H496.916V268.2H498.131C499.166 268.2 500.636 268.62 500.636 270.255V270.45C500.636 271.455 499.931 272.595 498.041 272.595C497.051 272.595 496.151 272.28 495.101 271.515L494.576 272.355C495.596 273.165 496.781 273.555 498.041 273.555C500.696 273.555 501.671 271.98 501.671 270.435V270.21C501.671 268.95 500.876 267.945 499.391 267.69C500.831 267.195 501.251 266.115 501.251 265.26V265.11C501.251 263.49 500.021 262.41 498.056 262.41C496.406 262.41 495.476 263.22 494.936 264.09L495.761 264.63ZM504.875 265.305L507.905 273.525L506.87 276.42L507.74 276.735L511.94 265.305H510.89L508.43 272.25L505.925 265.305H504.875ZM513.065 268.815V268.68C513.065 267.09 513.905 266.055 515.33 266.055C516.74 266.055 517.565 267 517.565 268.68V268.815H513.065ZM517.955 271.815C517.37 272.235 516.56 272.61 515.48 272.61C513.995 272.61 513.065 271.59 513.065 269.805V269.67H518.585V268.83C518.585 266.565 517.43 265.155 515.33 265.155C513.305 265.155 512.045 266.505 512.045 268.8V269.805C512.045 272.16 513.32 273.51 515.465 273.51C516.83 273.51 517.76 273.045 518.405 272.595L517.955 271.815ZM521.884 273.51C522.499 273.51 523.069 273.39 523.519 273.165C523.939 272.955 524.269 272.655 524.419 272.4H524.434V273.39H525.424V267.735C525.424 266.1 524.314 265.155 522.514 265.155C521.284 265.155 520.369 265.59 519.619 266.115L520.114 266.895C520.804 266.415 521.629 266.07 522.499 266.07C523.759 266.07 524.419 266.73 524.419 267.9V268.65H522.139C520.264 268.65 519.289 269.565 519.289 270.87V271.2C519.289 272.625 520.354 273.51 521.884 273.51ZM524.419 270.87C524.419 271.485 524.089 271.89 523.654 272.16C523.174 272.46 522.679 272.625 522.034 272.625C521.209 272.625 520.309 272.205 520.309 271.155V270.915C520.309 270.09 520.864 269.505 522.154 269.505H524.419V270.87ZM531.277 265.32C530.947 265.2 530.572 265.155 530.122 265.155C528.892 265.155 528.142 265.95 527.797 266.73V265.305H526.792V273.39H527.812V268.8C527.812 267.285 528.652 266.19 529.987 266.19C530.377 266.19 530.692 266.25 530.962 266.355L531.277 265.32ZM534.316 272.595C533.371 272.595 532.501 272.25 531.766 271.755L531.271 272.565C532.036 273.12 533.071 273.51 534.376 273.51C536.086 273.51 537.346 272.61 537.346 271.32V271.095C537.346 269.805 536.506 269.16 534.511 268.785C533.236 268.545 532.486 268.185 532.486 267.48V267.315C532.486 266.61 533.146 266.055 534.361 266.055C535.396 266.055 536.026 266.31 536.701 266.76L537.166 265.995C536.506 265.5 535.621 265.155 534.391 265.155C532.411 265.155 531.466 266.145 531.466 267.3V267.51C531.466 268.83 532.531 269.355 534.151 269.67C535.696 269.97 536.326 270.33 536.326 271.14V271.29C536.326 271.98 535.621 272.595 534.316 272.595Z" fill="#555555"/>
</svg>
