<svg width="345" height="197" viewBox="0 0 345 197" fill="none" xmlns="http://www.w3.org/2000/svg">
<path d="M48.7619 2.22363H39.0078V12.002H48.7619V2.22363Z" fill="#33B9A5"/>
<path d="M54.5151 11.6106H60.208V7.95682H54.5151V11.6106ZM55.2189 8.60892H59.5041V10.9585H55.2189V8.60892ZM53.3454 2.68829V6.61122C56.1712 6.61122 56.9889 6.56982 58.6243 6.35245L58.5415 5.70036C56.9682 5.90737 56.0884 5.94877 54.0803 5.94877V2.68829H53.3454ZM60.208 2.17075H59.4834V7.39788H60.208V4.9758H61.6571V4.33406H60.208V2.17075ZM66.5857 7.96717C65.0331 7.96717 63.7185 8.59857 63.7185 9.71645V10.1201C63.7185 11.207 65.0331 11.8798 66.5857 11.8798C68.1383 11.8798 69.4528 11.207 69.4528 10.1201V9.71645C69.4528 8.62962 68.1383 7.96717 66.5857 7.96717ZM66.5857 11.2587C65.4781 11.2587 64.4224 10.8343 64.4224 10.0994V9.7475C64.4224 9.0126 65.4781 8.58821 66.5857 8.58821C67.6932 8.58821 68.749 9.0126 68.749 9.7475V10.0994C68.749 10.8343 67.6932 11.2587 66.5857 11.2587ZM64.4741 5.31738C64.5259 5.48299 64.8053 5.76246 65.2815 6.16614C65.6334 6.46631 66.0888 6.83894 66.6374 7.25297L67.0722 6.74578C66.6167 6.41456 66.0681 5.97983 65.5609 5.53474C64.8674 4.9137 64.8053 4.66528 64.8053 3.89933V2.59513H64.0601V3.92003C64.0601 4.69633 63.9876 4.96545 63.3355 5.61755C62.8698 6.08333 62.2177 6.62157 61.6587 7.0356L62.1141 7.56349C62.6834 7.10806 63.2941 6.59052 63.6564 6.24895C64.1118 5.81421 64.4327 5.49334 64.4638 5.31738H64.4741ZM66.5443 4.303V4.94475H68.6765V7.7498H69.4011V2.17075H68.6765V4.303H66.5443Z" fill="#555555"/>
<path d="M92.6682 2.22363H82.9141V12.002H92.6682V2.22363Z" fill="#FFC531"/>
<path d="M104.528 2.17075H103.814V4.45827H101.527C101.216 3.43354 100.45 2.84355 99.3531 2.84355C97.8936 2.84355 97.0242 3.85792 97.0242 5.57615V6.54912C97.0242 8.27769 97.8936 9.29207 99.3531 9.29207C100.461 9.29207 101.227 8.71242 101.527 7.667H103.814V11.6417H104.528V2.17075ZM100.968 6.42491C100.968 7.99822 100.326 8.61927 99.3531 8.61927C98.3801 8.61927 97.7384 7.99822 97.7384 6.42491V5.71071C97.7384 4.13739 98.3801 3.5267 99.3531 3.5267C100.326 3.5267 100.968 4.13739 100.968 5.71071V6.42491ZM101.682 5.5865C101.682 5.43124 101.672 5.27598 101.661 5.12071H103.814V7.00455H101.661C101.672 6.85964 101.682 6.70438 101.682 6.54912V5.5865ZM110.492 7.96717C108.939 7.96717 107.625 8.59857 107.625 9.71645V10.1201C107.625 11.207 108.939 11.8798 110.492 11.8798C112.045 11.8798 113.359 11.207 113.359 10.1201V9.71645C113.359 8.62962 112.045 7.96717 110.492 7.96717ZM110.492 11.2587C109.385 11.2587 108.329 10.8343 108.329 10.0994V9.7475C108.329 9.0126 109.385 8.58821 110.492 8.58821C111.6 8.58821 112.655 9.0126 112.655 9.7475V10.0994C112.655 10.8343 111.6 11.2587 110.492 11.2587ZM108.381 5.31738C108.432 5.48299 108.712 5.76246 109.188 6.16614C109.54 6.46631 109.995 6.83894 110.544 7.25297L110.979 6.74578C110.523 6.41456 109.975 5.97983 109.467 5.53474C108.774 4.9137 108.712 4.66528 108.712 3.89933V2.59513H107.967V3.92003C107.967 4.69633 107.894 4.96545 107.242 5.61755C106.776 6.08333 106.124 6.62157 105.565 7.0356L106.021 7.56349C106.59 7.10806 107.201 6.59052 107.563 6.24895C108.018 5.81421 108.339 5.49334 108.37 5.31738H108.381ZM110.451 4.303V4.94475H112.583V7.7498H113.308V2.17075H112.583V4.303H110.451Z" fill="#555555"/>
<path d="M301.142 24.833H39V57.8349H301.142V24.833Z" fill="#33B9A5"/>
<path d="M343.807 24.833H301.133V57.8349H343.807V24.833Z" fill="#FFC531"/>
<path d="M282.675 39.0112C282.675 38.1832 283.271 37.6839 284.136 37.6839C285.013 37.6839 285.597 38.1832 285.597 39.0112V39.1452C285.597 40.0098 284.964 40.5334 284.136 40.5334C283.32 40.5334 282.675 40.0098 282.675 39.1452V39.0112ZM282.443 43.0663C282.443 42.0921 283.198 41.5928 284.148 41.5928C285.11 41.5928 285.829 42.1165 285.829 43.0663V43.2002C285.829 44.0283 285.195 44.5885 284.148 44.5885C283.101 44.5885 282.443 44.0283 282.443 43.2002V43.0663ZM281.201 43.2611C281.201 44.6615 282.297 45.6722 284.136 45.6722C285.975 45.6722 287.071 44.6615 287.071 43.2611V43.0541C287.071 42.0921 286.413 41.2884 285.561 41.0327C286.413 40.5943 286.815 39.8393 286.815 39.0965V38.926C286.815 37.6717 285.829 36.6245 284.136 36.6245C282.419 36.6245 281.457 37.6717 281.457 38.926V39.0965C281.457 39.8393 281.871 40.6308 282.711 41.0327C281.871 41.2884 281.201 42.0921 281.201 43.0541V43.2611ZM293.529 37.2212C292.871 36.8193 292.043 36.6245 291.252 36.6245C289.279 36.6245 287.879 37.757 287.879 41.605V42.0556C287.879 44.4058 288.962 45.6722 290.935 45.6722C292.725 45.6722 293.931 44.5276 293.931 42.8471V42.5792C293.931 40.8622 292.725 39.7784 291.167 39.7784C290.192 39.7784 289.364 40.2655 289.072 40.7769C289.157 38.4632 289.985 37.7326 291.179 37.7326C291.873 37.7326 292.518 37.9274 293.066 38.2441L293.529 37.2212ZM289.109 42.5548C289.109 41.5928 289.851 40.85 290.923 40.85C291.995 40.85 292.725 41.4589 292.725 42.6279V42.7862C292.725 43.9309 292.019 44.5763 290.887 44.5763C289.791 44.5763 289.109 43.8578 289.109 42.7253V42.5548Z" fill="white"/>
<path d="M328.253 45.5383V36.7584H327.243L324.418 38.4145L324.99 39.3887L327.048 38.171V45.5383H328.253ZM334.493 39.9367V42.6279H331.521L335.564 36.7584H334.237L330.109 42.7497V43.6508H334.493V45.5383H335.686V43.6508H336.928V42.6279H335.686V39.9367H334.493Z" fill="white"/>
<path d="M307.238 115.283H39V148.285H307.238V115.283Z" fill="#33B9A5"/>
<path d="M343.812 115.283H307.234V148.285H343.812V115.283Z" fill="#FFC531"/>
<path d="M288.768 129.461C288.768 128.633 289.365 128.134 290.23 128.134C291.106 128.134 291.691 128.633 291.691 129.461V129.595C291.691 130.46 291.058 130.984 290.23 130.984C289.414 130.984 288.768 130.46 288.768 129.595V129.461ZM288.537 133.516C288.537 132.542 289.292 132.043 290.242 132.043C291.204 132.043 291.922 132.567 291.922 133.516V133.65C291.922 134.478 291.289 135.039 290.242 135.039C289.195 135.039 288.537 134.478 288.537 133.65V133.516ZM287.295 133.711C287.295 135.112 288.391 136.122 290.23 136.122C292.068 136.122 293.164 135.112 293.164 133.711V133.504C293.164 132.542 292.507 131.739 291.654 131.483C292.507 131.044 292.909 130.289 292.909 129.547V129.376C292.909 128.122 291.922 127.075 290.23 127.075C288.513 127.075 287.551 128.122 287.551 129.376V129.547C287.551 130.289 287.965 131.081 288.805 131.483C287.965 131.739 287.295 132.542 287.295 133.504V133.711ZM295.47 129.461C295.47 128.633 296.067 128.134 296.932 128.134C297.808 128.134 298.393 128.633 298.393 129.461V129.595C298.393 130.46 297.76 130.984 296.932 130.984C296.116 130.984 295.47 130.46 295.47 129.595V129.461ZM295.239 133.516C295.239 132.542 295.994 132.043 296.944 132.043C297.906 132.043 298.624 132.567 298.624 133.516V133.65C298.624 134.478 297.991 135.039 296.944 135.039C295.896 135.039 295.239 134.478 295.239 133.65V133.516ZM293.997 133.711C293.997 135.112 295.093 136.122 296.932 136.122C298.77 136.122 299.866 135.112 299.866 133.711V133.504C299.866 132.542 299.209 131.739 298.356 131.483C299.209 131.044 299.611 130.289 299.611 129.547V129.376C299.611 128.122 298.624 127.075 296.932 127.075C295.215 127.075 294.253 128.122 294.253 129.376V129.547C294.253 130.289 294.667 131.081 295.507 131.483C294.667 131.739 293.997 132.542 293.997 133.504V133.711Z" fill="white"/>
<path d="M328.253 135.988V127.209H327.243L324.418 128.865L324.99 129.839L327.048 128.621V135.988H328.253ZM330.559 134.978V135.988H336.453V134.941H332.045L334.785 132.019C335.576 131.178 336.137 130.35 336.137 129.401V129.279C336.137 128 335.175 127.075 333.397 127.075C331.777 127.075 330.998 128.085 330.584 128.84L331.509 129.437C332.081 128.414 332.776 128.158 333.421 128.158C334.334 128.158 334.931 128.585 334.931 129.279V129.376C334.931 129.839 334.834 130.326 333.835 131.422L330.559 134.978Z" fill="white"/>
<path d="M303.58 70.0586H39V103.06H303.58V70.0586Z" fill="#33B9A5"/>
<path d="M343.814 70.0586H303.578V103.06H343.814V70.0586Z" fill="#FFC531"/>
<path d="M275.964 84.2368C275.964 83.4088 276.56 82.9095 277.425 82.9095C278.302 82.9095 278.886 83.4088 278.886 84.2368V84.3708C278.886 85.2354 278.253 85.759 277.425 85.759C276.609 85.759 275.964 85.2354 275.964 84.3708V84.2368ZM275.732 88.2919C275.732 87.3177 276.487 86.8184 277.437 86.8184C278.399 86.8184 279.118 87.342 279.118 88.2919V88.4258C279.118 89.2539 278.484 89.814 277.437 89.814C276.39 89.814 275.732 89.2539 275.732 88.4258V88.2919ZM274.49 88.4867C274.49 89.8871 275.586 90.8978 277.425 90.8978C279.264 90.8978 280.36 89.8871 280.36 88.4867V88.2797C280.36 87.3177 279.702 86.514 278.85 86.2583C279.702 85.8199 280.104 85.0649 280.104 84.3221V84.1516C280.104 82.8973 279.118 81.8501 277.425 81.8501C275.708 81.8501 274.746 82.8973 274.746 84.1516V84.3221C274.746 85.0649 275.16 85.8564 276 86.2583C275.16 86.514 274.49 87.3177 274.49 88.2797V88.4867ZM286.818 82.4467C286.16 82.0449 285.332 81.8501 284.541 81.8501C282.568 81.8501 281.168 82.9825 281.168 86.8306V87.2812C281.168 89.6314 282.252 90.8978 284.224 90.8978C286.014 90.8978 287.22 89.7532 287.22 88.0727V87.8048C287.22 86.0878 286.014 85.004 284.456 85.004C283.481 85.004 282.653 85.4911 282.361 86.0025C282.446 83.6888 283.274 82.9582 284.468 82.9582C285.162 82.9582 285.807 83.153 286.355 83.4696L286.818 82.4467ZM282.398 87.7804C282.398 86.8184 283.14 86.0756 284.212 86.0756C285.284 86.0756 286.014 86.6845 286.014 87.8535V88.0118C286.014 89.1565 285.308 89.8019 284.176 89.8019C283.08 89.8019 282.398 89.0834 282.398 87.9509V87.7804ZM288.211 91.2631H289.599V89.8628H288.211V91.2631ZM292.216 84.2368C292.216 83.4088 292.813 82.9095 293.678 82.9095C294.554 82.9095 295.139 83.4088 295.139 84.2368V84.3708C295.139 85.2354 294.506 85.759 293.678 85.759C292.862 85.759 292.216 85.2354 292.216 84.3708V84.2368ZM291.985 88.2919C291.985 87.3177 292.74 86.8184 293.69 86.8184C294.652 86.8184 295.37 87.342 295.37 88.2919V88.4258C295.37 89.2539 294.737 89.814 293.69 89.814C292.642 89.814 291.985 89.2539 291.985 88.4258V88.2919ZM290.743 88.4867C290.743 89.8871 291.839 90.8978 293.678 90.8978C295.516 90.8978 296.612 89.8871 296.612 88.4867V88.2797C296.612 87.3177 295.955 86.514 295.102 86.2583C295.955 85.8199 296.357 85.0649 296.357 84.3221V84.1516C296.357 82.8973 295.37 81.8501 293.678 81.8501C291.961 81.8501 290.998 82.8973 290.998 84.1516V84.3221C290.998 85.0649 291.413 85.8564 292.253 86.2583C291.413 86.514 290.743 87.3177 290.743 88.2797V88.4867Z" fill="white"/>
<path d="M319.121 90.7639V81.984H318.11L315.285 83.6401L315.857 84.6143L317.915 83.3966V90.7639H319.121ZM322.425 83.7984C322.9 83.1774 323.411 82.9217 324.13 82.9217C324.921 82.9217 325.579 83.3113 325.579 84.0785V84.1759C325.579 84.9309 325.201 85.6616 324.106 85.6616H323.07V86.7088H324.154C325.177 86.7088 325.969 87.0498 325.969 88.2066V88.3649C325.969 89.1565 325.384 89.8019 324.106 89.8019C323.351 89.8019 322.742 89.5827 321.889 88.9616L321.293 89.9236C322.121 90.5812 323.083 90.8978 324.106 90.8978C326.261 90.8978 327.174 89.6436 327.174 88.3528V88.1701C327.174 87.1594 326.578 86.3557 325.396 86.1487C326.48 85.759 326.772 84.8579 326.772 84.1638V84.042C326.772 82.7268 325.737 81.8501 324.118 81.8501C322.803 81.8501 322.072 82.4346 321.56 83.1652L322.425 83.7984ZM328.445 91.2631H329.833V89.8628H328.445V91.2631ZM330.977 89.7532V90.7639H336.871V89.7166H332.463L335.203 86.7941C335.994 85.9538 336.554 85.1258 336.554 84.1759V84.0542C336.554 82.7755 335.592 81.8501 333.814 81.8501C332.195 81.8501 331.416 82.8608 331.001 83.6158L331.927 84.2125C332.499 83.1896 333.193 82.9338 333.839 82.9338C334.752 82.9338 335.349 83.36 335.349 84.0542V84.1516C335.349 84.6143 335.251 85.1014 334.253 86.1974L330.977 89.7532Z" fill="white"/>
<path d="M0.937656 135.256V135.987H6.51488V135.207H2.00926L4.73699 132.005C5.49199 131.128 6.19827 130.336 6.19827 129.386V129.265C6.19827 127.949 5.19973 127.073 3.64103 127.073C2.17975 127.073 1.36386 127.998 0.949833 128.753L1.63177 129.179C2.2041 128.156 2.89821 127.852 3.66538 127.852C4.72481 127.852 5.33368 128.4 5.33368 129.277V129.374C5.33368 129.837 5.17537 130.288 4.21336 131.42L0.937656 135.256ZM13.2077 130.909C13.2077 128.449 12.2822 127.073 10.212 127.073C8.16625 127.073 7.24077 128.449 7.24077 130.909V132.272C7.24077 134.732 8.12971 136.12 10.212 136.12C12.3187 136.12 13.2077 134.757 13.2077 132.272V130.909ZM12.3309 132.285C12.3309 134.477 11.6124 135.353 10.212 135.353C8.86036 135.353 8.11754 134.464 8.11754 132.285V130.896C8.11754 128.741 8.86036 127.84 10.212 127.84C11.6124 127.84 12.3309 128.729 12.3309 130.896V132.285ZM14.0797 135.256V135.987H19.6569V135.207H15.1513L17.879 132.005C18.634 131.128 19.3403 130.336 19.3403 129.386V129.265C19.3403 127.949 18.3418 127.073 16.7831 127.073C15.3218 127.073 14.5059 127.998 14.0919 128.753L14.7738 129.179C15.3461 128.156 16.0402 127.852 16.8074 127.852C17.8668 127.852 18.4757 128.4 18.4757 129.277V129.374C18.4757 129.837 18.3174 130.288 17.3554 131.42L14.0797 135.256ZM26.3497 130.909C26.3497 128.449 25.4242 127.073 23.3541 127.073C21.3083 127.073 20.3828 128.449 20.3828 130.909V132.272C20.3828 134.732 21.2717 136.12 23.3541 136.12C25.4607 136.12 26.3497 134.757 26.3497 132.272V130.909ZM25.4729 132.285C25.4729 134.477 24.7545 135.353 23.3541 135.353C22.0024 135.353 21.2596 134.464 21.2596 132.285V130.896C21.2596 128.741 22.0024 127.84 23.3541 127.84C24.7545 127.84 25.4729 128.729 25.4729 130.896V132.285Z" fill="#222222"/>
<path d="M0.937656 90.0332V90.7639H6.51488V89.9845H2.00926L4.73699 86.7819C5.49199 85.9051 6.19827 85.1136 6.19827 84.1638V84.042C6.19827 82.7268 5.19973 81.8501 3.64103 81.8501C2.17975 81.8501 1.36386 82.7755 0.949833 83.5305L1.63177 83.9567C2.2041 82.9338 2.89821 82.6294 3.66538 82.6294C4.72481 82.6294 5.33368 83.1774 5.33368 84.0542V84.1516C5.33368 84.6143 5.17537 85.0649 4.21336 86.1974L0.937656 90.0332ZM13.2077 85.6859C13.2077 83.2261 12.2822 81.8501 10.212 81.8501C8.16625 81.8501 7.24077 83.2261 7.24077 85.6859V87.0498C7.24077 89.5096 8.12971 90.8978 10.212 90.8978C12.3187 90.8978 13.2077 89.534 13.2077 87.0498V85.6859ZM12.3309 87.062C12.3309 89.2539 11.6124 90.1307 10.212 90.1307C8.86036 90.1307 8.11754 89.2417 8.11754 87.062V85.6737C8.11754 83.5184 8.86036 82.6172 10.212 82.6172C11.6124 82.6172 12.3309 83.5062 12.3309 85.6737V87.062ZM14.0797 90.0332V90.7639H19.6569V89.9845H15.1513L17.879 86.7819C18.634 85.9051 19.3403 85.1136 19.3403 84.1638V84.042C19.3403 82.7268 18.3418 81.8501 16.7831 81.8501C15.3218 81.8501 14.5059 82.7755 14.0919 83.5305L14.7738 83.9567C15.3461 82.9338 16.0402 82.6294 16.8074 82.6294C17.8668 82.6294 18.4757 83.1774 18.4757 84.0542V84.1516C18.4757 84.6143 18.3174 85.0649 17.3554 86.1974L14.0797 90.0332ZM24.3526 90.7639V81.984H23.7072L20.9917 83.6645L21.3813 84.3464L23.5002 83.0556V90.7639H24.3526Z" fill="#222222"/>
<path d="M0.937656 44.8096V45.5402H6.51488V44.7609H2.00926L4.73699 41.5582C5.49199 40.6815 6.19827 39.89 6.19827 38.9401V38.8183C6.19827 37.5032 5.19973 36.6264 3.64103 36.6264C2.17975 36.6264 1.36386 37.5519 0.949833 38.3069L1.63177 38.7331C2.2041 37.7102 2.89821 37.4058 3.66538 37.4058C4.72481 37.4058 5.33368 37.9538 5.33368 38.8305V38.9279C5.33368 39.3907 5.17537 39.8412 4.21336 40.9737L0.937656 44.8096ZM13.2077 40.4623C13.2077 38.0025 12.2822 36.6264 10.212 36.6264C8.16625 36.6264 7.24077 38.0025 7.24077 40.4623V41.8262C7.24077 44.286 8.12971 45.6742 10.212 45.6742C12.3187 45.6742 13.2077 44.3103 13.2077 41.8262V40.4623ZM12.3309 41.8383C12.3309 44.0303 11.6124 44.907 10.212 44.907C8.86036 44.907 8.11754 44.0181 8.11754 41.8383V40.4501C8.11754 38.2947 8.86036 37.3936 10.212 37.3936C11.6124 37.3936 12.3309 38.2825 12.3309 40.4501V41.8383ZM14.0797 44.8096V45.5402H19.6569V44.7609H15.1513L17.879 41.5582C18.634 40.6815 19.3403 39.89 19.3403 38.9401V38.8183C19.3403 37.5032 18.3418 36.6264 16.7831 36.6264C15.3218 36.6264 14.5059 37.5519 14.0919 38.3069L14.7738 38.7331C15.3461 37.7102 16.0402 37.4058 16.8074 37.4058C17.8668 37.4058 18.4757 37.9538 18.4757 38.8305V38.9279C18.4757 39.3907 18.3174 39.8412 17.3554 40.9737L14.0797 44.8096ZM20.6507 44.8096V45.5402H26.2279V44.7609H21.7223L24.45 41.5582C25.205 40.6815 25.9113 39.89 25.9113 38.9401V38.8183C25.9113 37.5032 24.9128 36.6264 23.3541 36.6264C21.8928 36.6264 21.0769 37.5519 20.6629 38.3069L21.3448 38.7331C21.9171 37.7102 22.6112 37.4058 23.3784 37.4058C24.4378 37.4058 25.0467 37.9538 25.0467 38.8305V38.9279C25.0467 39.3907 24.8884 39.8412 23.9264 40.9737L20.6507 44.8096Z" fill="#222222"/>
<path d="M315.34 5.0409C315.34 3.57962 315.696 2.20967 316.591 1.00411H316.007C315.103 2.08181 314.664 3.46089 314.664 5.08657V5.45189C314.664 7.07757 315.103 8.47492 316.007 9.55261H316.591C315.651 8.26486 315.34 6.88577 315.34 5.49755V5.0409ZM317.043 5.36969C319.6 5.36969 320.331 5.34229 321.692 5.1779L321.619 4.61165C320.313 4.76691 319.527 4.79431 317.692 4.79431V2.01788H320.87V1.4425H317.043V5.36969ZM323.162 0.894515H322.523V6.86751H323.162V3.73488H324.441V3.16864H323.162V0.894515ZM318.815 6.39259H318.166V9.14163H323.418V8.56625H318.815V6.39259ZM327.164 4.62078C328.342 4.62078 329.292 3.97234 329.292 3.04077V2.65719C329.292 1.72562 328.342 1.07718 327.164 1.07718C325.986 1.07718 325.036 1.72562 325.036 2.65719V3.04077C325.036 3.97234 325.986 4.62078 327.164 4.62078ZM327.164 1.65255C327.977 1.65255 328.671 2.08181 328.671 2.70285V2.99511C328.671 3.61615 327.977 4.0454 327.164 4.0454C326.351 4.0454 325.657 3.61615 325.657 2.99511V2.70285C325.657 2.08181 326.351 1.65255 327.164 1.65255ZM331.347 0.894515H330.698V9.24209H331.347V0.894515ZM330.059 5.29663C328.835 5.43362 327.173 5.49755 324.534 5.49755V6.0638C325.447 6.0638 326.196 6.05467 326.853 6.04553V8.97723H327.511V6.01814C328.516 5.9816 329.283 5.93594 330.114 5.85374L330.059 5.29663ZM332.736 7.77167H333.659V6.85837H332.736V7.77167ZM332.736 3.73488H333.659V2.82158H332.736V3.73488ZM336.332 8.22833L340.259 1.65255H339.684L335.748 8.22833H336.332ZM339.921 4.86738C339.035 4.86738 338.506 5.42449 338.506 6.38346V6.79444C338.506 7.75341 339.035 8.31052 339.921 8.31052C340.807 8.31052 341.337 7.75341 341.337 6.79444V6.38346C341.337 5.42449 340.807 4.86738 339.921 4.86738ZM339.921 7.84474C339.392 7.84474 339.035 7.54335 339.035 6.77618V6.40172C339.035 5.64368 339.392 5.33316 339.921 5.33316C340.451 5.33316 340.807 5.64368 340.807 6.40172V6.77618C340.807 7.54335 340.451 7.84474 339.921 7.84474ZM336.095 1.57949C335.209 1.57949 334.679 2.13661 334.679 3.09557V3.50656C334.679 4.46552 335.209 5.02264 336.095 5.02264C336.98 5.02264 337.51 4.46552 337.51 3.50656V3.09557C337.51 2.13661 336.98 1.57949 336.095 1.57949ZM336.095 4.55685C335.565 4.55685 335.209 4.25546 335.209 3.48829V3.11384C335.209 2.3558 335.565 2.04527 336.095 2.04527C336.624 2.04527 336.98 2.3558 336.98 3.11384V3.48829C336.98 4.25546 336.624 4.55685 336.095 4.55685ZM342.909 5.49755C342.909 6.88577 342.599 8.26486 341.658 9.55261H342.242C343.147 8.47492 343.585 7.07757 343.585 5.45189V5.08657C343.585 3.46089 343.147 2.08181 342.242 1.00411H341.658C342.553 2.20967 342.909 3.57962 342.909 5.0409V5.49755Z" fill="#555555"/>
<path d="M109.792 192.84H108.604V196.56H115.78V195.528H109.792V192.84ZM115.516 193.488V185.616H114.34V193.488H115.516ZM109.852 189.72C109.924 189.9 110.176 190.152 110.536 190.452C111.112 190.932 111.7 191.424 112.312 191.892L113.008 191.064C112.3 190.548 111.592 189.984 111.028 189.468C110.452 188.94 110.404 188.544 110.404 187.8V186.132H109.204V187.848C109.204 188.688 109.036 189.144 108.424 189.756C108.004 190.176 107.236 190.824 106.468 191.412L107.176 192.252C107.812 191.748 108.544 191.136 109.036 190.68C109.408 190.344 109.78 189.924 109.84 189.72H109.852ZM120.33 196.656V192.264H122.994V196.656H124.182V192.264H126.738V191.256H124.866C125.094 190.068 125.202 188.856 125.202 187.716V186.3H117.858V187.344H124.014V187.992C124.014 189.048 123.918 190.092 123.678 191.256H116.586V192.264H119.142V196.656H120.33ZM136.424 185.616H135.26V189.612H134V185.844H132.836V196.14H134V190.644H135.26V196.68H136.424V185.616ZM129.608 191.388C129.692 191.628 129.872 191.892 130.112 192.18C130.592 192.756 131.096 193.284 131.732 193.92L132.536 193.128C131.828 192.444 131.3 191.88 130.796 191.232C130.316 190.608 130.16 190.044 130.16 189.36V188.292H132.044V187.296H130.16V185.856H129.008V187.296H127.004V188.292H129.008V189.36C129.008 190.044 128.888 190.632 128.408 191.256C127.892 191.928 127.268 192.576 126.548 193.26L127.352 194.064C127.988 193.416 128.6 192.756 129.08 192.18C129.32 191.892 129.512 191.628 129.596 191.388H129.608ZM142.066 185.76C139.966 185.76 138.514 186.504 138.514 187.764V188.1C138.514 188.772 138.91 189.288 139.606 189.636V191.088H136.99V192.096H147.142V191.088H144.538V189.624C145.222 189.288 145.618 188.76 145.618 188.1V187.764C145.618 186.504 144.166 185.76 142.066 185.76ZM142.066 196.992C144.346 196.992 145.558 195.984 145.558 195.012V194.604C145.558 193.632 144.346 192.624 142.066 192.624C139.786 192.624 138.574 193.632 138.574 194.604V195.012C138.574 195.996 139.786 196.992 142.066 196.992ZM142.066 189.12C140.674 189.12 139.678 188.688 139.678 188.052V187.812C139.678 187.176 140.674 186.744 142.066 186.744C143.458 186.744 144.454 187.176 144.454 187.812V188.052C144.454 188.688 143.458 189.12 142.066 189.12ZM142.066 193.596C143.506 193.596 144.382 194.184 144.382 194.7V194.916C144.382 195.432 143.506 196.02 142.066 196.02C140.626 196.02 139.75 195.432 139.75 194.916V194.7C139.75 194.184 140.626 193.596 142.066 193.596ZM142.066 190.104C142.534 190.104 142.966 190.068 143.362 189.996V191.088H140.782V190.008C141.166 190.08 141.598 190.104 142.066 190.104ZM152.916 192.888H151.728V196.56H158.868V195.528H152.916V192.888ZM158.64 193.512V185.616H157.464V193.512H158.64ZM154.344 189.168C154.344 189.9 153.864 190.716 152.712 190.716C151.572 190.716 151.08 189.9 151.08 189.168V188.64C151.08 187.908 151.56 187.092 152.712 187.092C153.864 187.092 154.344 187.908 154.344 188.64V189.168ZM149.94 189.216C149.94 190.308 150.84 191.748 152.712 191.748C154.584 191.748 155.484 190.308 155.484 189.216V188.592C155.484 187.5 154.584 186.06 152.712 186.06C150.84 186.06 149.94 187.5 149.94 188.592V189.216ZM163.321 189.972C165.013 189.972 166.045 189.072 166.045 188.088V187.704C166.045 186.72 165.013 185.82 163.321 185.82C161.629 185.82 160.597 186.72 160.597 187.704V188.088C160.597 189.072 161.629 189.972 163.321 189.972ZM168.913 194.184V185.616H167.737V192.204H165.397V193.2H167.737V194.184H168.913ZM162.853 193.608H161.665V196.572H169.141V195.552H162.853V193.608ZM163.789 193.164V191.544C164.953 191.496 165.997 191.424 167.017 191.316L166.933 190.32C164.305 190.536 162.529 190.596 159.877 190.584V191.616C160.861 191.616 161.773 191.604 162.613 191.58V193.164H163.789ZM163.321 188.976C162.301 188.976 161.725 188.484 161.725 188.016V187.776C161.725 187.308 162.301 186.828 163.321 186.828C164.341 186.828 164.917 187.308 164.917 187.776V188.016C164.917 188.484 164.341 188.976 163.321 188.976ZM174.603 194.892C174.603 196.056 175.875 196.992 177.999 196.992C180.123 196.992 181.395 196.056 181.395 194.892V194.412C181.395 193.248 180.123 192.312 177.999 192.312C175.875 192.312 174.603 193.248 174.603 194.412V194.892ZM175.551 189.468C175.623 189.648 175.875 189.912 176.235 190.212C176.811 190.692 177.363 191.148 177.987 191.616L178.683 190.788C177.975 190.272 177.291 189.732 176.727 189.216C176.151 188.688 176.103 188.292 176.103 187.548V186.108H174.903V187.596C174.903 188.436 174.735 188.892 174.123 189.504C173.703 189.924 172.959 190.56 172.191 191.148L172.899 191.988C173.535 191.484 174.243 190.884 174.735 190.428C175.107 190.092 175.479 189.672 175.539 189.468H175.551ZM181.347 192.156V185.616H180.171V188.004H177.951V189.024H180.171V192.156H181.347ZM180.231 194.82C180.231 195.408 179.367 196.02 177.999 196.02C176.631 196.02 175.767 195.408 175.767 194.82V194.484C175.767 193.896 176.631 193.284 177.999 193.284C179.367 193.284 180.231 193.896 180.231 194.484V194.82ZM191.909 196.752V195.768H185.909V194.748H191.597V191.796H184.685V192.78H190.433V193.788H184.745V196.752H191.909ZM188.189 190.836V185.952H187.025V187.548H184.181V185.952H183.017V190.836H188.189ZM191.597 191.22V185.616H190.433V186.996H188.705V188.016H190.433V189.06H188.705V190.08H190.433V191.22H191.597ZM184.181 188.52H187.025V189.852H184.181V188.52ZM201.727 196.68V185.616H200.539V196.68H201.727ZM198.511 193.776V186.516H197.335V189.132H194.539V186.516H193.363V193.776H198.511ZM194.539 190.14H197.335V192.756H194.539V190.14ZM211.773 196.752V195.78H205.377V194.964H211.449V192.24H210.165V191.184H212.913V190.2H202.761V191.184H205.509V192.24H204.153V193.212H210.285V194.016H204.213V196.752H211.773ZM207.837 185.652C205.641 185.652 204.297 186.396 204.297 187.5V187.764C204.297 188.868 205.641 189.612 207.837 189.612C210.033 189.612 211.377 188.868 211.377 187.764V187.5C211.377 186.396 210.033 185.652 207.837 185.652ZM207.837 188.628C206.325 188.628 205.461 188.232 205.461 187.728V187.536C205.461 187.032 206.325 186.636 207.837 186.636C209.349 186.636 210.213 187.032 210.213 187.536V187.728C210.213 188.232 209.349 188.628 207.837 188.628ZM206.697 191.184H208.977V192.24H206.697V191.184ZM219.719 187.776V187.86C219.719 188.316 219.515 188.784 218.591 189.204C217.811 189.564 216.983 189.888 216.071 190.212L216.491 191.136C217.511 190.776 218.327 190.452 218.975 190.164C219.767 189.816 220.127 189.588 220.307 189.288H220.319C220.499 189.564 220.859 189.804 221.651 190.152C222.299 190.44 223.115 190.776 224.135 191.136L224.531 190.212C223.631 189.9 222.815 189.576 222.023 189.204C221.087 188.76 220.907 188.352 220.907 187.86V187.776H224.111V186.768H220.907V185.556H219.719V186.768H216.527V187.776H219.719ZM220.931 196.68V193.032H225.407V192.024H215.255V193.032H219.731V196.68H220.931ZM234.613 196.68V185.616H233.425V196.68H234.613ZM228.793 186.36C227.173 186.36 225.997 187.452 225.997 189.576V190.824C225.997 192.936 227.173 194.028 228.793 194.028C230.413 194.028 231.589 192.936 231.589 190.824V189.576C231.589 187.464 230.413 186.36 228.793 186.36ZM228.793 192.96C227.929 192.96 227.137 192.348 227.137 190.656V189.744C227.137 188.052 227.929 187.44 228.793 187.44C229.645 187.44 230.449 188.052 230.449 189.744V190.656C230.449 192.348 229.657 192.96 228.793 192.96Z" fill="#222222"/>
<path d="M40.8866 163.026L40.8226 164.415H41.4254L41.3615 163.026L42.5305 163.784L42.8045 163.264L41.5076 162.634L42.8045 162.013L42.5305 161.492L41.3615 162.25L41.4254 160.853H40.8226L40.8774 162.25L39.7175 161.492L39.4344 162.013L40.7313 162.634L39.4344 163.264L39.7175 163.784L40.8866 163.026ZM45.8731 160.725V163.62H48.2385V164.652H44.7223V165.2H52.394V164.652H48.8778V163.62H51.2433V160.725H45.8731ZM46.5032 161.273H50.6131V163.072H46.5032V161.273ZM45.6995 166.716H50.6496V168.817H51.2889V166.159H45.6995V166.716ZM52.4868 167.018V167.575H60.1585V167.018H57.9118V164.99H59.3548V164.451H58.0671V161.666H59.2726V161.127H53.3727V161.666H54.5782V164.451H53.2905V164.99H54.7335V167.018H52.4868ZM55.2176 161.666H57.4277V164.451H55.2176V161.666ZM55.3728 164.99H57.2725V167.018H55.3728V164.99ZM62.5985 167.282H63.5209V166.369H62.5985V167.282ZM62.5985 163.246H63.5209V162.332H62.5985V163.246ZM66.9064 162.415C67.2808 161.821 67.7923 161.647 68.3129 161.647C69.1074 161.647 69.6006 162.058 69.6006 162.716V162.789C69.6006 163.355 69.1988 164.04 68.3768 164.04H67.6096V164.588H68.3494C68.9796 164.588 69.8746 164.844 69.8746 165.839V165.958C69.8746 166.57 69.4454 167.264 68.2946 167.264C67.6918 167.264 67.1438 167.072 66.5045 166.607L66.1849 167.118C66.8059 167.611 67.5274 167.849 68.2946 167.849C69.9111 167.849 70.5048 166.89 70.5048 165.949V165.812C70.5048 165.045 70.0207 164.433 69.1166 164.278C69.9933 163.976 70.2491 163.319 70.2491 162.798V162.707C70.2491 161.72 69.5002 161.063 68.3037 161.063C67.2991 161.063 66.7329 161.556 66.4041 162.086L66.9064 162.415ZM76.1454 160.579H75.5061V168.342H76.1454V163.995H77.4058V168.753H78.0451V160.405H77.4058V163.419H76.1454V160.579ZM71.3871 166.917C73.9626 165.164 74.328 164.588 74.328 162.762V161.236H71.1862V161.812H73.6978V162.725C73.6978 164.332 73.4877 164.753 71.0309 166.415L71.3871 166.917ZM82.403 161.446V162.004H84.9237V162.963H82.403V163.52H84.9237V166.378H85.5539V160.405H84.9237V161.446H82.403ZM79.2064 160.889V165.09C81.6997 165.09 82.4212 165.054 83.8642 164.862L83.7912 164.287C82.403 164.469 81.6267 164.506 79.8549 164.506V160.889H79.2064ZM81.0787 166.04H80.4302V168.652H85.7639V168.086H81.0787V166.04ZM92.6151 165.593C91.2452 165.593 90.0853 166.132 90.0853 167.109V167.456C90.0853 168.415 91.2452 168.972 92.6151 168.972C93.9851 168.972 95.145 168.415 95.145 167.456V167.109C95.145 166.15 93.9851 165.593 92.6151 165.593ZM93.3457 164.214C92.9256 164.259 92.4964 164.287 92.058 164.314V161.483H92.9804V160.935H88.4231V161.483H89.2542V164.36H88.3683V164.908C90.0944 164.908 91.8753 164.908 93.4005 164.753L93.3457 164.214ZM92.6151 168.424C91.6379 168.424 90.7063 168.068 90.7063 167.419V167.145C90.7063 166.497 91.6379 166.141 92.6151 166.141C93.5923 166.141 94.5239 166.497 94.5239 167.145V167.419C94.5239 168.068 93.5923 168.424 92.6151 168.424ZM93.017 161.83V162.378H94.4691V163.136H93.017V163.684H94.4691V165.401H95.0993V160.405H94.4691V161.83H93.017ZM89.8752 164.36V161.483H91.4369V164.332C90.9346 164.351 90.414 164.36 89.8752 164.36ZM95.9136 163.976V164.524H98.6169V166.725H99.2471V164.524H100.864V166.725H101.494V164.524H103.585V163.976H102.197C102.325 163.31 102.398 162.588 102.398 161.976V160.816H96.9273V161.382H101.759V161.94C101.759 162.542 101.695 163.264 101.53 163.976H95.9136ZM97.6671 165.986H97.0186V168.652H102.699V168.086H97.6671V165.986ZM105.386 165.027V165.584H109.907V166.634H105.432V168.78H110.756V168.232H106.062V167.173H110.537V165.027H105.386ZM110.537 160.405H109.898V164.533H110.537V160.405ZM106.29 162.789C106.345 162.944 106.683 163.236 107.112 163.574C107.377 163.784 107.788 164.095 108.217 164.396L108.582 163.931C108.098 163.611 107.578 163.218 107.24 162.935C106.665 162.451 106.582 162.241 106.582 161.574V160.615H105.925V161.602C105.925 162.268 105.779 162.579 105.249 163.063C104.874 163.401 104.336 163.83 103.769 164.223L104.153 164.689C104.774 164.241 105.285 163.821 105.605 163.538C106.007 163.191 106.235 162.935 106.281 162.789H106.29ZM114.137 163.319C114.173 163.437 114.529 163.748 114.959 164.095C115.233 164.314 115.662 164.634 116.036 164.89L116.411 164.442C115.89 164.095 115.379 163.711 115.087 163.465C114.493 162.953 114.429 162.707 114.429 162.168V161.465H116.219V160.908H111.899V161.465H113.781V162.195C113.781 162.689 113.68 163.008 113.233 163.447C112.785 163.885 112.201 164.332 111.662 164.716L112.054 165.173C112.475 164.871 113.096 164.378 113.415 164.095C113.799 163.757 114.091 163.456 114.128 163.319H114.137ZM113.013 166.305H117.744V168.817H118.384V165.739H113.013V166.305ZM118.384 160.405H117.744V162.497H116V163.063H117.744V165.246H118.384V160.405ZM126.23 160.579H125.591V168.342H126.23V163.985H127.445V168.753H128.084V160.405H127.445V163.41H126.23V160.579ZM121.335 161.2V166.479H122.422C123.344 166.479 124.13 166.433 125.006 166.287L124.933 165.712C124.102 165.858 123.363 165.894 122.367 165.894H121.983V161.784H124.486V161.2H121.335ZM135.62 160.405H134.972V168.753H135.62V160.405ZM133.182 161.09H132.543V163.154H129.985V161.09H129.346V166.543H133.182V161.09ZM129.985 163.73H132.543V165.958H129.985V163.73ZM140.325 162.323V164.305H138.38V164.89H140.325V166.999H140.928V164.89H142.874V164.305H140.928V162.323H140.325ZM146.295 167.748V161.163H145.811L143.774 162.424L144.066 162.935L145.656 161.967V167.748H146.295ZM150.036 167.739L153.963 161.163H153.388L149.451 167.739H150.036ZM153.625 164.378C152.739 164.378 152.209 164.935 152.209 165.894V166.305C152.209 167.264 152.739 167.821 153.625 167.821C154.511 167.821 155.041 167.264 155.041 166.305V165.894C155.041 164.935 154.511 164.378 153.625 164.378ZM153.625 167.355C153.095 167.355 152.739 167.054 152.739 166.287V165.912C152.739 165.154 153.095 164.844 153.625 164.844C154.155 164.844 154.511 165.154 154.511 165.912V166.287C154.511 167.054 154.155 167.355 153.625 167.355ZM149.798 161.09C148.912 161.09 148.383 161.647 148.383 162.606V163.017C148.383 163.976 148.912 164.533 149.798 164.533C150.684 164.533 151.214 163.976 151.214 163.017V162.606C151.214 161.647 150.684 161.09 149.798 161.09ZM149.798 164.068C149.269 164.068 148.912 163.766 148.912 162.999V162.625C148.912 161.867 149.269 161.556 149.798 161.556C150.328 161.556 150.684 161.867 150.684 162.625V162.999C150.684 163.766 150.328 164.068 149.798 164.068ZM162.449 160.579H161.81V168.342H162.449V163.995H163.709V168.753H164.349V160.405H163.709V163.419H162.449V160.579ZM157.691 166.917C160.266 165.164 160.631 164.588 160.631 162.762V161.236H157.49V161.812H160.001V162.725C160.001 164.332 159.791 164.753 157.334 166.415L157.691 166.917ZM167.51 163.401C167.556 163.547 167.802 163.794 168.222 164.15C168.533 164.415 168.935 164.743 169.419 165.109L169.802 164.661C169.4 164.369 168.916 163.985 168.469 163.593C167.857 163.045 167.802 162.826 167.802 162.15V160.798H167.145V162.168C167.145 162.853 167.081 163.09 166.505 163.666C166.094 164.077 165.519 164.552 165.026 164.917L165.428 165.383C165.93 164.981 166.469 164.524 166.788 164.223C167.19 163.839 167.473 163.556 167.501 163.401H167.51ZM171.857 160.405H171.218V162.396H169.337V162.963H171.218V166.36H171.857V160.405ZM167.4 165.867H166.752V168.652H172.067V168.086H167.4V165.867Z" fill="#555555"/>
</svg>
