<svg width="193" height="810" viewBox="0 0 193 810" fill="none" xmlns="http://www.w3.org/2000/svg">
<rect x="174" width="791" height="174" rx="87" transform="rotate(90 174 0)" fill="url(#paint0_linear_4_2630)"/>
<path d="M87.211 606.434L82.422 598.444L92 598.444L87.211 606.434Z" fill="white"/>
<path d="M87.211 401.093L82.422 393.103L92 393.103L87.211 401.093Z" fill="white"/>
<path d="M87.211 195.753L82.422 187.763L92 187.763L87.211 195.753Z" fill="white"/>
<g filter="url(#filter0_d_4_2630)">
<ellipse cx="87.1741" cy="292.904" rx="75.904" ry="75.8257" transform="rotate(90 87.1741 292.904)" fill="white"/>
</g>
<path d="M71.848 293.24V278.488H70.264V283.048H67.128V284.44H70.264V293.24H71.848ZM63.976 285.832C64.104 286.152 64.488 286.6 64.936 287.08C65.544 287.736 66.264 288.456 67.368 289.48L68.392 288.392C67.432 287.544 66.728 286.872 66.04 286.12C65.064 285.032 64.76 284.376 64.76 283.112V279.56H63.16V283.112C63.16 284.248 62.904 284.968 61.928 286.072C61.208 286.872 60.376 287.688 59.4 288.552L60.44 289.624C61.528 288.632 62.376 287.784 63.032 287.064C63.544 286.504 63.816 286.184 63.96 285.832H63.976ZM85.0345 285.976V284.648H76.5865V283.272H84.6825V279.24H74.9545V280.568H83.1145V281.944H75.0185V285.976H85.0345ZM83.2425 293.24V288.664H86.6505V287.32H73.1145V288.664H76.5225V293.24H78.1065V288.664H81.6585V293.24H83.2425ZM91.485 284.296C91.597 284.536 91.917 284.84 92.397 285.24C93.165 285.88 93.853 286.408 94.685 286.984L95.581 285.832C94.653 285.208 93.821 284.6 93.053 283.928C92.365 283.336 92.221 282.728 92.221 281.704V280.792H95.133V279.432H87.517V280.792H90.621V281.768C90.621 282.936 90.365 283.576 89.581 284.312C89.021 284.84 88.045 285.592 87.021 286.312L87.949 287.448C88.845 286.824 89.725 286.152 90.397 285.544C90.893 285.096 91.373 284.568 91.469 284.296H91.485ZM99.037 289V278.488H97.469V282.248H94.749V283.608H97.469V289H99.037ZM91.405 288.152H89.821V293.08H99.341V291.704H91.405V288.152ZM108.175 288.088C105.263 288.088 103.647 289.192 103.647 290.616V291.128C103.647 292.552 105.263 293.656 108.175 293.656C111.087 293.656 112.703 292.552 112.703 291.128V290.616C112.703 289.192 111.087 288.088 108.175 288.088ZM104.671 287.432C106.959 287.432 108.095 286.152 108.095 284.936V284.456C108.095 283.24 106.959 281.96 104.671 281.96C102.383 281.96 101.247 283.224 101.247 284.456V284.936C101.247 286.152 102.383 287.432 104.671 287.432ZM112.639 287.8V278.488H111.087V282.04H108.927V283.4H111.087V284.824H108.927V286.184H111.087V287.8H112.639ZM108.175 292.376C106.271 292.376 105.199 291.736 105.199 291.032V290.712C105.199 290.008 106.271 289.368 108.175 289.368C110.079 289.368 111.151 290.008 111.151 290.712V291.032C111.151 291.736 110.079 292.376 108.175 292.376ZM108.975 280.072H105.439V278.328H103.871V280.072H100.447V281.416H108.975V280.072ZM104.671 286.168C103.375 286.168 102.751 285.48 102.751 284.856V284.536C102.751 283.912 103.359 283.224 104.671 283.224C105.983 283.224 106.591 283.912 106.591 284.536V284.856C106.591 285.48 105.967 286.168 104.671 286.168Z" fill="#222222"/>
<path d="M56.8934 305.684H51.0374V306.428H53.5574V308.204C53.5574 309.116 53.4494 309.572 52.6934 310.424C52.1414 311.048 51.4574 311.708 50.7014 312.38L51.2654 312.944C51.9854 312.32 52.7894 311.468 53.1134 311.132C53.4614 310.76 53.9294 310.22 53.9894 310.004H54.0014C54.0614 310.16 54.3974 310.532 54.7454 310.904C55.2254 311.42 55.8014 312.008 56.6294 312.776L57.1814 312.212C56.2934 311.42 55.5854 310.712 55.1174 310.172C54.4814 309.44 54.4094 309.056 54.4094 308.144V306.428H56.8934V305.684ZM59.2214 304.664H58.3694V315.632H59.2214V309.608H61.0454V308.852H59.2214V304.664ZM69.9393 304.664H69.0873V315.632H69.9393V304.664ZM61.9233 313.136C65.8233 310.856 66.4113 310.04 66.4113 307.856V305.696H61.5993V306.464H65.5833V307.844C65.5833 309.632 65.1633 310.34 61.4793 312.452L61.9233 313.136ZM76.1692 308.408C76.2772 308.648 76.7092 309.044 77.5732 309.62C78.2932 310.1 79.2652 310.676 80.1172 311.144L80.5612 310.484C79.5292 309.944 78.6172 309.404 78.0532 309.02C76.8652 308.216 76.6012 307.844 76.6012 306.548V305.384H75.7252V306.548C75.7252 307.844 75.4492 308.216 74.2612 309.02C73.6972 309.404 72.7732 309.956 71.7292 310.496L72.1852 311.168C73.0492 310.7 74.0332 310.112 74.7532 309.632C75.6172 309.056 76.0612 308.648 76.1572 308.408H76.1692ZM71.1172 313.352V314.084H81.1972V313.352H76.5892V310.82H75.7132V313.352H71.1172ZM88.2311 304.892H87.3911V315.092H88.2311V309.38H89.8871V315.632H90.7271V304.664H89.8871V308.624H88.2311V304.892ZM81.9791 313.22C85.3631 310.916 85.8431 310.16 85.8431 307.76V305.756H81.7151V306.512H85.0151V307.712C85.0151 309.824 84.7391 310.376 81.5111 312.56L81.9791 313.22ZM100.605 304.664H99.7649V308.144H97.1609V308.912H99.7649V315.632H100.605V304.664ZM93.5009 310.328C92.9369 310.964 92.2769 311.6 91.4849 312.296L92.0489 312.884C92.7569 312.26 93.5489 311.456 93.9689 311C94.3289 310.604 94.7849 310.04 94.8209 309.884H94.8329C94.8929 310.04 95.2409 310.436 95.6009 310.82C96.0809 311.336 96.7529 311.996 97.5089 312.716L98.0609 312.14C97.1609 311.324 96.4529 310.604 95.9729 310.052C95.3249 309.308 95.2529 308.912 95.2529 307.988V305.468H94.3769V308.048C94.3769 308.996 94.2569 309.464 93.5009 310.328ZM107.687 309.56C109.235 309.56 110.483 308.708 110.483 307.484V306.98C110.483 305.756 109.235 304.904 107.687 304.904C106.139 304.904 104.891 305.756 104.891 306.98V307.484C104.891 308.708 106.139 309.56 107.687 309.56ZM107.687 305.66C108.755 305.66 109.667 306.224 109.667 307.04V307.424C109.667 308.24 108.755 308.804 107.687 308.804C106.619 308.804 105.707 308.24 105.707 307.424V307.04C105.707 306.224 106.619 305.66 107.687 305.66ZM113.183 304.664H112.331V315.632H113.183V304.664ZM111.491 310.448C109.883 310.628 107.699 310.712 104.231 310.712V311.456C105.431 311.456 106.415 311.444 107.279 311.432V315.284H108.143V311.396C109.463 311.348 110.471 311.288 111.563 311.18L111.491 310.448ZM120.661 308.768C121.357 309.116 122.233 309.524 123.133 309.872L123.493 309.212C122.605 308.876 121.693 308.468 120.925 308.072C119.761 307.472 119.677 306.98 119.677 306.176V306.068H122.989V305.348H115.501V306.068H118.825V306.176C118.825 306.98 118.717 307.472 117.565 308.072C116.797 308.468 115.861 308.888 114.973 309.224L115.345 309.896C116.341 309.512 117.193 309.104 117.841 308.78C118.633 308.384 119.113 308.048 119.245 307.76H119.257C119.401 308.048 119.869 308.372 120.661 308.768ZM114.205 310.976V311.708H118.825V315.632H119.677V311.708H124.285V310.976H114.205ZM69.5563 324.828C69.6043 324.984 70.0723 325.392 70.6363 325.848C70.9963 326.136 71.5603 326.556 72.0523 326.892L72.5443 326.304C71.8603 325.848 71.1883 325.344 70.8043 325.02C70.0243 324.348 69.9403 324.024 69.9403 323.316V322.116H72.2923V321.384H66.6163V322.116H69.0883V323.352C69.0883 324 68.9563 324.42 68.3683 324.996C67.7803 325.572 67.0123 326.16 66.3043 326.664L66.8203 327.264C67.3723 326.868 68.1883 326.22 68.6083 325.848C69.1123 325.404 69.4963 325.008 69.5443 324.828H69.5563ZM72.0043 323.58V324.324H74.2963V328.5H75.1363V320.664H74.2963V323.58H72.0043ZM69.2683 327.864H68.4163V331.5H75.4123V330.756H69.2683V327.864ZM78.7381 330.108C78.7381 331.212 80.1421 331.932 82.0621 331.932C83.9821 331.932 85.3861 331.212 85.3861 330.108V329.7C85.3861 328.596 83.9821 327.876 82.0621 327.876C80.1421 327.876 78.7381 328.596 78.7381 329.7V330.108ZM79.4461 327.3C80.9221 327.3 81.9421 326.46 81.9421 325.476V325.044C81.9421 324.06 80.9221 323.22 79.4461 323.22C77.9701 323.22 76.9501 324.06 76.9501 325.044V325.476C76.9501 326.46 77.9701 327.3 79.4461 327.3ZM79.5541 329.748C79.5541 329.028 80.7421 328.584 82.0621 328.584C83.3821 328.584 84.5701 329.028 84.5701 329.748V330.06C84.5701 330.78 83.3821 331.224 82.0621 331.224C80.7421 331.224 79.5541 330.78 79.5541 330.06V329.748ZM82.6381 323.424V324.156H84.4981V325.512H82.6381V326.244H84.4981V327.564H85.3261V320.664H84.4981V323.424H82.6381ZM79.4461 323.928C80.4541 323.928 81.1381 324.456 81.1381 325.08V325.44C81.1381 326.064 80.4541 326.592 79.4461 326.592C78.4381 326.592 77.7541 326.064 77.7541 325.44V325.08C77.7541 324.456 78.4381 323.928 79.4461 323.928ZM79.8541 320.532H79.0141V321.924H76.3141V322.656H82.6741V321.924H79.8541V320.532ZM94.568 327.48C92.768 327.48 91.244 328.188 91.244 329.472V329.928C91.244 331.188 92.768 331.92 94.568 331.92C96.368 331.92 97.892 331.188 97.892 329.928V329.472C97.892 328.212 96.368 327.48 94.568 327.48ZM95.528 325.668C94.976 325.728 94.412 325.764 93.836 325.8V322.08H95.048V321.36H89.06V322.08H90.152V325.86H88.988V326.58C91.256 326.58 93.596 326.58 95.6 326.376L95.528 325.668ZM94.568 331.2C93.284 331.2 92.06 330.732 92.06 329.88V329.52C92.06 328.668 93.284 328.2 94.568 328.2C95.852 328.2 97.076 328.668 97.076 329.52V329.88C97.076 330.732 95.852 331.2 94.568 331.2ZM95.096 322.536V323.256H97.004V324.252H95.096V324.972H97.004V327.228H97.832V320.664H97.004V322.536H95.096ZM90.968 325.86V322.08H93.02V325.824C92.36 325.848 91.676 325.86 90.968 325.86ZM107.374 320.664H106.522V331.632H107.374V325.608H109.198V324.852H107.374V320.664ZM99.6699 329.112C103.57 326.832 104.134 326.028 104.134 323.844V321.708H99.3459V322.476H103.306V323.832C103.306 325.62 102.91 326.316 99.2259 328.428L99.6699 329.112Z" fill="#222222"/>
<path d="M72.4591 264.258C71.5911 264.258 70.3591 263.768 69.6031 263.194L68.9031 264.328C69.7431 265 70.9891 265.518 72.4171 265.518C74.4891 265.518 76.0151 264.566 76.0151 262.718V262.466C76.0151 261.066 75.2451 260.184 72.7531 259.624C71.2551 259.288 70.4291 258.952 70.4291 258.028V257.804C70.4291 257.006 71.2551 256.362 72.5151 256.362C73.4391 256.362 74.1811 256.572 74.9231 257.076L75.5811 255.998C74.7271 255.424 73.7331 255.116 72.5011 255.116C70.1771 255.116 69.0431 256.446 69.0431 257.818V258.07C69.0431 259.89 70.4991 260.478 72.4031 260.884C74.0411 261.234 74.6151 261.682 74.6151 262.564V262.788C74.6151 263.586 73.8871 264.258 72.4591 264.258ZM80.5681 265.364V256.46H83.6481V255.27H76.1021V256.46H79.1821V265.364H80.5681ZM84.1841 255.27V265.364H90.5681V264.174H85.5701V260.786H90.1761V259.596H85.5701V256.46H90.4701V255.27H84.1841ZM91.7113 265.364H93.0973V261.43H95.3233C97.5213 261.43 98.6693 260.086 98.6693 258.448V258.154C98.6693 256.502 97.6053 255.27 95.3233 255.27H91.7113V265.364ZM95.2393 256.474C96.5413 256.474 97.2693 257.02 97.2693 258.168V258.42C97.2693 259.638 96.5413 260.226 95.0853 260.226H93.0973V256.474H95.2393ZM99.2599 264.202V265.364H106.036V264.16H100.968L104.118 260.8C105.028 259.834 105.672 258.882 105.672 257.79V257.65C105.672 256.18 104.566 255.116 102.522 255.116C100.66 255.116 99.7639 256.278 99.2879 257.146L100.352 257.832C101.01 256.656 101.808 256.362 102.55 256.362C103.6 256.362 104.286 256.852 104.286 257.65V257.762C104.286 258.294 104.174 258.854 103.026 260.114L99.2599 264.202Z" fill="#5082E6"/>
<g filter="url(#filter1_d_4_2630)">
<ellipse cx="87.1741" cy="497.904" rx="75.904" ry="75.8257" transform="rotate(90 87.1741 497.904)" fill="white"/>
</g>
<path d="M59.144 476.88H57.608L53.32 488.416H54.936L56.152 485.024H60.568L61.784 488.416H63.448L59.144 476.88ZM57.608 480.96C57.944 480 58.04 479.712 58.36 478.64C58.68 479.696 58.776 480 59.128 480.96L60.088 483.664H56.632L57.608 480.96ZM64.1176 476.88V488.416H65.7016V476.88H64.1176ZM74.3528 479.248C74.3528 477.824 73.2008 476.016 70.6888 476.016C68.1767 476.016 67.0247 477.824 67.0247 479.248V480.064C67.0247 481.488 68.1767 483.296 70.6888 483.296C73.2008 483.296 74.3528 481.488 74.3528 480.064V479.248ZM69.1688 486.176H77.2968V490.384H78.8808V484.816H69.1688V486.176ZM78.8808 484.048V475.488H77.3288V477.36H75.0087V478.72H77.3288V480.688H75.0087V482.048H77.3288V484.048H78.8808ZM72.8328 479.984C72.8328 480.928 72.1608 481.92 70.6888 481.92C69.2168 481.92 68.5447 480.928 68.5447 479.984V479.328C68.5447 478.384 69.2168 477.392 70.6888 477.392C72.1608 477.392 72.8328 478.384 72.8328 479.328V479.984ZM87.4273 484.704C84.6433 484.704 82.9793 485.872 82.9793 487.36V488C82.9793 489.488 84.6433 490.656 87.4273 490.656C90.2113 490.656 91.8753 489.488 91.8753 488V487.36C91.8753 485.872 90.2113 484.704 87.4273 484.704ZM83.6033 483.68C85.9393 483.68 87.3153 483.584 89.1233 483.36L88.9793 482.048C86.9953 482.288 85.5233 482.336 83.7633 482.336H82.4193V480.576H87.4113V476.192H80.8033V477.536H85.8433V479.264H80.8513V483.68H83.6033ZM93.9073 477.696H91.8113V475.488H90.2433V484.512H91.8113V482.048H93.9073V480.672H91.8113V479.072H93.9073V477.696ZM87.4273 489.36C85.6513 489.36 84.5313 488.624 84.5313 487.904V487.456C84.5313 486.736 85.6513 486 87.4273 486C89.2033 486 90.3233 486.736 90.3233 487.456V487.904C90.3233 488.624 89.2033 489.36 87.4273 489.36ZM96.8858 484.496V490.224H106.086V484.496H96.8858ZM106.086 483.776V475.488H104.518V478.992H101.142C101.158 478.88 101.158 478.736 101.158 478.608V476.352H94.8697V477.696H99.6058V478.496C99.6058 480.16 98.7738 480.96 94.2617 482.848L94.8537 484.128C98.4858 482.592 100.166 481.68 100.806 480.352H104.518V483.776H106.086ZM98.4538 485.84H104.518V488.88H98.4538V485.84ZM121.176 480.816H118.904V475.488H117.32V490.24H118.904V482.192H121.176V480.816ZM111.752 482.832C111.88 483.152 112.264 483.6 112.712 484.08C113.32 484.736 114.04 485.456 115.144 486.48L116.168 485.392C115.208 484.544 114.504 483.872 113.816 483.12C112.84 482.032 112.536 481.376 112.536 480.112V476.56H110.936V480.112C110.936 481.248 110.68 481.968 109.704 483.072C108.984 483.872 108.152 484.688 107.176 485.552L108.216 486.624C109.304 485.632 110.152 484.784 110.808 484.064C111.32 483.504 111.592 483.184 111.736 482.832H111.752Z" fill="#222222"/>
<path d="M53.2205 501.664H52.3685V512.632H53.2205V506.596H54.9605V505.84H53.2205V501.664ZM51.5285 509.08C50.3405 509.212 49.2245 509.284 47.6765 509.32V505.84H46.8245V509.332C46.1405 509.344 45.3845 509.344 44.5085 509.344V510.088C48.1805 510.088 49.6205 510.016 51.6005 509.812L51.5285 509.08ZM45.0605 502.72V503.476H49.6805V504.22C49.6805 505.24 49.6085 506.572 49.3925 507.544L50.2445 507.652C50.4365 506.872 50.5325 505.204 50.5325 504.052V502.72H45.0605ZM57.9504 508.288C59.4864 508.288 60.4584 507.436 60.4584 506.452V506.02C60.4584 505.036 59.4864 504.184 57.9504 504.184C56.4144 504.184 55.4424 505.036 55.4424 506.02V506.452C55.4424 507.436 56.4144 508.288 57.9504 508.288ZM57.9504 504.892C58.9584 504.892 59.6544 505.42 59.6544 506.056V506.416C59.6544 507.052 58.9584 507.58 57.9504 507.58C56.9424 507.58 56.2464 507.052 56.2464 506.416V506.056C56.2464 505.42 56.9424 504.892 57.9504 504.892ZM56.4264 509.872H62.4624V512.728H63.3024V509.128H56.4264V509.872ZM63.3024 501.664H62.4624V508.48H63.3024V505.408H64.9824V504.664H63.3024V501.664ZM58.3704 501.508H57.5304V502.9H54.8064V503.632H61.1184V502.9H58.3704V501.508ZM68.4163 505.492C68.4643 505.648 68.9323 506.056 69.4963 506.512C69.8563 506.8 70.4203 507.22 70.9123 507.556L71.4043 506.968C70.7203 506.512 70.0483 506.008 69.6643 505.684C68.8843 505.012 68.8003 504.688 68.8003 503.98V503.056H71.1523V502.324H65.4763V503.056H67.9483V504.016C67.9483 504.664 67.8163 505.084 67.2283 505.66C66.6403 506.236 65.8723 506.824 65.1643 507.328L65.6803 507.928C66.2323 507.532 67.0483 506.884 67.4683 506.512C67.9723 506.068 68.3563 505.672 68.4043 505.492H68.4163ZM66.9403 509.416H73.1563V512.716H73.9963V508.672H66.9403V509.416ZM73.9963 501.664H73.1563V504.412H70.8643V505.156H73.1563V508.024H73.9963V501.664ZM85.9381 501.976H85.1101V503.344H79.6861V501.976H78.8581V506.152H85.9381V501.976ZM77.3581 507.424V508.144H82.0981V510.352H82.9381V508.144H87.4381V507.424H77.3581ZM79.6981 509.38H78.8461V512.5H86.1781V511.756H79.6981V509.38ZM79.6861 504.052H85.1101V505.42H79.6861V504.052ZM90.92 505.264C90.98 505.456 91.304 505.78 91.856 506.248C92.264 506.596 92.792 507.028 93.428 507.508L93.932 506.92C93.404 506.536 92.768 506.032 92.18 505.516C91.376 504.796 91.304 504.508 91.304 503.62V502.12H90.44V503.644C90.44 504.544 90.356 504.856 89.6 505.612C89.06 506.152 88.304 506.776 87.656 507.256L88.184 507.868C88.844 507.34 89.552 506.74 89.972 506.344C90.5 505.84 90.872 505.468 90.908 505.264H90.92ZM89.576 509.416H95.792V512.716H96.632V508.672H89.576V509.416ZM93.32 504.1V504.844H95.792V508.024H96.632V501.664H95.792V504.1H93.32ZM97.7619 506.572V507.292H107.842V506.572H97.7619ZM106.234 503.584C106.234 502.456 104.734 501.772 102.802 501.772C100.87 501.772 99.3699 502.444 99.3699 503.584V503.944C99.3699 505.072 100.87 505.756 102.802 505.756C104.734 505.756 106.234 505.072 106.234 503.944V503.584ZM100.198 503.62C100.198 502.972 101.362 502.48 102.802 502.48C104.242 502.48 105.406 502.972 105.406 503.62V503.908C105.406 504.556 104.242 505.048 102.802 505.048C101.362 505.048 100.198 504.556 100.198 503.908V503.62ZM99.2139 508.252V508.96H105.514V510.112H99.2739V512.68H106.666V511.972H100.102V510.808H106.342V508.252H99.2139ZM110.244 507.508V508.228H120.324V507.508H115.692V506.392H118.836V505.684H112.56V504.58H118.716V503.884H112.56V502.78H118.776V502.072H111.756V506.392H114.852V507.508H110.244ZM115.284 508.948C113.484 508.948 111.876 509.512 111.876 510.76V511.12C111.876 512.356 113.484 512.932 115.284 512.932C117.084 512.932 118.692 512.356 118.692 511.12V510.76C118.692 509.524 117.084 508.948 115.284 508.948ZM115.284 512.212C113.988 512.212 112.692 511.84 112.692 511.072V510.808C112.692 510.052 113.988 509.668 115.284 509.668C116.58 509.668 117.876 510.052 117.876 510.808V511.072C117.876 511.84 116.58 512.212 115.284 512.212ZM126.242 506.212C126.242 505.216 125.282 504.28 123.722 504.28C122.162 504.28 121.202 505.216 121.202 506.212V506.668C121.202 507.664 122.162 508.6 123.722 508.6C125.282 508.6 126.242 507.664 126.242 506.668V506.212ZM123.722 507.88C122.654 507.88 122.006 507.22 122.006 506.632V506.248C122.006 505.66 122.654 505 123.722 505C124.79 505 125.438 505.66 125.438 506.248V506.632C125.438 507.22 124.79 507.88 123.722 507.88ZM129.074 501.664H128.234V509.644H129.074V505.756H130.754V505.012H129.074V501.664ZM123.386 509.464H122.534V512.5H129.41V511.756H123.386V509.464ZM124.142 501.556H123.302V502.96H120.578V503.692H126.89V502.96H124.142V501.556ZM65.2593 524.912H64.4073V528.5H71.3913V527.756H65.2593V524.912ZM71.1153 517.664H70.2753V525.512H71.1153V517.664ZM65.2593 523.688C66.9033 523.688 67.9593 522.464 67.9593 521.276V520.556C67.9593 519.368 66.9033 518.144 65.2593 518.144C63.6153 518.144 62.5593 519.368 62.5593 520.556V521.276C62.5593 522.464 63.6153 523.688 65.2593 523.688ZM65.2593 518.9C66.3753 518.9 67.1433 519.728 67.1433 520.628V521.204C67.1433 522.104 66.3753 522.932 65.2593 522.932C64.1433 522.932 63.3753 522.104 63.3753 521.204V520.628C63.3753 519.728 64.1433 518.9 65.2593 518.9ZM79.2892 517.892H78.4492V528.092H79.2892V522.488H80.8612V528.632H81.7012V517.664H80.8612V521.732H79.2892V517.892ZM72.5812 519.488H74.5972V521.12C74.5972 522.188 74.4772 522.68 73.9012 523.412C73.5412 523.88 72.8212 524.648 72.1132 525.32L72.6772 525.884C73.4332 525.14 73.9852 524.528 74.4292 524.012C74.7892 523.58 74.9932 523.244 75.0292 523.112H75.0412C75.0892 523.244 75.3412 523.628 75.6892 524.024C76.0972 524.48 76.7332 525.212 77.2612 525.74L77.8132 525.2C77.1412 524.528 76.5652 523.892 76.1692 523.4C75.5692 522.632 75.4372 522.236 75.4372 521.12V519.488H77.3692V518.744H72.5812V519.488ZM84.8471 528.608H91.5551V524.432H84.8471V528.608ZM83.2391 524.024C86.1071 522.8 87.2591 522.152 87.6791 521.132H90.7151V523.784H91.5551V517.664H90.7151V520.388H87.8711C87.8951 520.172 87.9071 519.944 87.9071 519.692V518.324H83.2871V519.068H87.0791V519.62C87.0791 521.24 86.7071 521.744 82.9151 523.328L83.2391 524.024ZM85.6631 525.188H90.7391V527.852H85.6631V525.188ZM97.7009 524.624C95.9009 524.624 94.2929 525.272 94.2929 526.568V526.976C94.2929 528.248 95.9009 528.92 97.7009 528.92C99.5009 528.92 101.109 528.248 101.109 526.976V526.568C101.109 525.296 99.5009 524.624 97.7009 524.624ZM97.6889 520.364H97.7009C97.8329 520.616 98.3849 520.928 99.1289 521.228C99.7529 521.492 100.581 521.804 101.565 522.128L101.877 521.468C100.869 521.144 99.9569 520.808 99.3689 520.556C98.3849 520.136 98.1209 519.788 98.1209 519.164V518.852H101.421V518.132H93.9809V518.852H97.2689V519.164C97.2689 519.788 96.9929 520.124 96.0089 520.556C95.4089 520.82 94.5929 521.12 93.5009 521.48L93.8369 522.14C94.8209 521.816 95.5769 521.528 96.2609 521.24C97.0049 520.928 97.5569 520.628 97.6889 520.364ZM97.7009 528.2C96.4049 528.2 95.1089 527.744 95.1089 526.928V526.616C95.1089 525.8 96.4049 525.344 97.7009 525.344C98.9969 525.344 100.293 525.8 100.293 526.616V526.928C100.293 527.744 98.9969 528.2 97.7009 528.2ZM92.6609 522.896V523.628H102.741V522.896H92.6609ZM112.103 517.664H111.251V528.632H112.103V517.664ZM110.411 525.212C108.551 525.416 106.631 525.476 103.139 525.476V526.22C106.811 526.22 108.503 526.148 110.483 525.944L110.411 525.212ZM106.571 523.604C108.131 523.604 109.427 522.584 109.427 521.288V520.712C109.427 519.416 108.131 518.396 106.571 518.396C105.011 518.396 103.715 519.404 103.715 520.712V521.288C103.715 522.584 105.011 523.604 106.571 523.604ZM106.571 519.14C107.627 519.14 108.611 519.86 108.611 520.76V521.24C108.611 522.14 107.627 522.86 106.571 522.86C105.515 522.86 104.531 522.14 104.531 521.24V520.76C104.531 519.86 105.515 519.14 106.571 519.14ZM60.9153 542.352V543.084H70.9953V542.352H68.1153V540.192C68.8113 539.856 69.2673 539.34 69.2673 538.656V538.224C69.2673 536.976 67.7673 536.28 65.9553 536.28C64.1433 536.28 62.6433 536.976 62.6433 538.224V538.656C62.6433 539.34 63.0873 539.856 63.7953 540.192V542.352H60.9153ZM65.9553 536.988C67.3833 536.988 68.4753 537.504 68.4753 538.284V538.596C68.4753 539.376 67.3833 539.892 65.9553 539.892C64.5273 539.892 63.4353 539.376 63.4353 538.596V538.284C63.4353 537.504 64.5273 536.988 65.9553 536.988ZM66.3873 533.556H65.5353V534.9H61.8873V535.62H70.0233V534.9H66.3873V533.556ZM65.9553 540.6C66.4233 540.6 66.8673 540.552 67.2753 540.468V542.352H64.6353V540.468C65.0433 540.552 65.4873 540.6 65.9553 540.6ZM79.8652 533.664H79.0132V544.632H79.8652V538.596H81.6052V537.84H79.8652V533.664ZM78.1732 541.08C76.9852 541.212 75.8692 541.284 74.3212 541.32V537.84H73.4692V541.332C72.7852 541.344 72.0292 541.344 71.1532 541.344V542.088C74.8252 542.088 76.2652 542.016 78.2452 541.812L78.1732 541.08ZM71.7052 534.72V535.476H76.3252V536.22C76.3252 537.24 76.2532 538.572 76.0372 539.544L76.8892 539.652C77.0812 538.872 77.1772 537.204 77.1772 536.052V534.72H71.7052ZM87.1271 540.384C85.3271 540.384 83.8031 541.116 83.8031 542.412V542.88C83.8031 544.14 85.3271 544.92 87.1271 544.92C88.9271 544.92 90.4511 544.14 90.4511 542.88V542.412C90.4511 541.152 88.9271 540.384 87.1271 540.384ZM87.1271 544.2C85.8431 544.2 84.6191 543.708 84.6191 542.856V542.448C84.6191 541.596 85.8431 541.104 87.1271 541.104C88.4111 541.104 89.6351 541.596 89.6351 542.448V542.856C89.6351 543.708 88.4111 544.2 87.1271 544.2ZM84.6791 537.312C84.7391 537.504 85.0631 537.828 85.6151 538.296C86.0231 538.644 86.5511 539.076 87.1871 539.556L87.6911 538.968C87.1631 538.584 86.5271 538.08 85.9391 537.564C85.1351 536.844 85.0631 536.556 85.0631 535.668V534.156H84.1991V535.692C84.1991 536.592 84.1151 536.904 83.3591 537.66C82.8191 538.2 82.0631 538.824 81.4151 539.304L81.9431 539.916C82.6031 539.388 83.3111 538.788 83.7311 538.392C84.2591 537.888 84.6311 537.516 84.6671 537.312H84.6791ZM87.0791 536.136V536.88H89.5511V540.132H90.3911V533.664H89.5511V536.136H87.0791ZM94.1249 535.488H96.1409V537.12C96.1409 538.188 96.0209 538.68 95.4449 539.412C95.0849 539.88 94.3649 540.648 93.6569 541.32L94.2209 541.884C94.9769 541.14 95.5289 540.528 95.9729 540.012C96.3329 539.58 96.5369 539.244 96.5729 539.112H96.5849C96.6329 539.244 96.8849 539.628 97.2329 540.024C97.6409 540.48 98.2769 541.212 98.8049 541.74L99.3569 541.2C98.6849 540.528 98.1089 539.892 97.7129 539.4C97.1129 538.632 96.9809 538.236 96.9809 537.12V535.488H98.9129V534.744H94.1249V535.488ZM98.3249 537.372V538.14H100.269V544.092H101.109V533.892H100.269V537.372H98.3249ZM103.245 533.664H102.405V544.632H103.245V533.664ZM104.003 542.352V543.084H114.083V542.352H108.695V538.14H107.831V542.352H104.003ZM112.151 540.948C112.439 539.4 112.571 538.008 112.571 535.992V534.696H105.275V535.44H111.695V536.436C111.695 538.044 111.539 539.364 111.263 540.84L112.151 540.948Z" fill="#222222"/>
<path d="M72.4591 461.258C71.5911 461.258 70.3591 460.768 69.6031 460.194L68.9031 461.328C69.7431 462 70.9891 462.518 72.4171 462.518C74.4891 462.518 76.0151 461.566 76.0151 459.718V459.466C76.0151 458.066 75.2451 457.184 72.7531 456.624C71.2551 456.288 70.4291 455.952 70.4291 455.028V454.804C70.4291 454.006 71.2551 453.362 72.5151 453.362C73.4391 453.362 74.1811 453.572 74.9231 454.076L75.5811 452.998C74.7271 452.424 73.7331 452.116 72.5011 452.116C70.1771 452.116 69.0431 453.446 69.0431 454.818V455.07C69.0431 456.89 70.4991 457.478 72.4031 457.884C74.0411 458.234 74.6151 458.682 74.6151 459.564V459.788C74.6151 460.586 73.8871 461.258 72.4591 461.258ZM80.5681 462.364V453.46H83.6481V452.27H76.1021V453.46H79.1821V462.364H80.5681ZM84.1841 452.27V462.364H90.5681V461.174H85.5701V457.786H90.1761V456.596H85.5701V453.46H90.4701V452.27H84.1841ZM91.7113 462.364H93.0973V458.43H95.3233C97.5213 458.43 98.6693 457.086 98.6693 455.448V455.154C98.6693 453.502 97.6053 452.27 95.3233 452.27H91.7113V462.364ZM95.2393 453.474C96.5413 453.474 97.2693 454.02 97.2693 455.168V455.42C97.2693 456.638 96.5413 457.226 95.0853 457.226H93.0973V453.474H95.2393ZM100.408 454.356C100.954 453.642 101.542 453.348 102.368 453.348C103.278 453.348 104.034 453.796 104.034 454.678V454.79C104.034 455.658 103.6 456.498 102.34 456.498H101.15V457.702H102.396C103.572 457.702 104.482 458.094 104.482 459.424V459.606C104.482 460.516 103.81 461.258 102.34 461.258C101.472 461.258 100.772 461.006 99.7919 460.292L99.1059 461.398C100.058 462.154 101.164 462.518 102.34 462.518C104.818 462.518 105.868 461.076 105.868 459.592V459.382C105.868 458.22 105.182 457.296 103.824 457.058C105.07 456.61 105.406 455.574 105.406 454.776V454.636C105.406 453.124 104.216 452.116 102.354 452.116C100.842 452.116 100.002 452.788 99.4139 453.628L100.408 454.356Z" fill="#5082E6"/>
<g filter="url(#filter2_d_4_2630)">
<path d="M87.1741 779.808C45.2967 779.808 11.3484 745.825 11.3484 703.904C11.3484 661.983 45.2967 628 87.1741 628C129.051 628 163 661.983 163 703.904C163 745.825 129.051 779.808 87.1741 779.808Z" fill="white"/>
</g>
<path d="M67.08 682.384H60.424V689.472H67.08V682.384ZM71.832 692.016V681.488H70.28V683.696H67.944V685.056H70.28V686.864H67.944V688.224H70.28V692.016H71.832ZM64.2 691.184H62.616V696.08H72.136V694.704H64.2V691.184ZM61.976 683.728H65.528V688.128H61.976V683.728ZM83.8665 689.808V691.648H77.8025V689.808H76.2345V696.24H85.4345V689.808H83.8665ZM77.8825 686.56C77.9945 686.784 78.3625 687.12 78.7945 687.456C79.4825 687.984 80.3145 688.592 81.1465 689.12L82.0105 687.968C81.0825 687.376 80.1385 686.752 79.3865 686.112C78.5865 685.44 78.6185 684.96 78.6185 683.936V683.696H81.5305V682.352H73.9145V683.696H77.0185V684C77.0185 685.168 76.9065 685.728 76.0425 686.496C75.4505 687.024 74.4425 687.728 73.4185 688.384L74.2985 689.536C75.1625 688.976 76.1385 688.272 76.7945 687.76C77.3065 687.36 77.7705 686.816 77.8665 686.56H77.8825ZM85.4345 689.088V681.488H83.8665V684.8H81.1465V686.16H83.8665V689.088H85.4345ZM77.8025 694.896V692.976H83.8665V694.896H77.8025ZM91.485 687.296C91.597 687.536 91.917 687.84 92.397 688.24C93.165 688.88 93.853 689.408 94.685 689.984L95.581 688.832C94.653 688.208 93.821 687.6 93.053 686.928C92.365 686.336 92.221 685.728 92.221 684.704V683.792H95.133V682.432H87.517V683.792H90.621V684.768C90.621 685.936 90.365 686.576 89.581 687.312C89.021 687.84 88.045 688.592 87.021 689.312L87.949 690.448C88.845 689.824 89.725 689.152 90.397 688.544C90.893 688.096 91.373 687.568 91.469 687.296H91.485ZM99.037 692V681.488H97.469V685.248H94.749V686.608H97.469V692H99.037ZM91.405 691.152H89.821V696.08H99.341V694.704H91.405V691.152ZM108.175 691.088C105.263 691.088 103.647 692.192 103.647 693.616V694.128C103.647 695.552 105.263 696.656 108.175 696.656C111.087 696.656 112.703 695.552 112.703 694.128V693.616C112.703 692.192 111.087 691.088 108.175 691.088ZM104.671 690.432C106.959 690.432 108.095 689.152 108.095 687.936V687.456C108.095 686.24 106.959 684.96 104.671 684.96C102.383 684.96 101.247 686.224 101.247 687.456V687.936C101.247 689.152 102.383 690.432 104.671 690.432ZM112.639 690.8V681.488H111.087V685.04H108.927V686.4H111.087V687.824H108.927V689.184H111.087V690.8H112.639ZM108.175 695.376C106.271 695.376 105.199 694.736 105.199 694.032V693.712C105.199 693.008 106.271 692.368 108.175 692.368C110.079 692.368 111.151 693.008 111.151 693.712V694.032C111.151 694.736 110.079 695.376 108.175 695.376ZM108.975 683.072H105.439V681.328H103.871V683.072H100.447V684.416H108.975V683.072ZM104.671 689.168C103.375 689.168 102.751 688.48 102.751 687.856V687.536C102.751 686.912 103.359 686.224 104.671 686.224C105.983 686.224 106.591 686.912 106.591 687.536V687.856C106.591 688.48 105.967 689.168 104.671 689.168Z" fill="#222222"/>
<path d="M44.4396 708.348H39.5556V713.52H44.4396V708.348ZM43.6356 712.776H40.3596V709.092H43.6356V712.776ZM45.1596 709.416V710.148H47.1636V711.792H45.1596V712.524H47.1636V715.512H47.9916V707.664H47.1636V709.416H45.1596ZM42.1236 714.912H41.2716V718.5H48.2676V717.756H42.1236V714.912ZM57.3654 713.916V715.428H52.3254V713.916H51.4974V718.62H58.1934V713.916H57.3654ZM52.6134 711.312C52.6734 711.468 53.0694 711.804 53.6454 712.224C54.1134 712.56 54.6894 712.968 55.1454 713.256L55.6134 712.656C55.0134 712.296 54.4014 711.876 53.8974 711.492C53.0694 710.868 52.9974 710.7 52.9974 709.752V709.056H55.3494V708.324H49.6734V709.056H52.1454V709.86C52.1454 710.676 52.0014 710.976 51.3054 711.564C50.7414 712.032 50.0574 712.524 49.3614 712.968L49.8414 713.592C50.5014 713.16 51.2934 712.56 51.7254 712.212C52.2654 711.768 52.5654 711.468 52.6014 711.312H52.6134ZM52.3254 717.864V716.172H57.3654V717.864H52.3254ZM55.0614 710.244V710.988H57.3534V713.268H58.1934V707.664H57.3534V710.244H55.0614ZM62.9593 712.56C64.5073 712.56 65.7553 711.708 65.7553 710.484V709.98C65.7553 708.756 64.5073 707.904 62.9593 707.904C61.4113 707.904 60.1633 708.756 60.1633 709.98V710.484C60.1633 711.708 61.4113 712.56 62.9593 712.56ZM62.9593 708.66C64.0273 708.66 64.9393 709.224 64.9393 710.04V710.424C64.9393 711.24 64.0273 711.804 62.9593 711.804C61.8913 711.804 60.9793 711.24 60.9793 710.424V710.04C60.9793 709.224 61.8913 708.66 62.9593 708.66ZM68.4553 707.664H67.6033V718.632H68.4553V707.664ZM66.7633 713.448C65.1553 713.628 62.9713 713.712 59.5033 713.712V714.456C60.7033 714.456 61.6873 714.444 62.5513 714.432V718.284H63.4153V714.396C64.7353 714.348 65.7433 714.288 66.8353 714.18L66.7633 713.448ZM73.0892 711.912C74.5532 711.912 75.7292 711.144 75.7292 710.124V709.668C75.7292 708.648 74.5532 707.88 73.0892 707.88C71.6252 707.88 70.4492 708.648 70.4492 709.668V710.124C70.4492 711.144 71.6252 711.912 73.0892 711.912ZM75.2492 714.276V715.02H77.7212V716.184H78.5612V707.664H77.7212V714.276H75.2492ZM73.0892 708.6C74.0972 708.6 74.9252 709.116 74.9252 709.74V710.052C74.9252 710.676 74.0972 711.192 73.0892 711.192C72.0812 711.192 71.2532 710.676 71.2532 710.052V709.74C71.2532 709.116 72.0812 708.6 73.0892 708.6ZM72.4052 715.596H71.5532V718.5H78.8132V717.756H72.4052V715.596ZM76.8092 712.428C74.7452 712.644 73.1372 712.692 69.6812 712.692V713.424C70.7852 713.424 71.7092 713.424 72.5132 713.4V715.128H73.3652V713.388C74.7812 713.34 75.8012 713.268 76.8812 713.16L76.8092 712.428ZM82.3431 715.872C83.9271 715.872 84.6831 714.732 84.6831 712.68V712.56H86.1591V718.092H86.9991V707.892H86.1591V711.804H84.6831V711.744C84.6831 709.692 83.9271 708.552 82.3431 708.552C80.7591 708.552 80.0031 709.692 80.0031 711.744V712.68C80.0031 714.732 80.7591 715.872 82.3431 715.872ZM82.3431 709.332C83.4111 709.332 83.8671 710.196 83.8671 711.84V712.584C83.8671 714.228 83.4111 715.092 82.3431 715.092C81.2751 715.092 80.8191 714.228 80.8191 712.584V711.84C80.8191 710.196 81.2751 709.332 82.3431 709.332ZM89.1111 707.664H88.2711V718.632H89.1111V707.664ZM90.5409 716.22C92.8929 714.624 93.8409 713.76 94.2009 712.584H96.2409V718.092H97.0809V707.892H96.2409V711.828H94.3449C94.3809 711.516 94.4049 711.156 94.4049 710.76V708.756H90.2769V709.512H93.5769V710.712C93.5769 712.824 93.3009 713.376 90.0729 715.56L90.5409 716.22ZM99.2889 707.664H98.4489V718.632H99.2889V707.664ZM105.639 714.288C107.175 714.288 108.147 713.436 108.147 712.452V712.02C108.147 711.036 107.175 710.184 105.639 710.184C104.103 710.184 103.131 711.036 103.131 712.02V712.452C103.131 713.436 104.103 714.288 105.639 714.288ZM105.639 710.892C106.647 710.892 107.343 711.42 107.343 712.056V712.416C107.343 713.052 106.647 713.58 105.639 713.58C104.631 713.58 103.935 713.052 103.935 712.416V712.056C103.935 711.42 104.631 710.892 105.639 710.892ZM104.115 715.872H110.151V718.728H110.991V715.128H104.115V715.872ZM110.991 707.664H110.151V714.48H110.991V711.408H112.671V710.664H110.991V707.664ZM106.059 707.508H105.219V708.9H102.495V709.632H108.807V708.9H106.059V707.508ZM114.101 711.336H117.737V708.192H113.273V708.936H116.909V710.616H113.273V713.772C116.309 713.772 117.749 713.736 119.225 713.568L119.141 712.836C117.677 713.004 116.165 713.028 114.101 713.028V711.336ZM118.577 709.2V709.932H120.869V711.132H118.577V711.864H120.869V714.36H121.697V707.664H120.869V709.2H118.577ZM114.641 715.752H120.869V718.728H121.697V715.008H114.641V715.752ZM133.567 708.132H126.571V711.696H133.627V710.964H127.399V708.864H133.567V708.132ZM125.047 712.896V713.628H135.127V712.896H125.047ZM130.087 714.672C128.287 714.672 126.679 715.308 126.679 716.592V717C126.679 718.26 128.287 718.92 130.087 718.92C131.887 718.92 133.495 718.26 133.495 717V716.592C133.495 715.332 131.887 714.672 130.087 714.672ZM130.087 718.2C128.791 718.2 127.495 717.756 127.495 716.952V716.64C127.495 715.836 128.791 715.392 130.087 715.392C131.383 715.392 132.679 715.836 132.679 716.64V716.952C132.679 717.756 131.383 718.2 130.087 718.2ZM44.7276 730.384C42.9276 730.384 41.4036 731.116 41.4036 732.412V732.88C41.4036 734.14 42.9276 734.92 44.7276 734.92C46.5276 734.92 48.0516 734.14 48.0516 732.88V732.412C48.0516 731.152 46.5276 730.384 44.7276 730.384ZM44.7276 734.2C43.4436 734.2 42.2196 733.708 42.2196 732.856V732.448C42.2196 731.596 43.4436 731.104 44.7276 731.104C46.0116 731.104 47.2356 731.596 47.2356 732.448V732.856C47.2356 733.708 46.0116 734.2 44.7276 734.2ZM42.4116 727.552C42.4596 727.708 42.9276 728.116 43.4916 728.572C43.8516 728.86 44.4276 729.292 44.9076 729.628L45.3996 729.028C44.7156 728.572 44.0436 728.068 43.6596 727.744C42.8796 727.072 42.7956 726.748 42.7956 726.04V725.092H45.1476V724.36H39.4716V725.092H41.9436V726.076C41.9436 726.724 41.8116 727.144 41.2236 727.72C40.6356 728.296 39.8676 728.884 39.1596 729.388L39.6756 729.988C40.2276 729.592 41.0436 728.944 41.4636 728.572C41.9676 728.128 42.3516 727.732 42.3996 727.552H42.4116ZM47.9916 723.664H47.1516V726.472H44.8596V727.216H47.1516V730.132H47.9916V723.664ZM56.8374 724.504V726.472H51.3894V724.504H50.5614V729.976H53.6934V732.352H49.0734V733.084H59.1534V732.352H54.5334V729.976H57.6654V724.504H56.8374ZM51.3894 729.268V727.204H56.8374V729.268H51.3894ZM60.7153 730.564V731.272H67.0273V732.28H60.7753V734.692H68.1793V733.984H61.6033V732.976H67.8553V730.564H60.7153ZM59.2753 728.896V729.616H69.3553V728.896H59.2753ZM60.7513 724.66H66.9913V725.62H60.7873V727.984H68.0353V727.276H61.5913V726.316H67.7953V723.952H60.7513V724.66ZM72.0812 725.488H74.0972V727.12C74.0972 728.188 73.9772 728.68 73.4012 729.412C73.0412 729.88 72.3212 730.648 71.6132 731.32L72.1772 731.884C72.9332 731.14 73.4852 730.528 73.9292 730.012C74.2892 729.58 74.4932 729.244 74.5292 729.112H74.5412C74.5892 729.244 74.8412 729.628 75.1892 730.024C75.5972 730.48 76.2332 731.212 76.7612 731.74L77.3132 731.2C76.6412 730.528 76.0652 729.892 75.6692 729.4C75.0692 728.632 74.9372 728.236 74.9372 727.12V725.488H76.8692V724.744H72.0812V725.488ZM76.2812 727.372V728.14H78.2252V734.092H79.0652V723.892H78.2252V727.372H76.2812ZM81.2012 723.664H80.3612V734.632H81.2012V723.664ZM86.9991 730.576C85.1991 730.576 83.5911 731.248 83.5911 732.532V732.964C83.5911 734.224 85.1991 734.92 86.9991 734.92C88.7991 734.92 90.4071 734.224 90.4071 732.964V732.532C90.4071 731.272 88.7991 730.576 86.9991 730.576ZM86.9991 734.2C85.7031 734.2 84.4071 733.72 84.4071 732.916V732.58C84.4071 731.776 85.7031 731.296 86.9991 731.296C88.2951 731.296 89.5911 731.776 89.5911 732.58V732.916C89.5911 733.72 88.2951 734.2 86.9991 734.2ZM81.9591 728.812V729.532H92.0391V728.812H86.8311V726.496H85.9671V728.812H81.9591ZM83.2911 724.144V724.888H89.6631V725.272C89.6631 726.076 89.5551 727.048 89.3631 727.924L90.2031 728.02C90.3711 727.252 90.5031 726.112 90.5031 725.26V724.144H83.2911ZM95.4009 732.112C97.0569 732.112 97.9929 730.96 97.9929 729.844V729.196C97.9929 728.08 97.0569 726.916 95.4009 726.916C93.7449 726.916 92.8089 728.08 92.8089 729.196V729.844C92.8089 730.96 93.7449 732.112 95.4009 732.112ZM95.4009 727.672C96.4809 727.672 97.1889 728.368 97.1889 729.268V729.772C97.1889 730.672 96.4809 731.368 95.4009 731.368C94.3209 731.368 93.6129 730.672 93.6129 729.772V729.268C93.6129 728.368 94.3209 727.672 95.4009 727.672ZM100.705 723.664H99.8529V734.632H100.705V728.908H102.529V728.152H100.705V723.664ZM92.2089 725.392V726.136H98.5689V725.392H95.8329V723.724H94.9809V725.392H92.2089ZM108.915 724.672H103.059V725.416H105.579V727.228C105.579 728.14 105.471 728.596 104.715 729.448C104.163 730.072 103.479 730.732 102.723 731.404L103.287 731.968C104.007 731.344 104.811 730.492 105.135 730.156C105.483 729.784 105.951 729.244 106.011 729.028H106.023C106.083 729.184 106.419 729.556 106.767 729.928C107.247 730.444 107.823 731.032 108.651 731.8L109.203 731.236C108.315 730.444 107.607 729.736 107.139 729.196C106.503 728.464 106.431 728.08 106.431 727.168V725.416H108.915V724.672ZM111.543 723.664H110.691V734.632H111.543V723.664ZM117.845 729.064C119.489 729.064 120.509 727.9 120.509 726.844V726.244C120.509 725.188 119.489 724.024 117.845 724.024C116.201 724.024 115.181 725.176 115.181 726.244V726.844C115.181 727.9 116.201 729.064 117.845 729.064ZM117.845 724.78C118.949 724.78 119.693 725.536 119.693 726.328V726.76C119.693 727.552 118.949 728.308 117.845 728.308C116.741 728.308 115.997 727.552 115.997 726.76V726.328C115.997 725.536 116.741 724.78 117.845 724.78ZM119.801 733.456C119.801 734.248 120.641 734.872 121.853 734.872C123.065 734.872 123.905 734.248 123.905 733.456V733.144C123.905 732.352 123.065 731.728 121.853 731.728C120.641 731.728 119.801 732.352 119.801 733.144V733.456ZM123.461 723.664H122.621V728.872H123.461V726.844H125.141V726.1H123.461V723.664ZM117.101 730.204H116.261V734.524H117.449C118.169 734.524 118.925 734.476 119.441 734.392L119.357 733.672C118.853 733.756 118.133 733.792 117.605 733.792H117.101V730.204ZM122.273 729.424H121.433V730.564H119.357V731.236H124.325V730.564H122.273V729.424ZM123.149 733.408C123.149 733.864 122.609 734.212 121.853 734.212C121.097 734.212 120.557 733.864 120.557 733.408V733.192C120.557 732.736 121.097 732.388 121.853 732.388C122.609 732.388 123.149 732.736 123.149 733.192V733.408ZM125.047 732.352V733.084H135.127V732.352H129.739V728.14H128.875V732.352H125.047ZM133.195 730.948C133.483 729.4 133.615 728.008 133.615 725.992V724.696H126.319V725.44H132.739V726.436C132.739 728.044 132.583 729.364 132.307 730.84L133.195 730.948ZM45.9045 745.412C47.5965 745.412 48.5805 744.176 48.5805 743.084V742.412C48.5805 741.32 47.5965 740.084 45.9045 740.084C44.2125 740.084 43.2285 741.332 43.2285 742.412V743.084C43.2285 744.176 44.2125 745.412 45.9045 745.412ZM45.9045 740.84C46.9845 740.84 47.7645 741.56 47.7645 742.484V743.012C47.7645 743.936 46.9845 744.656 45.9045 744.656C44.8245 744.656 44.0445 743.936 44.0445 743.012V742.484C44.0445 741.584 44.8245 740.84 45.9045 740.84ZM49.1565 741.164V741.896H51.1245V743.66H49.1565V744.392H51.1245V746H51.9525V739.664H51.1245V741.164H49.1565ZM44.9085 747.392H51.1245V750.716H51.9525V746.648H44.9085V747.392ZM55.0144 748.976C55.0144 750.152 56.2864 750.932 58.2904 750.932C60.2944 750.932 61.5664 750.152 61.5664 748.976V748.544C61.5664 747.38 60.2944 746.588 58.2904 746.588C56.2864 746.588 55.0144 747.368 55.0144 748.544V748.976ZM54.2824 743.312H58.1944V740.216H53.4544V740.96H57.3664V742.592H53.4544V745.7C56.7424 745.7 58.2064 745.652 59.5984 745.472L59.5264 744.752C58.0144 744.932 57.0304 744.956 54.2824 744.956V743.312ZM58.2904 750.212C56.7784 750.212 55.8304 749.636 55.8304 748.94V748.58C55.8304 747.884 56.7784 747.308 58.2904 747.308C59.8024 747.308 60.7504 747.884 60.7504 748.58V748.94C60.7504 749.636 59.8024 750.212 58.2904 750.212ZM61.5064 739.664H60.6784V746.3H61.5064V744.392H63.1744V743.648H61.5064V742.16H63.1744V741.416H61.5064V739.664ZM69.2002 744.56C70.7482 744.56 71.9962 743.708 71.9962 742.484V741.98C71.9962 740.756 70.7482 739.904 69.2002 739.904C67.6522 739.904 66.4042 740.756 66.4042 741.98V742.484C66.4042 743.708 67.6522 744.56 69.2002 744.56ZM69.2002 740.66C70.2682 740.66 71.1802 741.224 71.1802 742.04V742.424C71.1802 743.24 70.2682 743.804 69.2002 743.804C68.1322 743.804 67.2202 743.24 67.2202 742.424V742.04C67.2202 741.224 68.1322 740.66 69.2002 740.66ZM74.6962 739.664H73.8442V750.632H74.6962V739.664ZM73.0042 745.448C71.3962 745.628 69.2122 745.712 65.7442 745.712V746.456C66.9442 746.456 67.9282 746.444 68.7922 746.432V750.284H69.6562V746.396C70.9762 746.348 71.9842 746.288 73.0762 746.18L73.0042 745.448ZM82.1741 743.768C82.8701 744.116 83.7461 744.524 84.6461 744.872L85.0061 744.212C84.1181 743.876 83.2061 743.468 82.4381 743.072C81.2741 742.472 81.1901 741.98 81.1901 741.176V741.068H84.5021V740.348H77.0141V741.068H80.3381V741.176C80.3381 741.98 80.2301 742.472 79.0781 743.072C78.3101 743.468 77.3741 743.888 76.4861 744.224L76.8581 744.896C77.8541 744.512 78.7061 744.104 79.3541 743.78C80.1461 743.384 80.6261 743.048 80.7581 742.76H80.7701C80.9141 743.048 81.3821 743.372 82.1741 743.768ZM75.7181 745.976V746.708H80.3381V750.632H81.1901V746.708H85.7981V745.976H75.7181ZM93.768 740.348H88.884V745.52H93.768V740.348ZM92.964 744.776H89.688V741.092H92.964V744.776ZM94.488 741.416V742.148H96.492V743.792H94.488V744.524H96.492V747.512H97.32V739.664H96.492V741.416H94.488ZM91.452 746.912H90.6V750.5H97.596V749.756H91.452V746.912ZM106.694 745.916V747.428H101.654V745.916H100.826V750.62H107.522V745.916H106.694ZM101.942 743.312C102.002 743.468 102.398 743.804 102.974 744.224C103.442 744.56 104.018 744.968 104.474 745.256L104.942 744.656C104.342 744.296 103.73 743.876 103.226 743.492C102.398 742.868 102.326 742.7 102.326 741.752V741.056H104.678V740.324H99.0019V741.056H101.474V741.86C101.474 742.676 101.33 742.976 100.634 743.564C100.07 744.032 99.3859 744.524 98.6899 744.968L99.1699 745.592C99.8299 745.16 100.622 744.56 101.054 744.212C101.594 743.768 101.894 743.468 101.93 743.312H101.942ZM101.654 749.864V748.172H106.694V749.864H101.654ZM104.39 742.244V742.988H106.682V745.268H107.522V739.664H106.682V742.244H104.39ZM115.924 744.308C117.844 744.308 119.368 743.54 119.368 742.34V741.884C119.368 740.684 117.844 739.916 115.924 739.916C114.004 739.916 112.48 740.684 112.48 741.884V742.34C112.48 743.54 114.004 744.308 115.924 744.308ZM115.924 740.636C117.304 740.636 118.552 741.176 118.552 741.944V742.28C118.552 743.048 117.304 743.588 115.924 743.588C114.544 743.588 113.296 743.048 113.296 742.28V741.944C113.296 741.176 114.544 740.636 115.924 740.636ZM110.884 745.316V746.036H115.636V748.304H116.476V746.036H120.964V745.316H110.884ZM113.236 747.26H112.384V750.5H119.704V749.756H113.236V747.26ZM126.942 746.36C125.142 746.36 123.618 747.104 123.618 748.4V748.868C123.618 750.128 125.142 750.92 126.942 750.92C128.742 750.92 130.266 750.128 130.266 748.868V748.4C130.266 747.14 128.742 746.36 126.942 746.36ZM124.158 745.436C125.85 745.436 126.834 744.212 126.834 743.12V742.424C126.834 741.332 125.85 740.108 124.158 740.108C122.466 740.108 121.482 741.332 121.482 742.424V743.12C121.482 744.212 122.466 745.436 124.158 745.436ZM126.942 750.2C125.658 750.2 124.434 749.696 124.434 748.844V748.436C124.434 747.584 125.658 747.08 126.942 747.08C128.226 747.08 129.45 747.584 129.45 748.436V748.844C129.45 749.696 128.226 750.2 126.942 750.2ZM124.158 740.864C125.238 740.864 126.018 741.572 126.018 742.496V743.048C126.018 743.972 125.238 744.68 124.158 744.68C123.078 744.68 122.298 743.972 122.298 743.048V742.496C122.298 741.572 123.078 740.864 124.158 740.864ZM127.41 741.164V741.896H129.378V743.66H127.41V744.392H129.378V746.12H130.206V739.664H129.378V741.164H127.41Z" fill="#222222"/>
<path d="M71.4591 667.258C70.5911 667.258 69.3591 666.768 68.6031 666.194L67.9031 667.328C68.7431 668 69.9891 668.518 71.4171 668.518C73.4891 668.518 75.0151 667.566 75.0151 665.718V665.466C75.0151 664.066 74.2451 663.184 71.7531 662.624C70.2551 662.288 69.4291 661.952 69.4291 661.028V660.804C69.4291 660.006 70.2551 659.362 71.5151 659.362C72.4391 659.362 73.1811 659.572 73.9231 660.076L74.5811 658.998C73.7271 658.424 72.7331 658.116 71.5011 658.116C69.1771 658.116 68.0431 659.446 68.0431 660.818V661.07C68.0431 662.89 69.4991 663.478 71.4031 663.884C73.0411 664.234 73.6151 664.682 73.6151 665.564V665.788C73.6151 666.586 72.8871 667.258 71.4591 667.258ZM79.5681 668.364V659.46H82.6481V658.27H75.1021V659.46H78.1821V668.364H79.5681ZM83.1841 658.27V668.364H89.5681V667.174H84.5701V663.786H89.1761V662.596H84.5701V659.46H89.4701V658.27H83.1841ZM90.7113 668.364H92.0973V664.43H94.3233C96.5213 664.43 97.6693 663.086 97.6693 661.448V661.154C97.6693 659.502 96.6053 658.27 94.3233 658.27H90.7113V668.364ZM94.2393 659.474C95.5413 659.474 96.2693 660.02 96.2693 661.168V661.42C96.2693 662.638 95.5413 663.226 94.0853 663.226H92.0973V659.474H94.2393ZM102.782 661.924V665.018H99.3659L104.014 658.27H102.488L97.7419 665.158V666.194H102.782V668.364H104.154V666.194H105.582V665.018H104.154V661.924H102.782Z" fill="#5082E6"/>
<g filter="url(#filter3_d_4_2630)">
<ellipse cx="87.1741" cy="86.904" rx="75.904" ry="75.8257" transform="rotate(90 87.1741 86.904)" fill="white"/>
</g>
<path d="M58.44 79.976C58.568 80.296 58.968 80.744 59.416 81.224C60.024 81.88 60.696 82.552 61.784 83.544L62.824 82.472C61.88 81.64 61.208 81.016 60.52 80.264C59.384 79.032 59.208 78.552 59.208 77.288V75.192H62.296V73.816H54.44V75.192H57.608V77.288C57.608 78.472 57.432 79.08 56.376 80.248C55.656 81.048 54.872 81.832 53.912 82.696L54.952 83.768C56.024 82.776 56.824 81.96 57.48 81.24C57.992 80.68 58.28 80.328 58.424 79.976H58.44ZM65.88 87.24V72.488H64.296V87.24H65.88ZM71.9785 78.296C74.2345 78.296 75.6105 77.096 75.6105 75.784V75.272C75.6105 73.96 74.2345 72.76 71.9785 72.76C69.7225 72.76 68.3465 73.96 68.3465 75.272V75.784C68.3465 77.096 69.7225 78.296 71.9785 78.296ZM79.4345 83.912V72.488H77.8665V81.272H74.7465V82.6H77.8665V83.912H79.4345ZM71.3545 83.144H69.7705V87.096H79.7385V85.736H71.3545V83.144ZM72.6025 82.552V80.392C74.1545 80.328 75.5465 80.232 76.9065 80.088L76.7945 78.76C73.2905 79.048 70.9225 79.128 67.3865 79.112V80.488C68.6985 80.488 69.9145 80.472 71.0345 80.44V82.552H72.6025ZM71.9785 76.968C70.6185 76.968 69.8505 76.312 69.8505 75.688V75.368C69.8505 74.744 70.6185 74.104 71.9785 74.104C73.3385 74.104 74.1065 74.744 74.1065 75.368V75.688C74.1065 76.312 73.3385 76.968 71.9785 76.968ZM93.053 87.24V72.488H91.469V77.048H88.333V78.44H91.469V87.24H93.053ZM85.181 79.832C85.309 80.152 85.693 80.6 86.141 81.08C86.749 81.736 87.469 82.456 88.573 83.48L89.597 82.392C88.637 81.544 87.933 80.872 87.245 80.12C86.269 79.032 85.965 78.376 85.965 77.112V73.56H84.365V77.112C84.365 78.248 84.109 78.968 83.133 80.072C82.413 80.872 81.581 81.688 80.605 82.552L81.645 83.624C82.733 82.632 83.581 81.784 84.237 81.064C84.749 80.504 85.021 80.184 85.165 79.832H85.181ZM105.071 80.808V82.648H99.0075V80.808H97.4395V87.24H106.639V80.808H105.071ZM99.0875 77.56C99.1995 77.784 99.5675 78.12 99.9995 78.456C100.687 78.984 101.519 79.592 102.351 80.12L103.215 78.968C102.287 78.376 101.343 77.752 100.591 77.112C99.7915 76.44 99.8235 75.96 99.8235 74.936V74.696H102.735V73.352H95.1195V74.696H98.2235V75C98.2235 76.168 98.1115 76.728 97.2475 77.496C96.6555 78.024 95.6475 78.728 94.6235 79.384L95.5035 80.536C96.3675 79.976 97.3435 79.272 97.9995 78.76C98.5115 78.36 98.9755 77.816 99.0715 77.56H99.0875ZM106.639 80.088V72.488H105.071V75.8H102.351V77.16H105.071V80.088H106.639ZM99.0075 85.896V83.976H105.071V85.896H99.0075ZM115.49 87.24V82.168H121.458V80.824H107.922V82.168H113.89V87.24H115.49ZM116.466 78.024C117.33 78.456 118.562 79.016 119.874 79.528L120.482 78.248C119.298 77.8 117.986 77.24 116.962 76.68C115.874 76.088 115.474 75.512 115.474 74.312V73H113.89V74.312C113.89 75.512 113.474 76.088 112.386 76.68C111.362 77.24 110.05 77.8 108.866 78.248L109.49 79.544C110.802 79.032 112.034 78.472 112.898 78.04C113.954 77.512 114.482 77.096 114.674 76.744H114.69C114.898 77.096 115.41 77.496 116.466 78.024Z" fill="#222222"/>
<path d="M73.2083 99.672H67.3523V100.416H69.8723V102.228C69.8723 103.14 69.7643 103.596 69.0083 104.448C68.4563 105.072 67.7723 105.732 67.0163 106.404L67.5803 106.968C68.3003 106.344 69.1043 105.492 69.4283 105.156C69.7763 104.784 70.2443 104.244 70.3043 104.028H70.3163C70.3763 104.184 70.7123 104.556 71.0603 104.928C71.5403 105.444 72.1163 106.032 72.9443 106.8L73.4963 106.236C72.6083 105.444 71.9003 104.736 71.4323 104.196C70.7963 103.464 70.7243 103.08 70.7243 102.168V100.416H73.2083V99.672ZM75.8363 98.664H74.9843V109.632H75.8363V98.664ZM80.4702 102.912C81.9342 102.912 83.1102 102.144 83.1102 101.124V100.668C83.1102 99.648 81.9342 98.88 80.4702 98.88C79.0062 98.88 77.8302 99.648 77.8302 100.668V101.124C77.8302 102.144 79.0062 102.912 80.4702 102.912ZM82.6302 105.276V106.02H85.1022V107.184H85.9422V98.664H85.1022V105.276H82.6302ZM80.4702 99.6C81.4782 99.6 82.3062 100.116 82.3062 100.74V101.052C82.3062 101.676 81.4782 102.192 80.4702 102.192C79.4622 102.192 78.6342 101.676 78.6342 101.052V100.74C78.6342 100.116 79.4622 99.6 80.4702 99.6ZM79.7862 106.596H78.9342V109.5H86.1942V108.756H79.7862V106.596ZM84.1902 103.428C82.1262 103.644 80.5182 103.692 77.0622 103.692V104.424C78.1662 104.424 79.0902 104.424 79.8942 104.4V106.128H80.7462V104.388C82.1622 104.34 83.1822 104.268 84.2622 104.16L84.1902 103.428ZM93.24 99.684H87.384V100.428H89.904V102.204C89.904 103.116 89.796 103.572 89.04 104.424C88.488 105.048 87.804 105.708 87.048 106.38L87.612 106.944C88.332 106.32 89.136 105.468 89.46 105.132C89.808 104.76 90.276 104.22 90.336 104.004H90.348C90.408 104.16 90.744 104.532 91.092 104.904C91.572 105.42 92.148 106.008 92.976 106.776L93.528 106.212C92.64 105.42 91.932 104.712 91.464 104.172C90.828 103.44 90.756 103.056 90.756 102.144V100.428H93.24V99.684ZM95.568 98.664H94.716V109.632H95.568V103.608H97.392V102.852H95.568V98.664ZM98.0419 105.06C102.05 103.356 102.674 102.78 102.674 100.752V99.324H98.0779V100.068H101.846V100.68C101.846 102.276 101.57 102.756 97.7059 104.376L98.0419 105.06ZM103.346 100.38V101.112H105.53V102.66H103.166V103.392H105.53V105.06H106.358V98.664H105.53V100.38H103.346ZM99.3019 106.452H105.53V109.716H106.358V105.708H99.3019V106.452ZM65.8403 116.488H67.8563V118.12C67.8563 119.188 67.7363 119.68 67.1603 120.412C66.8003 120.88 66.0803 121.648 65.3723 122.32L65.9363 122.884C66.6923 122.14 67.2443 121.528 67.6883 121.012C68.0483 120.58 68.2523 120.244 68.2883 120.112H68.3003C68.3483 120.244 68.6003 120.628 68.9483 121.024C69.3563 121.48 69.9923 122.212 70.5203 122.74L71.0723 122.2C70.4003 121.528 69.8243 120.892 69.4283 120.4C68.8283 119.632 68.6963 119.236 68.6963 118.12V116.488H70.6283V115.744H65.8403V116.488ZM70.0403 118.372V119.14H71.9843V125.092H72.8243V114.892H71.9843V118.372H70.0403ZM74.9603 114.664H74.1203V125.632H74.9603V114.664ZM81.5142 119.212C81.5142 118.216 80.5542 117.28 78.9942 117.28C77.4342 117.28 76.4742 118.216 76.4742 119.212V119.668C76.4742 120.664 77.4342 121.6 78.9942 121.6C80.5542 121.6 81.5142 120.664 81.5142 119.668V119.212ZM78.9942 120.88C77.9262 120.88 77.2782 120.22 77.2782 119.632V119.248C77.2782 118.66 77.9262 118 78.9942 118C80.0622 118 80.7102 118.66 80.7102 119.248V119.632C80.7102 120.22 80.0622 120.88 78.9942 120.88ZM84.3462 114.664H83.5062V122.644H84.3462V118.756H86.0262V118.012H84.3462V114.664ZM78.6582 122.464H77.8062V125.5H84.6822V124.756H78.6582V122.464ZM79.4142 114.556H78.5742V115.96H75.8502V116.692H82.1622V115.96H79.4142V114.556ZM91.248 120.088C92.868 120.088 93.888 118.948 93.924 117.904H96.42V120.4H97.26V114.664H96.42V117.16H93.924C93.864 116.128 92.844 115.024 91.248 115.024C89.604 115.024 88.572 116.188 88.572 117.256V117.856C88.572 118.912 89.604 120.088 91.248 120.088ZM92.7 121.12V122.632H90.684V121.12H89.892V125.668H93.492V121.12H92.7ZM91.248 115.78C92.352 115.78 93.108 116.548 93.108 117.34V117.772C93.108 118.564 92.352 119.332 91.248 119.332C90.144 119.332 89.388 118.564 89.388 117.772V117.34C89.388 116.548 90.144 115.78 91.248 115.78ZM95.976 123.772C96.06 124 96.456 124.444 96.828 124.864C97.068 125.128 97.38 125.452 97.704 125.764L98.232 125.212C97.92 124.924 97.62 124.636 97.224 124.216C96.492 123.424 96.384 123.088 96.384 122.236V121.096H95.568V122.236C95.568 123.088 95.46 123.424 94.716 124.216C94.32 124.636 94.056 124.9 93.708 125.224L94.248 125.764C94.56 125.464 94.884 125.128 95.124 124.864C95.544 124.408 95.892 124 95.976 123.772ZM90.684 124.96V123.328H92.7V124.96H90.684ZM103.442 119.116C105.242 119.116 106.886 118.444 106.886 117.196V116.788C106.886 115.54 105.242 114.868 103.442 114.868C101.642 114.868 99.9979 115.54 99.9979 116.788V117.196C99.9979 118.444 101.642 119.116 103.442 119.116ZM103.442 115.588C104.738 115.588 106.07 116.08 106.07 116.848V117.136C106.07 117.904 104.738 118.396 103.442 118.396C102.146 118.396 100.814 117.904 100.814 117.136V116.848C100.814 116.08 102.146 115.588 103.442 115.588ZM98.4019 120.004V120.736H108.482V120.004H98.4019ZM99.8779 125.608H107.006V121.9H99.8779V125.608ZM100.694 122.656H106.19V124.852H100.694V122.656Z" fill="#222222"/>
<path d="M72.4592 58.258C71.5912 58.258 70.3592 57.768 69.6032 57.194L68.9032 58.328C69.7432 59 70.9892 59.518 72.4172 59.518C74.4892 59.518 76.0152 58.566 76.0152 56.718V56.466C76.0152 55.066 75.2452 54.184 72.7532 53.624C71.2552 53.288 70.4292 52.952 70.4292 52.028V51.804C70.4292 51.006 71.2552 50.362 72.5152 50.362C73.4392 50.362 74.1812 50.572 74.9232 51.076L75.5812 49.998C74.7272 49.424 73.7332 49.116 72.5012 49.116C70.1772 49.116 69.0432 50.446 69.0432 51.818V52.07C69.0432 53.89 70.4992 54.478 72.4032 54.884C74.0412 55.234 74.6152 55.682 74.6152 56.564V56.788C74.6152 57.586 73.8872 58.258 72.4592 58.258ZM80.5681 59.364V50.46H83.6481V49.27H76.1021V50.46H79.1821V59.364H80.5681ZM84.1842 49.27V59.364H90.5682V58.174H85.5702V54.786H90.1762V53.596H85.5702V50.46H90.4702V49.27H84.1842ZM91.7114 59.364H93.0974V55.43H95.3234C97.5214 55.43 98.6694 54.086 98.6694 52.448V52.154C98.6694 50.502 97.6054 49.27 95.3234 49.27H91.7114V59.364ZM95.2394 50.474C96.5414 50.474 97.2694 51.02 97.2694 52.168V52.42C97.2694 53.638 96.5414 54.226 95.0854 54.226H93.0974V50.474H95.2394ZM104.314 59.364V49.27H103.152L99.904 51.174L100.562 52.294L102.928 50.894V59.364H104.314Z" fill="#5082E6"/>
<defs>
<filter id="filter0_d_4_2630" x="1.34839" y="207" width="191.651" height="191.808" filterUnits="userSpaceOnUse" color-interpolation-filters="sRGB">
<feFlood flood-opacity="0" result="BackgroundImageFix"/>
<feColorMatrix in="SourceAlpha" type="matrix" values="0 0 0 0 0 0 0 0 0 0 0 0 0 0 0 0 0 0 127 0" result="hardAlpha"/>
<feOffset dx="10" dy="10"/>
<feGaussianBlur stdDeviation="10"/>
<feColorMatrix type="matrix" values="0 0 0 0 0 0 0 0 0 0 0 0 0 0 0 0 0 0 0.102 0"/>
<feBlend mode="normal" in2="BackgroundImageFix" result="effect1_dropShadow_4_2630"/>
<feBlend mode="normal" in="SourceGraphic" in2="effect1_dropShadow_4_2630" result="shape"/>
</filter>
<filter id="filter1_d_4_2630" x="1.34839" y="412" width="191.651" height="191.808" filterUnits="userSpaceOnUse" color-interpolation-filters="sRGB">
<feFlood flood-opacity="0" result="BackgroundImageFix"/>
<feColorMatrix in="SourceAlpha" type="matrix" values="0 0 0 0 0 0 0 0 0 0 0 0 0 0 0 0 0 0 127 0" result="hardAlpha"/>
<feOffset dx="10" dy="10"/>
<feGaussianBlur stdDeviation="10"/>
<feColorMatrix type="matrix" values="0 0 0 0 0 0 0 0 0 0 0 0 0 0 0 0 0 0 0.102 0"/>
<feBlend mode="normal" in2="BackgroundImageFix" result="effect1_dropShadow_4_2630"/>
<feBlend mode="normal" in="SourceGraphic" in2="effect1_dropShadow_4_2630" result="shape"/>
</filter>
<filter id="filter2_d_4_2630" x="1.34839" y="618" width="191.651" height="191.808" filterUnits="userSpaceOnUse" color-interpolation-filters="sRGB">
<feFlood flood-opacity="0" result="BackgroundImageFix"/>
<feColorMatrix in="SourceAlpha" type="matrix" values="0 0 0 0 0 0 0 0 0 0 0 0 0 0 0 0 0 0 127 0" result="hardAlpha"/>
<feOffset dx="10" dy="10"/>
<feGaussianBlur stdDeviation="10"/>
<feColorMatrix type="matrix" values="0 0 0 0 0 0 0 0 0 0 0 0 0 0 0 0 0 0 0.102 0"/>
<feBlend mode="normal" in2="BackgroundImageFix" result="effect1_dropShadow_4_2630"/>
<feBlend mode="normal" in="SourceGraphic" in2="effect1_dropShadow_4_2630" result="shape"/>
</filter>
<filter id="filter3_d_4_2630" x="1.34839" y="1" width="191.651" height="191.808" filterUnits="userSpaceOnUse" color-interpolation-filters="sRGB">
<feFlood flood-opacity="0" result="BackgroundImageFix"/>
<feColorMatrix in="SourceAlpha" type="matrix" values="0 0 0 0 0 0 0 0 0 0 0 0 0 0 0 0 0 0 127 0" result="hardAlpha"/>
<feOffset dx="10" dy="10"/>
<feGaussianBlur stdDeviation="10"/>
<feColorMatrix type="matrix" values="0 0 0 0 0 0 0 0 0 0 0 0 0 0 0 0 0 0 0.102 0"/>
<feBlend mode="normal" in2="BackgroundImageFix" result="effect1_dropShadow_4_2630"/>
<feBlend mode="normal" in="SourceGraphic" in2="effect1_dropShadow_4_2630" result="shape"/>
</filter>
<linearGradient id="paint0_linear_4_2630" x1="191.638" y1="87" x2="944.8" y2="87" gradientUnits="userSpaceOnUse">
<stop stop-color="#33B9A5"/>
<stop offset="0.69" stop-color="#40A7C9"/>
<stop offset="1" stop-color="#5082E6"/>
</linearGradient>
</defs>
</svg>
