<svg width="565" height="321" viewBox="0 0 565 321" fill="none" xmlns="http://www.w3.org/2000/svg">
<path d="M80 2H64V18H80V2Z" fill="#BBBBBB"/>
<path d="M99.464 2.774H98.257V18.312H99.464V2.774ZM94.925 4.049H93.735V7.891H88.975V4.049H87.785V14.198H94.925V4.049ZM88.975 8.962H93.735V13.11H88.975V8.962ZM109.344 12.294C106.794 12.294 104.635 13.331 104.635 15.167V15.83C104.635 17.615 106.794 18.72 109.344 18.72C111.894 18.72 114.053 17.615 114.053 15.83V15.167C114.053 13.382 111.894 12.294 109.344 12.294ZM109.344 17.7C107.525 17.7 105.791 17.003 105.791 15.796V15.218C105.791 14.011 107.525 13.314 109.344 13.314C111.163 13.314 112.897 14.011 112.897 15.218V15.796C112.897 17.003 111.163 17.7 109.344 17.7ZM106.063 8.282C106.131 8.503 106.794 9.081 107.593 9.727C108.103 10.135 108.919 10.747 109.599 11.223L110.296 10.373C109.327 9.727 108.375 9.013 107.831 8.554C106.726 7.602 106.607 7.143 106.607 6.14V4.797H109.939V3.76H101.898V4.797H105.4V6.191C105.4 7.109 105.213 7.704 104.38 8.52C103.547 9.336 102.459 10.169 101.456 10.883L102.187 11.733C102.969 11.172 104.125 10.254 104.72 9.727C105.434 9.098 105.978 8.537 106.046 8.282H106.063ZM113.968 2.774H112.778V6.752H109.531V7.806H112.778V11.937H113.968V2.774ZM115.5 10.883V11.92H119.308V18.295H120.515V11.92H124.765V18.295H125.972V11.92H129.78V10.883H127.043C127.366 9.336 127.553 7.432 127.553 5.647V3.794H117.37V4.831H126.329V6.038C126.329 7.5 126.142 9.353 125.802 10.883H115.5ZM135.07 8.129C135.138 8.35 135.801 8.928 136.6 9.574C137.11 9.982 137.96 10.611 138.64 11.07L139.337 10.237C138.334 9.574 137.382 8.86 136.838 8.401C135.733 7.449 135.614 6.99 135.614 5.987V4.746H138.997V3.709H130.871V4.746H134.407V6.038C134.407 6.956 134.22 7.551 133.387 8.367C132.554 9.183 131.449 10.033 130.429 10.747L131.16 11.597C131.976 11.019 133.132 10.101 133.727 9.574C134.441 8.945 134.985 8.384 135.053 8.129H135.07ZM132.792 13.739H141.598V18.431H142.788V12.685H132.792V13.739ZM142.788 2.774H141.598V11.767H142.788V2.774Z" fill="#555555"/>
<path d="M181 2H165V18H181V2Z" fill="#5082E6"/>
<path d="M195.891 12.294C193.341 12.294 191.182 13.331 191.182 15.167V15.83C191.182 17.615 193.341 18.72 195.891 18.72C198.441 18.72 200.6 17.615 200.6 15.83V15.167C200.6 13.382 198.441 12.294 195.891 12.294ZM195.891 17.7C194.072 17.7 192.338 17.003 192.338 15.796V15.218C192.338 14.011 194.072 13.314 195.891 13.314C197.71 13.314 199.444 14.011 199.444 15.218V15.796C199.444 17.003 197.71 17.7 195.891 17.7ZM192.61 8.282C192.678 8.503 193.341 9.081 194.14 9.727C194.65 10.135 195.466 10.747 196.146 11.223L196.843 10.373C195.874 9.727 194.922 9.013 194.378 8.554C193.273 7.602 193.154 7.143 193.154 6.14V4.797H196.486V3.76H188.445V4.797H191.947V6.191C191.947 7.109 191.76 7.704 190.927 8.52C190.094 9.336 189.006 10.169 188.003 10.883L188.734 11.733C189.516 11.172 190.672 10.254 191.267 9.727C191.981 9.098 192.525 8.537 192.593 8.282H192.61ZM200.515 2.774H199.325V6.752H196.078V7.806H199.325V11.937H200.515V2.774ZM202.048 10.883V11.92H205.856V18.295H207.063V11.92H211.313V18.295H212.52V11.92H216.328V10.883H213.591C213.914 9.336 214.101 7.432 214.101 5.647V3.794H203.918V4.831H212.877V6.038C212.877 7.5 212.69 9.353 212.35 10.883H202.048ZM221.617 8.129C221.685 8.35 222.348 8.928 223.147 9.574C223.657 9.982 224.507 10.611 225.187 11.07L225.884 10.237C224.881 9.574 223.929 8.86 223.385 8.401C222.28 7.449 222.161 6.99 222.161 5.987V4.746H225.544V3.709H217.418V4.746H220.954V6.038C220.954 6.956 220.767 7.551 219.934 8.367C219.101 9.183 217.996 10.033 216.976 10.747L217.707 11.597C218.523 11.019 219.679 10.101 220.274 9.574C220.988 8.945 221.532 8.384 221.6 8.129H221.617ZM219.339 13.739H228.145V18.431H229.335V12.685H219.339V13.739ZM229.335 2.774H228.145V11.767H229.335V2.774Z" fill="#555555"/>
<path d="M233 39H64V93H233V39Z" fill="#CCCCCC"/>
<path d="M564 39H233V93H564V39Z" fill="#5082E6"/>
<path d="M186.92 61.08C187.7 60.06 188.54 59.64 189.72 59.64C191.02 59.64 192.1 60.28 192.1 61.54V61.7C192.1 62.94 191.48 64.14 189.68 64.14H187.98V65.86H189.76C191.44 65.86 192.74 66.42 192.74 68.32V68.58C192.74 69.88 191.78 70.94 189.68 70.94C188.44 70.94 187.44 70.58 186.04 69.56L185.06 71.14C186.42 72.22 188 72.74 189.68 72.74C193.22 72.74 194.72 70.68 194.72 68.56V68.26C194.72 66.6 193.74 65.28 191.8 64.94C193.58 64.3 194.06 62.82 194.06 61.68V61.48C194.06 59.32 192.36 57.88 189.7 57.88C187.54 57.88 186.34 58.84 185.5 60.04L186.92 61.08ZM197.927 61.08C198.707 60.06 199.547 59.64 200.727 59.64C202.027 59.64 203.107 60.28 203.107 61.54V61.7C203.107 62.94 202.487 64.14 200.687 64.14H198.987V65.86H200.767C202.447 65.86 203.747 66.42 203.747 68.32V68.58C203.747 69.88 202.787 70.94 200.687 70.94C199.447 70.94 198.447 70.58 197.047 69.56L196.067 71.14C197.427 72.22 199.007 72.74 200.687 72.74C204.227 72.74 205.727 70.68 205.727 68.56V68.26C205.727 66.6 204.747 65.28 202.807 64.94C204.587 64.3 205.067 62.82 205.067 61.68V61.48C205.067 59.32 203.367 57.88 200.707 57.88C198.547 57.88 197.347 58.84 196.507 60.04L197.927 61.08ZM207.814 73.34H210.094V71.04H207.814V73.34ZM214.393 61.8C214.393 60.44 215.373 59.62 216.793 59.62C218.233 59.62 219.193 60.44 219.193 61.8V62.02C219.193 63.44 218.153 64.3 216.793 64.3C215.453 64.3 214.393 63.44 214.393 62.02V61.8ZM214.013 68.46C214.013 66.86 215.253 66.04 216.813 66.04C218.393 66.04 219.573 66.9 219.573 68.46V68.68C219.573 70.04 218.533 70.96 216.813 70.96C215.093 70.96 214.013 70.04 214.013 68.68V68.46ZM211.973 68.78C211.973 71.08 213.773 72.74 216.793 72.74C219.813 72.74 221.613 71.08 221.613 68.78V68.44C221.613 66.86 220.533 65.54 219.133 65.12C220.533 64.4 221.193 63.16 221.193 61.94V61.66C221.193 59.6 219.573 57.88 216.793 57.88C213.973 57.88 212.393 59.6 212.393 61.66V61.94C212.393 63.16 213.073 64.46 214.453 65.12C213.073 65.54 211.973 66.86 211.973 68.44V68.78Z" fill="white"/>
<path d="M525.52 58.86C524.44 58.2 523.08 57.88 521.78 57.88C518.54 57.88 516.24 59.74 516.24 66.06V66.8C516.24 70.66 518.02 72.74 521.26 72.74C524.2 72.74 526.18 70.86 526.18 68.1V67.66C526.18 64.84 524.2 63.06 521.64 63.06C520.04 63.06 518.68 63.86 518.2 64.7C518.34 60.9 519.7 59.7 521.66 59.7C522.8 59.7 523.86 60.02 524.76 60.54L525.52 58.86ZM518.26 67.62C518.26 66.04 519.48 64.82 521.24 64.82C523 64.82 524.2 65.82 524.2 67.74V68C524.2 69.88 523.04 70.94 521.18 70.94C519.38 70.94 518.26 69.76 518.26 67.9V67.62ZM536.527 58.86C535.447 58.2 534.087 57.88 532.787 57.88C529.547 57.88 527.247 59.74 527.247 66.06V66.8C527.247 70.66 529.027 72.74 532.267 72.74C535.207 72.74 537.187 70.86 537.187 68.1V67.66C537.187 64.84 535.207 63.06 532.647 63.06C531.047 63.06 529.687 63.86 529.207 64.7C529.347 60.9 530.707 59.7 532.667 59.7C533.807 59.7 534.867 60.02 535.767 60.54L536.527 58.86ZM529.267 67.62C529.267 66.04 530.487 64.82 532.247 64.82C534.007 64.82 535.207 65.82 535.207 67.74V68C535.207 69.88 534.047 70.94 532.187 70.94C530.387 70.94 529.267 69.76 529.267 67.9V67.62ZM538.814 73.34H541.094V71.04H538.814V73.34ZM542.973 70.86V72.52H552.653V70.8H545.413L549.913 66C551.213 64.62 552.133 63.26 552.133 61.7V61.5C552.133 59.4 550.553 57.88 547.633 57.88C544.973 57.88 543.693 59.54 543.013 60.78L544.533 61.76C545.473 60.08 546.613 59.66 547.673 59.66C549.173 59.66 550.153 60.36 550.153 61.5V61.66C550.153 62.42 549.993 63.22 548.353 65.02L542.973 70.86Z" fill="white"/>
<path d="M252 187H64V241H252V187Z" fill="#CCCCCC"/>
<path d="M564 187H252V241H564V187Z" fill="#5082E6"/>
<path d="M205.92 209.08C206.7 208.06 207.54 207.64 208.72 207.64C210.02 207.64 211.1 208.28 211.1 209.54V209.7C211.1 210.94 210.48 212.14 208.68 212.14H206.98V213.86H208.76C210.44 213.86 211.74 214.42 211.74 216.32V216.58C211.74 217.88 210.78 218.94 208.68 218.94C207.44 218.94 206.44 218.58 205.04 217.56L204.06 219.14C205.42 220.22 207 220.74 208.68 220.74C212.22 220.74 213.72 218.68 213.72 216.56V216.26C213.72 214.6 212.74 213.28 210.8 212.94C212.58 212.3 213.06 210.82 213.06 209.68V209.48C213.06 207.32 211.36 205.88 208.7 205.88C206.54 205.88 205.34 206.84 204.5 208.04L205.92 209.08ZM225.127 207.62V206.1H215.147V207.82H222.987L217.267 220.52H219.427L225.127 207.62ZM226.814 221.34H229.094V219.04H226.814V221.34ZM240.213 206.86C239.133 206.2 237.773 205.88 236.473 205.88C233.233 205.88 230.933 207.74 230.933 214.06V214.8C230.933 218.66 232.713 220.74 235.953 220.74C238.893 220.74 240.873 218.86 240.873 216.1V215.66C240.873 212.84 238.893 211.06 236.333 211.06C234.733 211.06 233.373 211.86 232.893 212.7C233.033 208.9 234.393 207.7 236.353 207.7C237.493 207.7 238.553 208.02 239.453 208.54L240.213 206.86ZM232.953 215.62C232.953 214.04 234.173 212.82 235.933 212.82C237.693 212.82 238.893 213.82 238.893 215.74V216C238.893 217.88 237.733 218.94 235.873 218.94C234.073 218.94 232.953 217.76 232.953 215.9V215.62Z" fill="white"/>
<path d="M525.52 206.86C524.44 206.2 523.08 205.88 521.78 205.88C518.54 205.88 516.24 207.74 516.24 214.06V214.8C516.24 218.66 518.02 220.74 521.26 220.74C524.2 220.74 526.18 218.86 526.18 216.1V215.66C526.18 212.84 524.2 211.06 521.64 211.06C520.04 211.06 518.68 211.86 518.2 212.7C518.34 208.9 519.7 207.7 521.66 207.7C522.8 207.7 523.86 208.02 524.76 208.54L525.52 206.86ZM518.26 215.62C518.26 214.04 519.48 212.82 521.24 212.82C523 212.82 524.2 213.82 524.2 215.74V216C524.2 217.88 523.04 218.94 521.18 218.94C519.38 218.94 518.26 217.76 518.26 215.9V215.62ZM527.287 218.86V220.52H536.967V218.8H529.727L534.227 214C535.527 212.62 536.447 211.26 536.447 209.7V209.5C536.447 207.4 534.867 205.88 531.947 205.88C529.287 205.88 528.007 207.54 527.327 208.78L528.847 209.76C529.787 208.08 530.927 207.66 531.987 207.66C533.487 207.66 534.467 208.36 534.467 209.5V209.66C534.467 210.42 534.307 211.22 532.667 213.02L527.287 218.86ZM538.814 221.34H541.094V219.04H538.814V221.34ZM549.433 211.32V215.74H544.553L551.193 206.1H549.013L542.233 215.94V217.42H549.433V220.52H551.393V217.42H553.433V215.74H551.393V211.32H549.433Z" fill="white"/>
<path d="M233 113H64V167H233V113Z" fill="#CCCCCC"/>
<path d="M564 113H233V167H564V113Z" fill="#5082E6"/>
<path d="M186.92 135.08C187.7 134.06 188.54 133.64 189.72 133.64C191.02 133.64 192.1 134.28 192.1 135.54V135.7C192.1 136.94 191.48 138.14 189.68 138.14H187.98V139.86H189.76C191.44 139.86 192.74 140.42 192.74 142.32V142.58C192.74 143.88 191.78 144.94 189.68 144.94C188.44 144.94 187.44 144.58 186.04 143.56L185.06 145.14C186.42 146.22 188 146.74 189.68 146.74C193.22 146.74 194.72 144.68 194.72 142.56V142.26C194.72 140.6 193.74 139.28 191.8 138.94C193.58 138.3 194.06 136.82 194.06 135.68V135.48C194.06 133.32 192.36 131.88 189.7 131.88C187.54 131.88 186.34 132.84 185.5 134.04L186.92 135.08ZM197.927 135.08C198.707 134.06 199.547 133.64 200.727 133.64C202.027 133.64 203.107 134.28 203.107 135.54V135.7C203.107 136.94 202.487 138.14 200.687 138.14H198.987V139.86H200.767C202.447 139.86 203.747 140.42 203.747 142.32V142.58C203.747 143.88 202.787 144.94 200.687 144.94C199.447 144.94 198.447 144.58 197.047 143.56L196.067 145.14C197.427 146.22 199.007 146.74 200.687 146.74C204.227 146.74 205.727 144.68 205.727 142.56V142.26C205.727 140.6 204.747 139.28 202.807 138.94C204.587 138.3 205.067 136.82 205.067 135.68V135.48C205.067 133.32 203.367 131.88 200.707 131.88C198.547 131.88 197.347 132.84 196.507 134.04L197.927 135.08ZM207.814 147.34H210.094V145.04H207.814V147.34ZM214.393 135.8C214.393 134.44 215.373 133.62 216.793 133.62C218.233 133.62 219.193 134.44 219.193 135.8V136.02C219.193 137.44 218.153 138.3 216.793 138.3C215.453 138.3 214.393 137.44 214.393 136.02V135.8ZM214.013 142.46C214.013 140.86 215.253 140.04 216.813 140.04C218.393 140.04 219.573 140.9 219.573 142.46V142.68C219.573 144.04 218.533 144.96 216.813 144.96C215.093 144.96 214.013 144.04 214.013 142.68V142.46ZM211.973 142.78C211.973 145.08 213.773 146.74 216.793 146.74C219.813 146.74 221.613 145.08 221.613 142.78V142.44C221.613 140.86 220.533 139.54 219.133 139.12C220.533 138.4 221.193 137.16 221.193 135.94V135.66C221.193 133.6 219.573 131.88 216.793 131.88C213.973 131.88 212.393 133.6 212.393 135.66V135.94C212.393 137.16 213.073 138.46 214.453 139.12C213.073 139.54 211.973 140.86 211.973 142.44V142.78Z" fill="white"/>
<path d="M525.52 132.86C524.44 132.2 523.08 131.88 521.78 131.88C518.54 131.88 516.24 133.74 516.24 140.06V140.8C516.24 144.66 518.02 146.74 521.26 146.74C524.2 146.74 526.18 144.86 526.18 142.1V141.66C526.18 138.84 524.2 137.06 521.64 137.06C520.04 137.06 518.68 137.86 518.2 138.7C518.34 134.9 519.7 133.7 521.66 133.7C522.8 133.7 523.86 134.02 524.76 134.54L525.52 132.86ZM518.26 141.62C518.26 140.04 519.48 138.82 521.24 138.82C523 138.82 524.2 139.82 524.2 141.74V142C524.2 143.88 523.04 144.94 521.18 144.94C519.38 144.94 518.26 143.76 518.26 141.9V141.62ZM536.527 132.86C535.447 132.2 534.087 131.88 532.787 131.88C529.547 131.88 527.247 133.74 527.247 140.06V140.8C527.247 144.66 529.027 146.74 532.267 146.74C535.207 146.74 537.187 144.86 537.187 142.1V141.66C537.187 138.84 535.207 137.06 532.647 137.06C531.047 137.06 529.687 137.86 529.207 138.7C529.347 134.9 530.707 133.7 532.667 133.7C533.807 133.7 534.867 134.02 535.767 134.54L536.527 132.86ZM529.267 141.62C529.267 140.04 530.487 138.82 532.247 138.82C534.007 138.82 535.207 139.82 535.207 141.74V142C535.207 143.88 534.047 144.94 532.187 144.94C530.387 144.94 529.267 143.76 529.267 141.9V141.62ZM538.814 147.34H541.094V145.04H538.814V147.34ZM542.973 144.86V146.52H552.653V144.8H545.413L549.913 140C551.213 138.62 552.133 137.26 552.133 135.7V135.5C552.133 133.4 550.553 131.88 547.633 131.88C544.973 131.88 543.693 133.54 543.013 134.78L544.533 135.76C545.473 134.08 546.613 133.66 547.673 133.66C549.173 133.66 550.153 134.36 550.153 135.5V135.66C550.153 136.42 549.993 137.22 548.353 139.02L542.973 144.86Z" fill="white"/>
<path d="M1.54 219.32V220.52H10.7V219.24H3.3L7.78 213.98C9.02 212.54 10.18 211.24 10.18 209.68V209.48C10.18 207.32 8.54 205.88 5.98 205.88C3.58 205.88 2.24 207.4 1.56 208.64L2.68 209.34C3.62 207.66 4.76 207.16 6.02 207.16C7.76 207.16 8.76 208.06 8.76 209.5V209.66C8.76 210.42 8.5 211.16 6.92 213.02L1.54 219.32ZM21.6922 212.18C21.6922 208.14 20.1722 205.88 16.7722 205.88C13.4122 205.88 11.8922 208.14 11.8922 212.18V214.42C11.8922 218.46 13.3522 220.74 16.7722 220.74C20.2322 220.74 21.6922 218.5 21.6922 214.42V212.18ZM20.2522 214.44C20.2522 218.04 19.0722 219.48 16.7722 219.48C14.5522 219.48 13.3322 218.02 13.3322 214.44V212.16C13.3322 208.62 14.5522 207.14 16.7722 207.14C19.0722 207.14 20.2522 208.6 20.2522 212.16V214.44ZM23.1244 219.32V220.52H32.2844V219.24H24.8844L29.3644 213.98C30.6044 212.54 31.7644 211.24 31.7644 209.68V209.48C31.7644 207.32 30.1244 205.88 27.5644 205.88C25.1644 205.88 23.8244 207.4 23.1444 208.64L24.2644 209.34C25.2044 207.66 26.3444 207.16 27.6044 207.16C29.3444 207.16 30.3444 208.06 30.3444 209.5V209.66C30.3444 210.42 30.0844 211.16 28.5044 213.02L23.1244 219.32ZM43.2766 212.18C43.2766 208.14 41.7566 205.88 38.3566 205.88C34.9966 205.88 33.4766 208.14 33.4766 212.18V214.42C33.4766 218.46 34.9366 220.74 38.3566 220.74C41.8166 220.74 43.2766 218.5 43.2766 214.42V212.18ZM41.8366 214.44C41.8366 218.04 40.6566 219.48 38.3566 219.48C36.1366 219.48 34.9166 218.02 34.9166 214.44V212.16C34.9166 208.62 36.1366 207.14 38.3566 207.14C40.6566 207.14 41.8366 208.6 41.8366 212.16V214.44Z" fill="#222222"/>
<path d="M1.54 145.32V146.52H10.7V145.24H3.3L7.78 139.98C9.02 138.54 10.18 137.24 10.18 135.68V135.48C10.18 133.32 8.54 131.88 5.98 131.88C3.58 131.88 2.24 133.4 1.56 134.64L2.68 135.34C3.62 133.66 4.76 133.16 6.02 133.16C7.76 133.16 8.76 134.06 8.76 135.5V135.66C8.76 136.42 8.5 137.16 6.92 139.02L1.54 145.32ZM21.6922 138.18C21.6922 134.14 20.1722 131.88 16.7722 131.88C13.4122 131.88 11.8922 134.14 11.8922 138.18V140.42C11.8922 144.46 13.3522 146.74 16.7722 146.74C20.2322 146.74 21.6922 144.5 21.6922 140.42V138.18ZM20.2522 140.44C20.2522 144.04 19.0722 145.48 16.7722 145.48C14.5522 145.48 13.3322 144.02 13.3322 140.44V138.16C13.3322 134.62 14.5522 133.14 16.7722 133.14C19.0722 133.14 20.2522 134.6 20.2522 138.16V140.44ZM23.1244 145.32V146.52H32.2844V145.24H24.8844L29.3644 139.98C30.6044 138.54 31.7644 137.24 31.7644 135.68V135.48C31.7644 133.32 30.1244 131.88 27.5644 131.88C25.1644 131.88 23.8244 133.4 23.1444 134.64L24.2644 135.34C25.2044 133.66 26.3444 133.16 27.6044 133.16C29.3444 133.16 30.3444 134.06 30.3444 135.5V135.66C30.3444 136.42 30.0844 137.16 28.5044 139.02L23.1244 145.32ZM39.9966 146.52V132.1H38.9366L34.4766 134.86L35.1166 135.98L38.5966 133.86V146.52H39.9966Z" fill="#222222"/>
<path d="M1.54 71.32V72.52H10.7V71.24H3.3L7.78 65.98C9.02 64.54 10.18 63.24 10.18 61.68V61.48C10.18 59.32 8.54 57.88 5.98 57.88C3.58 57.88 2.24 59.4 1.56 60.64L2.68 61.34C3.62 59.66 4.76 59.16 6.02 59.16C7.76 59.16 8.76 60.06 8.76 61.5V61.66C8.76 62.42 8.5 63.16 6.92 65.02L1.54 71.32ZM21.6922 64.18C21.6922 60.14 20.1722 57.88 16.7722 57.88C13.4122 57.88 11.8922 60.14 11.8922 64.18V66.42C11.8922 70.46 13.3522 72.74 16.7722 72.74C20.2322 72.74 21.6922 70.5 21.6922 66.42V64.18ZM20.2522 66.44C20.2522 70.04 19.0722 71.48 16.7722 71.48C14.5522 71.48 13.3322 70.02 13.3322 66.44V64.16C13.3322 60.62 14.5522 59.14 16.7722 59.14C19.0722 59.14 20.2522 60.6 20.2522 64.16V66.44ZM23.1244 71.32V72.52H32.2844V71.24H24.8844L29.3644 65.98C30.6044 64.54 31.7644 63.24 31.7644 61.68V61.48C31.7644 59.32 30.1244 57.88 27.5644 57.88C25.1644 57.88 23.8244 59.4 23.1444 60.64L24.2644 61.34C25.2044 59.66 26.3444 59.16 27.6044 59.16C29.3444 59.16 30.3444 60.06 30.3444 61.5V61.66C30.3444 62.42 30.0844 63.16 28.5044 65.02L23.1244 71.32ZM33.9166 71.32V72.52H43.0766V71.24H35.6766L40.1566 65.98C41.3966 64.54 42.5566 63.24 42.5566 61.68V61.48C42.5566 59.32 40.9166 57.88 38.3566 57.88C35.9566 57.88 34.6166 59.4 33.9366 60.64L35.0566 61.34C35.9966 59.66 37.1366 59.16 38.3966 59.16C40.1366 59.16 41.1366 60.06 41.1366 61.5V61.66C41.1366 62.42 40.8766 63.16 39.2966 65.02L33.9166 71.32Z" fill="#222222"/>
<path d="M517.265 7.14C517.265 4.74 517.85 2.49 519.32 0.51H518.36C516.875 2.28 516.155 4.545 516.155 7.215V7.815C516.155 10.485 516.875 12.78 518.36 14.55H519.32C517.775 12.435 517.265 10.17 517.265 7.89V7.14ZM520.062 7.68C524.262 7.68 525.462 7.635 527.697 7.365L527.577 6.435C525.432 6.69 524.142 6.735 521.127 6.735V2.175H526.347V1.23H520.062V7.68ZM530.112 0.329999H529.062V10.14H530.112V4.995H532.212V4.065H530.112V0.329999ZM522.972 9.36H521.907V13.875H530.532V12.93H522.972V9.36ZM536.684 6.45C538.619 6.45 540.179 5.385 540.179 3.855V3.225C540.179 1.695 538.619 0.63 536.684 0.63C534.749 0.63 533.189 1.695 533.189 3.225V3.855C533.189 5.385 534.749 6.45 536.684 6.45ZM536.684 1.575C538.019 1.575 539.159 2.28 539.159 3.3V3.78C539.159 4.8 538.019 5.505 536.684 5.505C535.349 5.505 534.209 4.8 534.209 3.78V3.3C534.209 2.28 535.349 1.575 536.684 1.575ZM543.554 0.329999H542.489V14.04H543.554V0.329999ZM541.439 7.56C539.429 7.785 536.699 7.89 532.364 7.89V8.82C533.864 8.82 535.094 8.805 536.174 8.79V13.605H537.254V8.745C538.904 8.685 540.164 8.61 541.529 8.475L541.439 7.56ZM545.837 11.625H547.352V10.125H545.837V11.625ZM545.837 4.995H547.352V3.495H545.837V4.995ZM551.742 12.375L558.192 1.575H557.247L550.782 12.375H551.742ZM557.637 6.855C556.182 6.855 555.312 7.77 555.312 9.345V10.02C555.312 11.595 556.182 12.51 557.637 12.51C559.092 12.51 559.962 11.595 559.962 10.02V9.345C559.962 7.77 559.092 6.855 557.637 6.855ZM557.637 11.745C556.767 11.745 556.182 11.25 556.182 9.99V9.375C556.182 8.13 556.767 7.62 557.637 7.62C558.507 7.62 559.092 8.13 559.092 9.375V9.99C559.092 11.25 558.507 11.745 557.637 11.745ZM551.352 1.455C549.897 1.455 549.027 2.37 549.027 3.945V4.62C549.027 6.195 549.897 7.11 551.352 7.11C552.807 7.11 553.677 6.195 553.677 4.62V3.945C553.677 2.37 552.807 1.455 551.352 1.455ZM551.352 6.345C550.482 6.345 549.897 5.85 549.897 4.59V3.975C549.897 2.73 550.482 2.22 551.352 2.22C552.222 2.22 552.807 2.73 552.807 3.975V4.59C552.807 5.85 552.222 6.345 551.352 6.345ZM562.544 7.89C562.544 10.17 562.034 12.435 560.489 14.55H561.449C562.934 12.78 563.654 10.485 563.654 7.815V7.215C563.654 4.545 562.934 2.28 561.449 0.51H560.489C561.959 2.49 562.544 4.74 562.544 7.14V7.89Z" fill="#555555"/>
<path d="M256.289 316.82C256.289 318.76 258.409 320.32 261.949 320.32C265.489 320.32 267.609 318.76 267.609 316.82V316.02C267.609 314.08 265.489 312.52 261.949 312.52C258.409 312.52 256.289 314.08 256.289 316.02V316.82ZM258.089 308.18C258.229 308.48 258.629 308.86 259.229 309.36C260.189 310.16 261.049 310.82 262.089 311.54L263.209 310.1C262.029 309.32 260.989 308.56 260.049 307.7C259.169 306.9 259.009 306.22 259.009 304.94V304.2H262.649V302.5H253.129V304.2H257.009V305.02C257.009 306.48 256.669 307.24 255.689 308.2C254.969 308.9 253.789 309.8 252.509 310.7L253.669 312.12C254.789 311.34 255.869 310.48 256.729 309.74C257.369 309.2 257.949 308.52 258.069 308.18H258.089ZM265.669 316.7C265.669 317.68 264.229 318.7 261.949 318.7C259.669 318.7 258.229 317.68 258.229 316.7V316.14C258.229 315.16 259.669 314.14 261.949 314.14C264.229 314.14 265.669 315.16 265.669 316.14V316.7ZM267.529 312.26V301.36H265.569V305.88H262.169V307.58H265.569V312.26H267.529ZM275.372 319.76V312.44H279.812V319.76H281.792V312.44H286.052V310.76H282.932C283.312 308.78 283.492 306.76 283.492 304.86V302.5H271.252V304.24H281.512V305.32C281.512 307.08 281.352 308.82 280.952 310.76H269.132V312.44H273.392V319.76H275.372ZM292.215 308C292.355 308.3 292.755 308.68 293.355 309.18C294.315 309.98 295.215 310.66 296.255 311.38L297.375 309.94C296.195 309.16 295.115 308.38 294.175 307.52C293.295 306.72 293.135 306.04 293.135 304.76V304.14H296.835V302.44H287.215V304.14H291.135V304.84C291.135 306.3 290.795 307.06 289.815 308.02C289.095 308.72 287.875 309.64 286.595 310.54L287.755 311.96C288.875 311.18 289.995 310.3 290.855 309.56C291.495 309.02 292.075 308.34 292.195 308H292.215ZM289.275 314.74H299.435V319.98H301.415V313.04H289.275V314.74ZM301.415 312.08V301.36H299.455V312.08H301.415ZM315.038 315.66V308.96H313.058V315.66H306.938V317.34H323.858V315.66H315.038ZM309.018 303.02V304.74H319.398V306.14C319.398 308.62 319.198 310.76 318.718 313.28L320.698 313.52C321.158 311.02 321.378 309.02 321.378 305.44V303.02H309.018ZM332.402 301.6C328.902 301.6 326.482 302.84 326.482 304.94V305.5C326.482 306.62 327.142 307.48 328.302 308.06V310.48H323.942V312.16H340.862V310.48H336.522V308.04C337.662 307.48 338.322 306.6 338.322 305.5V304.94C338.322 302.84 335.902 301.6 332.402 301.6ZM332.402 320.32C336.202 320.32 338.222 318.64 338.222 317.02V316.34C338.222 314.72 336.202 313.04 332.402 313.04C328.602 313.04 326.582 314.72 326.582 316.34V317.02C326.582 318.66 328.602 320.32 332.402 320.32ZM332.402 307.2C330.082 307.2 328.422 306.48 328.422 305.42V305.02C328.422 303.96 330.082 303.24 332.402 303.24C334.722 303.24 336.382 303.96 336.382 305.02V305.42C336.382 306.48 334.722 307.2 332.402 307.2ZM332.402 314.66C334.802 314.66 336.262 315.64 336.262 316.5V316.86C336.262 317.72 334.802 318.7 332.402 318.7C330.002 318.7 328.542 317.72 328.542 316.86V316.5C328.542 315.64 330.002 314.66 332.402 314.66ZM332.402 308.84C333.182 308.84 333.902 308.78 334.562 308.66V310.48H330.262V308.68C330.902 308.8 331.622 308.84 332.402 308.84ZM356.225 319.8V301.36H354.245V319.8H356.225ZM350.865 314.96V302.86H348.905V307.22H344.245V302.86H342.285V314.96H350.865ZM344.245 308.9H348.905V313.26H344.245V308.9ZM372.968 319.92V318.3H362.308V316.94H372.428V312.4H370.288V310.64H374.868V309H357.948V310.64H362.528V312.4H360.268V314.02H370.488V315.36H360.368V319.92H372.968ZM366.408 301.42C362.748 301.42 360.508 302.66 360.508 304.5V304.94C360.508 306.78 362.748 308.02 366.408 308.02C370.068 308.02 372.308 306.78 372.308 304.94V304.5C372.308 302.66 370.068 301.42 366.408 301.42ZM366.408 306.38C363.888 306.38 362.448 305.72 362.448 304.88V304.56C362.448 303.72 363.888 303.06 366.408 303.06C368.928 303.06 370.368 303.72 370.368 304.56V304.88C370.368 305.72 368.928 306.38 366.408 306.38ZM364.508 310.64H368.308V312.4H364.508V310.64Z" fill="#222222"/>
<path d="M71.38 268.29L76.21 263.475L75.61 262.845L70.78 267.69L65.995 262.845L65.38 263.505L70.18 268.32L65.35 273.12L65.98 273.75L70.765 268.905L75.565 273.75L76.24 273.09L71.38 268.29ZM71.71 263.835C71.71 263.28 71.23 262.8 70.675 262.8C70.12 262.8 69.64 263.28 69.64 263.835C69.64 264.39 70.135 264.885 70.69 264.885C71.26 264.885 71.725 264.39 71.725 263.835H71.71ZM67.255 268.335C67.255 267.765 66.775 267.285 66.22 267.285C65.68 267.285 65.185 267.765 65.185 268.335C65.185 268.875 65.695 269.355 66.235 269.355C66.805 269.355 67.27 268.875 67.27 268.335H67.255ZM76.465 268.335C76.465 267.735 75.97 267.285 75.415 267.285C74.86 267.285 74.395 267.735 74.395 268.335C74.395 268.875 74.89 269.34 75.43 269.34C75.985 269.34 76.465 268.875 76.465 268.335ZM71.725 272.955C71.725 272.37 71.23 271.905 70.675 271.905C70.12 271.905 69.67 272.37 69.67 272.955C69.67 273.495 70.135 273.975 70.69 273.975C71.26 273.975 71.725 273.495 71.725 272.955ZM90.7473 261.33H89.6823V275.04H90.7473V267.39H93.0423V266.445H90.7473V261.33ZM82.5273 268.41C81.8223 269.205 80.9973 270 80.0073 270.87L80.7123 271.605C81.5973 270.825 82.5873 269.82 83.1123 269.25C83.5623 268.755 84.1323 268.05 84.1773 267.855H84.1923C84.2673 268.05 84.7023 268.545 85.1523 269.025C85.7523 269.67 86.5923 270.495 87.5373 271.395L88.2273 270.675C87.1023 269.655 86.2173 268.755 85.6173 268.065C84.8073 267.135 84.7173 266.64 84.7173 265.485V262.335H83.6223V265.56C83.6223 266.745 83.4723 267.33 82.5273 268.41ZM93.3597 265.29C93.3597 266.67 94.7097 268.02 96.7047 268.02C98.6547 268.02 99.9897 266.73 100.05 265.38H103.17V268.335H104.22V261.33H103.17V264.45H100.05C99.9747 263.115 98.6397 261.84 96.7047 261.84C94.7097 261.84 93.3597 263.19 93.3597 264.57V265.29ZM103.185 269.145V271.035H96.8847V269.145H95.8497V275.025H104.22V269.145H103.185ZM99.0297 265.185C99.0297 266.175 98.0397 267.075 96.7047 267.075C95.3697 267.075 94.3797 266.175 94.3797 265.185V264.675C94.3797 263.685 95.3697 262.785 96.7047 262.785C98.0397 262.785 99.0297 263.685 99.0297 264.675V265.185ZM96.8847 274.08V271.965H103.185V274.08H96.8847ZM115.337 262.38V264.84H108.527V262.38H107.492V269.22H111.407V272.19H105.632V273.105H118.232V272.19H112.457V269.22H116.372V262.38H115.337ZM108.527 268.335V265.755H115.337V268.335H108.527ZM118.384 272.19V273.105H130.984V272.19H124.249V266.925H123.169V272.19H118.384ZM128.569 270.435C128.929 268.5 129.094 266.76 129.094 264.24V262.62H119.974V263.55H127.999V264.795C127.999 266.805 127.804 268.455 127.459 270.3L128.569 270.435ZM142.492 261.33H141.442V265.68H138.187V266.64H141.442V275.04H142.492V261.33ZM133.612 268.41C132.907 269.205 132.082 270 131.092 270.87L131.797 271.605C132.682 270.825 133.672 269.82 134.197 269.25C134.647 268.755 135.217 268.05 135.262 267.855H135.277C135.352 268.05 135.787 268.545 136.237 269.025C136.837 269.67 137.677 270.495 138.622 271.395L139.312 270.675C138.187 269.655 137.302 268.755 136.702 268.065C135.892 267.135 135.802 266.64 135.802 265.485V262.335H134.707V265.56C134.707 266.745 134.557 267.33 133.612 268.41ZM153.039 269.97C150.789 269.97 148.779 270.81 148.779 272.415V272.955C148.779 274.53 150.789 275.4 153.039 275.4C155.289 275.4 157.299 274.53 157.299 272.955V272.415C157.299 270.84 155.289 269.97 153.039 269.97ZM153.039 274.5C151.419 274.5 149.799 273.9 149.799 272.895V272.475C149.799 271.47 151.419 270.87 153.039 270.87C154.659 270.87 156.279 271.47 156.279 272.475V272.895C156.279 273.9 154.659 274.5 153.039 274.5ZM146.739 267.765V268.665H159.339V267.765H152.829V264.87H151.749V267.765H146.739ZM148.404 261.93V262.86H156.369V263.34C156.369 264.345 156.234 265.56 155.994 266.655L157.044 266.775C157.254 265.815 157.419 264.39 157.419 263.325V261.93H148.404ZM170.801 261.33H169.736V275.04H170.801V261.33ZM162.131 268.44C161.426 269.235 160.601 270.03 159.611 270.9L160.316 271.635C161.201 270.855 162.191 269.85 162.716 269.28C163.166 268.785 163.736 268.08 163.781 267.885H163.796C163.871 268.08 164.306 268.575 164.756 269.055C165.356 269.7 166.196 270.525 167.141 271.425L167.831 270.705C166.706 269.685 165.821 268.785 165.221 268.095C164.411 267.165 164.321 266.67 164.321 265.515V262.32H163.226V265.59C163.226 266.775 163.076 267.36 162.131 268.44ZM186.374 261.33H185.309V275.04H186.374V261.33ZM176.354 271.92C181.229 269.07 181.964 268.05 181.964 265.32V262.62H175.949V263.58H180.929V265.305C180.929 267.54 180.404 268.425 175.799 271.065L176.354 271.92ZM194.131 264.96H194.146C194.311 265.275 195.001 265.665 195.931 266.04C196.711 266.37 197.746 266.76 198.976 267.165L199.366 266.34C198.106 265.935 196.966 265.515 196.231 265.2C195.001 264.675 194.671 264.24 194.671 263.46V262.86H198.796V261.96H189.496V262.86H193.606V263.46C193.606 264.24 193.261 264.66 192.031 265.2C191.281 265.53 190.261 265.905 188.896 266.355L189.316 267.18C190.651 266.73 191.491 266.415 192.346 266.055C193.276 265.665 193.966 265.29 194.131 264.96ZM187.846 268.215V269.115H193.771V272.055H194.821V269.115H200.446V268.215H187.846ZM190.771 270.72H189.706V274.875H198.871V273.945H190.771V270.72Z" fill="#555555"/>
</svg>
