<svg width="564" height="323" viewBox="0 0 564 323" fill="none" xmlns="http://www.w3.org/2000/svg">
<path d="M80 2H64V18H80V2Z" fill="#BBBBBB"/>
<path d="M87.411 16.442H88.601V4.185H87.411V16.442ZM95.4406 7.296C95.0666 7.16 94.6416 7.109 94.1316 7.109C92.7376 7.109 91.8876 8.01 91.4966 8.894V7.279H90.3576V16.442H91.5136V11.24C91.5136 9.523 92.4656 8.282 93.9786 8.282C94.4206 8.282 94.7776 8.35 95.0836 8.469L95.4406 7.296ZM101.061 7.296C100.687 7.16 100.262 7.109 99.7522 7.109C98.3582 7.109 97.5082 8.01 97.1172 8.894V7.279H95.9782V16.442H97.1342V11.24C97.1342 9.523 98.0862 8.282 99.5992 8.282C100.041 8.282 100.398 8.35 100.704 8.469L101.061 7.296ZM102.33 11.257V11.104C102.33 9.302 103.282 8.129 104.897 8.129C106.495 8.129 107.43 9.2 107.43 11.104V11.257H102.33ZM107.872 14.657C107.209 15.133 106.291 15.558 105.067 15.558C103.384 15.558 102.33 14.402 102.33 12.379V12.226H108.586V11.274C108.586 8.707 107.277 7.109 104.897 7.109C102.602 7.109 101.174 8.639 101.174 11.24V12.379C101.174 15.048 102.619 16.578 105.05 16.578C106.597 16.578 107.651 16.051 108.382 15.541L107.872 14.657ZM115.709 16.323C115.709 18.244 114.808 19.145 113.125 19.145C112.088 19.145 111.442 18.975 110.592 18.38L110.065 19.281C110.83 19.876 111.833 20.233 113.125 20.233C115.403 20.233 116.865 18.89 116.865 16.289V7.279H115.726V8.401C115.25 7.721 114.315 7.109 112.972 7.109C110.881 7.109 109.334 8.537 109.334 11.036V12.481C109.334 14.98 110.881 16.408 112.989 16.408C114.043 16.408 115.182 15.983 115.692 15.065H115.709V16.323ZM110.49 11.206C110.49 9.268 111.493 8.129 113.04 8.129C114.604 8.129 115.709 9.336 115.709 10.407V12.991C115.709 14.606 114.519 15.388 113.04 15.388C111.51 15.388 110.49 14.266 110.49 12.311V11.206ZM121.712 16.578C123.157 16.578 124.109 15.864 124.534 15.167V16.442H125.673V7.279H124.517V13.229C124.517 14.3 123.429 15.524 121.882 15.524C120.063 15.524 119.672 14.436 119.672 13.127V7.279H118.516V13.416C118.516 15.32 119.621 16.578 121.712 16.578ZM127.392 16.442H128.548V3.59H127.392V16.442ZM132.723 16.578C133.42 16.578 134.066 16.442 134.576 16.187C135.052 15.949 135.426 15.609 135.596 15.32H135.613V16.442H136.735V10.033C136.735 8.18 135.477 7.109 133.437 7.109C132.043 7.109 131.006 7.602 130.156 8.197L130.717 9.081C131.499 8.537 132.434 8.146 133.42 8.146C134.848 8.146 135.596 8.894 135.596 10.22V11.07H133.012C130.887 11.07 129.782 12.107 129.782 13.586V13.96C129.782 15.575 130.989 16.578 132.723 16.578ZM135.596 13.586C135.596 14.283 135.222 14.742 134.729 15.048C134.185 15.388 133.624 15.575 132.893 15.575C131.958 15.575 130.938 15.099 130.938 13.909V13.637C130.938 12.702 131.567 12.039 133.029 12.039H135.596V13.586ZM143.368 7.296C142.994 7.16 142.569 7.109 142.059 7.109C140.665 7.109 139.815 8.01 139.424 8.894V7.279H138.285V16.442H139.441V11.24C139.441 9.523 140.393 8.282 141.906 8.282C142.348 8.282 142.705 8.35 143.011 8.469L143.368 7.296ZM149.958 16.442L152.185 8.571L154.463 16.442H155.806L158.254 7.279H157.132L155.16 15.286L152.865 7.279H151.556L149.312 15.286L147.289 7.279H146.116L148.615 16.442H149.958ZM162.35 7.109C159.902 7.109 158.457 8.622 158.457 11.274V12.413C158.457 15.048 159.902 16.578 162.35 16.578C164.798 16.578 166.243 15.048 166.243 12.413V11.274C166.243 8.639 164.798 7.109 162.35 7.109ZM162.35 15.558C160.667 15.558 159.63 14.504 159.63 12.345V11.342C159.63 9.183 160.667 8.129 162.35 8.129C164.033 8.129 165.07 9.183 165.07 11.342V12.345C165.07 14.504 164.033 15.558 162.35 15.558ZM172.607 7.296C172.233 7.16 171.808 7.109 171.298 7.109C169.904 7.109 169.054 8.01 168.663 8.894V7.279H167.524V16.442H168.68V11.24C168.68 9.523 169.632 8.282 171.145 8.282C171.587 8.282 171.944 8.35 172.25 8.469L172.607 7.296ZM180.268 7.279H178.721L174.301 11.614V3.59H173.145V16.442H174.301V12.991L175.78 11.563L179.18 16.442H180.591L176.596 10.798L180.268 7.279ZM181.804 11.257V11.104C181.804 9.302 182.756 8.129 184.371 8.129C185.969 8.129 186.904 9.2 186.904 11.104V11.257H181.804ZM187.346 14.657C186.683 15.133 185.765 15.558 184.541 15.558C182.858 15.558 181.804 14.402 181.804 12.379V12.226H188.06V11.274C188.06 8.707 186.751 7.109 184.371 7.109C182.076 7.109 180.648 8.639 180.648 11.24V12.379C180.648 15.048 182.093 16.578 184.524 16.578C186.071 16.578 187.125 16.051 187.856 15.541L187.346 14.657ZM194.4 7.296C194.026 7.16 193.601 7.109 193.091 7.109C191.697 7.109 190.847 8.01 190.456 8.894V7.279H189.317V16.442H190.473V11.24C190.473 9.523 191.425 8.282 192.938 8.282C193.38 8.282 193.737 8.35 194.043 8.469L194.4 7.296Z" fill="#555555"/>
<path d="M231 2H215V18H231V2Z" fill="#5082E6"/>
<path d="M245.483 16.442H246.758L244.293 10.883C245.653 10.39 246.503 9.251 246.503 7.772V7.517C246.503 5.596 245.092 4.185 242.644 4.185H238.411V16.442H239.601V11.155H242.661C242.814 11.155 242.967 11.155 243.12 11.138L245.483 16.442ZM242.474 5.256C244.378 5.256 245.296 6.123 245.296 7.551V7.721C245.296 9.2 244.412 10.084 242.287 10.084H239.601V5.256H242.474ZM248.779 11.257V11.104C248.779 9.302 249.731 8.129 251.346 8.129C252.944 8.129 253.879 9.2 253.879 11.104V11.257H248.779ZM254.321 14.657C253.658 15.133 252.74 15.558 251.516 15.558C249.833 15.558 248.779 14.402 248.779 12.379V12.226H255.035V11.274C255.035 8.707 253.726 7.109 251.346 7.109C249.051 7.109 247.623 8.639 247.623 11.24V12.379C247.623 15.048 249.068 16.578 251.499 16.578C253.046 16.578 254.1 16.051 254.831 15.541L254.321 14.657ZM262.159 16.323C262.159 18.244 261.258 19.145 259.575 19.145C258.538 19.145 257.892 18.975 257.042 18.38L256.515 19.281C257.28 19.876 258.283 20.233 259.575 20.233C261.853 20.233 263.315 18.89 263.315 16.289V7.279H262.176V8.401C261.7 7.721 260.765 7.109 259.422 7.109C257.331 7.109 255.784 8.537 255.784 11.036V12.481C255.784 14.98 257.331 16.408 259.439 16.408C260.493 16.408 261.632 15.983 262.142 15.065H262.159V16.323ZM256.94 11.206C256.94 9.268 257.943 8.129 259.49 8.129C261.054 8.129 262.159 9.336 262.159 10.407V12.991C262.159 14.606 260.969 15.388 259.49 15.388C257.96 15.388 256.94 14.266 256.94 12.311V11.206ZM268.161 16.578C269.606 16.578 270.558 15.864 270.983 15.167V16.442H272.122V7.279H270.966V13.229C270.966 14.3 269.878 15.524 268.331 15.524C266.512 15.524 266.121 14.436 266.121 13.127V7.279H264.965V13.416C264.965 15.32 266.07 16.578 268.161 16.578ZM273.842 16.442H274.998V3.59H273.842V16.442ZM279.172 16.578C279.869 16.578 280.515 16.442 281.025 16.187C281.501 15.949 281.875 15.609 282.045 15.32H282.062V16.442H283.184V10.033C283.184 8.18 281.926 7.109 279.886 7.109C278.492 7.109 277.455 7.602 276.605 8.197L277.166 9.081C277.948 8.537 278.883 8.146 279.869 8.146C281.297 8.146 282.045 8.894 282.045 10.22V11.07H279.461C277.336 11.07 276.231 12.107 276.231 13.586V13.96C276.231 15.575 277.438 16.578 279.172 16.578ZM282.045 13.586C282.045 14.283 281.671 14.742 281.178 15.048C280.634 15.388 280.073 15.575 279.342 15.575C278.407 15.575 277.387 15.099 277.387 13.909V13.637C277.387 12.702 278.016 12.039 279.478 12.039H282.045V13.586ZM289.817 7.296C289.443 7.16 289.018 7.109 288.508 7.109C287.114 7.109 286.264 8.01 285.873 8.894V7.279H284.734V16.442H285.89V11.24C285.89 9.523 286.842 8.282 288.355 8.282C288.797 8.282 289.154 8.35 289.46 8.469L289.817 7.296ZM296.407 16.442L298.634 8.571L300.912 16.442H302.255L304.703 7.279H303.581L301.609 15.286L299.314 7.279H298.005L295.761 15.286L293.738 7.279H292.565L295.064 16.442H296.407ZM308.799 7.109C306.351 7.109 304.906 8.622 304.906 11.274V12.413C304.906 15.048 306.351 16.578 308.799 16.578C311.247 16.578 312.692 15.048 312.692 12.413V11.274C312.692 8.639 311.247 7.109 308.799 7.109ZM308.799 15.558C307.116 15.558 306.079 14.504 306.079 12.345V11.342C306.079 9.183 307.116 8.129 308.799 8.129C310.482 8.129 311.519 9.183 311.519 11.342V12.345C311.519 14.504 310.482 15.558 308.799 15.558ZM319.056 7.296C318.682 7.16 318.257 7.109 317.747 7.109C316.353 7.109 315.503 8.01 315.112 8.894V7.279H313.973V16.442H315.129V11.24C315.129 9.523 316.081 8.282 317.594 8.282C318.036 8.282 318.393 8.35 318.699 8.469L319.056 7.296ZM326.717 7.279H325.17L320.75 11.614V3.59H319.594V16.442H320.75V12.991L322.229 11.563L325.629 16.442H327.04L323.045 10.798L326.717 7.279ZM328.253 11.257V11.104C328.253 9.302 329.205 8.129 330.82 8.129C332.418 8.129 333.353 9.2 333.353 11.104V11.257H328.253ZM333.795 14.657C333.132 15.133 332.214 15.558 330.99 15.558C329.307 15.558 328.253 14.402 328.253 12.379V12.226H334.509V11.274C334.509 8.707 333.2 7.109 330.82 7.109C328.525 7.109 327.097 8.639 327.097 11.24V12.379C327.097 15.048 328.542 16.578 330.973 16.578C332.52 16.578 333.574 16.051 334.305 15.541L333.795 14.657ZM340.849 7.296C340.475 7.16 340.05 7.109 339.54 7.109C338.146 7.109 337.296 8.01 336.905 8.894V7.279H335.766V16.442H336.922V11.24C336.922 9.523 337.874 8.282 339.387 8.282C339.829 8.282 340.186 8.35 340.492 8.469L340.849 7.296Z" fill="#555555"/>
<path d="M233 39H64V93H233V39Z" fill="#CCCCCC"/>
<path d="M564 39H233V93H564V39Z" fill="#5082E6"/>
<path d="M186.92 61.08C187.7 60.06 188.54 59.64 189.72 59.64C191.02 59.64 192.1 60.28 192.1 61.54V61.7C192.1 62.94 191.48 64.14 189.68 64.14H187.98V65.86H189.76C191.44 65.86 192.74 66.42 192.74 68.32V68.58C192.74 69.88 191.78 70.94 189.68 70.94C188.44 70.94 187.44 70.58 186.04 69.56L185.06 71.14C186.42 72.22 188 72.74 189.68 72.74C193.22 72.74 194.72 70.68 194.72 68.56V68.26C194.72 66.6 193.74 65.28 191.8 64.94C193.58 64.3 194.06 62.82 194.06 61.68V61.48C194.06 59.32 192.36 57.88 189.7 57.88C187.54 57.88 186.34 58.84 185.5 60.04L186.92 61.08ZM197.927 61.08C198.707 60.06 199.547 59.64 200.727 59.64C202.027 59.64 203.107 60.28 203.107 61.54V61.7C203.107 62.94 202.487 64.14 200.687 64.14H198.987V65.86H200.767C202.447 65.86 203.747 66.42 203.747 68.32V68.58C203.747 69.88 202.787 70.94 200.687 70.94C199.447 70.94 198.447 70.58 197.047 69.56L196.067 71.14C197.427 72.22 199.007 72.74 200.687 72.74C204.227 72.74 205.727 70.68 205.727 68.56V68.26C205.727 66.6 204.747 65.28 202.807 64.94C204.587 64.3 205.067 62.82 205.067 61.68V61.48C205.067 59.32 203.367 57.88 200.707 57.88C198.547 57.88 197.347 58.84 196.507 60.04L197.927 61.08ZM207.814 73.34H210.094V71.04H207.814V73.34ZM214.393 61.8C214.393 60.44 215.373 59.62 216.793 59.62C218.233 59.62 219.193 60.44 219.193 61.8V62.02C219.193 63.44 218.153 64.3 216.793 64.3C215.453 64.3 214.393 63.44 214.393 62.02V61.8ZM214.013 68.46C214.013 66.86 215.253 66.04 216.813 66.04C218.393 66.04 219.573 66.9 219.573 68.46V68.68C219.573 70.04 218.533 70.96 216.813 70.96C215.093 70.96 214.013 70.04 214.013 68.68V68.46ZM211.973 68.78C211.973 71.08 213.773 72.74 216.793 72.74C219.813 72.74 221.613 71.08 221.613 68.78V68.44C221.613 66.86 220.533 65.54 219.133 65.12C220.533 64.4 221.193 63.16 221.193 61.94V61.66C221.193 59.6 219.573 57.88 216.793 57.88C213.973 57.88 212.393 59.6 212.393 61.66V61.94C212.393 63.16 213.073 64.46 214.453 65.12C213.073 65.54 211.973 66.86 211.973 68.44V68.78Z" fill="white"/>
<path d="M525.52 58.86C524.44 58.2 523.08 57.88 521.78 57.88C518.54 57.88 516.24 59.74 516.24 66.06V66.8C516.24 70.66 518.02 72.74 521.26 72.74C524.2 72.74 526.18 70.86 526.18 68.1V67.66C526.18 64.84 524.2 63.06 521.64 63.06C520.04 63.06 518.68 63.86 518.2 64.7C518.34 60.9 519.7 59.7 521.66 59.7C522.8 59.7 523.86 60.02 524.76 60.54L525.52 58.86ZM518.26 67.62C518.26 66.04 519.48 64.82 521.24 64.82C523 64.82 524.2 65.82 524.2 67.74V68C524.2 69.88 523.04 70.94 521.18 70.94C519.38 70.94 518.26 69.76 518.26 67.9V67.62ZM536.527 58.86C535.447 58.2 534.087 57.88 532.787 57.88C529.547 57.88 527.247 59.74 527.247 66.06V66.8C527.247 70.66 529.027 72.74 532.267 72.74C535.207 72.74 537.187 70.86 537.187 68.1V67.66C537.187 64.84 535.207 63.06 532.647 63.06C531.047 63.06 529.687 63.86 529.207 64.7C529.347 60.9 530.707 59.7 532.667 59.7C533.807 59.7 534.867 60.02 535.767 60.54L536.527 58.86ZM529.267 67.62C529.267 66.04 530.487 64.82 532.247 64.82C534.007 64.82 535.207 65.82 535.207 67.74V68C535.207 69.88 534.047 70.94 532.187 70.94C530.387 70.94 529.267 69.76 529.267 67.9V67.62ZM538.814 73.34H541.094V71.04H538.814V73.34ZM542.973 70.86V72.52H552.653V70.8H545.413L549.913 66C551.213 64.62 552.133 63.26 552.133 61.7V61.5C552.133 59.4 550.553 57.88 547.633 57.88C544.973 57.88 543.693 59.54 543.013 60.78L544.533 61.76C545.473 60.08 546.613 59.66 547.673 59.66C549.173 59.66 550.153 60.36 550.153 61.5V61.66C550.153 62.42 549.993 63.22 548.353 65.02L542.973 70.86Z" fill="white"/>
<path d="M252 187H64V241H252V187Z" fill="#CCCCCC"/>
<path d="M564 187H252V241H564V187Z" fill="#5082E6"/>
<path d="M205.92 209.08C206.7 208.06 207.54 207.64 208.72 207.64C210.02 207.64 211.1 208.28 211.1 209.54V209.7C211.1 210.94 210.48 212.14 208.68 212.14H206.98V213.86H208.76C210.44 213.86 211.74 214.42 211.74 216.32V216.58C211.74 217.88 210.78 218.94 208.68 218.94C207.44 218.94 206.44 218.58 205.04 217.56L204.06 219.14C205.42 220.22 207 220.74 208.68 220.74C212.22 220.74 213.72 218.68 213.72 216.56V216.26C213.72 214.6 212.74 213.28 210.8 212.94C212.58 212.3 213.06 210.82 213.06 209.68V209.48C213.06 207.32 211.36 205.88 208.7 205.88C206.54 205.88 205.34 206.84 204.5 208.04L205.92 209.08ZM225.127 207.62V206.1H215.147V207.82H222.987L217.267 220.52H219.427L225.127 207.62ZM226.814 221.34H229.094V219.04H226.814V221.34ZM240.213 206.86C239.133 206.2 237.773 205.88 236.473 205.88C233.233 205.88 230.933 207.74 230.933 214.06V214.8C230.933 218.66 232.713 220.74 235.953 220.74C238.893 220.74 240.873 218.86 240.873 216.1V215.66C240.873 212.84 238.893 211.06 236.333 211.06C234.733 211.06 233.373 211.86 232.893 212.7C233.033 208.9 234.393 207.7 236.353 207.7C237.493 207.7 238.553 208.02 239.453 208.54L240.213 206.86ZM232.953 215.62C232.953 214.04 234.173 212.82 235.933 212.82C237.693 212.82 238.893 213.82 238.893 215.74V216C238.893 217.88 237.733 218.94 235.873 218.94C234.073 218.94 232.953 217.76 232.953 215.9V215.62Z" fill="white"/>
<path d="M525.52 206.86C524.44 206.2 523.08 205.88 521.78 205.88C518.54 205.88 516.24 207.74 516.24 214.06V214.8C516.24 218.66 518.02 220.74 521.26 220.74C524.2 220.74 526.18 218.86 526.18 216.1V215.66C526.18 212.84 524.2 211.06 521.64 211.06C520.04 211.06 518.68 211.86 518.2 212.7C518.34 208.9 519.7 207.7 521.66 207.7C522.8 207.7 523.86 208.02 524.76 208.54L525.52 206.86ZM518.26 215.62C518.26 214.04 519.48 212.82 521.24 212.82C523 212.82 524.2 213.82 524.2 215.74V216C524.2 217.88 523.04 218.94 521.18 218.94C519.38 218.94 518.26 217.76 518.26 215.9V215.62ZM527.287 218.86V220.52H536.967V218.8H529.727L534.227 214C535.527 212.62 536.447 211.26 536.447 209.7V209.5C536.447 207.4 534.867 205.88 531.947 205.88C529.287 205.88 528.007 207.54 527.327 208.78L528.847 209.76C529.787 208.08 530.927 207.66 531.987 207.66C533.487 207.66 534.467 208.36 534.467 209.5V209.66C534.467 210.42 534.307 211.22 532.667 213.02L527.287 218.86ZM538.814 221.34H541.094V219.04H538.814V221.34ZM549.433 211.32V215.74H544.553L551.193 206.1H549.013L542.233 215.94V217.42H549.433V220.52H551.393V217.42H553.433V215.74H551.393V211.32H549.433Z" fill="white"/>
<path d="M233 113H64V167H233V113Z" fill="#CCCCCC"/>
<path d="M564 113H233V167H564V113Z" fill="#5082E6"/>
<path d="M186.92 135.08C187.7 134.06 188.54 133.64 189.72 133.64C191.02 133.64 192.1 134.28 192.1 135.54V135.7C192.1 136.94 191.48 138.14 189.68 138.14H187.98V139.86H189.76C191.44 139.86 192.74 140.42 192.74 142.32V142.58C192.74 143.88 191.78 144.94 189.68 144.94C188.44 144.94 187.44 144.58 186.04 143.56L185.06 145.14C186.42 146.22 188 146.74 189.68 146.74C193.22 146.74 194.72 144.68 194.72 142.56V142.26C194.72 140.6 193.74 139.28 191.8 138.94C193.58 138.3 194.06 136.82 194.06 135.68V135.48C194.06 133.32 192.36 131.88 189.7 131.88C187.54 131.88 186.34 132.84 185.5 134.04L186.92 135.08ZM197.927 135.08C198.707 134.06 199.547 133.64 200.727 133.64C202.027 133.64 203.107 134.28 203.107 135.54V135.7C203.107 136.94 202.487 138.14 200.687 138.14H198.987V139.86H200.767C202.447 139.86 203.747 140.42 203.747 142.32V142.58C203.747 143.88 202.787 144.94 200.687 144.94C199.447 144.94 198.447 144.58 197.047 143.56L196.067 145.14C197.427 146.22 199.007 146.74 200.687 146.74C204.227 146.74 205.727 144.68 205.727 142.56V142.26C205.727 140.6 204.747 139.28 202.807 138.94C204.587 138.3 205.067 136.82 205.067 135.68V135.48C205.067 133.32 203.367 131.88 200.707 131.88C198.547 131.88 197.347 132.84 196.507 134.04L197.927 135.08ZM207.814 147.34H210.094V145.04H207.814V147.34ZM214.393 135.8C214.393 134.44 215.373 133.62 216.793 133.62C218.233 133.62 219.193 134.44 219.193 135.8V136.02C219.193 137.44 218.153 138.3 216.793 138.3C215.453 138.3 214.393 137.44 214.393 136.02V135.8ZM214.013 142.46C214.013 140.86 215.253 140.04 216.813 140.04C218.393 140.04 219.573 140.9 219.573 142.46V142.68C219.573 144.04 218.533 144.96 216.813 144.96C215.093 144.96 214.013 144.04 214.013 142.68V142.46ZM211.973 142.78C211.973 145.08 213.773 146.74 216.793 146.74C219.813 146.74 221.613 145.08 221.613 142.78V142.44C221.613 140.86 220.533 139.54 219.133 139.12C220.533 138.4 221.193 137.16 221.193 135.94V135.66C221.193 133.6 219.573 131.88 216.793 131.88C213.973 131.88 212.393 133.6 212.393 135.66V135.94C212.393 137.16 213.073 138.46 214.453 139.12C213.073 139.54 211.973 140.86 211.973 142.44V142.78Z" fill="white"/>
<path d="M525.52 132.86C524.44 132.2 523.08 131.88 521.78 131.88C518.54 131.88 516.24 133.74 516.24 140.06V140.8C516.24 144.66 518.02 146.74 521.26 146.74C524.2 146.74 526.18 144.86 526.18 142.1V141.66C526.18 138.84 524.2 137.06 521.64 137.06C520.04 137.06 518.68 137.86 518.2 138.7C518.34 134.9 519.7 133.7 521.66 133.7C522.8 133.7 523.86 134.02 524.76 134.54L525.52 132.86ZM518.26 141.62C518.26 140.04 519.48 138.82 521.24 138.82C523 138.82 524.2 139.82 524.2 141.74V142C524.2 143.88 523.04 144.94 521.18 144.94C519.38 144.94 518.26 143.76 518.26 141.9V141.62ZM536.527 132.86C535.447 132.2 534.087 131.88 532.787 131.88C529.547 131.88 527.247 133.74 527.247 140.06V140.8C527.247 144.66 529.027 146.74 532.267 146.74C535.207 146.74 537.187 144.86 537.187 142.1V141.66C537.187 138.84 535.207 137.06 532.647 137.06C531.047 137.06 529.687 137.86 529.207 138.7C529.347 134.9 530.707 133.7 532.667 133.7C533.807 133.7 534.867 134.02 535.767 134.54L536.527 132.86ZM529.267 141.62C529.267 140.04 530.487 138.82 532.247 138.82C534.007 138.82 535.207 139.82 535.207 141.74V142C535.207 143.88 534.047 144.94 532.187 144.94C530.387 144.94 529.267 143.76 529.267 141.9V141.62ZM538.814 147.34H541.094V145.04H538.814V147.34ZM542.973 144.86V146.52H552.653V144.8H545.413L549.913 140C551.213 138.62 552.133 137.26 552.133 135.7V135.5C552.133 133.4 550.553 131.88 547.633 131.88C544.973 131.88 543.693 133.54 543.013 134.78L544.533 135.76C545.473 134.08 546.613 133.66 547.673 133.66C549.173 133.66 550.153 134.36 550.153 135.5V135.66C550.153 136.42 549.993 137.22 548.353 139.02L542.973 144.86Z" fill="white"/>
<path d="M1.54 219.32V220.52H10.7V219.24H3.3L7.78 213.98C9.02 212.54 10.18 211.24 10.18 209.68V209.48C10.18 207.32 8.54 205.88 5.98 205.88C3.58 205.88 2.24 207.4 1.56 208.64L2.68 209.34C3.62 207.66 4.76 207.16 6.02 207.16C7.76 207.16 8.76 208.06 8.76 209.5V209.66C8.76 210.42 8.5 211.16 6.92 213.02L1.54 219.32ZM21.6922 212.18C21.6922 208.14 20.1722 205.88 16.7722 205.88C13.4122 205.88 11.8922 208.14 11.8922 212.18V214.42C11.8922 218.46 13.3522 220.74 16.7722 220.74C20.2322 220.74 21.6922 218.5 21.6922 214.42V212.18ZM20.2522 214.44C20.2522 218.04 19.0722 219.48 16.7722 219.48C14.5522 219.48 13.3322 218.02 13.3322 214.44V212.16C13.3322 208.62 14.5522 207.14 16.7722 207.14C19.0722 207.14 20.2522 208.6 20.2522 212.16V214.44ZM23.1244 219.32V220.52H32.2844V219.24H24.8844L29.3644 213.98C30.6044 212.54 31.7644 211.24 31.7644 209.68V209.48C31.7644 207.32 30.1244 205.88 27.5644 205.88C25.1644 205.88 23.8244 207.4 23.1444 208.64L24.2644 209.34C25.2044 207.66 26.3444 207.16 27.6044 207.16C29.3444 207.16 30.3444 208.06 30.3444 209.5V209.66C30.3444 210.42 30.0844 211.16 28.5044 213.02L23.1244 219.32ZM43.2766 212.18C43.2766 208.14 41.7566 205.88 38.3566 205.88C34.9966 205.88 33.4766 208.14 33.4766 212.18V214.42C33.4766 218.46 34.9366 220.74 38.3566 220.74C41.8166 220.74 43.2766 218.5 43.2766 214.42V212.18ZM41.8366 214.44C41.8366 218.04 40.6566 219.48 38.3566 219.48C36.1366 219.48 34.9166 218.02 34.9166 214.44V212.16C34.9166 208.62 36.1366 207.14 38.3566 207.14C40.6566 207.14 41.8366 208.6 41.8366 212.16V214.44Z" fill="#222222"/>
<path d="M1.54 145.32V146.52H10.7V145.24H3.3L7.78 139.98C9.02 138.54 10.18 137.24 10.18 135.68V135.48C10.18 133.32 8.54 131.88 5.98 131.88C3.58 131.88 2.24 133.4 1.56 134.64L2.68 135.34C3.62 133.66 4.76 133.16 6.02 133.16C7.76 133.16 8.76 134.06 8.76 135.5V135.66C8.76 136.42 8.5 137.16 6.92 139.02L1.54 145.32ZM21.6922 138.18C21.6922 134.14 20.1722 131.88 16.7722 131.88C13.4122 131.88 11.8922 134.14 11.8922 138.18V140.42C11.8922 144.46 13.3522 146.74 16.7722 146.74C20.2322 146.74 21.6922 144.5 21.6922 140.42V138.18ZM20.2522 140.44C20.2522 144.04 19.0722 145.48 16.7722 145.48C14.5522 145.48 13.3322 144.02 13.3322 140.44V138.16C13.3322 134.62 14.5522 133.14 16.7722 133.14C19.0722 133.14 20.2522 134.6 20.2522 138.16V140.44ZM23.1244 145.32V146.52H32.2844V145.24H24.8844L29.3644 139.98C30.6044 138.54 31.7644 137.24 31.7644 135.68V135.48C31.7644 133.32 30.1244 131.88 27.5644 131.88C25.1644 131.88 23.8244 133.4 23.1444 134.64L24.2644 135.34C25.2044 133.66 26.3444 133.16 27.6044 133.16C29.3444 133.16 30.3444 134.06 30.3444 135.5V135.66C30.3444 136.42 30.0844 137.16 28.5044 139.02L23.1244 145.32ZM39.9966 146.52V132.1H38.9366L34.4766 134.86L35.1166 135.98L38.5966 133.86V146.52H39.9966Z" fill="#222222"/>
<path d="M1.54 71.32V72.52H10.7V71.24H3.3L7.78 65.98C9.02 64.54 10.18 63.24 10.18 61.68V61.48C10.18 59.32 8.54 57.88 5.98 57.88C3.58 57.88 2.24 59.4 1.56 60.64L2.68 61.34C3.62 59.66 4.76 59.16 6.02 59.16C7.76 59.16 8.76 60.06 8.76 61.5V61.66C8.76 62.42 8.5 63.16 6.92 65.02L1.54 71.32ZM21.6922 64.18C21.6922 60.14 20.1722 57.88 16.7722 57.88C13.4122 57.88 11.8922 60.14 11.8922 64.18V66.42C11.8922 70.46 13.3522 72.74 16.7722 72.74C20.2322 72.74 21.6922 70.5 21.6922 66.42V64.18ZM20.2522 66.44C20.2522 70.04 19.0722 71.48 16.7722 71.48C14.5522 71.48 13.3322 70.02 13.3322 66.44V64.16C13.3322 60.62 14.5522 59.14 16.7722 59.14C19.0722 59.14 20.2522 60.6 20.2522 64.16V66.44ZM23.1244 71.32V72.52H32.2844V71.24H24.8844L29.3644 65.98C30.6044 64.54 31.7644 63.24 31.7644 61.68V61.48C31.7644 59.32 30.1244 57.88 27.5644 57.88C25.1644 57.88 23.8244 59.4 23.1444 60.64L24.2644 61.34C25.2044 59.66 26.3444 59.16 27.6044 59.16C29.3444 59.16 30.3444 60.06 30.3444 61.5V61.66C30.3444 62.42 30.0844 63.16 28.5044 65.02L23.1244 71.32ZM33.9166 71.32V72.52H43.0766V71.24H35.6766L40.1566 65.98C41.3966 64.54 42.5566 63.24 42.5566 61.68V61.48C42.5566 59.32 40.9166 57.88 38.3566 57.88C35.9566 57.88 34.6166 59.4 33.9366 60.64L35.0566 61.34C35.9966 59.66 37.1366 59.16 38.3966 59.16C40.1366 59.16 41.1366 60.06 41.1366 61.5V61.66C41.1366 62.42 40.8766 63.16 39.2966 65.02L33.9166 71.32Z" fill="#222222"/>
<path d="M517.265 7.14C517.265 4.74 517.85 2.49 519.32 0.51H518.36C516.875 2.28 516.155 4.545 516.155 7.215V7.815C516.155 10.485 516.875 12.78 518.36 14.55H519.32C517.775 12.435 517.265 10.17 517.265 7.89V7.14ZM522.762 12.51C524.037 12.51 524.877 11.88 525.252 11.265V12.39H526.257V4.305H525.237V9.555C525.237 10.5 524.277 11.58 522.912 11.58C521.307 11.58 520.962 10.62 520.962 9.465V4.305H519.942V9.72C519.942 11.4 520.917 12.51 522.762 12.51ZM531.254 4.155C529.979 4.155 529.154 4.815 528.779 5.43V4.305H527.774V12.39H528.794V7.14C528.794 6.195 529.739 5.085 531.104 5.085C532.709 5.085 533.144 6.045 533.144 7.2V12.39H534.164V6.945C534.164 5.265 533.099 4.155 531.254 4.155ZM535.649 12.39H536.669V4.305H535.649V12.39ZM535.604 2.76H536.714V1.62H535.604V2.76ZM538.85 10.14C538.85 11.895 539.525 12.465 540.935 12.465C541.37 12.465 541.985 12.39 542.3 12.27L542.15 11.43C541.775 11.535 541.415 11.58 541.01 11.58C540.2 11.58 539.87 11.19 539.87 10.095V5.175H542.105V4.305H539.87V2.22H538.85V4.305H537.47V5.175H538.85V10.14ZM543.466 11.625H544.981V10.125H543.466V11.625ZM543.466 4.995H544.981V3.495H543.466V4.995ZM549.371 12.375L555.821 1.575H554.876L548.411 12.375H549.371ZM555.266 6.855C553.811 6.855 552.941 7.77 552.941 9.345V10.02C552.941 11.595 553.811 12.51 555.266 12.51C556.721 12.51 557.591 11.595 557.591 10.02V9.345C557.591 7.77 556.721 6.855 555.266 6.855ZM555.266 11.745C554.396 11.745 553.811 11.25 553.811 9.99V9.375C553.811 8.13 554.396 7.62 555.266 7.62C556.136 7.62 556.721 8.13 556.721 9.375V9.99C556.721 11.25 556.136 11.745 555.266 11.745ZM548.981 1.455C547.526 1.455 546.656 2.37 546.656 3.945V4.62C546.656 6.195 547.526 7.11 548.981 7.11C550.436 7.11 551.306 6.195 551.306 4.62V3.945C551.306 2.37 550.436 1.455 548.981 1.455ZM548.981 6.345C548.111 6.345 547.526 5.85 547.526 4.59V3.975C547.526 2.73 548.111 2.22 548.981 2.22C549.851 2.22 550.436 2.73 550.436 3.975V4.59C550.436 5.85 549.851 6.345 548.981 6.345ZM560.173 7.89C560.173 10.17 559.663 12.435 558.118 14.55H559.078C560.563 12.78 561.283 10.485 561.283 7.815V7.215C561.283 4.545 560.563 2.28 559.078 0.51H558.118C559.588 2.49 560.173 4.74 560.173 7.14V7.89Z" fill="#555555"/>
<path d="M164.925 303.1V317.52H174.045V315.82H166.905V310.98H173.485V309.28H166.905V304.8H173.905V303.1H164.925ZM190.618 310.34C190.618 307.82 189.238 306.38 186.998 306.38C185.278 306.38 184.298 307.14 183.598 308.2C183.038 307.04 181.918 306.38 180.458 306.38C178.938 306.38 177.958 307.1 177.538 308.06H177.518V306.58H175.598V317.52H177.538V310.6C177.538 308.88 178.878 308.14 180.078 308.14C181.458 308.14 182.138 309.06 182.138 310.96V317.52H184.078V310.7C184.078 308.92 185.398 308.14 186.618 308.14C187.998 308.14 188.678 309.06 188.678 310.96V317.52H190.618V310.34ZM194.266 306.58H192.386V321.8H194.326V316.32C194.766 316.96 195.726 317.68 197.346 317.68C199.966 317.68 201.726 316 201.726 312.98V311.04C201.726 308.16 200.226 306.38 197.466 306.38C196.166 306.38 194.906 306.82 194.266 307.94V306.58ZM194.306 310.86C194.306 309.16 195.606 308.08 197.186 308.08C198.806 308.08 199.806 309.28 199.806 311.36V312.7C199.806 314.76 198.826 315.98 197.186 315.98C195.506 315.98 194.306 314.76 194.306 313.62V310.86ZM203.1 302.4V317.52H205.04V302.4H203.1ZM211.279 306.38C208.279 306.38 206.399 308.18 206.399 311.36V312.7C206.399 315.86 208.279 317.68 211.279 317.68C214.279 317.68 216.159 315.86 216.159 312.7V311.36C216.159 308.2 214.279 306.38 211.279 306.38ZM211.279 315.98C209.539 315.98 208.359 314.86 208.359 312.54V311.52C208.359 309.2 209.539 308.08 211.279 308.08C213.019 308.08 214.199 309.2 214.199 311.52V312.54C214.199 314.86 213.019 315.98 211.279 315.98ZM221.157 315.32L218.257 306.58H216.157L220.137 317.68L218.717 321.42L220.477 322.04L226.157 306.58H224.117L221.237 315.32H221.157ZM241.727 310.34C241.727 307.82 240.347 306.38 238.107 306.38C236.387 306.38 235.407 307.14 234.707 308.2C234.147 307.04 233.027 306.38 231.567 306.38C230.047 306.38 229.067 307.1 228.647 308.06H228.627V306.58H226.707V317.52H228.647V310.6C228.647 308.88 229.987 308.14 231.187 308.14C232.567 308.14 233.247 309.06 233.247 310.96V317.52H235.187V310.7C235.187 308.92 236.507 308.14 237.727 308.14C239.107 308.14 239.787 309.06 239.787 310.96V317.52H241.727V310.34ZM247.636 308.04C249.296 308.04 250.336 309.12 250.336 310.8V311.16H244.856V310.88C244.856 309.2 246.016 308.04 247.636 308.04ZM251.136 315.02C250.196 315.62 249.236 316 247.816 316C246.076 316 244.856 314.88 244.856 312.82V312.74H252.216V311.28C252.216 308.16 250.436 306.38 247.636 306.38C244.936 306.38 242.936 308.08 242.936 311.4V312.64C242.936 316.18 245.036 317.68 247.736 317.68C249.716 317.68 250.996 317.14 251.956 316.48L251.136 315.02ZM262.429 310.28C262.429 307.64 260.709 306.38 258.589 306.38C257.089 306.38 255.969 306.94 255.309 307.96H255.289V306.58H253.409V317.52H255.349V310.74C255.349 309.02 256.789 308.1 258.109 308.1C259.729 308.1 260.489 308.88 260.489 310.72V317.52H262.429V310.28ZM264.861 314.46C264.861 316.66 265.821 317.68 267.901 317.68C268.681 317.68 269.501 317.5 269.941 317.32L269.641 315.76C269.141 315.94 268.681 316.02 268.201 316.02C267.381 316.02 266.801 315.8 266.801 314.46V308.24H269.681V306.58H266.801V303.82H264.861V306.58H263.061V308.24H264.861V314.46ZM281.095 306.6C280.655 306.46 280.175 306.38 279.675 306.38C278.075 306.38 277.095 307.1 276.455 308.32H276.435V306.58H274.555V317.52H276.495V311.14C276.495 309.42 277.735 308.22 279.175 308.22C279.695 308.22 280.135 308.32 280.515 308.48L281.095 306.6ZM284.735 317.68C285.695 317.68 286.335 317.5 286.915 317.18C287.335 316.94 287.735 316.6 287.935 316.2H287.955V317.52H289.815V309.86C289.815 307.66 288.095 306.38 285.655 306.38C283.895 306.38 282.595 307.02 281.535 307.76L282.495 309.2C283.515 308.54 284.355 308.1 285.635 308.1C287.235 308.1 287.895 308.8 287.895 310.26V310.9H285.115C282.315 310.9 281.135 312.2 281.135 314.06V314.6C281.135 316.52 282.535 317.68 284.735 317.68ZM287.895 313.62C287.895 314.44 287.675 314.92 287.155 315.32C286.575 315.78 285.895 316 284.935 316C283.895 316 283.035 315.54 283.035 314.48V314.2C283.035 313.16 283.635 312.54 285.155 312.54H287.895V313.62ZM292.327 314.46C292.327 316.66 293.287 317.68 295.367 317.68C296.147 317.68 296.967 317.5 297.407 317.32L297.107 315.76C296.607 315.94 296.147 316.02 295.667 316.02C294.847 316.02 294.267 315.8 294.267 314.46V308.24H297.147V306.58H294.267V303.82H292.327V306.58H290.527V308.24H292.327V314.46ZM302.361 308.04C304.021 308.04 305.061 309.12 305.061 310.8V311.16H299.581V310.88C299.581 309.2 300.741 308.04 302.361 308.04ZM305.861 315.02C304.921 315.62 303.961 316 302.541 316C300.801 316 299.581 314.88 299.581 312.82V312.74H306.941V311.28C306.941 308.16 305.161 306.38 302.361 306.38C299.661 306.38 297.661 308.08 297.661 311.4V312.64C297.661 316.18 299.761 317.68 302.461 317.68C304.441 317.68 305.721 317.14 306.681 316.48L305.861 315.02ZM316.254 306.38C313.254 306.38 311.374 308.18 311.374 311.36V312.7C311.374 315.86 313.254 317.68 316.254 317.68C319.254 317.68 321.134 315.86 321.134 312.7V311.36C321.134 308.2 319.254 306.38 316.254 306.38ZM316.254 315.98C314.514 315.98 313.334 314.86 313.334 312.54V311.52C313.334 309.2 314.514 308.08 316.254 308.08C317.994 308.08 319.174 309.2 319.174 311.52V312.54C319.174 314.86 317.994 315.98 316.254 315.98ZM323.172 317.52H325.112V308.24H327.992V306.58H325.112V305.58C325.112 304.16 325.792 303.94 326.532 303.94C327.012 303.94 327.512 304 328.012 304.14L328.312 302.56C327.872 302.4 327.052 302.28 326.352 302.28C324.272 302.28 323.172 303.3 323.172 305.5V306.58H321.372V308.24H323.172V317.52ZM333.272 317.52H335.212V308.24H338.092V306.58H335.212V305.58C335.212 304.16 335.892 303.94 336.632 303.94C337.112 303.94 337.612 304 338.112 304.14L338.412 302.56C337.972 302.4 337.152 302.28 336.452 302.28C334.372 302.28 333.272 303.3 333.272 305.5V306.58H331.472V308.24H333.272V317.52ZM338.732 313.82C338.732 316.46 340.412 317.72 342.532 317.72C344.032 317.72 345.112 317.16 345.772 316.14H345.792V317.52H347.672V306.58H345.732V313.36C345.732 315.08 344.332 316 343.012 316C341.392 316 340.672 315.22 340.672 313.38V306.58H338.732V313.82ZM349.586 302.4V317.52H351.526V302.4H349.586ZM353.445 302.4V317.52H355.385V302.4H353.445ZM356.663 311.16H363.183V309.48H356.663V311.16ZM365.182 314.46C365.182 316.66 366.142 317.68 368.222 317.68C369.002 317.68 369.822 317.5 370.262 317.32L369.962 315.76C369.462 315.94 369.002 316.02 368.522 316.02C367.702 316.02 367.122 315.8 367.122 314.46V308.24H370.002V306.58H367.122V303.82H365.182V306.58H363.382V308.24H365.182V314.46ZM371.135 306.58V317.52H373.075V306.58H371.135ZM371.075 302.66V304.78H373.135V302.66H371.075ZM390.071 310.34C390.071 307.82 388.691 306.38 386.451 306.38C384.731 306.38 383.751 307.14 383.051 308.2C382.491 307.04 381.371 306.38 379.911 306.38C378.391 306.38 377.411 307.1 376.991 308.06H376.971V306.58H375.051V317.52H376.991V310.6C376.991 308.88 378.331 308.14 379.531 308.14C380.911 308.14 381.591 309.06 381.591 310.96V317.52H383.531V310.7C383.531 308.92 384.851 308.14 386.071 308.14C387.451 308.14 388.131 309.06 388.131 310.96V317.52H390.071V310.34ZM395.979 308.04C397.639 308.04 398.679 309.12 398.679 310.8V311.16H393.199V310.88C393.199 309.2 394.359 308.04 395.979 308.04ZM399.479 315.02C398.539 315.62 397.579 316 396.159 316C394.419 316 393.199 314.88 393.199 312.82V312.74H400.559V311.28C400.559 308.16 398.779 306.38 395.979 306.38C393.279 306.38 391.279 308.08 391.279 311.4V312.64C391.279 316.18 393.379 317.68 396.079 317.68C398.059 317.68 399.339 317.14 400.299 316.48L399.479 315.02ZM411.673 309L413.893 317.52H416.173L418.973 306.58H417.053L415.013 315.5H414.973L412.673 306.58H410.713L408.393 315.5H408.353L406.353 306.58H404.313L407.153 317.52H409.433L411.633 309H411.673ZM423.907 306.38C420.907 306.38 419.027 308.18 419.027 311.36V312.7C419.027 315.86 420.907 317.68 423.907 317.68C426.907 317.68 428.787 315.86 428.787 312.7V311.36C428.787 308.2 426.907 306.38 423.907 306.38ZM423.907 315.98C422.167 315.98 420.987 314.86 420.987 312.54V311.52C420.987 309.2 422.167 308.08 423.907 308.08C425.647 308.08 426.827 309.2 426.827 311.52V312.54C426.827 314.86 425.647 315.98 423.907 315.98ZM436.685 306.6C436.245 306.46 435.765 306.38 435.265 306.38C433.665 306.38 432.685 307.1 432.045 308.32H432.025V306.58H430.145V317.52H432.085V311.14C432.085 309.42 433.325 308.22 434.765 308.22C435.285 308.22 435.725 308.32 436.105 308.48L436.685 306.6ZM446.405 306.58H443.905L439.225 311.5V302.4H437.285V317.52H439.225V313.86L440.745 312.32L444.225 317.52H446.665L442.085 310.96L446.405 306.58ZM451.162 308.04C452.822 308.04 453.862 309.12 453.862 310.8V311.16H448.382V310.88C448.382 309.2 449.542 308.04 451.162 308.04ZM454.662 315.02C453.722 315.62 452.762 316 451.342 316C449.602 316 448.382 314.88 448.382 312.82V312.74H455.742V311.28C455.742 308.16 453.962 306.38 451.162 306.38C448.462 306.38 446.462 308.08 446.462 311.4V312.64C446.462 316.18 448.562 317.68 451.262 317.68C453.242 317.68 454.522 317.14 455.482 316.48L454.662 315.02ZM463.475 306.6C463.035 306.46 462.555 306.38 462.055 306.38C460.455 306.38 459.475 307.1 458.835 308.32H458.815V306.58H456.935V317.52H458.875V311.14C458.875 309.42 460.115 308.22 461.555 308.22C462.075 308.22 462.515 308.32 462.895 308.48L463.475 306.6Z" fill="#222222"/>
<path d="M71.38 268.29L76.21 263.475L75.61 262.845L70.78 267.69L65.995 262.845L65.38 263.505L70.18 268.32L65.35 273.12L65.98 273.75L70.765 268.905L75.565 273.75L76.24 273.09L71.38 268.29ZM71.71 263.835C71.71 263.28 71.23 262.8 70.675 262.8C70.12 262.8 69.64 263.28 69.64 263.835C69.64 264.39 70.135 264.885 70.69 264.885C71.26 264.885 71.725 264.39 71.725 263.835H71.71ZM67.255 268.335C67.255 267.765 66.775 267.285 66.22 267.285C65.68 267.285 65.185 267.765 65.185 268.335C65.185 268.875 65.695 269.355 66.235 269.355C66.805 269.355 67.27 268.875 67.27 268.335H67.255ZM76.465 268.335C76.465 267.735 75.97 267.285 75.415 267.285C74.86 267.285 74.395 267.735 74.395 268.335C74.395 268.875 74.89 269.34 75.43 269.34C75.985 269.34 76.465 268.875 76.465 268.335ZM71.725 272.955C71.725 272.37 71.23 271.905 70.675 271.905C70.12 271.905 69.67 272.37 69.67 272.955C69.67 273.495 70.135 273.975 70.69 273.975C71.26 273.975 71.725 273.495 71.725 272.955ZM80.8473 273.39H84.7623C87.1023 273.39 88.2273 272.31 88.2273 270.54V270.165C88.2273 268.665 87.3123 267.885 85.9923 267.69C87.2823 267.375 87.7323 266.475 87.7323 265.53V265.215C87.7323 263.445 86.5923 262.575 84.2973 262.575H80.8473V273.39ZM81.8823 268.185H84.3423C86.5023 268.185 87.1623 268.875 87.1623 270.195V270.525C87.1623 271.8 86.3673 272.46 84.6723 272.46H81.8823V268.185ZM84.2223 263.49C85.9173 263.49 86.6823 263.955 86.6823 265.23V265.5C86.6823 266.85 85.8273 267.3 84.3273 267.3H81.8823V263.49H84.2223ZM91.3209 273.51C91.9359 273.51 92.5059 273.39 92.9559 273.165C93.3759 272.955 93.7059 272.655 93.8559 272.4H93.8709V273.39H94.8609V267.735C94.8609 266.1 93.7509 265.155 91.9509 265.155C90.7209 265.155 89.8059 265.59 89.0559 266.115L89.5509 266.895C90.2409 266.415 91.0659 266.07 91.9359 266.07C93.1959 266.07 93.8559 266.73 93.8559 267.9V268.65H91.5759C89.7009 268.65 88.7259 269.565 88.7259 270.87V271.2C88.7259 272.625 89.7909 273.51 91.3209 273.51ZM93.8559 270.87C93.8559 271.485 93.5259 271.89 93.0909 272.16C92.6109 272.46 92.1159 272.625 91.4709 272.625C90.6459 272.625 89.7459 272.205 89.7459 271.155V270.915C89.7459 270.09 90.3009 269.505 91.5909 269.505H93.8559V270.87ZM98.7939 272.595C97.8489 272.595 96.9789 272.25 96.2439 271.755L95.7489 272.565C96.5139 273.12 97.5489 273.51 98.8539 273.51C100.564 273.51 101.824 272.61 101.824 271.32V271.095C101.824 269.805 100.984 269.16 98.9889 268.785C97.7139 268.545 96.9639 268.185 96.9639 267.48V267.315C96.9639 266.61 97.6239 266.055 98.8389 266.055C99.8739 266.055 100.504 266.31 101.179 266.76L101.644 265.995C100.984 265.5 100.099 265.155 98.8689 265.155C96.8889 265.155 95.9439 266.145 95.9439 267.3V267.51C95.9439 268.83 97.0089 269.355 98.6289 269.67C100.174 269.97 100.804 270.33 100.804 271.14V271.29C100.804 271.98 100.099 272.595 98.7939 272.595ZM103.401 268.815V268.68C103.401 267.09 104.241 266.055 105.666 266.055C107.076 266.055 107.901 267 107.901 268.68V268.815H103.401ZM108.291 271.815C107.706 272.235 106.896 272.61 105.816 272.61C104.331 272.61 103.401 271.59 103.401 269.805V269.67H108.921V268.83C108.921 266.565 107.766 265.155 105.666 265.155C103.641 265.155 102.381 266.505 102.381 268.8V269.805C102.381 272.16 103.656 273.51 105.801 273.51C107.166 273.51 108.096 273.045 108.741 272.595L108.291 271.815ZM115.236 273.39H116.241V262.05H115.221V266.295C114.801 265.695 113.991 265.155 112.806 265.155C110.961 265.155 109.596 266.415 109.596 268.62V270.045C109.596 272.25 110.961 273.51 112.821 273.51C113.751 273.51 114.771 273.135 115.221 272.325H115.236V273.39ZM110.616 268.77C110.616 267.06 111.501 266.055 112.866 266.055C114.246 266.055 115.221 267.12 115.221 268.065V270.495C115.221 271.92 114.171 272.61 112.866 272.61C111.516 272.61 110.616 271.62 110.616 269.895V268.77ZM123.653 265.155C121.493 265.155 120.218 266.49 120.218 268.83V269.835C120.218 272.16 121.493 273.51 123.653 273.51C125.813 273.51 127.088 272.16 127.088 269.835V268.83C127.088 266.505 125.813 265.155 123.653 265.155ZM123.653 272.61C122.168 272.61 121.253 271.68 121.253 269.775V268.89C121.253 266.985 122.168 266.055 123.653 266.055C125.138 266.055 126.053 266.985 126.053 268.89V269.775C126.053 271.68 125.138 272.61 123.653 272.61ZM131.698 265.155C130.423 265.155 129.598 265.815 129.223 266.43V265.305H128.218V273.39H129.238V268.14C129.238 267.195 130.183 266.085 131.548 266.085C133.153 266.085 133.588 267.045 133.588 268.2V273.39H134.608V267.945C134.608 266.265 133.543 265.155 131.698 265.155ZM143.384 265.32C143.054 265.2 142.679 265.155 142.229 265.155C140.999 265.155 140.249 265.95 139.904 266.73V265.305H138.899V273.39H139.919V268.8C139.919 267.285 140.759 266.19 142.094 266.19C142.484 266.19 142.799 266.25 143.069 266.355L143.384 265.32ZM144.503 268.815V268.68C144.503 267.09 145.343 266.055 146.768 266.055C148.178 266.055 149.003 267 149.003 268.68V268.815H144.503ZM149.393 271.815C148.808 272.235 147.998 272.61 146.918 272.61C145.433 272.61 144.503 271.59 144.503 269.805V269.67H150.023V268.83C150.023 266.565 148.868 265.155 146.768 265.155C144.743 265.155 143.483 266.505 143.483 268.8V269.805C143.483 272.16 144.758 273.51 146.903 273.51C148.268 273.51 149.198 273.045 149.843 272.595L149.393 271.815ZM154.029 265.155C152.049 265.155 150.684 266.445 150.684 268.8V269.805C150.684 272.16 151.944 273.51 154.044 273.51C155.499 273.51 156.324 273.045 156.909 272.595L156.429 271.785C155.844 272.22 155.184 272.58 154.059 272.58C152.619 272.58 151.719 271.575 151.719 269.805V268.77C151.719 267.09 152.604 266.07 154.029 266.07C154.794 266.07 155.469 266.22 156.219 266.745L156.684 265.95C156.009 265.44 155.169 265.155 154.029 265.155ZM160.631 265.155C158.471 265.155 157.196 266.49 157.196 268.83V269.835C157.196 272.16 158.471 273.51 160.631 273.51C162.791 273.51 164.066 272.16 164.066 269.835V268.83C164.066 266.505 162.791 265.155 160.631 265.155ZM160.631 272.61C159.146 272.61 158.231 271.68 158.231 269.775V268.89C158.231 266.985 159.146 266.055 160.631 266.055C162.116 266.055 163.031 266.985 163.031 268.89V269.775C163.031 271.68 162.116 272.61 160.631 272.61ZM169.681 265.32C169.351 265.2 168.976 265.155 168.526 265.155C167.296 265.155 166.546 265.95 166.201 266.73V265.305H165.196V273.39H166.216V268.8C166.216 267.285 167.056 266.19 168.391 266.19C168.781 266.19 169.096 266.25 169.366 266.355L169.681 265.32ZM175.435 273.39H176.44V262.05H175.42V266.295C175 265.695 174.19 265.155 173.005 265.155C171.16 265.155 169.795 266.415 169.795 268.62V270.045C169.795 272.25 171.16 273.51 173.02 273.51C173.95 273.51 174.97 273.135 175.42 272.325H175.435V273.39ZM170.815 268.77C170.815 267.06 171.7 266.055 173.065 266.055C174.445 266.055 175.42 267.12 175.42 268.065V270.495C175.42 271.92 174.37 272.61 173.065 272.61C171.715 272.61 170.815 271.62 170.815 269.895V268.77ZM178.587 268.815V268.68C178.587 267.09 179.427 266.055 180.852 266.055C182.262 266.055 183.087 267 183.087 268.68V268.815H178.587ZM183.477 271.815C182.892 272.235 182.082 272.61 181.002 272.61C179.517 272.61 178.587 271.59 178.587 269.805V269.67H184.107V268.83C184.107 266.565 182.952 265.155 180.852 265.155C178.827 265.155 177.567 266.505 177.567 268.8V269.805C177.567 272.16 178.842 273.51 180.987 273.51C182.352 273.51 183.282 273.045 183.927 272.595L183.477 271.815ZM190.423 273.39H191.428V262.05H190.408V266.295C189.988 265.695 189.178 265.155 187.993 265.155C186.148 265.155 184.783 266.415 184.783 268.62V270.045C184.783 272.25 186.148 273.51 188.008 273.51C188.938 273.51 189.958 273.135 190.408 272.325H190.423V273.39ZM185.803 268.77C185.803 267.06 186.688 266.055 188.053 266.055C189.433 266.055 190.408 267.12 190.408 268.065V270.495C190.408 271.92 189.358 272.61 188.053 272.61C186.703 272.61 185.803 271.62 185.803 269.895V268.77ZM198.344 272.595C197.399 272.595 196.529 272.25 195.794 271.755L195.299 272.565C196.064 273.12 197.099 273.51 198.404 273.51C200.114 273.51 201.374 272.61 201.374 271.32V271.095C201.374 269.805 200.534 269.16 198.539 268.785C197.264 268.545 196.514 268.185 196.514 267.48V267.315C196.514 266.61 197.174 266.055 198.389 266.055C199.424 266.055 200.054 266.31 200.729 266.76L201.194 265.995C200.534 265.5 199.649 265.155 198.419 265.155C196.439 265.155 195.494 266.145 195.494 267.3V267.51C195.494 268.83 196.559 269.355 198.179 269.67C199.724 269.97 200.354 270.33 200.354 271.14V271.29C200.354 271.98 199.649 272.595 198.344 272.595ZM202.936 271.14C202.936 272.895 203.611 273.465 205.021 273.465C205.456 273.465 206.071 273.39 206.386 273.27L206.236 272.43C205.861 272.535 205.501 272.58 205.096 272.58C204.286 272.58 203.956 272.19 203.956 271.095V266.175H206.191V265.305H203.956V263.22H202.936V265.305H201.556V266.175H202.936V271.14ZM209.411 273.51C210.026 273.51 210.596 273.39 211.046 273.165C211.466 272.955 211.796 272.655 211.946 272.4H211.961V273.39H212.951V267.735C212.951 266.1 211.841 265.155 210.041 265.155C208.811 265.155 207.896 265.59 207.146 266.115L207.641 266.895C208.331 266.415 209.156 266.07 210.026 266.07C211.286 266.07 211.946 266.73 211.946 267.9V268.65H209.666C207.791 268.65 206.816 269.565 206.816 270.87V271.2C206.816 272.625 207.881 273.51 209.411 273.51ZM211.946 270.87C211.946 271.485 211.616 271.89 211.181 272.16C210.701 272.46 210.206 272.625 209.561 272.625C208.736 272.625 207.836 272.205 207.836 271.155V270.915C207.836 270.09 208.391 269.505 209.681 269.505H211.946V270.87ZM214.949 271.14C214.949 272.895 215.624 273.465 217.034 273.465C217.469 273.465 218.084 273.39 218.399 273.27L218.249 272.43C217.874 272.535 217.514 272.58 217.109 272.58C216.299 272.58 215.969 272.19 215.969 271.095V266.175H218.204V265.305H215.969V263.22H214.949V265.305H213.569V266.175H214.949V271.14ZM219.88 268.815V268.68C219.88 267.09 220.72 266.055 222.145 266.055C223.555 266.055 224.38 267 224.38 268.68V268.815H219.88ZM224.77 271.815C224.185 272.235 223.375 272.61 222.295 272.61C220.81 272.61 219.88 271.59 219.88 269.805V269.67H225.4V268.83C225.4 266.565 224.245 265.155 222.145 265.155C220.12 265.155 218.86 266.505 218.86 268.8V269.805C218.86 272.16 220.135 273.51 222.28 273.51C223.645 273.51 224.575 273.045 225.22 272.595L224.77 271.815ZM234.684 265.155C233.394 265.155 232.584 265.935 232.224 266.625C231.864 265.695 231.069 265.155 229.779 265.155C228.594 265.155 227.874 265.785 227.514 266.43V265.305H226.509V273.39H227.529V268.14C227.529 267.195 228.264 266.085 229.599 266.085C231.054 266.085 231.414 266.91 231.414 268.215V273.39H232.434V268.08C232.464 267.15 233.199 266.085 234.504 266.085C235.959 266.085 236.319 266.91 236.319 268.215V273.39H237.339V267.945C237.339 266.235 236.514 265.155 234.684 265.155ZM239.423 268.815V268.68C239.423 267.09 240.263 266.055 241.688 266.055C243.098 266.055 243.923 267 243.923 268.68V268.815H239.423ZM244.313 271.815C243.728 272.235 242.918 272.61 241.838 272.61C240.353 272.61 239.423 271.59 239.423 269.805V269.67H244.943V268.83C244.943 266.565 243.788 265.155 241.688 265.155C239.663 265.155 238.403 266.505 238.403 268.8V269.805C238.403 272.16 239.678 273.51 241.823 273.51C243.188 273.51 244.118 273.045 244.763 272.595L244.313 271.815ZM249.531 265.155C248.256 265.155 247.431 265.815 247.056 266.43V265.305H246.051V273.39H247.071V268.14C247.071 267.195 248.016 266.085 249.381 266.085C250.986 266.085 251.421 267.045 251.421 268.2V273.39H252.441V267.945C252.441 266.265 251.376 265.155 249.531 265.155ZM254.512 271.14C254.512 272.895 255.187 273.465 256.597 273.465C257.032 273.465 257.647 273.39 257.962 273.27L257.812 272.43C257.437 272.535 257.077 272.58 256.672 272.58C255.862 272.58 255.532 272.19 255.532 271.095V266.175H257.767V265.305H255.532V263.22H254.512V265.305H253.132V266.175H254.512V271.14ZM264.707 265.155C262.547 265.155 261.272 266.49 261.272 268.83V269.835C261.272 272.16 262.547 273.51 264.707 273.51C266.867 273.51 268.142 272.16 268.142 269.835V268.83C268.142 266.505 266.867 265.155 264.707 265.155ZM264.707 272.61C263.222 272.61 262.307 271.68 262.307 269.775V268.89C262.307 266.985 263.222 266.055 264.707 266.055C266.192 266.055 267.107 266.985 267.107 268.89V269.775C267.107 271.68 266.192 272.61 264.707 272.61ZM269.933 273.39H270.953V266.175H273.188V265.305H270.953V264.33C270.953 263.235 271.283 262.845 272.093 262.845C272.498 262.845 272.858 262.89 273.233 262.995L273.383 262.155C273.068 262.035 272.453 261.96 272.018 261.96C270.668 261.96 269.933 262.53 269.933 264.285V265.305H268.553V266.175H269.933V273.39ZM279.023 273.51C279.638 273.51 280.208 273.39 280.658 273.165C281.078 272.955 281.408 272.655 281.558 272.4H281.573V273.39H282.563V267.735C282.563 266.1 281.453 265.155 279.653 265.155C278.423 265.155 277.508 265.59 276.758 266.115L277.253 266.895C277.943 266.415 278.768 266.07 279.638 266.07C280.898 266.07 281.558 266.73 281.558 267.9V268.65H279.278C277.403 268.65 276.428 269.565 276.428 270.87V271.2C276.428 272.625 277.493 273.51 279.023 273.51ZM281.558 270.87C281.558 271.485 281.228 271.89 280.793 272.16C280.313 272.46 279.818 272.625 279.173 272.625C278.348 272.625 277.448 272.205 277.448 271.155V270.915C277.448 270.09 278.003 269.505 279.293 269.505H281.558V270.87ZM284.591 273.39H285.611V266.175H287.846V265.305H285.611V264.33C285.611 263.235 285.941 262.845 286.751 262.845C287.156 262.845 287.516 262.89 287.891 262.995L288.041 262.155C287.726 262.035 287.111 261.96 286.676 261.96C285.326 261.96 284.591 262.53 284.591 264.285V265.305H283.211V266.175H284.591V273.39ZM289.301 273.39H290.321V266.175H292.556V265.305H290.321V264.33C290.321 263.235 290.651 262.845 291.461 262.845C291.866 262.845 292.226 262.89 292.601 262.995L292.751 262.155C292.436 262.035 291.821 261.96 291.386 261.96C290.036 261.96 289.301 262.53 289.301 264.285V265.305H287.921V266.175H289.301V273.39ZM295.542 273.51C296.157 273.51 296.727 273.39 297.177 273.165C297.597 272.955 297.927 272.655 298.077 272.4H298.092V273.39H299.082V267.735C299.082 266.1 297.972 265.155 296.172 265.155C294.942 265.155 294.027 265.59 293.277 266.115L293.772 266.895C294.462 266.415 295.287 266.07 296.157 266.07C297.417 266.07 298.077 266.73 298.077 267.9V268.65H295.797C293.922 268.65 292.947 269.565 292.947 270.87V271.2C292.947 272.625 294.012 273.51 295.542 273.51ZM298.077 270.87C298.077 271.485 297.747 271.89 297.312 272.16C296.832 272.46 296.337 272.625 295.692 272.625C294.867 272.625 293.967 272.205 293.967 271.155V270.915C293.967 270.09 294.522 269.505 295.812 269.505H298.077V270.87ZM300.495 273.39H301.515V265.305H300.495V273.39ZM300.45 263.76H301.56V262.62H300.45V263.76ZM307.55 265.32C307.22 265.2 306.845 265.155 306.395 265.155C305.165 265.155 304.415 265.95 304.07 266.73V265.305H303.065V273.39H304.085V268.8C304.085 267.285 304.925 266.19 306.26 266.19C306.65 266.19 306.965 266.25 307.235 266.355L307.55 265.32ZM310.59 272.595C309.645 272.595 308.775 272.25 308.04 271.755L307.545 272.565C308.31 273.12 309.345 273.51 310.65 273.51C312.36 273.51 313.62 272.61 313.62 271.32V271.095C313.62 269.805 312.78 269.16 310.785 268.785C309.51 268.545 308.76 268.185 308.76 267.48V267.315C308.76 266.61 309.42 266.055 310.635 266.055C311.67 266.055 312.3 266.31 312.975 266.76L313.44 265.995C312.78 265.5 311.895 265.155 310.665 265.155C308.685 265.155 307.74 266.145 307.74 267.3V267.51C307.74 268.83 308.805 269.355 310.425 269.67C311.97 269.97 312.6 270.33 312.6 271.14V271.29C312.6 271.98 311.895 272.595 310.59 272.595Z" fill="#555555"/>
</svg>
