<svg width="193" height="810" viewBox="0 0 193 810" fill="none" xmlns="http://www.w3.org/2000/svg">
<rect x="174" width="791" height="174" rx="87" transform="rotate(90 174 0)" fill="url(#paint0_linear_282_8384)"/>
<path d="M87.211 606.434L82.422 598.444L92 598.444L87.211 606.434Z" fill="white"/>
<path d="M87.211 401.093L82.422 393.103L92 393.103L87.211 401.093Z" fill="white"/>
<path d="M87.211 195.753L82.422 187.763L92 187.763L87.211 195.753Z" fill="white"/>
<g filter="url(#filter0_d_282_8384)">
<ellipse cx="87.1741" cy="292.904" rx="75.904" ry="75.8257" transform="rotate(90 87.1741 292.904)" fill="white"/>
</g>
<g filter="url(#filter1_d_282_8384)">
<ellipse cx="87.1741" cy="497.904" rx="75.904" ry="75.8257" transform="rotate(90 87.1741 497.904)" fill="white"/>
</g>
<g filter="url(#filter2_d_282_8384)">
<path d="M87.1741 779.808C45.2967 779.808 11.3484 745.825 11.3484 703.904C11.3484 661.983 45.2967 628 87.1741 628C129.051 628 163 661.983 163 703.904C163 745.825 129.051 779.808 87.1741 779.808Z" fill="white"/>
</g>
<g filter="url(#filter3_d_282_8384)">
<ellipse cx="87.1741" cy="86.904" rx="75.904" ry="75.8257" transform="rotate(90 87.1741 86.904)" fill="white"/>
</g>
<path d="M55.7331 78.88H54.1971L49.9091 90.416H51.5251L52.7411 87.024H57.1571L58.3731 90.416H60.0371L55.7331 78.88ZM54.1971 82.96C54.5331 82 54.6291 81.712 54.9491 80.64C55.2691 81.696 55.3651 82 55.7171 82.96L56.6771 85.664H53.2211L54.1971 82.96ZM62.1467 81.664H60.6427V93.84H62.1947V89.456C62.5467 89.968 63.3147 90.544 64.6107 90.544C66.7067 90.544 68.1147 89.2 68.1147 86.784V85.232C68.1147 82.928 66.9147 81.504 64.7067 81.504C63.6667 81.504 62.6587 81.856 62.1467 82.752V81.664ZM62.1787 85.088C62.1787 83.728 63.2187 82.864 64.4827 82.864C65.7787 82.864 66.5787 83.824 66.5787 85.488V86.56C66.5787 88.208 65.7947 89.184 64.4827 89.184C63.1387 89.184 62.1787 88.208 62.1787 87.296V85.088ZM70.7179 81.664H69.2139V93.84H70.7659V89.456C71.1179 89.968 71.8859 90.544 73.1819 90.544C75.2779 90.544 76.6859 89.2 76.6859 86.784V85.232C76.6859 82.928 75.4859 81.504 73.2779 81.504C72.2379 81.504 71.2299 81.856 70.7179 82.752V81.664ZM70.7499 85.088C70.7499 83.728 71.7899 82.864 73.0539 82.864C74.3499 82.864 75.1499 83.824 75.1499 85.488V86.56C75.1499 88.208 74.3659 89.184 73.0539 89.184C71.7099 89.184 70.7499 88.208 70.7499 87.296V85.088ZM77.7852 78.32V90.416H79.3372V78.32H77.7852ZM80.9201 81.664V90.416H82.4721V81.664H80.9201ZM80.8721 78.528V80.224H82.5201V78.528H80.8721ZM87.3807 81.504C85.0927 81.504 83.6047 82.928 83.6047 85.44V86.544C83.6047 89.056 84.9807 90.544 87.3967 90.544C88.9967 90.544 90.0207 90.048 90.6287 89.536L89.8767 88.352C89.2527 88.816 88.5647 89.152 87.4127 89.152C86.2607 89.152 85.1727 88.416 85.1727 86.528V85.424C85.1727 83.632 86.2287 82.88 87.3807 82.88C88.2287 82.88 88.8527 83.04 89.6687 83.632L90.4047 82.464C89.6847 81.92 88.8207 81.504 87.3807 81.504ZM93.6653 90.544C94.4333 90.544 94.9453 90.4 95.4093 90.144C95.7453 89.952 96.0653 89.68 96.2253 89.36H96.2413V90.416H97.7293V84.288C97.7293 82.528 96.3533 81.504 94.4013 81.504C92.9933 81.504 91.9533 82.016 91.1053 82.608L91.8733 83.76C92.6893 83.232 93.3613 82.88 94.3853 82.88C95.6653 82.88 96.1933 83.44 96.1933 84.608V85.12H93.9693C91.7293 85.12 90.7853 86.16 90.7853 87.648V88.08C90.7853 89.616 91.9053 90.544 93.6653 90.544ZM96.1933 87.296C96.1933 87.952 96.0173 88.336 95.6013 88.656C95.1373 89.024 94.5933 89.2 93.8253 89.2C92.9933 89.2 92.3053 88.832 92.3053 87.984V87.76C92.3053 86.928 92.7853 86.432 94.0013 86.432H96.1933V87.296ZM99.7392 87.968C99.7392 89.728 100.507 90.544 102.171 90.544C102.795 90.544 103.451 90.4 103.803 90.256L103.563 89.008C103.163 89.152 102.795 89.216 102.411 89.216C101.755 89.216 101.291 89.04 101.291 87.968V82.992H103.595V81.664H101.291V79.456H99.7392V81.664H98.2992V82.992H99.7392V87.968ZM104.502 81.664V90.416H106.054V81.664H104.502ZM104.454 78.528V80.224H106.102V78.528H104.454ZM111.091 81.504C108.691 81.504 107.187 82.944 107.187 85.488V86.56C107.187 89.088 108.691 90.544 111.091 90.544C113.491 90.544 114.995 89.088 114.995 86.56V85.488C114.995 82.96 113.491 81.504 111.091 81.504ZM111.091 89.184C109.699 89.184 108.755 88.288 108.755 86.432V85.616C108.755 83.76 109.699 82.864 111.091 82.864C112.483 82.864 113.427 83.76 113.427 85.616V86.432C113.427 88.288 112.483 89.184 111.091 89.184ZM123.297 84.624C123.297 82.512 121.921 81.504 120.225 81.504C119.025 81.504 118.129 81.952 117.601 82.768H117.585V81.664H116.081V90.416H117.633V84.992C117.633 83.616 118.785 82.88 119.841 82.88C121.137 82.88 121.745 83.504 121.745 84.976V90.416H123.297V84.624ZM52.9833 117.2C51.9273 117.2 51.0313 116.8 50.2473 116.272L49.5273 117.488C50.3593 118.128 51.5913 118.544 53.0473 118.544C55.0793 118.544 56.3753 117.472 56.3753 116.096V115.888C56.3753 114.272 55.3673 113.632 53.2393 113.232C51.8793 112.976 51.3513 112.72 51.3513 112.032V111.888C51.3513 111.28 51.8793 110.832 53.1753 110.832C54.0553 110.832 54.9033 111.104 55.4793 111.536L56.1673 110.368C55.3033 109.76 54.2473 109.504 53.0633 109.504C50.7913 109.504 49.7993 110.656 49.7993 111.872V112.064C49.7993 113.6 50.8713 114.224 52.8073 114.624C54.4553 114.96 54.8073 115.2 54.8073 115.936V116.064C54.8073 116.768 54.1353 117.2 52.9833 117.2ZM57.1441 115.456C57.1441 117.568 58.4881 118.576 60.1841 118.576C61.3841 118.576 62.2481 118.128 62.7761 117.312H62.7921V118.416H64.2961V109.664H62.7441V115.088C62.7441 116.464 61.6241 117.2 60.5681 117.2C59.2721 117.2 58.6961 116.576 58.6961 115.104V109.664H57.1441V115.456ZM67.3797 106.32H65.8277V118.416H67.3317V117.392H67.3637C67.7477 118.016 68.5157 118.544 69.8277 118.544C71.8757 118.544 73.2997 117.152 73.2997 114.784V113.232C73.2997 110.864 72.0837 109.504 69.8757 109.504C68.9157 109.504 67.9397 109.808 67.3797 110.672V106.32ZM67.3637 113.088C67.3637 111.728 68.4037 110.864 69.6677 110.864C70.9637 110.864 71.7637 111.824 71.7637 113.488V114.56C71.7637 116.208 70.9797 117.184 69.6677 117.184C68.3237 117.184 67.3637 116.208 67.3637 115.296V113.088ZM86.4149 112.672C86.4149 110.656 85.3109 109.504 83.5189 109.504C82.1429 109.504 81.3589 110.112 80.7989 110.96C80.3509 110.032 79.4549 109.504 78.2869 109.504C77.0709 109.504 76.2869 110.08 75.9509 110.848H75.9349V109.664H74.3989V118.416H75.9509V112.88C75.9509 111.504 77.0229 110.912 77.9829 110.912C79.0869 110.912 79.6309 111.648 79.6309 113.168V118.416H81.1829V112.96C81.1829 111.536 82.2389 110.912 83.2149 110.912C84.3189 110.912 84.8629 111.648 84.8629 113.168V118.416H86.4149V112.672ZM87.8776 109.664V118.416H89.4296V109.664H87.8776ZM87.8296 106.528V108.224H89.4776V106.528H87.8296ZM93.7302 117.2C92.6742 117.2 91.7782 116.8 90.9942 116.272L90.2742 117.488C91.1062 118.128 92.3382 118.544 93.7942 118.544C95.8262 118.544 97.1222 117.472 97.1222 116.096V115.888C97.1222 114.272 96.1142 113.632 93.9862 113.232C92.6262 112.976 92.0982 112.72 92.0982 112.032V111.888C92.0982 111.28 92.6262 110.832 93.9222 110.832C94.8022 110.832 95.6502 111.104 96.2262 111.536L96.9142 110.368C96.0502 109.76 94.9942 109.504 93.8102 109.504C91.5382 109.504 90.5462 110.656 90.5462 111.872V112.064C90.5462 113.6 91.6182 114.224 93.5542 114.624C95.2022 114.96 95.5542 115.2 95.5542 115.936V116.064C95.5542 116.768 94.8822 117.2 93.7302 117.2ZM100.739 117.2C99.6829 117.2 98.7869 116.8 98.0029 116.272L97.2829 117.488C98.1149 118.128 99.3469 118.544 100.803 118.544C102.835 118.544 104.131 117.472 104.131 116.096V115.888C104.131 114.272 103.123 113.632 100.995 113.232C99.6349 112.976 99.1069 112.72 99.1069 112.032V111.888C99.1069 111.28 99.6349 110.832 100.931 110.832C101.811 110.832 102.659 111.104 103.235 111.536L103.923 110.368C103.059 109.76 102.003 109.504 100.819 109.504C98.5469 109.504 97.5549 110.656 97.5549 111.872V112.064C97.5549 113.6 98.6269 114.224 100.563 114.624C102.211 114.96 102.563 115.2 102.563 115.936V116.064C102.563 116.768 101.891 117.2 100.739 117.2ZM105.076 109.664V118.416H106.628V109.664H105.076ZM105.028 106.528V108.224H106.676V106.528H105.028ZM111.664 109.504C109.264 109.504 107.76 110.944 107.76 113.488V114.56C107.76 117.088 109.264 118.544 111.664 118.544C114.064 118.544 115.568 117.088 115.568 114.56V113.488C115.568 110.96 114.064 109.504 111.664 109.504ZM111.664 117.184C110.272 117.184 109.328 116.288 109.328 114.432V113.616C109.328 111.76 110.272 110.864 111.664 110.864C113.056 110.864 114 111.76 114 113.616V114.432C114 116.288 113.056 117.184 111.664 117.184ZM123.871 112.624C123.871 110.512 122.495 109.504 120.799 109.504C119.599 109.504 118.703 109.952 118.175 110.768H118.159V109.664H116.655V118.416H118.207V112.992C118.207 111.616 119.359 110.88 120.415 110.88C121.711 110.88 122.319 111.504 122.319 112.976V118.416H123.871V112.624Z" fill="#222222"/>
<path d="M71.4591 63.258C70.5911 63.258 69.3591 62.768 68.6031 62.194L67.9031 63.328C68.7431 64 69.9891 64.518 71.4171 64.518C73.4891 64.518 75.0151 63.566 75.0151 61.718V61.466C75.0151 60.066 74.2451 59.184 71.7531 58.624C70.2551 58.288 69.4291 57.952 69.4291 57.028V56.804C69.4291 56.006 70.2551 55.362 71.5151 55.362C72.4391 55.362 73.1811 55.572 73.9231 56.076L74.5811 54.998C73.7271 54.424 72.7331 54.116 71.5011 54.116C69.1771 54.116 68.0431 55.446 68.0431 56.818V57.07C68.0431 58.89 69.4991 59.478 71.4031 59.884C73.0411 60.234 73.6151 60.682 73.6151 61.564V61.788C73.6151 62.586 72.8871 63.258 71.4591 63.258ZM79.5681 64.364V55.46H82.6481V54.27H75.1021V55.46H78.1821V64.364H79.5681ZM83.1841 54.27V64.364H89.5681V63.174H84.5701V59.786H89.1761V58.596H84.5701V55.46H89.4701V54.27H83.1841ZM90.7113 64.364H92.0973V60.43H94.3233C96.5213 60.43 97.6693 59.086 97.6693 57.448V57.154C97.6693 55.502 96.6053 54.27 94.3233 54.27H90.7113V64.364ZM94.2393 55.474C95.5413 55.474 96.2693 56.02 96.2693 57.168V57.42C96.2693 58.638 95.5413 59.226 94.0853 59.226H92.0973V55.474H94.2393ZM103.314 64.364V54.27H102.152L98.9039 56.174L99.5619 57.294L101.928 55.894V64.364H103.314Z" fill="#5082E6"/>
<path d="M53.5939 284.88V296.416H57.4179C60.6659 296.416 62.2659 294.656 62.2659 291.472V289.824C62.2659 286.64 60.5859 284.88 57.4179 284.88H53.5939ZM55.1779 286.272H57.2739C59.3379 286.272 60.6499 287.312 60.6499 289.904V291.392C60.6499 293.984 59.3379 295.008 57.2739 295.008H55.1779V286.272ZM67.0415 287.504C64.6415 287.504 63.1375 288.944 63.1375 291.488V292.56C63.1375 295.088 64.6415 296.544 67.0415 296.544C69.4415 296.544 70.9455 295.088 70.9455 292.56V291.488C70.9455 288.96 69.4415 287.504 67.0415 287.504ZM67.0415 295.184C65.6495 295.184 64.7055 294.288 64.7055 292.432V291.616C64.7055 289.76 65.6495 288.864 67.0415 288.864C68.4335 288.864 69.3775 289.76 69.3775 291.616V292.432C69.3775 294.288 68.4335 295.184 67.0415 295.184ZM75.3598 287.504C73.0718 287.504 71.5838 288.928 71.5838 291.44V292.544C71.5838 295.056 72.9598 296.544 75.3758 296.544C76.9758 296.544 77.9998 296.048 78.6078 295.536L77.8558 294.352C77.2318 294.816 76.5438 295.152 75.3918 295.152C74.2398 295.152 73.1518 294.416 73.1518 292.528V291.424C73.1518 289.632 74.2078 288.88 75.3598 288.88C76.2078 288.88 76.8318 289.04 77.6478 289.632L78.3838 288.464C77.6638 287.92 76.7998 287.504 75.3598 287.504ZM79.0844 293.456C79.0844 295.568 80.4284 296.576 82.1244 296.576C83.3244 296.576 84.1884 296.128 84.7164 295.312H84.7324V296.416H86.2364V287.664H84.6844V293.088C84.6844 294.464 83.5644 295.2 82.5084 295.2C81.2124 295.2 80.6364 294.576 80.6364 293.104V287.664H79.0844V293.456ZM99.784 290.672C99.784 288.656 98.68 287.504 96.888 287.504C95.512 287.504 94.728 288.112 94.168 288.96C93.72 288.032 92.824 287.504 91.656 287.504C90.44 287.504 89.656 288.08 89.32 288.848H89.304V287.664H87.768V296.416H89.32V290.88C89.32 289.504 90.392 288.912 91.352 288.912C92.456 288.912 93 289.648 93 291.168V296.416H94.552V290.96C94.552 289.536 95.608 288.912 96.584 288.912C97.688 288.912 98.232 289.648 98.232 291.168V296.416H99.784V290.672ZM104.511 288.832C105.839 288.832 106.671 289.696 106.671 291.04V291.328H102.287V291.104C102.287 289.76 103.215 288.832 104.511 288.832ZM107.311 294.416C106.559 294.896 105.791 295.2 104.655 295.2C103.263 295.2 102.287 294.304 102.287 292.656V292.592H108.175V291.424C108.175 288.928 106.751 287.504 104.511 287.504C102.351 287.504 100.751 288.864 100.751 291.52V292.512C100.751 295.344 102.431 296.544 104.591 296.544C106.175 296.544 107.199 296.112 107.967 295.584L107.311 294.416ZM116.345 290.624C116.345 288.512 114.969 287.504 113.273 287.504C112.073 287.504 111.177 287.952 110.649 288.768H110.633V287.664H109.129V296.416H110.681V290.992C110.681 289.616 111.833 288.88 112.889 288.88C114.185 288.88 114.793 289.504 114.793 290.976V296.416H116.345V290.624ZM118.291 293.968C118.291 295.728 119.059 296.544 120.723 296.544C121.347 296.544 122.003 296.4 122.355 296.256L122.115 295.008C121.715 295.152 121.347 295.216 120.963 295.216C120.307 295.216 119.843 295.04 119.843 293.968V288.992H122.147V287.664H119.843V285.456H118.291V287.664H116.851V288.992H118.291V293.968ZM58.6127 323.2C57.5567 323.2 56.6607 322.8 55.8767 322.272L55.1567 323.488C55.9887 324.128 57.2207 324.544 58.6767 324.544C60.7087 324.544 62.0047 323.472 62.0047 322.096V321.888C62.0047 320.272 60.9967 319.632 58.8687 319.232C57.5087 318.976 56.9807 318.72 56.9807 318.032V317.888C56.9807 317.28 57.5087 316.832 58.8047 316.832C59.6847 316.832 60.5327 317.104 61.1087 317.536L61.7967 316.368C60.9327 315.76 59.8767 315.504 58.6927 315.504C56.4207 315.504 55.4287 316.656 55.4287 317.872V318.064C55.4287 319.6 56.5007 320.224 58.4367 320.624C60.0847 320.96 60.4367 321.2 60.4367 321.936V322.064C60.4367 322.768 59.7647 323.2 58.6127 323.2ZM66.2294 315.504C63.9414 315.504 62.4534 316.928 62.4534 319.44V320.544C62.4534 323.056 63.8294 324.544 66.2454 324.544C67.8454 324.544 68.8694 324.048 69.4774 323.536L68.7254 322.352C68.1014 322.816 67.4134 323.152 66.2614 323.152C65.1094 323.152 64.0214 322.416 64.0214 320.528V319.424C64.0214 317.632 65.0774 316.88 66.2294 316.88C67.0774 316.88 67.7014 317.04 68.5174 317.632L69.2534 316.464C68.5334 315.92 67.6694 315.504 66.2294 315.504ZM75.3141 315.68C74.9621 315.568 74.5781 315.504 74.1781 315.504C72.8981 315.504 72.1141 316.08 71.6021 317.056H71.5861V315.664H70.0821V324.416H71.6341V319.312C71.6341 317.936 72.6261 316.976 73.7781 316.976C74.1941 316.976 74.5461 317.056 74.8501 317.184L75.3141 315.68ZM79.1059 316.832C80.4339 316.832 81.2659 317.696 81.2659 319.04V319.328H76.8819V319.104C76.8819 317.76 77.8099 316.832 79.1059 316.832ZM81.9059 322.416C81.1539 322.896 80.3859 323.2 79.2499 323.2C77.8579 323.2 76.8819 322.304 76.8819 320.656V320.592H82.7699V319.424C82.7699 316.928 81.3459 315.504 79.1059 315.504C76.9459 315.504 75.3459 316.864 75.3459 319.52V320.512C75.3459 323.344 77.0259 324.544 79.1859 324.544C80.7699 324.544 81.7939 324.112 82.5619 323.584L81.9059 322.416ZM87.0366 316.832C88.3646 316.832 89.1966 317.696 89.1966 319.04V319.328H84.8126V319.104C84.8126 317.76 85.7406 316.832 87.0366 316.832ZM89.8366 322.416C89.0846 322.896 88.3166 323.2 87.1806 323.2C85.7886 323.2 84.8126 322.304 84.8126 320.656V320.592H90.7006V319.424C90.7006 316.928 89.2766 315.504 87.0366 315.504C84.8766 315.504 83.2766 316.864 83.2766 319.52V320.512C83.2766 323.344 84.9566 324.544 87.1166 324.544C88.7006 324.544 89.7246 324.112 90.4926 323.584L89.8366 322.416ZM98.8712 318.624C98.8712 316.512 97.4952 315.504 95.7992 315.504C94.5992 315.504 93.7032 315.952 93.1752 316.768H93.1592V315.664H91.6552V324.416H93.2072V318.992C93.2072 317.616 94.3592 316.88 95.4152 316.88C96.7112 316.88 97.3192 317.504 97.3192 318.976V324.416H98.8712V318.624ZM100.321 315.664V324.416H101.873V315.664H100.321ZM100.273 312.528V314.224H101.921V312.528H100.273ZM110.67 318.624C110.67 316.512 109.294 315.504 107.598 315.504C106.398 315.504 105.502 315.952 104.974 316.768H104.958V315.664H103.454V324.416H105.006V318.992C105.006 317.616 106.158 316.88 107.214 316.88C108.51 316.88 109.118 317.504 109.118 318.976V324.416H110.67V318.624ZM119.112 315.664H117.56V316.576C117.208 316.064 116.44 315.504 115.112 315.504C113.064 315.504 111.64 316.896 111.64 319.264V320.656C111.64 323.024 112.84 324.384 115.048 324.384C116.104 324.384 117.064 324.064 117.56 323.232V324.304C117.56 325.856 116.76 326.576 115.256 326.576C114.392 326.576 113.576 326.272 113 325.84L112.296 327.056C113.016 327.616 114.024 327.984 115.208 327.984C117.784 327.984 119.112 326.752 119.112 324.304V315.664ZM117.576 320.816C117.576 322.176 116.536 323.024 115.272 323.024C113.976 323.024 113.176 322.064 113.176 320.4V319.488C113.176 317.84 113.96 316.864 115.272 316.864C116.616 316.864 117.576 317.808 117.576 318.72V320.816Z" fill="#222222"/>
<path d="M72.4591 269.258C71.5911 269.258 70.3591 268.768 69.6031 268.194L68.9031 269.328C69.7431 270 70.9891 270.518 72.4171 270.518C74.4891 270.518 76.0151 269.566 76.0151 267.718V267.466C76.0151 266.066 75.2451 265.184 72.7531 264.624C71.2551 264.288 70.4291 263.952 70.4291 263.028V262.804C70.4291 262.006 71.2551 261.362 72.5151 261.362C73.4391 261.362 74.1811 261.572 74.9231 262.076L75.5811 260.998C74.7271 260.424 73.7331 260.116 72.5011 260.116C70.1771 260.116 69.0431 261.446 69.0431 262.818V263.07C69.0431 264.89 70.4991 265.478 72.4031 265.884C74.0411 266.234 74.6151 266.682 74.6151 267.564V267.788C74.6151 268.586 73.8871 269.258 72.4591 269.258ZM80.5681 270.364V261.46H83.6481V260.27H76.1021V261.46H79.1821V270.364H80.5681ZM84.1841 260.27V270.364H90.5681V269.174H85.5701V265.786H90.1761V264.596H85.5701V261.46H90.4701V260.27H84.1841ZM91.7113 270.364H93.0973V266.43H95.3233C97.5213 266.43 98.6693 265.086 98.6693 263.448V263.154C98.6693 261.502 97.6053 260.27 95.3233 260.27H91.7113V270.364ZM95.2393 261.474C96.5413 261.474 97.2693 262.02 97.2693 263.168V263.42C97.2693 264.638 96.5413 265.226 95.0853 265.226H93.0973V261.474H95.2393ZM99.2599 269.202V270.364H106.036V269.16H100.968L104.118 265.8C105.028 264.834 105.672 263.882 105.672 262.79V262.65C105.672 261.18 104.566 260.116 102.522 260.116C100.66 260.116 99.7639 261.278 99.2879 262.146L100.352 262.832C101.01 261.656 101.808 261.362 102.55 261.362C103.6 261.362 104.286 261.852 104.286 262.65V262.762C104.286 263.294 104.174 263.854 103.026 265.114L99.2599 269.202Z" fill="#5082E6"/>
<path d="M54.0056 489.88H52.4696L48.1816 501.416H49.7976L51.0136 498.024H55.4296L56.6456 501.416H58.3096L54.0056 489.88ZM52.4696 493.96C52.8056 493 52.9016 492.712 53.2216 491.64C53.5416 492.696 53.6376 493 53.9896 493.96L54.9496 496.664H51.4936L52.4696 493.96ZM58.9792 489.88V501.416H60.5632V489.88H58.9792ZM68.5263 492.504C66.2383 492.504 64.7503 493.928 64.7503 496.44V497.544C64.7503 500.056 66.1263 501.544 68.5423 501.544C70.1423 501.544 71.1663 501.048 71.7743 500.536L71.0223 499.352C70.3983 499.816 69.7103 500.152 68.5583 500.152C67.4063 500.152 66.3183 499.416 66.3183 497.528V496.424C66.3183 494.632 67.3743 493.88 68.5263 493.88C69.3743 493.88 69.9983 494.04 70.8143 494.632L71.5503 493.464C70.8303 492.92 69.9663 492.504 68.5263 492.504ZM74.8109 501.544C75.5789 501.544 76.0909 501.4 76.5549 501.144C76.8909 500.952 77.2109 500.68 77.3709 500.36H77.3869V501.416H78.8749V495.288C78.8749 493.528 77.4989 492.504 75.5469 492.504C74.1389 492.504 73.0989 493.016 72.2509 493.608L73.0189 494.76C73.8349 494.232 74.5069 493.88 75.5309 493.88C76.8109 493.88 77.3389 494.44 77.3389 495.608V496.12H75.1149C72.8749 496.12 71.9309 497.16 71.9309 498.648V499.08C71.9309 500.616 73.0509 501.544 74.8109 501.544ZM77.3389 498.296C77.3389 498.952 77.1629 499.336 76.7469 499.656C76.2829 500.024 75.7389 500.2 74.9709 500.2C74.1389 500.2 73.4509 499.832 73.4509 498.984V498.76C73.4509 497.928 73.9309 497.432 75.1469 497.432H77.3389V498.296ZM81.8448 492.664H80.3408V504.84H81.8928V500.456C82.2448 500.968 83.0128 501.544 84.3088 501.544C86.4048 501.544 87.8128 500.2 87.8128 497.784V496.232C87.8128 493.928 86.6128 492.504 84.4048 492.504C83.3648 492.504 82.3568 492.856 81.8448 493.752V492.664ZM81.8768 496.088C81.8768 494.728 82.9168 493.864 84.1808 493.864C85.4768 493.864 86.2768 494.824 86.2768 496.488V497.56C86.2768 499.208 85.4928 500.184 84.1808 500.184C82.8368 500.184 81.8768 499.208 81.8768 498.296V496.088ZM91.2659 501.544C92.0339 501.544 92.5459 501.4 93.0099 501.144C93.3459 500.952 93.6659 500.68 93.8259 500.36H93.8419V501.416H95.3299V495.288C95.3299 493.528 93.9539 492.504 92.0019 492.504C90.5939 492.504 89.5539 493.016 88.7059 493.608L89.4739 494.76C90.2899 494.232 90.9619 493.88 91.9859 493.88C93.2659 493.88 93.7939 494.44 93.7939 495.608V496.12H91.5699C89.3299 496.12 88.3859 497.16 88.3859 498.648V499.08C88.3859 500.616 89.5059 501.544 91.2659 501.544ZM93.7939 498.296C93.7939 498.952 93.6179 499.336 93.2019 499.656C92.7379 500.024 92.1939 500.2 91.4259 500.2C90.5939 500.2 89.9059 499.832 89.9059 498.984V498.76C89.9059 497.928 90.3859 497.432 91.6019 497.432H93.7939V498.296ZM98.3478 489.32H96.7958V501.416H98.2998V500.392H98.3318C98.7158 501.016 99.4838 501.544 100.796 501.544C102.844 501.544 104.268 500.152 104.268 497.784V496.232C104.268 493.864 103.052 492.504 100.844 492.504C99.8838 492.504 98.9078 492.808 98.3478 493.672V489.32ZM98.3318 496.088C98.3318 494.728 99.3718 493.864 100.636 493.864C101.932 493.864 102.732 494.824 102.732 496.488V497.56C102.732 499.208 101.948 500.184 100.636 500.184C99.2918 500.184 98.3318 499.208 98.3318 498.296V496.088ZM105.415 492.664V501.416H106.967V492.664H105.415ZM105.367 489.528V491.224H107.015V489.528H105.367ZM108.548 489.32V501.416H110.1V489.32H108.548ZM111.683 492.664V501.416H113.235V492.664H111.683ZM111.635 489.528V491.224H113.283V489.528H111.635ZM115.359 498.968C115.359 500.728 116.127 501.544 117.791 501.544C118.415 501.544 119.071 501.4 119.423 501.256L119.183 500.008C118.783 500.152 118.415 500.216 118.031 500.216C117.375 500.216 116.911 500.04 116.911 498.968V493.992H119.215V492.664H116.911V490.456H115.359V492.664H113.919V493.992H115.359V498.968ZM122.986 499.656L120.666 492.664H118.986L122.17 501.544L121.034 504.536L122.442 505.032L126.986 492.664H125.354L123.05 499.656H122.986ZM50.6412 521.832C51.9692 521.832 52.8012 522.696 52.8012 524.04V524.328H48.4172V524.104C48.4172 522.76 49.3452 521.832 50.6412 521.832ZM53.4412 527.416C52.6892 527.896 51.9212 528.2 50.7852 528.2C49.3932 528.2 48.4172 527.304 48.4172 525.656V525.592H54.3052V524.424C54.3052 521.928 52.8812 520.504 50.6412 520.504C48.4812 520.504 46.8812 521.864 46.8812 524.52V525.512C46.8812 528.344 48.5612 529.544 50.7212 529.544C52.3052 529.544 53.3292 529.112 54.0972 528.584L53.4412 527.416ZM61.8236 520.664H60.0956L58.1276 523.896L56.1916 520.664H54.3196L57.1036 524.872L54.1756 529.416H55.9516L58.0316 525.896L60.0636 529.416H61.9356L59.0556 524.872L61.8236 520.664ZM64.9819 529.544C65.7499 529.544 66.2619 529.4 66.7259 529.144C67.0619 528.952 67.3819 528.68 67.5419 528.36H67.5579V529.416H69.0459V523.288C69.0459 521.528 67.6699 520.504 65.7179 520.504C64.3099 520.504 63.2699 521.016 62.4219 521.608L63.1899 522.76C64.0059 522.232 64.6779 521.88 65.7019 521.88C66.9819 521.88 67.5099 522.44 67.5099 523.608V524.12H65.2859C63.0459 524.12 62.1019 525.16 62.1019 526.648V527.08C62.1019 528.616 63.2219 529.544 64.9819 529.544ZM67.5099 526.296C67.5099 526.952 67.3339 527.336 66.9179 527.656C66.4539 528.024 65.9099 528.2 65.1419 528.2C64.3099 528.2 63.6219 527.832 63.6219 526.984V526.76C63.6219 525.928 64.1019 525.432 65.3179 525.432H67.5099V526.296ZM82.5278 523.672C82.5278 521.656 81.4238 520.504 79.6318 520.504C78.2558 520.504 77.4718 521.112 76.9118 521.96C76.4638 521.032 75.5678 520.504 74.3998 520.504C73.1838 520.504 72.3998 521.08 72.0638 521.848H72.0478V520.664H70.5118V529.416H72.0638V523.88C72.0638 522.504 73.1358 521.912 74.0958 521.912C75.1998 521.912 75.7438 522.648 75.7438 524.168V529.416H77.2958V523.96C77.2958 522.536 78.3518 521.912 79.3278 521.912C80.4318 521.912 80.9758 522.648 80.9758 524.168V529.416H82.5278V523.672ZM83.9904 520.664V529.416H85.5424V520.664H83.9904ZM83.9424 517.528V519.224H85.5904V517.528H83.9424ZM94.339 523.624C94.339 521.512 92.963 520.504 91.267 520.504C90.067 520.504 89.171 520.952 88.643 521.768H88.627V520.664H87.123V529.416H88.675V523.992C88.675 522.616 89.827 521.88 90.883 521.88C92.179 521.88 92.787 522.504 92.787 523.976V529.416H94.339V523.624ZM98.1731 529.544C98.9411 529.544 99.4531 529.4 99.9171 529.144C100.253 528.952 100.573 528.68 100.733 528.36H100.749V529.416H102.237V523.288C102.237 521.528 100.861 520.504 98.9091 520.504C97.5011 520.504 96.4611 521.016 95.6131 521.608L96.3811 522.76C97.1971 522.232 97.8691 521.88 98.8931 521.88C100.173 521.88 100.701 522.44 100.701 523.608V524.12H98.4771C96.2371 524.12 95.2931 525.16 95.2931 526.648V527.08C95.2931 528.616 96.4131 529.544 98.1731 529.544ZM100.701 526.296C100.701 526.952 100.525 527.336 100.109 527.656C99.6451 528.024 99.1011 528.2 98.3331 528.2C97.5011 528.2 96.8131 527.832 96.8131 526.984V526.76C96.8131 525.928 97.2931 525.432 98.5091 525.432H100.701V526.296ZM104.247 526.968C104.247 528.728 105.015 529.544 106.679 529.544C107.303 529.544 107.959 529.4 108.311 529.256L108.071 528.008C107.671 528.152 107.303 528.216 106.919 528.216C106.263 528.216 105.799 528.04 105.799 526.968V521.992H108.103V520.664H105.799V518.456H104.247V520.664H102.807V521.992H104.247V526.968ZM109.01 520.664V529.416H110.562V520.664H109.01ZM108.962 517.528V519.224H110.61V517.528H108.962ZM115.598 520.504C113.198 520.504 111.694 521.944 111.694 524.488V525.56C111.694 528.088 113.198 529.544 115.598 529.544C117.998 529.544 119.502 528.088 119.502 525.56V524.488C119.502 521.96 117.998 520.504 115.598 520.504ZM115.598 528.184C114.206 528.184 113.262 527.288 113.262 525.432V524.616C113.262 522.76 114.206 521.864 115.598 521.864C116.99 521.864 117.934 522.76 117.934 524.616V525.432C117.934 527.288 116.99 528.184 115.598 528.184ZM127.805 523.624C127.805 521.512 126.429 520.504 124.733 520.504C123.533 520.504 122.637 520.952 122.109 521.768H122.093V520.664H120.589V529.416H122.141V523.992C122.141 522.616 123.293 521.88 124.349 521.88C125.645 521.88 126.253 522.504 126.253 523.976V529.416H127.805V523.624Z" fill="#222222"/>
<path d="M72.4591 474.258C71.5911 474.258 70.3591 473.768 69.6031 473.194L68.9031 474.328C69.7431 475 70.9891 475.518 72.4171 475.518C74.4891 475.518 76.0151 474.566 76.0151 472.718V472.466C76.0151 471.066 75.2451 470.184 72.7531 469.624C71.2551 469.288 70.4291 468.952 70.4291 468.028V467.804C70.4291 467.006 71.2551 466.362 72.5151 466.362C73.4391 466.362 74.1811 466.572 74.9231 467.076L75.5811 465.998C74.7271 465.424 73.7331 465.116 72.5011 465.116C70.1771 465.116 69.0431 466.446 69.0431 467.818V468.07C69.0431 469.89 70.4991 470.478 72.4031 470.884C74.0411 471.234 74.6151 471.682 74.6151 472.564V472.788C74.6151 473.586 73.8871 474.258 72.4591 474.258ZM80.5681 475.364V466.46H83.6481V465.27H76.1021V466.46H79.1821V475.364H80.5681ZM84.1841 465.27V475.364H90.5681V474.174H85.5701V470.786H90.1761V469.596H85.5701V466.46H90.4701V465.27H84.1841ZM91.7113 475.364H93.0973V471.43H95.3233C97.5213 471.43 98.6693 470.086 98.6693 468.448V468.154C98.6693 466.502 97.6053 465.27 95.3233 465.27H91.7113V475.364ZM95.2393 466.474C96.5413 466.474 97.2693 467.02 97.2693 468.168V468.42C97.2693 469.638 96.5413 470.226 95.0853 470.226H93.0973V466.474H95.2393ZM100.408 467.356C100.954 466.642 101.542 466.348 102.368 466.348C103.278 466.348 104.034 466.796 104.034 467.678V467.79C104.034 468.658 103.6 469.498 102.34 469.498H101.15V470.702H102.396C103.572 470.702 104.482 471.094 104.482 472.424V472.606C104.482 473.516 103.81 474.258 102.34 474.258C101.472 474.258 100.772 474.006 99.7919 473.292L99.1059 474.398C100.058 475.154 101.164 475.518 102.34 475.518C104.818 475.518 105.868 474.076 105.868 472.592V472.382C105.868 471.22 105.182 470.296 103.824 470.058C105.07 469.61 105.406 468.574 105.406 467.776V467.636C105.406 466.124 104.216 465.116 102.354 465.116C100.842 465.116 100.002 465.788 99.4139 466.628L100.408 467.356Z" fill="#5082E6"/>
<path d="M57.312 709.88V721.416H58.896V709.88H57.312ZM67.7071 715.624C67.7071 713.512 66.3311 712.504 64.6351 712.504C63.4351 712.504 62.5391 712.952 62.0111 713.768H61.9951V712.664H60.4911V721.416H62.0431V715.992C62.0431 714.616 63.1951 713.88 64.2511 713.88C65.5471 713.88 66.1551 714.504 66.1551 715.976V721.416H67.7071V715.624ZM69.6532 718.968C69.6532 720.728 70.4213 721.544 72.0852 721.544C72.7092 721.544 73.3653 721.4 73.7173 721.256L73.4773 720.008C73.0773 720.152 72.7092 720.216 72.3253 720.216C71.6693 720.216 71.2053 720.04 71.2053 718.968V713.992H73.5093V712.664H71.2053V710.456H69.6532V712.664H68.2132V713.992H69.6532V718.968ZM77.68 713.832C79.008 713.832 79.84 714.696 79.84 716.04V716.328H75.456V716.104C75.456 714.76 76.384 713.832 77.68 713.832ZM80.48 719.416C79.728 719.896 78.96 720.2 77.824 720.2C76.432 720.2 75.456 719.304 75.456 717.656V717.592H81.344V716.424C81.344 713.928 79.92 712.504 77.68 712.504C75.52 712.504 73.92 713.864 73.92 716.52V717.512C73.92 720.344 75.6 721.544 77.76 721.544C79.344 721.544 80.368 721.112 81.136 720.584L80.48 719.416ZM87.5306 712.68C87.1786 712.568 86.7946 712.504 86.3946 712.504C85.1146 712.504 84.3306 713.08 83.8186 714.056H83.8026V712.664H82.2986V721.416H83.8506V716.312C83.8506 714.936 84.8426 713.976 85.9946 713.976C86.4106 713.976 86.7626 714.056 87.0666 714.184L87.5306 712.68ZM90.9065 719.96L88.6025 712.664H86.9225L89.9145 721.416H91.8985L94.8585 712.664H93.2265L90.9385 719.96H90.9065ZM95.3485 712.664V721.416H96.9005V712.664H95.3485ZM95.3005 709.528V711.224H96.9485V709.528H95.3005ZM101.793 713.832C103.121 713.832 103.953 714.696 103.953 716.04V716.328H99.5691V716.104C99.5691 714.76 100.497 713.832 101.793 713.832ZM104.593 719.416C103.841 719.896 103.073 720.2 101.937 720.2C100.545 720.2 99.5691 719.304 99.5691 717.656V717.592H105.457V716.424C105.457 713.928 104.033 712.504 101.793 712.504C99.6331 712.504 98.0331 713.864 98.0331 716.52V717.512C98.0331 720.344 99.7131 721.544 101.873 721.544C103.457 721.544 104.481 721.112 105.249 720.584L104.593 719.416ZM111.308 714.6L113.084 721.416H114.908L117.148 712.664H115.612L113.98 719.8H113.948L112.108 712.664H110.54L108.684 719.8H108.652L107.052 712.664H105.42L107.692 721.416H109.516L111.276 714.6H111.308Z" fill="#222222"/>
<path d="M71.4591 694.258C70.5911 694.258 69.3591 693.768 68.6031 693.194L67.9031 694.328C68.7431 695 69.9891 695.518 71.4171 695.518C73.4891 695.518 75.0151 694.566 75.0151 692.718V692.466C75.0151 691.066 74.2451 690.184 71.7531 689.624C70.2551 689.288 69.4291 688.952 69.4291 688.028V687.804C69.4291 687.006 70.2551 686.362 71.5151 686.362C72.4391 686.362 73.1811 686.572 73.9231 687.076L74.5811 685.998C73.7271 685.424 72.7331 685.116 71.5011 685.116C69.1771 685.116 68.0431 686.446 68.0431 687.818V688.07C68.0431 689.89 69.4991 690.478 71.4031 690.884C73.0411 691.234 73.6151 691.682 73.6151 692.564V692.788C73.6151 693.586 72.8871 694.258 71.4591 694.258ZM79.5681 695.364V686.46H82.6481V685.27H75.1021V686.46H78.1821V695.364H79.5681ZM83.1841 685.27V695.364H89.5681V694.174H84.5701V690.786H89.1761V689.596H84.5701V686.46H89.4701V685.27H83.1841ZM90.7113 695.364H92.0973V691.43H94.3233C96.5213 691.43 97.6693 690.086 97.6693 688.448V688.154C97.6693 686.502 96.6053 685.27 94.3233 685.27H90.7113V695.364ZM94.2393 686.474C95.5413 686.474 96.2693 687.02 96.2693 688.168V688.42C96.2693 689.638 95.5413 690.226 94.0853 690.226H92.0973V686.474H94.2393ZM102.782 688.924V692.018H99.3659L104.014 685.27H102.488L97.7419 692.158V693.194H102.782V695.364H104.154V693.194H105.582V692.018H104.154V688.924H102.782Z" fill="#5082E6"/>
<defs>
<filter id="filter0_d_282_8384" x="1.34839" y="207" width="191.651" height="191.808" filterUnits="userSpaceOnUse" color-interpolation-filters="sRGB">
<feFlood flood-opacity="0" result="BackgroundImageFix"/>
<feColorMatrix in="SourceAlpha" type="matrix" values="0 0 0 0 0 0 0 0 0 0 0 0 0 0 0 0 0 0 127 0" result="hardAlpha"/>
<feOffset dx="10" dy="10"/>
<feGaussianBlur stdDeviation="10"/>
<feColorMatrix type="matrix" values="0 0 0 0 0 0 0 0 0 0 0 0 0 0 0 0 0 0 0.102 0"/>
<feBlend mode="normal" in2="BackgroundImageFix" result="effect1_dropShadow_282_8384"/>
<feBlend mode="normal" in="SourceGraphic" in2="effect1_dropShadow_282_8384" result="shape"/>
</filter>
<filter id="filter1_d_282_8384" x="1.34839" y="412" width="191.651" height="191.808" filterUnits="userSpaceOnUse" color-interpolation-filters="sRGB">
<feFlood flood-opacity="0" result="BackgroundImageFix"/>
<feColorMatrix in="SourceAlpha" type="matrix" values="0 0 0 0 0 0 0 0 0 0 0 0 0 0 0 0 0 0 127 0" result="hardAlpha"/>
<feOffset dx="10" dy="10"/>
<feGaussianBlur stdDeviation="10"/>
<feColorMatrix type="matrix" values="0 0 0 0 0 0 0 0 0 0 0 0 0 0 0 0 0 0 0.102 0"/>
<feBlend mode="normal" in2="BackgroundImageFix" result="effect1_dropShadow_282_8384"/>
<feBlend mode="normal" in="SourceGraphic" in2="effect1_dropShadow_282_8384" result="shape"/>
</filter>
<filter id="filter2_d_282_8384" x="1.34839" y="618" width="191.651" height="191.808" filterUnits="userSpaceOnUse" color-interpolation-filters="sRGB">
<feFlood flood-opacity="0" result="BackgroundImageFix"/>
<feColorMatrix in="SourceAlpha" type="matrix" values="0 0 0 0 0 0 0 0 0 0 0 0 0 0 0 0 0 0 127 0" result="hardAlpha"/>
<feOffset dx="10" dy="10"/>
<feGaussianBlur stdDeviation="10"/>
<feColorMatrix type="matrix" values="0 0 0 0 0 0 0 0 0 0 0 0 0 0 0 0 0 0 0.102 0"/>
<feBlend mode="normal" in2="BackgroundImageFix" result="effect1_dropShadow_282_8384"/>
<feBlend mode="normal" in="SourceGraphic" in2="effect1_dropShadow_282_8384" result="shape"/>
</filter>
<filter id="filter3_d_282_8384" x="1.34839" y="1" width="191.651" height="191.808" filterUnits="userSpaceOnUse" color-interpolation-filters="sRGB">
<feFlood flood-opacity="0" result="BackgroundImageFix"/>
<feColorMatrix in="SourceAlpha" type="matrix" values="0 0 0 0 0 0 0 0 0 0 0 0 0 0 0 0 0 0 127 0" result="hardAlpha"/>
<feOffset dx="10" dy="10"/>
<feGaussianBlur stdDeviation="10"/>
<feColorMatrix type="matrix" values="0 0 0 0 0 0 0 0 0 0 0 0 0 0 0 0 0 0 0.102 0"/>
<feBlend mode="normal" in2="BackgroundImageFix" result="effect1_dropShadow_282_8384"/>
<feBlend mode="normal" in="SourceGraphic" in2="effect1_dropShadow_282_8384" result="shape"/>
</filter>
<linearGradient id="paint0_linear_282_8384" x1="191.638" y1="87" x2="944.8" y2="87" gradientUnits="userSpaceOnUse">
<stop stop-color="#33B9A5"/>
<stop offset="0.69" stop-color="#40A7C9"/>
<stop offset="1" stop-color="#5082E6"/>
</linearGradient>
</defs>
</svg>
