<svg width="346" height="197" viewBox="0 0 346 197" fill="none" xmlns="http://www.w3.org/2000/svg">
<path d="M48.7709 2.21875H39.0156V11.978H48.7709V2.21875Z" fill="#BBBBBB"/>
<path d="M60.6378 2.1557H59.902V11.6282H60.6378V2.1557ZM57.8707 2.93299H57.1452V5.27521H54.2434V2.93299H53.5179V9.12019H57.8707V2.93299ZM54.2434 5.92813H57.1452V8.4569H54.2434V5.92813ZM66.6608 7.95944C65.1063 7.95944 63.7901 8.59163 63.7901 9.71092V10.1151C63.7901 11.2033 65.1063 11.877 66.6608 11.877C68.2154 11.877 69.5316 11.2033 69.5316 10.1151V9.71092C69.5316 8.62272 68.2154 7.95944 66.6608 7.95944ZM66.6608 11.2551C65.5519 11.2551 64.4948 10.8302 64.4948 10.0944V9.74201C64.4948 9.00618 65.5519 8.58127 66.6608 8.58127C67.7698 8.58127 68.8269 9.00618 68.8269 9.74201V10.0944C68.8269 10.8302 67.7698 11.2551 66.6608 11.2551ZM64.6606 5.51358C64.7021 5.64831 65.1063 6.00068 65.5934 6.3945C65.9043 6.64323 66.4017 7.01633 66.8163 7.30652L67.2412 6.78833C66.6505 6.3945 66.0701 5.95922 65.7385 5.6794C65.0648 5.09902 64.9923 4.8192 64.9923 4.20773V3.38899H67.0236V2.7568H62.1215V3.38899H64.2564V4.23883C64.2564 4.79847 64.1424 5.16121 63.6346 5.65867C63.1268 6.15613 62.4635 6.66396 61.852 7.09924L62.2977 7.61743C62.7744 7.27543 63.4791 6.71578 63.8419 6.3945C64.2772 6.01104 64.6088 5.66903 64.6502 5.51358H64.6606ZM69.4798 2.1557H68.7543V4.58083H66.7748V5.22339H68.7543V7.7418H69.4798V2.1557ZM70.4142 7.09924V7.73143H72.7356V11.6179H73.4715V7.73143H76.0624V11.6179H76.7983V7.73143H79.1198V7.09924H77.4512C77.6481 6.15613 77.7621 4.99539 77.7621 3.90718V2.77753H71.5542V3.40972H77.0159V4.14555C77.0159 5.03684 76.9019 6.1665 76.6946 7.09924H70.4142ZM82.3445 5.4203C82.386 5.55503 82.7902 5.9074 83.2773 6.30123C83.5882 6.54996 84.1064 6.93342 84.5209 7.21324L84.9458 6.70542C84.3344 6.30123 83.754 5.86595 83.4224 5.58612C82.7487 5.00575 82.6762 4.72593 82.6762 4.11446V3.3579H84.7386V2.72571H79.7847V3.3579H81.9403V4.14555C81.9403 4.7052 81.8263 5.06793 81.3185 5.56539C80.8107 6.06286 80.137 6.58105 79.5152 7.01633L79.9608 7.53452C80.4583 7.18215 81.1631 6.6225 81.5258 6.30123C81.9611 5.91776 82.2927 5.57576 82.3342 5.4203H82.3445ZM80.9558 8.84036H86.3242V11.7008H87.0497V8.19781H80.9558V8.84036ZM87.0497 2.1557H86.3242V7.63816H87.0497V2.1557Z" fill="#555555"/>
<path d="M110.349 2.21875H100.594V11.978H110.349V2.21875Z" fill="#5082E6"/>
<path d="M119.428 7.95944C117.874 7.95944 116.557 8.59163 116.557 9.71092V10.1151C116.557 11.2033 117.874 11.877 119.428 11.877C120.983 11.877 122.299 11.2033 122.299 10.1151V9.71092C122.299 8.62272 120.983 7.95944 119.428 7.95944ZM119.428 11.2551C118.319 11.2551 117.262 10.8302 117.262 10.0944V9.74201C117.262 9.00618 118.319 8.58127 119.428 8.58127C120.537 8.58127 121.594 9.00618 121.594 9.74201V10.0944C121.594 10.8302 120.537 11.2551 119.428 11.2551ZM117.428 5.51358C117.469 5.64831 117.874 6.00068 118.361 6.3945C118.672 6.64323 119.169 7.01633 119.584 7.30652L120.008 6.78833C119.418 6.3945 118.837 5.95922 118.506 5.6794C117.832 5.09902 117.76 4.8192 117.76 4.20773V3.38899H119.791V2.7568H114.889V3.38899H117.024V4.23883C117.024 4.79847 116.91 5.16121 116.402 5.65867C115.894 6.15613 115.231 6.66396 114.619 7.09924L115.065 7.61743C115.542 7.27543 116.246 6.71578 116.609 6.3945C117.044 6.01104 117.376 5.66903 117.418 5.51358H117.428ZM122.247 2.1557H121.522V4.58083H119.542V5.22339H121.522V7.7418H122.247V2.1557ZM123.181 7.09924V7.73143H125.503V11.6179H126.239V7.73143H128.83V11.6179H129.566V7.73143H131.887V7.09924H130.218C130.415 6.15613 130.529 4.99539 130.529 3.90718V2.77753H124.321V3.40972H129.783V4.14555C129.783 5.03684 129.669 6.1665 129.462 7.09924H123.181ZM135.112 5.4203C135.153 5.55503 135.557 5.9074 136.045 6.30123C136.355 6.54996 136.874 6.93342 137.288 7.21324L137.713 6.70542C137.102 6.30123 136.521 5.86595 136.19 5.58612C135.516 5.00575 135.443 4.72593 135.443 4.11446V3.3579H137.506V2.72571H132.552V3.3579H134.708V4.14555C134.708 4.7052 134.594 5.06793 134.086 5.56539C133.578 6.06286 132.904 6.58105 132.282 7.01633L132.728 7.53452C133.226 7.18215 133.93 6.6225 134.293 6.30123C134.728 5.91776 135.06 5.57576 135.101 5.4203H135.112ZM133.723 8.84036H139.091V11.7008H139.817V8.19781H133.723V8.84036ZM139.817 2.1557H139.091V7.63816H139.817V2.1557Z" fill="#555555"/>
<path d="M142.056 24.7881H39.0156V57.7257H142.056V24.7881Z" fill="#CCCCCC"/>
<path d="M343.876 24.7881H142.062V57.7257H343.876V24.7881Z" fill="#5082E6"/>
<path d="M113.96 38.501C114.435 37.8791 114.947 37.6231 115.667 37.6231C116.459 37.6231 117.118 38.0133 117.118 38.7814V38.8789C117.118 39.6349 116.74 40.3665 115.642 40.3665H114.606V41.415H115.691C116.715 41.415 117.508 41.7564 117.508 42.9147V43.0732C117.508 43.8658 116.923 44.512 115.642 44.512C114.886 44.512 114.277 44.2925 113.423 43.6707L112.826 44.6339C113.655 45.2923 114.618 45.6093 115.642 45.6093C117.801 45.6093 118.715 44.3535 118.715 43.0611V42.8782C118.715 41.8662 118.118 41.0614 116.935 40.8542C118.02 40.464 118.313 39.5617 118.313 38.8668V38.7448C118.313 37.428 117.276 36.5501 115.655 36.5501C114.338 36.5501 113.606 37.1354 113.094 37.867L113.96 38.501ZM120.67 38.501C121.146 37.8791 121.658 37.6231 122.377 37.6231C123.17 37.6231 123.828 38.0133 123.828 38.7814V38.8789C123.828 39.6349 123.45 40.3665 122.353 40.3665H121.316V41.415H122.401C123.426 41.415 124.218 41.7564 124.218 42.9147V43.0732C124.218 43.8658 123.633 44.512 122.353 44.512C121.597 44.512 120.987 44.2925 120.134 43.6707L119.536 44.6339C120.365 45.2923 121.329 45.6093 122.353 45.6093C124.511 45.6093 125.425 44.3535 125.425 43.0611V42.8782C125.425 41.8662 124.828 41.0614 123.645 40.8542C124.73 40.464 125.023 39.5617 125.023 38.8668V38.7448C125.023 37.428 123.987 36.5501 122.365 36.5501C121.048 36.5501 120.317 37.1354 119.804 37.867L120.67 38.501ZM126.698 45.9751H128.088V44.573H126.698V45.9751ZM130.708 38.9399C130.708 38.1108 131.306 37.6109 132.171 37.6109C133.049 37.6109 133.635 38.1108 133.635 38.9399V39.074C133.635 39.9397 133.001 40.464 132.171 40.464C131.355 40.464 130.708 39.9397 130.708 39.074V38.9399ZM130.477 43.0001C130.477 42.0247 131.233 41.5248 132.184 41.5248C133.147 41.5248 133.866 42.0491 133.866 43.0001V43.1342C133.866 43.9633 133.232 44.5242 132.184 44.5242C131.135 44.5242 130.477 43.9633 130.477 43.1342V43.0001ZM129.233 43.1952C129.233 44.5973 130.33 45.6093 132.171 45.6093C134.013 45.6093 135.11 44.5973 135.11 43.1952V42.9879C135.11 42.0247 134.452 41.22 133.598 40.9639C134.452 40.525 134.854 39.769 134.854 39.0253V38.8546C134.854 37.5987 133.866 36.5501 132.171 36.5501C130.452 36.5501 129.489 37.5987 129.489 38.8546V39.0253C129.489 39.769 129.904 40.5615 130.745 40.9639C129.904 41.22 129.233 42.0247 129.233 42.9879V43.1952Z" fill="white"/>
<path d="M320.406 37.1476C319.747 36.7452 318.918 36.5501 318.126 36.5501C316.15 36.5501 314.748 37.6841 314.748 41.537V41.9881C314.748 44.3413 315.833 45.6093 317.809 45.6093C319.601 45.6093 320.808 44.4632 320.808 42.7806V42.5124C320.808 40.7932 319.601 39.7081 318.04 39.7081C317.065 39.7081 316.236 40.1958 315.943 40.7079C316.028 38.3912 316.857 37.6597 318.052 37.6597C318.747 37.6597 319.394 37.8548 319.942 38.1718L320.406 37.1476ZM315.98 42.488C315.98 41.5248 316.723 40.781 317.796 40.781C318.869 40.781 319.601 41.3906 319.601 42.5612V42.7197C319.601 43.8658 318.894 44.512 317.76 44.512C316.662 44.512 315.98 43.7926 315.98 42.6587V42.488ZM327.116 37.1476C326.457 36.7452 325.628 36.5501 324.836 36.5501C322.861 36.5501 321.458 37.6841 321.458 41.537V41.9881C321.458 44.3413 322.544 45.6093 324.519 45.6093C326.311 45.6093 327.518 44.4632 327.518 42.7806V42.5124C327.518 40.7932 326.311 39.7081 324.75 39.7081C323.775 39.7081 322.946 40.1958 322.653 40.7079C322.739 38.3912 323.568 37.6597 324.763 37.6597C325.458 37.6597 326.104 37.8548 326.653 38.1718L327.116 37.1476ZM322.69 42.488C322.69 41.5248 323.434 40.781 324.507 40.781C325.58 40.781 326.311 41.3906 326.311 42.5612V42.7197C326.311 43.8658 325.604 44.512 324.47 44.512C323.373 44.512 322.69 43.7926 322.69 42.6587V42.488ZM328.51 45.9751H329.9V44.573H328.51V45.9751ZM331.046 44.4632V45.4752H336.947V44.4266H332.533L335.276 41.5004C336.069 40.6591 336.63 39.83 336.63 38.8789V38.757C336.63 37.4768 335.667 36.5501 333.886 36.5501C332.265 36.5501 331.484 37.5621 331.07 38.3181L331.997 38.9155C332.57 37.8913 333.265 37.6353 333.911 37.6353C334.825 37.6353 335.423 38.062 335.423 38.757V38.8546C335.423 39.3179 335.325 39.8056 334.325 40.9029L331.046 44.4632Z" fill="white"/>
<path d="M153.641 115.062H39.0156V148H153.641V115.062Z" fill="#CCCCCC"/>
<path d="M343.869 115.062H153.641V148H343.869V115.062Z" fill="#5082E6"/>
<path d="M125.546 128.775C126.021 128.154 126.533 127.898 127.253 127.898C128.045 127.898 128.704 128.288 128.704 129.056V129.153C128.704 129.909 128.326 130.641 127.228 130.641H126.192V131.689H127.277C128.301 131.689 129.094 132.031 129.094 133.189V133.348C129.094 134.14 128.509 134.786 127.228 134.786C126.472 134.786 125.863 134.567 125.009 133.945L124.412 134.908C125.241 135.567 126.204 135.884 127.228 135.884C129.386 135.884 130.301 134.628 130.301 133.335V133.153C130.301 132.141 129.703 131.336 128.521 131.129C129.606 130.738 129.899 129.836 129.899 129.141V129.019C129.899 127.702 128.862 126.825 127.241 126.825C125.924 126.825 125.192 127.41 124.68 128.141L125.546 128.775ZM137.255 127.885V126.959H131.171V128.007H135.95L132.463 135.75H133.78L137.255 127.885ZM138.284 136.25H139.674V134.847H138.284V136.25ZM146.452 127.422C145.794 127.02 144.964 126.825 144.172 126.825C142.197 126.825 140.795 127.958 140.795 131.811V132.263C140.795 134.616 141.88 135.884 143.855 135.884C145.647 135.884 146.854 134.738 146.854 133.055V132.787C146.854 131.068 145.647 129.982 144.087 129.982C143.111 129.982 142.282 130.47 141.989 130.982C142.075 128.666 142.904 127.934 144.099 127.934C144.794 127.934 145.44 128.129 145.989 128.446L146.452 127.422ZM142.026 132.762C142.026 131.799 142.77 131.055 143.843 131.055C144.916 131.055 145.647 131.665 145.647 132.836V132.994C145.647 134.14 144.94 134.786 143.806 134.786C142.709 134.786 142.026 134.067 142.026 132.933V132.762Z" fill="white"/>
<path d="M320.406 127.422C319.747 127.02 318.918 126.825 318.126 126.825C316.15 126.825 314.748 127.958 314.748 131.811V132.263C314.748 134.616 315.833 135.884 317.809 135.884C319.601 135.884 320.808 134.738 320.808 133.055V132.787C320.808 131.068 319.601 129.982 318.04 129.982C317.065 129.982 316.236 130.47 315.943 130.982C316.028 128.666 316.857 127.934 318.052 127.934C318.747 127.934 319.394 128.129 319.942 128.446L320.406 127.422ZM315.98 132.762C315.98 131.799 316.723 131.055 317.796 131.055C318.869 131.055 319.601 131.665 319.601 132.836V132.994C319.601 134.14 318.894 134.786 317.76 134.786C316.662 134.786 315.98 134.067 315.98 132.933V132.762ZM321.483 134.738V135.75H327.384V134.701H322.97L325.714 131.775C326.506 130.934 327.067 130.104 327.067 129.153V129.031C327.067 127.751 326.104 126.825 324.324 126.825C322.702 126.825 321.922 127.837 321.507 128.592L322.434 129.19C323.007 128.166 323.702 127.91 324.348 127.91C325.263 127.91 325.86 128.336 325.86 129.031V129.129C325.86 129.592 325.762 130.08 324.763 131.177L321.483 134.738ZM328.51 136.25H329.9V134.847H328.51V136.25ZM334.984 130.141V132.836H332.009L336.057 126.959H334.728L330.594 132.957V133.86H334.984V135.75H336.179V133.86H337.422V132.836H336.179V130.141H334.984Z" fill="white"/>
<path d="M142.056 69.9238H39.0156V102.861H142.056V69.9238Z" fill="#CCCCCC"/>
<path d="M343.876 69.9238H142.062V102.861H343.876V69.9238Z" fill="#5082E6"/>
<path d="M113.96 83.6367C114.435 83.0149 114.947 82.7588 115.667 82.7588C116.459 82.7588 117.118 83.149 117.118 83.9171V84.0147C117.118 84.7706 116.74 85.5022 115.642 85.5022H114.606V86.5508H115.691C116.715 86.5508 117.508 86.8922 117.508 88.0505V88.209C117.508 89.0015 116.923 89.6477 115.642 89.6477C114.886 89.6477 114.277 89.4283 113.423 88.8064L112.826 89.7697C113.655 90.4281 114.618 90.7451 115.642 90.7451C117.801 90.7451 118.715 89.4892 118.715 88.1968V88.0139C118.715 87.0019 118.118 86.1972 116.935 85.9899C118.02 85.5997 118.313 84.6975 118.313 84.0025V83.8806C118.313 82.5638 117.276 81.6859 115.655 81.6859C114.338 81.6859 113.606 82.2711 113.094 83.0027L113.96 83.6367ZM120.67 83.6367C121.146 83.0149 121.658 82.7588 122.377 82.7588C123.17 82.7588 123.828 83.149 123.828 83.9171V84.0147C123.828 84.7706 123.45 85.5022 122.353 85.5022H121.316V86.5508H122.401C123.426 86.5508 124.218 86.8922 124.218 88.0505V88.209C124.218 89.0015 123.633 89.6477 122.353 89.6477C121.597 89.6477 120.987 89.4283 120.134 88.8064L119.536 89.7697C120.365 90.4281 121.329 90.7451 122.353 90.7451C124.511 90.7451 125.425 89.4892 125.425 88.1968V88.0139C125.425 87.0019 124.828 86.1972 123.645 85.9899C124.73 85.5997 125.023 84.6975 125.023 84.0025V83.8806C125.023 82.5638 123.987 81.6859 122.365 81.6859C121.048 81.6859 120.317 82.2711 119.804 83.0027L120.67 83.6367ZM126.698 91.1109H128.088V89.7087H126.698V91.1109ZM130.708 84.0757C130.708 83.2465 131.306 82.7466 132.171 82.7466C133.049 82.7466 133.635 83.2465 133.635 84.0757V84.2098C133.635 85.0755 133.001 85.5997 132.171 85.5997C131.355 85.5997 130.708 85.0755 130.708 84.2098V84.0757ZM130.477 88.1358C130.477 87.1604 131.233 86.6605 132.184 86.6605C133.147 86.6605 133.866 87.1848 133.866 88.1358V88.27C133.866 89.0991 133.232 89.6599 132.184 89.6599C131.135 89.6599 130.477 89.0991 130.477 88.27V88.1358ZM129.233 88.3309C129.233 89.7331 130.33 90.7451 132.171 90.7451C134.013 90.7451 135.11 89.7331 135.11 88.3309V88.1236C135.11 87.1604 134.452 86.3557 133.598 86.0996C134.452 85.6607 134.854 84.9048 134.854 84.161V83.9903C134.854 82.7345 133.866 81.6859 132.171 81.6859C130.452 81.6859 129.489 82.7345 129.489 83.9903V84.161C129.489 84.9048 129.904 85.6973 130.745 86.0996C129.904 86.3557 129.233 87.1604 129.233 88.1236V88.3309Z" fill="white"/>
<path d="M320.406 82.2833C319.747 81.881 318.918 81.6859 318.126 81.6859C316.15 81.6859 314.748 82.8198 314.748 86.6727V87.1238C314.748 89.477 315.833 90.7451 317.809 90.7451C319.601 90.7451 320.808 89.599 320.808 87.9164V87.6481C320.808 85.9289 319.601 84.8438 318.04 84.8438C317.065 84.8438 316.236 85.3315 315.943 85.8436C316.028 83.527 316.857 82.7954 318.052 82.7954C318.747 82.7954 319.394 82.9905 319.942 83.3075L320.406 82.2833ZM315.98 87.6237C315.98 86.6605 316.723 85.9168 317.796 85.9168C318.869 85.9168 319.601 86.5264 319.601 87.6969V87.8554C319.601 89.0015 318.894 89.6477 317.76 89.6477C316.662 89.6477 315.98 88.9284 315.98 87.7944V87.6237ZM327.116 82.2833C326.457 81.881 325.628 81.6859 324.836 81.6859C322.861 81.6859 321.458 82.8198 321.458 86.6727V87.1238C321.458 89.477 322.544 90.7451 324.519 90.7451C326.311 90.7451 327.518 89.599 327.518 87.9164V87.6481C327.518 85.9289 326.311 84.8438 324.75 84.8438C323.775 84.8438 322.946 85.3315 322.653 85.8436C322.739 83.527 323.568 82.7954 324.763 82.7954C325.458 82.7954 326.104 82.9905 326.653 83.3075L327.116 82.2833ZM322.69 87.6237C322.69 86.6605 323.434 85.9168 324.507 85.9168C325.58 85.9168 326.311 86.5264 326.311 87.6969V87.8554C326.311 89.0015 325.604 89.6477 324.47 89.6477C323.373 89.6477 322.69 88.9284 322.69 87.7944V87.6237ZM328.51 91.1109H329.9V89.7087H328.51V91.1109ZM331.046 89.599V90.611H336.947V89.5624H332.533L335.276 86.6361C336.069 85.7948 336.63 84.9657 336.63 84.0147V83.8928C336.63 82.6125 335.667 81.6859 333.886 81.6859C332.265 81.6859 331.484 82.6979 331.07 83.4538L331.997 84.0513C332.57 83.0271 333.265 82.771 333.911 82.771C334.825 82.771 335.423 83.1978 335.423 83.8928V83.9903C335.423 84.4536 335.325 84.9413 334.325 86.0387L331.046 89.599Z" fill="white"/>
<path d="M0.93884 135.016V135.748H6.52311V134.967H2.0118L4.74297 131.761C5.49892 130.883 6.2061 130.09 6.2061 129.139V129.017C6.2061 127.7 5.2063 126.823 3.64563 126.823C2.1825 126.823 1.36559 127.749 0.951033 128.505L1.63383 128.932C2.20688 127.908 2.90187 127.603 3.67001 127.603C4.73078 127.603 5.34042 128.152 5.34042 129.029V129.127C5.34042 129.59 5.18191 130.041 4.21868 131.175L0.93884 135.016ZM13.2243 130.663C13.2243 128.2 12.2977 126.823 10.2249 126.823C8.17656 126.823 7.24991 128.2 7.24991 130.663V132.029C7.24991 134.492 8.13998 135.882 10.2249 135.882C12.3343 135.882 13.2243 134.516 13.2243 132.029V130.663ZM12.3465 132.041C12.3465 134.236 11.6271 135.114 10.2249 135.114C8.87154 135.114 8.12779 134.224 8.12779 132.041V130.651C8.12779 128.493 8.87154 127.591 10.2249 127.591C11.6271 127.591 12.3465 128.481 12.3465 130.651V132.041ZM14.0975 135.016V135.748H19.6817V134.967H15.1704L17.9016 131.761C18.6575 130.883 19.3647 130.09 19.3647 129.139V129.017C19.3647 127.7 18.3649 126.823 16.8042 126.823C15.3411 126.823 14.5242 127.749 14.1097 128.505L14.7924 128.932C15.3655 127.908 16.0605 127.603 16.8286 127.603C17.8894 127.603 18.499 128.152 18.499 129.029V129.127C18.499 129.59 18.3405 130.041 17.3773 131.175L14.0975 135.016ZM26.383 130.663C26.383 128.2 25.4563 126.823 23.3836 126.823C21.3352 126.823 20.4085 128.2 20.4085 130.663V132.029C20.4085 134.492 21.2986 135.882 23.3836 135.882C25.4929 135.882 26.383 134.516 26.383 132.029V130.663ZM25.5051 132.041C25.5051 134.236 24.7857 135.114 23.3836 135.114C22.0302 135.114 21.2864 134.224 21.2864 132.041V130.651C21.2864 128.493 22.0302 127.591 23.3836 127.591C24.7857 127.591 25.5051 128.481 25.5051 130.651V132.041Z" fill="#222222"/>
<path d="M0.93884 89.8794V90.611H6.52311V89.8306H2.0118L4.74297 86.6239C5.49892 85.7461 6.2061 84.9535 6.2061 84.0025V83.8806C6.2061 82.5638 5.2063 81.6859 3.64563 81.6859C2.1825 81.6859 1.36559 82.6125 0.951033 83.3685L1.63383 83.7952C2.20688 82.771 2.90187 82.4662 3.67001 82.4662C4.73078 82.4662 5.34042 83.0149 5.34042 83.8928V83.9903C5.34042 84.4536 5.18191 84.9048 4.21868 86.0387L0.93884 89.8794ZM13.2243 85.5266C13.2243 83.0637 12.2977 81.6859 10.2249 81.6859C8.17656 81.6859 7.24991 83.0637 7.24991 85.5266V86.8922C7.24991 89.3551 8.13998 90.7451 10.2249 90.7451C12.3343 90.7451 13.2243 89.3795 13.2243 86.8922V85.5266ZM12.3465 86.9044C12.3465 89.0991 11.6271 89.9769 10.2249 89.9769C8.87154 89.9769 8.12779 89.0869 8.12779 86.9044V85.5144C8.12779 83.3563 8.87154 82.454 10.2249 82.454C11.6271 82.454 12.3465 83.3441 12.3465 85.5144V86.9044ZM14.0975 89.8794V90.611H19.6817V89.8306H15.1704L17.9016 86.6239C18.6575 85.7461 19.3647 84.9535 19.3647 84.0025V83.8806C19.3647 82.5638 18.3649 81.6859 16.8042 81.6859C15.3411 81.6859 14.5242 82.6125 14.1097 83.3685L14.7924 83.7952C15.3655 82.771 16.0605 82.4662 16.8286 82.4662C17.8894 82.4662 18.499 83.0149 18.499 83.8928V83.9903C18.499 84.4536 18.3405 84.9048 17.3773 86.0387L14.0975 89.8794ZM24.3834 90.611V81.82H23.7371L21.0182 83.5026L21.4083 84.1854L23.5299 82.893V90.611H24.3834Z" fill="#222222"/>
<path d="M0.93884 44.7427V45.4742H6.52311V44.6939H2.0118L4.74297 41.4872C5.49892 40.6093 6.2061 39.8168 6.2061 38.8658V38.7439C6.2061 37.427 5.2063 36.5492 3.64563 36.5492C2.1825 36.5492 1.36559 37.4758 0.951033 38.2318L1.63383 38.6585C2.20688 37.6343 2.90187 37.3295 3.67001 37.3295C4.73078 37.3295 5.34042 37.8782 5.34042 38.756V38.8536C5.34042 39.3169 5.18191 39.768 4.21868 40.902L0.93884 44.7427ZM13.2243 40.3899C13.2243 37.9269 12.2977 36.5492 10.2249 36.5492C8.17656 36.5492 7.24991 37.9269 7.24991 40.3899V41.7555C7.24991 44.2184 8.13998 45.6084 10.2249 45.6084C12.3343 45.6084 13.2243 44.2428 13.2243 41.7555V40.3899ZM12.3465 41.7676C12.3465 43.9623 11.6271 44.8402 10.2249 44.8402C8.87154 44.8402 8.12779 43.9501 8.12779 41.7676V40.3777C8.12779 38.2196 8.87154 37.3173 10.2249 37.3173C11.6271 37.3173 12.3465 38.2074 12.3465 40.3777V41.7676ZM14.0975 44.7427V45.4742H19.6817V44.6939H15.1704L17.9016 41.4872C18.6575 40.6093 19.3647 39.8168 19.3647 38.8658V38.7439C19.3647 37.427 18.3649 36.5492 16.8042 36.5492C15.3411 36.5492 14.5242 37.4758 14.1097 38.2318L14.7924 38.6585C15.3655 37.6343 16.0605 37.3295 16.8286 37.3295C17.8894 37.3295 18.499 37.8782 18.499 38.756V38.8536C18.499 39.3169 18.3405 39.768 17.3773 40.902L14.0975 44.7427ZM20.6768 44.7427V45.4742H26.261V44.6939H21.7497L24.4809 41.4872C25.2369 40.6093 25.944 39.8168 25.944 38.8658V38.7439C25.944 37.427 24.9442 36.5492 23.3836 36.5492C21.9204 36.5492 21.1035 37.4758 20.689 38.2318L21.3718 38.6585C21.9448 37.6343 22.6398 37.3295 23.4079 37.3295C24.4687 37.3295 25.0783 37.8782 25.0783 38.756V38.8536C25.0783 39.3169 24.9198 39.768 23.9566 40.902L20.6768 44.7427Z" fill="#222222"/>
<path d="M315.381 5.03717C315.381 3.57404 315.737 2.20236 316.634 0.995277H316.048C315.143 2.07433 314.704 3.45516 314.704 5.08289V5.44867C314.704 7.0764 315.143 8.47552 316.048 9.55457H316.634C315.692 8.26519 315.381 6.88437 315.381 5.49439V5.03717ZM317.086 5.36637C319.647 5.36637 320.378 5.33894 321.741 5.17433L321.667 4.60737C320.36 4.76283 319.573 4.79026 317.735 4.79026V2.01032H320.918V1.43422H317.086V5.36637ZM323.213 0.885542H322.573V6.86608H323.213V3.7295H324.493V3.16253H323.213V0.885542ZM318.86 6.39056H318.211V9.14307H323.469V8.56696H318.86V6.39056ZM327.22 4.61652C328.399 4.61652 329.35 3.96725 329.35 3.03451V2.65044C329.35 1.7177 328.399 1.06843 327.22 1.06843C326.04 1.06843 325.089 1.7177 325.089 2.65044V3.03451C325.089 3.96725 326.04 4.61652 327.22 4.61652ZM327.22 1.64454C328.034 1.64454 328.729 2.07433 328.729 2.69616V2.98879C328.729 3.61062 328.034 4.04041 327.22 4.04041C326.406 4.04041 325.711 3.61062 325.711 2.98879V2.69616C325.711 2.07433 326.406 1.64454 327.22 1.64454ZM331.408 0.885542H330.759V9.24366H331.408V0.885542ZM330.118 5.29321C328.893 5.43038 327.229 5.49439 324.586 5.49439V6.06136C325.5 6.06136 326.25 6.05221 326.909 6.04307V8.97847H327.567V6.01563C328.573 5.97906 329.341 5.93333 330.173 5.85103L330.118 5.29321ZM332.799 7.77139H333.723V6.85693H332.799V7.77139ZM332.799 3.7295H333.723V2.81504H332.799V3.7295ZM336.399 8.22861L340.332 1.64454H339.755L335.814 8.22861H336.399ZM339.993 4.86342C339.106 4.86342 338.576 5.42124 338.576 6.38142V6.79292C338.576 7.7531 339.106 8.31091 339.993 8.31091C340.88 8.31091 341.411 7.7531 341.411 6.79292V6.38142C341.411 5.42124 340.88 4.86342 339.993 4.86342ZM339.993 7.84454C339.463 7.84454 339.106 7.54277 339.106 6.77463V6.3997C339.106 5.64071 339.463 5.32979 339.993 5.32979C340.524 5.32979 340.88 5.64071 340.88 6.3997V6.77463C340.88 7.54277 340.524 7.84454 339.993 7.84454ZM336.162 1.57138C335.275 1.57138 334.744 2.1292 334.744 3.08938V3.50088C334.744 4.46106 335.275 5.01888 336.162 5.01888C337.049 5.01888 337.579 4.46106 337.579 3.50088V3.08938C337.579 2.1292 337.049 1.57138 336.162 1.57138ZM336.162 4.55251C335.631 4.55251 335.275 4.25074 335.275 3.48259V3.10767C335.275 2.34867 335.631 2.03776 336.162 2.03776C336.692 2.03776 337.049 2.34867 337.049 3.10767V3.48259C337.049 4.25074 336.692 4.55251 336.162 4.55251ZM342.985 5.49439C342.985 6.88437 342.674 8.26519 341.732 9.55457H342.317C343.222 8.47552 343.661 7.0764 343.661 5.44867V5.08289C343.661 3.45516 343.222 2.07433 342.317 0.995277H341.732C342.628 2.20236 342.985 3.57404 342.985 5.03717V5.49439Z" fill="#555555"/>
<path d="M138.173 194.892C138.173 196.056 139.445 196.992 141.569 196.992C143.693 196.992 144.965 196.056 144.965 194.892V194.412C144.965 193.248 143.693 192.312 141.569 192.312C139.445 192.312 138.173 193.248 138.173 194.412V194.892ZM139.253 189.708C139.337 189.888 139.577 190.116 139.937 190.416C140.513 190.896 141.029 191.292 141.653 191.724L142.325 190.86C141.617 190.392 140.993 189.936 140.429 189.42C139.901 188.94 139.805 188.532 139.805 187.764V187.32H141.989V186.3H136.277V187.32H138.605V187.812C138.605 188.688 138.401 189.144 137.813 189.72C137.381 190.14 136.673 190.68 135.905 191.22L136.601 192.072C137.273 191.604 137.921 191.088 138.437 190.644C138.821 190.32 139.169 189.912 139.241 189.708H139.253ZM143.801 194.82C143.801 195.408 142.937 196.02 141.569 196.02C140.201 196.02 139.337 195.408 139.337 194.82V194.484C139.337 193.896 140.201 193.284 141.569 193.284C142.937 193.284 143.801 193.896 143.801 194.484V194.82ZM144.917 192.156V185.616H143.741V188.328H141.701V189.348H143.741V192.156H144.917ZM149.623 196.656V192.264H152.287V196.656H153.475V192.264H156.031V191.256H154.159C154.387 190.068 154.495 188.856 154.495 187.716V186.3H147.151V187.344H153.307V187.992C153.307 189.048 153.211 190.092 152.971 191.256H145.879V192.264H148.435V196.656H149.623ZM159.729 189.6C159.813 189.78 160.053 190.008 160.413 190.308C160.989 190.788 161.529 191.196 162.153 191.628L162.825 190.764C162.117 190.296 161.469 189.828 160.905 189.312C160.377 188.832 160.281 188.424 160.281 187.656V187.284H162.501V186.264H156.729V187.284H159.081V187.704C159.081 188.58 158.877 189.036 158.289 189.612C157.857 190.032 157.125 190.584 156.357 191.124L157.053 191.976C157.725 191.508 158.397 190.98 158.913 190.536C159.297 190.212 159.645 189.804 159.717 189.6H159.729ZM157.965 193.644H164.061V196.788H165.249V192.624H157.965V193.644ZM165.249 192.048V185.616H164.073V192.048H165.249ZM173.423 194.196V190.176H172.235V194.196H168.563V195.204H178.715V194.196H173.423ZM169.811 186.612V187.644H176.039V188.484C176.039 189.972 175.919 191.256 175.631 192.768L176.819 192.912C177.095 191.412 177.227 190.212 177.227 188.064V186.612H169.811ZM183.841 185.76C181.741 185.76 180.289 186.504 180.289 187.764V188.1C180.289 188.772 180.685 189.288 181.381 189.636V191.088H178.765V192.096H188.917V191.088H186.313V189.624C186.997 189.288 187.393 188.76 187.393 188.1V187.764C187.393 186.504 185.941 185.76 183.841 185.76ZM183.841 196.992C186.121 196.992 187.333 195.984 187.333 195.012V194.604C187.333 193.632 186.121 192.624 183.841 192.624C181.561 192.624 180.349 193.632 180.349 194.604V195.012C180.349 195.996 181.561 196.992 183.841 196.992ZM183.841 189.12C182.449 189.12 181.453 188.688 181.453 188.052V187.812C181.453 187.176 182.449 186.744 183.841 186.744C185.233 186.744 186.229 187.176 186.229 187.812V188.052C186.229 188.688 185.233 189.12 183.841 189.12ZM183.841 193.596C185.281 193.596 186.157 194.184 186.157 194.7V194.916C186.157 195.432 185.281 196.02 183.841 196.02C182.401 196.02 181.525 195.432 181.525 194.916V194.7C181.525 194.184 182.401 193.596 183.841 193.596ZM183.841 190.104C184.309 190.104 184.741 190.068 185.137 189.996V191.088H182.557V190.008C182.941 190.08 183.373 190.104 183.841 190.104ZM198.135 196.68V185.616H196.947V196.68H198.135ZM194.919 193.776V186.516H193.743V189.132H190.947V186.516H189.771V193.776H194.919ZM190.947 190.14H193.743V192.756H190.947V190.14ZM208.181 196.752V195.78H201.785V194.964H207.857V192.24H206.573V191.184H209.321V190.2H199.169V191.184H201.917V192.24H200.561V193.212H206.693V194.016H200.621V196.752H208.181ZM204.245 185.652C202.049 185.652 200.705 186.396 200.705 187.5V187.764C200.705 188.868 202.049 189.612 204.245 189.612C206.441 189.612 207.785 188.868 207.785 187.764V187.5C207.785 186.396 206.441 185.652 204.245 185.652ZM204.245 188.628C202.733 188.628 201.869 188.232 201.869 187.728V187.536C201.869 187.032 202.733 186.636 204.245 186.636C205.757 186.636 206.621 187.032 206.621 187.536V187.728C206.621 188.232 205.757 188.628 204.245 188.628ZM203.105 191.184H205.385V192.24H203.105V191.184Z" fill="#222222"/>
<path d="M43.428 164.174L46.326 161.285L45.966 160.907L43.068 163.814L40.197 160.907L39.828 161.303L42.708 164.192L39.81 167.072L40.188 167.45L43.059 164.543L45.939 167.45L46.344 167.054L43.428 164.174ZM43.626 161.501C43.626 161.168 43.338 160.88 43.005 160.88C42.672 160.88 42.384 161.168 42.384 161.501C42.384 161.834 42.681 162.131 43.014 162.131C43.356 162.131 43.635 161.834 43.635 161.501H43.626ZM40.953 164.201C40.953 163.859 40.665 163.571 40.332 163.571C40.008 163.571 39.711 163.859 39.711 164.201C39.711 164.525 40.017 164.813 40.341 164.813C40.683 164.813 40.962 164.525 40.962 164.201H40.953ZM46.479 164.201C46.479 163.841 46.182 163.571 45.849 163.571C45.516 163.571 45.237 163.841 45.237 164.201C45.237 164.525 45.534 164.804 45.858 164.804C46.191 164.804 46.479 164.525 46.479 164.201ZM43.635 166.973C43.635 166.622 43.338 166.343 43.005 166.343C42.672 166.343 42.402 166.622 42.402 166.973C42.402 167.297 42.681 167.585 43.014 167.585C43.356 167.585 43.635 167.297 43.635 166.973ZM55.0484 159.998H54.4094V168.224H55.0484V163.634H56.4254V163.067H55.0484V159.998ZM50.1164 164.246C49.6934 164.723 49.1984 165.2 48.6044 165.722L49.0274 166.163C49.5584 165.695 50.1524 165.092 50.4674 164.75C50.7374 164.453 51.0794 164.03 51.1064 163.913H51.1154C51.1604 164.03 51.4214 164.327 51.6914 164.615C52.0514 165.002 52.5554 165.497 53.1224 166.037L53.5364 165.605C52.8614 164.993 52.3304 164.453 51.9704 164.039C51.4844 163.481 51.4304 163.184 51.4304 162.491V160.601H50.7734V162.536C50.7734 163.247 50.6834 163.598 50.1164 164.246ZM56.6158 162.374C56.6158 163.202 57.4258 164.012 58.6228 164.012C59.7928 164.012 60.5938 163.238 60.6298 162.428H62.5018V164.201H63.1318V159.998H62.5018V161.87H60.6298C60.5848 161.069 59.7838 160.304 58.6228 160.304C57.4258 160.304 56.6158 161.114 56.6158 161.942V162.374ZM62.5108 164.687V165.821H58.7308V164.687H58.1098V168.215H63.1318V164.687H62.5108ZM60.0178 162.311C60.0178 162.905 59.4238 163.445 58.6228 163.445C57.8218 163.445 57.2278 162.905 57.2278 162.311V162.005C57.2278 161.411 57.8218 160.871 58.6228 160.871C59.4238 160.871 60.0178 161.411 60.0178 162.005V162.311ZM58.7308 167.648V166.379H62.5108V167.648H58.7308ZM69.8022 160.628V162.104H65.7162V160.628H65.0952V164.732H67.4442V166.514H63.9792V167.063H71.5392V166.514H68.0742V164.732H70.4232V160.628H69.8022ZM65.7162 164.201V162.653H69.8022V164.201H65.7162ZM71.6306 166.514V167.063H79.1906V166.514H75.1496V163.355H74.5016V166.514H71.6306ZM77.7416 165.461C77.9576 164.3 78.0566 163.256 78.0566 161.744V160.772H72.5846V161.33H77.3996V162.077C77.3996 163.283 77.2826 164.273 77.0756 165.38L77.7416 165.461ZM86.095 159.998H85.465V162.608H83.512V163.184H85.465V168.224H86.095V159.998ZM80.767 164.246C80.344 164.723 79.849 165.2 79.255 165.722L79.678 166.163C80.209 165.695 80.803 165.092 81.118 164.75C81.388 164.453 81.73 164.03 81.757 163.913H81.766C81.811 164.03 82.072 164.327 82.342 164.615C82.702 165.002 83.206 165.497 83.773 166.037L84.187 165.605C83.512 164.993 82.981 164.453 82.621 164.039C82.135 163.481 82.081 163.184 82.081 162.491V160.601H81.424V162.536C81.424 163.247 81.334 163.598 80.767 164.246ZM92.4234 165.182C91.0734 165.182 89.8674 165.686 89.8674 166.649V166.973C89.8674 167.918 91.0734 168.44 92.4234 168.44C93.7734 168.44 94.9794 167.918 94.9794 166.973V166.649C94.9794 165.704 93.7734 165.182 92.4234 165.182ZM92.4234 167.9C91.4514 167.9 90.4794 167.54 90.4794 166.937V166.685C90.4794 166.082 91.4514 165.722 92.4234 165.722C93.3954 165.722 94.3674 166.082 94.3674 166.685V166.937C94.3674 167.54 93.3954 167.9 92.4234 167.9ZM88.6434 163.859V164.399H96.2034V163.859H92.2974V162.122H91.6494V163.859H88.6434ZM89.6424 160.358V160.916H94.4214V161.204C94.4214 161.807 94.3404 162.536 94.1964 163.193L94.8264 163.265C94.9524 162.689 95.0514 161.834 95.0514 161.195V160.358H89.6424ZM103.081 159.998H102.442V168.224H103.081V159.998ZM97.8788 164.264C97.4558 164.741 96.9608 165.218 96.3668 165.74L96.7898 166.181C97.3208 165.713 97.9148 165.11 98.2298 164.768C98.4998 164.471 98.8418 164.048 98.8688 163.931H98.8778C98.9228 164.048 99.1838 164.345 99.4538 164.633C99.8138 165.02 100.318 165.515 100.885 166.055L101.299 165.623C100.624 165.011 100.093 164.471 99.7328 164.057C99.2468 163.499 99.1928 163.202 99.1928 162.509V160.592H98.5358V162.554C98.5358 163.265 98.4458 163.616 97.8788 164.264ZM112.424 159.998H111.785V168.224H112.424V159.998ZM106.412 166.352C109.337 164.642 109.778 164.03 109.778 162.392V160.772H106.169V161.348H109.157V162.383C109.157 163.724 108.842 164.255 106.079 165.839L106.412 166.352ZM117.079 162.176H117.088C117.187 162.365 117.601 162.599 118.159 162.824C118.627 163.022 119.248 163.256 119.986 163.499L120.22 163.004C119.464 162.761 118.78 162.509 118.339 162.32C117.601 162.005 117.403 161.744 117.403 161.276V160.916H119.878V160.376H114.298V160.916H116.764V161.276C116.764 161.744 116.557 161.996 115.819 162.32C115.369 162.518 114.757 162.743 113.938 163.013L114.19 163.508C114.991 163.238 115.495 163.049 116.008 162.833C116.566 162.599 116.98 162.374 117.079 162.176ZM113.308 164.129V164.669H116.863V166.433H117.493V164.669H120.868V164.129H113.308ZM115.063 165.632H114.424V168.125H119.923V167.567H115.063V165.632Z" fill="#555555"/>
</svg>
