<svg width="345" height="612" viewBox="0 0 345 612" fill="none" xmlns="http://www.w3.org/2000/svg">
<g filter="url(#filter0_d_1_16881)">
<path d="M172 220C221.706 220 262 179.706 262 130C262 80.2944 221.706 40 172 40C122.294 40 82 80.2944 82 130C82 179.706 122.294 220 172 220Z" fill="white"/>
<path d="M261.5 130C261.5 179.429 221.429 219.5 172 219.5C122.571 219.5 82.5 179.429 82.5 130C82.5 80.5705 122.571 40.5 172 40.5C221.429 40.5 261.5 80.5705 261.5 130Z" stroke="#DDDDDD"/>
</g>
<path d="M153.291 120.32V137.624H164.235V135.584H155.667V129.776H163.563V127.736H155.667V122.36H164.067V120.32H153.291ZM171.715 135.728C170.227 135.728 168.115 134.888 166.819 133.904L165.619 135.848C167.059 137 169.195 137.888 171.643 137.888C175.195 137.888 177.811 136.256 177.811 133.088V132.656C177.811 130.256 176.491 128.744 172.219 127.784C169.651 127.208 168.235 126.632 168.235 125.048V124.664C168.235 123.296 169.651 122.192 171.811 122.192C173.395 122.192 174.667 122.552 175.939 123.416L177.067 121.568C175.603 120.584 173.899 120.056 171.787 120.056C167.803 120.056 165.859 122.336 165.859 124.688V125.12C165.859 128.24 168.355 129.248 171.619 129.944C174.427 130.544 175.411 131.312 175.411 132.824V133.208C175.411 134.576 174.163 135.728 171.715 135.728ZM192.288 128.12H186.072V130.16H189.912V135.032C189 135.488 187.776 135.728 186.48 135.728C183.384 135.728 181.392 133.976 181.392 129.968V127.976C181.392 123.968 183.216 122.216 186.216 122.216C187.848 122.216 189.216 122.6 190.728 123.8L191.952 121.88C190.344 120.608 188.448 120.056 186.216 120.056C181.824 120.056 179.016 122.624 179.016 127.664V130.28C179.016 135.368 181.824 137.888 186.408 137.888C188.568 137.888 190.776 137.384 192.288 136.328V128.12Z" fill="#222222"/>
<path d="M15.825 275.435C13.05 275.435 11.385 276.665 11.385 278.165V278.615C11.385 279.98 12.75 281.12 15.075 281.315V282.59H9.48V283.85H22.17V282.59H16.575V281.315C18.9 281.12 20.265 279.98 20.265 278.615V278.165C20.265 276.665 18.6 275.435 15.825 275.435ZM15.825 280.115C13.98 280.115 12.84 279.365 12.84 278.555V278.225C12.84 277.415 13.98 276.665 15.825 276.665C17.67 276.665 18.81 277.415 18.81 278.225V278.555C18.81 279.365 17.67 280.115 15.825 280.115ZM12.795 284.87H11.31V288.95H20.61V287.66H12.795V284.87ZM33.6473 282.155V275.27H32.1773V282.155H33.6473ZM34.0373 289.19V287.96H26.5373V286.61H33.6473V282.845H25.0073V284.075H32.1923V285.41H25.0823V289.19H34.0373ZM26.5673 279.41C26.6423 279.62 27.0323 279.995 27.4223 280.325C28.1273 280.925 28.8623 281.45 29.6273 282.005L30.4823 280.925C29.6273 280.355 28.7423 279.725 28.0373 279.095C27.3623 278.48 27.2573 278 27.2573 277.07V275.615H25.7573V277.13C25.7573 278.195 25.5173 278.75 24.7823 279.44C24.2423 279.935 23.2673 280.7 22.3073 281.42L23.1623 282.47C23.9873 281.885 24.9173 281.135 25.5473 280.58C26.1023 280.085 26.4923 279.65 26.5523 279.41H26.5673ZM47.9447 280.385H45.8147V275.27H44.3297V289.1H45.8147V281.675H47.9447V280.385ZM36.0497 286.055C41.5247 282.74 41.7047 281.915 41.7047 279.185V276.56H35.5397V277.835H40.2347V279.17C40.2347 281.3 40.0547 282.065 35.2697 284.87L36.0497 286.055ZM47.737 285.995V287.255H60.427V285.995H47.737ZM54.097 280.505C54.262 280.85 54.877 281.375 55.852 281.99C56.752 282.56 57.847 283.19 58.957 283.82L59.677 282.665C58.492 282.02 57.622 281.525 56.677 280.91C55.057 279.845 54.832 279.23 54.832 277.76V276.245H53.332V277.76C53.332 279.23 53.017 279.875 51.652 280.805C50.647 281.48 49.702 282.02 48.502 282.68L49.237 283.85C50.482 283.16 51.442 282.575 52.312 282.02C53.317 281.375 53.932 280.85 54.082 280.505H54.097ZM74.1844 275.75H65.1844V280.7H68.9344V282.11H63.3394V283.37H76.0294V282.11H70.4344V280.7H74.1844V275.75ZM64.9744 285.95H72.7744V289.235H74.2594V284.69H64.9744V285.95ZM72.7144 279.455H66.6544V276.995H72.7144V279.455ZM85.5417 281.84V277.655H87.3417V276.425H77.5167V277.655H79.3467V281.84H77.4117V283.07H79.6467V285.995H76.0917V287.255H88.7817V285.995H85.2267V283.07H87.4617V281.84H85.5417ZM80.8317 277.655H84.0567V281.84H80.8317V277.655ZM81.1167 283.07H83.7567V285.995H81.1167V283.07ZM99.8541 285.53V280.775H101.804V279.485H99.8541V275.27H98.3841V285.53H99.8541ZM92.5191 284.81H91.0341V288.965H100.229V287.69H92.5191V284.81ZM97.5291 281.9C95.9541 282.05 94.7241 282.125 93.0741 282.17V279.335H91.6041V282.2H88.8441V283.475C93.4641 283.475 95.2641 283.37 97.6491 283.13L97.5291 281.9ZM96.2241 280.91C96.4341 280.04 96.5691 278.69 96.5691 277.625V275.975H89.7741V277.25H95.0991V277.835C95.0991 278.69 94.9941 279.695 94.7691 280.73L96.2241 280.91ZM113.041 289.1V275.27H111.556V289.1H113.041ZM108.781 281.54V276.365H102.556V277.64H107.311V280.295H102.601V285.755H105.121C107.611 285.755 108.976 285.635 110.371 285.425L110.236 284.18C108.676 284.405 107.476 284.48 105.481 284.48H104.071V281.54H108.781ZM123.544 275.525C120.814 275.525 119.104 276.515 119.104 278.105V278.585C119.104 280.175 120.814 281.165 123.544 281.165C126.274 281.165 127.984 280.175 127.984 278.585V278.105C127.984 276.515 126.274 275.525 123.544 275.525ZM124.474 286.115V283.49H129.889V282.23H117.199V283.49H122.974V286.115H124.474ZM120.514 284.87H119.029V288.95H128.329V287.66H120.514V284.87ZM123.544 279.935C121.759 279.935 120.559 279.35 120.559 278.525V278.165C120.559 277.34 121.759 276.755 123.544 276.755C125.329 276.755 126.529 277.34 126.529 278.165V278.525C126.529 279.35 125.329 279.935 123.544 279.935ZM133.071 286.85C133.071 288.305 134.661 289.49 137.316 289.49C139.971 289.49 141.561 288.305 141.561 286.85V286.25C141.561 284.795 139.971 283.61 137.316 283.61C134.661 283.61 133.071 284.795 133.071 286.25V286.85ZM137.256 278.825C137.256 277.49 136.176 275.795 133.821 275.795C131.466 275.795 130.386 277.49 130.386 278.825V279.59C130.386 280.925 131.466 282.62 133.821 282.62C136.176 282.62 137.256 280.925 137.256 279.59V278.825ZM141.501 283.43V275.27H140.046V276.995H137.871V278.27H140.046V280.115H137.871V281.39H140.046V283.43H141.501ZM140.106 286.76C140.106 287.495 139.026 288.275 137.316 288.275C135.606 288.275 134.526 287.495 134.526 286.76V286.34C134.526 285.605 135.606 284.825 137.316 284.825C139.026 284.825 140.106 285.605 140.106 286.34V286.76ZM135.831 279.515C135.831 280.4 135.201 281.33 133.821 281.33C132.441 281.33 131.811 280.4 131.811 279.515V278.9C131.811 278.015 132.441 277.085 133.821 277.085C135.201 277.085 135.831 278.015 135.831 278.9V279.515ZM145.553 281.69V282.95H158.243V281.69H145.553ZM147.428 275.78V280.505H156.383V279.245H148.898V277.04H156.293V275.78H147.428ZM151.898 289.49C154.553 289.49 156.218 288.395 156.218 287V286.49C156.218 285.065 154.538 284 151.898 284C149.258 284 147.578 285.05 147.578 286.49V287C147.578 288.41 149.258 289.49 151.898 289.49ZM151.898 285.215C153.593 285.215 154.748 285.86 154.748 286.58V286.91C154.748 287.63 153.593 288.275 151.898 288.275C150.203 288.275 149.048 287.63 149.048 286.91V286.58C149.048 285.86 150.203 285.215 151.898 285.215ZM161.681 276.305C159.686 276.305 158.636 277.64 158.636 280.28V281.75C158.636 284.39 159.686 285.725 161.681 285.725C163.676 285.725 164.726 284.39 164.726 281.75V281.615H166.151V288.425H167.606V275.555H166.151V280.325H164.726V280.28C164.726 277.64 163.676 276.305 161.681 276.305ZM170.351 275.27H168.896V289.1H170.351V275.27ZM161.681 284.42C160.571 284.42 160.046 283.61 160.046 281.585V280.445C160.046 278.42 160.571 277.625 161.681 277.625C162.791 277.625 163.316 278.42 163.316 280.445V281.585C163.316 283.61 162.791 284.42 161.681 284.42ZM184.918 285.53V280.775H186.868V279.485H184.918V275.27H183.448V285.53H184.918ZM177.583 284.81H176.098V288.965H185.293V287.69H177.583V284.81ZM182.593 281.9C181.018 282.05 179.788 282.125 178.138 282.17V279.335H176.668V282.2H173.908V283.475C178.528 283.475 180.328 283.37 182.713 283.13L182.593 281.9ZM181.288 280.91C181.498 280.04 181.633 278.69 181.633 277.625V275.975H174.838V277.25H180.163V277.835C180.163 278.69 180.058 279.695 179.833 280.73L181.288 280.91ZM190.8 284.135C192.945 284.135 194.025 282.875 194.025 281.585V281.135C194.025 279.845 192.945 278.585 190.8 278.585C188.655 278.585 187.575 279.83 187.575 281.135V281.585C187.575 282.875 188.655 284.135 190.8 284.135ZM199.545 279.38H197.58V275.27H196.11V285.305H197.58V280.67H199.545V279.38ZM190.62 285.125H189.135V288.95H197.955V287.66H190.62V285.125ZM194.76 276.8H191.535V275.135H190.065V276.8H186.825V278.06H194.76V276.8ZM190.8 282.95C189.585 282.95 188.985 282.245 188.985 281.51V281.21C188.985 280.475 189.57 279.77 190.8 279.77C192.03 279.77 192.615 280.475 192.615 281.21V281.51C192.615 282.245 192.015 282.95 190.8 282.95ZM206.883 282.29C207.003 282.59 207.378 283.01 207.798 283.46C208.368 284.075 208.998 284.705 210.018 285.635L210.993 284.63C210.108 283.85 209.478 283.265 208.833 282.56C207.768 281.405 207.603 280.955 207.603 279.77V277.805H210.498V276.515H203.133V277.805H206.103V279.77C206.103 280.88 205.938 281.45 204.948 282.545C204.273 283.295 203.538 284.03 202.638 284.84L203.613 285.845C204.618 284.915 205.368 284.15 205.983 283.475C206.463 282.95 206.733 282.62 206.868 282.29H206.883ZM213.858 289.1V275.27H212.373V289.1H213.858ZM217.85 283.895V289.085H226.475V283.895H217.85ZM219.605 280.385C219.71 280.61 220.01 280.895 220.46 281.27C221.18 281.87 221.855 282.38 222.635 282.92L223.475 281.84C222.59 281.255 221.78 280.67 221.075 280.025C220.415 279.425 220.295 278.915 220.295 277.985V277.955H223.13V276.68H220.295V275.105H218.795V276.68H215.78V277.955H218.795V278.045C218.795 279.11 218.54 279.68 217.805 280.4C217.265 280.925 216.35 281.615 215.39 282.29L216.26 283.355C217.1 282.77 217.94 282.11 218.585 281.555C219.065 281.15 219.5 280.64 219.59 280.385H219.605ZM219.32 285.155H225.005V287.825H219.32V285.155ZM226.475 283.22V275.27H225.005V283.22H226.475ZM242.632 275.27H241.177V280.1H239.512V275.555H238.057V288.425H239.512V281.39H241.177V289.1H242.632V275.27ZM234.952 279.185C234.952 281.225 234.952 282.275 230.722 284.99L231.547 286.145C235.897 283.235 236.407 282.125 236.407 279.44V276.62H231.112V277.895H234.952V279.185ZM246.49 286.865C246.49 288.32 248.08 289.49 250.735 289.49C253.39 289.49 254.98 288.32 254.98 286.865V286.265C254.98 284.81 253.39 283.64 250.735 283.64C248.08 283.64 246.49 284.81 246.49 286.265V286.865ZM247.84 280.385C247.945 280.61 248.245 280.895 248.695 281.27C249.415 281.87 250.06 282.365 250.84 282.905L251.68 281.825C250.795 281.24 250.015 280.67 249.31 280.025C248.65 279.425 248.53 278.915 248.53 277.955V277.4H251.26V276.125H244.12V277.4H247.03V278.015C247.03 279.11 246.775 279.68 246.04 280.4C245.5 280.925 244.615 281.6 243.655 282.275L244.525 283.34C245.365 282.755 246.175 282.11 246.82 281.555C247.3 281.15 247.735 280.64 247.825 280.385H247.84ZM253.525 286.775C253.525 287.51 252.445 288.275 250.735 288.275C249.025 288.275 247.945 287.51 247.945 286.775V286.355C247.945 285.62 249.025 284.855 250.735 284.855C252.445 284.855 253.525 285.62 253.525 286.355V286.775ZM254.92 283.445V275.27H253.45V278.66H250.9V279.935H253.45V283.445H254.92Z" fill="#222222"/>
<path d="M10.963 301.788C10.963 299.708 11.47 297.758 12.744 296.042H11.912C10.625 297.576 10.001 299.539 10.001 301.853V302.373C10.001 304.687 10.625 306.676 11.912 308.21H12.744C11.405 306.377 10.963 304.414 10.963 302.438V301.788ZM13.2962 305.558V306.338H19.2502V305.506H14.4402L17.3522 302.087C18.1582 301.151 18.9122 300.306 18.9122 299.292V299.162C18.9122 297.758 17.8462 296.822 16.1822 296.822C14.6222 296.822 13.7512 297.81 13.3092 298.616L14.0372 299.071C14.6482 297.979 15.3892 297.654 16.2082 297.654C17.3392 297.654 17.9892 298.239 17.9892 299.175V299.279C17.9892 299.773 17.8202 300.254 16.7932 301.463L13.2962 305.558ZM26.3951 300.917C26.3951 298.291 25.4071 296.822 23.1971 296.822C21.0131 296.822 20.0251 298.291 20.0251 300.917V302.373C20.0251 304.999 20.9741 306.481 23.1971 306.481C25.4461 306.481 26.3951 305.025 26.3951 302.373V300.917ZM25.4591 302.386C25.4591 304.726 24.6921 305.662 23.1971 305.662C21.7541 305.662 20.9611 304.713 20.9611 302.386V300.904C20.9611 298.603 21.7541 297.641 23.1971 297.641C24.6921 297.641 25.4591 298.59 25.4591 300.904V302.386ZM27.326 305.558V306.338H33.28V305.506H28.47L31.382 302.087C32.188 301.151 32.942 300.306 32.942 299.292V299.162C32.942 297.758 31.876 296.822 30.212 296.822C28.652 296.822 27.781 297.81 27.339 298.616L28.067 299.071C28.678 297.979 29.419 297.654 30.238 297.654C31.369 297.654 32.019 298.239 32.019 299.175V299.279C32.019 299.773 31.85 300.254 30.823 301.463L27.326 305.558ZM34.341 305.558V306.338H40.295V305.506H35.485L38.397 302.087C39.203 301.151 39.957 300.306 39.957 299.292V299.162C39.957 297.758 38.891 296.822 37.227 296.822C35.667 296.822 34.796 297.81 34.354 298.616L35.082 299.071C35.693 297.979 36.434 297.654 37.253 297.654C38.384 297.654 39.034 298.239 39.034 299.175V299.279C39.034 299.773 38.865 300.254 37.838 301.463L34.341 305.558ZM41.2909 306.715H42.6039V305.415H41.2909V306.715ZM49.8464 300.917C49.8464 298.291 48.8584 296.822 46.6484 296.822C44.4644 296.822 43.4764 298.291 43.4764 300.917V302.373C43.4764 304.999 44.4254 306.481 46.6484 306.481C48.8974 306.481 49.8464 305.025 49.8464 302.373V300.917ZM48.9104 302.386C48.9104 304.726 48.1434 305.662 46.6484 305.662C45.2054 305.662 44.4124 304.713 44.4124 302.386V300.904C44.4124 298.603 45.2054 297.641 46.6484 297.641C48.1434 297.641 48.9104 298.59 48.9104 300.904V302.386ZM51.5833 298.746C52.1163 297.901 52.8443 297.654 53.5853 297.654C54.7163 297.654 55.4183 298.239 55.4183 299.175V299.279C55.4183 300.085 54.8463 301.06 53.6763 301.06H52.5843V301.84H53.6373C54.5343 301.84 55.8083 302.204 55.8083 303.621V303.79C55.8083 304.661 55.1973 305.649 53.5593 305.649C52.7013 305.649 51.9213 305.376 51.0113 304.713L50.5563 305.441C51.4403 306.143 52.4673 306.481 53.5593 306.481C55.8603 306.481 56.7053 305.116 56.7053 303.777V303.582C56.7053 302.49 56.0163 301.619 54.7293 301.398C55.9773 300.969 56.3413 300.033 56.3413 299.292V299.162C56.3413 297.758 55.2753 296.822 53.5723 296.822C52.1423 296.822 51.3363 297.524 50.8683 298.278L51.5833 298.746ZM57.7273 306.715H59.0403V305.415H57.7273V306.715ZM60.1988 305.558V306.338H66.1528V305.506H61.3428L64.2548 302.087C65.0608 301.151 65.8148 300.306 65.8148 299.292V299.162C65.8148 297.758 64.7488 296.822 63.0848 296.822C61.5248 296.822 60.6538 297.81 60.2118 298.616L60.9398 299.071C61.5508 297.979 62.2918 297.654 63.1108 297.654C64.2418 297.654 64.8918 298.239 64.8918 299.175V299.279C64.8918 299.773 64.7228 300.254 63.6958 301.463L60.1988 305.558ZM68.0197 298.746C68.5527 297.901 69.2807 297.654 70.0217 297.654C71.1527 297.654 71.8547 298.239 71.8547 299.175V299.279C71.8547 300.085 71.2827 301.06 70.1127 301.06H69.0207V301.84H70.0737C70.9707 301.84 72.2447 302.204 72.2447 303.621V303.79C72.2447 304.661 71.6337 305.649 69.9957 305.649C69.1377 305.649 68.3577 305.376 67.4477 304.713L66.9927 305.441C67.8767 306.143 68.9037 306.481 69.9957 306.481C72.2967 306.481 73.1417 305.116 73.1417 303.777V303.582C73.1417 302.49 72.4527 301.619 71.1657 301.398C72.4137 300.969 72.7777 300.033 72.7777 299.292V299.162C72.7777 297.758 71.7117 296.822 70.0087 296.822C68.5787 296.822 67.7727 297.524 67.3047 298.278L68.0197 298.746ZM74.1636 306.715H75.4766V305.415H74.1636V306.715ZM77.7401 302.438C77.7401 304.414 77.2981 306.377 75.9591 308.21H76.7911C78.0781 306.676 78.7021 304.687 78.7021 302.373V301.853C78.7021 299.539 78.0781 297.576 76.7911 296.042H75.9591C77.2331 297.758 77.7401 299.708 77.7401 301.788V302.438Z" fill="#BBBBBB"/>
<path d="M9.85 341.866H15.154V340.778H9.85V341.866ZM29.1809 333.893C26.0359 333.893 24.1489 335.287 24.1489 336.987V337.497C24.1489 339.044 25.6959 340.336 28.3309 340.557V342.002H21.9899V343.43H36.3719V342.002H30.0309V340.557C32.6659 340.336 34.2129 339.044 34.2129 337.497V336.987C34.2129 335.287 32.3259 333.893 29.1809 333.893ZM29.1809 339.197C27.0899 339.197 25.7979 338.347 25.7979 337.429V337.055C25.7979 336.137 27.0899 335.287 29.1809 335.287C31.2719 335.287 32.5639 336.137 32.5639 337.055V337.429C32.5639 338.347 31.2719 339.197 29.1809 339.197ZM25.7469 344.586H24.0639V349.21H34.6039V347.748H25.7469V344.586ZM49.3795 341.509V333.706H47.7135V341.509H49.3795ZM49.8215 349.482V348.088H41.3215V346.558H49.3795V342.291H39.5875V343.685H47.7305V345.198H39.6725V349.482H49.8215ZM41.3555 338.398C41.4405 338.636 41.8825 339.061 42.3245 339.435C43.1235 340.115 43.9565 340.71 44.8235 341.339L45.7925 340.115C44.8235 339.469 43.8205 338.755 43.0215 338.041C42.2565 337.344 42.1375 336.8 42.1375 335.746V334.097H40.4375V335.814C40.4375 337.021 40.1655 337.65 39.3325 338.432C38.7205 338.993 37.6155 339.86 36.5275 340.676L37.4965 341.866C38.4315 341.203 39.4855 340.353 40.1995 339.724C40.8285 339.163 41.2705 338.67 41.3385 338.398H41.3555ZM65.5832 339.503H63.1692V333.706H61.4862V349.38H63.1692V340.965H65.5832V339.503ZM52.1022 345.929C58.3072 342.172 58.5112 341.237 58.5112 338.143V335.168H51.5242V336.613H56.8452V338.126C56.8452 340.54 56.6412 341.407 51.2182 344.586L52.1022 345.929ZM65.3478 345.861V347.289H79.7298V345.861H65.3478ZM72.5558 339.639C72.7428 340.03 73.4398 340.625 74.5448 341.322C75.5648 341.968 76.8058 342.682 78.0638 343.396L78.8798 342.087C77.5368 341.356 76.5508 340.795 75.4798 340.098C73.6438 338.891 73.3888 338.194 73.3888 336.528V334.811H71.6888V336.528C71.6888 338.194 71.3318 338.925 69.7848 339.979C68.6458 340.744 67.5748 341.356 66.2148 342.104L67.0478 343.43C68.4588 342.648 69.5468 341.985 70.5328 341.356C71.6718 340.625 72.3688 340.03 72.5388 339.639H72.5558ZM85.8525 343.277V349.363H95.4065V343.277H85.8525ZM88.9805 336.885C88.9805 338.653 88.1305 339.486 83.3365 341.492L83.9655 342.852C89.3035 340.591 90.6295 339.622 90.6295 337.004V334.624H83.9825V336.052H88.9805V336.885ZM87.5185 344.705H93.7405V347.935H87.5185V344.705ZM97.6335 337.344H95.4065V333.706H93.7405V342.512H95.4065V338.806H97.6335V337.344ZM99.3361 345.895H108.159V349.567H109.859V344.467H105.524V342.767H111.865V341.339H97.4831V342.767H103.824V344.467H99.3361V345.895ZM104.674 338.313C104.929 338.755 105.677 339.078 106.391 339.35C107.649 339.826 108.839 340.217 110.114 340.574L110.624 339.214C109.23 338.823 108.159 338.483 107.394 338.177C106.153 337.684 105.524 337.259 105.507 336.443H110.046V335.049H105.507V333.502H103.824V335.049H99.3021V336.443H103.824C103.807 337.259 103.195 337.718 101.954 338.177C100.815 338.602 99.8971 338.891 98.7241 339.214L99.2341 340.574C100.492 340.217 101.699 339.826 102.974 339.35C103.688 339.078 104.402 338.755 104.657 338.313H104.674ZM127.644 345.334V339.945H129.854V338.483H127.644V333.706H125.978V345.334H127.644ZM119.331 344.518H117.648V349.227H128.069V347.782H119.331V344.518ZM125.009 341.22C123.224 341.39 121.83 341.475 119.96 341.526V338.313H118.294V341.56H115.166V343.005C120.402 343.005 122.442 342.886 125.145 342.614L125.009 341.22ZM123.53 340.098C123.768 339.112 123.921 337.582 123.921 336.375V334.505H116.22V335.95H122.255V336.613C122.255 337.582 122.136 338.721 121.881 339.894L123.53 340.098ZM142.589 349.38V333.706H140.906V349.38H142.589ZM137.761 340.812V334.947H130.706V336.392H136.095V339.401H130.757V345.589H133.613C136.435 345.589 137.982 345.453 139.563 345.215L139.41 343.804C137.642 344.059 136.282 344.144 134.021 344.144H132.423V340.812H137.761Z" fill="#19B29B"/>
<path d="M173 390L179 380H167L173 390Z" fill="#19B29B"/>
<rect x="1.5" y="461.5" width="342" height="149" rx="74.5" fill="white" stroke="url(#paint0_linear_1_16881)" stroke-width="3"/>
<path d="M53.7539 518.785V519.685H66.3539V518.785H60.5789V517.21C62.7539 517.075 64.3589 516.1 64.3589 514.72V514.15C64.3589 512.665 62.4989 511.645 60.0539 511.645C57.6089 511.645 55.7489 512.65 55.7489 514.15V514.72C55.7489 516.1 57.3389 517.075 59.5289 517.21V518.785H53.7539ZM60.0539 512.545C61.8089 512.545 63.3389 513.28 63.3389 514.225V514.645C63.3389 515.59 61.8089 516.325 60.0539 516.325C58.2989 516.325 56.7689 515.59 56.7689 514.645V514.225C56.7689 513.28 58.2989 512.545 60.0539 512.545ZM56.6789 520.855H55.6139V524.875H64.7639V523.945H56.6789V520.855ZM69.3112 518.92V519.835H76.7362V521.56H69.3862V525.085H78.1312V524.185H70.4212V522.445H77.7712V518.92H69.3112ZM77.7712 511.33H76.7212V518.11H77.7712V511.33ZM70.7962 515.245C70.8862 515.5 71.4412 515.98 72.1462 516.535C72.5812 516.88 73.2562 517.39 73.9612 517.885L74.5612 517.12C73.7662 516.595 72.9112 515.95 72.3562 515.485C71.4112 514.69 71.2762 514.345 71.2762 513.25V511.675H70.1962V513.295C70.1962 514.39 69.9562 514.9 69.0862 515.695C68.4712 516.25 67.5862 516.955 66.6562 517.6L67.2862 518.365C68.3062 517.63 69.1462 516.94 69.6712 516.475C70.3312 515.905 70.7062 515.485 70.7812 515.245H70.7962ZM89.8486 511.33H88.7836V525.04H89.8486V517.51H92.1286V516.565H89.8486V511.33ZM80.2186 521.89C85.0936 519.04 85.7986 518.035 85.7986 515.305V512.635H79.8136V513.595H84.7636V515.29C84.7636 517.525 84.2686 518.395 79.6636 521.035L80.2186 521.89ZM98.3109 516.28C98.4459 516.58 98.9859 517.075 100.066 517.795C100.966 518.395 102.181 519.115 103.246 519.7L103.801 518.875C102.511 518.2 101.371 517.525 100.666 517.045C99.1809 516.04 98.8509 515.575 98.8509 513.955V512.305H97.7559V513.955C97.7559 515.575 97.4109 516.04 95.9259 517.045C95.2209 517.525 94.0659 518.215 92.7609 518.89L93.3309 519.73C94.4109 519.145 95.6409 518.41 96.5409 517.81C97.6209 517.09 98.1759 516.58 98.2959 516.28H98.3109ZM92.0109 522.19V523.105H104.611V522.19H92.0109ZM118.233 511.33H117.168V525.04H118.233V517.39H120.528V516.445H118.233V511.33ZM110.013 518.41C109.308 519.205 108.483 520 107.493 520.87L108.198 521.605C109.083 520.825 110.073 519.82 110.598 519.25C111.048 518.755 111.618 518.05 111.663 517.855H111.678C111.753 518.05 112.188 518.545 112.638 519.025C113.238 519.67 114.078 520.495 115.023 521.395L115.713 520.675C114.588 519.655 113.703 518.755 113.103 518.065C112.293 517.135 112.203 516.64 112.203 515.485V512.335H111.108V515.56C111.108 516.745 110.958 517.33 110.013 518.41ZM120.366 518.35V519.25H132.966V518.35H129.531V516.295C130.401 515.905 130.971 515.275 130.971 514.45V513.94C130.971 512.38 128.961 511.57 126.666 511.57C124.371 511.57 122.361 512.38 122.361 513.94V514.45C122.361 515.29 122.931 515.905 123.816 516.295V518.35H120.366ZM126.666 525.4C129.126 525.4 130.971 524.425 130.971 523.015V522.505C130.971 521.095 129.126 520.12 126.666 520.12C124.206 520.12 122.361 521.095 122.361 522.505V523.015C122.361 524.425 124.206 525.4 126.666 525.4ZM126.666 521.02C128.391 521.02 129.951 521.665 129.951 522.595V522.925C129.951 523.855 128.391 524.5 126.666 524.5C124.941 524.5 123.381 523.855 123.381 522.925V522.595C123.381 521.665 124.941 521.02 126.666 521.02ZM126.666 512.47C128.316 512.47 129.951 513.055 129.951 514.015V514.375C129.951 515.335 128.316 515.92 126.666 515.92C125.016 515.92 123.381 515.335 123.381 514.375V514.015C123.381 513.055 125.016 512.47 126.666 512.47ZM126.666 516.82C127.311 516.82 127.926 516.76 128.496 516.64V518.35H124.851V516.64C125.406 516.76 126.021 516.82 126.666 516.82ZM135.593 522.97C135.593 524.44 137.183 525.415 139.688 525.415C142.193 525.415 143.783 524.44 143.783 522.97V522.43C143.783 520.975 142.193 519.985 139.688 519.985C137.183 519.985 135.593 520.96 135.593 522.43V522.97ZM134.678 515.89H139.568V512.02H133.643V512.95H138.533V514.99H133.643V518.875C137.753 518.875 139.583 518.815 141.323 518.59L141.233 517.69C139.343 517.915 138.113 517.945 134.678 517.945V515.89ZM139.688 524.515C137.798 524.515 136.613 523.795 136.613 522.925V522.475C136.613 521.605 137.798 520.885 139.688 520.885C141.578 520.885 142.763 521.605 142.763 522.475V522.925C142.763 523.795 141.578 524.515 139.688 524.515ZM143.708 511.33H142.673V519.625H143.708V517.24H145.793V516.31H143.708V514.45H145.793V513.52H143.708V511.33ZM212.54 512.035H206.36V517.765H212.54V512.035ZM213.005 518.665H211.985V520.24H207.995V521.155H211.985V521.455C211.985 522.235 211.625 522.715 210.395 523.225C209.57 523.57 208.52 523.945 207.59 524.245L207.965 525.07C208.835 524.785 209.81 524.41 210.695 524.05C211.64 523.645 212.255 523.24 212.495 522.82C212.735 523.24 213.335 523.645 214.295 524.05C215.18 524.41 216.155 524.785 217.025 525.07L217.4 524.245C216.47 523.945 215.42 523.57 214.595 523.225C213.365 522.715 213.005 522.235 213.005 521.455V521.155H216.965V520.24H213.005V518.665ZM211.52 516.835H207.38V512.965H211.52V516.835ZM216.755 511.33H215.705V518.815H216.755V511.33Z" fill="#222222"/>
<path d="M159.52 511.75H150.52V516.7H154.27V518.11H148.675V519.37H161.365V518.11H155.77V516.7H159.52V511.75ZM150.31 521.95H158.11V525.235H159.595V520.69H150.31V521.95ZM158.05 515.455H151.99V512.995H158.05V515.455ZM170.878 517.84V513.655H172.678V512.425H162.853V513.655H164.683V517.84H162.748V519.07H164.983V521.995H161.428V523.255H174.118V521.995H170.563V519.07H172.798V517.84H170.878ZM166.168 513.655H169.393V517.84H166.168V513.655ZM166.453 519.07H169.093V521.995H166.453V519.07ZM184.125 525.1V520.345H189.72V519.085H177.03V520.345H182.625V525.1H184.125ZM185.04 516.46C185.85 516.865 187.005 517.39 188.235 517.87L188.805 516.67C187.695 516.25 186.465 515.725 185.505 515.2C184.485 514.645 184.11 514.105 184.11 512.98V511.75H182.625V512.98C182.625 514.105 182.235 514.645 181.215 515.2C180.255 515.725 179.025 516.25 177.915 516.67L178.5 517.885C179.73 517.405 180.885 516.88 181.695 516.475C182.685 515.98 183.18 515.59 183.36 515.26H183.375C183.57 515.59 184.05 515.965 185.04 516.46ZM199.772 519.415V521.005H194.087V519.415H192.617V525.1H201.242V519.415H199.772ZM193.262 518.5C195.452 518.5 196.742 518.41 198.437 518.2L198.302 516.97C196.442 517.195 195.062 517.24 193.412 517.24H192.152V515.785H196.847V511.885H190.637V513.13H195.377V514.57H190.682V518.5H193.262ZM201.242 518.74V511.27H199.772V518.74H201.242ZM194.087 523.84V522.25H199.772V523.84H194.087ZM232.942 525.19V523.99H224.947V523.15H232.537V519.985H223.477V521.185H231.082V521.995H223.552V525.19H232.942ZM225.547 515.875C227.677 515.875 228.937 515.005 228.937 513.82V513.43C228.937 512.245 227.677 511.39 225.547 511.375C223.417 511.36 222.157 512.245 222.157 513.43V513.82C222.157 515.005 223.417 515.875 225.547 515.875ZM232.537 519.475V511.27H231.067V517.87H228.142V519.01H231.067V519.475H232.537ZM226.132 519.445V517.54C227.692 517.48 228.877 517.39 230.197 517.255L230.077 516.115C227.437 516.355 225.592 516.43 221.242 516.43V517.615C222.577 517.615 223.687 517.615 224.662 517.585V519.445H226.132ZM225.547 514.63C224.167 514.63 223.567 514.225 223.567 513.745V513.505C223.567 513.025 224.167 512.635 225.547 512.635C226.927 512.635 227.527 513.025 227.527 513.505V513.745C227.527 514.225 226.927 514.63 225.547 514.63ZM245.679 525.19V523.96H238.179V522.685H245.289V518.995H236.649V520.225H243.834V521.485H236.724V525.19H245.679ZM241.029 517.795V511.69H239.574V513.685H236.019V511.69H234.564V517.795H241.029ZM245.289 518.275V511.27H243.834V512.995H241.674V514.27H243.834V515.575H241.674V516.85H243.834V518.275H245.289ZM236.019 514.9H239.574V516.565H236.019V514.9ZM260.217 512.41H251.157V519.01H254.937V521.995H249.342V523.255H262.032V521.995H256.437V519.01H260.217V512.41ZM252.627 513.67H258.747V517.75H252.627V513.67ZM273.629 525.1V511.27H272.144V525.1H273.629ZM263.204 512.41V521.395H265.619C267.914 521.395 269.174 521.32 270.929 521.005L270.764 519.715C269.234 519.985 267.689 520.09 266.039 520.09H264.704V512.41H263.204ZM282.166 513.655V512.38H275.836V521.68H278.251C280.411 521.68 281.881 521.62 283.501 521.365L283.351 520.105C281.971 520.315 280.426 520.405 278.611 520.405H277.306V517.57H281.641V516.31H277.306V513.655H282.166ZM286.426 525.1V511.27H284.941V516.28H282.436V517.57H284.941V525.1H286.426ZM294.874 519.91C292.189 519.91 290.629 520.99 290.629 522.4V523C290.629 524.41 292.189 525.49 294.874 525.49C297.559 525.49 299.119 524.41 299.119 523V522.4C299.119 520.99 297.559 519.91 294.874 519.91ZM294.874 524.275C293.134 524.275 292.084 523.6 292.084 522.91V522.49C292.084 521.8 293.134 521.125 294.874 521.125C296.614 521.125 297.664 521.8 297.664 522.49V522.91C297.664 523.6 296.614 524.275 294.874 524.275ZM299.059 519.73V511.27H297.589V519.73H299.059ZM291.079 518.95C293.269 518.95 294.559 518.86 296.254 518.65L296.119 517.42C294.259 517.645 292.879 517.69 291.229 517.69H289.969V516.04H294.664V511.93H288.454V513.19H293.194V514.81H288.499V518.95H291.079Z" fill="#4A89DB"/>
<path d="M45.5 520C46.3284 520 47 519.328 47 518.5C47 517.672 46.3284 517 45.5 517C44.6716 517 44 517.672 44 518.5C44 519.328 44.6716 520 45.5 520Z" fill="#CCCCCC"/>
<path d="M64.8351 546.33H63.7701V560.04H64.8351V546.33ZM54.8151 556.92C59.6901 554.07 60.4251 553.05 60.4251 550.32V547.62H54.4101V548.58H59.3901V550.305C59.3901 552.54 58.8651 553.425 54.2601 556.065L54.8151 556.92ZM72.6074 554.07C75.0824 554.07 76.7474 553.26 76.7474 551.88V551.46C76.7474 550.08 75.0824 549.27 72.6074 549.27C70.1324 549.27 68.4674 550.08 68.4674 551.46V551.88C68.4674 553.26 70.1324 554.07 72.6074 554.07ZM66.3074 555.075V555.99H72.0824V560.04H73.1474V555.99H78.9074V555.075H66.3074ZM72.6074 550.155C74.4224 550.155 75.7274 550.725 75.7274 551.535V551.805C75.7274 552.615 74.4224 553.185 72.6074 553.185C70.7924 553.185 69.4874 552.615 69.4874 551.805V551.535C69.4874 550.725 70.7924 550.155 72.6074 550.155ZM73.1474 546.045H72.0824V547.605H67.5974V548.505H77.6174V547.605H73.1474V546.045ZM86.0948 547.02H85.0748V549.54H80.9498V547.02H79.9298V553.845H86.0948V547.02ZM86.9498 548.655V549.57H89.4248V551.625H86.9498V552.54H89.4248V556.14H90.4598V546.33H89.4248V548.655H86.9498ZM83.1248 555.465H82.0598V559.875H90.8048V558.945H83.1248V555.465ZM80.9498 550.455H85.0748V552.93H80.9498V550.455ZM100.647 556.17C99.4171 556.305 98.2321 556.395 96.7621 556.44V554.745C98.3371 554.535 99.4021 553.545 99.4021 552.48V551.91C99.4021 550.695 98.0521 549.615 96.1471 549.615C94.2421 549.615 92.8921 550.68 92.8921 551.91V552.48C92.8921 553.59 94.0321 554.61 95.6971 554.76V556.47C94.6171 556.5 93.3721 556.5 91.8571 556.5V557.43C96.4471 557.43 98.2621 557.34 100.737 557.085L100.647 556.17ZM102.747 546.33H101.682V560.04H102.747V552.93H104.922V551.985H102.747V546.33ZM96.1471 550.515C97.4971 550.515 98.3971 551.25 98.3971 551.985V552.405C98.3971 553.14 97.4971 553.89 96.1471 553.89C94.7971 553.89 93.8971 553.14 93.8971 552.405V551.985C93.8971 551.25 94.7971 550.515 96.1471 550.515ZM96.6721 546.21H95.6221V547.92H92.1421V548.85H100.017V547.92H96.6721V546.21ZM118.724 546.33H117.659V560.04H118.724V546.33ZM110.054 553.44C109.349 554.235 108.524 555.03 107.534 555.9L108.239 556.635C109.124 555.855 110.114 554.85 110.639 554.28C111.089 553.785 111.659 553.08 111.704 552.885H111.719C111.794 553.08 112.229 553.575 112.679 554.055C113.279 554.7 114.119 555.525 115.064 556.425L115.754 555.705C114.629 554.685 113.744 553.785 113.144 553.095C112.334 552.165 112.244 551.67 112.244 550.515V547.32H111.149V550.59C111.149 551.775 110.999 552.36 110.054 553.44ZM130.787 546.33H129.722V560.04H130.787V552.3H133.067V551.355H130.787V546.33ZM122.177 547.455H121.112V556.275H123.767C125.192 556.275 126.977 556.17 128.582 555.885L128.447 554.94C126.812 555.225 125.312 555.315 123.872 555.315H122.177V547.455ZM144.229 546.33H143.164V560.04H144.229V546.33ZM135.019 552.315H139.984V547.44H133.969V548.37H138.934V551.385H133.969V556.635H136.804C138.439 556.635 140.149 556.56 141.739 556.305L141.619 555.39C140.224 555.615 138.589 555.69 137.074 555.69H135.019V552.315ZM147.456 551.145C147.456 552.96 149.211 554.19 151.431 554.37V557.19H145.671V558.105H158.271V557.19H152.511V554.37C154.701 554.19 156.486 552.96 156.486 551.145V550.41C156.486 548.46 154.416 547.17 151.971 547.17C149.511 547.17 147.456 548.46 147.456 550.41V551.145ZM151.971 548.145C153.906 548.145 155.436 549.105 155.436 550.455V551.1C155.436 552.45 153.906 553.41 151.971 553.41C150.021 553.41 148.506 552.45 148.506 551.1V550.455C148.506 549.105 150.021 548.145 151.971 548.145ZM165.519 551.055C165.579 551.25 166.164 551.76 166.869 552.33C167.319 552.69 168.024 553.215 168.639 553.635L169.254 552.9C168.399 552.33 167.559 551.7 167.079 551.295C166.104 550.455 165.999 550.05 165.999 549.165V548.07H168.954V547.155H161.844V548.07H164.934V549.21C164.934 550.02 164.769 550.545 164.034 551.265C163.299 551.985 162.339 552.72 161.454 553.35L162.099 554.1C162.789 553.605 163.809 552.795 164.334 552.33C164.964 551.775 165.444 551.28 165.504 551.055H165.519ZM163.449 556.005H170.994V560.145H172.044V555.075H163.449V556.005ZM172.044 546.33H170.994V554.265H172.044V550.68H174.144V549.75H172.044V546.33ZM181.286 554.73C179.036 554.73 177.131 555.645 177.131 557.265V557.85C177.131 559.425 179.036 560.4 181.286 560.4C183.536 560.4 185.441 559.425 185.441 557.85V557.265C185.441 555.69 183.536 554.73 181.286 554.73ZM181.286 559.5C179.681 559.5 178.151 558.885 178.151 557.82V557.31C178.151 556.245 179.681 555.63 181.286 555.63C182.891 555.63 184.421 556.245 184.421 557.31V557.82C184.421 558.885 182.891 559.5 181.286 559.5ZM178.226 550.89C178.301 551.13 178.706 551.535 179.396 552.12C179.906 552.555 180.566 553.095 181.361 553.695L181.991 552.96C181.331 552.48 180.536 551.85 179.801 551.205C178.796 550.305 178.706 549.945 178.706 548.835V546.945H177.626V548.865C177.626 549.99 177.521 550.38 176.576 551.325C175.901 552 174.956 552.78 174.146 553.38L174.806 554.145C175.631 553.485 176.516 552.735 177.041 552.24C177.701 551.61 178.166 551.145 178.211 550.89H178.226ZM181.226 549.42V550.35H184.316V554.415H185.366V546.33H184.316V549.42H181.226ZM196.739 547.035H190.559V552.765H196.739V547.035ZM197.204 553.665H196.184V555.24H192.194V556.155H196.184V556.455C196.184 557.235 195.824 557.715 194.594 558.225C193.769 558.57 192.719 558.945 191.789 559.245L192.164 560.07C193.034 559.785 194.009 559.41 194.894 559.05C195.839 558.645 196.454 558.24 196.694 557.82C196.934 558.24 197.534 558.645 198.494 559.05C199.379 559.41 200.354 559.785 201.224 560.07L201.599 559.245C200.669 558.945 199.619 558.57 198.794 558.225C197.564 557.715 197.204 557.235 197.204 556.455V556.155H201.164V555.24H197.204V553.665ZM195.719 551.835H191.579V547.965H195.719V551.835ZM200.954 546.33H199.904V553.815H200.954V546.33ZM213.916 546.615H212.866V559.365H213.916V552.21H215.911V560.04H216.961V546.33H215.911V551.265H213.916V546.615ZM205.876 547.635V556.305H207.661C209.176 556.305 210.466 556.23 211.906 555.99L211.786 555.045C210.421 555.285 209.206 555.345 207.571 555.345H206.941V548.595H211.051V547.635H205.876ZM217.983 553.05V553.965H230.583V553.05H217.983ZM224.283 555.09C222.033 555.09 220.023 555.885 220.023 557.49V558C220.023 559.575 222.033 560.4 224.283 560.4C226.533 560.4 228.543 559.575 228.543 558V557.49C228.543 555.915 226.533 555.09 224.283 555.09ZM224.283 559.5C222.663 559.5 221.043 558.945 221.043 557.94V557.55C221.043 556.545 222.663 555.99 224.283 555.99C225.903 555.99 227.523 556.545 227.523 557.55V557.94C227.523 558.945 225.903 559.5 224.283 559.5ZM224.283 551.895C226.578 551.895 228.588 551.04 228.588 549.495V548.985C228.588 547.44 226.578 546.585 224.283 546.585C221.988 546.585 219.978 547.425 219.978 548.985V549.495C219.978 551.04 221.988 551.895 224.283 551.895ZM224.283 547.485C225.933 547.485 227.568 548.115 227.568 549.06V549.42C227.568 550.365 225.933 550.995 224.283 550.995C222.633 550.995 220.998 550.365 220.998 549.42V549.06C220.998 548.115 222.633 547.485 224.283 547.485ZM231.006 549.42H233.676V550.77C233.676 552.105 233.526 552.72 232.806 553.635C232.356 554.22 231.456 555.18 230.571 556.02L231.276 556.725C232.221 555.795 232.911 555.03 233.466 554.385C233.916 553.845 234.171 553.425 234.216 553.26H234.231C234.291 553.425 234.606 553.905 235.041 554.4C235.551 554.97 236.346 555.885 237.006 556.545L237.696 555.87C236.856 555.03 236.136 554.235 235.641 553.62C234.891 552.66 234.726 552.165 234.726 550.77V549.42H237.261V548.49H234.726V546.615H233.676V548.49H231.006V549.42ZM236.466 551.4V552.36H238.851V559.365H239.901V546.615H238.851V551.4H236.466ZM242.556 546.33H241.506V560.04H242.556V546.33ZM244.283 557.025C248.243 554.34 249.008 553.335 249.098 550.755H251.498V553.395H249.113V554.325H251.498V559.365H252.548V546.615H251.498V549.825H249.113V547.695H243.953V548.64H248.078V550.14C248.078 552.78 247.733 553.47 243.698 556.2L244.283 557.025ZM255.248 546.33H254.198V560.04H255.248V546.33ZM259.09 554.205V555.12H264.865V560.04H265.93V555.12H271.69V554.205H259.09ZM267.145 551.295C267.955 551.7 269.095 552.225 270.31 552.705L270.76 551.88C269.65 551.46 268.435 550.92 267.475 550.425C266.32 549.84 265.915 549.345 265.915 548.01V546.81H264.85V548.01C264.85 549.345 264.43 549.84 263.275 550.425C262.315 550.92 261.07 551.475 259.96 551.895L260.425 552.735C261.64 552.255 262.81 551.715 263.62 551.31C264.61 550.815 265.195 550.38 265.375 550.035H265.39C265.555 550.38 266.155 550.8 267.145 551.295ZM282.133 554.445V556.215H275.833V554.445H274.798V560.04H283.168V554.445H282.133ZM273.853 550.65H278.758V546.99H272.818V547.92H277.723V549.75H272.818V553.425C276.883 553.425 278.848 553.35 280.498 553.14L280.408 552.225C278.623 552.435 276.988 552.495 273.853 552.495V550.65ZM275.833 559.095V557.145H282.133V559.095H275.833ZM283.168 546.33H282.118V553.635H283.168V546.33Z" fill="#222222"/>
<path d="M45.5 555C46.3284 555 47 554.328 47 553.5C47 552.672 46.3284 552 45.5 552C44.6716 552 44 552.672 44 553.5C44 554.328 44.6716 555 45.5 555Z" fill="#CCCCCC"/>
<path d="M136.094 13.12C142.174 13.12 145.554 13.06 147.754 12.84L147.574 10.78C146.394 10.88 145.034 10.94 143.194 10.98V10.06C145.174 9.74 146.274 8.68 146.274 7.46V6.94C146.274 5.48 144.714 4.26 141.934 4.26C139.154 4.26 137.594 5.48 137.594 6.94V7.46C137.594 8.7 138.694 9.74 140.694 10.06V11.02C139.374 11.04 137.854 11.04 136.094 11.04V13.12ZM150.994 0.28H148.494V14.4H150.994V8.28H153.454V6.08H150.994V0.28ZM141.414 13.76H138.874V18.76H151.494V16.62H141.414V13.76ZM136.814 1.7V3.76H146.954V1.7H143.194V0.0999997H140.674V1.7H136.814ZM141.934 6.14C143.214 6.14 143.894 6.66 143.894 7.14V7.26C143.894 7.74 143.214 8.26 141.934 8.26C140.654 8.26 139.974 7.74 139.974 7.26V7.14C139.974 6.66 140.654 6.14 141.934 6.14ZM162.757 19.44C166.057 19.44 168.577 18.1 168.577 15.84V14.96C168.577 12.7 166.057 11.36 162.757 11.36C159.457 11.36 156.937 12.7 156.937 14.96V15.84C156.937 18.1 159.457 19.44 162.757 19.44ZM162.757 13.42C164.497 13.42 166.097 14.2 166.097 15.14V15.66C166.097 16.6 164.497 17.38 162.757 17.38C161.017 17.38 159.417 16.6 159.417 15.66V15.14C159.417 14.2 161.017 13.42 162.757 13.42ZM163.217 2.86V4.98H166.017V6.74H162.897V8.86H166.017V11.28H168.517V0.28H166.017V2.86H163.217ZM154.337 11.68C160.717 8.98 162.277 7.8 162.277 4.62V1.38H154.117V3.52H159.757V4.38C159.757 6.5 158.977 7.22 153.317 9.62L154.337 11.68ZM179.62 14.5C183.02 14.5 184.42 12.24 184.42 9.12V6.9C184.42 3.78 183.02 1.52 179.62 1.52C176.22 1.52 174.82 3.78 174.82 6.9V9.12C174.82 12.24 176.22 14.5 179.62 14.5ZM179.62 3.74C181.32 3.74 182 4.94 182 7.2V8.82C182 11.08 181.32 12.28 179.62 12.28C177.92 12.28 177.24 11.08 177.24 8.82V7.2C177.24 4.94 177.92 3.74 179.62 3.74ZM189.54 0.28H187V18.88H189.54V0.28ZM190.883 10.66V12.8H194.963V18.82H197.463V12.8H201.343V18.82H203.843V12.8H207.923V10.66H190.883ZM199.463 6.02C199.663 6.38 200.363 6.86 201.663 7.52C202.783 8.08 204.563 8.9 205.823 9.42L206.843 7.38C205.443 6.8 203.763 6.04 202.423 5.32C201.183 4.66 200.683 3.9 200.683 2.68V0.92H198.123V2.68C198.123 3.9 197.623 4.66 196.383 5.32C195.043 6.04 193.363 6.8 191.963 7.38L193.003 9.46C194.263 8.94 196.043 8.12 197.163 7.56C198.463 6.9 199.263 6.4 199.443 6.02H199.463Z" fill="#5082E6"/>
<path d="M148.234 420.66H145.814V437.98H148.234V428.8H149.874V438.88H152.294V420.28H149.874V426.62H148.234V420.66ZM136.694 422.04V433.94H139.774C141.434 433.94 143.374 433.88 144.994 433.6L144.734 431.44C143.074 431.7 141.394 431.76 139.774 431.76H139.194V424.22H143.874V422.04H136.694ZM153.077 428.98V431.04H170.117V428.98H153.077ZM161.597 427.94C165.177 427.94 167.697 426.72 167.697 424.46V423.98C167.697 421.72 165.177 420.5 161.597 420.5C158.017 420.5 155.497 421.72 155.497 423.98V424.46C155.497 426.72 158.017 427.94 161.597 427.94ZM161.597 422.54C163.637 422.54 165.197 423.16 165.197 424.06V424.38C165.197 425.28 163.637 425.9 161.597 425.9C159.557 425.9 157.997 425.28 157.997 424.38V424.06C157.997 423.16 159.557 422.54 161.597 422.54ZM161.597 439.44C164.837 439.44 167.597 438.34 167.597 436.02V435.42C167.597 433.1 164.837 432 161.597 432C158.357 432 155.597 433.1 155.597 435.42V436.02C155.597 438.34 158.357 439.44 161.597 439.44ZM161.597 434.04C163.377 434.04 165.097 434.64 165.097 435.58V435.86C165.097 436.8 163.377 437.4 161.597 437.4C159.817 437.4 158.097 436.8 158.097 435.86V435.58C158.097 434.64 159.817 434.04 161.597 434.04ZM186.8 433.52H189.32V420.28H186.8V425H183.82V427.16H186.8V433.52ZM180.02 432.44H177.48V438.68H189.62V436.52H180.02V432.44ZM174.76 423.6H178.38V425.16C178.38 426.14 177.98 426.88 177.28 427.5C176.44 428.24 175.24 429.16 173.98 430.02L175.46 431.88C176.46 431.18 177.34 430.5 178.2 429.82C179.12 429.1 179.68 428.56 179.76 428.32H179.78C179.86 428.52 180.38 428.98 181.22 429.6C181.96 430.14 182.82 430.74 183.68 431.3L185.04 429.5C184.04 428.86 183.04 428.18 182.2 427.54C181.14 426.72 180.9 426.14 180.9 425.16V423.6H184.36V421.44H174.76V423.6ZM193.623 434.64H202.963V439.12H205.483V432.52H193.623V434.64ZM205.483 420.28H202.983V431.68H205.483V428.9H207.883V426.74H205.483V425.04H207.883V422.88H205.483V420.28ZM193.943 426.98H199.923V421.12H191.463V423.22H197.443V424.96H191.463V430.82C196.563 430.82 199.403 430.78 201.703 430.52L201.483 428.44C199.043 428.68 196.743 428.72 193.943 428.72V426.98Z" fill="#33B9A5"/>
<defs>
<filter id="filter0_d_1_16881" x="72" y="30" width="220" height="220" filterUnits="userSpaceOnUse" color-interpolation-filters="sRGB">
<feFlood flood-opacity="0" result="BackgroundImageFix"/>
<feColorMatrix in="SourceAlpha" type="matrix" values="0 0 0 0 0 0 0 0 0 0 0 0 0 0 0 0 0 0 127 0" result="hardAlpha"/>
<feOffset dx="10" dy="10"/>
<feGaussianBlur stdDeviation="10"/>
<feColorMatrix type="matrix" values="0 0 0 0 0 0 0 0 0 0 0 0 0 0 0 0 0 0 0.1 0"/>
<feBlend mode="normal" in2="BackgroundImageFix" result="effect1_dropShadow_1_16881"/>
<feBlend mode="normal" in="SourceGraphic" in2="effect1_dropShadow_1_16881" result="shape"/>
</filter>
<linearGradient id="paint0_linear_1_16881" x1="172.5" y1="460" x2="172.5" y2="612" gradientUnits="userSpaceOnUse">
<stop stop-color="#33B9A5"/>
<stop offset="0.69" stop-color="#40A7C9"/>
<stop offset="1" stop-color="#5082E6"/>
</linearGradient>
</defs>
</svg>
