<svg width="345" height="621" viewBox="0 0 345 621" fill="none" xmlns="http://www.w3.org/2000/svg">
<g filter="url(#filter0_d_1_16836)">
<path d="M172 220C221.706 220 262 179.706 262 130C262 80.2944 221.706 40 172 40C122.294 40 82 80.2944 82 130C82 179.706 122.294 220 172 220Z" fill="white"/>
<path d="M261.5 130C261.5 179.429 221.429 219.5 172 219.5C122.571 219.5 82.5 179.429 82.5 130C82.5 80.5705 122.571 40.5 172 40.5C221.429 40.5 261.5 80.5705 261.5 130Z" stroke="#DDDDDD"/>
</g>
<path d="M143.793 115.256C141.825 115.448 139.857 115.592 137.601 115.664V112.04C140.481 111.584 142.257 109.448 142.257 107.36V106.256C142.257 103.88 140.025 101.48 136.377 101.48C132.729 101.48 130.497 103.88 130.497 106.256V107.36C130.497 109.472 132.273 111.584 135.177 112.04V115.736C133.473 115.76 131.577 115.784 129.441 115.76V117.824C135.729 117.824 139.953 117.656 144.009 117.248L143.793 115.256ZM147.561 122.36V100.232H145.209V122.36H147.561ZM136.377 110.072C134.337 110.072 132.777 108.704 132.777 107.216V106.4C132.777 104.84 134.337 103.544 136.377 103.544C138.417 103.544 139.977 104.84 139.977 106.4V107.216C139.977 108.704 138.417 110.072 136.377 110.072ZM166.788 101.072H164.436V104.12H154.596V101.096H152.244V110.888H166.788V101.072ZM160.716 122.36V115.328H169.668V113.312H149.364V115.328H158.316V122.36H160.716ZM154.596 106.136H164.436V108.848H154.596V106.136ZM188.272 112.76C186.184 112.952 184.48 113.048 182.44 113.12V111.752C185.008 111.464 186.328 110.192 186.328 108.632V108.008C186.328 106.256 184.624 104.84 181.264 104.84C177.904 104.84 176.2 106.232 176.2 108.008V108.632C176.2 110.192 177.496 111.464 180.088 111.752V113.168C178.504 113.192 176.656 113.192 174.352 113.192V115.208C181.744 115.208 184.648 115.088 188.464 114.704L188.272 112.76ZM191.968 117.056V109.424H195.088V107.36H191.968V100.232H189.616V117.056H191.968ZM180.232 116.408H177.856V122.144H192.568V120.104H180.232V116.408ZM182.44 102.104V100.04H180.088V102.104H175.192V104.096H187.264V102.104H182.44ZM181.264 106.712C183.16 106.712 184 107.408 184 108.176V108.464C184 109.232 183.16 109.928 181.264 109.928C179.368 109.928 178.528 109.232 178.528 108.464V108.176C178.528 107.408 179.368 106.712 181.264 106.712ZM199.724 118.76C199.724 121.088 202.268 122.984 206.516 122.984C210.764 122.984 213.308 121.088 213.308 118.76V117.8C213.308 115.472 210.764 113.576 206.516 113.576C202.268 113.576 199.724 115.472 199.724 117.8V118.76ZM203.42 104.912C203.42 107.456 202.124 108.632 195.452 111.416L196.388 113.312C203.948 110.096 205.748 108.752 205.748 105.08V101.6H196.364V103.616H203.42V104.912ZM213.212 113.288V100.232H210.884V103.424H206.972V105.464H210.884V108.032H206.612V110.072H210.884V113.288H213.212ZM210.98 118.616C210.98 119.792 209.252 121.04 206.516 121.04C203.78 121.04 202.052 119.792 202.052 118.616V117.944C202.052 116.768 203.78 115.52 206.516 115.52C209.252 115.52 210.98 116.768 210.98 117.944V118.616ZM170.124 149.816H156.324V158.384H170.124V149.816ZM158.796 144.08C158.964 144.44 159.444 144.896 160.164 145.496C161.316 146.456 162.348 147.248 163.596 148.112L164.94 146.384C163.524 145.448 162.276 144.536 161.148 143.504C160.092 142.544 159.9 141.728 159.9 140.192V139.568H164.268V137.528H152.844V139.568H157.5V140.288C157.5 142.04 157.092 142.952 155.916 144.104C155.052 144.944 153.636 146.024 152.1 147.104L153.492 148.808C154.836 147.872 156.132 146.84 157.164 145.952C157.932 145.304 158.628 144.488 158.772 144.08H158.796ZM167.796 156.368H158.652V151.832H167.796V156.368ZM170.124 148.736V136.232H167.772V141.44H163.716V143.48H167.772V148.736H170.124ZM176.728 149.744V158.336H190.528V149.744H176.728ZM190.528 148.664V136.232H188.176V141.488H183.112C183.136 141.32 183.136 141.104 183.136 140.912V137.528H173.704V139.544H180.808V140.744C180.808 143.24 179.56 144.44 172.792 147.272L173.68 149.192C179.128 146.888 181.648 145.52 182.608 143.528H188.176V148.664H190.528ZM179.08 151.76H188.176V156.32H179.08V151.76Z" fill="#222222"/>
<path d="M21.03 285.14V275.27H19.56V278.93H16.395C16.41 278.825 16.41 278.705 16.41 278.585V276.155H10.515V277.415H14.955V278.51C14.955 280.025 14.235 280.76 9.945 282.635L10.53 283.835C13.995 282.35 15.525 281.435 16.095 280.205H19.56V285.14H21.03ZM13.875 284.405H12.39V288.95H21.315V287.66H13.875V284.405ZM34.1123 289.19V287.96H26.6123V286.625H33.7223V282.875H25.0823V284.105H32.2673V285.425H25.1573V289.19H34.1123ZM26.4773 279.5C26.5673 279.725 26.8823 280.01 27.3323 280.385C28.0523 280.985 28.6973 281.465 29.5073 282.035L30.3323 280.985C29.4473 280.385 28.6523 279.815 27.9473 279.17C27.2273 278.51 27.1673 277.985 27.1673 277.025V275.615H25.6673V277.085C25.6673 278.18 25.5023 278.735 24.7223 279.485C24.1973 279.995 23.2673 280.745 22.2473 281.465L23.1023 282.515C23.9423 281.9 24.8723 281.18 25.4873 280.61C25.9523 280.19 26.3873 279.755 26.4623 279.5H26.4773ZM33.7223 282.185V275.27H32.2523V277.79H29.4923V279.095H32.2523V282.185H33.7223ZM39.0647 284.135C41.2097 284.135 42.2747 282.875 42.2747 281.585V281.135C42.2747 279.845 41.2097 278.585 39.0647 278.585C36.9197 278.585 35.8547 279.83 35.8547 281.135V281.585C35.8547 282.875 36.9197 284.135 39.0647 284.135ZM46.5347 285.305V275.27H45.0797V278.765H43.0547V280.04H45.0797V281.705H43.0547V282.98H45.0797V285.305H46.5347ZM39.3797 285.125H37.8947V288.95H46.8197V287.66H39.3797V285.125ZM43.0997 276.8H39.7847V275.135H38.3147V276.8H35.1047V278.06H43.0997V276.8ZM39.0647 282.95C37.8497 282.95 37.2647 282.245 37.2647 281.51V281.21C37.2647 280.475 37.8347 279.77 39.0647 279.77C40.2947 279.77 40.8647 280.475 40.8647 281.21V281.51C40.8647 282.245 40.2797 282.95 39.0647 282.95ZM50.377 286.85C50.377 288.305 51.937 289.49 54.547 289.49C57.157 289.49 58.717 288.305 58.717 286.85V286.25C58.717 284.795 57.157 283.61 54.547 283.61C51.937 283.61 50.377 284.795 50.377 286.25V286.85ZM52.027 280.295C52.132 280.52 52.432 280.805 52.882 281.18C53.602 281.78 54.247 282.275 55.027 282.815L55.867 281.735C54.982 281.15 54.202 280.58 53.497 279.935C52.837 279.335 52.717 278.825 52.717 277.865V277.4H55.462V276.125H48.307V277.4H51.217V277.925C51.217 279.02 50.962 279.59 50.227 280.31C49.687 280.835 48.802 281.51 47.842 282.185L48.712 283.25C49.552 282.665 50.362 282.02 51.007 281.465C51.487 281.06 51.922 280.55 52.012 280.295H52.027ZM57.262 286.76C57.262 287.495 56.212 288.275 54.547 288.275C52.882 288.275 51.832 287.495 51.832 286.76V286.34C51.832 285.605 52.882 284.825 54.547 284.825C56.212 284.825 57.262 285.605 57.262 286.34V286.76ZM58.657 283.43V279.905H60.622V278.615H58.657V275.27H57.187V283.43H58.657ZM72.0544 283.1C70.7494 283.22 69.6844 283.28 68.4094 283.325V282.47C70.0144 282.29 70.8394 281.495 70.8394 280.52V280.13C70.8394 279.035 69.7744 278.15 67.6744 278.15C65.5744 278.15 64.5094 279.02 64.5094 280.13V280.52C64.5094 281.495 65.3194 282.29 66.9394 282.47V283.355C65.9494 283.37 64.7944 283.37 63.3544 283.37V284.63C67.9744 284.63 69.7894 284.555 72.1744 284.315L72.0544 283.1ZM74.3644 285.785V281.015H76.3144V279.725H74.3644V275.27H72.8944V285.785H74.3644ZM67.0294 285.38H65.5444V288.965H74.7394V287.69H67.0294V285.38ZM68.4094 276.44V275.15H66.9394V276.44H63.8794V277.685H71.4244V276.44H68.4094ZM67.6744 279.32C68.8594 279.32 69.3844 279.755 69.3844 280.235V280.415C69.3844 280.895 68.8594 281.33 67.6744 281.33C66.4894 281.33 65.9644 280.895 65.9644 280.415V280.235C65.9644 279.755 66.4894 279.32 67.6744 279.32ZM79.2117 286.85C79.2117 288.305 80.8017 289.49 83.4567 289.49C86.1117 289.49 87.7017 288.305 87.7017 286.85V286.25C87.7017 284.795 86.1117 283.61 83.4567 283.61C80.8017 283.61 79.2117 284.795 79.2117 286.25V286.85ZM81.5217 278.195C81.5217 279.785 80.7117 280.52 76.5417 282.26L77.1267 283.445C81.8517 281.435 82.9767 280.595 82.9767 278.3V276.125H77.1117V277.385H81.5217V278.195ZM87.6417 283.43V275.27H86.1867V277.265H83.7417V278.54H86.1867V280.145H83.5167V281.42H86.1867V283.43H87.6417ZM86.2467 286.76C86.2467 287.495 85.1667 288.275 83.4567 288.275C81.7467 288.275 80.6667 287.495 80.6667 286.76V286.34C80.6667 285.605 81.7467 284.825 83.4567 284.825C85.1667 284.825 86.2467 285.605 86.2467 286.34V286.76ZM100.394 282.485V275.27H98.9241V278.24H96.2091V275.9H94.7541V277.88H91.1241V275.9H89.6691V282.02H96.2091V279.515H98.9241V282.485H100.394ZM98.9241 283.16V284.855H93.2391V283.16H91.7691V289.1H100.394V283.16H98.9241ZM93.2391 287.84V286.1H98.9241V287.84H93.2391ZM91.1241 279.125H94.7541V280.76H91.1241V279.125ZM106.276 289.07V283.58H109.606V289.07H111.091V283.58H114.286V282.32H111.946C112.231 280.835 112.366 279.32 112.366 277.895V276.125H103.186V277.43H110.881V278.24C110.881 279.56 110.761 280.865 110.461 282.32H101.596V283.58H104.791V289.07H106.276ZM125.224 280.625C126.034 281.03 127.054 281.525 128.299 282.005L128.869 280.805C127.759 280.385 126.649 279.89 125.689 279.365C124.474 278.705 124.309 278.06 124.294 277.325H128.284V276.065H118.834V277.325H122.809C122.794 278.06 122.614 278.705 121.399 279.365C120.439 279.89 119.329 280.385 118.219 280.805L118.804 282.02C120.049 281.54 121.069 281.045 121.879 280.64C122.869 280.145 123.379 279.77 123.544 279.425H123.559C123.739 279.77 124.234 280.13 125.224 280.625ZM124.294 289.1V284.36H129.889V283.1H117.199V284.36H122.794V289.1H124.294ZM139.476 285.995V282.65C140.376 282.065 140.946 281.21 140.946 280.115V279.395C140.946 277.31 138.831 276.02 136.296 276.02C133.761 276.02 131.646 277.31 131.646 279.395V280.115C131.646 281.21 132.216 282.065 133.116 282.65V285.995H129.951V287.255H142.641V285.995H139.476ZM136.296 277.31C138.021 277.31 139.491 278.135 139.491 279.47V280.04C139.491 281.375 138.021 282.2 136.296 282.2C134.571 282.2 133.101 281.375 133.101 280.04V279.47C133.101 278.135 134.571 277.31 136.296 277.31ZM136.296 283.475C136.896 283.475 137.466 283.4 138.006 283.265V285.995H134.586V283.265C135.111 283.4 135.696 283.475 136.296 283.475ZM150.203 281.54C152.408 281.54 153.803 280.265 153.803 278.84V278.24C153.803 276.815 152.438 275.54 150.203 275.54C147.968 275.54 146.603 276.815 146.603 278.24V278.84C146.603 280.265 147.998 281.54 150.203 281.54ZM157.178 289.1V275.27H155.708V289.1H157.178ZM151.028 288.68V283.91C152.453 283.85 153.713 283.76 154.958 283.625L154.838 282.38C152.348 282.62 149.813 282.71 145.853 282.695V283.985C147.203 283.985 148.418 283.985 149.513 283.955V288.68H151.028ZM150.203 280.25C148.928 280.25 148.028 279.605 148.028 278.735V278.345C148.028 277.43 148.928 276.83 150.203 276.83C151.478 276.83 152.378 277.43 152.378 278.345V278.735C152.378 279.605 151.478 280.25 150.203 280.25ZM165.446 282.935V275.975H163.991V278.36H160.436V275.975H158.981V282.935H165.446ZM171.191 279.14H169.226V275.27H167.756V285.14H169.226V280.43H171.191V279.14ZM162.266 284.465H160.781V288.95H169.601V287.66H162.266V284.465ZM160.436 279.605H163.991V281.675H160.436V279.605ZM184.003 280.265H181.873V275.27H180.388V289.1H181.873V281.555H184.003V280.265ZM175.168 282.155C175.288 282.455 175.648 282.875 176.068 283.325C176.638 283.94 177.313 284.615 178.348 285.575L179.308 284.555C178.408 283.76 177.748 283.13 177.103 282.425C176.188 281.405 175.903 280.79 175.903 279.605V276.275H174.403V279.605C174.403 280.67 174.163 281.345 173.248 282.38C172.573 283.13 171.793 283.895 170.878 284.705L171.853 285.71C172.873 284.78 173.668 283.985 174.283 283.31C174.763 282.785 175.018 282.485 175.153 282.155H175.168ZM190.68 284.27C188.04 284.27 186.51 285.305 186.51 286.64V287.12C186.51 288.455 188.04 289.49 190.68 289.49C193.32 289.49 194.85 288.455 194.85 287.12V286.64C194.85 285.305 193.32 284.27 190.68 284.27ZM187.95 283.655C190.095 283.655 191.175 282.455 191.175 281.315V280.865C191.175 279.725 190.095 278.525 187.95 278.525C185.805 278.525 184.725 279.71 184.725 280.865V281.315C184.725 282.455 185.805 283.655 187.95 283.655ZM194.73 284V280.355H196.695V279.065H194.73V275.27H193.26V284H194.73ZM190.68 288.29C188.985 288.29 187.965 287.69 187.965 287.03V286.73C187.965 286.07 188.985 285.47 190.68 285.47C192.375 285.47 193.395 286.07 193.395 286.73V287.03C193.395 287.69 192.375 288.29 190.68 288.29ZM191.91 276.755H188.685V275.12H187.215V276.755H183.975V278H191.91V276.755ZM187.95 282.47C186.735 282.47 186.135 281.825 186.135 281.24V280.94C186.135 280.355 186.72 279.71 187.95 279.71C189.18 279.71 189.765 280.355 189.765 280.94V281.24C189.765 281.825 189.165 282.47 187.95 282.47Z" fill="#222222"/>
<path d="M20.88 314.33H19.815V328.04H20.88V314.33ZM16.875 315.455H15.825V318.845H11.625V315.455H10.575V324.41H16.875V315.455ZM11.625 319.79H15.825V323.45H11.625V319.79ZM26.2673 319.205C26.3423 319.445 26.7473 319.85 27.4373 320.435C27.9473 320.87 28.6073 321.41 29.4023 322.01L30.0323 321.275C29.3723 320.795 28.5773 320.165 27.8423 319.52C26.8373 318.62 26.7473 318.26 26.7473 317.15V314.975H25.6673V317.18C25.6673 318.305 25.5623 318.695 24.6173 319.64C23.9423 320.315 22.9973 321.095 22.1873 321.695L22.8473 322.46C23.6723 321.8 24.5573 321.05 25.0823 320.555C25.7423 319.925 26.2073 319.46 26.2523 319.205H26.2673ZM32.9873 314.33H31.9373V324.11H32.9873V319.205H35.0873V318.275H32.9873V314.33ZM25.8773 323.285H24.8123V327.875H33.4223V326.945H25.8773V323.285ZM42.0647 315.185H35.8847V321.65H42.0647V318.815H45.3797V324.14H46.4297V314.33H45.3797V317.885H42.0647V315.185ZM41.0597 320.72H36.8897V316.115H41.0597V320.72ZM39.0947 323.39H38.0297V327.875H46.7747V326.945H39.0947V323.39ZM55.972 315.59H48.652V316.52H51.802V318.785C51.802 319.925 51.667 320.495 50.722 321.56C50.032 322.34 49.177 323.165 48.232 324.005L48.937 324.71C49.837 323.93 50.842 322.865 51.247 322.445C51.682 321.98 52.267 321.305 52.342 321.035H52.357C52.432 321.23 52.852 321.695 53.287 322.16C53.887 322.805 54.607 323.54 55.642 324.5L56.332 323.795C55.222 322.805 54.337 321.92 53.752 321.245C52.957 320.33 52.867 319.85 52.867 318.71V316.52H55.972V315.59ZM59.257 314.33H58.192V328.04H59.257V314.33ZM67.2094 321.515C69.2944 321.515 70.5244 320.015 70.5544 318.665H73.6744V322.25H74.7244V314.33H73.6744V317.735H70.5544C70.5394 316.37 69.3094 314.855 67.2094 314.855C65.0944 314.855 63.8644 316.385 63.8644 317.75V318.62C63.8644 319.985 65.0944 321.515 67.2094 321.515ZM67.2094 315.8C68.5594 315.8 69.5344 316.685 69.5344 317.84V318.53C69.5344 319.685 68.5594 320.57 67.2094 320.57C65.8594 320.57 64.8844 319.685 64.8844 318.53V317.84C64.8844 316.685 65.8594 315.8 67.2094 315.8ZM65.9494 323.99H73.6744V328.145H74.7244V323.06H65.9494V323.99ZM76.5417 316.61H79.0617V318.65C79.0617 319.985 78.9117 320.6 78.1917 321.515C77.7417 322.1 76.8417 323.06 75.9567 323.9L76.6617 324.605C77.6067 323.675 78.2967 322.91 78.8517 322.265C79.3017 321.725 79.5567 321.305 79.6017 321.14H79.6167C79.6767 321.305 79.9917 321.785 80.4267 322.28C80.9367 322.85 81.7317 323.765 82.3917 324.425L83.0817 323.75C82.2417 322.91 81.5217 322.115 81.0267 321.5C80.2767 320.54 80.1117 320.045 80.1117 318.65V316.61H82.5267V315.68H76.5417V316.61ZM81.7917 318.965V319.925H84.2217V327.365H85.2717V314.615H84.2217V318.965H81.7917ZM87.9417 314.33H86.8917V328.04H87.9417V314.33ZM93.3141 316.475H97.4991V317C97.4991 318.545 97.2141 318.89 95.7741 319.85C95.0841 320.3 93.8841 320.99 92.6241 321.62L93.1791 322.445C94.2441 321.89 95.4891 321.17 96.3741 320.6C97.4091 319.925 97.9191 319.52 98.0391 319.235H98.0541C98.1891 319.52 98.6841 319.91 99.7191 320.585C100.604 321.155 101.834 321.86 102.884 322.4L103.424 321.605C102.164 320.975 100.994 320.3 100.304 319.85C98.8641 318.89 98.5791 318.545 98.5791 317V316.475H102.764V315.56H93.3141V316.475ZM91.7391 325.19V326.105H104.339V325.19H98.5791V322.04H97.4991V325.19H91.7391ZM109.591 314.39H108.526V316.415H105.256V317.345H108.526V319.01C108.526 320.15 108.391 320.72 107.446 321.785C106.756 322.565 105.901 323.39 104.956 324.23L105.661 324.935C106.561 324.155 107.566 323.09 107.971 322.67C108.406 322.205 108.991 321.53 109.066 321.26H109.081C109.156 321.455 109.576 321.92 110.011 322.385C110.611 323.03 111.331 323.765 112.366 324.725L113.056 324.02C111.946 323.03 111.061 322.145 110.476 321.47C109.681 320.555 109.591 320.075 109.591 318.935V317.345H112.771V316.415H109.591V314.39ZM115.966 314.33H114.901V328.04H115.966V314.33ZM131.434 314.33H130.369V328.04H131.434V314.33ZM121.099 315.575V324.425H127.444V315.575H121.099ZM126.394 323.465H122.149V316.535H126.394V323.465ZM142.581 323.45V324.8H135.711V323.45H134.676V328.055H143.616V323.45H142.581ZM139.146 320.81C141.561 320.81 143.241 320.18 143.241 319.01V318.665C143.241 317.48 141.561 316.85 139.146 316.85C136.731 316.85 135.051 317.48 135.051 318.665V319.01C135.051 320.18 136.731 320.81 139.146 320.81ZM132.846 321.68V322.58H145.446V321.68H132.846ZM139.146 317.735C140.931 317.735 142.221 318.095 142.221 318.725V318.935C142.221 319.565 140.931 319.925 139.146 319.925C137.361 319.925 136.071 319.565 136.071 318.935V318.725C136.071 318.095 137.361 317.735 139.146 317.735ZM139.671 314.06H138.606V315.335H134.151V316.235H144.141V315.335H139.671V314.06ZM135.711 327.11V325.73H142.581V327.11H135.711ZM145.778 328.625H146.648L147.728 325.25H146.408L145.778 328.625ZM157.54 319.01C157.675 319.31 158.215 319.805 159.295 320.525C160.195 321.125 161.41 321.845 162.475 322.43L163.03 321.605C161.74 320.93 160.6 320.255 159.895 319.775C158.41 318.77 158.08 318.305 158.08 316.685V315.23H156.985V316.685C156.985 318.305 156.64 318.77 155.155 319.775C154.45 320.255 153.295 320.945 151.99 321.62L152.56 322.46C153.64 321.875 154.87 321.14 155.77 320.54C156.85 319.82 157.405 319.31 157.525 319.01H157.54ZM151.225 325.19V326.105H163.825V325.19H158.065V322.025H156.97V325.19H151.225ZM170.278 319.895C172.528 319.895 174.583 319.055 174.583 317.495V316.985C174.583 315.425 172.528 314.585 170.278 314.585C168.028 314.585 165.973 315.425 165.973 316.985V317.495C165.973 319.055 168.028 319.895 170.278 319.895ZM170.278 315.485C171.898 315.485 173.563 316.1 173.563 317.06V317.42C173.563 318.38 171.898 318.995 170.278 318.995C168.658 318.995 166.993 318.38 166.993 317.42V317.06C166.993 316.1 168.658 315.485 170.278 315.485ZM163.978 321.005V321.92H176.578V321.005H163.978ZM165.823 328.01H174.733V323.375H165.823V328.01ZM166.843 324.32H173.713V327.065H166.843V324.32ZM181.245 319.475C181.305 319.67 181.89 320.18 182.595 320.75C183.045 321.11 183.78 321.65 184.395 322.085L185.01 321.335C184.125 320.75 183.285 320.12 182.805 319.715C181.83 318.875 181.725 318.47 181.725 317.585V316.145H184.71V315.23H177.54V316.145H180.66V317.63C180.66 318.44 180.495 318.965 179.76 319.685C179.025 320.405 178.08 321.14 177.15 321.785L177.795 322.535C178.515 322.025 179.535 321.215 180.06 320.75C180.69 320.195 181.17 319.7 181.23 319.475H181.245ZM180.72 323.33H179.655V327.875H188.4V326.945H180.72V323.33ZM188.055 314.33H187.005V324.125H188.055V314.33ZM195.782 323.09C193.532 323.09 191.522 323.885 191.522 325.49V326C191.522 327.575 193.532 328.4 195.782 328.4C198.032 328.4 200.042 327.575 200.042 326V325.49C200.042 323.915 198.032 323.09 195.782 323.09ZM189.482 321.095V321.995H202.082V321.095H196.307V319.37H200.207V318.47H192.422V315.785H200.132V314.885H191.387V319.37H195.257V321.095H189.482ZM195.782 327.5C194.162 327.5 192.542 326.945 192.542 325.94V325.55C192.542 324.545 194.162 323.99 195.782 323.99C197.402 323.99 199.022 324.545 199.022 325.55V325.94C199.022 326.945 197.402 327.5 195.782 327.5ZM205.085 321.485V322.4H208.445V328.025H209.51V322.4H213.26V328.025H214.325V322.4H217.685V321.485H215.27C215.555 320.12 215.72 318.44 215.72 316.865V315.23H206.735V316.145H214.64V317.21C214.64 318.5 214.475 320.135 214.175 321.485H205.085ZM218.242 316.61H220.762V318.65C220.762 319.985 220.612 320.6 219.892 321.515C219.442 322.1 218.542 323.06 217.657 323.9L218.362 324.605C219.307 323.675 219.997 322.91 220.552 322.265C221.002 321.725 221.257 321.305 221.302 321.14H221.317C221.377 321.305 221.692 321.785 222.127 322.28C222.637 322.85 223.432 323.765 224.092 324.425L224.782 323.75C223.942 322.91 223.222 322.115 222.727 321.5C221.977 320.54 221.812 320.045 221.812 318.65V316.61H224.227V315.68H218.242V316.61ZM223.492 318.965V319.925H225.922V327.365H226.972V314.615H225.922V318.965H223.492ZM229.642 314.33H228.592V328.04H229.642V314.33ZM241.869 314.33H240.804V328.04H241.869V314.33ZM231.849 324.92C236.724 322.07 237.459 321.05 237.459 318.32V315.62H231.444V316.58H236.424V318.305C236.424 320.54 235.899 321.425 231.294 324.065L231.849 324.92ZM249.627 317.96H249.642C249.807 318.275 250.497 318.665 251.427 319.04C252.207 319.37 253.242 319.76 254.472 320.165L254.862 319.34C253.602 318.935 252.462 318.515 251.727 318.2C250.497 317.675 250.167 317.24 250.167 316.46V315.86H254.292V314.96H244.992V315.86H249.102V316.46C249.102 317.24 248.757 317.66 247.527 318.2C246.777 318.53 245.757 318.905 244.392 319.355L244.812 320.18C246.147 319.73 246.987 319.415 247.842 319.055C248.772 318.665 249.462 318.29 249.627 317.96ZM243.342 321.215V322.115H249.267V325.055H250.317V322.115H255.942V321.215H243.342ZM246.267 323.72H245.202V327.875H254.367V326.945H246.267V323.72ZM265.244 319.64C265.379 319.925 265.859 320.33 266.894 320.99C267.794 321.545 269.069 322.25 270.119 322.76L270.629 321.965C269.354 321.35 268.169 320.705 267.479 320.255C266.009 319.325 265.769 318.815 265.769 317.705V317.315H270.044V316.4H265.769V314.465H264.704V316.4H260.459V317.315H264.704V317.705C264.704 318.83 264.464 319.295 262.994 320.255C262.304 320.705 261.089 321.365 259.814 321.98L260.339 322.805C261.404 322.28 262.694 321.56 263.594 321.005C264.689 320.33 265.124 319.925 265.244 319.64ZM258.944 325.19V326.105H271.544V325.19H265.784V322.37H264.704V325.19H258.944ZM282.631 314.33H281.566V328.04H282.631V320.495H284.806V319.55H282.631V314.33ZM280.516 323.6C279.031 323.765 277.636 323.855 275.701 323.9V319.55H274.636V323.915C273.781 323.93 272.836 323.93 271.741 323.93V324.86C276.331 324.86 278.131 324.77 280.606 324.515L280.516 323.6ZM272.431 315.65V316.595H278.206V317.525C278.206 318.8 278.116 320.465 277.846 321.68L278.911 321.815C279.151 320.84 279.271 318.755 279.271 317.315V315.65H272.431ZM297.949 314.915H289.204V319.37H298.024V318.455H290.239V315.83H297.949V314.915ZM287.299 320.87V321.785H299.899V320.87H287.299ZM293.599 323.09C291.349 323.09 289.339 323.885 289.339 325.49V326C289.339 327.575 291.349 328.4 293.599 328.4C295.849 328.4 297.859 327.575 297.859 326V325.49C297.859 323.915 295.849 323.09 293.599 323.09ZM293.599 327.5C291.979 327.5 290.359 326.945 290.359 325.94V325.55C290.359 324.545 291.979 323.99 293.599 323.99C295.219 323.99 296.839 324.545 296.839 325.55V325.94C296.839 326.945 295.219 327.5 293.599 327.5Z" fill="#222222"/>
<path d="M9.85 349.866H15.154V348.778H9.85V349.866ZM35.0799 349.883V341.706H33.4139V345.072H30.3369V342.42H28.6879V344.664H24.5739V342.42H22.9249V349.356H30.3369V346.517H33.4139V349.883H35.0799ZM33.4139 350.648V352.569H26.9709V350.648H25.3049V357.38H35.0799V350.648H33.4139ZM26.9709 355.952V353.98H33.4139V355.952H26.9709ZM24.5739 346.075H28.6879V347.928H24.5739V346.075ZM41.7465 357.346V351.124H45.5205V357.346H47.2035V351.124H50.8245V349.696H48.1725C48.4955 348.013 48.6485 346.296 48.6485 344.681V342.675H38.2445V344.154H46.9655V345.072C46.9655 346.568 46.8295 348.047 46.4895 349.696H36.4425V351.124H40.0635V357.346H41.7465ZM59.3952 348.812C61.8942 348.812 63.4752 347.367 63.4752 345.752V345.072C63.4752 343.457 61.9282 342.012 59.3952 342.012C56.8622 342.012 55.3152 343.457 55.3152 345.072V345.752C55.3152 347.367 56.8962 348.812 59.3952 348.812ZM67.3002 357.38V341.706H65.6342V357.38H67.3002ZM60.3302 356.904V351.498C61.9452 351.43 63.3732 351.328 64.7842 351.175L64.6482 349.764C61.8262 350.036 58.9532 350.138 54.4652 350.121V351.583C55.9952 351.583 57.3722 351.583 58.6132 351.549V356.904H60.3302ZM59.3952 347.35C57.9502 347.35 56.9302 346.619 56.9302 345.633V345.191C56.9302 344.154 57.9502 343.474 59.3952 343.474C60.8402 343.474 61.8602 344.154 61.8602 345.191V345.633C61.8602 346.619 60.8402 347.35 59.3952 347.35ZM76.6698 350.393V342.505H75.0208V345.208H70.9918V342.505H69.3428V350.393H76.6698ZM83.1808 346.092H80.9538V341.706H79.2878V352.892H80.9538V347.554H83.1808V346.092ZM73.0658 352.127H71.3828V357.21H81.3788V355.748H73.0658V352.127ZM70.9918 346.619H75.0208V348.965H70.9918V346.619ZM97.7015 347.367H95.2875V341.706H93.6045V357.38H95.2875V348.829H97.7015V347.367ZM87.6885 349.509C87.8245 349.849 88.2325 350.325 88.7085 350.835C89.3545 351.532 90.1195 352.297 91.2925 353.385L92.3805 352.229C91.3605 351.328 90.6125 350.614 89.8815 349.815C88.8445 348.659 88.5215 347.962 88.5215 346.619V342.845H86.8215V346.619C86.8215 347.826 86.5495 348.591 85.5125 349.764C84.7475 350.614 83.8635 351.481 82.8265 352.399L83.9315 353.538C85.0875 352.484 85.9885 351.583 86.6855 350.818C87.2295 350.223 87.5185 349.883 87.6715 349.509H87.6885ZM105.269 351.906C102.277 351.906 100.543 353.079 100.543 354.592V355.136C100.543 356.649 102.277 357.822 105.269 357.822C108.261 357.822 109.995 356.649 109.995 355.136V354.592C109.995 353.079 108.261 351.906 105.269 351.906ZM102.175 351.209C104.606 351.209 105.83 349.849 105.83 348.557V348.047C105.83 346.755 104.606 345.395 102.175 345.395C99.7441 345.395 98.5201 346.738 98.5201 348.047V348.557C98.5201 349.849 99.7441 351.209 102.175 351.209ZM109.859 351.6V347.469H112.086V346.007H109.859V341.706H108.193V351.6H109.859ZM105.269 356.462C103.348 356.462 102.192 355.782 102.192 355.034V354.694C102.192 353.946 103.348 353.266 105.269 353.266C107.19 353.266 108.346 353.946 108.346 354.694V355.034C108.346 355.782 107.19 356.462 105.269 356.462ZM106.663 343.389H103.008V341.536H101.342V343.389H97.6701V344.8H106.663V343.389ZM102.175 349.866C100.798 349.866 100.118 349.135 100.118 348.472V348.132C100.118 347.469 100.781 346.738 102.175 346.738C103.569 346.738 104.232 347.469 104.232 348.132V348.472C104.232 349.135 103.552 349.866 102.175 349.866ZM124.142 343.185H115.472V344.647H122.017L115.064 354.065V355.442H124.465V353.98H117.104L124.142 344.426V343.185ZM128.873 347.384C130.284 347.384 131.168 348.302 131.168 349.73V350.036H126.51V349.798C126.51 348.37 127.496 347.384 128.873 347.384ZM131.848 353.317C131.049 353.827 130.233 354.15 129.026 354.15C127.547 354.15 126.51 353.198 126.51 351.447V351.379H132.766V350.138C132.766 347.486 131.253 345.973 128.873 345.973C126.578 345.973 124.878 347.418 124.878 350.24V351.294C124.878 354.303 126.663 355.578 128.958 355.578C130.641 355.578 131.729 355.119 132.545 354.558L131.848 353.317ZM139.438 346.16C139.064 346.041 138.656 345.973 138.231 345.973C136.871 345.973 136.038 346.585 135.494 347.622H135.477V346.143H133.879V355.442H135.528V350.019C135.528 348.557 136.582 347.537 137.806 347.537C138.248 347.537 138.622 347.622 138.945 347.758L139.438 346.16ZM143.571 345.973C141.021 345.973 139.423 347.503 139.423 350.206V351.345C139.423 354.031 141.021 355.578 143.571 355.578C146.121 355.578 147.719 354.031 147.719 351.345V350.206C147.719 347.52 146.121 345.973 143.571 345.973ZM143.571 354.133C142.092 354.133 141.089 353.181 141.089 351.209V350.342C141.089 348.37 142.092 347.418 143.571 347.418C145.05 347.418 146.053 348.37 146.053 350.342V351.209C146.053 353.181 145.05 354.133 143.571 354.133ZM160.62 348.115V346.755H151.814V345.735H160.314V342.097H150.08V343.457H158.665V344.426H150.165V348.115H160.62ZM148.091 349.084V350.478H162.473V349.084H148.091ZM160.858 357.499V356.139H151.797V355.119H160.399V351.464H150.063V352.824H158.75V353.793H150.148V357.499H160.858ZM171.043 348.812C173.542 348.812 175.123 347.367 175.123 345.752V345.072C175.123 343.457 173.576 342.012 171.043 342.012C168.51 342.012 166.963 343.457 166.963 345.072V345.752C166.963 347.367 168.544 348.812 171.043 348.812ZM178.948 357.38V341.706H177.282V357.38H178.948ZM171.978 356.904V351.498C173.593 351.43 175.021 351.328 176.432 351.175L176.296 349.764C173.474 350.036 170.601 350.138 166.113 350.121V351.583C167.643 351.583 169.02 351.583 170.261 351.549V356.904H171.978ZM171.043 347.35C169.598 347.35 168.578 346.619 168.578 345.633V345.191C168.578 344.154 169.598 343.474 171.043 343.474C172.488 343.474 173.508 344.154 173.508 345.191V345.633C173.508 346.619 172.488 347.35 171.043 347.35ZM184.918 351.753C187.349 351.753 188.573 350.325 188.573 348.863V348.353C188.573 346.891 187.349 345.463 184.918 345.463C182.487 345.463 181.263 346.874 181.263 348.353V348.863C181.263 350.325 182.487 351.753 184.918 351.753ZM194.829 346.364H192.602V341.706H190.936V353.079H192.602V347.826H194.829V346.364ZM184.714 352.875H183.031V357.21H193.027V355.748H184.714V352.875ZM189.406 343.44H185.751V341.553H184.085V343.44H180.413V344.868H189.406V343.44ZM184.918 350.41C183.541 350.41 182.861 349.611 182.861 348.778V348.438C182.861 347.605 183.524 346.806 184.918 346.806C186.312 346.806 186.975 347.605 186.975 348.438V348.778C186.975 349.611 186.295 350.41 184.918 350.41ZM212.58 347.367H210.166V341.706H208.483V357.38H210.166V348.829H212.58V347.367ZM202.567 349.509C202.703 349.849 203.111 350.325 203.587 350.835C204.233 351.532 204.998 352.297 206.171 353.385L207.259 352.229C206.239 351.328 205.491 350.614 204.76 349.815C203.723 348.659 203.4 347.962 203.4 346.619V342.845H201.7V346.619C201.7 347.826 201.428 348.591 200.391 349.764C199.626 350.614 198.742 351.481 197.705 352.399L198.81 353.538C199.966 352.484 200.867 351.583 201.564 350.818C202.108 350.223 202.397 349.883 202.55 349.509H202.567ZM217.427 347.877C217.546 348.132 217.886 348.455 218.396 348.88C219.212 349.56 219.943 350.121 220.827 350.733L221.779 349.509C220.793 348.846 219.909 348.2 219.093 347.486C218.362 346.857 218.209 346.211 218.209 345.123V344.154H221.303V342.709H213.211V344.154H216.509V345.191C216.509 346.432 216.237 347.112 215.404 347.894C214.809 348.455 213.772 349.254 212.684 350.019L213.67 351.226C214.622 350.563 215.557 349.849 216.271 349.203C216.798 348.727 217.308 348.166 217.41 347.877H217.427ZM225.451 352.875V341.706H223.785V345.701H220.895V347.146H223.785V352.875H225.451ZM217.342 351.974H215.659V357.21H225.774V355.748H217.342V351.974ZM239.292 353.334V347.945H241.502V346.483H239.292V341.706H237.626V353.334H239.292ZM230.979 352.518H229.296V357.227H239.717V355.782H230.979V352.518ZM236.657 349.22C234.872 349.39 233.478 349.475 231.608 349.526V346.313H229.942V349.56H226.814V351.005C232.05 351.005 234.09 350.886 236.793 350.614L236.657 349.22ZM235.178 348.098C235.416 347.112 235.569 345.582 235.569 344.375V342.505H227.868V343.95H233.903V344.613C233.903 345.582 233.784 346.721 233.529 347.894L235.178 348.098ZM254.238 357.38V341.706H252.555V357.38H254.238ZM249.41 348.812V342.947H242.355V344.392H247.744V347.401H242.406V353.589H245.262C248.084 353.589 249.631 353.453 251.212 353.215L251.059 351.804C249.291 352.059 247.931 352.144 245.67 352.144H244.072V348.812H249.41ZM272.481 357.482V356.088H263.981V354.694H272.039V350.563H262.247V351.957H270.39V353.334H262.332V357.482H272.481ZM264.049 347.061C264.168 347.299 264.559 347.656 265.018 348.013C265.749 348.574 266.633 349.22 267.517 349.781L268.435 348.557C267.449 347.928 266.446 347.265 265.647 346.585C264.865 345.939 264.831 345.446 264.831 344.545H267.993V343.134H264.831V341.451H263.131V343.134H259.748V344.545H263.131C263.114 345.65 262.961 346.228 262.094 346.993C261.465 347.554 260.394 348.302 259.306 348.999L260.241 350.223C261.159 349.628 262.196 348.88 262.893 348.336C263.437 347.911 263.93 347.333 264.032 347.061H264.049ZM272.039 349.781V341.706H270.373V345.48H267.551V346.908H270.373V349.781H272.039ZM278.281 349.628C278.417 349.968 278.842 350.444 279.318 350.954C279.964 351.651 280.678 352.365 281.834 353.419L282.939 352.28C281.936 351.396 281.222 350.733 280.491 349.934C279.284 348.625 279.097 348.115 279.097 346.772V344.596H282.344V343.134H274.031V344.596H277.397V346.772C277.397 348.03 277.21 348.676 276.088 349.917C275.323 350.767 274.49 351.6 273.47 352.518L274.575 353.657C275.714 352.603 276.564 351.736 277.261 350.971C277.805 350.376 278.111 350.002 278.264 349.628H278.281ZM286.509 357.38V341.706H284.826V346.942H281.647V348.421H284.826V357.38H286.509Z" fill="#19B29B"/>
<path d="M1.5 323C2.32843 323 3 322.328 3 321.5C3 320.672 2.32843 320 1.5 320C0.671573 320 0 320.672 0 321.5C0 322.328 0.671573 323 1.5 323Z" fill="#CCCCCC"/>
<path d="M173 399L179 389H167L173 399Z" fill="#19B29B"/>
<rect x="1.5" y="470.5" width="342" height="149" rx="74.5" fill="white" stroke="url(#paint0_linear_1_16836)" stroke-width="3"/>
<path d="M62.88 508.33H61.815V522.04H62.88V508.33ZM58.875 509.455H57.825V512.845H53.625V509.455H52.575V518.41H58.875V509.455ZM53.625 513.79H57.825V517.45H53.625V513.79ZM68.2673 513.205C68.3423 513.445 68.7473 513.85 69.4373 514.435C69.9473 514.87 70.6073 515.41 71.4023 516.01L72.0323 515.275C71.3723 514.795 70.5773 514.165 69.8423 513.52C68.8373 512.62 68.7473 512.26 68.7473 511.15V508.975H67.6673V511.18C67.6673 512.305 67.5623 512.695 66.6173 513.64C65.9423 514.315 64.9973 515.095 64.1873 515.695L64.8473 516.46C65.6723 515.8 66.5573 515.05 67.0823 514.555C67.7423 513.925 68.2073 513.46 68.2523 513.205H68.2673ZM74.9873 508.33H73.9373V518.11H74.9873V513.205H77.0873V512.275H74.9873V508.33ZM67.8773 517.285H66.8123V521.875H75.4223V520.945H67.8773V517.285ZM84.0647 509.185H77.8847V515.65H84.0647V512.815H87.3797V518.14H88.4297V508.33H87.3797V511.885H84.0647V509.185ZM83.0597 514.72H78.8897V510.115H83.0597V514.72ZM81.0947 517.39H80.0297V521.875H88.7747V520.945H81.0947V517.39ZM97.972 509.59H90.652V510.52H93.802V512.785C93.802 513.925 93.667 514.495 92.722 515.56C92.032 516.34 91.177 517.165 90.232 518.005L90.937 518.71C91.837 517.93 92.842 516.865 93.247 516.445C93.682 515.98 94.267 515.305 94.342 515.035H94.357C94.432 515.23 94.852 515.695 95.287 516.16C95.887 516.805 96.607 517.54 97.642 518.5L98.332 517.795C97.222 516.805 96.337 515.92 95.752 515.245C94.957 514.33 94.867 513.85 94.867 512.71V510.52H97.972V509.59ZM101.257 508.33H100.192V522.04H101.257V508.33ZM109.209 515.515C111.294 515.515 112.524 514.015 112.554 512.665H115.674V516.25H116.724V508.33H115.674V511.735H112.554C112.539 510.37 111.309 508.855 109.209 508.855C107.094 508.855 105.864 510.385 105.864 511.75V512.62C105.864 513.985 107.094 515.515 109.209 515.515ZM109.209 509.8C110.559 509.8 111.534 510.685 111.534 511.84V512.53C111.534 513.685 110.559 514.57 109.209 514.57C107.859 514.57 106.884 513.685 106.884 512.53V511.84C106.884 510.685 107.859 509.8 109.209 509.8ZM107.949 517.99H115.674V522.145H116.724V517.06H107.949V517.99ZM118.542 510.61H121.062V512.65C121.062 513.985 120.912 514.6 120.192 515.515C119.742 516.1 118.842 517.06 117.957 517.9L118.662 518.605C119.607 517.675 120.297 516.91 120.852 516.265C121.302 515.725 121.557 515.305 121.602 515.14H121.617C121.677 515.305 121.992 515.785 122.427 516.28C122.937 516.85 123.732 517.765 124.392 518.425L125.082 517.75C124.242 516.91 123.522 516.115 123.027 515.5C122.277 514.54 122.112 514.045 122.112 512.65V510.61H124.527V509.68H118.542V510.61ZM123.792 512.965V513.925H126.222V521.365H127.272V508.615H126.222V512.965H123.792ZM129.942 508.33H128.892V522.04H129.942V508.33ZM132.464 510.475H136.649V511C136.649 512.545 136.364 512.89 134.924 513.85C134.234 514.3 133.034 514.99 131.774 515.62L132.329 516.445C133.394 515.89 134.639 515.17 135.524 514.6C136.559 513.925 137.069 513.52 137.189 513.235H137.204C137.339 513.52 137.834 513.91 138.869 514.585C139.754 515.155 140.984 515.86 142.034 516.4L142.574 515.605C141.314 514.975 140.144 514.3 139.454 513.85C138.014 512.89 137.729 512.545 137.729 511V510.475H141.914V509.56H132.464V510.475ZM130.889 519.19V520.105H143.489V519.19H137.729V516.04H136.649V519.19H130.889ZM148.741 508.39H147.676V510.415H144.406V511.345H147.676V513.01C147.676 514.15 147.541 514.72 146.596 515.785C145.906 516.565 145.051 517.39 144.106 518.23L144.811 518.935C145.711 518.155 146.716 517.09 147.121 516.67C147.556 516.205 148.141 515.53 148.216 515.26H148.231C148.306 515.455 148.726 515.92 149.161 516.385C149.761 517.03 150.481 517.765 151.516 518.725L152.206 518.02C151.096 517.03 150.211 516.145 149.626 515.47C148.831 514.555 148.741 514.075 148.741 512.935V511.345H151.921V510.415H148.741V508.39ZM155.116 508.33H154.051V522.04H155.116V508.33ZM156.574 522.625H157.444L158.524 519.25H157.204L156.574 522.625ZM168.336 513.01C168.471 513.31 169.011 513.805 170.091 514.525C170.991 515.125 172.206 515.845 173.271 516.43L173.826 515.605C172.536 514.93 171.396 514.255 170.691 513.775C169.206 512.77 168.876 512.305 168.876 510.685V509.23H167.781V510.685C167.781 512.305 167.436 512.77 165.951 513.775C165.246 514.255 164.091 514.945 162.786 515.62L163.356 516.46C164.436 515.875 165.666 515.14 166.566 514.54C167.646 513.82 168.201 513.31 168.321 513.01H168.336ZM162.021 519.19V520.105H174.621V519.19H168.861V516.025H167.766V519.19H162.021ZM181.073 513.895C183.323 513.895 185.378 513.055 185.378 511.495V510.985C185.378 509.425 183.323 508.585 181.073 508.585C178.823 508.585 176.768 509.425 176.768 510.985V511.495C176.768 513.055 178.823 513.895 181.073 513.895ZM181.073 509.485C182.693 509.485 184.358 510.1 184.358 511.06V511.42C184.358 512.38 182.693 512.995 181.073 512.995C179.453 512.995 177.788 512.38 177.788 511.42V511.06C177.788 510.1 179.453 509.485 181.073 509.485ZM174.773 515.005V515.92H187.373V515.005H174.773ZM176.618 522.01H185.528V517.375H176.618V522.01ZM177.638 518.32H184.508V521.065H177.638V518.32ZM198.22 509.605H190.93V510.535H194.08V512.755C194.08 513.895 193.945 514.465 193 515.53C192.31 516.31 191.455 517.135 190.51 517.975L191.215 518.68C192.115 517.9 193.12 516.835 193.525 516.415C193.96 515.95 194.545 515.275 194.62 515.005H194.635C194.71 515.2 195.13 515.665 195.565 516.13C196.165 516.775 196.885 517.51 197.92 518.47L198.61 517.765C197.5 516.775 196.615 515.89 196.03 515.215C195.235 514.3 195.145 513.82 195.145 512.68V510.535H198.22V509.605ZM197.56 513.07V514.03H200.665V522.04H201.73V508.33H200.665V513.07H197.56ZM205.633 522.01H213.868V516.79H205.633V522.01ZM206.653 517.735H212.848V521.065H206.653V517.735ZM203.908 516.265C208.918 514.12 209.713 513.4 209.713 510.865V509.155H203.968V510.085H208.678V510.775C208.678 512.8 208.243 513.415 203.503 515.395L203.908 516.265ZM213.868 508.33H212.818V515.98H213.868V512.59H215.968V511.66H213.868V508.33ZM217.65 509.44V515.545H221.655V519.19H215.88V520.105H228.48V519.19H222.705V515.545H226.845V514.63H218.715V509.44H217.65ZM230.552 512.92H235.097V508.99H229.517V509.92H234.062V512.02H229.517V515.965C233.312 515.965 235.112 515.92 236.957 515.71L236.852 514.795C235.022 515.005 233.132 515.035 230.552 515.035V512.92ZM236.147 510.25V511.165H239.012V512.665H236.147V513.58H239.012V516.7H240.047V508.33H239.012V510.25H236.147ZM231.227 518.44H239.012V522.16H240.047V517.51H231.227V518.44ZM254.885 508.915H246.14V513.37H254.96V512.455H247.175V509.83H254.885V508.915ZM244.235 514.87V515.785H256.835V514.87H244.235ZM250.535 517.09C248.285 517.09 246.275 517.885 246.275 519.49V520C246.275 521.575 248.285 522.4 250.535 522.4C252.785 522.4 254.795 521.575 254.795 520V519.49C254.795 517.915 252.785 517.09 250.535 517.09ZM250.535 521.5C248.915 521.5 247.295 520.945 247.295 519.94V519.55C247.295 518.545 248.915 517.99 250.535 517.99C252.155 517.99 253.775 518.545 253.775 519.55V519.94C253.775 520.945 252.155 521.5 250.535 521.5ZM58.695 537.015C58.695 535.77 57.51 534.6 55.56 534.6C53.61 534.6 52.425 535.77 52.425 537.015V537.585C52.425 538.83 53.61 540 55.56 540C57.51 540 58.695 538.83 58.695 537.585V537.015ZM59.55 534.945V535.86H61.875V537.885H59.55V538.8H61.875V541.305H62.91V531.33H61.875V534.945H59.55ZM55.56 539.1C54.225 539.1 53.43 538.275 53.43 537.54V537.06C53.43 536.325 54.225 535.5 55.56 535.5C56.895 535.5 57.69 536.325 57.69 537.06V537.54C57.69 538.275 56.895 539.1 55.56 539.1ZM55.575 541.08H54.51V544.875H63.255V543.945H55.575V541.08ZM56.07 531.18H55.02V532.95H51.645V533.865H59.595V532.95H56.07V531.18ZM71.0423 539.7C68.7923 539.7 66.9623 540.66 66.9623 542.265V542.835C66.9623 544.41 68.7923 545.4 71.0423 545.4C73.2923 545.4 75.1223 544.41 75.1223 542.835V542.265C75.1223 540.69 73.2923 539.7 71.0423 539.7ZM71.0423 544.5C69.4373 544.5 67.9823 543.855 67.9823 542.79V542.31C67.9823 541.245 69.4373 540.6 71.0423 540.6C72.6473 540.6 74.1023 541.245 74.1023 542.31V542.79C74.1023 543.855 72.6473 544.5 71.0423 544.5ZM68.5223 536.1C68.5823 536.295 69.1673 536.805 69.8723 537.375C70.3223 537.735 71.0423 538.275 71.6423 538.695L72.2573 537.945C71.4023 537.375 70.5623 536.745 70.0823 536.34C69.1073 535.5 69.0023 535.095 69.0023 534.21V533.115H71.9573V532.2H64.8473V533.115H67.9373V534.255C67.9373 535.065 67.7723 535.59 67.0373 536.31C66.3023 537.03 65.3423 537.765 64.4573 538.395L65.1023 539.145C65.7923 538.65 66.8123 537.84 67.3373 537.375C67.9673 536.82 68.4473 536.325 68.5073 536.1H68.5223ZM75.0473 531.33H73.9973V539.4H75.0473V535.725H77.1473V534.795H75.0473V531.33ZM88.7147 539.145C87.5747 539.265 86.3897 539.355 84.6797 539.4V538.32C86.4197 538.185 87.2447 537.375 87.2447 536.4V536.04C87.2447 534.99 86.2547 534.105 84.1547 534.105C82.0547 534.105 81.0647 534.975 81.0647 536.04V536.4C81.0647 537.375 81.8897 538.185 83.6297 538.32V539.43C82.5797 539.445 81.3647 539.445 79.8947 539.445V540.375C84.4697 540.375 86.9447 540.255 88.8047 540.03L88.7147 539.145ZM90.7397 531.33H89.6897V541.71H90.7397V536.85H92.7947V535.905H90.7397V531.33ZM83.3147 541.32H82.2497V544.89H91.1147V543.96H83.3147V541.32ZM84.1547 534.975C85.5647 534.975 86.2397 535.515 86.2397 536.085V536.355C86.2397 536.925 85.5647 537.465 84.1547 537.465C82.7447 537.465 82.0697 536.925 82.0697 536.355V536.085C82.0697 535.515 82.7447 534.975 84.1547 534.975ZM80.4047 532.53V533.445H87.9047V532.53H84.6797V531.195H83.6297V532.53H80.4047ZM99.922 539.7C97.672 539.7 95.767 540.63 95.767 542.25V542.835C95.767 544.41 97.672 545.4 99.922 545.4C102.172 545.4 104.077 544.41 104.077 542.835V542.25C104.077 540.675 102.172 539.7 99.922 539.7ZM99.922 544.5C98.317 544.5 96.787 543.87 96.787 542.805V542.295C96.787 541.23 98.317 540.6 99.922 540.6C101.527 540.6 103.057 541.23 103.057 542.295V542.805C103.057 543.87 101.527 544.5 99.922 544.5ZM93.622 539.37C98.632 537.225 99.397 536.505 99.397 533.985V532.2H93.652V533.13H98.362V533.895C98.362 535.92 97.942 536.52 93.187 538.515L93.622 539.37ZM100.237 533.445V534.36H102.967V536.325H100.012V537.24H102.967V539.4H104.002V531.33H102.967V533.445H100.237ZM119.109 531.33H118.059V541.5H119.109V536.595H121.164V535.65H119.109V531.33ZM111.699 540.81H110.634V544.875H119.484V543.945H111.699V540.81ZM117.009 538.065C115.734 538.2 114.399 538.29 112.284 538.335V535.29H111.234V538.35C110.364 538.365 109.389 538.365 108.264 538.365V539.295C112.809 539.295 115.269 539.175 117.099 538.95L117.009 538.065ZM109.179 532.05V532.98H114.804V533.61C114.804 534.69 114.669 535.74 114.444 536.775L115.494 536.91C115.689 536.1 115.854 534.75 115.854 533.4V532.05H109.179ZM122.907 536.175H127.452V532.065H121.872V532.995H126.417V535.275H121.872V539.385C125.667 539.385 127.467 539.34 129.312 539.13L129.207 538.215C127.377 538.425 125.487 538.455 122.907 538.455V536.175ZM128.502 535.95V536.865H131.367V541.2H132.402V531.33H131.367V533.37H128.502V534.285H131.367V535.95H128.502ZM125.067 540.81H124.002V544.89H132.747V543.96H125.067V540.81ZM147.899 531.33H146.834V545.04H147.899V531.33ZM138.689 537.315H143.654V532.44H137.639V533.37H142.604V536.385H137.639V541.635H140.474C142.109 541.635 143.819 541.56 145.409 541.305L145.289 540.39C143.894 540.615 142.259 540.69 140.744 540.69H138.689V537.315ZM155.641 536.28C155.776 536.58 156.316 537.075 157.396 537.795C158.296 538.395 159.511 539.115 160.576 539.7L161.131 538.875C159.841 538.2 158.701 537.525 157.996 537.045C156.511 536.04 156.181 535.575 156.181 533.955V532.305H155.086V533.955C155.086 535.575 154.741 536.04 153.256 537.045C152.551 537.525 151.396 538.215 150.091 538.89L150.661 539.73C151.741 539.145 152.971 538.41 153.871 537.81C154.951 537.09 155.506 536.58 155.626 536.28H155.641ZM149.341 542.19V543.105H161.941V542.19H149.341ZM163.534 536.655L163.564 537.6L171.709 537.45C171.619 538.59 171.454 539.67 171.244 540.825L172.339 540.945C172.699 539.01 172.879 537.27 172.879 534.75V532.575H163.759V533.505H171.784V535.305C171.784 535.74 171.769 536.145 171.754 536.55L163.534 536.655ZM162.094 542.19V543.105H174.694V542.19H162.094ZM181.041 541.605C182.481 541.605 183.366 540.87 183.741 539.475H185.871V544.365H186.921V531.615H185.871V534.495H183.726C183.336 533.145 182.451 532.425 181.041 532.425C179.061 532.425 178.116 533.835 178.116 536.4V537.63C178.116 540.195 179.061 541.605 181.041 541.605ZM181.041 533.4C182.376 533.4 182.946 534.465 182.946 536.52V537.51C182.946 539.565 182.376 540.63 181.041 540.63C179.706 540.63 179.136 539.565 179.136 537.51V536.52C179.136 534.465 179.706 533.4 181.041 533.4ZM189.501 531.33H188.451V545.04H189.501V531.33ZM183.966 537.63V536.4C183.966 536.055 183.951 535.74 183.906 535.425H185.871V538.545H183.921C183.951 538.26 183.966 537.96 183.966 537.63ZM197.213 539.79C194.963 539.79 193.133 540.705 193.133 542.31V542.88C193.133 544.455 194.963 545.4 197.213 545.4C199.463 545.4 201.293 544.455 201.293 542.88V542.31C201.293 540.735 199.463 539.79 197.213 539.79ZM197.333 531.99H196.313V534.375H192.173V531.99H191.153V538.47H197.333V531.99ZM197.213 544.5C195.608 544.5 194.153 543.9 194.153 542.835V542.355C194.153 541.29 195.608 540.69 197.213 540.69C198.818 540.69 200.273 541.29 200.273 542.355V542.835C200.273 543.9 198.818 544.5 197.213 544.5ZM201.218 531.33H200.168V539.49H201.218V535.59H203.318V534.66H201.218V531.33ZM192.173 535.29H196.313V537.555H192.173V535.29ZM279.665 538.92V539.835H287.09V541.56H279.74V545.085H288.485V544.185H280.775V542.445H288.125V538.92H279.665ZM288.125 531.33H287.075V538.11H288.125V531.33ZM281.15 535.245C281.24 535.5 281.795 535.98 282.5 536.535C282.935 536.88 283.61 537.39 284.315 537.885L284.915 537.12C284.12 536.595 283.265 535.95 282.71 535.485C281.765 534.69 281.63 534.345 281.63 533.25V531.675H280.55V533.295C280.55 534.39 280.31 534.9 279.44 535.695C278.825 536.25 277.94 536.955 277.01 537.6L277.64 538.365C278.66 537.63 279.5 536.94 280.025 536.475C280.685 535.905 281.06 535.485 281.135 535.245H281.15ZM300.922 531.33H299.857V545.04H300.922V531.33ZM292.252 538.44C291.547 539.235 290.722 540.03 289.732 540.9L290.437 541.635C291.322 540.855 292.312 539.85 292.837 539.28C293.287 538.785 293.857 538.08 293.902 537.885H293.917C293.992 538.08 294.427 538.575 294.877 539.055C295.477 539.7 296.317 540.525 297.262 541.425L297.952 540.705C296.827 539.685 295.942 538.785 295.342 538.095C294.532 537.165 294.442 536.67 294.442 535.515V532.32H293.347V535.59C293.347 536.775 293.197 537.36 292.252 538.44Z" fill="#222222"/>
<path d="M216.161 542.85C215.591 542.85 215.486 542.775 215.486 542.325V537.93H219.581V536.85H213.581V533.85H218.501V532.785H213.581V530.46H212.471V532.785H209.816C210.026 532.185 210.221 531.6 210.371 531.03L209.246 530.805C208.886 532.365 208.136 534.345 207.101 535.605C207.386 535.725 207.821 535.95 208.076 536.13C208.571 535.5 209.021 534.705 209.381 533.85H212.471V536.85H206.501V537.93H210.386C210.131 540.39 209.456 542.31 206.291 543.285C206.546 543.495 206.876 543.945 206.996 544.23C210.401 543.045 211.241 540.855 211.541 537.93H214.376V542.325C214.376 543.54 214.706 543.915 216.026 543.915H218.156C219.341 543.915 219.671 543.33 219.791 541.065C219.476 540.99 219.011 540.795 218.756 540.6C218.696 542.535 218.606 542.85 218.066 542.85H216.161Z" fill="#5082E6"/>
<path d="M226.466 536.49C226.616 536.745 227.111 537.195 228.101 537.825C229.106 538.455 229.901 538.905 231.176 539.58L231.911 538.395C230.651 537.75 229.916 537.36 228.761 536.625C227.561 535.86 227.201 535.215 227.201 534.09V533.73H231.221V532.44H221.681V533.73H225.701V534.09C225.701 535.23 225.281 535.905 224.126 536.655C223.166 537.27 222.281 537.75 220.991 538.41L221.726 539.595C222.851 539.01 223.766 538.5 224.786 537.855C225.776 537.225 226.286 536.76 226.451 536.49H226.466ZM227.201 541.995V539.04H225.701V541.995H220.106V543.255H232.796V541.995H227.201ZM237.493 538.515C237.613 538.815 237.988 539.235 238.408 539.685C238.978 540.3 239.608 540.93 240.628 541.86L241.603 540.855C240.718 540.075 240.088 539.49 239.443 538.785C238.378 537.63 238.213 537.18 238.213 535.995V534.57H241.183V533.28H238.213V531.315H236.713V533.28H233.623V534.57H236.713V535.995C236.713 537.105 236.548 537.675 235.558 538.77C234.883 539.52 234.148 540.255 233.248 541.065L234.223 542.07C235.228 541.14 235.978 540.375 236.593 539.7C237.073 539.175 237.343 538.845 237.478 538.515H237.493ZM244.453 545.1V531.27H242.968V545.1H244.453ZM259.89 545.205V544.005H251.895V543.225H259.485V540.135H250.425V541.32H258.03V542.085H250.5V545.205H259.89ZM257.16 538.005C255.855 538.125 254.775 538.2 253.5 538.245V537.645C255.105 537.495 255.96 536.82 255.96 535.92V535.59C255.96 534.585 254.865 533.835 252.795 533.835C250.725 533.835 249.63 534.57 249.63 535.59V535.92C249.63 536.805 250.455 537.48 252.03 537.645V538.29C251.04 538.305 249.9 538.305 248.475 538.305V539.52C253.095 539.52 254.895 539.415 257.28 539.175L257.16 538.005ZM259.485 539.625V536.13H261.435V534.84H259.485V531.27H258.015V539.625H259.485ZM253.53 532.215V531.03H252.06V532.215H249V533.43H256.545V532.215H253.53ZM252.795 534.99C253.98 534.99 254.505 535.275 254.505 535.695V535.815C254.505 536.235 253.98 536.52 252.795 536.52C251.61 536.52 251.085 536.235 251.085 535.815V535.695C251.085 535.275 251.61 534.99 252.795 534.99ZM263.088 531.78V536.505H266.808V537.93H261.213V539.19H273.903V537.93H268.308V536.505H272.043V535.245H264.558V533.04H271.953V531.78H263.088ZM267.558 545.49C270.213 545.49 271.878 544.395 271.878 543V542.49C271.878 541.065 270.198 540 267.558 540C264.918 540 263.238 541.05 263.238 542.49V543C263.238 544.41 264.918 545.49 267.558 545.49ZM267.558 541.215C269.253 541.215 270.408 541.86 270.408 542.58V542.91C270.408 543.63 269.253 544.275 267.558 544.275C265.863 544.275 264.708 543.63 264.708 542.91V542.58C264.708 541.86 265.863 541.215 267.558 541.215Z" fill="#4A89DB"/>
<path d="M43.5 517C44.3284 517 45 516.328 45 515.5C45 514.672 44.3284 514 43.5 514C42.6716 514 42 514.672 42 515.5C42 516.328 42.6716 517 43.5 517Z" fill="#CCCCCC"/>
<path d="M57.84 571.01C57.975 571.31 58.515 571.805 59.595 572.525C60.495 573.125 61.71 573.845 62.775 574.43L63.33 573.605C62.04 572.93 60.9 572.255 60.195 571.775C58.71 570.77 58.38 570.305 58.38 568.685V567.23H57.285V568.685C57.285 570.305 56.94 570.77 55.455 571.775C54.75 572.255 53.595 572.945 52.29 573.62L52.86 574.46C53.94 573.875 55.17 573.14 56.07 572.54C57.15 571.82 57.705 571.31 57.825 571.01H57.84ZM51.525 577.19V578.105H64.125V577.19H58.365V574.025H57.27V577.19H51.525ZM70.5773 571.895C72.8273 571.895 74.8823 571.055 74.8823 569.495V568.985C74.8823 567.425 72.8273 566.585 70.5773 566.585C68.3273 566.585 66.2723 567.425 66.2723 568.985V569.495C66.2723 571.055 68.3273 571.895 70.5773 571.895ZM70.5773 567.485C72.1973 567.485 73.8623 568.1 73.8623 569.06V569.42C73.8623 570.38 72.1973 570.995 70.5773 570.995C68.9573 570.995 67.2923 570.38 67.2923 569.42V569.06C67.2923 568.1 68.9573 567.485 70.5773 567.485ZM64.2773 573.005V573.92H76.8773V573.005H64.2773ZM66.1223 580.01H75.0323V575.375H66.1223V580.01ZM67.1423 576.32H74.0123V579.065H67.1423V576.32ZM90.7547 566.33H89.7047V576.5H90.7547V571.595H92.8097V570.65H90.7547V566.33ZM83.3447 575.81H82.2797V579.875H91.1297V578.945H83.3447V575.81ZM88.6547 573.065C87.3797 573.2 86.0447 573.29 83.9297 573.335V570.29H82.8797V573.35C82.0097 573.365 81.0347 573.365 79.9097 573.365V574.295C84.4547 574.295 86.9147 574.175 88.7447 573.95L88.6547 573.065ZM80.8247 567.05V567.98H86.4497V568.61C86.4497 569.69 86.3147 570.74 86.0897 571.775L87.1397 571.91C87.3347 571.1 87.4997 569.75 87.4997 568.4V567.05H80.8247ZM94.552 571.175H99.097V567.065H93.517V567.995H98.062V570.275H93.517V574.385C97.312 574.385 99.112 574.34 100.957 574.13L100.852 573.215C99.022 573.425 97.132 573.455 94.552 573.455V571.175ZM100.147 570.95V571.865H103.012V576.2H104.047V566.33H103.012V568.37H100.147V569.285H103.012V570.95H100.147ZM96.712 575.81H95.647V579.89H104.392V578.96H96.712V575.81ZM115.344 567.185H109.164V573.65H115.344V567.185ZM114.324 572.72H110.184V568.115H114.324V572.72ZM119.559 566.33H118.509V576.14H119.559V566.33ZM112.224 575.39H111.159V579.875H119.904V578.945H112.224V575.39ZM125.502 571.64C127.332 571.64 128.802 570.68 128.802 569.405V568.835C128.802 567.56 127.332 566.6 125.502 566.6C123.672 566.6 122.202 567.56 122.202 568.835V569.405C122.202 570.68 123.672 571.64 125.502 571.64ZM128.202 574.595V575.525H131.292V576.98H132.342V566.33H131.292V574.595H128.202ZM125.502 567.5C126.762 567.5 127.797 568.145 127.797 568.925V569.315C127.797 570.095 126.762 570.74 125.502 570.74C124.242 570.74 123.207 570.095 123.207 569.315V568.925C123.207 568.145 124.242 567.5 125.502 567.5ZM124.647 576.245H123.582V579.875H132.657V578.945H124.647V576.245ZM130.152 572.285C127.572 572.555 125.562 572.615 121.242 572.615V573.53C122.622 573.53 123.777 573.53 124.782 573.5V575.66H125.847V573.485C127.617 573.425 128.892 573.335 130.242 573.2L130.152 572.285ZM137.069 576.59C139.049 576.59 139.994 575.165 139.994 572.6V572.45H141.839V579.365H142.889V566.615H141.839V571.505H139.994V571.43C139.994 568.865 139.049 567.44 137.069 567.44C135.089 567.44 134.144 568.865 134.144 571.43V572.6C134.144 575.165 135.089 576.59 137.069 576.59ZM137.069 568.415C138.404 568.415 138.974 569.495 138.974 571.55V572.48C138.974 574.535 138.404 575.615 137.069 575.615C135.734 575.615 135.164 574.535 135.164 572.48V571.55C135.164 569.495 135.734 568.415 137.069 568.415ZM145.529 566.33H144.479V580.04H145.529V566.33ZM158.026 566.615H156.976V579.365H158.026V572.21H160.021V580.04H161.071V566.33H160.021V571.265H158.026V566.615ZM149.986 567.635V576.305H151.771C153.286 576.305 154.576 576.23 156.016 575.99L155.896 575.045C154.531 575.285 153.316 575.345 151.681 575.345H151.051V568.595H155.161V567.635H149.986ZM169.339 572.015C169.339 570.77 168.139 569.6 166.189 569.6C164.239 569.6 163.039 570.77 163.039 572.015V572.585C163.039 573.83 164.239 575 166.189 575C168.139 575 169.339 573.83 169.339 572.585V572.015ZM166.189 574.1C164.854 574.1 164.044 573.275 164.044 572.54V572.06C164.044 571.325 164.854 570.5 166.189 570.5C167.524 570.5 168.334 571.325 168.334 572.06V572.54C168.334 573.275 167.524 574.1 166.189 574.1ZM172.879 566.33H171.829V576.305H172.879V571.445H174.979V570.515H172.879V566.33ZM165.769 576.08H164.704V579.875H173.299V578.945H165.769V576.08ZM166.714 566.195H165.664V567.95H162.259V568.865H170.149V567.95H166.714V566.195ZM179.271 568.475H183.456V569C183.456 570.545 183.171 570.89 181.731 571.85C181.041 572.3 179.841 572.99 178.581 573.62L179.136 574.445C180.201 573.89 181.446 573.17 182.331 572.6C183.366 571.925 183.876 571.52 183.996 571.235H184.011C184.146 571.52 184.641 571.91 185.676 572.585C186.561 573.155 187.791 573.86 188.841 574.4L189.381 573.605C188.121 572.975 186.951 572.3 186.261 571.85C184.821 570.89 184.536 570.545 184.536 569V568.475H188.721V567.56H179.271V568.475ZM177.696 577.19V578.105H190.296V577.19H184.536V574.04H183.456V577.19H177.696ZM197.273 571.205H196.223V573.2H190.448V574.1H203.048V573.2H197.273V571.205ZM202.073 570.95C200.738 570.425 199.613 569.96 198.893 569.6C197.543 568.94 197.288 568.55 197.288 567.515V566.51H196.223V567.515C196.223 568.55 195.953 568.94 194.603 569.6C193.883 569.96 192.773 570.425 191.423 570.95L191.858 571.805C192.908 571.4 194.093 570.875 194.843 570.515C196.118 569.915 196.643 569.54 196.748 569.24H196.763C196.868 569.525 197.393 569.9 198.668 570.5C199.418 570.86 200.618 571.385 201.668 571.79L202.073 570.95ZM192.053 576.665H200.183V580.145H201.233V575.75H192.053V576.665ZM210.446 572.015C210.446 570.77 209.246 569.6 207.296 569.6C205.346 569.6 204.146 570.77 204.146 572.015V572.585C204.146 573.83 205.346 575 207.296 575C209.246 575 210.446 573.83 210.446 572.585V572.015ZM207.296 574.1C205.961 574.1 205.151 573.275 205.151 572.54V572.06C205.151 571.325 205.961 570.5 207.296 570.5C208.631 570.5 209.441 571.325 209.441 572.06V572.54C209.441 573.275 208.631 574.1 207.296 574.1ZM213.986 566.33H212.936V576.305H213.986V571.445H216.086V570.515H213.986V566.33ZM206.876 576.08H205.811V579.875H214.406V578.945H206.876V576.08ZM207.821 566.195H206.771V567.95H203.366V568.865H211.256V567.95H207.821V566.195ZM229.153 574.805V576.425H222.853V574.805H221.818V580.04H230.188V574.805H229.153ZM222.838 574.13C224.953 574.13 225.958 573.05 225.958 572V571.55C225.958 570.5 224.953 569.42 222.838 569.42C220.723 569.42 219.718 570.5 219.718 571.55V572C219.718 573.05 220.723 574.13 222.838 574.13ZM226.828 569.645V570.56H229.153V572.03H226.828V572.945H229.153V573.995H230.188V566.33H229.153V569.645H226.828ZM222.853 579.095V577.355H229.153V579.095H222.853ZM222.838 570.305C224.278 570.305 224.938 571.01 224.938 571.61V571.94C224.938 572.54 224.278 573.245 222.838 573.245C221.398 573.245 220.738 572.54 220.738 571.94V571.61C220.738 571.01 221.398 570.305 222.838 570.305ZM223.348 566.135H222.298V567.86H218.923V568.775H226.873V567.86H223.348V566.135ZM243.105 566.33H242.04V580.04H243.105V566.33ZM240.99 575.765C238.665 576.02 236.265 576.095 231.9 576.095V577.025C236.49 577.025 238.605 576.935 241.08 576.68L240.99 575.765ZM236.19 573.755C238.14 573.755 239.76 572.48 239.76 570.86V570.14C239.76 568.52 238.14 567.245 236.19 567.245C234.24 567.245 232.62 568.505 232.62 570.14V570.86C232.62 572.48 234.24 573.755 236.19 573.755ZM236.19 568.175C237.51 568.175 238.74 569.075 238.74 570.2V570.8C238.74 571.925 237.51 572.825 236.19 572.825C234.87 572.825 233.64 571.925 233.64 570.8V570.2C233.64 569.075 234.87 568.175 236.19 568.175Z" fill="#222222"/>
<path d="M43.5 575C44.3284 575 45 574.328 45 573.5C45 572.672 44.3284 572 43.5 572C42.6716 572 42 572.672 42 573.5C42 574.328 42.6716 575 43.5 575Z" fill="#CCCCCC"/>
<path d="M136.094 13.12C142.174 13.12 145.554 13.06 147.754 12.84L147.574 10.78C146.394 10.88 145.034 10.94 143.194 10.98V10.06C145.174 9.74 146.274 8.68 146.274 7.46V6.94C146.274 5.48 144.714 4.26 141.934 4.26C139.154 4.26 137.594 5.48 137.594 6.94V7.46C137.594 8.7 138.694 9.74 140.694 10.06V11.02C139.374 11.04 137.854 11.04 136.094 11.04V13.12ZM150.994 0.28H148.494V14.4H150.994V8.28H153.454V6.08H150.994V0.28ZM141.414 13.76H138.874V18.76H151.494V16.62H141.414V13.76ZM136.814 1.7V3.76H146.954V1.7H143.194V0.0999997H140.674V1.7H136.814ZM141.934 6.14C143.214 6.14 143.894 6.66 143.894 7.14V7.26C143.894 7.74 143.214 8.26 141.934 8.26C140.654 8.26 139.974 7.74 139.974 7.26V7.14C139.974 6.66 140.654 6.14 141.934 6.14ZM162.757 19.44C166.057 19.44 168.577 18.1 168.577 15.84V14.96C168.577 12.7 166.057 11.36 162.757 11.36C159.457 11.36 156.937 12.7 156.937 14.96V15.84C156.937 18.1 159.457 19.44 162.757 19.44ZM162.757 13.42C164.497 13.42 166.097 14.2 166.097 15.14V15.66C166.097 16.6 164.497 17.38 162.757 17.38C161.017 17.38 159.417 16.6 159.417 15.66V15.14C159.417 14.2 161.017 13.42 162.757 13.42ZM163.217 2.86V4.98H166.017V6.74H162.897V8.86H166.017V11.28H168.517V0.28H166.017V2.86H163.217ZM154.337 11.68C160.717 8.98 162.277 7.8 162.277 4.62V1.38H154.117V3.52H159.757V4.38C159.757 6.5 158.977 7.22 153.317 9.62L154.337 11.68ZM179.62 14.5C183.02 14.5 184.42 12.24 184.42 9.12V6.9C184.42 3.78 183.02 1.52 179.62 1.52C176.22 1.52 174.82 3.78 174.82 6.9V9.12C174.82 12.24 176.22 14.5 179.62 14.5ZM179.62 3.74C181.32 3.74 182 4.94 182 7.2V8.82C182 11.08 181.32 12.28 179.62 12.28C177.92 12.28 177.24 11.08 177.24 8.82V7.2C177.24 4.94 177.92 3.74 179.62 3.74ZM189.54 0.28H187V18.88H189.54V0.28ZM190.883 10.66V12.8H194.963V18.82H197.463V12.8H201.343V18.82H203.843V12.8H207.923V10.66H190.883ZM199.463 6.02C199.663 6.38 200.363 6.86 201.663 7.52C202.783 8.08 204.563 8.9 205.823 9.42L206.843 7.38C205.443 6.8 203.763 6.04 202.423 5.32C201.183 4.66 200.683 3.9 200.683 2.68V0.92H198.123V2.68C198.123 3.9 197.623 4.66 196.383 5.32C195.043 6.04 193.363 6.8 191.963 7.38L193.003 9.46C194.263 8.94 196.043 8.12 197.163 7.56C198.463 6.9 199.263 6.4 199.443 6.02H199.463Z" fill="#5082E6"/>
<path d="M148.234 429.66H145.814V446.98H148.234V437.8H149.874V447.88H152.294V429.28H149.874V435.62H148.234V429.66ZM136.694 431.04V442.94H139.774C141.434 442.94 143.374 442.88 144.994 442.6L144.734 440.44C143.074 440.7 141.394 440.76 139.774 440.76H139.194V433.22H143.874V431.04H136.694ZM153.077 437.98V440.04H170.117V437.98H153.077ZM161.597 436.94C165.177 436.94 167.697 435.72 167.697 433.46V432.98C167.697 430.72 165.177 429.5 161.597 429.5C158.017 429.5 155.497 430.72 155.497 432.98V433.46C155.497 435.72 158.017 436.94 161.597 436.94ZM161.597 431.54C163.637 431.54 165.197 432.16 165.197 433.06V433.38C165.197 434.28 163.637 434.9 161.597 434.9C159.557 434.9 157.997 434.28 157.997 433.38V433.06C157.997 432.16 159.557 431.54 161.597 431.54ZM161.597 448.44C164.837 448.44 167.597 447.34 167.597 445.02V444.42C167.597 442.1 164.837 441 161.597 441C158.357 441 155.597 442.1 155.597 444.42V445.02C155.597 447.34 158.357 448.44 161.597 448.44ZM161.597 443.04C163.377 443.04 165.097 443.64 165.097 444.58V444.86C165.097 445.8 163.377 446.4 161.597 446.4C159.817 446.4 158.097 445.8 158.097 444.86V444.58C158.097 443.64 159.817 443.04 161.597 443.04ZM186.8 442.52H189.32V429.28H186.8V434H183.82V436.16H186.8V442.52ZM180.02 441.44H177.48V447.68H189.62V445.52H180.02V441.44ZM174.76 432.6H178.38V434.16C178.38 435.14 177.98 435.88 177.28 436.5C176.44 437.24 175.24 438.16 173.98 439.02L175.46 440.88C176.46 440.18 177.34 439.5 178.2 438.82C179.12 438.1 179.68 437.56 179.76 437.32H179.78C179.86 437.52 180.38 437.98 181.22 438.6C181.96 439.14 182.82 439.74 183.68 440.3L185.04 438.5C184.04 437.86 183.04 437.18 182.2 436.54C181.14 435.72 180.9 435.14 180.9 434.16V432.6H184.36V430.44H174.76V432.6ZM193.623 443.64H202.963V448.12H205.483V441.52H193.623V443.64ZM205.483 429.28H202.983V440.68H205.483V437.9H207.883V435.74H205.483V434.04H207.883V431.88H205.483V429.28ZM193.943 435.98H199.923V430.12H191.463V432.22H197.443V433.96H191.463V439.82C196.563 439.82 199.403 439.78 201.703 439.52L201.483 437.44C199.043 437.68 196.743 437.72 193.943 437.72V435.98Z" fill="#33B9A5"/>
<defs>
<filter id="filter0_d_1_16836" x="72" y="30" width="220" height="220" filterUnits="userSpaceOnUse" color-interpolation-filters="sRGB">
<feFlood flood-opacity="0" result="BackgroundImageFix"/>
<feColorMatrix in="SourceAlpha" type="matrix" values="0 0 0 0 0 0 0 0 0 0 0 0 0 0 0 0 0 0 127 0" result="hardAlpha"/>
<feOffset dx="10" dy="10"/>
<feGaussianBlur stdDeviation="10"/>
<feColorMatrix type="matrix" values="0 0 0 0 0 0 0 0 0 0 0 0 0 0 0 0 0 0 0.1 0"/>
<feBlend mode="normal" in2="BackgroundImageFix" result="effect1_dropShadow_1_16836"/>
<feBlend mode="normal" in="SourceGraphic" in2="effect1_dropShadow_1_16836" result="shape"/>
</filter>
<linearGradient id="paint0_linear_1_16836" x1="172.5" y1="469" x2="172.5" y2="621" gradientUnits="userSpaceOnUse">
<stop stop-color="#33B9A5"/>
<stop offset="0.69" stop-color="#40A7C9"/>
<stop offset="1" stop-color="#5082E6"/>
</linearGradient>
</defs>
</svg>
