<svg width="347" height="303" viewBox="0 0 347 303" fill="none" xmlns="http://www.w3.org/2000/svg">
<path d="M50.8652 27.5352L50.8652 275.2" stroke="#AAAAAA" stroke-width="0.421245"/>
<path d="M143.118 117.672L50.8654 117.672" stroke="#AAAAAA" stroke-width="0.421245"/>
<path d="M138.484 250.771L285.077 250.771C292.057 250.771 297.715 256.429 297.715 263.409V300.052" stroke="#AAAAAA" stroke-width="0.421245"/>
<path d="M50.8651 250.771L161.653 250.771C168.632 250.771 174.29 256.429 174.29 263.409V300.052" stroke="#AAAAAA" stroke-width="0.421245"/>
<rect x="2.21125" y="0.789377" width="98.5714" height="34.5384" rx="17.2692" fill="white" stroke="#333333" stroke-width="0.421245"/>
<path d="M15.36 21.03C14.8377 21.03 14.0963 20.7352 13.6413 20.3897L13.2201 21.0722C13.7256 21.4766 14.4754 21.7883 15.3348 21.7883C16.5816 21.7883 17.5 21.2154 17.5 20.1033V19.9517C17.5 19.1092 17.0366 18.5784 15.537 18.2414C14.6355 18.0392 14.1384 17.837 14.1384 17.281V17.1462C14.1384 16.6659 14.6355 16.2784 15.3937 16.2784C15.9498 16.2784 16.3963 16.4048 16.8428 16.7081L17.2388 16.0593C16.7249 15.7139 16.1267 15.5286 15.3853 15.5286C13.9868 15.5286 13.3044 16.3289 13.3044 17.1546V17.3062C13.3044 18.4015 14.1805 18.7553 15.3263 18.9996C16.312 19.2103 16.6575 19.4799 16.6575 20.0106V20.1454C16.6575 20.6256 16.2194 21.03 15.36 21.03ZM21.8743 18.6458C21.8743 17.5337 21.1497 17.0029 20.2567 17.0029C19.6332 17.0029 19.1699 17.2304 18.8918 17.6432V15.3264H18.0746V21.6956H18.8918V18.8396C18.8918 18.115 19.4984 17.7275 20.0545 17.7275C20.7369 17.7275 21.057 18.056 21.057 18.8311V21.6956H21.8743V18.6458ZM23.8931 21.763C24.2975 21.763 24.5671 21.6872 24.8115 21.5524C24.9884 21.4513 25.1569 21.3081 25.2411 21.1396H25.2496V21.6956H26.0331V18.4689C26.0331 17.5421 25.3085 17.0029 24.2807 17.0029C23.5393 17.0029 22.9917 17.2725 22.5452 17.5843L22.9496 18.1908C23.3792 17.9128 23.7331 17.7275 24.2723 17.7275C24.9463 17.7275 25.2243 18.0223 25.2243 18.6374V18.907H24.0532C22.8737 18.907 22.3767 19.4546 22.3767 20.2381V20.4656C22.3767 21.2744 22.9664 21.763 23.8931 21.763ZM25.2243 20.0528C25.2243 20.3982 25.1316 20.6004 24.9126 20.7689C24.6682 20.9626 24.3818 21.0553 23.9774 21.0553C23.5393 21.0553 23.177 20.8615 23.177 20.415V20.2971C23.177 19.859 23.4298 19.5978 24.0701 19.5978H25.2243V20.0528ZM29.5599 17.0956C29.3745 17.0366 29.1723 17.0029 28.9617 17.0029C28.2877 17.0029 27.8749 17.3062 27.6053 17.8202H27.5969V17.0872H26.8049V21.6956H27.6222V19.0081C27.6222 18.2835 28.1445 17.778 28.7511 17.778C28.9701 17.778 29.1555 17.8202 29.3156 17.8876L29.5599 17.0956ZM31.5565 17.7022C32.2558 17.7022 32.6939 18.1571 32.6939 18.8648V19.0165H30.3855V18.8985C30.3855 18.1908 30.8741 17.7022 31.5565 17.7022ZM33.0309 20.6425C32.6349 20.8952 32.2305 21.0553 31.6323 21.0553C30.8994 21.0553 30.3855 20.5835 30.3855 19.7158V19.6821H33.4858V19.067C33.4858 17.7528 32.736 17.0029 31.5565 17.0029C30.4192 17.0029 29.5767 17.7191 29.5767 19.1176V19.6399C29.5767 21.1311 30.4613 21.763 31.5986 21.763C32.4327 21.763 32.9719 21.5355 33.3763 21.2575L33.0309 20.6425ZM37.7881 18.6458C37.7881 17.5337 37.0636 17.0029 36.1705 17.0029C35.5471 17.0029 35.0837 17.2304 34.8057 17.6432V15.3264H33.9885V21.6956H34.8057V18.8396C34.8057 18.115 35.4123 17.7275 35.9683 17.7275C36.6508 17.7275 36.9709 18.056 36.9709 18.8311V21.6956H37.7881V18.6458ZM40.3462 17.0029C39.0825 17.0029 38.2905 17.7612 38.2905 19.1007V19.6652C38.2905 20.9963 39.0825 21.763 40.3462 21.763C41.6099 21.763 42.4019 20.9963 42.4019 19.6652V19.1007C42.4019 17.7696 41.6099 17.0029 40.3462 17.0029ZM40.3462 21.0469C39.6132 21.0469 39.1162 20.5751 39.1162 19.5978V19.1681C39.1162 18.1908 39.6132 17.7191 40.3462 17.7191C41.0792 17.7191 41.5762 18.1908 41.5762 19.1681V19.5978C41.5762 20.5751 41.0792 21.0469 40.3462 21.0469ZM42.9739 15.3264V21.6956H43.7911V15.3264H42.9739ZM47.5227 21.1227V21.6956H48.3062V15.3264H47.489V17.5674C47.3037 17.2978 46.8993 17.0029 46.2 17.0029C45.1216 17.0029 44.3718 17.7359 44.3718 18.9828V19.8C44.3718 21.0469 45.0037 21.763 46.1663 21.763C46.7392 21.763 47.2531 21.5861 47.5059 21.1227H47.5227ZM47.4974 19.8843C47.4974 20.6004 46.9498 21.0469 46.2842 21.0469C45.6018 21.0469 45.1806 20.5414 45.1806 19.6652V19.1007C45.1806 18.233 45.5934 17.7191 46.2842 17.7191C46.9919 17.7191 47.4974 18.2161 47.4974 18.6963V19.8843ZM50.8565 17.7022C51.5557 17.7022 51.9938 18.1571 51.9938 18.8648V19.0165H49.6854V18.8985C49.6854 18.1908 50.1741 17.7022 50.8565 17.7022ZM52.3308 20.6425C51.9349 20.8952 51.5305 21.0553 50.9323 21.0553C50.1993 21.0553 49.6854 20.5835 49.6854 19.7158V19.6821H52.7858V19.067C52.7858 17.7528 52.036 17.0029 50.8565 17.0029C49.7191 17.0029 48.8766 17.7191 48.8766 19.1176V19.6399C48.8766 21.1311 49.7612 21.763 50.8986 21.763C51.7327 21.763 52.2719 21.5355 52.6763 21.2575L52.3308 20.6425ZM56.0434 17.0956C55.858 17.0366 55.6558 17.0029 55.4452 17.0029C54.7712 17.0029 54.3584 17.3062 54.0888 17.8202H54.0804V17.0872H53.2884V21.6956H54.1057V19.0081C54.1057 18.2835 54.628 17.778 55.2346 17.778C55.4536 17.778 55.639 17.8202 55.7991 17.8876L56.0434 17.0956ZM57.7283 21.0553C57.1723 21.0553 56.7005 20.8447 56.2876 20.5667L55.9085 21.207C56.3466 21.544 56.9953 21.763 57.762 21.763C58.832 21.763 59.5144 21.1985 59.5144 20.474V20.3645C59.5144 19.5136 58.9836 19.1766 57.8631 18.9659C57.147 18.8311 56.869 18.6963 56.869 18.3341V18.2582C56.869 17.9381 57.147 17.7022 57.8294 17.7022C58.2928 17.7022 58.7393 17.8454 59.0426 18.0729L59.4049 17.4579C58.9499 17.1377 58.3939 17.0029 57.7704 17.0029C56.5741 17.0029 56.0517 17.6095 56.0517 18.2498V18.3509C56.0517 19.1597 56.6162 19.4883 57.6356 19.6989C58.5034 19.8758 58.6887 20.0022 58.6887 20.3897V20.4571C58.6887 20.8278 58.3349 21.0553 57.7283 21.0553ZM67.9144 18.6711C67.9144 17.6095 67.3331 17.0029 66.3895 17.0029C65.665 17.0029 65.2521 17.3231 64.9573 17.7696C64.7214 17.281 64.2496 17.0029 63.6346 17.0029C62.9943 17.0029 62.5814 17.3062 62.4045 17.7106H62.3961V17.0872H61.5873V21.6956H62.4045V18.7806C62.4045 18.056 62.969 17.7443 63.4745 17.7443C64.0558 17.7443 64.3422 18.1319 64.3422 18.9322V21.6956H65.1595V18.8227C65.1595 18.0729 65.7155 17.7443 66.2294 17.7443C66.8107 17.7443 67.0972 18.1319 67.0972 18.9322V21.6956H67.9144V18.6711ZM70.4032 17.7022C71.1025 17.7022 71.5406 18.1571 71.5406 18.8648V19.0165H69.2322V18.8985C69.2322 18.1908 69.7208 17.7022 70.4032 17.7022ZM71.8776 20.6425C71.4816 20.8952 71.0772 21.0553 70.4791 21.0553C69.7461 21.0553 69.2322 20.5835 69.2322 19.7158V19.6821H72.3326V19.067C72.3326 17.7528 71.5827 17.0029 70.4032 17.0029C69.2659 17.0029 68.4234 17.7191 68.4234 19.1176V19.6399C68.4234 21.1311 69.308 21.763 70.4454 21.763C71.2794 21.763 71.8186 21.5355 72.223 21.2575L71.8776 20.6425ZM74.5792 17.7022C75.2784 17.7022 75.7165 18.1571 75.7165 18.8648V19.0165H73.4081V18.8985C73.4081 18.1908 73.8968 17.7022 74.5792 17.7022ZM76.0535 20.6425C75.6576 20.8952 75.2532 21.0553 74.655 21.0553C73.922 21.0553 73.4081 20.5835 73.4081 19.7158V19.6821H76.5085V19.067C76.5085 17.7528 75.7587 17.0029 74.5792 17.0029C73.4418 17.0029 72.5993 17.7191 72.5993 19.1176V19.6399C72.5993 21.1311 73.4839 21.763 74.6213 21.763C75.4554 21.763 75.9946 21.5355 76.399 21.2575L76.0535 20.6425ZM77.2976 20.4066C77.2976 21.3333 77.702 21.763 78.5782 21.763C78.9067 21.763 79.2522 21.6872 79.4375 21.6114L79.3111 20.9542C79.1005 21.03 78.9067 21.0637 78.7045 21.0637C78.3591 21.0637 78.1148 20.9711 78.1148 20.4066V17.7865H79.328V17.0872H78.1148V15.9245H77.2976V17.0872H76.5393V17.7865H77.2976V20.4066ZM79.8054 17.0872V21.6956H80.6227V17.0872H79.8054ZM79.7802 15.4359V16.3289H80.6479V15.4359H79.7802ZM85.2546 18.6458C85.2546 17.5337 84.53 17.0029 83.637 17.0029C83.0051 17.0029 82.5333 17.2388 82.2553 17.6685H82.2469V17.0872H81.4549V21.6956H82.2722V18.8396C82.2722 18.115 82.8788 17.7275 83.4348 17.7275C84.1172 17.7275 84.4374 18.056 84.4374 18.8311V21.6956H85.2546V18.6458ZM89.6998 17.0872H88.8826V17.5674C88.6973 17.2978 88.2929 17.0029 87.5936 17.0029C86.5152 17.0029 85.7654 17.7359 85.7654 18.9828V19.7158C85.7654 20.9626 86.3973 21.6788 87.5599 21.6788C88.116 21.6788 88.6215 21.5103 88.8826 21.0722V21.6366C88.8826 22.4539 88.4614 22.833 87.6694 22.833C87.2145 22.833 86.7848 22.6729 86.4815 22.4454L86.1108 23.0857C86.49 23.3806 87.0207 23.5744 87.6442 23.5744C89.0006 23.5744 89.6998 22.9256 89.6998 21.6366V17.0872ZM88.8911 19.8C88.8911 20.5161 88.3434 20.9626 87.6779 20.9626C86.9954 20.9626 86.5742 20.4571 86.5742 19.581V19.1007C86.5742 18.233 86.987 17.7191 87.6779 17.7191C88.3856 17.7191 88.8911 18.2161 88.8911 18.6963V19.8Z" fill="#222222"/>
<rect x="2.21125" y="67.7601" width="98.5714" height="34.5384" rx="17.2692" fill="white" stroke="#333333" stroke-width="0.421245"/>
<path d="M41.2911 88.6683H43.7091C45.0234 88.6683 45.6552 88.0617 45.6552 87.0675V86.8569C45.6552 86.0144 45.1413 85.5763 44.3999 85.4668C45.1245 85.2899 45.3772 84.7844 45.3772 84.2536V84.0767C45.3772 83.0826 44.7369 82.5939 43.4479 82.5939H41.2911V88.6683ZM42.1252 85.8375H43.212C44.4252 85.8375 44.7959 86.1239 44.7959 86.8653V87.0507C44.7959 87.7668 44.3494 87.9437 43.3974 87.9437H42.1252V85.8375ZM43.1446 83.31C44.0966 83.31 44.5263 83.3774 44.5263 84.0935V84.2452C44.5263 85.0034 44.0461 85.1551 43.2036 85.1551H42.1252V83.31H43.1446ZM47.9196 83.9756C46.6558 83.9756 45.8639 84.7338 45.8639 86.0734V86.6379C45.8639 87.969 46.6558 88.7357 47.9196 88.7357C49.1833 88.7357 49.9752 87.969 49.9752 86.6379V86.0734C49.9752 84.7423 49.1833 83.9756 47.9196 83.9756ZM47.9196 88.0195C47.1866 88.0195 46.6895 87.5478 46.6895 86.5705V86.1408C46.6895 85.1635 47.1866 84.6917 47.9196 84.6917C48.6525 84.6917 49.1496 85.1635 49.1496 86.1408V86.5705C49.1496 87.5478 48.6525 88.0195 47.9196 88.0195ZM51.7867 88.7357C52.1911 88.7357 52.4607 88.6598 52.705 88.525C52.8819 88.4239 53.0504 88.2807 53.1346 88.1122H53.1431V88.6683H53.9266V85.4415C53.9266 84.5148 53.202 83.9756 52.1742 83.9756C51.4328 83.9756 50.8852 84.2452 50.4387 84.5569L50.8431 85.1635C51.2727 84.8855 51.6266 84.7001 52.1658 84.7001C52.8398 84.7001 53.1178 84.995 53.1178 85.61V85.8796H51.9467C50.7672 85.8796 50.2702 86.4272 50.2702 87.2108V87.4382C50.2702 88.247 50.8599 88.7357 51.7867 88.7357ZM53.1178 87.0254C53.1178 87.3708 53.0251 87.573 52.8061 87.7415C52.5618 87.9353 52.2753 88.028 51.8709 88.028C51.4328 88.028 51.0705 87.8342 51.0705 87.3877V87.2697C51.0705 86.8316 51.3233 86.5705 51.9636 86.5705H53.1178V87.0254ZM57.4534 84.0683C57.268 84.0093 57.0659 83.9756 56.8552 83.9756C56.1812 83.9756 55.7684 84.2789 55.4988 84.7928H55.4904V84.0598H54.6985V88.6683H55.5157V85.9807C55.5157 85.2562 56.038 84.7507 56.6446 84.7507C56.8637 84.7507 57.049 84.7928 57.2091 84.8602L57.4534 84.0683ZM60.6295 88.0954V88.6683H61.413V82.299H60.5958V84.5401C60.4105 84.2705 60.0061 83.9756 59.3068 83.9756C58.2284 83.9756 57.4786 84.7086 57.4786 85.9554V86.7727C57.4786 88.0195 58.1105 88.7357 59.2731 88.7357C59.846 88.7357 60.3599 88.5587 60.6127 88.0954H60.6295ZM60.6042 86.8569C60.6042 87.573 60.0566 88.0195 59.3911 88.0195C58.7086 88.0195 58.2874 87.5141 58.2874 86.6379V86.0734C58.2874 85.2056 58.7002 84.6917 59.3911 84.6917C60.0988 84.6917 60.6042 85.1888 60.6042 85.669V86.8569Z" fill="#222222"/>
<rect x="1.78938" y="134.309" width="98.5714" height="34.5384" rx="17.2692" fill="white" stroke="#333333" stroke-width="0.421245"/>
<path d="M30.4765 154.206H31.1842L32.6333 150.836C32.7428 150.583 32.8018 150.432 32.9198 149.994V155.217H33.7201V149.143H32.4985L30.8557 153.119L29.1707 149.143H27.9406V155.217H28.7326V149.994C28.8674 150.406 28.9432 150.583 29.0443 150.836L30.4765 154.206ZM35.8399 155.284C36.2443 155.284 36.5139 155.209 36.7582 155.074C36.9352 154.973 37.1037 154.83 37.1879 154.661H37.1963V155.217H37.9798V151.99C37.9798 151.064 37.2553 150.524 36.2275 150.524C35.4861 150.524 34.9385 150.794 34.4919 151.106L34.8963 151.712C35.326 151.434 35.6798 151.249 36.219 151.249C36.893 151.249 37.1711 151.544 37.1711 152.159V152.428H36C34.8205 152.428 34.3234 152.976 34.3234 153.76V153.987C34.3234 154.796 34.9132 155.284 35.8399 155.284ZM37.1711 153.574C37.1711 153.92 37.0784 154.122 36.8593 154.29C36.615 154.484 36.3286 154.577 35.9242 154.577C35.4861 154.577 35.1238 154.383 35.1238 153.937V153.819C35.1238 153.38 35.3765 153.119 36.0168 153.119H37.1711V153.574ZM42.5513 152.167C42.5513 151.055 41.8268 150.524 40.9338 150.524C40.3019 150.524 39.8301 150.76 39.5521 151.19H39.5437V150.609H38.7517V155.217H39.5689V152.361C39.5689 151.637 40.1755 151.249 40.7316 151.249C41.414 151.249 41.7341 151.578 41.7341 152.353V155.217H42.5513V152.167ZM44.5702 155.284C44.9746 155.284 45.2442 155.209 45.4885 155.074C45.6655 154.973 45.834 154.83 45.9182 154.661H45.9266V155.217H46.7102V151.99C46.7102 151.064 45.9856 150.524 44.9578 150.524C44.2164 150.524 43.6688 150.794 43.2222 151.106L43.6266 151.712C44.0563 151.434 44.4102 151.249 44.9493 151.249C45.6233 151.249 45.9014 151.544 45.9014 152.159V152.428H44.7303C43.5508 152.428 43.0537 152.976 43.0537 153.76V153.987C43.0537 154.796 43.6435 155.284 44.5702 155.284ZM45.9014 153.574C45.9014 153.92 45.8087 154.122 45.5896 154.29C45.3453 154.484 45.0589 154.577 44.6545 154.577C44.2164 154.577 43.8541 154.383 43.8541 153.937V153.819C43.8541 153.38 44.1069 153.119 44.7472 153.119H45.9014V153.574ZM51.189 150.609H50.3718V151.089C50.1864 150.819 49.782 150.524 49.0828 150.524C48.0044 150.524 47.2545 151.257 47.2545 152.504V153.237C47.2545 154.484 47.8864 155.2 49.0491 155.2C49.6051 155.2 50.1106 155.032 50.3718 154.594V155.158C50.3718 155.975 49.9505 156.354 49.1586 156.354C48.7036 156.354 48.274 156.194 47.9707 155.967L47.6 156.607C47.9791 156.902 48.5099 157.096 49.1333 157.096C50.4897 157.096 51.189 156.447 51.189 155.158V150.609ZM50.3802 153.321C50.3802 154.038 49.8326 154.484 49.167 154.484C48.4846 154.484 48.0633 153.979 48.0633 153.102V152.622C48.0633 151.754 48.4762 151.241 49.167 151.241C49.8747 151.241 50.3802 151.738 50.3802 152.218V153.321ZM53.7392 151.224C54.4385 151.224 54.8766 151.679 54.8766 152.386V152.538H52.5682V152.42C52.5682 151.712 53.0568 151.224 53.7392 151.224ZM55.2136 154.164C54.8176 154.417 54.4132 154.577 53.8151 154.577C53.0821 154.577 52.5682 154.105 52.5682 153.237V153.204H55.6685V152.589C55.6685 151.274 54.9187 150.524 53.7392 150.524C52.6019 150.524 51.7594 151.241 51.7594 152.639V153.161C51.7594 154.653 52.644 155.284 53.7814 155.284C54.6154 155.284 55.1546 155.057 55.559 154.779L55.2136 154.164ZM62.4983 152.193C62.4983 151.131 61.917 150.524 60.9734 150.524C60.2489 150.524 59.836 150.845 59.5412 151.291C59.3053 150.802 58.8335 150.524 58.2184 150.524C57.5782 150.524 57.1653 150.828 56.9884 151.232H56.98V150.609H56.1712V155.217H56.9884V152.302C56.9884 151.578 57.5529 151.266 58.0584 151.266C58.6397 151.266 58.9261 151.653 58.9261 152.454V155.217H59.7434V152.344C59.7434 151.594 60.2994 151.266 60.8133 151.266C61.3946 151.266 61.6811 151.653 61.6811 152.454V155.217H62.4983V152.193ZM64.9871 151.224C65.6864 151.224 66.1245 151.679 66.1245 152.386V152.538H63.8161V152.42C63.8161 151.712 64.3047 151.224 64.9871 151.224ZM66.4615 154.164C66.0655 154.417 65.6611 154.577 65.063 154.577C64.33 154.577 63.8161 154.105 63.8161 153.237V153.204H66.9164V152.589C66.9164 151.274 66.1666 150.524 64.9871 150.524C63.8498 150.524 63.0073 151.241 63.0073 152.639V153.161C63.0073 154.653 63.8919 155.284 65.0293 155.284C65.8633 155.284 66.4025 155.057 66.8069 154.779L66.4615 154.164ZM71.2187 152.167C71.2187 151.055 70.4942 150.524 69.6012 150.524C68.9693 150.524 68.4975 150.76 68.2195 151.19H68.211V150.609H67.4191V155.217H68.2363V152.361C68.2363 151.637 68.8429 151.249 69.399 151.249C70.0814 151.249 70.4015 151.578 70.4015 152.353V155.217H71.2187V152.167ZM72.2435 153.928C72.2435 154.855 72.6479 155.284 73.5241 155.284C73.8526 155.284 74.1981 155.209 74.3834 155.133L74.257 154.476C74.0464 154.552 73.8526 154.585 73.6504 154.585C73.305 154.585 73.0607 154.493 73.0607 153.928V151.308H74.2739V150.609H73.0607V149.446H72.2435V150.609H71.4852V151.308H72.2435V153.928Z" fill="#222222"/>
<rect x="131.533" y="100.192" width="99.4139" height="35.3809" rx="17.6904" fill="white" stroke="#33B9A5" stroke-width="1.26374"/>
<path d="M154.035 115.447V121.522H157.876V120.806H154.869V118.767H157.64V118.051H154.869V116.164H157.817V115.447H154.035ZM160.502 120.856C159.98 120.856 159.238 120.561 158.783 120.216L158.362 120.898C158.868 121.303 159.617 121.614 160.477 121.614C161.724 121.614 162.642 121.042 162.642 119.929V119.778C162.642 118.935 162.179 118.405 160.679 118.068C159.778 117.865 159.28 117.663 159.28 117.107V116.972C159.28 116.492 159.778 116.105 160.536 116.105C161.092 116.105 161.538 116.231 161.985 116.534L162.381 115.886C161.867 115.54 161.269 115.355 160.527 115.355C159.129 115.355 158.446 116.155 158.446 116.981V117.132C158.446 118.228 159.323 118.581 160.468 118.826C161.454 119.036 161.799 119.306 161.799 119.837V119.972C161.799 120.452 161.361 120.856 160.502 120.856ZM167.724 118.186H165.542V118.902H166.89V120.612C166.57 120.772 166.14 120.856 165.685 120.856C164.598 120.856 163.899 120.241 163.899 118.834V118.135C163.899 116.728 164.539 116.113 165.592 116.113C166.165 116.113 166.646 116.248 167.176 116.669L167.606 115.995C167.042 115.549 166.376 115.355 165.592 115.355C164.051 115.355 163.065 116.256 163.065 118.025V118.944C163.065 120.73 164.051 121.614 165.66 121.614C166.418 121.614 167.193 121.438 167.724 121.067V118.186ZM173.941 120.199C173.435 120.696 172.829 120.839 172.247 120.839C171.329 120.839 170.655 120.224 170.655 118.834V118.135C170.655 116.745 171.329 116.13 172.247 116.13C172.795 116.13 173.275 116.239 173.823 116.686L174.252 116.003C173.688 115.557 173.081 115.355 172.247 115.355C170.807 115.355 169.812 116.256 169.812 118.025V118.944C169.812 120.73 170.798 121.614 172.247 121.614C173.065 121.614 173.789 121.421 174.396 120.839L173.941 120.199ZM176.618 116.829C175.354 116.829 174.562 117.587 174.562 118.927V119.491C174.562 120.823 175.354 121.589 176.618 121.589C177.882 121.589 178.674 120.823 178.674 119.491V118.927C178.674 117.596 177.882 116.829 176.618 116.829ZM176.618 120.873C175.885 120.873 175.388 120.401 175.388 119.424V118.994C175.388 118.017 175.885 117.545 176.618 117.545C177.351 117.545 177.848 118.017 177.848 118.994V119.424C177.848 120.401 177.351 120.873 176.618 120.873ZM185.573 118.497C185.573 117.436 184.991 116.829 184.048 116.829C183.323 116.829 182.911 117.149 182.616 117.596C182.38 117.107 181.908 116.829 181.293 116.829C180.653 116.829 180.24 117.132 180.063 117.537H180.054V116.913H179.246V121.522H180.063V118.607C180.063 117.882 180.627 117.57 181.133 117.57C181.714 117.57 182.001 117.958 182.001 118.758V121.522H182.818V118.649C182.818 117.899 183.374 117.57 183.888 117.57C184.469 117.57 184.756 117.958 184.756 118.758V121.522H185.573V118.497ZM192.645 118.497C192.645 117.436 192.063 116.829 191.12 116.829C190.395 116.829 189.983 117.149 189.688 117.596C189.452 117.107 188.98 116.829 188.365 116.829C187.725 116.829 187.312 117.132 187.135 117.537H187.126V116.913H186.318V121.522H187.135V118.607C187.135 117.882 187.699 117.57 188.205 117.57C188.786 117.57 189.073 117.958 189.073 118.758V121.522H189.89V118.649C189.89 117.899 190.446 117.57 190.96 117.57C191.541 117.57 191.828 117.958 191.828 118.758V121.522H192.645V118.497ZM193.415 116.913V121.522H194.232V116.913H193.415ZM193.39 115.262V116.155H194.257V115.262H193.39ZM195.351 120.233C195.351 121.16 195.755 121.589 196.631 121.589C196.96 121.589 197.305 121.513 197.491 121.438L197.364 120.78C197.154 120.856 196.96 120.89 196.758 120.89C196.412 120.89 196.168 120.797 196.168 120.233V117.613H197.381V116.913H196.168V115.751H195.351V116.913H194.593V117.613H195.351V120.233ZM198.12 120.233C198.12 121.16 198.524 121.589 199.401 121.589C199.729 121.589 200.075 121.513 200.26 121.438L200.133 120.78C199.923 120.856 199.729 120.89 199.527 120.89C199.181 120.89 198.937 120.797 198.937 120.233V117.613H200.15V116.913H198.937V115.751H198.12V116.913H197.362V117.613H198.12V120.233ZM202.346 117.528C203.046 117.528 203.484 117.983 203.484 118.691V118.843H201.175V118.725C201.175 118.017 201.664 117.528 202.346 117.528ZM203.821 120.469C203.425 120.721 203.02 120.881 202.422 120.881C201.689 120.881 201.175 120.41 201.175 119.542V119.508H204.276V118.893C204.276 117.579 203.526 116.829 202.346 116.829C201.209 116.829 200.367 117.545 200.367 118.944V119.466C200.367 120.957 201.251 121.589 202.389 121.589C203.223 121.589 203.762 121.362 204.166 121.084L203.821 120.469ZM206.522 117.528C207.222 117.528 207.66 117.983 207.66 118.691V118.843H205.351V118.725C205.351 118.017 205.84 117.528 206.522 117.528ZM207.997 120.469C207.601 120.721 207.196 120.881 206.598 120.881C205.865 120.881 205.351 120.41 205.351 119.542V119.508H208.452V118.893C208.452 117.579 207.702 116.829 206.522 116.829C205.385 116.829 204.543 117.545 204.543 118.944V119.466C204.543 120.957 205.427 121.589 206.565 121.589C207.399 121.589 207.938 121.362 208.342 121.084L207.997 120.469Z" fill="#222222"/>
<rect x="1.36813" y="200.858" width="99.4139" height="35.3809" rx="17.6904" fill="white" stroke="#33B9A5" stroke-width="1.26374"/>
<path d="M20.168 210.639V216.713H24.0098V215.997H21.0021V213.958H23.7739V213.242H21.0021V211.355H23.9508V210.639H20.168ZM26.6354 216.048C26.1131 216.048 25.3717 215.753 24.9168 215.407L24.4955 216.09C25.001 216.494 25.7508 216.806 26.6102 216.806C27.8571 216.806 28.7754 216.233 28.7754 215.121V214.969C28.7754 214.127 28.312 213.596 26.8124 213.259C25.9109 213.057 25.4138 212.855 25.4138 212.299V212.164C25.4138 211.684 25.9109 211.296 26.6691 211.296C27.2252 211.296 27.6717 211.422 28.1182 211.726L28.5142 211.077C28.0003 210.732 27.4021 210.546 26.6607 210.546C25.2622 210.546 24.5798 211.347 24.5798 212.172V212.324C24.5798 213.419 25.456 213.773 26.6017 214.017C27.5875 214.228 27.9329 214.497 27.9329 215.028V215.163C27.9329 215.643 27.4948 216.048 26.6354 216.048ZM33.8574 213.377H31.6753V214.093H33.0233V215.803C32.7032 215.963 32.2735 216.048 31.8185 216.048C30.7317 216.048 30.0325 215.433 30.0325 214.026V213.326C30.0325 211.919 30.6728 211.304 31.7259 211.304C32.2988 211.304 32.779 211.439 33.3097 211.86L33.7394 211.186C33.175 210.74 32.5094 210.546 31.7259 210.546C30.1841 210.546 29.1984 211.448 29.1984 213.217V214.135C29.1984 215.921 30.1841 216.806 31.7933 216.806C32.5515 216.806 33.3266 216.629 33.8574 216.258V213.377ZM38.6671 215.702H39.3748L40.8239 212.332C40.9334 212.079 40.9924 211.928 41.1104 211.49V216.713H41.9107V210.639H40.6891L39.0463 214.615L37.3613 210.639H36.1312V216.713H36.9232V211.49C37.058 211.903 37.1338 212.079 37.2349 212.332L38.6671 215.702ZM44.0305 216.781C44.4349 216.781 44.7045 216.705 44.9488 216.57C45.1258 216.469 45.2942 216.326 45.3785 216.157H45.3869V216.713H46.1704V213.486C46.1704 212.56 45.4459 212.021 44.4181 212.021C43.6767 212.021 43.129 212.29 42.6825 212.602L43.0869 213.208C43.5166 212.93 43.8704 212.745 44.4096 212.745C45.0836 212.745 45.3616 213.04 45.3616 213.655V213.925H44.1906C43.0111 213.925 42.514 214.472 42.514 215.256V215.483C42.514 216.292 43.1038 216.781 44.0305 216.781ZM45.3616 215.07C45.3616 215.416 45.269 215.618 45.0499 215.786C44.8056 215.98 44.5192 216.073 44.1148 216.073C43.6767 216.073 43.3144 215.879 43.3144 215.433V215.315C43.3144 214.877 43.5671 214.615 44.2074 214.615H45.3616V215.07ZM50.7419 213.663C50.7419 212.551 50.0174 212.021 49.1244 212.021C48.4925 212.021 48.0207 212.256 47.7427 212.686H47.7342V212.105H46.9423V216.713H47.7595V213.857C47.7595 213.133 48.3661 212.745 48.9222 212.745C49.6046 212.745 49.9247 213.074 49.9247 213.849V216.713H50.7419V213.663ZM52.7608 216.781C53.1652 216.781 53.4348 216.705 53.6791 216.57C53.8561 216.469 54.0246 216.326 54.1088 216.157H54.1172V216.713H54.9008V213.486C54.9008 212.56 54.1762 212.021 53.1484 212.021C52.407 212.021 51.8594 212.29 51.4128 212.602L51.8172 213.208C52.2469 212.93 52.6008 212.745 53.1399 212.745C53.8139 212.745 54.092 213.04 54.092 213.655V213.925H52.9209C51.7414 213.925 51.2443 214.472 51.2443 215.256V215.483C51.2443 216.292 51.8341 216.781 52.7608 216.781ZM54.092 215.07C54.092 215.416 53.9993 215.618 53.7802 215.786C53.5359 215.98 53.2495 216.073 52.8451 216.073C52.407 216.073 52.0447 215.879 52.0447 215.433V215.315C52.0447 214.877 52.2975 214.615 52.9377 214.615H54.092V215.07ZM59.3796 212.105H58.5624V212.585C58.377 212.315 57.9726 212.021 57.2733 212.021C56.195 212.021 55.4451 212.753 55.4451 214V214.733C55.4451 215.98 56.077 216.696 57.2396 216.696C57.7957 216.696 58.3012 216.528 58.5624 216.09V216.654C58.5624 217.471 58.1411 217.851 57.3492 217.851C56.8942 217.851 56.4646 217.69 56.1613 217.463L55.7906 218.103C56.1697 218.398 56.7005 218.592 57.3239 218.592C58.6803 218.592 59.3796 217.943 59.3796 216.654V212.105ZM58.5708 214.818C58.5708 215.534 58.0232 215.98 57.3576 215.98C56.6752 215.98 56.2539 215.475 56.2539 214.599V214.118C56.2539 213.251 56.6668 212.737 57.3576 212.737C58.0653 212.737 58.5708 213.234 58.5708 213.714V214.818ZM61.9298 212.72C62.6291 212.72 63.0672 213.175 63.0672 213.882V214.034H60.7588V213.916C60.7588 213.208 61.2474 212.72 61.9298 212.72ZM63.4042 215.66C63.0082 215.913 62.6038 216.073 62.0056 216.073C61.2727 216.073 60.7588 215.601 60.7588 214.733V214.7H63.8591V214.085C63.8591 212.77 63.1093 212.021 61.9298 212.021C60.7925 212.021 59.95 212.737 59.95 214.135V214.658C59.95 216.149 60.8346 216.781 61.9719 216.781C62.806 216.781 63.3452 216.553 63.7496 216.275L63.4042 215.66ZM70.6889 213.689C70.6889 212.627 70.1076 212.021 69.164 212.021C68.4394 212.021 68.0266 212.341 67.7318 212.787C67.4959 212.299 67.0241 212.021 66.409 212.021C65.7687 212.021 65.3559 212.324 65.179 212.728H65.1706V212.105H64.3618V216.713H65.179V213.798C65.179 213.074 65.7435 212.762 66.249 212.762C66.8303 212.762 67.1167 213.149 67.1167 213.95V216.713H67.934V213.84C67.934 213.09 68.49 212.762 69.0039 212.762C69.5852 212.762 69.8717 213.149 69.8717 213.95V216.713H70.6889V213.689ZM73.1777 212.72C73.877 212.72 74.3151 213.175 74.3151 213.882V214.034H72.0067V213.916C72.0067 213.208 72.4953 212.72 73.1777 212.72ZM74.6521 215.66C74.2561 215.913 73.8517 216.073 73.2536 216.073C72.5206 216.073 72.0067 215.601 72.0067 214.733V214.7H75.107V214.085C75.107 212.77 74.3572 212.021 73.1777 212.021C72.0404 212.021 71.1979 212.737 71.1979 214.135V214.658C71.1979 216.149 72.0825 216.781 73.2199 216.781C74.0539 216.781 74.5931 216.553 74.9975 216.275L74.6521 215.66ZM79.4093 213.663C79.4093 212.551 78.6848 212.021 77.7918 212.021C77.1599 212.021 76.6881 212.256 76.4101 212.686H76.4016V212.105H75.6097V216.713H76.4269V213.857C76.4269 213.133 77.0335 212.745 77.5896 212.745C78.272 212.745 78.5921 213.074 78.5921 213.849V216.713H79.4093V213.663ZM80.4341 215.424C80.4341 216.351 80.8385 216.781 81.7147 216.781C82.0432 216.781 82.3887 216.705 82.574 216.629L82.4476 215.972C82.237 216.048 82.0432 216.081 81.841 216.081C81.4956 216.081 81.2513 215.989 81.2513 215.424V212.804H82.4645V212.105H81.2513V210.942H80.4341V212.105H79.6758V212.804H80.4341V215.424ZM48.7486 225.39C48.2431 225.888 47.6365 226.031 47.0552 226.031C46.1369 226.031 45.4629 225.416 45.4629 224.026V223.326C45.4629 221.936 46.1369 221.321 47.0552 221.321C47.6028 221.321 48.0831 221.431 48.6307 221.877L49.0603 221.195C48.4959 220.748 47.8893 220.546 47.0552 220.546C45.6146 220.546 44.6204 221.448 44.6204 223.217V224.135C44.6204 225.921 45.6061 226.806 47.0552 226.806C47.8724 226.806 48.597 226.612 49.2036 226.031L48.7486 225.39ZM49.7222 220.639V226.713H50.5562V224.101H53.3027V223.385H50.5562V221.355H53.4797V220.639H49.7222ZM56.1365 226.713V221.355H57.99V220.639H53.449V221.355H55.3025V226.713H56.1365Z" fill="#222222"/>
<rect x="2" y="268.461" width="98.1502" height="34.1172" rx="17.0586" fill="#4A89DB"/>
<path d="M28.9947 282.61V288.684H32.8365V287.968H29.8288V285.929H32.6006V285.213H29.8288V283.326H32.7775V282.61H28.9947ZM37.2904 285.634C37.2904 284.522 36.5658 283.991 35.6728 283.991C35.0409 283.991 34.5691 284.227 34.2911 284.657H34.2827V284.075H33.4908V288.684H34.308V285.828C34.308 285.103 34.9146 284.716 35.4706 284.716C36.153 284.716 36.4732 285.044 36.4732 285.819V288.684H37.2904V285.634ZM39.5536 287.917L38.3404 284.075H37.4558L39.0313 288.684H40.0759L41.6345 284.075H40.7752L39.5704 287.917H39.5536ZM41.8926 284.075V288.684H42.7098V284.075H41.8926ZM41.8673 282.424V283.317H42.7351V282.424H41.8673ZM46.297 284.084C46.1117 284.025 45.9095 283.991 45.6988 283.991C45.0248 283.991 44.612 284.295 44.3424 284.808H44.334V284.075H43.5421V288.684H44.3593V285.996C44.3593 285.272 44.8816 284.766 45.4882 284.766C45.7073 284.766 45.8926 284.808 46.0527 284.876L46.297 284.084ZM48.3695 283.991C47.1057 283.991 46.3138 284.749 46.3138 286.089V286.653C46.3138 287.985 47.1057 288.751 48.3695 288.751C49.6332 288.751 50.4252 287.985 50.4252 286.653V286.089C50.4252 284.758 49.6332 283.991 48.3695 283.991ZM48.3695 288.035C47.6365 288.035 47.1394 287.563 47.1394 286.586V286.156C47.1394 285.179 47.6365 284.707 48.3695 284.707C49.1024 284.707 49.5995 285.179 49.5995 286.156V286.586C49.5995 287.563 49.1024 288.035 48.3695 288.035ZM54.7968 285.634C54.7968 284.522 54.0722 283.991 53.1792 283.991C52.5473 283.991 52.0755 284.227 51.7975 284.657H51.7891V284.075H50.9971V288.684H51.8143V285.828C51.8143 285.103 52.4209 284.716 52.977 284.716C53.6594 284.716 53.9795 285.044 53.9795 285.819V288.684H54.7968V285.634ZM61.8622 285.659C61.8622 284.598 61.2808 283.991 60.3373 283.991C59.6127 283.991 59.1999 284.311 58.905 284.758C58.6691 284.269 58.1973 283.991 57.5823 283.991C56.942 283.991 56.5292 284.295 56.3523 284.699H56.3438V284.075H55.5351V288.684H56.3523V285.769C56.3523 285.044 56.9167 284.733 57.4222 284.733C58.0036 284.733 58.29 285.12 58.29 285.921V288.684H59.1072V285.811C59.1072 285.061 59.6633 284.733 60.1772 284.733C60.7585 284.733 61.0449 285.12 61.0449 285.921V288.684H61.8622V285.659ZM64.351 284.69C65.0503 284.69 65.4884 285.145 65.4884 285.853V286.005H63.1799V285.887C63.1799 285.179 63.6686 284.69 64.351 284.69ZM65.8254 287.631C65.4294 287.884 65.025 288.044 64.4268 288.044C63.6939 288.044 63.1799 287.572 63.1799 286.704V286.67H66.2803V286.055C66.2803 284.741 65.5305 283.991 64.351 283.991C63.2136 283.991 62.3711 284.707 62.3711 286.106V286.628C62.3711 288.119 63.2558 288.751 64.3931 288.751C65.2272 288.751 65.7664 288.524 66.1708 288.246L65.8254 287.631ZM70.5826 285.634C70.5826 284.522 69.8581 283.991 68.965 283.991C68.3332 283.991 67.8614 284.227 67.5833 284.657H67.5749V284.075H66.783V288.684H67.6002V285.828C67.6002 285.103 68.2068 284.716 68.7628 284.716C69.4452 284.716 69.7654 285.044 69.7654 285.819V288.684H70.5826V285.634ZM71.6073 287.395C71.6073 288.322 72.0117 288.751 72.8879 288.751C73.2165 288.751 73.5619 288.675 73.7473 288.6L73.6209 287.942C73.4103 288.018 73.2165 288.052 73.0143 288.052C72.6689 288.052 72.4246 287.959 72.4246 287.395V284.775H73.6378V284.075H72.4246V282.913H71.6073V284.075H70.8491V284.775H71.6073V287.395Z" fill="white"/>
<rect x="125.425" y="268.461" width="98.1502" height="34.1172" rx="17.0586" fill="#4A89DB"/>
<path d="M164.219 288.018C163.697 288.018 162.955 287.723 162.5 287.378L162.079 288.06C162.584 288.465 163.334 288.777 164.194 288.777C165.44 288.777 166.359 288.204 166.359 287.092V286.94C166.359 286.097 165.895 285.567 164.396 285.23C163.494 285.027 162.997 284.825 162.997 284.269V284.134C162.997 283.654 163.494 283.267 164.253 283.267C164.809 283.267 165.255 283.393 165.702 283.696L166.098 283.048C165.584 282.702 164.986 282.517 164.244 282.517C162.846 282.517 162.163 283.317 162.163 284.143V284.295C162.163 285.39 163.039 285.744 164.185 285.988C165.171 286.199 165.516 286.468 165.516 286.999V287.134C165.516 287.614 165.078 288.018 164.219 288.018ZM168.753 283.991C167.49 283.991 166.698 284.749 166.698 286.089V286.653C166.698 287.985 167.49 288.751 168.753 288.751C170.017 288.751 170.809 287.985 170.809 286.653V286.089C170.809 284.758 170.017 283.991 168.753 283.991ZM168.753 288.035C168.02 288.035 167.523 287.563 167.523 286.586V286.156C167.523 285.179 168.02 284.707 168.753 284.707C169.486 284.707 169.983 285.179 169.983 286.156V286.586C169.983 287.563 169.486 288.035 168.753 288.035ZM173.133 283.991C171.929 283.991 171.145 284.741 171.145 286.064V286.645C171.145 287.968 171.87 288.751 173.142 288.751C173.984 288.751 174.523 288.49 174.844 288.221L174.448 287.597C174.119 287.841 173.757 288.018 173.15 288.018C172.544 288.018 171.971 287.631 171.971 286.637V286.055C171.971 285.112 172.527 284.716 173.133 284.716C173.58 284.716 173.908 284.8 174.338 285.112L174.726 284.497C174.346 284.21 173.892 283.991 173.133 283.991ZM175.187 284.075V288.684H176.004V284.075H175.187ZM175.162 282.424V283.317H176.03V282.424H175.162ZM178.581 284.69C179.28 284.69 179.718 285.145 179.718 285.853V286.005H177.41V285.887C177.41 285.179 177.898 284.69 178.581 284.69ZM180.055 287.631C179.659 287.884 179.255 288.044 178.656 288.044C177.923 288.044 177.41 287.572 177.41 286.704V286.67H180.51V286.055C180.51 284.741 179.76 283.991 178.581 283.991C177.443 283.991 176.601 284.707 176.601 286.106V286.628C176.601 288.119 177.485 288.751 178.623 288.751C179.457 288.751 179.996 288.524 180.4 288.246L180.055 287.631ZM181.299 287.395C181.299 288.322 181.703 288.751 182.58 288.751C182.908 288.751 183.254 288.675 183.439 288.6L183.313 287.942C183.102 288.018 182.908 288.052 182.706 288.052C182.361 288.052 182.116 287.959 182.116 287.395V284.775H183.329V284.075H182.116V282.913H181.299V284.075H180.541V284.775H181.299V287.395ZM185.315 287.757L184.093 284.075H183.209L184.885 288.751L184.287 290.327L185.029 290.588L187.421 284.075H186.562L185.349 287.757H185.315Z" fill="white"/>
<rect x="248.85" y="268.883" width="98.1502" height="34.1172" rx="17.0586" fill="#4A89DB"/>
<path d="M282.342 285.77H280.16V286.486H281.508V288.196C281.187 288.356 280.758 288.44 280.303 288.44C279.216 288.44 278.517 287.825 278.517 286.418V285.719C278.517 284.312 279.157 283.697 280.21 283.697C280.783 283.697 281.263 283.832 281.794 284.253L282.224 283.579C281.659 283.133 280.994 282.939 280.21 282.939C278.668 282.939 277.683 283.84 277.683 285.609V286.528C277.683 288.314 278.668 289.198 280.278 289.198C281.036 289.198 281.811 289.022 282.342 288.651V285.77ZM284.801 284.413C283.537 284.413 282.745 285.171 282.745 286.511V287.075C282.745 288.406 283.537 289.173 284.801 289.173C286.065 289.173 286.857 288.406 286.857 287.075V286.511C286.857 285.18 286.065 284.413 284.801 284.413ZM284.801 288.457C284.068 288.457 283.571 287.985 283.571 287.008V286.578C283.571 285.601 284.068 285.129 284.801 285.129C285.534 285.129 286.031 285.601 286.031 286.578V287.008C286.031 287.985 285.534 288.457 284.801 288.457ZM288.912 288.339L287.699 284.497H286.815L288.39 289.106H289.435L290.993 284.497H290.134L288.929 288.339H288.912ZM292.929 285.112C293.628 285.112 294.066 285.567 294.066 286.275V286.427H291.758V286.309C291.758 285.601 292.246 285.112 292.929 285.112ZM294.403 288.053C294.007 288.305 293.603 288.465 293.005 288.465C292.272 288.465 291.758 287.994 291.758 287.126V287.092H294.858V286.477C294.858 285.163 294.108 284.413 292.929 284.413C291.791 284.413 290.949 285.129 290.949 286.528V287.05C290.949 288.541 291.834 289.173 292.971 289.173C293.805 289.173 294.344 288.946 294.749 288.668L294.403 288.053ZM298.116 284.506C297.93 284.447 297.728 284.413 297.518 284.413C296.844 284.413 296.431 284.716 296.161 285.23H296.153V284.497H295.361V289.106H296.178V286.418C296.178 285.694 296.7 285.188 297.307 285.188C297.526 285.188 297.711 285.23 297.871 285.298L298.116 284.506ZM302.168 286.056C302.168 284.944 301.444 284.413 300.55 284.413C299.919 284.413 299.447 284.649 299.169 285.079H299.16V284.497H298.368V289.106H299.186V286.25C299.186 285.525 299.792 285.138 300.348 285.138C301.031 285.138 301.351 285.466 301.351 286.241V289.106H302.168V286.056ZM304.187 289.173C304.591 289.173 304.861 289.097 305.105 288.963C305.282 288.861 305.451 288.718 305.535 288.55H305.543V289.106H306.327V285.879C306.327 284.952 305.602 284.413 304.574 284.413C303.833 284.413 303.285 284.683 302.839 284.994L303.243 285.601C303.673 285.323 304.027 285.138 304.566 285.138C305.24 285.138 305.518 285.433 305.518 286.048V286.317H304.347C303.168 286.317 302.67 286.865 302.67 287.648V287.876C302.67 288.685 303.26 289.173 304.187 289.173ZM305.518 287.463C305.518 287.808 305.425 288.011 305.206 288.179C304.962 288.373 304.676 288.465 304.271 288.465C303.833 288.465 303.471 288.272 303.471 287.825V287.707C303.471 287.269 303.724 287.008 304.364 287.008H305.518V287.463ZM310.898 286.056C310.898 284.944 310.174 284.413 309.281 284.413C308.649 284.413 308.177 284.649 307.899 285.079H307.891V284.497H307.099V289.106H307.916V286.25C307.916 285.525 308.523 285.138 309.079 285.138C309.761 285.138 310.081 285.466 310.081 286.241V289.106H310.898V286.056ZM313.389 284.413C312.184 284.413 311.401 285.163 311.401 286.486V287.067C311.401 288.39 312.125 289.173 313.397 289.173C314.24 289.173 314.779 288.912 315.099 288.642L314.703 288.019C314.375 288.263 314.012 288.44 313.406 288.44C312.799 288.44 312.226 288.053 312.226 287.059V286.477C312.226 285.534 312.782 285.138 313.389 285.138C313.836 285.138 314.164 285.222 314.594 285.534L314.981 284.919C314.602 284.632 314.147 284.413 313.389 284.413ZM317.162 285.112C317.861 285.112 318.299 285.567 318.299 286.275V286.427H315.991V286.309C315.991 285.601 316.479 285.112 317.162 285.112ZM318.636 288.053C318.24 288.305 317.836 288.465 317.237 288.465C316.504 288.465 315.991 287.994 315.991 287.126V287.092H319.091V286.477C319.091 285.163 318.341 284.413 317.162 284.413C316.024 284.413 315.182 285.129 315.182 286.528V287.05C315.182 288.541 316.066 289.173 317.204 289.173C318.038 289.173 318.577 288.946 318.981 288.668L318.636 288.053Z" fill="white"/>
<circle cx="50.864" cy="268.884" r="2.10623" fill="#4A89DB"/>
<circle cx="174.29" cy="268.884" r="2.10623" fill="#4A89DB"/>
<circle cx="297.715" cy="269.305" r="2.10623" fill="#4A89DB"/>
<path fill-rule="evenodd" clip-rule="evenodd" d="M48.7585 236.873C48.8883 237.914 49.776 238.719 50.8517 238.719C51.9275 238.719 52.8152 237.914 52.9449 236.873H48.7585Z" fill="#33B9A5"/>
<path fill-rule="evenodd" clip-rule="evenodd" d="M48.7592 169.059C48.8778 170.008 49.688 170.743 50.6699 170.743C51.6517 170.743 52.462 170.008 52.5806 169.059H48.7592Z" fill="#333333"/>
<path fill-rule="evenodd" clip-rule="evenodd" d="M48.7585 102.51C48.8883 103.55 49.776 104.356 50.8517 104.356C51.9275 104.356 52.8152 103.55 52.9449 102.51H48.7585Z" fill="#333333"/>
<path fill-rule="evenodd" clip-rule="evenodd" d="M48.7588 35.5391C48.8901 36.5853 49.7829 37.3947 50.8648 37.3947C51.9467 37.3947 52.8395 36.5853 52.9708 35.5391H48.7588Z" fill="#333333"/>
<path fill-rule="evenodd" clip-rule="evenodd" d="M131.322 119.727C130.288 119.597 129.488 118.715 129.488 117.646C129.488 116.578 130.288 115.695 131.322 115.566L131.322 119.727Z" fill="#33B9A5"/>
</svg>
