<svg width="347" height="303" viewBox="0 0 347 303" fill="none" xmlns="http://www.w3.org/2000/svg">
<path d="M50.8652 27.5352L50.8652 275.2" stroke="#CCCCCC" stroke-width="0.421245"/>
<path d="M143.118 117.672L50.8654 117.672" stroke="#CCCCCC" stroke-width="0.421245"/>
<path d="M138.484 250.771L285.077 250.771C292.057 250.771 297.715 256.429 297.715 263.409V300.052" stroke="#CCCCCC" stroke-width="0.421245"/>
<path d="M50.8651 250.771L161.653 250.771C168.632 250.771 174.29 256.429 174.29 263.409V300.052" stroke="#CCCCCC" stroke-width="0.421245"/>
<rect x="2.21125" y="0.789377" width="98.5714" height="34.5384" rx="17.2692" fill="white" stroke="#333333" stroke-width="0.421245"/>
<path d="M41.7422 17.896C42.1971 18.1234 42.77 18.4015 43.4693 18.6711L43.7894 17.9971C43.166 17.7612 42.5425 17.4832 42.0033 17.1883C41.3209 16.8176 41.2282 16.4553 41.2198 16.0425H43.4608V15.3348H38.1532V16.0425H40.3858C40.3773 16.4553 40.2762 16.8176 39.5938 17.1883C39.0546 17.4832 38.4312 17.7612 37.8077 17.9971L38.1363 18.6795C38.8356 18.4099 39.4085 18.1319 39.8634 17.9044C40.4195 17.6264 40.7059 17.4158 40.7986 17.222H40.807C40.9081 17.4158 41.1861 17.618 41.7422 17.896ZM41.2198 22.656V19.9938H44.3623V19.2861H37.2348V19.9938H40.3773V22.656H41.2198ZM48.9047 17.896C49.3596 18.1234 49.9325 18.4015 50.6318 18.6711L50.9519 17.9971C50.3285 17.7612 49.705 17.4832 49.1658 17.1883C48.4834 16.8176 48.3907 16.4553 48.3823 16.0425H50.6233V15.3348H45.3156V16.0425H47.5482C47.5398 16.4553 47.4387 16.8176 46.7563 17.1883C46.2171 17.4832 45.5937 17.7612 44.9702 17.9971L45.2988 18.6795C45.9981 18.4099 46.571 18.1319 47.0259 17.9044C47.5819 17.6264 47.8684 17.4158 47.9611 17.222H47.9695C48.0706 17.4158 48.3486 17.618 48.9047 17.896ZM48.3823 22.656V19.9938H51.5248V19.2861H44.3973V19.9938H47.5398V22.656H48.3823ZM55.1236 22.8919C56.6148 22.8919 57.5499 22.2854 57.5499 21.5187V21.2491C57.5499 20.4656 56.6063 19.8758 55.1236 19.8758C53.6408 19.8758 52.6972 20.4571 52.6972 21.2491V21.5187C52.6972 22.2938 53.6408 22.8919 55.1236 22.8919ZM55.1236 17.1293C55.2499 17.3484 55.6206 17.5337 55.9745 17.6685C56.5979 17.9128 57.1877 18.1234 57.8111 18.3088L58.0723 17.6348C57.3899 17.4326 56.8507 17.2473 56.4715 17.0872C55.8734 16.8429 55.5617 16.5817 55.5364 16.2447H57.7858V15.5539H55.5364V14.7872H54.7023V15.5539H52.4613V16.2447H54.7023C54.6686 16.5817 54.3653 16.8597 53.7756 17.0872C53.2111 17.3062 52.7477 17.4663 52.1748 17.6348L52.436 18.3088C53.051 18.1234 53.6492 17.9128 54.2811 17.6685C54.6349 17.5337 54.9888 17.3484 55.1151 17.1293H55.1236ZM55.5448 18.7806V17.9887H54.7023V18.7806H51.5598V19.4883H58.6873V18.7806H55.5448ZM55.1236 20.5582C56.0756 20.5582 56.7243 20.9205 56.7243 21.2996V21.4681C56.7243 21.8473 56.0756 22.2095 55.1236 22.2095C54.1715 22.2095 53.5228 21.8473 53.5228 21.4681V21.2996C53.5228 20.9205 54.1715 20.5582 55.1236 20.5582ZM64.0047 20.3476C63.3139 20.415 62.6736 20.4656 61.8732 20.4908V19.7326C62.7747 19.5894 63.297 19.0333 63.297 18.4436V18.1234C63.297 17.441 62.5978 16.8007 61.4099 16.8007C60.2219 16.8007 59.5227 17.441 59.5227 18.1234V18.4436C59.5227 19.0586 60.0787 19.6315 61.0476 19.7495V20.5161C60.4494 20.533 59.7586 20.533 58.9161 20.533V21.2407C61.5784 21.2407 62.6652 21.1901 64.0721 21.0553L64.0047 20.3476ZM65.2853 22.656V14.8883H64.4597V22.656H65.2853ZM63.6172 15.7645H61.8142V14.8293H60.9886V15.7645H59.1267V16.4806H63.6172V15.7645ZM61.4099 19.0839C60.7106 19.0839 60.3315 18.73 60.3315 18.3762V18.1908C60.3315 17.837 60.7022 17.4832 61.4099 17.4832C62.1091 17.4832 62.4882 17.837 62.4882 18.1908V18.3762C62.4882 18.73 62.1175 19.0839 61.4099 19.0839Z" fill="#222222"/>
<rect x="2.21125" y="67.7601" width="98.5714" height="34.5384" rx="17.2692" fill="white" stroke="#333333" stroke-width="0.421245"/>
<path d="M47.0437 89.6287V81.8609H46.2097V89.6287H47.0437ZM42.9577 82.3833C41.8203 82.3833 40.9946 83.15 40.9946 84.6412V85.5174C40.9946 87.0001 41.8203 87.7668 42.9577 87.7668C44.095 87.7668 44.9207 87.0001 44.9207 85.5174V84.6412C44.9207 83.1584 44.095 82.3833 42.9577 82.3833ZM42.9577 87.017C42.3511 87.017 41.795 86.5873 41.795 85.3994V84.7591C41.795 83.5712 42.3511 83.1415 42.9577 83.1415C43.5558 83.1415 44.1203 83.5712 44.1203 84.7591V85.3994C44.1203 86.5873 43.5642 87.017 42.9577 87.017ZM55.0403 84.6664H53.8439V81.8609H53.0099V89.6287H53.8439V85.391H55.0403V84.6664ZM50.078 85.728C50.1454 85.8965 50.3476 86.1324 50.5835 86.3851C50.9037 86.7305 51.2828 87.1097 51.8641 87.6489L52.4033 87.076C51.8978 86.6294 51.5271 86.2756 51.1648 85.8796C50.6509 85.3067 50.4908 84.9613 50.4908 84.2957V82.4254H49.6483V84.2957C49.6483 84.8939 49.5135 85.273 48.9996 85.8543C48.6205 86.2756 48.1824 86.7053 47.6685 87.1602L48.2161 87.7247C48.789 87.2023 49.2355 86.7558 49.5809 86.3767C49.8505 86.0818 49.9938 85.9133 50.0696 85.728H50.078ZM60.2145 87.3203C59.5237 87.3877 58.8834 87.4382 58.083 87.4635V86.7053C58.9845 86.562 59.5068 86.006 59.5068 85.4163V85.0961C59.5068 84.4137 58.8075 83.7734 57.6196 83.7734C56.4317 83.7734 55.7324 84.4137 55.7324 85.0961V85.4163C55.7324 86.0313 56.2885 86.6042 57.2574 86.7221V87.4888C56.6592 87.5056 55.9683 87.5056 55.1259 87.5056V88.2133C57.7881 88.2133 58.8749 88.1628 60.2819 88.028L60.2145 87.3203ZM61.4951 89.6287V81.8609H60.6694V89.6287H61.4951ZM59.827 82.7371H58.024V81.802H57.1984V82.7371H55.3365V83.4532H59.827V82.7371ZM57.6196 86.0565C56.9204 86.0565 56.5412 85.7027 56.5412 85.3489V85.1635C56.5412 84.8097 56.9119 84.4558 57.6196 84.4558C58.3189 84.4558 58.698 84.8097 58.698 85.1635V85.3489C58.698 85.7027 58.3273 86.0565 57.6196 86.0565Z" fill="#222222"/>
<rect x="1.78938" y="134.309" width="98.5714" height="34.5384" rx="17.2692" fill="white" stroke="#333333" stroke-width="0.421245"/>
<path d="M41.9376 154.914C41.9376 155.731 42.8306 156.397 44.3219 156.397C45.8131 156.397 46.7061 155.731 46.7061 154.914V154.577C46.7061 153.76 45.8131 153.094 44.3219 153.094C42.8306 153.094 41.9376 153.76 41.9376 154.577V154.914ZM43.235 150.053C43.235 150.946 42.7801 151.358 40.438 152.336L40.7665 153.001C43.4204 151.872 44.0523 151.401 44.0523 150.112V148.89H40.7581V149.598H43.235V150.053ZM46.6724 152.993V148.41H45.8552V149.53H44.4819V150.246H45.8552V151.148H44.3556V151.864H45.8552V152.993H46.6724ZM45.8889 154.863C45.8889 155.276 45.2823 155.714 44.3219 155.714C43.3614 155.714 42.7548 155.276 42.7548 154.863V154.627C42.7548 154.215 43.3614 153.776 44.3219 153.776C45.2823 153.776 45.8889 154.215 45.8889 154.627V154.863ZM49.1001 154.914C49.1001 155.731 49.9931 156.397 51.4843 156.397C52.9756 156.397 53.8686 155.731 53.8686 154.914V154.577C53.8686 153.76 52.9756 153.094 51.4843 153.094C49.9931 153.094 49.1001 153.76 49.1001 154.577V154.914ZM51.4506 150.406C51.4506 149.657 50.8441 148.705 49.5213 148.705C48.1986 148.705 47.592 149.657 47.592 150.406V150.836C47.592 151.586 48.1986 152.538 49.5213 152.538C50.8441 152.538 51.4506 151.586 51.4506 150.836V150.406ZM53.8349 152.993V148.41H53.0177V149.379H51.7961V150.095H53.0177V151.131H51.7961V151.847H53.0177V152.993H53.8349ZM53.0514 154.863C53.0514 155.276 52.4448 155.714 51.4843 155.714C50.5239 155.714 49.9173 155.276 49.9173 154.863V154.627C49.9173 154.215 50.5239 153.776 51.4843 153.776C52.4448 153.776 53.0514 154.215 53.0514 154.627V154.863ZM50.6503 150.794C50.6503 151.291 50.2964 151.813 49.5213 151.813C48.7462 151.813 48.3924 151.291 48.3924 150.794V150.449C48.3924 149.952 48.7462 149.429 49.5213 149.429C50.2964 149.429 50.6503 149.952 50.6503 150.449V150.794ZM57.0714 151.434C57.1304 151.561 57.2988 151.721 57.5516 151.931C57.956 152.268 58.3351 152.555 58.7732 152.858L59.245 152.252C58.7564 151.923 58.3014 151.594 57.897 151.241C57.5347 150.929 57.4589 150.609 57.4589 150.069V149.623H59.0175V148.907H54.9651V149.623H56.6164V150.103C56.6164 150.718 56.4816 151.055 56.0688 151.443C55.7739 151.721 55.2432 152.125 54.704 152.504L55.1926 153.102C55.6644 152.774 56.1446 152.412 56.4985 152.091C56.7597 151.856 57.0124 151.578 57.063 151.434H57.0714ZM56.9282 153.473H56.0941V156.093H61.1069V155.369H56.9282V153.473ZM60.9468 153.945V148.41H60.1212V153.945H60.9468Z" fill="#222222"/>
<rect x="131.533" y="100.192" width="99.4139" height="35.3809" rx="17.6904" fill="white" stroke="#33B9A5" stroke-width="1.26374"/>
<path d="M162.786 115.447V121.522H166.628V120.806H163.62V118.767H166.392V118.051H163.62V116.164H166.569V115.447H162.786ZM169.253 120.856C168.731 120.856 167.99 120.561 167.535 120.216L167.113 120.898C167.619 121.303 168.369 121.614 169.228 121.614C170.475 121.614 171.393 121.042 171.393 119.929V119.778C171.393 118.935 170.93 118.405 169.43 118.068C168.529 117.865 168.032 117.663 168.032 117.107V116.972C168.032 116.492 168.529 116.105 169.287 116.105C169.843 116.105 170.29 116.231 170.736 116.534L171.132 115.886C170.618 115.54 170.02 115.355 169.279 115.355C167.88 115.355 167.198 116.155 167.198 116.981V117.132C167.198 118.228 168.074 118.581 169.22 118.826C170.205 119.036 170.551 119.306 170.551 119.837V119.972C170.551 120.452 170.113 120.856 169.253 120.856ZM176.475 118.186H174.293V118.902H175.641V120.612C175.321 120.772 174.891 120.856 174.437 120.856C173.35 120.856 172.65 120.241 172.65 118.834V118.135C172.65 116.728 173.291 116.113 174.344 116.113C174.917 116.113 175.397 116.248 175.928 116.669L176.357 115.995C175.793 115.549 175.127 115.355 174.344 115.355C172.802 115.355 171.816 116.256 171.816 118.025V118.944C171.816 120.73 172.802 121.614 174.411 121.614C175.169 121.614 175.945 121.438 176.475 121.067V118.186ZM180.94 118.236C182.178 118.236 182.962 117.52 182.962 116.72V116.383C182.962 115.582 182.195 114.866 180.94 114.866C179.684 114.866 178.918 115.582 178.918 116.383V116.72C178.918 117.52 179.701 118.236 180.94 118.236ZM184.857 122.482V114.714H184.032V122.482H184.857ZM181.403 122.246V119.567C182.203 119.534 182.911 119.483 183.61 119.407L183.543 118.708C182.144 118.843 180.721 118.893 178.496 118.885V119.609C179.255 119.609 179.937 119.609 180.552 119.592V122.246H181.403ZM180.94 117.512C180.224 117.512 179.718 117.149 179.718 116.661V116.442C179.718 115.928 180.224 115.591 180.94 115.591C181.656 115.591 182.161 115.928 182.161 116.442V116.661C182.161 117.149 181.656 117.512 180.94 117.512ZM188.052 117.773C189.24 117.773 189.964 117.141 189.964 116.45V116.18C189.964 115.49 189.24 114.858 188.052 114.858C186.864 114.858 186.139 115.49 186.139 116.18V116.45C186.139 117.141 186.864 117.773 188.052 117.773ZM191.978 120.73V114.714H191.152V119.34H189.509V120.039H191.152V120.73H191.978ZM187.723 120.325H186.889V122.406H192.138V121.69H187.723V120.325ZM188.38 120.014V118.876C189.197 118.843 189.93 118.792 190.647 118.716L190.588 118.017C188.742 118.169 187.496 118.211 185.634 118.202V118.927C186.325 118.927 186.965 118.918 187.555 118.902V120.014H188.38ZM188.052 117.073C187.336 117.073 186.931 116.728 186.931 116.399V116.231C186.931 115.902 187.336 115.565 188.052 115.565C188.768 115.565 189.172 115.902 189.172 116.231V116.399C189.172 116.728 188.768 117.073 188.052 117.073ZM197.935 120.174C197.245 120.241 196.604 120.292 195.804 120.317V119.559C196.705 119.416 197.228 118.86 197.228 118.27V117.95C197.228 117.267 196.528 116.627 195.34 116.627C194.153 116.627 193.453 117.267 193.453 117.95V118.27C193.453 118.885 194.009 119.458 194.978 119.576V120.342C194.38 120.359 193.689 120.359 192.847 120.359V121.067C195.509 121.067 196.596 121.016 198.003 120.881L197.935 120.174ZM199.216 122.482V114.714H198.39V122.482H199.216ZM197.548 115.591H195.745V114.655H194.919V115.591H193.057V116.307H197.548V115.591ZM195.34 118.91C194.641 118.91 194.262 118.556 194.262 118.202V118.017C194.262 117.663 194.633 117.309 195.34 117.309C196.04 117.309 196.419 117.663 196.419 118.017V118.202C196.419 118.556 196.048 118.91 195.34 118.91Z" fill="#222222"/>
<rect x="1.36813" y="200.858" width="99.4139" height="35.3809" rx="17.6904" fill="white" stroke="#33B9A5" stroke-width="1.26374"/>
<path d="M37.2155 210.639V216.713H41.0572V215.997H38.0495V213.958H40.8213V213.242H38.0495V211.355H40.9982V210.639H37.2155ZM43.6829 216.048C43.1605 216.048 42.4192 215.753 41.9642 215.407L41.543 216.09C42.0485 216.494 42.7983 216.806 43.6576 216.806C44.9045 216.806 45.8228 216.233 45.8228 215.121V214.969C45.8228 214.127 45.3594 213.596 43.8598 213.259C42.9583 213.057 42.4613 212.855 42.4613 212.299V212.164C42.4613 211.684 42.9583 211.296 43.7166 211.296C44.2726 211.296 44.7192 211.422 45.1657 211.726L45.5616 211.077C45.0477 210.732 44.4496 210.546 43.7082 210.546C42.3096 210.546 41.6272 211.347 41.6272 212.172V212.324C41.6272 213.419 42.5034 213.773 43.6492 214.017C44.6349 214.228 44.9803 214.497 44.9803 215.028V215.163C44.9803 215.643 44.5422 216.048 43.6829 216.048ZM50.9048 213.377H48.7228V214.093H50.0707V215.803C49.7506 215.963 49.3209 216.048 48.866 216.048C47.7792 216.048 47.0799 215.433 47.0799 214.026V213.326C47.0799 211.919 47.7202 211.304 48.7733 211.304C49.3462 211.304 49.8264 211.439 50.3572 211.86L50.7869 211.186C50.2224 210.74 49.5568 210.546 48.7733 210.546C47.2316 210.546 46.2458 211.448 46.2458 213.217V214.135C46.2458 215.921 47.2316 216.806 48.8407 216.806C49.5989 216.806 50.374 216.629 50.9048 216.258V213.377ZM52.9091 216.41C52.9091 217.227 53.8021 217.893 55.2933 217.893C56.7845 217.893 57.6776 217.227 57.6776 216.41V216.073C57.6776 215.256 56.7845 214.59 55.2933 214.59C53.8021 214.59 52.9091 215.256 52.9091 216.073V216.41ZM54.2065 211.549C54.2065 212.442 53.7516 212.855 51.4094 213.832L51.738 214.497C54.3919 213.368 55.0237 212.897 55.0237 211.608V210.386H51.7296V211.094H54.2065V211.549ZM57.6439 214.489V209.906H56.8267V211.026H55.4534V211.742H56.8267V212.644H55.327V213.36H56.8267V214.489H57.6439ZM56.8604 216.359C56.8604 216.772 56.2538 217.21 55.2933 217.21C54.3329 217.21 53.7263 216.772 53.7263 216.359V216.123C53.7263 215.711 54.3329 215.273 55.2933 215.273C56.2538 215.273 56.8604 215.711 56.8604 216.123V216.359ZM60.0716 216.41C60.0716 217.227 60.9646 217.893 62.4558 217.893C63.947 217.893 64.8401 217.227 64.8401 216.41V216.073C64.8401 215.256 63.947 214.59 62.4558 214.59C60.9646 214.59 60.0716 215.256 60.0716 216.073V216.41ZM62.4221 211.903C62.4221 211.153 61.8155 210.201 60.4928 210.201C59.1701 210.201 58.5635 211.153 58.5635 211.903V212.332C58.5635 213.082 59.1701 214.034 60.4928 214.034C61.8155 214.034 62.4221 213.082 62.4221 212.332V211.903ZM64.8064 214.489V209.906H63.9892V210.875H62.7675V211.591H63.9892V212.627H62.7675V213.343H63.9892V214.489H64.8064ZM64.0229 216.359C64.0229 216.772 63.4163 217.21 62.4558 217.21C61.4954 217.21 60.8888 216.772 60.8888 216.359V216.123C60.8888 215.711 61.4954 215.273 62.4558 215.273C63.4163 215.273 64.0229 215.711 64.0229 216.123V216.359ZM61.6218 212.29C61.6218 212.787 61.2679 213.31 60.4928 213.31C59.7177 213.31 59.3639 212.787 59.3639 212.29V211.945C59.3639 211.448 59.7177 210.925 60.4928 210.925C61.2679 210.925 61.6218 211.448 61.6218 211.945V212.29ZM48.7486 225.39C48.2431 225.888 47.6365 226.031 47.0552 226.031C46.1369 226.031 45.4629 225.416 45.4629 224.026V223.326C45.4629 221.936 46.1369 221.321 47.0552 221.321C47.6028 221.321 48.0831 221.431 48.6307 221.877L49.0603 221.195C48.4959 220.748 47.8893 220.546 47.0552 220.546C45.6146 220.546 44.6204 221.448 44.6204 223.217V224.135C44.6204 225.921 45.6061 226.806 47.0552 226.806C47.8724 226.806 48.597 226.612 49.2036 226.031L48.7486 225.39ZM49.7222 220.639V226.713H50.5562V224.101H53.3027V223.385H50.5562V221.355H53.4797V220.639H49.7222ZM56.1365 226.713V221.355H57.99V220.639H53.449V221.355H55.3025V226.713H56.1365Z" fill="#222222"/>
<rect x="2" y="268.461" width="98.1502" height="34.1172" rx="17.0586" fill="#4A89DB"/>
<path d="M41.7078 281.274C40.9749 281.342 40.3767 281.375 39.6606 281.401V280.921C40.5621 280.819 41.0254 280.373 41.0254 279.825V279.606C41.0254 278.991 40.4273 278.494 39.2478 278.494C38.0683 278.494 37.4701 278.983 37.4701 279.606V279.825C37.4701 280.373 37.9251 280.819 38.8349 280.921V281.418C38.2789 281.426 37.6302 281.426 36.8214 281.426V282.134C39.4163 282.134 40.4357 282.092 41.7752 281.957L41.7078 281.274ZM43.0053 282.782V280.103H44.1005V279.379H43.0053V276.877H42.1796V282.782H43.0053ZM38.8855 282.555H38.0514V284.569H43.2159V283.852H38.8855V282.555ZM39.6606 277.534V276.809H38.8349V277.534H37.1163V278.233H41.354V277.534H39.6606ZM39.2478 279.151C39.9133 279.151 40.2082 279.396 40.2082 279.665V279.766C40.2082 280.036 39.9133 280.28 39.2478 280.28C38.5822 280.28 38.2873 280.036 38.2873 279.766V279.665C38.2873 279.396 38.5822 279.151 39.2478 279.151ZM45.7278 283.381C45.7278 284.198 46.6209 284.863 48.1121 284.863C49.6033 284.863 50.4963 284.198 50.4963 283.381V283.044C50.4963 282.226 49.6033 281.561 48.1121 281.561C46.6209 281.561 45.7278 282.226 45.7278 283.044V283.381ZM47.0253 278.519C47.0253 279.412 46.5703 279.825 44.2282 280.803L44.5568 281.468C47.2106 280.339 47.8425 279.867 47.8425 278.578V277.357H44.5483V278.064H47.0253V278.519ZM50.4626 281.46V276.877H49.6454V277.997H48.2722V278.713H49.6454V279.615H48.1458V280.331H49.6454V281.46H50.4626ZM49.6791 283.33C49.6791 283.743 49.0725 284.181 48.1121 284.181C47.1516 284.181 46.5451 283.743 46.5451 283.33V283.094C46.5451 282.681 47.1516 282.243 48.1121 282.243C49.0725 282.243 49.6791 282.681 49.6791 283.094V283.33ZM52.5365 281.62V284.636H57.2713V281.62H52.5365ZM55.7379 279.817C54.5669 279.943 54.0445 279.977 52.3174 279.977V278.048H55.0977V277.332H51.5002V280.693C53.9266 280.693 54.6343 280.659 55.8222 280.508L55.7379 279.817ZM53.3621 282.327H56.4456V283.928H53.3621V282.327ZM58.3749 278.621H57.2713V276.877H56.4456V281.241H57.2713V279.345H58.3749V278.621ZM59.7832 283.381C59.7832 284.198 60.6594 284.863 62.1253 284.863C63.5913 284.863 64.4675 284.198 64.4675 283.381V283.044C64.4675 282.226 63.5913 281.561 62.1253 281.561C60.6594 281.561 59.7832 282.226 59.7832 283.044V283.381ZM62.9004 279.977C61.7294 280.103 61.207 280.137 59.4799 280.137V278.081H62.2601V277.365H58.6627V280.853C61.0891 280.853 61.7968 280.819 62.9847 280.668L62.9004 279.977ZM63.6502 283.33C63.6502 283.743 63.0605 284.181 62.1253 284.181C61.1902 284.181 60.6004 283.743 60.6004 283.33V283.094C60.6004 282.681 61.1902 282.243 62.1253 282.243C63.0605 282.243 63.6502 282.681 63.6502 283.094V283.33ZM65.5374 278.671H64.4338V276.877H63.6081V281.46H64.4338V279.396H65.5374V278.671ZM43.2243 290.744V286.877H42.3987V290.744H43.2243ZM43.4434 294.695V294.004H39.2309V293.246H43.2243V291.131H38.3716V291.822H42.4071V292.572H38.4137V294.695H43.4434ZM39.2478 289.202C39.2899 289.32 39.5089 289.53 39.728 289.716C40.124 290.053 40.5368 290.348 40.9664 290.659L41.4467 290.053C40.9664 289.733 40.4694 289.379 40.0734 289.025C39.6943 288.679 39.6353 288.41 39.6353 287.888V287.07H38.7928V287.921C38.7928 288.519 38.658 288.831 38.2452 289.219C37.9419 289.497 37.3943 289.926 36.8551 290.331L37.3353 290.921C37.7987 290.592 38.321 290.171 38.6749 289.859C38.9866 289.581 39.2056 289.337 39.2393 289.202H39.2478ZM50.0835 287.315H44.9949V290.491H50.0835V287.315ZM47.9604 294.644V292.092H51.1029V291.384H43.9755V292.092H47.1179V294.644H47.9604ZM45.8205 288.014H49.2579V289.792H45.8205V288.014ZM54.7101 289.808C54.7944 289.952 55.0724 290.204 55.6284 290.558C56.1929 290.912 56.6394 291.165 57.3555 291.544L57.7683 290.878C57.0607 290.516 56.6478 290.297 55.9991 289.884C55.3251 289.455 55.1229 289.092 55.1229 288.46V288.258H57.3808V287.534H52.0226V288.258H54.2804V288.46C54.2804 289.101 54.0445 289.48 53.3958 289.901C52.8566 290.247 52.3596 290.516 51.635 290.887L52.0478 291.552C52.6797 291.224 53.1936 290.937 53.7665 290.575C54.3226 290.221 54.609 289.96 54.7017 289.808H54.7101ZM55.1229 292.9V291.241H54.2804V292.9H51.1379V293.608H58.2654V292.9H55.1229ZM60.8616 289.674C60.9206 289.8 61.0891 289.96 61.3418 290.171C61.7462 290.508 62.1253 290.794 62.5634 291.097L63.0352 290.491C62.5382 290.162 62.0832 289.834 61.6872 289.471C61.3165 289.134 61.2491 288.848 61.2491 288.309V288.048H62.8078V287.332H58.7554V288.048H60.4067V288.342C60.4067 288.958 60.2634 289.278 59.8506 289.682C59.5473 289.977 59.0334 290.364 58.4942 290.744L58.9828 291.342C59.4546 291.013 59.9264 290.642 60.2887 290.331C60.5583 290.103 60.8026 289.817 60.8532 289.674H60.8616ZM59.6231 292.513H63.903V294.72H64.7371V291.797H59.6231V292.513ZM64.7371 291.392V286.877H63.9114V291.392H64.7371Z" fill="white"/>
<rect x="125.425" y="268.461" width="98.1502" height="34.1172" rx="17.0586" fill="#4A89DB"/>
<path d="M167.508 279.682H166.312V276.877H165.478V284.644H166.312V280.407H167.508V279.682ZM162.546 280.744C162.614 280.912 162.816 281.148 163.052 281.401C163.372 281.746 163.751 282.125 164.332 282.664L164.871 282.092C164.366 281.645 163.995 281.291 163.633 280.895C163.119 280.322 162.959 279.977 162.959 279.311V277.441H162.117V279.311C162.117 279.91 161.982 280.289 161.468 280.87C161.089 281.291 160.651 281.721 160.137 282.176L160.684 282.74C161.257 282.218 161.704 281.771 162.049 281.392C162.319 281.097 162.462 280.929 162.538 280.744H162.546ZM172.683 282.336C171.992 282.403 171.352 282.454 170.551 282.479V281.721C171.453 281.578 171.975 281.022 171.975 280.432V280.112C171.975 279.429 171.276 278.789 170.088 278.789C168.9 278.789 168.201 279.429 168.201 280.112V280.432C168.201 281.047 168.757 281.62 169.726 281.738V282.504C169.127 282.521 168.437 282.521 167.594 282.521V283.229C170.256 283.229 171.343 283.178 172.75 283.044L172.683 282.336ZM173.963 284.644V276.877H173.138V284.644H173.963ZM172.295 277.753H170.492V276.818H169.667V277.753H167.805V278.469H172.295V277.753ZM170.088 281.072C169.389 281.072 169.009 280.718 169.009 280.364V280.179C169.009 279.825 169.38 279.471 170.088 279.471C170.787 279.471 171.166 279.825 171.166 280.179V280.364C171.166 280.718 170.795 281.072 170.088 281.072ZM175.961 281.62V284.636H180.696V281.62H175.961ZM179.163 279.817C177.992 279.943 177.469 279.977 175.742 279.977V278.048H178.522V277.332H174.925V280.693C177.351 280.693 178.059 280.659 179.247 280.508L179.163 279.817ZM176.787 282.327H179.87V283.928H176.787V282.327ZM181.8 278.621H180.696V276.877H179.87V281.241H180.696V279.345H181.8V278.621ZM183.208 283.381C183.208 284.198 184.084 284.863 185.55 284.863C187.016 284.863 187.892 284.198 187.892 283.381V283.044C187.892 282.226 187.016 281.561 185.55 281.561C184.084 281.561 183.208 282.226 183.208 283.044V283.381ZM186.325 279.977C185.154 280.103 184.632 280.137 182.905 280.137V278.081H185.685V277.365H182.088V280.853C184.514 280.853 185.222 280.819 186.409 280.668L186.325 279.977ZM187.075 283.33C187.075 283.743 186.485 284.181 185.55 284.181C184.615 284.181 184.025 283.743 184.025 283.33V283.094C184.025 282.681 184.615 282.243 185.55 282.243C186.485 282.243 187.075 282.681 187.075 283.094V283.33ZM188.962 278.671H187.859V276.877H187.033V281.46H187.859V279.396H188.962V278.671ZM166.649 290.744V286.877H165.823V290.744H166.649ZM166.868 294.695V294.004H162.656V293.246H166.649V291.131H161.796V291.822H165.832V292.572H161.839V294.695H166.868ZM162.673 289.202C162.715 289.32 162.934 289.53 163.153 289.716C163.549 290.053 163.962 290.348 164.391 290.659L164.871 290.053C164.391 289.733 163.894 289.379 163.498 289.025C163.119 288.679 163.06 288.41 163.06 287.888V287.07H162.218V287.921C162.218 288.519 162.083 288.831 161.67 289.219C161.367 289.497 160.819 289.926 160.28 290.331L160.76 290.921C161.223 290.592 161.746 290.171 162.1 289.859C162.411 289.581 162.63 289.337 162.664 289.202H162.673ZM173.508 287.315H168.42V290.491H173.508V287.315ZM171.385 294.644V292.092H174.528V291.384H167.4V292.092H170.543V294.644H171.385ZM169.245 288.014H172.683V289.792H169.245V288.014ZM178.135 289.808C178.219 289.952 178.497 290.204 179.053 290.558C179.618 290.912 180.064 291.165 180.78 291.544L181.193 290.878C180.485 290.516 180.073 290.297 179.424 289.884C178.75 289.455 178.548 289.092 178.548 288.46V288.258H180.806V287.534H175.447V288.258H177.705V288.46C177.705 289.101 177.469 289.48 176.821 289.901C176.281 290.247 175.784 290.516 175.06 290.887L175.473 291.552C176.105 291.224 176.618 290.937 177.191 290.575C177.747 290.221 178.034 289.96 178.126 289.808H178.135ZM178.548 292.9V291.241H177.705V292.9H174.563V293.608H181.69V292.9H178.548ZM184.286 289.674C184.345 289.8 184.514 289.96 184.767 290.171C185.171 290.508 185.55 290.794 185.988 291.097L186.46 290.491C185.963 290.162 185.508 289.834 185.112 289.471C184.741 289.134 184.674 288.848 184.674 288.309V288.048H186.233V287.332H182.18V288.048H183.831V288.342C183.831 288.958 183.688 289.278 183.275 289.682C182.972 289.977 182.458 290.364 181.919 290.744L182.408 291.342C182.879 291.013 183.351 290.642 183.714 290.331C183.983 290.103 184.227 289.817 184.278 289.674H184.286ZM183.048 292.513H187.328V294.72H188.162V291.797H183.048V292.513ZM188.162 291.392V286.877H187.336V291.392H188.162Z" fill="white"/>
<rect x="248.85" y="268.883" width="98.1502" height="34.1172" rx="17.0586" fill="#4A89DB"/>
<path d="M278.934 281.241C279.001 281.41 279.212 281.646 279.448 281.898C279.768 282.244 280.122 282.598 280.695 283.12L281.242 282.556C280.745 282.117 280.391 281.789 280.029 281.393C279.431 280.744 279.338 280.491 279.338 279.826V278.722H280.964V277.998H276.828V278.722H278.496V279.826C278.496 280.449 278.403 280.77 277.847 281.385C277.468 281.806 277.055 282.219 276.55 282.674L277.097 283.238C277.662 282.716 278.083 282.286 278.428 281.907C278.698 281.612 278.85 281.427 278.925 281.241H278.934ZM282.851 285.066V277.298H282.017V285.066H282.851ZM286.947 283.002V277.972H286.138V279.775H284.639V277.972H283.83V283.002H286.947ZM290.267 277.298H289.449V280.138H288.565V277.459H287.748V284.687H288.565V280.862H289.449V285.066H290.267V277.298ZM284.639 280.483H286.138V282.294H284.639V280.483ZM296.477 281.275C296.637 280.433 296.713 279.582 296.713 278.773V277.779H291.557V278.512H295.879V278.967C295.879 279.716 295.812 280.449 295.635 281.275H290.664V281.983H293.806V285.066H294.649V281.983H297.791V281.275H296.477ZM301.399 280.23C301.483 280.374 301.761 280.626 302.317 280.98C302.881 281.334 303.328 281.587 304.044 281.966L304.457 281.3C303.749 280.938 303.336 280.719 302.688 280.306C302.014 279.876 301.811 279.514 301.811 278.882V278.68H304.069V277.956H298.711V278.68H300.969V278.882C300.969 279.523 300.733 279.902 300.084 280.323C299.545 280.668 299.048 280.938 298.323 281.309L298.736 281.974C299.368 281.646 299.882 281.359 300.455 280.997C301.011 280.643 301.297 280.382 301.39 280.23H301.399ZM301.811 283.322V281.663H300.969V283.322H297.826V284.03H304.954V283.322H301.811ZM306.387 282.042V285.058H311.122V282.042H306.387ZM309.589 280.239C308.418 280.365 307.896 280.399 306.168 280.399V278.47H308.949V277.753H305.351V281.115C307.778 281.115 308.485 281.081 309.673 280.93L309.589 280.239ZM307.213 282.749H310.297V284.35H307.213V282.749ZM312.226 279.042H311.122V277.298H310.297V281.663H311.122V279.767H312.226V279.042ZM313.634 283.802C313.634 284.62 314.51 285.285 315.976 285.285C317.442 285.285 318.318 284.62 318.318 283.802V283.465C318.318 282.648 317.442 281.983 315.976 281.983C314.51 281.983 313.634 282.648 313.634 283.465V283.802ZM316.751 280.399C315.58 280.525 315.058 280.559 313.331 280.559V278.503H316.111V277.787H312.514V281.275C314.94 281.275 315.648 281.241 316.836 281.09L316.751 280.399ZM317.501 283.752C317.501 284.165 316.911 284.603 315.976 284.603C315.041 284.603 314.451 284.165 314.451 283.752V283.516C314.451 283.103 315.041 282.665 315.976 282.665C316.911 282.665 317.501 283.103 317.501 283.516V283.752ZM319.388 279.093H318.285V277.298H317.459V281.882H318.285V279.817H319.388V279.093ZM289.913 291.165V287.298H289.087V291.165H289.913ZM290.132 295.117V294.426H285.919V293.668H289.913V291.553H285.06V292.244H289.096V292.994H285.102V295.117H290.132ZM285.936 289.624C285.978 289.742 286.197 289.952 286.416 290.138C286.812 290.475 287.225 290.77 287.655 291.081L288.135 290.475C287.655 290.154 287.158 289.801 286.762 289.447C286.383 289.101 286.324 288.832 286.324 288.309V287.492H285.481V288.343C285.481 288.941 285.346 289.253 284.934 289.641C284.63 289.919 284.083 290.348 283.544 290.753L284.024 291.342C284.487 291.014 285.01 290.593 285.363 290.281C285.675 290.003 285.894 289.759 285.928 289.624H285.936ZM296.772 287.737H291.683V290.913H296.772V287.737ZM294.649 295.066V292.513H297.791V291.806H290.664V292.513H293.806V295.066H294.649ZM292.509 288.436H295.946V290.213H292.509V288.436ZM301.399 290.23C301.483 290.374 301.761 290.626 302.317 290.98C302.881 291.334 303.328 291.587 304.044 291.966L304.457 291.3C303.749 290.938 303.336 290.719 302.688 290.306C302.014 289.876 301.811 289.514 301.811 288.882V288.68H304.069V287.956H298.711V288.68H300.969V288.882C300.969 289.523 300.733 289.902 300.084 290.323C299.545 290.668 299.048 290.938 298.323 291.309L298.736 291.974C299.368 291.646 299.882 291.359 300.455 290.997C301.011 290.643 301.297 290.382 301.39 290.23H301.399ZM301.811 293.322V291.663H300.969V293.322H297.826V294.03H304.954V293.322H301.811ZM307.55 290.096C307.609 290.222 307.778 290.382 308.03 290.593C308.435 290.93 308.814 291.216 309.252 291.519L309.724 290.913C309.227 290.584 308.772 290.256 308.376 289.893C308.005 289.556 307.938 289.27 307.938 288.731V288.47H309.496V287.753H305.444V288.47H307.095V288.764C307.095 289.379 306.952 289.7 306.539 290.104C306.236 290.399 305.722 290.786 305.183 291.165L305.671 291.764C306.143 291.435 306.615 291.064 306.977 290.753C307.247 290.525 307.491 290.239 307.542 290.096H307.55ZM306.312 292.935H310.591V295.142H311.426V292.219H306.312V292.935ZM311.426 291.814V287.298H310.6V291.814H311.426Z" fill="white"/>
</svg>
