<svg width="345" height="660" viewBox="0 0 345 660" fill="none" xmlns="http://www.w3.org/2000/svg">
<g filter="url(#filter0_d_1_46461)">
<path d="M172 220C221.706 220 262 179.706 262 130C262 80.2944 221.706 40 172 40C122.294 40 82 80.2944 82 130C82 179.706 122.294 220 172 220Z" fill="white"/>
<path d="M261.5 130C261.5 179.429 221.429 219.5 172 219.5C122.571 219.5 82.5 179.429 82.5 130C82.5 80.5705 122.571 40.5 172 40.5C221.429 40.5 261.5 80.5705 261.5 130Z" stroke="#AAAAAA"/>
</g>
<path d="M136.219 137.624H138.595V130.88H142.411C146.179 130.88 148.147 128.576 148.147 125.768V125.264C148.147 122.432 146.323 120.32 142.411 120.32H136.219V137.624ZM142.267 122.384C144.499 122.384 145.747 123.32 145.747 125.288V125.72C145.747 127.808 144.499 128.816 142.003 128.816H138.595V122.384H142.267ZM156 137.888C157.464 137.888 158.784 137.552 159.84 136.928L162 139.064L163.416 137.6L161.376 135.584C162.36 134.336 162.936 132.56 162.936 130.28V127.664C162.936 122.624 160.104 120.056 156 120.056C151.896 120.056 149.064 122.624 149.064 127.664V130.28C149.064 135.368 151.872 137.888 156 137.888ZM156 122.216C158.664 122.216 160.536 123.872 160.536 127.928V130.016C160.536 131.696 160.224 132.944 159.648 133.856L157.416 131.624L156 133.088L158.16 135.248C157.536 135.584 156.792 135.728 156 135.728C153.36 135.728 151.464 134.072 151.464 130.016V127.928C151.464 123.872 153.36 122.216 156 122.216ZM186.749 129.392V118.232H184.397V122.696H180.053V118.88H177.725V122.072H171.917V118.88H169.589V128.624H180.053V124.712H184.397V129.392H186.749ZM187.373 140.504V138.536H175.373V136.472H186.749V130.544H172.925V132.512H184.421V134.552H173.045V140.504H187.373ZM171.917 124.016H177.725V126.656H171.917V124.016ZM207.153 131.816H193.353V140.384H207.153V131.816ZM195.825 126.08C195.993 126.44 196.473 126.896 197.193 127.496C198.345 128.456 199.377 129.248 200.625 130.112L201.969 128.384C200.553 127.448 199.305 126.536 198.177 125.504C197.121 124.544 196.929 123.728 196.929 122.192V121.568H201.297V119.528H189.873V121.568H194.529V122.288C194.529 124.04 194.121 124.952 192.945 126.104C192.081 126.944 190.665 128.024 189.129 129.104L190.521 130.808C191.865 129.872 193.161 128.84 194.193 127.952C194.961 127.304 195.657 126.488 195.801 126.08H195.825ZM204.825 138.368H195.681V133.832H204.825V138.368ZM207.153 130.736V118.232H204.801V123.44H200.745V125.48H204.801V130.736H207.153Z" fill="#222222"/>
<path d="M45.23 287.39H46.715V283.175H49.1C51.455 283.175 52.685 281.735 52.685 279.98V279.665C52.685 277.895 51.545 276.575 49.1 276.575H45.23V287.39ZM49.01 277.865C50.405 277.865 51.185 278.45 51.185 279.68V279.95C51.185 281.255 50.405 281.885 48.845 281.885H46.715V277.865H49.01ZM57.5928 287.555C58.5078 287.555 59.3328 287.345 59.9928 286.955L61.3428 288.29L62.2278 287.375L60.9528 286.115C61.5678 285.335 61.9278 284.225 61.9278 282.8V281.165C61.9278 278.015 60.1578 276.41 57.5928 276.41C55.0278 276.41 53.2578 278.015 53.2578 281.165V282.8C53.2578 285.98 55.0128 287.555 57.5928 287.555ZM57.5928 277.76C59.2578 277.76 60.4278 278.795 60.4278 281.33V282.635C60.4278 283.685 60.2328 284.465 59.8728 285.035L58.4778 283.64L57.5928 284.555L58.9428 285.905C58.5528 286.115 58.0878 286.205 57.5928 286.205C55.9428 286.205 54.7578 285.17 54.7578 282.635V281.33C54.7578 278.795 55.9428 277.76 57.5928 277.76ZM66.8814 280.31C66.9864 280.535 67.2864 280.82 67.7364 281.195C68.4564 281.795 69.1014 282.29 69.8814 282.83L70.7214 281.75C69.8364 281.165 69.0564 280.595 68.3514 279.95C67.6914 279.35 67.5714 278.84 67.5714 277.88V277.355H70.3014V276.08H63.1614V277.355H66.0714V277.94C66.0714 279.035 65.8164 279.605 65.0814 280.325C64.5414 280.85 63.6564 281.525 62.6964 282.2L63.5664 283.265C64.4064 282.68 65.2164 282.035 65.8614 281.48C66.3414 281.075 66.7764 280.565 66.8664 280.31H66.8814ZM64.8564 285.32H72.4764V289.235H73.9614V284.045H64.8564V285.32ZM73.9614 283.325V275.27H72.4914V278.585H69.9414V279.86H72.4914V283.325H73.9614ZM81.5088 275.45C78.8838 275.45 77.0688 276.38 77.0688 277.955V278.375C77.0688 279.215 77.5638 279.86 78.4338 280.295V282.11H75.1638V283.37H87.8538V282.11H84.5988V280.28C85.4538 279.86 85.9488 279.2 85.9488 278.375V277.955C85.9488 276.38 84.1338 275.45 81.5088 275.45ZM81.5088 289.49C84.3588 289.49 85.8738 288.23 85.8738 287.015V286.505C85.8738 285.29 84.3588 284.03 81.5088 284.03C78.6588 284.03 77.1438 285.29 77.1438 286.505V287.015C77.1438 288.245 78.6588 289.49 81.5088 289.49ZM81.5088 279.65C79.7688 279.65 78.5238 279.11 78.5238 278.315V278.015C78.5238 277.22 79.7688 276.68 81.5088 276.68C83.2488 276.68 84.4938 277.22 84.4938 278.015V278.315C84.4938 279.11 83.2488 279.65 81.5088 279.65ZM81.5088 285.245C83.3088 285.245 84.4038 285.98 84.4038 286.625V286.895C84.4038 287.54 83.3088 288.275 81.5088 288.275C79.7088 288.275 78.6138 287.54 78.6138 286.895V286.625C78.6138 285.98 79.7088 285.245 81.5088 285.245ZM81.5088 280.88C82.0938 280.88 82.6338 280.835 83.1288 280.745V282.11H79.9038V280.76C80.3838 280.85 80.9238 280.88 81.5088 280.88ZM102.316 282.245V275.27H100.846V278.06H98.1311V275.675H96.6761V277.67H93.0461V275.675H91.5911V281.765H98.1311V279.32H100.846V282.245H102.316ZM102.706 289.19V287.96H95.2061V286.67H102.316V282.965H93.6761V284.195H100.861V285.47H93.7511V289.19H102.706ZM93.0461 278.885H96.6761V280.535H93.0461V278.885ZM115.068 283.76H106.443V289.115H115.068V283.76ZM107.988 280.175C108.093 280.4 108.393 280.685 108.843 281.06C109.563 281.66 110.208 282.155 110.988 282.695L111.828 281.615C110.943 281.03 110.163 280.46 109.458 279.815C108.798 279.215 108.678 278.705 108.678 277.745V277.355H111.408V276.08H104.268V277.355H107.178V277.805C107.178 278.9 106.923 279.47 106.188 280.19C105.648 280.715 104.763 281.39 103.803 282.065L104.673 283.13C105.513 282.545 106.323 281.9 106.968 281.345C107.448 280.94 107.883 280.43 107.973 280.175H107.988ZM113.613 287.855H107.898V285.02H113.613V287.855ZM115.068 283.085V275.27H113.598V278.525H111.063V279.8H113.598V283.085H115.068ZM120.486 286.085C125.961 282.77 126.171 281.93 126.171 279.2V276.545H119.976V277.82H124.701V279.185C124.701 281.315 124.491 282.095 119.706 284.9L120.486 286.085ZM130.581 289.1V275.27H129.096V289.1H130.581ZM138.218 279.17C138.368 279.485 139.418 279.98 140.063 280.25C141.023 280.655 141.908 280.985 142.943 281.33L143.483 280.13C142.268 279.74 141.413 279.44 140.618 279.08C139.598 278.615 138.953 278.165 138.953 277.52V277.085H142.913V275.855H133.523V277.085H137.468V277.52C137.468 278.165 136.793 278.675 135.803 279.095C134.993 279.44 134.168 279.74 132.938 280.13L133.493 281.33C134.498 281 135.398 280.67 136.403 280.25C137.033 279.98 138.053 279.485 138.203 279.17H138.218ZM139.148 286.055V283.355H144.563V282.095H131.873V283.355H137.648V286.055H139.148ZM135.188 284.81H133.703V288.95H143.003V287.66H135.188V284.81ZM159.491 275.27H158.036V280.1H156.371V275.555H154.916V288.425H156.371V281.39H158.036V289.1H159.491V275.27ZM151.811 279.185C151.811 281.225 151.811 282.275 147.581 284.99L148.406 286.145C152.756 283.235 153.266 282.125 153.266 279.44V276.62H147.971V277.895H151.811V279.185ZM163.348 286.865C163.348 288.32 164.938 289.49 167.593 289.49C170.248 289.49 171.838 288.32 171.838 286.865V286.265C171.838 284.81 170.248 283.64 167.593 283.64C164.938 283.64 163.348 284.81 163.348 286.265V286.865ZM164.698 280.385C164.803 280.61 165.103 280.895 165.553 281.27C166.273 281.87 166.918 282.365 167.698 282.905L168.538 281.825C167.653 281.24 166.873 280.67 166.168 280.025C165.508 279.425 165.388 278.915 165.388 277.955V277.4H168.118V276.125H160.978V277.4H163.888V278.015C163.888 279.11 163.633 279.68 162.898 280.4C162.358 280.925 161.473 281.6 160.513 282.275L161.383 283.34C162.223 282.755 163.033 282.11 163.678 281.555C164.158 281.15 164.593 280.64 164.683 280.385H164.698ZM170.383 286.775C170.383 287.51 169.303 288.275 167.593 288.275C165.883 288.275 164.803 287.51 164.803 286.775V286.355C164.803 285.62 165.883 284.855 167.593 284.855C169.303 284.855 170.383 285.62 170.383 286.355V286.775ZM171.778 283.445V275.27H170.308V278.66H167.758V279.935H170.308V283.445H171.778ZM183.045 275.96H176.73V281.81H183.045V275.96ZM183.675 284.075V282.62H182.19V284.075H178.41V285.305H182.19C182.145 285.935 181.875 286.34 180.93 286.775C180.075 287.165 179.19 287.495 177.84 287.99L178.395 289.19C179.535 288.77 180.51 288.38 181.35 288.02C182.175 287.66 182.715 287.27 182.94 286.91C183.165 287.27 183.69 287.645 184.515 288.005C185.355 288.365 186.33 288.755 187.47 289.175L188.01 287.975C186.63 287.495 185.85 287.18 184.935 286.775C183.96 286.34 183.705 285.935 183.675 285.305H187.44V284.075H183.675ZM178.17 277.205H181.605V280.565H178.17V277.205ZM187.29 282.845V275.27H185.82V282.845H187.29ZM202.983 282.245V275.27H201.513V278.06H198.798V275.675H197.343V277.67H193.713V275.675H192.258V281.765H198.798V279.32H201.513V282.245H202.983ZM203.373 289.19V287.96H195.873V286.67H202.983V282.965H194.343V284.195H201.528V285.47H194.418V289.19H203.373ZM193.713 278.885H197.343V280.535H193.713V278.885ZM215.735 283.76H207.11V289.115H215.735V283.76ZM208.655 280.175C208.76 280.4 209.06 280.685 209.51 281.06C210.23 281.66 210.875 282.155 211.655 282.695L212.495 281.615C211.61 281.03 210.83 280.46 210.125 279.815C209.465 279.215 209.345 278.705 209.345 277.745V277.355H212.075V276.08H204.935V277.355H207.845V277.805C207.845 278.9 207.59 279.47 206.855 280.19C206.315 280.715 205.43 281.39 204.47 282.065L205.34 283.13C206.18 282.545 206.99 281.9 207.635 281.345C208.115 280.94 208.55 280.43 208.64 280.175H208.655ZM214.28 287.855H208.565V285.02H214.28V287.855ZM215.735 283.085V275.27H214.265V278.525H211.73V279.8H214.265V283.085H215.735ZM230.677 275.795H229.207V277.7H223.057V275.81H221.587V281.93H230.677V275.795ZM226.882 289.1V284.705H232.477V283.445H219.787V284.705H225.382V289.1H226.882ZM223.057 278.96H229.207V280.655H223.057V278.96ZM243.61 289.1V281.66H245.68V280.37H243.61V275.27H242.14V289.1H243.61ZM241.255 284.39C239.785 284.525 238.57 284.615 236.755 284.66V280.55H235.285V284.69C234.505 284.705 233.605 284.705 232.585 284.705V285.995C237.325 285.995 238.885 285.92 241.375 285.68L241.255 284.39ZM233.26 277.865H238.78V278.885C238.78 279.62 238.75 281.15 238.45 282.59L239.905 282.77C240.16 281.585 240.25 279.635 240.25 278.645V276.575H233.26V277.865ZM249.507 286.085C254.982 282.77 255.192 281.93 255.192 279.2V276.545H248.997V277.82H253.722V279.185C253.722 281.315 253.512 282.095 248.727 284.9L249.507 286.085ZM259.602 289.1V275.27H258.117V289.1H259.602ZM267.239 279.17C267.389 279.485 268.439 279.98 269.084 280.25C270.044 280.655 270.929 280.985 271.964 281.33L272.504 280.13C271.289 279.74 270.434 279.44 269.639 279.08C268.619 278.615 267.974 278.165 267.974 277.52V277.085H271.934V275.855H262.544V277.085H266.489V277.52C266.489 278.165 265.814 278.675 264.824 279.095C264.014 279.44 263.189 279.74 261.959 280.13L262.514 281.33C263.519 281 264.419 280.67 265.424 280.25C266.054 279.98 267.074 279.485 267.224 279.17H267.239ZM268.169 286.055V283.355H273.584V282.095H260.894V283.355H266.669V286.055H268.169ZM264.209 284.81H262.724V288.95H272.024V287.66H264.209V284.81ZM279.137 286.85C279.137 288.305 280.697 289.49 283.307 289.49C285.917 289.49 287.477 288.305 287.477 286.85V286.25C287.477 284.795 285.917 283.61 283.307 283.61C280.697 283.61 279.137 284.795 279.137 286.25V286.85ZM281.747 278.195C281.747 279.755 280.997 280.49 276.767 282.26L277.322 283.46C282.032 281.465 283.202 280.61 283.202 278.3V276.125H277.337V277.385H281.747V278.195ZM286.022 286.76C286.022 287.495 284.972 288.275 283.307 288.275C281.642 288.275 280.592 287.495 280.592 286.76V286.34C280.592 285.605 281.642 284.825 283.307 284.825C284.972 284.825 286.022 285.605 286.022 286.34V286.76ZM289.382 278.42H287.417V275.27H285.947V283.43H287.417V279.71H289.382V278.42ZM298.039 285.005C296.839 285.11 295.774 285.2 294.439 285.245V283.895C296.029 283.64 296.974 282.65 296.974 281.6V281.03C296.974 279.815 295.714 278.675 293.629 278.675C291.544 278.675 290.284 279.815 290.284 281.03V281.6C290.284 282.68 291.274 283.715 292.969 283.925V285.29C291.949 285.32 290.764 285.32 289.294 285.32V286.58C294.034 286.58 295.669 286.475 298.159 286.22L298.039 285.005ZM300.319 289.1V282.095H302.389V280.805H300.319V275.27H298.849V289.1H300.319ZM297.529 276.83H294.364V275.165H292.894V276.83H289.579V278.105H297.529V276.83ZM293.629 282.74C292.429 282.74 291.724 282.125 291.724 281.465V281.165C291.724 280.505 292.414 279.89 293.629 279.89C294.829 279.89 295.534 280.505 295.534 281.165V281.465C295.534 282.125 294.844 282.74 293.629 282.74Z" fill="#222222"/>
<path d="M51.62 314.72H50.6V316.835H46.4V314.72H45.38V320.675H51.62V318.14H54.845V321.26H55.895V314.33H54.845V317.21H51.62V314.72ZM47.435 322.07V322.985H54.86V324.635H47.51V328.085H56.255V327.185H48.545V325.52H55.895V322.07H47.435ZM46.4 317.75H50.6V319.76H46.4V317.75ZM60.2923 328.01H68.6773V322.835H60.2923V328.01ZM61.3123 323.78H67.6573V327.065H61.3123V323.78ZM61.7023 318.98C61.7623 319.175 62.3473 319.685 63.0523 320.255C63.5023 320.615 64.2073 321.14 64.8223 321.56L65.4373 320.825C64.5823 320.255 63.7423 319.625 63.2623 319.22C62.2873 318.38 62.1823 317.975 62.1823 317.09V316.07H65.1223V315.155H58.0273V316.07H61.1173V317.135C61.1173 317.945 60.9523 318.47 60.2173 319.19C59.4823 319.91 58.5223 320.645 57.6373 321.275L58.2823 322.025C58.9723 321.53 59.9923 320.72 60.5173 320.255C61.1473 319.7 61.6273 319.205 61.6873 318.98H61.7023ZM68.6773 314.33H67.6273V317.72H64.7773V318.65H67.6273V322.025H68.6773V314.33ZM82.6297 322.85V324.455H76.4797V322.85H75.4447V328.04H83.6647V322.85H82.6297ZM76.9747 322.13C79.0897 322.13 80.1097 321.05 80.1097 320V319.55C80.1097 318.5 79.0897 317.42 76.9747 317.42C74.8597 317.42 73.8397 318.5 73.8397 319.55V320C73.8397 321.05 74.8597 322.13 76.9747 322.13ZM76.4797 327.095V325.385H82.6297V327.095H76.4797ZM76.9747 318.305C78.4147 318.305 79.0897 319.01 79.0897 319.61V319.94C79.0897 320.54 78.4147 321.245 76.9747 321.245C75.5347 321.245 74.8597 320.54 74.8597 319.94V319.61C74.8597 319.01 75.5347 318.305 76.9747 318.305ZM83.6647 314.33H82.6147V322.04H83.6647V318.665H85.7647V317.735H83.6647V314.33ZM77.4997 314.135H76.4497V315.86H73.0447V316.775H80.9347V315.86H77.4997V314.135ZM89.622 319.205C89.697 319.445 90.102 319.85 90.792 320.435C91.302 320.87 91.962 321.41 92.757 322.01L93.387 321.275C92.727 320.795 91.932 320.165 91.197 319.52C90.192 318.62 90.102 318.26 90.102 317.15V314.975H89.022V317.18C89.022 318.305 88.917 318.695 87.972 319.64C87.297 320.315 86.352 321.095 85.542 321.695L86.202 322.46C87.027 321.8 87.912 321.05 88.437 320.555C89.097 319.925 89.562 319.46 89.607 319.205H89.622ZM96.342 314.33H95.292V324.11H96.342V319.205H98.442V318.275H96.342V314.33ZM89.232 323.285H88.167V327.875H96.777V326.945H89.232V323.285ZM108.344 315.035H102.164V320.765H108.344V315.035ZM108.809 321.665H107.789V323.24H103.799V324.155H107.789V324.455C107.789 325.235 107.429 325.715 106.199 326.225C105.374 326.57 104.324 326.945 103.394 327.245L103.769 328.07C104.639 327.785 105.614 327.41 106.499 327.05C107.444 326.645 108.059 326.24 108.299 325.82C108.539 326.24 109.139 326.645 110.099 327.05C110.984 327.41 111.959 327.785 112.829 328.07L113.204 327.245C112.274 326.945 111.224 326.57 110.399 326.225C109.169 325.715 108.809 325.235 108.809 324.455V324.155H112.769V323.24H108.809V321.665ZM107.324 319.835H103.184V315.965H107.324V319.835ZM112.559 314.33H111.509V321.815H112.559V314.33ZM124.127 322.7C121.877 322.7 119.972 323.63 119.972 325.25V325.835C119.972 327.41 121.877 328.4 124.127 328.4C126.377 328.4 128.282 327.41 128.282 325.835V325.25C128.282 323.675 126.377 322.7 124.127 322.7ZM124.127 327.5C122.522 327.5 120.992 326.87 120.992 325.805V325.295C120.992 324.23 122.522 323.6 124.127 323.6C125.732 323.6 127.262 324.23 127.262 325.295V325.805C127.262 326.87 125.732 327.5 124.127 327.5ZM117.827 322.37C122.837 320.225 123.602 319.505 123.602 316.985V315.2H117.857V316.13H122.567V316.895C122.567 318.92 122.147 319.52 117.392 321.515L117.827 322.37ZM124.442 316.445V317.36H127.172V319.325H124.217V320.24H127.172V322.4H128.207V314.33H127.172V316.445H124.442ZM132.094 328.01H140.329V322.79H132.094V328.01ZM133.114 323.735H139.309V327.065H133.114V323.735ZM130.369 322.265C135.379 320.12 136.174 319.4 136.174 316.865V315.155H130.429V316.085H135.139V316.775C135.139 318.8 134.704 319.415 129.964 321.395L130.369 322.265ZM140.329 314.33H139.279V321.98H140.329V318.59H142.429V317.66H140.329V314.33ZM156.471 314.33H155.406V328.04H156.471V314.33ZM146.451 324.92C151.326 322.07 152.061 321.05 152.061 318.32V315.62H146.046V316.58H151.026V318.305C151.026 320.54 150.501 321.425 145.896 324.065L146.451 324.92ZM164.229 317.96H164.244C164.409 318.275 165.099 318.665 166.029 319.04C166.809 319.37 167.844 319.76 169.074 320.165L169.464 319.34C168.204 318.935 167.064 318.515 166.329 318.2C165.099 317.675 164.769 317.24 164.769 316.46V315.86H168.894V314.96H159.594V315.86H163.704V316.46C163.704 317.24 163.359 317.66 162.129 318.2C161.379 318.53 160.359 318.905 158.994 319.355L159.414 320.18C160.749 319.73 161.589 319.415 162.444 319.055C163.374 318.665 164.064 318.29 164.229 317.96ZM157.944 321.215V322.115H163.869V325.055H164.919V322.115H170.544V321.215H157.944ZM160.869 323.72H159.804V327.875H168.969V326.945H160.869V323.72ZM177.971 319.115C178.031 319.31 178.616 319.82 179.321 320.39C179.771 320.75 180.476 321.275 181.091 321.695L181.706 320.96C180.851 320.39 180.011 319.76 179.531 319.355C178.556 318.515 178.451 318.11 178.451 317.225V316.07H181.391V315.155H174.296V316.07H177.386V317.27C177.386 318.08 177.221 318.605 176.486 319.325C175.751 320.045 174.791 320.78 173.906 321.41L174.551 322.16C175.241 321.665 176.261 320.855 176.786 320.39C177.416 319.835 177.896 319.34 177.956 319.115H177.971ZM176.126 324.02H183.896V328.145H184.946V323.09H176.126V324.02ZM184.946 314.33H183.896V317.765H181.031V318.695H183.896V322.28H184.946V314.33ZM186.298 321.35V322.25H198.898V321.35H195.463V319.295C196.333 318.905 196.903 318.275 196.903 317.45V316.94C196.903 315.38 194.893 314.57 192.598 314.57C190.303 314.57 188.293 315.38 188.293 316.94V317.45C188.293 318.29 188.863 318.905 189.748 319.295V321.35H186.298ZM192.598 328.4C195.058 328.4 196.903 327.425 196.903 326.015V325.505C196.903 324.095 195.058 323.12 192.598 323.12C190.138 323.12 188.293 324.095 188.293 325.505V326.015C188.293 327.425 190.138 328.4 192.598 328.4ZM192.598 324.02C194.323 324.02 195.883 324.665 195.883 325.595V325.925C195.883 326.855 194.323 327.5 192.598 327.5C190.873 327.5 189.313 326.855 189.313 325.925V325.595C189.313 324.665 190.873 324.02 192.598 324.02ZM192.598 315.47C194.248 315.47 195.883 316.055 195.883 317.015V317.375C195.883 318.335 194.248 318.92 192.598 318.92C190.948 318.92 189.313 318.335 189.313 317.375V317.015C189.313 316.055 190.948 315.47 192.598 315.47ZM192.598 319.82C193.243 319.82 193.858 319.76 194.428 319.64V321.35H190.783V319.64C191.338 319.76 191.953 319.82 192.598 319.82ZM203.641 321.14C203.641 318.74 204.226 316.49 205.696 314.51H204.736C203.251 316.28 202.531 318.545 202.531 321.215V321.815C202.531 324.485 203.251 326.78 204.736 328.55H205.696C204.151 326.435 203.641 324.17 203.641 321.89V321.14ZM205.598 318.02H206.423L207.473 314.645H206.228L205.598 318.02ZM208.436 325.49V326.39H215.306V325.43H209.756L213.116 321.485C214.046 320.405 214.916 319.43 214.916 318.26V318.11C214.916 316.49 213.686 315.41 211.766 315.41C209.966 315.41 208.961 316.55 208.451 317.48L209.291 318.005C209.996 316.745 210.851 316.37 211.796 316.37C213.101 316.37 213.851 317.045 213.851 318.125V318.245C213.851 318.815 213.656 319.37 212.471 320.765L208.436 325.49ZM217.46 317.63C218.075 316.655 218.915 316.37 219.77 316.37C221.075 316.37 221.885 317.045 221.885 318.125V318.245C221.885 319.175 221.225 320.3 219.875 320.3H218.615V321.2H219.83C220.865 321.2 222.335 321.62 222.335 323.255V323.45C222.335 324.455 221.63 325.595 219.74 325.595C218.75 325.595 217.85 325.28 216.8 324.515L216.275 325.355C217.295 326.165 218.48 326.555 219.74 326.555C222.395 326.555 223.37 324.98 223.37 323.435V323.21C223.37 321.95 222.575 320.945 221.09 320.69C222.53 320.195 222.95 319.115 222.95 318.26V318.11C222.95 316.49 221.72 315.41 219.755 315.41C218.105 315.41 217.175 316.22 216.635 317.09L217.46 317.63ZM224.549 326.825H226.064V325.325H224.549V326.825ZM234.421 320.135C234.421 317.105 233.281 315.41 230.731 315.41C228.211 315.41 227.071 317.105 227.071 320.135V321.815C227.071 324.845 228.166 326.555 230.731 326.555C233.326 326.555 234.421 324.875 234.421 321.815V320.135ZM233.341 321.83C233.341 324.53 232.456 325.61 230.731 325.61C229.066 325.61 228.151 324.515 228.151 321.83V320.12C228.151 317.465 229.066 316.355 230.731 316.355C232.456 316.355 233.341 317.45 233.341 320.12V321.83ZM240.055 326.39V315.575H239.26L235.915 317.645L236.395 318.485L239.005 316.895V326.39H240.055ZM243.514 326.825H245.029V325.325H243.514V326.825ZM253.386 320.135C253.386 317.105 252.246 315.41 249.696 315.41C247.176 315.41 246.036 317.105 246.036 320.135V321.815C246.036 324.845 247.131 326.555 249.696 326.555C252.291 326.555 253.386 324.875 253.386 321.815V320.135ZM252.306 321.83C252.306 324.53 251.421 325.61 249.696 325.61C248.031 325.61 247.116 324.515 247.116 321.83V320.12C247.116 317.465 248.031 316.355 249.696 316.355C251.421 316.355 252.306 317.45 252.306 320.12V321.83ZM259.02 326.39V315.575H258.225L254.88 317.645L255.36 318.485L257.97 316.895V326.39H259.02ZM276.084 314.33H275.019V328.04H276.084V314.33ZM267.414 321.44C266.709 322.235 265.884 323.03 264.894 323.9L265.599 324.635C266.484 323.855 267.474 322.85 267.999 322.28C268.449 321.785 269.019 321.08 269.064 320.885H269.079C269.154 321.08 269.589 321.575 270.039 322.055C270.639 322.7 271.479 323.525 272.424 324.425L273.114 323.705C271.989 322.685 271.104 321.785 270.504 321.095C269.694 320.165 269.604 319.67 269.604 318.515V315.32H268.509V318.59C268.509 319.775 268.359 320.36 267.414 321.44ZM284.982 328.415C287.187 328.415 289.227 327.725 289.227 326.075V325.535C289.227 323.885 287.187 323.195 284.982 323.195C282.777 323.195 280.737 323.885 280.737 325.52V326.075C280.737 327.725 282.777 328.415 284.982 328.415ZM280.932 322.46C282.612 322.46 283.737 321.455 283.737 320.315V319.775C283.737 318.62 282.612 317.63 280.932 317.63C279.252 317.63 278.127 318.62 278.127 319.775V320.315C278.127 321.455 279.252 322.46 280.932 322.46ZM289.152 314.33H288.117V317.975H286.167V314.51H285.132V322.22H286.167V318.92H288.117V322.805H289.152V314.33ZM284.982 324.095C286.512 324.095 288.207 324.53 288.207 325.595V326.015C288.207 327.08 286.512 327.515 284.982 327.515C283.452 327.515 281.757 327.08 281.757 326.015V325.595C281.757 324.53 283.452 324.095 284.982 324.095ZM280.932 318.5C282.042 318.5 282.777 319.115 282.777 319.835V320.255C282.777 320.975 282.042 321.59 280.932 321.59C279.822 321.59 279.087 320.975 279.087 320.255V319.835C279.087 319.115 279.822 318.5 280.932 318.5ZM277.617 316.025V316.94H284.022V316.025H281.457V314.33H280.407V316.025H277.617ZM292.184 321.89C292.184 324.17 291.674 326.435 290.129 328.55H291.089C292.574 326.78 293.294 324.485 293.294 321.815V321.215C293.294 318.545 292.574 316.28 291.089 314.51H290.129C291.599 316.49 292.184 318.74 292.184 321.14V321.89Z" fill="#222222"/>
<path d="M44.85 349.866H50.154V348.778H44.85V349.866ZM70.0799 351.328H60.3049V357.397H70.0799V351.328ZM62.0559 347.265C62.1749 347.52 62.5149 347.843 63.0249 348.268C63.8409 348.948 64.5719 349.509 65.4559 350.121L66.4079 348.897C65.4049 348.234 64.5209 347.588 63.7219 346.857C62.9739 346.177 62.8379 345.599 62.8379 344.511V344.069H65.9319V342.624H57.8399V344.069H61.1379V344.579C61.1379 345.82 60.8489 346.466 60.0159 347.282C59.4039 347.877 58.4009 348.642 57.3129 349.407L58.2989 350.614C59.2509 349.951 60.1689 349.22 60.8999 348.591C61.4439 348.132 61.9369 347.554 62.0389 347.265H62.0559ZM68.4309 355.969H61.9539V352.756H68.4309V355.969ZM70.0799 350.563V341.706H68.4139V345.395H65.5409V346.84H68.4139V350.563H70.0799ZM74.7575 351.277V357.363H84.5325V351.277H74.7575ZM84.5325 350.512V341.706H82.8665V345.429H79.2795C79.2965 345.31 79.2965 345.157 79.2965 345.021V342.624H72.6155V344.052H77.6475V344.902C77.6475 346.67 76.7635 347.52 71.9695 349.526L72.5985 350.886C76.4575 349.254 78.2425 348.285 78.9225 346.874H82.8665V350.512H84.5325ZM76.4235 352.705H82.8665V355.935H76.4235V352.705ZM100.566 347.367H98.1522V341.706H96.4692V357.38H98.1522V348.829H100.566V347.367ZM90.5532 349.509C90.6892 349.849 91.0972 350.325 91.5732 350.835C92.2192 351.532 92.9842 352.297 94.1572 353.385L95.2452 352.229C94.2252 351.328 93.4772 350.614 92.7462 349.815C91.7092 348.659 91.3862 347.962 91.3862 346.619V342.845H89.6862V346.619C89.6862 347.826 89.4142 348.591 88.3772 349.764C87.6122 350.614 86.7282 351.481 85.6912 352.399L86.7962 353.538C87.9522 352.484 88.8532 351.583 89.5502 350.818C90.0942 350.223 90.3832 349.883 90.5362 349.509H90.5532ZM108.134 351.906C105.142 351.906 103.408 353.079 103.408 354.592V355.136C103.408 356.649 105.142 357.822 108.134 357.822C111.126 357.822 112.86 356.649 112.86 355.136V354.592C112.86 353.079 111.126 351.906 108.134 351.906ZM105.04 351.209C107.471 351.209 108.695 349.849 108.695 348.557V348.047C108.695 346.755 107.471 345.395 105.04 345.395C102.609 345.395 101.385 346.738 101.385 348.047V348.557C101.385 349.849 102.609 351.209 105.04 351.209ZM112.724 351.6V347.469H114.951V346.007H112.724V341.706H111.058V351.6H112.724ZM108.134 356.462C106.213 356.462 105.057 355.782 105.057 355.034V354.694C105.057 353.946 106.213 353.266 108.134 353.266C110.055 353.266 111.211 353.946 111.211 354.694V355.034C111.211 355.782 110.055 356.462 108.134 356.462ZM109.528 343.389H105.873V341.536H104.207V343.389H100.535V344.8H109.528V343.389ZM105.04 349.866C103.663 349.866 102.983 349.135 102.983 348.472V348.132C102.983 347.469 103.646 346.738 105.04 346.738C106.434 346.738 107.097 347.469 107.097 348.132V348.472C107.097 349.135 106.417 349.866 105.04 349.866ZM120.971 354.83C120.971 356.479 122.739 357.822 125.697 357.822C128.655 357.822 130.423 356.479 130.423 354.83V354.15C130.423 352.501 128.655 351.158 125.697 351.158C122.739 351.158 120.971 352.501 120.971 354.15V354.83ZM122.603 347.112C122.705 347.367 123.062 347.741 123.572 348.166C124.388 348.846 125.17 349.509 126.054 350.172L127.04 348.999C126.037 348.268 125.068 347.486 124.269 346.755C123.453 346.007 123.385 345.446 123.385 344.392V342.403H121.685V344.46C121.685 345.65 121.447 346.296 120.58 347.163C119.985 347.758 118.931 348.659 117.843 349.492L118.846 350.682C119.747 349.968 120.75 349.118 121.447 348.472C121.974 347.996 122.501 347.401 122.586 347.112H122.603ZM128.774 354.728C128.774 355.561 127.584 356.445 125.697 356.445C123.81 356.445 122.62 355.561 122.62 354.728V354.252C122.62 353.419 123.81 352.535 125.697 352.535C127.584 352.535 128.774 353.419 128.774 354.252V354.728ZM132.582 345.497H130.355V341.706H128.689V350.954H130.355V346.959H132.582V345.497ZM145.471 357.38V341.706H143.788V357.38H145.471ZM137.413 349.543C137.549 349.883 137.957 350.359 138.433 350.869C139.079 351.566 139.844 352.331 141.017 353.419L142.105 352.263C141.085 351.362 140.337 350.648 139.606 349.849C138.569 348.693 138.246 347.996 138.246 346.653V342.828H136.546V346.653C136.546 347.86 136.274 348.625 135.237 349.798C134.472 350.648 133.588 351.515 132.551 352.433L133.656 353.572C134.812 352.518 135.713 351.617 136.41 350.852C136.954 350.257 137.243 349.917 137.396 349.543H137.413ZM157.357 351.464C154.603 351.464 152.461 352.535 152.461 354.337V354.949C152.461 356.751 154.603 357.822 157.357 357.822C160.111 357.822 162.253 356.751 162.253 354.949V354.337C162.253 352.535 160.111 351.464 157.357 351.464ZM157.34 348.914V345.837H155.64V348.914H150.166V350.342H164.548V348.914H157.34ZM152.053 343.763H160.706V344.341C160.706 345.259 160.604 346.483 160.315 347.758L161.981 347.945C162.27 346.738 162.406 345.055 162.406 344.324V342.335H152.053V343.763ZM157.357 356.445C155.555 356.445 154.127 355.731 154.127 354.847V354.439C154.127 353.555 155.555 352.841 157.357 352.841C159.159 352.841 160.587 353.555 160.587 354.439V354.847C160.587 355.731 159.159 356.445 157.357 356.445ZM171.809 342.012C168.613 342.012 166.539 343.372 166.539 345.378V345.99C166.539 347.996 168.613 349.356 171.809 349.356C175.005 349.356 177.079 347.996 177.079 345.99V345.378C177.079 343.372 175.005 342.012 171.809 342.012ZM175.379 357.346V352.229H179V350.801H164.618V352.229H168.239V357.346H169.922V352.229H173.696V357.346H175.379ZM171.809 347.894C169.633 347.894 168.188 347.095 168.188 345.956V345.412C168.188 344.273 169.633 343.474 171.809 343.474C173.985 343.474 175.43 344.273 175.43 345.412V345.956C175.43 347.095 173.985 347.894 171.809 347.894ZM179.513 357.975H180.873L182.182 354.099H180.227L179.513 357.975ZM196.784 352.348C195.39 352.484 193.996 352.586 192.398 352.637V350.07C194.438 349.747 195.696 348.234 195.696 346.755V345.973C195.696 344.29 194.115 342.59 191.531 342.59C188.947 342.59 187.366 344.29 187.366 345.973V346.755C187.366 348.251 188.624 349.747 190.681 350.07V352.688C189.474 352.705 188.131 352.722 186.618 352.705V354.167C191.072 354.167 194.064 354.048 196.937 353.759L196.784 352.348ZM199.453 357.38V341.706H197.787V357.38H199.453ZM191.531 348.676C190.086 348.676 188.981 347.707 188.981 346.653V346.075C188.981 344.97 190.086 344.052 191.531 344.052C192.976 344.052 194.081 344.97 194.081 346.075V346.653C194.081 347.707 192.976 348.676 191.531 348.676ZM213.073 342.301H211.407V344.46H204.437V342.318H202.771V349.254H213.073V342.301ZM208.772 357.38V352.399H215.113V350.971H200.731V352.399H207.072V357.38H208.772ZM204.437 345.888H211.407V347.809H204.437V345.888ZM228.273 351.328H218.498V357.397H228.273V351.328ZM220.249 347.265C220.368 347.52 220.708 347.843 221.218 348.268C222.034 348.948 222.765 349.509 223.649 350.121L224.601 348.897C223.598 348.234 222.714 347.588 221.915 346.857C221.167 346.177 221.031 345.599 221.031 344.511V344.069H224.125V342.624H216.033V344.069H219.331V344.579C219.331 345.82 219.042 346.466 218.209 347.282C217.597 347.877 216.594 348.642 215.506 349.407L216.492 350.614C217.444 349.951 218.362 349.22 219.093 348.591C219.637 348.132 220.13 347.554 220.232 347.265H220.249ZM226.624 355.969H220.147V352.756H226.624V355.969ZM228.273 350.563V341.706H226.607V345.395H223.734V346.84H226.607V350.563H228.273ZM232.951 351.277V357.363H242.726V351.277H232.951ZM242.726 350.512V341.706H241.06V345.429H237.473C237.49 345.31 237.49 345.157 237.49 345.021V342.624H230.809V344.052H235.841V344.902C235.841 346.67 234.957 347.52 230.163 349.526L230.792 350.886C234.651 349.254 236.436 348.285 237.116 346.874H241.06V350.512H242.726ZM234.617 352.705H241.06V355.935H234.617V352.705ZM260.987 341.706H259.338V347.163H257.485V342.029H255.836V356.615H257.485V348.625H259.338V357.38H260.987V341.706ZM254 343.202H247.965V353.181H250.192C251.943 353.181 253.167 353.096 254.935 352.807L254.765 351.396C253.167 351.651 252.062 351.719 250.532 351.719H249.665V344.664H254V343.202ZM268.962 357.822C271.954 357.822 273.858 356.615 273.858 355V354.422C273.858 352.807 271.954 351.6 268.962 351.6C265.97 351.6 264.066 352.807 264.066 354.422V355C264.066 356.615 265.97 357.822 268.962 357.822ZM268.962 352.977C270.883 352.977 272.192 353.708 272.192 354.524V354.898C272.192 355.714 270.883 356.445 268.962 356.445C267.041 356.445 265.732 355.714 265.732 354.898V354.524C265.732 353.708 267.041 352.977 268.962 352.977ZM261.771 349.152V350.58H276.153V349.152H261.771ZM268.962 341.927C265.987 341.927 263.93 342.998 263.93 344.783V345.259C263.93 347.044 265.987 348.115 268.962 348.115C271.937 348.115 273.994 347.044 273.994 345.259V344.783C273.994 342.998 271.937 341.927 268.962 341.927ZM268.962 346.721C266.99 346.721 265.579 346.092 265.579 345.191V344.851C265.579 343.95 266.99 343.321 268.962 343.321C270.934 343.321 272.345 343.95 272.345 344.851V345.191C272.345 346.092 270.934 346.721 268.962 346.721ZM279.896 348.982C285.319 348.948 287.291 348.863 289.365 348.676L289.246 347.367C288.566 347.435 287.92 347.469 287.206 347.52V343.729H288.668V342.369H279.998V343.729H281.494V347.639H279.896V348.982ZM292.884 357.482V356.088H284.384V354.592H292.442V350.359H282.65V351.753H290.793V353.232H282.735V357.482H292.884ZM292.442 349.577V341.706H290.776V349.577H292.442ZM283.109 347.639V343.729H285.591V347.588L283.109 347.639ZM304.702 353.861V350.07C305.722 349.407 306.368 348.438 306.368 347.197V346.381C306.368 344.018 303.971 342.556 301.098 342.556C298.225 342.556 295.828 344.018 295.828 346.381V347.197C295.828 348.438 296.474 349.407 297.494 350.07V353.861H293.907V355.289H308.289V353.861H304.702ZM301.098 344.018C303.053 344.018 304.719 344.953 304.719 346.466V347.112C304.719 348.625 303.053 349.56 301.098 349.56C299.143 349.56 297.477 348.625 297.477 347.112V346.466C297.477 344.953 299.143 344.018 301.098 344.018ZM301.098 351.005C301.778 351.005 302.424 350.92 303.036 350.767V353.861H299.16V350.767C299.755 350.92 300.418 351.005 301.098 351.005Z" fill="#19B29B"/>
<path d="M36.5 323C37.3284 323 38 322.328 38 321.5C38 320.672 37.3284 320 36.5 320C35.6716 320 35 320.672 35 321.5C35 322.328 35.6716 323 36.5 323Z" fill="#CCCCCC"/>
<path d="M173 399L179 389H167L173 399Z" fill="#19B29B"/>
<rect x="1.5" y="470.5" width="342" height="188" rx="88.5" fill="white" stroke="url(#paint0_linear_1_46461)" stroke-width="3"/>
<path d="M52.005 503.29C52.005 504.67 53.355 506.02 55.35 506.02C57.3 506.02 58.635 504.73 58.695 503.38H61.815V506.335H62.865V499.33H61.815V502.45H58.695C58.62 501.115 57.285 499.84 55.35 499.84C53.355 499.84 52.005 501.19 52.005 502.57V503.29ZM61.83 507.145V509.035H55.53V507.145H54.495V513.025H62.865V507.145H61.83ZM57.675 503.185C57.675 504.175 56.685 505.075 55.35 505.075C54.015 505.075 53.025 504.175 53.025 503.185V502.675C53.025 501.685 54.015 500.785 55.35 500.785C56.685 500.785 57.675 501.685 57.675 502.675V503.185ZM55.53 512.08V509.965H61.83V512.08H55.53ZM66.1523 500.155V505.495H75.0023V500.155H66.1523ZM67.2023 501.085H73.9523V504.565H67.2023V501.085ZM64.2773 507.415V508.33H70.0523V513.04H71.1173V508.33H76.8773V507.415H64.2773ZM80.8697 506.515C82.9847 506.515 84.2147 504.97 84.2147 503.605V502.765C84.2147 501.4 82.9847 499.855 80.8697 499.855C78.7547 499.855 77.5247 501.415 77.5247 502.765V503.605C77.5247 504.97 78.7547 506.515 80.8697 506.515ZM80.8697 500.8C82.2197 500.8 83.1947 501.7 83.1947 502.855V503.515C83.1947 504.67 82.2197 505.57 80.8697 505.57C79.5197 505.57 78.5447 504.67 78.5447 503.515V502.855C78.5447 501.73 79.5197 500.8 80.8697 500.8ZM84.9347 501.205V502.12H87.3947V504.325H84.9347V505.24H87.3947V507.25H88.4297V499.33H87.3947V501.205H84.9347ZM79.6247 508.99H87.3947V513.145H88.4297V508.06H79.6247V508.99ZM92.257 510.97C92.257 512.44 93.847 513.415 96.352 513.415C98.857 513.415 100.447 512.44 100.447 510.97V510.43C100.447 508.975 98.857 507.985 96.352 507.985C93.847 507.985 92.257 508.96 92.257 510.43V510.97ZM91.342 503.89H96.232V500.02H90.307V500.95H95.197V502.99H90.307V506.875C94.417 506.875 96.247 506.815 97.987 506.59L97.897 505.69C96.007 505.915 94.777 505.945 91.342 505.945V503.89ZM96.352 512.515C94.462 512.515 93.277 511.795 93.277 510.925V510.475C93.277 509.605 94.462 508.885 96.352 508.885C98.242 508.885 99.427 509.605 99.427 510.475V510.925C99.427 511.795 98.242 512.515 96.352 512.515ZM100.372 499.33H99.337V507.625H100.372V505.24H102.457V504.31H100.372V502.45H102.457V501.52H100.372V499.33ZM112.494 500.035H106.314V505.765H112.494V500.035ZM112.959 506.665H111.939V508.24H107.949V509.155H111.939V509.455C111.939 510.235 111.579 510.715 110.349 511.225C109.524 511.57 108.474 511.945 107.544 512.245L107.919 513.07C108.789 512.785 109.764 512.41 110.649 512.05C111.594 511.645 112.209 511.24 112.449 510.82C112.689 511.24 113.289 511.645 114.249 512.05C115.134 512.41 116.109 512.785 116.979 513.07L117.354 512.245C116.424 511.945 115.374 511.57 114.549 511.225C113.319 510.715 112.959 510.235 112.959 509.455V509.155H116.919V508.24H112.959V506.665ZM111.474 504.835H107.334V500.965H111.474V504.835ZM116.709 499.33H115.659V506.815H116.709V499.33ZM127.302 504.01C127.437 504.31 127.977 504.805 129.057 505.525C129.957 506.125 131.172 506.845 132.237 507.43L132.792 506.605C131.502 505.93 130.362 505.255 129.657 504.775C128.172 503.77 127.842 503.305 127.842 501.685V500.23H126.747V501.685C126.747 503.305 126.402 503.77 124.917 504.775C124.212 505.255 123.057 505.945 121.752 506.62L122.322 507.46C123.402 506.875 124.632 506.14 125.532 505.54C126.612 504.82 127.167 504.31 127.287 504.01H127.302ZM120.987 510.19V511.105H133.587V510.19H127.827V507.025H126.732V510.19H120.987ZM140.564 504.205H139.514V506.2H133.739V507.1H146.339V506.2H140.564V504.205ZM145.364 503.95C144.029 503.425 142.904 502.96 142.184 502.6C140.834 501.94 140.579 501.55 140.579 500.515V499.51H139.514V500.515C139.514 501.55 139.244 501.94 137.894 502.6C137.174 502.96 136.064 503.425 134.714 503.95L135.149 504.805C136.199 504.4 137.384 503.875 138.134 503.515C139.409 502.915 139.934 502.54 140.039 502.24H140.054C140.159 502.525 140.684 502.9 141.959 503.5C142.709 503.86 143.909 504.385 144.959 504.79L145.364 503.95ZM135.344 509.665H143.474V513.145H144.524V508.75H135.344V509.665ZM148.996 513.01H157.231V507.79H148.996V513.01ZM150.016 508.735H156.211V512.065H150.016V508.735ZM147.271 507.265C152.281 505.12 153.076 504.4 153.076 501.865V500.155H147.331V501.085H152.041V501.775C152.041 503.8 151.606 504.415 146.866 506.395L147.271 507.265ZM157.231 499.33H156.181V506.98H157.231V503.59H159.331V502.66H157.231V499.33ZM168.829 507.7C166.579 507.7 164.749 508.66 164.749 510.265V510.835C164.749 512.41 166.579 513.4 168.829 513.4C171.079 513.4 172.909 512.41 172.909 510.835V510.265C172.909 508.69 171.079 507.7 168.829 507.7ZM168.829 512.5C167.224 512.5 165.769 511.855 165.769 510.79V510.31C165.769 509.245 167.224 508.6 168.829 508.6C170.434 508.6 171.889 509.245 171.889 510.31V510.79C171.889 511.855 170.434 512.5 168.829 512.5ZM162.904 507.37C167.914 505.225 168.679 504.505 168.679 501.985V500.2H162.934V501.13H167.644V501.895C167.644 503.92 167.224 504.52 162.469 506.515L162.904 507.37ZM172.834 499.33H171.784V507.4H172.834V503.53H174.934V502.6H172.834V499.33ZM183.681 509.17C182.451 509.305 181.266 509.395 179.796 509.44V507.745C181.371 507.535 182.436 506.545 182.436 505.48V504.91C182.436 503.695 181.086 502.615 179.181 502.615C177.276 502.615 175.926 503.68 175.926 504.91V505.48C175.926 506.59 177.066 507.61 178.731 507.76V509.47C177.651 509.5 176.406 509.5 174.891 509.5V510.43C179.481 510.43 181.296 510.34 183.771 510.085L183.681 509.17ZM185.781 499.33H184.716V513.04H185.781V505.93H187.956V504.985H185.781V499.33ZM179.181 503.515C180.531 503.515 181.431 504.25 181.431 504.985V505.405C181.431 506.14 180.531 506.89 179.181 506.89C177.831 506.89 176.931 506.14 176.931 505.405V504.985C176.931 504.25 177.831 503.515 179.181 503.515ZM179.706 499.21H178.656V500.92H175.176V501.85H183.051V500.92H179.706V499.21ZM188.603 510.625H190.118V509.125H188.603V510.625ZM188.603 503.995H190.118V502.495H188.603V503.995ZM200.419 508.09C198.169 508.09 196.159 508.885 196.159 510.49V511C196.159 512.575 198.169 513.4 200.419 513.4C202.669 513.4 204.679 512.575 204.679 511V510.49C204.679 508.915 202.669 508.09 200.419 508.09ZM194.119 506.095V506.995H206.719V506.095H200.944V504.37H204.844V503.47H197.059V500.785H204.769V499.885H196.024V504.37H199.894V506.095H194.119ZM200.419 512.5C198.799 512.5 197.179 511.945 197.179 510.94V510.55C197.179 509.545 198.799 508.99 200.419 508.99C202.039 508.99 203.659 509.545 203.659 510.55V510.94C203.659 511.945 202.039 512.5 200.419 512.5ZM209.811 506.95V507.865H217.236V509.575H209.886V513.085H218.631V512.185H210.921V510.46H218.271V506.95H209.811ZM211.296 503.5C211.371 503.695 211.866 504.115 212.586 504.64C213.171 505.06 213.891 505.57 214.461 505.93L215.046 505.18C214.296 504.73 213.531 504.205 212.901 503.725C211.866 502.945 211.776 502.72 211.776 501.55V500.845H214.716V499.93H207.621V500.845H210.711V501.685C210.711 502.705 210.531 503.08 209.661 503.815C208.956 504.4 208.101 505.015 207.231 505.57L207.831 506.35C208.656 505.81 209.646 505.06 210.186 504.625C210.861 504.07 211.236 503.695 211.281 503.5H211.296ZM214.356 502.27V503.2H217.221V506.14H218.271V499.33H217.221V502.27H214.356ZM230.903 499.33H229.838V513.04H230.903V499.33ZM220.883 509.92C225.758 507.07 226.493 506.05 226.493 503.32V500.62H220.478V501.58H225.458V503.305C225.458 505.54 224.933 506.425 220.328 509.065L220.883 509.92ZM245.516 507.115V509.005H239.216V507.115H238.181V513.025H246.551V507.115H245.516ZM239.741 503.755C239.816 503.95 240.311 504.37 241.031 504.895C241.616 505.315 242.306 505.795 242.921 506.185L243.506 505.435C242.756 504.985 241.976 504.46 241.346 503.98C240.311 503.2 240.221 502.99 240.221 501.805V501.07H243.206V500.155H236.036V501.07H239.156V501.94C239.156 502.96 238.976 503.335 238.106 504.07C237.401 504.655 236.546 505.27 235.646 505.84L236.246 506.62C237.101 506.065 238.091 505.315 238.631 504.88C239.306 504.325 239.681 503.95 239.726 503.755H239.741ZM239.216 512.08V509.935H245.516V512.08H239.216ZM246.551 499.33H245.501V506.305H246.551V499.33ZM248.248 502.42H250.918V503.77C250.918 505.105 250.768 505.72 250.048 506.635C249.598 507.22 248.698 508.18 247.813 509.02L248.518 509.725C249.463 508.795 250.153 508.03 250.708 507.385C251.158 506.845 251.413 506.425 251.458 506.26H251.473C251.533 506.425 251.848 506.905 252.283 507.4C252.793 507.97 253.588 508.885 254.248 509.545L254.938 508.87C254.098 508.03 253.378 507.235 252.883 506.62C252.133 505.66 251.968 505.165 251.968 503.77V502.42H254.503V501.49H251.968V499.615H250.918V501.49H248.248V502.42ZM253.708 504.4V505.36H256.093V512.365H257.143V499.615H256.093V504.4H253.708ZM259.798 499.33H258.748V513.04H259.798V499.33ZM260.73 510.19V511.105H273.33V510.19H268.215V505.165H267.15V510.19H264.825V505.165H263.76V510.19H260.73ZM271.11 508.405C271.455 506.47 271.575 504.745 271.575 502.225V500.605H262.32V501.535H270.495V502.78C270.495 504.73 270.39 506.425 270.03 508.285L271.11 508.405ZM279.783 504.865C282.033 504.865 284.088 504.01 284.088 502.495V501.955C284.088 500.44 282.033 499.585 279.783 499.585C277.533 499.585 275.478 500.425 275.478 501.955V502.495C275.478 504.01 277.533 504.865 279.783 504.865ZM275.088 509.74H283.218V513.145H284.268V508.825H282.438V506.86H286.083V505.96H273.483V506.86H277.128V508.825H275.088V509.74ZM279.783 500.485C281.403 500.485 283.068 501.1 283.068 502.045V502.405C283.068 503.35 281.403 503.965 279.783 503.965C278.163 503.965 276.498 503.35 276.498 502.405V502.045C276.498 501.1 278.163 500.485 279.783 500.485ZM278.163 506.86H281.403V508.825H278.163V506.86ZM296.195 500.035H290.015V505.765H296.195V500.035ZM296.66 506.665H295.64V508.24H291.65V509.155H295.64V509.455C295.64 510.235 295.28 510.715 294.05 511.225C293.225 511.57 292.175 511.945 291.245 512.245L291.62 513.07C292.49 512.785 293.465 512.41 294.35 512.05C295.295 511.645 295.91 511.24 296.15 510.82C296.39 511.24 296.99 511.645 297.95 512.05C298.835 512.41 299.81 512.785 300.68 513.07L301.055 512.245C300.125 511.945 299.075 511.57 298.25 511.225C297.02 510.715 296.66 510.235 296.66 509.455V509.155H300.62V508.24H296.66V506.665ZM295.175 504.835H291.035V500.965H295.175V504.835ZM300.41 499.33H299.36V506.815H300.41V499.33ZM60.705 531.31C60.135 531.385 59.565 531.43 58.935 531.475C59.1 530.53 59.19 529.615 59.19 528.67V526.99H52.875V527.935H58.155V528.805C58.155 529.675 58.065 530.53 57.87 531.535C56.34 531.61 54.465 531.64 51.78 531.64V532.555C53.115 532.555 54.27 532.555 55.32 532.525V535.195H56.385V532.51C58.185 532.45 59.565 532.36 60.795 532.21L60.705 531.31ZM58.74 533.665V534.595H61.83V536.935H62.88V526.33H61.83V533.665H58.74ZM55.2 535.975H54.135V539.875H63.225V538.945H55.2V535.975ZM68.1173 533.515C70.2323 533.515 71.4623 531.97 71.4623 530.605V529.765C71.4623 528.4 70.2323 526.855 68.1173 526.855C66.0023 526.855 64.7723 528.415 64.7723 529.765V530.605C64.7723 531.97 66.0023 533.515 68.1173 533.515ZM68.1173 527.8C69.4673 527.8 70.4423 528.7 70.4423 529.855V530.515C70.4423 531.67 69.4673 532.57 68.1173 532.57C66.7673 532.57 65.7923 531.67 65.7923 530.515V529.855C65.7923 528.73 66.7673 527.8 68.1173 527.8ZM72.1823 528.205V529.12H74.6423V531.325H72.1823V532.24H74.6423V534.25H75.6773V526.33H74.6423V528.205H72.1823ZM66.8723 535.99H74.6423V540.145H75.6773V535.06H66.8723V535.99ZM84.0347 526.72H83.0147V528.835H78.8897V526.72H77.8697V532.69H84.0347V526.72ZM79.9397 534.1V535.015H87.3647V536.65H80.0147V540.085H88.7597V539.185H81.0497V537.535H88.3997V534.1H79.9397ZM84.8897 528.175V529.09H87.3647V530.755H84.8897V531.67H87.3647V533.29H88.3997V526.33H87.3647V528.175H84.8897ZM78.8897 529.75H83.0147V531.775H78.8897V529.75ZM97.237 532.36C99.157 532.36 100.702 531.295 100.702 529.81V529.18C100.702 527.695 99.157 526.63 97.237 526.63C95.317 526.63 93.772 527.695 93.772 529.18V529.81C93.772 531.295 95.317 532.36 97.237 532.36ZM99.742 535.96V536.905H103.042V540.04H104.107V526.33H103.042V535.96H99.742ZM97.237 527.575C98.527 527.575 99.682 528.265 99.682 529.255V529.735C99.682 530.725 98.527 531.415 97.237 531.415C95.947 531.415 94.792 530.725 94.792 529.735V529.255C94.792 528.265 95.947 527.575 97.237 527.575ZM101.992 533.38C99.982 533.605 97.252 533.71 92.917 533.71V534.64C94.357 534.64 95.557 534.625 96.607 534.61V539.605H97.687V534.58C99.397 534.52 100.687 534.43 102.082 534.295L101.992 533.38ZM106.824 531.655L106.854 532.6L114.999 532.45C114.909 533.59 114.744 534.67 114.534 535.825L115.629 535.945C115.989 534.01 116.169 532.27 116.169 529.75V527.575H107.049V528.505H115.074V530.305C115.074 530.74 115.059 531.145 115.044 531.55L106.824 531.655ZM105.384 537.19V538.105H117.984V537.19H105.384ZM127.692 534.115V536.005H121.542V534.115H120.507V540.025H128.727V534.115H127.692ZM121.542 539.08V536.935H127.692V539.08H121.542ZM122.007 530.47C122.097 530.725 122.652 531.205 123.357 531.76C123.792 532.105 124.452 532.6 125.142 533.095L125.742 532.33C124.962 531.805 124.122 531.175 123.567 530.71C122.622 529.915 122.487 529.57 122.487 528.475V526.885H121.407V528.52C121.407 529.615 121.167 530.125 120.297 530.92C119.682 531.475 118.827 532.15 117.882 532.81L118.527 533.575C119.532 532.84 120.357 532.165 120.882 531.7C121.542 531.13 121.917 530.71 121.992 530.47H122.007ZM128.727 526.33H127.692V533.305H128.727V531.505H130.827V530.575H128.727V529.03H130.827V528.1H128.727V526.33ZM136.544 533.92V534.835H143.969V536.56H136.619V540.085H145.364V539.185H137.654V537.445H145.004V533.92H136.544ZM145.004 526.33H143.954V533.11H145.004V526.33ZM138.029 530.245C138.119 530.5 138.674 530.98 139.379 531.535C139.814 531.88 140.489 532.39 141.194 532.885L141.794 532.12C140.999 531.595 140.144 530.95 139.589 530.485C138.644 529.69 138.509 529.345 138.509 528.25V526.675H137.429V528.295C137.429 529.39 137.189 529.9 136.319 530.695C135.704 531.25 134.819 531.955 133.889 532.6L134.519 533.365C135.539 532.63 136.379 531.94 136.904 531.475C137.564 530.905 137.939 530.485 138.014 530.245H138.029ZM157.801 526.33H156.736V540.04H157.801V526.33ZM149.131 533.44C148.426 534.235 147.601 535.03 146.611 535.9L147.316 536.635C148.201 535.855 149.191 534.85 149.716 534.28C150.166 533.785 150.736 533.08 150.781 532.885H150.796C150.871 533.08 151.306 533.575 151.756 534.055C152.356 534.7 153.196 535.525 154.141 536.425L154.831 535.705C153.706 534.685 152.821 533.785 152.221 533.095C151.411 532.165 151.321 531.67 151.321 530.515V527.32H150.226V530.59C150.226 531.775 150.076 532.36 149.131 533.44Z" fill="#222222"/>
<path d="M43.5 508C44.3284 508 45 507.328 45 506.5C45 505.672 44.3284 505 43.5 505C42.6716 505 42 505.672 42 506.5C42 507.328 42.6716 508 43.5 508Z" fill="#CCCCCC"/>
<path d="M55.785 562.355C55.845 562.55 56.43 563.06 57.135 563.63C57.585 563.99 58.305 564.53 58.905 564.95L59.52 564.2C58.665 563.63 57.825 563 57.345 562.595C56.37 561.755 56.265 561.35 56.265 560.495V559.775H59.295V558.86H56.265V557.15H55.2V558.86H52.02V559.775H55.2V560.54C55.2 561.32 55.035 561.845 54.3 562.565C53.565 563.285 52.605 564.02 51.72 564.65L52.365 565.4C53.055 564.905 54.075 564.095 54.6 563.63C55.23 563.075 55.71 562.58 55.77 562.355H55.785ZM53.685 567.215H61.245V571.145H62.295V566.285H53.685V567.215ZM62.295 557.33H61.245V565.475H62.295V561.83H64.395V560.9H62.295V557.33ZM70.5773 565.97C68.3273 565.97 66.3173 566.81 66.3173 568.415V568.955C66.3173 570.53 68.3273 571.4 70.5773 571.4C72.8273 571.4 74.8373 570.53 74.8373 568.955V568.415C74.8373 566.84 72.8273 565.97 70.5773 565.97ZM70.5773 570.5C68.9573 570.5 67.3373 569.9 67.3373 568.895V568.475C67.3373 567.47 68.9573 566.87 70.5773 566.87C72.1973 566.87 73.8173 567.47 73.8173 568.475V568.895C73.8173 569.9 72.1973 570.5 70.5773 570.5ZM64.2773 563.765V564.665H76.8773V563.765H70.3673V560.87H69.2873V563.765H64.2773ZM65.9423 557.93V558.86H73.9073V559.34C73.9073 560.345 73.7723 561.56 73.5323 562.655L74.5823 562.775C74.7923 561.815 74.9573 560.39 74.9573 559.325V557.93H65.9423ZM84.1997 563.015C84.1997 561.77 83.0147 560.6 81.0647 560.6C79.1147 560.6 77.9297 561.77 77.9297 563.015V563.585C77.9297 564.83 79.1147 566 81.0647 566C83.0147 566 84.1997 564.83 84.1997 563.585V563.015ZM85.0547 560.945V561.86H87.3797V563.885H85.0547V564.8H87.3797V567.305H88.4147V557.33H87.3797V560.945H85.0547ZM81.0647 565.1C79.7297 565.1 78.9347 564.275 78.9347 563.54V563.06C78.9347 562.325 79.7297 561.5 81.0647 561.5C82.3997 561.5 83.1947 562.325 83.1947 563.06V563.54C83.1947 564.275 82.3997 565.1 81.0647 565.1ZM81.0797 567.08H80.0147V570.875H88.7597V569.945H81.0797V567.08ZM81.5747 557.18H80.5247V558.95H77.1497V559.865H85.0997V558.95H81.5747V557.18ZM96.547 565.7C94.297 565.7 92.467 566.66 92.467 568.265V568.835C92.467 570.41 94.297 571.4 96.547 571.4C98.797 571.4 100.627 570.41 100.627 568.835V568.265C100.627 566.69 98.797 565.7 96.547 565.7ZM96.547 570.5C94.942 570.5 93.487 569.855 93.487 568.79V568.31C93.487 567.245 94.942 566.6 96.547 566.6C98.152 566.6 99.607 567.245 99.607 568.31V568.79C99.607 569.855 98.152 570.5 96.547 570.5ZM94.027 562.1C94.087 562.295 94.672 562.805 95.377 563.375C95.827 563.735 96.547 564.275 97.147 564.695L97.762 563.945C96.907 563.375 96.067 562.745 95.587 562.34C94.612 561.5 94.507 561.095 94.507 560.21V559.115H97.462V558.2H90.352V559.115H93.442V560.255C93.442 561.065 93.277 561.59 92.542 562.31C91.807 563.03 90.847 563.765 89.962 564.395L90.607 565.145C91.297 564.65 92.317 563.84 92.842 563.375C93.472 562.82 93.952 562.325 94.012 562.1H94.027ZM100.552 557.33H99.502V565.4H100.552V561.725H102.652V560.795H100.552V557.33ZM113.574 558.59H106.254V559.52H109.404V561.785C109.404 562.925 109.269 563.495 108.324 564.56C107.634 565.34 106.779 566.165 105.834 567.005L106.539 567.71C107.439 566.93 108.444 565.865 108.849 565.445C109.284 564.98 109.869 564.305 109.944 564.035H109.959C110.034 564.23 110.454 564.695 110.889 565.16C111.489 565.805 112.209 566.54 113.244 567.5L113.934 566.795C112.824 565.805 111.939 564.92 111.354 564.245C110.559 563.33 110.469 562.85 110.469 561.71V559.52H113.574V558.59ZM116.859 557.33H115.794V571.04H116.859V557.33ZM122.652 562.64C124.482 562.64 125.952 561.68 125.952 560.405V559.835C125.952 558.56 124.482 557.6 122.652 557.6C120.822 557.6 119.352 558.56 119.352 559.835V560.405C119.352 561.68 120.822 562.64 122.652 562.64ZM125.352 565.595V566.525H128.442V567.98H129.492V557.33H128.442V565.595H125.352ZM122.652 558.5C123.912 558.5 124.947 559.145 124.947 559.925V560.315C124.947 561.095 123.912 561.74 122.652 561.74C121.392 561.74 120.357 561.095 120.357 560.315V559.925C120.357 559.145 121.392 558.5 122.652 558.5ZM121.797 567.245H120.732V570.875H129.807V569.945H121.797V567.245ZM127.302 563.285C124.722 563.555 122.712 563.615 118.392 563.615V564.53C119.772 564.53 120.927 564.53 121.932 564.5V566.66H122.997V564.485C124.767 564.425 126.042 564.335 127.392 564.2L127.302 563.285ZM133.904 571.01H142.289V565.835H133.904V571.01ZM134.924 566.78H141.269V570.065H134.924V566.78ZM135.314 561.98C135.374 562.175 135.959 562.685 136.664 563.255C137.114 563.615 137.819 564.14 138.434 564.56L139.049 563.825C138.194 563.255 137.354 562.625 136.874 562.22C135.899 561.38 135.794 560.975 135.794 560.09V559.07H138.734V558.155H131.639V559.07H134.729V560.135C134.729 560.945 134.564 561.47 133.829 562.19C133.094 562.91 132.134 563.645 131.249 564.275L131.894 565.025C132.584 564.53 133.604 563.72 134.129 563.255C134.759 562.7 135.239 562.205 135.299 561.98H135.314ZM142.289 557.33H141.239V560.72H138.389V561.65H141.239V565.025H142.289V557.33ZM146.626 571.01H155.011V565.79H146.626V571.01ZM144.616 565.28C148.201 563.75 149.641 562.94 150.166 561.665H153.961V564.98H155.011V557.33H153.961V560.735H150.406C150.436 560.465 150.451 560.18 150.451 559.865V558.155H144.676V559.085H149.416V559.775C149.416 561.8 148.951 562.43 144.211 564.41L144.616 565.28ZM147.646 566.735H153.991V570.065H147.646V566.735ZM164.434 569.39V558.575H163.639L160.294 560.645L160.774 561.485L163.384 559.895V569.39H164.434ZM176.803 567.17C175.558 567.305 174.283 567.395 172.708 567.44V565.745C174.298 565.535 175.348 564.545 175.348 563.48V562.91C175.348 561.695 174.028 560.615 172.078 560.615C170.143 560.615 168.808 561.695 168.808 562.91V563.48C168.808 564.59 169.948 565.61 171.643 565.76V567.47C170.518 567.5 169.228 567.5 167.713 567.5V568.43C172.303 568.43 174.418 568.34 176.893 568.085L176.803 567.17ZM178.903 557.33H177.838V571.04H178.903V557.33ZM172.078 561.515C173.473 561.515 174.343 562.265 174.343 562.97V563.42C174.343 564.125 173.473 564.89 172.078 564.89C170.683 564.89 169.813 564.125 169.813 563.42V562.97C169.813 562.265 170.683 561.515 172.078 561.515ZM172.588 557.21H171.538V558.92H168.058V559.85H175.978V558.92H172.588V557.21ZM194.25 557.33H193.185V571.04H194.25V557.33ZM190.47 562.28C190.47 559.775 189.21 558.29 187.08 558.29C184.95 558.29 183.69 559.76 183.69 562.265V563.69C183.69 566.195 184.95 567.68 187.08 567.68C189.21 567.68 190.47 566.195 190.47 563.69V562.28ZM189.435 563.51C189.435 565.79 188.49 566.705 187.08 566.705C185.67 566.705 184.725 565.79 184.725 563.51V562.46C184.725 560.18 185.67 559.28 187.08 559.28C188.49 559.28 189.435 560.18 189.435 562.46V563.51ZM202.398 565.7C200.148 565.7 198.318 566.66 198.318 568.265V568.835C198.318 570.41 200.148 571.4 202.398 571.4C204.648 571.4 206.478 570.41 206.478 568.835V568.265C206.478 566.69 204.648 565.7 202.398 565.7ZM202.398 570.5C200.793 570.5 199.338 569.855 199.338 568.79V568.31C199.338 567.245 200.793 566.6 202.398 566.6C204.003 566.6 205.458 567.245 205.458 568.31V568.79C205.458 569.855 204.003 570.5 202.398 570.5ZM199.683 561.845C199.758 562.085 200.163 562.49 200.853 563.075C201.363 563.51 202.023 564.05 202.818 564.65L203.448 563.915C202.788 563.435 201.993 562.805 201.258 562.16C200.253 561.26 200.163 560.9 200.163 559.79V557.945H199.083V559.82C199.083 560.945 198.978 561.335 198.033 562.28C197.358 562.955 196.413 563.735 195.603 564.335L196.263 565.1C197.088 564.44 197.973 563.69 198.498 563.195C199.158 562.565 199.623 562.1 199.668 561.845H199.683ZM206.403 557.33H205.353V565.4H206.403V561.725H208.503V560.795H206.403V557.33ZM218.405 558.035H212.225V563.765H218.405V558.035ZM218.87 564.665H217.85V566.24H213.86V567.155H217.85V567.455C217.85 568.235 217.49 568.715 216.26 569.225C215.435 569.57 214.385 569.945 213.455 570.245L213.83 571.07C214.7 570.785 215.675 570.41 216.56 570.05C217.505 569.645 218.12 569.24 218.36 568.82C218.6 569.24 219.2 569.645 220.16 570.05C221.045 570.41 222.02 570.785 222.89 571.07L223.265 570.245C222.335 569.945 221.285 569.57 220.46 569.225C219.23 568.715 218.87 568.235 218.87 567.455V567.155H222.83V566.24H218.87V564.665ZM217.385 562.835H213.245V558.965H217.385V562.835ZM222.62 557.33H221.57V564.815H222.62V557.33ZM236.332 566.84C235.042 566.99 233.737 567.065 232.102 567.125V564.59C233.812 564.38 235.132 563.165 235.132 561.74V561.02C235.132 559.445 233.542 558.14 231.562 558.14C229.582 558.14 227.992 559.445 227.992 561.02V561.74C227.992 563.18 229.312 564.38 231.037 564.59V567.14C229.942 567.17 228.697 567.17 227.242 567.17V568.1C231.832 568.1 233.947 568.01 236.422 567.755L236.332 566.84ZM231.562 559.085C232.897 559.085 234.112 560 234.112 561.08V561.68C234.112 562.76 232.897 563.675 231.562 563.675C230.227 563.675 229.012 562.76 229.012 561.68V561.08C229.012 560 230.227 559.085 231.562 559.085ZM238.447 557.33H237.382V571.04H238.447V557.33ZM249.355 557.855V559.91H242.545V557.855H241.51V563.735H250.39V557.855H249.355ZM239.65 565.565V566.48H245.425V571.04H246.49V566.48H252.25V565.565H239.65ZM242.545 562.85V560.825H249.355V562.85H242.545ZM255.417 571.01H263.802V565.835H255.417V571.01ZM256.437 566.78H262.782V570.065H256.437V566.78ZM256.827 561.98C256.887 562.175 257.472 562.685 258.177 563.255C258.627 563.615 259.332 564.14 259.947 564.56L260.562 563.825C259.707 563.255 258.867 562.625 258.387 562.22C257.412 561.38 257.307 560.975 257.307 560.09V559.07H260.247V558.155H253.152V559.07H256.242V560.135C256.242 560.945 256.077 561.47 255.342 562.19C254.607 562.91 253.647 563.645 252.762 564.275L253.407 565.025C254.097 564.53 255.117 563.72 255.642 563.255C256.272 562.7 256.752 562.205 256.812 561.98H256.827ZM263.802 557.33H262.752V560.72H259.902V561.65H262.752V565.025H263.802V557.33ZM268.139 571.01H276.524V565.79H268.139V571.01ZM266.129 565.28C269.714 563.75 271.154 562.94 271.679 561.665H275.474V564.98H276.524V557.33H275.474V560.735H271.919C271.949 560.465 271.964 560.18 271.964 559.865V558.155H266.189V559.085H270.929V559.775C270.929 561.8 270.464 562.43 265.724 564.41L266.129 565.28ZM269.159 566.735H275.504V570.065H269.159V566.735ZM289.442 557.615H288.392V570.365H289.442V563.21H291.437V571.04H292.487V557.33H291.437V562.265H289.442V557.615ZM281.402 558.635V567.305H283.187C284.702 567.305 285.992 567.23 287.432 566.99L287.312 566.045C285.947 566.285 284.732 566.345 283.097 566.345H282.467V559.595H286.577V558.635H281.402ZM300.214 565.7C297.964 565.7 296.134 566.66 296.134 568.265V568.835C296.134 570.41 297.964 571.4 300.214 571.4C302.464 571.4 304.294 570.41 304.294 568.835V568.265C304.294 566.69 302.464 565.7 300.214 565.7ZM300.214 570.5C298.609 570.5 297.154 569.855 297.154 568.79V568.31C297.154 567.245 298.609 566.6 300.214 566.6C301.819 566.6 303.274 567.245 303.274 568.31V568.79C303.274 569.855 301.819 570.5 300.214 570.5ZM297.499 561.845C297.574 562.085 297.979 562.49 298.669 563.075C299.179 563.51 299.839 564.05 300.634 564.65L301.264 563.915C300.604 563.435 299.809 562.805 299.074 562.16C298.069 561.26 297.979 560.9 297.979 559.79V557.945H296.899V559.82C296.899 560.945 296.794 561.335 295.849 562.28C295.174 562.955 294.229 563.735 293.419 564.335L294.079 565.1C294.904 564.44 295.789 563.69 296.314 563.195C296.974 562.565 297.439 562.1 297.484 561.845H297.499ZM304.219 557.33H303.169V565.4H304.219V561.725H306.319V560.795H304.219V557.33ZM58.695 590.015C58.695 588.77 57.51 587.6 55.56 587.6C53.61 587.6 52.425 588.77 52.425 590.015V590.585C52.425 591.83 53.61 593 55.56 593C57.51 593 58.695 591.83 58.695 590.585V590.015ZM59.55 587.945V588.86H61.875V590.885H59.55V591.8H61.875V594.305H62.91V584.33H61.875V587.945H59.55ZM55.56 592.1C54.225 592.1 53.43 591.275 53.43 590.54V590.06C53.43 589.325 54.225 588.5 55.56 588.5C56.895 588.5 57.69 589.325 57.69 590.06V590.54C57.69 591.275 56.895 592.1 55.56 592.1ZM55.575 594.08H54.51V597.875H63.255V596.945H55.575V594.08ZM56.07 584.18H55.02V585.95H51.645V586.865H59.595V585.95H56.07V584.18ZM71.0423 592.7C68.7923 592.7 66.9623 593.66 66.9623 595.265V595.835C66.9623 597.41 68.7923 598.4 71.0423 598.4C73.2923 598.4 75.1223 597.41 75.1223 595.835V595.265C75.1223 593.69 73.2923 592.7 71.0423 592.7ZM71.0423 597.5C69.4373 597.5 67.9823 596.855 67.9823 595.79V595.31C67.9823 594.245 69.4373 593.6 71.0423 593.6C72.6473 593.6 74.1023 594.245 74.1023 595.31V595.79C74.1023 596.855 72.6473 597.5 71.0423 597.5ZM68.5223 589.1C68.5823 589.295 69.1673 589.805 69.8723 590.375C70.3223 590.735 71.0423 591.275 71.6423 591.695L72.2573 590.945C71.4023 590.375 70.5623 589.745 70.0823 589.34C69.1073 588.5 69.0023 588.095 69.0023 587.21V586.115H71.9573V585.2H64.8473V586.115H67.9373V587.255C67.9373 588.065 67.7723 588.59 67.0373 589.31C66.3023 590.03 65.3423 590.765 64.4573 591.395L65.1023 592.145C65.7923 591.65 66.8123 590.84 67.3373 590.375C67.9673 589.82 68.4473 589.325 68.5073 589.1H68.5223ZM75.0473 584.33H73.9973V592.4H75.0473V588.725H77.1473V587.795H75.0473V584.33ZM88.0697 585.59H80.7497V586.52H83.8997V588.785C83.8997 589.925 83.7647 590.495 82.8197 591.56C82.1297 592.34 81.2747 593.165 80.3297 594.005L81.0347 594.71C81.9347 593.93 82.9397 592.865 83.3447 592.445C83.7797 591.98 84.3647 591.305 84.4397 591.035H84.4547C84.5297 591.23 84.9497 591.695 85.3847 592.16C85.9847 592.805 86.7047 593.54 87.7397 594.5L88.4297 593.795C87.3197 592.805 86.4347 591.92 85.8497 591.245C85.0547 590.33 84.9647 589.85 84.9647 588.71V586.52H88.0697V585.59ZM91.3547 584.33H90.2897V598.04H91.3547V584.33ZM97.147 589.64C98.977 589.64 100.447 588.68 100.447 587.405V586.835C100.447 585.56 98.977 584.6 97.147 584.6C95.317 584.6 93.847 585.56 93.847 586.835V587.405C93.847 588.68 95.317 589.64 97.147 589.64ZM99.847 592.595V593.525H102.937V594.98H103.987V584.33H102.937V592.595H99.847ZM97.147 585.5C98.407 585.5 99.442 586.145 99.442 586.925V587.315C99.442 588.095 98.407 588.74 97.147 588.74C95.887 588.74 94.852 588.095 94.852 587.315V586.925C94.852 586.145 95.887 585.5 97.147 585.5ZM96.292 594.245H95.227V597.875H104.302V596.945H96.292V594.245ZM101.797 590.285C99.217 590.555 97.207 590.615 92.887 590.615V591.53C94.267 591.53 95.422 591.53 96.427 591.5V593.66H97.492V591.485C99.262 591.425 100.537 591.335 101.887 591.2L101.797 590.285Z" fill="#222222"/>
<path d="M58.38 622.29L63.21 617.475L62.61 616.845L57.78 621.69L52.995 616.845L52.38 617.505L57.18 622.32L52.35 627.12L52.98 627.75L57.765 622.905L62.565 627.75L63.24 627.09L58.38 622.29ZM58.71 617.835C58.71 617.28 58.23 616.8 57.675 616.8C57.12 616.8 56.64 617.28 56.64 617.835C56.64 618.39 57.135 618.885 57.69 618.885C58.26 618.885 58.725 618.39 58.725 617.835H58.71ZM54.255 622.335C54.255 621.765 53.775 621.285 53.22 621.285C52.68 621.285 52.185 621.765 52.185 622.335C52.185 622.875 52.695 623.355 53.235 623.355C53.805 623.355 54.27 622.875 54.27 622.335H54.255ZM63.465 622.335C63.465 621.735 62.97 621.285 62.415 621.285C61.86 621.285 61.395 621.735 61.395 622.335C61.395 622.875 61.89 623.34 62.43 623.34C62.985 623.34 63.465 622.875 63.465 622.335ZM58.725 626.955C58.725 626.37 58.23 625.905 57.675 625.905C57.12 625.905 56.67 626.37 56.67 626.955C56.67 627.495 57.135 627.975 57.69 627.975C58.26 627.975 58.725 627.495 58.725 626.955ZM77.6123 619.695H75.8573V617.16H77.6123V619.695ZM77.6123 623.25H75.8573V620.685H77.6123V623.25ZM70.5473 620.685H72.2123V623.25H70.5473V620.685ZM74.8973 620.685V623.25H73.1573V620.685H74.8973ZM73.1573 619.695V617.16H74.8973V619.695H73.1573ZM70.5473 617.16H72.2123V619.695H70.5473V617.16ZM69.5423 619.695H67.4573V620.685H69.5423V623.25H67.6973V624.255H80.5523V623.25H78.6623V620.685H80.7623V619.695H78.6623V617.16H80.2073V616.17H70.7423C71.0423 615.72 71.3123 615.24 71.5373 614.76L70.4723 614.445C69.7673 615.96 68.5673 617.415 67.2773 618.36C67.5473 618.51 67.9823 618.885 68.1923 619.095C68.6423 618.72 69.1073 618.255 69.5423 617.76V619.695ZM68.4023 628.155C69.2123 627.45 69.8873 626.265 70.2473 625.14L69.2123 624.885C68.8373 625.965 68.1323 627.105 67.3523 627.72L68.4023 628.155ZM71.8073 625.26C71.9873 626.16 72.1073 627.315 72.1223 628.005L73.1873 627.855C73.1723 627.18 73.0073 626.04 72.8273 625.155L71.8073 625.26ZM74.8373 625.275C75.2123 626.16 75.6023 627.315 75.7523 628.02L76.8323 627.795C76.6823 627.09 76.2773 625.935 75.8723 625.08L74.8373 625.275ZM77.8823 625.17C78.6173 626.1 79.4723 627.375 79.8323 628.17L80.9423 627.765C80.5373 626.955 79.6523 625.725 78.9023 624.825L77.8823 625.17ZM91.8473 615.33H90.7823V629.04H91.8473V621.39H94.1423V620.445H91.8473V615.33ZM83.6273 622.41C82.9223 623.205 82.0973 624 81.1073 624.87L81.8123 625.605C82.6973 624.825 83.6873 623.82 84.2123 623.25C84.6623 622.755 85.2323 622.05 85.2773 621.855H85.2923C85.3673 622.05 85.8023 622.545 86.2523 623.025C86.8523 623.67 87.6923 624.495 88.6373 625.395L89.3273 624.675C88.2023 623.655 87.3173 622.755 86.7173 622.065C85.9073 621.135 85.8173 620.64 85.8173 619.485V616.335H84.7223V619.56C84.7223 620.745 84.5723 621.33 83.6273 622.41ZM100.745 623.7C98.4947 623.7 96.6647 624.66 96.6647 626.265V626.835C96.6647 628.41 98.4947 629.4 100.745 629.4C102.995 629.4 104.825 628.41 104.825 626.835V626.265C104.825 624.69 102.995 623.7 100.745 623.7ZM100.775 616.155H94.6547V622.275H100.775V616.155ZM100.745 628.5C99.1397 628.5 97.6847 627.855 97.6847 626.79V626.31C97.6847 625.245 99.1397 624.6 100.745 624.6C102.35 624.6 103.805 625.245 103.805 626.31V626.79C103.805 627.855 102.35 628.5 100.745 628.5ZM99.7547 621.345H95.6747V617.085H99.7547V621.345ZM104.75 615.33H103.7V623.4H104.75V619.56H106.85V618.63H104.75V615.33ZM117.352 615.33H116.287V629.04H117.352V621.39H119.647V620.445H117.352V615.33ZM109.132 622.41C108.427 623.205 107.602 624 106.612 624.87L107.317 625.605C108.202 624.825 109.192 623.82 109.717 623.25C110.167 622.755 110.737 622.05 110.782 621.855H110.797C110.872 622.05 111.307 622.545 111.757 623.025C112.357 623.67 113.197 624.495 114.142 625.395L114.832 624.675C113.707 623.655 112.822 622.755 112.222 622.065C111.412 621.135 111.322 620.64 111.322 619.485V616.335H110.227V619.56C110.227 620.745 110.077 621.33 109.132 622.41ZM119.484 626.19V627.105H132.084V626.19H125.349V620.925H124.269V626.19H119.484ZM129.669 624.435C130.029 622.5 130.194 620.76 130.194 618.24V616.62H121.074V617.55H129.099V618.795C129.099 620.805 128.904 622.455 128.559 624.3L129.669 624.435ZM137.532 622.89V623.805H144.837V625.545H137.607V629.085H146.232V628.185H138.642V626.43H145.872V622.89H137.532ZM135.822 621.48C140.022 621.48 141.222 621.435 143.457 621.165L143.337 620.25C141.192 620.505 139.887 620.55 136.872 620.55V616.86H142.107V615.93H135.822V621.48ZM145.872 615.33H144.822V622.08H145.872V619.035H147.972V618.105H145.872V615.33ZM155.099 623.73C152.849 623.73 150.944 624.645 150.944 626.265V626.85C150.944 628.425 152.849 629.4 155.099 629.4C157.349 629.4 159.254 628.425 159.254 626.85V626.265C159.254 624.69 157.349 623.73 155.099 623.73ZM155.099 628.5C153.494 628.5 151.964 627.885 151.964 626.82V626.31C151.964 625.245 153.494 624.63 155.099 624.63C156.704 624.63 158.234 625.245 158.234 626.31V626.82C158.234 627.885 156.704 628.5 155.099 628.5ZM152.039 619.89C152.114 620.13 152.519 620.535 153.209 621.12C153.719 621.555 154.379 622.095 155.174 622.695L155.804 621.96C155.144 621.48 154.349 620.85 153.614 620.205C152.609 619.305 152.519 618.945 152.519 617.835V615.945H151.439V617.865C151.439 618.99 151.334 619.38 150.389 620.325C149.714 621 148.769 621.78 147.959 622.38L148.619 623.145C149.444 622.485 150.329 621.735 150.854 621.24C151.514 620.61 151.979 620.145 152.024 619.89H152.039ZM155.039 618.42V619.35H158.129V623.415H159.179V615.33H158.129V618.42H155.039ZM160.771 629.625H161.641L162.721 626.25H161.401L160.771 629.625ZM176.703 619.695H174.948V617.16H176.703V619.695ZM176.703 623.25H174.948V620.685H176.703V623.25ZM169.638 620.685H171.303V623.25H169.638V620.685ZM173.988 620.685V623.25H172.248V620.685H173.988ZM172.248 619.695V617.16H173.988V619.695H172.248ZM169.638 617.16H171.303V619.695H169.638V617.16ZM168.633 619.695H166.548V620.685H168.633V623.25H166.788V624.255H179.643V623.25H177.753V620.685H179.853V619.695H177.753V617.16H179.298V616.17H169.833C170.133 615.72 170.403 615.24 170.628 614.76L169.563 614.445C168.858 615.96 167.658 617.415 166.368 618.36C166.638 618.51 167.073 618.885 167.283 619.095C167.733 618.72 168.198 618.255 168.633 617.76V619.695ZM167.493 628.155C168.303 627.45 168.978 626.265 169.338 625.14L168.303 624.885C167.928 625.965 167.223 627.105 166.443 627.72L167.493 628.155ZM170.898 625.26C171.078 626.16 171.198 627.315 171.213 628.005L172.278 627.855C172.263 627.18 172.098 626.04 171.918 625.155L170.898 625.26ZM173.928 625.275C174.303 626.16 174.693 627.315 174.843 628.02L175.923 627.795C175.773 627.09 175.368 625.935 174.963 625.08L173.928 625.275ZM176.973 625.17C177.708 626.1 178.563 627.375 178.923 628.17L180.033 627.765C179.628 626.955 178.743 625.725 177.993 624.825L176.973 625.17ZM187.413 615.72H186.393V617.835H182.193V615.72H181.173V621.675H187.413V619.14H190.638V622.26H191.688V615.33H190.638V618.21H187.413V615.72ZM183.228 623.07V623.985H190.653V625.635H183.303V629.085H192.048V628.185H184.338V626.52H191.688V623.07H183.228ZM182.193 618.75H186.393V620.76H182.193V618.75ZM196.086 629.01H204.471V623.835H196.086V629.01ZM197.106 624.78H203.451V628.065H197.106V624.78ZM197.496 619.98C197.556 620.175 198.141 620.685 198.846 621.255C199.296 621.615 200.001 622.14 200.616 622.56L201.231 621.825C200.376 621.255 199.536 620.625 199.056 620.22C198.081 619.38 197.976 618.975 197.976 618.09V617.07H200.916V616.155H193.821V617.07H196.911V618.135C196.911 618.945 196.746 619.47 196.011 620.19C195.276 620.91 194.316 621.645 193.431 622.275L194.076 623.025C194.766 622.53 195.786 621.72 196.311 621.255C196.941 620.7 197.421 620.205 197.481 619.98H197.496ZM204.471 615.33H203.421V618.72H200.571V619.65H203.421V623.025H204.471V615.33ZM215.843 621.015C215.843 619.77 214.658 618.6 212.708 618.6C210.758 618.6 209.573 619.77 209.573 621.015V621.585C209.573 622.83 210.758 624 212.708 624C214.658 624 215.843 622.83 215.843 621.585V621.015ZM216.698 618.945V619.86H219.023V621.885H216.698V622.8H219.023V625.305H220.058V615.33H219.023V618.945H216.698ZM212.708 623.1C211.373 623.1 210.578 622.275 210.578 621.54V621.06C210.578 620.325 211.373 619.5 212.708 619.5C214.043 619.5 214.838 620.325 214.838 621.06V621.54C214.838 622.275 214.043 623.1 212.708 623.1ZM212.723 625.08H211.658V628.875H220.403V627.945H212.723V625.08ZM213.218 615.18H212.168V616.95H208.793V617.865H216.743V616.95H213.218V615.18ZM228.19 623.7C225.94 623.7 224.11 624.66 224.11 626.265V626.835C224.11 628.41 225.94 629.4 228.19 629.4C230.44 629.4 232.27 628.41 232.27 626.835V626.265C232.27 624.69 230.44 623.7 228.19 623.7ZM228.19 628.5C226.585 628.5 225.13 627.855 225.13 626.79V626.31C225.13 625.245 226.585 624.6 228.19 624.6C229.795 624.6 231.25 625.245 231.25 626.31V626.79C231.25 627.855 229.795 628.5 228.19 628.5ZM225.67 620.1C225.73 620.295 226.315 620.805 227.02 621.375C227.47 621.735 228.19 622.275 228.79 622.695L229.405 621.945C228.55 621.375 227.71 620.745 227.23 620.34C226.255 619.5 226.15 619.095 226.15 618.21V617.115H229.105V616.2H221.995V617.115H225.085V618.255C225.085 619.065 224.92 619.59 224.185 620.31C223.45 621.03 222.49 621.765 221.605 622.395L222.25 623.145C222.94 622.65 223.96 621.84 224.485 621.375C225.115 620.82 225.595 620.325 225.655 620.1H225.67ZM232.195 615.33H231.145V623.4H232.195V619.725H234.295V618.795H232.195V615.33ZM248.383 615.33H247.318V629.04H248.383V615.33ZM244.378 616.455H243.328V619.845H239.128V616.455H238.078V625.41H244.378V616.455ZM239.128 620.79H243.328V624.45H239.128V620.79ZM249.78 621.15V622.05H253.425V623.655H251.58V624.54H259.47V625.935H251.655V629.1H260.91V628.215H252.69V626.805H260.505V623.655H258.735V622.05H262.38V621.15H249.78ZM260.37 617.625C260.37 616.275 258.495 615.435 256.08 615.435C253.665 615.435 251.79 616.26 251.79 617.625V618.045C251.79 619.395 253.665 620.235 256.08 620.235C258.495 620.235 260.37 619.395 260.37 618.045V617.625ZM252.825 617.685C252.825 616.905 254.28 616.32 256.08 616.32C257.88 616.32 259.335 616.905 259.335 617.685V617.985C259.335 618.765 257.88 619.35 256.08 619.35C254.28 619.35 252.825 618.765 252.825 617.985V617.685ZM254.46 622.05H257.7V623.655H254.46V622.05ZM265.787 617.61H268.307V619.65C268.307 620.985 268.157 621.6 267.437 622.515C266.987 623.1 266.087 624.06 265.202 624.9L265.907 625.605C266.852 624.675 267.542 623.91 268.097 623.265C268.547 622.725 268.802 622.305 268.847 622.14H268.862C268.922 622.305 269.237 622.785 269.672 623.28C270.182 623.85 270.977 624.765 271.637 625.425L272.327 624.75C271.487 623.91 270.767 623.115 270.272 622.5C269.522 621.54 269.357 621.045 269.357 619.65V617.61H271.772V616.68H265.787V617.61ZM271.037 619.965V620.925H273.467V628.365H274.517V615.615H273.467V619.965H271.037ZM277.187 615.33H276.137V629.04H277.187V615.33ZM278.135 626.19V627.105H290.735V626.19H284V620.925H282.92V626.19H278.135ZM288.32 624.435C288.68 622.5 288.845 620.76 288.845 618.24V616.62H279.725V617.55H287.75V618.795C287.75 620.805 287.555 622.455 287.21 624.3L288.32 624.435Z" fill="#222222"/>
<path d="M43.5 566C44.3284 566 45 565.328 45 564.5C45 563.672 44.3284 563 43.5 563C42.6716 563 42 563.672 42 564.5C42 565.328 42.6716 566 43.5 566Z" fill="#CCCCCC"/>
<path d="M139.454 18.88H151.734V12.46H146.854V10.96H154.114V8.92H137.074V10.96H144.334V12.46H139.454V18.88ZM139.134 0.879999V2.86H141.274V5.72H139.014V7.7H152.174V5.72H149.914V2.86H152.054V0.879999H139.134ZM141.954 14.48H149.234V16.86H141.954V14.48ZM143.754 2.86H147.434V5.72H143.754V2.86ZM157.777 10.36V12.36H167.097V13.76H157.877V19.06H170.097V17.06H160.317V15.66H169.537V10.36H157.777ZM169.537 0.28H167.017V9.52H169.537V0.28ZM155.197 3.16H158.837V3.82C158.837 4.74 158.617 5.24 157.797 5.9C156.937 6.6 155.717 7.44 154.437 8.24L155.777 10.08C156.877 9.38 157.937 8.66 158.757 8.06C159.637 7.42 160.137 6.98 160.237 6.74H160.257C160.377 6.96 160.857 7.34 161.697 7.9C162.517 8.44 163.337 8.96 164.197 9.48L165.477 7.72C164.557 7.18 163.537 6.54 162.777 6.02C161.597 5.22 161.357 4.74 161.357 3.82V3.16H164.837V1.04H155.197V3.16ZM180.62 14.5C184.02 14.5 185.42 12.24 185.42 9.12V6.9C185.42 3.78 184.02 1.52 180.62 1.52C177.22 1.52 175.82 3.78 175.82 6.9V9.12C175.82 12.24 177.22 14.5 180.62 14.5ZM180.62 3.74C182.32 3.74 183 4.94 183 7.2V8.82C183 11.08 182.32 12.28 180.62 12.28C178.92 12.28 178.24 11.08 178.24 8.82V7.2C178.24 4.94 178.92 3.74 180.62 3.74ZM190.54 0.28H188V18.88H190.54V0.28ZM191.883 10.66V12.8H195.963V18.82H198.463V12.8H202.343V18.82H204.843V12.8H208.923V10.66H191.883ZM200.463 6.02C200.663 6.38 201.363 6.86 202.663 7.52C203.783 8.08 205.563 8.9 206.823 9.42L207.843 7.38C206.443 6.8 204.763 6.04 203.423 5.32C202.183 4.66 201.683 3.9 201.683 2.68V0.92H199.123V2.68C199.123 3.9 198.623 4.66 197.383 5.32C196.043 6.04 194.363 6.8 192.963 7.38L194.003 9.46C195.263 8.94 197.043 8.12 198.163 7.56C199.463 6.9 200.263 6.4 200.443 6.02H200.463Z" fill="#5082E6"/>
<path d="M149.234 429.66H146.814V446.98H149.234V437.8H150.874V447.88H153.294V429.28H150.874V435.62H149.234V429.66ZM137.694 431.04V442.94H140.774C142.434 442.94 144.374 442.88 145.994 442.6L145.734 440.44C144.074 440.7 142.394 440.76 140.774 440.76H140.194V433.22H144.874V431.04H137.694ZM154.077 437.98V440.04H171.117V437.98H154.077ZM162.597 436.94C166.177 436.94 168.697 435.72 168.697 433.46V432.98C168.697 430.72 166.177 429.5 162.597 429.5C159.017 429.5 156.497 430.72 156.497 432.98V433.46C156.497 435.72 159.017 436.94 162.597 436.94ZM162.597 431.54C164.637 431.54 166.197 432.16 166.197 433.06V433.38C166.197 434.28 164.637 434.9 162.597 434.9C160.557 434.9 158.997 434.28 158.997 433.38V433.06C158.997 432.16 160.557 431.54 162.597 431.54ZM162.597 448.44C165.837 448.44 168.597 447.34 168.597 445.02V444.42C168.597 442.1 165.837 441 162.597 441C159.357 441 156.597 442.1 156.597 444.42V445.02C156.597 447.34 159.357 448.44 162.597 448.44ZM162.597 443.04C164.377 443.04 166.097 443.64 166.097 444.58V444.86C166.097 445.8 164.377 446.4 162.597 446.4C160.817 446.4 159.097 445.8 159.097 444.86V444.58C159.097 443.64 160.817 443.04 162.597 443.04ZM187.8 442.52H190.32V429.28H187.8V434H184.82V436.16H187.8V442.52ZM181.02 441.44H178.48V447.68H190.62V445.52H181.02V441.44ZM175.76 432.6H179.38V434.16C179.38 435.14 178.98 435.88 178.28 436.5C177.44 437.24 176.24 438.16 174.98 439.02L176.46 440.88C177.46 440.18 178.34 439.5 179.2 438.82C180.12 438.1 180.68 437.56 180.76 437.32H180.78C180.86 437.52 181.38 437.98 182.22 438.6C182.96 439.14 183.82 439.74 184.68 440.3L186.04 438.5C185.04 437.86 184.04 437.18 183.2 436.54C182.14 435.72 181.9 435.14 181.9 434.16V432.6H185.36V430.44H175.76V432.6ZM194.623 443.64H203.963V448.12H206.483V441.52H194.623V443.64ZM206.483 429.28H203.983V440.68H206.483V437.9H208.883V435.74H206.483V434.04H208.883V431.88H206.483V429.28ZM194.943 435.98H200.923V430.12H192.463V432.22H198.443V433.96H192.463V439.82C197.563 439.82 200.403 439.78 202.703 439.52L202.483 437.44C200.043 437.68 197.743 437.72 194.943 437.72V435.98Z" fill="#33B9A5"/>
<defs>
<filter id="filter0_d_1_46461" x="72" y="30" width="220" height="220" filterUnits="userSpaceOnUse" color-interpolation-filters="sRGB">
<feFlood flood-opacity="0" result="BackgroundImageFix"/>
<feColorMatrix in="SourceAlpha" type="matrix" values="0 0 0 0 0 0 0 0 0 0 0 0 0 0 0 0 0 0 127 0" result="hardAlpha"/>
<feOffset dx="10" dy="10"/>
<feGaussianBlur stdDeviation="10"/>
<feColorMatrix type="matrix" values="0 0 0 0 0 0 0 0 0 0 0 0 0 0 0 0 0 0 0.102 0"/>
<feBlend mode="normal" in2="BackgroundImageFix" result="effect1_dropShadow_1_46461"/>
<feBlend mode="normal" in="SourceGraphic" in2="effect1_dropShadow_1_46461" result="shape"/>
</filter>
<linearGradient id="paint0_linear_1_46461" x1="172.5" y1="469" x2="172.5" y2="660" gradientUnits="userSpaceOnUse">
<stop stop-color="#33B9A5"/>
<stop offset="0.69" stop-color="#40A7C9"/>
<stop offset="1" stop-color="#5082E6"/>
</linearGradient>
</defs>
</svg>
