<svg width="345" height="665" viewBox="0 0 345 665" fill="none" xmlns="http://www.w3.org/2000/svg">
<g filter="url(#filter0_d_1_46485)">
<path d="M172 220C221.706 220 262 179.706 262 130C262 80.2944 221.706 40 172 40C122.294 40 82 80.2944 82 130C82 179.706 122.294 220 172 220Z" fill="white"/>
<path d="M261.5 130C261.5 179.429 221.429 219.5 172 219.5C122.571 219.5 82.5 179.429 82.5 130C82.5 80.5705 122.571 40.5 172 40.5C221.429 40.5 261.5 80.5705 261.5 130Z" stroke="#AAAAAA"/>
</g>
<path d="M128.961 128.384V130.4H137.913V132.848H131.865V140.336H146.361V132.848H140.313V130.4H149.265V128.384H128.961ZM131.265 126.8H146.961V124.856H143.985V121.04H146.841V119.096H131.385V121.04H134.241V124.856H131.265V126.8ZM144.009 138.344H134.217V134.84H144.009V138.344ZM136.569 121.04H141.657V124.856H136.569V121.04ZM168.324 140.504V138.536H156.324V136.376H167.7V130.352H153.876V132.32H165.372V134.456H153.996V140.504H168.324ZM162.204 119.168H150.66V121.16H155.364V121.304C155.364 123.056 155.196 123.896 153.9 125.048C153.012 125.84 151.452 126.92 149.916 127.904L151.236 129.632C152.532 128.792 154.044 127.712 155.028 126.944C155.796 126.344 156.492 125.528 156.636 125.144H156.66C156.828 125.48 157.38 125.984 158.028 126.488C159.06 127.28 160.356 128.216 161.604 129.008L162.9 127.28C161.508 126.392 160.044 125.432 158.916 124.472C157.716 123.464 157.764 122.744 157.764 121.208V121.16H162.204V119.168ZM167.7 129.248V118.232H165.348V129.248H167.7ZM192.808 129.776V118.232H190.456V122.984H186.112V119.24H183.784V122.408H177.976V119.24H175.648V129.032H186.112V125.024H190.456V129.776H192.808ZM190.456 130.856V133.568H181.36V130.856H179.008V140.36H192.808V130.856H190.456ZM181.36 138.344V135.56H190.456V138.344H181.36ZM177.976 124.4H183.784V127.016H177.976V124.4ZM202.22 140.312V131.528H207.548V140.312H209.924V131.528H215.036V129.512H211.292C211.748 127.136 211.964 124.712 211.964 122.432V119.6H197.276V121.688H209.588V122.984C209.588 125.096 209.396 127.184 208.916 129.512H194.732V131.528H199.844V140.312H202.22Z" fill="#222222"/>
<path d="M33.1404 279.77L40.8354 279.575C40.7754 280.115 40.7004 280.7 40.5654 281.375L42.0204 281.54C42.3354 280.16 42.3954 278.75 42.3954 278.105V275.855H33.2754V277.145H40.9104V278.03V278.39L33.1104 278.495L33.1404 279.77ZM37.8354 282.5V280.505H36.3354V282.5H31.5054V283.76H44.1954V282.5H37.8354ZM34.8204 284.855H33.3354V288.95H42.6354V287.66H34.8204V284.855ZM45.8927 276.47V277.76H53.6777V279.365C53.6777 279.71 53.6627 280.04 53.6627 280.37L45.6677 280.46L45.6977 281.72L53.5877 281.585C53.5127 282.62 53.3777 283.625 53.1677 284.735L54.6527 284.915C54.9977 283.04 55.1627 281.525 55.1627 278.84V276.47H45.8927ZM44.2577 285.995V287.255H56.9477V285.995H44.2577ZM68.4551 289.1V275.27H66.9701V289.1H68.4551ZM64.1951 281.54V276.365H57.9701V277.64H62.7251V280.295H58.0151V285.755H60.5351C63.0251 285.755 64.3901 285.635 65.7851 285.425L65.6501 284.18C64.0901 284.405 62.8901 284.48 60.8951 284.48H59.4851V281.54H64.1951ZM80.8174 282.455H72.9574V280.625H80.5024V279.395H72.9574V277.565H80.6074V276.305H71.4724V283.715H80.8174V282.455ZM69.7624 285.995V287.255H82.4524V285.995H69.7624ZM94.8148 281.84V277.655H96.6148V276.425H86.7898V277.655H88.6198V281.84H86.6848V283.07H88.9198V285.995H85.3648V287.255H98.0548V285.995H94.4998V283.07H96.7348V281.84H94.8148ZM90.1048 277.655H93.3298V281.84H90.1048V277.655ZM90.3898 283.07H93.0298V285.995H90.3898V283.07ZM104.462 279.17C104.612 279.485 105.662 279.98 106.307 280.25C107.267 280.655 108.152 280.985 109.187 281.33L109.727 280.13C108.512 279.74 107.657 279.44 106.862 279.08C105.842 278.615 105.197 278.165 105.197 277.52V277.085H109.157V275.855H99.7671V277.085H103.712V277.52C103.712 278.165 103.037 278.675 102.047 279.095C101.237 279.44 100.412 279.74 99.1821 280.13L99.7371 281.33C100.742 281 101.642 280.67 102.647 280.25C103.277 279.98 104.297 279.485 104.447 279.17H104.462ZM105.392 286.055V283.355H110.807V282.095H98.1171V283.355H103.892V286.055H105.392ZM101.432 284.81H99.9471V288.95H109.247V287.66H101.432V284.81ZM122.329 289.1V275.27H120.844V289.1H122.329ZM115.219 282.185C115.339 282.485 115.699 282.905 116.119 283.355C116.689 283.97 117.364 284.645 118.399 285.605L119.359 284.585C118.459 283.79 117.799 283.16 117.154 282.455C116.239 281.435 115.954 280.82 115.954 279.635V276.26H114.454V279.635C114.454 280.7 114.214 281.375 113.299 282.41C112.624 283.16 111.844 283.925 110.929 284.735L111.904 285.74C112.924 284.81 113.719 284.015 114.334 283.34C114.814 282.815 115.069 282.515 115.204 282.185H115.219ZM126.262 286.895C126.262 288.35 127.822 289.49 130.432 289.49C133.042 289.49 134.602 288.35 134.602 286.895V286.295C134.602 284.84 133.042 283.7 130.432 283.7C127.822 283.7 126.262 284.84 126.262 286.295V286.895ZM130.762 282.56V275.945H129.307V278.18H125.752V275.945H124.297V282.56H130.762ZM133.147 286.805C133.147 287.54 132.097 288.275 130.432 288.275C128.767 288.275 127.717 287.54 127.717 286.805V286.385C127.717 285.65 128.767 284.915 130.432 284.915C132.097 284.915 133.147 285.65 133.147 286.385V286.805ZM136.507 278.48H134.542V275.27H133.072V283.52H134.542V279.77H136.507V278.48ZM125.752 279.425H129.307V281.3H125.752V279.425ZM147.939 289.1V275.27H146.454V279.545H143.514V280.85H146.454V289.1H147.939ZM140.559 282.155C140.679 282.455 141.039 282.875 141.459 283.325C142.029 283.94 142.704 284.615 143.739 285.575L144.699 284.555C143.799 283.76 143.139 283.13 142.494 282.425C141.579 281.405 141.294 280.79 141.294 279.605V276.275H139.794V279.605C139.794 280.67 139.554 281.345 138.639 282.38C137.964 283.13 137.184 283.895 136.269 284.705L137.244 285.71C138.264 284.78 139.059 283.985 139.674 283.31C140.154 282.785 140.409 282.485 140.544 282.155H140.559ZM160.166 281.195C158.081 281.42 157.151 281.48 154.076 281.48V277.445H159.026V276.17H152.621V282.755C156.941 282.755 158.201 282.695 160.316 282.425L160.166 281.195ZM164.861 278.87H162.896V275.27H161.426V285.14H162.896V280.16H164.861V278.87ZM155.936 284.36H154.451V288.95H163.271V287.66H155.936V284.36ZM169.379 281.54C171.584 281.54 172.979 280.265 172.979 278.84V278.24C172.979 276.815 171.614 275.54 169.379 275.54C167.144 275.54 165.779 276.815 165.779 278.24V278.84C165.779 280.265 167.174 281.54 169.379 281.54ZM176.354 289.1V275.27H174.884V289.1H176.354ZM170.204 288.68V283.91C171.629 283.85 172.889 283.76 174.134 283.625L174.014 282.38C171.524 282.62 168.989 282.71 165.029 282.695V283.985C166.379 283.985 167.594 283.985 168.689 283.955V288.68H170.204ZM169.379 280.25C168.104 280.25 167.204 279.605 167.204 278.735V278.345C167.204 277.43 168.104 276.83 169.379 276.83C170.654 276.83 171.554 277.43 171.554 278.345V278.735C171.554 279.605 170.654 280.25 169.379 280.25ZM184.576 289.1V284.345H190.171V283.085H177.481V284.345H183.076V289.1H184.576ZM185.491 280.46C186.301 280.865 187.456 281.39 188.686 281.87L189.256 280.67C188.146 280.25 186.916 279.725 185.956 279.2C184.936 278.645 184.561 278.105 184.561 276.98V275.75H183.076V276.98C183.076 278.105 182.686 278.645 181.666 279.2C180.706 279.725 179.476 280.25 178.366 280.67L178.951 281.885C180.181 281.405 181.336 280.88 182.146 280.475C183.136 279.98 183.631 279.59 183.811 279.26H183.826C184.021 279.59 184.501 279.965 185.491 280.46ZM197.044 283.91C194.434 283.91 192.874 285.005 192.874 286.4V287C192.874 288.395 194.434 289.49 197.044 289.49C199.654 289.49 201.214 288.395 201.214 287V286.4C201.214 285.005 199.654 283.91 197.044 283.91ZM193.459 282.95C195.649 282.95 196.939 282.86 198.634 282.65L198.499 281.42C196.639 281.645 195.259 281.69 193.609 281.69H192.349V280.04H197.029V275.93H190.834V277.19H195.559V278.81H190.879V282.95H193.459ZM203.119 277.34H201.154V275.27H199.684V283.73H201.154V281.42H203.119V280.13H201.154V278.63H203.119V277.34ZM197.044 288.275C195.379 288.275 194.329 287.585 194.329 286.91V286.49C194.329 285.815 195.379 285.125 197.044 285.125C198.709 285.125 199.759 285.815 199.759 286.49V286.91C199.759 287.585 198.709 288.275 197.044 288.275ZM205.836 281.615V282.875H211.431V284.405H207.651V289.085H216.711V284.405H212.931V282.875H218.526V281.615H205.836ZM207.276 280.625H217.086V279.41H215.226V277.025H217.011V275.81H207.351V277.025H209.136V279.41H207.276V280.625ZM215.241 287.84H209.121V285.65H215.241V287.84ZM210.591 277.025H213.771V279.41H210.591V277.025ZM230.438 289.19V287.96H222.938V286.61H230.048V282.845H221.408V284.075H228.593V285.41H221.483V289.19H230.438ZM226.613 275.855H219.398V277.1H222.338V277.19C222.338 278.285 222.233 278.81 221.423 279.53C220.868 280.025 219.893 280.7 218.933 281.315L219.758 282.395C220.568 281.87 221.513 281.195 222.128 280.715C222.608 280.34 223.043 279.83 223.133 279.59H223.148C223.253 279.8 223.598 280.115 224.003 280.43C224.648 280.925 225.458 281.51 226.238 282.005L227.048 280.925C226.178 280.37 225.263 279.77 224.558 279.17C223.808 278.54 223.838 278.09 223.838 277.13V277.1H226.613V275.855ZM230.048 282.155V275.27H228.578V282.155H230.048ZM242.801 289.1V275.27H241.316V289.1H242.801ZM235.691 282.185C235.811 282.485 236.171 282.905 236.591 283.355C237.161 283.97 237.836 284.645 238.871 285.605L239.831 284.585C238.931 283.79 238.271 283.16 237.626 282.455C236.711 281.435 236.426 280.82 236.426 279.635V276.26H234.926V279.635C234.926 280.7 234.686 281.375 233.771 282.41C233.096 283.16 232.316 283.925 231.401 284.735L232.376 285.74C233.396 284.81 234.191 284.015 234.806 283.34C235.286 282.815 235.541 282.515 235.676 282.185H235.691ZM247.018 284.33V289.085H255.643V284.33H247.018ZM248.233 283.43C250.618 283.43 251.458 282.17 251.458 281.165V280.745C251.458 279.74 250.618 278.48 248.233 278.48C245.848 278.48 245.008 279.725 245.008 280.745V281.165C245.008 282.17 245.848 283.43 248.233 283.43ZM255.643 283.655V275.27H254.173V279.5H252.148V280.775H254.173V283.655H255.643ZM248.488 285.59H254.173V287.825H248.488V285.59ZM252.253 276.725H248.953V275.09H247.483V276.725H244.258V277.97H252.253V276.725ZM248.233 282.245C246.853 282.245 246.418 281.555 246.418 281.075V280.835C246.418 280.355 246.838 279.665 248.233 279.665C249.628 279.665 250.048 280.355 250.048 280.835V281.075C250.048 281.555 249.613 282.245 248.233 282.245ZM261.06 286.085C266.535 282.77 266.745 281.93 266.745 279.2V276.545H260.55V277.82H265.275V279.185C265.275 281.315 265.065 282.095 260.28 284.9L261.06 286.085ZM271.155 289.1V275.27H269.67V289.1H271.155ZM278.793 279.17C278.943 279.485 279.993 279.98 280.638 280.25C281.598 280.655 282.483 280.985 283.518 281.33L284.058 280.13C282.843 279.74 281.988 279.44 281.193 279.08C280.173 278.615 279.528 278.165 279.528 277.52V277.085H283.488V275.855H274.098V277.085H278.043V277.52C278.043 278.165 277.368 278.675 276.378 279.095C275.568 279.44 274.743 279.74 273.513 280.13L274.068 281.33C275.073 281 275.973 280.67 276.978 280.25C277.608 279.98 278.628 279.485 278.778 279.17H278.793ZM279.723 286.055V283.355H285.138V282.095H272.448V283.355H278.223V286.055H279.723ZM275.763 284.81H274.278V288.95H283.578V287.66H275.763V284.81ZM292.52 280.31C292.625 280.535 292.925 280.82 293.375 281.195C294.095 281.795 294.74 282.29 295.52 282.83L296.36 281.75C295.475 281.165 294.695 280.595 293.99 279.95C293.33 279.35 293.21 278.84 293.21 277.88V277.355H295.94V276.08H288.8V277.355H291.71V277.94C291.71 279.035 291.455 279.605 290.72 280.325C290.18 280.85 289.295 281.525 288.335 282.2L289.205 283.265C290.045 282.68 290.855 282.035 291.5 281.48C291.98 281.075 292.415 280.565 292.505 280.31H292.52ZM290.495 285.32H298.115V289.235H299.6V284.045H290.495V285.32ZM299.6 283.325V275.27H298.13V278.585H295.58V279.86H298.13V283.325H299.6ZM307.147 275.45C304.522 275.45 302.707 276.38 302.707 277.955V278.375C302.707 279.215 303.202 279.86 304.072 280.295V282.11H300.802V283.37H313.492V282.11H310.237V280.28C311.092 279.86 311.587 279.2 311.587 278.375V277.955C311.587 276.38 309.772 275.45 307.147 275.45ZM307.147 289.49C309.997 289.49 311.512 288.23 311.512 287.015V286.505C311.512 285.29 309.997 284.03 307.147 284.03C304.297 284.03 302.782 285.29 302.782 286.505V287.015C302.782 288.245 304.297 289.49 307.147 289.49ZM307.147 279.65C305.407 279.65 304.162 279.11 304.162 278.315V278.015C304.162 277.22 305.407 276.68 307.147 276.68C308.887 276.68 310.132 277.22 310.132 278.015V278.315C310.132 279.11 308.887 279.65 307.147 279.65ZM307.147 285.245C308.947 285.245 310.042 285.98 310.042 286.625V286.895C310.042 287.54 308.947 288.275 307.147 288.275C305.347 288.275 304.252 287.54 304.252 286.895V286.625C304.252 285.98 305.347 285.245 307.147 285.245ZM307.147 280.88C307.732 280.88 308.272 280.835 308.767 280.745V282.11H305.542V280.76C306.022 280.85 306.562 280.88 307.147 280.88Z" fill="#222222"/>
<path d="M43.03 329.14V319.27H41.56V322.93H38.395C38.41 322.825 38.41 322.705 38.41 322.585V320.155H32.515V321.415H36.955V322.51C36.955 324.025 36.235 324.76 31.945 326.635L32.53 327.835C35.995 326.35 37.525 325.435 38.095 324.205H41.56V329.14H43.03ZM35.875 328.405H34.39V332.95H43.315V331.66H35.875V328.405ZM56.1123 333.19V331.96H48.6123V330.625H55.7223V326.875H47.0823V328.105H54.2673V329.425H47.1573V333.19H56.1123ZM48.4773 323.5C48.5673 323.725 48.8823 324.01 49.3323 324.385C50.0523 324.985 50.6973 325.465 51.5073 326.035L52.3323 324.985C51.4473 324.385 50.6523 323.815 49.9473 323.17C49.2273 322.51 49.1673 321.985 49.1673 321.025V319.615H47.6673V321.085C47.6673 322.18 47.5023 322.735 46.7223 323.485C46.1973 323.995 45.2673 324.745 44.2473 325.465L45.1023 326.515C45.9423 325.9 46.8723 325.18 47.4873 324.61C47.9523 324.19 48.3873 323.755 48.4623 323.5H48.4773ZM55.7223 326.185V319.27H54.2523V321.79H51.4923V323.095H54.2523V326.185H55.7223ZM63.3297 327.88C60.8997 327.88 59.0097 328.825 59.0097 330.415V330.955C59.0097 332.545 60.8997 333.49 63.3297 333.49C65.7597 333.49 67.6497 332.545 67.6497 330.955V330.415C67.6497 328.825 65.7597 327.88 63.3297 327.88ZM63.3147 325.63V322.915H61.8147V325.63H56.9847V326.89H69.6747V325.63H63.3147ZM58.6497 321.085H66.2847V321.595C66.2847 322.405 66.1947 323.485 65.9397 324.61L67.4097 324.775C67.6647 323.71 67.7847 322.225 67.7847 321.58V319.825H58.6497V321.085ZM63.3297 332.275C61.7397 332.275 60.4797 331.645 60.4797 330.865V330.505C60.4797 329.725 61.7397 329.095 63.3297 329.095C64.9197 329.095 66.1797 329.725 66.1797 330.505V330.865C66.1797 331.645 64.9197 332.275 63.3297 332.275ZM82.682 324.265H80.552V319.27H79.067V333.1H80.552V325.555H82.682V324.265ZM73.847 326.155C73.967 326.455 74.327 326.875 74.747 327.325C75.317 327.94 75.992 328.615 77.027 329.575L77.987 328.555C77.087 327.76 76.427 327.13 75.782 326.425C74.867 325.405 74.582 324.79 74.582 323.605V320.275H73.082V323.605C73.082 324.67 72.842 325.345 71.927 326.38C71.252 327.13 70.472 327.895 69.557 328.705L70.532 329.71C71.552 328.78 72.347 327.985 72.962 327.31C73.442 326.785 73.697 326.485 73.832 326.155H73.847ZM85.3394 325.615V326.875H90.9344V328.405H87.1544V333.085H96.2144V328.405H92.4344V326.875H98.0294V325.615H85.3394ZM86.7794 324.625H96.5894V323.41H94.7294V321.025H96.5144V319.81H86.8544V321.025H88.6394V323.41H86.7794V324.625ZM94.7444 331.84H88.6244V329.65H94.7444V331.84ZM90.0944 321.025H93.2744V323.41H90.0944V321.025ZM109.942 333.19V331.96H102.442V330.61H109.552V326.845H100.912V328.075H108.097V329.41H100.987V333.19H109.942ZM106.117 319.855H98.9017V321.1H101.842V321.19C101.842 322.285 101.737 322.81 100.927 323.53C100.372 324.025 99.3967 324.7 98.4367 325.315L99.2617 326.395C100.072 325.87 101.017 325.195 101.632 324.715C102.112 324.34 102.547 323.83 102.637 323.59H102.652C102.757 323.8 103.102 324.115 103.507 324.43C104.152 324.925 104.962 325.51 105.742 326.005L106.552 324.925C105.682 324.37 104.767 323.77 104.062 323.17C103.312 322.54 103.342 322.09 103.342 321.13V321.1H106.117V319.855ZM109.552 326.155V319.27H108.082V326.155H109.552ZM121.854 329.53V324.775H123.804V323.485H121.854V319.27H120.384V329.53H121.854ZM114.519 328.81H113.034V332.965H122.229V331.69H114.519V328.81ZM119.529 325.9C117.954 326.05 116.724 326.125 115.074 326.17V323.335H113.604V326.2H110.844V327.475C115.464 327.475 117.264 327.37 119.649 327.13L119.529 325.9ZM118.224 324.91C118.434 324.04 118.569 322.69 118.569 321.625V319.975H111.774V321.25H117.099V321.835C117.099 322.69 116.994 323.695 116.769 324.73L118.224 324.91ZM135.041 333.1V319.27H133.556V333.1H135.041ZM130.781 325.54V320.365H124.556V321.64H129.311V324.295H124.601V329.755H127.121C129.611 329.755 130.976 329.635 132.371 329.425L132.236 328.18C130.676 328.405 129.476 328.48 127.481 328.48H126.071V325.54H130.781ZM150.749 326.35V319.27H149.279V322.27H146.474C146.279 320.995 145.139 319.75 143.069 319.75C140.789 319.75 139.634 321.25 139.634 322.645V323.215C139.634 324.61 140.789 326.11 143.069 326.11C145.169 326.11 146.309 324.835 146.474 323.545H149.279V326.35H150.749ZM149.279 327.025V328.78H143.594V327.025H142.124V333.1H150.749V327.025H149.279ZM143.069 324.835C141.794 324.835 141.059 323.965 141.059 323.14V322.72C141.059 321.895 141.794 321.04 143.069 321.04C144.344 321.04 145.079 321.895 145.079 322.72V323.14C145.079 323.965 144.344 324.835 143.069 324.835ZM143.594 331.84V330.025H149.279V331.84H143.594ZM162.826 320.05H153.766V325.705H162.826V320.05ZM159.046 333.1V328.555H164.641V327.295H151.951V328.555H157.546V333.1H159.046ZM155.236 321.295H161.356V324.46H155.236V321.295ZM172.173 326.29C172.293 326.59 172.668 327.01 173.088 327.46C173.658 328.075 174.288 328.705 175.308 329.635L176.283 328.63C175.398 327.85 174.768 327.265 174.123 326.56C173.058 325.405 172.893 324.955 172.893 323.77V321.805H175.788V320.515H168.423V321.805H171.393V323.77C171.393 324.88 171.228 325.45 170.238 326.545C169.563 327.295 168.828 328.03 167.928 328.84L168.903 329.845C169.908 328.915 170.658 328.15 171.273 327.475C171.753 326.95 172.023 326.62 172.158 326.29H172.173ZM179.148 333.1V319.27H177.663V333.1H179.148ZM183.141 327.895V333.085H191.766V327.895H183.141ZM184.896 324.385C185.001 324.61 185.301 324.895 185.751 325.27C186.471 325.87 187.146 326.38 187.926 326.92L188.766 325.84C187.881 325.255 187.071 324.67 186.366 324.025C185.706 323.425 185.586 322.915 185.586 321.985V321.955H188.421V320.68H185.586V319.105H184.086V320.68H181.071V321.955H184.086V322.045C184.086 323.11 183.831 323.68 183.096 324.4C182.556 324.925 181.641 325.615 180.681 326.29L181.551 327.355C182.391 326.77 183.231 326.11 183.876 325.555C184.356 325.15 184.791 324.64 184.881 324.385H184.896ZM184.611 329.155H190.296V331.825H184.611V329.155ZM191.766 327.22V319.27H190.296V327.22H191.766ZM207.923 319.27H206.468V324.1H204.803V319.555H203.348V332.425H204.803V325.39H206.468V333.1H207.923V319.27ZM200.243 323.185C200.243 325.225 200.243 326.275 196.013 328.99L196.838 330.145C201.188 327.235 201.698 326.125 201.698 323.44V320.62H196.403V321.895H200.243V323.185ZM211.78 330.865C211.78 332.32 213.37 333.49 216.025 333.49C218.68 333.49 220.27 332.32 220.27 330.865V330.265C220.27 328.81 218.68 327.64 216.025 327.64C213.37 327.64 211.78 328.81 211.78 330.265V330.865ZM213.13 324.385C213.235 324.61 213.535 324.895 213.985 325.27C214.705 325.87 215.35 326.365 216.13 326.905L216.97 325.825C216.085 325.24 215.305 324.67 214.6 324.025C213.94 323.425 213.82 322.915 213.82 321.955V321.4H216.55V320.125H209.41V321.4H212.32V322.015C212.32 323.11 212.065 323.68 211.33 324.4C210.79 324.925 209.905 325.6 208.945 326.275L209.815 327.34C210.655 326.755 211.465 326.11 212.11 325.555C212.59 325.15 213.025 324.64 213.115 324.385H213.13ZM218.815 330.775C218.815 331.51 217.735 332.275 216.025 332.275C214.315 332.275 213.235 331.51 213.235 330.775V330.355C213.235 329.62 214.315 328.855 216.025 328.855C217.735 328.855 218.815 329.62 218.815 330.355V330.775ZM220.21 327.445V319.27H218.74V322.66H216.19V323.935H218.74V327.445H220.21ZM227.623 320.305C225.628 320.305 224.593 321.655 224.593 324.28V325.75C224.593 328.375 225.643 329.725 227.623 329.725C229.063 329.725 229.993 329.02 230.413 327.64H232.243V332.425H233.683V319.555H232.243V322.315H230.383C229.963 320.995 229.018 320.305 227.623 320.305ZM236.308 319.27H234.853V333.1H236.308V319.27ZM227.623 328.42C226.468 328.42 225.988 327.445 225.988 325.585V324.445C225.988 322.585 226.468 321.625 227.623 321.625C228.778 321.625 229.258 322.585 229.258 324.445V325.585C229.258 327.43 228.793 328.42 227.623 328.42ZM230.653 324.28C230.653 324.04 230.638 323.815 230.623 323.59H232.243V326.365H230.623C230.638 326.17 230.653 325.96 230.653 325.75V324.28ZM240.135 330.865C240.135 332.32 241.725 333.49 244.38 333.49C247.035 333.49 248.625 332.32 248.625 330.865V330.265C248.625 328.81 247.035 327.64 244.38 327.64C241.725 327.64 240.135 328.81 240.135 330.265V330.865ZM241.485 324.385C241.59 324.61 241.89 324.895 242.34 325.27C243.06 325.87 243.705 326.365 244.485 326.905L245.325 325.825C244.44 325.24 243.66 324.67 242.955 324.025C242.295 323.425 242.175 322.915 242.175 321.955V321.4H244.905V320.125H237.765V321.4H240.675V322.015C240.675 323.11 240.42 323.68 239.685 324.4C239.145 324.925 238.26 325.6 237.3 326.275L238.17 327.34C239.01 326.755 239.82 326.11 240.465 325.555C240.945 325.15 241.38 324.64 241.47 324.385H241.485ZM247.17 330.775C247.17 331.51 246.09 332.275 244.38 332.275C242.67 332.275 241.59 331.51 241.59 330.775V330.355C241.59 329.62 242.67 328.855 244.38 328.855C246.09 328.855 247.17 329.62 247.17 330.355V330.775ZM248.565 327.445V319.27H247.095V322.66H244.545V323.935H247.095V327.445H248.565Z" fill="#222222"/>
<path d="M31.48 369.615V370.875H37.075V372.405H33.295V377.085H42.355V372.405H38.575V370.875H44.17V369.615H31.48ZM32.92 368.625H42.73V367.41H40.87V365.025H42.655V363.81H32.995V365.025H34.78V367.41H32.92V368.625ZM40.885 375.84H34.765V373.65H40.885V375.84ZM36.235 365.025H39.415V367.41H36.235V365.025ZM56.0823 377.19V375.96H48.5823V374.61H55.6923V370.845H47.0523V372.075H54.2373V373.41H47.1273V377.19H56.0823ZM52.2573 363.855H45.0423V365.1H47.9823V365.19C47.9823 366.285 47.8773 366.81 47.0673 367.53C46.5123 368.025 45.5373 368.7 44.5773 369.315L45.4023 370.395C46.2123 369.87 47.1573 369.195 47.7723 368.715C48.2523 368.34 48.6873 367.83 48.7773 367.59H48.7923C48.8973 367.8 49.2423 368.115 49.6473 368.43C50.2923 368.925 51.1023 369.51 51.8823 370.005L52.6923 368.925C51.8223 368.37 50.9073 367.77 50.2023 367.17C49.4523 366.54 49.4823 366.09 49.4823 365.13V365.1H52.2573V363.855ZM55.6923 370.155V363.27H54.2223V370.155H55.6923ZM67.9947 373.53V368.775H69.9447V367.485H67.9947V363.27H66.5247V373.53H67.9947ZM60.6597 372.81H59.1747V376.965H68.3697V375.69H60.6597V372.81ZM65.6697 369.9C64.0947 370.05 62.8647 370.125 61.2147 370.17V367.335H59.7447V370.2H56.9847V371.475C61.6047 371.475 63.4047 371.37 65.7897 371.13L65.6697 369.9ZM64.3647 368.91C64.5747 368.04 64.7097 366.69 64.7097 365.625V363.975H57.9147V365.25H63.2397V365.835C63.2397 366.69 63.1347 367.695 62.9097 368.73L64.3647 368.91ZM81.182 377.1V363.27H79.697V377.1H81.182ZM76.922 369.54V364.365H70.697V365.64H75.452V368.295H70.742V373.755H73.262C75.752 373.755 77.117 373.635 78.512 373.425L78.377 372.18C76.817 372.405 75.617 372.48 73.622 372.48H72.212V369.54H76.922ZM86.7944 367.185C86.7944 369.225 86.7944 370.275 82.5644 372.99L83.3894 374.145C87.4544 371.43 88.1594 370.275 88.2344 367.935H90.2294V370.215H88.2044V371.505H90.2294V376.425H91.6844V363.555H90.2294V366.645H88.2494V364.62H82.9544V365.895H86.7944V367.185ZM94.5044 363.27H93.0494V377.1H94.5044V363.27ZM104.407 370.74C103.087 370.86 101.977 370.935 100.657 370.98V370.17C102.262 369.99 103.102 369.24 103.102 368.295V367.905C103.102 366.84 102.007 366 99.9217 366C97.8367 366 96.7417 366.825 96.7417 367.905V368.295C96.7417 369.24 97.5817 369.99 99.1867 370.17V371.025C98.1667 371.04 97.0117 371.04 95.5717 371.04V372.285C100.192 372.285 102.142 372.18 104.527 371.94L104.407 370.74ZM97.4917 374.445H105.307V377.235H106.792V373.185H97.4917V374.445ZM106.792 372.465V363.27H105.322V372.465H106.792ZM100.657 364.365V363.105H99.1867V364.365H96.1117V365.595H103.687V364.365H100.657ZM99.9217 367.17C101.122 367.17 101.647 367.545 101.647 368.01V368.19C101.647 368.655 101.122 369.03 99.9217 369.03C98.7217 369.03 98.1967 368.655 98.1967 368.19V368.01C98.1967 367.545 98.7217 367.17 99.9217 367.17ZM119.559 377.1V363.27H118.074V367.545H115.134V368.85H118.074V377.1H119.559ZM112.179 370.155C112.299 370.455 112.659 370.875 113.079 371.325C113.649 371.94 114.324 372.615 115.359 373.575L116.319 372.555C115.419 371.76 114.759 371.13 114.114 370.425C113.199 369.405 112.914 368.79 112.914 367.605V364.275H111.414V367.605C111.414 368.67 111.174 369.345 110.259 370.38C109.584 371.13 108.804 371.895 107.889 372.705L108.864 373.71C109.884 372.78 110.679 371.985 111.294 371.31C111.774 370.785 112.029 370.485 112.164 370.155H112.179ZM124.961 374.085C130.436 370.77 130.646 369.93 130.646 367.2V364.545H124.451V365.82H129.176V367.185C129.176 369.315 128.966 370.095 124.181 372.9L124.961 374.085ZM135.056 377.1V363.27H133.571V377.1H135.056ZM142.694 367.17C142.844 367.485 143.894 367.98 144.539 368.25C145.499 368.655 146.384 368.985 147.419 369.33L147.959 368.13C146.744 367.74 145.889 367.44 145.094 367.08C144.074 366.615 143.429 366.165 143.429 365.52V365.085H147.389V363.855H137.999V365.085H141.944V365.52C141.944 366.165 141.269 366.675 140.279 367.095C139.469 367.44 138.644 367.74 137.414 368.13L137.969 369.33C138.974 369 139.874 368.67 140.879 368.25C141.509 367.98 142.529 367.485 142.679 367.17H142.694ZM143.624 374.055V371.355H149.039V370.095H136.349V371.355H142.124V374.055H143.624ZM139.664 372.81H138.179V376.95H147.479V375.66H139.664V372.81ZM163.966 363.27H162.511V368.1H160.846V363.555H159.391V376.425H160.846V369.39H162.511V377.1H163.966V363.27ZM156.286 367.185C156.286 369.225 156.286 370.275 152.056 372.99L152.881 374.145C157.231 371.235 157.741 370.125 157.741 367.44V364.62H152.446V365.895H156.286V367.185ZM167.823 374.865C167.823 376.32 169.413 377.49 172.068 377.49C174.723 377.49 176.313 376.32 176.313 374.865V374.265C176.313 372.81 174.723 371.64 172.068 371.64C169.413 371.64 167.823 372.81 167.823 374.265V374.865ZM169.173 368.385C169.278 368.61 169.578 368.895 170.028 369.27C170.748 369.87 171.393 370.365 172.173 370.905L173.013 369.825C172.128 369.24 171.348 368.67 170.643 368.025C169.983 367.425 169.863 366.915 169.863 365.955V365.4H172.593V364.125H165.453V365.4H168.363V366.015C168.363 367.11 168.108 367.68 167.373 368.4C166.833 368.925 165.948 369.6 164.988 370.275L165.858 371.34C166.698 370.755 167.508 370.11 168.153 369.555C168.633 369.15 169.068 368.64 169.158 368.385H169.173ZM174.858 374.775C174.858 375.51 173.778 376.275 172.068 376.275C170.358 376.275 169.278 375.51 169.278 374.775V374.355C169.278 373.62 170.358 372.855 172.068 372.855C173.778 372.855 174.858 373.62 174.858 374.355V374.775ZM176.253 371.445V363.27H174.783V366.66H172.233V367.935H174.783V371.445H176.253Z" fill="#222222"/>
<path d="M33.3224 301.788C33.3224 299.708 33.8294 297.758 35.1034 296.042H34.2714C32.9844 297.576 32.3604 299.539 32.3604 301.853V302.373C32.3604 304.687 32.9844 306.676 34.2714 308.21H35.1034C33.7644 306.377 33.3224 304.414 33.3224 302.438V301.788ZM35.0186 299.084H35.7336L36.6436 296.159H35.5646L35.0186 299.084ZM37.4781 305.558V306.338H43.4321V305.506H38.6221L41.5341 302.087C42.3401 301.151 43.0941 300.306 43.0941 299.292V299.162C43.0941 297.758 42.0281 296.822 40.3641 296.822C38.8041 296.822 37.9331 297.81 37.4911 298.616L38.2191 299.071C38.8301 297.979 39.5711 297.654 40.3901 297.654C41.5211 297.654 42.1711 298.239 42.1711 299.175V299.279C42.1711 299.773 42.0021 300.254 40.9751 301.463L37.4781 305.558ZM44.493 305.558V306.338H50.447V305.506H45.637L48.549 302.087C49.355 301.151 50.109 300.306 50.109 299.292V299.162C50.109 297.758 49.043 296.822 47.379 296.822C45.819 296.822 44.948 297.81 44.506 298.616L45.234 299.071C45.845 297.979 46.586 297.654 47.405 297.654C48.536 297.654 49.186 298.239 49.186 299.175V299.279C49.186 299.773 49.017 300.254 47.99 301.463L44.493 305.558ZM51.443 306.715H52.756V305.415H51.443V306.715ZM57.8665 306.338V296.965H57.1775L54.2785 298.759L54.6945 299.487L56.9565 298.109V306.338H57.8665ZM60.9294 305.558V306.338H66.8834V305.506H62.0734L64.9854 302.087C65.7914 301.151 66.5454 300.306 66.5454 299.292V299.162C66.5454 297.758 65.4794 296.822 63.8154 296.822C62.2554 296.822 61.3844 297.81 60.9424 298.616L61.6704 299.071C62.2814 297.979 63.0224 297.654 63.8414 297.654C64.9724 297.654 65.6224 298.239 65.6224 299.175V299.279C65.6224 299.773 65.4534 300.254 64.4264 301.463L60.9294 305.558ZM67.8793 306.715H69.1923V305.415H67.8793V306.715ZM76.4348 300.917C76.4348 298.291 75.4468 296.822 73.2368 296.822C71.0528 296.822 70.0648 298.291 70.0648 300.917V302.373C70.0648 304.999 71.0138 306.481 73.2368 306.481C75.4858 306.481 76.4348 305.025 76.4348 302.373V300.917ZM75.4988 302.386C75.4988 304.726 74.7318 305.662 73.2368 305.662C71.7938 305.662 71.0008 304.713 71.0008 302.386V300.904C71.0008 298.603 71.7938 297.641 73.2368 297.641C74.7318 297.641 75.4988 298.59 75.4988 300.904V302.386ZM81.3178 306.338V296.965H80.6288L77.7298 298.759L78.1458 299.487L80.4078 298.109V306.338H81.3178ZM96.1067 295.886H95.1837V307.768H96.1067V295.886ZM88.5927 302.048C87.9817 302.737 87.2667 303.426 86.4087 304.18L87.0197 304.817C87.7867 304.141 88.6447 303.27 89.0997 302.776C89.4897 302.347 89.9837 301.736 90.0227 301.567H90.0357C90.1007 301.736 90.4777 302.165 90.8677 302.581C91.3877 303.14 92.1157 303.855 92.9347 304.635L93.5327 304.011C92.5577 303.127 91.7907 302.347 91.2707 301.749C90.5687 300.943 90.4907 300.514 90.4907 299.513V296.744H89.5417V299.578C89.5417 300.605 89.4117 301.112 88.5927 302.048ZM103.818 308.093C105.729 308.093 107.497 307.495 107.497 306.065V305.597C107.497 304.167 105.729 303.569 103.818 303.569C101.907 303.569 100.139 304.167 100.139 305.584V306.065C100.139 307.495 101.907 308.093 103.818 308.093ZM100.308 302.932C101.764 302.932 102.739 302.061 102.739 301.073V300.605C102.739 299.604 101.764 298.746 100.308 298.746C98.8517 298.746 97.8767 299.604 97.8767 300.605V301.073C97.8767 302.061 98.8517 302.932 100.308 302.932ZM107.432 295.886H106.535V299.045H104.845V296.042H103.948V302.724H104.845V299.864H106.535V303.231H107.432V295.886ZM103.818 304.349C105.144 304.349 106.613 304.726 106.613 305.649V306.013C106.613 306.936 105.144 307.313 103.818 307.313C102.492 307.313 101.023 306.936 101.023 306.013V305.649C101.023 304.726 102.492 304.349 103.818 304.349ZM100.308 299.5C101.27 299.5 101.907 300.033 101.907 300.657V301.021C101.907 301.645 101.27 302.178 100.308 302.178C99.3457 302.178 98.7087 301.645 98.7087 301.021V300.657C98.7087 300.033 99.3457 299.5 100.308 299.5ZM97.4347 297.355V298.148H102.986V297.355H100.763V295.886H99.8527V297.355H97.4347ZM110.06 302.438C110.06 304.414 109.618 306.377 108.279 308.21H109.111C110.398 306.676 111.022 304.687 111.022 302.373V301.853C111.022 299.539 110.398 297.576 109.111 296.042H108.279C109.553 297.758 110.06 299.708 110.06 301.788V302.438Z" fill="#666666"/>
<path d="M32.963 345.788C32.963 343.708 33.47 341.758 34.744 340.042H33.912C32.625 341.576 32.001 343.539 32.001 345.853V346.373C32.001 348.687 32.625 350.676 33.912 352.21H34.744C33.405 350.377 32.963 348.414 32.963 346.438V345.788ZM34.6592 343.084H35.3742L36.2842 340.159H35.2052L34.6592 343.084ZM37.1187 349.558V350.338H43.0727V349.506H38.2627L41.1747 346.087C41.9807 345.151 42.7347 344.306 42.7347 343.292V343.162C42.7347 341.758 41.6687 340.822 40.0047 340.822C38.4447 340.822 37.5737 341.81 37.1317 342.616L37.8597 343.071C38.4707 341.979 39.2117 341.654 40.0307 341.654C41.1617 341.654 41.8117 342.239 41.8117 343.175V343.279C41.8117 343.773 41.6427 344.254 40.6157 345.463L37.1187 349.558ZM44.9397 342.746C45.4727 341.901 46.2007 341.654 46.9417 341.654C48.0727 341.654 48.7747 342.239 48.7747 343.175V343.279C48.7747 344.085 48.2027 345.06 47.0327 345.06H45.9407V345.84H46.9937C47.8907 345.84 49.1647 346.204 49.1647 347.621V347.79C49.1647 348.661 48.5537 349.649 46.9157 349.649C46.0577 349.649 45.2777 349.376 44.3677 348.713L43.9127 349.441C44.7967 350.143 45.8237 350.481 46.9157 350.481C49.2167 350.481 50.0617 349.116 50.0617 347.777V347.582C50.0617 346.49 49.3727 345.619 48.0857 345.398C49.3337 344.969 49.6977 344.033 49.6977 343.292V343.162C49.6977 341.758 48.6317 340.822 46.9287 340.822C45.4987 340.822 44.6927 341.524 44.2247 342.278L44.9397 342.746ZM51.0836 350.715H52.3966V349.415H51.0836V350.715ZM59.6391 344.917C59.6391 342.291 58.6511 340.822 56.4411 340.822C54.2571 340.822 53.2691 342.291 53.2691 344.917V346.373C53.2691 348.999 54.2181 350.481 56.4411 350.481C58.6901 350.481 59.6391 349.025 59.6391 346.373V344.917ZM58.7031 346.386C58.7031 348.726 57.9361 349.662 56.4411 349.662C54.9981 349.662 54.2051 348.713 54.2051 346.386V344.904C54.2051 342.603 54.9981 341.641 56.4411 341.641C57.9361 341.641 58.7031 342.59 58.7031 344.904V346.386ZM61.376 342.746C61.909 341.901 62.637 341.654 63.378 341.654C64.509 341.654 65.211 342.239 65.211 343.175V343.279C65.211 344.085 64.639 345.06 63.469 345.06H62.377V345.84H63.43C64.327 345.84 65.601 346.204 65.601 347.621V347.79C65.601 348.661 64.99 349.649 63.352 349.649C62.494 349.649 61.714 349.376 60.804 348.713L60.349 349.441C61.233 350.143 62.26 350.481 63.352 350.481C65.653 350.481 66.498 349.116 66.498 347.777V347.582C66.498 346.49 65.809 345.619 64.522 345.398C65.77 344.969 66.134 344.033 66.134 343.292V343.162C66.134 341.758 65.068 340.822 63.365 340.822C61.935 340.822 61.129 341.524 60.661 342.278L61.376 342.746ZM68.6899 346.438C68.6899 348.414 68.2479 350.377 66.9089 352.21H67.7409C69.0279 350.676 69.6519 348.687 69.6519 346.373V345.853C69.6519 343.539 69.0279 341.576 67.7409 340.042H66.9089C68.1829 341.758 68.6899 343.708 68.6899 345.788V346.438Z" fill="#666666"/>
<path d="M32.963 389.788C32.963 387.708 33.47 385.758 34.744 384.042H33.912C32.625 385.576 32.001 387.539 32.001 389.853V390.373C32.001 392.687 32.625 394.676 33.912 396.21H34.744C33.405 394.377 32.963 392.414 32.963 390.438V389.788ZM36.5312 383.977H35.8162L34.9062 386.902H35.9852L36.5312 383.977ZM37.1187 393.558V394.338H43.0727V393.506H38.2627L41.1747 390.087C41.9807 389.151 42.7347 388.306 42.7347 387.292V387.162C42.7347 385.758 41.6687 384.822 40.0047 384.822C38.4447 384.822 37.5737 385.81 37.1317 386.616L37.8597 387.071C38.4707 385.979 39.2117 385.654 40.0307 385.654C41.1617 385.654 41.8117 386.239 41.8117 387.175V387.279C41.8117 387.773 41.6427 388.254 40.6157 389.463L37.1187 393.558ZM48.0857 394.338V384.965H47.3967L44.4977 386.759L44.9137 387.487L47.1757 386.109V394.338H48.0857ZM51.0836 394.715H52.3966V393.415H51.0836V394.715ZM59.6391 388.917C59.6391 386.291 58.6511 384.822 56.4411 384.822C54.2571 384.822 53.2691 386.291 53.2691 388.917V390.373C53.2691 392.999 54.2181 394.481 56.4411 394.481C58.6901 394.481 59.6391 393.025 59.6391 390.373V388.917ZM58.7031 390.386C58.7031 392.726 57.9361 393.662 56.4411 393.662C54.9981 393.662 54.2051 392.713 54.2051 390.386V388.904C54.2051 386.603 54.9981 385.641 56.4411 385.641C57.9361 385.641 58.7031 386.59 58.7031 388.904V390.386ZM64.769 388.475V391.426H61.129L65.666 384.965H64.626L60.076 391.426V392.258H64.769V394.338H65.679V392.258H67.057V391.426H65.679V388.475H64.769ZM67.5199 394.715H68.8329V393.415H67.5199V394.715ZM76.0755 388.917C76.0755 386.291 75.0875 384.822 72.8775 384.822C70.6935 384.822 69.7055 386.291 69.7055 388.917V390.373C69.7055 392.999 70.6545 394.481 72.8775 394.481C75.1265 394.481 76.0755 393.025 76.0755 390.373V388.917ZM75.1395 390.386C75.1395 392.726 74.3725 393.662 72.8775 393.662C71.4345 393.662 70.6415 392.713 70.6415 390.386V388.904C70.6415 386.603 71.4345 385.641 72.8775 385.641C74.3725 385.641 75.1395 386.59 75.1395 388.904V390.386ZM77.8124 386.746C78.3454 385.901 79.0734 385.654 79.8144 385.654C80.9454 385.654 81.6474 386.239 81.6474 387.175V387.279C81.6474 388.085 81.0754 389.06 79.9054 389.06H78.8134V389.84H79.8664C80.7634 389.84 82.0374 390.204 82.0374 391.621V391.79C82.0374 392.661 81.4264 393.649 79.7884 393.649C78.9304 393.649 78.1504 393.376 77.2404 392.713L76.7854 393.441C77.6694 394.143 78.6964 394.481 79.7884 394.481C82.0894 394.481 82.9344 393.116 82.9344 391.777V391.582C82.9344 390.49 82.2454 389.619 80.9584 389.398C82.2064 388.969 82.5704 388.033 82.5704 387.292V387.162C82.5704 385.758 81.5044 384.822 79.8014 384.822C78.3714 384.822 77.5654 385.524 77.0974 386.278L77.8124 386.746ZM83.9563 394.715H85.2693V393.415H83.9563V394.715ZM98.1538 383.886H97.2308V395.768H98.1538V383.886ZM94.8778 388.176C94.8778 386.005 93.7858 384.718 91.9398 384.718C90.0938 384.718 89.0018 385.992 89.0018 388.163V389.398C89.0018 391.569 90.0938 392.856 91.9398 392.856C93.7858 392.856 94.8778 391.569 94.8778 389.398V388.176ZM93.9808 389.242C93.9808 391.218 93.1618 392.011 91.9398 392.011C90.7178 392.011 89.8988 391.218 89.8988 389.242V388.332C89.8988 386.356 90.7178 385.576 91.9398 385.576C93.1618 385.576 93.9808 386.356 93.9808 388.332V389.242ZM104.864 390.594C107.009 390.594 108.452 389.892 108.452 388.696V388.332C108.452 387.136 107.009 386.434 104.864 386.434C102.719 386.434 101.276 387.136 101.276 388.332V388.696C101.276 389.892 102.719 390.594 104.864 390.594ZM99.4039 391.465V392.258H104.409V395.768H105.332V392.258H110.324V391.465H99.4039ZM104.864 387.201C106.437 387.201 107.568 387.695 107.568 388.397V388.631C107.568 389.333 106.437 389.827 104.864 389.827C103.291 389.827 102.16 389.333 102.16 388.631V388.397C102.16 387.695 103.291 387.201 104.864 387.201ZM105.332 383.639H104.409V384.991H100.522V385.771H109.206V384.991H105.332V383.639ZM118.906 384.224H118.022V386.057H114.434V384.224H113.55V389.385H118.906V384.224ZM115.071 390.594V391.387H121.402V392.817H115.136V395.807H122.611V395.027H116.033V393.584H122.299V390.594H115.071ZM122.299 383.886H121.389V389.892H122.299V387.227H124.119V386.421H122.299V383.886ZM114.434 386.85H118.022V388.592H114.434V386.85ZM130.972 388.332C131.726 388.709 132.675 389.151 133.65 389.528L134.04 388.813C133.078 388.449 132.09 388.007 131.258 387.578C129.997 386.928 129.906 386.395 129.906 385.524V385.407H133.494V384.627H125.382V385.407H128.983V385.524C128.983 386.395 128.866 386.928 127.618 387.578C126.786 388.007 125.772 388.462 124.81 388.826L125.213 389.554C126.292 389.138 127.215 388.696 127.917 388.345C128.775 387.916 129.295 387.552 129.438 387.24H129.451C129.607 387.552 130.114 387.903 130.972 388.332ZM123.978 390.724V391.517H128.983V395.768H129.906V391.517H134.898V390.724H123.978ZM143.662 384.497H138.306V389.463H143.662V384.497ZM144.065 390.243H143.181V391.608H139.723V392.401H143.181V392.661C143.181 393.337 142.869 393.753 141.803 394.195C141.088 394.494 140.178 394.819 139.372 395.079L139.697 395.794C140.451 395.547 141.296 395.222 142.063 394.91C142.882 394.559 143.415 394.208 143.623 393.844C143.831 394.208 144.351 394.559 145.183 394.91C145.95 395.222 146.795 395.547 147.549 395.794L147.874 395.079C147.068 394.819 146.158 394.494 145.443 394.195C144.377 393.753 144.065 393.337 144.065 392.661V392.401H147.497V391.608H144.065V390.243ZM142.778 388.657H139.19V385.303H142.778V388.657ZM147.315 383.886H146.405V390.373H147.315V383.886ZM160.226 383.886H159.303V395.768H160.226V389.138H162.215V388.319H160.226V383.886ZM153.102 390.022C152.491 390.711 151.776 391.4 150.918 392.154L151.529 392.791C152.296 392.115 153.154 391.244 153.609 390.75C153.999 390.321 154.493 389.71 154.532 389.541H154.545C154.61 389.71 154.987 390.139 155.377 390.555C155.897 391.114 156.625 391.829 157.444 392.609L158.042 391.985C157.067 391.101 156.3 390.321 155.78 389.723C155.078 388.917 155 388.488 155 387.487V384.757H154.051V387.552C154.051 388.579 153.921 389.086 153.102 390.022ZM162.49 387.318C162.49 388.514 163.66 389.684 165.389 389.684C167.079 389.684 168.236 388.566 168.288 387.396H170.992V389.957H171.902V383.886H170.992V386.59H168.288C168.223 385.433 167.066 384.328 165.389 384.328C163.66 384.328 162.49 385.498 162.49 386.694V387.318ZM171.005 390.659V392.297H165.545V390.659H164.648V395.755H171.902V390.659H171.005ZM167.404 387.227C167.404 388.085 166.546 388.865 165.389 388.865C164.232 388.865 163.374 388.085 163.374 387.227V386.785C163.374 385.927 164.232 385.147 165.389 385.147C166.546 385.147 167.404 385.927 167.404 386.785V387.227ZM165.545 394.936V393.103H171.005V394.936H165.545ZM178.586 391.452C176.636 391.452 174.894 392.154 174.894 393.545V393.987C174.894 395.352 176.636 396.08 178.586 396.08C180.536 396.08 182.278 395.352 182.278 393.987V393.545C182.278 392.18 180.536 391.452 178.586 391.452ZM178.586 395.3C177.182 395.3 175.778 394.806 175.778 393.935V393.597C175.778 392.726 177.182 392.232 178.586 392.232C179.99 392.232 181.394 392.726 181.394 393.597V393.935C181.394 394.806 179.99 395.3 178.586 395.3ZM173.126 389.593V390.386H184.046V389.593H173.126ZM183.201 387.929C182.044 387.474 181.069 387.071 180.445 386.759C179.275 386.187 179.054 385.849 179.054 384.952V384.055H178.131V384.952C178.131 385.849 177.897 386.187 176.727 386.759C176.103 387.071 175.141 387.474 173.971 387.929L174.348 388.67C175.258 388.319 176.285 387.864 176.935 387.552C178.04 387.032 178.495 386.707 178.586 386.447H178.599C178.69 386.694 179.145 387.019 180.25 387.539C180.9 387.851 181.94 388.306 182.85 388.657L183.201 387.929ZM187.649 391.738H186.726V395.625H194.292V394.819H187.649V391.738ZM193.993 383.886H193.083V392.388H193.993V383.886ZM187.649 390.412C189.43 390.412 190.574 389.086 190.574 387.799V387.019C190.574 385.732 189.43 384.406 187.649 384.406C185.868 384.406 184.724 385.732 184.724 387.019V387.799C184.724 389.086 185.868 390.412 187.649 390.412ZM187.649 385.225C188.858 385.225 189.69 386.122 189.69 387.097V387.721C189.69 388.696 188.858 389.593 187.649 389.593C186.44 389.593 185.608 388.696 185.608 387.721V387.097C185.608 386.122 186.44 385.225 187.649 385.225ZM203.16 391.374C201.21 391.374 199.468 392.102 199.468 393.493V393.961C199.468 395.326 201.21 396.08 203.16 396.08C205.11 396.08 206.852 395.326 206.852 393.961V393.493C206.852 392.128 205.11 391.374 203.16 391.374ZM203.16 395.3C201.756 395.3 200.352 394.78 200.352 393.909V393.545C200.352 392.674 201.756 392.154 203.16 392.154C204.564 392.154 205.968 392.674 205.968 393.545V393.909C205.968 394.78 204.564 395.3 203.16 395.3ZM197.7 389.463V390.243H208.62V389.463H202.978V386.954H202.042V389.463H197.7ZM199.143 384.406V385.212H206.046V385.628C206.046 386.499 205.929 387.552 205.721 388.501L206.631 388.605C206.813 387.773 206.956 386.538 206.956 385.615V384.406H199.143ZM217.956 383.886H217.033V395.768H217.956V389.138H219.945V388.319H217.956V383.886ZM210.832 390.022C210.221 390.711 209.506 391.4 208.648 392.154L209.259 392.791C210.026 392.115 210.884 391.244 211.339 390.75C211.729 390.321 212.223 389.71 212.262 389.541H212.275C212.34 389.71 212.717 390.139 213.107 390.555C213.627 391.114 214.355 391.829 215.174 392.609L215.772 391.985C214.797 391.101 214.03 390.321 213.51 389.723C212.808 388.917 212.73 388.488 212.73 387.487V384.757H211.781V387.552C211.781 388.579 211.651 389.086 210.832 390.022ZM226.109 388.033C226.161 388.202 226.668 388.644 227.279 389.138C227.669 389.45 228.28 389.905 228.813 390.269L229.346 389.632C228.605 389.138 227.877 388.592 227.461 388.241C226.616 387.513 226.525 387.162 226.525 386.395V385.394H229.073V384.601H222.924V385.394H225.602V386.434C225.602 387.136 225.459 387.591 224.822 388.215C224.185 388.839 223.353 389.476 222.586 390.022L223.145 390.672C223.743 390.243 224.627 389.541 225.082 389.138C225.628 388.657 226.044 388.228 226.096 388.033H226.109ZM224.51 392.284H231.244V395.859H232.154V391.478H224.51V392.284ZM232.154 383.886H231.244V386.863H228.761V387.669H231.244V390.776H232.154V383.886ZM233.326 389.97V390.75H244.246V389.97H241.269V388.189C242.023 387.851 242.517 387.305 242.517 386.59V386.148C242.517 384.796 240.775 384.094 238.786 384.094C236.797 384.094 235.055 384.796 235.055 386.148V386.59C235.055 387.318 235.549 387.851 236.316 388.189V389.97H233.326ZM238.786 396.08C240.918 396.08 242.517 395.235 242.517 394.013V393.571C242.517 392.349 240.918 391.504 238.786 391.504C236.654 391.504 235.055 392.349 235.055 393.571V394.013C235.055 395.235 236.654 396.08 238.786 396.08ZM238.786 392.284C240.281 392.284 241.633 392.843 241.633 393.649V393.935C241.633 394.741 240.281 395.3 238.786 395.3C237.291 395.3 235.939 394.741 235.939 393.935V393.649C235.939 392.843 237.291 392.284 238.786 392.284ZM238.786 384.874C240.216 384.874 241.633 385.381 241.633 386.213V386.525C241.633 387.357 240.216 387.864 238.786 387.864C237.356 387.864 235.939 387.357 235.939 386.525V386.213C235.939 385.381 237.356 384.874 238.786 384.874ZM238.786 388.644C239.345 388.644 239.878 388.592 240.372 388.488V389.97H237.213V388.488C237.694 388.592 238.227 388.644 238.786 388.644ZM246.029 390.438C246.029 392.414 245.587 394.377 244.248 396.21H245.08C246.367 394.676 246.991 392.687 246.991 390.373V389.853C246.991 387.539 246.367 385.576 245.08 384.042H244.248C245.522 385.758 246.029 387.708 246.029 389.788V390.438Z" fill="#666666"/>
<path d="M173 437L179 427H167L173 437Z" fill="#19B29B"/>
<rect x="1.5" y="508.5" width="342" height="155" rx="77.5" fill="white" stroke="url(#paint0_linear_1_46485)" stroke-width="3"/>
<path d="M53.31 541.17C53.31 542.985 55.605 543.975 57.825 543.975C60.045 543.975 62.34 542.985 62.34 541.17V540.48C62.34 538.665 60.045 537.675 57.825 537.675C55.605 537.675 53.31 538.665 53.31 540.48V541.17ZM61.29 541.08C61.29 542.295 59.685 543.015 57.825 543.015C55.965 543.015 54.36 542.295 54.36 541.08V540.57C54.36 539.355 55.965 538.635 57.825 538.635C59.685 538.635 61.29 539.355 61.29 540.57V541.08ZM51.525 545.385V546.3H54.885V551.025H55.95V546.3H59.7V551.025H60.765V546.3H64.125V545.385H51.525ZM75.1523 537.33H74.1023V547.5H75.1523V542.595H77.2073V541.65H75.1523V537.33ZM67.7423 546.81H66.6773V550.875H75.5273V549.945H67.7423V546.81ZM73.0523 544.065C71.7773 544.2 70.4423 544.29 68.3273 544.335V541.29H67.2773V544.35C66.4073 544.365 65.4323 544.365 64.3073 544.365V545.295C68.8523 545.295 71.3123 545.175 73.1423 544.95L73.0523 544.065ZM65.2223 538.05V538.98H70.8473V539.61C70.8473 540.69 70.7123 541.74 70.4873 542.775L71.5373 542.91C71.7323 542.1 71.8973 540.75 71.8973 539.4V538.05H65.2223ZM86.7347 537.855V539.91H79.9247V537.855H78.8897V543.735H87.7697V537.855H86.7347ZM77.0297 545.565V546.48H82.8047V551.04H83.8697V546.48H89.6297V545.565H77.0297ZM79.9247 542.85V540.825H86.7347V542.85H79.9247ZM101.137 537.33H100.087V541.68H96.832V542.64H100.087V551.04H101.137V537.33ZM92.257 544.41C91.552 545.205 90.727 546 89.737 546.87L90.442 547.605C91.327 546.825 92.317 545.82 92.842 545.25C93.292 544.755 93.862 544.05 93.907 543.855H93.922C93.997 544.05 94.432 544.545 94.882 545.025C95.482 545.67 96.322 546.495 97.267 547.395L97.957 546.675C96.832 545.655 95.947 544.755 95.347 544.065C94.537 543.135 94.447 542.64 94.447 541.485V538.335H93.352V541.56C93.352 542.745 93.202 543.33 92.257 544.41ZM103.344 545.745C108.459 543.525 109.119 542.715 109.119 540.27V538.23H103.374V539.16H108.084V540.21C108.084 542.19 107.709 542.79 102.909 544.875L103.344 545.745ZM113.274 537.33H112.224V547.14H113.274V542.265H115.374V541.335H113.274V537.33ZM106.134 546.405H105.069V550.875H113.694V549.945H106.134V546.405ZM122.097 546.3H121.032V550.875H129.747V549.945H122.097V546.3ZM129.402 537.33H128.352V547.11H129.402V537.33ZM122.427 542.205C122.502 542.445 122.907 542.85 123.597 543.435C124.107 543.87 124.767 544.41 125.592 545.04L126.222 544.305C125.547 543.81 124.737 543.165 124.002 542.52C122.997 541.62 122.907 541.26 122.907 540.15V537.975H121.827V540.18C121.827 541.32 121.722 541.695 120.777 542.64C120.102 543.315 119.142 544.095 118.332 544.71L118.992 545.46C119.862 544.77 120.717 544.05 121.242 543.555C121.902 542.925 122.367 542.46 122.412 542.205H122.427ZM137.714 542.205H136.664V544.2H130.889V545.1H143.489V544.2H137.714V542.205ZM142.514 541.95C141.179 541.425 140.054 540.96 139.334 540.6C137.984 539.94 137.729 539.55 137.729 538.515V537.51H136.664V538.515C136.664 539.55 136.394 539.94 135.044 540.6C134.324 540.96 133.214 541.425 131.864 541.95L132.299 542.805C133.349 542.4 134.534 541.875 135.284 541.515C136.559 540.915 137.084 540.54 137.189 540.24H137.204C137.309 540.525 137.834 540.9 139.109 541.5C139.859 541.86 141.059 542.385 142.109 542.79L142.514 541.95ZM132.494 547.665H140.624V551.145H141.674V546.75H132.494V547.665ZM150.886 543.015C150.886 541.77 149.686 540.6 147.736 540.6C145.786 540.6 144.586 541.77 144.586 543.015V543.585C144.586 544.83 145.786 546 147.736 546C149.686 546 150.886 544.83 150.886 543.585V543.015ZM147.736 545.1C146.401 545.1 145.591 544.275 145.591 543.54V543.06C145.591 542.325 146.401 541.5 147.736 541.5C149.071 541.5 149.881 542.325 149.881 543.06V543.54C149.881 544.275 149.071 545.1 147.736 545.1ZM154.426 537.33H153.376V547.305H154.426V542.445H156.526V541.515H154.426V537.33ZM147.316 547.08H146.251V550.875H154.846V549.945H147.316V547.08ZM148.261 537.195H147.211V538.95H143.806V539.865H151.696V538.95H148.261V537.195ZM166.414 543.015C166.414 541.77 165.229 540.6 163.279 540.6C161.329 540.6 160.144 541.77 160.144 543.015V543.585C160.144 544.83 161.329 546 163.279 546C165.229 546 166.414 544.83 166.414 543.585V543.015ZM167.269 540.945V541.86H169.594V543.885H167.269V544.8H169.594V547.305H170.629V537.33H169.594V540.945H167.269ZM163.279 545.1C161.944 545.1 161.149 544.275 161.149 543.54V543.06C161.149 542.325 161.944 541.5 163.279 541.5C164.614 541.5 165.409 542.325 165.409 543.06V543.54C165.409 544.275 164.614 545.1 163.279 545.1ZM163.294 547.08H162.229V550.875H170.974V549.945H163.294V547.08ZM163.789 537.18H162.739V538.95H159.364V539.865H167.314V538.95H163.789V537.18ZM175.791 544.86C177.846 544.86 179.151 543.315 179.151 541.83V540.96C179.151 539.475 177.846 537.93 175.791 537.93C173.736 537.93 172.431 539.49 172.431 540.96V541.83C172.431 543.315 173.736 544.86 175.791 544.86ZM175.791 538.875C177.186 538.875 178.131 539.925 178.131 541.05V541.74C178.131 542.865 177.186 543.915 175.791 543.915C174.396 543.915 173.451 542.865 173.451 541.74V541.05C173.451 539.955 174.396 538.875 175.791 538.875ZM182.766 537.33H181.716V547.14H182.766V542.415H184.866V541.485H182.766V537.33ZM175.641 546.375H174.576V550.875H183.186V549.945H175.641V546.375ZM193.898 545.97C191.648 545.97 189.638 546.81 189.638 548.415V548.955C189.638 550.53 191.648 551.4 193.898 551.4C196.148 551.4 198.158 550.53 198.158 548.955V548.415C198.158 546.84 196.148 545.97 193.898 545.97ZM193.898 550.5C192.278 550.5 190.658 549.9 190.658 548.895V548.475C190.658 547.47 192.278 546.87 193.898 546.87C195.518 546.87 197.138 547.47 197.138 548.475V548.895C197.138 549.9 195.518 550.5 193.898 550.5ZM187.598 543.765V544.665H200.198V543.765H193.688V540.87H192.608V543.765H187.598ZM189.263 537.93V538.86H197.228V539.34C197.228 540.345 197.093 541.56 196.853 542.655L197.903 542.775C198.113 541.815 198.278 540.39 198.278 539.325V537.93H189.263ZM202.136 541.17C202.136 542.985 204.431 543.975 206.651 543.975C208.871 543.975 211.166 542.985 211.166 541.17V540.48C211.166 538.665 208.871 537.675 206.651 537.675C204.431 537.675 202.136 538.665 202.136 540.48V541.17ZM210.116 541.08C210.116 542.295 208.511 543.015 206.651 543.015C204.791 543.015 203.186 542.295 203.186 541.08V540.57C203.186 539.355 204.791 538.635 206.651 538.635C208.511 538.635 210.116 539.355 210.116 540.57V541.08ZM200.351 545.385V546.3H203.711V551.025H204.776V546.3H208.526V551.025H209.591V546.3H212.951V545.385H200.351Z" fill="#222222"/>
<path d="M43.5 546C44.3284 546 45 545.328 45 544.5C45 543.672 44.3284 543 43.5 543C42.6716 543 42 543.672 42 544.5C42 545.328 42.6716 546 43.5 546Z" fill="#CCCCCC"/>
<path d="M58.695 569.015C58.695 567.77 57.51 566.6 55.56 566.6C53.61 566.6 52.425 567.77 52.425 569.015V569.585C52.425 570.83 53.61 572 55.56 572C57.51 572 58.695 570.83 58.695 569.585V569.015ZM59.55 566.945V567.86H61.875V569.885H59.55V570.8H61.875V573.305H62.91V563.33H61.875V566.945H59.55ZM55.56 571.1C54.225 571.1 53.43 570.275 53.43 569.54V569.06C53.43 568.325 54.225 567.5 55.56 567.5C56.895 567.5 57.69 568.325 57.69 569.06V569.54C57.69 570.275 56.895 571.1 55.56 571.1ZM55.575 573.08H54.51V576.875H63.255V575.945H55.575V573.08ZM56.07 563.18H55.02V564.95H51.645V565.865H59.595V564.95H56.07V563.18ZM71.0423 571.7C68.7923 571.7 66.9623 572.66 66.9623 574.265V574.835C66.9623 576.41 68.7923 577.4 71.0423 577.4C73.2923 577.4 75.1223 576.41 75.1223 574.835V574.265C75.1223 572.69 73.2923 571.7 71.0423 571.7ZM71.0423 576.5C69.4373 576.5 67.9823 575.855 67.9823 574.79V574.31C67.9823 573.245 69.4373 572.6 71.0423 572.6C72.6473 572.6 74.1023 573.245 74.1023 574.31V574.79C74.1023 575.855 72.6473 576.5 71.0423 576.5ZM68.5223 568.1C68.5823 568.295 69.1673 568.805 69.8723 569.375C70.3223 569.735 71.0423 570.275 71.6423 570.695L72.2573 569.945C71.4023 569.375 70.5623 568.745 70.0823 568.34C69.1073 567.5 69.0023 567.095 69.0023 566.21V565.115H71.9573V564.2H64.8473V565.115H67.9373V566.255C67.9373 567.065 67.7723 567.59 67.0373 568.31C66.3023 569.03 65.3423 569.765 64.4573 570.395L65.1023 571.145C65.7923 570.65 66.8123 569.84 67.3373 569.375C67.9673 568.82 68.4473 568.325 68.5073 568.1H68.5223ZM75.0473 563.33H73.9973V571.4H75.0473V567.725H77.1473V566.795H75.0473V563.33ZM88.0697 564.59H80.7497V565.52H83.8997V567.785C83.8997 568.925 83.7647 569.495 82.8197 570.56C82.1297 571.34 81.2747 572.165 80.3297 573.005L81.0347 573.71C81.9347 572.93 82.9397 571.865 83.3447 571.445C83.7797 570.98 84.3647 570.305 84.4397 570.035H84.4547C84.5297 570.23 84.9497 570.695 85.3847 571.16C85.9847 571.805 86.7047 572.54 87.7397 573.5L88.4297 572.795C87.3197 571.805 86.4347 570.92 85.8497 570.245C85.0547 569.33 84.9647 568.85 84.9647 567.71V565.52H88.0697V564.59ZM91.3547 563.33H90.2897V577.04H91.3547V563.33ZM97.147 568.64C98.977 568.64 100.447 567.68 100.447 566.405V565.835C100.447 564.56 98.977 563.6 97.147 563.6C95.317 563.6 93.847 564.56 93.847 565.835V566.405C93.847 567.68 95.317 568.64 97.147 568.64ZM99.847 571.595V572.525H102.937V573.98H103.987V563.33H102.937V571.595H99.847ZM97.147 564.5C98.407 564.5 99.442 565.145 99.442 565.925V566.315C99.442 567.095 98.407 567.74 97.147 567.74C95.887 567.74 94.852 567.095 94.852 566.315V565.925C94.852 565.145 95.887 564.5 97.147 564.5ZM96.292 573.245H95.227V576.875H104.302V575.945H96.292V573.245ZM101.797 569.285C99.217 569.555 97.207 569.615 92.887 569.615V570.53C94.267 570.53 95.422 570.53 96.427 570.5V572.66H97.492V570.485C99.262 570.425 100.537 570.335 101.887 570.2L101.797 569.285ZM108.399 577.01H116.784V571.835H108.399V577.01ZM109.419 572.78H115.764V576.065H109.419V572.78ZM109.809 567.98C109.869 568.175 110.454 568.685 111.159 569.255C111.609 569.615 112.314 570.14 112.929 570.56L113.544 569.825C112.689 569.255 111.849 568.625 111.369 568.22C110.394 567.38 110.289 566.975 110.289 566.09V565.07H113.229V564.155H106.134V565.07H109.224V566.135C109.224 566.945 109.059 567.47 108.324 568.19C107.589 568.91 106.629 569.645 105.744 570.275L106.389 571.025C107.079 570.53 108.099 569.72 108.624 569.255C109.254 568.7 109.734 568.205 109.794 567.98H109.809ZM116.784 563.33H115.734V566.72H112.884V567.65H115.734V571.025H116.784V563.33ZM121.122 577.01H129.507V571.79H121.122V577.01ZM119.112 571.28C122.697 569.75 124.137 568.94 124.662 567.665H128.457V570.98H129.507V563.33H128.457V566.735H124.902C124.932 566.465 124.947 566.18 124.947 565.865V564.155H119.172V565.085H123.912V565.775C123.912 567.8 123.447 568.43 118.707 570.41L119.112 571.28ZM122.142 572.735H128.487V576.065H122.142V572.735ZM145.049 563.33H143.984V577.04H145.049V563.33ZM136.379 570.44C135.674 571.235 134.849 572.03 133.859 572.9L134.564 573.635C135.449 572.855 136.439 571.85 136.964 571.28C137.414 570.785 137.984 570.08 138.029 569.885H138.044C138.119 570.08 138.554 570.575 139.004 571.055C139.604 571.7 140.444 572.525 141.389 573.425L142.079 572.705C140.954 571.685 140.069 570.785 139.469 570.095C138.659 569.165 138.569 568.67 138.569 567.515V564.32H137.474V567.59C137.474 568.775 137.324 569.36 136.379 570.44ZM158.176 570.785C157.036 570.905 155.866 570.995 154.156 571.04V570.02C155.866 569.885 156.706 569.12 156.706 568.175V567.815C156.706 566.795 155.701 565.955 153.616 565.955C151.531 565.955 150.526 566.78 150.526 567.815V568.175C150.526 569.12 151.366 569.9 153.106 570.02V571.07C152.056 571.085 150.841 571.085 149.356 571.085V572.015C153.931 572.015 156.406 571.895 158.266 571.67L158.176 570.785ZM151.216 574.055H159.166V577.175H160.201V573.125H151.216V574.055ZM160.201 563.33H159.151V572.315H160.201V568.67H162.256V567.725H160.201V563.33ZM149.866 564.455V565.355H157.366V564.455H154.141V563.15H153.091V564.455H149.866ZM153.616 566.825C155.026 566.825 155.701 567.32 155.701 567.86V568.13C155.701 568.67 155.026 569.165 153.616 569.165C152.206 569.165 151.531 568.67 151.531 568.13V567.86C151.531 567.32 152.206 566.825 153.616 566.825ZM166.099 572.39H165.034V576.875H173.764V575.945H166.099V572.39ZM173.419 563.33H172.369V573.14H173.419V563.33ZM166.099 570.86C168.154 570.86 169.474 569.33 169.474 567.845V566.945C169.474 565.46 168.154 563.93 166.099 563.93C164.044 563.93 162.724 565.46 162.724 566.945V567.845C162.724 569.33 164.044 570.86 166.099 570.86ZM166.099 564.875C167.494 564.875 168.454 565.91 168.454 567.035V567.755C168.454 568.88 167.494 569.915 166.099 569.915C164.704 569.915 163.744 568.88 163.744 567.755V567.035C163.744 565.91 164.704 564.875 166.099 564.875ZM184.806 564.035H178.626V569.765H184.806V564.035ZM185.271 570.665H184.251V572.24H180.261V573.155H184.251V573.455C184.251 574.235 183.891 574.715 182.661 575.225C181.836 575.57 180.786 575.945 179.856 576.245L180.231 577.07C181.101 576.785 182.076 576.41 182.961 576.05C183.906 575.645 184.521 575.24 184.761 574.82C185.001 575.24 185.601 575.645 186.561 576.05C187.446 576.41 188.421 576.785 189.291 577.07L189.666 576.245C188.736 575.945 187.686 575.57 186.861 575.225C185.631 574.715 185.271 574.235 185.271 573.455V573.155H189.231V572.24H185.271V570.665ZM183.786 568.835H179.646V564.965H183.786V568.835ZM189.021 563.33H187.971V570.815H189.021V563.33ZM196.103 570.92V571.835H203.528V573.56H196.178V577.085H204.923V576.185H197.213V574.445H204.563V570.92H196.103ZM204.563 563.33H203.513V570.11H204.563V563.33ZM197.588 567.245C197.678 567.5 198.233 567.98 198.938 568.535C199.373 568.88 200.048 569.39 200.753 569.885L201.353 569.12C200.558 568.595 199.703 567.95 199.148 567.485C198.203 566.69 198.068 566.345 198.068 565.25V563.675H196.988V565.295C196.988 566.39 196.748 566.9 195.878 567.695C195.263 568.25 194.378 568.955 193.448 569.6L194.078 570.365C195.098 569.63 195.938 568.94 196.463 568.475C197.123 567.905 197.498 567.485 197.573 567.245H197.588ZM213.506 577.415C215.711 577.415 217.751 576.725 217.751 575.075V574.535C217.751 572.885 215.711 572.195 213.506 572.195C211.301 572.195 209.261 572.885 209.261 574.52V575.075C209.261 576.725 211.301 577.415 213.506 577.415ZM209.456 571.46C211.136 571.46 212.261 570.455 212.261 569.315V568.775C212.261 567.62 211.136 566.63 209.456 566.63C207.776 566.63 206.651 567.62 206.651 568.775V569.315C206.651 570.455 207.776 571.46 209.456 571.46ZM217.676 563.33H216.641V566.975H214.691V563.51H213.656V571.22H214.691V567.92H216.641V571.805H217.676V563.33ZM213.506 573.095C215.036 573.095 216.731 573.53 216.731 574.595V575.015C216.731 576.08 215.036 576.515 213.506 576.515C211.976 576.515 210.281 576.08 210.281 575.015V574.595C210.281 573.53 211.976 573.095 213.506 573.095ZM209.456 567.5C210.566 567.5 211.301 568.115 211.301 568.835V569.255C211.301 569.975 210.566 570.59 209.456 570.59C208.346 570.59 207.611 569.975 207.611 569.255V568.835C207.611 568.115 208.346 567.5 209.456 567.5ZM206.141 565.025V565.94H212.546V565.025H209.981V563.33H208.931V565.025H206.141ZM222.148 573.605C223.588 573.605 224.473 572.87 224.848 571.475H226.978V576.365H228.028V563.615H226.978V566.495H224.833C224.443 565.145 223.558 564.425 222.148 564.425C220.168 564.425 219.223 565.835 219.223 568.4V569.63C219.223 572.195 220.168 573.605 222.148 573.605ZM222.148 565.4C223.483 565.4 224.053 566.465 224.053 568.52V569.51C224.053 571.565 223.483 572.63 222.148 572.63C220.813 572.63 220.243 571.565 220.243 569.51V568.52C220.243 566.465 220.813 565.4 222.148 565.4ZM230.608 563.33H229.558V577.04H230.608V563.33ZM225.073 569.63V568.4C225.073 568.055 225.058 567.74 225.013 567.425H226.978V570.545H225.028C225.058 570.26 225.073 569.96 225.073 569.63ZM235.545 568.205C235.62 568.445 236.025 568.85 236.715 569.435C237.225 569.87 237.885 570.41 238.68 571.01L239.31 570.275C238.65 569.795 237.855 569.165 237.12 568.52C236.115 567.62 236.025 567.26 236.025 566.15V563.975H234.945V566.18C234.945 567.305 234.84 567.695 233.895 568.64C233.22 569.315 232.275 570.095 231.465 570.695L232.125 571.46C232.95 570.8 233.835 570.05 234.36 569.555C235.02 568.925 235.485 568.46 235.53 568.205H235.545ZM242.265 563.33H241.215V573.11H242.265V568.205H244.365V567.275H242.265V563.33ZM235.155 572.285H234.09V576.875H242.7V575.945H235.155V572.285ZM254.058 564.02H253.038V566.54H248.898V564.02H247.878V570.845H254.058V564.02ZM257.943 563.33H256.893V573.14H257.943V568.31H260.043V567.38H257.943V563.33ZM250.803 572.465H249.738V576.875H258.363V575.945H250.803V572.465ZM248.898 567.455H253.038V569.93H248.898V567.455ZM267.23 571.7C264.98 571.7 263.075 572.63 263.075 574.25V574.835C263.075 576.41 264.98 577.4 267.23 577.4C269.48 577.4 271.385 576.41 271.385 574.835V574.25C271.385 572.675 269.48 571.7 267.23 571.7ZM263.75 570.545C265.865 570.545 267.095 569.015 267.095 567.65V566.78C267.095 565.415 265.865 563.885 263.75 563.885C261.635 563.885 260.405 565.415 260.405 566.78V567.65C260.405 569.015 261.635 570.545 263.75 570.545ZM267.23 576.5C265.625 576.5 264.095 575.87 264.095 574.805V574.295C264.095 573.23 265.625 572.6 267.23 572.6C268.835 572.6 270.365 573.23 270.365 574.295V574.805C270.365 575.87 268.835 576.5 267.23 576.5ZM263.75 564.83C265.1 564.83 266.075 565.715 266.075 566.87V567.56C266.075 568.715 265.1 569.6 263.75 569.6C262.4 569.6 261.425 568.715 261.425 567.56V566.87C261.425 565.715 262.4 564.83 263.75 564.83ZM267.815 565.205V566.12H270.275V568.325H267.815V569.24H270.275V571.4H271.31V563.33H270.275V565.205H267.815Z" fill="#222222"/>
<path d="M53.1 595.475H57.285V596C57.285 597.545 57 597.89 55.56 598.85C54.87 599.3 53.67 599.99 52.41 600.62L52.965 601.445C54.03 600.89 55.275 600.17 56.16 599.6C57.195 598.925 57.705 598.52 57.825 598.235H57.84C57.975 598.52 58.47 598.91 59.505 599.585C60.39 600.155 61.62 600.86 62.67 601.4L63.21 600.605C61.95 599.975 60.78 599.3 60.09 598.85C58.65 597.89 58.365 597.545 58.365 596V595.475H62.55V594.56H53.1V595.475ZM51.525 604.19V605.105H64.125V604.19H58.365V601.04H57.285V604.19H51.525ZM75.5573 593.33H74.4923V607.04H75.5573V593.33ZM65.5373 603.92C70.4123 601.07 71.1473 600.05 71.1473 597.32V594.62H65.1323V595.58H70.1123V597.305C70.1123 599.54 69.5873 600.425 64.9823 603.065L65.5373 603.92ZM87.1997 601.73C84.9497 601.73 83.0447 602.645 83.0447 604.265V604.85C83.0447 606.425 84.9497 607.4 87.1997 607.4C89.4497 607.4 91.3547 606.425 91.3547 604.85V604.265C91.3547 602.69 89.4497 601.73 87.1997 601.73ZM87.1997 606.5C85.5947 606.5 84.0647 605.885 84.0647 604.82V604.31C84.0647 603.245 85.5947 602.63 87.1997 602.63C88.8047 602.63 90.3347 603.245 90.3347 604.31V604.82C90.3347 605.885 88.8047 606.5 87.1997 606.5ZM84.3047 598.19C84.3647 598.385 84.9497 598.895 85.6547 599.465C86.1047 599.825 86.8247 600.365 87.4247 600.785L88.0397 600.035C87.1847 599.465 86.3447 598.835 85.8647 598.43C84.8897 597.59 84.7847 597.185 84.7847 596.3V595.115H87.7247V594.2H80.6297V595.115H83.7197V596.345C83.7197 597.155 83.5547 597.68 82.8197 598.4C82.0847 599.12 81.1247 599.855 80.2397 600.485L80.8847 601.235C81.5747 600.74 82.5947 599.93 83.1197 599.465C83.7497 598.91 84.2297 598.415 84.2897 598.19H84.3047ZM91.2797 593.33H90.2297V596.84H87.3647V597.77H90.2297V601.415H91.2797V593.33ZM96.892 598.355C96.952 598.55 97.537 599.06 98.242 599.63C98.692 599.99 99.412 600.53 100.012 600.95L100.627 600.2C99.772 599.63 98.932 599 98.452 598.595C97.477 597.755 97.372 597.35 97.372 596.495V595.775H100.402V594.86H97.372V593.15H96.307V594.86H93.127V595.775H96.307V596.54C96.307 597.32 96.142 597.845 95.407 598.565C94.672 599.285 93.712 600.02 92.827 600.65L93.472 601.4C94.162 600.905 95.182 600.095 95.707 599.63C96.337 599.075 96.817 598.58 96.877 598.355H96.892ZM94.792 603.215H102.352V607.145H103.402V602.285H94.792V603.215ZM103.402 593.33H102.352V601.475H103.402V597.83H105.502V596.9H103.402V593.33ZM105.384 599.465V600.365H117.984V599.465H105.384ZM115.974 595.73C115.974 594.32 114.099 593.465 111.684 593.465C109.269 593.465 107.394 594.305 107.394 595.73V596.18C107.394 597.59 109.269 598.445 111.684 598.445C114.099 598.445 115.974 597.59 115.974 596.18V595.73ZM108.429 595.775C108.429 594.965 109.884 594.35 111.684 594.35C113.484 594.35 114.939 594.965 114.939 595.775V596.135C114.939 596.945 113.484 597.56 111.684 597.56C109.884 597.56 108.429 596.945 108.429 596.135V595.775ZM107.199 601.565V602.45H115.074V603.89H107.274V607.1H116.514V606.215H108.309V604.76H116.109V601.565H107.199ZM125.592 599.45C127.527 599.45 129.087 598.385 129.087 596.855V596.225C129.087 594.695 127.527 593.63 125.592 593.63C123.657 593.63 122.097 594.695 122.097 596.225V596.855C122.097 598.385 123.657 599.45 125.592 599.45ZM125.592 594.575C126.927 594.575 128.067 595.28 128.067 596.3V596.78C128.067 597.8 126.927 598.505 125.592 598.505C124.257 598.505 123.117 597.8 123.117 596.78V596.3C123.117 595.28 124.257 594.575 125.592 594.575ZM132.462 593.33H131.397V607.04H132.462V593.33ZM130.347 600.56C128.337 600.785 125.607 600.89 121.272 600.89V601.82C122.772 601.82 124.002 601.805 125.082 601.79V606.605H126.162V601.745C127.812 601.685 129.072 601.61 130.437 601.475L130.347 600.56ZM140.984 599.015C140.984 597.77 139.784 596.6 137.834 596.6C135.884 596.6 134.684 597.77 134.684 599.015V599.585C134.684 600.83 135.884 602 137.834 602C139.784 602 140.984 600.83 140.984 599.585V599.015ZM137.834 601.1C136.499 601.1 135.689 600.275 135.689 599.54V599.06C135.689 598.325 136.499 597.5 137.834 597.5C139.169 597.5 139.979 598.325 139.979 599.06V599.54C139.979 600.275 139.169 601.1 137.834 601.1ZM144.524 593.33H143.474V603.305H144.524V598.445H146.624V597.515H144.524V593.33ZM137.414 603.08H136.349V606.875H144.944V605.945H137.414V603.08ZM138.359 593.195H137.309V594.95H133.904V595.865H141.794V594.95H138.359V593.195ZM149.341 604.19V605.105H161.941V604.19H156.826V599.165H155.761V604.19H153.436V599.165H152.371V604.19H149.341ZM159.721 602.405C160.066 600.47 160.186 598.745 160.186 596.225V594.605H150.931V595.535H159.106V596.78C159.106 598.73 159.001 600.425 158.641 602.285L159.721 602.405ZM168.394 598.865C170.644 598.865 172.699 598.01 172.699 596.495V595.955C172.699 594.44 170.644 593.585 168.394 593.585C166.144 593.585 164.089 594.425 164.089 595.955V596.495C164.089 598.01 166.144 598.865 168.394 598.865ZM163.699 603.74H171.829V607.145H172.879V602.825H171.049V600.86H174.694V599.96H162.094V600.86H165.739V602.825H163.699V603.74ZM168.394 594.485C170.014 594.485 171.679 595.1 171.679 596.045V596.405C171.679 597.35 170.014 597.965 168.394 597.965C166.774 597.965 165.109 597.35 165.109 596.405V596.045C165.109 595.1 166.774 594.485 168.394 594.485ZM166.774 600.86H170.014V602.825H166.774V600.86ZM185.886 594.59H178.566V595.52H181.716V597.785C181.716 598.925 181.581 599.495 180.636 600.56C179.946 601.34 179.091 602.165 178.146 603.005L178.851 603.71C179.751 602.93 180.756 601.865 181.161 601.445C181.596 600.98 182.181 600.305 182.256 600.035H182.271C182.346 600.23 182.766 600.695 183.201 601.16C183.801 601.805 184.521 602.54 185.556 603.5L186.246 602.795C185.136 601.805 184.251 600.92 183.666 600.245C182.871 599.33 182.781 598.85 182.781 597.71V595.52H185.886V594.59ZM189.171 593.33H188.106V607.04H189.171V593.33ZM194.963 598.64C196.793 598.64 198.263 597.68 198.263 596.405V595.835C198.263 594.56 196.793 593.6 194.963 593.6C193.133 593.6 191.663 594.56 191.663 595.835V596.405C191.663 597.68 193.133 598.64 194.963 598.64ZM197.663 601.595V602.525H200.753V603.98H201.803V593.33H200.753V601.595H197.663ZM194.963 594.5C196.223 594.5 197.258 595.145 197.258 595.925V596.315C197.258 597.095 196.223 597.74 194.963 597.74C193.703 597.74 192.668 597.095 192.668 596.315V595.925C192.668 595.145 193.703 594.5 194.963 594.5ZM194.108 603.245H193.043V606.875H202.118V605.945H194.108V603.245ZM199.613 599.285C197.033 599.555 195.023 599.615 190.703 599.615V600.53C192.083 600.53 193.238 600.53 194.243 600.5V602.66H195.308V600.485C197.078 600.425 198.353 600.335 199.703 600.2L199.613 599.285ZM207.056 604.625H208.571V603.125H207.056V604.625ZM207.056 597.995H208.571V596.495H207.056V597.995ZM218.871 602.09C216.621 602.09 214.611 602.885 214.611 604.49V605C214.611 606.575 216.621 607.4 218.871 607.4C221.121 607.4 223.131 606.575 223.131 605V604.49C223.131 602.915 221.121 602.09 218.871 602.09ZM212.571 600.095V600.995H225.171V600.095H219.396V598.37H223.296V597.47H215.511V594.785H223.221V593.885H214.476V598.37H218.346V600.095H212.571ZM218.871 606.5C217.251 606.5 215.631 605.945 215.631 604.94V604.55C215.631 603.545 217.251 602.99 218.871 602.99C220.491 602.99 222.111 603.545 222.111 604.55V604.94C222.111 605.945 220.491 606.5 218.871 606.5ZM228.263 600.95V601.865H235.688V603.575H228.338V607.085H237.083V606.185H229.373V604.46H236.723V600.95H228.263ZM229.748 597.5C229.823 597.695 230.318 598.115 231.038 598.64C231.623 599.06 232.343 599.57 232.913 599.93L233.498 599.18C232.748 598.73 231.983 598.205 231.353 597.725C230.318 596.945 230.228 596.72 230.228 595.55V594.845H233.168V593.93H226.073V594.845H229.163V595.685C229.163 596.705 228.983 597.08 228.113 597.815C227.408 598.4 226.553 599.015 225.683 599.57L226.283 600.35C227.108 599.81 228.098 599.06 228.638 598.625C229.313 598.07 229.688 597.695 229.733 597.5H229.748ZM232.808 596.27V597.2H235.673V600.14H236.723V593.33H235.673V596.27H232.808ZM249.356 593.33H248.291V607.04H249.356V593.33ZM239.336 603.92C244.211 601.07 244.946 600.05 244.946 597.32V594.62H238.931V595.58H243.911V597.305C243.911 599.54 243.386 600.425 238.781 603.065L239.336 603.92ZM263.968 601.115V603.005H257.668V601.115H256.633V607.025H265.003V601.115H263.968ZM258.193 597.755C258.268 597.95 258.763 598.37 259.483 598.895C260.068 599.315 260.758 599.795 261.373 600.185L261.958 599.435C261.208 598.985 260.428 598.46 259.798 597.98C258.763 597.2 258.673 596.99 258.673 595.805V595.07H261.658V594.155H254.488V595.07H257.608V595.94C257.608 596.96 257.428 597.335 256.558 598.07C255.853 598.655 254.998 599.27 254.098 599.84L254.698 600.62C255.553 600.065 256.543 599.315 257.083 598.88C257.758 598.325 258.133 597.95 258.178 597.755H258.193ZM257.668 606.08V603.935H263.968V606.08H257.668ZM265.003 593.33H263.953V600.305H265.003V593.33ZM266.7 596.42H269.37V597.77C269.37 599.105 269.22 599.72 268.5 600.635C268.05 601.22 267.15 602.18 266.265 603.02L266.97 603.725C267.915 602.795 268.605 602.03 269.16 601.385C269.61 600.845 269.865 600.425 269.91 600.26H269.925C269.985 600.425 270.3 600.905 270.735 601.4C271.245 601.97 272.04 602.885 272.7 603.545L273.39 602.87C272.55 602.03 271.83 601.235 271.335 600.62C270.585 599.66 270.42 599.165 270.42 597.77V596.42H272.955V595.49H270.42V593.615H269.37V595.49H266.7V596.42ZM272.16 598.4V599.36H274.545V606.365H275.595V593.615H274.545V598.4H272.16ZM278.25 593.33H277.2V607.04H278.25V593.33ZM279.183 604.19V605.105H291.783V604.19H286.668V599.165H285.603V604.19H283.278V599.165H282.213V604.19H279.183ZM289.563 602.405C289.908 600.47 290.028 598.745 290.028 596.225V594.605H280.773V595.535H288.948V596.78C288.948 598.73 288.843 600.425 288.483 602.285L289.563 602.405ZM298.235 598.865C300.485 598.865 302.54 598.01 302.54 596.495V595.955C302.54 594.44 300.485 593.585 298.235 593.585C295.985 593.585 293.93 594.425 293.93 595.955V596.495C293.93 598.01 295.985 598.865 298.235 598.865ZM293.54 603.74H301.67V607.145H302.72V602.825H300.89V600.86H304.535V599.96H291.935V600.86H295.58V602.825H293.54V603.74ZM298.235 594.485C299.855 594.485 301.52 595.1 301.52 596.045V596.405C301.52 597.35 299.855 597.965 298.235 597.965C296.615 597.965 294.95 597.35 294.95 596.405V596.045C294.95 595.1 296.615 594.485 298.235 594.485ZM296.615 600.86H299.855V602.825H296.615V600.86ZM314.648 594.035H308.468V599.765H314.648V594.035ZM315.113 600.665H314.093V602.24H310.103V603.155H314.093V603.455C314.093 604.235 313.733 604.715 312.503 605.225C311.678 605.57 310.628 605.945 309.698 606.245L310.073 607.07C310.943 606.785 311.918 606.41 312.803 606.05C313.748 605.645 314.363 605.24 314.603 604.82C314.843 605.24 315.443 605.645 316.403 606.05C317.288 606.41 318.263 606.785 319.133 607.07L319.508 606.245C318.578 605.945 317.528 605.57 316.703 605.225C315.473 604.715 315.113 604.235 315.113 603.455V603.155H319.073V602.24H315.113V600.665ZM313.628 598.835H309.488V594.965H313.628V598.835ZM318.863 593.33H317.813V600.815H318.863V593.33ZM60.705 625.31C60.135 625.385 59.565 625.43 58.935 625.475C59.1 624.53 59.19 623.615 59.19 622.67V620.99H52.875V621.935H58.155V622.805C58.155 623.675 58.065 624.53 57.87 625.535C56.34 625.61 54.465 625.64 51.78 625.64V626.555C53.115 626.555 54.27 626.555 55.32 626.525V629.195H56.385V626.51C58.185 626.45 59.565 626.36 60.795 626.21L60.705 625.31ZM58.74 627.665V628.595H61.83V630.935H62.88V620.33H61.83V627.665H58.74ZM55.2 629.975H54.135V633.875H63.225V632.945H55.2V629.975ZM68.1173 627.515C70.2323 627.515 71.4623 625.97 71.4623 624.605V623.765C71.4623 622.4 70.2323 620.855 68.1173 620.855C66.0023 620.855 64.7723 622.415 64.7723 623.765V624.605C64.7723 625.97 66.0023 627.515 68.1173 627.515ZM68.1173 621.8C69.4673 621.8 70.4423 622.7 70.4423 623.855V624.515C70.4423 625.67 69.4673 626.57 68.1173 626.57C66.7673 626.57 65.7923 625.67 65.7923 624.515V623.855C65.7923 622.73 66.7673 621.8 68.1173 621.8ZM72.1823 622.205V623.12H74.6423V625.325H72.1823V626.24H74.6423V628.25H75.6773V620.33H74.6423V622.205H72.1823ZM66.8723 629.99H74.6423V634.145H75.6773V629.06H66.8723V629.99ZM84.0347 620.72H83.0147V622.835H78.8897V620.72H77.8697V626.69H84.0347V620.72ZM79.9397 628.1V629.015H87.3647V630.65H80.0147V634.085H88.7597V633.185H81.0497V631.535H88.3997V628.1H79.9397ZM84.8897 622.175V623.09H87.3647V624.755H84.8897V625.67H87.3647V627.29H88.3997V620.33H87.3647V622.175H84.8897ZM78.8897 623.75H83.0147V625.775H78.8897V623.75ZM97.237 626.36C99.157 626.36 100.702 625.295 100.702 623.81V623.18C100.702 621.695 99.157 620.63 97.237 620.63C95.317 620.63 93.772 621.695 93.772 623.18V623.81C93.772 625.295 95.317 626.36 97.237 626.36ZM99.742 629.96V630.905H103.042V634.04H104.107V620.33H103.042V629.96H99.742ZM97.237 621.575C98.527 621.575 99.682 622.265 99.682 623.255V623.735C99.682 624.725 98.527 625.415 97.237 625.415C95.947 625.415 94.792 624.725 94.792 623.735V623.255C94.792 622.265 95.947 621.575 97.237 621.575ZM101.992 627.38C99.982 627.605 97.252 627.71 92.917 627.71V628.64C94.357 628.64 95.557 628.625 96.607 628.61V633.605H97.687V628.58C99.397 628.52 100.687 628.43 102.082 628.295L101.992 627.38ZM106.824 625.655L106.854 626.6L114.999 626.45C114.909 627.59 114.744 628.67 114.534 629.825L115.629 629.945C115.989 628.01 116.169 626.27 116.169 623.75V621.575H107.049V622.505H115.074V624.305C115.074 624.74 115.059 625.145 115.044 625.55L106.824 625.655ZM105.384 631.19V632.105H117.984V631.19H105.384ZM127.692 628.115V630.005H121.542V628.115H120.507V634.025H128.727V628.115H127.692ZM121.542 633.08V630.935H127.692V633.08H121.542ZM122.007 624.47C122.097 624.725 122.652 625.205 123.357 625.76C123.792 626.105 124.452 626.6 125.142 627.095L125.742 626.33C124.962 625.805 124.122 625.175 123.567 624.71C122.622 623.915 122.487 623.57 122.487 622.475V620.885H121.407V622.52C121.407 623.615 121.167 624.125 120.297 624.92C119.682 625.475 118.827 626.15 117.882 626.81L118.527 627.575C119.532 626.84 120.357 626.165 120.882 625.7C121.542 625.13 121.917 624.71 121.992 624.47H122.007ZM128.727 620.33H127.692V627.305H128.727V625.505H130.827V624.575H128.727V623.03H130.827V622.1H128.727V620.33ZM136.544 627.92V628.835H143.969V630.56H136.619V634.085H145.364V633.185H137.654V631.445H145.004V627.92H136.544ZM145.004 620.33H143.954V627.11H145.004V620.33ZM138.029 624.245C138.119 624.5 138.674 624.98 139.379 625.535C139.814 625.88 140.489 626.39 141.194 626.885L141.794 626.12C140.999 625.595 140.144 624.95 139.589 624.485C138.644 623.69 138.509 623.345 138.509 622.25V620.675H137.429V622.295C137.429 623.39 137.189 623.9 136.319 624.695C135.704 625.25 134.819 625.955 133.889 626.6L134.519 627.365C135.539 626.63 136.379 625.94 136.904 625.475C137.564 624.905 137.939 624.485 138.014 624.245H138.029ZM157.801 620.33H156.736V634.04H157.801V620.33ZM149.131 627.44C148.426 628.235 147.601 629.03 146.611 629.9L147.316 630.635C148.201 629.855 149.191 628.85 149.716 628.28C150.166 627.785 150.736 627.08 150.781 626.885H150.796C150.871 627.08 151.306 627.575 151.756 628.055C152.356 628.7 153.196 629.525 154.141 630.425L154.831 629.705C153.706 628.685 152.821 627.785 152.221 627.095C151.411 626.165 151.321 625.67 151.321 624.515V621.32H150.226V624.59C150.226 625.775 150.076 626.36 149.131 627.44Z" fill="#222222"/>
<path d="M43.5 572C44.3284 572 45 571.328 45 570.5C45 569.672 44.3284 569 43.5 569C42.6716 569 42 569.672 42 570.5C42 571.328 42.6716 572 43.5 572Z" fill="#CCCCCC"/>
<path d="M43.5 601C44.3284 601 45 600.328 45 599.5C45 598.672 44.3284 598 43.5 598C42.6716 598 42 598.672 42 599.5C42 600.328 42.6716 601 43.5 601Z" fill="#CCCCCC"/>
<path d="M138.454 18.88H150.734V12.46H145.854V10.96H153.114V8.92H136.074V10.96H143.334V12.46H138.454V18.88ZM138.134 0.879999V2.86H140.274V5.72H138.014V7.7H151.174V5.72H148.914V2.86H151.054V0.879999H138.134ZM140.954 14.48H148.234V16.86H140.954V14.48ZM142.754 2.86H146.434V5.72H142.754V2.86ZM156.777 10.36V12.36H166.097V13.76H156.877V19.06H169.097V17.06H159.317V15.66H168.537V10.36H156.777ZM168.537 0.28H166.017V9.52H168.537V0.28ZM154.197 3.16H157.837V3.82C157.837 4.74 157.617 5.24 156.797 5.9C155.937 6.6 154.717 7.44 153.437 8.24L154.777 10.08C155.877 9.38 156.937 8.66 157.757 8.06C158.637 7.42 159.137 6.98 159.237 6.74H159.257C159.377 6.96 159.857 7.34 160.697 7.9C161.517 8.44 162.337 8.96 163.197 9.48L164.477 7.72C163.557 7.18 162.537 6.54 161.777 6.02C160.597 5.22 160.357 4.74 160.357 3.82V3.16H163.837V1.04H154.197V3.16ZM179.62 14.5C183.02 14.5 184.42 12.24 184.42 9.12V6.9C184.42 3.78 183.02 1.52 179.62 1.52C176.22 1.52 174.82 3.78 174.82 6.9V9.12C174.82 12.24 176.22 14.5 179.62 14.5ZM179.62 3.74C181.32 3.74 182 4.94 182 7.2V8.82C182 11.08 181.32 12.28 179.62 12.28C177.92 12.28 177.24 11.08 177.24 8.82V7.2C177.24 4.94 177.92 3.74 179.62 3.74ZM189.54 0.28H187V18.88H189.54V0.28ZM190.883 10.66V12.8H194.963V18.82H197.463V12.8H201.343V18.82H203.843V12.8H207.923V10.66H190.883ZM199.463 6.02C199.663 6.38 200.363 6.86 201.663 7.52C202.783 8.08 204.563 8.9 205.823 9.42L206.843 7.38C205.443 6.8 203.763 6.04 202.423 5.32C201.183 4.66 200.683 3.9 200.683 2.68V0.92H198.123V2.68C198.123 3.9 197.623 4.66 196.383 5.32C195.043 6.04 193.363 6.8 191.963 7.38L193.003 9.46C194.263 8.94 196.043 8.12 197.163 7.56C198.463 6.9 199.263 6.4 199.443 6.02H199.463Z" fill="#5082E6"/>
<path d="M149.234 467.66H146.814V484.98H149.234V475.8H150.874V485.88H153.294V467.28H150.874V473.62H149.234V467.66ZM137.694 469.04V480.94H140.774C142.434 480.94 144.374 480.88 145.994 480.6L145.734 478.44C144.074 478.7 142.394 478.76 140.774 478.76H140.194V471.22H144.874V469.04H137.694ZM154.077 475.98V478.04H171.117V475.98H154.077ZM162.597 474.94C166.177 474.94 168.697 473.72 168.697 471.46V470.98C168.697 468.72 166.177 467.5 162.597 467.5C159.017 467.5 156.497 468.72 156.497 470.98V471.46C156.497 473.72 159.017 474.94 162.597 474.94ZM162.597 469.54C164.637 469.54 166.197 470.16 166.197 471.06V471.38C166.197 472.28 164.637 472.9 162.597 472.9C160.557 472.9 158.997 472.28 158.997 471.38V471.06C158.997 470.16 160.557 469.54 162.597 469.54ZM162.597 486.44C165.837 486.44 168.597 485.34 168.597 483.02V482.42C168.597 480.1 165.837 479 162.597 479C159.357 479 156.597 480.1 156.597 482.42V483.02C156.597 485.34 159.357 486.44 162.597 486.44ZM162.597 481.04C164.377 481.04 166.097 481.64 166.097 482.58V482.86C166.097 483.8 164.377 484.4 162.597 484.4C160.817 484.4 159.097 483.8 159.097 482.86V482.58C159.097 481.64 160.817 481.04 162.597 481.04ZM187.8 480.52H190.32V467.28H187.8V472H184.82V474.16H187.8V480.52ZM181.02 479.44H178.48V485.68H190.62V483.52H181.02V479.44ZM175.76 470.6H179.38V472.16C179.38 473.14 178.98 473.88 178.28 474.5C177.44 475.24 176.24 476.16 174.98 477.02L176.46 478.88C177.46 478.18 178.34 477.5 179.2 476.82C180.12 476.1 180.68 475.56 180.76 475.32H180.78C180.86 475.52 181.38 475.98 182.22 476.6C182.96 477.14 183.82 477.74 184.68 478.3L186.04 476.5C185.04 475.86 184.04 475.18 183.2 474.54C182.14 473.72 181.9 473.14 181.9 472.16V470.6H185.36V468.44H175.76V470.6ZM194.623 481.64H203.963V486.12H206.483V479.52H194.623V481.64ZM206.483 467.28H203.983V478.68H206.483V475.9H208.883V473.74H206.483V472.04H208.883V469.88H206.483V467.28ZM194.943 473.98H200.923V468.12H192.463V470.22H198.443V471.96H192.463V477.82C197.563 477.82 200.403 477.78 202.703 477.52L202.483 475.44C200.043 475.68 197.743 475.72 194.943 475.72V473.98Z" fill="#33B9A5"/>
<defs>
<filter id="filter0_d_1_46485" x="72" y="30" width="220" height="220" filterUnits="userSpaceOnUse" color-interpolation-filters="sRGB">
<feFlood flood-opacity="0" result="BackgroundImageFix"/>
<feColorMatrix in="SourceAlpha" type="matrix" values="0 0 0 0 0 0 0 0 0 0 0 0 0 0 0 0 0 0 127 0" result="hardAlpha"/>
<feOffset dx="10" dy="10"/>
<feGaussianBlur stdDeviation="10"/>
<feColorMatrix type="matrix" values="0 0 0 0 0 0 0 0 0 0 0 0 0 0 0 0 0 0 0.102 0"/>
<feBlend mode="normal" in2="BackgroundImageFix" result="effect1_dropShadow_1_46485"/>
<feBlend mode="normal" in="SourceGraphic" in2="effect1_dropShadow_1_46485" result="shape"/>
</filter>
<linearGradient id="paint0_linear_1_46485" x1="172.5" y1="507" x2="172.5" y2="665" gradientUnits="userSpaceOnUse">
<stop stop-color="#33B9A5"/>
<stop offset="0.69" stop-color="#40A7C9"/>
<stop offset="1" stop-color="#5082E6"/>
</linearGradient>
</defs>
</svg>
