<svg width="345" height="614" viewBox="0 0 345 614" fill="none" xmlns="http://www.w3.org/2000/svg">
<g filter="url(#filter0_d_1_46513)">
<path d="M172 220C221.706 220 262 179.706 262 130C262 80.2944 221.706 40 172 40C122.294 40 82 80.2944 82 130C82 179.706 122.294 220 172 220Z" fill="white"/>
<path d="M261.5 130C261.5 179.429 221.429 219.5 172 219.5C122.571 219.5 82.5 179.429 82.5 130C82.5 80.5705 122.571 40.5 172 40.5C221.429 40.5 261.5 80.5705 261.5 130Z" stroke="#AAAAAA"/>
</g>
<path d="M128.961 128.384V130.4H137.913V132.848H131.865V140.336H146.361V132.848H140.313V130.4H149.265V128.384H128.961ZM131.265 126.8H146.961V124.856H143.985V121.04H146.841V119.096H131.385V121.04H134.241V124.856H131.265V126.8ZM144.009 138.344H134.217V134.84H144.009V138.344ZM136.569 121.04H141.657V124.856H136.569V121.04ZM168.324 140.504V138.536H156.324V136.376H167.7V130.352H153.876V132.32H165.372V134.456H153.996V140.504H168.324ZM162.204 119.168H150.66V121.16H155.364V121.304C155.364 123.056 155.196 123.896 153.9 125.048C153.012 125.84 151.452 126.92 149.916 127.904L151.236 129.632C152.532 128.792 154.044 127.712 155.028 126.944C155.796 126.344 156.492 125.528 156.636 125.144H156.66C156.828 125.48 157.38 125.984 158.028 126.488C159.06 127.28 160.356 128.216 161.604 129.008L162.9 127.28C161.508 126.392 160.044 125.432 158.916 124.472C157.716 123.464 157.764 122.744 157.764 121.208V121.16H162.204V119.168ZM167.7 129.248V118.232H165.348V129.248H167.7ZM181.216 132.776H178.84V140.12H193.12V138.056H181.216V132.776ZM192.664 134.024V118.232H190.312V134.024H192.664ZM184.072 125.336C184.072 126.8 183.112 128.432 180.808 128.432C178.528 128.432 177.544 126.8 177.544 125.336V124.28C177.544 122.816 178.504 121.184 180.808 121.184C183.112 121.184 184.072 122.816 184.072 124.28V125.336ZM175.264 125.432C175.264 127.616 177.064 130.496 180.808 130.496C184.552 130.496 186.352 127.616 186.352 125.432V124.184C186.352 122 184.552 119.12 180.808 119.12C177.064 119.12 175.264 122 175.264 124.184V125.432ZM199.676 130.664C203.18 130.664 205.292 130.592 207.956 130.28L207.74 128.312C204.788 128.648 202.556 128.648 199.916 128.648H198.38V125.912H205.316V119.24H195.956V121.256H202.964V123.944H196.028V130.664H199.676ZM213.212 131.792V118.232H210.884V121.136H206.9V123.176H210.884V124.976H206.9V127.016H210.884V131.792H213.212ZM198.644 134.984H210.836V140.576H213.212V132.944H198.644V134.984Z" fill="#222222"/>
<path d="M35.74 284.3H34.255V288.95H43.225V287.66H35.74V284.3ZM42.895 285.11V275.27H41.425V285.11H42.895ZM35.815 280.4C35.905 280.625 36.22 280.94 36.67 281.315C37.39 281.915 38.125 282.53 38.89 283.115L39.76 282.08C38.875 281.435 37.99 280.73 37.285 280.085C36.565 279.425 36.505 278.93 36.505 278V275.915H35.005V278.06C35.005 279.11 34.795 279.68 34.03 280.445C33.505 280.97 32.545 281.78 31.585 282.515L32.47 283.565C33.265 282.935 34.18 282.17 34.795 281.6C35.26 281.18 35.725 280.655 35.8 280.4H35.815ZM48.9123 289.07V283.58H52.2423V289.07H53.7273V283.58H56.9223V282.32H54.5823C54.8673 280.835 55.0023 279.32 55.0023 277.895V276.125H45.8223V277.43H53.5173V278.24C53.5173 279.56 53.3973 280.865 53.0973 282.32H44.2323V283.58H47.4273V289.07H48.9123ZM71.3847 285.14V275.27H69.9147V278.93H66.7497C66.7647 278.825 66.7647 278.705 66.7647 278.585V276.155H60.8697V277.415H65.3097V278.51C65.3097 280.025 64.5897 280.76 60.2997 282.635L60.8847 283.835C64.3497 282.35 65.8797 281.435 66.4497 280.205H69.9147V285.14H71.3847ZM64.2297 284.405H62.7447V288.95H71.6697V287.66H64.2297V284.405ZM74.222 286.025H82.007V289.265H83.507V284.765H79.682V283.265H85.277V282.005H72.587V283.265H78.182V284.765H74.222V286.025ZM78.932 279.335C79.157 279.725 79.817 280.01 80.447 280.25C81.557 280.67 82.607 281.015 83.732 281.33L84.182 280.13C82.952 279.785 82.007 279.485 81.332 279.215C80.237 278.78 79.682 278.405 79.667 277.685H83.672V276.455H79.667V275.09H78.182V276.455H74.192V277.685H78.182C78.167 278.405 77.627 278.81 76.532 279.215C75.527 279.59 74.717 279.845 73.682 280.13L74.132 281.33C75.242 281.015 76.307 280.67 77.432 280.25C78.062 280.01 78.692 279.725 78.917 279.335H78.932ZM89.4194 284.135C91.5644 284.135 92.6294 282.875 92.6294 281.585V281.135C92.6294 279.845 91.5644 278.585 89.4194 278.585C87.2744 278.585 86.2094 279.83 86.2094 281.135V281.585C86.2094 282.875 87.2744 284.135 89.4194 284.135ZM96.8894 285.305V275.27H95.4344V278.765H93.4094V280.04H95.4344V281.705H93.4094V282.98H95.4344V285.305H96.8894ZM89.7344 285.125H88.2494V288.95H97.1744V287.66H89.7344V285.125ZM93.4544 276.8H90.1394V275.135H88.6694V276.8H85.4594V278.06H93.4544V276.8ZM89.4194 282.95C88.2044 282.95 87.6194 282.245 87.6194 281.51V281.21C87.6194 280.475 88.1894 279.77 89.4194 279.77C90.6494 279.77 91.2194 280.475 91.2194 281.21V281.51C91.2194 282.245 90.6344 282.95 89.4194 282.95ZM100.732 286.85C100.732 288.305 102.292 289.49 104.902 289.49C107.512 289.49 109.072 288.305 109.072 286.85V286.25C109.072 284.795 107.512 283.61 104.902 283.61C102.292 283.61 100.732 284.795 100.732 286.25V286.85ZM102.382 280.295C102.487 280.52 102.787 280.805 103.237 281.18C103.957 281.78 104.602 282.275 105.382 282.815L106.222 281.735C105.337 281.15 104.557 280.58 103.852 279.935C103.192 279.335 103.072 278.825 103.072 277.865V277.4H105.817V276.125H98.6617V277.4H101.572V277.925C101.572 279.02 101.317 279.59 100.582 280.31C100.042 280.835 99.1567 281.51 98.1967 282.185L99.0667 283.25C99.9067 282.665 100.717 282.02 101.362 281.465C101.842 281.06 102.277 280.55 102.367 280.295H102.382ZM107.617 286.76C107.617 287.495 106.567 288.275 104.902 288.275C103.237 288.275 102.187 287.495 102.187 286.76V286.34C102.187 285.605 103.237 284.825 104.902 284.825C106.567 284.825 107.617 285.605 107.617 286.34V286.76ZM109.012 283.43V279.905H110.977V278.615H109.012V275.27H107.542V283.43H109.012ZM120.039 283.97C117.399 283.97 115.719 285.035 115.719 286.475V286.985C115.719 288.425 117.399 289.49 120.039 289.49C122.679 289.49 124.359 288.425 124.359 286.985V286.475C124.359 285.035 122.679 283.97 120.039 283.97ZM120.819 277.025H124.734V275.795H115.344V277.025H119.259V277.37C119.259 278.015 118.779 278.405 117.624 278.885C116.949 279.17 116.004 279.515 114.819 279.92L115.359 281.09C116.469 280.7 117.414 280.355 118.539 279.875C119.169 279.605 119.814 279.275 120.039 278.885C120.264 279.275 120.924 279.605 121.554 279.875C122.664 280.355 123.609 280.7 124.719 281.09L125.259 279.92C124.074 279.515 123.129 279.17 122.454 278.885C121.299 278.405 120.819 278.015 120.819 277.37V277.025ZM113.694 281.825V283.085H126.384V281.825H113.694ZM120.039 288.275C118.344 288.275 117.189 287.615 117.189 286.895V286.565C117.189 285.845 118.344 285.185 120.039 285.185C121.734 285.185 122.889 285.845 122.889 286.565V286.895C122.889 287.615 121.734 288.275 120.039 288.275ZM139.406 280.385H137.276V275.27H135.791V289.1H137.276V281.675H139.406V280.385ZM127.511 286.055C132.986 282.74 133.166 281.915 133.166 279.185V276.56H127.001V277.835H131.696V279.17C131.696 281.3 131.516 282.065 126.731 284.87L127.511 286.055Z" fill="#222222"/>
<path d="M31.48 308.615V309.875H37.075V311.405H33.295V316.085H42.355V311.405H38.575V309.875H44.17V308.615H31.48ZM32.92 307.625H42.73V306.41H40.87V304.025H42.655V302.81H32.995V304.025H34.78V306.41H32.92V307.625ZM40.885 314.84H34.765V312.65H40.885V314.84ZM36.235 304.025H39.415V306.41H36.235V304.025ZM56.0823 316.19V314.96H48.5823V313.61H55.6923V309.845H47.0523V311.075H54.2373V312.41H47.1273V316.19H56.0823ZM52.2573 302.855H45.0423V304.1H47.9823V304.19C47.9823 305.285 47.8773 305.81 47.0673 306.53C46.5123 307.025 45.5373 307.7 44.5773 308.315L45.4023 309.395C46.2123 308.87 47.1573 308.195 47.7723 307.715C48.2523 307.34 48.6873 306.83 48.7773 306.59H48.7923C48.8973 306.8 49.2423 307.115 49.6473 307.43C50.2923 307.925 51.1023 308.51 51.8823 309.005L52.6923 307.925C51.8223 307.37 50.9073 306.77 50.2023 306.17C49.4523 305.54 49.4823 305.09 49.4823 304.13V304.1H52.2573V302.855ZM55.6923 309.155V302.27H54.2223V309.155H55.6923ZM67.9947 312.53V307.775H69.9447V306.485H67.9947V302.27H66.5247V312.53H67.9947ZM60.6597 311.81H59.1747V315.965H68.3697V314.69H60.6597V311.81ZM65.6697 308.9C64.0947 309.05 62.8647 309.125 61.2147 309.17V306.335H59.7447V309.2H56.9847V310.475C61.6047 310.475 63.4047 310.37 65.7897 310.13L65.6697 308.9ZM64.3647 307.91C64.5747 307.04 64.7097 305.69 64.7097 304.625V302.975H57.9147V304.25H63.2397V304.835C63.2397 305.69 63.1347 306.695 62.9097 307.73L64.3647 307.91ZM81.182 316.1V302.27H79.697V316.1H81.182ZM76.922 308.54V303.365H70.697V304.64H75.452V307.295H70.742V312.755H73.262C75.752 312.755 77.117 312.635 78.512 312.425L78.377 311.18C76.817 311.405 75.617 311.48 73.622 311.48H72.212V308.54H76.922ZM86.6444 309.26C86.7644 309.56 87.1394 309.98 87.5594 310.43C88.1294 311.045 88.7594 311.675 89.7794 312.605L90.7544 311.6C89.8694 310.82 89.2394 310.235 88.5944 309.53C87.5294 308.375 87.3644 307.925 87.3644 306.74V304.82H90.2594V303.53H82.8944V304.82H85.8644V306.74C85.8644 307.85 85.6994 308.42 84.7094 309.515C84.0344 310.265 83.2994 311 82.3994 311.81L83.3744 312.815C84.3794 311.885 85.1294 311.12 85.7444 310.445C86.2244 309.92 86.4944 309.59 86.6294 309.26H86.6444ZM95.4344 307.385H93.3044V302.27H91.8194V316.1H93.3044V308.675H95.4344V307.385ZM101.017 310.715V316.085H109.642V310.715H101.017ZM103.522 305.075C103.522 306.665 102.682 307.415 98.5417 309.14L99.0967 310.34C103.822 308.33 104.977 307.49 104.977 305.18V303.08H99.1117V304.34H103.522V305.075ZM109.642 310.04V302.27H108.187V304.175H105.742V305.45H108.187V306.95H105.517V308.225H108.187V310.04H109.642ZM102.487 311.975H108.172V314.825H102.487V311.975ZM115.404 307.25C115.509 307.475 115.809 307.76 116.259 308.135C116.979 308.735 117.654 309.245 118.434 309.785L119.274 308.705C118.389 308.12 117.579 307.535 116.874 306.89C116.214 306.29 116.094 305.78 116.094 304.82V304.355H118.869V303.08H111.654V304.355H114.594V304.88C114.594 305.975 114.339 306.545 113.604 307.265C113.064 307.79 112.149 308.48 111.189 309.155L112.059 310.22C112.899 309.635 113.739 308.975 114.384 308.42C114.864 308.015 115.299 307.505 115.389 307.25H115.404ZM113.199 312.305H120.819V316.235H122.304V311.03H113.199V312.305ZM122.304 310.31V302.27H120.834V310.31H122.304ZM137.906 316.1V302.27H136.421V316.1H137.906ZM130.796 309.185C130.916 309.485 131.276 309.905 131.696 310.355C132.266 310.97 132.941 311.645 133.976 312.605L134.936 311.585C134.036 310.79 133.376 310.16 132.731 309.455C131.816 308.435 131.531 307.82 131.531 306.635V303.26H130.031V306.635C130.031 307.7 129.791 308.375 128.876 309.41C128.201 310.16 127.421 310.925 126.506 311.735L127.481 312.74C128.501 311.81 129.296 311.015 129.911 310.34C130.391 309.815 130.646 309.515 130.781 309.185H130.796ZM153.599 309.245V302.27H152.129V305.06H149.414V302.675H147.959V304.67H144.329V302.675H142.874V308.765H149.414V306.32H152.129V309.245H153.599ZM153.989 316.19V314.96H146.489V313.67H153.599V309.965H144.959V311.195H152.144V312.47H145.034V316.19H153.989ZM144.329 305.885H147.959V307.535H144.329V305.885ZM166.351 310.76H157.726V316.115H166.351V310.76ZM159.271 307.175C159.376 307.4 159.676 307.685 160.126 308.06C160.846 308.66 161.491 309.155 162.271 309.695L163.111 308.615C162.226 308.03 161.446 307.46 160.741 306.815C160.081 306.215 159.961 305.705 159.961 304.745V304.355H162.691V303.08H155.551V304.355H158.461V304.805C158.461 305.9 158.206 306.47 157.471 307.19C156.931 307.715 156.046 308.39 155.086 309.065L155.956 310.13C156.796 309.545 157.606 308.9 158.251 308.345C158.731 307.94 159.166 307.43 159.256 307.175H159.271ZM164.896 314.855H159.181V312.02H164.896V314.855ZM166.351 310.085V302.27H164.881V305.525H162.346V306.8H164.881V310.085H166.351ZM170.883 313.145V314.39H178.143V313.1H172.713L176.088 309.5C177.063 308.465 177.753 307.445 177.753 306.275V306.125C177.753 304.55 176.568 303.41 174.378 303.41C172.383 303.41 171.423 304.655 170.913 305.585L172.053 306.32C172.758 305.06 173.613 304.745 174.408 304.745C175.533 304.745 176.268 305.27 176.268 306.125V306.245C176.268 306.815 176.148 307.415 174.918 308.765L170.883 313.145ZM190.209 310.76H181.584V316.115H190.209V310.76ZM183.129 307.175C183.234 307.4 183.534 307.685 183.984 308.06C184.704 308.66 185.349 309.155 186.129 309.695L186.969 308.615C186.084 308.03 185.304 307.46 184.599 306.815C183.939 306.215 183.819 305.705 183.819 304.745V304.355H186.549V303.08H179.409V304.355H182.319V304.805C182.319 305.9 182.064 306.47 181.329 307.19C180.789 307.715 179.904 308.39 178.944 309.065L179.814 310.13C180.654 309.545 181.464 308.9 182.109 308.345C182.589 307.94 183.024 307.43 183.114 307.175H183.129ZM188.754 314.855H183.039V312.02H188.754V314.855ZM190.209 310.085V302.27H188.739V305.525H186.204V306.8H188.739V310.085H190.209ZM196.436 309.14C196.436 306.74 197.021 304.49 198.491 302.51H197.111C195.626 304.28 194.906 306.545 194.906 309.215V309.815C194.906 312.485 195.626 314.78 197.111 316.55H198.491C196.946 314.435 196.436 312.17 196.436 309.89V309.14ZM209.875 316.1V302.27H208.39V316.1H209.875ZM202.765 309.185C202.885 309.485 203.245 309.905 203.665 310.355C204.235 310.97 204.91 311.645 205.945 312.605L206.905 311.585C206.005 310.79 205.345 310.16 204.7 309.455C203.785 308.435 203.5 307.82 203.5 306.635V303.26H202V306.635C202 307.7 201.76 308.375 200.845 309.41C200.17 310.16 199.39 310.925 198.475 311.735L199.45 312.74C200.47 311.81 201.265 311.015 201.88 310.34C202.36 309.815 202.615 309.515 202.75 309.185H202.765ZM217.512 310.88C215.082 310.88 213.192 311.825 213.192 313.415V313.955C213.192 315.545 215.082 316.49 217.512 316.49C219.942 316.49 221.832 315.545 221.832 313.955V313.415C221.832 311.825 219.942 310.88 217.512 310.88ZM217.497 308.63V305.915H215.997V308.63H211.167V309.89H223.857V308.63H217.497ZM212.832 304.085H220.467V304.595C220.467 305.405 220.377 306.485 220.122 307.61L221.592 307.775C221.847 306.71 221.967 305.225 221.967 304.58V302.825H212.832V304.085ZM217.512 315.275C215.922 315.275 214.662 314.645 214.662 313.865V313.505C214.662 312.725 215.922 312.095 217.512 312.095C219.102 312.095 220.362 312.725 220.362 313.505V313.865C220.362 314.645 219.102 315.275 217.512 315.275ZM236.864 307.265H234.734V302.27H233.249V316.1H234.734V308.555H236.864V307.265ZM228.029 309.155C228.149 309.455 228.509 309.875 228.929 310.325C229.499 310.94 230.174 311.615 231.209 312.575L232.169 311.555C231.269 310.76 230.609 310.13 229.964 309.425C229.049 308.405 228.764 307.79 228.764 306.605V303.275H227.264V306.605C227.264 307.67 227.024 308.345 226.109 309.38C225.434 310.13 224.654 310.895 223.739 311.705L224.714 312.71C225.734 311.78 226.529 310.985 227.144 310.31C227.624 309.785 227.879 309.485 228.014 309.155H228.029ZM237.062 316.625H238.262L239.417 313.205H237.692L237.062 316.625ZM245.521 310.715V316.085H253.951V310.715H245.521ZM248.281 305.075C248.281 306.635 247.531 307.37 243.301 309.14L243.856 310.34C248.566 308.345 249.736 307.49 249.736 305.18V303.08H243.871V304.34H248.281V305.075ZM246.991 311.975H252.481V314.825H246.991V311.975ZM255.916 305.48H253.951V302.27H252.481V310.04H253.951V306.77H255.916V305.48ZM267.228 316.1V302.27H265.743V316.1H267.228ZM262.968 308.54V303.365H256.743V304.64H261.498V307.295H256.788V312.755H259.308C261.798 312.755 263.163 312.635 264.558 312.425L264.423 311.18C262.863 311.405 261.663 311.48 259.668 311.48H258.258V308.54H262.968ZM281.481 307.265H279.351V302.27H277.866V316.1H279.351V308.555H281.481V307.265ZM272.646 309.155C272.766 309.455 273.126 309.875 273.546 310.325C274.116 310.94 274.791 311.615 275.826 312.575L276.786 311.555C275.886 310.76 275.226 310.13 274.581 309.425C273.666 308.405 273.381 307.79 273.381 306.605V303.275H271.881V306.605C271.881 307.67 271.641 308.345 270.726 309.38C270.051 310.13 269.271 310.895 268.356 311.705L269.331 312.71C270.351 311.78 271.146 310.985 271.761 310.31C272.241 309.785 272.496 309.485 272.631 309.155H272.646ZM283.208 309.89C283.208 312.17 282.698 314.435 281.153 316.55H282.533C284.018 314.78 284.738 312.485 284.738 309.815V309.215C284.738 306.545 284.018 304.28 282.533 302.51H281.153C282.623 304.49 283.208 306.74 283.208 309.14V309.89Z" fill="#222222"/>
<path d="M33.2094 341.866H38.5134V340.778H33.2094V341.866ZM52.5402 334.012C49.3442 334.012 47.2702 335.372 47.2702 337.378V337.99C47.2702 339.996 49.3442 341.356 52.5402 341.356C55.7362 341.356 57.8102 339.996 57.8102 337.99V337.378C57.8102 335.372 55.7362 334.012 52.5402 334.012ZM53.3902 349.38V344.229H59.7312V342.801H45.3492V344.229H51.6902V349.38H53.3902ZM52.5402 339.894C50.3642 339.894 48.9192 339.095 48.9192 337.956V337.412C48.9192 336.273 50.3642 335.474 52.5402 335.474C54.7162 335.474 56.1612 336.273 56.1612 337.412V337.956C56.1612 339.095 54.7162 339.894 52.5402 339.894ZM67.8429 349.38V343.991H74.1839V342.563H59.8019V343.991H66.1429V349.38H67.8429ZM68.8799 339.588C69.7979 340.047 71.1069 340.642 72.5009 341.186L73.1469 339.826C71.8889 339.35 70.4949 338.755 69.4069 338.16C68.2509 337.531 67.8259 336.919 67.8259 335.644V334.25H66.1429V335.644C66.1429 336.919 65.7009 337.531 64.5449 338.16C63.4569 338.755 62.0629 339.35 60.8049 339.826L61.4679 341.203C62.8619 340.659 64.1709 340.064 65.0889 339.605C66.2109 339.044 66.7719 338.602 66.9759 338.228H66.9929C67.2139 338.602 67.7579 339.027 68.8799 339.588ZM77.4845 340.897V342.325H83.8255V344.059H79.5415V349.363H89.8095V344.059H85.5255V342.325H91.8665V340.897H77.4845ZM79.1165 339.775H90.2345V338.398H88.1265V335.695H90.1495V334.318H79.2015V335.695H81.2245V338.398H79.1165V339.775ZM88.1435 347.952H81.2075V345.47H88.1435V347.952ZM82.8735 335.695H86.4775V338.398H82.8735V335.695ZM105.367 349.482V348.088H96.8672V346.558H104.925V342.291H95.1332V343.685H103.276V345.198H95.2182V349.482H105.367ZM101.032 334.369H92.8552V335.78H96.1872V335.882C96.1872 337.123 96.0682 337.718 95.1502 338.534C94.5212 339.095 93.4162 339.86 92.3282 340.557L93.2632 341.781C94.1812 341.186 95.2522 340.421 95.9492 339.877C96.4932 339.452 96.9862 338.874 97.0882 338.602H97.1052C97.2242 338.84 97.6152 339.197 98.0742 339.554C98.8052 340.115 99.7232 340.778 100.607 341.339L101.525 340.115C100.539 339.486 99.5022 338.806 98.7032 338.126C97.8532 337.412 97.8872 336.902 97.8872 335.814V335.78H101.032V334.369ZM104.925 341.509V333.706H103.259V341.509H104.925ZM118.868 345.334V339.945H121.078V338.483H118.868V333.706H117.202V345.334H118.868ZM110.555 344.518H108.872V349.227H119.293V347.782H110.555V344.518ZM116.233 341.22C114.448 341.39 113.054 341.475 111.184 341.526V338.313H109.518V341.56H106.39V343.005C111.626 343.005 113.666 342.886 116.369 342.614L116.233 341.22ZM114.754 340.098C114.992 339.112 115.145 337.582 115.145 336.375V334.505H107.444V335.95H113.479V336.613C113.479 337.582 113.36 338.721 113.105 339.894L114.754 340.098ZM133.814 349.38V333.706H132.131V349.38H133.814ZM128.986 340.812V334.947H121.931V336.392H127.32V339.401H121.982V345.589H124.838C127.66 345.589 129.207 345.453 130.788 345.215L130.635 343.804C128.867 344.059 127.507 344.144 125.246 344.144H123.648V340.812H128.986ZM140.004 341.628C140.14 341.968 140.565 342.444 141.041 342.954C141.687 343.651 142.401 344.365 143.557 345.419L144.662 344.28C143.659 343.396 142.945 342.733 142.214 341.934C141.007 340.625 140.82 340.115 140.82 338.772V336.596H144.101V335.134H135.754V336.596H139.12V338.772C139.12 340.03 138.933 340.676 137.811 341.917C137.046 342.767 136.213 343.6 135.193 344.518L136.298 345.657C137.437 344.603 138.287 343.736 138.984 342.971C139.528 342.376 139.834 342.002 139.987 341.628H140.004ZM149.966 339.503H147.552V333.706H145.869V349.38H147.552V340.965H149.966V339.503ZM155.8 346.83C155.8 348.479 157.568 349.822 160.526 349.822C163.484 349.822 165.252 348.479 165.252 346.83V346.15C165.252 344.501 163.484 343.158 160.526 343.158C157.568 343.158 155.8 344.501 155.8 346.15V346.83ZM160.968 337.735C160.968 336.222 159.744 334.301 157.075 334.301C154.406 334.301 153.182 336.222 153.182 337.735V338.602C153.182 340.115 154.406 342.036 157.075 342.036C159.744 342.036 160.968 340.115 160.968 338.602V337.735ZM167.394 335.916H165.184V333.706H163.535V342.954H165.184V340.506H167.394V339.061H165.184V337.361H167.394V335.916ZM163.603 346.728C163.603 347.561 162.413 348.445 160.526 348.445C158.639 348.445 157.449 347.561 157.449 346.728V346.252C157.449 345.419 158.639 344.535 160.526 344.535C162.413 344.535 163.603 345.419 163.603 346.252V346.728ZM159.353 338.517C159.353 339.52 158.639 340.574 157.075 340.574C155.511 340.574 154.797 339.52 154.797 338.517V337.82C154.797 336.817 155.511 335.763 157.075 335.763C158.639 335.763 159.353 336.817 159.353 337.82V338.517ZM170.898 346.847C170.898 348.496 172.7 349.822 175.709 349.822C178.718 349.822 180.52 348.496 180.52 346.847V346.167C180.52 344.518 178.718 343.192 175.709 343.192C172.7 343.192 170.898 344.518 170.898 346.167V346.847ZM172.241 339.163C172.343 339.418 172.7 339.792 173.21 340.217C174.026 340.897 174.808 341.543 175.692 342.206L176.678 341.033C175.675 340.302 174.706 339.537 173.907 338.806C173.091 338.058 173.023 337.497 173.023 336.443V334.403H171.323V336.511C171.323 337.701 171.085 338.347 170.218 339.214C169.623 339.809 168.569 340.71 167.481 341.543L168.484 342.733C169.385 342.019 170.388 341.169 171.085 340.523C171.612 340.047 172.139 339.452 172.224 339.163H172.241ZM180.452 342.971V333.706H178.786V337.089H175.641V338.534H178.786V342.971H180.452ZM178.871 346.745C178.871 347.578 177.647 348.445 175.709 348.445C173.771 348.445 172.547 347.578 172.547 346.745V346.269C172.547 345.436 173.771 344.569 175.709 344.569C177.647 344.569 178.871 345.436 178.871 346.269V346.745ZM182.325 349.975H183.685L184.994 346.099H183.039L182.325 349.975ZM198.95 342.172C197.471 342.308 196.264 342.393 194.836 342.444V341.526C196.655 341.322 197.59 340.472 197.59 339.401V338.959C197.59 337.752 196.366 336.8 194.003 336.8C191.64 336.8 190.416 337.735 190.416 338.959V339.401C190.416 340.472 191.351 341.322 193.17 341.526V342.495C192.048 342.512 190.739 342.512 189.107 342.512V343.923C194.343 343.923 196.383 343.804 199.086 343.532L198.95 342.172ZM201.585 344.127V340.013H203.795V338.551H201.585V333.706H199.919V344.127H201.585ZM191.232 346.371H199.902V349.55H201.585V344.943H191.232V346.371ZM194.836 334.947V333.519H193.17V334.947H189.702V336.341H198.253V334.947H194.836ZM194.003 338.126C195.346 338.126 195.941 338.568 195.941 339.078V339.282C195.941 339.792 195.346 340.234 194.003 340.234C192.66 340.234 192.065 339.792 192.065 339.282V339.078C192.065 338.568 192.66 338.126 194.003 338.126ZM215.902 334.845H214.236V337.531H207.232V334.862H205.566V342.903H209.884V345.861H203.543V347.289H217.925V345.861H211.567V342.903H215.902V334.845ZM207.232 338.959H214.236V341.475H207.232V338.959ZM218.438 349.975H219.798L221.107 346.099H219.152L218.438 349.975ZM232.394 334.012C229.198 334.012 227.124 335.372 227.124 337.378V337.99C227.124 339.996 229.198 341.356 232.394 341.356C235.59 341.356 237.664 339.996 237.664 337.99V337.378C237.664 335.372 235.59 334.012 232.394 334.012ZM235.964 349.346V344.229H239.585V342.801H225.203V344.229H228.824V349.346H230.507V344.229H234.281V349.346H235.964ZM232.394 339.894C230.218 339.894 228.773 339.095 228.773 337.956V337.412C228.773 336.273 230.218 335.474 232.394 335.474C234.57 335.474 236.015 336.273 236.015 337.412V337.956C236.015 339.095 234.57 339.894 232.394 339.894ZM244.891 341.662C245.027 342.002 245.452 342.478 245.928 342.988C246.574 343.685 247.288 344.399 248.444 345.453L249.549 344.314C248.546 343.43 247.832 342.767 247.101 341.968C245.894 340.659 245.707 340.149 245.707 338.806V336.579H248.988V335.117H240.641V336.579H244.007V338.806C244.007 340.064 243.82 340.71 242.698 341.951C241.933 342.801 241.1 343.634 240.08 344.552L241.185 345.691C242.324 344.637 243.174 343.77 243.871 343.005C244.415 342.41 244.721 342.036 244.874 341.662H244.891ZM252.796 349.38V333.706H251.113V349.38H252.796ZM257.78 340.982C263.203 340.948 265.175 340.863 267.249 340.676L267.13 339.367C266.45 339.435 265.804 339.469 265.09 339.52V335.729H266.552V334.369H257.882V335.729H259.378V339.639H257.78V340.982ZM270.768 349.482V348.088H262.268V346.592H270.326V342.359H260.534V343.753H268.677V345.232H260.619V349.482H270.768ZM270.326 341.577V333.706H268.66V341.577H270.326ZM260.993 339.639V335.729H263.475V339.588L260.993 339.639ZM282.586 345.861V342.07C283.606 341.407 284.252 340.438 284.252 339.197V338.381C284.252 336.018 281.855 334.556 278.982 334.556C276.109 334.556 273.712 336.018 273.712 338.381V339.197C273.712 340.438 274.358 341.407 275.378 342.07V345.861H271.791V347.289H286.173V345.861H282.586ZM278.982 336.018C280.937 336.018 282.603 336.953 282.603 338.466V339.112C282.603 340.625 280.937 341.56 278.982 341.56C277.027 341.56 275.361 340.625 275.361 339.112V338.466C275.361 336.953 277.027 336.018 278.982 336.018ZM278.982 343.005C279.662 343.005 280.308 342.92 280.92 342.767V345.861H277.044V342.767C277.639 342.92 278.302 343.005 278.982 343.005Z" fill="#19B29B"/>
<path d="M173 390L179 380H167L173 390Z" fill="#19B29B"/>
<rect x="1.5" y="461.5" width="342" height="151" rx="75.5" fill="white" stroke="url(#paint0_linear_1_46513)" stroke-width="3"/>
<path d="M53.37 504.01H62.28V499.48H58.35V497.68H64.125V496.78H51.525V497.68H57.3V499.48H53.37V504.01ZM53.01 490.885V491.755H54.975V494.635H52.95V495.505H62.7V494.635H60.675V491.755H62.64V490.885H53.01ZM54.39 500.41H61.26V503.065H54.39V500.41ZM56.025 491.755H59.625V494.635H56.025V491.755ZM67.1423 497.92V498.835H74.5673V500.56H67.2173V504.085H75.9623V503.185H68.2523V501.445H75.6023V497.92H67.1423ZM68.7923 494.425C68.8673 494.62 69.3623 495.04 70.0823 495.565C70.6673 495.985 71.3573 496.465 71.9723 496.855L72.5573 496.105C71.8073 495.655 71.0273 495.13 70.3973 494.65C69.3623 493.87 69.2723 493.645 69.2723 492.475V491.845H72.2573V490.93H65.0873V491.845H68.2073V492.565C68.2073 493.585 68.0273 494.005 67.1573 494.74C66.4523 495.325 65.5973 495.94 64.6973 496.51L65.2973 497.29C66.1523 496.735 67.1423 495.985 67.6823 495.55C68.3573 494.995 68.7323 494.62 68.7773 494.425H68.7923ZM75.6023 490.33H74.5523V497.11H75.6023V490.33ZM87.9047 490.33H86.8547V500.5H87.9047V495.595H89.9597V494.65H87.9047V490.33ZM80.4947 499.81H79.4297V503.875H88.2797V502.945H80.4947V499.81ZM85.8047 497.065C84.5297 497.2 83.1947 497.29 81.0797 497.335V494.29H80.0297V497.35C79.1597 497.365 78.1847 497.365 77.0597 497.365V498.295C81.6047 498.295 84.0647 498.175 85.8947 497.95L85.8047 497.065ZM77.9747 491.05V491.98H83.5997V492.61C83.5997 493.69 83.4647 494.74 83.2397 495.775L84.2897 495.91C84.4847 495.1 84.6497 493.75 84.6497 492.4V491.05H77.9747ZM101.092 490.33H100.027V504.04H101.092V490.33ZM91.882 496.315H96.847V491.44H90.832V492.37H95.797V495.385H90.832V500.635H93.667C95.302 500.635 97.012 500.56 98.602 500.305L98.482 499.39C97.087 499.615 95.452 499.69 93.937 499.69H91.882V496.315ZM110.259 491.605H102.939V492.535H106.089V494.755C106.089 495.895 105.954 496.465 105.009 497.53C104.319 498.31 103.464 499.135 102.519 499.975L103.224 500.68C104.124 499.9 105.129 498.835 105.534 498.415C105.969 497.95 106.554 497.275 106.629 497.005H106.644C106.719 497.2 107.139 497.665 107.574 498.13C108.174 498.775 108.894 499.51 109.929 500.47L110.619 499.765C109.509 498.775 108.624 497.89 108.039 497.215C107.244 496.3 107.154 495.82 107.154 494.68V492.535H110.259V491.605ZM113.169 490.33H112.104V504.04H113.169V496.51H115.449V495.565H113.169V490.33ZM122.652 495.055C122.712 495.25 123.297 495.76 124.002 496.33C124.452 496.69 125.202 497.245 125.802 497.65L126.417 496.915C125.532 496.33 124.692 495.7 124.212 495.295C123.237 494.455 123.132 494.05 123.132 493.165V492.07H126.117V491.155H118.947V492.07H122.067V493.21C122.067 494.02 121.902 494.545 121.167 495.265C120.432 495.985 119.457 496.735 118.557 497.365L119.202 498.115C119.922 497.605 120.942 496.795 121.467 496.33C122.097 495.775 122.577 495.28 122.637 495.055H122.652ZM120.642 500.005H128.412V504.145H129.462V499.075H120.642V500.005ZM129.462 490.33H128.412V498.265H129.462V490.33ZM132.554 491.005V491.935H140.489V492.88C140.489 493.9 140.369 495.145 140.084 496.345H130.889V497.245H136.814V500.785H137.864V497.245H143.489V496.345H141.179C141.419 495.205 141.539 493.975 141.539 492.94V491.005H132.554ZM133.829 499.465H132.764V503.875H141.914V502.945H133.829V499.465ZM150.916 495.535C150.976 495.73 151.561 496.24 152.266 496.81C152.716 497.17 153.421 497.695 154.036 498.115L154.651 497.38C153.796 496.81 152.956 496.18 152.476 495.775C151.501 494.935 151.396 494.53 151.396 493.645V492.145H154.336V491.23H147.241V492.145H150.331V493.69C150.331 494.5 150.166 495.025 149.431 495.745C148.696 496.465 147.736 497.2 146.851 497.83L147.496 498.58C148.186 498.085 149.206 497.275 149.731 496.81C150.361 496.255 150.841 495.76 150.901 495.535H150.916ZM153.976 493.975V494.905H156.841V500.125H157.891V490.33H156.841V493.975H153.976ZM150.556 499.33H149.491V503.875H158.236V502.945H150.556V499.33ZM168.079 498.145C166.939 498.265 165.754 498.355 164.044 498.4V497.32C165.784 497.185 166.609 496.375 166.609 495.4V495.04C166.609 493.99 165.619 493.105 163.519 493.105C161.419 493.105 160.429 493.975 160.429 495.04V495.4C160.429 496.375 161.254 497.185 162.994 497.32V498.43C161.944 498.445 160.729 498.445 159.259 498.445V499.375C163.834 499.375 166.309 499.255 168.169 499.03L168.079 498.145ZM170.104 490.33H169.054V500.71H170.104V495.85H172.159V494.905H170.104V490.33ZM162.679 500.32H161.614V503.89H170.479V502.96H162.679V500.32ZM163.519 493.975C164.929 493.975 165.604 494.515 165.604 495.085V495.355C165.604 495.925 164.929 496.465 163.519 496.465C162.109 496.465 161.434 495.925 161.434 495.355V495.085C161.434 494.515 162.109 493.975 163.519 493.975ZM159.769 491.53V492.445H167.269V491.53H164.044V490.195H162.994V491.53H159.769ZM181.956 491.035H175.776V496.765H181.956V491.035ZM182.421 497.665H181.401V499.24H177.411V500.155H181.401V500.455C181.401 501.235 181.041 501.715 179.811 502.225C178.986 502.57 177.936 502.945 177.006 503.245L177.381 504.07C178.251 503.785 179.226 503.41 180.111 503.05C181.056 502.645 181.671 502.24 181.911 501.82C182.151 502.24 182.751 502.645 183.711 503.05C184.596 503.41 185.571 503.785 186.441 504.07L186.816 503.245C185.886 502.945 184.836 502.57 184.011 502.225C182.781 501.715 182.421 501.235 182.421 500.455V500.155H186.381V499.24H182.421V497.665ZM180.936 495.835H176.796V491.965H180.936V495.835ZM186.171 490.33H185.121V497.815H186.171V490.33ZM199.883 499.84C198.593 499.99 197.288 500.065 195.653 500.125V497.59C197.363 497.38 198.683 496.165 198.683 494.74V494.02C198.683 492.445 197.093 491.14 195.113 491.14C193.133 491.14 191.543 492.445 191.543 494.02V494.74C191.543 496.18 192.863 497.38 194.588 497.59V500.14C193.493 500.17 192.248 500.17 190.793 500.17V501.1C195.383 501.1 197.498 501.01 199.973 500.755L199.883 499.84ZM195.113 492.085C196.448 492.085 197.663 493 197.663 494.08V494.68C197.663 495.76 196.448 496.675 195.113 496.675C193.778 496.675 192.563 495.76 192.563 494.68V494.08C192.563 493 193.778 492.085 195.113 492.085ZM201.998 490.33H200.933V504.04H201.998V490.33ZM212.906 490.855V492.91H206.096V490.855H205.061V496.735H213.941V490.855H212.906ZM203.201 498.565V499.48H208.976V504.04H210.041V499.48H215.801V498.565H203.201ZM206.096 495.85V493.825H212.906V495.85H206.096ZM222.808 499.39H221.743V503.875H230.473V502.945H222.808V499.39ZM230.128 490.33H229.078V500.14H230.128V490.33ZM222.808 497.86C224.863 497.86 226.183 496.33 226.183 494.845V493.945C226.183 492.46 224.863 490.93 222.808 490.93C220.753 490.93 219.433 492.46 219.433 493.945V494.845C219.433 496.33 220.753 497.86 222.808 497.86ZM222.808 491.875C224.203 491.875 225.163 492.91 225.163 494.035V494.755C225.163 495.88 224.203 496.915 222.808 496.915C221.413 496.915 220.453 495.88 220.453 494.755V494.035C220.453 492.91 221.413 491.875 222.808 491.875ZM233.475 494.92H238.02V490.99H232.44V491.92H236.985V494.02H232.44V497.965C236.235 497.965 238.035 497.92 239.88 497.71L239.775 496.795C237.945 497.005 236.055 497.035 233.475 497.035V494.92ZM239.07 492.25V493.165H241.935V494.665H239.07V495.58H241.935V498.7H242.97V490.33H241.935V492.25H239.07ZM234.15 500.44H241.935V504.16H242.97V499.51H234.15V500.44ZM247.158 496.975V497.875H252.933V499.345C250.893 499.465 249.198 500.2 249.198 501.655V502.06C249.198 503.62 251.208 504.415 253.458 504.415C255.708 504.415 257.718 503.62 257.718 502.06V501.67C257.718 500.215 256.008 499.465 253.983 499.345V497.875H259.758V496.975H247.158ZM253.443 494.14H253.458C253.668 494.41 253.953 494.665 255.093 495.1C255.798 495.37 256.833 495.715 258.333 496.15L258.693 495.31C257.238 494.905 256.113 494.545 255.423 494.275C254.163 493.78 253.983 493.42 253.983 492.67V492.46H258.153V491.56H253.983V490.135H252.918V491.56H248.763V492.46H252.918V492.67C252.918 493.42 252.693 493.795 251.433 494.29C250.728 494.56 249.558 494.935 248.193 495.325L248.568 496.18C250.053 495.73 251.088 495.4 251.808 495.115C252.903 494.695 253.278 494.41 253.443 494.14ZM253.458 503.515C251.853 503.515 250.218 503.065 250.218 502V501.715C250.218 500.695 251.853 500.215 253.458 500.215C255.063 500.215 256.698 500.665 256.698 501.73V502C256.698 503.065 255.063 503.515 253.458 503.515ZM264.425 495.64C266.255 495.64 267.725 494.68 267.725 493.405V492.835C267.725 491.56 266.255 490.6 264.425 490.6C262.595 490.6 261.125 491.56 261.125 492.835V493.405C261.125 494.68 262.595 495.64 264.425 495.64ZM267.125 498.595V499.525H270.215V500.98H271.265V490.33H270.215V498.595H267.125ZM264.425 491.5C265.685 491.5 266.72 492.145 266.72 492.925V493.315C266.72 494.095 265.685 494.74 264.425 494.74C263.165 494.74 262.13 494.095 262.13 493.315V492.925C262.13 492.145 263.165 491.5 264.425 491.5ZM263.57 500.245H262.505V503.875H271.58V502.945H263.57V500.245ZM269.075 496.285C266.495 496.555 264.485 496.615 260.165 496.615V497.53C261.545 497.53 262.7 497.53 263.705 497.5V499.66H264.77V497.485C266.54 497.425 267.815 497.335 269.165 497.2L269.075 496.285Z" fill="#222222"/>
<path d="M43.5 499C44.3284 499 45 498.328 45 497.5C45 496.672 44.3284 496 43.5 496C42.6716 496 42 496.672 42 497.5C42 498.328 42.6716 499 43.5 499Z" fill="#CCCCCC"/>
<path d="M62.805 516.33H61.74V530.04H62.805V516.33ZM52.785 526.92C57.66 524.07 58.395 523.05 58.395 520.32V517.62H52.38V518.58H57.36V520.305C57.36 522.54 56.835 523.425 52.23 526.065L52.785 526.92ZM64.2773 522.105V523.005H70.0523V524.595H66.0773V525.48H73.9673V526.905H66.1523V530.1H75.4073V529.215H67.1873V527.775H75.0023V524.595H71.1023V523.005H76.8773V522.105H64.2773ZM70.5773 518.925H70.5923C70.7573 519.24 71.4623 519.645 72.3773 520.035C73.1573 520.38 74.2073 520.815 75.4973 521.295L75.8723 520.44C74.6573 520.005 73.4273 519.51 72.6923 519.18C71.4773 518.64 71.1173 518.205 71.1173 517.44V516.435H70.0523V517.44C70.0523 518.205 69.6773 518.64 68.4623 519.18C67.7273 519.51 66.4523 520.02 65.2673 520.44L65.6873 521.31C67.0673 520.8 68.0123 520.395 68.7923 520.05C69.7073 519.66 70.4423 519.24 70.5773 518.925ZM81.5447 521.055C81.6047 521.25 82.1897 521.76 82.8947 522.33C83.3447 522.69 84.0947 523.245 84.6947 523.65L85.3097 522.915C84.4247 522.33 83.5847 521.7 83.1047 521.295C82.1297 520.455 82.0247 520.05 82.0247 519.165V518.07H85.0097V517.155H77.8397V518.07H80.9597V519.21C80.9597 520.02 80.7947 520.545 80.0597 521.265C79.3247 521.985 78.3497 522.735 77.4497 523.365L78.0947 524.115C78.8147 523.605 79.8347 522.795 80.3597 522.33C80.9897 521.775 81.4697 521.28 81.5297 521.055H81.5447ZM79.5347 526.005H87.3047V530.145H88.3547V525.075H79.5347V526.005ZM88.3547 516.33H87.3047V524.265H88.3547V516.33ZM97.147 521.055C97.207 521.25 97.792 521.76 98.497 522.33C98.947 522.69 99.697 523.245 100.297 523.65L100.912 522.915C100.027 522.33 99.187 521.7 98.707 521.295C97.732 520.455 97.627 520.05 97.627 519.165V518.07H100.612V517.155H93.442V518.07H96.562V519.21C96.562 520.02 96.397 520.545 95.662 521.265C94.927 521.985 93.952 522.735 93.052 523.365L93.697 524.115C94.417 523.605 95.437 522.795 95.962 522.33C96.592 521.775 97.072 521.28 97.132 521.055H97.147ZM95.137 526.005H102.907V530.145H103.957V525.075H95.137V526.005ZM103.957 516.33H102.907V524.265H103.957V516.33ZM109.899 521.64C111.729 521.64 113.199 520.68 113.199 519.405V518.835C113.199 517.56 111.729 516.6 109.899 516.6C108.069 516.6 106.599 517.56 106.599 518.835V519.405C106.599 520.68 108.069 521.64 109.899 521.64ZM112.599 524.595V525.525H115.689V526.98H116.739V516.33H115.689V524.595H112.599ZM109.899 517.5C111.159 517.5 112.194 518.145 112.194 518.925V519.315C112.194 520.095 111.159 520.74 109.899 520.74C108.639 520.74 107.604 520.095 107.604 519.315V518.925C107.604 518.145 108.639 517.5 109.899 517.5ZM109.044 526.245H107.979V529.875H117.054V528.945H109.044V526.245ZM114.549 522.285C111.969 522.555 109.959 522.615 105.639 522.615V523.53C107.019 523.53 108.174 523.53 109.179 523.5V525.66H110.244V523.485C112.014 523.425 113.289 523.335 114.639 523.2L114.549 522.285ZM128.112 516.945H127.092V519.045H122.892V516.945H121.872V522.93H128.112V520.35H131.337V523.425H132.387V516.33H131.337V519.42H128.112V516.945ZM131.352 524.235V526.14H125.052V524.235H124.017V530.025H132.387V524.235H131.352ZM125.052 529.08V527.07H131.352V529.08H125.052ZM122.892 519.96H127.092V522.015H122.892V519.96ZM141.059 524.73C138.809 524.73 136.904 525.645 136.904 527.265V527.85C136.904 529.425 138.809 530.4 141.059 530.4C143.309 530.4 145.214 529.425 145.214 527.85V527.265C145.214 525.69 143.309 524.73 141.059 524.73ZM141.059 529.5C139.454 529.5 137.924 528.885 137.924 527.82V527.31C137.924 526.245 139.454 525.63 141.059 525.63C142.664 525.63 144.194 526.245 144.194 527.31V527.82C144.194 528.885 142.664 529.5 141.059 529.5ZM138.164 521.19C138.224 521.385 138.809 521.895 139.514 522.465C139.964 522.825 140.684 523.365 141.284 523.785L141.899 523.035C141.044 522.465 140.204 521.835 139.724 521.43C138.749 520.59 138.644 520.185 138.644 519.3V518.115H141.584V517.2H134.489V518.115H137.579V519.345C137.579 520.155 137.414 520.68 136.679 521.4C135.944 522.12 134.984 522.855 134.099 523.485L134.744 524.235C135.434 523.74 136.454 522.93 136.979 522.465C137.609 521.91 138.089 521.415 138.149 521.19H138.164ZM145.139 516.33H144.089V519.84H141.224V520.77H144.089V524.415H145.139V516.33ZM151.186 530.01H160.096V525.48H156.166V523.68H161.941V522.78H149.341V523.68H155.116V525.48H151.186V530.01ZM150.826 516.885V517.755H152.791V520.635H150.766V521.505H160.516V520.635H158.491V517.755H160.456V516.885H150.826ZM152.206 526.41H159.076V529.065H152.206V526.41ZM153.841 517.755H157.441V520.635H153.841V517.755ZM164.959 523.92V524.835H172.384V526.56H165.034V530.085H173.779V529.185H166.069V527.445H173.419V523.92H164.959ZM166.609 520.425C166.684 520.62 167.179 521.04 167.899 521.565C168.484 521.985 169.174 522.465 169.789 522.855L170.374 522.105C169.624 521.655 168.844 521.13 168.214 520.65C167.179 519.87 167.089 519.645 167.089 518.475V517.845H170.074V516.93H162.904V517.845H166.024V518.565C166.024 519.585 165.844 520.005 164.974 520.74C164.269 521.325 163.414 521.94 162.514 522.51L163.114 523.29C163.969 522.735 164.959 521.985 165.499 521.55C166.174 520.995 166.549 520.62 166.594 520.425H166.609ZM173.419 516.33H172.369V523.11H173.419V516.33ZM174.846 527.19V528.105H187.446V527.19H182.331V522.165H181.266V527.19H178.941V522.165H177.876V527.19H174.846ZM185.226 525.405C185.571 523.47 185.691 521.745 185.691 519.225V517.605H176.436V518.535H184.611V519.78C184.611 521.73 184.506 523.425 184.146 525.285L185.226 525.405ZM193.898 521.865C196.148 521.865 198.203 521.01 198.203 519.495V518.955C198.203 517.44 196.148 516.585 193.898 516.585C191.648 516.585 189.593 517.425 189.593 518.955V519.495C189.593 521.01 191.648 521.865 193.898 521.865ZM189.203 526.74H197.333V530.145H198.383V525.825H196.553V523.86H200.198V522.96H187.598V523.86H191.243V525.825H189.203V526.74ZM193.898 517.485C195.518 517.485 197.183 518.1 197.183 519.045V519.405C197.183 520.35 195.518 520.965 193.898 520.965C192.278 520.965 190.613 520.35 190.613 519.405V519.045C190.613 518.1 192.278 517.485 193.898 517.485ZM192.278 523.86H195.518V525.825H192.278V523.86ZM203.201 524.205V525.12H208.976V530.04H210.041V525.12H215.801V524.205H203.201ZM211.256 521.295C212.066 521.7 213.206 522.225 214.421 522.705L214.871 521.88C213.761 521.46 212.546 520.92 211.586 520.425C210.431 519.84 210.026 519.345 210.026 518.01V516.81H208.961V518.01C208.961 519.345 208.541 519.84 207.386 520.425C206.426 520.92 205.181 521.475 204.071 521.895L204.536 522.735C205.751 522.255 206.921 521.715 207.731 521.31C208.721 520.815 209.306 520.38 209.486 520.035H209.501C209.666 520.38 210.266 520.8 211.256 521.295ZM222.688 524.7C220.438 524.7 218.608 525.66 218.608 527.265V527.835C218.608 529.41 220.438 530.4 222.688 530.4C224.938 530.4 226.768 529.41 226.768 527.835V527.265C226.768 525.69 224.938 524.7 222.688 524.7ZM222.688 529.5C221.083 529.5 219.628 528.855 219.628 527.79V527.31C219.628 526.245 221.083 525.6 222.688 525.6C224.293 525.6 225.748 526.245 225.748 527.31V527.79C225.748 528.855 224.293 529.5 222.688 529.5ZM216.763 524.37C221.773 522.225 222.538 521.505 222.538 518.985V517.2H216.793V518.13H221.503V518.895C221.503 520.92 221.083 521.52 216.328 523.515L216.763 524.37ZM226.693 516.33H225.643V524.4H226.693V520.53H228.793V519.6H226.693V516.33ZM228.705 522.465V523.365H241.305V522.465H228.705ZM239.295 518.73C239.295 517.32 237.42 516.465 235.005 516.465C232.59 516.465 230.715 517.305 230.715 518.73V519.18C230.715 520.59 232.59 521.445 235.005 521.445C237.42 521.445 239.295 520.59 239.295 519.18V518.73ZM231.75 518.775C231.75 517.965 233.205 517.35 235.005 517.35C236.805 517.35 238.26 517.965 238.26 518.775V519.135C238.26 519.945 236.805 520.56 235.005 520.56C233.205 520.56 231.75 519.945 231.75 519.135V518.775ZM230.52 524.565V525.45H238.395V526.89H230.595V530.1H239.835V529.215H231.63V527.76H239.43V524.565H230.52ZM244.308 523.635V524.535H256.908V523.635H251.118V522.24H255.048V521.355H247.203V519.975H254.898V519.105H247.203V517.725H254.973V516.84H246.198V522.24H250.068V523.635H244.308ZM250.608 525.435C248.358 525.435 246.348 526.14 246.348 527.7V528.15C246.348 529.695 248.358 530.415 250.608 530.415C252.858 530.415 254.868 529.695 254.868 528.15V527.7C254.868 526.155 252.858 525.435 250.608 525.435ZM250.608 529.515C248.988 529.515 247.368 529.05 247.368 528.09V527.76C247.368 526.815 248.988 526.335 250.608 526.335C252.228 526.335 253.848 526.815 253.848 527.76V528.09C253.848 529.05 252.228 529.515 250.608 529.515ZM264.305 522.015C264.305 520.77 263.105 519.6 261.155 519.6C259.205 519.6 258.005 520.77 258.005 522.015V522.585C258.005 523.83 259.205 525 261.155 525C263.105 525 264.305 523.83 264.305 522.585V522.015ZM261.155 524.1C259.82 524.1 259.01 523.275 259.01 522.54V522.06C259.01 521.325 259.82 520.5 261.155 520.5C262.49 520.5 263.3 521.325 263.3 522.06V522.54C263.3 523.275 262.49 524.1 261.155 524.1ZM267.845 516.33H266.795V526.305H267.845V521.445H269.945V520.515H267.845V516.33ZM260.735 526.08H259.67V529.875H268.265V528.945H260.735V526.08ZM261.68 516.195H260.63V517.95H257.225V518.865H265.115V517.95H261.68V516.195ZM276.862 521.25C276.937 521.49 277.342 521.895 278.032 522.48C278.542 522.915 279.202 523.455 279.997 524.055L280.627 523.32C279.967 522.84 279.172 522.21 278.437 521.565C277.432 520.665 277.342 520.305 277.342 519.195V516.975H276.262V519.225C276.262 520.35 276.157 520.74 275.212 521.685C274.537 522.36 273.592 523.14 272.782 523.74L273.442 524.505C274.267 523.845 275.152 523.095 275.677 522.6C276.337 521.97 276.802 521.505 276.847 521.25H276.862ZM284.002 516.33H282.952V519.6H279.862V520.53H282.952V526.11H284.002V516.33ZM276.682 525.3H275.617V529.875H284.347V528.945H276.682V525.3ZM296.74 516.33H295.69V524.01H296.74V516.33ZM288.355 530.01H296.74V524.82H288.355V530.01ZM289.375 525.765H295.72V529.065H289.375V525.765ZM289.405 523.305C291.46 523.305 292.75 521.82 292.75 520.455V519.705C292.75 518.34 291.46 516.855 289.405 516.855C287.35 516.855 286.06 518.34 286.06 519.705V520.455C286.06 521.82 287.35 523.305 289.405 523.305ZM289.405 517.8C290.8 517.8 291.73 518.805 291.73 519.81V520.35C291.73 521.37 290.8 522.36 289.405 522.36C288.01 522.36 287.08 521.355 287.08 520.35V519.81C287.08 518.805 288.01 517.8 289.405 517.8ZM59.25 544.605H51.93V545.535H55.08V547.755C55.08 548.895 54.945 549.465 54 550.53C53.31 551.31 52.455 552.135 51.51 552.975L52.215 553.68C53.115 552.9 54.12 551.835 54.525 551.415C54.96 550.95 55.545 550.275 55.62 550.005H55.635C55.71 550.2 56.13 550.665 56.565 551.13C57.165 551.775 57.885 552.51 58.92 553.47L59.61 552.765C58.5 551.775 57.615 550.89 57.03 550.215C56.235 549.3 56.145 548.82 56.145 547.68V545.535H59.25V544.605ZM62.16 543.33H61.095V557.04H62.16V549.51H64.44V548.565H62.16V543.33ZM65.2523 551.325C70.2623 549.195 71.0423 548.475 71.0423 545.94V544.155H65.2973V545.085H70.0073V545.85C70.0073 547.845 69.6623 548.445 64.8323 550.47L65.2523 551.325ZM71.8823 545.475V546.39H74.6123V548.325H71.6573V549.24H74.6123V551.325H75.6473V543.33H74.6123V545.475H71.8823ZM66.8273 553.065H74.6123V557.145H75.6473V552.135H66.8273V553.065ZM84.7547 544.605H77.4347V545.535H80.5847V547.755C80.5847 548.895 80.4497 549.465 79.5047 550.53C78.8147 551.31 77.9597 552.135 77.0147 552.975L77.7197 553.68C78.6197 552.9 79.6247 551.835 80.0297 551.415C80.4647 550.95 81.0497 550.275 81.1247 550.005H81.1397C81.2147 550.2 81.6347 550.665 82.0697 551.13C82.6697 551.775 83.3897 552.51 84.4247 553.47L85.1147 552.765C84.0047 551.775 83.1197 550.89 82.5347 550.215C81.7397 549.3 81.6497 548.82 81.6497 547.68V545.535H84.7547V544.605ZM87.6647 543.33H86.5997V557.04H87.6647V549.51H89.9447V548.565H87.6647V543.33ZM101.467 550.785C100.327 550.905 99.157 550.995 97.447 551.04V550.02C99.157 549.885 99.997 549.12 99.997 548.175V547.815C99.997 546.795 98.992 545.955 96.907 545.955C94.822 545.955 93.817 546.78 93.817 547.815V548.175C93.817 549.12 94.657 549.9 96.397 550.02V551.07C95.347 551.085 94.132 551.085 92.647 551.085V552.015C97.222 552.015 99.697 551.895 101.557 551.67L101.467 550.785ZM94.507 554.055H102.457V557.175H103.492V553.125H94.507V554.055ZM103.492 543.33H102.442V552.315H103.492V548.67H105.547V547.725H103.492V543.33ZM93.157 544.455V545.355H100.657V544.455H97.432V543.15H96.382V544.455H93.157ZM96.907 546.825C98.317 546.825 98.992 547.32 98.992 547.86V548.13C98.992 548.67 98.317 549.165 96.907 549.165C95.497 549.165 94.822 548.67 94.822 548.13V547.86C94.822 547.32 95.497 546.825 96.907 546.825ZM115.089 544.38V546.84H108.279V544.38H107.244V551.22H111.159V554.19H105.384V555.105H117.984V554.19H112.209V551.22H116.124V544.38H115.089ZM108.279 550.335V547.755H115.089V550.335H108.279Z" fill="#222222"/>
<path d="M53.37 583.01H62.28V578.48H58.35V576.68H64.125V575.78H51.525V576.68H57.3V578.48H53.37V583.01ZM53.01 569.885V570.755H54.975V573.635H52.95V574.505H62.7V573.635H60.675V570.755H62.64V569.885H53.01ZM54.39 579.41H61.26V582.065H54.39V579.41ZM56.025 570.755H59.625V573.635H56.025V570.755ZM67.1423 576.92V577.835H74.5673V579.56H67.2173V583.085H75.9623V582.185H68.2523V580.445H75.6023V576.92H67.1423ZM68.7923 573.425C68.8673 573.62 69.3623 574.04 70.0823 574.565C70.6673 574.985 71.3573 575.465 71.9723 575.855L72.5573 575.105C71.8073 574.655 71.0273 574.13 70.3973 573.65C69.3623 572.87 69.2723 572.645 69.2723 571.475V570.845H72.2573V569.93H65.0873V570.845H68.2073V571.565C68.2073 572.585 68.0273 573.005 67.1573 573.74C66.4523 574.325 65.5973 574.94 64.6973 575.51L65.2973 576.29C66.1523 575.735 67.1423 574.985 67.6823 574.55C68.3573 573.995 68.7323 573.62 68.7773 573.425H68.7923ZM75.6023 569.33H74.5523V576.11H75.6023V569.33ZM87.9047 569.33H86.8547V579.5H87.9047V574.595H89.9597V573.65H87.9047V569.33ZM80.4947 578.81H79.4297V582.875H88.2797V581.945H80.4947V578.81ZM85.8047 576.065C84.5297 576.2 83.1947 576.29 81.0797 576.335V573.29H80.0297V576.35C79.1597 576.365 78.1847 576.365 77.0597 576.365V577.295C81.6047 577.295 84.0647 577.175 85.8947 576.95L85.8047 576.065ZM77.9747 570.05V570.98H83.5997V571.61C83.5997 572.69 83.4647 573.74 83.2397 574.775L84.2897 574.91C84.4847 574.1 84.6497 572.75 84.6497 571.4V570.05H77.9747ZM101.092 569.33H100.027V583.04H101.092V569.33ZM91.882 575.315H96.847V570.44H90.832V571.37H95.797V574.385H90.832V579.635H93.667C95.302 579.635 97.012 579.56 98.602 579.305L98.482 578.39C97.087 578.615 95.452 578.69 93.937 578.69H91.882V575.315ZM110.259 570.605H102.939V571.535H106.089V573.755C106.089 574.895 105.954 575.465 105.009 576.53C104.319 577.31 103.464 578.135 102.519 578.975L103.224 579.68C104.124 578.9 105.129 577.835 105.534 577.415C105.969 576.95 106.554 576.275 106.629 576.005H106.644C106.719 576.2 107.139 576.665 107.574 577.13C108.174 577.775 108.894 578.51 109.929 579.47L110.619 578.765C109.509 577.775 108.624 576.89 108.039 576.215C107.244 575.3 107.154 574.82 107.154 573.68V571.535H110.259V570.605ZM113.169 569.33H112.104V583.04H113.169V575.51H115.449V574.565H113.169V569.33ZM115.467 583.625H116.337L117.417 580.25H116.097L115.467 583.625ZM131.833 576.59H123.793V574.4H131.638V573.5H123.793V571.31H131.713V570.41H122.758V577.49H126.688V580.19H120.913V581.105H133.513V580.19H127.738V577.49H131.833V576.59ZM135.556 569.855V574.61H139.441V576.305H133.666V577.205H146.266V576.305H140.491V574.61H144.376V569.855H135.556ZM136.591 570.755H143.341V573.71H136.591V570.755ZM135.271 579.695H143.401V583.145H144.451V578.78H135.271V579.695ZM148.998 576.29H156.438L155.313 578.18L155.538 578.435L158.658 575.84L155.538 573.245L155.313 573.5L156.438 575.405H148.998L150.123 573.5L149.898 573.245L146.778 575.84L149.898 578.435L150.123 578.18L148.998 576.29ZM160.176 577.76C163.821 576.185 165.216 575.3 165.726 574.04H169.491V579.14H170.541V569.33H169.491V573.11H165.936C165.966 572.855 165.981 572.57 165.981 572.27V570.23H160.206V571.16H164.946V572.21C164.946 574.19 164.541 574.805 159.741 576.89L160.176 577.76ZM163.206 578.405H162.141V582.875H170.886V581.945H163.206V578.405ZM173.528 579.725H181.658V583.16H182.708V578.81H178.748V576.92H184.523V576.02H171.923V576.92H177.698V578.81H173.528V579.725ZM178.208 573.155H178.223C178.433 573.425 178.718 573.68 179.858 574.115C180.563 574.385 181.598 574.73 183.098 575.165L183.458 574.325C182.003 573.92 180.878 573.56 180.188 573.29C178.928 572.795 178.748 572.435 178.748 571.685V571.46H182.918V570.56H178.748V569.135H177.683V570.56H173.528V571.46H177.683V571.685C177.683 572.435 177.458 572.81 176.198 573.305C175.493 573.575 174.323 573.95 172.958 574.34L173.333 575.195C174.818 574.745 175.853 574.415 176.573 574.13C177.668 573.71 178.043 573.425 178.208 573.155ZM191.95 574.535C192.01 574.73 192.595 575.24 193.3 575.81C193.75 576.17 194.455 576.695 195.07 577.115L195.685 576.38C194.83 575.81 193.99 575.18 193.51 574.775C192.535 573.935 192.43 573.53 192.43 572.645V571.145H195.37V570.23H188.275V571.145H191.365V572.69C191.365 573.5 191.2 574.025 190.465 574.745C189.73 575.465 188.77 576.2 187.885 576.83L188.53 577.58C189.22 577.085 190.24 576.275 190.765 575.81C191.395 575.255 191.875 574.76 191.935 574.535H191.95ZM195.01 572.975V573.905H197.875V579.125H198.925V569.33H197.875V572.975H195.01ZM191.59 578.33H190.525V582.875H199.27V581.945H191.59V578.33ZM209.113 577.145C207.973 577.265 206.788 577.355 205.078 577.4V576.32C206.818 576.185 207.643 575.375 207.643 574.4V574.04C207.643 572.99 206.653 572.105 204.553 572.105C202.453 572.105 201.463 572.975 201.463 574.04V574.4C201.463 575.375 202.288 576.185 204.028 576.32V577.43C202.978 577.445 201.763 577.445 200.293 577.445V578.375C204.868 578.375 207.343 578.255 209.203 578.03L209.113 577.145ZM211.138 569.33H210.088V579.71H211.138V574.85H213.193V573.905H211.138V569.33ZM203.713 579.32H202.648V582.89H211.513V581.96H203.713V579.32ZM204.553 572.975C205.963 572.975 206.638 573.515 206.638 574.085V574.355C206.638 574.925 205.963 575.465 204.553 575.465C203.143 575.465 202.468 574.925 202.468 574.355V574.085C202.468 573.515 203.143 572.975 204.553 572.975ZM200.803 570.53V571.445H208.303V570.53H205.078V569.195H204.028V570.53H200.803ZM215.88 580.19V581.105H228.48V580.19H223.365V575.165H222.3V580.19H219.975V575.165H218.91V580.19H215.88ZM226.26 578.405C226.605 576.47 226.725 574.745 226.725 572.225V570.605H217.47V571.535H225.645V572.78C225.645 574.73 225.54 576.425 225.18 578.285L226.26 578.405ZM234.932 574.865C237.182 574.865 239.237 574.01 239.237 572.495V571.955C239.237 570.44 237.182 569.585 234.932 569.585C232.682 569.585 230.627 570.425 230.627 571.955V572.495C230.627 574.01 232.682 574.865 234.932 574.865ZM230.237 579.74H238.367V583.145H239.417V578.825H237.587V576.86H241.232V575.96H228.632V576.86H232.277V578.825H230.237V579.74ZM234.932 570.485C236.552 570.485 238.217 571.1 238.217 572.045V572.405C238.217 573.35 236.552 573.965 234.932 573.965C233.312 573.965 231.647 573.35 231.647 572.405V572.045C231.647 571.1 233.312 570.485 234.932 570.485ZM233.312 576.86H236.552V578.825H233.312V576.86ZM251.345 570.035H245.165V575.765H251.345V570.035ZM251.81 576.665H250.79V578.24H246.8V579.155H250.79V579.455C250.79 580.235 250.43 580.715 249.2 581.225C248.375 581.57 247.325 581.945 246.395 582.245L246.77 583.07C247.64 582.785 248.615 582.41 249.5 582.05C250.445 581.645 251.06 581.24 251.3 580.82C251.54 581.24 252.14 581.645 253.1 582.05C253.985 582.41 254.96 582.785 255.83 583.07L256.205 582.245C255.275 581.945 254.225 581.57 253.4 581.225C252.17 580.715 251.81 580.235 251.81 579.455V579.155H255.77V578.24H251.81V576.665ZM250.325 574.835H246.185V570.965H250.325V574.835ZM255.56 569.33H254.51V576.815H255.56V569.33ZM268.027 570.59H260.707V571.52H263.857V573.785C263.857 574.925 263.722 575.495 262.777 576.56C262.087 577.34 261.232 578.165 260.287 579.005L260.992 579.71C261.892 578.93 262.897 577.865 263.302 577.445C263.737 576.98 264.322 576.305 264.397 576.035H264.412C264.487 576.23 264.907 576.695 265.342 577.16C265.942 577.805 266.662 578.54 267.697 579.5L268.387 578.795C267.277 577.805 266.392 576.92 265.807 576.245C265.012 575.33 264.922 574.85 264.922 573.71V571.52H268.027V570.59ZM271.312 569.33H270.247V583.04H271.312V569.33ZM277.104 574.64C278.934 574.64 280.404 573.68 280.404 572.405V571.835C280.404 570.56 278.934 569.6 277.104 569.6C275.274 569.6 273.804 570.56 273.804 571.835V572.405C273.804 573.68 275.274 574.64 277.104 574.64ZM279.804 577.595V578.525H282.894V579.98H283.944V569.33H282.894V577.595H279.804ZM277.104 570.5C278.364 570.5 279.399 571.145 279.399 571.925V572.315C279.399 573.095 278.364 573.74 277.104 573.74C275.844 573.74 274.809 573.095 274.809 572.315V571.925C274.809 571.145 275.844 570.5 277.104 570.5ZM276.249 579.245H275.184V582.875H284.259V581.945H276.249V579.245ZM281.754 575.285C279.174 575.555 277.164 575.615 272.844 575.615V576.53C274.224 576.53 275.379 576.53 276.384 576.5V578.66H277.449V576.485C279.219 576.425 280.494 576.335 281.844 576.2L281.754 575.285Z" fill="#222222"/>
<path d="M43.5 525C44.3284 525 45 524.328 45 523.5C45 522.672 44.3284 522 43.5 522C42.6716 522 42 522.672 42 523.5C42 524.328 42.6716 525 43.5 525Z" fill="#CCCCCC"/>
<path d="M43.5 577C44.3284 577 45 576.328 45 575.5C45 574.672 44.3284 574 43.5 574C42.6716 574 42 574.672 42 575.5C42 576.328 42.6716 577 43.5 577Z" fill="#CCCCCC"/>
<path d="M139.454 18.88H151.734V12.46H146.854V10.96H154.114V8.92H137.074V10.96H144.334V12.46H139.454V18.88ZM139.134 0.879999V2.86H141.274V5.72H139.014V7.7H152.174V5.72H149.914V2.86H152.054V0.879999H139.134ZM141.954 14.48H149.234V16.86H141.954V14.48ZM143.754 2.86H147.434V5.72H143.754V2.86ZM157.777 10.36V12.36H167.097V13.76H157.877V19.06H170.097V17.06H160.317V15.66H169.537V10.36H157.777ZM169.537 0.28H167.017V9.52H169.537V0.28ZM155.197 3.16H158.837V3.82C158.837 4.74 158.617 5.24 157.797 5.9C156.937 6.6 155.717 7.44 154.437 8.24L155.777 10.08C156.877 9.38 157.937 8.66 158.757 8.06C159.637 7.42 160.137 6.98 160.237 6.74H160.257C160.377 6.96 160.857 7.34 161.697 7.9C162.517 8.44 163.337 8.96 164.197 9.48L165.477 7.72C164.557 7.18 163.537 6.54 162.777 6.02C161.597 5.22 161.357 4.74 161.357 3.82V3.16H164.837V1.04H155.197V3.16ZM180.62 14.5C184.02 14.5 185.42 12.24 185.42 9.12V6.9C185.42 3.78 184.02 1.52 180.62 1.52C177.22 1.52 175.82 3.78 175.82 6.9V9.12C175.82 12.24 177.22 14.5 180.62 14.5ZM180.62 3.74C182.32 3.74 183 4.94 183 7.2V8.82C183 11.08 182.32 12.28 180.62 12.28C178.92 12.28 178.24 11.08 178.24 8.82V7.2C178.24 4.94 178.92 3.74 180.62 3.74ZM190.54 0.28H188V18.88H190.54V0.28ZM191.883 10.66V12.8H195.963V18.82H198.463V12.8H202.343V18.82H204.843V12.8H208.923V10.66H191.883ZM200.463 6.02C200.663 6.38 201.363 6.86 202.663 7.52C203.783 8.08 205.563 8.9 206.823 9.42L207.843 7.38C206.443 6.8 204.763 6.04 203.423 5.32C202.183 4.66 201.683 3.9 201.683 2.68V0.92H199.123V2.68C199.123 3.9 198.623 4.66 197.383 5.32C196.043 6.04 194.363 6.8 192.963 7.38L194.003 9.46C195.263 8.94 197.043 8.12 198.163 7.56C199.463 6.9 200.263 6.4 200.443 6.02H200.463Z" fill="#5082E6"/>
<path d="M149.234 420.66H146.814V437.98H149.234V428.8H150.874V438.88H153.294V420.28H150.874V426.62H149.234V420.66ZM137.694 422.04V433.94H140.774C142.434 433.94 144.374 433.88 145.994 433.6L145.734 431.44C144.074 431.7 142.394 431.76 140.774 431.76H140.194V424.22H144.874V422.04H137.694ZM154.077 428.98V431.04H171.117V428.98H154.077ZM162.597 427.94C166.177 427.94 168.697 426.72 168.697 424.46V423.98C168.697 421.72 166.177 420.5 162.597 420.5C159.017 420.5 156.497 421.72 156.497 423.98V424.46C156.497 426.72 159.017 427.94 162.597 427.94ZM162.597 422.54C164.637 422.54 166.197 423.16 166.197 424.06V424.38C166.197 425.28 164.637 425.9 162.597 425.9C160.557 425.9 158.997 425.28 158.997 424.38V424.06C158.997 423.16 160.557 422.54 162.597 422.54ZM162.597 439.44C165.837 439.44 168.597 438.34 168.597 436.02V435.42C168.597 433.1 165.837 432 162.597 432C159.357 432 156.597 433.1 156.597 435.42V436.02C156.597 438.34 159.357 439.44 162.597 439.44ZM162.597 434.04C164.377 434.04 166.097 434.64 166.097 435.58V435.86C166.097 436.8 164.377 437.4 162.597 437.4C160.817 437.4 159.097 436.8 159.097 435.86V435.58C159.097 434.64 160.817 434.04 162.597 434.04ZM187.8 433.52H190.32V420.28H187.8V425H184.82V427.16H187.8V433.52ZM181.02 432.44H178.48V438.68H190.62V436.52H181.02V432.44ZM175.76 423.6H179.38V425.16C179.38 426.14 178.98 426.88 178.28 427.5C177.44 428.24 176.24 429.16 174.98 430.02L176.46 431.88C177.46 431.18 178.34 430.5 179.2 429.82C180.12 429.1 180.68 428.56 180.76 428.32H180.78C180.86 428.52 181.38 428.98 182.22 429.6C182.96 430.14 183.82 430.74 184.68 431.3L186.04 429.5C185.04 428.86 184.04 428.18 183.2 427.54C182.14 426.72 181.9 426.14 181.9 425.16V423.6H185.36V421.44H175.76V423.6ZM194.623 434.64H203.963V439.12H206.483V432.52H194.623V434.64ZM206.483 420.28H203.983V431.68H206.483V428.9H208.883V426.74H206.483V425.04H208.883V422.88H206.483V420.28ZM194.943 426.98H200.923V421.12H192.463V423.22H198.443V424.96H192.463V430.82C197.563 430.82 200.403 430.78 202.703 430.52L202.483 428.44C200.043 428.68 197.743 428.72 194.943 428.72V426.98Z" fill="#33B9A5"/>
<defs>
<filter id="filter0_d_1_46513" x="72" y="30" width="220" height="220" filterUnits="userSpaceOnUse" color-interpolation-filters="sRGB">
<feFlood flood-opacity="0" result="BackgroundImageFix"/>
<feColorMatrix in="SourceAlpha" type="matrix" values="0 0 0 0 0 0 0 0 0 0 0 0 0 0 0 0 0 0 127 0" result="hardAlpha"/>
<feOffset dx="10" dy="10"/>
<feGaussianBlur stdDeviation="10"/>
<feColorMatrix type="matrix" values="0 0 0 0 0 0 0 0 0 0 0 0 0 0 0 0 0 0 0.102 0"/>
<feBlend mode="normal" in2="BackgroundImageFix" result="effect1_dropShadow_1_46513"/>
<feBlend mode="normal" in="SourceGraphic" in2="effect1_dropShadow_1_46513" result="shape"/>
</filter>
<linearGradient id="paint0_linear_1_46513" x1="172.5" y1="460" x2="172.5" y2="614" gradientUnits="userSpaceOnUse">
<stop stop-color="#33B9A5"/>
<stop offset="0.69" stop-color="#40A7C9"/>
<stop offset="1" stop-color="#5082E6"/>
</linearGradient>
</defs>
</svg>
