<svg width="346" height="164" viewBox="0 0 346 164" fill="none" xmlns="http://www.w3.org/2000/svg">
<path d="M55.2128 66.8427C55.2894 66.9193 55.4137 66.9193 55.4903 66.8427L56.7392 65.5938C56.8159 65.5171 56.8159 65.3929 56.7392 65.3162C56.6626 65.2396 56.5383 65.2396 56.4617 65.3162L55.3516 66.4264L54.2414 65.3162C54.1648 65.2396 54.0405 65.2396 53.9639 65.3162C53.8873 65.3929 53.8873 65.5171 53.9639 65.5938L55.2128 66.8427ZM55.1553 46.6943L55.1553 66.7039H55.5478L55.5478 46.6943H55.1553Z" fill="#BBBBBB"/>
<path d="M134.494 92.7361C134.571 92.8128 134.695 92.8128 134.772 92.7361L136.02 91.4872C136.097 91.4106 136.097 91.2863 136.02 91.2097C135.944 91.133 135.82 91.133 135.743 91.2097L134.633 92.3198L133.523 91.2097C133.446 91.133 133.322 91.133 133.245 91.2097C133.169 91.2863 133.169 91.4106 133.245 91.4872L134.494 92.7361ZM134.437 85.5352L134.437 92.5974L134.829 92.5974L134.829 85.5352L134.437 85.5352Z" fill="#BBBBBB"/>
<path d="M134.494 118.629C134.571 118.706 134.695 118.706 134.772 118.629L136.02 117.38C136.097 117.304 136.097 117.179 136.02 117.103C135.944 117.026 135.82 117.026 135.743 117.103L134.633 118.213L133.523 117.103C133.446 117.026 133.322 117.026 133.245 117.103C133.169 117.179 133.169 117.304 133.245 117.38L134.494 118.629ZM134.437 112.213L134.437 118.49L134.829 118.49L134.829 112.213L134.437 112.213Z" fill="#BBBBBB"/>
<path d="M134.494 144.526C134.571 144.602 134.695 144.602 134.772 144.526L136.02 143.277C136.097 143.2 136.097 143.076 136.02 142.999C135.944 142.923 135.82 142.923 135.743 142.999L134.633 144.109L133.523 142.999C133.446 142.923 133.322 142.923 133.245 142.999C133.169 143.076 133.169 143.2 133.245 143.277L134.494 144.526ZM134.437 138.109L134.437 144.387L134.829 144.387L134.829 138.109L134.437 138.109Z" fill="#BBBBBB"/>
<path d="M266.247 155.512C266.323 155.435 266.323 155.311 266.247 155.234L264.998 153.985C264.921 153.909 264.797 153.909 264.72 153.985C264.644 154.062 264.644 154.186 264.72 154.263L265.83 155.373L264.72 156.483C264.644 156.56 264.644 156.684 264.72 156.761C264.797 156.837 264.921 156.837 264.998 156.761L266.247 155.512ZM259.828 155.569L266.108 155.569L266.108 155.177L259.828 155.177L259.828 155.569Z" fill="#BBBBBB"/>
<path d="M97.478 77.8263C97.5546 77.7496 97.5546 77.6254 97.478 77.5487L96.2291 76.2998C96.1525 76.2232 96.0282 76.2232 95.9516 76.2998C95.8749 76.3765 95.8749 76.5007 95.9516 76.5774L97.0617 77.6875L95.9516 78.7976C95.8749 78.8743 95.8749 78.9985 95.9516 79.0752C96.0282 79.1518 96.1525 79.1518 96.2291 79.0752L97.478 77.8263ZM76.9297 77.8837H97.3392V77.4913H76.9297V77.8837Z" fill="#BBBBBB"/>
<path d="M82.6792 25.3671C82.6026 25.4437 82.6026 25.568 82.6792 25.6446L83.9281 26.8935C84.0047 26.9702 84.129 26.9702 84.2056 26.8935C84.2823 26.8169 84.2823 26.6926 84.2056 26.616L83.0955 25.5059L84.2056 24.3957C84.2823 24.3191 84.2823 24.1948 84.2056 24.1182C84.129 24.0416 84.0047 24.0416 83.9281 24.1182L82.6792 25.3671ZM160.531 25.3096L82.818 25.3096V25.7021L160.531 25.7021V25.3096Z" fill="#BBBBBB"/>
<path d="M169.562 129.477H224.904" stroke="#BBBBBB" stroke-width="0.392491"/>
<path d="M224.906 112.607V146.741" stroke="#BBBBBB" stroke-width="0.392491"/>
<path d="M266.256 78.2188C266.332 78.1422 266.332 78.018 266.256 77.9413L265.007 76.6924C264.93 76.6158 264.806 76.6158 264.729 76.6924C264.653 76.7691 264.653 76.8933 264.729 76.9699L265.839 78.0801L264.729 79.1902C264.653 79.2668 264.653 79.3911 264.729 79.4677C264.806 79.5444 264.93 79.5444 265.007 79.4677L266.256 78.2188ZM224.71 80.0425V94.9509H225.102V80.0425H224.71ZM226.869 78.2763H266.117V77.8838H226.869V78.2763ZM225.102 80.0425C225.102 79.0671 225.893 78.2763 226.869 78.2763V77.8838C225.676 77.8838 224.71 78.8503 224.71 80.0425H225.102Z" fill="#BBBBBB"/>
<path d="M202.401 25.6446C202.325 25.568 202.325 25.4437 202.401 25.3671L203.65 24.1182C203.727 24.0416 203.851 24.0416 203.928 24.1182C204.004 24.1948 204.004 24.3191 203.928 24.3957L202.818 25.5059L203.928 26.616C204.004 26.6926 204.004 26.8169 203.928 26.8935C203.851 26.9702 203.727 26.9702 203.65 26.8935L202.401 25.6446ZM303.212 27.4683V68.6637H302.819V27.4683H303.212ZM301.053 25.7021L202.54 25.7021V25.3096L301.053 25.3096V25.7021ZM302.819 27.4683C302.819 26.4929 302.029 25.7021 301.053 25.7021V25.3096C302.245 25.3096 303.212 26.2761 303.212 27.4683H302.819Z" fill="#BBBBBB"/>
<path d="M27.6534 25.6452C27.73 25.5685 27.73 25.4443 27.6534 25.3676L26.4045 24.1187C26.3279 24.0421 26.2036 24.0421 26.127 24.1187C26.0503 24.1954 26.0503 24.3196 26.127 24.3963L27.2371 25.5064L26.127 26.6165C26.0503 26.6932 26.0503 26.8174 26.127 26.8941C26.2036 26.9707 26.3279 26.9707 26.4045 26.8941L27.6534 25.6452ZM10.6031 155.961L87.5297 155.961V155.568L10.6031 155.568V155.961ZM10.6031 25.7027L27.5146 25.7027V25.3102L10.6031 25.3102V25.7027ZM8.83687 153.802L8.83687 27.4689L8.44438 27.4689L8.44438 153.802L8.83687 153.802ZM10.6031 155.568C9.62763 155.568 8.83687 154.778 8.83687 153.802L8.44438 153.802C8.44438 154.994 9.41086 155.961 10.6031 155.961V155.568ZM10.6031 25.3102C9.41086 25.3102 8.44438 26.2767 8.44438 27.4689L8.83687 27.4689C8.83687 26.4934 9.62763 25.7027 10.6031 25.7027V25.3102Z" fill="#BBBBBB"/>
<path d="M316.902 155.765L343.038 155.765C344.121 155.765 345 154.886 345 153.802V27.4689C345 26.385 344.121 25.5064 343.038 25.5064L301.042 25.5064" stroke="#BBBBBB" stroke-width="0.392491"/>
<path d="M80.8265 25.5024C80.8265 39.4785 69.4926 50.8085 55.5114 50.8085C41.5302 50.8085 30.1962 39.4785 30.1962 25.5024C30.1962 11.5262 41.5302 0.196246 55.5114 0.196246C69.4926 0.196246 80.8265 11.5262 80.8265 25.5024Z" fill="white" stroke="#33B9A5" stroke-width="0.392491"/>
<path d="M45.9759 26.2994C46.9167 26.2994 47.6706 26.2794 48.3179 26.206L48.2712 25.6722C47.9842 25.7056 47.6907 25.7256 47.4104 25.7389V22.9032H48.051V22.3627H44.4612V22.9032H45.1018V25.7589H44.3945V26.2994H45.9759ZM49.3921 27.9341V21.7822H48.7315V27.9341H49.3921ZM45.749 25.7589V22.9032H46.7632V25.7589H46.1627H45.749ZM53.3565 27.6339H54.0037V24.638H54.6643V27.9341H55.3115V21.7822H54.6643V24.0642H54.0037V21.909H53.3565V27.6339ZM51.5016 23.6772C50.6876 23.6772 50.1405 24.2376 50.1405 24.8715V25.1918C50.1405 25.8257 50.6876 26.3861 51.5016 26.3861C52.3156 26.3861 52.8628 25.8257 52.8628 25.1918V24.8715C52.8628 24.2376 52.3156 23.6772 51.5016 23.6772ZM52.9629 22.8164H51.8019V21.9557H51.1547V22.8164H49.9203V23.3702H52.9629V22.8164ZM51.5016 25.8457C51.0012 25.8457 50.7343 25.472 50.7343 25.1584V24.9049C50.7343 24.5913 51.0012 24.2176 51.5016 24.2176C52.002 24.2176 52.2689 24.5913 52.2689 24.9049V25.1584C52.2689 25.472 52.002 25.8457 51.5016 25.8457ZM57.6012 23.9974C57.6479 24.0975 57.7813 24.2243 57.9815 24.3911C58.3018 24.658 58.602 24.8849 58.949 25.1251L59.3227 24.6447C58.929 24.3844 58.5687 24.1242 58.2551 23.8373C57.9615 23.5704 57.9081 23.3436 57.9081 22.9165V22.7097H59.1425V22.1425H55.9331V22.7097H57.2409V22.9432C57.2409 23.4303 57.1275 23.6838 56.8005 24.0041C56.5603 24.2376 56.1533 24.5446 55.7263 24.8448L56.1133 25.3186C56.4869 25.0583 56.8606 24.7648 57.1475 24.5179C57.361 24.3377 57.5545 24.1109 57.5945 23.9974H57.6012ZM56.6204 26.246H60.0099V27.9942H60.6705V25.6789H56.6204V26.246ZM60.6705 25.3586V21.7822H60.0166V25.3586H60.6705ZM63.2737 24.2043C64.2145 24.2043 64.7884 23.7039 64.7884 23.1567V22.9432C64.7884 22.3961 64.2145 21.8957 63.2737 21.8957C62.3329 21.8957 61.7591 22.3961 61.7591 22.9432V23.1567C61.7591 23.7039 62.3329 24.2043 63.2737 24.2043ZM66.383 26.5463V21.7822H65.7292V25.4453H64.428V25.9991H65.7292V26.5463H66.383ZM63.0135 26.226H62.3529V27.8741H66.5098V27.3069H63.0135V26.226ZM63.534 25.9791V25.0784C64.1812 25.0517 64.7617 25.0116 65.3288 24.9516L65.2821 24.3978C63.8209 24.5179 62.8334 24.5512 61.3588 24.5446V25.1184C61.9059 25.1184 62.413 25.1117 62.8801 25.0984V25.9791H63.534ZM63.2737 23.6505C62.7066 23.6505 62.3863 23.3769 62.3863 23.1167V22.9832C62.3863 22.723 62.7066 22.4561 63.2737 22.4561C63.8409 22.4561 64.1612 22.723 64.1612 22.9832V23.1167C64.1612 23.3769 63.8409 23.6505 63.2737 23.6505Z" fill="black"/>
<rect x="30.0322" y="68.8554" width="50.6303" height="17.263" rx="3.72867" fill="#F8F8F8" stroke="#E4E4E4" stroke-width="0.392491"/>
<rect y="126.336" width="71.4066" height="17.6617" rx="3.92491" transform="rotate(-90 0 126.336)" fill="#5082E6"/>
<rect x="99.5009" y="68.8554" width="69.8619" height="17.263" rx="3.72867" fill="#F8F8F8" stroke="#E4E4E4" stroke-width="0.392491"/>
<rect x="268.267" y="68.8554" width="69.8619" height="17.263" rx="3.72867" fill="#F8F8F8" stroke="#E4E4E4" stroke-width="0.392491"/>
<rect x="268.267" y="146.541" width="69.8619" height="17.263" rx="3.72867" fill="#F8F8F8" stroke="#E4E4E4" stroke-width="0.392491"/>
<rect x="99.5009" y="94.7509" width="69.8619" height="17.263" rx="3.72867" fill="#F8F8F8" stroke="#E4E4E4" stroke-width="0.392491"/>
<rect x="99.5009" y="120.646" width="69.8619" height="17.263" rx="3.72867" fill="#F8F8F8" stroke="#E4E4E4" stroke-width="0.392491"/>
<rect x="87.5234" y="146.345" width="94.1959" height="17.6555" rx="3.92491" fill="#5082E6"/>
<rect x="189.578" y="146.345" width="70.2544" height="17.6555" rx="3.92491" fill="#5082E6"/>
<rect x="190" y="94.5547" width="70.2544" height="17.6555" rx="3.92491" fill="#5082E6"/>
<rect x="161" y="16" width="70.2544" height="17.6555" rx="3.92491" fill="#5082E6"/>
<path d="M37.7307 78.792V79.1991H43.3355V78.792H40.3396V76.45H39.8592V78.792H37.7307ZM42.2612 78.0114C42.4214 77.1506 42.4948 76.3766 42.4948 75.2557V74.5351H38.438V74.9488H42.0077V75.5026C42.0077 76.3967 41.9209 77.1306 41.7675 77.9513L42.2612 78.0114ZM43.4032 76.9171V77.3174H45.9721V77.9713C45.0647 78.0247 44.3107 78.3517 44.3107 78.9989V79.179C44.3107 79.873 45.2048 80.2266 46.2056 80.2266C47.2065 80.2266 48.1006 79.873 48.1006 79.179V79.0056C48.1006 78.3583 47.3399 78.0247 46.4392 77.9713V77.3174H49.008V76.9171H43.4032ZM46.199 75.656H46.2056C46.299 75.7761 46.4258 75.8896 46.9329 76.0831C47.2465 76.2032 47.7069 76.3566 48.3741 76.5501L48.5343 76.1765C47.8871 75.9963 47.3866 75.8362 47.0797 75.7161C46.5192 75.4959 46.4392 75.3358 46.4392 75.0021V74.9087H48.2941V74.5084H46.4392V73.8745H45.9654V74.5084H44.1172V74.9087H45.9654V75.0021C45.9654 75.3358 45.8653 75.5026 45.3049 75.7228C44.9913 75.8429 44.4708 76.0097 43.8636 76.1831L44.0304 76.5635C44.691 76.3633 45.1514 76.2165 45.4717 76.0897C45.9588 75.9029 46.1256 75.7761 46.199 75.656ZM46.2056 79.8263C45.4917 79.8263 44.7644 79.6261 44.7644 79.1523V79.0256C44.7644 78.5718 45.4917 78.3583 46.2056 78.3583C46.9196 78.3583 47.6469 78.5585 47.6469 79.0322V79.1523C47.6469 79.6261 46.9196 79.8263 46.2056 79.8263ZM53.7998 73.9613H53.3261V80.0598H53.7998V76.6569H54.8207V76.2365H53.7998V73.9613ZM50.1434 77.1106C49.8298 77.4642 49.4628 77.8179 49.0224 78.2049L49.336 78.5318C49.7297 78.1849 50.1701 77.7378 50.4036 77.4843C50.6038 77.2641 50.8573 76.9505 50.8773 76.8637H50.884C50.9174 76.9505 51.1109 77.1707 51.311 77.3842C51.5779 77.6711 51.9516 78.0381 52.3719 78.4384L52.6789 78.1181C52.1784 77.6644 51.7848 77.2641 51.5179 76.9571C51.1576 76.5435 51.1175 76.3233 51.1175 75.8095V74.4083H50.6304V75.8429C50.6304 76.37 50.5637 76.6302 50.1434 77.1106ZM57.7709 77.9713C56.69 77.9713 55.9627 78.385 55.9627 78.9855V79.2124C55.9627 79.8129 56.69 80.2266 57.7709 80.2266C58.8518 80.2266 59.5791 79.8129 59.5791 79.2124V78.9855C59.5791 78.385 58.8518 77.9713 57.7709 77.9713ZM56.5699 77.6511C57.3906 77.6511 57.9644 77.184 57.9644 76.6369V76.3967C57.9644 75.8495 57.3906 75.3825 56.5699 75.3825C55.7492 75.3825 55.1754 75.8495 55.1754 76.3967V76.6369C55.1754 77.184 55.7492 77.6511 56.5699 77.6511ZM57.7709 79.8329C57.0169 79.8329 56.4164 79.5727 56.4164 79.1857V79.0122C56.4164 78.6252 57.0169 78.365 57.7709 78.365C58.5249 78.365 59.1254 78.6252 59.1254 79.0122V79.1857C59.1254 79.5727 58.5249 79.8329 57.7709 79.8329ZM56.5699 75.7761C57.1304 75.7761 57.5174 76.0697 57.5174 76.4167V76.6168C57.5174 76.9638 57.1304 77.2574 56.5699 77.2574C56.0094 77.2574 55.6224 76.9638 55.6224 76.6168V76.4167C55.6224 76.0697 56.0094 75.7761 56.5699 75.7761ZM59.5458 73.9613H59.0787V77.7845H59.5458V76.1164H60.4799V75.7027H59.5458V73.9613ZM56.8034 73.8879H56.3363V74.6619H54.8217V75.0689H58.3314V74.6619H56.8034V73.8879ZM64.7579 74.1347H64.3042V75.0755H62.4626V74.1347H62.0089V76.7837H64.7579V74.1347ZM62.7896 77.4042V77.8112H66.039V78.5452H62.8229V80.0798H66.6595V79.6795H63.2833V78.9388H66.4994V77.4042H62.7896ZM66.4994 73.9613H66.0323V77.0439H66.4994V75.676H67.4335V75.2624H66.4994V73.9613ZM62.4626 75.4826H64.3042V76.3766H62.4626V75.4826ZM70.664 80.2199C71.6648 80.2199 72.5456 79.8062 72.5456 79.1056V78.8654C72.5456 78.1648 71.6648 77.7511 70.664 77.7511C69.6631 77.7511 68.7824 78.1582 68.7824 78.8654V79.1056C68.7824 79.8062 69.6631 80.2199 70.664 80.2199ZM70.664 78.1515C71.3779 78.1515 72.0919 78.4117 72.0919 78.8854V79.0856C72.0919 79.5594 71.3779 79.8196 70.664 79.8196C69.95 79.8196 69.2361 79.5594 69.2361 79.0856V78.8854C69.2361 78.4117 69.95 78.1515 70.664 78.1515ZM71.1577 74.0413H70.6973V77.3775H71.1577V75.8762H72.0518V77.6177H72.5122V73.9613H72.0518V75.4559H71.1577V74.0413ZM70.317 76.9371C69.9967 76.6769 69.7032 76.3967 69.4963 76.1831C69.1494 75.8162 69.1026 75.6227 69.1026 75.1222V74.2749H68.6356V75.1289C68.6356 75.636 68.5755 75.8495 68.2486 76.2299C68.0151 76.5034 67.6147 76.8771 67.3078 77.1239L67.608 77.4375C67.9016 77.204 68.3487 76.7703 68.5555 76.5435C68.749 76.3299 68.8624 76.1631 68.8758 76.0964H68.8825C68.9025 76.1631 69.0493 76.3366 69.2895 76.5701C69.4896 76.7703 69.7699 77.0305 70.0234 77.2441L70.317 76.9371Z" fill="black"/>
<path d="M8.99834 64.8806C9.06506 64.994 9.28525 65.1942 9.72562 65.4744C10.1727 65.7546 10.5263 65.9548 11.0935 66.2551L11.4204 65.728C10.8599 65.441 10.533 65.2676 10.0192 64.9406C9.48542 64.6003 9.32528 64.3134 9.32528 63.813V63.6529H11.1135V63.079H6.86986V63.6529H8.65805V63.813C8.65805 64.3201 8.47122 64.6203 7.95745 64.954C7.53042 65.2275 7.13675 65.441 6.56293 65.7346L6.88988 66.2617C7.3903 66.0015 7.79732 65.7747 8.25104 65.4878C8.69141 65.2075 8.91827 65.0007 8.99167 64.8806H8.99834ZM9.32528 67.3293V66.0149H8.65805V67.3293H6.16926V67.8898H11.8141V67.3293H9.32528ZM11.9275 71.7805H10.98V69.5586H10.3195V75.7105H10.98V72.3543H11.9275V71.7805ZM7.99749 72.6212C8.05086 72.7546 8.211 72.9415 8.39783 73.1416C8.65138 73.4152 8.95163 73.7155 9.41202 74.1425L9.83906 73.6888C9.43871 73.3351 9.14513 73.0549 8.85822 72.7413C8.45121 72.2876 8.32443 72.014 8.32443 71.4869V70.0056H7.6572V71.4869C7.6572 71.9606 7.55044 72.2609 7.14342 72.7213C6.84317 73.0549 6.49621 73.3952 6.08919 73.7555L6.5229 74.2025C6.97662 73.7889 7.33025 73.4352 7.60382 73.135C7.81733 72.9014 7.93076 72.768 7.99081 72.6212H7.99749ZM11.4805 82.7505V82.2034H8.14428V81.6229H11.307V79.9682H7.4637V80.5153H10.6598V81.0891H7.49706V82.7505H11.4805ZM8.58465 77.6061C8.58465 78.3067 8.25771 78.5803 6.36943 79.3009L6.59629 79.8347C8.68474 79.054 9.23187 78.6937 9.23187 77.6395V76.8255H6.62298V77.3793H8.58465V77.6061ZM11.307 79.6612V76.5586H10.6598V77.2659H9.57216V77.8197H10.6598V78.4268H9.47208V78.9807H10.6598V79.6612H11.307ZM11.0935 89.7105V86.401H12.0142V85.8272H11.0935V83.5586H10.4396V89.7105H11.0935ZM10.0459 87.6154C9.39201 87.6754 8.85155 87.7155 8.04419 87.7355V85.9073H7.3903V87.7488C7.04334 87.7555 6.643 87.7555 6.18928 87.7555V88.3293C8.29774 88.3293 8.99167 88.296 10.0993 88.1892L10.0459 87.6154ZM6.48953 84.7129H8.94496V85.1666C8.94496 85.4936 8.93162 86.1741 8.79817 86.8147L9.44539 86.8948C9.55882 86.3676 9.59885 85.5002 9.59885 85.0599V84.1391H6.48953V84.7129ZM7.91742 102.076C8.85822 102.076 9.6122 102.056 10.2594 101.982L10.2127 101.449C9.9258 101.482 9.63221 101.502 9.35197 101.515V98.6795H9.99252V98.1391H6.40279V98.6795H7.04334V101.535H6.33607V102.076H7.91742ZM11.3337 103.71V97.5586H10.6731V103.71H11.3337ZM7.69056 101.535V98.6795H8.70476V101.535H8.10424H7.69056ZM6.16926 109.329V109.89H11.8141V109.329H6.16926ZM11.0935 107.461H7.59047V105.653H11.0201V105.086H6.92991V108.028H11.0935V107.461ZM8.8382 114.755V111.879H8.211V112.82H7.02999V111.879H6.40279V114.755H8.8382ZM10.7665 113.013H10.146V111.639H9.51878V115.148H10.146V113.58H10.7665V115.162H11.4004V111.559H10.7665V113.013ZM7.36361 116.049H10.7398V117.771H11.4004V115.482H7.36361V116.049ZM7.02999 113.36H8.211V114.201H7.02999V113.36Z" fill="white"/>
<path d="M108.285 78.792V79.1991H113.89V78.792H110.894V76.45H110.413V78.792H108.285ZM112.815 78.0114C112.976 77.1506 113.049 76.3766 113.049 75.2557V74.5351H108.992V74.9488H112.562V75.5026C112.562 76.3967 112.475 77.1306 112.322 77.9513L112.815 78.0114ZM113.957 76.9171V77.3174H116.526V77.9713C115.619 78.0247 114.865 78.3517 114.865 78.9989V79.179C114.865 79.873 115.759 80.2266 116.76 80.2266C117.761 80.2266 118.655 79.873 118.655 79.179V79.0056C118.655 78.3583 117.894 78.0247 116.993 77.9713V77.3174H119.562V76.9171H113.957ZM116.753 75.656H116.76C116.853 75.7761 116.98 75.8896 117.487 76.0831C117.801 76.2032 118.261 76.3566 118.928 76.5501L119.088 76.1765C118.441 75.9963 117.941 75.8362 117.634 75.7161C117.073 75.4959 116.993 75.3358 116.993 75.0021V74.9087H118.848V74.5084H116.993V73.8745H116.52V74.5084H114.671V74.9087H116.52V75.0021C116.52 75.3358 116.42 75.5026 115.859 75.7228C115.545 75.8429 115.025 76.0097 114.418 76.1831L114.585 76.5635C115.245 76.3633 115.706 76.2165 116.026 76.0897C116.513 75.9029 116.68 75.7761 116.753 75.656ZM116.76 79.8263C116.046 79.8263 115.319 79.6261 115.319 79.1523V79.0256C115.319 78.5718 116.046 78.3583 116.76 78.3583C117.474 78.3583 118.201 78.5585 118.201 79.0322V79.1523C118.201 79.6261 117.474 79.8263 116.76 79.8263ZM122.613 77.6844C121.612 77.6844 120.798 78.1115 120.798 78.8254V79.0789C120.798 79.7795 121.612 80.2199 122.613 80.2199C123.613 80.2199 124.427 79.7795 124.427 79.0789V78.8254C124.427 78.1248 123.613 77.6844 122.613 77.6844ZM122.613 79.8196C121.899 79.8196 121.251 79.5327 121.251 79.0589V78.8454C121.251 78.3717 121.899 78.0848 122.613 78.0848C123.326 78.0848 123.974 78.3717 123.974 78.8454V79.0589C123.974 79.5327 123.326 79.8196 122.613 79.8196ZM121.405 75.9696C121.438 76.0764 121.618 76.2565 121.925 76.5168C122.152 76.7103 122.446 76.9505 122.799 77.2174L123.08 76.8904C122.786 76.6769 122.432 76.3967 122.105 76.1098C121.658 75.7094 121.618 75.5493 121.618 75.0555V74.2348H121.138V75.0689C121.138 75.5693 121.091 75.7428 120.671 76.1631C120.371 76.4634 119.95 76.8103 119.59 77.0772L119.884 77.4175C120.251 77.1239 120.644 76.7903 120.878 76.5701C121.171 76.2899 121.378 76.0831 121.398 75.9696H121.405ZM124.394 73.9613H123.927V77.551H124.394V75.9163H125.328V75.5026H124.394V73.9613ZM126.43 80.0464H130.093V77.7245H126.43V80.0464ZM126.884 78.1448H129.64V79.6261H126.884V78.1448ZM125.623 76.9171C127.491 76.9171 128.025 76.8971 129.019 76.777L128.966 76.3633C128.011 76.4767 127.431 76.4967 126.09 76.4967V74.7419H128.419V74.3282H125.623V76.9171ZM130.093 73.9613H129.626V77.3642H130.093V75.8095H131.027V75.3958H130.093V73.9613ZM132.983 76.3233C133.797 76.3233 134.451 75.8962 134.451 75.3291V75.0755C134.451 74.5084 133.797 74.0814 132.983 74.0814C132.169 74.0814 131.516 74.5084 131.516 75.0755V75.3291C131.516 75.8962 132.169 76.3233 132.983 76.3233ZM134.184 77.6377V78.0514H135.559V78.6986H136.026V73.9613H135.559V77.6377H134.184ZM132.983 74.4817C133.544 74.4817 134.004 74.7686 134.004 75.1156V75.2891C134.004 75.636 133.544 75.9229 132.983 75.9229C132.423 75.9229 131.963 75.636 131.963 75.2891V75.1156C131.963 74.7686 132.423 74.4817 132.983 74.4817ZM132.603 78.3717H132.129V79.9864H136.166V79.5727H132.603V78.3717ZM135.052 76.6102C133.904 76.7303 133.01 76.757 131.088 76.757V77.164C131.702 77.164 132.216 77.164 132.663 77.1506V78.1115H133.137V77.144C133.924 77.1173 134.491 77.0772 135.092 77.0172L135.052 76.6102ZM138.129 78.5251C139.01 78.5251 139.43 77.8913 139.43 76.7503V76.6836H140.251V79.7595H140.718V74.088H140.251V76.2632H139.43V76.2299C139.43 75.0889 139.01 74.455 138.129 74.455C137.248 74.455 136.828 75.0889 136.828 76.2299V76.7503C136.828 77.8913 137.248 78.5251 138.129 78.5251ZM138.129 74.8887C138.723 74.8887 138.976 75.3691 138.976 76.2832V76.6969C138.976 77.611 138.723 78.0914 138.129 78.0914C137.535 78.0914 137.281 77.611 137.281 76.6969V76.2832C137.281 75.3691 137.535 74.8887 138.129 74.8887ZM141.892 73.9613H141.425V80.0598H141.892V73.9613ZM142.687 78.7186C143.995 77.8312 144.522 77.3508 144.722 76.6969H145.856V79.7595H146.324V74.088H145.856V76.2766H144.802C144.822 76.1031 144.836 75.9029 144.836 75.6827V74.5684H142.54V74.9888H144.375V75.656C144.375 76.8304 144.222 77.1373 142.427 78.3517L142.687 78.7186ZM147.551 73.9613H147.084V80.0598H147.551V73.9613ZM153.871 77.4375V78.2783H151.069V77.4375H150.608V80.0531H154.331V77.4375H153.871ZM151.229 75.9896C151.262 76.0764 151.482 76.2632 151.803 76.4967C152.063 76.6836 152.383 76.9104 152.637 77.0706L152.897 76.737C152.563 76.5368 152.223 76.3032 151.943 76.0897C151.482 75.7428 151.442 75.6494 151.442 75.1222V74.7352H152.75V74.3282H149.594V74.7352H150.969V75.1823C150.969 75.636 150.888 75.8028 150.501 76.1298C150.188 76.39 149.808 76.6636 149.421 76.9104L149.687 77.2574C150.054 77.0172 150.495 76.6836 150.735 76.4901C151.035 76.2432 151.202 76.0764 151.222 75.9896H151.229ZM151.069 79.6328V78.692H153.871V79.6328H151.069ZM152.59 75.3958V75.8095H153.864V77.0772H154.331V73.9613H153.864V75.3958H152.59ZM154.933 77.4642V77.8713H157.502V80.0598H157.976V77.8713H160.538V77.4642H154.933ZM158.516 76.1698C158.876 76.35 159.383 76.5835 159.924 76.797L160.124 76.43C159.63 76.2432 159.09 76.003 158.663 75.7828C158.149 75.5226 157.969 75.3024 157.969 74.7086V74.1748H157.495V74.7086C157.495 75.3024 157.308 75.5226 156.795 75.7828C156.368 76.003 155.814 76.2499 155.32 76.4367L155.527 76.8103C156.067 76.5968 156.588 76.3566 156.948 76.1765C157.388 75.9563 157.649 75.7628 157.729 75.6093H157.735C157.809 75.7628 158.076 75.9496 158.516 76.1698Z" fill="black"/>
<path d="M284.528 77.9914H284.054V79.9864H287.937V79.5727H284.528V77.9914ZM287.784 73.9613H287.317V78.325H287.784V73.9613ZM284.528 77.3108C285.442 77.3108 286.029 76.6302 286.029 75.9696V75.5693C286.029 74.9087 285.442 74.2281 284.528 74.2281C283.614 74.2281 283.026 74.9087 283.026 75.5693V75.9696C283.026 76.6302 283.614 77.3108 284.528 77.3108ZM284.528 74.6485C285.148 74.6485 285.575 75.1089 285.575 75.6093V75.9296C285.575 76.43 285.148 76.8904 284.528 76.8904C283.907 76.8904 283.48 76.43 283.48 75.9296V75.6093C283.48 75.1089 283.907 74.6485 284.528 74.6485ZM293.143 73.9613H292.669V80.0598H293.143V76.6569H294.164V76.2365H293.143V73.9613ZM289.486 77.1106C289.173 77.4642 288.806 77.8179 288.365 78.2049L288.679 78.5318C289.073 78.1849 289.513 77.7378 289.747 77.4843C289.947 77.2641 290.2 76.9505 290.22 76.8637H290.227C290.26 76.9505 290.454 77.1707 290.654 77.3842C290.921 77.6711 291.294 78.0381 291.715 78.4384L292.022 78.1181C291.521 77.6644 291.128 77.2641 290.861 76.9571C290.5 76.5435 290.46 76.3233 290.46 75.8095V74.4083H289.973V75.8429C289.973 76.37 289.907 76.6302 289.486 77.1106ZM296.14 76.6836C297 76.6836 297.694 76.2098 297.694 75.5293V75.249C297.694 74.5684 297 74.0947 296.14 74.0947C295.279 74.0947 294.585 74.5684 294.585 75.249V75.5293C294.585 76.2098 295.279 76.6836 296.14 76.6836ZM296.14 74.5151C296.734 74.5151 297.241 74.8287 297.241 75.2824V75.4959C297.241 75.9496 296.734 76.2632 296.14 76.2632C295.546 76.2632 295.039 75.9496 295.039 75.4959V75.2824C295.039 74.8287 295.546 74.5151 296.14 74.5151ZM299.196 73.9613H298.722V80.0598H299.196V73.9613ZM298.255 77.1773C297.361 77.2774 296.146 77.3241 294.218 77.3241V77.7378C294.885 77.7378 295.432 77.7311 295.913 77.7245V79.8663H296.393V77.7044C297.127 77.6778 297.688 77.6444 298.295 77.5843L298.255 77.1773ZM301.772 76.3233C302.586 76.3233 303.24 75.8962 303.24 75.3291V75.0755C303.24 74.5084 302.586 74.0814 301.772 74.0814C300.958 74.0814 300.304 74.5084 300.304 75.0755V75.3291C300.304 75.8962 300.958 76.3233 301.772 76.3233ZM302.973 77.6377V78.0514H304.348V78.6986H304.815V73.9613H304.348V77.6377H302.973ZM301.772 74.4817C302.333 74.4817 302.793 74.7686 302.793 75.1156V75.2891C302.793 75.636 302.333 75.9229 301.772 75.9229C301.212 75.9229 300.751 75.636 300.751 75.2891V75.1156C300.751 74.7686 301.212 74.4817 301.772 74.4817ZM301.392 78.3717H300.918V79.9864H304.955V79.5727H301.392V78.3717ZM303.841 76.6102C302.693 76.7303 301.799 76.757 299.877 76.757V77.164C300.491 77.164 301.005 77.164 301.452 77.1506V78.1115H301.926V77.144C302.713 77.1173 303.28 77.0772 303.881 77.0172L303.841 76.6102ZM309.647 78.3383C309.093 78.3984 308.526 78.4384 307.825 78.4584V77.7044C308.532 77.611 308.999 77.1707 308.999 76.6969V76.4434C308.999 75.9029 308.412 75.4225 307.545 75.4225C306.684 75.4225 306.09 75.9029 306.09 76.4434V76.6969C306.09 77.1907 306.597 77.6444 307.351 77.7111V78.4718C306.851 78.4851 306.277 78.4851 305.603 78.4851V78.8988C307.645 78.8988 308.586 78.8588 309.687 78.7453L309.647 78.3383ZM310.581 73.9613H310.107V80.0598H310.581V73.9613ZM307.545 75.8228C308.165 75.8228 308.552 76.1565 308.552 76.4701V76.6702C308.552 76.9838 308.165 77.3241 307.545 77.3241C306.924 77.3241 306.537 76.9838 306.537 76.6702V76.4701C306.537 76.1565 306.924 75.8228 307.545 75.8228ZM307.772 73.9079H307.305V74.6685H305.757V75.0822H309.28V74.6685H307.772V73.9079ZM316.587 78.3383C316.033 78.3984 315.466 78.4384 314.765 78.4584V77.7044C315.473 77.611 315.94 77.1707 315.94 76.6969V76.4434C315.94 75.9029 315.352 75.4225 314.485 75.4225C313.624 75.4225 313.031 75.9029 313.031 76.4434V76.6969C313.031 77.1907 313.538 77.6444 314.292 77.7111V78.4718C313.791 78.4851 313.217 78.4851 312.543 78.4851V78.8988C314.585 78.8988 315.526 78.8588 316.627 78.7453L316.587 78.3383ZM317.521 73.9613H317.047V80.0598H317.521V73.9613ZM314.485 75.8228C315.106 75.8228 315.493 76.1565 315.493 76.4701V76.6702C315.493 76.9838 315.106 77.3241 314.485 77.3241C313.865 77.3241 313.478 76.9838 313.478 76.6702V76.4701C313.478 76.1565 313.865 75.8228 314.485 75.8228ZM314.712 73.9079H314.245V74.6685H312.697V75.0822H316.22V74.6685H314.712V73.9079ZM322.366 74.1948V75.1089H319.337V74.1948H318.877V76.8103H322.827V74.1948H322.366ZM318.049 77.6244V78.0314H320.618V80.0598H321.092V78.0314H323.654V77.6244H318.049ZM319.337 76.4167V75.5159H322.366V76.4167H319.337Z" fill="black"/>
<path d="M277.22 152.14V154.855H279.001V156.477H276.432V156.884H282.037V156.477H279.468V154.855H281.31V154.448H277.693V152.14H277.22ZM286.829 151.646H286.355V157.744H286.829V154.341H287.85V153.921H286.829V151.646ZM283.172 154.795C282.859 155.149 282.492 155.502 282.051 155.889L282.365 156.216C282.759 155.869 283.199 155.422 283.433 155.169C283.633 154.949 283.886 154.635 283.906 154.548H283.913C283.946 154.635 284.14 154.855 284.34 155.069C284.607 155.356 284.981 155.723 285.401 156.123L285.708 155.803C285.207 155.349 284.814 154.949 284.547 154.642C284.187 154.228 284.147 154.008 284.147 153.494V152.093H283.659V153.527C283.659 154.055 283.593 154.315 283.172 154.795ZM292.381 155.416V156.136H289.579V155.416H289.119V157.744H292.842V155.416H292.381ZM289.572 155.115C290.513 155.115 290.96 154.635 290.96 154.168V153.968C290.96 153.501 290.513 153.02 289.572 153.02C288.631 153.02 288.184 153.501 288.184 153.968V154.168C288.184 154.635 288.631 155.115 289.572 155.115ZM291.347 153.12V153.527H292.381V154.181H291.347V154.588H292.381V155.055H292.842V151.646H292.381V153.12H291.347ZM289.579 157.324V156.55H292.381V157.324H289.579ZM289.572 153.414C290.213 153.414 290.506 153.728 290.506 153.994V154.141C290.506 154.408 290.213 154.722 289.572 154.722C288.932 154.722 288.638 154.408 288.638 154.141V153.994C288.638 153.728 288.932 153.414 289.572 153.414ZM289.799 151.559H289.332V152.326H287.831V152.733H291.367V152.326H289.799V151.559ZM298.588 151.646H298.114V157.744H298.588V151.646ZM297.647 155.843C296.613 155.956 295.545 155.99 293.603 155.99V156.403C295.645 156.403 296.586 156.363 297.687 156.25L297.647 155.843ZM295.512 154.949C296.379 154.949 297.1 154.381 297.1 153.661V153.341C297.1 152.62 296.379 152.053 295.512 152.053C294.644 152.053 293.924 152.613 293.924 153.341V153.661C293.924 154.381 294.644 154.949 295.512 154.949ZM295.512 152.467C296.099 152.467 296.646 152.867 296.646 153.367V153.634C296.646 154.135 296.099 154.535 295.512 154.535C294.924 154.535 294.377 154.135 294.377 153.634V153.367C294.377 152.867 294.924 152.467 295.512 152.467ZM303.333 156.023C302.779 156.083 302.212 156.123 301.511 156.143V155.389C302.218 155.296 302.685 154.855 302.685 154.381V154.128C302.685 153.587 302.098 153.107 301.231 153.107C300.37 153.107 299.776 153.587 299.776 154.128V154.381C299.776 154.875 300.283 155.329 301.037 155.396V156.156C300.537 156.17 299.963 156.17 299.289 156.17V156.583C301.331 156.583 302.272 156.543 303.373 156.43L303.333 156.023ZM304.267 151.646H303.793V157.744H304.267V151.646ZM301.231 153.507C301.851 153.507 302.238 153.841 302.238 154.155V154.355C302.238 154.668 301.851 155.009 301.231 155.009C300.61 155.009 300.223 154.668 300.223 154.355V154.155C300.223 153.841 300.61 153.507 301.231 153.507ZM301.458 151.592H300.991V152.353H299.443V152.767H302.966V152.353H301.458V151.592ZM307.751 154.995C308.665 154.995 309.245 154.308 309.245 153.648V153.261C309.245 152.6 308.665 151.913 307.751 151.913C306.837 151.913 306.256 152.607 306.256 153.261V153.648C306.256 154.308 306.837 154.995 307.751 154.995ZM307.751 152.333C308.371 152.333 308.792 152.8 308.792 153.301V153.607C308.792 154.108 308.371 154.575 307.751 154.575C307.13 154.575 306.71 154.108 306.71 153.607V153.301C306.71 152.813 307.13 152.333 307.751 152.333ZM310.853 151.646H310.386V156.01H310.853V153.908H311.788V153.494H310.853V151.646ZM307.684 155.669H307.21V157.671H311.04V157.257H307.684V155.669ZM312.182 155.396C313.804 154.695 314.424 154.301 314.651 153.741H316.326V156.01H316.793V151.646H316.326V153.327H314.745C314.758 153.214 314.765 153.087 314.765 152.954V152.046H312.196V152.46H314.304V152.927C314.304 153.808 314.124 154.081 311.989 155.009L312.182 155.396ZM313.53 155.683H313.056V157.671H316.946V157.257H313.53V155.683ZM321.658 155.369C320.657 155.369 319.843 155.796 319.843 156.51V156.764C319.843 157.464 320.657 157.904 321.658 157.904C322.659 157.904 323.473 157.464 323.473 156.764V156.51C323.473 155.809 322.659 155.369 321.658 155.369ZM321.658 157.504C320.944 157.504 320.297 157.217 320.297 156.744V156.53C320.297 156.056 320.944 155.769 321.658 155.769C322.372 155.769 323.019 156.056 323.019 156.53V156.744C323.019 157.217 322.372 157.504 321.658 157.504ZM320.45 153.654C320.484 153.761 320.664 153.941 320.971 154.201C321.198 154.395 321.491 154.635 321.845 154.902L322.125 154.575C321.832 154.361 321.478 154.081 321.151 153.794C320.704 153.394 320.664 153.234 320.664 152.74V151.919H320.184V152.753C320.184 153.254 320.137 153.427 319.716 153.848C319.416 154.148 318.996 154.495 318.636 154.762L318.929 155.102C319.296 154.809 319.69 154.475 319.923 154.255C320.217 153.974 320.424 153.768 320.444 153.654H320.45ZM323.44 151.646H322.973V155.236H323.44V153.601H324.374V153.187H323.44V151.646ZM327.604 155.382C326.603 155.382 325.756 155.789 325.756 156.51V156.77C325.756 157.471 326.603 157.904 327.604 157.904C328.605 157.904 329.452 157.471 329.452 156.77V156.51C329.452 155.809 328.605 155.382 327.604 155.382ZM327.604 157.504C326.89 157.504 326.21 157.231 326.21 156.757V156.53C326.21 156.056 326.89 155.783 327.604 155.783C328.318 155.783 328.999 156.056 328.999 156.53V156.757C328.999 157.231 328.318 157.504 327.604 157.504ZM326.316 153.808C326.343 153.894 326.603 154.121 326.917 154.375C327.117 154.535 327.437 154.775 327.704 154.962L327.978 154.628C327.598 154.375 327.224 154.095 327.01 153.914C326.577 153.541 326.53 153.361 326.53 152.967V152.44H327.838V152.033H324.682V152.44H326.056V152.987C326.056 153.347 325.983 153.581 325.656 153.901C325.329 154.221 324.902 154.548 324.508 154.829L324.795 155.162C325.102 154.942 325.556 154.582 325.789 154.375C326.07 154.128 326.283 153.908 326.31 153.808H326.316ZM329.419 151.646H328.952V153.207H327.678V153.621H328.952V155.242H329.419V151.646Z" fill="black"/>
<path d="M125.468 101.358H125.475C125.548 101.498 125.855 101.672 126.269 101.838C126.616 101.985 127.076 102.159 127.623 102.339L127.797 101.972C127.236 101.792 126.729 101.605 126.402 101.465C125.855 101.231 125.708 101.038 125.708 100.691V100.517H127.543V100.117H123.406V100.517H125.234V100.691C125.234 101.038 125.081 101.225 124.534 101.465C124.2 101.612 123.747 101.778 123.139 101.979L123.326 102.346C123.873 102.165 124.294 102.005 124.674 101.845C125.088 101.672 125.395 101.505 125.468 101.358ZM123.386 104.427H127.003V106.002H127.47V104.02H123.386V104.427ZM122.672 102.833V103.24H128.277V102.833H122.672ZM133.376 99.8568H132.902V105.955H133.376V99.8568ZM129.519 103.019C129.206 103.373 128.839 103.727 128.398 104.114L128.712 104.441C129.105 104.094 129.546 103.647 129.779 103.393C129.98 103.173 130.233 102.859 130.253 102.773H130.26C130.293 102.859 130.487 103.08 130.687 103.293C130.954 103.58 131.327 103.947 131.748 104.347L132.055 104.027C131.554 103.573 131.161 103.173 130.894 102.866C130.533 102.452 130.493 102.232 130.493 101.718V100.297H130.006V101.752C130.006 102.279 129.939 102.539 129.519 103.019ZM135.986 100.811H137.847V101.044C137.847 101.732 137.72 101.885 137.08 102.312C136.773 102.512 136.239 102.819 135.679 103.1L135.926 103.467C136.399 103.22 136.953 102.899 137.347 102.646C137.807 102.346 138.034 102.165 138.087 102.039H138.094C138.154 102.165 138.374 102.339 138.835 102.639C139.228 102.893 139.776 103.206 140.243 103.446L140.483 103.093C139.922 102.813 139.402 102.512 139.095 102.312C138.454 101.885 138.328 101.732 138.328 101.044V100.811H140.189V100.404H135.986V100.811ZM135.285 104.688V105.095H140.89V104.688H138.328V103.286H137.847V104.688H135.285ZM145.682 99.8568H145.208V105.955H145.682V102.552H146.703V102.132H145.682V99.8568ZM142.025 103.006C141.712 103.36 141.345 103.713 140.904 104.1L141.218 104.427C141.612 104.08 142.052 103.633 142.285 103.38C142.486 103.16 142.739 102.846 142.759 102.759H142.766C142.799 102.846 142.993 103.066 143.193 103.28C143.46 103.567 143.833 103.934 144.254 104.334L144.561 104.014C144.06 103.56 143.667 103.16 143.4 102.853C143.039 102.439 142.999 102.219 142.999 101.705V100.304H142.512V101.738C142.512 102.265 142.446 102.526 142.025 103.006Z" fill="black"/>
<path d="M124.605 129.168V129.575H127.907V130.322H124.638V131.87H128.528V131.469H125.098V130.716H128.368V129.168H124.605ZM123.737 128.967C125.959 128.12 126.319 127.806 126.319 126.665V126.025H123.764V126.439H125.859V126.639C125.859 127.539 125.679 127.766 123.564 128.58L123.737 128.967ZM126.593 127.666V128.073H127.907V128.807H128.368V125.751H127.907V126.505H126.693V126.912H127.907V127.666H126.593ZM133.847 125.751H133.373V131.85H133.847V128.494H134.814V128.073H133.847V125.751ZM132.906 129.875C132.246 129.948 131.625 129.988 130.764 130.008V128.073H130.291V130.015C129.91 130.022 129.49 130.022 129.003 130.022V130.435C131.045 130.435 131.845 130.395 132.946 130.282L132.906 129.875ZM129.31 126.338V126.759H131.879V127.173C131.879 127.74 131.839 128.48 131.718 129.021L132.192 129.081C132.299 128.647 132.352 127.72 132.352 127.079V126.338H129.31ZM138.972 126.218V127.313H135.943V126.218H135.483V129.261H137.224V130.582H134.655V130.989H140.26V130.582H137.691V129.261H139.433V126.218H138.972ZM135.943 128.867V127.72H138.972V128.867H135.943ZM140.328 130.582V130.989H145.933V130.582H142.937V128.24H142.456V130.582H140.328ZM144.858 129.801C145.019 128.941 145.092 128.167 145.092 127.046V126.325H141.035V126.739H144.605V127.293C144.605 128.187 144.518 128.921 144.365 129.741L144.858 129.801Z" fill="black"/>
<path d="M100.307 157.933C100.307 158.58 101.014 159.108 102.195 159.108C103.376 159.108 104.084 158.58 104.084 157.933V157.666C104.084 157.019 103.376 156.492 102.195 156.492C101.014 156.492 100.307 157.019 100.307 157.666V157.933ZM100.988 155.024C101.034 155.124 101.168 155.251 101.368 155.418C101.688 155.685 101.989 155.912 102.335 156.152L102.709 155.671C102.315 155.411 101.955 155.151 101.642 154.864C101.348 154.597 101.295 154.37 101.295 153.943V153.73H102.529V153.163H99.3196V153.73H100.627V153.97C100.627 154.457 100.514 154.711 100.187 155.031C99.9468 155.264 99.5398 155.571 99.1128 155.872L99.4997 156.345C99.8734 156.085 100.247 155.791 100.534 155.545C100.747 155.364 100.941 155.138 100.981 155.024H100.988ZM103.436 157.893C103.436 158.22 102.956 158.567 102.195 158.567C101.435 158.567 100.954 158.22 100.954 157.893V157.706C100.954 157.379 101.435 157.033 102.195 157.033C102.956 157.033 103.436 157.379 103.436 157.706V157.893ZM104.057 156.412V152.782H103.403V156.412H104.057ZM106.547 154.524C106.547 155.431 106.547 155.898 104.665 157.106L105.032 157.62C106.84 156.412 107.154 155.898 107.187 154.857H108.075V155.872H107.174V156.445H108.075V158.634H108.722V152.909H108.075V154.283H107.194V153.383H104.839V153.95H106.547V154.524ZM109.976 152.782H109.329V158.934H109.976V152.782ZM114.728 157.553V156.399H114.061V157.553H111.572V158.113H117.217V157.553H114.728ZM115.095 155.565V153.856H116.576V153.303H114.461V156.118H116.643V155.565H115.095ZM114.181 155.478C113.801 155.531 113.314 155.565 112.847 155.565H112.753V153.856H114.088V153.303H112.119V156.118H112.633C113.28 156.118 113.841 156.078 114.228 156.025L114.181 155.478ZM117.245 155.892V156.452H122.889V155.892H117.245ZM118.719 157.012H118.059V158.867H122.196V158.294H118.719V157.012ZM118.099 153.022V155.184H122.082V154.624H118.753V153.022H118.099ZM125.753 155.938C125.8 156.072 125.9 156.218 126.033 156.379C126.3 156.699 126.58 156.992 126.934 157.346L127.381 156.906C126.987 156.525 126.694 156.212 126.414 155.852C126.147 155.505 126.06 155.191 126.06 154.811V153.93H127.047V153.376H124.365V153.93H125.419V154.811C125.419 155.191 125.353 155.518 125.086 155.865C124.799 156.238 124.452 156.599 124.052 156.979L124.499 157.426C124.852 157.066 125.192 156.699 125.459 156.379C125.593 156.218 125.7 156.072 125.746 155.938H125.753ZM127.675 154.797H126.74V155.371H127.675V158.634H128.322V152.909H127.675V154.797ZM129.543 152.782H128.896V158.934H129.543V152.782ZM134.782 155.631H131.279V153.856H134.708V153.296H130.618V156.192H132.346V157.553H129.857V158.113H135.502V157.553H133.014V156.192H134.782V155.631ZM140.875 152.782H140.227V154.931H139.487V152.909H138.84V158.634H139.487V155.505H140.227V158.934H140.875V152.782ZM137.458 154.524C137.458 155.431 137.458 155.898 135.577 157.106L135.944 157.62C137.879 156.325 138.106 155.831 138.106 154.637V153.383H135.75V153.95H137.458V154.524ZM143.091 155.084C143.131 155.184 143.271 155.331 143.471 155.498C143.791 155.765 144.098 156.018 144.445 156.279L144.832 155.818C144.439 155.531 144.058 155.231 143.745 154.944C143.424 154.65 143.398 154.43 143.398 154.017V153.069H142.731V154.043C142.731 154.51 142.637 154.764 142.297 155.104C142.063 155.338 141.65 155.691 141.223 156.018L141.616 156.485C141.97 156.205 142.364 155.872 142.637 155.618C142.844 155.431 143.051 155.198 143.084 155.084H143.091ZM146.314 157.159V152.782H145.66V154.177H144.425V154.744H145.66V157.159H146.314ZM143.131 156.799H142.47V158.867H146.44V158.294H143.131V156.799ZM153.154 158.974V158.434H149.597V158.007H152.974V156.519H151.299V155.998H153.788V155.451H148.143V155.998H150.632V156.519H148.917V157.059H152.326V157.48H148.95V158.974H153.154ZM152.974 152.836H152.32V153.469H149.604V152.842H148.95V155.044H152.974V152.836ZM149.604 154.003H152.32V154.49H149.604V154.003ZM153.989 155.638C156.117 155.625 156.891 155.591 157.705 155.518L157.659 155.004C157.392 155.031 157.138 155.044 156.858 155.064V153.576H157.432V153.042H154.029V153.576H154.616V155.111H153.989V155.638ZM159.087 158.974V158.427H155.75V157.84H158.913V156.178H155.07V156.726H158.266V157.306H155.103V158.974H159.087ZM158.913 155.872V152.782H158.259V155.872H158.913ZM155.25 155.111V153.576H156.224V155.091L155.25 155.111ZM163.725 157.553V156.065C164.125 155.805 164.379 155.424 164.379 154.937V154.617C164.379 153.69 163.438 153.116 162.31 153.116C161.183 153.116 160.242 153.69 160.242 154.617V154.937C160.242 155.424 160.495 155.805 160.896 156.065V157.553H159.488V158.113H165.133V157.553H163.725ZM162.31 153.69C163.078 153.69 163.732 154.057 163.732 154.65V154.904C163.732 155.498 163.078 155.865 162.31 155.865C161.543 155.865 160.889 155.498 160.889 154.904V154.65C160.889 154.057 161.543 153.69 162.31 153.69ZM162.31 156.432C162.577 156.432 162.831 156.399 163.071 156.339V157.553H161.55V156.339C161.783 156.399 162.043 156.432 162.31 156.432ZM170.258 158.934V152.782H169.598V158.934H170.258ZM167.095 155.858C167.149 155.992 167.309 156.178 167.496 156.379C167.749 156.652 168.05 156.952 168.51 157.379L168.937 156.926C168.537 156.572 168.243 156.292 167.956 155.978C167.549 155.525 167.422 155.251 167.422 154.724V153.223H166.755V154.724C166.755 155.198 166.648 155.498 166.241 155.958C165.941 156.292 165.594 156.632 165.187 156.992L165.621 157.44C166.075 157.026 166.428 156.672 166.702 156.372C166.915 156.138 167.029 156.005 167.089 155.858H167.095Z" fill="white"/>
<path d="M205.226 155.775C205.273 155.909 205.373 156.055 205.507 156.216C205.774 156.536 206.054 156.829 206.407 157.183L206.854 156.743C206.461 156.362 206.167 156.049 205.887 155.688C205.62 155.341 205.533 155.028 205.533 154.648V153.767H206.521V153.213H203.839V153.767H204.893V154.648C204.893 155.028 204.826 155.355 204.559 155.702C204.272 156.075 203.925 156.436 203.525 156.816L203.972 157.263C204.326 156.903 204.666 156.536 204.933 156.216C205.066 156.055 205.173 155.909 205.22 155.775H205.226ZM207.148 154.634H206.214V155.208H207.148V158.471H207.795V152.746H207.148V154.634ZM209.016 152.619H208.369V158.771H209.016V152.619ZM214.255 155.468H210.752V153.693H214.182V153.133H210.092V156.029H211.82V157.39H209.331V157.95H214.976V157.39H212.487V156.029H214.255V155.468ZM220.348 152.619H219.701V154.768H218.96V152.746H218.313V158.471H218.96V155.341H219.701V158.771H220.348V152.619ZM216.932 154.361C216.932 155.268 216.932 155.735 215.05 156.943L215.417 157.457C217.352 156.162 217.579 155.668 217.579 154.474V153.22H215.224V153.787H216.932V154.361ZM222.564 154.921C222.604 155.021 222.744 155.168 222.945 155.335C223.265 155.602 223.572 155.855 223.919 156.115L224.306 155.655C223.912 155.368 223.532 155.068 223.218 154.781C222.898 154.487 222.871 154.267 222.871 153.854V152.906H222.204V153.88C222.204 154.347 222.111 154.601 221.77 154.941C221.537 155.175 221.123 155.528 220.696 155.855L221.09 156.322C221.443 156.042 221.837 155.708 222.111 155.455C222.317 155.268 222.524 155.035 222.558 154.921H222.564ZM225.787 156.996V152.619H225.133V154.014H223.899V154.581H225.133V156.996H225.787ZM222.604 156.636H221.944V158.704H225.914V158.13H222.604V156.636ZM227.79 155.475C229.918 155.462 230.692 155.428 231.506 155.355L231.46 154.841C231.193 154.868 230.939 154.881 230.659 154.901V153.413H231.233V152.879H227.83V153.413H228.417V154.948H227.79V155.475ZM232.887 158.811V158.264H229.551V157.677H232.714V156.015H228.871V156.562H232.067V157.143H228.904V158.811H232.887ZM232.714 155.708V152.619H232.06V155.708H232.714ZM229.051 154.948V153.413H230.025V154.928L229.051 154.948ZM237.526 157.39V155.902C237.926 155.642 238.18 155.261 238.18 154.774V154.454C238.18 153.527 237.239 152.953 236.111 152.953C234.984 152.953 234.043 153.527 234.043 154.454V154.774C234.043 155.261 234.296 155.642 234.697 155.902V157.39H233.289V157.95H238.934V157.39H237.526ZM236.111 153.527C236.879 153.527 237.532 153.894 237.532 154.487V154.741C237.532 155.335 236.879 155.702 236.111 155.702C235.344 155.702 234.69 155.335 234.69 154.741V154.487C234.69 153.894 235.344 153.527 236.111 153.527ZM236.111 156.269C236.378 156.269 236.632 156.236 236.872 156.175V157.39H235.351V156.175C235.584 156.236 235.844 156.269 236.111 156.269ZM244.059 158.771V152.619H243.399V158.771H244.059ZM240.896 155.695C240.95 155.829 241.11 156.015 241.297 156.216C241.55 156.489 241.851 156.789 242.311 157.216L242.738 156.763C242.338 156.409 242.044 156.129 241.757 155.815C241.35 155.361 241.223 155.088 241.223 154.561V153.06H240.556V154.561C240.556 155.035 240.449 155.335 240.042 155.795C239.742 156.129 239.395 156.469 238.988 156.829L239.422 157.276C239.875 156.863 240.229 156.509 240.503 156.209C240.716 155.975 240.83 155.842 240.89 155.695H240.896Z" fill="white"/>
<path d="M212.046 105.981C212.046 106.628 212.753 107.155 213.934 107.155C215.115 107.155 215.822 106.628 215.822 105.981V105.714C215.822 105.067 215.115 104.54 213.934 104.54C212.753 104.54 212.046 105.067 212.046 105.714V105.981ZM212.727 103.072C212.773 103.172 212.907 103.299 213.107 103.466C213.427 103.733 213.727 103.959 214.074 104.2L214.448 103.719C214.054 103.459 213.694 103.199 213.38 102.912C213.087 102.645 213.033 102.418 213.033 101.991V101.778H214.268V101.21H211.058V101.778H212.366V102.018C212.366 102.505 212.253 102.758 211.926 103.079C211.686 103.312 211.279 103.619 210.852 103.919L211.239 104.393C211.612 104.133 211.986 103.839 212.273 103.592C212.486 103.412 212.68 103.185 212.72 103.072H212.727ZM215.175 105.941C215.175 106.268 214.695 106.615 213.934 106.615C213.174 106.615 212.693 106.268 212.693 105.941V105.754C212.693 105.427 213.174 105.08 213.934 105.08C214.695 105.08 215.175 105.427 215.175 105.754V105.941ZM215.796 104.46V100.83H215.142V104.46H215.796ZM218.286 102.572C218.286 103.479 218.286 103.946 216.404 105.154L216.771 105.668C218.579 104.46 218.893 103.946 218.926 102.905H219.814V103.919H218.913V104.493H219.814V106.682H220.461V100.957H219.814V102.331H218.933V101.431H216.578V101.998H218.286V102.572ZM221.715 100.83H221.068V106.982H221.715V100.83ZM223.484 103.686C225.613 103.672 226.387 103.639 227.201 103.566L227.154 103.052C226.887 103.079 226.634 103.092 226.354 103.112V101.624H226.927V101.09H223.524V101.624H224.112V103.159H223.484V103.686ZM228.582 107.022V106.475H225.246V105.888H228.409V104.226H224.565V104.773H227.761V105.354H224.599V107.022H228.582ZM228.409 103.919V100.83H227.755V103.919H228.409ZM224.746 103.159V101.624H225.72V103.139L224.746 103.159ZM233.22 105.601V104.113C233.621 103.853 233.874 103.472 233.874 102.985V102.665C233.874 101.738 232.934 101.164 231.806 101.164C230.678 101.164 229.737 101.738 229.737 102.665V102.985C229.737 103.472 229.991 103.853 230.391 104.113V105.601H228.983V106.161H234.628V105.601H233.22ZM231.806 101.738C232.573 101.738 233.227 102.104 233.227 102.698V102.952C233.227 103.546 232.573 103.913 231.806 103.913C231.039 103.913 230.385 103.546 230.385 102.952V102.698C230.385 102.104 231.039 101.738 231.806 101.738ZM231.806 104.48C232.073 104.48 232.326 104.446 232.567 104.386V105.601H231.045V104.386C231.279 104.446 231.539 104.48 231.806 104.48ZM239.754 106.982V100.83H239.093V106.982H239.754ZM236.591 103.906C236.644 104.039 236.805 104.226 236.991 104.426C237.245 104.7 237.545 105 238.006 105.427L238.433 104.974C238.032 104.62 237.739 104.34 237.452 104.026C237.045 103.572 236.918 103.299 236.918 102.772V101.27H236.251V102.772C236.251 103.245 236.144 103.546 235.737 104.006C235.437 104.34 235.09 104.68 234.683 105.04L235.116 105.487C235.57 105.074 235.924 104.72 236.197 104.42C236.411 104.186 236.524 104.053 236.584 103.906H236.591Z" fill="white"/>
<path d="M177.922 24.1042C177.989 24.2176 178.209 24.4178 178.65 24.698C179.097 24.9783 179.45 25.1784 180.018 25.4787L180.344 24.9516C179.784 24.6647 179.457 24.4912 178.943 24.1643C178.409 23.824 178.249 23.537 178.249 23.0366V22.8765H180.038V22.3027H175.794V22.8765H177.582V23.0366C177.582 23.5437 177.395 23.844 176.882 24.1776C176.454 24.4512 176.061 24.6647 175.487 24.9583L175.814 25.4854C176.314 25.2252 176.721 24.9983 177.175 24.7114C177.615 24.4311 177.842 24.2243 177.916 24.1042H177.922ZM178.249 26.553V25.2385H177.582V26.553H175.093V27.1134H180.738V26.553H178.249ZM182.828 25.005C182.881 25.1384 183.048 25.3252 183.235 25.5254C183.488 25.799 183.768 26.0792 184.222 26.4929L184.656 26.0459C184.262 25.6989 183.982 25.4387 183.695 25.1251C183.221 24.6113 183.148 24.4111 183.148 23.884V23.2501H184.469V22.6763H183.148V21.8022H182.481V22.6763H181.106V23.2501H182.481V23.884C182.481 24.3778 182.407 24.6313 181.967 25.1184C181.667 25.452 181.34 25.779 180.939 26.1393L181.373 26.5863C181.82 26.1726 182.154 25.8323 182.427 25.5321C182.641 25.2986 182.761 25.1518 182.821 25.005H182.828ZM185.924 27.9341V21.7822H185.263V27.9341H185.924ZM191.75 27.9742V27.427H188.413V26.8465H191.576V25.1918H187.733V25.7389H190.929V26.3127H187.766V27.9742H191.75ZM188.854 22.8298C188.854 23.5304 188.527 23.8039 186.639 24.5246L186.865 25.0583C188.954 24.2777 189.501 23.9174 189.501 22.8631V22.0491H186.892V22.6029H188.854V22.8298ZM191.576 24.8849V21.7822H190.929V22.4895H189.841V23.0433H190.929V23.6505H189.741V24.2043H190.929V24.8849H191.576ZM197.035 27.9341V24.6246H197.956V24.0508H197.035V21.7822H196.381V27.9341H197.035ZM195.988 25.839C195.334 25.8991 194.793 25.9391 193.986 25.9591V24.1309H193.332V25.9725C192.985 25.9791 192.585 25.9791 192.131 25.9791V26.553C194.239 26.553 194.933 26.5196 196.041 26.4128L195.988 25.839ZM192.431 22.9365H194.887V23.3903C194.887 23.7172 194.873 24.3978 194.74 25.0383L195.387 25.1184C195.501 24.5913 195.541 23.7239 195.541 23.2835V22.3627H192.431V22.9365ZM200.799 26.2994C201.74 26.2994 202.494 26.2794 203.141 26.206L203.095 25.6722C202.808 25.7056 202.514 25.7256 202.234 25.7389V22.9032H202.875V22.3627H199.285V22.9032H199.925V25.7589H199.218V26.2994H200.799ZM204.216 27.9341V21.7822H203.555V27.9341H204.216ZM200.573 25.7589V22.9032H201.587V25.7589H200.986H200.573ZM204.724 26.553V27.1134H210.369V26.553H204.724ZM209.648 24.6847H206.145V22.8765H209.575V22.3093H205.484V25.2518H209.648V24.6847ZM213.065 24.9783V22.1025H212.438V23.0433H211.257V22.1025H210.63V24.9783H213.065ZM214.994 23.2368H214.373V21.8623H213.746V25.3719H214.373V23.8039H214.994V25.3853H215.627V21.7822H214.994V23.2368ZM211.591 26.2727H214.967V27.9942H215.627V25.7056H211.591V26.2727ZM211.257 23.5838H212.438V24.4245H211.257V23.5838Z" fill="white"/>
</svg>
