<svg width="351" height="153" viewBox="0 0 351 153" fill="none" xmlns="http://www.w3.org/2000/svg">
<g filter="url(#filter0_d_1_19798)">
<path d="M86.2704 95.1515C86.2704 117.548 68.1279 135.705 45.7484 135.705C23.3689 135.705 5.22638 117.548 5.22638 95.1515C5.22638 72.7545 23.3689 54.5984 45.7484 54.5984C68.1279 54.5984 86.2704 72.7545 86.2704 95.1515Z" fill="white" stroke="#DDDDDD" stroke-width="0.452756"/>
</g>
<path d="M27.3907 85.1272V85.6044H31.47V86.1893C31.47 86.7127 31.4085 87.4131 31.2622 88.0366H26.5441V88.5061H33.0094V88.0366H31.8318C31.9549 87.4439 32.0165 86.7512 32.0165 86.2201V85.1272H27.3907ZM28.0526 89.3989H27.5062V91.6926H32.2012V91.2154H28.0526V89.3989ZM34.0189 85.2965V85.766H38.0444V86.9205H34.042V88.991H36.0509V90.3148H33.0876V90.7843H39.5529V90.3148H36.5897V88.991H38.7371V88.5215H34.5731V87.3823H38.5754V85.2965H34.0189ZM43.595 85.3965H39.8389V85.8738H41.4553V87.0129C41.4553 87.5978 41.386 87.8903 40.9011 88.4368C40.547 88.837 40.1083 89.2604 39.6234 89.6914L39.9852 90.0531C40.447 89.6529 40.9627 89.1064 41.1705 88.8909C41.3937 88.6523 41.6939 88.306 41.7324 88.1674H41.7401C41.7785 88.2675 41.994 88.5061 42.2173 88.7447C42.5251 89.0756 42.8946 89.4528 43.4257 89.9454L43.7797 89.5836C43.2102 89.0756 42.756 88.6215 42.4559 88.2752C42.0479 87.8057 42.0017 87.5594 42.0017 86.9744V85.8738H43.595V85.3965ZM45.0882 84.7423H44.5417V91.7772H45.0882V87.9134H46.2581V87.4285H45.0882V84.7423ZM49.3996 86.7666H49.4073C49.5151 86.9051 49.6613 87.036 50.2463 87.2592C50.608 87.3977 51.1391 87.5748 51.9088 87.798L52.0935 87.3669C51.3469 87.1591 50.7697 86.9744 50.4156 86.8359C49.7691 86.5819 49.6767 86.3971 49.6767 86.0123V85.8507H51.8164V85.3889H49.6767V84.65H49.1302V85.3889H46.9982V85.8507H49.1302V86.0123C49.1302 86.3971 49.0148 86.5896 48.3682 86.8436C48.0065 86.9821 47.4061 87.1745 46.7057 87.3746L46.8981 87.8134C47.6601 87.5825 48.1912 87.4131 48.5607 87.2669C49.1225 87.0514 49.315 86.9051 49.3996 86.7666ZM46.9982 90.0608H51.1699V91.8388H51.7087V89.5913H46.9982V90.0608ZM46.1746 88.2752V88.7447H52.64V88.2752H46.1746ZM56.5435 87.8826C57.5364 87.8826 58.3369 87.3362 58.3369 86.5511V86.2278C58.3369 85.4427 57.5364 84.8963 56.5435 84.8963C55.5506 84.8963 54.7501 85.4427 54.7501 86.2278V86.5511C54.7501 87.3362 55.5506 87.8826 56.5435 87.8826ZM56.5435 85.3812C57.2285 85.3812 57.8135 85.7429 57.8135 86.2663V86.5126C57.8135 87.036 57.2285 87.3977 56.5435 87.3977C55.8585 87.3977 55.2735 87.036 55.2735 86.5126V86.2663C55.2735 85.7429 55.8585 85.3812 56.5435 85.3812ZM60.0687 84.7423H59.5222V91.7772H60.0687V84.7423ZM58.9834 88.4522C57.952 88.5677 56.5512 88.6215 54.3268 88.6215V89.0987C55.0965 89.0987 55.7276 89.091 56.2818 89.0833V91.554H56.836V89.0603C57.6826 89.0295 58.3292 88.991 59.0296 88.9217L58.9834 88.4522ZM63.0409 87.467C63.9799 87.467 64.7342 86.9744 64.7342 86.3202V86.0277C64.7342 85.3735 63.9799 84.8809 63.0409 84.8809C62.1018 84.8809 61.3475 85.3735 61.3475 86.0277V86.3202C61.3475 86.9744 62.1018 87.467 63.0409 87.467ZM64.4263 88.9833V89.4605H66.0118V90.2071H66.5506V84.7423H66.0118V88.9833H64.4263ZM63.0409 85.3427C63.6874 85.3427 64.2185 85.6736 64.2185 86.0739V86.274C64.2185 86.6742 63.6874 87.0052 63.0409 87.0052C62.3943 87.0052 61.8632 86.6742 61.8632 86.274V86.0739C61.8632 85.6736 62.3943 85.3427 63.0409 85.3427ZM62.6021 89.8299H62.0557V91.6926H66.7123V91.2154H62.6021V89.8299ZM65.4269 87.798C64.103 87.9365 63.0716 87.9673 60.8549 87.9673V88.4368C61.5631 88.4368 62.1557 88.4368 62.6714 88.4214V89.5298H63.2179V88.4137C64.1261 88.3829 64.7803 88.3367 65.4731 88.2675L65.4269 87.798Z" fill="#222222"/>
<path d="M30.1836 101.645V100.773H26.0192V98.035H24.9842V101.645H27.0705V103.218H24.1122V104.09H31.0556V103.218H28.0973V101.645H30.1836ZM31.8963 98.9478H33.9908V99.1515C33.9908 99.6731 33.8033 99.9828 33.241 100.325C32.7357 100.635 32.1653 100.928 31.5051 101.262L31.9697 102.077C32.5157 101.808 33.2573 101.409 33.7789 101.099C34.219 100.838 34.4716 100.659 34.5368 100.504H34.545C34.6183 100.651 34.8302 100.83 35.254 101.083C35.7755 101.393 36.5253 101.8 37.0632 102.061L37.5196 101.262C36.8594 100.928 36.289 100.635 35.7837 100.325C35.2214 99.9828 35.0339 99.6731 35.0339 99.1515V98.9478H37.1284V98.0757H31.8963V98.9478ZM31.0406 103.218V104.09H37.9841V103.218H35.0258V101.727H33.9989V103.218H31.0406ZM45.5319 97.4645H44.4969V105.044H45.5319V101.034H46.5751V100.138H45.5319V97.4645ZM42.8751 101.279C42.3862 100.749 42.2965 100.39 42.2965 99.7464V98.0024H41.2452V99.7464C41.2452 100.415 41.0904 100.814 40.6177 101.336C40.2673 101.719 39.8516 102.126 39.3952 102.534L40.0717 103.234C40.5362 102.803 40.854 102.493 41.1556 102.175C41.4245 101.898 41.7179 101.564 41.7668 101.417H41.7831C41.8401 101.556 42.0765 101.825 42.3862 102.142C42.6877 102.452 43.0463 102.811 43.413 103.153L44.0731 102.46C43.6493 102.077 43.2256 101.662 42.8751 101.279ZM47.3913 97.8639V101.067H52.444V97.8639H47.3913ZM48.4181 98.7277H51.4172V100.203H48.4181V98.7277ZM46.4459 101.8V102.672H49.4042V105.044H50.4392V102.672H53.3894V101.8H46.4459ZM54.279 103.291H58.3538V105.133H59.3806V102.428H57.3351V101.279H60.3178V100.415H59.1443C59.2339 99.9176 59.2991 99.2819 59.2991 98.9152V97.7416H54.279V98.6136H58.2723V98.9722C58.2723 99.3552 58.2315 99.9094 58.1174 100.415H53.3744V101.279H56.3082V102.428H54.279V103.291ZM60.6125 98.7929H62.0876V99.2085C62.0876 99.6079 61.9246 99.9094 61.6393 100.162C61.2971 100.464 60.8081 100.838 60.2947 101.189L60.8977 101.939C61.3052 101.653 61.6638 101.376 62.0142 101.099C62.3891 100.806 62.6173 100.586 62.6499 100.488H62.6581C62.6906 100.57 62.9107 100.757 63.253 101.01C63.5545 101.23 63.8968 101.466 64.2554 101.702L64.8014 100.977C64.3939 100.716 63.9864 100.439 63.6442 100.178C63.2122 99.8442 63.1144 99.6079 63.1144 99.2085V98.7929H64.5243V97.9209H60.6125V98.7929ZM64.0109 105.272C65.4126 105.272 66.3417 104.669 66.3417 103.805V103.463C66.3417 102.599 65.4126 101.996 64.0109 101.996C62.6092 101.996 61.6801 102.599 61.6801 103.463V103.805C61.6801 104.669 62.6092 105.272 64.0109 105.272ZM66.3172 97.4645H65.2904V101.963H66.3172V100.089H67.3115V99.1922H66.3172V97.4645ZM64.0109 102.835C64.8421 102.835 65.3311 103.218 65.3311 103.528V103.74C65.3311 104.049 64.8421 104.432 64.0109 104.432C63.1796 104.432 62.6906 104.049 62.6906 103.74V103.528C62.6906 103.218 63.1796 102.835 64.0109 102.835Z" fill="#222222"/>
<g filter="url(#filter1_d_1_19798)">
<path d="M176.833 95.1525C176.833 117.549 158.69 135.705 136.311 135.705C113.931 135.705 95.7889 117.549 95.7889 95.1525C95.7889 72.7555 113.931 54.5994 136.311 54.5994C158.69 54.5994 176.833 72.7555 176.833 95.1525Z" fill="white" stroke="#DDDDDD" stroke-width="0.452756"/>
</g>
<path d="M122.806 84.7433H122.259V91.7782H122.806V87.8528H123.984V87.3679H122.806V84.7433ZM118.588 88.3762C118.226 88.7841 117.803 89.1921 117.295 89.6385L117.657 90.0156C118.111 89.6154 118.619 89.0997 118.888 88.8072C119.119 88.5532 119.412 88.1915 119.435 88.0914H119.442C119.481 88.1915 119.704 88.4455 119.935 88.6918C120.243 89.0227 120.674 89.4461 121.159 89.9079L121.513 89.5384C120.936 89.015 120.481 88.5532 120.174 88.1992C119.758 87.722 119.712 87.468 119.712 86.8753V85.259H119.15V86.9138C119.15 87.5219 119.073 87.822 118.588 88.3762ZM123.9 88.3454V88.8072H130.365V88.3454H128.603V87.291C129.049 87.0908 129.342 86.7676 129.342 86.3442V86.0825C129.342 85.2821 128.31 84.8664 127.133 84.8664C125.955 84.8664 124.924 85.2821 124.924 86.0825V86.3442C124.924 86.7753 125.216 87.0908 125.67 87.291V88.3454H123.9ZM127.133 91.9629C128.395 91.9629 129.342 91.4626 129.342 90.7391V90.4774C129.342 89.7539 128.395 89.2536 127.133 89.2536C125.87 89.2536 124.924 89.7539 124.924 90.4774V90.7391C124.924 91.4626 125.87 91.9629 127.133 91.9629ZM127.133 89.7155C128.018 89.7155 128.818 90.0464 128.818 90.5236V90.693C128.818 91.1702 128.018 91.5011 127.133 91.5011C126.248 91.5011 125.447 91.1702 125.447 90.693V90.5236C125.447 90.0464 126.248 89.7155 127.133 89.7155ZM127.133 85.3283C127.979 85.3283 128.818 85.6284 128.818 86.121V86.3058C128.818 86.7984 127.979 87.0985 127.133 87.0985C126.286 87.0985 125.447 86.7984 125.447 86.3058V86.121C125.447 85.6284 126.286 85.3283 127.133 85.3283ZM127.133 87.5603C127.464 87.5603 127.779 87.5296 128.072 87.468V88.3454H126.201V87.468C126.486 87.5296 126.802 87.5603 127.133 87.5603ZM134.407 85.3975H130.651V85.8747H132.268V87.0139C132.268 87.5988 132.198 87.8913 131.714 88.4378C131.36 88.838 130.921 89.2613 130.436 89.6924L130.798 90.0541C131.259 89.6539 131.775 89.1074 131.983 88.8919C132.206 88.6533 132.506 88.3069 132.545 88.1684H132.553C132.591 88.2685 132.807 88.5071 133.03 88.7457C133.338 89.0766 133.707 89.4538 134.238 89.9464L134.592 89.5846C134.023 89.0766 133.569 88.6225 133.268 88.2761C132.86 87.8066 132.814 87.5603 132.814 86.9754V85.8747H134.407V85.3975ZM135.901 84.7433H135.354V91.7782H135.901V87.9144H137.071V87.4295H135.901V84.7433ZM140.212 86.7676H140.22C140.328 86.9061 140.474 87.037 141.059 87.2602C141.421 87.3987 141.952 87.5757 142.721 87.7989L142.906 87.3679C142.159 87.1601 141.582 86.9754 141.228 86.8368C140.582 86.5828 140.489 86.3981 140.489 86.0133V85.8516H142.629V85.3898H140.489V84.6509H139.943V85.3898H137.811V85.8516H139.943V86.0133C139.943 86.3981 139.827 86.5905 139.181 86.8445C138.819 86.9831 138.219 87.1755 137.518 87.3756L137.711 87.8143C138.473 87.5834 139.004 87.4141 139.373 87.2679C139.935 87.0523 140.127 86.9061 140.212 86.7676ZM137.811 90.0618H141.982V91.8398H142.521V89.5923H137.811V90.0618ZM136.987 88.2761V88.7457H143.452V88.2761H136.987ZM147.356 87.8836C148.349 87.8836 149.149 87.3371 149.149 86.5521V86.2288C149.149 85.4437 148.349 84.8972 147.356 84.8972C146.363 84.8972 145.563 85.4437 145.563 86.2288V86.5521C145.563 87.3371 146.363 87.8836 147.356 87.8836ZM147.356 85.3821C148.041 85.3821 148.626 85.7439 148.626 86.2673V86.5136C148.626 87.037 148.041 87.3987 147.356 87.3987C146.671 87.3987 146.086 87.037 146.086 86.5136V86.2673C146.086 85.7439 146.671 85.3821 147.356 85.3821ZM150.881 84.7433H150.335V91.7782H150.881V84.7433ZM149.796 88.4532C148.765 88.5686 147.364 88.6225 145.139 88.6225V89.0997C145.909 89.0997 146.54 89.092 147.094 89.0843V91.555H147.648V89.0612C148.495 89.0304 149.142 88.992 149.842 88.9227L149.796 88.4532ZM153.853 87.468C154.792 87.468 155.547 86.9754 155.547 86.3211V86.0287C155.547 85.3744 154.792 84.8818 153.853 84.8818C152.914 84.8818 152.16 85.3744 152.16 86.0287V86.3211C152.16 86.9754 152.914 87.468 153.853 87.468ZM155.239 88.9843V89.4615H156.824V90.2081H157.363V84.7433H156.824V88.9843H155.239ZM153.853 85.3436C154.5 85.3436 155.031 85.6746 155.031 86.0748V86.275C155.031 86.6752 154.5 87.0062 153.853 87.0062C153.207 87.0062 152.676 86.6752 152.676 86.275V86.0748C152.676 85.6746 153.207 85.3436 153.853 85.3436ZM153.415 89.8309H152.868V91.6936H157.525V91.2163H153.415V89.8309ZM156.239 87.7989C154.916 87.9375 153.884 87.9683 151.667 87.9683V88.4378C152.376 88.4378 152.968 88.4378 153.484 88.4224V89.5307H154.03V88.4147C154.939 88.3839 155.593 88.3377 156.286 88.2685L156.239 87.7989Z" fill="#222222"/>
<path d="M118.162 102.42H117.127V104.963H122.074V104.083H118.162V102.42ZM121.951 97.4655H120.925V102.861H121.951V97.4655ZM117.844 101.703C119.058 101.703 119.8 100.872 119.8 99.9511V99.4948C119.8 98.5738 119.058 97.7426 117.844 97.7426C116.63 97.7426 115.888 98.5738 115.888 99.4948V99.9511C115.888 100.872 116.63 101.703 117.844 101.703ZM117.844 98.6309C118.455 98.6309 118.83 99.0791 118.83 99.5681V99.8778C118.83 100.367 118.455 100.815 117.844 100.815C117.233 100.815 116.858 100.367 116.858 99.8778V99.5681C116.858 99.0791 117.233 98.6309 117.844 98.6309ZM128.595 97.4655H127.56V105.045H128.595V101.035H129.638V100.139H128.595V97.4655ZM125.938 101.28C125.449 100.75 125.359 100.391 125.359 99.7474V98.0034H124.308V99.7474C124.308 100.416 124.153 100.815 123.68 101.337C123.33 101.72 122.914 102.127 122.458 102.535L123.134 103.235C123.599 102.803 123.917 102.494 124.218 102.176C124.487 101.899 124.781 101.565 124.83 101.418H124.846C124.903 101.557 125.139 101.826 125.449 102.143C125.75 102.453 126.109 102.812 126.476 103.154L127.136 102.461C126.712 102.078 126.288 101.663 125.938 101.28ZM132.98 105.281C134.301 105.281 135.425 104.841 135.425 103.944V103.7C135.425 102.803 134.301 102.363 132.98 102.363C131.66 102.363 130.536 102.803 130.536 103.7V103.944C130.536 104.841 131.66 105.281 132.98 105.281ZM130.381 98.8998H132.467V98.9324C132.467 99.1606 132.304 99.3644 131.929 99.4948C131.318 99.7066 130.69 99.8941 130.095 100.065L130.373 100.848C130.927 100.685 131.611 100.473 132.157 100.293C132.646 100.13 132.932 100 132.989 99.8859H132.997C133.054 100 133.323 100.114 133.812 100.277C134.358 100.456 135.034 100.668 135.588 100.831L135.857 100.065C135.262 99.8941 134.619 99.6985 134.007 99.4866C133.632 99.3562 133.494 99.1606 133.494 98.9324V98.8998H135.58V98.0686H133.494V97.2944H132.467V98.0686H130.381V98.8998ZM129.509 101.206V102.037H136.452V101.206H133.494V100.53H132.467V101.206H129.509ZM132.98 103.187C133.706 103.187 134.407 103.415 134.407 103.765V103.879C134.407 104.23 133.706 104.458 132.98 104.458C132.255 104.458 131.554 104.23 131.554 103.879V103.765C131.554 103.415 132.255 103.187 132.98 103.187ZM137.383 97.8648V101.068H142.435V97.8648H137.383ZM138.409 98.7287H141.408V100.204H138.409V98.7287ZM136.437 101.801V102.673H139.395V105.045H140.43V102.673H143.381V101.801H136.437ZM144.849 105.053H149.665V102.135H144.849V105.053ZM143.798 97.8078V101.548C145.876 101.548 147.123 101.532 148.141 101.426L148.052 100.587C146.976 100.685 145.949 100.701 144.808 100.701V100.098H147.334V99.2503H144.808V98.6553H147.481V97.8078H143.798ZM149.665 97.4655H148.638V101.793H149.665V97.4655ZM145.868 102.983H148.647V104.205H145.868V102.983ZM150.604 98.7939H152.079V99.2095C152.079 99.6088 151.916 99.9104 151.631 100.163C151.288 100.465 150.799 100.839 150.286 101.19L150.889 101.94C151.296 101.654 151.655 101.377 152.005 101.1C152.38 100.807 152.609 100.587 152.641 100.489H152.649C152.682 100.571 152.902 100.758 153.244 101.011C153.546 101.231 153.888 101.467 154.247 101.703L154.793 100.978C154.385 100.717 153.978 100.44 153.635 100.179C153.203 99.8452 153.106 99.6088 153.106 99.2095V98.7939H154.516V97.9219H150.604V98.7939ZM154.002 105.273C155.404 105.273 156.333 104.67 156.333 103.806V103.464C156.333 102.6 155.404 101.997 154.002 101.997C152.6 101.997 151.671 102.6 151.671 103.464V103.806C151.671 104.67 152.6 105.273 154.002 105.273ZM156.308 97.4655H155.282V101.964H156.308V100.09H157.303V99.1932H156.308V97.4655ZM154.002 102.836C154.833 102.836 155.322 103.219 155.322 103.529V103.741C155.322 104.05 154.833 104.433 154.002 104.433C153.171 104.433 152.682 104.05 152.682 103.741V103.529C152.682 103.219 153.171 102.836 154.002 102.836Z" fill="#222222"/>
<path d="M91.0312 20.3916L91.0313 48.9372" stroke="#CCCCCC" stroke-width="0.905512" stroke-dasharray="1.81 1.81"/>
<path d="M45.75 54.3738V49.8428H136.302V54.3738" fill="white"/>
<path d="M45.75 54.3738V49.8428H136.302V54.3738" stroke="#CCCCCC" stroke-width="0.905512" stroke-dasharray="1.81 1.81"/>
<rect x="29.4531" width="123.151" height="33.5297" rx="16.7649" fill="#5082E6"/>
<path d="M69.0698 18.6277V15.5942H68.1734V18.6277H65.4025V19.3883H73.0632V18.6277H69.0698ZM66.3443 12.9048V13.6836H71.0439V14.3174C71.0439 15.4403 70.9533 16.4092 70.736 17.5501L71.6324 17.6588C71.8407 16.5269 71.9403 15.6214 71.9403 14.0005V12.9048H66.3443ZM76.4784 16.8619V17.5863C75.1472 17.695 74.3232 18.2745 74.3232 19.0352V19.2797C74.3232 20.1218 75.3374 20.7466 76.9311 20.7466C78.5339 20.7466 79.539 20.1127 79.539 19.2797V19.0352C79.539 18.2836 78.715 17.695 77.3839 17.5863V16.8619H80.7614V16.1013H73.1008V16.8619H76.4784ZM76.9311 14.5982C77.0669 14.8336 77.4654 15.0056 77.8457 15.1505C78.5158 15.4041 79.1496 15.6123 79.8287 15.8025L80.1004 15.0781C79.3579 14.8698 78.7874 14.6887 78.3799 14.5257C77.7189 14.2631 77.3839 14.0367 77.3748 13.6021H79.7925V12.8596H77.3748V12.0446H76.4784V12.8596H74.0697V13.6021H76.4784C76.4693 14.0367 76.1433 14.2812 75.4823 14.5257C74.8756 14.7521 74.3866 14.906 73.7618 15.0781L74.0335 15.8025C74.7035 15.6123 75.3465 15.4041 76.0256 15.1505C76.4059 15.0056 76.7862 14.8336 76.9221 14.5982H76.9311ZM75.2106 19.0895C75.2106 18.6277 75.9169 18.3017 76.9311 18.3017C77.9453 18.3017 78.6516 18.6277 78.6516 19.0895V19.2253C78.6516 19.6871 77.9453 20.0131 76.9311 20.0131C75.9169 20.0131 75.2106 19.6871 75.2106 19.2253V19.0895ZM83.4069 16.5088C83.4794 16.6899 83.7058 16.9434 83.9593 17.2151C84.3034 17.5863 84.6837 17.9667 85.2995 18.5281L85.888 17.9214C85.3538 17.4505 84.9735 17.0974 84.5841 16.6718C83.9412 15.9745 83.8416 15.7029 83.8416 14.9875V14.1454H85.6254V13.3667H83.8416V12.1895H82.9361V13.3667H81.0707V14.1454H82.9361V14.9875C82.9361 15.6576 82.8365 16.0017 82.2388 16.6627C81.8313 17.1155 81.3876 17.5592 80.8443 18.0482L81.4329 18.6548C82.0396 18.0934 82.4924 17.6316 82.8636 17.2241C83.1534 16.9072 83.3164 16.708 83.3979 16.5088H83.4069ZM87.7806 20.5021V12.1533H86.8841V15.1234H85.2632V15.9111H86.8841V20.5021H87.7806ZM95.4064 20.5021V12.1533H94.5099V20.5021H95.4064ZM92.8347 15.9383V12.8143H89.0769V13.584H91.9473V15.1867H89.104V18.4828H90.6253C92.1284 18.4828 92.9524 18.4104 93.7946 18.2836L93.7131 17.532C92.7713 17.6678 92.0469 17.7131 90.8426 17.7131H89.9914V15.9383H92.8347ZM99.0027 15.9383C100.334 15.9383 101.176 15.1686 101.176 14.3084V13.9462C101.176 13.0859 100.352 12.3163 99.0027 12.3163C97.6535 12.3163 96.8295 13.0859 96.8295 13.9462V14.3084C96.8295 15.1686 97.6716 15.9383 99.0027 15.9383ZM103.213 20.5021V12.1533H102.326V20.5021H103.213ZM99.5007 20.2485V17.369C100.361 17.3328 101.122 17.2785 101.873 17.197L101.801 16.4454C100.298 16.5903 98.7672 16.6446 96.3767 16.6356V17.4143C97.1917 17.4143 97.9251 17.4143 98.5861 17.3962V20.2485H99.5007ZM99.0027 15.1596C98.233 15.1596 97.6897 14.7702 97.6897 14.245V14.0096C97.6897 13.4572 98.233 13.095 99.0027 13.095C99.7724 13.095 100.316 13.4572 100.316 14.0096V14.245C100.316 14.7702 99.7724 15.1596 99.0027 15.1596ZM106.647 15.4403C107.923 15.4403 108.702 14.7611 108.702 14.0186V13.7289C108.702 12.9863 107.923 12.3072 106.647 12.3072C105.37 12.3072 104.591 12.9863 104.591 13.7289V14.0186C104.591 14.7611 105.37 15.4403 106.647 15.4403ZM110.866 18.6186V12.1533H109.979V17.1245H108.213V17.8761H109.979V18.6186H110.866ZM106.293 18.184H105.397V20.4206H111.038V19.6509H106.293V18.184ZM107 17.8489V16.6265C107.878 16.5903 108.666 16.5359 109.436 16.4545L109.372 15.7029C107.389 15.8659 106.049 15.9111 104.048 15.9021V16.6808C104.79 16.6808 105.479 16.6718 106.112 16.6537V17.8489H107ZM106.647 14.6887C105.877 14.6887 105.442 14.3174 105.442 13.9643V13.7832C105.442 13.43 105.877 13.0678 106.647 13.0678C107.416 13.0678 107.851 13.43 107.851 13.7832V13.9643C107.851 14.3174 107.416 14.6887 106.647 14.6887ZM117.27 18.021C116.527 18.0934 115.839 18.1478 114.979 18.1749V17.36C115.948 17.206 116.509 16.6084 116.509 15.9745V15.6304C116.509 14.897 115.757 14.2088 114.481 14.2088C113.204 14.2088 112.452 14.897 112.452 15.6304V15.9745C112.452 16.6356 113.05 17.2513 114.091 17.3781V18.2021C113.448 18.2202 112.706 18.2202 111.8 18.2202V18.9808C114.662 18.9808 115.83 18.9265 117.342 18.7816L117.27 18.021ZM118.646 20.5021V12.1533H117.759V20.5021H118.646ZM116.853 13.095H114.915V12.0899H114.028V13.095H112.027V13.8647H116.853V13.095ZM114.481 16.6627C113.729 16.6627 113.322 16.2824 113.322 15.9021V15.7029C113.322 15.3226 113.72 14.9422 114.481 14.9422C115.232 14.9422 115.64 15.3226 115.64 15.7029V15.9021C115.64 16.2824 115.241 16.6627 114.481 16.6627Z" fill="white"/>
<path d="M88.6481 145.151H88.1093V151.694H88.6481V147.861H89.7487V152.04H90.2875V145.005H89.7487V147.376H88.6481V145.151ZM84.6611 150.062H85.4385C86.0927 150.062 86.9086 150.039 87.6167 149.9L87.5551 149.415C86.8701 149.538 86.2082 149.569 85.7002 149.569H85.2076V145.667H84.6611V150.062ZM95.7997 145.274V146.329H92.3053V145.274H91.7742V148.292H96.3307V145.274H95.7997ZM90.8198 149.231V149.7H93.7831V152.04H94.3296V149.7H97.2851V149.231H90.8198ZM92.3053 147.837V146.798H95.7997V147.837H92.3053Z" fill="#555555"/>
<path d="M279.964 145.151H279.425V151.694H279.964V147.861H281.065V152.04H281.603V145.005H281.065V147.376H279.964V145.151ZM275.977 150.062H276.754C277.409 150.062 278.224 150.039 278.933 149.9L278.871 149.415C278.186 149.538 277.524 149.569 277.016 149.569H276.523V145.667H275.977V150.062ZM284.976 149.046H285.753V148.276H284.976V149.046ZM293.521 149.885C292.859 149.962 292.189 150 291.35 150.031V148.73C292.227 148.623 292.905 147.999 292.905 147.268V146.898C292.905 146.09 292.089 145.421 291.073 145.421C290.057 145.421 289.241 146.09 289.241 146.898V147.268C289.241 148.007 289.918 148.623 290.804 148.73V150.039C290.242 150.054 289.603 150.054 288.856 150.054V150.531C291.211 150.531 292.297 150.485 293.567 150.354L293.521 149.885ZM291.073 145.906C291.758 145.906 292.381 146.375 292.381 146.929V147.237C292.381 147.791 291.758 148.261 291.073 148.261C290.388 148.261 289.764 147.791 289.764 147.237V146.929C289.764 146.375 290.388 145.906 291.073 145.906ZM294.606 145.005H294.059V152.04H294.606V145.005ZM300.203 145.274V146.329H296.708V145.274H296.177V148.292H300.734V145.274H300.203ZM295.223 149.231V149.7H298.186V152.04H298.733V149.7H301.688V149.231H295.223ZM296.708 147.837V146.798H300.203V147.837H296.708Z" fill="#555555"/>
<g filter="url(#filter2_d_1_19798)">
<path d="M328.958 95.1515C328.958 117.548 310.815 135.705 288.436 135.705C266.056 135.705 247.914 117.548 247.914 95.1515C247.914 72.7545 266.056 54.5984 288.436 54.5984C310.815 54.5984 328.958 72.7545 328.958 95.1515Z" fill="white" stroke="#DDDDDD" stroke-width="0.452756"/>
</g>
<path d="M279.7 100.059H284.403V97.0684H279.7V100.059ZM280.719 97.9241H283.384V99.2036H280.719V97.9241ZM284.403 92.4801H283.376V96.7261H284.403V95.0147H285.397V94.1182H284.403V92.4801ZM278.828 96.9461C281.469 95.9519 282.105 95.4548 282.105 94.1508V92.9039H278.78V93.7759H281.078V94.053C281.078 94.9169 280.793 95.2266 278.454 96.123L278.828 96.9461ZM291.331 92.4801H290.296V100.059H291.331V96.0497H292.374V95.1532H291.331V92.4801ZM288.674 96.2942C288.186 95.7644 288.096 95.4059 288.096 94.762V93.018H287.045V94.762C287.045 95.4303 286.89 95.8296 286.417 96.3512C286.067 96.7342 285.651 97.1417 285.195 97.5492L285.871 98.2501C286.336 97.8181 286.653 97.5085 286.955 97.1906C287.224 96.9135 287.517 96.5794 287.566 96.4327H287.582C287.639 96.5713 287.876 96.8402 288.186 97.158C288.487 97.4677 288.846 97.8263 289.212 98.1686L289.872 97.4759C289.449 97.0928 289.025 96.6772 288.674 96.2942ZM293.729 100.067H298.545V97.1499H293.729V100.067ZM292.677 92.8224V96.5631C294.755 96.5631 296.002 96.5468 297.021 96.4409L296.931 95.6014C295.856 95.6992 294.829 95.7155 293.688 95.7155V95.1125H296.214V94.2649H293.688V93.67H296.361V92.8224H292.677ZM298.545 92.4801H297.518V96.8076H298.545V92.4801ZM294.747 97.9974H297.526V99.2199H294.747V97.9974Z" fill="#222222"/>
<path d="M288 21L288 54" stroke="#CCCCCC" stroke-width="0.905512" stroke-dasharray="1.81 1.81"/>
<rect x="226.852" width="123.151" height="33.5297" rx="16.7649" fill="#33B9A5"/>
<path d="M274.082 15.1686H272.796V12.1533H271.9V20.5021H272.796V15.9474H274.082V15.1686ZM268.748 16.3096C268.821 16.4907 269.038 16.7442 269.292 17.0159C269.636 17.3871 270.043 17.7946 270.668 18.3741L271.248 17.7584C270.704 17.2785 270.306 16.8982 269.916 16.4726C269.364 15.8568 269.192 15.4856 269.192 14.7702V12.76H268.287V14.7702C268.287 15.4131 268.142 15.8206 267.589 16.4454C267.182 16.8982 266.711 17.36 266.159 17.8489L266.747 18.4556C267.363 17.8942 267.843 17.4143 268.214 17.0068C268.504 16.6899 268.658 16.5088 268.739 16.3096H268.748ZM280.884 20.5021V12.1533H279.987V20.5021H280.884ZM276.492 12.7147C275.269 12.7147 274.382 13.5387 274.382 15.1415V16.0832C274.382 17.6769 275.269 18.5009 276.492 18.5009C277.714 18.5009 278.602 17.6769 278.602 16.0832V15.1415C278.602 13.5478 277.714 12.7147 276.492 12.7147ZM276.492 17.695C275.84 17.695 275.242 17.2332 275.242 15.9564V15.2682C275.242 13.9915 275.84 13.5296 276.492 13.5296C277.135 13.5296 277.742 13.9915 277.742 15.2682V15.9564C277.742 17.2332 277.144 17.695 276.492 17.695ZM288.645 20.5021V12.1533H287.749V15.069H286.101V12.8415H285.222V14.7974H283.013V12.8415H282.135V18.3017H286.101V15.8478H287.749V20.5021H288.645ZM283.013 15.5671H285.222V17.532H283.013V15.5671ZM291.934 17.6045H291.037V20.4115H296.452V19.6328H291.934V17.6045ZM296.253 18.0934V12.1533H295.366V18.0934H296.253ZM291.979 15.2501C292.033 15.3859 292.223 15.5761 292.495 15.8025C292.93 16.1647 293.373 16.5359 293.835 16.8891L294.36 16.2643C293.826 15.8749 293.292 15.4493 292.866 15.06C292.432 14.6615 292.396 14.3627 292.396 13.8013V12.5426H291.49V13.8375C291.49 14.4714 291.363 14.8155 290.901 15.2773C290.584 15.5942 290.005 16.0832 289.425 16.5269L289.96 17.1608C290.44 16.7804 290.992 16.3186 291.363 15.9745C291.644 15.721 291.925 15.4041 291.97 15.2501H291.979ZM303.607 12.4793H298.174V15.5399H303.607V12.4793ZM301.452 18.7001V17.0883H304.721V16.3277H297.06V17.0883H300.547V18.7001H301.452ZM299.061 17.9485H298.165V20.4115H303.779V19.6328H299.061V17.9485ZM302.72 14.7883H299.061V13.2308H302.72V14.7883ZM308.426 18.6277V15.5942H307.529V18.6277H304.759V19.3883H312.419V18.6277H308.426ZM305.7 12.9048V13.6836H310.4V14.3174C310.4 15.4403 310.309 16.4092 310.092 17.5501L310.989 17.6588C311.197 16.5269 311.296 15.6214 311.296 14.0005V12.9048H305.7Z" fill="white"/>
<defs>
<filter id="filter0_d_1_19798" x="0.47244" y="49.8445" width="99.6068" height="99.6688" filterUnits="userSpaceOnUse" color-interpolation-filters="sRGB">
<feFlood flood-opacity="0" result="BackgroundImageFix"/>
<feColorMatrix in="SourceAlpha" type="matrix" values="0 0 0 0 0 0 0 0 0 0 0 0 0 0 0 0 0 0 127 0" result="hardAlpha"/>
<feOffset dx="4.52756" dy="4.52756"/>
<feGaussianBlur stdDeviation="4.52756"/>
<feColorMatrix type="matrix" values="0 0 0 0 0 0 0 0 0 0 0 0 0 0 0 0 0 0 0.059 0"/>
<feBlend mode="normal" in2="BackgroundImageFix" result="effect1_dropShadow_1_19798"/>
<feBlend mode="normal" in="SourceGraphic" in2="effect1_dropShadow_1_19798" result="shape"/>
</filter>
<filter id="filter1_d_1_19798" x="91.0349" y="49.8455" width="99.6068" height="99.6688" filterUnits="userSpaceOnUse" color-interpolation-filters="sRGB">
<feFlood flood-opacity="0" result="BackgroundImageFix"/>
<feColorMatrix in="SourceAlpha" type="matrix" values="0 0 0 0 0 0 0 0 0 0 0 0 0 0 0 0 0 0 127 0" result="hardAlpha"/>
<feOffset dx="4.52756" dy="4.52756"/>
<feGaussianBlur stdDeviation="4.52756"/>
<feColorMatrix type="matrix" values="0 0 0 0 0 0 0 0 0 0 0 0 0 0 0 0 0 0 0.059 0"/>
<feBlend mode="normal" in2="BackgroundImageFix" result="effect1_dropShadow_1_19798"/>
<feBlend mode="normal" in="SourceGraphic" in2="effect1_dropShadow_1_19798" result="shape"/>
</filter>
<filter id="filter2_d_1_19798" x="243.16" y="49.8445" width="99.6068" height="99.6688" filterUnits="userSpaceOnUse" color-interpolation-filters="sRGB">
<feFlood flood-opacity="0" result="BackgroundImageFix"/>
<feColorMatrix in="SourceAlpha" type="matrix" values="0 0 0 0 0 0 0 0 0 0 0 0 0 0 0 0 0 0 127 0" result="hardAlpha"/>
<feOffset dx="4.52756" dy="4.52756"/>
<feGaussianBlur stdDeviation="4.52756"/>
<feColorMatrix type="matrix" values="0 0 0 0 0 0 0 0 0 0 0 0 0 0 0 0 0 0 0.059 0"/>
<feBlend mode="normal" in2="BackgroundImageFix" result="effect1_dropShadow_1_19798"/>
<feBlend mode="normal" in="SourceGraphic" in2="effect1_dropShadow_1_19798" result="shape"/>
</filter>
</defs>
</svg>
