<svg width="772" height="337" viewBox="0 0 772 337" fill="none" xmlns="http://www.w3.org/2000/svg">
<g filter="url(#filter0_d_1_6468)">
<path d="M189.5 210C189.5 259.429 149.429 299.5 100 299.5C50.5705 299.5 10.5 259.429 10.5 210C10.5 160.571 50.5705 120.5 100 120.5C149.429 120.5 189.5 160.571 189.5 210Z" fill="white" stroke="#DDDDDD"/>
</g>
<path d="M58.5758 188.624V189.678H67.5858V190.97C67.5858 192.126 67.4498 193.673 67.1268 195.05H56.7058V196.087H70.9858V195.05H68.3848C68.6568 193.741 68.7928 192.211 68.7928 191.038V188.624H58.5758ZM60.0378 198.059H58.8308V203.125H69.2008V202.071H60.0378V198.059ZM73.2154 188.998V190.035H82.1064V192.585H73.2664V197.158H77.7034V200.082H71.1584V201.119H85.4384V200.082H78.8934V197.158H83.6364V196.121H74.4394V193.605H83.2794V188.998H73.2154ZM94.3661 189.219H86.0701V190.273H89.6401V192.789C89.6401 194.081 89.4871 194.727 88.4161 195.934C87.6341 196.818 86.6651 197.753 85.5941 198.705L86.3931 199.504C87.4131 198.62 88.5521 197.413 89.0111 196.937C89.5041 196.41 90.1671 195.645 90.2521 195.339H90.2691C90.3541 195.56 90.8301 196.087 91.3231 196.614C92.0031 197.345 92.8191 198.178 93.9921 199.266L94.7741 198.467C93.5161 197.345 92.5131 196.342 91.8501 195.577C90.9491 194.54 90.8471 193.996 90.8471 192.704V190.273H94.3661V189.219ZM97.6641 187.774H96.4571V203.312H97.6641V194.778H100.248V193.707H97.6641V187.774ZM107.187 192.245H107.204C107.442 192.551 107.765 192.84 109.057 193.333C109.856 193.639 111.029 194.03 112.729 194.523L113.137 193.571C111.488 193.112 110.213 192.704 109.431 192.398C108.003 191.837 107.799 191.429 107.799 190.579V190.222H112.525V189.202H107.799V187.57H106.592V189.202H101.883V190.222H106.592V190.579C106.592 191.429 106.337 191.854 104.909 192.415C104.11 192.721 102.784 193.146 101.237 193.588L101.662 194.557C103.345 194.047 104.518 193.673 105.334 193.35C106.575 192.874 107 192.551 107.187 192.245ZM101.883 199.521H111.097V203.448H112.287V198.484H101.883V199.521ZM100.064 195.577V196.614H114.344V195.577H100.064ZM122.965 194.71C125.158 194.71 126.926 193.503 126.926 191.769V191.055C126.926 189.321 125.158 188.114 122.965 188.114C120.772 188.114 119.004 189.321 119.004 191.055V191.769C119.004 193.503 120.772 194.71 122.965 194.71ZM122.965 189.185C124.478 189.185 125.77 189.984 125.77 191.14V191.684C125.77 192.84 124.478 193.639 122.965 193.639C121.452 193.639 120.16 192.84 120.16 191.684V191.14C120.16 189.984 121.452 189.185 122.965 189.185ZM130.751 187.774H129.544V203.312H130.751V187.774ZM128.354 195.968C126.076 196.223 122.982 196.342 118.069 196.342V197.396C119.769 197.396 121.163 197.379 122.387 197.362V202.819H123.611V197.311C125.481 197.243 126.909 197.158 128.456 197.005L128.354 195.968ZM137.316 193.792C139.39 193.792 141.056 192.704 141.056 191.259V190.613C141.056 189.168 139.39 188.08 137.316 188.08C135.242 188.08 133.576 189.168 133.576 190.613V191.259C133.576 192.704 135.242 193.792 137.316 193.792ZM140.376 197.141V198.195H143.878V199.844H145.068V187.774H143.878V197.141H140.376ZM137.316 189.1C138.744 189.1 139.917 189.831 139.917 190.715V191.157C139.917 192.041 138.744 192.772 137.316 192.772C135.888 192.772 134.715 192.041 134.715 191.157V190.715C134.715 189.831 135.888 189.1 137.316 189.1ZM136.347 199.011H135.14V203.125H145.425V202.071H136.347V199.011ZM142.586 194.523C139.662 194.829 137.384 194.897 132.488 194.897V195.934C134.052 195.934 135.361 195.934 136.5 195.9V198.348H137.707V195.883C139.713 195.815 141.158 195.713 142.688 195.56L142.586 194.523Z" fill="#222222"/>
<path d="M65.5431 225.086V223.16H56.3451V217.112H54.0591V225.086H58.6671V228.56H52.1331V230.486H67.4691V228.56H60.9351V225.086H65.5431ZM69.3259 219.128H73.9519V219.578C73.9519 220.73 73.5379 221.414 72.2959 222.17C71.1799 222.854 69.9199 223.502 68.4619 224.24L69.4879 226.04C70.6939 225.446 72.3319 224.564 73.4839 223.88C74.4559 223.304 75.0139 222.908 75.1579 222.566H75.1759C75.3379 222.89 75.8059 223.286 76.7419 223.844C77.8939 224.528 79.5499 225.428 80.7379 226.004L81.7459 224.24C80.2879 223.502 79.0279 222.854 77.9119 222.17C76.6699 221.414 76.2559 220.73 76.2559 219.578V219.128H80.8819V217.202H69.3259V219.128ZM67.4359 228.56V230.486H82.7719V228.56H76.2379V225.266H73.9699V228.56H67.4359ZM99.4427 215.852H97.1567V232.592H99.4427V223.736H101.747V221.756H99.4427V215.852ZM93.5747 224.276C92.4947 223.106 92.2967 222.314 92.2967 220.892V217.04H89.9747V220.892C89.9747 222.368 89.6327 223.25 88.5887 224.402C87.8147 225.248 86.8967 226.148 85.8887 227.048L87.3827 228.596C88.4087 227.642 89.1107 226.958 89.7767 226.256C90.3707 225.644 91.0187 224.906 91.1267 224.582H91.1627C91.2887 224.888 91.8107 225.482 92.4947 226.184C93.1607 226.868 93.9527 227.66 94.7627 228.416L96.2207 226.886C95.2847 226.04 94.3487 225.122 93.5747 224.276ZM103.55 216.734V223.808H114.71V216.734H103.55ZM105.818 218.642H112.442V221.9H105.818V218.642ZM101.462 225.428V227.354H107.996V232.592H110.282V227.354H116.798V225.428H101.462ZM118.762 228.722H127.762V232.79H130.03V226.814H125.512V224.276H132.1V222.368H129.508C129.706 221.27 129.85 219.866 129.85 219.056V216.464H118.762V218.39H127.582V219.182C127.582 220.028 127.492 221.252 127.24 222.368H116.764V224.276H123.244V226.814H118.762V228.722ZM132.751 218.786H136.009V219.704C136.009 220.586 135.649 221.252 135.019 221.81C134.263 222.476 133.183 223.304 132.049 224.078L133.381 225.734C134.281 225.104 135.073 224.492 135.847 223.88C136.675 223.232 137.179 222.746 137.251 222.53H137.269C137.341 222.71 137.827 223.124 138.583 223.682C139.249 224.168 140.005 224.69 140.797 225.212L142.003 223.61C141.103 223.034 140.203 222.422 139.447 221.846C138.493 221.108 138.277 220.586 138.277 219.704V218.786H141.391V216.86H132.751V218.786ZM140.257 233.096C143.353 233.096 145.405 231.764 145.405 229.856V229.1C145.405 227.192 143.353 225.86 140.257 225.86C137.161 225.86 135.109 227.192 135.109 229.1V229.856C135.109 231.764 137.161 233.096 140.257 233.096ZM145.351 215.852H143.083V225.788H145.351V221.648H147.547V219.668H145.351V215.852ZM140.257 227.714C142.093 227.714 143.173 228.56 143.173 229.244V229.712C143.173 230.396 142.093 231.242 140.257 231.242C138.421 231.242 137.341 230.396 137.341 229.712V229.244C137.341 228.56 138.421 227.714 140.257 227.714Z" fill="#222222"/>
<g filter="url(#filter1_d_1_6468)">
<path d="M389.5 210C389.5 259.429 349.429 299.5 300 299.5C250.571 299.5 210.5 259.429 210.5 210C210.5 160.571 250.571 120.5 300 120.5C349.429 120.5 389.5 160.571 389.5 210Z" fill="white" stroke="#DDDDDD"/>
</g>
<path d="M269.281 187.774H268.074V203.312H269.281V194.642H271.882V193.571H269.281V187.774ZM259.965 195.798C259.166 196.699 258.231 197.6 257.109 198.586L257.908 199.419C258.911 198.535 260.033 197.396 260.628 196.75C261.138 196.189 261.784 195.39 261.835 195.169H261.852C261.937 195.39 262.43 195.951 262.94 196.495C263.62 197.226 264.572 198.161 265.643 199.181L266.425 198.365C265.15 197.209 264.147 196.189 263.467 195.407C262.549 194.353 262.447 193.792 262.447 192.483V188.913H261.206V192.568C261.206 193.911 261.036 194.574 259.965 195.798ZM271.698 195.73V196.75H285.978V195.73H282.085V193.401C283.071 192.959 283.717 192.245 283.717 191.31V190.732C283.717 188.964 281.439 188.046 278.838 188.046C276.237 188.046 273.959 188.964 273.959 190.732V191.31C273.959 192.262 274.605 192.959 275.608 193.401V195.73H271.698ZM278.838 203.72C281.626 203.72 283.717 202.615 283.717 201.017V200.439C283.717 198.841 281.626 197.736 278.838 197.736C276.05 197.736 273.959 198.841 273.959 200.439V201.017C273.959 202.615 276.05 203.72 278.838 203.72ZM278.838 198.756C280.793 198.756 282.561 199.487 282.561 200.541V200.915C282.561 201.969 280.793 202.7 278.838 202.7C276.883 202.7 275.115 201.969 275.115 200.915V200.541C275.115 199.487 276.883 198.756 278.838 198.756ZM278.838 189.066C280.708 189.066 282.561 189.729 282.561 190.817V191.225C282.561 192.313 280.708 192.976 278.838 192.976C276.968 192.976 275.115 192.313 275.115 191.225V190.817C275.115 189.729 276.968 189.066 278.838 189.066ZM278.838 193.996C279.569 193.996 280.266 193.928 280.912 193.792V195.73H276.781V193.792C277.41 193.928 278.107 193.996 278.838 193.996ZM294.905 189.219H286.609V190.273H290.179V192.789C290.179 194.081 290.026 194.727 288.955 195.934C288.173 196.818 287.204 197.753 286.133 198.705L286.932 199.504C287.952 198.62 289.091 197.413 289.55 196.937C290.043 196.41 290.706 195.645 290.791 195.339H290.808C290.893 195.56 291.369 196.087 291.862 196.614C292.542 197.345 293.358 198.178 294.531 199.266L295.313 198.467C294.055 197.345 293.052 196.342 292.389 195.577C291.488 194.54 291.386 193.996 291.386 192.704V190.273H294.905V189.219ZM298.203 187.774H296.996V203.312H298.203V194.778H300.787V193.707H298.203V187.774ZM307.726 192.245H307.743C307.981 192.551 308.304 192.84 309.596 193.333C310.395 193.639 311.568 194.03 313.268 194.523L313.676 193.571C312.027 193.112 310.752 192.704 309.97 192.398C308.542 191.837 308.338 191.429 308.338 190.579V190.222H313.064V189.202H308.338V187.57H307.131V189.202H302.422V190.222H307.131V190.579C307.131 191.429 306.876 191.854 305.448 192.415C304.649 192.721 303.323 193.146 301.776 193.588L302.201 194.557C303.884 194.047 305.057 193.673 305.873 193.35C307.114 192.874 307.539 192.551 307.726 192.245ZM302.422 199.521H311.636V203.448H312.826V198.484H302.422V199.521ZM300.603 195.577V196.614H314.883V195.577H300.603ZM323.504 194.71C325.697 194.71 327.465 193.503 327.465 191.769V191.055C327.465 189.321 325.697 188.114 323.504 188.114C321.311 188.114 319.543 189.321 319.543 191.055V191.769C319.543 193.503 321.311 194.71 323.504 194.71ZM323.504 189.185C325.017 189.185 326.309 189.984 326.309 191.14V191.684C326.309 192.84 325.017 193.639 323.504 193.639C321.991 193.639 320.699 192.84 320.699 191.684V191.14C320.699 189.984 321.991 189.185 323.504 189.185ZM331.29 187.774H330.083V203.312H331.29V187.774ZM328.893 195.968C326.615 196.223 323.521 196.342 318.608 196.342V197.396C320.308 197.396 321.702 197.379 322.926 197.362V202.819H324.15V197.311C326.02 197.243 327.448 197.158 328.995 197.005L328.893 195.968ZM337.855 193.792C339.929 193.792 341.595 192.704 341.595 191.259V190.613C341.595 189.168 339.929 188.08 337.855 188.08C335.781 188.08 334.115 189.168 334.115 190.613V191.259C334.115 192.704 335.781 193.792 337.855 193.792ZM340.915 197.141V198.195H344.417V199.844H345.607V187.774H344.417V197.141H340.915ZM337.855 189.1C339.283 189.1 340.456 189.831 340.456 190.715V191.157C340.456 192.041 339.283 192.772 337.855 192.772C336.427 192.772 335.254 192.041 335.254 191.157V190.715C335.254 189.831 336.427 189.1 337.855 189.1ZM336.886 199.011H335.679V203.125H345.964V202.071H336.886V199.011ZM343.125 194.523C340.201 194.829 337.923 194.897 333.027 194.897V195.934C334.591 195.934 335.9 195.934 337.039 195.9V198.348H338.246V195.883C340.252 195.815 341.697 195.713 343.227 195.56L343.125 194.523Z" fill="#222222"/>
<path d="M259.387 226.796H257.101V232.412H268.027V230.468H259.387V226.796ZM267.757 215.852H265.489V227.768H267.757V215.852ZM258.685 225.212C261.367 225.212 263.005 223.376 263.005 221.342V220.334C263.005 218.3 261.367 216.464 258.685 216.464C256.003 216.464 254.365 218.3 254.365 220.334V221.342C254.365 223.376 256.003 225.212 258.685 225.212ZM258.685 218.426C260.035 218.426 260.863 219.416 260.863 220.496V221.18C260.863 222.26 260.035 223.25 258.685 223.25C257.335 223.25 256.507 222.26 256.507 221.18V220.496C256.507 219.416 257.335 218.426 258.685 218.426ZM282.43 215.852H280.144V232.592H282.43V223.736H284.734V221.756H282.43V215.852ZM276.562 224.276C275.482 223.106 275.284 222.314 275.284 220.892V217.04H272.962V220.892C272.962 222.368 272.62 223.25 271.576 224.402C270.802 225.248 269.884 226.148 268.876 227.048L270.37 228.596C271.396 227.642 272.098 226.958 272.764 226.256C273.358 225.644 274.006 224.906 274.114 224.582H274.15C274.276 224.888 274.798 225.482 275.482 226.184C276.148 226.868 276.94 227.66 277.75 228.416L279.208 226.886C278.272 226.04 277.336 225.122 276.562 224.276ZM292.117 233.114C295.033 233.114 297.517 232.142 297.517 230.162V229.622C297.517 227.642 295.033 226.67 292.117 226.67C289.201 226.67 286.717 227.642 286.717 229.622V230.162C286.717 232.142 289.201 233.114 292.117 233.114ZM286.375 219.02H290.983V219.092C290.983 219.596 290.623 220.046 289.795 220.334C288.445 220.802 287.059 221.216 285.745 221.594L286.357 223.322C287.581 222.962 289.093 222.494 290.299 222.098C291.379 221.738 292.009 221.45 292.135 221.198H292.153C292.279 221.45 292.873 221.702 293.953 222.062C295.159 222.458 296.653 222.926 297.877 223.286L298.471 221.594C297.157 221.216 295.735 220.784 294.385 220.316C293.557 220.028 293.251 219.596 293.251 219.092V219.02H297.859V217.184H293.251V215.474H290.983V217.184H286.375V219.02ZM284.449 224.114V225.95H299.785V224.114H293.251V222.62H290.983V224.114H284.449ZM292.117 228.488C293.719 228.488 295.267 228.992 295.267 229.766V230.018C295.267 230.792 293.719 231.296 292.117 231.296C290.515 231.296 288.967 230.792 288.967 230.018V229.766C288.967 228.992 290.515 228.488 292.117 228.488ZM301.84 216.734V223.808H313V216.734H301.84ZM304.108 218.642H310.732V221.9H304.108V218.642ZM299.752 225.428V227.354H306.286V232.592H308.572V227.354H315.088V225.428H299.752ZM318.33 232.61H328.968V226.166H318.33V232.61ZM316.008 216.608V224.87C320.598 224.87 323.352 224.834 325.602 224.6L325.404 222.746C323.028 222.962 320.76 222.998 318.24 222.998V221.666H323.82V219.794H318.24V218.48H324.144V216.608H316.008ZM328.968 215.852H326.7V225.41H328.968V215.852ZM320.58 228.038H326.718V230.738H320.58V228.038ZM331.041 218.786H334.299V219.704C334.299 220.586 333.939 221.252 333.309 221.81C332.553 222.476 331.473 223.304 330.339 224.078L331.671 225.734C332.571 225.104 333.363 224.492 334.137 223.88C334.965 223.232 335.469 222.746 335.541 222.53H335.559C335.631 222.71 336.117 223.124 336.873 223.682C337.539 224.168 338.295 224.69 339.087 225.212L340.293 223.61C339.393 223.034 338.493 222.422 337.737 221.846C336.783 221.108 336.567 220.586 336.567 219.704V218.786H339.681V216.86H331.041V218.786ZM338.547 233.096C341.643 233.096 343.695 231.764 343.695 229.856V229.1C343.695 227.192 341.643 225.86 338.547 225.86C335.451 225.86 333.399 227.192 333.399 229.1V229.856C333.399 231.764 335.451 233.096 338.547 233.096ZM343.641 215.852H341.373V225.788H343.641V221.648H345.837V219.668H343.641V215.852ZM338.547 227.714C340.383 227.714 341.463 228.56 341.463 229.244V229.712C341.463 230.396 340.383 231.242 338.547 231.242C336.711 231.242 335.631 230.396 335.631 229.712V229.244C335.631 228.56 336.711 227.714 338.547 227.714Z" fill="#222222"/>
<path d="M200 45L200 108" stroke="#AAAAAA" stroke-width="2" stroke-dasharray="4 4"/>
<path d="M100 120V110H300V120" fill="white"/>
<path d="M100 120V110H300V120" stroke="#AAAAAA" stroke-width="2" stroke-dasharray="4 4"/>
<rect x="64" width="272" height="74" rx="37" fill="#5082E6"/>
<path d="M151.25 41.66V34.96H149.27V41.66H143.15V43.34H160.07V41.66H151.25ZM145.23 29.02V30.74H155.61V32.14C155.61 34.62 155.41 36.76 154.93 39.28L156.91 39.52C157.37 37.02 157.59 35.02 157.59 31.44V29.02H145.23ZM167.613 37.76V39.36C164.673 39.6 162.853 40.88 162.853 42.56V43.1C162.853 44.96 165.093 46.34 168.613 46.34C172.153 46.34 174.373 44.94 174.373 43.1V42.56C174.373 40.9 172.553 39.6 169.613 39.36V37.76H177.073V36.08H160.153V37.76H167.613ZM168.613 32.76C168.913 33.28 169.793 33.66 170.633 33.98C172.113 34.54 173.513 35 175.013 35.42L175.613 33.82C173.973 33.36 172.713 32.96 171.813 32.6C170.353 32.02 169.613 31.52 169.593 30.56H174.933V28.92H169.593V27.12H167.613V28.92H162.293V30.56H167.613C167.593 31.52 166.873 32.06 165.413 32.6C164.073 33.1 162.993 33.44 161.613 33.82L162.213 35.42C163.693 35 165.113 34.54 166.613 33.98C167.453 33.66 168.293 33.28 168.593 32.76H168.613ZM164.813 42.68C164.813 41.66 166.373 40.94 168.613 40.94C170.853 40.94 172.413 41.66 172.413 42.68V42.98C172.413 44 170.853 44.72 168.613 44.72C166.373 44.72 164.813 44 164.813 42.98V42.68ZM182.916 36.98C183.076 37.38 183.576 37.94 184.136 38.54C184.896 39.36 185.736 40.2 187.096 41.44L188.396 40.1C187.216 39.06 186.376 38.28 185.516 37.34C184.096 35.8 183.876 35.2 183.876 33.62V31.76H187.816V30.04H183.876V27.44H181.876V30.04H177.756V31.76H181.876V33.62C181.876 35.1 181.656 35.86 180.336 37.32C179.436 38.32 178.456 39.3 177.256 40.38L178.556 41.72C179.896 40.48 180.896 39.46 181.716 38.56C182.356 37.86 182.716 37.42 182.896 36.98H182.916ZM192.576 45.8V27.36H190.596V33.92H187.016V35.66H190.596V45.8H192.576ZM209.42 45.8V27.36H207.44V45.8H209.42ZM203.74 35.72V28.82H195.44V30.52H201.78V34.06H195.5V41.34H198.86C202.18 41.34 204 41.18 205.86 40.9L205.68 39.24C203.6 39.54 202 39.64 199.34 39.64H197.46V35.72H203.74ZM217.363 35.72C220.303 35.72 222.163 34.02 222.163 32.12V31.32C222.163 29.42 220.343 27.72 217.363 27.72C214.383 27.72 212.563 29.42 212.563 31.32V32.12C212.563 34.02 214.423 35.72 217.363 35.72ZM226.663 45.8V27.36H224.703V45.8H226.663ZM218.463 45.24V38.88C220.363 38.8 222.043 38.68 223.703 38.5L223.543 36.84C220.223 37.16 216.843 37.28 211.563 37.26V38.98C213.363 38.98 214.983 38.98 216.443 38.94V45.24H218.463ZM217.363 34C215.663 34 214.463 33.14 214.463 31.98V31.46C214.463 30.24 215.663 29.44 217.363 29.44C219.063 29.44 220.263 30.24 220.263 31.46V31.98C220.263 33.14 219.063 34 217.363 34ZM234.246 34.62C237.066 34.62 238.786 33.12 238.786 31.48V30.84C238.786 29.2 237.066 27.7 234.246 27.7C231.426 27.7 229.706 29.2 229.706 30.84V31.48C229.706 33.12 231.426 34.62 234.246 34.62ZM243.566 41.64V27.36H241.606V38.34H237.706V40H241.606V41.64H243.566ZM233.466 40.68H231.486V45.62H243.946V43.92H233.466V40.68ZM235.026 39.94V37.24C236.966 37.16 238.706 37.04 240.406 36.86L240.266 35.2C235.886 35.56 232.926 35.66 228.506 35.64V37.36C230.146 37.36 231.666 37.34 233.066 37.3V39.94H235.026ZM234.246 32.96C232.546 32.96 231.586 32.14 231.586 31.36V30.96C231.586 30.18 232.546 29.38 234.246 29.38C235.946 29.38 236.906 30.18 236.906 30.96V31.36C236.906 32.14 235.946 32.96 234.246 32.96ZM257.709 40.32C256.069 40.48 254.549 40.6 252.649 40.66V38.86C254.789 38.52 256.029 37.2 256.029 35.8V35.04C256.029 33.42 254.369 31.9 251.549 31.9C248.729 31.9 247.069 33.42 247.069 35.04V35.8C247.069 37.26 248.389 38.62 250.689 38.9V40.72C249.269 40.76 247.629 40.76 245.629 40.76V42.44C251.949 42.44 254.529 42.32 257.869 42L257.709 40.32ZM260.749 45.8V27.36H258.789V45.8H260.749ZM256.789 29.44H252.509V27.22H250.549V29.44H246.129V31.14H256.789V29.44ZM251.549 37.32C249.889 37.32 248.989 36.48 248.989 35.64V35.2C248.989 34.36 249.869 33.52 251.549 33.52C253.209 33.52 254.109 34.36 254.109 35.2V35.64C254.109 36.48 253.229 37.32 251.549 37.32Z" fill="white"/>
<path d="M194.288 321.097H193.098V335.547H194.288V327.081H196.719V336.312H197.909V320.774H196.719V326.01H194.288V321.097ZM185.482 331.943H187.199C188.644 331.943 190.446 331.892 192.01 331.586L191.874 330.515C190.361 330.787 188.899 330.855 187.777 330.855H186.689V322.236H185.482V331.943ZM210.084 321.369V323.698H202.366V321.369H201.193V328.033H211.257V321.369H210.084ZM199.085 330.107V331.144H205.63V336.312H206.837V331.144H213.365V330.107H199.085ZM202.366 327.03V324.735H210.084V327.03H202.366Z" fill="#555555"/>
<path d="M616.992 321.097H615.802V335.547H616.992V327.081H619.423V336.312H620.613V320.774H619.423V326.01H616.992V321.097ZM608.186 331.943H609.903C611.348 331.943 613.15 331.892 614.714 331.586L614.578 330.515C613.065 330.787 611.603 330.855 610.481 330.855H609.393V322.236H608.186V331.943ZM628.062 329.699H629.779V327.999H628.062V329.699ZM646.934 331.552C645.472 331.722 643.993 331.807 642.14 331.875V329.002C644.078 328.764 645.574 327.387 645.574 325.772V324.956C645.574 323.171 643.772 321.692 641.528 321.692C639.284 321.692 637.482 323.171 637.482 324.956V325.772C637.482 327.404 638.978 328.764 640.933 329.002V331.892C639.692 331.926 638.281 331.926 636.632 331.926V332.98C641.834 332.98 644.231 332.878 647.036 332.589L646.934 331.552ZM641.528 322.763C643.041 322.763 644.418 323.8 644.418 325.024V325.704C644.418 326.928 643.041 327.965 641.528 327.965C640.015 327.965 638.638 326.928 638.638 325.704V325.024C638.638 323.8 640.015 322.763 641.528 322.763ZM649.331 320.774H648.124V336.312H649.331V320.774ZM661.693 321.369V323.698H653.975V321.369H652.802V328.033H662.866V321.369H661.693ZM650.694 330.107V331.144H657.239V336.312H658.446V331.144H664.974V330.107H650.694ZM653.975 327.03V324.735H661.693V327.03H653.975Z" fill="#555555"/>
<g filter="url(#filter2_d_1_6468)">
<path d="M725.5 210C725.5 259.429 685.429 299.5 636 299.5C586.571 299.5 546.5 259.429 546.5 210C546.5 160.571 586.571 120.5 636 120.5C685.429 120.5 725.5 160.571 725.5 210Z" fill="white" stroke="#DDDDDD"/>
</g>
<path d="M616.426 221.592H626.812V214.986H616.426V221.592ZM618.676 216.876H624.562V219.702H618.676V216.876ZM626.812 204.852H624.544V214.23H626.812V210.45H629.008V208.47H626.812V204.852ZM614.5 214.716C620.332 212.52 621.736 211.422 621.736 208.542V205.788H614.392V207.714H619.468V208.326C619.468 210.234 618.838 210.918 613.672 212.898L614.5 214.716ZM642.115 204.852H639.829V221.592H642.115V212.736H644.419V210.756H642.115V204.852ZM636.247 213.276C635.167 212.106 634.969 211.314 634.969 209.892V206.04H632.647V209.892C632.647 211.368 632.305 212.25 631.261 213.402C630.487 214.248 629.569 215.148 628.561 216.048L630.055 217.596C631.081 216.642 631.783 215.958 632.449 215.256C633.043 214.644 633.691 213.906 633.799 213.582H633.835C633.961 213.888 634.483 214.482 635.167 215.184C635.833 215.868 636.625 216.66 637.435 217.416L638.893 215.886C637.957 215.04 637.021 214.122 636.247 213.276ZM647.409 221.61H658.047V215.166H647.409V221.61ZM645.087 205.608V213.87C649.677 213.87 652.431 213.834 654.681 213.6L654.483 211.746C652.107 211.962 649.839 211.998 647.319 211.998V210.666H652.899V208.794H647.319V207.48H653.223V205.608H645.087ZM658.047 204.852H655.779V214.41H658.047V204.852ZM649.659 217.038H655.797V219.738H649.659V217.038Z" fill="#222222"/>
<path d="M636 46L636 120" stroke="#AAAAAA" stroke-width="2" stroke-dasharray="4 4"/>
<rect x="500" width="272" height="74" rx="37" fill="#33B9A5"/>
<path d="M604.412 34.02H601.572V27.36H599.592V45.8H601.572V35.74H604.412V34.02ZM592.632 36.54C592.792 36.94 593.272 37.5 593.832 38.1C594.592 38.92 595.492 39.82 596.872 41.1L598.152 39.74C596.952 38.68 596.072 37.84 595.212 36.9C593.992 35.54 593.612 34.72 593.612 33.14V28.7H591.612V33.14C591.612 34.56 591.292 35.46 590.072 36.84C589.172 37.84 588.132 38.86 586.912 39.94L588.212 41.28C589.572 40.04 590.632 38.98 591.452 38.08C592.092 37.38 592.432 36.98 592.612 36.54H592.632ZM619.435 45.8V27.36H617.455V45.8H619.435ZM609.735 28.6C607.035 28.6 605.075 30.42 605.075 33.96V36.04C605.075 39.56 607.035 41.38 609.735 41.38C612.435 41.38 614.395 39.56 614.395 36.04V33.96C614.395 30.44 612.435 28.6 609.735 28.6ZM609.735 39.6C608.295 39.6 606.975 38.58 606.975 35.76V34.24C606.975 31.42 608.295 30.4 609.735 30.4C611.155 30.4 612.495 31.42 612.495 34.24V35.76C612.495 38.58 611.175 39.6 609.735 39.6ZM636.578 45.8V27.36H634.598V33.8H630.958V28.88H629.018V33.2H624.138V28.88H622.198V40.94H630.958V35.52H634.598V45.8H636.578ZM624.138 34.9H629.018V39.24H624.138V34.9ZM643.841 39.4H641.861V45.6H653.821V43.88H643.841V39.4ZM653.381 40.48V27.36H651.421V40.48H653.381ZM643.941 34.2C644.061 34.5 644.481 34.92 645.081 35.42C646.041 36.22 647.021 37.04 648.041 37.82L649.201 36.44C648.021 35.58 646.841 34.64 645.901 33.78C644.941 32.9 644.861 32.24 644.861 31V28.22H642.861V31.08C642.861 32.48 642.581 33.24 641.561 34.26C640.861 34.96 639.581 36.04 638.301 37.02L639.481 38.42C640.541 37.58 641.761 36.56 642.581 35.8C643.201 35.24 643.821 34.54 643.921 34.2H643.941ZM669.624 28.08H657.624V34.84H669.624V28.08ZM664.864 41.82V38.26H672.084V36.58H655.164V38.26H662.864V41.82H664.864ZM659.584 40.16H657.604V45.6H670.004V43.88H659.584V40.16ZM667.664 33.18H659.584V29.74H667.664V33.18ZM680.267 41.66V34.96H678.287V41.66H672.167V43.34H689.087V41.66H680.267ZM674.247 29.02V30.74H684.627V32.14C684.627 34.62 684.427 36.76 683.947 39.28L685.927 39.52C686.387 37.02 686.607 35.02 686.607 31.44V29.02H674.247Z" fill="white"/>
<defs>
<filter id="filter0_d_1_6468" x="0" y="110" width="220" height="220" filterUnits="userSpaceOnUse" color-interpolation-filters="sRGB">
<feFlood flood-opacity="0" result="BackgroundImageFix"/>
<feColorMatrix in="SourceAlpha" type="matrix" values="0 0 0 0 0 0 0 0 0 0 0 0 0 0 0 0 0 0 127 0" result="hardAlpha"/>
<feOffset dx="10" dy="10"/>
<feGaussianBlur stdDeviation="10"/>
<feColorMatrix type="matrix" values="0 0 0 0 0 0 0 0 0 0 0 0 0 0 0 0 0 0 0.059 0"/>
<feBlend mode="normal" in2="BackgroundImageFix" result="effect1_dropShadow_1_6468"/>
<feBlend mode="normal" in="SourceGraphic" in2="effect1_dropShadow_1_6468" result="shape"/>
</filter>
<filter id="filter1_d_1_6468" x="200" y="110" width="220" height="220" filterUnits="userSpaceOnUse" color-interpolation-filters="sRGB">
<feFlood flood-opacity="0" result="BackgroundImageFix"/>
<feColorMatrix in="SourceAlpha" type="matrix" values="0 0 0 0 0 0 0 0 0 0 0 0 0 0 0 0 0 0 127 0" result="hardAlpha"/>
<feOffset dx="10" dy="10"/>
<feGaussianBlur stdDeviation="10"/>
<feColorMatrix type="matrix" values="0 0 0 0 0 0 0 0 0 0 0 0 0 0 0 0 0 0 0.059 0"/>
<feBlend mode="normal" in2="BackgroundImageFix" result="effect1_dropShadow_1_6468"/>
<feBlend mode="normal" in="SourceGraphic" in2="effect1_dropShadow_1_6468" result="shape"/>
</filter>
<filter id="filter2_d_1_6468" x="536" y="110" width="220" height="220" filterUnits="userSpaceOnUse" color-interpolation-filters="sRGB">
<feFlood flood-opacity="0" result="BackgroundImageFix"/>
<feColorMatrix in="SourceAlpha" type="matrix" values="0 0 0 0 0 0 0 0 0 0 0 0 0 0 0 0 0 0 127 0" result="hardAlpha"/>
<feOffset dx="10" dy="10"/>
<feGaussianBlur stdDeviation="10"/>
<feColorMatrix type="matrix" values="0 0 0 0 0 0 0 0 0 0 0 0 0 0 0 0 0 0 0.059 0"/>
<feBlend mode="normal" in2="BackgroundImageFix" result="effect1_dropShadow_1_6468"/>
<feBlend mode="normal" in="SourceGraphic" in2="effect1_dropShadow_1_6468" result="shape"/>
</filter>
</defs>
</svg>
