<svg width="365" height="471" viewBox="0 0 365 471" fill="none" xmlns="http://www.w3.org/2000/svg">
<path d="M118.454 419.688C120.098 419.688 121.142 418.452 121.142 417.264V416.568C121.142 415.38 120.098 414.144 118.454 414.144C116.81 414.144 115.766 415.392 115.766 416.568V417.264C115.766 418.452 116.81 419.688 118.454 419.688ZM118.454 414.9C119.57 414.9 120.326 415.74 120.326 416.64V417.192C120.326 418.092 119.57 418.932 118.454 418.932C117.338 418.932 116.582 418.092 116.582 417.192V416.64C116.582 415.764 117.338 414.9 118.454 414.9ZM124.034 413.664H123.194V421.512H124.034V417.732H125.714V416.988H124.034V413.664ZM118.334 420.9H117.482V424.5H124.37V423.756H118.334V420.9ZM129.16 417.828C129.208 417.984 129.676 418.392 130.24 418.848C130.6 419.136 131.164 419.556 131.656 419.892L132.148 419.304C131.464 418.848 130.792 418.344 130.408 418.02C129.628 417.348 129.544 417.024 129.544 416.316V415.116H131.896V414.384H126.22V415.116H128.692V416.352C128.692 417 128.56 417.42 127.972 417.996C127.384 418.572 126.616 419.16 125.908 419.664L126.424 420.264C126.976 419.868 127.792 419.22 128.212 418.848C128.716 418.404 129.1 418.008 129.148 417.828H129.16ZM131.608 416.58V417.324H133.9V421.5H134.74V413.664H133.9V416.58H131.608ZM128.872 420.864H128.02V424.5H135.016V423.756H128.872V420.864ZM143.586 414.504V416.472H138.138V414.504H137.31V419.976H140.442V422.352H135.822V423.084H145.902V422.352H141.282V419.976H144.414V414.504H143.586ZM138.138 419.268V417.204H143.586V419.268H138.138ZM146.828 420.408C149.744 419.148 150.86 418.44 151.268 417.432H154.28V421.512H155.12V413.664H154.28V416.688H151.436C151.46 416.484 151.472 416.256 151.472 416.016V414.384H146.852V415.128H150.644V415.968C150.644 417.552 150.32 418.044 146.48 419.712L146.828 420.408ZM149.252 420.924H148.4V424.5H155.396V423.756H149.252V420.924ZM162.034 420.384C160.234 420.384 158.71 421.116 158.71 422.412V422.88C158.71 424.14 160.234 424.92 162.034 424.92C163.834 424.92 165.358 424.14 165.358 422.88V422.412C165.358 421.152 163.834 420.384 162.034 420.384ZM162.034 424.2C160.75 424.2 159.526 423.708 159.526 422.856V422.448C159.526 421.596 160.75 421.104 162.034 421.104C163.318 421.104 164.542 421.596 164.542 422.448V422.856C164.542 423.708 163.318 424.2 162.034 424.2ZM159.586 417.312C159.646 417.504 159.97 417.828 160.522 418.296C160.93 418.644 161.458 419.076 162.094 419.556L162.598 418.968C162.07 418.584 161.434 418.08 160.846 417.564C160.042 416.844 159.97 416.556 159.97 415.668V414.156H159.106V415.692C159.106 416.592 159.022 416.904 158.266 417.66C157.726 418.2 156.97 418.824 156.322 419.304L156.85 419.916C157.51 419.388 158.218 418.788 158.638 418.392C159.166 417.888 159.538 417.516 159.574 417.312H159.586ZM161.986 416.136V416.88H164.458V420.132H165.298V413.664H164.458V416.136H161.986ZM175.175 413.664H174.323V424.632H175.175V418.596H176.915V417.84H175.175V413.664ZM173.483 421.08C172.295 421.212 171.179 421.284 169.631 421.32V417.84H168.779V421.332C168.095 421.344 167.339 421.344 166.463 421.344V422.088C170.135 422.088 171.575 422.016 173.555 421.812L173.483 421.08ZM167.015 414.72V415.476H171.635V416.22C171.635 417.24 171.563 418.572 171.347 419.544L172.199 419.652C172.391 418.872 172.487 417.204 172.487 416.052V414.72H167.015ZM185.869 413.664H185.017V424.632H185.869V413.664ZM184.177 421.212C182.317 421.416 180.397 421.476 176.905 421.476V422.22C180.577 422.22 182.269 422.148 184.249 421.944L184.177 421.212ZM180.337 419.604C181.897 419.604 183.193 418.584 183.193 417.288V416.712C183.193 415.416 181.897 414.396 180.337 414.396C178.777 414.396 177.481 415.404 177.481 416.712V417.288C177.481 418.584 178.777 419.604 180.337 419.604ZM180.337 415.14C181.393 415.14 182.377 415.86 182.377 416.76V417.24C182.377 418.14 181.393 418.86 180.337 418.86C179.281 418.86 178.297 418.14 178.297 417.24V416.76C178.297 415.86 179.281 415.14 180.337 415.14ZM195.663 414.672H189.807V415.416H192.327V417.228C192.327 418.14 192.219 418.596 191.463 419.448C190.911 420.072 190.227 420.732 189.471 421.404L190.035 421.968C190.755 421.344 191.559 420.492 191.883 420.156C192.231 419.784 192.699 419.244 192.759 419.028H192.771C192.831 419.184 193.167 419.556 193.515 419.928C193.995 420.444 194.571 421.032 195.399 421.8L195.951 421.236C195.063 420.444 194.355 419.736 193.887 419.196C193.251 418.464 193.179 418.08 193.179 417.168V415.416H195.663V414.672ZM198.291 413.664H197.439V424.632H198.291V413.664ZM204.773 417.564H203.933V419.16H199.313V419.88H209.393V419.16H204.773V417.564ZM208.613 417.36C207.545 416.94 206.645 416.568 206.069 416.28C204.989 415.752 204.785 415.44 204.785 414.612V413.808H203.933V414.612C203.933 415.44 203.717 415.752 202.637 416.28C202.061 416.568 201.173 416.94 200.093 417.36L200.441 418.044C201.281 417.72 202.229 417.3 202.829 417.012C203.849 416.532 204.269 416.232 204.353 415.992H204.365C204.449 416.22 204.869 416.52 205.889 417C206.489 417.288 207.449 417.708 208.289 418.032L208.613 417.36ZM200.597 421.932H207.101V424.716H207.941V421.2H200.597V421.932ZM213.055 417.492C213.103 417.648 213.571 418.056 214.135 418.512C214.495 418.8 215.059 419.22 215.551 419.556L216.043 418.968C215.359 418.512 214.687 418.008 214.303 417.684C213.523 417.012 213.439 416.688 213.439 415.98V415.056H215.791V414.324H210.115V415.056H212.587V416.016C212.587 416.664 212.455 417.084 211.867 417.66C211.279 418.236 210.511 418.824 209.803 419.328L210.319 419.928C210.871 419.532 211.687 418.884 212.107 418.512C212.611 418.068 212.995 417.672 213.043 417.492H213.055ZM211.579 421.416H217.795V424.716H218.635V420.672H211.579V421.416ZM218.635 413.664H217.795V416.412H215.503V417.156H217.795V420.024H218.635V413.664ZM228.909 413.892H228.069V424.092H228.909V418.38H230.565V424.632H231.405V413.664H230.565V417.624H228.909V413.892ZM222.657 422.22C226.041 419.916 226.521 419.16 226.521 416.76V414.756H222.393V415.512H225.693V416.712C225.693 418.824 225.417 419.376 222.189 421.56L222.657 422.22ZM235.559 417.6C235.619 417.792 235.943 418.116 236.495 418.584C236.903 418.932 237.431 419.364 238.067 419.844L238.571 419.256C238.043 418.872 237.407 418.368 236.819 417.852C236.015 417.132 235.943 416.844 235.943 415.956V414.18H235.079V415.98C235.079 416.88 234.995 417.192 234.239 417.948C233.699 418.488 232.943 419.112 232.295 419.592L232.823 420.204C233.483 419.676 234.191 419.076 234.611 418.68C235.139 418.176 235.511 417.804 235.547 417.6H235.559ZM241.271 413.664H240.431V416.28H237.959V417.024H240.431V421.488H241.271V413.664ZM235.415 420.84H234.563V424.5H241.547V423.756H235.415V420.84Z" fill="#222222"/>
<path d="M121.118 437.156H120.302V438.836H116.942V437.156H116.126V441.944H121.118V439.88H123.698V442.34H124.538V436.664H123.698V439.136H121.118V437.156ZM123.71 442.988V444.512H118.67V442.988H117.842V447.62H124.538V442.988H123.71ZM118.67 446.864V445.256H123.71V446.864H118.67ZM116.942 439.568H120.302V441.212H116.942V439.568ZM125.62 442.388V443.12H128.308V447.62H129.16V443.12H132.16V447.62H133.012V443.12H135.7V442.388H133.768C133.996 441.296 134.128 439.952 134.128 438.692V437.384H126.94V438.116H133.264V438.968C133.264 440 133.132 441.308 132.892 442.388H125.62ZM143.79 437.228H138.846V441.812H143.79V437.228ZM144.162 442.532H143.346V443.792H140.154V444.524H143.346V444.764C143.346 445.388 143.058 445.772 142.074 446.18C141.414 446.456 140.574 446.756 139.83 446.996L140.13 447.656C140.826 447.428 141.606 447.128 142.314 446.84C143.07 446.516 143.562 446.192 143.754 445.856C143.946 446.192 144.426 446.516 145.194 446.84C145.902 447.128 146.682 447.428 147.378 447.656L147.678 446.996C146.934 446.756 146.094 446.456 145.434 446.18C144.45 445.772 144.162 445.388 144.162 444.764V444.524H147.33V443.792H144.162V442.532ZM142.974 441.068H139.662V437.972H142.974V441.068ZM147.162 436.664H146.322V442.652H147.162V436.664ZM158.636 444.284C158.936 442.76 159.08 441.2 159.08 439.184V437.744H151.856V438.488H158.204V439.628C158.204 441.32 158.06 442.616 157.748 444.176L158.636 444.284ZM150.584 445.352V446.084H160.664V445.352H150.584ZM166.294 437.156H165.478V438.992H162.166V437.156H161.35V442.196H166.294V437.156ZM169.402 436.664H168.562V442.964H169.402V440.084H171.082V439.34H169.402V436.664ZM162.166 439.724H165.478V441.464H162.166V439.724ZM162.034 444.356H164.722V447.716H165.562V443.612H162.034V444.356ZM166.162 444.356H168.562V447.716H169.402V443.612H166.162V444.356ZM180.227 436.664H179.375V447.632H180.227V436.664ZM178.535 444.212C176.675 444.416 174.755 444.476 171.263 444.476V445.22C174.935 445.22 176.627 445.148 178.607 444.944L178.535 444.212ZM174.695 442.604C176.255 442.604 177.551 441.584 177.551 440.288V439.712C177.551 438.416 176.255 437.396 174.695 437.396C173.135 437.396 171.839 438.404 171.839 439.712V440.288C171.839 441.584 173.135 442.604 174.695 442.604ZM174.695 438.14C175.751 438.14 176.735 438.86 176.735 439.76V440.24C176.735 441.14 175.751 441.86 174.695 441.86C173.639 441.86 172.655 441.14 172.655 440.24V439.76C172.655 438.86 173.639 438.14 174.695 438.14ZM184.897 440.492C184.897 441.344 185.377 442.028 186.133 442.472V445.352H183.469V446.084H193.549V445.352H190.885V442.472C191.629 442.028 192.121 441.332 192.121 440.492V439.904C192.121 438.344 190.465 437.324 188.509 437.324C186.541 437.324 184.897 438.344 184.897 439.904V440.492ZM188.509 438.104C190.057 438.104 191.281 438.86 191.281 439.94V440.456C191.281 441.536 190.057 442.292 188.509 442.292C186.949 442.292 185.737 441.536 185.737 440.456V439.94C185.737 438.86 186.949 438.104 188.509 438.104ZM188.509 443.072C189.049 443.072 189.577 443 190.045 442.844V445.352H186.973V442.844C187.441 442.988 187.957 443.072 188.509 443.072ZM193.671 442.412V443.144H198.279V447.632H199.131V443.144H203.751V442.412H201.819C202.047 441.32 202.179 439.964 202.179 438.692V437.384H194.991V438.116H201.315V438.968C201.315 440.012 201.183 441.332 200.943 442.412H193.671ZM212.369 436.664H211.517V447.632H212.369V441.512H214.205V440.756H212.369V436.664ZM205.793 442.328C205.229 442.964 204.569 443.6 203.777 444.296L204.341 444.884C205.049 444.26 205.841 443.456 206.261 443C206.621 442.604 207.077 442.04 207.113 441.884H207.125C207.185 442.04 207.533 442.436 207.893 442.82C208.373 443.336 209.045 443.996 209.801 444.716L210.353 444.14C209.453 443.324 208.745 442.604 208.265 442.052C207.617 441.308 207.545 440.912 207.545 439.988V437.468H206.669V440.048C206.669 440.996 206.549 441.464 205.793 442.328ZM219.511 443.876C217.567 443.876 216.259 444.62 216.259 445.7V446.108C216.259 447.188 217.567 447.932 219.511 447.932C221.455 447.932 222.763 447.188 222.763 446.108V445.7C222.763 444.62 221.455 443.876 219.511 443.876ZM217.351 443.3C218.827 443.3 219.859 442.46 219.859 441.476V441.044C219.859 440.06 218.827 439.22 217.351 439.22C215.875 439.22 214.843 440.06 214.843 441.044V441.476C214.843 442.46 215.875 443.3 217.351 443.3ZM219.511 447.224C218.155 447.224 217.075 446.756 217.075 446.06V445.748C217.075 445.052 218.155 444.584 219.511 444.584C220.867 444.584 221.947 445.052 221.947 445.748V446.06C221.947 446.756 220.867 447.224 219.511 447.224ZM217.351 439.928C218.359 439.928 219.055 440.456 219.055 441.08V441.44C219.055 442.064 218.359 442.592 217.351 442.592C216.343 442.592 215.647 442.064 215.647 441.44V441.08C215.647 440.456 216.343 439.928 217.351 439.928ZM222.703 436.664H221.863V443.54H222.703V440.54H224.383V439.796H222.703V436.664ZM217.771 436.532H216.931V437.924H214.207V438.656H220.519V437.924H217.771V436.532ZM226.557 441.98V442.7H231.177V443.876C229.545 443.972 228.189 444.56 228.189 445.724V446.048C228.189 447.296 229.797 447.932 231.597 447.932C233.397 447.932 235.005 447.296 235.005 446.048V445.736C235.005 444.572 233.637 443.972 232.017 443.876V442.7H236.637V441.98H226.557ZM231.585 439.712H231.597C231.765 439.928 231.993 440.132 232.905 440.48C233.469 440.696 234.297 440.972 235.497 441.32L235.785 440.648C234.621 440.324 233.721 440.036 233.169 439.82C232.161 439.424 232.017 439.136 232.017 438.536V438.368H235.353V437.648H232.017V436.508H231.165V437.648H227.841V438.368H231.165V438.536C231.165 439.136 230.985 439.436 229.977 439.832C229.413 440.048 228.477 440.348 227.385 440.66L227.685 441.344C228.873 440.984 229.701 440.72 230.277 440.492C231.153 440.156 231.453 439.928 231.585 439.712ZM231.597 447.212C230.313 447.212 229.005 446.852 229.005 446V445.772C229.005 444.956 230.313 444.572 231.597 444.572C232.881 444.572 234.189 444.932 234.189 445.784V446C234.189 446.852 232.881 447.212 231.597 447.212ZM241.787 439.256H241.799C241.931 439.508 242.483 439.856 243.227 440.18C243.851 440.456 244.763 440.816 245.651 441.128L245.975 440.468C245.159 440.18 244.175 439.82 243.479 439.508C242.507 439.076 242.219 438.68 242.219 438.056V437.828H245.519V437.108H238.079V437.828H241.367V438.056C241.367 438.68 241.055 439.076 240.095 439.508C239.507 439.772 238.607 440.12 237.599 440.48L237.947 441.14C238.883 440.804 239.735 440.468 240.359 440.192C241.091 439.88 241.679 439.508 241.787 439.256ZM236.759 442.184V442.904H246.839V442.184H242.219V440.672H241.379V442.184H236.759ZM238.043 444.944H244.547V447.716H245.387V444.212H238.043V444.944Z" fill="#222222"/>
<path d="M118.454 465.688C120.098 465.688 121.142 464.452 121.142 463.264V462.568C121.142 461.38 120.098 460.144 118.454 460.144C116.81 460.144 115.766 461.392 115.766 462.568V463.264C115.766 464.452 116.81 465.688 118.454 465.688ZM118.454 460.9C119.57 460.9 120.326 461.74 120.326 462.64V463.192C120.326 464.092 119.57 464.932 118.454 464.932C117.338 464.932 116.582 464.092 116.582 463.192V462.64C116.582 461.764 117.338 460.9 118.454 460.9ZM124.034 459.664H123.194V467.512H124.034V463.732H125.714V462.988H124.034V459.664ZM118.334 466.9H117.482V470.5H124.37V469.756H118.334V466.9ZM129.16 463.828C129.208 463.984 129.676 464.392 130.24 464.848C130.6 465.136 131.164 465.556 131.656 465.892L132.148 465.304C131.464 464.848 130.792 464.344 130.408 464.02C129.628 463.348 129.544 463.024 129.544 462.316V461.116H131.896V460.384H126.22V461.116H128.692V462.352C128.692 463 128.56 463.42 127.972 463.996C127.384 464.572 126.616 465.16 125.908 465.664L126.424 466.264C126.976 465.868 127.792 465.22 128.212 464.848C128.716 464.404 129.1 464.008 129.148 463.828H129.16ZM131.608 462.58V463.324H133.9V467.5H134.74V459.664H133.9V462.58H131.608ZM128.872 466.864H128.02V470.5H135.016V469.756H128.872V466.864ZM143.586 460.504V462.472H138.138V460.504H137.31V465.976H140.442V468.352H135.822V469.084H145.902V468.352H141.282V465.976H144.414V460.504H143.586ZM138.138 465.268V463.204H143.586V465.268H138.138ZM146.828 466.408C149.744 465.148 150.86 464.44 151.268 463.432H154.28V467.512H155.12V459.664H154.28V462.688H151.436C151.46 462.484 151.472 462.256 151.472 462.016V460.384H146.852V461.128H150.644V461.968C150.644 463.552 150.32 464.044 146.48 465.712L146.828 466.408ZM149.252 466.924H148.4V470.5H155.396V469.756H149.252V466.924ZM157.738 460.084V463.888H160.846V465.244H156.226V465.964H166.306V465.244H161.686V463.888H164.794V460.084H157.738ZM158.566 460.804H163.966V463.168H158.566V460.804ZM157.51 467.956H164.014V470.716H164.854V467.224H157.51V467.956ZM166.427 468.352V469.084H176.507V468.352H173.555V465.688H175.451V464.98H173.759V461.32H175.343V460.612H167.591V461.32H169.175V464.98H167.483V465.688H169.379V468.352H166.427ZM170.015 461.32H172.919V464.98H170.015V461.32ZM170.219 465.688H172.715V468.352H170.219V465.688ZM180.865 465.712V466.444H186.709V467.836H180.925V470.668H187.825V469.948H181.753V468.544H187.537V465.712H180.865ZM179.497 464.584C182.857 464.584 183.817 464.548 185.605 464.332L185.509 463.6C183.793 463.804 182.749 463.84 180.337 463.84V460.888H184.525V460.144H179.497V464.584ZM187.537 459.664H186.697V465.064H187.537V462.628H189.217V461.884H187.537V459.664ZM194.919 466.384C193.119 466.384 191.595 467.116 191.595 468.412V468.88C191.595 470.14 193.119 470.92 194.919 470.92C196.719 470.92 198.243 470.14 198.243 468.88V468.412C198.243 467.152 196.719 466.384 194.919 466.384ZM194.919 470.2C193.635 470.2 192.411 469.708 192.411 468.856V468.448C192.411 467.596 193.635 467.104 194.919 467.104C196.203 467.104 197.427 467.596 197.427 468.448V468.856C197.427 469.708 196.203 470.2 194.919 470.2ZM192.471 463.312C192.531 463.504 192.855 463.828 193.407 464.296C193.815 464.644 194.343 465.076 194.979 465.556L195.483 464.968C194.955 464.584 194.319 464.08 193.731 463.564C192.927 462.844 192.855 462.556 192.855 461.668V460.156H191.991V461.692C191.991 462.592 191.907 462.904 191.151 463.66C190.611 464.2 189.855 464.824 189.207 465.304L189.735 465.916C190.395 465.388 191.103 464.788 191.523 464.392C192.051 463.888 192.423 463.516 192.459 463.312H192.471ZM194.871 462.136V462.88H197.343V466.132H198.183V459.664H197.343V462.136H194.871Z" fill="#222222"/>
<path d="M106.998 420C107.55 420 107.998 419.552 107.998 419C107.998 418.448 107.55 418 106.998 418C106.446 418 105.998 418.448 105.998 419C105.998 419.552 106.446 420 106.998 420Z" fill="#CCCCCC"/>
<path d="M106.998 443C107.55 443 107.998 442.552 107.998 442C107.998 441.448 107.55 441 106.998 441C106.446 441 105.998 441.448 105.998 442C105.998 442.552 106.446 443 106.998 443Z" fill="#CCCCCC"/>
<path d="M106.998 466C107.55 466 107.998 465.552 107.998 465C107.998 464.448 107.55 464 106.998 464C106.446 464 105.998 464.448 105.998 465C105.998 465.552 106.446 466 106.998 466Z" fill="#CCCCCC"/>
<path d="M35.2958 379.842C35.2958 381.571 36.7208 383.851 39.6848 383.851C42.6488 383.851 44.0738 381.571 44.0738 379.842V378.854C44.0738 377.125 42.6488 374.845 39.6848 374.845C36.7208 374.845 35.2958 377.125 35.2958 378.854V379.842ZM51.1418 379.044H48.6528V374.142H46.7908V386.644H48.6528V380.678H51.1418V379.044ZM39.8368 385.656H37.9558V391.47H49.1278V389.836H39.8368V385.656ZM42.2688 379.766C42.2688 380.925 41.5088 382.217 39.6848 382.217C37.8798 382.217 37.1008 380.925 37.1008 379.766V378.93C37.1008 377.771 37.8608 376.479 39.6848 376.479C41.5088 376.479 42.2688 377.771 42.2688 378.93V379.766ZM56.6358 381.039C56.7688 381.324 57.1488 381.685 57.7188 382.16C58.6308 382.92 59.4478 383.547 60.4358 384.231L61.4998 382.863C60.3978 382.122 59.4098 381.4 58.4978 380.602C57.6808 379.899 57.5098 379.177 57.5098 377.961V376.878H60.9678V375.263H51.9238V376.878H55.6098V378.037C55.6098 379.424 55.3058 380.184 54.3748 381.058C53.7098 381.685 52.5508 382.578 51.3348 383.433L52.4368 384.782C53.5008 384.041 54.5458 383.243 55.3438 382.521C55.9328 381.989 56.5028 381.362 56.6168 381.039H56.6358ZM65.6038 386.625V374.142H63.7418V378.607H60.5118V380.222H63.7418V386.625H65.6038ZM56.5408 385.618H54.6598V391.47H65.9648V389.836H56.5408V385.618ZM80.9398 375.415H79.0778V378.417H71.2498V375.434H69.3878V384.421H74.2138V387.727H67.1268V389.323H83.2008V387.727H76.0948V384.421H80.9398V375.415ZM71.2498 380.013H79.0778V382.825H71.2498V380.013ZM97.9097 386.644V374.142H96.0477V378.778H92.0387C92.0577 378.645 92.0577 378.493 92.0577 378.341V375.263H84.5907V376.859H90.2147V378.246C90.2147 380.165 89.3027 381.096 83.8687 383.471L84.6097 384.991C88.9987 383.11 90.9367 381.951 91.6587 380.393H96.0477V386.644H97.9097ZM88.8467 385.713H86.9657V391.47H98.2707V389.836H88.8467V385.713ZM103.385 388.81C103.385 390.653 105.399 392.154 108.762 392.154C112.125 392.154 114.139 390.653 114.139 388.81V388.05C114.139 386.207 112.125 384.706 108.762 384.706C105.399 384.706 103.385 386.207 103.385 388.05V388.81ZM106.311 377.847C106.311 379.861 105.285 380.792 100.003 382.996L100.744 384.497C106.729 381.951 108.154 380.887 108.154 377.98V375.225H100.725V376.821H106.311V377.847ZM114.063 384.478V374.142H112.22V376.669H109.123V378.284H112.22V380.317H108.838V381.932H112.22V384.478H114.063ZM112.296 388.696C112.296 389.627 110.928 390.615 108.762 390.615C106.596 390.615 105.228 389.627 105.228 388.696V388.164C105.228 387.233 106.596 386.245 108.762 386.245C110.928 386.245 112.296 387.233 112.296 388.164V388.696ZM119.538 388.81C119.538 390.653 121.552 392.154 124.915 392.154C128.278 392.154 130.292 390.653 130.292 388.81V388.05C130.292 386.207 128.278 384.706 124.915 384.706C121.552 384.706 119.538 386.207 119.538 388.05V388.81ZM124.839 378.645C124.839 376.954 123.471 374.807 120.488 374.807C117.505 374.807 116.137 376.954 116.137 378.645V379.614C116.137 381.305 117.505 383.452 120.488 383.452C123.471 383.452 124.839 381.305 124.839 379.614V378.645ZM130.216 384.478V374.142H128.373V376.327H125.618V377.942H128.373V380.279H125.618V381.894H128.373V384.478H130.216ZM128.449 388.696C128.449 389.627 127.081 390.615 124.915 390.615C122.749 390.615 121.381 389.627 121.381 388.696V388.164C121.381 387.233 122.749 386.245 124.915 386.245C127.081 386.245 128.449 387.233 128.449 388.164V388.696ZM123.034 379.519C123.034 380.64 122.236 381.818 120.488 381.818C118.74 381.818 117.942 380.64 117.942 379.519V378.74C117.942 377.619 118.74 376.441 120.488 376.441C122.236 376.441 123.034 377.619 123.034 378.74V379.519ZM146.255 391.66V374.142H144.374V391.66H146.255ZM137.249 382.901C137.401 383.281 137.857 383.813 138.389 384.383C139.111 385.162 139.966 386.017 141.277 387.233L142.493 385.941C141.353 384.934 140.517 384.136 139.7 383.243C138.541 381.951 138.18 381.172 138.18 379.671V375.396H136.28V379.671C136.28 381.02 135.976 381.875 134.817 383.186C133.962 384.136 132.974 385.105 131.815 386.131L133.05 387.404C134.342 386.226 135.349 385.219 136.128 384.364C136.736 383.699 137.059 383.319 137.23 382.901H137.249ZM147.892 387.727V389.323H163.966V387.727H147.892ZM155.948 380.773C156.157 381.21 156.936 381.875 158.171 382.654C159.311 383.376 160.698 384.174 162.104 384.972L163.016 383.509C161.515 382.692 160.413 382.065 159.216 381.286C157.164 379.937 156.879 379.158 156.879 377.296V375.377H154.979V377.296C154.979 379.158 154.58 379.975 152.851 381.153C151.578 382.008 150.381 382.692 148.861 383.528L149.792 385.01C151.369 384.136 152.585 383.395 153.687 382.692C154.96 381.875 155.739 381.21 155.929 380.773H155.948ZM178.941 385.238H167.788V391.679H178.941V385.238ZM172.215 381.628C170.429 381.837 169.384 381.894 166.534 381.894V380.013H170.695V378.512H166.534V376.631H171.455V375.092H164.729V383.433C169.441 383.433 170.619 383.395 172.405 383.148L172.215 381.628ZM177.098 390.102H169.631V386.815H177.098V390.102ZM171.645 379.823H173.868V384.288H175.654V374.37H173.868V378.227H171.645V379.823ZM177.136 384.326H178.941V374.142H177.136V384.326ZM186.126 383.756C188.995 383.756 190.781 381.894 190.781 379.937V379.063C190.781 377.106 188.995 375.244 186.126 375.244C183.257 375.244 181.471 377.106 181.471 379.063V379.937C181.471 381.894 183.257 383.756 186.126 383.756ZM186.126 382.122C184.53 382.122 183.276 381.058 183.276 379.823V379.177C183.276 377.885 184.53 376.878 186.126 376.878C187.722 376.878 188.976 377.885 188.976 379.177V379.823C188.976 381.058 187.722 382.122 186.126 382.122ZM191.978 385.979C188.824 386.283 185.632 386.397 180.616 386.378V388.012C185.594 388.012 188.938 387.879 192.149 387.556L191.978 385.979ZM194.923 391.66V374.142H193.061V391.66H194.923ZM205.889 383.756C208.758 383.756 210.544 381.894 210.544 379.937V379.063C210.544 377.106 208.758 375.244 205.889 375.244C203.02 375.244 201.234 377.106 201.234 379.063V379.937C201.234 381.894 203.02 383.756 205.889 383.756ZM205.889 382.122C204.293 382.122 203.039 381.058 203.039 379.823V379.177C203.039 377.885 204.293 376.878 205.889 376.878C207.485 376.878 208.739 377.885 208.739 379.177V379.823C208.739 381.058 207.485 382.122 205.889 382.122ZM211.741 385.979C208.587 386.283 205.395 386.397 200.379 386.378V388.012C205.357 388.012 208.701 387.879 211.912 387.556L211.741 385.979ZM214.686 391.66V374.142H212.824V391.66H214.686ZM230.135 382.255H220.16V377.201H229.926V375.605H218.279V383.851H223.2V387.727H216.113V389.323H232.187V387.727H225.1V383.851H230.135V382.255ZM243.875 383.11C242.203 383.262 240.797 383.357 239.106 383.414V381.153H242.431V379.595H235.781V376.517H242.374V374.959H233.995V381.153H237.244V383.471C235.971 383.49 234.489 383.49 232.684 383.49V385.105C238.536 385.105 241.006 384.972 244.027 384.668L243.875 383.11ZM237.301 386.435H235.42V391.489H247.257V389.874H237.301V386.435ZM246.896 387.252V374.142H245.034V387.252H246.896ZM267.153 391.774V390.216H257.653V388.563H266.659V383.851H255.715V385.409H264.816V387.043H255.81V391.774H267.153ZM258.907 377.125C258.907 379.12 257.976 379.899 252.599 381.951L253.245 383.471C259.192 381.248 260.75 380.222 260.75 377.22V374.902H253.321V376.479H258.907V377.125ZM266.659 382.977V374.142H264.816V376.156H261.719V377.733H264.816V379.462H261.434V381.039H264.816V382.977H266.659ZM282.204 391.66V382.236H284.826V380.602H282.204V374.142H280.342V391.66H282.204ZM279.221 385.694C277.359 385.865 275.82 385.979 273.521 386.036V380.83H271.659V386.074C270.671 386.093 269.531 386.093 268.239 386.093V387.727C274.243 387.727 276.219 387.632 279.373 387.328L279.221 385.694ZM269.094 377.429H276.086V378.721C276.086 379.652 276.048 381.59 275.668 383.414L277.511 383.642C277.834 382.141 277.948 379.671 277.948 378.417V375.795H269.094V377.429ZM302.271 391.774V390.216H292.866V388.487H301.777V383.699H290.928V385.257H299.934V386.967H291.023V391.774H302.271ZM298.319 380.146C295.678 380.431 294.5 380.507 290.605 380.507V376.46H296.875V374.864H288.762V382.103C294.234 382.103 295.83 382.027 298.509 381.685L298.319 380.146ZM304.266 377.543H301.777V374.142H299.915V382.825H301.777V379.177H304.266V377.543ZM307.974 388.829C307.974 390.672 309.988 392.154 313.351 392.154C316.714 392.154 318.728 390.672 318.728 388.829V388.069C318.728 386.226 316.714 384.744 313.351 384.744C309.988 384.744 307.974 386.226 307.974 388.069V388.829ZM309.475 380.241C309.589 380.526 309.988 380.944 310.558 381.419C311.47 382.179 312.344 382.901 313.332 383.642L314.434 382.331C313.313 381.514 312.23 380.659 311.337 379.842C310.425 379.006 310.349 378.379 310.349 377.201V374.921H308.449V377.277C308.449 378.607 308.183 379.329 307.214 380.298C306.549 380.963 305.371 381.97 304.155 382.901L305.276 384.231C306.283 383.433 307.404 382.483 308.183 381.761C308.772 381.229 309.361 380.564 309.456 380.241H309.475ZM318.652 384.497V374.142H316.79V377.923H313.275V379.538H316.79V384.497H318.652ZM316.885 388.715C316.885 389.646 315.517 390.615 313.351 390.615C311.185 390.615 309.817 389.646 309.817 388.715V388.183C309.817 387.252 311.185 386.283 313.351 386.283C315.517 386.283 316.885 387.252 316.885 388.183V388.715Z" fill="#19B29B"/>
<path opacity="0.2" d="M174.498 324L168.998 318H179.998L174.498 324Z" fill="#19B29B"/>
<path opacity="0.5" d="M174.498 336L168.998 330H179.998L174.498 336Z" fill="#19B29B"/>
<path d="M174.498 348L168.998 342H179.998L174.498 348Z" fill="#19B29B"/>
<path d="M268.041 20.029C268.184 19.215 268.261 18.225 268.261 17.609V15.915H261.562V16.85H267.15V17.565C267.15 18.214 267.084 19.182 266.908 20.029H260.352V20.953H269.658V20.029H268.041ZM262.783 22.108H261.694V25.43H268.514V24.484H262.783V22.108ZM273.818 21.613V23.263H269.704V24.187H279.01V23.263H274.896V21.613H277.899V20.689H272.091V19.358H277.657V16.201H270.969V17.125H276.579V18.434H271.013V21.613H273.818ZM282.102 20.524C282.19 20.744 282.465 21.052 282.773 21.382C283.191 21.833 283.653 22.295 284.401 22.977L285.116 22.24C284.467 21.668 284.005 21.239 283.532 20.722C282.751 19.875 282.63 19.545 282.63 18.676V17.268H284.753V16.322H279.352V17.268H281.53V18.676C281.53 19.49 281.409 19.908 280.683 20.711C280.188 21.261 279.649 21.8 278.989 22.394L279.704 23.131C280.441 22.449 280.991 21.888 281.442 21.393C281.794 21.008 281.992 20.766 282.091 20.524H282.102ZM288.548 19.149H286.986V15.398H285.897V25.54H286.986V20.095H288.548V19.149ZM295.788 15.904H291.157V20.194H295.788V15.904ZM296.25 21.855V20.788H295.161V21.855H292.389V22.757H295.161C295.128 23.219 294.93 23.516 294.237 23.835C293.61 24.121 292.961 24.363 291.971 24.726L292.378 25.606C293.214 25.298 293.929 25.012 294.545 24.748C295.15 24.484 295.546 24.198 295.711 23.934C295.876 24.198 296.261 24.473 296.866 24.737C297.482 25.001 298.197 25.287 299.033 25.595L299.429 24.715C298.417 24.363 297.845 24.132 297.174 23.835C296.459 23.516 296.272 23.219 296.25 22.757H299.011V21.855H296.25ZM292.213 16.817H294.732V19.281H292.213V16.817ZM298.901 20.953V15.398H297.823V20.953H298.901ZM310.343 25.54V15.398H309.254V25.54H310.343ZM305.008 16.08C303.523 16.08 302.445 17.081 302.445 19.028V20.172C302.445 22.108 303.523 23.109 305.008 23.109C306.493 23.109 307.571 22.108 307.571 20.172V19.028C307.571 17.092 306.493 16.08 305.008 16.08ZM305.008 22.13C304.216 22.13 303.49 21.569 303.49 20.018V19.182C303.49 17.631 304.216 17.07 305.008 17.07C305.789 17.07 306.526 17.631 306.526 19.182V20.018C306.526 21.569 305.8 22.13 305.008 22.13ZM316.989 25.045H318.056V20.106H319.145V25.54H320.212V15.398H319.145V19.16H318.056V15.607H316.989V25.045ZM313.931 18.522C312.589 18.522 311.687 19.446 311.687 20.491V21.019C311.687 22.064 312.589 22.988 313.931 22.988C315.273 22.988 316.175 22.064 316.175 21.019V20.491C316.175 19.446 315.273 18.522 313.931 18.522ZM316.34 17.103H314.426V15.684H313.359V17.103H311.324V18.016H316.34V17.103ZM313.931 22.097C313.106 22.097 312.666 21.481 312.666 20.964V20.546C312.666 20.029 313.106 19.413 313.931 19.413C314.756 19.413 315.196 20.029 315.196 20.546V20.964C315.196 21.481 314.756 22.097 313.931 22.097ZM328.716 22.922V19.435H330.146V18.489H328.716V15.398H327.638V22.922H328.716ZM323.337 22.394H322.248V25.441H328.991V24.506H323.337V22.394ZM327.011 20.26C325.856 20.37 324.954 20.425 323.744 20.458V18.379H322.666V20.48H320.642V21.415C324.03 21.415 325.35 21.338 327.099 21.162L327.011 20.26ZM326.054 19.534C326.208 18.896 326.307 17.906 326.307 17.125V15.915H321.324V16.85H325.229V17.279C325.229 17.906 325.152 18.643 324.987 19.402L326.054 19.534ZM333.151 18.269C333.151 19.765 333.151 20.535 330.049 22.526L330.654 23.373C333.635 21.382 334.152 20.535 334.207 18.819H335.67V20.491H334.185V21.437H335.67V25.045H336.737V15.607H335.67V17.873H334.218V16.388H330.335V17.323H333.151V18.269ZM338.805 15.398H337.738V25.54H338.805V15.398ZM342.393 20.524C342.481 20.744 342.756 21.052 343.064 21.382C343.482 21.833 343.944 22.295 344.692 22.977L345.407 22.24C344.758 21.668 344.296 21.239 343.823 20.722C343.042 19.875 342.921 19.545 342.921 18.676V17.268H345.044V16.322H339.643V17.268H341.821V18.676C341.821 19.49 341.7 19.908 340.974 20.711C340.479 21.261 339.94 21.8 339.28 22.394L339.995 23.131C340.732 22.449 341.282 21.888 341.733 21.393C342.085 21.008 342.283 20.766 342.382 20.524H342.393ZM348.839 19.149H347.277V15.398H346.188V25.54H347.277V20.095H348.839V19.149Z" fill="#19B29B"/>
<path d="M292.337 39.263V36.81C292.997 36.381 293.415 35.754 293.415 34.951V34.423C293.415 32.894 291.864 31.948 290.005 31.948C288.146 31.948 286.595 32.894 286.595 34.423V34.951C286.595 35.754 287.013 36.381 287.673 36.81V39.263H285.352V40.187H294.658V39.263H292.337ZM290.005 32.894C291.27 32.894 292.348 33.499 292.348 34.478V34.896C292.348 35.875 291.27 36.48 290.005 36.48C288.74 36.48 287.662 35.875 287.662 34.896V34.478C287.662 33.499 288.74 32.894 290.005 32.894ZM290.005 37.415C290.445 37.415 290.863 37.36 291.259 37.261V39.263H288.751V37.261C289.136 37.36 289.565 37.415 290.005 37.415ZM302.294 36.59C302.503 35.49 302.602 34.379 302.602 33.323V32.025H295.87V32.982H301.513V33.576C301.513 34.555 301.425 35.512 301.194 36.59H294.704V37.514H298.807V41.54H299.907V37.514H304.01V36.59H302.294ZM313.548 35.061H311.986V31.398H310.897V41.54H311.986V36.007H313.548V35.061ZM307.069 36.447C307.157 36.667 307.421 36.975 307.729 37.305C308.147 37.756 308.642 38.251 309.401 38.955L310.105 38.207C309.445 37.624 308.961 37.162 308.488 36.645C307.817 35.897 307.608 35.446 307.608 34.577V32.135H306.508V34.577C306.508 35.358 306.332 35.853 305.661 36.612C305.166 37.162 304.594 37.723 303.923 38.317L304.638 39.054C305.386 38.372 305.969 37.789 306.42 37.294C306.772 36.909 306.959 36.689 307.058 36.447H307.069ZM318.445 37.998C316.509 37.998 315.387 38.757 315.387 39.736V40.088C315.387 41.067 316.509 41.826 318.445 41.826C320.381 41.826 321.503 41.067 321.503 40.088V39.736C321.503 38.757 320.381 37.998 318.445 37.998ZM316.443 37.547C318.016 37.547 318.808 36.667 318.808 35.831V35.501C318.808 34.665 318.016 33.785 316.443 33.785C314.87 33.785 314.078 34.654 314.078 35.501V35.831C314.078 36.667 314.87 37.547 316.443 37.547ZM321.415 37.8V35.127H322.856V34.181H321.415V31.398H320.337V37.8H321.415ZM318.445 40.946C317.202 40.946 316.454 40.506 316.454 40.022V39.802C316.454 39.318 317.202 38.878 318.445 38.878C319.688 38.878 320.436 39.318 320.436 39.802V40.022C320.436 40.506 319.688 40.946 318.445 40.946ZM319.347 32.487H316.982V31.288H315.904V32.487H313.528V33.4H319.347V32.487ZM316.443 36.678C315.552 36.678 315.112 36.205 315.112 35.776V35.556C315.112 35.127 315.541 34.654 316.443 34.654C317.345 34.654 317.774 35.127 317.774 35.556V35.776C317.774 36.205 317.334 36.678 316.443 36.678Z" fill="#19B29B"/>
<path opacity="0.2" d="M282.609 60.8984L282.87 55.9586L287.558 60.6384L282.609 60.8984Z" fill="#19B29B"/>
<path opacity="0.5" d="M278.443 65.0527L278.703 60.1129L283.392 64.7927L278.443 65.0527Z" fill="#19B29B"/>
<path d="M274.275 69.2148L274.536 64.275L279.224 68.9548L274.275 69.2148Z" fill="#19B29B"/>
<path opacity="0.2" d="M71.5016 60.9063L66.5531 60.6463L71.2412 55.9665L71.5016 60.9063Z" fill="#19B29B"/>
<path opacity="0.5" d="M75.6696 65.0664L70.721 64.8065L75.4092 60.1267L75.6696 65.0664Z" fill="#19B29B"/>
<path d="M79.8356 69.2286L74.887 68.9686L79.5752 64.2888L79.8356 69.2286Z" fill="#19B29B"/>
<path d="M24.15 38.284C23.248 38.372 22.346 38.438 21.312 38.471V36.81C22.632 36.601 23.446 35.622 23.446 34.665V34.159C23.446 33.07 22.423 31.97 20.751 31.97C19.079 31.97 18.056 33.07 18.056 34.159V34.665C18.056 35.633 18.87 36.601 20.201 36.81V38.504C19.42 38.515 18.551 38.526 17.572 38.515V39.461C20.454 39.461 22.39 39.384 24.249 39.197L24.15 38.284ZM25.877 41.54V31.398H24.799V41.54H25.877ZM20.751 35.908C19.816 35.908 19.101 35.281 19.101 34.599V34.225C19.101 33.51 19.816 32.916 20.751 32.916C21.686 32.916 22.401 33.51 22.401 34.225V34.599C22.401 35.281 21.686 35.908 20.751 35.908ZM34.6897 31.783H33.6117V33.18H29.1017V31.794H28.0237V36.282H34.6897V31.783ZM31.9067 41.54V38.317H36.0097V37.393H26.7037V38.317H30.8067V41.54H31.9067ZM29.1017 34.104H33.6117V35.347H29.1017V34.104ZM43.4364 31.904H38.8054V36.194H43.4364V31.904ZM43.8984 37.855V36.788H42.8094V37.855H40.0374V38.757H42.8094C42.7764 39.219 42.5784 39.516 41.8854 39.835C41.2584 40.121 40.6094 40.363 39.6194 40.726L40.0264 41.606C40.8624 41.298 41.5774 41.012 42.1934 40.748C42.7984 40.484 43.1944 40.198 43.3594 39.934C43.5244 40.198 43.9094 40.473 44.5144 40.737C45.1304 41.001 45.8454 41.287 46.6814 41.595L47.0774 40.715C46.0654 40.363 45.4934 40.132 44.8224 39.835C44.1074 39.516 43.9204 39.219 43.8984 38.757H46.6594V37.855H43.8984ZM39.8614 32.817H42.3804V35.281H39.8614V32.817ZM46.5494 36.953V31.398H45.4714V36.953H46.5494ZM58.3652 31.398H57.2982V34.698H56.0112V31.607H54.9442V41.045H56.0112V35.644H57.2982V41.54H58.3652V31.398ZM50.0602 32.355V38.757H51.1162C52.3702 38.757 53.4152 38.713 54.3062 38.548L54.1852 37.602C53.2722 37.756 52.4252 37.8 51.5892 37.8H51.1492V32.355H50.0602ZM66.9249 31.783H65.8469V33.18H61.3369V31.794H60.2589V36.282H66.9249V31.783ZM64.1419 41.54V38.317H68.2449V37.393H58.9389V38.317H63.0419V41.54H64.1419ZM61.3369 34.104H65.8469V35.347H61.3369V34.104ZM76.6946 41.54V31.398H75.6056V41.54H76.6946ZM71.3596 32.08C69.8746 32.08 68.7966 33.081 68.7966 35.028V36.172C68.7966 38.108 69.8746 39.109 71.3596 39.109C72.8446 39.109 73.9226 38.108 73.9226 36.172V35.028C73.9226 33.092 72.8446 32.08 71.3596 32.08ZM71.3596 38.13C70.5676 38.13 69.8416 37.569 69.8416 36.018V35.182C69.8416 33.631 70.5676 33.07 71.3596 33.07C72.1406 33.07 72.8776 33.631 72.8776 35.182V36.018C72.8776 37.569 72.1516 38.13 71.3596 38.13ZM84.6053 41.518V38.053H86.9483V37.129H77.6423V38.053H79.9853V41.518H81.0743V38.053H83.5163V41.518H84.6053ZM83.5163 35.204C84.1103 35.501 84.9573 35.886 85.8593 36.238L86.2773 35.358C85.4633 35.05 84.5613 34.665 83.8573 34.28C83.1093 33.873 82.8343 33.477 82.8343 32.652V31.75H81.7453V32.652C81.7453 33.477 81.4593 33.873 80.7113 34.28C80.0073 34.665 79.1053 35.05 78.2913 35.358L78.7203 36.249C79.6223 35.897 80.4693 35.512 81.0633 35.215C81.7893 34.852 82.1523 34.566 82.2843 34.324H82.2953C82.4383 34.566 82.7903 34.841 83.5163 35.204Z" fill="#19B29B"/>
<path d="M270.974 186.778C275.171 186.778 278.602 190.185 278.288 194.37C277.483 205.076 274.981 215.602 270.861 225.551C265.769 237.843 258.307 249.012 248.9 258.421C239.492 267.829 228.324 275.292 216.032 280.384C206.085 284.504 195.559 287.006 184.855 287.811C180.67 288.125 177.263 284.694 177.263 280.497C177.263 276.3 180.671 272.933 184.852 272.563C193.559 271.793 202.114 269.699 210.217 266.343C220.665 262.015 230.158 255.671 238.154 247.674C246.15 239.677 252.493 230.184 256.821 219.735C260.178 211.631 262.271 203.075 263.041 194.367C263.411 190.187 266.778 186.778 270.974 186.778Z" fill="#CBE0FF"/>
<path d="M201.518 277.299C202.604 281.353 200.201 285.549 196.078 286.329C185.53 288.322 174.715 288.63 164.04 287.224C150.85 285.488 138.131 281.17 126.609 274.517C115.087 267.864 104.988 259.007 96.8893 248.452C90.3344 239.909 85.1933 230.388 81.6457 220.255C80.259 216.295 82.6919 212.116 86.7453 211.03C90.7987 209.944 94.9331 212.364 96.3721 216.306C99.3699 224.519 103.606 232.241 108.945 239.2C115.83 248.172 124.414 255.701 134.207 261.356C144.001 267.01 154.812 270.68 166.024 272.157C174.719 273.302 183.524 273.109 192.134 271.6C196.268 270.875 200.432 273.245 201.518 277.299Z" fill="url(#paint0_linear_1_18498)"/>
<path d="M110.998 253.043C108.03 256.01 103.195 256.028 100.459 252.846C93.4578 244.707 87.7842 235.494 83.6637 225.546C78.5725 213.254 75.952 200.079 75.952 186.773C75.952 173.468 78.5725 160.293 83.6637 148.001C87.7842 138.052 93.4578 128.84 100.459 120.701C103.195 117.519 108.03 117.537 110.998 120.504C113.965 123.472 113.936 128.263 111.241 131.481C105.629 138.183 101.06 145.713 97.7034 153.817C93.3758 164.265 91.1484 175.464 91.1484 186.773C91.1484 198.083 93.3758 209.282 97.7034 219.73C101.06 227.834 105.629 235.364 111.241 242.066C113.936 245.284 113.965 250.075 110.998 253.043Z" fill="url(#paint1_linear_1_18498)"/>
<path d="M96.1053 139.914C92.4712 137.816 91.2026 133.15 93.5671 129.683C99.6163 120.814 107.046 112.948 115.588 106.393C126.143 98.2934 138.19 92.3521 151.041 88.9085C163.892 85.4649 177.295 84.5863 190.485 86.323C201.16 87.7285 211.527 90.8247 221.2 95.4808C224.981 97.301 226.216 101.976 224.118 105.611C222.019 109.245 217.384 110.457 213.579 108.687C205.653 105 197.198 102.535 188.502 101.391C177.29 99.9144 165.897 100.661 154.974 103.588C144.051 106.515 133.811 111.565 124.839 118.45C117.881 123.79 111.791 130.153 106.77 137.309C104.36 140.744 99.7395 142.013 96.1053 139.914Z" fill="url(#paint2_linear_1_18498)"/>
<path d="M201.516 96.2407C202.603 92.187 206.781 89.754 210.742 91.141C220.874 94.6889 230.393 99.8303 238.936 106.385C249.49 114.485 258.347 124.585 264.999 136.107C271.651 147.63 275.969 160.35 277.705 173.541C279.111 184.218 278.803 195.033 276.809 205.583C276.03 209.706 271.834 212.108 267.78 211.022C263.727 209.936 261.357 205.772 262.081 201.639C263.591 193.028 263.783 184.222 262.639 175.525C261.163 164.312 257.493 153.5 251.838 143.706C246.184 133.912 238.656 125.327 229.685 118.442C222.726 113.103 215.005 108.867 206.793 105.869C202.851 104.429 200.43 100.294 201.516 96.2407Z" fill="url(#paint3_linear_1_18498)"/>
<path d="M270.974 186.778C275.171 186.778 278.602 190.185 278.288 194.37C277.204 208.798 273.039 222.858 266.041 235.588C259.043 248.319 249.405 259.368 237.805 268.015C234.44 270.523 229.724 269.451 227.476 265.907C225.227 262.364 226.301 257.695 229.632 255.143C239.087 247.899 246.96 238.753 252.724 228.267C258.489 217.78 261.992 206.232 263.041 194.367C263.411 190.187 266.778 186.778 270.974 186.778Z" fill="url(#paint4_linear_1_18498)"/>
<path d="M245.215 186.535C245.215 224.461 214.472 255.206 176.549 255.206C138.625 255.206 107.882 224.461 107.882 186.535C107.882 148.608 138.625 117.863 176.549 117.863C214.472 117.863 245.215 148.608 245.215 186.535Z" fill="white" stroke="url(#paint5_linear_1_18498)" stroke-width="0.475867"/>
<path d="M161.638 160.326V163.324H163.998V164.228H160.448V165.028H168.5V164.228H164.95V163.324H167.319V162.525H162.57V161.126H167.262V160.326H161.638ZM164.474 169.025C166.158 169.025 167.215 168.33 167.215 167.445V167.122C167.215 166.218 166.149 165.542 164.474 165.542C162.799 165.542 161.733 166.208 161.733 167.122V167.445C161.733 168.34 162.799 169.025 164.474 169.025ZM164.474 166.313C165.549 166.313 166.282 166.722 166.282 167.179V167.388C166.282 167.845 165.549 168.254 164.474 168.254C163.398 168.254 162.665 167.845 162.665 167.388V167.179C162.665 166.722 163.398 166.313 164.474 166.313ZM175.449 160.336H174.516V161.545H170.614V160.345H169.681V164.228H175.449V160.336ZM173.041 168.778V165.989H176.591V165.19H168.539V165.989H172.089V168.778H173.041ZM170.614 162.344H174.516V163.419H170.614V162.344ZM183.959 166.265V160.003H183.026V162.325H181.018C181.027 162.258 181.027 162.182 181.027 162.106V160.564H177.287V161.364H180.104V162.058C180.104 163.02 179.647 163.486 176.925 164.676L177.297 165.437C179.495 164.495 180.466 163.914 180.828 163.134H183.026V166.265H183.959ZM179.419 165.799H178.477V168.683H184.14V167.864H179.419V165.799ZM192.259 168.835V168.054H187.501V167.207H192.012V164.828H186.53V165.608H191.089V166.446H186.577V168.835H192.259ZM187.415 162.687C187.472 162.829 187.672 163.01 187.957 163.248C188.414 163.629 188.824 163.933 189.338 164.295L189.861 163.629C189.299 163.248 188.795 162.887 188.348 162.477C187.891 162.058 187.853 161.725 187.853 161.116V160.222H186.901V161.154C186.901 161.849 186.796 162.201 186.301 162.677C185.968 163.001 185.378 163.477 184.731 163.933L185.274 164.6C185.807 164.209 186.397 163.753 186.787 163.391C187.082 163.124 187.358 162.848 187.405 162.687H187.415ZM192.012 164.39V160.003H191.079V161.602H189.328V162.43H191.079V164.39H192.012ZM140.458 178.858C140.458 179.724 141.172 180.866 142.656 180.866C144.141 180.866 144.855 179.724 144.855 178.858V178.363C144.855 177.497 144.141 176.355 142.656 176.355C141.172 176.355 140.458 177.497 140.458 178.363V178.858ZM148.395 178.458H147.148V176.003H146.216V182.265H147.148V179.277H148.395V178.458ZM142.732 181.77H141.79V184.683H147.386V183.864H142.732V181.77ZM143.951 178.82C143.951 179.4 143.57 180.048 142.656 180.048C141.752 180.048 141.362 179.4 141.362 178.82V178.401C141.362 177.821 141.743 177.173 142.656 177.173C143.57 177.173 143.951 177.821 143.951 178.401V178.82ZM151.147 179.458C151.214 179.6 151.404 179.781 151.69 180.019C152.147 180.4 152.556 180.714 153.051 181.056L153.584 180.371C153.032 180 152.537 179.638 152.08 179.239C151.671 178.887 151.585 178.525 151.585 177.916V177.373H153.317V176.564H148.787V177.373H150.633V177.954C150.633 178.649 150.481 179.029 150.015 179.467C149.682 179.781 149.101 180.228 148.492 180.657L149.044 181.332C149.577 180.961 150.1 180.562 150.5 180.2C150.795 179.933 151.081 179.619 151.138 179.458H151.147ZM155.639 182.256V176.003H154.707V178.239H153.089V179.048H154.707V182.256H155.639ZM151.1 181.751H150.157V184.683H155.82V183.864H151.1V181.751ZM163.321 176.64H162.389V178.144H158.468V176.65H157.535V181.152H159.952V182.808H156.402V183.607H164.454V182.808H160.894V181.152H163.321V176.64ZM158.468 178.944H162.389V180.352H158.468V178.944ZM171.822 182.265V176.003H170.889V178.325H168.881C168.891 178.258 168.891 178.182 168.891 178.106V176.564H165.15V177.364H167.967V178.058C167.967 179.02 167.511 179.486 164.789 180.676L165.16 181.437C167.358 180.495 168.329 179.914 168.691 179.134H170.889V182.265H171.822ZM167.282 181.799H166.34V184.683H172.003V183.864H167.282V181.799ZM174.564 183.35C174.564 184.273 175.573 185.025 177.258 185.025C178.942 185.025 179.951 184.273 179.951 183.35V182.969C179.951 182.046 178.942 181.294 177.258 181.294C175.573 181.294 174.564 182.046 174.564 182.969V183.35ZM176.03 177.859C176.03 178.867 175.516 179.334 172.87 180.438L173.241 181.19C176.239 179.914 176.953 179.381 176.953 177.925V176.545H173.232V177.345H176.03V177.859ZM179.913 181.18V176.003H178.99V177.269H177.439V178.078H178.99V179.096H177.296V179.905H178.99V181.18H179.913ZM179.028 183.293C179.028 183.759 178.343 184.254 177.258 184.254C176.173 184.254 175.488 183.759 175.488 183.293V183.027C175.488 182.56 176.173 182.065 177.258 182.065C178.343 182.065 179.028 182.56 179.028 183.027V183.293ZM182.656 183.35C182.656 184.273 183.664 185.025 185.349 185.025C187.034 185.025 188.042 184.273 188.042 183.35V182.969C188.042 182.046 187.034 181.294 185.349 181.294C183.664 181.294 182.656 182.046 182.656 182.969V183.35ZM185.311 178.258C185.311 177.411 184.626 176.336 183.131 176.336C181.637 176.336 180.952 177.411 180.952 178.258V178.744C180.952 179.591 181.637 180.666 183.131 180.666C184.626 180.666 185.311 179.591 185.311 178.744V178.258ZM188.004 181.18V176.003H187.081V177.097H185.701V177.906H187.081V179.077H185.701V179.886H187.081V181.18H188.004ZM187.119 183.293C187.119 183.759 186.434 184.254 185.349 184.254C184.264 184.254 183.579 183.759 183.579 183.293V183.027C183.579 182.56 184.264 182.065 185.349 182.065C186.434 182.065 187.119 182.56 187.119 183.027V183.293ZM184.407 178.696C184.407 179.258 184.007 179.848 183.131 179.848C182.256 179.848 181.856 179.258 181.856 178.696V178.306C181.856 177.744 182.256 177.154 183.131 177.154C184.007 177.154 184.407 177.744 184.407 178.306V178.696ZM196.038 184.778V176.003H195.096V184.778H196.038ZM191.527 180.39C191.603 180.581 191.832 180.847 192.098 181.133C192.46 181.523 192.888 181.951 193.545 182.56L194.154 181.913C193.583 181.409 193.164 181.009 192.755 180.562C192.174 179.914 191.994 179.524 191.994 178.772V176.631H191.042V178.772C191.042 179.448 190.89 179.876 190.309 180.533C189.881 181.009 189.386 181.494 188.805 182.008L189.424 182.646C190.071 182.056 190.576 181.551 190.966 181.123C191.27 180.79 191.432 180.6 191.518 180.39H191.527ZM196.858 182.808V183.607H204.91V182.808H196.858ZM200.894 179.324C200.998 179.543 201.389 179.876 202.007 180.267C202.578 180.628 203.273 181.028 203.977 181.428L204.434 180.695C203.682 180.286 203.13 179.971 202.531 179.581C201.503 178.906 201.36 178.515 201.36 177.583V176.621H200.408V177.583C200.408 178.515 200.209 178.925 199.342 179.515C198.705 179.943 198.105 180.286 197.344 180.704L197.81 181.447C198.6 181.009 199.209 180.638 199.761 180.286C200.399 179.876 200.789 179.543 200.884 179.324H200.894ZM212.411 181.561H206.825V184.787H212.411V181.561ZM209.042 179.753C208.147 179.857 207.624 179.886 206.196 179.886V178.944H208.281V178.192H206.196V177.25H208.661V176.479H205.292V180.657C207.653 180.657 208.243 180.638 209.137 180.514L209.042 179.753ZM211.488 183.997H207.748V182.351H211.488V183.997ZM208.757 178.848H209.87V181.085H210.765V176.117H209.87V178.049H208.757V178.848ZM211.507 181.104H212.411V176.003H211.507V181.104Z" fill="#19B29B"/>
<path d="M159.429 199.466C158.965 199.466 158.465 199.309 157.958 198.938L157.701 199.359C158.158 199.709 158.772 199.93 159.45 199.93C160.564 199.93 161.22 199.316 161.22 198.581V198.417C161.22 197.682 160.849 197.289 159.522 196.989C158.586 196.775 158.301 196.518 158.301 196.076V195.933C158.301 195.397 158.843 195.083 159.479 195.083C160.007 195.083 160.442 195.233 160.771 195.469L161.006 195.062C160.656 194.812 160.171 194.627 159.479 194.627C158.501 194.627 157.794 195.155 157.794 195.933V196.097C157.794 196.747 158.165 197.175 159.364 197.446C160.464 197.696 160.714 197.946 160.714 198.431V198.581C160.714 199.045 160.235 199.466 159.429 199.466ZM162.787 199.909C163.079 199.909 163.351 199.852 163.565 199.745C163.765 199.645 163.922 199.502 163.993 199.38H164V199.852H164.471V197.161C164.471 196.383 163.943 195.933 163.087 195.933C162.501 195.933 162.066 196.14 161.709 196.39L161.944 196.761C162.273 196.532 162.665 196.368 163.079 196.368C163.679 196.368 163.993 196.682 163.993 197.239V197.596H162.908C162.016 197.596 161.552 198.031 161.552 198.652V198.809C161.552 199.488 162.059 199.909 162.787 199.909ZM163.993 198.652C163.993 198.945 163.836 199.138 163.629 199.266C163.401 199.409 163.165 199.488 162.858 199.488C162.466 199.488 162.037 199.288 162.037 198.788V198.674C162.037 198.281 162.301 198.003 162.915 198.003H163.993V198.652ZM165.436 199.852H165.922V196.418H166.985V196.004H165.922V195.54C165.922 195.019 166.079 194.834 166.464 194.834C166.657 194.834 166.828 194.855 167.007 194.905L167.078 194.505C166.928 194.448 166.636 194.412 166.429 194.412C165.786 194.412 165.436 194.684 165.436 195.519V196.004H164.78V196.418H165.436V199.852ZM167.615 197.675V197.61C167.615 196.854 168.015 196.361 168.693 196.361C169.364 196.361 169.756 196.811 169.756 197.61V197.675H167.615ZM169.942 199.102C169.664 199.302 169.278 199.48 168.764 199.48C168.058 199.48 167.615 198.995 167.615 198.146V198.081H170.242V197.682C170.242 196.604 169.692 195.933 168.693 195.933C167.729 195.933 167.13 196.575 167.13 197.667V198.146C167.13 199.266 167.736 199.909 168.757 199.909C169.407 199.909 169.849 199.687 170.156 199.473L169.942 199.102ZM171.069 198.781C171.069 199.616 171.39 199.887 172.061 199.887C172.268 199.887 172.561 199.852 172.711 199.794L172.64 199.395C172.461 199.445 172.29 199.466 172.097 199.466C171.712 199.466 171.555 199.281 171.555 198.759V196.418H172.618V196.004H171.555V195.012H171.069V196.004H170.413V196.418H171.069V198.781ZM172.659 196.004L174.101 199.916L173.608 201.293L174.022 201.443L176.021 196.004H175.521L174.351 199.309L173.159 196.004H172.659ZM180.81 199.852H181.309V194.705H180.81V196.918H178.161V194.705H177.662V199.852H178.161V197.418H180.81V199.852ZM182.35 197.675V197.61C182.35 196.854 182.749 196.361 183.428 196.361C184.099 196.361 184.491 196.811 184.491 197.61V197.675H182.35ZM184.677 199.102C184.398 199.302 184.013 199.48 183.499 199.48C182.792 199.48 182.35 198.995 182.35 198.146V198.081H184.977V197.682C184.977 196.604 184.427 195.933 183.428 195.933C182.464 195.933 181.864 196.575 181.864 197.667V198.146C181.864 199.266 182.471 199.909 183.492 199.909C184.141 199.909 184.584 199.687 184.891 199.473L184.677 199.102ZM186.546 199.909C186.839 199.909 187.11 199.852 187.324 199.745C187.524 199.645 187.681 199.502 187.753 199.38H187.76V199.852H188.231V197.161C188.231 196.383 187.703 195.933 186.846 195.933C186.261 195.933 185.825 196.14 185.468 196.39L185.704 196.761C186.032 196.532 186.425 196.368 186.839 196.368C187.439 196.368 187.753 196.682 187.753 197.239V197.596H186.668C185.775 197.596 185.311 198.031 185.311 198.652V198.809C185.311 199.488 185.818 199.909 186.546 199.909ZM187.753 198.652C187.753 198.945 187.596 199.138 187.389 199.266C187.16 199.409 186.925 199.488 186.618 199.488C186.225 199.488 185.797 199.288 185.797 198.788V198.674C185.797 198.281 186.061 198.003 186.675 198.003H187.753V198.652ZM188.882 199.852H189.367V194.455H188.882V199.852ZM190.378 198.781C190.378 199.616 190.699 199.887 191.37 199.887C191.577 199.887 191.869 199.852 192.019 199.794L191.948 199.395C191.769 199.445 191.598 199.466 191.405 199.466C191.02 199.466 190.863 199.281 190.863 198.759V196.418H191.927V196.004H190.863V195.012H190.378V196.004H189.721V196.418H190.378V198.781ZM194.073 195.933C193.466 195.933 193.081 196.247 192.902 196.54V194.455H192.417V199.852H192.902V197.353C192.902 196.904 193.352 196.375 194.002 196.375C194.765 196.375 194.972 196.832 194.972 197.382V199.852H195.458V197.261C195.458 196.461 194.951 195.933 194.073 195.933ZM148.305 208.995H148.776L150.154 206.083C150.275 205.84 150.332 205.74 150.397 205.433V209.852H150.889V204.705H150.297L148.548 208.474L146.806 204.705H146.192V209.852H146.685V205.433C146.763 205.74 146.82 205.84 146.942 206.083L148.305 208.995ZM152.668 209.909C152.961 209.909 153.232 209.852 153.446 209.745C153.646 209.645 153.803 209.502 153.874 209.38H153.881V209.852H154.353V207.161C154.353 206.383 153.824 205.933 152.968 205.933C152.382 205.933 151.947 206.14 151.59 206.39L151.826 206.761C152.154 206.532 152.547 206.368 152.961 206.368C153.56 206.368 153.874 206.682 153.874 207.239V207.596H152.789C151.897 207.596 151.433 208.031 151.433 208.652V208.809C151.433 209.488 151.94 209.909 152.668 209.909ZM153.874 208.652C153.874 208.945 153.717 209.138 153.51 209.266C153.282 209.409 153.046 209.488 152.739 209.488C152.347 209.488 151.918 209.288 151.918 208.788V208.674C151.918 208.281 152.183 208.003 152.796 208.003H153.874V208.652ZM156.66 205.933C156.053 205.933 155.66 206.247 155.482 206.54V206.004H155.004V209.852H155.489V207.353C155.489 206.904 155.939 206.375 156.588 206.375C157.352 206.375 157.559 206.832 157.559 207.382V209.852H158.044V207.261C158.044 206.461 157.538 205.933 156.66 205.933ZM159.772 209.909C160.065 209.909 160.336 209.852 160.55 209.745C160.75 209.645 160.907 209.502 160.978 209.38H160.985V209.852H161.457V207.161C161.457 206.383 160.928 205.933 160.072 205.933C159.486 205.933 159.051 206.14 158.694 206.39L158.93 206.761C159.258 206.532 159.651 206.368 160.065 206.368C160.664 206.368 160.978 206.682 160.978 207.239V207.596H159.893C159.001 207.596 158.537 208.031 158.537 208.652V208.809C158.537 209.488 159.044 209.909 159.772 209.909ZM160.978 208.652C160.978 208.945 160.821 209.138 160.614 209.266C160.386 209.409 160.15 209.488 159.843 209.488C159.451 209.488 159.022 209.288 159.022 208.788V208.674C159.022 208.281 159.287 208.003 159.9 208.003H160.978V208.652ZM164.606 209.802C164.606 210.608 164.228 210.987 163.521 210.987C163.085 210.987 162.814 210.915 162.457 210.665L162.236 211.044C162.557 211.293 162.978 211.443 163.521 211.443C164.477 211.443 165.091 210.879 165.091 209.787V206.004H164.613V206.475C164.413 206.19 164.021 205.933 163.457 205.933C162.579 205.933 161.929 206.532 161.929 207.582V208.188C161.929 209.238 162.579 209.837 163.464 209.837C163.906 209.837 164.385 209.659 164.599 209.273H164.606V209.802ZM162.414 207.653C162.414 206.839 162.836 206.361 163.485 206.361C164.142 206.361 164.606 206.868 164.606 207.318V208.403C164.606 209.081 164.106 209.409 163.485 209.409C162.843 209.409 162.414 208.938 162.414 208.117V207.653ZM166.12 207.675V207.61C166.12 206.854 166.52 206.361 167.198 206.361C167.869 206.361 168.261 206.811 168.261 207.61V207.675H166.12ZM168.447 209.102C168.168 209.302 167.783 209.48 167.269 209.48C166.562 209.48 166.12 208.995 166.12 208.146V208.081H168.747V207.682C168.747 206.604 168.197 205.933 167.198 205.933C166.234 205.933 165.634 206.575 165.634 207.667V208.146C165.634 209.266 166.241 209.909 167.262 209.909C167.911 209.909 168.354 209.687 168.661 209.473L168.447 209.102ZM173.164 205.933C172.551 205.933 172.165 206.304 171.994 206.632C171.823 206.19 171.444 205.933 170.83 205.933C170.266 205.933 169.924 206.233 169.753 206.54V206.004H169.274V209.852H169.76V207.353C169.76 206.904 170.109 206.375 170.745 206.375C171.437 206.375 171.608 206.768 171.608 207.389V209.852H172.094V207.325C172.108 206.882 172.458 206.375 173.079 206.375C173.771 206.375 173.943 206.768 173.943 207.389V209.852H174.428V207.261C174.428 206.447 174.035 205.933 173.164 205.933ZM175.42 207.675V207.61C175.42 206.854 175.819 206.361 176.497 206.361C177.168 206.361 177.561 206.811 177.561 207.61V207.675H175.42ZM177.747 209.102C177.468 209.302 177.083 209.48 176.569 209.48C175.862 209.48 175.42 208.995 175.42 208.146V208.081H178.046V207.682C178.046 206.604 177.497 205.933 176.497 205.933C175.534 205.933 174.934 206.575 174.934 207.667V208.146C174.934 209.266 175.541 209.909 176.562 209.909C177.211 209.909 177.654 209.687 177.961 209.473L177.747 209.102ZM180.23 205.933C179.623 205.933 179.231 206.247 179.052 206.54V206.004H178.574V209.852H179.059V207.353C179.059 206.904 179.509 206.375 180.159 206.375C180.922 206.375 181.129 206.832 181.129 207.382V209.852H181.615V207.261C181.615 206.461 181.108 205.933 180.23 205.933ZM182.6 208.781C182.6 209.616 182.921 209.887 183.592 209.887C183.799 209.887 184.092 209.852 184.242 209.794L184.17 209.395C183.992 209.445 183.821 209.466 183.628 209.466C183.242 209.466 183.085 209.281 183.085 208.759V206.418H184.149V206.004H183.085V205.012H182.6V206.004H181.943V206.418H182.6V208.781ZM187.58 209.466C187.116 209.466 186.617 209.309 186.11 208.938L185.853 209.359C186.31 209.709 186.924 209.93 187.602 209.93C188.715 209.93 189.372 209.316 189.372 208.581V208.417C189.372 207.682 189.001 207.289 187.673 206.989C186.738 206.775 186.452 206.518 186.452 206.076V205.933C186.452 205.397 186.995 205.083 187.63 205.083C188.158 205.083 188.594 205.233 188.922 205.469L189.158 205.062C188.808 204.812 188.323 204.627 187.63 204.627C186.652 204.627 185.946 205.155 185.946 205.933V206.097C185.946 206.747 186.317 207.175 187.516 207.446C188.615 207.696 188.865 207.946 188.865 208.431V208.581C188.865 209.045 188.387 209.466 187.58 209.466ZM189.446 206.004L190.888 209.916L190.396 211.293L190.81 211.443L192.808 206.004H192.309L191.138 209.309L189.946 206.004H189.446ZM194.292 209.473C193.843 209.473 193.429 209.309 193.079 209.074L192.843 209.459C193.207 209.723 193.7 209.909 194.321 209.909C195.135 209.909 195.734 209.48 195.734 208.867V208.759C195.734 208.146 195.334 207.839 194.385 207.66C193.778 207.546 193.421 207.375 193.421 207.039V206.961C193.421 206.625 193.736 206.361 194.314 206.361C194.806 206.361 195.106 206.482 195.427 206.697L195.649 206.333C195.334 206.097 194.913 205.933 194.328 205.933C193.386 205.933 192.936 206.404 192.936 206.954V207.054C192.936 207.682 193.443 207.931 194.214 208.081C194.949 208.224 195.249 208.395 195.249 208.781V208.852C195.249 209.181 194.913 209.473 194.292 209.473ZM196.477 208.781C196.477 209.616 196.799 209.887 197.47 209.887C197.677 209.887 197.969 209.852 198.119 209.794L198.048 209.395C197.869 209.445 197.698 209.466 197.505 209.466C197.12 209.466 196.963 209.281 196.963 208.759V206.418H198.026V206.004H196.963V205.012H196.477V206.004H195.821V206.418H196.477V208.781ZM198.824 207.675V207.61C198.824 206.854 199.223 206.361 199.901 206.361C200.572 206.361 200.965 206.811 200.965 207.61V207.675H198.824ZM201.151 209.102C200.872 209.302 200.487 209.48 199.973 209.48C199.266 209.48 198.824 208.995 198.824 208.146V208.081H201.45V207.682C201.45 206.604 200.901 205.933 199.901 205.933C198.938 205.933 198.338 206.575 198.338 207.667V208.146C198.338 209.266 198.945 209.909 199.966 209.909C200.615 209.909 201.058 209.687 201.365 209.473L201.151 209.102ZM205.868 205.933C205.254 205.933 204.869 206.304 204.698 206.632C204.526 206.19 204.148 205.933 203.534 205.933C202.97 205.933 202.628 206.233 202.456 206.54V206.004H201.978V209.852H202.463V207.353C202.463 206.904 202.813 206.375 203.448 206.375C204.141 206.375 204.312 206.768 204.312 207.389V209.852H204.798V207.325C204.812 206.882 205.162 206.375 205.783 206.375C206.475 206.375 206.646 206.768 206.646 207.389V209.852H207.132V207.261C207.132 206.447 206.739 205.933 205.868 205.933Z" fill="#555555"/>
<path d="M176.548 85.4629H177.023V64.4039H176.548V85.4629Z" fill="#CCCCCC"/>
<g filter="url(#filter0_d_1_18498)">
<ellipse cx="177.024" cy="34.94" rx="29.9377" ry="29.94" fill="white"/>
<path d="M206.723 34.94C206.723 51.3441 193.426 64.6422 177.024 64.6422C160.621 64.6422 147.324 51.3441 147.324 34.94C147.324 18.536 160.621 5.23793 177.024 5.23793C193.426 5.23793 206.723 18.536 206.723 34.94Z" stroke="#DDDDDD" stroke-width="0.475867"/>
</g>
<path d="M170.759 26.1044C170.759 27.6577 170.759 28.4571 167.539 30.5243L168.167 31.4037C171.262 29.3365 171.799 28.4571 171.856 26.6755H173.375V28.4114H171.833V29.3936H173.375V33.1397H174.483V23.3406H173.375V25.6933H171.867V24.1515H167.836V25.1223H170.759V26.1044ZM176.63 23.1236H175.522V33.6536H176.63V23.1236ZM184.169 28.8112C183.164 28.9025 182.319 28.9596 181.314 28.9939V28.3772C182.536 28.2401 183.176 27.6691 183.176 26.9496V26.6526C183.176 25.8418 182.342 25.2022 180.754 25.2022C179.167 25.2022 178.333 25.8303 178.333 26.6526V26.9496C178.333 27.6691 178.973 28.2401 180.195 28.3772V29.0282C179.418 29.0396 178.539 29.0396 177.442 29.0396V29.9875C180.96 29.9875 182.445 29.9076 184.261 29.7248L184.169 28.8112ZM178.904 31.6321H184.854V33.7564H185.985V30.6728H178.904V31.6321ZM185.985 30.1246V23.1236H184.866V30.1246H185.985ZM181.314 23.9573V22.998H180.195V23.9573H177.854V24.8938H183.621V23.9573H181.314ZM180.754 26.093C181.668 26.093 182.068 26.3785 182.068 26.7326V26.8696C182.068 27.2237 181.668 27.5092 180.754 27.5092C179.841 27.5092 179.441 27.2237 179.441 26.8696V26.7326C179.441 26.3785 179.841 26.093 180.754 26.093Z" fill="#222222"/>
<path d="M170.179 45.4193H170.746V43.1137H172.153C173.342 43.1137 174.022 42.3695 174.022 41.423V41.2531C174.022 40.2985 173.391 39.5866 172.153 39.5866H170.179V45.4193ZM172.105 40.0963C173.019 40.0963 173.448 40.5736 173.448 41.2612V41.4068C173.448 42.1349 173.019 42.6041 172.016 42.6041H170.746V40.0963H172.105ZM174.504 45.4193H175.055V39.3035H174.504V45.4193ZM177.041 45.484C177.373 45.484 177.68 45.4193 177.923 45.298C178.149 45.1847 178.327 45.0229 178.408 44.8854H178.416V45.4193H178.95V42.3695C178.95 41.4877 178.351 40.978 177.381 40.978C176.717 40.978 176.224 41.2127 175.819 41.4958L176.086 41.9165C176.458 41.6576 176.903 41.4715 177.373 41.4715C178.052 41.4715 178.408 41.8275 178.408 42.4585V42.863H177.178C176.167 42.863 175.641 43.3564 175.641 44.0602V44.2382C175.641 45.0067 176.216 45.484 177.041 45.484ZM178.408 44.0602C178.408 44.3919 178.23 44.6103 177.996 44.756C177.737 44.9178 177.47 45.0067 177.122 45.0067C176.677 45.0067 176.192 44.7802 176.192 44.2139V44.0845C176.192 43.6396 176.491 43.3241 177.187 43.3241H178.408V44.0602ZM181.565 40.978C180.877 40.978 180.432 41.334 180.23 41.6657V41.0589H179.688V45.4193H180.238V42.5879C180.238 42.0783 180.748 41.4796 181.484 41.4796C182.349 41.4796 182.584 41.9974 182.584 42.6203V45.4193H183.134V42.4827C183.134 41.5767 182.56 40.978 181.565 40.978Z" fill="#222222"/>
<g filter="url(#filter1_d_1_18498)">
<ellipse cx="320.063" cy="133.313" rx="29.9377" ry="29.94" fill="white"/>
<path d="M349.763 133.313C349.763 149.717 336.465 163.015 320.063 163.015C303.66 163.015 290.363 149.717 290.363 133.313C290.363 116.909 303.66 103.611 320.063 103.611C336.465 103.611 349.763 116.909 349.763 133.313Z" stroke="#DDDDDD" stroke-width="0.475867"/>
</g>
<path d="M314.034 126.84C314.126 127.068 314.411 127.388 314.731 127.73C315.165 128.199 315.645 128.678 316.421 129.386L317.164 128.621C316.49 128.027 316.01 127.582 315.519 127.045C314.708 126.166 314.583 125.823 314.583 124.921V123.425H316.787V122.443H311.179V123.425H313.441V124.921C313.441 125.766 313.315 126.2 312.561 127.034C312.047 127.605 311.488 128.164 310.802 128.781L311.545 129.546C312.31 128.838 312.881 128.256 313.349 127.742C313.715 127.342 313.92 127.091 314.023 126.84H314.034ZM319.345 132.025V121.495H318.214V132.025H319.345ZM323.698 125.64C325.309 125.64 326.291 124.784 326.291 123.847V123.482C326.291 122.545 325.309 121.689 323.698 121.689C322.088 121.689 321.106 122.545 321.106 123.482V123.847C321.106 124.784 322.088 125.64 323.698 125.64ZM329.02 129.649V121.495H327.901V127.765H325.674V128.713H327.901V129.649H329.02ZM323.253 129.101H322.122V131.922H329.237V130.951H323.253V129.101ZM324.144 128.678V127.137C325.251 127.091 326.245 127.022 327.216 126.92L327.136 125.972C324.635 126.177 322.944 126.234 320.42 126.223V127.205C321.357 127.205 322.225 127.194 323.024 127.171V128.678H324.144ZM323.698 124.693C322.727 124.693 322.179 124.224 322.179 123.779V123.55C322.179 123.105 322.727 122.648 323.698 122.648C324.669 122.648 325.217 123.105 325.217 123.55V123.779C325.217 124.224 324.669 124.693 323.698 124.693Z" fill="#222222"/>
<path d="M308.806 143.359C308.281 143.359 307.714 143.181 307.14 142.761L306.849 143.238C307.366 143.634 308.062 143.885 308.831 143.885C310.093 143.885 310.837 143.19 310.837 142.356V142.17C310.837 141.337 310.416 140.892 308.912 140.552C307.852 140.31 307.528 140.018 307.528 139.517V139.355C307.528 138.748 308.143 138.392 308.863 138.392C309.462 138.392 309.955 138.562 310.327 138.829L310.594 138.368C310.198 138.085 309.648 137.875 308.863 137.875C307.755 137.875 306.954 138.473 306.954 139.355V139.541C306.954 140.277 307.374 140.763 308.734 141.07C309.979 141.353 310.263 141.636 310.263 142.186V142.356C310.263 142.882 309.721 143.359 308.806 143.359ZM312.92 143.861C313.607 143.861 314.06 143.521 314.262 143.19V143.796H314.804V139.436H314.254V142.267C314.254 142.777 313.737 143.359 313 143.359C312.135 143.359 311.949 142.842 311.949 142.219V139.436H311.399V142.356C311.399 143.262 311.925 143.861 312.92 143.861ZM316.181 143.279C316.415 143.586 316.86 143.861 317.475 143.861C318.47 143.861 319.206 143.181 319.206 141.992V141.224C319.206 140.035 318.511 139.355 317.475 139.355C316.933 139.355 316.423 139.614 316.165 140.051V139.436H315.623V145.527H316.173V143.279H316.181ZM318.656 141.911C318.656 142.834 318.179 143.376 317.443 143.376C316.698 143.376 316.173 142.858 316.173 142.348V141.07C316.173 140.302 316.844 139.857 317.443 139.857C318.187 139.857 318.656 140.374 318.656 141.305V141.911ZM320.38 143.279C320.615 143.586 321.06 143.861 321.675 143.861C322.67 143.861 323.406 143.181 323.406 141.992V141.224C323.406 140.035 322.71 139.355 321.675 139.355C321.132 139.355 320.623 139.614 320.364 140.051V139.436H319.822V145.527H320.372V143.279H320.38ZM322.856 141.911C322.856 142.834 322.378 143.376 321.642 143.376C320.898 143.376 320.372 142.858 320.372 142.348V141.07C320.372 140.302 321.044 139.857 321.642 139.857C322.386 139.857 322.856 140.374 322.856 141.305V141.911ZM325.632 139.355C324.467 139.355 323.78 140.075 323.78 141.337V141.879C323.78 143.133 324.467 143.861 325.632 143.861C326.797 143.861 327.485 143.133 327.485 141.879V141.337C327.485 140.083 326.797 139.355 325.632 139.355ZM325.632 143.376C324.831 143.376 324.338 142.874 324.338 141.847V141.369C324.338 140.342 324.831 139.84 325.632 139.84C326.433 139.84 326.927 140.342 326.927 141.369V141.847C326.927 142.874 326.433 143.376 325.632 143.376ZM330.513 139.444C330.335 139.379 330.133 139.355 329.89 139.355C329.227 139.355 328.822 139.784 328.636 140.204V139.436H328.094V143.796H328.644V141.321C328.644 140.504 329.097 139.913 329.817 139.913C330.028 139.913 330.198 139.946 330.343 140.002L330.513 139.444ZM331.109 142.583C331.109 143.529 331.473 143.837 332.233 143.837C332.468 143.837 332.8 143.796 332.969 143.732L332.889 143.279C332.686 143.335 332.492 143.359 332.274 143.359C331.837 143.359 331.659 143.149 331.659 142.559V139.905H332.864V139.436H331.659V138.311H331.109V139.436H330.365V139.905H331.109V142.583Z" fill="#222222"/>
<path d="M273.125 153.802L273.316 154.236L292.811 145.631L292.619 145.196L273.125 153.802Z" fill="#CCCCCC"/>
<path d="M82.5995 264.148L82.9355 264.484L97.8169 249.602L97.4809 249.266L82.5995 264.148Z" fill="#CCCCCC"/>
<g filter="url(#filter2_d_1_18498)">
<ellipse cx="64.4026" cy="286.819" rx="29.9377" ry="29.94" fill="white"/>
<path d="M94.1024 286.819C94.1024 303.223 80.8053 316.521 64.4026 316.521C47.9999 316.521 34.7028 303.223 34.7028 286.819C34.7028 270.415 47.9999 257.117 64.4026 257.117C80.8053 257.117 94.1024 270.415 94.1024 286.819Z" stroke="#DDDDDD" stroke-width="0.475867"/>
</g>
<path d="M64.1292 281.469H57.5622V285.546H64.1292V281.469ZM58.7386 278.739C58.8185 278.91 59.0469 279.127 59.3895 279.413C59.9377 279.87 60.4288 280.247 61.0227 280.658L61.6623 279.835C60.9885 279.39 60.3946 278.956 59.8578 278.465C59.3553 278.008 59.2639 277.62 59.2639 276.889V276.592H61.3425V275.621H55.9062V276.592H58.1218V276.935C58.1218 277.768 57.9277 278.202 57.3681 278.75C56.9569 279.15 56.2831 279.664 55.5521 280.178L56.2146 280.989C56.8541 280.544 57.4708 280.052 57.9619 279.63C58.3274 279.322 58.6586 278.933 58.7271 278.739H58.7386ZM63.0214 284.587H58.67V282.428H63.0214V284.587ZM64.1292 280.955V275.004H63.0099V277.483H61.0798V278.454H63.0099V280.955H64.1292ZM67.2717 281.434V285.523H73.8387V281.434H67.2717ZM73.8387 280.92V275.004H72.7194V277.506H70.3096C70.321 277.426 70.321 277.323 70.321 277.232V275.621H65.8327V276.581H69.2132V277.152C69.2132 278.339 68.6193 278.91 65.3987 280.258L65.8212 281.172C68.4138 280.075 69.613 279.424 70.0698 278.476H72.7194V280.92H73.8387ZM68.3909 282.394H72.7194V284.564H68.3909V282.394Z" fill="#222222"/>
<path d="M56.3233 291.378C54.9076 291.378 54.0825 292.341 54.0825 293.991V294.711C54.0825 296.402 54.8591 297.389 56.3719 297.389C57.2941 297.389 57.8847 297.082 58.3134 296.693L57.9817 296.249C57.6015 296.58 57.108 296.847 56.38 296.847C55.304 296.847 54.6568 296.143 54.6568 294.711V293.967C54.6568 292.746 55.2474 291.912 56.3233 291.912C56.9139 291.912 57.3507 292.034 57.8766 292.406L58.1678 291.961C57.6824 291.589 57.0999 291.378 56.3233 291.378ZM60.6908 292.859C60.0032 292.859 59.5664 293.215 59.3641 293.547V291.184H58.814V297.3H59.3641V294.469C59.3641 293.959 59.8738 293.36 60.6099 293.36C61.4756 293.36 61.7102 293.878 61.7102 294.501V297.3H62.2603V294.364C62.2603 293.458 61.6859 292.859 60.6908 292.859ZM63.385 294.833V294.76C63.385 293.902 63.838 293.344 64.6065 293.344C65.367 293.344 65.8119 293.854 65.8119 294.76V294.833H63.385ZM66.0222 296.451C65.7067 296.677 65.2699 296.88 64.6874 296.88C63.8865 296.88 63.385 296.329 63.385 295.367V295.294H66.362V294.841C66.362 293.619 65.7391 292.859 64.6065 292.859C63.5144 292.859 62.8349 293.587 62.8349 294.825V295.367C62.8349 296.637 63.5225 297.365 64.6793 297.365C65.4155 297.365 65.9171 297.114 66.2649 296.871L66.0222 296.451ZM68.5223 292.859C67.4544 292.859 66.7183 293.555 66.7183 294.825V295.367C66.7183 296.637 67.3978 297.365 68.5304 297.365C69.3151 297.365 69.76 297.114 70.0755 296.871L69.8166 296.435C69.5011 296.669 69.1452 296.863 68.5385 296.863C67.7619 296.863 67.2765 296.321 67.2765 295.367V294.809C67.2765 293.902 67.7538 293.352 68.5223 293.352C68.9349 293.352 69.2989 293.433 69.7034 293.716L69.9542 293.288C69.5901 293.013 69.1371 292.859 68.5223 292.859ZM73.8222 292.94H73.086L70.9827 295.003V291.184H70.4326V297.3H70.9827V295.658L71.6865 294.978L73.3045 297.3H73.9759L72.0748 294.614L73.8222 292.94Z" fill="#222222"/>
<path d="M271.027 264.146L270.691 264.482L256.299 250.089L256.635 249.753L271.027 264.146Z" fill="#CCCCCC"/>
<g filter="url(#filter3_d_1_18498)">
<ellipse cx="29.9377" cy="29.94" rx="29.9377" ry="29.94" transform="matrix(-1 0 0 1 319.109 256.887)" fill="white"/>
<path d="M259.472 286.827C259.472 303.231 272.769 316.529 289.172 316.529C305.574 316.529 318.871 303.231 318.871 286.827C318.871 270.423 305.574 257.125 289.172 257.125C272.769 257.125 259.472 270.423 259.472 286.827Z" stroke="#DDDDDD" stroke-width="0.475867"/>
</g>
<path d="M288.796 280.252V275.01H287.677V280.252H288.796ZM289.093 285.609V284.672H283.382V283.644H288.796V280.778H282.218V281.714H287.688V282.731H282.275V285.609H289.093ZM283.405 278.162C283.462 278.322 283.759 278.608 284.056 278.859C284.593 279.316 285.153 279.716 285.735 280.138L286.386 279.316C285.735 278.882 285.061 278.402 284.525 277.923C284.011 277.454 283.931 277.089 283.931 276.381V275.273H282.789V276.427C282.789 277.237 282.606 277.66 282.046 278.185C281.635 278.562 280.893 279.145 280.162 279.693L280.813 280.492C281.441 280.047 282.149 279.476 282.629 279.053C283.051 278.676 283.348 278.345 283.394 278.162H283.405ZM292.258 284.01C292.258 285.198 293.537 285.849 295.547 285.849C297.557 285.849 298.837 285.186 298.837 284.01V283.576C298.837 282.4 297.557 281.737 295.547 281.737C293.537 281.737 292.258 282.388 292.258 283.576V284.01ZM297.683 277.706H296.655V275.147H295.582V281.086H296.655V278.676H297.683V281.532H298.768V275.01H297.683V277.706ZM292.441 281.315C293.8 281.315 294.634 280.538 294.634 279.659V279.225C294.634 278.334 293.8 277.569 292.441 277.569C291.082 277.569 290.248 278.334 290.248 279.225V279.659C290.248 280.538 291.082 281.315 292.441 281.315ZM297.729 283.941C297.729 284.535 296.838 284.924 295.547 284.924C294.257 284.924 293.366 284.535 293.366 283.93V283.644C293.366 283.051 294.257 282.662 295.547 282.662C296.838 282.662 297.729 283.051 297.729 283.644V283.941ZM289.883 276.232V277.18H294.794V276.232H292.989V275.022H291.893V276.232H289.883ZM292.441 278.448C293.149 278.448 293.629 278.825 293.629 279.316V279.567C293.629 280.058 293.149 280.435 292.441 280.435C291.733 280.435 291.253 280.058 291.253 279.567V279.316C291.253 278.825 291.733 278.448 292.441 278.448Z" fill="#222222"/>
<path d="M285.65 291.473V297.306H287.47C288.942 297.306 289.832 296.416 289.832 294.806V293.973C289.832 292.363 288.942 291.473 287.47 291.473H285.65ZM286.216 291.975H287.478C288.522 291.975 289.266 292.622 289.266 294.014V294.766C289.266 296.157 288.522 296.804 287.478 296.804H286.216V291.975ZM292.194 292.865C291.029 292.865 290.342 293.585 290.342 294.847V295.389C290.342 296.643 291.029 297.371 292.194 297.371C293.359 297.371 294.047 296.643 294.047 295.389V294.847C294.047 293.593 293.359 292.865 292.194 292.865ZM292.194 296.885C291.393 296.885 290.9 296.384 290.9 295.356V294.879C290.9 293.852 291.393 293.35 292.194 293.35C292.995 293.35 293.489 293.852 293.489 294.879V295.356C293.489 296.384 292.995 296.885 292.194 296.885Z" fill="#222222"/>
<g filter="url(#filter4_d_1_18498)">
<ellipse cx="29.9377" cy="29.94" rx="29.9377" ry="29.94" transform="matrix(-1 0 0 1 64.875 103.373)" fill="white"/>
<path d="M5.23744 133.313C5.23744 149.717 18.5345 163.015 34.9373 163.015C51.34 163.015 64.6371 149.717 64.6371 133.313C64.6371 116.909 51.34 103.611 34.9373 103.611C18.5345 103.611 5.23744 116.909 5.23744 133.313Z" stroke="#DDDDDD" stroke-width="0.475867"/>
</g>
<path d="M30.2381 125.471C30.3523 125.665 30.7292 126.008 31.483 126.488C32.2482 126.967 32.8535 127.31 33.8243 127.824L34.3839 126.922C33.4245 126.43 32.8649 126.134 31.9855 125.574C31.0718 124.991 30.7977 124.5 30.7977 123.644V123.37H33.8585V122.387H26.5949V123.37H29.6557V123.644C29.6557 124.512 29.3359 125.026 28.4565 125.597C27.7255 126.065 27.0517 126.43 26.0695 126.933L26.6291 127.835C27.4857 127.39 28.1824 127.001 28.959 126.51C29.7128 126.031 30.1011 125.677 30.2267 125.471H30.2381ZM30.7977 129.663V127.413H29.6557V129.663H25.3957V130.622H35.0577V129.663H30.7977ZM38.6342 127.013C38.7256 127.241 39.0111 127.561 39.3309 127.904C39.7649 128.372 40.2445 128.852 41.0212 129.56L41.7635 128.795C41.0897 128.201 40.61 127.755 40.1189 127.218C39.308 126.339 39.1824 125.996 39.1824 125.094V124.009H41.4437V123.027H39.1824V121.531H38.0403V123.027H35.6876V124.009H38.0403V125.094C38.0403 125.939 37.9147 126.373 37.1609 127.207C36.647 127.778 36.0874 128.338 35.4021 128.954L36.1445 129.72C36.9097 129.012 37.4807 128.429 37.949 127.915C38.3144 127.515 38.52 127.264 38.6228 127.013H38.6342ZM43.9335 132.027V121.497H42.8028V132.027H43.9335Z" fill="#222222"/>
<path d="M27.0789 137.966H26.4398L24.2717 143.798H24.8542L25.5175 141.986H27.9849L28.6321 143.798H29.2388L27.0789 137.966ZM26.278 139.915C26.4236 139.519 26.5369 139.228 26.7553 138.467C26.9899 139.228 27.095 139.519 27.2407 139.915L27.8069 141.493H25.6955L26.278 139.915ZM31.0556 139.357C29.9878 139.357 29.2516 140.053 29.2516 141.323V141.865C29.2516 143.135 29.9311 143.863 31.0637 143.863C31.8484 143.863 32.2933 143.612 32.6088 143.369L32.35 142.933C32.0345 143.167 31.6785 143.361 31.0718 143.361C30.2952 143.361 29.8098 142.819 29.8098 141.865V141.307C29.8098 140.401 30.2871 139.85 31.0556 139.85C31.4682 139.85 31.8322 139.931 32.2367 140.214L32.4875 139.786C32.1235 139.511 31.6704 139.357 31.0556 139.357ZM33.3057 142.585C33.3057 143.531 33.6697 143.839 34.4302 143.839C34.6648 143.839 34.9964 143.798 35.1663 143.734L35.0854 143.28C34.8832 143.337 34.689 143.361 34.4706 143.361C34.0338 143.361 33.8558 143.151 33.8558 142.56V139.907H35.0612V139.438H33.8558V138.313H33.3057V139.438H32.5614V139.907H33.3057V142.585ZM35.6412 143.798H36.1913V139.438H35.6412V143.798ZM35.6169 138.605H36.2155V137.99H35.6169V138.605ZM38.6778 139.357C37.5129 139.357 36.8253 140.077 36.8253 141.339V141.881C36.8253 143.135 37.5129 143.863 38.6778 143.863C39.8428 143.863 40.5304 143.135 40.5304 141.881V141.339C40.5304 140.085 39.8428 139.357 38.6778 139.357ZM38.6778 143.378C37.877 143.378 37.3835 142.876 37.3835 141.849V141.371C37.3835 140.344 37.877 139.842 38.6778 139.842C39.4787 139.842 39.9722 140.344 39.9722 141.371V141.849C39.9722 142.876 39.4787 143.378 38.6778 143.378ZM43.0169 139.357C42.3292 139.357 41.8843 139.713 41.6821 140.045V139.438H41.14V143.798H41.6901V140.967C41.6901 140.457 42.1998 139.859 42.936 139.859C43.8016 139.859 44.0362 140.376 44.0362 140.999V143.798H44.5863V140.862C44.5863 139.956 44.0119 139.357 43.0169 139.357Z" fill="#222222"/>
<path d="M81.5083 153.639L81.3164 154.074L62.1881 145.63L62.38 145.195L81.5083 153.639Z" fill="#CCCCCC"/>
<defs>
<filter id="filter0_d_1_18498" x="142.327" y="0.241327" width="78.9097" height="78.9146" filterUnits="userSpaceOnUse" color-interpolation-filters="sRGB">
<feFlood flood-opacity="0" result="BackgroundImageFix"/>
<feColorMatrix in="SourceAlpha" type="matrix" values="0 0 0 0 0 0 0 0 0 0 0 0 0 0 0 0 0 0 127 0" result="hardAlpha"/>
<feOffset dx="4.75867" dy="4.75867"/>
<feGaussianBlur stdDeviation="4.75867"/>
<feComposite in2="hardAlpha" operator="out"/>
<feColorMatrix type="matrix" values="0 0 0 0 0 0 0 0 0 0 0 0 0 0 0 0 0 0 0.1 0"/>
<feBlend mode="normal" in2="BackgroundImageFix" result="effect1_dropShadow_1_18498"/>
<feBlend mode="normal" in="SourceGraphic" in2="effect1_dropShadow_1_18498" result="shape"/>
</filter>
<filter id="filter1_d_1_18498" x="285.366" y="98.6144" width="78.9097" height="78.9146" filterUnits="userSpaceOnUse" color-interpolation-filters="sRGB">
<feFlood flood-opacity="0" result="BackgroundImageFix"/>
<feColorMatrix in="SourceAlpha" type="matrix" values="0 0 0 0 0 0 0 0 0 0 0 0 0 0 0 0 0 0 127 0" result="hardAlpha"/>
<feOffset dx="4.75867" dy="4.75867"/>
<feGaussianBlur stdDeviation="4.75867"/>
<feComposite in2="hardAlpha" operator="out"/>
<feColorMatrix type="matrix" values="0 0 0 0 0 0 0 0 0 0 0 0 0 0 0 0 0 0 0.1 0"/>
<feBlend mode="normal" in2="BackgroundImageFix" result="effect1_dropShadow_1_18498"/>
<feBlend mode="normal" in="SourceGraphic" in2="effect1_dropShadow_1_18498" result="shape"/>
</filter>
<filter id="filter2_d_1_18498" x="29.7062" y="252.12" width="78.9097" height="78.9146" filterUnits="userSpaceOnUse" color-interpolation-filters="sRGB">
<feFlood flood-opacity="0" result="BackgroundImageFix"/>
<feColorMatrix in="SourceAlpha" type="matrix" values="0 0 0 0 0 0 0 0 0 0 0 0 0 0 0 0 0 0 127 0" result="hardAlpha"/>
<feOffset dx="4.75867" dy="4.75867"/>
<feGaussianBlur stdDeviation="4.75867"/>
<feComposite in2="hardAlpha" operator="out"/>
<feColorMatrix type="matrix" values="0 0 0 0 0 0 0 0 0 0 0 0 0 0 0 0 0 0 0.1 0"/>
<feBlend mode="normal" in2="BackgroundImageFix" result="effect1_dropShadow_1_18498"/>
<feBlend mode="normal" in="SourceGraphic" in2="effect1_dropShadow_1_18498" result="shape"/>
</filter>
<filter id="filter3_d_1_18498" x="254.476" y="252.128" width="78.9097" height="78.9146" filterUnits="userSpaceOnUse" color-interpolation-filters="sRGB">
<feFlood flood-opacity="0" result="BackgroundImageFix"/>
<feColorMatrix in="SourceAlpha" type="matrix" values="0 0 0 0 0 0 0 0 0 0 0 0 0 0 0 0 0 0 127 0" result="hardAlpha"/>
<feOffset dx="4.75867" dy="4.75867"/>
<feGaussianBlur stdDeviation="4.75867"/>
<feComposite in2="hardAlpha" operator="out"/>
<feColorMatrix type="matrix" values="0 0 0 0 0 0 0 0 0 0 0 0 0 0 0 0 0 0 0.1 0"/>
<feBlend mode="normal" in2="BackgroundImageFix" result="effect1_dropShadow_1_18498"/>
<feBlend mode="normal" in="SourceGraphic" in2="effect1_dropShadow_1_18498" result="shape"/>
</filter>
<filter id="filter4_d_1_18498" x="0.241327" y="98.6144" width="78.9097" height="78.9146" filterUnits="userSpaceOnUse" color-interpolation-filters="sRGB">
<feFlood flood-opacity="0" result="BackgroundImageFix"/>
<feColorMatrix in="SourceAlpha" type="matrix" values="0 0 0 0 0 0 0 0 0 0 0 0 0 0 0 0 0 0 127 0" result="hardAlpha"/>
<feOffset dx="4.75867" dy="4.75867"/>
<feGaussianBlur stdDeviation="4.75867"/>
<feComposite in2="hardAlpha" operator="out"/>
<feColorMatrix type="matrix" values="0 0 0 0 0 0 0 0 0 0 0 0 0 0 0 0 0 0 0.1 0"/>
<feBlend mode="normal" in2="BackgroundImageFix" result="effect1_dropShadow_1_18498"/>
<feBlend mode="normal" in="SourceGraphic" in2="effect1_dropShadow_1_18498" result="shape"/>
</filter>
<linearGradient id="paint0_linear_1_18498" x1="195.702" y1="280.796" x2="99.8606" y2="238.654" gradientUnits="userSpaceOnUse">
<stop stop-color="#34BAA5"/>
<stop offset="1" stop-color="#C7EFE9"/>
</linearGradient>
<linearGradient id="paint1_linear_1_18498" x1="106.142" y1="246.551" x2="105.625" y2="115.131" gradientUnits="userSpaceOnUse">
<stop stop-color="#319EBA"/>
<stop offset="1" stop-color="#78E3FF"/>
</linearGradient>
<linearGradient id="paint2_linear_1_18498" x1="100.672" y1="132.265" x2="199.957" y2="93.7695" gradientUnits="userSpaceOnUse">
<stop stop-color="#4C8BDD"/>
<stop offset="1" stop-color="#CFE4FF"/>
</linearGradient>
<linearGradient id="paint3_linear_1_18498" x1="209.884" y1="98.4173" x2="270.474" y2="205.404" gradientUnits="userSpaceOnUse">
<stop stop-color="#33B9A5"/>
<stop offset="1" stop-color="#C6EFE9"/>
</linearGradient>
<linearGradient id="paint4_linear_1_18498" x1="271.481" y1="191.236" x2="231.56" y2="263.372" gradientUnits="userSpaceOnUse">
<stop stop-color="#4D8CDE"/>
<stop offset="1" stop-color="#CAE0FE"/>
</linearGradient>
<linearGradient id="paint5_linear_1_18498" x1="176.549" y1="117.625" x2="176.549" y2="255.444" gradientUnits="userSpaceOnUse">
<stop stop-color="#33B9A5"/>
<stop offset="0.69" stop-color="#40A7C9"/>
<stop offset="1" stop-color="#5082E6"/>
</linearGradient>
</defs>
</svg>
