<svg width="1180" height="239" viewBox="0 0 1180 239" fill="none" xmlns="http://www.w3.org/2000/svg">
<path d="M1170 4H0V239H1170V4Z" fill="white"/>
<path d="M10.969 162.806C10.969 164.353 12.244 166.393 14.896 166.393C17.548 166.393 18.823 164.353 18.823 162.806V161.922C18.823 160.375 17.548 158.335 14.896 158.335C12.244 158.335 10.969 160.375 10.969 161.922V162.806ZM25.147 162.092H22.92V157.706H21.254V168.892H22.92V163.554H25.147V162.092ZM15.032 168.008H13.349V173.21H23.345V171.748H15.032V168.008ZM17.208 162.738C17.208 163.775 16.528 164.931 14.896 164.931C13.281 164.931 12.584 163.775 12.584 162.738V161.99C12.584 160.953 13.264 159.797 14.896 159.797C16.528 159.797 17.208 160.953 17.208 161.99V162.738ZM30.0627 163.877C30.1817 164.132 30.5217 164.455 31.0317 164.88C31.8477 165.56 32.5787 166.121 33.4627 166.733L34.4147 165.509C33.4287 164.846 32.5447 164.2 31.7287 163.486C30.9977 162.857 30.8447 162.211 30.8447 161.123V160.154H33.9387V158.709H25.8467V160.154H29.1447V161.191C29.1447 162.432 28.8727 163.112 28.0397 163.894C27.4447 164.455 26.4077 165.254 25.3197 166.019L26.3057 167.226C27.2577 166.563 28.1927 165.849 28.9067 165.203C29.4337 164.727 29.9437 164.166 30.0457 163.877H30.0627ZM38.0867 168.875V157.706H36.4207V161.701H33.5307V163.146H36.4207V168.875H38.0867ZM29.9777 167.974H28.2947V173.21H38.4097V171.748H29.9777V167.974ZM51.8083 158.845H50.1423V161.531H43.1383V158.862H41.4723V166.903H45.7903V169.861H39.4493V171.289H53.8313V169.861H47.4733V166.903H51.8083V158.845ZM43.1383 162.959H50.1423V165.475H43.1383V162.959ZM66.992 168.892V157.706H65.326V161.854H61.739C61.756 161.735 61.756 161.599 61.756 161.463V158.709H55.075V160.137H60.107V161.378C60.107 163.095 59.291 163.928 54.429 166.053L55.092 167.413C59.019 165.73 60.753 164.693 61.399 163.299H65.326V168.892H66.992ZM58.883 168.059H57.2V173.21H67.315V171.748H58.883V168.059ZM71.8906 170.83C71.8906 172.479 73.6926 173.822 76.7016 173.822C79.7106 173.822 81.5126 172.479 81.5126 170.83V170.15C81.5126 168.501 79.7106 167.158 76.7016 167.158C73.6926 167.158 71.8906 168.501 71.8906 170.15V170.83ZM74.5086 161.021C74.5086 162.823 73.5906 163.656 68.8646 165.628L69.5276 166.971C74.8826 164.693 76.1576 163.741 76.1576 161.14V158.675H69.5106V160.103H74.5086V161.021ZM81.4446 166.954V157.706H79.7956V159.967H77.0246V161.412H79.7956V163.231H76.7696V164.676H79.7956V166.954H81.4446ZM79.8636 170.728C79.8636 171.561 78.6396 172.445 76.7016 172.445C74.7636 172.445 73.5396 171.561 73.5396 170.728V170.252C73.5396 169.419 74.7636 168.535 76.7016 168.535C78.6396 168.535 79.8636 169.419 79.8636 170.252V170.728ZM86.3433 170.83C86.3433 172.479 88.1453 173.822 91.1543 173.822C94.1633 173.822 95.9653 172.479 95.9653 170.83V170.15C95.9653 168.501 94.1633 167.158 91.1543 167.158C88.1453 167.158 86.3433 168.501 86.3433 170.15V170.83ZM91.0863 161.735C91.0863 160.222 89.8623 158.301 87.1933 158.301C84.5243 158.301 83.3003 160.222 83.3003 161.735V162.602C83.3003 164.115 84.5243 166.036 87.1933 166.036C89.8623 166.036 91.0863 164.115 91.0863 162.602V161.735ZM95.8973 166.954V157.706H94.2483V159.661H91.7833V161.106H94.2483V163.197H91.7833V164.642H94.2483V166.954H95.8973ZM94.3163 170.728C94.3163 171.561 93.0923 172.445 91.1543 172.445C89.2163 172.445 87.9923 171.561 87.9923 170.728V170.252C87.9923 169.419 89.2163 168.535 91.1543 168.535C93.0923 168.535 94.3163 169.419 94.3163 170.252V170.728ZM89.4713 162.517C89.4713 163.52 88.7573 164.574 87.1933 164.574C85.6293 164.574 84.9153 163.52 84.9153 162.517V161.82C84.9153 160.817 85.6293 159.763 87.1933 159.763C88.7573 159.763 89.4713 160.817 89.4713 161.82V162.517ZM110.248 173.38V157.706H108.565V173.38H110.248ZM102.19 165.543C102.326 165.883 102.734 166.359 103.21 166.869C103.856 167.566 104.621 168.331 105.794 169.419L106.882 168.263C105.862 167.362 105.114 166.648 104.383 165.849C103.346 164.693 103.023 163.996 103.023 162.653V158.828H101.323V162.653C101.323 163.86 101.051 164.625 100.014 165.798C99.2489 166.648 98.3649 167.515 97.3279 168.433L98.4329 169.572C99.5889 168.518 100.49 167.617 101.187 166.852C101.731 166.257 102.02 165.917 102.173 165.543H102.19ZM111.713 169.861V171.289H126.095V169.861H111.713ZM118.921 163.639C119.108 164.03 119.805 164.625 120.91 165.322C121.93 165.968 123.171 166.682 124.429 167.396L125.245 166.087C123.902 165.356 122.916 164.795 121.845 164.098C120.009 162.891 119.754 162.194 119.754 160.528V158.811H118.054V160.528C118.054 162.194 117.697 162.925 116.15 163.979C115.011 164.744 113.94 165.356 112.58 166.104L113.413 167.43C114.824 166.648 115.912 165.985 116.898 165.356C118.037 164.625 118.734 164.03 118.904 163.639H118.921ZM139.493 167.634H129.514V173.397H139.493V167.634ZM133.475 164.404C131.877 164.591 130.942 164.642 128.392 164.642V162.959H132.115V161.616H128.392V159.933H132.795V158.556H126.777V166.019C130.993 166.019 132.047 165.985 133.645 165.764L133.475 164.404ZM137.844 171.986H131.163V169.045H137.844V171.986ZM132.965 162.789H134.954V166.784H136.552V157.91H134.954V161.361H132.965V162.789ZM137.878 166.818H139.493V157.706H137.878V166.818ZM145.395 169.963C151.6 166.206 151.838 165.254 151.838 162.16V159.151H144.817V160.596H150.172V162.143C150.172 164.557 149.934 165.441 144.511 168.62L145.395 169.963ZM156.836 173.38V157.706H155.153V173.38H156.836ZM166.393 166.393V158.505H164.744V161.208H160.715V158.505H159.066V166.393H166.393ZM172.904 162.092H170.677V157.706H169.011V168.892H170.677V163.554H172.904V162.092ZM162.789 168.127H161.106V173.21H171.102V171.748H162.789V168.127ZM160.715 162.619H164.744V164.965H160.715V162.619ZM183.191 163.622C183.361 163.911 183.922 164.421 185.044 165.135C186.183 165.849 187.084 166.359 188.529 167.124L189.362 165.781C187.934 165.05 187.101 164.608 185.792 163.775C184.432 162.908 184.024 162.177 184.024 160.902V160.494H188.58V159.032H177.768V160.494H182.324V160.902C182.324 162.194 181.848 162.959 180.539 163.809C179.451 164.506 178.448 165.05 176.986 165.798L177.819 167.141C179.094 166.478 180.131 165.9 181.287 165.169C182.409 164.455 182.987 163.928 183.174 163.622H183.191ZM184.024 169.861V166.512H182.324V169.861H175.983V171.289H190.365V169.861H184.024ZM193.904 170.847C193.904 172.496 195.706 173.822 198.715 173.822C201.724 173.822 203.526 172.496 203.526 170.847V170.167C203.526 168.518 201.724 167.192 198.715 167.192C195.706 167.192 193.904 168.518 193.904 170.167V170.847ZM195.247 163.163C195.349 163.418 195.706 163.792 196.216 164.217C197.032 164.897 197.814 165.543 198.698 166.206L199.684 165.033C198.681 164.302 197.712 163.537 196.913 162.806C196.097 162.058 196.029 161.497 196.029 160.443V158.403H194.329V160.511C194.329 161.701 194.091 162.347 193.224 163.214C192.629 163.809 191.575 164.71 190.487 165.543L191.49 166.733C192.391 166.019 193.394 165.169 194.091 164.523C194.618 164.047 195.145 163.452 195.23 163.163H195.247ZM203.458 166.971V157.706H201.792V161.089H198.647V162.534H201.792V166.971H203.458ZM201.877 170.745C201.877 171.578 200.653 172.445 198.715 172.445C196.777 172.445 195.553 171.578 195.553 170.745V170.269C195.553 169.436 196.777 168.569 198.715 168.569C200.653 168.569 201.877 169.436 201.877 170.269V170.745Z" fill="#222222"/>
<path d="M22.75 24.78V3.15H20.26L13.3 7.23L14.71 9.63L19.78 6.63V24.78H22.75ZM43.8505 12.39C39.6805 12.84 37.8205 12.96 31.6705 12.96V4.89H41.5705V2.34H28.7605V15.51C37.4005 15.51 39.9205 15.39 44.1505 14.85L43.8505 12.39ZM53.2405 7.74H49.3105V0.539998H46.3705V20.28H49.3105V10.32H53.2405V7.74ZM35.3905 18.72H32.4205V27.9H50.0605V25.32H35.3905V18.72ZM61.5852 8.37C61.5852 12.45 61.5852 14.55 53.1252 19.98L54.7752 22.29C62.9052 16.86 64.3152 14.55 64.4652 9.87H68.4552V14.43H64.4052V17.01H68.4552V26.85H71.3652V1.11H68.4552V7.29H64.4952V3.24H53.9052V5.79H61.5852V8.37ZM77.0052 0.539998H74.0952V28.2H77.0052V0.539998Z" fill="#4A89DB"/>
<path d="M88.04 119.52V106.36H86.1V108.6H80.88V110.22H86.1V111.82H80.88V113.44H86.1V119.52H88.04ZM73.78 107.46V116.9C79.14 116.9 81.18 116.78 84.04 116.4L83.84 114.76C80.88 115.14 79.02 115.2 75.72 115.2V107.46H73.78ZM78.5 118.88H76.52V124.6H88.42V122.88H78.5V118.88Z" fill="#4A89DB"/>
<path d="M18.668 117.896C20.648 117.896 21.792 116.334 21.968 113.914H20.098C19.944 115.256 19.57 116.048 18.69 116.048C17.326 116.048 16.688 113.98 14.554 113.98C12.64 113.98 11.452 115.762 11.276 117.962H13.19C13.3 117.126 13.674 115.828 14.576 115.828C15.874 115.828 16.512 117.896 18.668 117.896ZM23.2794 121.746V123.572H33.9274V121.68H25.9634L30.9134 116.4C32.3434 114.882 33.3554 113.386 33.3554 111.67V111.45C33.3554 109.14 31.6174 107.468 28.4054 107.468C25.4794 107.468 24.0714 109.294 23.3234 110.658L24.9954 111.736C26.0294 109.888 27.2834 109.426 28.4494 109.426C30.0994 109.426 31.1774 110.196 31.1774 111.45V111.626C31.1774 112.462 31.0014 113.342 29.1974 115.322L23.2794 121.746ZM46.2991 114.398C46.2991 109.954 44.4291 107.468 40.6891 107.468C36.9931 107.468 35.0791 109.954 35.0791 114.398V116.862C35.0791 121.306 36.9271 123.814 40.6891 123.814C44.4951 123.814 46.2991 121.35 46.2991 116.862V114.398ZM44.0771 116.884C44.0771 120.8 42.6251 121.79 40.6891 121.79C38.8411 121.79 37.3011 120.778 37.3011 116.884V114.376C37.3011 110.526 38.8411 109.492 40.6891 109.492C42.6251 109.492 44.0771 110.504 44.0771 114.376V116.884ZM55.4369 123.572V107.71H53.6109L48.5069 110.702L49.5409 112.462L53.2589 110.262V123.572H55.4369ZM67.5446 123.572V107.71H65.7186L60.6146 110.702L61.6486 112.462L65.3666 110.262V123.572H67.5446Z" fill="#4A89DB"/>
<path d="M299.969 162.806C299.969 164.353 301.244 166.393 303.896 166.393C306.548 166.393 307.823 164.353 307.823 162.806V161.922C307.823 160.375 306.548 158.335 303.896 158.335C301.244 158.335 299.969 160.375 299.969 161.922V162.806ZM314.147 162.092H311.92V157.706H310.254V168.892H311.92V163.554H314.147V162.092ZM304.032 168.008H302.349V173.21H312.345V171.748H304.032V168.008ZM306.208 162.738C306.208 163.775 305.528 164.931 303.896 164.931C302.281 164.931 301.584 163.775 301.584 162.738V161.99C301.584 160.953 302.264 159.797 303.896 159.797C305.528 159.797 306.208 160.953 306.208 161.99V162.738ZM319.063 163.877C319.182 164.132 319.522 164.455 320.032 164.88C320.848 165.56 321.579 166.121 322.463 166.733L323.415 165.509C322.429 164.846 321.545 164.2 320.729 163.486C319.998 162.857 319.845 162.211 319.845 161.123V160.154H322.939V158.709H314.847V160.154H318.145V161.191C318.145 162.432 317.873 163.112 317.04 163.894C316.445 164.455 315.408 165.254 314.32 166.019L315.306 167.226C316.258 166.563 317.193 165.849 317.907 165.203C318.434 164.727 318.944 164.166 319.046 163.877H319.063ZM327.087 168.875V157.706H325.421V161.701H322.531V163.146H325.421V168.875H327.087ZM318.978 167.974H317.295V173.21H327.41V171.748H318.978V167.974ZM340.808 158.845H339.142V161.531H332.138V158.862H330.472V166.903H334.79V169.861H328.449V171.289H342.831V169.861H336.473V166.903H340.808V158.845ZM332.138 162.959H339.142V165.475H332.138V162.959ZM355.992 168.892V157.706H354.326V161.854H350.739C350.756 161.735 350.756 161.599 350.756 161.463V158.709H344.075V160.137H349.107V161.378C349.107 163.095 348.291 163.928 343.429 166.053L344.092 167.413C348.019 165.73 349.753 164.693 350.399 163.299H354.326V168.892H355.992ZM347.883 168.059H346.2V173.21H356.315V171.748H347.883V168.059ZM360.891 170.83C360.891 172.479 362.693 173.822 365.702 173.822C368.711 173.822 370.513 172.479 370.513 170.83V170.15C370.513 168.501 368.711 167.158 365.702 167.158C362.693 167.158 360.891 168.501 360.891 170.15V170.83ZM363.509 161.021C363.509 162.823 362.591 163.656 357.865 165.628L358.528 166.971C363.883 164.693 365.158 163.741 365.158 161.14V158.675H358.511V160.103H363.509V161.021ZM370.445 166.954V157.706H368.796V159.967H366.025V161.412H368.796V163.231H365.77V164.676H368.796V166.954H370.445ZM368.864 170.728C368.864 171.561 367.64 172.445 365.702 172.445C363.764 172.445 362.54 171.561 362.54 170.728V170.252C362.54 169.419 363.764 168.535 365.702 168.535C367.64 168.535 368.864 169.419 368.864 170.252V170.728ZM375.343 170.83C375.343 172.479 377.145 173.822 380.154 173.822C383.163 173.822 384.965 172.479 384.965 170.83V170.15C384.965 168.501 383.163 167.158 380.154 167.158C377.145 167.158 375.343 168.501 375.343 170.15V170.83ZM380.086 161.735C380.086 160.222 378.862 158.301 376.193 158.301C373.524 158.301 372.3 160.222 372.3 161.735V162.602C372.3 164.115 373.524 166.036 376.193 166.036C378.862 166.036 380.086 164.115 380.086 162.602V161.735ZM384.897 166.954V157.706H383.248V159.661H380.783V161.106H383.248V163.197H380.783V164.642H383.248V166.954H384.897ZM383.316 170.728C383.316 171.561 382.092 172.445 380.154 172.445C378.216 172.445 376.992 171.561 376.992 170.728V170.252C376.992 169.419 378.216 168.535 380.154 168.535C382.092 168.535 383.316 169.419 383.316 170.252V170.728ZM378.471 162.517C378.471 163.52 377.757 164.574 376.193 164.574C374.629 164.574 373.915 163.52 373.915 162.517V161.82C373.915 160.817 374.629 159.763 376.193 159.763C377.757 159.763 378.471 160.817 378.471 161.82V162.517ZM399.248 173.38V157.706H397.565V173.38H399.248ZM391.19 165.543C391.326 165.883 391.734 166.359 392.21 166.869C392.856 167.566 393.621 168.331 394.794 169.419L395.882 168.263C394.862 167.362 394.114 166.648 393.383 165.849C392.346 164.693 392.023 163.996 392.023 162.653V158.828H390.323V162.653C390.323 163.86 390.051 164.625 389.014 165.798C388.249 166.648 387.365 167.515 386.328 168.433L387.433 169.572C388.589 168.518 389.49 167.617 390.187 166.852C390.731 166.257 391.02 165.917 391.173 165.543H391.19ZM400.713 169.861V171.289H415.095V169.861H400.713ZM407.921 163.639C408.108 164.03 408.805 164.625 409.91 165.322C410.93 165.968 412.171 166.682 413.429 167.396L414.245 166.087C412.902 165.356 411.916 164.795 410.845 164.098C409.009 162.891 408.754 162.194 408.754 160.528V158.811H407.054V160.528C407.054 162.194 406.697 162.925 405.15 163.979C404.011 164.744 402.94 165.356 401.58 166.104L402.413 167.43C403.824 166.648 404.912 165.985 405.898 165.356C407.037 164.625 407.734 164.03 407.904 163.639H407.921ZM428.493 167.634H418.514V173.397H428.493V167.634ZM422.475 164.404C420.877 164.591 419.942 164.642 417.392 164.642V162.959H421.115V161.616H417.392V159.933H421.795V158.556H415.777V166.019C419.993 166.019 421.047 165.985 422.645 165.764L422.475 164.404ZM426.844 171.986H420.163V169.045H426.844V171.986ZM421.965 162.789H423.954V166.784H425.552V157.91H423.954V161.361H421.965V162.789ZM426.878 166.818H428.493V157.706H426.878V166.818ZM444.578 165.73C444.901 164.03 445.054 162.313 445.054 160.681V158.675H434.65V160.154H443.371V161.072C443.371 162.585 443.235 164.064 442.878 165.73H432.848V167.158H439.189V173.38H440.889V167.158H447.23V165.73H444.578ZM449.154 169.895H457.977V173.567H459.677V168.467H455.342V166.767H461.683V165.339H447.301V166.767H453.642V168.467H449.154V169.895ZM454.492 162.313C454.747 162.755 455.495 163.078 456.209 163.35C457.467 163.826 458.657 164.217 459.932 164.574L460.442 163.214C459.048 162.823 457.977 162.483 457.212 162.177C455.971 161.684 455.342 161.259 455.325 160.443H459.864V159.049H455.325V157.502H453.642V159.049H449.12V160.443H453.642C453.625 161.259 453.013 161.718 451.772 162.177C450.633 162.602 449.715 162.891 448.542 163.214L449.052 164.574C450.31 164.217 451.517 163.826 452.792 163.35C453.506 163.078 454.22 162.755 454.475 162.313H454.492Z" fill="#222222"/>
<path d="M300.734 199.575H302.451V197.875H300.734V199.575ZM300.734 192.061H302.451V190.361H300.734V192.061ZM316.505 188.185H314.907L308.991 194.373V188.185H307.801V200.442H308.991V195.903L310.555 194.288L315.298 200.442H316.828L311.405 193.421L316.505 188.185ZM321.511 187.998C318.468 187.998 316.734 190.123 316.734 193.472V195.155C316.734 198.504 318.485 200.629 321.511 200.629C324.537 200.629 326.288 198.504 326.288 195.155V193.472C326.288 190.123 324.537 187.998 321.511 187.998ZM321.511 199.558C319.335 199.558 317.941 197.977 317.941 195.053V193.574C317.941 190.65 319.335 189.069 321.511 189.069C323.687 189.069 325.081 190.65 325.081 193.574V195.053C325.081 197.977 323.687 199.558 321.511 199.558ZM331.514 199.524C330.409 199.524 329.219 199.15 328.012 198.266L327.4 199.269C328.488 200.102 329.95 200.629 331.565 200.629C334.217 200.629 335.781 199.167 335.781 197.416V197.025C335.781 195.274 334.897 194.339 331.735 193.625C329.508 193.115 328.828 192.503 328.828 191.449V191.109C328.828 189.834 330.12 189.086 331.633 189.086C332.891 189.086 333.928 189.443 334.71 190.004L335.271 189.035C334.438 188.44 333.282 187.998 331.633 187.998C329.304 187.998 327.621 189.256 327.621 191.109V191.5C327.621 193.047 328.505 194.067 331.361 194.713C333.979 195.308 334.574 195.903 334.574 197.059V197.416C334.574 198.521 333.435 199.524 331.514 199.524ZM344.578 200.442H345.768V188.185H344.578V193.455H338.271V188.185H337.081V200.442H338.271V194.645H344.578V200.442ZM352.427 188.185H351.084L346.528 200.442H347.752L349.146 196.634H354.331L355.691 200.442H356.966L352.427 188.185ZM350.744 192.282C351.05 191.449 351.288 190.837 351.747 189.239C352.24 190.837 352.461 191.449 352.767 192.282L353.957 195.597H349.52L350.744 192.282ZM366.031 200.442V188.185H365.13L361.339 190.531L361.883 191.483L364.841 189.681V200.442H366.031ZM371.43 191.109C371.43 189.851 372.365 189.052 373.827 189.052C375.272 189.052 376.224 189.851 376.224 191.109V191.313C376.224 192.639 375.289 193.71 373.827 193.71C372.365 193.71 371.43 192.639 371.43 191.313V191.109ZM371.09 197.093C371.09 195.614 372.246 194.679 373.827 194.679C375.442 194.679 376.564 195.648 376.564 197.093V197.297C376.564 198.555 375.544 199.558 373.827 199.558C372.127 199.558 371.09 198.555 371.09 197.297V197.093ZM369.883 197.331C369.883 199.286 371.464 200.629 373.827 200.629C376.19 200.629 377.771 199.286 377.771 197.331V197.042C377.771 195.699 376.836 194.56 375.51 194.169C376.7 193.625 377.38 192.605 377.38 191.33V191.058C377.38 189.307 375.884 187.998 373.827 187.998C371.77 187.998 370.274 189.307 370.274 191.058V191.33C370.274 192.605 370.954 193.625 372.127 194.169C370.801 194.577 369.883 195.699 369.883 197.042V197.331ZM387.166 193.353C387.166 189.919 385.874 187.998 382.984 187.998C380.128 187.998 378.836 189.919 378.836 193.353V195.257C378.836 198.691 380.077 200.629 382.984 200.629C385.925 200.629 387.166 198.725 387.166 195.257V193.353ZM385.942 195.274C385.942 198.334 384.939 199.558 382.984 199.558C381.097 199.558 380.06 198.317 380.06 195.274V193.336C380.06 190.327 381.097 189.069 382.984 189.069C384.939 189.069 385.942 190.31 385.942 193.336V195.274ZM396.339 193.353C396.339 189.919 395.047 187.998 392.157 187.998C389.301 187.998 388.009 189.919 388.009 193.353V195.257C388.009 198.691 389.25 200.629 392.157 200.629C395.098 200.629 396.339 198.725 396.339 195.257V193.353ZM395.115 195.274C395.115 198.334 394.112 199.558 392.157 199.558C390.27 199.558 389.233 198.317 389.233 195.274V193.336C389.233 190.327 390.27 189.069 392.157 189.069C394.112 189.069 395.115 190.31 395.115 193.336V195.274ZM402.724 200.442V188.185H401.823L398.032 190.531L398.576 191.483L401.534 189.681V200.442H402.724ZM413.785 197.042H412.578V202.125H422.472V201.071H413.785V197.042ZM422.081 186.774H420.891V197.892H422.081V186.774ZM413.785 195.308C416.114 195.308 417.61 193.574 417.61 191.891V190.871C417.61 189.188 416.114 187.454 413.785 187.454C411.456 187.454 409.96 189.188 409.96 190.871V191.891C409.96 193.574 411.456 195.308 413.785 195.308ZM413.785 188.525C415.366 188.525 416.454 189.698 416.454 190.973V191.789C416.454 193.064 415.366 194.237 413.785 194.237C412.204 194.237 411.116 193.064 411.116 191.789V190.973C411.116 189.698 412.204 188.525 413.785 188.525ZM430.838 196.634C428.288 196.634 426.01 197.552 426.01 199.388V199.966C426.01 201.768 428.288 202.72 430.838 202.72C433.388 202.72 435.666 201.768 435.666 199.966V199.388C435.666 197.586 433.388 196.634 430.838 196.634ZM430.821 190.599H430.838C431.025 190.956 431.807 191.398 432.861 191.823C433.745 192.197 434.918 192.639 436.312 193.098L436.754 192.163C435.326 191.704 434.034 191.228 433.201 190.871C431.807 190.276 431.433 189.783 431.433 188.899V188.457H436.108V187.437H425.568V188.457H430.226V188.899C430.226 189.783 429.835 190.259 428.441 190.871C427.591 191.245 426.435 191.67 424.888 192.18L425.364 193.115C426.758 192.656 427.829 192.248 428.798 191.84C429.852 191.398 430.634 190.973 430.821 190.599ZM430.838 201.7C429.002 201.7 427.166 201.054 427.166 199.898V199.456C427.166 198.3 429.002 197.654 430.838 197.654C432.674 197.654 434.51 198.3 434.51 199.456V199.898C434.51 201.054 432.674 201.7 430.838 201.7ZM423.698 194.186V195.223H437.978V194.186H423.698ZM446.77 191.704C446.872 191.942 447.399 192.316 447.909 192.656C448.64 193.132 449.558 193.676 450.459 194.186L451.054 193.302C449.898 192.656 448.776 191.993 448.232 191.585C447.416 190.956 447.314 190.599 447.314 189.681V189.358H450.833V188.321H447.314V186.638H446.124V188.321H442.605V189.358H446.124V189.715C446.124 190.633 446.005 191.007 445.24 191.602C444.662 192.061 443.472 192.792 442.095 193.557L442.741 194.458C443.557 193.999 444.798 193.268 445.665 192.673C446.226 192.282 446.651 191.925 446.753 191.704H446.77ZM454.386 186.774H453.179V202.312H454.386V186.774ZM451.989 195.155C449.711 195.41 446.617 195.529 441.704 195.529V196.583C443.387 196.583 444.781 196.566 446.005 196.549V201.819H447.229V196.498C449.099 196.43 450.544 196.345 452.091 196.192L451.989 195.155ZM455.834 194.509V195.546H470.114V194.509H455.834ZM457.653 198.419H466.867V202.431H468.057V197.382H457.653V198.419ZM467.904 187.437H457.993V192.69H467.989V191.653H459.166V188.474H467.904V187.437Z" fill="#222222"/>
<path d="M300.92 22.29V24.78H315.44V22.2H304.58L311.33 15C313.28 12.93 314.66 10.89 314.66 8.55V8.25C314.66 5.1 312.29 2.82 307.91 2.82C303.92 2.82 302 5.31 300.98 7.17L303.26 8.64C304.67 6.12 306.38 5.49 307.97 5.49C310.22 5.49 311.69 6.54 311.69 8.25V8.49C311.69 9.63 311.45 10.83 308.99 13.53L300.92 22.29ZM332.851 12.39C328.681 12.84 326.821 12.96 320.671 12.96V4.89H330.571V2.34H317.761V15.51C326.401 15.51 328.921 15.39 333.151 14.85L332.851 12.39ZM342.241 7.74H338.311V0.539998H335.371V20.28H338.311V10.32H342.241V7.74ZM324.391 18.72H321.421V27.9H339.061V25.32H324.391V18.72ZM350.585 8.37C350.585 12.45 350.585 14.55 342.125 19.98L343.775 22.29C351.905 16.86 353.315 14.55 353.465 9.87H357.455V14.43H353.405V17.01H357.455V26.85H360.365V1.11H357.455V7.29H353.495V3.24H342.905V5.79H350.585V8.37ZM366.005 0.539998H363.095V28.2H366.005V0.539998Z" fill="#4798D5"/>
<rect x="10" y="52" width="315" height="32" rx="16" fill="#5083E6"/>
<rect x="16" y="58" width="20" height="20" rx="10" fill="white"/>
<rect x="293" y="52" width="317" height="32" rx="16" fill="#449DD0"/>
<rect x="299" y="58" width="20" height="20" rx="10" fill="white"/>
<rect x="578" y="52" width="316" height="32" rx="16" fill="#3DADC0"/>
<rect x="584" y="58" width="20" height="20" rx="10" fill="white"/>
<rect x="863" y="52" width="317" height="32" rx="16" fill="#33B9A5"/>
<rect x="869" y="58" width="20" height="20" rx="10" fill="white"/>
<path d="M365.04 119.52V106.36H363.1V108.6H357.88V110.22H363.1V111.82H357.88V113.44H363.1V119.52H365.04ZM350.78 107.46V116.9C356.14 116.9 358.18 116.78 361.04 116.4L360.84 114.76C357.88 115.14 356.02 115.2 352.72 115.2V107.46H350.78ZM355.5 118.88H353.52V124.6H365.42V122.88H355.5V118.88Z" fill="#4798D5"/>
<path d="M300.408 121.746V123.572H311.056V121.68H303.092L308.042 116.4C309.472 114.882 310.484 113.386 310.484 111.67V111.45C310.484 109.14 308.746 107.468 305.534 107.468C302.608 107.468 301.2 109.294 300.452 110.658L302.124 111.736C303.158 109.888 304.412 109.426 305.578 109.426C307.228 109.426 308.306 110.196 308.306 111.45V111.626C308.306 112.462 308.13 113.342 306.326 115.322L300.408 121.746ZM323.428 114.398C323.428 109.954 321.558 107.468 317.818 107.468C314.122 107.468 312.208 109.954 312.208 114.398V116.862C312.208 121.306 314.056 123.814 317.818 123.814C321.624 123.814 323.428 121.35 323.428 116.862V114.398ZM321.206 116.884C321.206 120.8 319.754 121.79 317.818 121.79C315.97 121.79 314.43 120.778 314.43 116.884V114.376C314.43 110.526 315.97 109.492 317.818 109.492C319.754 109.492 321.206 110.504 321.206 114.376V116.884ZM332.565 123.572V107.71H330.739L325.635 110.702L326.669 112.462L330.387 110.262V123.572H332.565ZM336.731 121.746V123.572H347.379V121.68H339.415L344.365 116.4C345.795 114.882 346.807 113.386 346.807 111.67V111.45C346.807 109.14 345.069 107.468 341.857 107.468C338.931 107.468 337.523 109.294 336.775 110.658L338.447 111.736C339.481 109.888 340.735 109.426 341.901 109.426C343.551 109.426 344.629 110.196 344.629 111.45V111.626C344.629 112.462 344.453 113.342 342.649 115.322L336.731 121.746Z" fill="#4798D5"/>
<path d="M584.969 162.806C584.969 164.353 586.244 166.393 588.896 166.393C591.548 166.393 592.823 164.353 592.823 162.806V161.922C592.823 160.375 591.548 158.335 588.896 158.335C586.244 158.335 584.969 160.375 584.969 161.922V162.806ZM599.147 162.092H596.92V157.706H595.254V168.892H596.92V163.554H599.147V162.092ZM589.032 168.008H587.349V173.21H597.345V171.748H589.032V168.008ZM591.208 162.738C591.208 163.775 590.528 164.931 588.896 164.931C587.281 164.931 586.584 163.775 586.584 162.738V161.99C586.584 160.953 587.264 159.797 588.896 159.797C590.528 159.797 591.208 160.953 591.208 161.99V162.738ZM604.063 163.877C604.182 164.132 604.522 164.455 605.032 164.88C605.848 165.56 606.579 166.121 607.463 166.733L608.415 165.509C607.429 164.846 606.545 164.2 605.729 163.486C604.998 162.857 604.845 162.211 604.845 161.123V160.154H607.939V158.709H599.847V160.154H603.145V161.191C603.145 162.432 602.873 163.112 602.04 163.894C601.445 164.455 600.408 165.254 599.32 166.019L600.306 167.226C601.258 166.563 602.193 165.849 602.907 165.203C603.434 164.727 603.944 164.166 604.046 163.877H604.063ZM612.087 168.875V157.706H610.421V161.701H607.531V163.146H610.421V168.875H612.087ZM603.978 167.974H602.295V173.21H612.41V171.748H603.978V167.974ZM625.808 158.845H624.142V161.531H617.138V158.862H615.472V166.903H619.79V169.861H613.449V171.289H627.831V169.861H621.473V166.903H625.808V158.845ZM617.138 162.959H624.142V165.475H617.138V162.959ZM640.992 168.892V157.706H639.326V161.854H635.739C635.756 161.735 635.756 161.599 635.756 161.463V158.709H629.075V160.137H634.107V161.378C634.107 163.095 633.291 163.928 628.429 166.053L629.092 167.413C633.019 165.73 634.753 164.693 635.399 163.299H639.326V168.892H640.992ZM632.883 168.059H631.2V173.21H641.315V171.748H632.883V168.059ZM645.891 170.83C645.891 172.479 647.693 173.822 650.702 173.822C653.711 173.822 655.513 172.479 655.513 170.83V170.15C655.513 168.501 653.711 167.158 650.702 167.158C647.693 167.158 645.891 168.501 645.891 170.15V170.83ZM648.509 161.021C648.509 162.823 647.591 163.656 642.865 165.628L643.528 166.971C648.883 164.693 650.158 163.741 650.158 161.14V158.675H643.511V160.103H648.509V161.021ZM655.445 166.954V157.706H653.796V159.967H651.025V161.412H653.796V163.231H650.77V164.676H653.796V166.954H655.445ZM653.864 170.728C653.864 171.561 652.64 172.445 650.702 172.445C648.764 172.445 647.54 171.561 647.54 170.728V170.252C647.54 169.419 648.764 168.535 650.702 168.535C652.64 168.535 653.864 169.419 653.864 170.252V170.728ZM660.343 170.83C660.343 172.479 662.145 173.822 665.154 173.822C668.163 173.822 669.965 172.479 669.965 170.83V170.15C669.965 168.501 668.163 167.158 665.154 167.158C662.145 167.158 660.343 168.501 660.343 170.15V170.83ZM665.086 161.735C665.086 160.222 663.862 158.301 661.193 158.301C658.524 158.301 657.3 160.222 657.3 161.735V162.602C657.3 164.115 658.524 166.036 661.193 166.036C663.862 166.036 665.086 164.115 665.086 162.602V161.735ZM669.897 166.954V157.706H668.248V159.661H665.783V161.106H668.248V163.197H665.783V164.642H668.248V166.954H669.897ZM668.316 170.728C668.316 171.561 667.092 172.445 665.154 172.445C663.216 172.445 661.992 171.561 661.992 170.728V170.252C661.992 169.419 663.216 168.535 665.154 168.535C667.092 168.535 668.316 169.419 668.316 170.252V170.728ZM663.471 162.517C663.471 163.52 662.757 164.574 661.193 164.574C659.629 164.574 658.915 163.52 658.915 162.517V161.82C658.915 160.817 659.629 159.763 661.193 159.763C662.757 159.763 663.471 160.817 663.471 161.82V162.517ZM684.248 173.38V157.706H682.565V173.38H684.248ZM676.19 165.543C676.326 165.883 676.734 166.359 677.21 166.869C677.856 167.566 678.621 168.331 679.794 169.419L680.882 168.263C679.862 167.362 679.114 166.648 678.383 165.849C677.346 164.693 677.023 163.996 677.023 162.653V158.828H675.323V162.653C675.323 163.86 675.051 164.625 674.014 165.798C673.249 166.648 672.365 167.515 671.328 168.433L672.433 169.572C673.589 168.518 674.49 167.617 675.187 166.852C675.731 166.257 676.02 165.917 676.173 165.543H676.19ZM685.713 169.861V171.289H700.095V169.861H685.713ZM692.921 163.639C693.108 164.03 693.805 164.625 694.91 165.322C695.93 165.968 697.171 166.682 698.429 167.396L699.245 166.087C697.902 165.356 696.916 164.795 695.845 164.098C694.009 162.891 693.754 162.194 693.754 160.528V158.811H692.054V160.528C692.054 162.194 691.697 162.925 690.15 163.979C689.011 164.744 687.94 165.356 686.58 166.104L687.413 167.43C688.824 166.648 689.912 165.985 690.898 165.356C692.037 164.625 692.734 164.03 692.904 163.639H692.921ZM713.493 167.634H703.514V173.397H713.493V167.634ZM707.475 164.404C705.877 164.591 704.942 164.642 702.392 164.642V162.959H706.115V161.616H702.392V159.933H706.795V158.556H700.777V166.019C704.993 166.019 706.047 165.985 707.645 165.764L707.475 164.404ZM711.844 171.986H705.163V169.045H711.844V171.986ZM706.965 162.789H708.954V166.784H710.552V157.91H708.954V161.361H706.965V162.789ZM711.878 166.818H713.493V157.706H711.878V166.818ZM723.084 165.662C723.22 166.002 723.645 166.478 724.121 166.988C724.767 167.685 725.481 168.399 726.637 169.453L727.742 168.314C726.739 167.43 726.025 166.767 725.294 165.968C724.087 164.659 723.9 164.149 723.9 162.806V160.579H727.181V159.117H718.834V160.579H722.2V162.806C722.2 164.064 722.013 164.71 720.891 165.951C720.126 166.801 719.293 167.634 718.273 168.552L719.378 169.691C720.517 168.637 721.367 167.77 722.064 167.005C722.608 166.41 722.914 166.036 723.067 165.662H723.084ZM730.989 173.38V157.706H729.306V173.38H730.989ZM740.342 165.356V163.333H738.642V165.356H732.301V166.784H746.683V165.356H740.342ZM745.612 162.772C744.065 162.211 742.756 161.616 741.906 161.191C740.665 160.562 740.325 160.12 740.325 158.964V157.927H738.659V158.964C738.659 160.12 738.285 160.545 737.078 161.191C736.262 161.633 734.987 162.177 733.389 162.772L734.035 164.149C735.242 163.69 736.483 163.163 737.333 162.755C738.829 162.041 739.373 161.65 739.492 161.31H739.509C739.628 161.633 740.172 162.041 741.668 162.755C742.518 163.163 743.776 163.69 744.966 164.149L745.612 162.772ZM734.154 169.776H742.994V173.533H744.677V168.348H734.154V169.776ZM751.819 163.418C751.938 163.673 752.278 163.996 752.788 164.421C753.604 165.101 754.335 165.662 755.219 166.274L756.171 165.05C755.168 164.387 754.284 163.741 753.485 163.01C752.737 162.33 752.601 161.752 752.601 160.664V160.069H755.695V158.624H747.603V160.069H750.901V160.732C750.901 161.973 750.612 162.619 749.779 163.435C749.167 164.03 748.164 164.795 747.076 165.56L748.062 166.767C749.014 166.104 749.932 165.373 750.663 164.744C751.207 164.285 751.7 163.707 751.802 163.418H751.819ZM749.524 169.096H758.16V173.533H759.843V167.651H749.524V169.096ZM759.843 166.835V157.706H758.177V161.463H755.287V162.908H758.177V166.835H759.843ZM778.053 157.706H776.404V163.18H774.517V158.029H772.868V172.615H774.517V164.642H776.404V173.38H778.053V157.706ZM769.349 162.143C769.349 164.455 769.349 165.645 764.555 168.722L765.49 170.031C770.42 166.733 770.998 165.475 770.998 162.432V159.236H764.997V160.681H769.349V162.143ZM783.7 163.571C783.802 163.826 784.159 164.2 784.669 164.625C785.485 165.305 786.267 165.951 787.151 166.614L788.137 165.441C787.134 164.71 786.165 163.945 785.366 163.214C784.55 162.466 784.482 161.905 784.482 160.851V158.437H782.782V160.919C782.782 162.109 782.544 162.755 781.677 163.622C781.082 164.217 780.028 165.118 778.94 165.951L779.943 167.141C780.844 166.427 781.847 165.577 782.544 164.931C783.071 164.455 783.598 163.86 783.683 163.571H783.7ZM791.911 168.858V157.706H790.245V161.259H787.1V162.704H790.245V168.858H791.911ZM783.802 167.94H782.119V173.21H792.234V171.748H783.802V167.94Z" fill="#222222"/>
<path d="M588.38 7.62C589.55 6.09 590.81 5.46 592.58 5.46C594.53 5.46 596.15 6.42 596.15 8.31V8.55C596.15 10.41 595.22 12.21 592.52 12.21H589.97V14.79H592.64C595.16 14.79 597.11 15.63 597.11 18.48V18.87C597.11 20.82 595.67 22.41 592.52 22.41C590.66 22.41 589.16 21.87 587.06 20.34L585.59 22.71C587.63 24.33 590 25.11 592.52 25.11C597.83 25.11 600.08 22.02 600.08 18.84V18.39C600.08 15.9 598.61 13.92 595.7 13.41C598.37 12.45 599.09 10.23 599.09 8.52V8.22C599.09 4.98 596.54 2.82 592.55 2.82C589.31 2.82 587.51 4.26 586.25 6.06L588.38 7.62ZM617.851 12.39C613.681 12.84 611.821 12.96 605.671 12.96V4.89H615.571V2.34H602.761V15.51C611.401 15.51 613.921 15.39 618.151 14.85L617.851 12.39ZM627.241 7.74H623.311V0.539998H620.371V20.28H623.311V10.32H627.241V7.74ZM609.391 18.72H606.421V27.9H624.061V25.32H609.391V18.72ZM635.585 8.37C635.585 12.45 635.585 14.55 627.125 19.98L628.775 22.29C636.905 16.86 638.315 14.55 638.465 9.87H642.455V14.43H638.405V17.01H642.455V26.85H645.365V1.11H642.455V7.29H638.495V3.24H627.905V5.79H635.585V8.37ZM651.005 0.539998H648.095V28.2H651.005V0.539998Z" fill="#3DABC1"/>
<path d="M710.04 119.52V106.36H708.1V108.6H702.88V110.22H708.1V111.82H702.88V113.44H708.1V119.52H710.04ZM695.78 107.46V116.9C701.14 116.9 703.18 116.78 706.04 116.4L705.84 114.76C702.88 115.14 701.02 115.2 697.72 115.2V107.46H695.78ZM700.5 118.88H698.52V124.6H710.42V122.88H700.5V118.88Z" fill="#3DABC1"/>
<path d="M585.408 121.746V123.572H596.056V121.68H588.092L593.042 116.4C594.472 114.882 595.484 113.386 595.484 111.67V111.45C595.484 109.14 593.746 107.468 590.534 107.468C587.608 107.468 586.2 109.294 585.452 110.658L587.124 111.736C588.158 109.888 589.412 109.426 590.578 109.426C592.228 109.426 593.306 110.196 593.306 111.45V111.626C593.306 112.462 593.13 113.342 591.326 115.322L585.408 121.746ZM608.428 114.398C608.428 109.954 606.558 107.468 602.818 107.468C599.122 107.468 597.208 109.954 597.208 114.398V116.862C597.208 121.306 599.056 123.814 602.818 123.814C606.624 123.814 608.428 121.35 608.428 116.862V114.398ZM606.206 116.884C606.206 120.8 604.754 121.79 602.818 121.79C600.97 121.79 599.43 120.778 599.43 116.884V114.376C599.43 110.526 600.97 109.492 602.818 109.492C604.754 109.492 606.206 110.504 606.206 114.376V116.884ZM617.565 123.572V107.71H615.739L610.635 110.702L611.669 112.462L615.387 110.262V123.572H617.565ZM623.535 110.988C624.393 109.866 625.317 109.404 626.615 109.404C628.045 109.404 629.233 110.108 629.233 111.494V111.67C629.233 113.034 628.551 114.354 626.571 114.354H624.701V116.246H626.659C628.507 116.246 629.937 116.862 629.937 118.952V119.238C629.937 120.668 628.881 121.834 626.571 121.834C625.207 121.834 624.107 121.438 622.567 120.316L621.489 122.054C622.985 123.242 624.723 123.814 626.571 123.814C630.465 123.814 632.115 121.548 632.115 119.216V118.886C632.115 117.06 631.037 115.608 628.903 115.234C630.861 114.53 631.389 112.902 631.389 111.648V111.428C631.389 109.052 629.519 107.468 626.593 107.468C624.217 107.468 622.897 108.524 621.973 109.844L623.535 110.988ZM641.099 117.896C643.079 117.896 644.223 116.334 644.399 113.914H642.529C642.375 115.256 642.001 116.048 641.121 116.048C639.757 116.048 639.119 113.98 636.985 113.98C635.071 113.98 633.883 115.762 633.707 117.962H635.621C635.731 117.126 636.105 115.828 637.007 115.828C638.305 115.828 638.943 117.896 641.099 117.896ZM645.71 121.746V123.572H656.358V121.68H648.394L653.344 116.4C654.774 114.882 655.786 113.386 655.786 111.67V111.45C655.786 109.14 654.048 107.468 650.836 107.468C647.91 107.468 646.502 109.294 645.754 110.658L647.426 111.736C648.46 109.888 649.714 109.426 650.88 109.426C652.53 109.426 653.608 110.196 653.608 111.45V111.626C653.608 112.462 653.432 113.342 651.628 115.322L645.71 121.746ZM668.73 114.398C668.73 109.954 666.86 107.468 663.12 107.468C659.424 107.468 657.51 109.954 657.51 114.398V116.862C657.51 121.306 659.358 123.814 663.12 123.814C666.926 123.814 668.73 121.35 668.73 116.862V114.398ZM666.508 116.884C666.508 120.8 665.056 121.79 663.12 121.79C661.272 121.79 659.732 120.778 659.732 116.884V114.376C659.732 110.526 661.272 109.492 663.12 109.492C665.056 109.492 666.508 110.504 666.508 114.376V116.884ZM669.926 121.746V123.572H680.574V121.68H672.61L677.56 116.4C678.99 114.882 680.002 113.386 680.002 111.67V111.45C680.002 109.14 678.264 107.468 675.052 107.468C672.126 107.468 670.718 109.294 669.97 110.658L671.642 111.736C672.676 109.888 673.93 109.426 675.096 109.426C676.746 109.426 677.824 110.196 677.824 111.45V111.626C677.824 112.462 677.648 113.342 675.844 115.322L669.926 121.746ZM692.946 114.398C692.946 109.954 691.076 107.468 687.336 107.468C683.64 107.468 681.726 109.954 681.726 114.398V116.862C681.726 121.306 683.574 123.814 687.336 123.814C691.142 123.814 692.946 121.35 692.946 116.862V114.398ZM690.724 116.884C690.724 120.8 689.272 121.79 687.336 121.79C685.488 121.79 683.948 120.778 683.948 116.884V114.376C683.948 110.526 685.488 109.492 687.336 109.492C689.272 109.492 690.724 110.504 690.724 114.376V116.884Z" fill="#3DABC1"/>
<path d="M869.969 162.806C869.969 164.353 871.244 166.393 873.896 166.393C876.548 166.393 877.823 164.353 877.823 162.806V161.922C877.823 160.375 876.548 158.335 873.896 158.335C871.244 158.335 869.969 160.375 869.969 161.922V162.806ZM884.147 162.092H881.92V157.706H880.254V168.892H881.92V163.554H884.147V162.092ZM874.032 168.008H872.349V173.21H882.345V171.748H874.032V168.008ZM876.208 162.738C876.208 163.775 875.528 164.931 873.896 164.931C872.281 164.931 871.584 163.775 871.584 162.738V161.99C871.584 160.953 872.264 159.797 873.896 159.797C875.528 159.797 876.208 160.953 876.208 161.99V162.738ZM889.063 163.877C889.182 164.132 889.522 164.455 890.032 164.88C890.848 165.56 891.579 166.121 892.463 166.733L893.415 165.509C892.429 164.846 891.545 164.2 890.729 163.486C889.998 162.857 889.845 162.211 889.845 161.123V160.154H892.939V158.709H884.847V160.154H888.145V161.191C888.145 162.432 887.873 163.112 887.04 163.894C886.445 164.455 885.408 165.254 884.32 166.019L885.306 167.226C886.258 166.563 887.193 165.849 887.907 165.203C888.434 164.727 888.944 164.166 889.046 163.877H889.063ZM897.087 168.875V157.706H895.421V161.701H892.531V163.146H895.421V168.875H897.087ZM888.978 167.974H887.295V173.21H897.41V171.748H888.978V167.974ZM910.808 158.845H909.142V161.531H902.138V158.862H900.472V166.903H904.79V169.861H898.449V171.289H912.831V169.861H906.473V166.903H910.808V158.845ZM902.138 162.959H909.142V165.475H902.138V162.959ZM925.992 168.892V157.706H924.326V161.854H920.739C920.756 161.735 920.756 161.599 920.756 161.463V158.709H914.075V160.137H919.107V161.378C919.107 163.095 918.291 163.928 913.429 166.053L914.092 167.413C918.019 165.73 919.753 164.693 920.399 163.299H924.326V168.892H925.992ZM917.883 168.059H916.2V173.21H926.315V171.748H917.883V168.059ZM930.891 170.83C930.891 172.479 932.693 173.822 935.702 173.822C938.711 173.822 940.513 172.479 940.513 170.83V170.15C940.513 168.501 938.711 167.158 935.702 167.158C932.693 167.158 930.891 168.501 930.891 170.15V170.83ZM933.509 161.021C933.509 162.823 932.591 163.656 927.865 165.628L928.528 166.971C933.883 164.693 935.158 163.741 935.158 161.14V158.675H928.511V160.103H933.509V161.021ZM940.445 166.954V157.706H938.796V159.967H936.025V161.412H938.796V163.231H935.77V164.676H938.796V166.954H940.445ZM938.864 170.728C938.864 171.561 937.64 172.445 935.702 172.445C933.764 172.445 932.54 171.561 932.54 170.728V170.252C932.54 169.419 933.764 168.535 935.702 168.535C937.64 168.535 938.864 169.419 938.864 170.252V170.728ZM945.343 170.83C945.343 172.479 947.145 173.822 950.154 173.822C953.163 173.822 954.965 172.479 954.965 170.83V170.15C954.965 168.501 953.163 167.158 950.154 167.158C947.145 167.158 945.343 168.501 945.343 170.15V170.83ZM950.086 161.735C950.086 160.222 948.862 158.301 946.193 158.301C943.524 158.301 942.3 160.222 942.3 161.735V162.602C942.3 164.115 943.524 166.036 946.193 166.036C948.862 166.036 950.086 164.115 950.086 162.602V161.735ZM954.897 166.954V157.706H953.248V159.661H950.783V161.106H953.248V163.197H950.783V164.642H953.248V166.954H954.897ZM953.316 170.728C953.316 171.561 952.092 172.445 950.154 172.445C948.216 172.445 946.992 171.561 946.992 170.728V170.252C946.992 169.419 948.216 168.535 950.154 168.535C952.092 168.535 953.316 169.419 953.316 170.252V170.728ZM948.471 162.517C948.471 163.52 947.757 164.574 946.193 164.574C944.629 164.574 943.915 163.52 943.915 162.517V161.82C943.915 160.817 944.629 159.763 946.193 159.763C947.757 159.763 948.471 160.817 948.471 161.82V162.517ZM969.248 173.38V157.706H967.565V173.38H969.248ZM961.19 165.543C961.326 165.883 961.734 166.359 962.21 166.869C962.856 167.566 963.621 168.331 964.794 169.419L965.882 168.263C964.862 167.362 964.114 166.648 963.383 165.849C962.346 164.693 962.023 163.996 962.023 162.653V158.828H960.323V162.653C960.323 163.86 960.051 164.625 959.014 165.798C958.249 166.648 957.365 167.515 956.328 168.433L957.433 169.572C958.589 168.518 959.49 167.617 960.187 166.852C960.731 166.257 961.02 165.917 961.173 165.543H961.19ZM970.713 169.861V171.289H985.095V169.861H970.713ZM977.921 163.639C978.108 164.03 978.805 164.625 979.91 165.322C980.93 165.968 982.171 166.682 983.429 167.396L984.245 166.087C982.902 165.356 981.916 164.795 980.845 164.098C979.009 162.891 978.754 162.194 978.754 160.528V158.811H977.054V160.528C977.054 162.194 976.697 162.925 975.15 163.979C974.011 164.744 972.94 165.356 971.58 166.104L972.413 167.43C973.824 166.648 974.912 165.985 975.898 165.356C977.037 164.625 977.734 164.03 977.904 163.639H977.921ZM998.493 167.634H988.514V173.397H998.493V167.634ZM992.475 164.404C990.877 164.591 989.942 164.642 987.392 164.642V162.959H991.115V161.616H987.392V159.933H991.795V158.556H985.777V166.019C989.993 166.019 991.047 165.985 992.645 165.764L992.475 164.404ZM996.844 171.986H990.163V169.045H996.844V171.986ZM991.965 162.789H993.954V166.784H995.552V157.91H993.954V161.361H991.965V162.789ZM996.878 166.818H998.493V157.706H996.878V166.818ZM1006.38 170.847C1006.38 172.496 1008.19 173.822 1011.19 173.822C1014.2 173.822 1016.01 172.496 1016.01 170.847V170.167C1016.01 168.518 1014.2 167.192 1011.19 167.192C1008.19 167.192 1006.38 168.518 1006.38 170.167V170.847ZM1007.91 163.503C1008.03 163.758 1008.37 164.081 1008.88 164.506C1009.7 165.186 1010.43 165.747 1011.31 166.359L1012.27 165.135C1011.26 164.472 1010.38 163.826 1009.58 163.095C1008.83 162.415 1008.7 161.837 1008.7 160.749V160.12H1011.79V158.675H1003.7V160.12H1007V160.817C1007 162.058 1006.71 162.704 1005.87 163.52C1005.26 164.115 1004.26 164.88 1003.17 165.645L1004.16 166.852C1005.11 166.189 1006.03 165.458 1006.76 164.829C1007.3 164.37 1007.79 163.792 1007.9 163.503H1007.91ZM1014.36 170.745C1014.36 171.578 1013.13 172.445 1011.19 172.445C1009.26 172.445 1008.03 171.578 1008.03 170.745V170.269C1008.03 169.436 1009.26 168.569 1011.19 168.569C1013.13 168.569 1014.36 169.436 1014.36 170.269V170.745ZM1015.94 166.971V157.706H1014.27V161.548H1011.38V162.993H1014.27V166.971H1015.94ZM1022.18 163.69C1022.3 163.945 1022.64 164.268 1023.15 164.693C1023.96 165.373 1024.7 165.934 1025.58 166.546L1026.53 165.322C1025.53 164.659 1024.64 164.013 1023.85 163.282C1023.1 162.602 1022.96 162.024 1022.96 160.97V160.817H1026.16V159.372H1022.96V157.519H1021.26V159.372H1017.86V160.817H1021.26V161.038C1021.26 162.245 1020.97 162.891 1020.14 163.707C1019.53 164.302 1018.52 165.067 1017.44 165.832L1018.42 167.039C1019.37 166.376 1020.29 165.645 1021.02 165.016C1021.57 164.557 1022.06 163.979 1022.16 163.69H1022.18ZM1019.77 169.317H1027.99V173.533H1029.68V167.872H1019.77V169.317ZM1031.9 161.616H1029.68V157.706H1028.01V167.056H1029.68V163.078H1031.9V161.616Z" fill="#222222"/>
<path d="M870.734 199.575H872.451V197.875H870.734V199.575ZM870.734 192.061H872.451V190.361H870.734V192.061ZM886.505 188.185H884.907L878.991 194.373V188.185H877.801V200.442H878.991V195.903L880.555 194.288L885.298 200.442H886.828L881.405 193.421L886.505 188.185ZM891.511 187.998C888.468 187.998 886.734 190.123 886.734 193.472V195.155C886.734 198.504 888.485 200.629 891.511 200.629C894.537 200.629 896.288 198.504 896.288 195.155V193.472C896.288 190.123 894.537 187.998 891.511 187.998ZM891.511 199.558C889.335 199.558 887.941 197.977 887.941 195.053V193.574C887.941 190.65 889.335 189.069 891.511 189.069C893.687 189.069 895.081 190.65 895.081 193.574V195.053C895.081 197.977 893.687 199.558 891.511 199.558ZM901.514 199.524C900.409 199.524 899.219 199.15 898.012 198.266L897.4 199.269C898.488 200.102 899.95 200.629 901.565 200.629C904.217 200.629 905.781 199.167 905.781 197.416V197.025C905.781 195.274 904.897 194.339 901.735 193.625C899.508 193.115 898.828 192.503 898.828 191.449V191.109C898.828 189.834 900.12 189.086 901.633 189.086C902.891 189.086 903.928 189.443 904.71 190.004L905.271 189.035C904.438 188.44 903.282 187.998 901.633 187.998C899.304 187.998 897.621 189.256 897.621 191.109V191.5C897.621 193.047 898.505 194.067 901.361 194.713C903.979 195.308 904.574 195.903 904.574 197.059V197.416C904.574 198.521 903.435 199.524 901.514 199.524ZM914.578 200.442H915.768V188.185H914.578V193.455H908.271V188.185H907.081V200.442H908.271V194.645H914.578V200.442ZM922.427 188.185H921.084L916.528 200.442H917.752L919.146 196.634H924.331L925.691 200.442H926.966L922.427 188.185ZM920.744 192.282C921.05 191.449 921.288 190.837 921.747 189.239C922.24 190.837 922.461 191.449 922.767 192.282L923.957 195.597H919.52L920.744 192.282ZM927.174 194.866H932.478V193.778H927.174V194.866ZM938.753 198.402H939.875L943.156 191.466C943.445 190.888 943.581 190.65 943.734 189.919V200.442H944.907V188.185H943.496L939.331 197.161L935.183 188.185H933.721V200.442H934.894V189.919C935.081 190.65 935.217 190.888 935.506 191.466L938.753 198.402ZM950.435 199.524C949.33 199.524 948.14 199.15 946.933 198.266L946.321 199.269C947.409 200.102 948.871 200.629 950.486 200.629C953.138 200.629 954.702 199.167 954.702 197.416V197.025C954.702 195.274 953.818 194.339 950.656 193.625C948.429 193.115 947.749 192.503 947.749 191.449V191.109C947.749 189.834 949.041 189.086 950.554 189.086C951.812 189.086 952.849 189.443 953.631 190.004L954.192 189.035C953.359 188.44 952.203 187.998 950.554 187.998C948.225 187.998 946.542 189.256 946.542 191.109V191.5C946.542 193.047 947.426 194.067 950.282 194.713C952.9 195.308 953.495 195.903 953.495 197.059V197.416C953.495 198.521 952.356 199.524 950.435 199.524ZM962.955 197.042H961.748V202.125H971.642V201.071H962.955V197.042ZM971.251 186.774H970.061V197.892H971.251V186.774ZM962.955 195.308C965.284 195.308 966.78 193.574 966.78 191.891V190.871C966.78 189.188 965.284 187.454 962.955 187.454C960.626 187.454 959.13 189.188 959.13 190.871V191.891C959.13 193.574 960.626 195.308 962.955 195.308ZM962.955 188.525C964.536 188.525 965.624 189.698 965.624 190.973V191.789C965.624 193.064 964.536 194.237 962.955 194.237C961.374 194.237 960.286 193.064 960.286 191.789V190.973C960.286 189.698 961.374 188.525 962.955 188.525ZM980.009 196.634C977.459 196.634 975.181 197.552 975.181 199.388V199.966C975.181 201.768 977.459 202.72 980.009 202.72C982.559 202.72 984.837 201.768 984.837 199.966V199.388C984.837 197.586 982.559 196.634 980.009 196.634ZM979.992 190.599H980.009C980.196 190.956 980.978 191.398 982.032 191.823C982.916 192.197 984.089 192.639 985.483 193.098L985.925 192.163C984.497 191.704 983.205 191.228 982.372 190.871C980.978 190.276 980.604 189.783 980.604 188.899V188.457H985.279V187.437H974.739V188.457H979.397V188.899C979.397 189.783 979.006 190.259 977.612 190.871C976.762 191.245 975.606 191.67 974.059 192.18L974.535 193.115C975.929 192.656 977 192.248 977.969 191.84C979.023 191.398 979.805 190.973 979.992 190.599ZM980.009 201.7C978.173 201.7 976.337 201.054 976.337 199.898V199.456C976.337 198.3 978.173 197.654 980.009 197.654C981.845 197.654 983.681 198.3 983.681 199.456V199.898C983.681 201.054 981.845 201.7 980.009 201.7ZM972.869 194.186V195.223H987.149V194.186H972.869ZM995.566 192.673C995.634 192.894 996.297 193.472 997.096 194.118C997.606 194.526 998.405 195.121 999.102 195.597L999.799 194.764C998.83 194.118 997.878 193.404 997.334 192.945C996.229 191.993 996.11 191.534 996.11 190.531V188.831H999.442V187.794H991.401V188.831H994.903V190.582C994.903 191.5 994.716 192.095 993.883 192.911C993.05 193.727 991.962 194.56 990.959 195.274L991.69 196.124C992.472 195.563 993.628 194.645 994.223 194.118C994.937 193.489 995.481 192.928 995.549 192.673H995.566ZM999.034 190.905V191.959H1002.28V197.875H1003.47V186.774H1002.28V190.905H999.034ZM995.158 196.974H993.951V202.125H1003.86V201.071H995.158V196.974ZM1015.02 195.631C1013.72 195.767 1012.38 195.869 1010.44 195.92V194.696C1012.42 194.543 1013.35 193.625 1013.35 192.52V192.112C1013.35 190.922 1012.23 189.919 1009.85 189.919C1007.47 189.919 1006.35 190.905 1006.35 192.112V192.52C1006.35 193.625 1007.28 194.543 1009.25 194.696V195.954C1008.06 195.971 1006.69 195.971 1005.02 195.971V197.025C1010.21 197.025 1013.01 196.889 1015.12 196.634L1015.02 195.631ZM1017.31 186.774H1016.12V198.538H1017.31V193.03H1019.64V191.959H1017.31V186.774ZM1008.9 198.096H1007.69V202.142H1017.74V201.088H1008.9V198.096ZM1009.85 190.905C1011.45 190.905 1012.21 191.517 1012.21 192.163V192.469C1012.21 193.115 1011.45 193.727 1009.85 193.727C1008.25 193.727 1007.49 193.115 1007.49 192.469V192.163C1007.49 191.517 1008.25 190.905 1009.85 190.905ZM1005.6 188.134V189.171H1014.1V188.134H1010.44V186.621H1009.25V188.134H1005.6Z" fill="#222222"/>
<path d="M870.734 228.575H872.451V226.875H870.734V228.575ZM870.734 221.061H872.451V219.361H870.734V221.061ZM877.801 229.442H878.991V217.185H877.801V229.442ZM884.521 228.524C883.416 228.524 882.226 228.15 881.019 227.266L880.407 228.269C881.495 229.102 882.957 229.629 884.572 229.629C887.224 229.629 888.788 228.167 888.788 226.416V226.025C888.788 224.274 887.904 223.339 884.742 222.625C882.515 222.115 881.835 221.503 881.835 220.449V220.109C881.835 218.834 883.127 218.086 884.64 218.086C885.898 218.086 886.935 218.443 887.717 219.004L888.278 218.035C887.445 217.44 886.289 216.998 884.64 216.998C882.311 216.998 880.628 218.256 880.628 220.109V220.5C880.628 222.047 881.512 223.067 884.368 223.713C886.986 224.308 887.581 224.903 887.581 226.059V226.416C887.581 227.521 886.442 228.524 884.521 228.524ZM894.559 216.998C891.516 216.998 889.782 219.123 889.782 222.472V224.155C889.782 227.504 891.533 229.629 894.559 229.629C897.585 229.629 899.336 227.504 899.336 224.155V222.472C899.336 219.123 897.585 216.998 894.559 216.998ZM894.559 228.558C892.383 228.558 890.989 226.977 890.989 224.053V222.574C890.989 219.65 892.383 218.069 894.559 218.069C896.735 218.069 898.129 219.65 898.129 222.574V224.053C898.129 226.977 896.735 228.558 894.559 228.558ZM909.457 221.775V225.634H904.697L910.63 217.185H909.27L903.32 225.634V226.722H909.457V229.442H910.647V226.722H912.449V225.634H910.647V221.775H909.457ZM919.906 225.974C919.906 227.096 919.124 228.541 916.931 228.541C915.792 228.541 914.738 228.201 913.565 227.3L912.953 228.269C914.041 229.102 915.265 229.629 916.931 229.629C919.991 229.629 921.079 227.708 921.079 225.957V225.702C921.079 223.526 919.838 221.86 917.424 221.86C916.404 221.86 915.401 222.217 914.857 222.727L915.044 218.273H920.297V217.185H913.99L913.599 223.9H914.721C915.265 223.373 916.098 222.931 917.135 222.931C918.903 222.931 919.906 223.798 919.906 225.753V225.974ZM930.269 222.353C930.269 218.919 928.977 216.998 926.087 216.998C923.231 216.998 921.939 218.919 921.939 222.353V224.257C921.939 227.691 923.18 229.629 926.087 229.629C929.028 229.629 930.269 227.725 930.269 224.257V222.353ZM929.045 224.274C929.045 227.334 928.042 228.558 926.087 228.558C924.2 228.558 923.163 227.317 923.163 224.274V222.336C923.163 219.327 924.2 218.069 926.087 218.069C928.042 218.069 929.045 219.31 929.045 222.336V224.274ZM939.442 222.353C939.442 218.919 938.15 216.998 935.26 216.998C932.404 216.998 931.112 218.919 931.112 222.353V224.257C931.112 227.691 932.353 229.629 935.26 229.629C938.201 229.629 939.442 227.725 939.442 224.257V222.353ZM938.218 224.274C938.218 227.334 937.215 228.558 935.26 228.558C933.373 228.558 932.336 227.317 932.336 224.274V222.336C932.336 219.327 933.373 218.069 935.26 218.069C937.215 218.069 938.218 219.31 938.218 222.336V224.274ZM945.828 229.442V217.185H944.927L941.136 219.531L941.68 220.483L944.638 218.681V229.442H945.828ZM956.888 226.042H955.681V231.125H965.575V230.071H956.888V226.042ZM965.184 215.774H963.994V226.892H965.184V215.774ZM956.888 224.308C959.217 224.308 960.713 222.574 960.713 220.891V219.871C960.713 218.188 959.217 216.454 956.888 216.454C954.559 216.454 953.063 218.188 953.063 219.871V220.891C953.063 222.574 954.559 224.308 956.888 224.308ZM956.888 217.525C958.469 217.525 959.557 218.698 959.557 219.973V220.789C959.557 222.064 958.469 223.237 956.888 223.237C955.307 223.237 954.219 222.064 954.219 220.789V219.973C954.219 218.698 955.307 217.525 956.888 217.525ZM973.942 225.634C971.392 225.634 969.114 226.552 969.114 228.388V228.966C969.114 230.768 971.392 231.72 973.942 231.72C976.492 231.72 978.77 230.768 978.77 228.966V228.388C978.77 226.586 976.492 225.634 973.942 225.634ZM973.925 219.599H973.942C974.129 219.956 974.911 220.398 975.965 220.823C976.849 221.197 978.022 221.639 979.416 222.098L979.858 221.163C978.43 220.704 977.138 220.228 976.305 219.871C974.911 219.276 974.537 218.783 974.537 217.899V217.457H979.212V216.437H968.672V217.457H973.33V217.899C973.33 218.783 972.939 219.259 971.545 219.871C970.695 220.245 969.539 220.67 967.992 221.18L968.468 222.115C969.862 221.656 970.933 221.248 971.902 220.84C972.956 220.398 973.738 219.973 973.925 219.599ZM973.942 230.7C972.106 230.7 970.27 230.054 970.27 228.898V228.456C970.27 227.3 972.106 226.654 973.942 226.654C975.778 226.654 977.614 227.3 977.614 228.456V228.898C977.614 230.054 975.778 230.7 973.942 230.7ZM966.802 223.186V224.223H981.082V223.186H966.802ZM989.873 220.704C989.975 220.942 990.502 221.316 991.012 221.656C991.743 222.132 992.661 222.676 993.562 223.186L994.157 222.302C993.001 221.656 991.879 220.993 991.335 220.585C990.519 219.956 990.417 219.599 990.417 218.681V218.358H993.936V217.321H990.417V215.638H989.227V217.321H985.708V218.358H989.227V218.715C989.227 219.633 989.108 220.007 988.343 220.602C987.765 221.061 986.575 221.792 985.198 222.557L985.844 223.458C986.66 222.999 987.901 222.268 988.768 221.673C989.329 221.282 989.754 220.925 989.856 220.704H989.873ZM997.489 215.774H996.282V231.312H997.489V215.774ZM995.092 224.155C992.814 224.41 989.72 224.529 984.807 224.529V225.583C986.49 225.583 987.884 225.566 989.108 225.549V230.819H990.332V225.498C992.202 225.43 993.647 225.345 995.194 225.192L995.092 224.155ZM998.937 223.509V224.546H1013.22V223.509H998.937ZM1000.76 227.419H1009.97V231.431H1011.16V226.382H1000.76V227.419ZM1011.01 216.437H1001.1V221.69H1011.09V220.653H1002.27V217.474H1011.01V216.437Z" fill="#222222"/>
<path d="M880.61 10.98V17.61H873.29L883.25 3.15H879.98L869.81 17.91V20.13H880.61V24.78H883.55V20.13H886.61V17.61H883.55V10.98H880.61ZM902.851 12.39C898.681 12.84 896.821 12.96 890.671 12.96V4.89H900.571V2.34H887.761V15.51C896.401 15.51 898.921 15.39 903.151 14.85L902.851 12.39ZM912.241 7.74H908.311V0.539998H905.371V20.28H908.311V10.32H912.241V7.74ZM894.391 18.72H891.421V27.9H909.061V25.32H894.391V18.72ZM920.585 8.37C920.585 12.45 920.585 14.55 912.125 19.98L913.775 22.29C921.905 16.86 923.315 14.55 923.465 9.87H927.455V14.43H923.405V17.01H927.455V26.85H930.365V1.11H927.455V7.29H923.495V3.24H912.905V5.79H920.585V8.37ZM936.005 0.539998H933.095V28.2H936.005V0.539998Z" fill="#33B9A5"/>
<path d="M935.04 119.52V106.36H933.1V108.6H927.88V110.22H933.1V111.82H927.88V113.44H933.1V119.52H935.04ZM920.78 107.46V116.9C926.14 116.9 928.18 116.78 931.04 116.4L930.84 114.76C927.88 115.14 926.02 115.2 922.72 115.2V107.46H920.78ZM925.5 118.88H923.52V124.6H935.42V122.88H925.5V118.88ZM943.883 117.36C945.683 117.36 946.723 115.94 946.883 113.74H945.183C945.043 114.96 944.703 115.68 943.903 115.68C942.663 115.68 942.083 113.8 940.143 113.8C938.403 113.8 937.323 115.42 937.163 117.42H938.903C939.003 116.66 939.343 115.48 940.163 115.48C941.343 115.48 941.923 117.36 943.883 117.36Z" fill="#33B9A5"/>
<path d="M870.408 121.746V123.572H881.056V121.68H873.092L878.042 116.4C879.472 114.882 880.484 113.386 880.484 111.67V111.45C880.484 109.14 878.746 107.468 875.534 107.468C872.608 107.468 871.2 109.294 870.452 110.658L872.124 111.736C873.158 109.888 874.412 109.426 875.578 109.426C877.228 109.426 878.306 110.196 878.306 111.45V111.626C878.306 112.462 878.13 113.342 876.326 115.322L870.408 121.746ZM893.428 114.398C893.428 109.954 891.558 107.468 887.818 107.468C884.122 107.468 882.208 109.954 882.208 114.398V116.862C882.208 121.306 884.056 123.814 887.818 123.814C891.624 123.814 893.428 121.35 893.428 116.862V114.398ZM891.206 116.884C891.206 120.8 889.754 121.79 887.818 121.79C885.97 121.79 884.43 120.778 884.43 116.884V114.376C884.43 110.526 885.97 109.492 887.818 109.492C889.754 109.492 891.206 110.504 891.206 114.376V116.884ZM894.623 121.746V123.572H905.271V121.68H897.307L902.257 116.4C903.687 114.882 904.699 113.386 904.699 111.67V111.45C904.699 109.14 902.961 107.468 899.749 107.468C896.823 107.468 895.415 109.294 894.667 110.658L896.339 111.736C897.373 109.888 898.627 109.426 899.793 109.426C901.443 109.426 902.521 110.196 902.521 111.45V111.626C902.521 112.462 902.345 113.342 900.541 115.322L894.623 121.746ZM914.673 123.572V107.71H912.847L907.743 110.702L908.777 112.462L912.495 110.262V123.572H914.673Z" fill="#33B9A5"/>
</svg>
