<svg width="410" height="229" viewBox="0 0 410 229" fill="none" xmlns="http://www.w3.org/2000/svg">
<path d="M410 228H0V229H410V228Z" fill="#DDDDDD"/>
<path d="M140 120H0V228H140V120Z" fill="white"/>
<path d="M230 120H140V228H230V120Z" fill="white"/>
<path d="M320 120H230V228H320V120Z" fill="white"/>
<path d="M410 120H320V228H410V120Z" fill="white"/>
<path d="M42.876 139.575H41.691L37.671 150.39H38.751L39.981 147.03H44.556L45.756 150.39H46.881L42.876 139.575ZM41.391 143.19C41.661 142.455 41.871 141.915 42.276 140.505C42.711 141.915 42.906 142.455 43.176 143.19L44.226 146.115H40.311L41.391 143.19ZM49.9902 150.39L52.9002 142.305H51.8352L49.4352 149.34L46.9902 142.305H45.8952L48.8502 150.39H49.9902ZM54.0266 145.815V145.68C54.0266 144.09 54.8666 143.055 56.2916 143.055C57.7016 143.055 58.5266 144 58.5266 145.68V145.815H54.0266ZM58.9166 148.815C58.3316 149.235 57.5216 149.61 56.4416 149.61C54.9566 149.61 54.0266 148.59 54.0266 146.805V146.67H59.5466V145.83C59.5466 143.565 58.3916 142.155 56.2916 142.155C54.2666 142.155 53.0066 143.505 53.0066 145.8V146.805C53.0066 149.16 54.2816 150.51 56.4266 150.51C57.7916 150.51 58.7216 150.045 59.3666 149.595L58.9166 148.815ZM65.1405 142.32C64.8105 142.2 64.4355 142.155 63.9855 142.155C62.7555 142.155 62.0055 142.95 61.6605 143.73V142.305H60.6555V150.39H61.6755V145.8C61.6755 144.285 62.5155 143.19 63.8505 143.19C64.2405 143.19 64.5555 143.25 64.8255 143.355L65.1405 142.32ZM67.8048 150.51C68.4198 150.51 68.9898 150.39 69.4398 150.165C69.8598 149.955 70.1898 149.655 70.3398 149.4H70.3548V150.39H71.3448V144.735C71.3448 143.1 70.2348 142.155 68.4348 142.155C67.2048 142.155 66.2898 142.59 65.5398 143.115L66.0348 143.895C66.7248 143.415 67.5498 143.07 68.4198 143.07C69.6798 143.07 70.3398 143.73 70.3398 144.9V145.65H68.0598C66.1848 145.65 65.2098 146.565 65.2098 147.87V148.2C65.2098 149.625 66.2748 150.51 67.8048 150.51ZM70.3398 147.87C70.3398 148.485 70.0098 148.89 69.5748 149.16C69.0948 149.46 68.5998 149.625 67.9548 149.625C67.1298 149.625 66.2298 149.205 66.2298 148.155V147.915C66.2298 147.09 66.7848 146.505 68.0748 146.505H70.3398V147.87ZM77.9629 150.285C77.9629 151.98 77.1679 152.775 75.6829 152.775C74.7679 152.775 74.1979 152.625 73.4479 152.1L72.9829 152.895C73.6579 153.42 74.5429 153.735 75.6829 153.735C77.6929 153.735 78.9829 152.55 78.9829 150.255V142.305H77.9779V143.295C77.5579 142.695 76.7329 142.155 75.5479 142.155C73.7029 142.155 72.3379 143.415 72.3379 145.62V146.895C72.3379 149.1 73.7029 150.36 75.5629 150.36C76.4929 150.36 77.4979 149.985 77.9479 149.175H77.9629V150.285ZM73.3579 145.77C73.3579 144.06 74.2429 143.055 75.6079 143.055C76.9879 143.055 77.9629 144.12 77.9629 145.065V147.345C77.9629 148.77 76.9129 149.46 75.6079 149.46C74.2579 149.46 73.3579 148.47 73.3579 146.745V145.77ZM81.1444 145.815V145.68C81.1444 144.09 81.9844 143.055 83.4094 143.055C84.8194 143.055 85.6444 144 85.6444 145.68V145.815H81.1444ZM86.0344 148.815C85.4494 149.235 84.6394 149.61 83.5594 149.61C82.0744 149.61 81.1444 148.59 81.1444 146.805V146.67H86.6644V145.83C86.6644 143.565 85.5094 142.155 83.4094 142.155C81.3844 142.155 80.1244 143.505 80.1244 145.8V146.805C80.1244 149.16 81.3994 150.51 83.5444 150.51C84.9094 150.51 85.8394 150.045 86.4844 149.595L86.0344 148.815ZM93.6832 142.155C91.5232 142.155 90.2482 143.49 90.2482 145.83V146.835C90.2482 149.16 91.5232 150.51 93.6832 150.51C95.8432 150.51 97.1182 149.16 97.1182 146.835V145.83C97.1182 143.505 95.8432 142.155 93.6832 142.155ZM93.6832 149.61C92.1982 149.61 91.2832 148.68 91.2832 146.775V145.89C91.2832 143.985 92.1982 143.055 93.6832 143.055C95.1682 143.055 96.0832 143.985 96.0832 145.89V146.775C96.0832 148.68 95.1682 149.61 93.6832 149.61ZM98.9086 150.39H99.9286V143.175H102.164V142.305H99.9286V141.33C99.9286 140.235 100.259 139.845 101.069 139.845C101.474 139.845 101.834 139.89 102.209 139.995L102.359 139.155C102.044 139.035 101.429 138.96 100.994 138.96C99.6436 138.96 98.9086 139.53 98.9086 141.285V142.305H97.5286V143.175H98.9086V150.39ZM27.5607 161.155C25.5807 161.155 24.2157 162.445 24.2157 164.8V165.805C24.2157 168.16 25.4757 169.51 27.5757 169.51C29.0307 169.51 29.8557 169.045 30.4407 168.595L29.9607 167.785C29.3757 168.22 28.7157 168.58 27.5907 168.58C26.1507 168.58 25.2507 167.575 25.2507 165.805V164.77C25.2507 163.09 26.1357 162.07 27.5607 162.07C28.3257 162.07 29.0007 162.22 29.7507 162.745L30.2157 161.95C29.5407 161.44 28.7007 161.155 27.5607 161.155ZM34.1628 161.155C32.0028 161.155 30.7278 162.49 30.7278 164.83V165.835C30.7278 168.16 32.0028 169.51 34.1628 169.51C36.3228 169.51 37.5978 168.16 37.5978 165.835V164.83C37.5978 162.505 36.3228 161.155 34.1628 161.155ZM34.1628 168.61C32.6778 168.61 31.7628 167.68 31.7628 165.775V164.89C31.7628 162.985 32.6778 162.055 34.1628 162.055C35.6478 162.055 36.5628 162.985 36.5628 164.89V165.775C36.5628 167.68 35.6478 168.61 34.1628 168.61ZM46.9032 161.155C45.6132 161.155 44.8032 161.935 44.4432 162.625C44.0832 161.695 43.2882 161.155 41.9982 161.155C40.8132 161.155 40.0932 161.785 39.7332 162.43V161.305H38.7282V169.39H39.7482V164.14C39.7482 163.195 40.4832 162.085 41.8182 162.085C43.2732 162.085 43.6332 162.91 43.6332 164.215V169.39H44.6532V164.08C44.6832 163.15 45.4182 162.085 46.7232 162.085C48.1782 162.085 48.5382 162.91 48.5382 164.215V169.39H49.5582V163.945C49.5582 162.235 48.7332 161.155 46.9032 161.155ZM52.0322 168.43C52.4672 169 53.2922 169.51 54.4322 169.51C56.2772 169.51 57.6422 168.25 57.6422 166.045V164.62C57.6422 162.415 56.3522 161.155 54.4322 161.155C53.4272 161.155 52.4822 161.635 52.0022 162.445V161.305H50.9972V172.6H52.0172V168.43H52.0322ZM56.6222 165.895C56.6222 167.605 55.7372 168.61 54.3722 168.61C52.9922 168.61 52.0172 167.65 52.0172 166.705V164.335C52.0172 162.91 53.2622 162.085 54.3722 162.085C55.7522 162.085 56.6222 163.045 56.6222 164.77V165.895ZM63.2687 161.32C62.9387 161.2 62.5637 161.155 62.1137 161.155C60.8837 161.155 60.1337 161.95 59.7887 162.73V161.305H58.7837V169.39H59.8037V164.8C59.8037 163.285 60.6437 162.19 61.9787 162.19C62.3687 162.19 62.6837 162.25 62.9537 162.355L63.2687 161.32ZM64.3881 164.815V164.68C64.3881 163.09 65.2281 162.055 66.6531 162.055C68.0631 162.055 68.8881 163 68.8881 164.68V164.815H64.3881ZM69.2781 167.815C68.6931 168.235 67.8831 168.61 66.8031 168.61C65.3181 168.61 64.3881 167.59 64.3881 165.805V165.67H69.9081V164.83C69.9081 162.565 68.7531 161.155 66.6531 161.155C64.6281 161.155 63.3681 162.505 63.3681 164.8V165.805C63.3681 168.16 64.6431 169.51 66.7881 169.51C68.1531 169.51 69.0831 169.045 69.7281 168.595L69.2781 167.815ZM74.4969 161.155C73.2219 161.155 72.4119 161.815 72.0369 162.43V158.05H71.0169V169.39H72.0369V164.14C72.0369 163.195 72.9819 162.085 74.3469 162.085C75.9519 162.085 76.3869 163.045 76.3869 164.2V169.39H77.4069V163.945C77.4069 162.265 76.3419 161.155 74.4969 161.155ZM79.4924 164.815V164.68C79.4924 163.09 80.3324 162.055 81.7574 162.055C83.1674 162.055 83.9924 163 83.9924 164.68V164.815H79.4924ZM84.3824 167.815C83.7974 168.235 82.9874 168.61 81.9074 168.61C80.4224 168.61 79.4924 167.59 79.4924 165.805V165.67H85.0124V164.83C85.0124 162.565 83.8574 161.155 81.7574 161.155C79.7324 161.155 78.4724 162.505 78.4724 164.8V165.805C78.4724 168.16 79.7474 169.51 81.8924 169.51C83.2574 169.51 84.1874 169.045 84.8324 168.595L84.3824 167.815ZM89.6012 161.155C88.3262 161.155 87.5012 161.815 87.1262 162.43V161.305H86.1212V169.39H87.1412V164.14C87.1412 163.195 88.0862 162.085 89.4512 162.085C91.0562 162.085 91.4912 163.045 91.4912 164.2V169.39H92.5112V163.945C92.5112 162.265 91.4462 161.155 89.6012 161.155ZM96.5167 168.595C95.5717 168.595 94.7017 168.25 93.9667 167.755L93.4717 168.565C94.2367 169.12 95.2717 169.51 96.5767 169.51C98.2867 169.51 99.5467 168.61 99.5467 167.32V167.095C99.5467 165.805 98.7067 165.16 96.7117 164.785C95.4367 164.545 94.6867 164.185 94.6867 163.48V163.315C94.6867 162.61 95.3467 162.055 96.5617 162.055C97.5967 162.055 98.2267 162.31 98.9017 162.76L99.3667 161.995C98.7067 161.5 97.8217 161.155 96.5917 161.155C94.6117 161.155 93.6667 162.145 93.6667 163.3V163.51C93.6667 164.83 94.7317 165.355 96.3517 165.67C97.8967 165.97 98.5267 166.33 98.5267 167.14V167.29C98.5267 167.98 97.8217 168.595 96.5167 168.595ZM100.523 169.39H101.543V161.305H100.523V169.39ZM100.478 159.76H101.588V158.62H100.478V159.76ZM106.244 169.39L109.154 161.305H108.089L105.689 168.34L103.244 161.305H102.149L105.104 169.39H106.244ZM110.28 164.815V164.68C110.28 163.09 111.12 162.055 112.545 162.055C113.955 162.055 114.78 163 114.78 164.68V164.815H110.28ZM115.17 167.815C114.585 168.235 113.775 168.61 112.695 168.61C111.21 168.61 110.28 167.59 110.28 165.805V165.67H115.8V164.83C115.8 162.565 114.645 161.155 112.545 161.155C110.52 161.155 109.26 162.505 109.26 164.8V165.805C109.26 168.16 110.535 169.51 112.68 169.51C114.045 169.51 114.975 169.045 115.62 168.595L115.17 167.815ZM35.8998 180.155C33.9198 180.155 32.5548 181.445 32.5548 183.8V184.805C32.5548 187.16 33.8148 188.51 35.9148 188.51C37.3698 188.51 38.1948 188.045 38.7798 187.595L38.2998 186.785C37.7148 187.22 37.0548 187.58 35.9298 187.58C34.4898 187.58 33.5898 186.575 33.5898 184.805V183.77C33.5898 182.09 34.4748 181.07 35.8998 181.07C36.6648 181.07 37.3398 181.22 38.0898 181.745L38.5548 180.95C37.8798 180.44 37.0398 180.155 35.8998 180.155ZM42.5019 180.155C40.3419 180.155 39.0669 181.49 39.0669 183.83V184.835C39.0669 187.16 40.3419 188.51 42.5019 188.51C44.6619 188.51 45.9369 187.16 45.9369 184.835V183.83C45.9369 181.505 44.6619 180.155 42.5019 180.155ZM42.5019 187.61C41.0169 187.61 40.1019 186.68 40.1019 184.775V183.89C40.1019 181.985 41.0169 181.055 42.5019 181.055C43.9869 181.055 44.9019 181.985 44.9019 183.89V184.775C44.9019 186.68 43.9869 187.61 42.5019 187.61ZM50.5473 180.155C49.2723 180.155 48.4473 180.815 48.0723 181.43V180.305H47.0673V188.39H48.0873V183.14C48.0873 182.195 49.0323 181.085 50.3973 181.085C52.0023 181.085 52.4373 182.045 52.4373 183.2V188.39H53.4573V182.945C53.4573 181.265 52.3923 180.155 50.5473 180.155ZM57.4628 187.595C56.5178 187.595 55.6478 187.25 54.9128 186.755L54.4178 187.565C55.1828 188.12 56.2178 188.51 57.5228 188.51C59.2328 188.51 60.4928 187.61 60.4928 186.32V186.095C60.4928 184.805 59.6528 184.16 57.6578 183.785C56.3828 183.545 55.6328 183.185 55.6328 182.48V182.315C55.6328 181.61 56.2928 181.055 57.5078 181.055C58.5428 181.055 59.1728 181.31 59.8478 181.76L60.3128 180.995C59.6528 180.5 58.7678 180.155 57.5378 180.155C55.5578 180.155 54.6128 181.145 54.6128 182.3V182.51C54.6128 183.83 55.6778 184.355 57.2978 184.67C58.8428 184.97 59.4728 185.33 59.4728 186.14V186.29C59.4728 186.98 58.7678 187.595 57.4628 187.595ZM62.0545 186.14C62.0545 187.895 62.7295 188.465 64.1395 188.465C64.5745 188.465 65.1895 188.39 65.5045 188.27L65.3545 187.43C64.9795 187.535 64.6195 187.58 64.2145 187.58C63.4045 187.58 63.0745 187.19 63.0745 186.095V181.175H65.3095V180.305H63.0745V178.22H62.0545V180.305H60.6745V181.175H62.0545V186.14ZM70.8249 180.32C70.4949 180.2 70.1199 180.155 69.6699 180.155C68.4399 180.155 67.6899 180.95 67.3449 181.73V180.305H66.3399V188.39H67.3599V183.8C67.3599 182.285 68.1999 181.19 69.5349 181.19C69.9249 181.19 70.2399 181.25 70.5099 181.355L70.8249 180.32ZM74.0593 188.51C75.3343 188.51 76.1743 187.88 76.5493 187.265V188.39H77.5543V180.305H76.5343V185.555C76.5343 186.5 75.5743 187.58 74.2093 187.58C72.6043 187.58 72.2593 186.62 72.2593 185.465V180.305H71.2393V185.72C71.2393 187.4 72.2143 188.51 74.0593 188.51ZM82.0412 180.155C80.0612 180.155 78.6962 181.445 78.6962 183.8V184.805C78.6962 187.16 79.9562 188.51 82.0562 188.51C83.5112 188.51 84.3362 188.045 84.9212 187.595L84.4412 186.785C83.8562 187.22 83.1962 187.58 82.0712 187.58C80.6312 187.58 79.7312 186.575 79.7312 184.805V183.77C79.7312 182.09 80.6162 181.07 82.0412 181.07C82.8062 181.07 83.4812 181.22 84.2312 181.745L84.6962 180.95C84.0212 180.44 83.1812 180.155 82.0412 180.155ZM86.2133 186.14C86.2133 187.895 86.8883 188.465 88.2983 188.465C88.7333 188.465 89.3483 188.39 89.6633 188.27L89.5133 187.43C89.1383 187.535 88.7783 187.58 88.3733 187.58C87.5633 187.58 87.2333 187.19 87.2333 186.095V181.175H89.4683V180.305H87.2333V178.22H86.2133V180.305H84.8333V181.175H86.2133V186.14ZM90.5437 188.39H91.5637V180.305H90.5437V188.39ZM90.4987 178.76H91.6087V177.62H90.4987V178.76ZM96.1744 180.155C94.0144 180.155 92.7394 181.49 92.7394 183.83V184.835C92.7394 187.16 94.0144 188.51 96.1744 188.51C98.3344 188.51 99.6094 187.16 99.6094 184.835V183.83C99.6094 181.505 98.3344 180.155 96.1744 180.155ZM96.1744 187.61C94.6894 187.61 93.7744 186.68 93.7744 184.775V183.89C93.7744 181.985 94.6894 181.055 96.1744 181.055C97.6594 181.055 98.5744 181.985 98.5744 183.89V184.775C98.5744 186.68 97.6594 187.61 96.1744 187.61ZM104.22 180.155C102.945 180.155 102.12 180.815 101.745 181.43V180.305H100.74V188.39H101.76V183.14C101.76 182.195 102.705 181.085 104.07 181.085C105.675 181.085 106.11 182.045 106.11 183.2V188.39H107.13V182.945C107.13 181.265 106.065 180.155 104.22 180.155ZM41.0244 199.155C39.0444 199.155 37.6794 200.445 37.6794 202.8V203.805C37.6794 206.16 38.9394 207.51 41.0394 207.51C42.4944 207.51 43.3194 207.045 43.9044 206.595L43.4244 205.785C42.8394 206.22 42.1794 206.58 41.0544 206.58C39.6144 206.58 38.7144 205.575 38.7144 203.805V202.77C38.7144 201.09 39.5994 200.07 41.0244 200.07C41.7894 200.07 42.4644 200.22 43.2144 200.745L43.6794 199.95C43.0044 199.44 42.1644 199.155 41.0244 199.155ZM47.6265 199.155C45.4665 199.155 44.1915 200.49 44.1915 202.83V203.835C44.1915 206.16 45.4665 207.51 47.6265 207.51C49.7865 207.51 51.0615 206.16 51.0615 203.835V202.83C51.0615 200.505 49.7865 199.155 47.6265 199.155ZM47.6265 206.61C46.1415 206.61 45.2265 205.68 45.2265 203.775V202.89C45.2265 200.985 46.1415 200.055 47.6265 200.055C49.1115 200.055 50.0265 200.985 50.0265 202.89V203.775C50.0265 205.68 49.1115 206.61 47.6265 206.61ZM60.3669 199.155C59.0769 199.155 58.2669 199.935 57.9069 200.625C57.5469 199.695 56.7519 199.155 55.4619 199.155C54.2769 199.155 53.5569 199.785 53.1969 200.43V199.305H52.1919V207.39H53.2119V202.14C53.2119 201.195 53.9469 200.085 55.2819 200.085C56.7369 200.085 57.0969 200.91 57.0969 202.215V207.39H58.1169V202.08C58.1469 201.15 58.8819 200.085 60.1869 200.085C61.6419 200.085 62.0019 200.91 62.0019 202.215V207.39H63.0219V201.945C63.0219 200.235 62.1969 199.155 60.3669 199.155ZM65.4958 206.43C65.9308 207 66.7558 207.51 67.8958 207.51C69.7408 207.51 71.1058 206.25 71.1058 204.045V202.62C71.1058 200.415 69.8158 199.155 67.8958 199.155C66.8908 199.155 65.9458 199.635 65.4658 200.445V199.305H64.4608V210.6H65.4808V206.43H65.4958ZM70.0858 203.895C70.0858 205.605 69.2008 206.61 67.8358 206.61C66.4558 206.61 65.4808 205.65 65.4808 204.705V202.335C65.4808 200.91 66.7258 200.085 67.8358 200.085C69.2158 200.085 70.0858 201.045 70.0858 202.77V203.895ZM74.2909 207.51C74.9059 207.51 75.4759 207.39 75.9259 207.165C76.3459 206.955 76.6759 206.655 76.8259 206.4H76.8409V207.39H77.8309V201.735C77.8309 200.1 76.7209 199.155 74.9209 199.155C73.6909 199.155 72.7759 199.59 72.0259 200.115L72.5209 200.895C73.2109 200.415 74.0359 200.07 74.9059 200.07C76.1659 200.07 76.8259 200.73 76.8259 201.9V202.65H74.5459C72.6709 202.65 71.6959 203.565 71.6959 204.87V205.2C71.6959 206.625 72.7609 207.51 74.2909 207.51ZM76.8259 204.87C76.8259 205.485 76.4959 205.89 76.0609 206.16C75.5809 206.46 75.0859 206.625 74.4409 206.625C73.6159 206.625 72.7159 206.205 72.7159 205.155V204.915C72.7159 204.09 73.2709 203.505 74.5609 203.505H76.8259V204.87ZM82.6789 199.155C81.4039 199.155 80.5789 199.815 80.2039 200.43V199.305H79.1989V207.39H80.2189V202.14C80.2189 201.195 81.1639 200.085 82.5289 200.085C84.1339 200.085 84.5689 201.045 84.5689 202.2V207.39H85.5889V201.945C85.5889 200.265 84.5239 199.155 82.6789 199.155ZM87.0744 207.39H88.0944V199.305H87.0744V207.39ZM87.0294 197.76H88.1394V196.62H87.0294V197.76ZM90.29 202.815V202.68C90.29 201.09 91.13 200.055 92.555 200.055C93.965 200.055 94.79 201 94.79 202.68V202.815H90.29ZM95.18 205.815C94.595 206.235 93.785 206.61 92.705 206.61C91.22 206.61 90.29 205.59 90.29 203.805V203.67H95.81V202.83C95.81 200.565 94.655 199.155 92.555 199.155C90.53 199.155 89.27 200.505 89.27 202.8V203.805C89.27 206.16 90.545 207.51 92.69 207.51C94.055 207.51 94.985 207.045 95.63 206.595L95.18 205.815ZM99.4838 206.595C98.5388 206.595 97.6688 206.25 96.9338 205.755L96.4388 206.565C97.2038 207.12 98.2388 207.51 99.5438 207.51C101.254 207.51 102.514 206.61 102.514 205.32V205.095C102.514 203.805 101.674 203.16 99.6788 202.785C98.4038 202.545 97.6538 202.185 97.6538 201.48V201.315C97.6538 200.61 98.3138 200.055 99.5288 200.055C100.564 200.055 101.194 200.31 101.869 200.76L102.334 199.995C101.674 199.5 100.789 199.155 99.5588 199.155C97.5788 199.155 96.6338 200.145 96.6338 201.3V201.51C96.6338 202.83 97.6988 203.355 99.3188 203.67C100.864 203.97 101.494 204.33 101.494 205.14V205.29C101.494 205.98 100.789 206.595 99.4838 206.595Z" fill="#555555"/>
<path d="M410 119H0V120H410V119Z" fill="#DDDDDD"/>
<path d="M140 61H0V119H140V61Z" fill="white"/>
<path d="M230 61H140V119H230V61Z" fill="white"/>
<path d="M320 61H230V119H320V61Z" fill="white"/>
<path d="M410 61H320V119H410V61Z" fill="white"/>
<path d="M47.3348 74.575V85.39H50.7098C53.4398 85.39 55.0898 83.74 55.0898 80.755V79.21C55.0898 76.225 53.4398 74.575 50.7098 74.575H47.3348ZM48.3848 75.505H50.7248C52.6598 75.505 54.0398 76.705 54.0398 79.285V80.68C54.0398 83.26 52.6598 84.46 50.7248 84.46H48.3848V75.505ZM59.4694 77.155C57.3094 77.155 56.0344 78.49 56.0344 80.83V81.835C56.0344 84.16 57.3094 85.51 59.4694 85.51C61.6294 85.51 62.9044 84.16 62.9044 81.835V80.83C62.9044 78.505 61.6294 77.155 59.4694 77.155ZM59.4694 84.61C57.9844 84.61 57.0694 83.68 57.0694 81.775V80.89C57.0694 78.985 57.9844 78.055 59.4694 78.055C60.9544 78.055 61.8694 78.985 61.8694 80.89V81.775C61.8694 83.68 60.9544 84.61 59.4694 84.61ZM67.5148 77.155C66.2398 77.155 65.4148 77.815 65.0398 78.43V77.305H64.0348V85.39H65.0548V80.14C65.0548 79.195 65.9998 78.085 67.3648 78.085C68.9698 78.085 69.4048 79.045 69.4048 80.2V85.39H70.4248V79.945C70.4248 78.265 69.3598 77.155 67.5148 77.155ZM77.1152 85.285C77.1152 86.98 76.3202 87.775 74.8352 87.775C73.9202 87.775 73.3502 87.625 72.6002 87.1L72.1352 87.895C72.8102 88.42 73.6952 88.735 74.8352 88.735C76.8452 88.735 78.1352 87.55 78.1352 85.255V77.305H77.1302V78.295C76.7102 77.695 75.8852 77.155 74.7002 77.155C72.8552 77.155 71.4902 78.415 71.4902 80.62V81.895C71.4902 84.1 72.8552 85.36 74.7152 85.36C75.6452 85.36 76.6502 84.985 77.1002 84.175H77.1152V85.285ZM72.5102 80.77C72.5102 79.06 73.3952 78.055 74.7602 78.055C76.1402 78.055 77.1152 79.12 77.1152 80.065V82.345C77.1152 83.77 76.0652 84.46 74.7602 84.46C73.4102 84.46 72.5102 83.47 72.5102 81.745V80.77ZM80.6718 84.43C81.1068 85 81.9468 85.51 83.0868 85.51C84.9318 85.51 86.2968 84.25 86.2968 82.045V80.62C86.2968 78.415 85.0068 77.155 83.0868 77.155C82.0818 77.155 81.1518 77.635 80.6718 78.445V74.05H79.6518V85.39H80.6568V84.43H80.6718ZM85.2768 81.895C85.2768 83.605 84.3918 84.61 83.0268 84.61C81.6468 84.61 80.6718 83.65 80.6718 82.705V80.335C80.6718 78.91 81.9168 78.085 83.0268 78.085C84.4068 78.085 85.2768 79.045 85.2768 80.77V81.895ZM90.1983 85.51C91.4733 85.51 92.3133 84.88 92.6883 84.265V85.39H93.6933V77.305H92.6733V82.555C92.6733 83.5 91.7133 84.58 90.3483 84.58C88.7433 84.58 88.3983 83.62 88.3983 82.465V77.305H87.3783V82.72C87.3783 84.4 88.3533 85.51 90.1983 85.51ZM39.4952 93.41C36.8702 93.41 35.3402 95.195 35.3402 98.255V99.59C35.3402 102.725 36.7802 104.555 39.5852 104.555C41.2952 104.555 42.3902 103.985 43.1852 103.265L42.5702 102.44C41.8652 103.055 40.9502 103.55 39.6002 103.55C37.6052 103.55 36.4052 102.245 36.4052 99.59V98.21C36.4052 95.945 37.5002 94.4 39.4952 94.4C40.5902 94.4 41.4002 94.625 42.3752 95.315L42.9152 94.49C42.0152 93.8 40.9352 93.41 39.4952 93.41ZM47.027 96.155C44.867 96.155 43.592 97.49 43.592 99.83V100.835C43.592 103.16 44.867 104.51 47.027 104.51C49.187 104.51 50.462 103.16 50.462 100.835V99.83C50.462 97.505 49.187 96.155 47.027 96.155ZM47.027 103.61C45.542 103.61 44.627 102.68 44.627 100.775V99.89C44.627 97.985 45.542 97.055 47.027 97.055C48.512 97.055 49.427 97.985 49.427 99.89V100.775C49.427 102.68 48.512 103.61 47.027 103.61ZM56.0774 96.32C55.7474 96.2 55.3724 96.155 54.9224 96.155C53.6924 96.155 52.9424 96.95 52.5974 97.73V96.305H51.5924V104.39H52.6124V99.8C52.6124 98.285 53.4524 97.19 54.7874 97.19C55.1774 97.19 55.4924 97.25 55.7624 97.355L56.0774 96.32ZM57.5868 103.43C58.0218 104 58.8468 104.51 59.9868 104.51C61.8318 104.51 63.1968 103.25 63.1968 101.045V99.62C63.1968 97.415 61.9068 96.155 59.9868 96.155C58.9818 96.155 58.0368 96.635 57.5568 97.445V96.305H56.5518V107.6H57.5718V103.43H57.5868ZM62.1768 100.895C62.1768 102.605 61.2918 103.61 59.9268 103.61C58.5468 103.61 57.5718 102.65 57.5718 101.705V99.335C57.5718 97.91 58.8168 97.085 59.9268 97.085C61.3068 97.085 62.1768 98.045 62.1768 99.77V100.895ZM67.325 96.155C65.165 96.155 63.89 97.49 63.89 99.83V100.835C63.89 103.16 65.165 104.51 67.325 104.51C69.485 104.51 70.76 103.16 70.76 100.835V99.83C70.76 97.505 69.485 96.155 67.325 96.155ZM67.325 103.61C65.84 103.61 64.925 102.68 64.925 100.775V99.89C64.925 97.985 65.84 97.055 67.325 97.055C68.81 97.055 69.725 97.985 69.725 99.89V100.775C69.725 102.68 68.81 103.61 67.325 103.61ZM76.3754 96.32C76.0454 96.2 75.6704 96.155 75.2204 96.155C73.9904 96.155 73.2404 96.95 72.8954 97.73V96.305H71.8904V104.39H72.9104V99.8C72.9104 98.285 73.7504 97.19 75.0854 97.19C75.4754 97.19 75.7904 97.25 76.0604 97.355L76.3754 96.32ZM79.0398 104.51C79.6548 104.51 80.2248 104.39 80.6748 104.165C81.0948 103.955 81.4248 103.655 81.5748 103.4H81.5898V104.39H82.5798V98.735C82.5798 97.1 81.4698 96.155 79.6698 96.155C78.4398 96.155 77.5248 96.59 76.7748 97.115L77.2698 97.895C77.9598 97.415 78.7848 97.07 79.6548 97.07C80.9148 97.07 81.5748 97.73 81.5748 98.9V99.65H79.2948C77.4198 99.65 76.4448 100.565 76.4448 101.87V102.2C76.4448 103.625 77.5098 104.51 79.0398 104.51ZM81.5748 101.87C81.5748 102.485 81.2448 102.89 80.8098 103.16C80.3298 103.46 79.8348 103.625 79.1898 103.625C78.3648 103.625 77.4648 103.205 77.4648 102.155V101.915C77.4648 101.09 78.0198 100.505 79.3098 100.505H81.5748V101.87ZM84.5779 102.14C84.5779 103.895 85.2529 104.465 86.6629 104.465C87.0979 104.465 87.7129 104.39 88.0279 104.27L87.8779 103.43C87.5029 103.535 87.1429 103.58 86.7379 103.58C85.9279 103.58 85.5979 103.19 85.5979 102.095V97.175H87.8329V96.305H85.5979V94.22H84.5779V96.305H83.1979V97.175H84.5779V102.14ZM88.9083 104.39H89.9283V96.305H88.9083V104.39ZM88.8633 94.76H89.9733V93.62H88.8633V94.76ZM94.5389 96.155C92.3789 96.155 91.1039 97.49 91.1039 99.83V100.835C91.1039 103.16 92.3789 104.51 94.5389 104.51C96.6989 104.51 97.9739 103.16 97.9739 100.835V99.83C97.9739 97.505 96.6989 96.155 94.5389 96.155ZM94.5389 103.61C93.0539 103.61 92.1389 102.68 92.1389 100.775V99.89C92.1389 97.985 93.0539 97.055 94.5389 97.055C96.0239 97.055 96.9389 97.985 96.9389 99.89V100.775C96.9389 102.68 96.0239 103.61 94.5389 103.61ZM102.584 96.155C101.309 96.155 100.484 96.815 100.109 97.43V96.305H99.1043V104.39H100.124V99.14C100.124 98.195 101.069 97.085 102.434 97.085C104.039 97.085 104.474 98.045 104.474 99.2V104.39H105.494V98.945C105.494 97.265 104.429 96.155 102.584 96.155Z" fill="#555555"/>
<path d="M140 2H0V60H140V2Z" fill="#F8F8F8"/>
<path d="M47.3922 25.575V36.39H50.9772C54.0222 36.39 55.5222 34.74 55.5222 31.755V30.21C55.5222 27.225 53.9472 25.575 50.9772 25.575H47.3922ZM48.8772 26.88H50.8422C52.7772 26.88 54.0072 27.855 54.0072 30.285V31.68C54.0072 34.11 52.7772 35.07 50.8422 35.07H48.8772V26.88ZM56.8044 28.185V36.39H58.2594V28.185H56.8044ZM56.7594 25.245V26.835H58.3044V25.245H56.7594ZM62.4562 35.025L60.2962 28.185H58.7212L61.5262 36.39H63.3862L66.1612 28.185H64.6312L62.4862 35.025H62.4562ZM66.6206 28.185V36.39H68.0756V28.185H66.6206ZM66.5756 25.245V26.835H68.1206V25.245H66.5756ZM72.1074 35.25C71.1174 35.25 70.2774 34.875 69.5424 34.38L68.8674 35.52C69.6474 36.12 70.8024 36.51 72.1674 36.51C74.0724 36.51 75.2874 35.505 75.2874 34.215V34.02C75.2874 32.505 74.3424 31.905 72.3474 31.53C71.0724 31.29 70.5774 31.05 70.5774 30.405V30.27C70.5774 29.7 71.0724 29.28 72.2874 29.28C73.1124 29.28 73.9074 29.535 74.4474 29.94L75.0924 28.845C74.2824 28.275 73.2924 28.035 72.1824 28.035C70.0524 28.035 69.1224 29.115 69.1224 30.255V30.435C69.1224 31.875 70.1274 32.46 71.9424 32.835C73.4874 33.15 73.8174 33.375 73.8174 34.065V34.185C73.8174 34.845 73.1874 35.25 72.1074 35.25ZM76.1731 28.185V36.39H77.6281V28.185H76.1731ZM76.1281 25.245V26.835H77.6731V25.245H76.1281ZM82.3499 28.035C80.0999 28.035 78.6899 29.385 78.6899 31.77V32.775C78.6899 35.145 80.0999 36.51 82.3499 36.51C84.5999 36.51 86.0099 35.145 86.0099 32.775V31.77C86.0099 29.4 84.5999 28.035 82.3499 28.035ZM82.3499 35.235C81.0449 35.235 80.1599 34.395 80.1599 32.655V31.89C80.1599 30.15 81.0449 29.31 82.3499 29.31C83.6549 29.31 84.5399 30.15 84.5399 31.89V32.655C84.5399 34.395 83.6549 35.235 82.3499 35.235ZM93.7933 30.96C93.7933 28.98 92.5033 28.035 90.9133 28.035C89.7883 28.035 88.9483 28.455 88.4533 29.22H88.4383V28.185H87.0283V36.39H88.4833V31.305C88.4833 30.015 89.5633 29.325 90.5533 29.325C91.7683 29.325 92.3383 29.91 92.3383 31.29V36.39H93.7933V30.96Z" fill="#222222"/>
<path d="M230 2H140V60H230V2Z" fill="#F8F8F8"/>
<path d="M320 2H230V60H320V2Z" fill="#F8F8F8"/>
<path d="M410 2H320V60H410V2Z" fill="#F8F8F8"/>
<path d="M352.175 178.49V179.39H359.045V178.43H353.495L356.855 174.485C357.785 173.405 358.655 172.43 358.655 171.26V171.11C358.655 169.49 357.425 168.41 355.505 168.41C353.705 168.41 352.7 169.55 352.19 170.48L353.03 171.005C353.735 169.745 354.59 169.37 355.535 169.37C356.84 169.37 357.59 170.045 357.59 171.125V171.245C357.59 171.815 357.395 172.37 356.21 173.765L352.175 178.49ZM360.195 179.825H361.71V178.325H360.195V179.825ZM370.066 173.135C370.066 170.105 368.926 168.41 366.376 168.41C363.856 168.41 362.716 170.105 362.716 173.135V174.815C362.716 177.845 363.811 179.555 366.376 179.555C368.971 179.555 370.066 177.875 370.066 174.815V173.135ZM368.986 174.83C368.986 177.53 368.101 178.61 366.376 178.61C364.711 178.61 363.796 177.515 363.796 174.83V173.12C363.796 170.465 364.711 169.355 366.376 169.355C368.101 169.355 368.986 170.45 368.986 173.12V174.83ZM375.7 179.39V168.575H374.905L371.56 170.645L372.04 171.485L374.65 169.895V179.39H375.7Z" fill="#555555"/>
<path d="M359.195 89.135C359.195 86.105 358.055 84.41 355.505 84.41C352.985 84.41 351.845 86.105 351.845 89.135V90.815C351.845 93.845 352.94 95.555 355.505 95.555C358.1 95.555 359.195 93.875 359.195 90.815V89.135ZM358.115 90.83C358.115 93.53 357.23 94.61 355.505 94.61C353.84 94.61 352.925 93.515 352.925 90.83V89.12C352.925 86.465 353.84 85.355 355.505 85.355C357.23 85.355 358.115 86.45 358.115 89.12V90.83ZM360.195 95.825H361.71V94.325H360.195V95.825ZM370.066 89.135C370.066 86.105 368.926 84.41 366.376 84.41C363.856 84.41 362.716 86.105 362.716 89.135V90.815C362.716 93.845 363.811 95.555 366.376 95.555C368.971 95.555 370.066 93.875 370.066 90.815V89.135ZM368.986 90.83C368.986 93.53 368.101 94.61 366.376 94.61C364.711 94.61 363.796 93.515 363.796 90.83V89.12C363.796 86.465 364.711 85.355 366.376 85.355C368.101 85.355 368.986 86.45 368.986 89.12V90.83ZM378.16 89.135C378.16 86.105 377.02 84.41 374.47 84.41C371.95 84.41 370.81 86.105 370.81 89.135V90.815C370.81 93.845 371.905 95.555 374.47 95.555C377.065 95.555 378.16 93.875 378.16 90.815V89.135ZM377.08 90.83C377.08 93.53 376.195 94.61 374.47 94.61C372.805 94.61 371.89 93.515 371.89 90.83V89.12C371.89 86.465 372.805 85.355 374.47 85.355C376.195 85.355 377.08 86.45 377.08 89.12V90.83Z" fill="#555555"/>
<path d="M348.999 35.145V36.39H356.259V35.1H350.829L354.204 31.5C355.179 30.465 355.869 29.445 355.869 28.275V28.125C355.869 26.55 354.684 25.41 352.494 25.41C350.499 25.41 349.539 26.655 349.029 27.585L350.169 28.32C350.874 27.06 351.729 26.745 352.524 26.745C353.649 26.745 354.384 27.27 354.384 28.125V28.245C354.384 28.815 354.264 29.415 353.034 30.765L348.999 35.145ZM364.695 30.135C364.695 27.105 363.42 25.41 360.87 25.41C358.35 25.41 357.045 27.105 357.045 30.135V31.815C357.045 34.845 358.305 36.555 360.87 36.555C363.465 36.555 364.695 34.875 364.695 31.815V30.135ZM363.18 31.83C363.18 34.5 362.19 35.175 360.87 35.175C359.61 35.175 358.56 34.485 358.56 31.83V30.12C358.56 27.495 359.61 26.79 360.87 26.79C362.19 26.79 363.18 27.48 363.18 30.12V31.83ZM370.925 36.39V25.575H369.68L366.2 27.615L366.905 28.815L369.44 27.315V36.39H370.925ZM374.065 35.79C374.875 36.285 375.895 36.555 376.87 36.555C379.555 36.555 381.025 35.1 381.025 30.36V29.805C381.025 26.91 379.66 25.41 377.26 25.41C375.055 25.41 373.57 26.88 373.57 28.95V29.28C373.57 31.395 375.055 32.73 376.975 32.73C378.175 32.73 379.195 32.13 379.555 31.5C379.495 34.32 378.46 35.19 376.96 35.19C376.105 35.19 375.31 34.92 374.635 34.53L374.065 35.79ZM379.51 29.28C379.51 30.465 378.595 31.41 377.275 31.41C376 31.41 375.055 30.63 375.055 29.19V28.995C375.055 27.585 375.925 26.76 377.32 26.76C378.67 26.76 379.51 27.675 379.51 29.07V29.28Z" fill="#222222"/>
<path d="M262.175 178.49V179.39H269.045V178.43H263.495L266.855 174.485C267.785 173.405 268.655 172.43 268.655 171.26V171.11C268.655 169.49 267.425 168.41 265.505 168.41C263.705 168.41 262.7 169.55 262.19 170.48L263.03 171.005C263.735 169.745 264.59 169.37 265.535 169.37C266.84 169.37 267.59 170.045 267.59 171.125V171.245C267.59 171.815 267.395 172.37 266.21 173.765L262.175 178.49ZM270.195 179.825H271.71V178.325H270.195V179.825ZM279.016 176.33C279.016 177.32 278.326 178.595 276.391 178.595C275.386 178.595 274.456 178.295 273.421 177.5L272.881 178.355C273.841 179.09 274.921 179.555 276.391 179.555C279.091 179.555 280.051 177.86 280.051 176.315V176.09C280.051 174.17 278.956 172.7 276.826 172.7C275.926 172.7 275.041 173.015 274.561 173.465L274.726 169.535H279.361V168.575H273.796L273.451 174.5H274.441C274.921 174.035 275.656 173.645 276.571 173.645C278.131 173.645 279.016 174.41 279.016 176.135V176.33ZM288.16 173.135C288.16 170.105 287.02 168.41 284.47 168.41C281.95 168.41 280.81 170.105 280.81 173.135V174.815C280.81 177.845 281.905 179.555 284.47 179.555C287.065 179.555 288.16 177.875 288.16 174.815V173.135ZM287.08 174.83C287.08 177.53 286.195 178.61 284.47 178.61C282.805 178.61 281.89 177.515 281.89 174.83V173.12C281.89 170.465 282.805 169.355 284.47 169.355C286.195 169.355 287.08 170.45 287.08 173.12V174.83Z" fill="#555555"/>
<path d="M266.735 95.39V84.575H265.94L262.595 86.645L263.075 87.485L265.685 85.895V95.39H266.735ZM270.195 95.825H271.71V94.325H270.195V95.825ZM273.181 94.82C273.991 95.285 274.936 95.555 275.911 95.555C278.596 95.555 279.901 94.04 279.901 89.27V88.82C279.901 85.805 278.251 84.41 276.241 84.41C274.231 84.41 272.701 85.775 272.701 87.905V88.265C272.701 90.38 274.291 91.64 276.136 91.64C277.651 91.64 278.566 90.71 278.866 90.08C278.776 92.885 278.161 94.595 275.941 94.595C275.086 94.595 274.291 94.325 273.616 93.935L273.181 94.82ZM278.761 88.31C278.761 89.69 277.516 90.725 276.256 90.725C274.936 90.725 273.736 89.795 273.736 88.175V87.95C273.736 86.33 274.801 85.355 276.271 85.355C277.741 85.355 278.761 86.495 278.761 88.115V88.31ZM285.985 88.625V92.03H281.785L287.02 84.575H285.82L280.57 92.03V92.99H285.985V95.39H287.035V92.99H288.625V92.03H287.035V88.625H285.985Z" fill="#555555"/>
<path d="M258.999 35.145V36.39H266.259V35.1H260.829L264.204 31.5C265.179 30.465 265.869 29.445 265.869 28.275V28.125C265.869 26.55 264.684 25.41 262.494 25.41C260.499 25.41 259.539 26.655 259.029 27.585L260.169 28.32C260.874 27.06 261.729 26.745 262.524 26.745C263.649 26.745 264.384 27.27 264.384 28.125V28.245C264.384 28.815 264.264 29.415 263.034 30.765L258.999 35.145ZM274.695 30.135C274.695 27.105 273.42 25.41 270.87 25.41C268.35 25.41 267.045 27.105 267.045 30.135V31.815C267.045 34.845 268.305 36.555 270.87 36.555C273.465 36.555 274.695 34.875 274.695 31.815V30.135ZM273.18 31.83C273.18 34.5 272.19 35.175 270.87 35.175C269.61 35.175 268.56 34.485 268.56 31.83V30.12C268.56 27.495 269.61 26.79 270.87 26.79C272.19 26.79 273.18 27.48 273.18 30.12V31.83ZM275.51 35.145V36.39H282.77V35.1H277.34L280.715 31.5C281.69 30.465 282.38 29.445 282.38 28.275V28.125C282.38 26.55 281.195 25.41 279.005 25.41C277.01 25.41 276.05 26.655 275.54 27.585L276.68 28.32C277.385 27.06 278.24 26.745 279.035 26.745C280.16 26.745 280.895 27.27 280.895 28.125V28.245C280.895 28.815 280.775 29.415 279.545 30.765L275.51 35.145ZM291.205 30.135C291.205 27.105 289.93 25.41 287.38 25.41C284.86 25.41 283.555 27.105 283.555 30.135V31.815C283.555 34.845 284.815 36.555 287.38 36.555C289.975 36.555 291.205 34.875 291.205 31.815V30.135ZM289.69 31.83C289.69 34.5 288.7 35.175 287.38 35.175C286.12 35.175 285.07 34.485 285.07 31.83V30.12C285.07 27.495 286.12 26.79 287.38 26.79C288.7 26.79 289.69 27.48 289.69 30.12V31.83Z" fill="#222222"/>
<path d="M172.175 178.49V179.39H179.045V178.43H173.495L176.855 174.485C177.785 173.405 178.655 172.43 178.655 171.26V171.11C178.655 169.49 177.425 168.41 175.505 168.41C173.705 168.41 172.7 169.55 172.19 170.48L173.03 171.005C173.735 169.745 174.59 169.37 175.535 169.37C176.84 169.37 177.59 170.045 177.59 171.125V171.245C177.59 171.815 177.395 172.37 176.21 173.765L172.175 178.49ZM180.195 179.825H181.71V178.325H180.195V179.825ZM183.046 178.49V179.39H189.916V178.43H184.366L187.726 174.485C188.656 173.405 189.526 172.43 189.526 171.26V171.11C189.526 169.49 188.296 168.41 186.376 168.41C184.576 168.41 183.571 169.55 183.061 170.48L183.901 171.005C184.606 169.745 185.461 169.37 186.406 169.37C187.711 169.37 188.461 170.045 188.461 171.125V171.245C188.461 171.815 188.266 172.37 187.081 173.765L183.046 178.49ZM198.16 173.135C198.16 170.105 197.02 168.41 194.47 168.41C191.95 168.41 190.81 170.105 190.81 173.135V174.815C190.81 177.845 191.905 179.555 194.47 179.555C197.065 179.555 198.16 177.875 198.16 174.815V173.135ZM197.08 174.83C197.08 177.53 196.195 178.61 194.47 178.61C192.805 178.61 191.89 177.515 191.89 174.83V173.12C191.89 170.465 192.805 169.355 194.47 169.355C196.195 169.355 197.08 170.45 197.08 173.12V174.83Z" fill="#555555"/>
<path d="M179.195 89.135C179.195 86.105 178.055 84.41 175.505 84.41C172.985 84.41 171.845 86.105 171.845 89.135V90.815C171.845 93.845 172.94 95.555 175.505 95.555C178.1 95.555 179.195 93.875 179.195 90.815V89.135ZM178.115 90.83C178.115 93.53 177.23 94.61 175.505 94.61C173.84 94.61 172.925 93.515 172.925 90.83V89.12C172.925 86.465 173.84 85.355 175.505 85.355C177.23 85.355 178.115 86.45 178.115 89.12V90.83ZM180.195 95.825H181.71V94.325H180.195V95.825ZM190.066 89.135C190.066 86.105 188.926 84.41 186.376 84.41C183.856 84.41 182.716 86.105 182.716 89.135V90.815C182.716 93.845 183.811 95.555 186.376 95.555C188.971 95.555 190.066 93.875 190.066 90.815V89.135ZM188.986 90.83C188.986 93.53 188.101 94.61 186.376 94.61C184.711 94.61 183.796 93.515 183.796 90.83V89.12C183.796 86.465 184.711 85.355 186.376 85.355C188.101 85.355 188.986 86.45 188.986 89.12V90.83ZM198.16 89.135C198.16 86.105 197.02 84.41 194.47 84.41C191.95 84.41 190.81 86.105 190.81 89.135V90.815C190.81 93.845 191.905 95.555 194.47 95.555C197.065 95.555 198.16 93.875 198.16 90.815V89.135ZM197.08 90.83C197.08 93.53 196.195 94.61 194.47 94.61C192.805 94.61 191.89 93.515 191.89 90.83V89.12C191.89 86.465 192.805 85.355 194.47 85.355C196.195 85.355 197.08 86.45 197.08 89.12V90.83Z" fill="#555555"/>
<path d="M168.999 35.145V36.39H176.259V35.1H170.829L174.204 31.5C175.179 30.465 175.869 29.445 175.869 28.275V28.125C175.869 26.55 174.684 25.41 172.494 25.41C170.499 25.41 169.539 26.655 169.029 27.585L170.169 28.32C170.874 27.06 171.729 26.745 172.524 26.745C173.649 26.745 174.384 27.27 174.384 28.125V28.245C174.384 28.815 174.264 29.415 173.034 30.765L168.999 35.145ZM184.695 30.135C184.695 27.105 183.42 25.41 180.87 25.41C178.35 25.41 177.045 27.105 177.045 30.135V31.815C177.045 34.845 178.305 36.555 180.87 36.555C183.465 36.555 184.695 34.875 184.695 31.815V30.135ZM183.18 31.83C183.18 34.5 182.19 35.175 180.87 35.175C179.61 35.175 178.56 34.485 178.56 31.83V30.12C178.56 27.495 179.61 26.79 180.87 26.79C182.19 26.79 183.18 27.48 183.18 30.12V31.83ZM185.51 35.145V36.39H192.77V35.1H187.34L190.715 31.5C191.69 30.465 192.38 29.445 192.38 28.275V28.125C192.38 26.55 191.195 25.41 189.005 25.41C187.01 25.41 186.05 26.655 185.54 27.585L186.68 28.32C187.385 27.06 188.24 26.745 189.035 26.745C190.16 26.745 190.895 27.27 190.895 28.125V28.245C190.895 28.815 190.775 29.415 189.545 30.765L185.51 35.145ZM199.18 36.39V25.575H197.935L194.455 27.615L195.16 28.815L197.695 27.315V36.39H199.18Z" fill="#222222"/>
<path d="M410 60H0V61H410V60Z" fill="#DDDDDD"/>
<path d="M410 0H0V2H410V0Z" fill="#333333"/>
</svg>
