<svg width="449" height="333" viewBox="0 0 449 333" fill="none" xmlns="http://www.w3.org/2000/svg">
<g clip-path="url(#clip0_157_3572)">
<path d="M255.544 324.263C248.3 324.853 234.255 323.591 235.66 313.793C236.645 306.922 247.307 296.117 254.481 296.498C258.58 296.715 262.102 301.318 266.21 302.467C271.645 303.985 270.084 302.953 273.97 300.211C277.562 297.678 277.709 296.581 282.784 297.201C289.317 298.004 293.485 300.519 300.234 298.494C306.255 296.685 310.224 293.284 316.878 294.252C323.081 295.154 327.7 298.125 334.181 296.581C340.006 295.193 344.482 291.324 350.759 291.788C354.628 292.074 358.51 294.972 362.366 293.453C367.25 291.532 367.676 283.902 374.152 284.305C379.122 284.613 381.04 289.936 383.495 293.453C387.472 299.153 387.056 294.941 391.875 297.058C395.857 298.81 399.769 314.348 399.579 318.356C399.18 326.641 390.795 324.047 384.206 325.439" fill="#F9B785"/>
<path d="M158.231 324.838C162.603 324.297 175.209 324.545 177.611 319.641C179.225 316.351 176.208 313.585 173.751 312.15C169.748 309.817 165.945 308.99 162.444 305.69C159.583 302.991 157.244 299.054 153.444 297.52C150.106 296.171 150.784 297.399 148.266 298.09C146.007 298.707 146.306 299.407 143.407 299.207C140.664 299.016 138.815 296.89 135.68 298.841C130.913 301.807 135.158 309.155 127.504 308.729C124.608 308.57 121.353 306.73 118.473 307.271C115.103 307.905 114.062 311.259 110.93 312.296C103.939 314.616 101.628 319.765 96.3073 324.313" fill="#F9B785"/>
<path d="M41.1032 324.831C35.7347 324.166 20.2581 324.471 17.3081 318.45C15.3271 314.41 19.0312 311.015 22.0476 309.252C26.9629 306.388 31.6321 305.373 35.93 301.321C39.4427 298.007 42.3145 293.174 46.9797 291.291C51.0784 289.634 50.2462 291.142 53.3368 291.99C56.111 292.748 55.7437 293.608 59.3032 293.362C62.6713 293.127 64.9414 290.517 68.79 292.912C74.6431 296.554 69.4308 305.576 78.8277 305.052C82.3833 304.857 86.3804 302.598 89.9165 303.263C94.0543 304.04 95.3319 308.158 99.1767 309.432C107.761 312.281 110.598 318.603 117.13 324.186" fill="#F9B785"/>
<path d="M292.084 323.883C301.562 318.005 313.082 316.205 320.959 307.699C331.179 296.664 337.282 280.719 354.684 284.285C364.96 286.388 364.917 294.409 371.905 300.009C378.103 304.975 381.465 297.848 387.589 296.131C392.183 294.838 394.495 296.682 398.169 299.766C402.78 303.63 405.786 305.669 411.433 307.669C420.963 311.043 424.112 318.534 431.364 325.145" fill="#DB9F6E"/>
<path d="M221.584 323.647C214.631 319.605 206.178 318.367 200.399 312.521C192.901 304.934 188.424 293.974 175.653 296.424C168.114 297.872 168.145 303.384 163.019 307.232C158.471 310.647 156.008 305.749 151.511 304.565C148.141 303.677 146.445 304.944 143.749 307.063C140.366 309.72 138.161 311.121 134.017 312.496C127.025 314.815 124.715 319.965 119.394 324.512" fill="#DB9F6E"/>
<path d="M-35.1388 323.649C-26.6015 318.687 -16.2238 317.167 -9.12828 309.99C0.077196 300.675 5.5747 287.218 21.2545 290.227C30.5108 292.005 30.4717 298.772 36.7663 303.496C42.3497 307.688 45.3739 301.675 50.8949 300.222C55.0327 299.131 57.1152 300.687 60.4247 303.289C64.5781 306.551 67.2858 308.271 72.373 309.958C80.9573 312.807 83.7939 319.129 90.3268 324.712" fill="#DB9F6E"/>
<path d="M204.142 110.148C204.142 110.911 199.467 179.074 199.467 179.074C199.467 179.074 204.118 181.615 210.324 179.327L206.075 109.935L204.142 110.145V110.148Z" fill="#8DCC4A"/>
<path d="M205.086 110.711L205.071 110.719C205.071 110.719 205.073 110.711 205.073 110.708H205.063C205.063 110.708 205.076 110.7 205.079 110.7C205.313 110.569 205.62 109.537 205.723 109.324C210.842 98.5759 217.537 86.9987 227.181 78.452C232.184 74.0195 238.553 70.4577 245.034 71.2679C254.667 72.4727 260.439 80.3513 260.662 88.8322C261.025 102.614 246.378 108.561 233.37 110.379C226.889 111.287 220.428 111.468 214.096 111.282C211.934 111.216 209.785 111.105 207.649 110.94C207.246 110.908 205.478 110.484 205.084 110.711H205.086Z" fill="#8DCC4A"/>
<path d="M205.781 110.679L205.797 110.687C205.797 110.687 205.792 110.679 205.792 110.677H205.799L205.784 110.669C205.539 110.558 205.137 109.561 205.016 109.359C198.918 99.1336 191.176 88.2299 180.78 80.6144C175.387 76.6659 168.716 73.7118 162.337 75.1218C152.857 77.2157 147.843 85.5967 148.408 94.0619C149.329 107.82 164.465 112.376 177.587 112.978C184.124 113.278 190.574 112.86 196.861 112.084C199.007 111.818 201.138 111.51 203.248 111.145C203.645 111.076 205.365 110.49 205.778 110.679H205.781Z" fill="#8DCC4A"/>
<path d="M150.247 85.1345L205.797 110.685" stroke="#B8E880" stroke-width="1.05223" stroke-miterlimit="10"/>
<path d="M205.086 110.711L256.719 78.3502" stroke="#B8E880" stroke-width="1.05223" stroke-miterlimit="10"/>
<path d="M167.551 159.206C168.225 159.603 170.234 160.348 170.179 161.311C170.119 162.363 168.011 161.511 167.409 161.337C166.812 161.163 165.57 160.995 165.431 160.348C165.289 159.685 166.139 158.998 166.367 158.441C166.907 158.627 168.022 159.254 168.364 159.104" fill="#603C15"/>
<path d="M253.251 326.226H167.359L154.729 192.345H265.881L253.251 326.226Z" fill="#EEEEEE"/>
<path d="M276.149 179.174H144.461V201.122H276.149V179.174Z" fill="#E7E7E7"/>
<path d="M314.043 239.063C313.384 239.824 260.78 298.235 314.043 306.074C367.306 298.223 314.702 239.824 314.043 239.063Z" fill="#1E871B"/>
<path d="M314.032 334.467V269.706" stroke="#604B3B" stroke-width="4.54466" stroke-linecap="round" stroke-linejoin="round"/>
<path d="M314.736 290.156L323.257 281.635" stroke="#604B3B" stroke-width="4.54466" stroke-linecap="round" stroke-linejoin="round"/>
<path d="M302.806 290.157L313.032 296.974" stroke="#604B3B" stroke-width="4.54466" stroke-linecap="round" stroke-linejoin="round"/>
<path d="M392.643 240.198C391.984 240.96 339.38 299.37 392.643 307.21C445.907 299.359 393.302 240.96 392.643 240.198Z" fill="#6FA537"/>
<path d="M392.632 335.603V270.841" stroke="#604B3B" stroke-width="4.54466" stroke-linecap="round" stroke-linejoin="round"/>
<path d="M393.336 291.291L401.857 282.77" stroke="#604B3B" stroke-width="4.54466" stroke-linecap="round" stroke-linejoin="round"/>
<path d="M381.406 291.292L391.632 298.109" stroke="#604B3B" stroke-width="4.54466" stroke-linecap="round" stroke-linejoin="round"/>
<path d="M229.34 298.659C229.34 298.884 227.962 333.817 227.962 333.817C227.962 333.817 229.33 334.565 231.154 333.893L229.906 298.601L229.34 298.664V298.659Z" fill="#6FA537"/>
<path d="M229.619 298.827C229.686 298.788 229.777 298.486 229.806 298.423C231.313 295.265 233.281 291.856 236.118 289.341C237.592 288.035 239.464 286.989 241.37 287.229C244.202 287.584 245.901 289.903 245.969 292.394C246.074 296.45 241.768 298.198 237.942 298.731C236.037 298.999 234.136 299.052 232.273 298.995C231.64 298.975 231.006 298.942 230.377 298.894C230.257 298.884 229.739 298.759 229.623 298.827H229.619Z" fill="#6FA537"/>
<path d="M229.825 298.818C229.753 298.784 229.633 298.491 229.599 298.434C227.804 295.429 225.529 292.217 222.471 289.98C220.887 288.819 218.923 287.95 217.046 288.363C214.257 288.977 212.784 291.444 212.952 293.936C213.22 297.982 217.675 299.322 221.535 299.499C223.46 299.586 225.356 299.466 227.204 299.235C227.838 299.159 228.462 299.067 229.081 298.957C229.196 298.938 229.705 298.765 229.825 298.818Z" fill="#6FA537"/>
<path d="M213.489 291.305L229.829 298.817" stroke="#96DD90" stroke-width="0.441633" stroke-miterlimit="10"/>
<path d="M229.619 298.827L244.807 289.308" stroke="#96DD90" stroke-width="0.441633" stroke-miterlimit="10"/>
<path d="M206.417 313.55C206.417 313.776 205.04 333.822 205.04 333.822C205.04 333.822 206.408 334.571 208.232 333.899L206.984 313.488L206.417 313.55Z" fill="#91C163"/>
<path d="M206.691 313.717C206.759 313.678 206.85 313.376 206.879 313.314C208.386 310.15 210.354 306.747 213.191 304.231C214.665 302.926 216.537 301.879 218.443 302.119C221.275 302.474 222.974 304.793 223.041 307.284C223.147 311.341 218.841 313.088 215.015 313.621C213.109 313.89 211.209 313.942 209.346 313.885C208.712 313.866 208.079 313.832 207.45 313.784C207.33 313.774 206.811 313.65 206.696 313.717H206.691Z" fill="#91C163"/>
<path d="M206.898 313.708C206.826 313.674 206.706 313.381 206.672 313.324C204.877 310.319 202.601 307.107 199.544 304.87C197.959 303.709 195.996 302.84 194.119 303.253C191.33 303.862 189.856 306.33 190.024 308.821C190.293 312.868 194.748 314.207 198.607 314.385C200.532 314.471 202.429 314.351 204.277 314.121C204.91 314.044 205.534 313.953 206.154 313.842C206.269 313.823 206.778 313.65 206.898 313.703V313.708Z" fill="#91C163"/>
<path d="M190.562 306.195L206.902 313.707" stroke="#96DD90" stroke-width="0.441633" stroke-miterlimit="10"/>
<path d="M206.691 313.717L221.88 304.198" stroke="#96DD90" stroke-width="0.441633" stroke-miterlimit="10"/>
<path d="M173.093 183.079C173.093 184.609 141.97 321.828 141.97 321.828" stroke="#7F7F7F" stroke-width="1.91808" stroke-linecap="round" stroke-linejoin="round"/>
<path d="M145.036 183.079C145.036 184.609 109.322 321.828 109.322 321.828" stroke="#7F7F7F" stroke-width="1.91808" stroke-linecap="round" stroke-linejoin="round"/>
<path d="M160.967 232.816H132.788" stroke="#7F7F7F" stroke-width="1.91808" stroke-linecap="round" stroke-linejoin="round"/>
<path d="M164.757 216.834H136.19" stroke="#7F7F7F" stroke-width="1.91808" stroke-linecap="round" stroke-linejoin="round"/>
<path d="M168.16 200.847H141.123" stroke="#7F7F7F" stroke-width="1.91808" stroke-linecap="round" stroke-linejoin="round"/>
<path d="M156.937 249.14H128.319" stroke="#7F7F7F" stroke-width="1.91808" stroke-linecap="round" stroke-linejoin="round"/>
<path d="M154.045 265.275L124.228 265.627" stroke="#7F7F7F" stroke-width="1.91808" stroke-linecap="round" stroke-linejoin="round"/>
<path d="M149.622 281.788H120.157" stroke="#7F7F7F" stroke-width="1.91808" stroke-linecap="round" stroke-linejoin="round"/>
<path d="M146.684 298.112H116.127" stroke="#7F7F7F" stroke-width="1.91808" stroke-linecap="round" stroke-linejoin="round"/>
<path d="M189.222 323.67L189.026 323.772L186.183 325.224L189.121 330.978C189.121 330.978 190.451 333.143 193.585 332.674L193.613 332.729C193.613 332.729 193.66 332.681 193.68 332.654C193.714 332.654 193.748 332.647 193.782 332.64L193.755 332.586C195.974 330.327 195.004 327.979 195.004 327.979L192.072 322.218L189.229 323.67H189.222Z" fill="#424242"/>
<path d="M190.621 325.456C190.715 325.639 190.6 325.89 190.369 326.012C190.132 326.134 189.867 326.08 189.766 325.897L185.301 317.144C185.206 316.954 185.321 316.71 185.559 316.588C185.796 316.465 186.061 316.52 186.156 316.703L190.614 325.456H190.621Z" fill="#898989"/>
<path d="M184.517 311.147L181.663 312.601L184.788 318.731L187.641 317.276L184.517 311.147Z" fill="#663914"/>
<path d="M179.268 316.574C180.191 317.599 181.975 318.434 183.373 317.741C183.333 317.518 183.224 317.362 183.17 317.138C184.14 316.588 185.938 317.219 186.162 315.991C186.44 314.451 184.086 314.179 183.346 313.67C181.643 312.503 179.424 310.21 177.077 311.675C177.273 313.073 177.986 314.315 178.569 315.597" fill="#FFD5BA"/>
<path d="M157.074 277.045C161.165 277.981 162.895 281.224 165.216 284.264C168.12 288.05 170.766 292.02 172.7 296.396C174.966 301.553 178.793 306.309 182.457 310.475C181.894 310.93 176.873 315.748 177.022 315.958C173.691 311.459 168.785 307.897 165.162 303.527C162.312 300.094 160.168 296.098 157.237 292.725" fill="#5D66B5"/>
<path d="M131.127 326.775C130.808 326.91 130.51 327.087 130.272 327.372C129.607 328.152 129.356 329.455 128.752 330.323C127.714 331.823 126.262 333.098 125.326 330.717C124.518 328.668 125.509 325.784 125.645 323.701C125.774 321.815 125.645 318.822 127.599 317.757C129.153 316.916 131.894 317.506 132.735 319.128C133.258 320.145 133.685 324.922 133.007 325.818C132.579 326.381 131.812 326.476 131.127 326.775Z" fill="#3F3F3F"/>
<path d="M129.75 328.993C129.431 329.129 129.132 329.305 128.895 329.59C128.23 330.371 127.979 331.673 127.375 332.542C126.337 334.041 124.885 335.317 123.948 332.935C123.148 330.886 124.132 328.009 124.267 325.926C124.396 324.04 124.267 321.041 126.221 319.982C127.775 319.141 130.516 319.731 131.358 321.353C131.88 322.371 132.308 327.148 131.629 328.043C131.202 328.606 130.435 328.708 129.75 329V328.993Z" fill="#3F3F3F"/>
<path d="M151.252 310.979C155.004 312.091 158.295 314.88 161.586 316.821C164.184 318.354 167.217 321.509 167.428 324.773C167.638 327.996 165.345 330.615 162.251 330.798C157.148 331.11 151.747 330.215 146.631 329.957C141.203 329.679 135.775 329.475 130.34 329.434C130.028 326.123 129.41 322.201 130.062 318.965C130.469 319.046 135.435 319.189 135.402 319.141C133.346 316.325 134.262 311.128 136.881 308.957C140.416 306.025 147.296 307.016 151.381 307.769" fill="#424099"/>
<path d="M135.022 309.994C135.063 310.001 159.381 314.31 159.381 314.31C160.229 305.095 163.479 287.264 157.922 279.494C149.468 267.675 142.33 281.611 139.589 290.453C139.141 291.905 133.638 309.75 135.015 310.001L135.022 309.994Z" fill="#5D66B5"/>
<path d="M164.165 263.223C163.805 262.884 163.405 262.572 163.025 262.273C159.999 259.817 156.776 261.737 154.706 264.397C153.505 265.93 153.309 268.305 153.723 270.151C154.157 272.112 155.31 273.455 157.041 274.337C159.259 275.464 161.804 274.269 163.392 272.621C164.396 271.576 164.837 269.784 164.945 268.366C165.013 267.471 164.844 266.575 165.02 265.693C165.244 264.587 165.054 264.078 164.165 263.237V263.223Z" fill="#FFD5BA"/>
<path d="M158.553 274.813C158.743 276.734 157.339 278.443 155.412 278.633C153.491 278.823 151.781 277.419 151.591 275.492L151.083 270.288C150.893 268.367 152.304 266.657 154.224 266.467C156.144 266.277 157.854 267.689 158.044 269.609L158.553 274.813Z" fill="#FFD5BA"/>
<path d="M163.636 268.543C163.555 268.739 163.466 268.936 163.385 269.133" stroke="black" stroke-width="0.644597" stroke-linecap="round" stroke-linejoin="round"/>
<path d="M159.545 267.065C159.463 267.261 159.375 267.458 159.294 267.655" stroke="black" stroke-width="0.644597" stroke-linecap="round" stroke-linejoin="round"/>
<path d="M161.451 268.604C161.792 269.004 161.674 269.792 161.051 269.721" stroke="#A75454" stroke-width="0.558672" stroke-linecap="round" stroke-linejoin="round"/>
<path d="M155.209 264.051C155.331 264.309 155.399 264.641 155.406 264.954" stroke="black" stroke-width="0.644597" stroke-linecap="round" stroke-linejoin="round"/>
<path d="M164.769 267.105C164.586 266.901 164.314 266.786 164.029 266.793" stroke="black" stroke-width="0.644597" stroke-linecap="round" stroke-linejoin="round"/>
<path d="M159.653 264.94C160.074 265.075 160.495 264.96 160.8 265.326" stroke="black" stroke-width="0.644597" stroke-linecap="round" stroke-linejoin="round"/>
<path d="M161.561 271.558C161.236 272.015 160.801 273.027 160.121 273.01C159.281 272.987 159.721 271.912 159.829 271.346" stroke="#FF8B8B" stroke-width="0.543054" stroke-linecap="round" stroke-linejoin="round"/>
<path d="M158.852 257.551C156.308 257.001 153.614 257.219 151.918 258.365C148.525 260.652 148.912 265.849 150.845 268.93C151.069 269.289 151.307 269.656 151.639 269.914C152.25 267.993 154.353 266.223 156.158 265.354C158.241 264.35 159.307 265.076 160.216 262.823C161.105 263.556 161.966 264.397 162.815 265.123C162.767 264.75 162.889 264.363 162.808 263.949C163.636 264.526 164.511 265.069 165.332 265.646C167.3 261.405 162.455 258.325 158.852 257.551Z" fill="#925F21"/>
<path d="M155.066 266.548C155.643 265.171 153.553 264.221 152.745 265.354C152.162 266.175 152.114 268.543 153.661 268.089" fill="#FFD5BA"/>
<path d="M135.137 319.241C142.153 321.561 149.753 321.751 156.884 323.576" stroke="#DBDBDB" stroke-width="0.644597" stroke-miterlimit="10"/>
<path d="M194.56 123.299C190.54 120.064 184.932 123.079 188.259 128.09" stroke="#FFE609" stroke-width="1.5307" stroke-linecap="round" stroke-linejoin="round"/>
<path d="M185.57 129.635L191.152 137.712L202.184 130.36L196.602 122.278L185.57 129.635Z" fill="#FFE609"/>
<path d="M199.612 130.824L209.031 135.053L210.919 133.875L210.204 139.595L208.515 137.242L195.091 133.737" fill="#FFE609"/>
<path d="M164.779 178.913C166.243 179.306 170.386 179.653 170.784 181.479C171.218 183.48 166.84 182.98 165.62 182.969C164.416 182.959 162.003 183.286 161.406 182.153C160.794 180.99 162.028 179.26 162.166 178.102C163.273 178.173 165.682 178.76 166.243 178.301" fill="#603C15"/>
<path d="M169.341 145.701C171.524 145.563 171.642 159.901 171.56 161.549C171.478 163.207 167.335 179.025 166.825 179.009L161.733 178.856L163.524 162.86C163.524 162.86 165.009 157.044 157.166 146.482C157.166 146.482 169.315 145.701 169.341 145.701Z" fill="#CAEAFF"/>
<path d="M147.303 178.847C148.609 179.617 152.508 181.061 152.4 182.929C152.283 184.97 148.196 183.316 147.028 182.98C145.87 182.643 143.461 182.316 143.191 181.061C142.915 179.775 144.563 178.444 145.007 177.362C146.053 177.724 148.217 178.939 148.88 178.648" fill="#603C15"/>
<path d="M160.595 148.068C162.732 148.522 159.008 162.365 158.487 163.931C157.962 165.508 149.732 179.636 149.247 179.483L144.384 177.973L150.395 163.038C150.395 163.038 153.385 157.834 148.66 145.558C148.66 145.558 160.569 148.063 160.6 148.068H160.595Z" fill="#CAEAFF"/>
<path d="M172.116 146.901L147.069 147.814C147.513 139.967 148.416 132.022 150.115 124.343C150.895 120.807 151.834 114.526 154.875 112.057C164.228 104.459 169.677 121.154 170.835 127.129C171.147 128.741 172.892 146.87 172.116 146.901Z" fill="#965FC1"/>
<path d="M164.208 99.9277C163.952 99.6573 163.651 99.4022 163.299 99.1726C160.661 97.4378 158.427 99.0807 156.901 101.509C155.84 103.193 156.09 106.744 157.855 108.056C159.86 109.541 163.493 109 164.585 106.612C165.677 104.224 165.871 101.678 164.203 99.9226L164.208 99.9277Z" fill="#FFD5BA"/>
<path d="M161.6 110.02C161.641 109.403 161.666 108.78 161.605 108.219C161.457 106.867 160.365 105.933 159.865 104.729C159.641 104.193 159.727 103.331 159.401 102.872C158.564 101.683 156.549 102.091 155.844 103.081C154.656 104.749 155.523 106.698 155.844 108.469C156.14 110.086 156.344 111.26 157.998 111.959C158.758 112.28 160.028 112.678 160.85 112.464C162.263 112.092 161.518 111.25 161.595 110.02H161.6Z" fill="#FFD5BA"/>
<path d="M159.63 96.0445C159.151 95.9169 158.661 95.8455 158.151 95.8965C156.671 96.0291 155.503 97.4884 154.691 98.6109C153.605 100.111 152.661 101.596 152.247 103.28C151.722 105.428 152.502 107.499 150.982 109.453C152.288 109.647 156.329 109.632 157.248 108.479C158.692 106.668 156.028 104.861 157.207 103.035C158.533 100.968 162.039 101.958 162.937 99.0957C162.62 100.111 165.34 100.718 165.427 102.019C165.626 99.8865 165.274 97.8099 162.916 97.2384C161.814 96.9731 160.748 96.3455 159.63 96.0445Z" fill="#925F21"/>
<path d="M158.161 102.418C158.135 101.907 158.35 101.438 157.804 101.208C157.426 101.05 156.763 101.463 156.569 101.764C156.064 102.566 156.355 103.765 157.431 103.79" fill="#FFD5BA"/>
<path d="M162.942 159.095C162.805 155.273 161.417 151.237 159.748 147.875" stroke="#8EC3EF" stroke-width="0.47962" stroke-linecap="round" stroke-linejoin="round"/>
<path d="M186.076 124.22C187.071 124.675 188.637 124.71 189.433 123.771C189.331 123.623 189.198 123.542 189.096 123.394C189.632 122.685 191.137 122.572 190.908 121.613C190.622 120.404 188.821 120.955 188.122 120.822C186.515 120.511 184.173 119.547 182.928 121.358C183.514 122.317 184.428 122.991 185.259 123.736" fill="#FFD5BA"/>
<path d="M186.025 124.832L185.678 120.102C185.678 120.102 168.044 118.301 162.146 111.255L153.416 120.725C153.416 120.725 169.396 126.863 186.025 124.832Z" fill="#965FC1"/>
<path d="M164.06 103.486V103.996" stroke="black" stroke-width="0.510234" stroke-linecap="round" stroke-linejoin="round"/>
<path d="M160.615 103.674V104.184" stroke="black" stroke-width="0.510234" stroke-linecap="round" stroke-linejoin="round"/>
<path d="M162.529 104.185C162.963 104.399 163.141 105.108 162.59 105.267" stroke="black" stroke-width="0.510234" stroke-linecap="round" stroke-linejoin="round"/>
<path d="M162.085 107.42C161.437 107.69 160.712 106.925 160.467 106.313" stroke="black" stroke-width="0.510234" stroke-linecap="round" stroke-linejoin="round"/>
<path d="M157.151 102.103C157.319 102.256 157.472 102.476 157.574 102.7" stroke="black" stroke-width="0.510234" stroke-linecap="round" stroke-linejoin="round"/>
<path d="M164.442 102.083C164.248 101.991 164.013 101.991 163.804 102.083" stroke="black" stroke-width="0.510234" stroke-linecap="round" stroke-linejoin="round"/>
<path d="M161.044 101.787C160.779 101.761 160.513 101.787 160.279 101.914" stroke="black" stroke-width="0.510234" stroke-linecap="round" stroke-linejoin="round"/>
<mask id="mask0_157_3572" style="mask-type:luminance" maskUnits="userSpaceOnUse" x="180" y="77" width="113" height="103">
<path d="M292.031 77.6611H180.901V179.174H292.031V77.6611Z" fill="white"/>
</mask>
<g mask="url(#mask0_157_3572)">
<path d="M214.689 172.726L214.38 172.588L209.811 170.584L205.756 179.832C205.756 179.832 204.453 183.578 208.123 186.906L208.086 186.997C208.139 187.002 208.193 187.008 208.241 187.013C208.283 187.05 208.315 187.083 208.358 187.12L208.396 187.029C213.327 187.478 215.202 183.978 215.202 183.978L219.258 174.735L214.689 172.732V172.726Z" fill="#898989"/>
<path d="M212.883 178.123C212.782 178.364 212.435 178.438 212.109 178.3C211.783 178.155 211.607 177.851 211.713 177.61L225.049 147.381C225.156 147.146 225.503 147.066 225.824 147.205L225.589 147.146C225.915 147.29 226.326 147.653 226.219 147.894L212.883 178.123Z" fill="#B7B7B7"/>
<path d="M225.001 149.214C224.76 149.112 224.589 148.893 224.552 148.631L223.334 139.8C223.296 139.538 223.403 139.281 223.612 139.116C223.82 138.955 224.098 138.913 224.344 139.014L232.603 142.375C232.844 142.476 233.015 142.695 233.052 142.957C233.09 143.219 232.983 143.481 232.774 143.641L225.738 149.112C225.53 149.272 225.252 149.31 225.006 149.214H225.001ZM224.963 140.863L225.834 147.167L230.856 143.262L224.963 140.863Z" fill="#663914"/>
<path d="M265.013 180.426C263.591 181.137 259.419 182.376 259.403 184.337C259.381 186.479 263.768 185.037 265.013 184.764C266.247 184.497 268.79 184.321 269.159 183.033C269.538 181.708 267.908 180.202 267.518 179.042C266.396 179.347 264.056 180.464 263.378 180.116" fill="#603C15"/>
<path d="M247.355 147.136C245.068 146.992 244.945 162.005 245.031 163.731C245.116 165.467 249.455 182.03 249.989 182.014L255.321 181.854L253.446 165.104C253.446 165.104 251.891 159.013 260.103 147.954C260.103 147.954 247.382 147.136 247.355 147.136Z" fill="#2E5972"/>
<path d="M265.841 155.732C266.653 153.227 268.016 150.176 270.27 146.575C270.27 146.575 257.528 146.767 257.496 146.767C255.209 146.805 256.267 161.78 256.491 163.495C256.716 165.221 262.352 181.388 262.881 181.33L268.181 180.747C268.181 180.747 264.992 164.222 264.986 164.195C264.436 161.332 264.783 158.105 266.135 155.551C267.813 152.377 271.371 148.445 269.891 144.464C268.315 140.228 258.933 141.098 255.759 142.108" fill="#2E5972"/>
<path d="M245.09 151.327L270.313 144.077C267.316 136.41 263.827 128.802 259.638 121.712C257.709 118.447 254.728 112.506 250.897 111.037C239.116 106.522 239.133 124.912 239.923 131.233C240.137 132.937 244.31 151.551 245.084 151.327H245.09Z" fill="#F4933B"/>
<path d="M239.431 100.388C239.687 100.094 239.992 99.8162 240.35 99.5598C243.037 97.6364 245.441 99.2606 247.14 101.74C248.321 103.455 248.209 107.184 246.414 108.632C245.185 109.62 243.657 109.674 242.177 109.391C241.055 109.177 240.302 108.952 239.473 108.082C238.784 107.36 238.48 106.42 238.293 105.458C237.945 103.674 238.202 101.788 239.431 100.388Z" fill="#FFD5BA"/>
<path d="M244.058 96.14C246.756 95.3011 249.171 97.4596 250.037 99.8639C250.811 102.022 249.572 105.517 247.584 106.697C247.258 105.565 246.938 104.384 246.51 103.315C246.238 102.637 245.875 101.985 245.292 101.52C244.811 101.13 243.7 100.89 243.609 100.163C243.47 100.799 242.979 101.376 242.348 101.606C242.268 101.071 242.68 100.607 242.744 100.094C242.322 100.863 241.152 101.552 240.339 101.851C240.436 101.419 240.842 100.943 240.788 100.489C240.724 100.558 240.649 100.628 240.569 100.697C239.8 101.387 238.507 102.06 237.529 101.932C238.229 100.072 238.405 98.1595 240.655 97.5237C241.798 97.1978 242.888 96.4979 244.042 96.14H244.058Z" fill="#563C31"/>
<path d="M245.987 103.261C245.992 102.727 245.752 102.241 246.313 101.979C246.703 101.797 247.413 102.204 247.627 102.508C248.188 103.326 247.937 104.592 246.81 104.661" fill="#FFD5BA"/>
<path d="M248.071 109.926C248.386 111.235 247.579 112.549 246.27 112.865C244.961 113.18 243.647 112.373 243.332 111.064L242.723 108.532C242.407 107.223 243.214 105.908 244.523 105.593C245.832 105.278 247.146 106.085 247.462 107.394L248.071 109.926Z" fill="#FFD5BA"/>
<path d="M239.597 103.819C239.64 103.99 239.683 104.166 239.72 104.337" stroke="black" stroke-width="0.534279" stroke-linecap="round" stroke-linejoin="round"/>
<path d="M243.15 103.172C243.193 103.343 243.236 103.519 243.273 103.69" stroke="black" stroke-width="0.534279" stroke-linecap="round" stroke-linejoin="round"/>
<path d="M241.328 104.162C240.938 104.488 240.928 105.252 241.526 105.284" stroke="black" stroke-width="0.534279" stroke-linecap="round" stroke-linejoin="round"/>
<path d="M242.573 107.341C243.3 107.458 243.85 106.497 243.946 105.818" stroke="black" stroke-width="0.534279" stroke-linecap="round" stroke-linejoin="round"/>
<path d="M246.826 102.932C246.693 103.124 246.586 103.391 246.538 103.642" stroke="black" stroke-width="0.534279" stroke-linecap="round" stroke-linejoin="round"/>
<path d="M238.865 102.483C239.042 102.339 239.282 102.286 239.512 102.329" stroke="black" stroke-width="0.534279" stroke-linecap="round" stroke-linejoin="round"/>
<path d="M231.284 141.827C230.685 142.697 229.408 143.515 228.281 143.136C228.292 142.965 228.356 142.831 228.372 142.655C227.576 142.334 226.272 142.997 225.984 142.088C225.615 140.945 227.378 140.502 227.891 140.037C229.066 138.974 230.52 137.002 232.454 137.878C232.454 138.963 232.032 139.978 231.716 141.015" fill="#FFD5BA"/>
<path d="M231.369 142.345C231.353 142.313 229.285 138.258 229.285 138.258C228.703 137.114 239.233 130.943 239.949 129.789C241.189 127.786 240.382 124.591 240.799 122.229C241.659 117.33 244.571 117.549 248.979 117.805C248.893 117.805 249.075 129.004 249.059 130.094C248.979 134.806 243.812 138.092 239.698 139.567C238.758 139.903 231.353 142.318 231.369 142.345Z" fill="#F4933B"/>
<path d="M241.275 138.875C245.02 138.256 251.48 135.75 252.228 131.86C252.976 127.96 252.506 124.343 252.495 120.443" stroke="#FFAD69" stroke-width="0.534279" stroke-linecap="round" stroke-linejoin="round"/>
<path d="M239.848 129.883C241.056 129.232 242.605 128.43 243.054 127.223C243.562 125.871 243.316 122.82 243.23 121.335" stroke="#FFAD69" stroke-width="0.534279" stroke-linecap="round" stroke-linejoin="round"/>
<path d="M242.167 128.281C243.225 128.671 244.459 129.029 245.372 129.707" stroke="#FFAD69" stroke-width="0.534279" stroke-linecap="round" stroke-linejoin="round"/>
</g>
<path d="M155.656 96.9966C153.612 97.9958 148.211 99.9447 148.369 102.681C148.459 104.171 157.37 99.7512 157.982 99.4271C159.711 98.5134 165.805 97.6403 166.201 95.2638C166.669 92.4688 159.868 95.3448 158.212 95.8129" fill="#FFF1CA"/>
<path d="M153.171 98.5225C152.698 95.669 152.343 92.6534 155.871 92.0413C158.63 91.5642 160.345 93.8326 160.147 96.4971" fill="#FFF1CA"/>
<path d="M153.099 97.9955C155.232 97.4509 158.765 96.3617 160.449 94.9934" stroke="#663914" stroke-width="0.900174" stroke-linecap="round" stroke-linejoin="round"/>
<path d="M83.0354 260.618C84.2098 260.257 85.5503 259.122 85.516 257.736C85.3212 257.685 85.1493 257.719 84.9545 257.673C84.8743 256.676 86.0545 255.462 85.1493 254.826C84.0093 254.024 82.9094 255.828 82.2219 256.235C80.6408 257.175 77.954 258.108 78.2634 260.555C79.4664 260.921 80.7382 260.807 81.9928 260.818" fill="#FFD5BA"/>
<path d="M64.6746 255.432C62.7841 253.777 60.7962 252.797 58.9516 254.287C54.1681 258.148 56.345 263.069 60.6817 265.784C61.6727 266.403 62.5607 267.073 63.7351 267.239C65.3907 267.474 66.6453 269.118 68.2665 269.204C69.5096 269.273 70.7012 268.723 71.7668 268.139C73.3708 267.251 75.078 266.672 76.6648 265.836C78.4293 264.908 80.1479 263.9 81.941 263.029C82.2962 262.857 82.6514 262.685 83.0065 262.513C82.9836 262.525 80.4286 256.739 80.0104 256.257C77.4497 257.277 74.8947 258.48 72.4485 259.609C72.248 259.7 70.1627 260.863 70.1684 260.869C67.5848 259.03 61.0999 249.182 57.1642 250.947" fill="#BA3E90"/>
<path d="M70.2087 260.898C70.1686 261.608 70.2545 262.324 70.4035 263.023" stroke="#FF8FD4" stroke-width="0.572873" stroke-miterlimit="10"/>
<path d="M65.9526 288.562C68.4045 288.407 68.5363 304.505 68.4446 306.356C68.353 308.217 63.7012 325.977 63.1284 325.959L57.4111 325.787L59.4219 307.828C59.4219 307.828 61.0889 301.297 52.2839 289.439C52.2839 289.439 65.924 288.562 65.9526 288.562Z" fill="#6FA3C1"/>
<path d="M62.8933 294.765C62.3892 298.157 60.7106 300.746 59.2727 303.759C57.1531 308.21 53.5211 309.929 49.3219 312.238C48.0272 312.948 46.7784 313.733 45.4779 314.443C43.8796 315.314 42.0923 316.781 40.4195 317.399C39.48 317.743 36.7588 313.257 36.249 312.45C37.8874 311.401 39.732 310.559 41.1757 309.236C42.625 307.907 44.0171 306.515 45.392 305.111C46.681 303.794 47.9528 302.465 49.2646 301.17C49.9005 300.545 50.6453 299.589 51.4931 299.245C49.7802 294.61 46.6008 291.041 44.2234 286.774C49.4079 286.613 60.0232 281.618 62.4006 288.544C63.0938 290.566 63.2084 292.68 62.8933 294.777V294.765Z" fill="#6FA3C1"/>
<path d="M70.7877 289.907L42.6653 290.933C43.1637 282.122 44.1777 273.202 46.0854 264.58C46.9619 260.61 48.016 253.558 51.4303 250.786C61.9311 242.256 68.0494 261 69.3498 267.708C69.6992 269.519 71.6585 289.873 70.7877 289.907Z" fill="#F946AD"/>
<path d="M61.9085 237.169C61.622 236.865 61.284 236.579 60.8888 236.321C57.927 234.373 55.4178 236.218 53.7049 238.945C52.5134 240.835 52.7941 244.822 54.7762 246.295C57.0276 247.962 61.1065 247.354 62.3324 244.673C63.5584 241.992 63.776 239.134 61.9027 237.163L61.9085 237.169Z" fill="#FFD5BA"/>
<path d="M58.981 248.501C59.0268 247.807 59.0554 247.108 58.9867 246.478C58.8206 244.96 57.5946 243.912 57.0332 242.56C56.7811 241.958 56.8785 240.99 56.5119 240.475C55.5724 239.14 53.3095 239.598 52.519 240.709C51.1842 242.583 52.1581 244.771 52.519 246.759C52.8512 248.575 53.0804 249.893 54.9365 250.677C55.7901 251.038 57.2165 251.485 58.1388 251.245C59.7257 250.826 58.8893 249.881 58.9752 248.501H58.981Z" fill="#FFD5BA"/>
<path d="M56.7751 232.809C56.2366 232.666 55.6866 232.586 55.1137 232.643C53.4524 232.792 52.1405 234.431 51.2296 235.685C49.1788 238.509 47.9986 240.675 44.8593 242.273C42.2298 243.614 39.8925 244.324 40.7231 247.91C41.2616 250.242 44.6989 250.093 45.0426 251.926C45.5353 254.544 41.0554 254.355 40.3508 256.498C39.3826 259.436 45.1858 263.011 47.4716 260.949C48.6288 259.906 48.2507 257.918 49.3392 257.179C50.6682 256.28 52.0431 258.308 53.0514 256.944C54.3117 255.249 52.5702 253.129 52.9998 251.296C53.6128 248.707 54.621 246.822 54.2258 244.003C53.9508 242.027 54.2601 240.411 56.1048 239.403C57.4224 238.687 60.6878 237.816 60.6018 235.817C61.5414 236.539 62.4923 237.175 62.7043 238.429C62.6756 238.275 63.3173 237.541 63.3745 237.272C63.4834 236.762 63.3975 236.327 63.0996 235.897C62.5324 235.078 61.4211 234.373 60.4644 234.144C59.2269 233.846 58.0296 233.142 56.7751 232.804V232.809Z" fill="#563C31"/>
<path d="M55.7667 240.399C55.9557 239.007 54.1913 237.867 53.3262 239.231C52.7591 240.13 53.0856 241.476 54.2944 241.505" fill="#FFD5BA"/>
<path d="M58.7683 303.6C58.6136 299.309 57.0554 294.777 55.1821 291.002" stroke="#8EC3EF" stroke-width="0.538501" stroke-linecap="round" stroke-linejoin="round"/>
<path d="M53.4064 299.624C52.8392 299.423 52.2148 299.28 51.6133 299.165" stroke="#8EC3EF" stroke-width="0.538501" stroke-linecap="round" stroke-linejoin="round"/>
<path d="M61.7471 241.162V241.734" stroke="black" stroke-width="0.572873" stroke-linecap="round" stroke-linejoin="round"/>
<path d="M57.8802 241.374V241.947" stroke="black" stroke-width="0.572873" stroke-linecap="round" stroke-linejoin="round"/>
<path d="M60.0287 241.947C60.5157 242.188 60.7162 242.984 60.0975 243.162" stroke="black" stroke-width="0.572873" stroke-linecap="round" stroke-linejoin="round"/>
<path d="M59.5246 245.578C58.7971 245.882 57.9836 245.023 57.7086 244.335" stroke="black" stroke-width="0.572873" stroke-linecap="round" stroke-linejoin="round"/>
<path d="M53.9847 239.61C54.1738 239.782 54.3457 240.028 54.4602 240.28" stroke="black" stroke-width="0.572873" stroke-linecap="round" stroke-linejoin="round"/>
<path d="M62.1772 239.587C61.9595 239.484 61.6959 239.484 61.4611 239.587" stroke="black" stroke-width="0.572873" stroke-linecap="round" stroke-linejoin="round"/>
<path d="M58.3556 239.254C58.0578 239.225 57.7599 239.254 57.4963 239.397" stroke="black" stroke-width="0.572873" stroke-linecap="round" stroke-linejoin="round"/>
<path d="M87.7101 243.155C87.7101 243.321 86.679 258.388 86.679 258.388C86.679 258.388 87.7044 258.949 89.0793 258.445L88.1398 243.109L87.7101 243.155Z" fill="#91C163"/>
<path d="M87.9224 243.28C87.9739 243.251 88.0427 243.022 88.0656 242.976C89.1999 240.599 90.6779 238.044 92.809 236.153C93.9146 235.173 95.3239 234.389 96.7561 234.566C98.8872 234.83 100.159 236.571 100.21 238.45C100.291 241.498 97.054 242.81 94.1781 243.211C92.746 243.411 91.3195 243.451 89.9217 243.411C89.4462 243.4 88.9707 243.371 88.4952 243.337C88.4036 243.331 88.014 243.234 87.9281 243.285L87.9224 243.28Z" fill="#91C163"/>
<path d="M88.0712 243.269C88.0197 243.246 87.928 243.023 87.8994 242.977C86.5531 240.714 84.8402 238.308 82.543 236.624C81.3514 235.753 79.8791 235.1 78.4699 235.409C76.3732 235.874 75.2675 237.724 75.3936 239.597C75.5941 242.639 78.9396 243.642 81.8384 243.779C83.282 243.848 84.7085 243.751 86.1006 243.579C86.576 243.521 87.0458 243.453 87.5098 243.372C87.5958 243.355 87.9796 243.229 88.0712 243.269Z" fill="#91C163"/>
<path d="M75.8005 237.626L88.0772 243.274" stroke="#96DD90" stroke-width="0.332266" stroke-miterlimit="10"/>
<path d="M87.9222 243.28L99.3281 236.125" stroke="#96DD90" stroke-width="0.332266" stroke-miterlimit="10"/>
<path d="M91.6113 264.901H83.9348L82.8062 252.939H92.7398L91.6113 264.901Z" fill="#7C5735"/>
<path d="M93.6566 251.76H81.8898V253.719H93.6566V251.76Z" fill="#8E6842"/>
<path d="M83.3503 265.95C84.5705 265.824 86.1116 264.97 86.3464 263.607C86.1631 263.521 85.9913 263.515 85.8079 263.435C85.9225 262.444 87.3146 261.481 86.5469 260.679C85.5845 259.671 84.1523 261.229 83.4019 261.493C81.6718 262.106 78.8533 262.501 78.6814 264.964C79.7928 265.56 81.0646 265.692 82.2905 265.944" fill="#FFD5BA"/>
<path d="M66.3362 257.311C64.8009 255.323 63.0422 253.971 60.9397 255.076C55.4974 257.941 56.6776 263.188 60.4127 266.688C61.2663 267.485 62.011 268.315 63.1224 268.711C64.6978 269.261 65.6144 271.117 67.1898 271.518C68.3928 271.827 69.6761 271.518 70.8275 271.145C72.5691 270.584 74.3564 270.349 76.0808 269.834C77.9884 269.266 79.8732 268.613 81.798 268.103C82.1819 268 82.56 267.903 82.9438 267.8C82.9209 267.806 81.5288 261.636 81.2137 261.086C78.504 261.59 75.7657 262.277 73.1419 262.908C72.9242 262.959 70.6557 263.698 70.6614 263.704C68.4845 261.401 64.0275 250.482 59.8226 251.45" fill="#F946AD"/>
<path d="M70.7072 263.744C70.5297 264.437 70.4724 265.153 70.4838 265.869" stroke="#FF8FD4" stroke-width="0.572873" stroke-miterlimit="10"/>
<path d="M57.6281 318.093C59.5071 319.445 62.9329 318.86 65.3332 318.998C64.5828 320.992 64.3823 323.948 64.5369 326.067C64.514 325.769 71.3942 325.237 70.7297 329.218C70.4261 331.045 68.759 331.401 67.1664 331.756C66.3587 331.933 56.8261 332.088 56.8032 331.802C56.5282 327.895 57.3417 323.781 57.3417 319.817" fill="#055A7D"/>
<path d="M37.9215 311.035C38.2137 313.327 40.9749 315.446 42.5102 317.291C40.5395 318.104 38.2423 319.966 36.7929 321.53C36.9934 321.313 42.0691 325.981 38.7121 328.21C37.1653 329.235 35.7732 328.256 34.427 327.328C33.7452 326.858 27.1343 319.989 27.3348 319.777C30.0101 316.913 33.5677 314.707 36.4721 311.998" fill="#055A7D"/>
<path d="M280.637 325.213C280.395 326.134 279.852 326.912 278.554 327.638C276.525 328.777 274.554 329.65 272.189 329.797C272.767 328.293 274.171 327.196 274.619 325.626C274.879 324.724 274.749 323.638 274.767 322.706C274.808 320.269 274.849 317.839 274.891 315.402C274.956 311.727 274.419 297.255 274.484 293.579C279.581 293.662 281.557 293.172 279.575 300.246C278.395 304.476 278.248 308.942 277.54 313.302C276.897 317.29 281.693 321.272 280.643 325.219L280.637 325.213Z" fill="#FFD5BA"/>
<path d="M273.392 326.754L272.13 328.807L281.115 324.813L279.569 330.783L278.773 330.766L279.274 328.217L269.026 332.217L268.43 331.32L273.392 326.754Z" fill="#F74376"/>
<path d="M291.345 322.953C291.339 323.903 291.009 324.794 289.935 325.826C288.26 327.437 286.567 328.776 284.319 329.513C284.496 327.909 285.587 326.493 285.623 324.864C285.646 323.926 285.251 322.906 285.033 321.997C284.466 319.631 287.434 317.266 286.862 314.894C286 311.319 287.764 297.443 286.903 293.868C291.859 292.676 288.779 290.522 288.631 297.862C288.543 302.251 289.522 306.611 289.929 311.012C290.301 315.036 291.375 318.87 291.345 322.953Z" fill="#FFD5BA"/>
<path d="M284.72 326.262L284.006 328.563L291.711 322.445L291.705 328.611L290.932 328.793L290.779 326.198L281.864 332.64L281.062 331.92L284.72 326.262Z" fill="#F74376"/>
<path d="M269.375 282.584C269.375 283.469 273.209 323.291 273.209 323.291L281.469 322.406L282.059 282.584" fill="#025CA4"/>
<path d="M280.537 281.757C280.578 282.642 284.472 322.247 284.472 322.247L292.684 320.984L293.209 281.097" fill="#025CA4"/>
<path d="M258.371 296.205H246.944L245.262 278.394H260.053L258.371 296.205Z" fill="#FFDB27"/>
<path d="M260.637 276.742H244.673V282.766H260.637V276.742Z" fill="#FFDB27"/>
<path d="M245.853 277.024C245.853 274.47 248.991 272.399 252.862 272.399C256.732 272.399 259.87 274.47 259.87 277.024" stroke="#281000" stroke-width="0.330381" stroke-miterlimit="10"/>
<path d="M249.723 272.547C249.723 271.98 250.183 271.526 250.743 271.526H254.395C254.962 271.526 255.416 271.986 255.416 272.547C255.416 273.113 254.956 273.567 254.395 273.567H250.743C250.177 273.567 249.723 273.107 249.723 272.547Z" fill="#93214A"/>
<path d="M294.507 283.327C294.46 283.327 267.752 284.188 267.752 284.188C268.266 275.811 269.263 267.333 271.109 259.139C271.723 256.419 271.552 250.124 274.195 248.395C275.487 247.552 278.012 247.947 279.516 247.746C290.159 246.336 291.321 256.041 292.696 263.935C292.944 265.369 296.018 283.274 294.507 283.327Z" fill="#A7DCEA"/>
<path d="M253.133 230.613C252.236 229.87 251.463 228.383 251.994 227.179C252.183 227.209 252.325 227.292 252.513 227.327C252.944 226.483 252.342 224.985 253.375 224.755C254.667 224.46 254.985 226.448 255.44 227.056C256.49 228.454 258.513 230.247 257.357 232.289C256.165 232.176 255.086 231.616 253.982 231.168" fill="#FFD5BA"/>
<path d="M252.555 230.649L257.257 228.767C259.393 232.2 261.924 235.463 264.637 238.454C266.785 240.82 269.015 243.026 271.511 245.026C274.378 247.333 276.425 247.764 280.165 248C280.1 249.115 274.761 257.227 274.301 257.127C262.673 254.625 256.077 240.826 252.555 230.649Z" fill="#A7DCEA"/>
<path d="M278.23 248.69C278.23 250.306 279.551 251.616 281.168 251.61C282.784 251.61 284.094 250.289 284.088 248.672L284.076 244.448C284.076 242.831 282.755 241.522 281.138 241.528C279.522 241.528 278.212 242.849 278.218 244.466L278.23 248.69Z" fill="#FFD5BA"/>
<path d="M278 245.18C279.381 246.166 282.207 246.012 283.528 244.933" stroke="#231100" stroke-width="0.353979" stroke-miterlimit="10" stroke-linecap="round"/>
<path d="M282.956 234.649C283.392 234.708 283.835 234.821 284.295 234.992C287.758 236.301 287.734 239.552 286.478 242.673C285.61 244.838 282.065 247.045 279.605 246.272C276.814 245.393 274.832 241.57 276.348 238.891C277.864 236.213 280.147 234.278 282.956 234.649Z" fill="#FFD5BA"/>
<path d="M289.788 236.326C290.242 236.691 290.643 237.11 290.944 237.623C292.307 239.918 291.746 242.886 290.466 245.092C289.109 247.429 286.142 247.464 283.764 247.11C284.962 245.511 284.985 243.163 284.649 241.252C284.289 239.216 283.204 237.175 284.614 235.281C283.87 236.284 281.422 234.119 280.124 234.933C282.012 233.275 284.224 232.184 286.383 234.025C287.398 234.892 288.726 235.47 289.776 236.326H289.788Z" fill="#0A203A"/>
<path d="M284.755 242.107C285.256 241.782 285.557 241.257 286.147 241.617C286.56 241.865 286.625 242.779 286.466 243.169C286.053 244.201 284.714 244.75 283.953 243.741" fill="#FFD5BA"/>
<path d="M281.451 238.597C280.908 238.739 280.749 239.694 281.486 239.405C281.87 239.252 281.982 238.75 281.534 238.603" fill="#231100"/>
<path d="M279.15 236.384C278.607 236.532 278.448 237.482 279.185 237.187C279.569 237.033 279.681 236.526 279.233 236.384" fill="#231100"/>
<path d="M285.805 242.661C285.445 242.774 285.127 242.986 284.861 243.257" stroke="#231100" stroke-width="0.353979" stroke-miterlimit="10" stroke-linecap="round"/>
<path d="M282.289 237.517C282.431 237.67 282.543 237.853 282.602 238.054" stroke="#231100" stroke-width="0.353979" stroke-miterlimit="10" stroke-linecap="round"/>
<path d="M280.207 235.364C280.301 235.364 280.424 235.417 280.501 235.511" stroke="#231100" stroke-width="0.353979" stroke-miterlimit="10" stroke-linecap="round"/>
<path d="M279.693 238.349C279.174 238.609 278.484 238.662 277.929 238.892C278.189 239.157 278.478 239.405 278.749 239.659" stroke="#231100" stroke-width="0.353979" stroke-miterlimit="10" stroke-linecap="round"/>
<path d="M284.726 235.08C282.401 235.924 283.174 240.744 284.926 241.723Z" fill="#0A203A"/>
<path d="M277.21 240.066C277.357 240.78 278.561 241.346 279.204 241.518C278.572 243.836 275.705 242.709 277.392 240.633" stroke="#231100" stroke-width="0.353979" stroke-miterlimit="10" stroke-linecap="round"/>
<path d="M277.162 241.683C277.545 241.807 277.929 241.895 278.324 241.954" stroke="#231100" stroke-width="0.353979" stroke-miterlimit="10" stroke-linecap="round"/>
<path d="M257.575 273.669C256.596 274.301 254.95 274.596 253.959 273.722C254.041 273.551 254.165 273.439 254.254 273.274C253.581 272.607 251.971 272.731 252.059 271.681C252.171 270.36 254.159 270.655 254.873 270.401C256.519 269.823 258.838 268.43 260.442 270.147C259.976 271.25 259.115 272.106 258.36 273.032" fill="#FFD5BA"/>
<path d="M257.434 274.235C257.434 274.194 257.05 269.185 257.05 269.185C256.944 267.775 270.301 265.97 271.522 265.096C273.64 263.58 274.183 259.981 275.605 257.757C278.566 253.132 281.44 254.595 285.823 256.737C285.734 256.695 281.15 268.188 280.673 269.285C278.584 274.052 271.923 275.197 267.103 274.949C266 274.89 257.434 274.2 257.434 274.229V274.235Z" fill="#A7DCEA"/>
<path d="M285.451 263.409C284.501 266.188 282.967 270.07 281.174 272.37C279.911 273.987 277.734 273.828 275.923 274.123C273.475 274.53 270.985 274.819 268.49 274.76" stroke="#D9F5FC" stroke-width="0.589965" stroke-miterlimit="10"/>
<path d="M269.522 265.622C270.702 265.498 271.953 265.274 273.074 264.879C274.478 264.377 273.858 264.495 274.56 263.569C275.847 261.876 277.021 259.652 278.667 258.248" stroke="#D9F5FC" stroke-width="0.589965" stroke-miterlimit="10"/>
<path d="M273.799 264.884C274.49 265.516 275.109 266.123 275.569 266.949" stroke="#D9F5FC" stroke-width="0.589965" stroke-miterlimit="10"/>
<path d="M274.389 249.25C272.596 250.33 272.401 253.805 271.734 255.593" stroke="#D9F5FC" stroke-width="0.589965" stroke-miterlimit="10"/>
</g>
<path d="M21.783 3.604C12.997 3.604 8.167 8.664 8.167 19.382V21.544C8.167 32.262 12.951 37.322 21.645 37.322C26.061 37.322 29.557 36.218 32.133 34.332C33.283 33.504 33.375 32.17 32.639 31.112C31.903 30.1 30.707 29.962 29.741 30.606C27.579 32.216 25.095 33.044 21.737 33.044C15.665 33.044 12.813 29.226 12.813 21.176V19.75C12.813 11.562 15.849 7.836 21.691 7.836C24.865 7.836 26.889 8.434 28.959 9.676C29.971 10.32 31.075 9.952 31.719 9.032C32.409 8.02 32.317 6.824 31.213 6.088C29.051 4.616 25.969 3.604 21.783 3.604ZM45.5456 12.114C38.5076 12.114 34.2296 16.162 34.2296 23.89V25.408C34.2296 33.136 38.5076 37.184 45.5456 37.184C52.5836 37.184 56.8616 33.136 56.8616 25.408V23.89C56.8616 16.162 52.5836 12.114 45.5456 12.114ZM45.5456 16.116C50.0076 16.116 52.3076 18.554 52.3076 24.028V25.27C52.3076 30.79 50.0076 33.182 45.5456 33.182C41.1296 33.182 38.7836 30.79 38.7836 25.27V24.028C38.7836 18.554 41.1296 16.116 45.5456 16.116ZM71.2438 12.114C67.7018 12.114 65.3098 13.862 64.1138 16.162V14.276C64.1138 12.988 63.0558 12.436 61.9518 12.436C60.8478 12.436 59.7898 12.988 59.7898 14.276V35.16C59.7898 36.448 60.8938 37.046 62.0438 37.046C63.2398 37.046 64.3438 36.448 64.3438 35.16V21.82C64.3438 18.738 66.2758 16.162 69.7718 16.162C73.0838 16.162 74.9238 17.91 74.9238 22.142V35.16C74.9238 36.448 76.0278 37.046 77.1778 37.046C78.3738 37.046 79.4318 36.448 79.4318 35.16V21.958C79.4318 18.37 81.7318 16.162 84.9058 16.162C88.1258 16.162 90.0578 17.772 90.0578 22.188V35.16C90.0578 36.448 91.1618 37.046 92.3118 37.046C93.4618 37.046 94.5658 36.448 94.5658 35.16V21.222C94.5658 15.61 91.2538 12.114 86.1018 12.114C82.1918 12.114 79.7998 13.77 78.1898 16.3C77.3158 13.862 74.7858 12.114 71.2438 12.114ZM110.348 12.114C107.496 12.114 104.506 13.31 102.942 15.886V14.276C102.942 12.988 101.884 12.436 100.734 12.436C99.6297 12.436 98.5717 12.988 98.5717 14.276V44.084C98.5717 45.372 99.6757 45.97 100.826 45.97C102.022 45.97 103.126 45.372 103.126 44.084V34.01C104.46 35.988 106.99 37.184 110.072 37.184C116.144 37.184 120.1 33.274 120.1 25.408V23.844C120.1 16.162 116.834 12.114 110.348 12.114ZM109.566 16.07C113.798 16.07 115.638 18.692 115.638 24.028V25.27C115.638 30.698 113.384 33.274 109.612 33.274C105.748 33.274 103.034 30.606 103.034 27.846V22.556C103.034 18.646 105.794 16.07 109.566 16.07ZM131.907 12.114C128.687 12.114 125.651 13.126 123.581 14.552C122.615 15.196 122.523 16.3 123.075 17.22C123.673 18.14 124.685 18.508 125.651 17.91C127.537 16.714 129.653 16.07 131.815 16.07C135.403 16.07 137.013 17.634 137.013 21.176V22.326H130.619C123.903 22.326 121.465 25.362 121.465 29.41V30.008C121.465 34.516 124.593 37.184 129.883 37.184C131.723 37.184 133.425 36.724 134.667 36.08C135.863 35.482 136.875 34.608 137.335 33.55H137.381V35.298C137.381 36.494 138.393 37.046 139.451 37.046C140.509 37.046 141.521 36.494 141.521 35.298V20.164C141.521 15.15 137.703 12.114 131.907 12.114ZM130.757 25.868H137.059V28.214C137.059 30.238 136.185 31.526 134.621 32.446C133.425 33.09 132.045 33.366 130.251 33.366C127.399 33.366 125.881 32.078 125.881 29.824V29.64C125.881 27.432 127.169 25.868 130.757 25.868ZM157.461 12.114C154.011 12.114 150.975 13.77 149.825 15.886H149.733V14.276C149.733 12.988 148.675 12.436 147.571 12.436C146.467 12.436 145.409 12.988 145.409 14.276V35.16C145.409 36.448 146.513 37.046 147.663 37.046C148.859 37.046 149.963 36.448 149.963 35.16V22.234C149.963 18.462 152.815 16.116 156.173 16.116C159.669 16.116 161.693 17.726 161.693 22.142V35.16C161.693 36.448 162.797 37.046 163.947 37.046C165.097 37.046 166.201 36.448 166.201 35.16V21.084C166.201 15.38 162.935 12.114 157.461 12.114ZM172.612 3.328C170.91 3.328 169.576 4.616 169.576 6.226C169.576 7.882 170.91 9.17 172.612 9.17C174.314 9.17 175.648 7.882 175.648 6.226C175.648 4.616 174.314 3.328 172.612 3.328ZM172.612 12.436C171.462 12.436 170.358 13.034 170.358 14.322V35.16C170.358 36.448 171.462 37.046 172.612 37.046C173.808 37.046 174.866 36.448 174.866 35.16V14.322C174.866 13.034 173.808 12.436 172.612 12.436ZM189.247 12.114C182.209 12.114 177.931 16.162 177.931 23.89V25.408C177.931 33.136 182.209 37.184 189.247 37.184C196.285 37.184 200.563 33.136 200.563 25.408V23.89C200.563 16.162 196.285 12.114 189.247 12.114ZM189.247 16.116C193.709 16.116 196.009 18.554 196.009 24.028V25.27C196.009 30.79 193.709 33.182 189.247 33.182C184.831 33.182 182.485 30.79 182.485 25.27V24.028C182.485 18.554 184.831 16.116 189.247 16.116ZM215.543 12.114C212.093 12.114 209.057 13.77 207.907 15.886H207.815V14.276C207.815 12.988 206.757 12.436 205.653 12.436C204.549 12.436 203.491 12.988 203.491 14.276V35.16C203.491 36.448 204.595 37.046 205.745 37.046C206.941 37.046 208.045 36.448 208.045 35.16V22.234C208.045 18.462 210.897 16.116 214.255 16.116C217.751 16.116 219.775 17.726 219.775 22.142V35.16C219.775 36.448 220.879 37.046 222.029 37.046C223.179 37.046 224.283 36.448 224.283 35.16V21.084C224.283 15.38 221.017 12.114 215.543 12.114Z" fill="#0BAB8F"/>
<path d="M254.569 2.73C253.373 2.73 252.269 3.328 252.269 4.616V15.15C251.303 13.632 249.003 12.114 245.323 12.114C239.205 12.114 235.249 16.07 235.249 23.89V25.454C235.249 33.136 238.607 37.184 244.909 37.184C248.221 37.184 251.119 35.896 252.407 33.458H252.499V35.206C252.499 36.494 253.557 37.046 254.661 37.046C255.765 37.046 256.823 36.494 256.823 35.206V4.616C256.823 3.328 255.719 2.73 254.569 2.73ZM245.921 16.07C250.107 16.07 252.361 18.738 252.361 21.36V26.65C252.361 30.56 249.463 33.274 245.737 33.274C241.643 33.274 239.757 30.744 239.757 25.27V24.074C239.757 18.646 241.965 16.07 245.921 16.07ZM271.062 12.114C264.024 12.114 259.746 16.162 259.746 23.89V25.408C259.746 33.136 264.024 37.184 271.062 37.184C278.1 37.184 282.378 33.136 282.378 25.408V23.89C282.378 16.162 278.1 12.114 271.062 12.114ZM271.062 16.116C275.524 16.116 277.824 18.554 277.824 24.028V25.27C277.824 30.79 275.524 33.182 271.062 33.182C266.646 33.182 264.3 30.79 264.3 25.27V24.028C264.3 18.554 266.646 16.116 271.062 16.116ZM297.359 12.114C293.909 12.114 290.873 13.77 289.723 15.886H289.631V14.276C289.631 12.988 288.573 12.436 287.469 12.436C286.365 12.436 285.307 12.988 285.307 14.276V35.16C285.307 36.448 286.411 37.046 287.561 37.046C288.757 37.046 289.861 36.448 289.861 35.16V22.234C289.861 18.462 292.713 16.116 296.071 16.116C299.567 16.116 301.591 17.726 301.591 22.142V35.16C301.591 36.448 302.695 37.046 303.845 37.046C304.995 37.046 306.099 36.448 306.099 35.16V21.084C306.099 15.38 302.833 12.114 297.359 12.114ZM319.226 12.114C316.006 12.114 312.97 13.126 310.9 14.552C309.934 15.196 309.842 16.3 310.394 17.22C310.992 18.14 312.004 18.508 312.97 17.91C314.856 16.714 316.972 16.07 319.134 16.07C322.722 16.07 324.332 17.634 324.332 21.176V22.326H317.938C311.222 22.326 308.784 25.362 308.784 29.41V30.008C308.784 34.516 311.912 37.184 317.202 37.184C319.042 37.184 320.744 36.724 321.986 36.08C323.182 35.482 324.194 34.608 324.654 33.55H324.7V35.298C324.7 36.494 325.712 37.046 326.77 37.046C327.828 37.046 328.84 36.494 328.84 35.298V20.164C328.84 15.15 325.022 12.114 319.226 12.114ZM318.076 25.868H324.378V28.214C324.378 30.238 323.504 31.526 321.94 32.446C320.744 33.09 319.364 33.366 317.57 33.366C314.718 33.366 313.2 32.078 313.2 29.824V29.64C313.2 27.432 314.488 25.868 318.076 25.868ZM336.5 5.996C335.35 5.996 334.246 6.594 334.246 7.928V12.666H331.486C330.428 12.666 329.922 13.54 329.922 14.552C329.922 15.564 330.428 16.392 331.486 16.392H334.246V29.548C334.246 34.884 336.316 37.184 341.284 37.184C342.71 37.184 344.044 36.908 345.056 36.448C345.976 36.034 346.344 35.114 345.976 34.056C345.608 32.906 344.688 32.63 343.86 32.906C343.124 33.182 342.434 33.32 341.606 33.32C339.582 33.32 338.8 32.308 338.8 29.548V16.392H344.136C345.194 16.392 345.7 15.564 345.7 14.552C345.7 13.54 345.194 12.666 344.136 12.666H338.8V7.928C338.8 6.594 337.696 5.996 336.5 5.996ZM350.363 3.328C348.661 3.328 347.327 4.616 347.327 6.226C347.327 7.882 348.661 9.17 350.363 9.17C352.065 9.17 353.399 7.882 353.399 6.226C353.399 4.616 352.065 3.328 350.363 3.328ZM350.363 12.436C349.213 12.436 348.109 13.034 348.109 14.322V35.16C348.109 36.448 349.213 37.046 350.363 37.046C351.559 37.046 352.617 36.448 352.617 35.16V14.322C352.617 13.034 351.559 12.436 350.363 12.436ZM366.998 12.114C359.96 12.114 355.682 16.162 355.682 23.89V25.408C355.682 33.136 359.96 37.184 366.998 37.184C374.036 37.184 378.314 33.136 378.314 25.408V23.89C378.314 16.162 374.036 12.114 366.998 12.114ZM366.998 16.116C371.46 16.116 373.76 18.554 373.76 24.028V25.27C373.76 30.79 371.46 33.182 366.998 33.182C362.582 33.182 360.236 30.79 360.236 25.27V24.028C360.236 18.554 362.582 16.116 366.998 16.116ZM393.294 12.114C389.844 12.114 386.808 13.77 385.658 15.886H385.566V14.276C385.566 12.988 384.508 12.436 383.404 12.436C382.3 12.436 381.242 12.988 381.242 14.276V35.16C381.242 36.448 382.346 37.046 383.496 37.046C384.692 37.046 385.796 36.448 385.796 35.16V22.234C385.796 18.462 388.648 16.116 392.006 16.116C395.502 16.116 397.526 17.726 397.526 22.142V35.16C397.526 36.448 398.63 37.046 399.78 37.046C400.93 37.046 402.034 36.448 402.034 35.16V21.084C402.034 15.38 398.768 12.114 393.294 12.114Z" fill="#FF7400"/>
<defs>
<clipPath id="clip0_157_3572">
<rect width="449" height="309.745" fill="white" transform="translate(0 23)"/>
</clipPath>
</defs>
</svg>
