<svg width="455" height="330" viewBox="0 0 455 330" fill="none" xmlns="http://www.w3.org/2000/svg">
<path d="M35.7007 3.74094C36.1443 3.64794 36.5061 3.7492 36.7861 4.04473C37.0866 4.30869 37.2834 4.66251 37.3764 5.1062C37.4694 5.54989 37.4313 5.95295 37.262 6.31538C37.1189 6.67234 36.8254 6.89732 36.3818 6.99032L18.7646 10.6831C18.2165 10.7979 17.9999 11.1294 18.1148 11.6775L19.0093 15.9448C19.1242 16.4929 19.4556 16.7095 20.0037 16.5946L38.0124 12.8198C38.4561 12.7268 38.8151 12.815 39.0896 13.0844C39.3901 13.3484 39.5869 13.7022 39.6799 14.1459C39.7729 14.5896 39.7375 15.0057 39.5737 15.3942C39.4306 15.7512 39.1372 15.9762 38.6935 16.0692L18.9231 20.2132C17.7747 20.454 16.948 20.4093 16.4429 20.0792C15.9377 19.7492 15.5676 19.023 15.3323 17.9007L13.9619 11.3628C13.7267 10.2405 13.7741 9.42682 14.1041 8.9217C14.4342 8.41658 15.1734 8.04366 16.3218 7.80295L35.7007 3.74094ZM30.5881 21.8551L43.7813 19.0896C44.225 18.9966 44.5868 19.0979 44.8667 19.3934C45.1673 19.6574 45.3641 20.0112 45.4571 20.4549C45.5501 20.8986 45.5147 21.3147 45.3509 21.7032C45.2078 22.0602 44.9143 22.2852 44.4706 22.3782L14.2475 28.7133C13.8038 28.8063 13.4317 28.7208 13.1311 28.4568C12.8512 28.1613 12.6647 27.7917 12.5717 27.348C12.4787 26.9043 12.5038 26.504 12.6469 26.147C12.8107 25.7585 13.1145 25.5177 13.5582 25.4247L26.7514 22.6593L25.5944 17.1392L29.431 16.335L30.5881 21.8551ZM29.876 28.0121C33.6605 27.2189 36.7115 27.1515 39.0293 27.81C41.3731 28.4631 42.7857 29.938 43.2671 32.2347C43.754 34.5576 43.0526 36.4756 41.1628 37.9888C39.3047 39.5226 36.4834 40.6862 32.6989 41.4794C28.9145 42.2727 25.8504 42.3428 23.5066 41.6897C21.1943 41.0573 19.7947 39.5797 19.3078 37.2568C18.8264 34.9601 19.5148 33.0448 21.373 31.511C23.2573 29.9716 26.0916 28.8054 29.876 28.0121ZM30.5325 31.1441C27.6877 31.7404 25.6915 32.4857 24.5439 33.3802C23.3908 34.2485 22.9374 35.27 23.1836 36.4444C23.4298 37.6189 24.2552 38.3723 25.6599 38.7045C27.0701 39.0628 29.1976 38.9438 32.0424 38.3475C34.8873 37.7512 36.8835 37.0058 38.0311 36.1114C39.1841 35.243 39.6376 34.2216 39.3914 33.0471C39.1452 31.8726 38.3197 31.1193 36.915 30.7871C35.5049 30.4288 33.3774 30.5477 30.5325 31.1441Z" fill="#0BAB8F"/>
<path d="M147.596 11.5972C149.977 11.8968 151.743 12.7102 152.893 14.0375C154.046 15.3383 154.502 16.9544 154.259 18.8858C154.016 20.8173 153.173 22.2835 151.73 23.2846C150.29 24.2592 148.38 24.5966 145.998 24.2971C143.591 23.9941 141.81 23.1923 140.657 21.8915C139.507 20.5642 139.053 18.9348 139.296 17.0034C139.539 15.072 140.381 13.6189 141.82 12.6444C143.263 11.6433 145.189 11.2943 147.596 11.5972ZM148.76 2.02759C149.289 2.09416 149.735 2.28471 150.099 2.59922C150.463 2.91374 150.609 3.3488 150.54 3.90442L150.22 6.4444L155.816 7.14844C156.292 7.20836 156.614 7.42361 156.783 7.7942C156.978 8.16811 157.047 8.57996 156.99 9.02975C156.934 9.47954 156.765 9.86143 156.483 10.1754C156.232 10.4663 155.868 10.5818 155.391 10.5218L139.755 8.55451C139.252 8.49127 138.902 8.28591 138.703 7.93846C138.535 7.56787 138.479 7.15769 138.536 6.7079C138.592 6.25811 138.748 5.87456 139.003 5.55723C139.284 5.24323 139.676 5.11786 140.179 5.18111L146.291 5.95007L146.611 3.41009C146.68 2.85447 146.93 2.46934 147.361 2.25469C147.817 2.04337 148.284 1.96767 148.76 2.02759ZM147.212 14.6531C145.942 14.4933 144.911 14.6727 144.12 15.1914C143.333 15.6836 142.876 16.4324 142.749 17.4378C142.623 18.4432 142.878 19.2951 143.516 19.9935C144.157 20.6655 145.113 21.0814 146.383 21.2411C147.653 21.4009 148.682 21.2347 149.469 20.7425C150.26 20.2239 150.719 19.4618 150.845 18.4564C150.972 17.451 150.715 16.6123 150.073 15.9404C149.436 15.242 148.482 14.8129 147.212 14.6531ZM168.901 4.7229C169.377 4.78282 169.784 4.96837 170.121 5.27955C170.488 5.56761 170.638 5.97622 170.572 6.50538L167.995 26.9839C167.929 27.5131 167.68 27.885 167.25 28.0996C166.85 28.2912 166.411 28.357 165.935 28.297C165.485 28.2405 165.077 28.0681 164.71 27.7801C164.373 27.4689 164.238 27.0487 164.304 26.5196L165.453 17.3915L161.246 16.8622L160.307 24.3234C160.24 24.8526 159.992 25.2245 159.562 25.4391C159.162 25.6307 158.737 25.6981 158.287 25.6415C157.837 25.5849 157.429 25.4126 157.062 25.1246C156.725 24.8134 156.589 24.3932 156.656 23.864L159.003 5.2111C159.069 4.68193 159.303 4.32159 159.703 4.13007C160.13 3.94188 160.568 3.87608 161.018 3.93267C161.468 3.98926 161.863 4.15992 162.203 4.44465C162.57 4.7327 162.72 5.14131 162.654 5.67047L161.665 13.5285L165.872 14.0578L166.881 6.04101C166.947 5.51184 167.181 5.1515 167.581 4.95999C168.011 4.74534 168.451 4.66631 168.901 4.7229ZM155.76 27.1378C159.544 27.6139 162.412 28.5258 164.366 29.8735C166.32 31.2213 167.152 33.0461 166.862 35.3479C166.573 37.6498 165.314 39.2116 163.088 40.0334C160.861 40.8552 157.856 41.0281 154.072 40.5521C150.289 40.0761 147.42 39.1642 145.467 37.8164C143.513 36.4687 142.681 34.6439 142.97 32.342C143.26 30.0401 144.518 28.4783 146.745 27.6565C148.972 26.8347 151.977 26.6618 155.76 27.1378ZM155.361 30.3128C152.556 29.96 150.479 30.0211 149.129 30.4963C147.783 30.9451 147.039 31.7251 146.9 32.8363C146.76 33.9476 147.287 34.8874 148.48 35.6557C149.67 36.4504 151.667 37.0243 154.472 37.3771C157.276 37.73 159.354 37.6688 160.704 37.1936C162.05 36.7448 162.793 35.9648 162.933 34.8536C163.073 33.7424 162.546 32.8026 161.353 32.0343C160.163 31.2395 158.165 30.6657 155.361 30.3128Z" fill="#FC4D07"/>
<path d="M274.595 6.65777C275.754 6.47468 276.578 6.56056 277.066 6.91542C277.58 7.26611 277.927 8.00777 278.106 9.14039L278.811 13.605C278.986 14.7113 279.078 15.7226 279.088 16.639C279.093 17.529 278.974 18.3983 278.73 19.2467C278.486 20.0952 278.095 20.9533 277.558 21.8212C277.016 22.6628 276.284 23.5882 275.364 24.5976C274.466 25.5764 273.356 26.6696 272.035 27.8772C270.714 29.0848 269.137 30.4678 267.305 32.0262C266.898 32.3604 266.459 32.4838 265.986 32.3965C265.509 32.2829 265.11 32.0625 264.788 31.7353C264.467 31.4082 264.266 30.9944 264.187 30.4939C264.134 29.9893 264.309 29.5568 264.711 29.1963C266.402 27.7682 267.84 26.5287 269.024 25.4777C270.23 24.3963 271.226 23.4424 272.014 22.6161C272.797 21.7634 273.406 21.0057 273.841 20.343C274.299 19.6498 274.627 18.9906 274.825 18.3653C275.019 17.7138 275.103 17.0525 275.078 16.3815C275.049 15.6842 274.968 14.9141 274.835 14.0712L274.354 11.0289C274.308 10.7392 274.211 10.552 274.063 10.4675C273.937 10.3524 273.716 10.3199 273.4 10.3698L263.127 11.9927C262.627 12.0718 262.231 11.9588 261.94 11.6538C261.675 11.3447 261.507 10.9663 261.436 10.5185C261.361 10.0444 261.402 9.61945 261.559 9.24374C261.742 8.86386 262.084 8.63439 262.584 8.55533L274.595 6.65777ZM286.419 2.03609C286.946 1.95286 287.427 2.01174 287.864 2.21272C288.327 2.40954 288.604 2.79769 288.696 3.37716L293.565 34.1949C293.656 34.7744 293.512 35.2292 293.132 35.5591C292.779 35.885 292.339 36.0895 291.812 36.1727C291.311 36.2518 290.83 36.1929 290.367 35.9961C289.93 35.7951 289.666 35.4049 289.574 34.8254L284.705 4.0076C284.614 3.42812 284.745 2.97548 285.098 2.64966C285.478 2.31967 285.918 2.11515 286.419 2.03609Z" fill="#FC4D07"/>
<path d="M397.681 3.58718C398.176 3.6941 398.591 3.92009 398.926 4.26517C399.26 4.61024 399.369 5.05647 399.25 5.60386L398.508 9.04459L414.773 12.556L415.516 9.11532C415.634 8.56793 415.917 8.20611 416.364 8.02985C416.811 7.8536 417.269 7.81612 417.738 7.91741C418.234 8.02433 418.649 8.25033 418.983 8.5954C419.344 8.9461 419.466 9.39514 419.347 9.94253L416.925 21.164C416.683 22.2849 416.295 23.006 415.762 23.3274C415.255 23.6544 414.428 23.6941 413.281 23.4465L395.374 19.5805C394.227 19.3329 393.49 18.9556 393.163 18.4485C392.836 17.9414 392.793 17.1274 393.035 16.0066L395.458 4.78508C395.576 4.23769 395.859 3.87587 396.306 3.69962C396.753 3.52337 397.211 3.48589 397.681 3.58718ZM397.03 15.887C396.946 16.2779 397.112 16.5185 397.529 16.6085L412.543 19.8498C412.961 19.9399 413.211 19.7894 413.296 19.3984L414.055 15.8795L397.79 12.368L397.03 15.887ZM418.503 28.8296C418.972 28.9309 419.274 29.1735 419.41 29.5574C419.571 29.9469 419.604 30.3632 419.508 30.8063C419.413 31.2494 419.211 31.6151 418.903 31.9033C418.627 32.1711 418.254 32.2543 417.785 32.153L404.687 29.3253L402.383 39.9994C402.259 40.5729 401.973 40.9477 401.526 41.124C401.079 41.3002 400.594 41.3321 400.073 41.2195C399.552 41.107 399.124 40.8782 398.789 40.5331C398.454 40.188 398.349 39.7288 398.473 39.1553L400.777 28.4812L387.679 25.6535C387.21 25.5522 386.891 25.3198 386.724 24.9564C386.589 24.5725 386.569 24.159 386.665 23.7159C386.761 23.2727 386.949 22.9043 387.231 22.6104C387.539 22.3222 387.927 22.2287 388.396 22.33L418.503 28.8296Z" fill="#0BAB8F"/>
<g clip-path="url(#clip0_425_5340)">
<path d="M259.223 320.8C251.891 321.402 237.677 320.114 239.099 310.113C240.096 303.1 250.886 292.071 258.147 292.461C262.295 292.682 265.86 297.38 270.017 298.553C275.518 300.102 273.937 299.049 277.871 296.251C281.506 293.665 281.655 292.545 286.791 293.178C293.402 293.997 297.621 296.565 304.452 294.497C310.545 292.651 314.561 289.18 321.296 290.168C327.573 291.088 332.248 294.121 338.807 292.545C344.702 291.128 349.233 287.179 355.585 287.653C359.501 287.945 363.43 290.903 367.332 289.353C372.275 287.392 372.706 279.604 379.26 280.016C384.29 280.33 386.231 285.762 388.715 289.353C392.741 295.17 392.32 290.872 397.197 293.032C401.227 294.821 405.186 310.679 404.993 314.77C404.589 323.226 396.104 320.579 389.435 322" fill="#F9B785"/>
<path d="M161.348 322C165.987 321.426 179.362 321.689 181.911 316.486C183.623 312.994 180.422 310.06 177.815 308.537C173.568 306.062 169.533 305.184 165.818 301.683C162.783 298.819 160.301 294.642 156.269 293.015C152.727 291.583 153.446 292.886 150.775 293.619C148.378 294.274 148.695 295.017 145.619 294.804C142.708 294.602 140.747 292.346 137.421 294.416C132.362 297.563 136.867 305.36 128.746 304.907C125.673 304.739 122.219 302.787 119.163 303.361C115.587 304.033 114.483 307.592 111.16 308.693C103.742 311.154 101.29 316.618 95.6445 321.443" fill="#F9B785"/>
<path d="M41.6521 321.981C36.2118 321.308 20.5284 321.617 17.539 315.515C15.5315 311.421 19.2851 307.98 22.3418 306.195C27.3228 303.292 32.0544 302.263 36.4098 298.157C39.9693 294.799 42.8795 289.901 47.6071 287.993C51.7606 286.314 50.9173 287.842 54.0492 288.702C56.8604 289.47 56.4882 290.341 60.0953 290.091C63.5083 289.854 65.8088 287.209 69.7089 289.636C75.6401 293.326 70.3582 302.469 79.8807 301.938C83.4838 301.74 87.5344 299.452 91.1177 300.125C95.3107 300.913 96.6055 305.086 100.502 306.377C109.201 309.263 112.075 315.67 118.695 321.328" fill="#F9B785"/>
<path d="M295.986 321.02C305.591 315.064 317.265 313.24 325.248 304.62C335.604 293.438 341.788 277.28 359.423 280.893C369.836 283.025 369.792 291.152 376.874 296.827C383.155 301.86 386.561 294.638 392.768 292.897C397.423 291.587 399.766 293.455 403.489 296.581C408.161 300.497 411.207 302.563 416.93 304.589C426.588 308.009 429.779 315.6 437.128 322.299" fill="#DB9F6E"/>
<path d="M224.042 320.11C216.891 315.953 208.198 314.68 202.255 308.668C194.544 300.865 189.939 289.594 176.805 292.114C169.052 293.603 169.084 299.271 163.812 303.228C159.135 306.74 156.602 301.703 151.977 300.486C148.511 299.573 146.767 300.875 143.994 303.055C140.515 305.788 138.247 307.228 133.986 308.642C126.796 311.028 124.419 316.323 118.947 321" fill="#DB9F6E"/>
<path d="M-35.6091 320.783C-26.9577 315.755 -16.4413 314.214 -9.25094 306.941C0.0775521 297.501 5.64852 283.865 21.5378 286.914C30.9178 288.715 30.8782 295.573 37.2569 300.36C42.915 304.609 45.9796 298.515 51.5743 297.042C55.7674 295.937 57.8778 297.513 61.2314 300.15C65.4404 303.456 68.1843 305.199 73.3395 306.909C82.0384 309.796 84.913 316.202 91.5332 321.86" fill="#DB9F6E"/>
<path d="M206.87 104.429C206.87 105.202 202.133 174.276 202.133 174.276C202.133 174.276 206.846 176.851 213.134 174.532L208.829 104.213L206.87 104.426V104.429Z" fill="#8DCC4A"/>
<path d="M207.828 105L207.812 105.008C207.812 105.008 207.814 105 207.814 104.997H207.804C207.804 104.997 207.817 104.989 207.82 104.989C208.057 104.856 208.369 103.811 208.473 103.595C213.66 92.703 220.445 80.9712 230.217 72.3103C235.287 67.8185 241.741 64.2092 248.309 65.0302C258.071 66.2511 263.92 74.2349 264.146 82.8292C264.514 96.7949 249.672 102.822 236.49 104.664C229.921 105.584 223.374 105.768 216.958 105.578C214.767 105.512 212.589 105.4 210.424 105.232C210.016 105.2 208.225 104.771 207.825 105H207.828Z" fill="#8DCC4A"/>
<path d="M208.531 104.968L208.547 104.976C208.547 104.976 208.541 104.968 208.541 104.965H208.549L208.533 104.957C208.285 104.845 207.878 103.835 207.755 103.63C201.576 93.2681 193.731 82.2187 183.196 74.5014C177.731 70.5002 170.971 67.5066 164.506 68.9354C154.899 71.0573 149.818 79.5503 150.391 88.1286C151.324 102.07 166.663 106.687 179.96 107.298C186.584 107.602 193.12 107.178 199.491 106.391C201.667 106.122 203.826 105.81 205.964 105.44C206.366 105.37 208.11 104.776 208.528 104.968H208.531Z" fill="#8DCC4A"/>
<path d="M152.255 79.082L208.547 104.974" stroke="#B8E880" stroke-width="1.06629" stroke-miterlimit="10"/>
<path d="M207.827 105.001L260.15 72.207" stroke="#B8E880" stroke-width="1.06629" stroke-miterlimit="10"/>
<path d="M169.79 154.143C170.472 154.545 172.509 155.3 172.453 156.275C172.391 157.342 170.256 156.478 169.646 156.302C169.041 156.126 167.782 155.956 167.641 155.3C167.497 154.628 168.358 153.932 168.59 153.367C169.137 153.556 170.267 154.191 170.613 154.039" fill="#603C15"/>
<path d="M256.274 321H169.726L157 188H269L256.274 321Z" fill="#EEEEEE"/>
<path d="M279.838 174.377H146.391V196.618H279.838V174.377Z" fill="#E7E7E7"/>
<path d="M175.406 178.334C175.406 179.885 143.867 318.938 143.867 318.938" stroke="#7F7F7F" stroke-width="1.94371" stroke-linecap="round" stroke-linejoin="round"/>
<path d="M146.974 178.334C146.974 179.885 110.783 318.938 110.783 318.938" stroke="#7F7F7F" stroke-width="1.94371" stroke-linecap="round" stroke-linejoin="round"/>
<path d="M163.118 228.736H134.562" stroke="#7F7F7F" stroke-width="1.94371" stroke-linecap="round" stroke-linejoin="round"/>
<path d="M166.959 212.54H138.01" stroke="#7F7F7F" stroke-width="1.94371" stroke-linecap="round" stroke-linejoin="round"/>
<path d="M170.408 196.339H143.01" stroke="#7F7F7F" stroke-width="1.94371" stroke-linecap="round" stroke-linejoin="round"/>
<path d="M159.035 245.278H130.034" stroke="#7F7F7F" stroke-width="1.94371" stroke-linecap="round" stroke-linejoin="round"/>
<path d="M156.103 261.628L125.888 261.985" stroke="#7F7F7F" stroke-width="1.94371" stroke-linecap="round" stroke-linejoin="round"/>
<path d="M151.621 278.362H121.763" stroke="#7F7F7F" stroke-width="1.94371" stroke-linecap="round" stroke-linejoin="round"/>
<path d="M148.644 294.904H117.679" stroke="#7F7F7F" stroke-width="1.94371" stroke-linecap="round" stroke-linejoin="round"/>
<path d="M197.163 117.755C193.088 114.477 187.406 117.532 190.777 122.61" stroke="#FFE609" stroke-width="1.55116" stroke-linecap="round" stroke-linejoin="round"/>
<path d="M188.052 124.177L193.708 132.362L204.887 124.911L199.23 116.721L188.052 124.177Z" fill="#FFE609"/>
<path d="M202.28 125.381L211.825 129.667L213.738 128.473L213.014 134.269L211.303 131.885L197.699 128.333" fill="#FFE609"/>
<path d="M166.981 174.113C168.465 174.511 172.663 174.863 173.067 176.714C173.506 178.741 169.07 178.234 167.834 178.224C166.614 178.213 164.168 178.544 163.563 177.396C162.943 176.218 164.194 174.465 164.334 173.291C165.456 173.363 167.896 173.958 168.465 173.493" fill="#603C15"/>
<path d="M171.603 140.458C173.816 140.318 173.935 154.848 173.853 156.518C173.77 158.198 169.571 174.227 169.054 174.211L163.894 174.056L165.709 157.847C165.709 157.847 167.214 151.952 159.267 141.249C159.267 141.249 171.578 140.458 171.603 140.458Z" fill="#CAEAFF"/>
<path d="M149.272 174.047C150.596 174.827 154.546 176.291 154.437 178.183C154.318 180.251 150.177 178.576 148.993 178.235C147.819 177.893 145.379 177.563 145.105 176.291C144.825 174.988 146.495 173.638 146.945 172.542C148.005 172.909 150.197 174.14 150.87 173.845" fill="#603C15"/>
<path d="M162.741 142.856C164.908 143.317 161.133 157.344 160.606 158.932C160.073 160.529 151.733 174.846 151.242 174.691L146.314 173.161L152.405 158.027C152.405 158.027 155.435 152.753 150.647 140.312C150.647 140.312 162.715 142.851 162.746 142.856H162.741Z" fill="#CAEAFF"/>
<path d="M174.415 141.674L149.033 142.599C149.483 134.647 150.398 126.596 152.12 118.815C152.911 115.232 153.862 108.867 156.944 106.364C166.422 98.6652 171.944 115.583 173.117 121.638C173.433 123.272 175.201 141.643 174.415 141.674Z" fill="#965FC1"/>
<path d="M166.401 94.0733C166.143 93.7992 165.838 93.5407 165.481 93.308C162.808 91.5501 160.543 93.215 158.997 95.6761C157.922 97.3824 158.175 100.981 159.964 102.31C161.996 103.815 165.677 103.266 166.784 100.847C167.89 98.4269 168.087 95.8468 166.396 94.0681L166.401 94.0733Z" fill="#FFD5BA"/>
<path d="M163.759 104.3C163.801 103.675 163.827 103.044 163.764 102.475C163.615 101.105 162.508 100.159 162.001 98.9386C161.774 98.3957 161.862 97.5219 161.531 97.0566C160.683 95.8518 158.64 96.2655 157.927 97.2686C156.722 98.9593 157.601 100.934 157.927 102.729C158.227 104.368 158.434 105.557 160.109 106.265C160.879 106.591 162.167 106.994 162.999 106.777C164.431 106.4 163.677 105.547 163.754 104.3H163.759Z" fill="#FFD5BA"/>
<path d="M161.764 90.1384C161.278 90.0092 160.782 89.9368 160.265 89.9885C158.765 90.1229 157.581 91.6017 156.759 92.7392C155.658 94.2594 154.701 95.764 154.282 97.4702C153.75 99.647 154.541 101.746 153 103.727C154.324 103.923 158.419 103.908 159.349 102.739C160.813 100.903 158.114 99.0731 159.308 97.2221C160.652 95.128 164.205 96.1311 165.115 93.2304C164.794 94.2594 167.55 94.8746 167.638 96.1931C167.839 94.0319 167.483 91.9274 165.094 91.3484C163.977 91.0795 162.896 90.4435 161.764 90.1384Z" fill="#925F21"/>
<path d="M160.275 96.5967C160.249 96.0797 160.466 95.604 159.913 95.3713C159.531 95.211 158.858 95.6298 158.662 95.9349C158.15 96.7467 158.445 97.9618 159.536 97.9876" fill="#FFD5BA"/>
<path d="M165.121 154.03C164.981 150.157 163.575 146.068 161.884 142.66" stroke="#8EC3EF" stroke-width="0.486029" stroke-linecap="round" stroke-linejoin="round"/>
<path d="M188.564 118.691C189.572 119.151 191.16 119.187 191.966 118.236C191.863 118.086 191.729 118.003 191.625 117.853C192.168 117.134 193.693 117.021 193.461 116.049C193.171 114.823 191.346 115.382 190.638 115.247C189.009 114.932 186.636 113.954 185.374 115.79C185.969 116.762 186.894 117.445 187.737 118.199" fill="#FFD5BA"/>
<path d="M188.512 119.311L188.16 114.517C188.16 114.517 170.291 112.692 164.314 105.552L155.467 115.148C155.467 115.148 171.661 121.368 188.512 119.311Z" fill="#965FC1"/>
<path d="M166.252 97.6787V98.1958" stroke="black" stroke-width="0.517052" stroke-linecap="round" stroke-linejoin="round"/>
<path d="M162.762 97.8691V98.3862" stroke="black" stroke-width="0.517052" stroke-linecap="round" stroke-linejoin="round"/>
<path d="M164.7 98.3867C165.14 98.6039 165.321 99.3226 164.762 99.4829" stroke="black" stroke-width="0.517052" stroke-linecap="round" stroke-linejoin="round"/>
<path d="M164.25 101.665C163.594 101.939 162.86 101.163 162.611 100.543" stroke="black" stroke-width="0.517052" stroke-linecap="round" stroke-linejoin="round"/>
<path d="M159.251 96.2773C159.422 96.4325 159.577 96.6548 159.68 96.8823" stroke="black" stroke-width="0.517052" stroke-linecap="round" stroke-linejoin="round"/>
<path d="M166.639 96.2563C166.443 96.1633 166.205 96.1633 165.993 96.2563" stroke="black" stroke-width="0.517052" stroke-linecap="round" stroke-linejoin="round"/>
<path d="M163.196 95.9563C162.928 95.9304 162.659 95.9563 162.421 96.0855" stroke="black" stroke-width="0.517052" stroke-linecap="round" stroke-linejoin="round"/>
<mask id="mask0_425_5340" style="mask-type:luminance" maskUnits="userSpaceOnUse" x="183" y="71" width="113" height="104">
<path d="M295.934 71.5078H183.319V174.377H295.934V71.5078Z" fill="white"/>
</mask>
<g mask="url(#mask0_425_5340)">
<path d="M217.56 167.845L217.246 167.704L212.617 165.674L208.507 175.046C208.507 175.046 207.186 178.841 210.906 182.214L210.868 182.306C210.922 182.312 210.976 182.317 211.025 182.322C211.068 182.36 211.101 182.393 211.144 182.431L211.182 182.339C216.179 182.793 218.079 179.247 218.079 179.247L222.189 169.881L217.56 167.85V167.845Z" fill="#898989"/>
<path d="M215.73 173.314C215.627 173.558 215.275 173.634 214.945 173.493C214.615 173.347 214.436 173.038 214.544 172.794L228.058 142.161C228.166 141.923 228.518 141.841 228.843 141.982L228.605 141.923C228.935 142.069 229.352 142.437 229.244 142.681L215.73 173.314Z" fill="#B7B7B7"/>
<path d="M228.009 144.018C227.766 143.915 227.592 143.693 227.554 143.428L226.32 134.478C226.282 134.213 226.39 133.953 226.602 133.785C226.813 133.623 227.094 133.58 227.343 133.682L235.714 137.088C235.957 137.191 236.13 137.413 236.168 137.678C236.206 137.943 236.098 138.209 235.887 138.371L228.756 143.915C228.545 144.078 228.264 144.116 228.015 144.018H228.009ZM227.971 135.556L228.854 141.945L233.943 137.987L227.971 135.556Z" fill="#663914"/>
<path d="M268.555 175.647C267.115 176.367 262.886 177.624 262.87 179.611C262.849 181.782 267.294 180.32 268.555 180.044C269.806 179.773 272.383 179.594 272.757 178.29C273.141 176.947 271.49 175.42 271.094 174.245C269.957 174.554 267.586 175.685 266.898 175.333" fill="#603C15"/>
<path d="M250.661 141.913C248.344 141.767 248.219 156.981 248.306 158.73C248.392 160.489 252.789 177.273 253.33 177.257L258.734 177.095L256.833 160.121C256.833 160.121 255.258 153.949 263.579 142.742C263.579 142.742 250.688 141.913 250.661 141.913Z" fill="#2E5972"/>
<path d="M269.394 150.624C270.217 148.084 271.598 144.993 273.883 141.344C273.883 141.344 260.97 141.539 260.937 141.539C258.62 141.577 259.692 156.753 259.919 158.49C260.147 160.239 265.859 176.623 266.395 176.563L271.766 175.973C271.766 175.973 268.533 159.227 268.528 159.2C267.97 156.298 268.322 153.028 269.692 150.44C271.392 147.224 274.998 143.239 273.498 139.205C271.901 134.912 262.394 135.794 259.178 136.817" fill="#2E5972"/>
<path d="M248.365 146.161L273.926 138.814C270.888 131.045 267.353 123.335 263.108 116.15C261.153 112.842 258.132 106.822 254.25 105.333C242.312 100.758 242.328 119.394 243.13 125.799C243.346 127.526 247.575 146.389 248.36 146.161H248.365Z" fill="#F4933B"/>
<path d="M242.631 94.5425C242.891 94.2447 243.2 93.9632 243.562 93.7033C246.286 91.7542 248.722 93.4001 250.444 95.9123C251.64 97.6502 251.527 101.429 249.707 102.897C248.462 103.898 246.914 103.952 245.414 103.665C244.277 103.449 243.514 103.221 242.674 102.339C241.976 101.608 241.667 100.655 241.478 99.6806C241.126 97.8722 241.386 95.961 242.631 94.5425Z" fill="#FFD5BA"/>
<path d="M247.32 90.2377C250.054 89.3877 252.502 91.575 253.379 94.0114C254.164 96.1987 252.908 99.7396 250.894 100.936C250.563 99.7883 250.238 98.5918 249.805 97.5089C249.529 96.8213 249.161 96.1608 248.571 95.6898C248.084 95.2945 246.957 95.0509 246.865 94.3146C246.725 94.9589 246.227 95.5436 245.588 95.7764C245.506 95.235 245.923 94.7639 245.988 94.2442C245.561 95.0238 244.375 95.7223 243.552 96.0255C243.649 95.5869 244.061 95.105 244.007 94.6448C243.942 94.7152 243.866 94.7856 243.785 94.856C243.005 95.5544 241.695 96.2366 240.704 96.1067C241.413 94.2225 241.592 92.2842 243.871 91.64C245.03 91.3097 246.135 90.6004 247.304 90.2377H247.32Z" fill="#563C31"/>
<path d="M249.275 97.4545C249.28 96.913 249.037 96.4204 249.605 96.1551C250 95.971 250.72 96.3825 250.937 96.6911C251.506 97.5194 251.251 98.8026 250.109 98.873" fill="#FFD5BA"/>
<path d="M251.386 104.207C251.706 105.534 250.888 106.866 249.562 107.185C248.235 107.504 246.903 106.687 246.584 105.36L245.967 102.794C245.647 101.468 246.465 100.136 247.791 99.8162C249.118 99.4968 250.45 100.314 250.769 101.641L251.386 104.207Z" fill="#FFD5BA"/>
<path d="M242.8 98.0186C242.843 98.1918 242.886 98.3705 242.924 98.5437" stroke="black" stroke-width="0.541419" stroke-linecap="round" stroke-linejoin="round"/>
<path d="M246.399 97.3623C246.443 97.5356 246.486 97.7142 246.524 97.8875" stroke="black" stroke-width="0.541419" stroke-linecap="round" stroke-linejoin="round"/>
<path d="M244.553 98.3662C244.158 98.6965 244.147 99.4707 244.754 99.5032" stroke="black" stroke-width="0.541419" stroke-linecap="round" stroke-linejoin="round"/>
<path d="M245.814 101.587C246.551 101.706 247.108 100.732 247.206 100.044" stroke="black" stroke-width="0.541419" stroke-linecap="round" stroke-linejoin="round"/>
<path d="M250.125 97.1191C249.99 97.3141 249.882 97.5848 249.833 97.8392" stroke="black" stroke-width="0.541419" stroke-linecap="round" stroke-linejoin="round"/>
<path d="M242.058 96.6647C242.236 96.5185 242.48 96.4643 242.713 96.5077" stroke="black" stroke-width="0.541419" stroke-linecap="round" stroke-linejoin="round"/>
<path d="M234.375 136.533C233.769 137.416 232.475 138.244 231.332 137.86C231.343 137.686 231.408 137.551 231.424 137.372C230.617 137.047 229.296 137.719 229.004 136.798C228.63 135.64 230.417 135.19 230.937 134.719C232.128 133.642 233.601 131.644 235.561 132.532C235.561 133.631 235.133 134.66 234.813 135.71" fill="#FFD5BA"/>
<path d="M234.461 137.059C234.445 137.026 232.35 132.917 232.35 132.917C231.76 131.758 242.431 125.505 243.156 124.335C244.413 122.305 243.595 119.067 244.017 116.674C244.889 111.709 247.84 111.931 252.306 112.191C252.22 112.191 252.404 123.539 252.388 124.644C252.306 129.419 247.071 132.749 242.902 134.243C241.949 134.584 234.445 137.032 234.461 137.059Z" fill="#F4933B"/>
<path d="M244.5 133.541C248.295 132.913 254.841 130.374 255.599 126.432C256.357 122.48 255.881 118.815 255.87 114.862" stroke="#FFAD69" stroke-width="0.541419" stroke-linecap="round" stroke-linejoin="round"/>
<path d="M243.054 124.429C244.277 123.769 245.847 122.957 246.302 121.733C246.817 120.363 246.568 117.272 246.481 115.767" stroke="#FFAD69" stroke-width="0.541419" stroke-linecap="round" stroke-linejoin="round"/>
<path d="M245.404 122.806C246.476 123.201 247.727 123.564 248.653 124.251" stroke="#FFAD69" stroke-width="0.541419" stroke-linecap="round" stroke-linejoin="round"/>
</g>
<path d="M157.735 91.101C155.665 92.1135 150.191 94.0884 150.351 96.8615C150.442 98.3712 159.473 93.8923 160.093 93.5639C161.845 92.638 168.02 91.7532 168.422 89.345C168.896 86.5126 162.004 89.4271 160.326 89.9014" fill="#FFF1CA"/>
<path d="M155.218 92.6472C154.739 89.7555 154.379 86.6996 157.955 86.0793C160.751 85.5958 162.488 87.8946 162.288 90.5947" fill="#FFF1CA"/>
<path d="M155.146 92.1125C157.307 91.5606 160.888 90.4569 162.594 89.0703" stroke="#663914" stroke-width="0.912203" stroke-linecap="round" stroke-linejoin="round"/>
<path d="M714 321H-456V322H714V321Z" fill="#DDDDDD"/>
<path d="M84.1468 256.91C85.3369 256.544 86.6953 255.395 86.6605 253.99C86.4631 253.938 86.289 253.972 86.0916 253.926C86.0103 252.916 87.2062 251.685 86.289 251.041C85.1337 250.228 84.0191 252.057 83.3225 252.469C81.7202 253.421 78.9975 254.367 79.311 256.846C80.5301 257.218 81.8189 257.101 83.0902 257.113" fill="#FFD5BA"/>
<path d="M65.5402 251.655C63.6244 249.978 61.61 248.985 59.7407 250.494C54.8933 254.407 57.0993 259.394 61.4939 262.146C62.4982 262.773 63.398 263.452 64.5881 263.62C66.2658 263.858 67.5372 265.524 69.1801 265.611C70.4398 265.681 71.6473 265.124 72.7271 264.532C74.3526 263.632 76.0826 263.045 77.6906 262.198C79.4787 261.257 81.2202 260.236 83.0373 259.353C83.3972 259.179 83.7572 259.005 84.1171 258.831C84.0939 258.842 81.5047 252.979 81.0809 252.491C78.486 253.525 75.8968 254.744 73.4179 255.888C73.2148 255.98 71.1016 257.159 71.1074 257.165C68.4893 255.301 61.9177 245.322 57.9294 247.11" fill="#BA3E90"/>
<path d="M71.1477 257.193C71.107 257.913 71.1941 258.639 71.345 259.347" stroke="#FF8FD4" stroke-width="0.580528" stroke-miterlimit="10"/>
<path d="M66.8338 285.226C69.3185 285.069 69.452 301.382 69.3591 303.257C69.2662 305.144 64.5524 323.14 63.9718 323.123L58.1781 322.948L60.2158 304.749C60.2158 304.749 61.9051 298.131 52.9824 286.114C52.9824 286.114 66.8048 285.226 66.8338 285.226Z" fill="#6FA3C1"/>
<path d="M63.7328 291.512C63.2219 294.948 61.521 297.572 60.0639 300.626C57.9159 305.137 54.2354 306.878 49.9801 309.218C48.6681 309.938 47.4025 310.733 46.0847 311.453C44.4651 312.335 42.6538 313.821 40.9587 314.448C40.0066 314.797 37.2491 310.251 36.7324 309.433C38.3927 308.37 40.262 307.517 41.725 306.176C43.1937 304.829 44.6044 303.418 45.9977 301.996C47.3038 300.661 48.5926 299.314 49.922 298.002C50.5664 297.369 51.3211 296.4 52.1803 296.051C50.4445 291.355 47.2226 287.738 44.8134 283.413C50.0672 283.251 60.8244 278.188 63.2335 285.207C63.936 287.256 64.0521 289.398 63.7328 291.523V291.512Z" fill="#6FA3C1"/>
<path d="M71.7335 286.589L43.2354 287.628C43.7404 278.7 44.7679 269.661 46.7011 260.924C47.5893 256.901 48.6575 249.755 52.1174 246.945C62.7585 238.301 68.9586 257.296 70.2764 264.094C70.6305 265.928 72.6159 286.555 71.7335 286.589Z" fill="#F946AD"/>
<path d="M62.7345 233.146C62.4443 232.838 62.1018 232.548 61.7012 232.286C58.6999 230.313 56.1572 232.182 54.4214 234.945C53.2139 236.861 53.4983 240.901 55.507 242.393C57.7884 244.083 61.9218 243.467 63.1641 240.75C64.4065 238.034 64.6271 235.137 62.7287 233.14L62.7345 233.146Z" fill="#FFD5BA"/>
<path d="M59.7677 244.629C59.8141 243.927 59.8431 243.218 59.7735 242.58C59.6051 241.041 58.3628 239.979 57.7939 238.609C57.5384 237.999 57.6371 237.018 57.2656 236.496C56.3135 235.143 54.0204 235.608 53.2193 236.734C51.8667 238.632 52.8536 240.85 53.2193 242.864C53.556 244.704 53.7882 246.04 55.6691 246.835C56.5341 247.201 57.9796 247.654 58.9143 247.41C60.5223 246.986 59.6748 246.028 59.7619 244.629H59.7677Z" fill="#FFD5BA"/>
<path d="M57.5334 228.728C56.9877 228.583 56.4304 228.502 55.8499 228.56C54.1663 228.711 52.8369 230.371 51.9139 231.643C49.8356 234.505 48.6397 236.699 45.4584 238.319C42.7938 239.677 40.4252 240.397 41.267 244.031C41.8127 246.394 45.2958 246.243 45.6442 248.1C46.1434 250.754 41.6037 250.562 40.8896 252.733C39.9085 255.711 45.7893 259.334 48.1056 257.244C49.2783 256.187 48.8951 254.173 49.9981 253.424C51.345 252.513 52.7382 254.568 53.76 253.186C55.0371 251.468 53.2723 249.32 53.7077 247.462C54.3289 244.838 55.3506 242.928 54.95 240.072C54.6714 238.069 54.9849 236.432 56.8542 235.41C58.1894 234.684 61.4984 233.802 61.4113 231.776C62.3634 232.507 63.3271 233.152 63.5419 234.423C63.5128 234.266 64.163 233.523 64.2211 233.251C64.3314 232.734 64.2443 232.293 63.9424 231.857C63.3677 231.027 62.2415 230.313 61.272 230.081C60.0181 229.779 58.8047 229.065 57.5334 228.722V228.728Z" fill="#563C31"/>
<path d="M56.5126 236.419C56.7042 235.009 54.9161 233.853 54.0395 235.235C53.4648 236.147 53.7957 237.511 55.0206 237.54" fill="#FFD5BA"/>
<path d="M59.5531 300.465C59.3963 296.117 57.8173 291.525 55.9189 287.699" stroke="#8EC3EF" stroke-width="0.545697" stroke-linecap="round" stroke-linejoin="round"/>
<path d="M54.1198 296.435C53.5451 296.232 52.9123 296.087 52.3027 295.971" stroke="#8EC3EF" stroke-width="0.545697" stroke-linecap="round" stroke-linejoin="round"/>
<path d="M62.5732 237.192V237.773" stroke="black" stroke-width="0.580528" stroke-linecap="round" stroke-linejoin="round"/>
<path d="M58.6533 237.408V237.989" stroke="black" stroke-width="0.580528" stroke-linecap="round" stroke-linejoin="round"/>
<path d="M60.8301 237.988C61.3235 238.232 61.5267 239.039 60.8997 239.219" stroke="black" stroke-width="0.580528" stroke-linecap="round" stroke-linejoin="round"/>
<path d="M60.3198 241.668C59.5825 241.976 58.7581 241.105 58.4795 240.408" stroke="black" stroke-width="0.580528" stroke-linecap="round" stroke-linejoin="round"/>
<path d="M54.7061 235.62C54.8976 235.794 55.0718 236.044 55.1879 236.299" stroke="black" stroke-width="0.580528" stroke-linecap="round" stroke-linejoin="round"/>
<path d="M63.0069 235.597C62.7863 235.492 62.5193 235.492 62.2812 235.597" stroke="black" stroke-width="0.580528" stroke-linecap="round" stroke-linejoin="round"/>
<path d="M59.1354 235.259C58.8336 235.23 58.5317 235.259 58.2646 235.404" stroke="black" stroke-width="0.580528" stroke-linecap="round" stroke-linejoin="round"/>
<path d="M88.8819 239.212C88.8819 239.381 87.8369 254.649 87.8369 254.649C87.8369 254.649 88.8761 255.218 90.2693 254.707L89.3173 239.166L88.8819 239.212Z" fill="#91C163"/>
<path d="M89.0947 239.34C89.147 239.311 89.2166 239.079 89.2399 239.032C90.3893 236.623 91.8871 234.034 94.0466 232.118C95.1671 231.125 96.5952 230.33 98.0465 230.51C100.206 230.777 101.495 232.542 101.547 234.446C101.628 237.534 98.3484 238.864 95.4341 239.27C93.9828 239.473 92.5373 239.514 91.1208 239.473C90.6389 239.462 90.1571 239.433 89.6753 239.398C89.5824 239.392 89.1876 239.293 89.1005 239.346L89.0947 239.34Z" fill="#91C163"/>
<path d="M89.2466 239.329C89.1943 239.306 89.1014 239.079 89.0724 239.033C87.7082 236.74 85.9724 234.302 83.6445 232.595C82.437 231.713 80.945 231.051 79.5169 231.364C77.3922 231.834 76.2718 233.71 76.3995 235.608C76.6027 238.69 79.993 239.706 82.9304 239.846C84.3934 239.915 85.8389 239.817 87.2496 239.643C87.7314 239.584 88.2074 239.515 88.6777 239.434C88.7647 239.416 89.1537 239.288 89.2466 239.329Z" fill="#91C163"/>
<path d="M76.8125 233.61L89.2532 239.334" stroke="#96DD90" stroke-width="0.336706" stroke-miterlimit="10"/>
<path d="M89.0967 239.34L100.655 232.089" stroke="#96DD90" stroke-width="0.336706" stroke-miterlimit="10"/>
<path d="M92.8339 261.248H85.0548L83.9111 249.127H93.9775L92.8339 261.248Z" fill="#7C5735"/>
<path d="M94.9065 247.932H82.9824V249.917H94.9065V247.932Z" fill="#8E6842"/>
<path d="M84.4628 262.311C85.6993 262.183 87.2609 261.318 87.4989 259.937C87.3131 259.85 87.139 259.844 86.9532 259.763C87.0693 258.758 88.48 257.783 87.7021 256.97C86.7268 255.948 85.2755 257.528 84.515 257.795C82.7618 258.416 79.9056 258.816 79.7314 261.313C80.8577 261.916 82.1464 262.05 83.3888 262.305" fill="#FFD5BA"/>
<path d="M67.2217 253.557C65.6659 251.542 63.8836 250.172 61.7531 251.293C56.2381 254.195 57.434 259.513 61.219 263.06C62.084 263.867 62.8387 264.709 63.9649 265.109C65.5614 265.667 66.4902 267.548 68.0867 267.954C69.3058 268.267 70.6062 267.954 71.773 267.577C73.5378 267.008 75.3491 266.77 77.0965 266.247C79.0296 265.672 80.9396 265.011 82.8901 264.494C83.2791 264.39 83.6622 264.291 84.0512 264.186C84.028 264.192 82.6173 257.94 82.298 257.383C79.5521 257.893 76.7772 258.59 74.1184 259.229C73.8978 259.281 71.5989 260.03 71.6047 260.036C69.3987 257.702 64.8821 246.637 60.6211 247.618" fill="#F946AD"/>
<path d="M71.6517 260.077C71.4717 260.78 71.4136 261.505 71.4253 262.231" stroke="#FF8FD4" stroke-width="0.580528" stroke-miterlimit="10"/>
<path d="M58.3993 315.151C60.3035 316.521 63.775 315.929 66.2074 316.069C65.447 318.089 65.2438 321.084 65.4005 323.232C65.3773 322.93 72.3494 322.391 71.676 326.425C71.3683 328.277 69.679 328.637 68.0651 328.997C67.2466 329.177 57.5866 329.334 57.5634 329.043C57.2847 325.084 58.1091 320.916 58.1091 316.899" fill="#055A7D"/>
<path d="M38.429 308C38.7251 310.322 41.5232 312.47 43.079 314.339C41.082 315.164 38.7541 317.05 37.2853 318.635C37.4885 318.415 42.632 323.146 39.2301 325.404C37.6627 326.443 36.252 325.451 34.8878 324.51C34.1969 324.034 27.4976 317.074 27.7008 316.859C30.4119 313.956 34.017 311.721 36.9602 308.975" fill="#055A7D"/>
<path d="M191.751 320.804L191.552 320.908L188.671 322.379L191.648 328.21C191.648 328.21 192.996 330.403 196.173 329.929L196.2 329.984C196.2 329.984 196.248 329.936 196.269 329.908C196.303 329.908 196.338 329.901 196.372 329.894L196.344 329.839C198.593 327.55 197.61 325.171 197.61 325.171L194.639 319.333L191.758 320.804H191.751Z" fill="#424242"/>
<path d="M193.168 322.614C193.264 322.799 193.147 323.054 192.913 323.178C192.673 323.301 192.404 323.246 192.301 323.061L187.777 314.191C187.681 313.998 187.798 313.751 188.038 313.627C188.279 313.503 188.547 313.558 188.643 313.744L193.161 322.614H193.168Z" fill="#898989"/>
<path d="M186.982 308.113L184.091 309.587L187.257 315.799L190.149 314.325L186.982 308.113Z" fill="#663914"/>
<path d="M181.663 313.614C182.598 314.652 184.407 315.498 185.823 314.797C185.782 314.57 185.672 314.411 185.617 314.185C186.6 313.628 188.422 314.267 188.649 313.023C188.931 311.462 186.545 311.187 185.796 310.671C184.07 309.488 181.821 307.164 179.442 308.649C179.642 310.066 180.364 311.324 180.955 312.624" fill="#FFD5BA"/>
<path d="M159.172 273.556C163.318 274.505 165.071 277.791 167.423 280.872C170.366 284.708 173.047 288.731 175.007 293.166C177.304 298.391 181.182 303.211 184.895 307.433C184.324 307.894 179.236 312.776 179.387 312.989C176.011 308.43 171.04 304.82 167.368 300.392C164.48 296.913 162.307 292.863 159.337 289.446" fill="#5D66B5"/>
<path d="M132.877 323.951C132.554 324.088 132.252 324.267 132.011 324.556C131.337 325.346 131.083 326.667 130.471 327.547C129.419 329.066 127.947 330.359 126.998 327.946C126.18 325.869 127.184 322.947 127.322 320.836C127.452 318.924 127.322 315.892 129.302 314.813C130.876 313.96 133.654 314.558 134.507 316.201C135.036 317.233 135.47 322.074 134.782 322.981C134.349 323.552 133.572 323.648 132.877 323.951Z" fill="#3F3F3F"/>
<path d="M131.483 326.199C131.16 326.336 130.857 326.515 130.616 326.804C129.943 327.594 129.688 328.915 129.076 329.795C128.024 331.314 126.553 332.607 125.604 330.194C124.793 328.117 125.79 325.202 125.927 323.091C126.058 321.179 125.927 318.14 127.907 317.067C129.482 316.215 132.26 316.813 133.112 318.456C133.642 319.488 134.075 324.328 133.387 325.236C132.954 325.807 132.177 325.91 131.483 326.206V326.199Z" fill="#3F3F3F"/>
<path d="M153.272 307.943C157.075 309.071 160.409 311.897 163.744 313.864C166.378 315.417 169.451 318.615 169.664 321.922C169.878 325.188 167.553 327.842 164.418 328.028C159.247 328.344 153.774 327.437 148.59 327.175C143.089 326.893 137.588 326.687 132.081 326.646C131.764 323.29 131.139 319.316 131.799 316.036C132.211 316.119 137.244 316.263 137.21 316.215C135.127 313.362 136.055 308.095 138.709 305.894C142.291 302.924 149.264 303.928 153.403 304.691" fill="#424099"/>
<path d="M136.825 306.946C136.866 306.953 161.51 311.319 161.51 311.319C162.369 301.982 165.663 283.912 160.031 276.039C151.464 264.061 144.231 278.184 141.453 287.144C140.999 288.615 135.423 306.699 136.818 306.953L136.825 306.946Z" fill="#5D66B5"/>
<path d="M166.357 259.55C165.993 259.206 165.587 258.89 165.202 258.587C162.135 256.098 158.869 258.044 156.772 260.74C155.555 262.294 155.356 264.7 155.775 266.57C156.215 268.558 157.384 269.919 159.137 270.813C161.386 271.954 163.964 270.744 165.573 269.073C166.591 268.014 167.038 266.199 167.148 264.762C167.216 263.854 167.045 262.947 167.223 262.053C167.45 260.932 167.258 260.416 166.357 259.564V259.55Z" fill="#FFD5BA"/>
<path d="M160.671 271.295C160.863 273.241 159.44 274.974 157.487 275.166C155.541 275.359 153.809 273.935 153.616 271.983L153.1 266.709C152.908 264.763 154.338 263.03 156.284 262.838C158.23 262.645 159.963 264.075 160.155 266.021L160.671 271.295Z" fill="#FFD5BA"/>
<path d="M165.82 264.94C165.737 265.14 165.648 265.339 165.565 265.539" stroke="black" stroke-width="0.653211" stroke-linecap="round" stroke-linejoin="round"/>
<path d="M161.674 263.442C161.592 263.642 161.502 263.841 161.42 264.041" stroke="black" stroke-width="0.653211" stroke-linecap="round" stroke-linejoin="round"/>
<path d="M163.606 265.002C163.952 265.407 163.833 266.206 163.201 266.134" stroke="#A75454" stroke-width="0.566137" stroke-linecap="round" stroke-linejoin="round"/>
<path d="M157.28 260.389C157.404 260.65 157.473 260.987 157.48 261.303" stroke="black" stroke-width="0.653211" stroke-linecap="round" stroke-linejoin="round"/>
<path d="M166.968 263.484C166.783 263.277 166.508 263.16 166.219 263.167" stroke="black" stroke-width="0.653211" stroke-linecap="round" stroke-linejoin="round"/>
<path d="M161.784 261.289C162.21 261.427 162.637 261.31 162.946 261.681" stroke="black" stroke-width="0.653211" stroke-linecap="round" stroke-linejoin="round"/>
<path d="M163.717 267.996C163.387 268.459 162.947 269.484 162.258 269.467C161.406 269.444 161.852 268.355 161.962 267.781" stroke="#FF8B8B" stroke-width="0.550311" stroke-linecap="round" stroke-linejoin="round"/>
<path d="M160.973 253.802C158.395 253.245 155.665 253.465 153.946 254.627C150.508 256.944 150.9 262.211 152.859 265.333C153.086 265.697 153.327 266.069 153.664 266.33C154.283 264.384 156.414 262.589 158.243 261.709C160.354 260.692 161.434 261.427 162.355 259.145C163.256 259.887 164.129 260.74 164.989 261.476C164.94 261.097 165.064 260.705 164.982 260.286C165.821 260.87 166.708 261.42 167.54 262.005C169.534 257.708 164.624 254.586 160.973 253.802Z" fill="#925F21"/>
<path d="M157.136 262.92C157.721 261.524 155.603 260.561 154.785 261.71C154.193 262.541 154.145 264.941 155.713 264.48" fill="#FFD5BA"/>
<path d="M136.942 316.315C144.052 318.667 151.753 318.86 158.98 320.709" stroke="#DBDBDB" stroke-width="0.653211" stroke-miterlimit="10"/>
<path d="M318.24 235.066C317.572 235.837 264.264 295.028 318.24 302.973C372.215 295.017 318.907 235.837 318.24 235.066Z" fill="#1E871B"/>
<path d="M318.229 331.745V266.118" stroke="#604B3B" stroke-width="4.60539" stroke-linecap="round" stroke-linejoin="round"/>
<path d="M318.941 286.842L327.577 278.207" stroke="#604B3B" stroke-width="4.60539" stroke-linecap="round" stroke-linejoin="round"/>
<path d="M306.853 286.842L317.215 293.75" stroke="#604B3B" stroke-width="4.60539" stroke-linecap="round" stroke-linejoin="round"/>
<path d="M397.89 236.216C397.222 236.988 343.915 296.179 397.89 304.123C451.865 296.167 398.558 236.988 397.89 236.216Z" fill="#6FA537"/>
<path d="M397.879 332.895V267.269" stroke="#604B3B" stroke-width="4.60539" stroke-linecap="round" stroke-linejoin="round"/>
<path d="M398.592 287.993L407.227 279.357" stroke="#604B3B" stroke-width="4.60539" stroke-linecap="round" stroke-linejoin="round"/>
<path d="M386.503 287.992L396.865 294.9" stroke="#604B3B" stroke-width="4.60539" stroke-linecap="round" stroke-linejoin="round"/>
<path d="M284.387 322.367C284.142 323.3 283.592 324.089 282.277 324.824C280.22 325.978 278.224 326.863 275.826 327.013C276.412 325.488 277.835 324.376 278.289 322.786C278.552 321.871 278.421 320.771 278.439 319.826C278.481 317.357 278.522 314.894 278.564 312.425C278.63 308.7 278.086 294.035 278.152 290.311C283.317 290.394 285.32 289.898 283.311 297.066C282.116 301.353 281.966 305.879 281.249 310.297C280.597 314.338 285.458 318.374 284.393 322.373L284.387 322.367Z" fill="#FFD5BA"/>
<path d="M277.045 323.929L275.766 326.009L284.871 321.962L283.305 328.012L282.498 327.994L283.006 325.412L272.621 329.465L272.018 328.556L277.045 323.929Z" fill="#F74376"/>
<path d="M295.238 320.077C295.232 321.04 294.897 321.943 293.809 322.989C292.111 324.621 290.395 325.978 288.117 326.725C288.297 325.099 289.403 323.664 289.438 322.014C289.462 321.064 289.062 320.03 288.841 319.109C288.267 316.711 291.274 314.314 290.694 311.911C289.821 308.288 291.609 294.226 290.736 290.603C295.758 289.396 292.637 287.214 292.487 294.651C292.398 299.099 293.39 303.517 293.803 307.977C294.179 312.054 295.267 315.94 295.238 320.077Z" fill="#FFD5BA"/>
<path d="M288.524 323.432L287.801 325.763L295.609 319.563L295.603 325.811L294.819 325.996L294.664 323.366L285.63 329.894L284.817 329.165L288.524 323.432Z" fill="#F74376"/>
<path d="M272.975 279.168C272.975 280.065 276.861 320.42 276.861 320.42L285.231 319.523L285.828 279.168" fill="#025CA4"/>
<path d="M284.285 278.331C284.327 279.227 288.273 319.361 288.273 319.361L296.595 318.082L297.127 277.661" fill="#025CA4"/>
<path d="M261.823 292.972H250.243L248.539 274.923H263.527L261.823 292.972Z" fill="#FFDB27"/>
<path d="M264.119 273.249H247.941V279.353H264.119V273.249Z" fill="#FFDB27"/>
<path d="M249.137 273.535C249.137 270.946 252.317 268.848 256.239 268.848C260.161 268.848 263.342 270.946 263.342 273.535" stroke="#281000" stroke-width="0.334795" stroke-miterlimit="10"/>
<path d="M253.059 268.997C253.059 268.423 253.525 267.963 254.093 267.963H257.794C258.367 267.963 258.828 268.429 258.828 268.997C258.828 269.571 258.362 270.031 257.794 270.031H254.093C253.519 270.031 253.059 269.565 253.059 268.997Z" fill="#93214A"/>
<path d="M298.442 279.921C298.394 279.921 271.329 280.794 271.329 280.794C271.849 272.305 272.86 263.714 274.731 255.41C275.353 252.653 275.179 246.274 277.858 244.523C279.167 243.668 281.726 244.068 283.25 243.865C294.035 242.436 295.213 252.271 296.606 260.27C296.857 261.723 299.972 279.868 298.442 279.921Z" fill="#A7DCEA"/>
<path d="M256.516 226.503C255.607 225.75 254.824 224.243 255.362 223.023C255.553 223.053 255.697 223.137 255.888 223.173C256.324 222.318 255.714 220.799 256.761 220.566C258.07 220.267 258.393 222.282 258.853 222.898C259.917 224.315 261.968 226.132 260.796 228.201C259.589 228.087 258.494 227.519 257.376 227.065" fill="#FFD5BA"/>
<path d="M255.93 226.539L260.695 224.632C262.859 228.111 265.424 231.417 268.174 234.449C270.35 236.846 272.61 239.082 275.139 241.109C278.044 243.446 280.119 243.883 283.909 244.122C283.843 245.252 278.433 253.472 277.966 253.37C266.183 250.836 259.499 236.852 255.93 226.539Z" fill="#A7DCEA"/>
<path d="M281.948 244.821C281.948 246.459 283.287 247.787 284.925 247.781C286.563 247.781 287.89 246.442 287.884 244.803L287.872 240.523C287.872 238.885 286.533 237.558 284.895 237.563C283.257 237.563 281.93 238.903 281.936 240.541L281.948 244.821Z" fill="#FFD5BA"/>
<path d="M281.715 241.265C283.114 242.263 285.978 242.108 287.317 241.014" stroke="#231100" stroke-width="0.358709" stroke-miterlimit="10" stroke-linecap="round"/>
<path d="M286.737 230.593C287.179 230.653 287.628 230.767 288.094 230.94C291.604 232.267 291.58 235.561 290.306 238.724C289.427 240.918 285.834 243.154 283.341 242.371C280.513 241.48 278.505 237.606 280.041 234.892C281.578 232.178 283.891 230.217 286.737 230.593Z" fill="#FFD5BA"/>
<path d="M293.66 232.291C294.12 232.662 294.527 233.087 294.832 233.607C296.213 235.932 295.645 238.94 294.347 241.176C292.972 243.543 289.965 243.579 287.556 243.22C288.77 241.6 288.793 239.221 288.453 237.284C288.088 235.221 286.988 233.152 288.417 231.233C287.664 232.25 285.182 230.056 283.867 230.881C285.78 229.201 288.022 228.095 290.21 229.96C291.239 230.839 292.584 231.425 293.648 232.291H293.66Z" fill="#0A203A"/>
<path d="M288.56 238.15C289.068 237.821 289.373 237.289 289.971 237.654C290.39 237.905 290.455 238.832 290.294 239.226C289.875 240.273 288.518 240.829 287.747 239.806" fill="#FFD5BA"/>
<path d="M285.212 234.594C284.662 234.737 284.5 235.706 285.248 235.413C285.636 235.257 285.75 234.749 285.296 234.6" fill="#231100"/>
<path d="M282.881 232.351C282.331 232.5 282.169 233.463 282.917 233.164C283.305 233.008 283.419 232.494 282.965 232.351" fill="#231100"/>
<path d="M289.625 238.712C289.26 238.826 288.937 239.041 288.668 239.316" stroke="#231100" stroke-width="0.358709" stroke-miterlimit="10" stroke-linecap="round"/>
<path d="M286.062 233.499C286.205 233.654 286.319 233.84 286.378 234.043" stroke="#231100" stroke-width="0.358709" stroke-miterlimit="10" stroke-linecap="round"/>
<path d="M283.95 231.316C284.046 231.316 284.172 231.37 284.25 231.466" stroke="#231100" stroke-width="0.358709" stroke-miterlimit="10" stroke-linecap="round"/>
<path d="M283.431 234.342C282.905 234.605 282.206 234.659 281.644 234.892C281.907 235.161 282.2 235.412 282.475 235.669" stroke="#231100" stroke-width="0.358709" stroke-miterlimit="10" stroke-linecap="round"/>
<path d="M288.53 231.029C286.174 231.884 286.957 236.769 288.733 237.761Z" fill="#0A203A"/>
<path d="M280.914 236.082C281.063 236.805 282.283 237.379 282.934 237.553C282.295 239.902 279.389 238.76 281.099 236.656" stroke="#231100" stroke-width="0.358709" stroke-miterlimit="10" stroke-linecap="round"/>
<path d="M280.866 237.721C281.255 237.846 281.643 237.936 282.044 237.996" stroke="#231100" stroke-width="0.358709" stroke-miterlimit="10" stroke-linecap="round"/>
<path d="M261.017 270.134C260.025 270.774 258.357 271.073 257.352 270.188C257.436 270.015 257.562 269.901 257.651 269.734C256.97 269.058 255.338 269.184 255.427 268.12C255.541 266.78 257.556 267.079 258.279 266.822C259.947 266.236 262.297 264.825 263.923 266.565C263.451 267.683 262.578 268.55 261.812 269.489" fill="#FFD5BA"/>
<path d="M260.873 270.707C260.873 270.665 260.484 265.59 260.484 265.59C260.376 264.161 273.912 262.331 275.149 261.447C277.296 259.91 277.846 256.263 279.286 254.009C282.288 249.322 285.199 250.805 289.641 252.975C289.551 252.933 284.906 264.579 284.422 265.691C282.306 270.522 275.556 271.682 270.671 271.431C269.553 271.371 260.873 270.671 260.873 270.701V270.707Z" fill="#A7DCEA"/>
<path d="M289.265 259.737C288.303 262.553 286.748 266.487 284.931 268.819C283.652 270.457 281.445 270.295 279.61 270.594C277.129 271.007 274.606 271.3 272.077 271.24" stroke="#D9F5FC" stroke-width="0.597849" stroke-miterlimit="10"/>
<path d="M273.123 261.98C274.319 261.854 275.586 261.627 276.722 261.227C278.145 260.718 277.517 260.838 278.229 259.899C279.532 258.184 280.722 255.93 282.39 254.507" stroke="#D9F5FC" stroke-width="0.597849" stroke-miterlimit="10"/>
<path d="M277.457 261.232C278.157 261.872 278.784 262.488 279.251 263.325" stroke="#D9F5FC" stroke-width="0.597849" stroke-miterlimit="10"/>
<path d="M278.056 245.39C276.238 246.484 276.041 250.005 275.365 251.817" stroke="#D9F5FC" stroke-width="0.597849" stroke-miterlimit="10"/>
<path d="M232.406 295.458C232.406 295.686 231.01 331.085 231.01 331.085C231.01 331.085 232.396 331.844 234.245 331.163L232.98 295.399L232.406 295.463V295.458Z" fill="#6FA537"/>
<path d="M232.688 295.628C232.756 295.589 232.848 295.283 232.877 295.22C234.405 292.019 236.399 288.565 239.274 286.016C240.767 284.693 242.665 283.633 244.596 283.876C247.466 284.236 249.188 286.585 249.256 289.11C249.363 293.22 245 294.991 241.123 295.531C239.191 295.804 237.265 295.857 235.378 295.799C234.735 295.779 234.093 295.745 233.456 295.697C233.334 295.687 232.809 295.56 232.692 295.628H232.688Z" fill="#6FA537"/>
<path d="M232.897 295.62C232.824 295.585 232.702 295.289 232.668 295.23C230.849 292.185 228.543 288.931 225.445 286.664C223.839 285.487 221.85 284.606 219.948 285.025C217.121 285.647 215.628 288.148 215.798 290.672C216.071 294.773 220.585 296.13 224.496 296.31C226.447 296.398 228.368 296.276 230.241 296.043C230.883 295.965 231.515 295.872 232.143 295.761C232.26 295.741 232.775 295.566 232.897 295.62Z" fill="#6FA537"/>
<path d="M216.343 288.006L232.902 295.619" stroke="#96DD90" stroke-width="0.447535" stroke-miterlimit="10"/>
<path d="M232.688 295.629L248.079 285.982" stroke="#96DD90" stroke-width="0.447535" stroke-miterlimit="10"/>
<path d="M209.176 310.549C209.176 310.777 207.78 331.091 207.78 331.091C207.78 331.091 209.167 331.85 211.015 331.169L209.75 310.485L209.176 310.549Z" fill="#91C163"/>
<path d="M209.453 310.718C209.521 310.679 209.614 310.373 209.643 310.31C211.17 307.104 213.165 303.655 216.04 301.106C217.533 299.783 219.43 298.722 221.361 298.966C224.231 299.326 225.954 301.675 226.022 304.2C226.129 308.31 221.765 310.081 217.888 310.621C215.957 310.893 214.031 310.947 212.143 310.888C211.501 310.869 210.859 310.835 210.222 310.786C210.1 310.777 209.575 310.65 209.458 310.718H209.453Z" fill="#91C163"/>
<path d="M209.663 310.709C209.59 310.675 209.468 310.379 209.434 310.32C207.615 307.275 205.309 304.021 202.21 301.754C200.605 300.577 198.615 299.696 196.713 300.114C193.887 300.732 192.394 303.233 192.564 305.757C192.836 309.858 197.351 311.215 201.262 311.395C203.212 311.483 205.134 311.361 207.007 311.128C207.649 311.05 208.281 310.957 208.909 310.846C209.025 310.826 209.541 310.651 209.663 310.705V310.709Z" fill="#91C163"/>
<path d="M193.108 303.096L209.667 310.709" stroke="#96DD90" stroke-width="0.447535" stroke-miterlimit="10"/>
<path d="M209.454 310.719L224.845 301.072" stroke="#96DD90" stroke-width="0.447535" stroke-miterlimit="10"/>
</g>
<defs>
<clipPath id="clip0_425_5340">
<rect width="455" height="313.884" fill="white" transform="translate(0 16.1162)"/>
</clipPath>
</defs>
</svg>
