<svg width="345" height="278" viewBox="0 0 345 278" fill="none" xmlns="http://www.w3.org/2000/svg">
<g clip-path="url(#clip0_157_3821)">
<path d="M196.35 271.086C190.785 271.545 179.996 270.563 181.075 262.943C181.832 257.6 190.022 249.197 195.533 249.494C198.682 249.663 201.388 253.242 204.543 254.136C208.718 255.316 207.519 254.513 210.504 252.381C213.263 250.412 213.377 249.558 217.275 250.04C222.293 250.665 225.495 252.621 230.68 251.046C235.305 249.639 238.354 246.995 243.465 247.747C248.23 248.448 251.779 250.759 256.757 249.558C261.232 248.479 264.671 245.47 269.492 245.831C272.464 246.053 275.447 248.307 278.409 247.126C282.161 245.632 282.487 239.698 287.462 240.012C291.281 240.251 292.754 244.39 294.639 247.126C297.695 251.558 297.375 248.283 301.077 249.929C304.136 251.292 307.141 263.375 306.995 266.492C306.688 272.934 300.247 270.917 295.186 272" fill="#F9B785"/>
<path d="M121.58 270.924C124.94 270.509 134.626 270.7 136.472 266.931C137.712 264.403 135.394 262.278 133.506 261.175C130.43 259.383 127.508 258.747 124.818 256.211C122.62 254.138 120.822 251.113 117.903 249.934C115.337 248.897 115.858 249.841 113.924 250.372C112.188 250.846 112.418 251.384 110.19 251.23C108.082 251.083 106.662 249.45 104.253 250.949C100.59 253.228 103.852 258.874 97.9711 258.546C95.7459 258.424 93.2444 257.011 91.0314 257.427C88.4418 257.913 87.6422 260.49 85.2361 261.288C79.8638 263.07 78.0885 267.027 74 270.521" fill="#F9B785"/>
<path d="M31.5826 271.919C27.4576 271.408 15.5657 271.643 13.299 267.016C11.7769 263.912 14.623 261.303 16.9408 259.949C20.7176 257.748 24.3052 256.968 27.6077 253.854C30.3067 251.308 32.5133 247.595 36.098 246.148C39.2473 244.875 38.6078 246.034 40.9826 246.685C43.1142 247.267 42.832 247.928 45.567 247.739C48.1549 247.559 49.8992 245.553 52.8564 247.394C57.3538 250.192 53.3488 257.124 60.5691 256.721C63.3012 256.571 66.3725 254.836 69.0895 255.346C72.2688 255.944 73.2506 259.108 76.2048 260.087C82.8007 262.276 84.9803 267.133 90 271.423" fill="#F9B785"/>
<path d="M224.43 271.19C231.712 266.674 240.564 265.291 246.617 258.755C254.469 250.276 259.159 238.025 272.53 240.764C280.426 242.381 280.392 248.543 285.762 252.846C290.525 256.662 293.108 251.186 297.814 249.866C301.343 248.873 303.12 250.29 305.943 252.659C309.485 255.629 311.795 257.195 316.135 258.732C323.457 261.325 325.877 267.081 331.449 272.16" fill="#DB9F6E"/>
<path d="M169.295 270.186C163.952 267.08 157.457 266.129 153.017 261.637C147.256 255.808 143.815 247.386 134.002 249.269C128.209 250.381 128.234 254.617 124.294 257.573C120.8 260.197 118.907 256.434 115.452 255.524C112.863 254.842 111.559 255.815 109.488 257.443C106.889 259.485 105.194 260.561 102.01 261.617C96.6382 263.4 94.8629 267.357 90.7744 270.851" fill="#DB9F6E"/>
<path d="M-27.0003 271.011C-20.4404 267.198 -12.4665 266.03 -7.01445 260.515C0.058801 253.358 4.28294 243.018 16.3309 245.33C23.4432 246.696 23.4131 251.896 28.2497 255.526C32.5399 258.747 34.8637 254.127 39.1058 253.01C42.2852 252.172 43.8853 253.367 46.4282 255.367C49.6196 257.873 51.7002 259.194 55.6091 260.491C62.205 262.68 64.3846 267.538 69.4043 271.828" fill="#DB9F6E"/>
<path d="M156.857 106.963C156.857 107.549 153.266 159.924 153.266 159.924C153.266 159.924 156.839 161.876 161.607 160.118L158.343 106.799L156.857 106.961V106.963Z" fill="#8DCC4A"/>
<path d="M157.584 107.396L157.571 107.402C157.571 107.402 157.574 107.396 157.574 107.394H157.565C157.565 107.394 157.576 107.387 157.578 107.387C157.757 107.286 157.994 106.494 158.073 106.33C162.006 98.0715 167.15 89.1759 174.56 82.6089C178.405 79.203 183.298 76.4662 188.278 77.0888C195.68 78.0145 200.115 84.0682 200.287 90.5848C200.566 101.174 189.311 105.744 179.316 107.141C174.336 107.838 169.372 107.978 164.506 107.834C162.845 107.784 161.194 107.699 159.552 107.571C159.243 107.547 157.885 107.222 157.582 107.396H157.584Z" fill="#8DCC4A"/>
<path d="M158.117 107.371L158.129 107.377C158.129 107.377 158.125 107.371 158.125 107.369H158.131L158.119 107.363C157.931 107.278 157.622 106.512 157.529 106.357C152.843 98.5 146.895 90.1218 138.907 84.2703C134.763 81.2364 129.637 78.9665 124.736 80.0499C117.451 81.6588 113.599 88.0986 114.033 94.603C114.741 105.174 126.371 108.675 136.453 109.138C141.476 109.368 146.432 109.047 151.263 108.451C152.912 108.246 154.549 108.01 156.17 107.729C156.476 107.676 157.797 107.226 158.115 107.371H158.117Z" fill="#8DCC4A"/>
<path d="M115.446 87.7432L158.129 107.376" stroke="#B8E880" stroke-width="0.808504" stroke-miterlimit="10"/>
<path d="M157.583 107.396L197.257 82.53" stroke="#B8E880" stroke-width="0.808504" stroke-miterlimit="10"/>
<path d="M128.742 144.658C129.259 144.963 130.804 145.535 130.761 146.275C130.715 147.083 129.096 146.428 128.633 146.295C128.174 146.161 127.22 146.032 127.113 145.535C127.004 145.025 127.656 144.498 127.832 144.069C128.247 144.213 129.104 144.694 129.366 144.579" fill="#603C15"/>
<path d="M194.591 272.991H128.594L118.89 170.12H204.296L194.591 272.991Z" fill="#EEEEEE"/>
<path d="M212.186 160H111V176.864H212.186V160Z" fill="#E7E7E7"/>
<path d="M241.302 206.017C240.796 206.602 200.376 251.483 241.302 257.507C282.229 251.475 241.809 206.602 241.302 206.017Z" fill="#1E871B"/>
<path d="M241.294 279.324V229.562" stroke="#604B3B" stroke-width="3.492" stroke-linecap="round" stroke-linejoin="round"/>
<path d="M241.835 245.276L248.382 238.729" stroke="#604B3B" stroke-width="3.492" stroke-linecap="round" stroke-linejoin="round"/>
<path d="M232.668 245.276L240.525 250.514" stroke="#604B3B" stroke-width="3.492" stroke-linecap="round" stroke-linejoin="round"/>
<path d="M301.697 206.89C301.191 207.474 260.771 252.355 301.697 258.379C342.623 252.347 302.203 207.474 301.697 206.89Z" fill="#6FA537"/>
<path d="M301.688 280.196V230.435" stroke="#604B3B" stroke-width="3.492" stroke-linecap="round" stroke-linejoin="round"/>
<path d="M302.229 246.148L308.777 239.601" stroke="#604B3B" stroke-width="3.492" stroke-linecap="round" stroke-linejoin="round"/>
<path d="M293.062 246.148L300.92 251.386" stroke="#604B3B" stroke-width="3.492" stroke-linecap="round" stroke-linejoin="round"/>
<path d="M176.22 251.809C176.22 251.982 175.161 278.823 175.161 278.823C175.161 278.823 176.212 279.399 177.614 278.882L176.655 251.765L176.22 251.813V251.809Z" fill="#6FA537"/>
<path d="M176.434 251.938C176.485 251.908 176.555 251.676 176.577 251.628C177.736 249.201 179.248 246.582 181.428 244.649C182.56 243.646 183.999 242.842 185.463 243.026C187.639 243.299 188.945 245.081 188.996 246.995C189.078 250.112 185.769 251.455 182.829 251.864C181.365 252.071 179.904 252.111 178.473 252.067C177.986 252.052 177.5 252.026 177.016 251.989C176.924 251.982 176.526 251.886 176.437 251.938H176.434Z" fill="#6FA537"/>
<path d="M176.592 251.931C176.537 251.905 176.445 251.68 176.419 251.636C175.039 249.327 173.291 246.859 170.941 245.141C169.724 244.248 168.216 243.58 166.773 243.898C164.63 244.37 163.498 246.266 163.627 248.18C163.834 251.289 167.257 252.318 170.222 252.455C171.701 252.521 173.158 252.429 174.578 252.252C175.065 252.193 175.545 252.123 176.02 252.038C176.109 252.023 176.5 251.89 176.592 251.931Z" fill="#6FA537"/>
<path d="M164.04 246.158L176.596 251.931" stroke="#96DD90" stroke-width="0.339339" stroke-miterlimit="10"/>
<path d="M176.434 251.938L188.104 244.624" stroke="#96DD90" stroke-width="0.339339" stroke-miterlimit="10"/>
<path d="M158.606 263.251C158.606 263.424 157.548 278.827 157.548 278.827C157.548 278.827 158.599 279.403 160.001 278.887L159.042 263.203L158.606 263.251Z" fill="#91C163"/>
<path d="M158.816 263.379C158.868 263.35 158.938 263.117 158.96 263.069C160.118 260.639 161.631 258.024 163.811 256.091C164.943 255.088 166.381 254.283 167.846 254.468C170.022 254.741 171.328 256.522 171.379 258.437C171.46 261.553 168.152 262.896 165.212 263.305C163.748 263.512 162.287 263.553 160.856 263.508C160.369 263.494 159.882 263.468 159.399 263.431C159.307 263.424 158.909 263.328 158.82 263.379H158.816Z" fill="#91C163"/>
<path d="M158.975 263.372C158.92 263.347 158.827 263.122 158.802 263.077C157.422 260.768 155.674 258.301 153.324 256.582C152.107 255.689 150.598 255.022 149.156 255.339C147.013 255.807 145.881 257.703 146.01 259.618C146.216 262.727 149.639 263.756 152.605 263.892C154.084 263.959 155.541 263.867 156.961 263.69C157.448 263.631 157.927 263.561 158.403 263.476C158.492 263.461 158.883 263.328 158.975 263.369V263.372Z" fill="#91C163"/>
<path d="M146.423 257.6L158.979 263.372" stroke="#96DD90" stroke-width="0.339339" stroke-miterlimit="10"/>
<path d="M158.816 263.38L170.487 256.065" stroke="#96DD90" stroke-width="0.339339" stroke-miterlimit="10"/>
<path d="M133 163C133 164.176 109.086 269.612 109.086 269.612" stroke="#7F7F7F" stroke-width="1.4738" stroke-linecap="round" stroke-linejoin="round"/>
<path d="M111.442 163C111.442 164.176 84 269.612 84 269.612" stroke="#7F7F7F" stroke-width="1.4738" stroke-linecap="round" stroke-linejoin="round"/>
<path d="M123.683 201.217H102.03" stroke="#7F7F7F" stroke-width="1.4738" stroke-linecap="round" stroke-linejoin="round"/>
<path d="M126.595 188.937H104.645" stroke="#7F7F7F" stroke-width="1.4738" stroke-linecap="round" stroke-linejoin="round"/>
<path d="M129.21 176.652H108.435" stroke="#7F7F7F" stroke-width="1.4738" stroke-linecap="round" stroke-linejoin="round"/>
<path d="M120.586 213.76H98.5967" stroke="#7F7F7F" stroke-width="1.4738" stroke-linecap="round" stroke-linejoin="round"/>
<path d="M118.364 226.157L95.4531 226.428" stroke="#7F7F7F" stroke-width="1.4738" stroke-linecap="round" stroke-linejoin="round"/>
<path d="M114.965 238.846H92.3252" stroke="#7F7F7F" stroke-width="1.4738" stroke-linecap="round" stroke-linejoin="round"/>
<path d="M112.707 251.389H89.2285" stroke="#7F7F7F" stroke-width="1.4738" stroke-linecap="round" stroke-linejoin="round"/>
<path d="M145.393 271.027L145.242 271.105L143.058 272.221L145.315 276.642C145.315 276.642 146.337 278.305 148.746 277.945L148.767 277.987C148.767 277.987 148.803 277.951 148.819 277.93C148.845 277.93 148.871 277.924 148.897 277.919L148.876 277.878C150.581 276.141 149.835 274.337 149.835 274.337L147.583 269.911L145.399 271.027H145.393Z" fill="#424242"/>
<path d="M146.468 272.399C146.541 272.539 146.452 272.732 146.275 272.826C146.092 272.92 145.889 272.878 145.811 272.738L142.38 266.012C142.307 265.866 142.396 265.678 142.578 265.585C142.761 265.491 142.964 265.532 143.037 265.673L146.462 272.399H146.468Z" fill="#898989"/>
<path d="M141.777 261.404L139.585 262.521L141.986 267.231L144.178 266.114L141.777 261.404Z" fill="#663914"/>
<path d="M137.746 265.574C138.455 266.361 139.826 267.002 140.9 266.471C140.868 266.299 140.785 266.179 140.743 266.007C141.489 265.584 142.87 266.069 143.043 265.126C143.256 263.942 141.447 263.734 140.879 263.343C139.57 262.446 137.865 260.684 136.062 261.81C136.213 262.884 136.76 263.838 137.209 264.823" fill="#FFD5BA"/>
<path d="M120.691 235.2C123.835 235.92 125.165 238.412 126.948 240.748C129.179 243.657 131.212 246.707 132.698 250.069C134.44 254.032 137.38 257.687 140.195 260.888C139.763 261.237 135.905 264.939 136.019 265.1C133.46 261.644 129.69 258.906 126.906 255.549C124.716 252.911 123.069 249.84 120.817 247.249" fill="#5D66B5"/>
<path d="M100.754 273.412C100.509 273.516 100.28 273.651 100.097 273.87C99.5864 274.47 99.3935 275.471 98.9295 276.138C98.1318 277.291 97.0161 278.271 96.2967 276.441C95.6762 274.866 96.4374 272.65 96.5417 271.05C96.6407 269.6 96.5417 267.301 98.0432 266.483C99.2371 265.836 101.343 266.29 101.99 267.536C102.391 268.318 102.72 271.988 102.198 272.676C101.87 273.109 101.281 273.182 100.754 273.412Z" fill="#3F3F3F"/>
<path d="M99.6963 275.116C99.4513 275.221 99.2219 275.356 99.0394 275.575C98.5285 276.175 98.3356 277.176 97.8716 277.843C97.0739 278.995 95.9582 279.975 95.2387 278.145C94.6235 276.571 95.3795 274.36 95.4837 272.76C95.5828 271.31 95.4837 269.006 96.9853 268.193C98.1792 267.546 100.285 268 100.932 269.246C101.333 270.028 101.662 273.698 101.141 274.386C100.812 274.819 100.223 274.897 99.6963 275.122V275.116Z" fill="#3F3F3F"/>
<path d="M116.219 261.274C119.102 262.129 121.63 264.272 124.159 265.763C126.156 266.942 128.486 269.366 128.648 271.874C128.809 274.35 127.047 276.363 124.67 276.503C120.749 276.743 116.599 276.055 112.668 275.857C108.497 275.643 104.326 275.487 100.15 275.455C99.9104 272.911 99.4359 269.898 99.9364 267.411C100.249 267.473 104.066 267.583 104.04 267.546C102.46 265.383 103.164 261.389 105.176 259.721C107.892 257.468 113.179 258.23 116.318 258.808" fill="#424099"/>
<path d="M103.747 260.518C103.778 260.523 122.464 263.834 122.464 263.834C123.116 256.754 125.613 243.052 121.343 237.083C114.847 228.001 109.362 238.709 107.256 245.503C106.912 246.618 102.683 260.33 103.742 260.523L103.747 260.518Z" fill="#5D66B5"/>
<path d="M126.14 224.58C125.864 224.319 125.556 224.079 125.264 223.85C122.939 221.963 120.462 223.438 118.872 225.482C117.949 226.66 117.798 228.485 118.116 229.903C118.45 231.41 119.336 232.442 120.666 233.12C122.37 233.985 124.326 233.068 125.546 231.801C126.317 230.998 126.656 229.621 126.739 228.532C126.792 227.844 126.661 227.155 126.797 226.478C126.969 225.628 126.823 225.237 126.14 224.59V224.58Z" fill="#FFD5BA"/>
<path d="M121.828 233.485C121.974 234.961 120.895 236.275 119.414 236.421C117.939 236.567 116.625 235.487 116.479 234.007L116.088 230.008C115.942 228.533 117.027 227.219 118.502 227.073C119.978 226.927 121.291 228.011 121.437 229.487L121.828 233.485Z" fill="#FFD5BA"/>
<path d="M125.733 228.667C125.67 228.818 125.602 228.969 125.54 229.121" stroke="black" stroke-width="0.495292" stroke-linecap="round" stroke-linejoin="round"/>
<path d="M122.589 227.531C122.527 227.682 122.459 227.834 122.396 227.985" stroke="black" stroke-width="0.495292" stroke-linecap="round" stroke-linejoin="round"/>
<path d="M124.054 228.714C124.316 229.021 124.226 229.627 123.747 229.572" stroke="#A75454" stroke-width="0.429269" stroke-linecap="round" stroke-linejoin="round"/>
<path d="M119.258 225.216C119.351 225.414 119.404 225.669 119.409 225.909" stroke="black" stroke-width="0.495292" stroke-linecap="round" stroke-linejoin="round"/>
<path d="M126.603 227.562C126.463 227.406 126.254 227.317 126.035 227.323" stroke="black" stroke-width="0.495292" stroke-linecap="round" stroke-linejoin="round"/>
<path d="M122.673 225.898C122.996 226.003 123.319 225.914 123.554 226.196" stroke="black" stroke-width="0.495292" stroke-linecap="round" stroke-linejoin="round"/>
<path d="M124.138 230.984C123.888 231.335 123.554 232.113 123.031 232.099C122.386 232.082 122.724 231.256 122.807 230.821" stroke="#FF8B8B" stroke-width="0.417269" stroke-linecap="round" stroke-linejoin="round"/>
<path d="M122.058 220.222C120.102 219.799 118.033 219.966 116.729 220.847C114.122 222.604 114.42 226.598 115.905 228.965C116.078 229.241 116.26 229.523 116.515 229.721C116.985 228.245 118.601 226.885 119.988 226.217C121.588 225.446 122.407 226.003 123.105 224.273C123.788 224.836 124.451 225.482 125.102 226.04C125.066 225.753 125.16 225.456 125.097 225.138C125.733 225.581 126.406 225.998 127.037 226.441C128.548 223.183 124.826 220.816 122.058 220.222Z" fill="#925F21"/>
<path d="M119.148 227.135C119.592 226.076 117.986 225.346 117.365 226.217C116.917 226.848 116.881 228.667 118.069 228.318" fill="#FFD5BA"/>
<path d="M103.836 267.623C109.227 269.406 115.066 269.552 120.546 270.955" stroke="#DBDBDB" stroke-width="0.495292" stroke-miterlimit="10"/>
<path d="M149.496 117.067C146.407 114.581 142.098 116.898 144.654 120.748" stroke="#FFE609" stroke-width="1.17615" stroke-linecap="round" stroke-linejoin="round"/>
<path d="M142.588 121.936L146.877 128.142L155.353 122.492L151.064 116.282L142.588 121.936Z" fill="#FFE609"/>
<path d="M153.377 122.849L160.614 126.099L162.065 125.193L161.516 129.588L160.218 127.781L149.903 125.087" fill="#FFE609"/>
<path d="M126.611 159.8C127.737 160.102 130.92 160.369 131.226 161.772C131.559 163.309 128.195 162.925 127.258 162.917C126.333 162.909 124.479 163.16 124.02 162.29C123.549 161.396 124.498 160.067 124.604 159.177C125.455 159.232 127.305 159.683 127.737 159.33" fill="#603C15"/>
<path d="M130.116 134.281C131.794 134.175 131.884 145.192 131.821 146.458C131.759 147.732 128.575 159.886 128.183 159.874L124.271 159.756L125.647 147.466C125.647 147.466 126.788 142.996 120.762 134.881C120.762 134.881 130.096 134.281 130.116 134.281Z" fill="#CAEAFF"/>
<path d="M113.184 159.749C114.187 160.341 117.183 161.451 117.1 162.886C117.01 164.454 113.87 163.184 112.972 162.925C112.082 162.666 110.232 162.415 110.024 161.451C109.812 160.463 111.078 159.44 111.419 158.608C112.223 158.887 113.885 159.82 114.395 159.596" fill="#603C15"/>
<path d="M123.397 136.1C125.04 136.449 122.178 147.085 121.778 148.289C121.374 149.5 115.05 160.356 114.678 160.238L110.941 159.078L115.56 147.603C115.56 147.603 117.857 143.604 114.227 134.171C114.227 134.171 123.377 136.096 123.401 136.1H123.397Z" fill="#CAEAFF"/>
<path d="M132.249 135.203L113.003 135.904C113.344 129.875 114.038 123.77 115.343 117.87C115.943 115.153 116.665 110.327 119.001 108.43C126.188 102.592 130.375 115.42 131.265 120.011C131.504 121.25 132.845 135.179 132.249 135.203Z" fill="#965FC1"/>
<path d="M126.172 99.1103C125.976 98.9025 125.745 98.7064 125.475 98.53C123.448 97.197 121.731 98.4594 120.558 100.326C119.743 101.619 119.935 104.348 121.291 105.356C122.832 106.496 125.624 106.081 126.463 104.246C127.302 102.411 127.451 100.455 126.169 99.1063L126.172 99.1103Z" fill="#FFD5BA"/>
<path d="M124.169 106.865C124.201 106.39 124.22 105.912 124.173 105.481C124.059 104.442 123.22 103.725 122.836 102.799C122.664 102.388 122.73 101.725 122.48 101.372C121.837 100.459 120.288 100.772 119.747 101.533C118.833 102.815 119.5 104.313 119.747 105.673C119.974 106.916 120.131 107.818 121.401 108.355C121.986 108.602 122.962 108.907 123.593 108.743C124.679 108.457 124.107 107.81 124.165 106.865H124.169Z" fill="#FFD5BA"/>
<path d="M122.656 96.1265C122.287 96.0284 121.911 95.9736 121.519 96.0128C120.382 96.1147 119.484 97.236 118.861 98.0985C118.026 99.2511 117.301 100.392 116.983 101.686C116.579 103.336 117.179 104.928 116.011 106.43C117.014 106.579 120.119 106.567 120.825 105.681C121.935 104.289 119.888 102.901 120.794 101.498C121.813 99.9097 124.506 100.67 125.196 98.4709C124.953 99.2511 127.043 99.7176 127.11 100.717C127.263 99.0786 126.992 97.4829 125.181 97.0438C124.334 96.84 123.515 96.3578 122.656 96.1265Z" fill="#925F21"/>
<path d="M121.527 101.023C121.508 100.631 121.672 100.271 121.253 100.094C120.963 99.9727 120.453 100.29 120.304 100.522C119.916 101.137 120.139 102.058 120.967 102.078" fill="#FFD5BA"/>
<path d="M125.2 144.572C125.094 141.636 124.028 138.535 122.746 135.951" stroke="#8EC3EF" stroke-width="0.368528" stroke-linecap="round" stroke-linejoin="round"/>
<path d="M142.977 117.776C143.741 118.125 144.945 118.152 145.556 117.431C145.478 117.317 145.376 117.254 145.298 117.141C145.709 116.596 146.866 116.509 146.689 115.772C146.47 114.843 145.086 115.267 144.549 115.165C143.314 114.925 141.514 114.185 140.558 115.576C141.008 116.313 141.71 116.831 142.349 117.403" fill="#FFD5BA"/>
<path d="M142.937 118.246L142.67 114.612C142.67 114.612 129.121 113.228 124.589 107.813L117.881 115.09C117.881 115.09 130.16 119.806 142.937 118.246Z" fill="#965FC1"/>
<path d="M126.059 101.844V102.236" stroke="black" stroke-width="0.392051" stroke-linecap="round" stroke-linejoin="round"/>
<path d="M123.412 101.989V102.381" stroke="black" stroke-width="0.392051" stroke-linecap="round" stroke-linejoin="round"/>
<path d="M124.882 102.381C125.215 102.546 125.352 103.09 124.929 103.212" stroke="black" stroke-width="0.392051" stroke-linecap="round" stroke-linejoin="round"/>
<path d="M124.541 104.866C124.043 105.074 123.486 104.486 123.298 104.016" stroke="black" stroke-width="0.392051" stroke-linecap="round" stroke-linejoin="round"/>
<path d="M120.75 100.781C120.879 100.899 120.997 101.067 121.075 101.24" stroke="black" stroke-width="0.392051" stroke-linecap="round" stroke-linejoin="round"/>
<path d="M126.353 100.766C126.204 100.695 126.023 100.695 125.862 100.766" stroke="black" stroke-width="0.392051" stroke-linecap="round" stroke-linejoin="round"/>
<path d="M123.741 100.538C123.538 100.518 123.334 100.538 123.153 100.636" stroke="black" stroke-width="0.392051" stroke-linecap="round" stroke-linejoin="round"/>
<mask id="mask0_157_3821" style="mask-type:luminance" maskUnits="userSpaceOnUse" x="139" y="82" width="86" height="78">
<path d="M224.389 82H139V160H224.389V82Z" fill="white"/>
</mask>
<g mask="url(#mask0_157_3821)">
<path d="M164.962 155.047L164.723 154.94L161.213 153.401L158.098 160.507C158.098 160.507 157.096 163.385 159.916 165.942L159.887 166.012C159.929 166.016 159.97 166.02 160.007 166.024C160.039 166.053 160.064 166.078 160.097 166.106L160.126 166.037C163.915 166.381 165.356 163.692 165.356 163.692L168.472 156.59L164.962 155.051V155.047Z" fill="#898989"/>
<path d="M163.574 159.193C163.496 159.378 163.23 159.436 162.979 159.329C162.729 159.218 162.593 158.984 162.675 158.799L172.922 135.572C173.004 135.391 173.271 135.33 173.517 135.436L173.337 135.391C173.587 135.502 173.903 135.781 173.821 135.966L163.574 159.193Z" fill="#B7B7B7"/>
<path d="M172.885 136.98C172.7 136.902 172.569 136.733 172.54 136.532L171.604 129.746C171.576 129.545 171.658 129.348 171.818 129.221C171.978 129.098 172.191 129.065 172.38 129.143L178.727 131.725C178.912 131.803 179.043 131.971 179.072 132.172C179.101 132.374 179.018 132.575 178.858 132.698L173.452 136.902C173.292 137.025 173.078 137.054 172.889 136.98H172.885ZM172.856 130.563L173.526 135.407L177.385 132.406L172.856 130.563Z" fill="#663914"/>
<path d="M203.629 160.963C202.537 161.509 199.331 162.461 199.319 163.968C199.302 165.614 202.673 164.506 203.629 164.296C204.577 164.091 206.531 163.956 206.815 162.966C207.106 161.948 205.854 160.79 205.554 159.9C204.692 160.134 202.894 160.992 202.373 160.725" fill="#603C15"/>
<path d="M190.061 135.384C188.304 135.273 188.209 146.809 188.275 148.135C188.341 149.469 191.674 162.195 192.085 162.183L196.182 162.06L194.741 149.19C194.741 149.19 193.546 144.51 199.856 136.012C199.856 136.012 190.081 135.384 190.061 135.384Z" fill="#2E5972"/>
<path d="M204.265 141.989C204.889 140.063 205.936 137.719 207.668 134.952C207.668 134.952 197.877 135.1 197.853 135.1C196.096 135.129 196.909 146.636 197.081 147.954C197.253 149.28 201.584 161.702 201.991 161.657L206.063 161.209C206.063 161.209 203.612 148.512 203.608 148.491C203.186 146.291 203.452 143.811 204.491 141.849C205.78 139.411 208.514 136.389 207.377 133.331C206.166 130.075 198.957 130.744 196.519 131.52" fill="#2E5972"/>
<path d="M188.32 138.604L207.701 133.033C205.398 127.142 202.718 121.296 199.499 115.849C198.017 113.34 195.726 108.775 192.783 107.646C183.731 104.178 183.743 118.308 184.351 123.164C184.515 124.474 187.721 138.777 188.316 138.604H188.32Z" fill="#F4933B"/>
<path d="M183.973 99.4642C184.17 99.2384 184.404 99.0249 184.679 98.8279C186.744 97.35 188.591 98.598 189.897 100.503C190.804 101.821 190.718 104.686 189.339 105.799C188.394 106.558 187.22 106.599 186.083 106.382C185.221 106.217 184.642 106.045 184.006 105.376C183.476 104.822 183.242 104.099 183.099 103.36C182.832 101.989 183.029 100.54 183.973 99.4642Z" fill="#FFD5BA"/>
<path d="M187.528 96.2003C189.601 95.5558 191.457 97.2143 192.122 99.0617C192.717 100.72 191.765 103.405 190.238 104.312C189.987 103.442 189.741 102.535 189.413 101.714C189.203 101.192 188.924 100.691 188.477 100.334C188.107 100.035 187.253 99.8499 187.183 99.2916C187.077 99.7801 186.699 100.223 186.215 100.4C186.153 99.9895 186.469 99.6323 186.518 99.2382C186.194 99.8294 185.295 100.359 184.671 100.589C184.745 100.256 185.057 99.8909 185.016 99.542C184.967 99.5954 184.909 99.6487 184.848 99.7021C184.256 100.232 183.263 100.749 182.512 100.65C183.049 99.2218 183.185 97.7521 184.913 97.2636C185.792 97.0132 186.629 96.4754 187.516 96.2003H187.528Z" fill="#563C31"/>
<path d="M189.01 101.672C189.015 101.262 188.83 100.888 189.261 100.687C189.561 100.547 190.107 100.859 190.271 101.093C190.702 101.722 190.509 102.694 189.643 102.748" fill="#FFD5BA"/>
<path d="M190.611 106.793C190.853 107.799 190.233 108.809 189.227 109.051C188.222 109.293 187.212 108.673 186.97 107.667L186.502 105.721C186.259 104.716 186.879 103.706 187.885 103.464C188.891 103.221 189.901 103.841 190.143 104.847L190.611 106.793Z" fill="#FFD5BA"/>
<path d="M184.1 102.101C184.133 102.232 184.166 102.367 184.195 102.499" stroke="black" stroke-width="0.410526" stroke-linecap="round" stroke-linejoin="round"/>
<path d="M186.83 101.604C186.863 101.735 186.896 101.87 186.924 102.002" stroke="black" stroke-width="0.410526" stroke-linecap="round" stroke-linejoin="round"/>
<path d="M185.43 102.364C185.13 102.615 185.122 103.202 185.582 103.226" stroke="black" stroke-width="0.410526" stroke-linecap="round" stroke-linejoin="round"/>
<path d="M186.387 104.807C186.945 104.897 187.368 104.158 187.442 103.637" stroke="black" stroke-width="0.410526" stroke-linecap="round" stroke-linejoin="round"/>
<path d="M189.655 101.419C189.552 101.567 189.47 101.772 189.433 101.965" stroke="black" stroke-width="0.410526" stroke-linecap="round" stroke-linejoin="round"/>
<path d="M183.538 101.074C183.673 100.964 183.858 100.922 184.035 100.955" stroke="black" stroke-width="0.410526" stroke-linecap="round" stroke-linejoin="round"/>
<path d="M177.713 131.304C177.253 131.973 176.272 132.601 175.405 132.31C175.414 132.179 175.463 132.076 175.475 131.941C174.863 131.694 173.862 132.203 173.64 131.505C173.357 130.627 174.712 130.286 175.106 129.929C176.009 129.112 177.125 127.597 178.612 128.27C178.612 129.104 178.287 129.884 178.045 130.68" fill="#FFD5BA"/>
<path d="M177.778 131.702C177.766 131.678 176.177 128.562 176.177 128.562C175.73 127.683 183.821 122.942 184.371 122.055C185.324 120.516 184.704 118.061 185.024 116.246C185.685 112.482 187.922 112.65 191.309 112.847C191.244 112.847 191.383 121.452 191.371 122.289C191.309 125.91 187.339 128.435 184.178 129.568C183.456 129.826 177.766 131.682 177.778 131.702Z" fill="#F4933B"/>
<path d="M185.389 129.036C188.267 128.56 193.23 126.635 193.805 123.646C194.38 120.649 194.019 117.87 194.01 114.873" stroke="#FFAD69" stroke-width="0.410526" stroke-linecap="round" stroke-linejoin="round"/>
<path d="M184.293 122.127C185.221 121.626 186.411 121.01 186.756 120.083C187.146 119.044 186.957 116.7 186.892 115.559" stroke="#FFAD69" stroke-width="0.410526" stroke-linecap="round" stroke-linejoin="round"/>
<path d="M186.075 120.896C186.888 121.195 187.836 121.47 188.538 121.992" stroke="#FFAD69" stroke-width="0.410526" stroke-linecap="round" stroke-linejoin="round"/>
</g>
<path d="M119.602 96.8568C118.032 97.6246 113.882 99.122 114.003 101.225C114.072 102.369 120.919 98.9733 121.39 98.7243C122.718 98.0223 127.4 97.3514 127.705 95.5253C128.064 93.3777 122.839 95.5876 121.566 95.9473" fill="#FFF1CA"/>
<path d="M117.693 98.0291C117.33 95.8365 117.057 93.5194 119.768 93.049C121.888 92.6824 123.206 94.4255 123.053 96.4728" fill="#FFF1CA"/>
<path d="M117.638 97.6241C119.277 97.2056 121.992 96.3687 123.285 95.3174" stroke="#663914" stroke-width="0.691671" stroke-linecap="round" stroke-linejoin="round"/>
<path d="M63.8027 222.579C64.7051 222.301 65.7351 221.43 65.7087 220.365C65.559 220.325 65.427 220.351 65.2773 220.316C65.2157 219.55 66.1225 218.617 65.427 218.128C64.551 217.512 63.7059 218.899 63.1776 219.211C61.9627 219.933 59.8983 220.651 60.136 222.53C61.0604 222.812 62.0376 222.724 63.0016 222.733" fill="#FFD5BA"/>
<path d="M49.6949 218.595C48.2423 217.323 46.7149 216.57 45.2975 217.714C41.622 220.681 43.2947 224.462 46.6268 226.549C47.3883 227.024 48.0706 227.539 48.973 227.667C50.2451 227.847 51.2091 229.111 52.4548 229.177C53.41 229.229 54.3256 228.807 55.1443 228.358C56.3768 227.676 57.6886 227.231 58.9079 226.588C60.2636 225.875 61.5842 225.101 62.9619 224.431C63.2349 224.299 63.5078 224.167 63.7807 224.035C63.7631 224.044 61.7999 219.598 61.4785 219.229C59.5109 220.012 57.5477 220.936 55.6681 221.804C55.5141 221.874 53.9118 222.768 53.9162 222.772C51.931 221.359 46.9482 213.792 43.9241 215.148" fill="#BA3E90"/>
<path d="M53.947 222.794C53.9161 223.339 53.9822 223.89 54.0966 224.427" stroke="#FF8FD4" stroke-width="0.440181" stroke-miterlimit="10"/>
<path d="M50.6767 244.05C52.5606 243.931 52.6619 256.3 52.5915 257.722C52.521 259.152 48.9468 272.798 48.5066 272.785L44.1136 272.653L45.6586 258.853C45.6586 258.853 46.9395 253.835 40.174 244.723C40.174 244.723 50.6547 244.05 50.6767 244.05Z" fill="#6FA3C1"/>
<path d="M48.3255 248.816C47.9381 251.422 46.6484 253.411 45.5435 255.727C43.9149 259.147 41.1241 260.468 37.8976 262.241C36.9028 262.787 35.9432 263.39 34.944 263.936C33.7159 264.605 32.3425 265.732 31.0572 266.207C30.3353 266.472 28.2444 263.025 27.8527 262.404C29.1116 261.599 30.529 260.952 31.6382 259.935C32.7519 258.914 33.8215 257.844 34.8779 256.766C35.8684 255.753 36.8456 254.732 37.8536 253.737C38.3422 253.257 38.9144 252.522 39.5659 252.258C38.2497 248.697 35.8067 245.955 33.98 242.675C37.9636 242.552 46.1202 238.714 47.9469 244.036C48.4795 245.589 48.5676 247.214 48.3255 248.825V248.816Z" fill="#6FA3C1"/>
<path d="M54.3918 245.083L32.7833 245.871C33.1663 239.101 33.9454 232.247 35.4112 225.623C36.0847 222.572 36.8946 217.154 39.5181 215.023C47.5866 208.469 52.2877 222.871 53.287 228.026C53.5555 229.417 55.0609 245.057 54.3918 245.083Z" fill="#F946AD"/>
<path d="M47.5688 204.56C47.3487 204.327 47.089 204.106 46.7853 203.908C44.5096 202.412 42.5816 203.829 41.2654 205.924C40.3499 207.377 40.5655 210.441 42.0886 211.572C43.8185 212.853 46.9526 212.386 47.8946 210.326C48.8365 208.266 49.0038 206.07 47.5644 204.555L47.5688 204.56Z" fill="#FFD5BA"/>
<path d="M45.3194 213.267C45.3546 212.734 45.3766 212.197 45.3238 211.713C45.1961 210.547 44.2541 209.741 43.8228 208.702C43.6291 208.24 43.7039 207.496 43.4222 207.1C42.7003 206.074 40.9616 206.427 40.3541 207.28C39.3285 208.72 40.0768 210.401 40.3541 211.929C40.6094 213.324 40.7855 214.337 42.2117 214.94C42.8676 215.217 43.9636 215.56 44.6723 215.375C45.8916 215.054 45.2489 214.328 45.315 213.267H45.3194Z" fill="#FFD5BA"/>
<path d="M43.6249 201.21C43.2111 201.1 42.7886 201.039 42.3484 201.083C41.0719 201.197 40.0638 202.456 39.364 203.42C37.7881 205.59 36.8813 207.254 34.4691 208.482C32.4487 209.512 30.6528 210.058 31.291 212.813C31.7048 214.605 34.3459 214.49 34.61 215.899C34.9886 217.911 31.5463 217.765 31.0049 219.412C30.261 221.67 34.72 224.417 36.4764 222.832C37.3655 222.031 37.075 220.503 37.9114 219.936C38.9326 219.244 39.989 220.803 40.7637 219.755C41.7321 218.452 40.394 216.823 40.7241 215.415C41.1951 213.425 41.9698 211.977 41.6661 209.811C41.4548 208.293 41.6925 207.051 43.1099 206.277C44.1223 205.726 46.6313 205.057 46.5653 203.521C47.2872 204.076 48.0179 204.564 48.1808 205.528C48.1588 205.41 48.6518 204.846 48.6958 204.639C48.7794 204.247 48.7134 203.913 48.4845 203.583C48.0487 202.953 47.1948 202.412 46.4597 202.236C45.5089 202.007 44.5889 201.466 43.6249 201.206V201.21Z" fill="#563C31"/>
<path d="M42.8506 207.042C42.9958 205.973 41.6401 205.097 40.9754 206.144C40.5396 206.835 40.7905 207.87 41.7193 207.892" fill="#FFD5BA"/>
<path d="M45.1562 255.604C45.0374 252.307 43.8401 248.825 42.4007 245.924" stroke="#8EC3EF" stroke-width="0.41377" stroke-linecap="round" stroke-linejoin="round"/>
<path d="M41.0363 252.549C40.6006 252.395 40.1208 252.285 39.6586 252.197" stroke="#8EC3EF" stroke-width="0.41377" stroke-linecap="round" stroke-linejoin="round"/>
<path d="M47.4454 207.629V208.069" stroke="black" stroke-width="0.440181" stroke-linecap="round" stroke-linejoin="round"/>
<path d="M44.4739 207.792V208.232" stroke="black" stroke-width="0.440181" stroke-linecap="round" stroke-linejoin="round"/>
<path d="M46.1241 208.232C46.4983 208.417 46.6524 209.029 46.177 209.165" stroke="black" stroke-width="0.440181" stroke-linecap="round" stroke-linejoin="round"/>
<path d="M45.7372 211.023C45.1781 211.256 44.5531 210.596 44.3418 210.067" stroke="black" stroke-width="0.440181" stroke-linecap="round" stroke-linejoin="round"/>
<path d="M41.4806 206.436C41.6259 206.568 41.7579 206.758 41.8459 206.951" stroke="black" stroke-width="0.440181" stroke-linecap="round" stroke-linejoin="round"/>
<path d="M47.775 206.419C47.6077 206.339 47.4052 206.339 47.2247 206.419" stroke="black" stroke-width="0.440181" stroke-linecap="round" stroke-linejoin="round"/>
<path d="M44.8392 206.163C44.6103 206.141 44.3814 206.163 44.1789 206.273" stroke="black" stroke-width="0.440181" stroke-linecap="round" stroke-linejoin="round"/>
<path d="M67.394 209.161C67.394 209.289 66.6017 220.865 66.6017 220.865C66.6017 220.865 67.3896 221.297 68.446 220.909L67.7241 209.126L67.394 209.161Z" fill="#91C163"/>
<path d="M67.5558 209.257C67.5954 209.235 67.6482 209.059 67.6658 209.024C68.5374 207.197 69.6731 205.234 71.3105 203.782C72.1601 203.029 73.2429 202.426 74.3434 202.562C75.9809 202.765 76.9581 204.103 76.9977 205.547C77.0593 207.888 74.5723 208.896 72.3626 209.205C71.2621 209.359 70.1661 209.389 69.092 209.359C68.7267 209.35 68.3613 209.328 67.996 209.301C67.9255 209.297 67.6262 209.222 67.5602 209.262L67.5558 209.257Z" fill="#91C163"/>
<path d="M67.6707 209.249C67.631 209.232 67.5606 209.06 67.5386 209.025C66.5042 207.286 65.188 205.438 63.4229 204.143C62.5073 203.474 61.3761 202.973 60.2932 203.21C58.6822 203.567 57.8326 204.989 57.9295 206.428C58.0835 208.765 60.6542 209.536 62.8815 209.641C63.9907 209.694 65.0868 209.619 66.1564 209.487C66.5218 209.443 66.8827 209.39 67.2393 209.329C67.3053 209.316 67.6002 209.219 67.6707 209.249Z" fill="#91C163"/>
<path d="M58.2422 204.913L67.6753 209.253" stroke="#96DD90" stroke-width="0.255305" stroke-miterlimit="10"/>
<path d="M67.5568 209.258L76.3208 203.76" stroke="#96DD90" stroke-width="0.255305" stroke-miterlimit="10"/>
<path d="M70.3907 225.87H64.4923L63.6251 216.679H71.2579L70.3907 225.87Z" fill="#7C5735"/>
<path d="M71.9623 215.772H62.921V217.278H71.9623V215.772Z" fill="#8E6842"/>
<path d="M64.0437 226.675C64.9813 226.578 66.1654 225.922 66.3459 224.874C66.205 224.808 66.0729 224.804 65.9321 224.742C66.0201 223.981 67.0898 223.241 66.4999 222.625C65.7604 221.85 64.66 223.048 64.0833 223.25C62.754 223.721 60.5883 224.025 60.4562 225.918C61.3102 226.375 62.2874 226.477 63.2294 226.67" fill="#FFD5BA"/>
<path d="M50.9705 220.037C49.7908 218.509 48.4394 217.471 46.824 218.32C42.6422 220.521 43.549 224.553 46.419 227.243C47.0749 227.854 47.6471 228.493 48.501 228.796C49.7115 229.219 50.4158 230.645 51.6263 230.953C52.5507 231.191 53.5367 230.953 54.4215 230.667C55.7596 230.236 57.133 230.055 58.4579 229.659C59.9237 229.223 61.3719 228.722 62.8509 228.33C63.1459 228.251 63.4364 228.176 63.7313 228.097C63.7137 228.101 62.6441 223.36 62.402 222.938C60.3199 223.325 58.2158 223.853 56.1998 224.337C56.0325 224.377 54.2894 224.945 54.2938 224.949C52.6211 223.18 49.1965 214.79 45.9656 215.534" fill="#F946AD"/>
<path d="M54.3291 224.98C54.1927 225.513 54.1486 226.063 54.1575 226.613" stroke="#FF8FD4" stroke-width="0.440181" stroke-miterlimit="10"/>
<path d="M44.2802 266.741C45.724 267.78 48.3563 267.331 50.2006 267.437C49.624 268.969 49.4699 271.24 49.5888 272.869C49.5712 272.64 54.8577 272.23 54.3471 275.29C54.1138 276.694 52.8329 276.967 51.6092 277.24C50.9886 277.376 43.6639 277.495 43.6463 277.275C43.435 274.273 44.0601 271.112 44.0601 268.066" fill="#055A7D"/>
<path d="M29.138 261.318C29.3625 263.079 31.4841 264.708 32.6638 266.125C31.1496 266.75 29.3845 268.181 28.2708 269.383C28.4249 269.215 32.3249 272.803 29.7454 274.515C28.5569 275.303 27.4873 274.55 26.4529 273.837C25.9291 273.476 20.8494 268.198 21.0034 268.036C23.0591 265.835 25.7926 264.14 28.0243 262.058" fill="#055A7D"/>
<path d="M215.634 272.213C215.448 272.92 215.031 273.519 214.034 274.076C212.475 274.951 210.961 275.622 209.143 275.735C209.587 274.579 210.666 273.736 211.01 272.53C211.21 271.837 211.11 271.003 211.124 270.286C211.155 268.414 211.187 266.547 211.219 264.674C211.269 261.85 210.856 250.73 210.906 247.906C214.823 247.97 216.341 247.594 214.818 253.029C213.912 256.279 213.798 259.711 213.254 263.061C212.76 266.125 216.446 269.185 215.639 272.218L215.634 272.213Z" fill="#FFD5BA"/>
<path d="M210.067 273.397L209.097 274.974L216.001 271.905L214.814 276.493L214.202 276.479L214.587 274.521L206.713 277.594L206.255 276.905L210.067 273.397Z" fill="#F74376"/>
<path d="M223.861 270.477C223.856 271.207 223.602 271.891 222.777 272.684C221.49 273.922 220.189 274.951 218.462 275.518C218.598 274.285 219.437 273.197 219.464 271.946C219.482 271.225 219.178 270.441 219.01 269.742C218.575 267.925 220.855 266.107 220.416 264.285C219.754 261.537 221.109 250.876 220.447 248.128C224.255 247.213 221.889 245.558 221.776 251.197C221.708 254.57 222.46 257.92 222.773 261.302C223.059 264.393 223.884 267.34 223.861 270.477Z" fill="#FFD5BA"/>
<path d="M218.771 273.02L218.222 274.788L224.142 270.087L224.138 274.824L223.544 274.965L223.426 272.97L216.576 277.92L215.96 277.367L218.771 273.02Z" fill="#F74376"/>
<path d="M206.98 239.457C206.98 240.137 209.927 270.736 209.927 270.736L216.273 270.056L216.727 239.457" fill="#025CA4"/>
<path d="M215.557 238.822C215.588 239.502 218.58 269.933 218.58 269.933L224.89 268.963L225.294 238.314" fill="#025CA4"/>
<path d="M198.526 249.924H189.745L188.453 236.238H199.818L198.526 249.924Z" fill="#FFDB27"/>
<path d="M200.267 234.969H188V239.597H200.267V234.969Z" fill="#FFDB27"/>
<path d="M188.906 235.186C188.906 233.223 191.318 231.632 194.292 231.632C197.265 231.632 199.677 233.223 199.677 235.186" stroke="#281000" stroke-width="0.253856" stroke-miterlimit="10"/>
<path d="M191.88 231.745C191.88 231.31 192.234 230.961 192.664 230.961H195.47C195.905 230.961 196.254 231.315 196.254 231.745C196.254 232.18 195.901 232.529 195.47 232.529H192.664C192.229 232.529 191.88 232.176 191.88 231.745Z" fill="#93214A"/>
<path d="M226.291 240.028C226.255 240.028 205.733 240.69 205.733 240.69C206.128 234.253 206.894 227.739 208.313 221.442C208.784 219.352 208.653 214.516 210.683 213.187C211.676 212.539 213.616 212.843 214.772 212.689C222.95 211.605 223.843 219.062 224.899 225.128C225.09 226.229 227.451 239.987 226.291 240.028Z" fill="#A7DCEA"/>
<path d="M194.5 199.524C193.811 198.953 193.218 197.811 193.626 196.886C193.771 196.909 193.879 196.972 194.024 196.999C194.355 196.351 193.893 195.2 194.686 195.023C195.679 194.796 195.924 196.324 196.273 196.791C197.08 197.865 198.635 199.243 197.746 200.812C196.831 200.725 196.001 200.295 195.153 199.95" fill="#FFD5BA"/>
<path d="M194.056 199.552L197.669 198.105C199.31 200.744 201.255 203.251 203.34 205.549C204.99 207.367 206.704 209.062 208.621 210.599C210.824 212.371 212.397 212.702 215.271 212.884C215.222 213.74 211.119 219.973 210.765 219.896C201.831 217.974 196.763 207.371 194.056 199.552Z" fill="#A7DCEA"/>
<path d="M213.784 213.413C213.784 214.655 214.8 215.662 216.042 215.657C217.284 215.657 218.29 214.642 218.286 213.4L218.277 210.154C218.277 208.912 217.261 207.905 216.019 207.91C214.777 207.91 213.771 208.925 213.775 210.167L213.784 213.413Z" fill="#FFD5BA"/>
<path d="M213.607 210.717C214.668 211.474 216.839 211.356 217.855 210.526" stroke="#231100" stroke-width="0.271988" stroke-miterlimit="10" stroke-linecap="round"/>
<path d="M217.415 202.625C217.751 202.67 218.091 202.756 218.444 202.888C221.105 203.894 221.087 206.392 220.122 208.79C219.455 210.454 216.731 212.149 214.84 211.555C212.696 210.88 211.173 207.942 212.338 205.884C213.503 203.826 215.258 202.339 217.415 202.625Z" fill="#FFD5BA"/>
<path d="M222.664 203.913C223.013 204.194 223.322 204.516 223.553 204.91C224.6 206.673 224.169 208.954 223.186 210.649C222.143 212.444 219.863 212.471 218.036 212.199C218.956 210.971 218.974 209.167 218.716 207.698C218.439 206.134 217.605 204.565 218.689 203.11C218.118 203.881 216.236 202.217 215.239 202.843C216.69 201.569 218.39 200.73 220.049 202.145C220.828 202.811 221.848 203.255 222.655 203.913H222.664Z" fill="#0A203A"/>
<path d="M218.798 208.355C219.183 208.106 219.414 207.702 219.868 207.979C220.185 208.169 220.235 208.872 220.113 209.171C219.795 209.964 218.766 210.386 218.181 209.611" fill="#FFD5BA"/>
<path d="M216.259 205.658C215.842 205.767 215.72 206.501 216.287 206.279C216.581 206.161 216.667 205.776 216.323 205.662" fill="#231100"/>
<path d="M214.492 203.958C214.075 204.071 213.952 204.801 214.519 204.574C214.813 204.456 214.9 204.067 214.555 203.958" fill="#231100"/>
<path d="M219.605 208.781C219.328 208.867 219.084 209.03 218.88 209.239" stroke="#231100" stroke-width="0.271988" stroke-miterlimit="10" stroke-linecap="round"/>
<path d="M216.903 204.828C217.012 204.946 217.098 205.086 217.143 205.24" stroke="#231100" stroke-width="0.271988" stroke-miterlimit="10" stroke-linecap="round"/>
<path d="M215.302 203.174C215.375 203.174 215.47 203.214 215.529 203.287" stroke="#231100" stroke-width="0.271988" stroke-miterlimit="10" stroke-linecap="round"/>
<path d="M214.909 205.468C214.51 205.667 213.98 205.708 213.553 205.885C213.753 206.089 213.975 206.279 214.184 206.474" stroke="#231100" stroke-width="0.271988" stroke-miterlimit="10" stroke-linecap="round"/>
<path d="M218.775 202.956C216.989 203.604 217.583 207.308 218.929 208.06Z" fill="#0A203A"/>
<path d="M213 206.787C213.113 207.335 214.038 207.771 214.532 207.902C214.047 209.684 211.844 208.818 213.14 207.222" stroke="#231100" stroke-width="0.271988" stroke-miterlimit="10" stroke-linecap="round"/>
<path d="M212.964 208.029C213.258 208.124 213.553 208.192 213.857 208.237" stroke="#231100" stroke-width="0.271988" stroke-miterlimit="10" stroke-linecap="round"/>
<path d="M197.914 232.607C197.162 233.093 195.897 233.319 195.135 232.648C195.199 232.517 195.294 232.431 195.362 232.304C194.845 231.792 193.608 231.887 193.676 231.08C193.762 230.064 195.289 230.291 195.838 230.096C197.103 229.652 198.884 228.582 200.117 229.901C199.759 230.749 199.097 231.406 198.517 232.118" fill="#FFD5BA"/>
<path d="M197.805 233.042C197.805 233.01 197.51 229.162 197.51 229.162C197.429 228.078 207.692 226.691 208.63 226.02C210.257 224.855 210.674 222.09 211.767 220.381C214.043 216.827 216.25 217.951 219.618 219.597C219.55 219.565 216.028 228.396 215.661 229.239C214.056 232.902 208.938 233.781 205.235 233.591C204.387 233.545 197.805 233.015 197.805 233.038V233.042Z" fill="#A7DCEA"/>
<path d="M219.334 224.724C218.604 226.859 217.425 229.842 216.047 231.609C215.077 232.852 213.404 232.729 212.013 232.956C210.131 233.269 208.218 233.491 206.301 233.445" stroke="#D9F5FC" stroke-width="0.453314" stroke-miterlimit="10"/>
<path d="M207.094 226.424C208 226.329 208.961 226.157 209.823 225.853C210.902 225.468 210.426 225.558 210.965 224.847C211.953 223.546 212.855 221.837 214.12 220.758" stroke="#D9F5FC" stroke-width="0.453314" stroke-miterlimit="10"/>
<path d="M210.38 225.857C210.91 226.342 211.386 226.809 211.74 227.444" stroke="#D9F5FC" stroke-width="0.453314" stroke-miterlimit="10"/>
<path d="M210.834 213.845C209.456 214.674 209.306 217.344 208.794 218.718" stroke="#D9F5FC" stroke-width="0.453314" stroke-miterlimit="10"/>
</g>
<path d="M14.948 2.47546C7.44356 2.47546 3.31811 6.79736 3.31811 15.9519V17.7986C3.31811 26.9531 7.40427 31.275 14.8301 31.275C18.6019 31.275 21.588 30.3321 23.7882 28.7212C24.7705 28.014 24.849 26.8745 24.2204 25.9709C23.5918 25.1065 22.5702 24.9886 21.7451 25.5387C19.8985 26.9138 17.7768 27.6211 14.9087 27.6211C9.72238 27.6211 7.2864 24.36 7.2864 17.4842V16.2662C7.2864 9.27263 9.87954 6.09014 14.8694 6.09014C17.5804 6.09014 19.3091 6.60091 21.0772 7.66174C21.9416 8.2118 22.8845 7.89748 23.4346 7.11168C24.0239 6.2473 23.9454 5.22576 23.0024 4.59712C21.1558 3.33984 18.5233 2.47546 14.948 2.47546ZM35.2443 9.74411C29.2329 9.74411 25.579 13.2016 25.579 19.8023V21.0989C25.579 27.6996 29.2329 31.1572 35.2443 31.1572C41.2557 31.1572 44.9096 27.6996 44.9096 21.0989V19.8023C44.9096 13.2016 41.2557 9.74411 35.2443 9.74411ZM35.2443 13.1623C39.0554 13.1623 41.0199 15.2447 41.0199 19.9202V20.981C41.0199 25.6958 39.0554 27.7389 35.2443 27.7389C31.4725 27.7389 29.4687 25.6958 29.4687 20.981V19.9202C29.4687 15.2447 31.4725 13.1623 35.2443 13.1623ZM57.1939 9.74411C54.1686 9.74411 52.1255 11.2371 51.104 13.2016V11.5907C51.104 10.4906 50.2003 10.0191 49.2573 10.0191C48.3144 10.0191 47.4107 10.4906 47.4107 11.5907V29.4284C47.4107 30.5285 48.3537 31.0393 49.3359 31.0393C50.3575 31.0393 51.3004 30.5285 51.3004 29.4284V18.0343C51.3004 15.4019 52.9506 13.2016 55.9366 13.2016C58.7655 13.2016 60.3371 14.6946 60.3371 18.3093V29.4284C60.3371 30.5285 61.2801 31.0393 62.2623 31.0393C63.2839 31.0393 64.1875 30.5285 64.1875 29.4284V18.1522C64.1875 15.0875 66.152 13.2016 68.863 13.2016C71.6133 13.2016 73.2635 14.5768 73.2635 18.3486V29.4284C73.2635 30.5285 74.2065 31.0393 75.1887 31.0393C76.171 31.0393 77.1139 30.5285 77.1139 29.4284V17.5235C77.1139 12.7301 74.2851 9.74411 69.8846 9.74411C66.5449 9.74411 64.5019 11.1585 63.1267 13.3195C62.3802 11.2371 60.2192 9.74411 57.1939 9.74411ZM90.5938 9.74411C88.1578 9.74411 85.604 10.7656 84.2681 12.9659V11.5907C84.2681 10.4906 83.3644 10.0191 82.3822 10.0191C81.4392 10.0191 80.5355 10.4906 80.5355 11.5907V37.0507C80.5355 38.1508 81.4785 38.6616 82.4608 38.6616C83.4823 38.6616 84.4253 38.1508 84.4253 37.0507V28.4461C85.5647 30.1356 87.7256 31.1572 90.358 31.1572C95.5443 31.1572 98.9233 27.8175 98.9233 21.0989V19.7631C98.9233 13.2016 96.1337 9.74411 90.5938 9.74411ZM89.9259 13.123C93.5405 13.123 95.1121 15.3626 95.1121 19.9202V20.981C95.1121 25.6173 93.1869 27.8175 89.9651 27.8175C86.6648 27.8175 84.3467 25.5387 84.3467 23.1813V18.6629C84.3467 15.3233 86.7041 13.123 89.9259 13.123ZM109.008 9.74411C106.258 9.74411 103.665 10.6085 101.897 11.8265C101.072 12.3765 100.993 13.3195 101.465 14.1053C101.975 14.8911 102.84 15.2054 103.665 14.6946C105.276 13.6731 107.083 13.123 108.93 13.123C111.994 13.123 113.369 14.4589 113.369 17.4842V18.4665H107.908C102.172 18.4665 100.089 21.0596 100.089 24.5171V25.0279C100.089 28.8783 102.761 31.1572 107.279 31.1572C108.851 31.1572 110.305 30.7643 111.366 30.2142C112.387 29.7034 113.252 28.9569 113.644 28.0532H113.684V29.5463C113.684 30.5678 114.548 31.0393 115.452 31.0393C116.355 31.0393 117.22 30.5678 117.22 29.5463V16.6199C117.22 12.3372 113.959 9.74411 109.008 9.74411ZM108.026 21.4918H113.409V23.4956C113.409 25.2244 112.662 26.3245 111.326 27.1103C110.305 27.6603 109.126 27.8961 107.594 27.8961C105.158 27.8961 103.861 26.796 103.861 24.8708V24.7136C103.861 22.8277 104.961 21.4918 108.026 21.4918ZM130.835 9.74411C127.888 9.74411 125.295 11.1585 124.313 12.9659H124.234V11.5907C124.234 10.4906 123.33 10.0191 122.387 10.0191C121.444 10.0191 120.541 10.4906 120.541 11.5907V29.4284C120.541 30.5285 121.484 31.0393 122.466 31.0393C123.488 31.0393 124.43 30.5285 124.43 29.4284V18.3879C124.43 15.1661 126.866 13.1623 129.735 13.1623C132.721 13.1623 134.449 14.5375 134.449 18.3093V29.4284C134.449 30.5285 135.392 31.0393 136.375 31.0393C137.357 31.0393 138.3 30.5285 138.3 29.4284V17.4057C138.3 12.5337 135.51 9.74411 130.835 9.74411ZM143.776 2.23972C142.322 2.23972 141.183 3.33984 141.183 4.71499C141.183 6.12943 142.322 7.22955 143.776 7.22955C145.23 7.22955 146.369 6.12943 146.369 4.71499C146.369 3.33984 145.23 2.23972 143.776 2.23972ZM143.776 10.0191C142.794 10.0191 141.851 10.5299 141.851 11.63V29.4284C141.851 30.5285 142.794 31.0393 143.776 31.0393C144.797 31.0393 145.701 30.5285 145.701 29.4284V11.63C145.701 10.5299 144.797 10.0191 143.776 10.0191ZM157.984 9.74411C151.973 9.74411 148.319 13.2016 148.319 19.8023V21.0989C148.319 27.6996 151.973 31.1572 157.984 31.1572C163.995 31.1572 167.649 27.6996 167.649 21.0989V19.8023C167.649 13.2016 163.995 9.74411 157.984 9.74411ZM157.984 13.1623C161.795 13.1623 163.76 15.2447 163.76 19.9202V20.981C163.76 25.6958 161.795 27.7389 157.984 27.7389C154.212 27.7389 152.208 25.6958 152.208 20.981V19.9202C152.208 15.2447 154.212 13.1623 157.984 13.1623ZM180.444 9.74411C177.498 9.74411 174.905 11.1585 173.922 12.9659H173.844V11.5907C173.844 10.4906 172.94 10.0191 171.997 10.0191C171.054 10.0191 170.151 10.4906 170.151 11.5907V29.4284C170.151 30.5285 171.093 31.0393 172.076 31.0393C173.097 31.0393 174.04 30.5285 174.04 29.4284V18.3879C174.04 15.1661 176.476 13.1623 179.344 13.1623C182.33 13.1623 184.059 14.5375 184.059 18.3093V29.4284C184.059 30.5285 185.002 31.0393 185.984 31.0393C186.967 31.0393 187.91 30.5285 187.91 29.4284V17.4057C187.91 12.5337 185.12 9.74411 180.444 9.74411Z" fill="#0BAB8F"/>
<path d="M213.777 1.72895C212.756 1.72895 211.813 2.23972 211.813 3.33984V12.3372C210.988 11.0407 209.023 9.74411 205.88 9.74411C200.654 9.74411 197.275 13.123 197.275 19.8023V21.1382C197.275 27.6996 200.144 31.1572 205.526 31.1572C208.355 31.1572 210.83 30.057 211.931 27.9747H212.009V29.4677C212.009 30.5678 212.913 31.0393 213.856 31.0393C214.799 31.0393 215.702 30.5678 215.702 29.4677V3.33984C215.702 2.23972 214.759 1.72895 213.777 1.72895ZM206.391 13.123C209.966 13.123 211.891 15.4019 211.891 17.6414V22.1597C211.891 25.4994 209.416 27.8175 206.233 27.8175C202.737 27.8175 201.126 25.6566 201.126 20.981V19.9595C201.126 15.3233 203.012 13.123 206.391 13.123ZM227.865 9.74411C221.854 9.74411 218.2 13.2016 218.2 19.8023V21.0989C218.2 27.6996 221.854 31.1572 227.865 31.1572C233.876 31.1572 237.53 27.6996 237.53 21.0989V19.8023C237.53 13.2016 233.876 9.74411 227.865 9.74411ZM227.865 13.1623C231.676 13.1623 233.641 15.2447 233.641 19.9202V20.981C233.641 25.6958 231.676 27.7389 227.865 27.7389C224.093 27.7389 222.089 25.6958 222.089 20.981V19.9202C222.089 15.2447 224.093 13.1623 227.865 13.1623ZM250.325 9.74411C247.379 9.74411 244.786 11.1585 243.803 12.9659H243.725V11.5907C243.725 10.4906 242.821 10.0191 241.878 10.0191C240.935 10.0191 240.031 10.4906 240.031 11.5907V29.4284C240.031 30.5285 240.974 31.0393 241.957 31.0393C242.978 31.0393 243.921 30.5285 243.921 29.4284V18.3879C243.921 15.1661 246.357 13.1623 249.225 13.1623C252.211 13.1623 253.94 14.5375 253.94 18.3093V29.4284C253.94 30.5285 254.883 31.0393 255.865 31.0393C256.848 31.0393 257.791 30.5285 257.791 29.4284V17.4057C257.791 12.5337 255.001 9.74411 250.325 9.74411ZM269.003 9.74411C266.253 9.74411 263.659 10.6085 261.891 11.8265C261.066 12.3765 260.988 13.3195 261.459 14.1053C261.97 14.8911 262.834 15.2054 263.659 14.6946C265.27 13.6731 267.078 13.123 268.924 13.123C271.989 13.123 273.364 14.4589 273.364 17.4842V18.4665H267.903C262.166 18.4665 260.084 21.0596 260.084 24.5171V25.0279C260.084 28.8783 262.756 31.1572 267.274 31.1572C268.846 31.1572 270.299 30.7643 271.36 30.2142C272.382 29.7034 273.246 28.9569 273.639 28.0532H273.678V29.5463C273.678 30.5678 274.543 31.0393 275.446 31.0393C276.35 31.0393 277.215 30.5678 277.215 29.5463V16.6199C277.215 12.3372 273.953 9.74411 269.003 9.74411ZM268.021 21.4918H273.403V23.4956C273.403 25.2244 272.657 26.3245 271.321 27.1103C270.299 27.6603 269.121 27.8961 267.588 27.8961C265.153 27.8961 263.856 26.796 263.856 24.8708V24.7136C263.856 22.8277 264.956 21.4918 268.021 21.4918ZM283.757 4.51854C282.775 4.51854 281.832 5.02931 281.832 6.16872V10.2156H279.475C278.571 10.2156 278.139 10.9621 278.139 11.8265C278.139 12.6909 278.571 13.3981 279.475 13.3981H281.832V24.635C281.832 29.1927 283.6 31.1572 287.843 31.1572C289.061 31.1572 290.201 30.9214 291.065 30.5285C291.851 30.1749 292.165 29.3891 291.851 28.4854C291.537 27.5032 290.751 27.2674 290.044 27.5032C289.415 27.7389 288.826 27.8568 288.118 27.8568C286.39 27.8568 285.722 26.9924 285.722 24.635V13.3981L290.279 13.3981C291.183 13.3981 291.615 12.6909 291.615 11.8265C291.615 10.9621 291.183 10.2156 290.279 10.2156L285.722 10.2156V6.16872C285.722 5.02931 284.779 4.51854 283.757 4.51854ZM295.598 2.23972C294.144 2.23972 293.005 3.33984 293.005 4.71499C293.005 6.12943 294.144 7.22955 295.598 7.22955C297.052 7.22955 298.191 6.12943 298.191 4.71499C298.191 3.33984 297.052 2.23972 295.598 2.23972ZM295.598 10.0191C294.616 10.0191 293.673 10.5299 293.673 11.63V29.4284C293.673 30.5285 294.616 31.0393 295.598 31.0393C296.62 31.0393 297.523 30.5285 297.523 29.4284V11.63C297.523 10.5299 296.62 10.0191 295.598 10.0191ZM309.806 9.74411C303.795 9.74411 300.141 13.2016 300.141 19.8023V21.0989C300.141 27.6996 303.795 31.1572 309.806 31.1572C315.818 31.1572 319.472 27.6996 319.472 21.0989V19.8023C319.472 13.2016 315.818 9.74411 309.806 9.74411ZM309.806 13.1623C313.617 13.1623 315.582 15.2447 315.582 19.9202V20.981C315.582 25.6958 313.617 27.7389 309.806 27.7389C306.034 27.7389 304.031 25.6958 304.031 20.981V19.9202C304.031 15.2447 306.034 13.1623 309.806 13.1623ZM332.267 9.74411C329.32 9.74411 326.727 11.1585 325.744 12.9659H325.666V11.5907C325.666 10.4906 324.762 10.0191 323.819 10.0191C322.876 10.0191 321.973 10.4906 321.973 11.5907V29.4284C321.973 30.5285 322.916 31.0393 323.898 31.0393C324.919 31.0393 325.862 30.5285 325.862 29.4284V18.3879C325.862 15.1661 328.298 13.1623 331.166 13.1623C334.152 13.1623 335.881 14.5375 335.881 18.3093V29.4284C335.881 30.5285 336.824 31.0393 337.806 31.0393C338.789 31.0393 339.732 30.5285 339.732 29.4284V17.4057C339.732 12.5337 336.942 9.74411 332.267 9.74411Z" fill="#FF7400"/>
<defs>
<clipPath id="clip0_157_3821">
<rect width="345" height="238" fill="white" transform="translate(0 40)"/>
</clipPath>
</defs>
</svg>
