<svg width="345" height="269" viewBox="0 0 345 269" fill="none" xmlns="http://www.w3.org/2000/svg">
<path d="M66.7007 2.32883C67.1443 2.23583 67.5061 2.33709 67.7861 2.63262C68.0866 2.89658 68.2834 3.2504 68.3764 3.69409C68.4694 4.13778 68.4313 4.54084 68.262 4.90327C68.1189 5.26023 67.8254 5.48521 67.3818 5.57822L49.7646 9.27095C49.2165 9.38583 48.9999 9.71732 49.1148 10.2654L50.0093 14.5327C50.1242 15.0808 50.4556 15.2974 51.0037 15.1825L69.0124 11.4077C69.4561 11.3147 69.8151 11.4029 70.0896 11.6723C70.3901 11.9363 70.5869 12.2901 70.6799 12.7338C70.7729 13.1775 70.7375 13.5936 70.5737 13.9821C70.4306 14.3391 70.1372 14.5641 69.6935 14.6571L49.9231 18.8011C48.7747 19.0418 47.948 18.9972 47.4429 18.6671C46.9377 18.3371 46.5676 17.6109 46.3323 16.4886L44.9619 9.95069C44.7267 8.82841 44.7741 8.01471 45.1041 7.50959C45.4342 7.00447 46.1734 6.63155 47.3218 6.39084L66.7007 2.32883ZM61.5881 20.443L74.7813 17.6775C75.225 17.5845 75.5868 17.6858 75.8667 17.9813C76.1673 18.2453 76.3641 18.5991 76.4571 19.0428C76.5501 19.4865 76.5147 19.9026 76.3509 20.2911C76.2078 20.6481 75.9143 20.8731 75.4706 20.9661L45.2475 27.3012C44.8038 27.3942 44.4317 27.3087 44.1311 27.0447C43.8512 26.7492 43.6647 26.3796 43.5717 25.9359C43.4787 25.4922 43.5038 25.0919 43.6469 24.7349C43.8107 24.3464 44.1145 24.1056 44.5582 24.0126L57.7514 21.2472L56.5944 15.7271L60.431 14.9229L61.5881 20.443ZM60.876 26.6C64.6605 25.8068 67.7115 25.7394 70.0293 26.3979C72.3731 27.051 73.7857 28.5259 74.2671 30.8226C74.754 33.1455 74.0526 35.0635 72.1628 36.5767C70.3047 38.1105 67.4834 39.2741 63.6989 40.0673C59.9145 40.8606 56.8504 40.9307 54.5066 40.2776C52.1943 39.6452 50.7947 38.1676 50.3078 35.8447C49.8264 33.548 50.5148 31.6327 52.373 30.0988C54.2573 28.5595 57.0916 27.3933 60.876 26.6ZM61.5325 29.7319C58.6877 30.3283 56.6915 31.0736 55.5439 31.9681C54.3908 32.8364 53.9374 33.8579 54.1836 35.0323C54.4298 36.2068 55.2552 36.9602 56.6599 37.2924C58.0701 37.6507 60.1976 37.5317 63.0424 36.9354C65.8873 36.3391 67.8835 35.5937 69.0311 34.6993C70.1841 33.8309 70.6376 32.8095 70.3914 31.635C70.1452 30.4605 69.3197 29.7072 67.915 29.375C66.5049 29.0166 64.3774 29.1356 61.5325 29.7319Z" fill="#0BAB8F"/>
<path d="M130.895 12.5972C133.276 12.8968 135.042 13.7102 136.192 15.0375C137.345 16.3383 137.8 17.9544 137.557 19.8858C137.314 21.8173 136.471 23.2835 135.028 24.2846C133.589 25.2592 131.678 25.5966 129.297 25.2971C126.89 24.9941 125.109 24.1923 123.956 22.8915C122.806 21.5642 122.352 19.9348 122.595 18.0034C122.838 16.072 123.68 14.6189 125.119 13.6444C126.562 12.6433 128.487 12.2943 130.895 12.5972ZM132.059 3.02759C132.588 3.09416 133.034 3.28471 133.398 3.59922C133.761 3.91374 133.908 4.3488 133.838 4.90442L133.519 7.4444L139.115 8.14844C139.591 8.20836 139.913 8.42361 140.082 8.7942C140.277 9.16811 140.346 9.57996 140.289 10.0298C140.232 10.4795 140.063 10.8614 139.782 11.1754C139.53 11.4663 139.167 11.5818 138.69 11.5218L123.054 9.55451C122.551 9.49127 122.2 9.28591 122.002 8.93846C121.834 8.56787 121.778 8.15769 121.835 7.7079C121.891 7.25811 122.047 6.87456 122.302 6.55723C122.583 6.24323 122.975 6.11786 123.478 6.18111L129.59 6.95007L129.909 4.41009C129.979 3.85447 130.229 3.46934 130.659 3.25469C131.116 3.04337 131.583 2.96767 132.059 3.02759ZM130.511 15.6531C129.241 15.4933 128.21 15.6727 127.419 16.1914C126.632 16.6836 126.175 17.4324 126.048 18.4378C125.922 19.4432 126.177 20.2951 126.815 20.9935C127.456 21.6655 128.412 22.0814 129.682 22.2411C130.952 22.4009 131.981 22.2347 132.768 21.7425C133.559 21.2239 134.018 20.4618 134.144 19.4564C134.271 18.451 134.013 17.6123 133.372 16.9404C132.734 16.242 131.781 15.8129 130.511 15.6531ZM152.2 5.7229C152.676 5.78282 153.083 5.96837 153.42 6.27955C153.787 6.56761 153.937 6.97622 153.87 7.50538L151.294 27.9839C151.227 28.5131 150.979 28.885 150.549 29.0996C150.148 29.2912 149.71 29.357 149.234 29.297C148.784 29.2405 148.376 29.0681 148.009 28.7801C147.672 28.4689 147.536 28.0487 147.603 27.5196L148.751 18.3915L144.545 17.8622L143.606 25.3234C143.539 25.8526 143.291 26.2245 142.861 26.4391C142.46 26.6307 142.035 26.6981 141.586 26.6415C141.136 26.5849 140.727 26.4126 140.36 26.1246C140.023 25.8134 139.888 25.3932 139.955 24.864L142.301 6.2111C142.368 5.68193 142.602 5.32159 143.002 5.13007C143.429 4.94188 143.867 4.87608 144.317 4.93267C144.767 4.98926 145.162 5.15992 145.502 5.44465C145.869 5.7327 146.019 6.14131 145.953 6.67047L144.964 14.5285L149.171 15.0578L150.18 7.04101C150.246 6.51184 150.48 6.1515 150.88 5.95999C151.31 5.74534 151.75 5.66631 152.2 5.7229ZM139.059 28.1378C142.843 28.6139 145.711 29.5258 147.665 30.8735C149.619 32.2213 150.451 34.0461 150.161 36.3479C149.871 38.6498 148.613 40.2116 146.387 41.0334C144.16 41.8552 141.155 42.0281 137.371 41.5521C133.588 41.0761 130.719 40.1642 128.765 38.8164C126.812 37.4687 125.98 35.6439 126.269 33.342C126.559 31.0401 127.817 29.4783 130.044 28.6565C132.27 27.8347 135.275 27.6618 139.059 28.1378ZM138.66 31.3128C135.855 30.96 133.778 31.0211 132.428 31.4963C131.081 31.9451 130.338 32.7251 130.198 33.8363C130.059 34.9476 130.585 35.8874 131.779 36.6557C132.969 37.4504 134.966 38.0243 137.771 38.3771C140.575 38.73 142.653 38.6688 144.002 38.1936C145.349 37.7448 146.092 36.9648 146.232 35.8536C146.372 34.7424 145.845 33.8026 144.652 33.0343C143.461 32.2395 141.464 31.6657 138.66 31.3128Z" fill="#FC4D07"/>
<path d="M214.229 5.82379C215.388 5.64069 216.211 5.72657 216.699 6.08143C217.214 6.43213 217.56 7.17379 217.739 8.30641L218.445 12.771C218.619 13.8773 218.712 14.8886 218.721 15.805C218.727 16.695 218.608 17.5643 218.364 18.4127C218.12 19.2612 217.729 20.1194 217.191 20.9873C216.649 21.8288 215.918 22.7542 214.998 23.7636C214.1 24.7424 212.99 25.8356 211.669 27.0432C210.348 28.2509 208.771 29.6339 206.938 31.1923C206.532 31.5264 206.093 31.6498 205.62 31.5625C205.143 31.4489 204.744 31.2285 204.422 30.9014C204.1 30.5742 203.9 30.1604 203.821 29.6599C203.768 29.1553 203.943 28.7228 204.345 28.3623C206.036 26.9342 207.474 25.6947 208.657 24.6438C209.863 23.5623 210.86 22.6084 211.648 21.7821C212.431 20.9294 213.04 20.1718 213.475 19.5091C213.933 18.8158 214.26 18.1566 214.459 17.5314C214.653 16.8798 214.737 16.2185 214.712 15.5475C214.683 14.8502 214.602 14.0801 214.469 13.2372L213.988 10.1949C213.942 9.90518 213.845 9.71804 213.697 9.63348C213.571 9.51843 213.35 9.48587 213.033 9.5358L202.761 11.1587C202.26 11.2378 201.865 11.1248 201.573 10.8199C201.309 10.5107 201.141 10.1323 201.07 9.6845C200.995 9.21038 201.036 8.78546 201.193 8.40975C201.376 8.02988 201.717 7.80041 202.218 7.72135L214.229 5.82379ZM226.053 1.2021C226.579 1.11887 227.061 1.17775 227.498 1.37873C227.961 1.57555 228.238 1.9637 228.33 2.54318L233.198 33.361C233.29 33.9404 233.146 34.3952 232.766 34.7252C232.413 35.051 231.972 35.2555 231.446 35.3387C230.945 35.4178 230.463 35.3589 230 35.1621C229.564 34.9611 229.299 34.5709 229.208 33.9914L224.339 3.17362C224.248 2.59414 224.379 2.14149 224.732 1.81567C225.112 1.48569 225.552 1.28117 226.053 1.2021Z" fill="#FC4D07"/>
<path d="M289.036 4.58718C289.531 4.6941 289.946 4.92009 290.281 5.26517C290.616 5.61024 290.724 6.05647 290.606 6.60386L289.863 10.0446L306.128 13.556L306.871 10.1153C306.989 9.56793 307.272 9.20611 307.719 9.02985C308.167 8.8536 308.625 8.81612 309.094 8.91741C309.589 9.02433 310.004 9.25033 310.339 9.5954C310.7 9.9461 310.821 10.3951 310.703 10.9425L308.28 22.164C308.038 23.2849 307.651 24.006 307.118 24.3274C306.61 24.6544 305.783 24.6941 304.637 24.4465L286.729 20.5805C285.582 20.3329 284.845 19.9556 284.518 19.4485C284.191 18.9414 284.149 18.1274 284.391 17.0066L286.813 5.78508C286.931 5.23769 287.214 4.87587 287.661 4.69962C288.109 4.52337 288.567 4.48589 289.036 4.58718ZM288.386 16.887C288.301 17.2779 288.468 17.5185 288.885 17.6085L303.899 20.8498C304.316 20.9399 304.567 20.7894 304.651 20.3984L305.411 16.8795L289.146 13.368L288.386 16.887ZM309.858 29.8296C310.327 29.9309 310.63 30.1735 310.765 30.5574C310.926 30.9469 310.959 31.3632 310.864 31.8063C310.768 32.2494 310.566 32.6151 310.259 32.9033C309.982 33.1711 309.61 33.2543 309.141 33.153L296.042 30.3253L293.738 40.9994C293.614 41.5729 293.329 41.9477 292.881 42.124C292.434 42.3002 291.95 42.3321 291.429 42.2195C290.907 42.107 290.479 41.8782 290.144 41.5331C289.81 41.188 289.704 40.7288 289.828 40.1553L292.133 29.4812L279.034 26.6535C278.565 26.5522 278.247 26.3198 278.08 25.9564C277.945 25.5725 277.925 25.159 278.02 24.7159C278.116 24.2727 278.305 23.9043 278.586 23.6104C278.894 23.3222 279.283 23.2287 279.752 23.33L309.858 29.8296Z" fill="#0BAB8F"/>
<g clip-path="url(#clip0_425_5341)">
<path d="M196.353 261.715C190.787 262.168 179.995 261.198 181.075 253.669C181.832 248.39 190.024 240.087 195.537 240.381C198.686 240.547 201.393 244.084 204.549 244.967C208.725 246.133 207.525 245.34 210.512 243.234C213.271 241.287 213.385 240.444 217.284 240.921C222.303 241.537 225.506 243.47 230.692 241.914C235.318 240.524 238.368 237.911 243.481 238.654C248.247 239.347 251.796 241.63 256.776 240.444C261.252 239.377 264.691 236.404 269.514 236.761C272.487 236.981 275.47 239.207 278.433 238.041C282.186 236.564 282.512 230.702 287.488 231.012C291.308 231.248 292.781 235.338 294.667 238.041C297.724 242.42 297.404 239.184 301.107 240.811C304.166 242.157 307.173 254.096 307.026 257.175C306.719 263.541 300.277 261.548 295.214 262.618" fill="#F9B785"/>
<path d="M121.58 261.924C124.94 261.509 134.626 261.7 136.472 257.931C137.712 255.403 135.394 253.278 133.506 252.175C130.43 250.383 127.508 249.747 124.818 247.211C122.62 245.138 120.822 242.113 117.903 240.934C115.337 239.897 115.858 240.841 113.924 241.372C112.188 241.846 112.418 242.384 110.19 242.23C108.082 242.083 106.662 240.45 104.253 241.949C100.59 244.228 103.852 249.874 97.9711 249.546C95.7459 249.424 93.2444 248.011 91.0314 248.427C88.4418 248.913 87.6422 251.49 85.2361 252.288C79.8638 254.07 78.0885 258.027 74 261.521" fill="#F9B785"/>
<path d="M31.5826 262.919C27.4576 262.408 15.5657 262.643 13.299 258.016C11.7769 254.912 14.623 252.303 16.9408 250.949C20.7176 248.748 24.3052 247.968 27.6077 244.854C30.3067 242.308 32.5133 238.595 36.098 237.148C39.2473 235.875 38.6078 237.034 40.9826 237.685C43.1142 238.267 42.832 238.928 45.567 238.739C48.1549 238.559 49.8992 236.553 52.8564 238.394C57.3538 241.192 53.3488 248.124 60.5691 247.721C63.3012 247.571 66.3725 245.836 69.0895 246.346C72.2688 246.944 73.2506 250.108 76.2048 251.087C82.8007 253.276 84.9803 258.133 90 262.423" fill="#F9B785"/>
<path d="M224.43 262.19C231.712 257.674 240.564 256.291 246.617 249.755C254.469 241.276 259.159 229.025 272.53 231.764C280.426 233.381 280.392 239.543 285.762 243.846C290.525 247.662 293.108 242.186 297.814 240.866C301.343 239.873 303.12 241.29 305.943 243.659C309.485 246.629 311.795 248.195 316.135 249.732C323.457 252.325 325.877 258.081 331.449 263.16" fill="#DB9F6E"/>
<path d="M169.295 261.186C163.952 258.08 157.457 257.129 153.017 252.637C147.256 246.808 143.815 238.386 134.002 240.269C128.209 241.381 128.234 245.617 124.294 248.573C120.8 251.197 118.907 247.434 115.452 246.524C112.863 245.842 111.559 246.815 109.488 248.443C106.889 250.485 105.194 251.561 102.01 252.617C96.6382 254.4 94.8629 258.357 90.7744 261.851" fill="#DB9F6E"/>
<path d="M-27.0003 262.011C-20.4404 258.198 -12.4665 257.03 -7.01445 251.515C0.0587997 244.358 4.28294 234.018 16.3309 236.33C23.4432 237.696 23.4132 242.896 28.2497 246.526C32.5399 249.747 34.8637 245.127 39.1058 244.01C42.2852 243.172 43.8853 244.367 46.4282 246.367C49.6196 248.873 51.7002 250.194 55.6091 251.491C62.205 253.68 64.3846 258.538 69.4043 262.828" fill="#DB9F6E"/>
<path d="M156.857 97.9626C156.857 98.5487 153.266 150.924 153.266 150.924C153.266 150.924 156.839 152.876 161.607 151.118L158.343 97.7988L156.857 97.9605V97.9626Z" fill="#8DCC4A"/>
<path d="M157.584 98.3956L157.571 98.4016C157.571 98.4016 157.574 98.3956 157.574 98.3936H157.565C157.565 98.3936 157.576 98.3875 157.578 98.3875C157.757 98.2864 157.994 97.4941 158.073 97.3304C162.006 89.0715 167.15 80.1759 174.56 73.6089C178.405 70.203 183.298 67.4662 188.278 68.0888C195.68 69.0145 200.115 75.0682 200.287 81.5848C200.566 92.1741 189.311 96.7442 179.316 98.1409C174.336 98.8382 169.372 98.9777 164.506 98.8342C162.845 98.7837 161.194 98.6988 159.552 98.5714C159.243 98.5472 157.885 98.2218 157.582 98.3956H157.584Z" fill="#8DCC4A"/>
<path d="M158.117 98.3714L158.129 98.3774C158.129 98.3774 158.125 98.3714 158.125 98.3694H158.131L158.119 98.3633C157.931 98.2784 157.622 97.5123 157.529 97.3567C152.843 89.5001 146.895 81.1219 138.907 75.2704C134.763 72.2365 129.637 69.9666 124.736 71.05C117.451 72.6589 113.599 79.0987 114.033 85.6031C114.741 96.1743 126.371 99.6751 136.453 100.138C141.476 100.368 146.432 100.047 151.263 99.4507C152.912 99.2466 154.549 99.0101 156.17 98.7291C156.476 98.6766 157.797 98.2258 158.115 98.3714H158.117Z" fill="#8DCC4A"/>
<path d="M115.446 78.7432L158.129 98.3757" stroke="#B8E880" stroke-width="0.808504" stroke-miterlimit="10"/>
<path d="M157.583 98.3958L197.256 73.5303" stroke="#B8E880" stroke-width="0.808504" stroke-miterlimit="10"/>
<path d="M128.742 135.658C129.259 135.963 130.804 136.535 130.761 137.275C130.715 138.083 129.096 137.428 128.633 137.295C128.174 137.161 127.22 137.032 127.113 136.535C127.004 136.025 127.657 135.498 127.832 135.069C128.247 135.213 129.104 135.694 129.367 135.579" fill="#603C15"/>
<path d="M194.591 263.991H128.594L118.89 161.12H204.296L194.591 263.991Z" fill="#EEEEEE"/>
<path d="M212.186 151H111V167.864H212.186V151Z" fill="#E7E7E7"/>
<path d="M241.302 197.017C240.796 197.602 200.376 242.483 241.302 248.507C282.229 242.475 241.809 197.602 241.302 197.017Z" fill="#1E871B"/>
<path d="M241.294 270.324V220.562" stroke="#604B3B" stroke-width="3.492" stroke-linecap="round" stroke-linejoin="round"/>
<path d="M241.835 236.276L248.382 229.729" stroke="#604B3B" stroke-width="3.492" stroke-linecap="round" stroke-linejoin="round"/>
<path d="M232.668 236.276L240.525 241.514" stroke="#604B3B" stroke-width="3.492" stroke-linecap="round" stroke-linejoin="round"/>
<path d="M301.697 197.89C301.191 198.474 260.771 243.355 301.697 249.379C342.623 243.347 302.203 198.474 301.697 197.89Z" fill="#6FA537"/>
<path d="M301.688 271.196V221.435" stroke="#604B3B" stroke-width="3.492" stroke-linecap="round" stroke-linejoin="round"/>
<path d="M302.229 237.148L308.777 230.601" stroke="#604B3B" stroke-width="3.492" stroke-linecap="round" stroke-linejoin="round"/>
<path d="M293.062 237.148L300.92 242.386" stroke="#604B3B" stroke-width="3.492" stroke-linecap="round" stroke-linejoin="round"/>
<path d="M176.22 242.809C176.22 242.982 175.161 269.823 175.161 269.823C175.161 269.823 176.212 270.399 177.614 269.882L176.655 242.765L176.22 242.813V242.809Z" fill="#6FA537"/>
<path d="M176.434 242.938C176.485 242.908 176.555 242.676 176.577 242.628C177.736 240.201 179.248 237.582 181.428 235.649C182.56 234.646 183.999 233.842 185.463 234.026C187.639 234.299 188.945 236.081 188.997 237.995C189.078 241.112 185.769 242.455 182.829 242.864C181.365 243.071 179.904 243.111 178.473 243.067C177.986 243.052 177.5 243.026 177.016 242.989C176.924 242.982 176.526 242.886 176.437 242.938H176.434Z" fill="#6FA537"/>
<path d="M176.592 242.931C176.537 242.905 176.445 242.68 176.419 242.636C175.039 240.327 173.291 237.859 170.941 236.141C169.724 235.248 168.216 234.58 166.773 234.898C164.63 235.37 163.498 237.266 163.627 239.18C163.834 242.289 167.257 243.318 170.222 243.455C171.701 243.521 173.158 243.429 174.578 243.252C175.065 243.193 175.545 243.123 176.02 243.038C176.109 243.023 176.5 242.89 176.592 242.931Z" fill="#6FA537"/>
<path d="M164.04 237.158L176.596 242.931" stroke="#96DD90" stroke-width="0.339339" stroke-miterlimit="10"/>
<path d="M176.434 242.938L188.104 235.624" stroke="#96DD90" stroke-width="0.339339" stroke-miterlimit="10"/>
<path d="M158.606 254.251C158.606 254.424 157.548 269.827 157.548 269.827C157.548 269.827 158.599 270.403 160.001 269.887L159.042 254.203L158.606 254.251Z" fill="#91C163"/>
<path d="M158.816 254.379C158.868 254.35 158.938 254.117 158.96 254.069C160.118 251.639 161.631 249.024 163.811 247.091C164.943 246.088 166.381 245.283 167.846 245.468C170.022 245.741 171.328 247.522 171.379 249.437C171.46 252.553 168.152 253.896 165.212 254.305C163.748 254.512 162.287 254.553 160.856 254.508C160.369 254.494 159.882 254.468 159.399 254.431C159.307 254.424 158.909 254.328 158.82 254.379H158.816Z" fill="#91C163"/>
<path d="M158.975 254.372C158.92 254.347 158.827 254.122 158.802 254.077C157.422 251.768 155.674 249.301 153.324 247.582C152.107 246.689 150.598 246.022 149.156 246.339C147.013 246.807 145.881 248.703 146.01 250.618C146.216 253.727 149.639 254.756 152.605 254.892C154.084 254.959 155.541 254.867 156.961 254.69C157.448 254.631 157.927 254.561 158.403 254.476C158.492 254.461 158.883 254.328 158.975 254.369V254.372Z" fill="#91C163"/>
<path d="M146.423 248.6L158.978 254.372" stroke="#96DD90" stroke-width="0.339339" stroke-miterlimit="10"/>
<path d="M158.816 254.38L170.487 247.065" stroke="#96DD90" stroke-width="0.339339" stroke-miterlimit="10"/>
<path d="M133 154C133 155.176 109.086 260.612 109.086 260.612" stroke="#7F7F7F" stroke-width="1.4738" stroke-linecap="round" stroke-linejoin="round"/>
<path d="M111.442 154C111.442 155.176 84 260.612 84 260.612" stroke="#7F7F7F" stroke-width="1.4738" stroke-linecap="round" stroke-linejoin="round"/>
<path d="M123.683 192.217H102.03" stroke="#7F7F7F" stroke-width="1.4738" stroke-linecap="round" stroke-linejoin="round"/>
<path d="M126.595 179.937H104.645" stroke="#7F7F7F" stroke-width="1.4738" stroke-linecap="round" stroke-linejoin="round"/>
<path d="M129.21 167.652H108.436" stroke="#7F7F7F" stroke-width="1.4738" stroke-linecap="round" stroke-linejoin="round"/>
<path d="M120.586 204.76H98.5967" stroke="#7F7F7F" stroke-width="1.4738" stroke-linecap="round" stroke-linejoin="round"/>
<path d="M118.364 217.157L95.4531 217.428" stroke="#7F7F7F" stroke-width="1.4738" stroke-linecap="round" stroke-linejoin="round"/>
<path d="M114.965 229.846H92.3252" stroke="#7F7F7F" stroke-width="1.4738" stroke-linecap="round" stroke-linejoin="round"/>
<path d="M112.707 242.389H89.2285" stroke="#7F7F7F" stroke-width="1.4738" stroke-linecap="round" stroke-linejoin="round"/>
<path d="M145.393 262.027L145.242 262.105L143.058 263.221L145.315 267.642C145.315 267.642 146.337 269.305 148.746 268.945L148.767 268.987C148.767 268.987 148.803 268.951 148.819 268.93C148.845 268.93 148.871 268.924 148.897 268.919L148.876 268.878C150.581 267.141 149.835 265.337 149.835 265.337L147.583 260.911L145.399 262.027H145.393Z" fill="#424242"/>
<path d="M146.468 263.399C146.541 263.539 146.452 263.732 146.275 263.826C146.092 263.92 145.889 263.878 145.811 263.738L142.38 257.012C142.307 256.866 142.396 256.678 142.578 256.585C142.761 256.491 142.964 256.532 143.037 256.673L146.462 263.399H146.468Z" fill="#898989"/>
<path d="M141.777 252.404L139.585 253.521L141.986 258.231L144.178 257.114L141.777 252.404Z" fill="#663914"/>
<path d="M137.746 256.574C138.455 257.361 139.826 258.002 140.9 257.471C140.868 257.299 140.785 257.179 140.743 257.007C141.489 256.584 142.87 257.069 143.043 256.125C143.256 254.942 141.447 254.733 140.879 254.342C139.57 253.446 137.865 251.684 136.062 252.81C136.213 253.884 136.76 254.838 137.209 255.823" fill="#FFD5BA"/>
<path d="M120.691 226.2C123.835 226.92 125.165 229.412 126.948 231.747C129.179 234.657 131.212 237.707 132.698 241.069C134.44 245.032 137.38 248.686 140.195 251.888C139.763 252.237 135.905 255.939 136.019 256.1C133.46 252.644 129.69 249.906 126.906 246.549C124.716 243.911 123.069 240.84 120.817 238.249" fill="#5D66B5"/>
<path d="M100.754 264.412C100.509 264.516 100.28 264.651 100.097 264.87C99.5864 265.47 99.3935 266.471 98.9295 267.138C98.1318 268.291 97.0161 269.271 96.2967 267.441C95.6762 265.866 96.4374 263.65 96.5417 262.05C96.6407 260.6 96.5417 258.301 98.0432 257.483C99.2371 256.836 101.343 257.29 101.99 258.536C102.391 259.318 102.72 262.988 102.198 263.676C101.87 264.109 101.281 264.182 100.754 264.412Z" fill="#3F3F3F"/>
<path d="M99.6963 266.116C99.4513 266.221 99.2219 266.356 99.0394 266.575C98.5285 267.175 98.3356 268.176 97.8716 268.843C97.0739 269.995 95.9582 270.975 95.2387 269.145C94.6235 267.571 95.3795 265.36 95.4837 263.76C95.5828 262.31 95.4837 260.006 96.9853 259.193C98.1792 258.546 100.285 259 100.932 260.246C101.333 261.028 101.662 264.698 101.141 265.386C100.812 265.819 100.223 265.897 99.6963 266.122V266.116Z" fill="#3F3F3F"/>
<path d="M116.219 252.274C119.102 253.129 121.63 255.272 124.159 256.763C126.156 257.942 128.486 260.366 128.648 262.874C128.809 265.35 127.047 267.363 124.67 267.503C120.749 267.743 116.599 267.055 112.668 266.857C108.497 266.643 104.326 266.487 100.15 266.455C99.9104 263.911 99.4359 260.898 99.9364 258.411C100.249 258.473 104.066 258.583 104.04 258.546C102.46 256.383 103.164 252.389 105.176 250.721C107.892 248.468 113.179 249.23 116.318 249.808" fill="#424099"/>
<path d="M103.747 251.518C103.778 251.523 122.464 254.834 122.464 254.834C123.116 247.754 125.613 234.052 121.343 228.083C114.847 219.001 109.362 229.709 107.256 236.503C106.912 237.618 102.683 251.33 103.742 251.523L103.747 251.518Z" fill="#5D66B5"/>
<path d="M126.14 215.58C125.864 215.319 125.556 215.079 125.264 214.85C122.939 212.963 120.462 214.438 118.872 216.482C117.949 217.66 117.798 219.485 118.116 220.903C118.45 222.41 119.336 223.442 120.666 224.12C122.371 224.985 124.326 224.068 125.546 222.801C126.317 221.998 126.656 220.621 126.74 219.532C126.792 218.844 126.661 218.155 126.797 217.478C126.969 216.628 126.823 216.237 126.14 215.59V215.58Z" fill="#FFD5BA"/>
<path d="M121.829 224.485C121.975 225.961 120.895 227.275 119.415 227.421C117.939 227.567 116.625 226.487 116.479 225.007L116.088 221.008C115.942 219.533 117.027 218.219 118.502 218.073C119.978 217.927 121.292 219.011 121.438 220.487L121.829 224.485Z" fill="#FFD5BA"/>
<path d="M125.733 219.667C125.67 219.818 125.603 219.969 125.54 220.121" stroke="black" stroke-width="0.495292" stroke-linecap="round" stroke-linejoin="round"/>
<path d="M122.589 218.531C122.527 218.682 122.459 218.834 122.396 218.985" stroke="black" stroke-width="0.495292" stroke-linecap="round" stroke-linejoin="round"/>
<path d="M124.054 219.714C124.316 220.021 124.226 220.627 123.747 220.572" stroke="#A75454" stroke-width="0.429269" stroke-linecap="round" stroke-linejoin="round"/>
<path d="M119.258 216.216C119.352 216.414 119.404 216.669 119.409 216.909" stroke="black" stroke-width="0.495292" stroke-linecap="round" stroke-linejoin="round"/>
<path d="M126.603 218.562C126.463 218.406 126.254 218.317 126.035 218.322" stroke="black" stroke-width="0.495292" stroke-linecap="round" stroke-linejoin="round"/>
<path d="M122.673 216.898C122.996 217.003 123.319 216.914 123.554 217.196" stroke="black" stroke-width="0.495292" stroke-linecap="round" stroke-linejoin="round"/>
<path d="M124.138 221.984C123.888 222.335 123.554 223.113 123.032 223.099C122.386 223.082 122.724 222.256 122.808 221.821" stroke="#FF8B8B" stroke-width="0.417269" stroke-linecap="round" stroke-linejoin="round"/>
<path d="M122.058 211.222C120.103 210.799 118.033 210.966 116.729 211.847C114.123 213.604 114.42 217.598 115.906 219.965C116.078 220.241 116.26 220.523 116.516 220.721C116.985 219.245 118.601 217.885 119.988 217.217C121.588 216.446 122.407 217.003 123.106 215.273C123.789 215.836 124.451 216.482 125.102 217.04C125.066 216.753 125.16 216.456 125.097 216.138C125.733 216.581 126.406 216.998 127.037 217.441C128.549 214.183 124.826 211.816 122.058 211.222Z" fill="#925F21"/>
<path d="M119.149 218.135C119.592 217.076 117.986 216.347 117.366 217.217C116.917 217.848 116.881 219.668 118.069 219.318" fill="#FFD5BA"/>
<path d="M103.836 258.623C109.227 260.406 115.066 260.552 120.546 261.955" stroke="#DBDBDB" stroke-width="0.495292" stroke-miterlimit="10"/>
<path d="M149.496 108.067C146.407 105.581 142.098 107.898 144.654 111.748" stroke="#FFE609" stroke-width="1.17615" stroke-linecap="round" stroke-linejoin="round"/>
<path d="M142.588 112.936L146.877 119.142L155.353 113.492L151.064 107.282L142.588 112.936Z" fill="#FFE609"/>
<path d="M153.377 113.849L160.614 117.099L162.065 116.193L161.516 120.588L160.218 118.781L149.903 116.087" fill="#FFE609"/>
<path d="M126.611 150.8C127.736 151.102 130.92 151.369 131.226 152.772C131.559 154.309 128.195 153.925 127.258 153.917C126.333 153.909 124.478 154.16 124.02 153.29C123.549 152.396 124.498 151.067 124.604 150.177C125.455 150.232 127.305 150.683 127.736 150.33" fill="#603C15"/>
<path d="M130.116 125.281C131.794 125.175 131.884 136.192 131.821 137.458C131.759 138.732 128.575 150.886 128.183 150.874L124.271 150.756L125.647 138.466C125.647 138.466 126.788 133.996 120.762 125.881C120.762 125.881 130.096 125.281 130.116 125.281Z" fill="#CAEAFF"/>
<path d="M113.184 150.749C114.187 151.341 117.183 152.451 117.1 153.886C117.01 155.454 113.87 154.184 112.972 153.925C112.082 153.666 110.232 153.415 110.024 152.451C109.812 151.463 111.078 150.44 111.419 149.608C112.223 149.887 113.885 150.82 114.395 150.596" fill="#603C15"/>
<path d="M123.397 127.1C125.04 127.449 122.178 138.085 121.778 139.289C121.374 140.5 115.05 151.356 114.678 151.238L110.941 150.078L115.56 138.603C115.56 138.603 117.857 134.604 114.227 125.171C114.227 125.171 123.377 127.096 123.401 127.1H123.397Z" fill="#CAEAFF"/>
<path d="M132.249 126.203L113.003 126.904C113.344 120.875 114.038 114.77 115.343 108.87C115.943 106.153 116.665 101.327 119.001 99.4295C126.188 93.5919 130.375 106.42 131.265 111.011C131.504 112.25 132.845 126.179 132.249 126.203Z" fill="#965FC1"/>
<path d="M126.172 90.1103C125.976 89.9025 125.745 89.7064 125.475 89.53C123.448 88.197 121.731 89.4594 120.558 91.3256C119.743 92.6194 119.935 95.348 121.291 96.3556C122.832 97.4965 125.624 97.0809 126.463 95.2461C127.302 93.4113 127.451 91.455 126.169 90.1063L126.172 90.1103Z" fill="#FFD5BA"/>
<path d="M124.169 97.8649C124.201 97.3905 124.22 96.9122 124.173 96.4809C124.059 95.442 123.22 94.7245 122.836 93.7993C122.664 93.3877 122.73 92.7251 122.48 92.3722C121.837 91.4588 120.288 91.7724 119.747 92.533C118.833 93.815 119.5 95.3126 119.747 96.673C119.974 97.9158 120.131 98.8176 121.401 99.3547C121.986 99.6017 122.962 99.9075 123.593 99.7428C124.679 99.4566 124.107 98.8097 124.165 97.8649H124.169Z" fill="#FFD5BA"/>
<path d="M122.656 87.1265C122.287 87.0284 121.911 86.9736 121.519 87.0128C120.382 87.1147 119.484 88.236 118.861 89.0985C118.026 90.2511 117.301 91.392 116.983 92.6857C116.579 94.3363 117.179 95.928 116.011 97.4295C117.014 97.5785 120.119 97.5668 120.825 96.6807C121.935 95.2889 119.888 93.9011 120.794 92.4975C121.813 90.9097 124.506 91.6703 125.196 89.4709C124.953 90.2511 127.043 90.7176 127.11 91.7174C127.263 90.0786 126.992 88.4829 125.181 88.0438C124.334 87.84 123.515 87.3578 122.656 87.1265Z" fill="#925F21"/>
<path d="M121.527 92.0234C121.508 91.6313 121.672 91.2706 121.253 91.0942C120.963 90.9727 120.453 91.2902 120.304 91.5215C119.916 92.1371 120.139 93.0584 120.967 93.078" fill="#FFD5BA"/>
<path d="M125.2 135.572C125.094 132.636 124.028 129.535 122.746 126.951" stroke="#8EC3EF" stroke-width="0.368528" stroke-linecap="round" stroke-linejoin="round"/>
<path d="M142.977 108.776C143.741 109.125 144.945 109.152 145.556 108.431C145.478 108.317 145.376 108.254 145.298 108.141C145.709 107.596 146.866 107.509 146.689 106.772C146.47 105.843 145.086 106.267 144.549 106.165C143.314 105.925 141.514 105.185 140.558 106.576C141.008 107.313 141.71 107.831 142.349 108.403" fill="#FFD5BA"/>
<path d="M142.937 109.246L142.67 105.612C142.67 105.612 129.121 104.228 124.589 98.8135L117.881 106.09C117.881 106.09 130.16 110.806 142.937 109.246Z" fill="#965FC1"/>
<path d="M126.059 92.8438V93.2358" stroke="black" stroke-width="0.392051" stroke-linecap="round" stroke-linejoin="round"/>
<path d="M123.412 92.9883V93.3803" stroke="black" stroke-width="0.392051" stroke-linecap="round" stroke-linejoin="round"/>
<path d="M124.882 93.3809C125.215 93.5455 125.352 94.0905 124.929 94.212" stroke="black" stroke-width="0.392051" stroke-linecap="round" stroke-linejoin="round"/>
<path d="M124.541 95.8664C124.043 96.0742 123.486 95.4861 123.298 95.0156" stroke="black" stroke-width="0.392051" stroke-linecap="round" stroke-linejoin="round"/>
<path d="M120.75 91.7812C120.879 91.8989 120.997 92.0674 121.075 92.2399" stroke="black" stroke-width="0.392051" stroke-linecap="round" stroke-linejoin="round"/>
<path d="M126.352 91.7658C126.203 91.6952 126.023 91.6952 125.862 91.7658" stroke="black" stroke-width="0.392051" stroke-linecap="round" stroke-linejoin="round"/>
<path d="M123.741 91.5381C123.538 91.5185 123.334 91.5381 123.153 91.6361" stroke="black" stroke-width="0.392051" stroke-linecap="round" stroke-linejoin="round"/>
<mask id="mask0_425_5341" style="mask-type:luminance" maskUnits="userSpaceOnUse" x="139" y="73" width="86" height="78">
<path d="M224.389 73H139V151H224.389V73Z" fill="white"/>
</mask>
<g mask="url(#mask0_425_5341)">
<path d="M164.962 146.047L164.723 145.94L161.213 144.4L158.098 151.507C158.098 151.507 157.096 154.384 159.916 156.942L159.887 157.012C159.929 157.016 159.97 157.02 160.007 157.024C160.039 157.053 160.064 157.077 160.097 157.106L160.126 157.036C163.915 157.381 165.356 154.692 165.356 154.692L168.472 147.59L164.962 146.051V146.047Z" fill="#898989"/>
<path d="M163.574 150.193C163.496 150.378 163.23 150.436 162.979 150.329C162.729 150.218 162.593 149.984 162.675 149.799L172.922 126.572C173.004 126.391 173.271 126.33 173.517 126.436L173.337 126.391C173.587 126.502 173.903 126.781 173.821 126.966L163.574 150.193Z" fill="#B7B7B7"/>
<path d="M172.885 127.98C172.7 127.902 172.569 127.733 172.54 127.532L171.604 120.746C171.576 120.545 171.658 120.348 171.818 120.221C171.978 120.098 172.191 120.065 172.38 120.143L178.727 122.725C178.912 122.803 179.043 122.971 179.072 123.172C179.101 123.374 179.018 123.575 178.858 123.698L173.452 127.902C173.292 128.025 173.078 128.054 172.889 127.98H172.885ZM172.856 121.563L173.526 126.407L177.385 123.406L172.856 121.563Z" fill="#663914"/>
<path d="M203.629 151.963C202.537 152.509 199.331 153.461 199.318 154.968C199.302 156.614 202.672 155.506 203.629 155.296C204.577 155.091 206.531 154.955 206.815 153.966C207.106 152.948 205.854 151.79 205.554 150.899C204.692 151.133 202.894 151.991 202.373 151.725" fill="#603C15"/>
<path d="M190.061 126.384C188.304 126.273 188.209 137.809 188.275 139.135C188.341 140.469 191.674 153.195 192.085 153.183L196.182 153.06L194.741 140.19C194.741 140.19 193.546 135.51 199.856 127.012C199.856 127.012 190.081 126.384 190.061 126.384Z" fill="#2E5972"/>
<path d="M204.265 132.989C204.889 131.063 205.936 128.719 207.668 125.952C207.668 125.952 197.877 126.1 197.853 126.1C196.096 126.129 196.909 137.636 197.081 138.954C197.253 140.28 201.584 152.702 201.991 152.657L206.063 152.209C206.063 152.209 203.612 139.512 203.608 139.491C203.186 137.291 203.452 134.811 204.491 132.849C205.78 130.411 208.514 127.389 207.377 124.331C206.166 121.075 198.957 121.744 196.519 122.52" fill="#2E5972"/>
<path d="M188.32 129.604L207.701 124.033C205.398 118.142 202.718 112.296 199.499 106.849C198.017 104.34 195.726 99.7754 192.783 98.6465C183.731 95.1775 183.743 109.308 184.351 114.164C184.515 115.474 187.721 129.777 188.316 129.604H188.32Z" fill="#F4933B"/>
<path d="M183.973 90.4643C184.17 90.2385 184.404 90.0251 184.679 89.828C186.744 88.3501 188.591 89.5981 189.897 91.503C190.804 92.8207 190.718 95.6862 189.338 96.7987C188.394 97.5582 187.22 97.5993 186.083 97.3817C185.221 97.2175 184.642 97.0451 184.006 96.3759C183.476 95.8217 183.242 95.0992 183.098 94.3602C182.832 92.9891 183.029 91.5399 183.973 90.4643Z" fill="#FFD5BA"/>
<path d="M187.528 87.2003C189.602 86.5558 191.457 88.2143 192.122 90.0617C192.717 91.7202 191.765 94.405 190.238 95.3123C189.987 94.442 189.741 93.5347 189.413 92.7137C189.203 92.1923 188.924 91.6915 188.477 91.3343C188.107 91.0346 187.253 90.8499 187.184 90.2916C187.077 90.7801 186.699 91.2235 186.215 91.4C186.153 90.9895 186.469 90.6323 186.518 90.2382C186.194 90.8294 185.295 91.3589 184.671 91.5888C184.745 91.2563 185.057 90.8909 185.016 90.542C184.967 90.5954 184.909 90.6487 184.848 90.7021C184.256 91.2317 183.263 91.7489 182.512 91.6504C183.05 90.2218 183.185 88.7521 184.913 88.2636C185.792 88.0132 186.629 87.4754 187.516 87.2003H187.528Z" fill="#563C31"/>
<path d="M189.011 92.6722C189.015 92.2617 188.83 91.8881 189.261 91.687C189.561 91.5474 190.107 91.8594 190.271 92.0934C190.702 92.7215 190.509 93.6945 189.643 93.7478" fill="#FFD5BA"/>
<path d="M190.611 97.7929C190.853 98.7987 190.233 99.8086 189.228 100.051C188.222 100.293 187.212 99.6732 186.97 98.6674L186.502 96.7215C186.259 95.7157 186.879 94.7058 187.885 94.4636C188.891 94.2214 189.901 94.8413 190.143 95.847L190.611 97.7929Z" fill="#FFD5BA"/>
<path d="M184.101 93.1006C184.133 93.232 184.166 93.3674 184.195 93.4988" stroke="black" stroke-width="0.410526" stroke-linecap="round" stroke-linejoin="round"/>
<path d="M186.83 92.6035C186.863 92.7349 186.896 92.8704 186.924 93.0017" stroke="black" stroke-width="0.410526" stroke-linecap="round" stroke-linejoin="round"/>
<path d="M185.43 93.3643C185.13 93.6147 185.122 94.2017 185.582 94.2264" stroke="black" stroke-width="0.410526" stroke-linecap="round" stroke-linejoin="round"/>
<path d="M186.387 95.8067C186.945 95.897 187.368 95.1581 187.442 94.6367" stroke="black" stroke-width="0.410526" stroke-linecap="round" stroke-linejoin="round"/>
<path d="M189.655 92.4189C189.553 92.5667 189.471 92.772 189.434 92.9649" stroke="black" stroke-width="0.410526" stroke-linecap="round" stroke-linejoin="round"/>
<path d="M183.538 92.0744C183.674 91.9635 183.858 91.9225 184.035 91.9553" stroke="black" stroke-width="0.410526" stroke-linecap="round" stroke-linejoin="round"/>
<path d="M177.713 122.304C177.253 122.973 176.272 123.601 175.405 123.31C175.414 123.179 175.463 123.076 175.475 122.941C174.864 122.694 173.862 123.203 173.64 122.505C173.357 121.627 174.712 121.286 175.106 120.929C176.009 120.112 177.126 118.597 178.612 119.27C178.612 120.104 178.287 120.884 178.045 121.68" fill="#FFD5BA"/>
<path d="M177.778 122.702C177.766 122.678 176.177 119.562 176.177 119.562C175.73 118.683 183.821 113.942 184.371 113.055C185.324 111.516 184.704 109.061 185.024 107.246C185.685 103.482 187.922 103.65 191.309 103.847C191.243 103.847 191.383 112.452 191.371 113.289C191.309 116.91 187.339 119.435 184.178 120.568C183.456 120.826 177.766 122.682 177.778 122.702Z" fill="#F4933B"/>
<path d="M185.39 120.036C188.267 119.56 193.231 117.635 193.805 114.646C194.38 111.649 194.019 108.87 194.011 105.873" stroke="#FFAD69" stroke-width="0.410526" stroke-linecap="round" stroke-linejoin="round"/>
<path d="M184.293 113.127C185.221 112.626 186.411 112.01 186.756 111.083C187.146 110.044 186.957 107.7 186.892 106.559" stroke="#FFAD69" stroke-width="0.410526" stroke-linecap="round" stroke-linejoin="round"/>
<path d="M186.075 111.896C186.888 112.195 187.836 112.47 188.538 112.992" stroke="#FFAD69" stroke-width="0.410526" stroke-linecap="round" stroke-linejoin="round"/>
</g>
<path d="M119.602 87.8566C118.032 88.6244 113.882 90.1218 114.003 92.2245C114.072 93.3692 120.919 89.9731 121.39 89.7241C122.718 89.0221 127.4 88.3512 127.705 86.5252C128.064 84.3775 122.839 86.5874 121.566 86.9471" fill="#FFF1CA"/>
<path d="M117.693 89.0291C117.33 86.8365 117.057 84.5194 119.768 84.049C121.888 83.6824 123.206 85.4255 123.053 87.4728" fill="#FFF1CA"/>
<path d="M117.638 88.6241C119.277 88.2056 121.992 87.3687 123.285 86.3174" stroke="#663914" stroke-width="0.691671" stroke-linecap="round" stroke-linejoin="round"/>
<path d="M63.8028 213.579C64.7051 213.302 65.7352 212.43 65.7087 211.365C65.5591 211.325 65.427 211.352 65.2774 211.316C65.2157 210.551 66.1225 209.617 65.427 209.129C64.5511 208.512 63.7059 209.899 63.1777 210.212C61.9628 210.933 59.8984 211.651 60.1361 213.531C61.0604 213.812 62.0376 213.724 63.0016 213.733" fill="#FFD5BA"/>
<path d="M49.6948 209.595C48.2422 208.323 46.7147 207.57 45.2974 208.714C41.6219 211.681 43.2945 215.462 46.6267 217.549C47.3882 218.024 48.0705 218.539 48.9729 218.667C50.245 218.847 51.209 220.111 52.4547 220.177C53.4099 220.23 54.3255 219.807 55.1442 219.358C56.3767 218.676 57.6885 218.231 58.9078 217.588C60.2635 216.875 61.5841 216.101 62.9618 215.432C63.2347 215.3 63.5076 215.167 63.7806 215.035C63.7629 215.044 61.7997 210.598 61.4784 210.229C59.5108 211.012 57.5476 211.937 55.668 212.804C55.514 212.874 53.9117 213.768 53.9161 213.772C51.9309 212.359 46.948 204.792 43.924 206.148" fill="#BA3E90"/>
<path d="M53.947 213.794C53.9162 214.34 53.9822 214.89 54.0967 215.427" stroke="#FF8FD4" stroke-width="0.440181" stroke-miterlimit="10"/>
<path d="M50.6765 235.05C52.5605 234.931 52.6618 247.3 52.5913 248.722C52.5209 250.152 48.9466 263.798 48.5065 263.785L44.1134 263.653L45.6585 249.853C45.6585 249.853 46.9394 244.835 40.1738 235.723C40.1738 235.723 50.6545 235.05 50.6765 235.05Z" fill="#6FA3C1"/>
<path d="M48.3254 239.816C47.938 242.422 46.6483 244.411 45.5434 246.727C43.9147 250.147 41.124 251.467 37.8975 253.241C36.9027 253.787 35.9431 254.39 34.9439 254.936C33.7157 255.605 32.3424 256.732 31.0571 257.207C30.3352 257.472 28.2443 254.025 27.8525 253.404C29.1115 252.599 30.5288 251.952 31.6381 250.935C32.7518 249.914 33.8214 248.844 34.8778 247.766C35.8682 246.753 36.8454 245.732 37.8534 244.737C38.3421 244.257 38.9143 243.522 39.5658 243.258C38.2496 239.697 35.8066 236.955 33.9799 233.675C37.9635 233.552 46.12 229.714 47.9468 235.036C48.4794 236.589 48.5675 238.214 48.3254 239.825V239.816Z" fill="#6FA3C1"/>
<path d="M54.3917 236.083L32.7832 236.871C33.1662 230.101 33.9453 223.247 35.4111 216.623C36.0846 213.572 36.8945 208.154 39.518 206.023C47.5865 199.469 52.2876 213.872 53.2868 219.026C53.5553 220.417 55.0608 236.057 54.3917 236.083Z" fill="#F946AD"/>
<path d="M47.5687 195.56C47.3486 195.327 47.0889 195.107 46.7852 194.909C44.5094 193.412 42.5815 194.829 41.2653 196.925C40.3497 198.377 40.5654 201.441 42.0885 202.572C43.8184 203.853 46.9524 203.386 47.8944 201.326C48.8364 199.266 49.0037 197.07 47.5643 195.556L47.5687 195.56Z" fill="#FFD5BA"/>
<path d="M45.3192 204.267C45.3545 203.734 45.3765 203.197 45.3236 202.713C45.196 201.547 44.254 200.741 43.8226 199.702C43.629 199.24 43.7038 198.496 43.4221 198.1C42.7002 197.075 40.9615 197.427 40.354 198.281C39.3284 199.72 40.0767 201.401 40.354 202.929C40.6093 204.324 40.7854 205.337 42.2116 205.94C42.8674 206.217 43.9635 206.56 44.6722 206.376C45.8915 206.054 45.2488 205.328 45.3148 204.267H45.3192Z" fill="#FFD5BA"/>
<path d="M43.6248 192.21C43.211 192.1 42.7884 192.039 42.3483 192.083C41.0717 192.197 40.0637 193.456 39.3638 194.42C37.788 196.59 36.8812 198.254 34.469 199.482C32.4486 200.512 30.6527 201.058 31.2909 203.814C31.7047 205.605 34.3458 205.491 34.6099 206.899C34.9884 208.911 31.5462 208.766 31.0048 210.412C30.2609 212.67 34.7199 215.417 36.4762 213.832C37.3654 213.031 37.0749 211.503 37.9112 210.936C38.9325 210.245 39.9889 211.803 40.7636 210.755C41.732 209.452 40.3939 207.824 40.724 206.415C41.195 204.425 41.9697 202.977 41.666 200.811C41.4547 199.293 41.6924 198.052 43.1098 197.277C44.1222 196.727 46.6312 196.058 46.5652 194.521C47.2871 195.076 48.0178 195.565 48.1807 196.529C48.1586 196.41 48.6517 195.846 48.6957 195.639C48.7793 195.248 48.7133 194.913 48.4844 194.583C48.0486 193.953 47.1947 193.412 46.4596 193.236C45.5088 193.007 44.5888 192.466 43.6248 192.206V192.21Z" fill="#563C31"/>
<path d="M42.8504 198.042C42.9957 196.973 41.6399 196.097 40.9753 197.144C40.5395 197.835 40.7904 198.87 41.7192 198.892" fill="#FFD5BA"/>
<path d="M45.1559 246.604C45.0371 243.307 43.8398 239.826 42.4004 236.925" stroke="#8EC3EF" stroke-width="0.41377" stroke-linecap="round" stroke-linejoin="round"/>
<path d="M41.036 243.549C40.6002 243.395 40.1204 243.285 39.6582 243.197" stroke="#8EC3EF" stroke-width="0.41377" stroke-linecap="round" stroke-linejoin="round"/>
<path d="M47.4453 198.629V199.069" stroke="black" stroke-width="0.440181" stroke-linecap="round" stroke-linejoin="round"/>
<path d="M44.4736 198.792V199.232" stroke="black" stroke-width="0.440181" stroke-linecap="round" stroke-linejoin="round"/>
<path d="M46.124 199.232C46.4982 199.417 46.6522 200.029 46.1768 200.166" stroke="black" stroke-width="0.440181" stroke-linecap="round" stroke-linejoin="round"/>
<path d="M45.7372 202.023C45.1781 202.256 44.5531 201.596 44.3418 201.067" stroke="black" stroke-width="0.440181" stroke-linecap="round" stroke-linejoin="round"/>
<path d="M41.4805 197.437C41.6257 197.569 41.7578 197.758 41.8458 197.952" stroke="black" stroke-width="0.440181" stroke-linecap="round" stroke-linejoin="round"/>
<path d="M47.7748 197.419C47.6076 197.34 47.4051 197.34 47.2246 197.419" stroke="black" stroke-width="0.440181" stroke-linecap="round" stroke-linejoin="round"/>
<path d="M44.839 197.163C44.6101 197.141 44.3812 197.163 44.1787 197.273" stroke="black" stroke-width="0.440181" stroke-linecap="round" stroke-linejoin="round"/>
<path d="M67.3939 200.161C67.3939 200.289 66.6016 211.866 66.6016 211.866C66.6016 211.866 67.3895 212.297 68.4459 211.91L67.724 200.126L67.3939 200.161Z" fill="#91C163"/>
<path d="M67.5557 200.257C67.5953 200.235 67.6481 200.059 67.6657 200.024C68.5373 198.197 69.6729 196.234 71.3104 194.782C72.16 194.029 73.2428 193.426 74.3433 193.562C75.9807 193.765 76.9579 195.103 76.9975 196.547C77.0592 198.889 74.5722 199.897 72.3624 200.205C71.262 200.359 70.1659 200.39 69.0919 200.359C68.7265 200.35 68.3612 200.328 67.9958 200.302C67.9254 200.297 67.6261 200.222 67.5601 200.262L67.5557 200.257Z" fill="#91C163"/>
<path d="M67.6705 200.25C67.6309 200.232 67.5605 200.06 67.5385 200.025C66.5041 198.286 65.1879 196.438 63.4228 195.144C62.5072 194.474 61.3759 193.973 60.2931 194.21C58.682 194.567 57.8325 195.989 57.9293 197.428C58.0834 199.765 60.6541 200.536 62.8814 200.641C63.9906 200.694 65.0867 200.619 66.1563 200.487C66.5217 200.443 66.8826 200.39 67.2392 200.329C67.3052 200.316 67.6001 200.219 67.6705 200.25Z" fill="#91C163"/>
<path d="M58.2422 195.913L67.6753 200.253" stroke="#96DD90" stroke-width="0.255305" stroke-miterlimit="10"/>
<path d="M67.5566 200.258L76.3206 194.76" stroke="#96DD90" stroke-width="0.255305" stroke-miterlimit="10"/>
<path d="M70.3906 216.87H64.4922L63.625 207.679H71.2577L70.3906 216.87Z" fill="#7C5735"/>
<path d="M71.9622 206.772H62.9209V208.278H71.9622V206.772Z" fill="#8E6842"/>
<path d="M64.0435 217.675C64.9811 217.578 66.1652 216.922 66.3457 215.875C66.2048 215.809 66.0728 215.804 65.9319 215.743C66.0199 214.981 67.0896 214.241 66.4997 213.625C65.7602 212.851 64.6598 214.048 64.0831 214.25C62.7538 214.721 60.5881 215.025 60.4561 216.918C61.31 217.376 62.2872 217.477 63.2292 217.67" fill="#FFD5BA"/>
<path d="M50.9703 211.037C49.7907 209.509 48.4393 208.471 46.8238 209.32C42.6421 211.521 43.5489 215.553 46.4189 218.243C47.0747 218.855 47.647 219.493 48.5009 219.797C49.7114 220.219 50.4157 221.645 51.6262 221.953C52.5506 222.191 53.5366 221.953 54.4214 221.667C55.7595 221.236 57.1329 221.055 58.4578 220.659C59.9236 220.223 61.3718 219.722 62.8508 219.33C63.1457 219.251 63.4363 219.176 63.7312 219.097C63.7136 219.101 62.6439 214.36 62.4018 213.938C60.3198 214.325 58.2157 214.853 56.1997 215.337C56.0324 215.377 54.2893 215.945 54.2937 215.949C52.621 214.18 49.1964 205.79 45.9655 206.534" fill="#F946AD"/>
<path d="M54.329 215.98C54.1925 216.513 54.1485 217.063 54.1573 217.614" stroke="#FF8FD4" stroke-width="0.440181" stroke-miterlimit="10"/>
<path d="M44.28 257.741C45.7238 258.78 48.3561 258.331 50.2004 258.437C49.6238 259.969 49.4697 262.24 49.5886 263.869C49.571 263.64 54.8576 263.23 54.3469 266.29C54.1137 267.694 52.8327 267.967 51.609 268.24C50.9884 268.376 43.6638 268.495 43.6462 268.275C43.4349 265.273 44.0599 262.112 44.0599 259.066" fill="#055A7D"/>
<path d="M29.138 252.318C29.3625 254.079 31.4841 255.708 32.6638 257.125C31.1496 257.75 29.3845 259.181 28.2708 260.382C28.4249 260.215 32.3249 263.803 29.7454 265.515C28.5569 266.303 27.4873 265.55 26.4529 264.837C25.9291 264.476 20.8494 259.198 21.0034 259.036C23.0591 256.835 25.7926 255.14 28.0243 253.058" fill="#055A7D"/>
<path d="M215.634 263.213C215.448 263.92 215.031 264.518 214.034 265.076C212.474 265.951 210.96 266.622 209.143 266.735C209.587 265.579 210.666 264.736 211.01 263.53C211.21 262.837 211.11 262.003 211.124 261.286C211.155 259.414 211.187 257.547 211.219 255.674C211.269 252.85 210.856 241.73 210.906 238.906C214.823 238.97 216.341 238.593 214.818 244.029C213.911 247.279 213.798 250.711 213.254 254.061C212.76 257.125 216.445 260.185 215.639 263.217L215.634 263.213Z" fill="#FFD5BA"/>
<path d="M210.067 264.397L209.097 265.974L216.001 262.905L214.813 267.493L214.201 267.479L214.587 265.521L206.713 268.594L206.255 267.905L210.067 264.397Z" fill="#F74376"/>
<path d="M223.861 261.477C223.856 262.207 223.602 262.891 222.777 263.684C221.49 264.922 220.189 265.951 218.462 266.518C218.598 265.285 219.437 264.197 219.464 262.946C219.482 262.225 219.178 261.441 219.01 260.742C218.575 258.925 220.855 257.107 220.416 255.285C219.754 252.537 221.109 241.876 220.447 239.128C224.255 238.213 221.889 236.558 221.776 242.197C221.708 245.57 222.46 248.92 222.773 252.302C223.059 255.393 223.884 258.34 223.861 261.477Z" fill="#FFD5BA"/>
<path d="M218.771 264.02L218.222 265.788L224.142 261.087L224.138 265.824L223.544 265.965L223.426 263.97L216.576 268.92L215.96 268.367L218.771 264.02Z" fill="#F74376"/>
<path d="M206.98 230.457C206.98 231.137 209.927 261.736 209.927 261.736L216.273 261.056L216.727 230.457" fill="#025CA4"/>
<path d="M215.557 229.822C215.588 230.502 218.58 260.933 218.58 260.933L224.89 259.963L225.294 229.314" fill="#025CA4"/>
<path d="M198.526 240.924H189.745L188.453 227.238H199.818L198.526 240.924Z" fill="#FFDB27"/>
<path d="M200.267 225.969H188V230.597H200.267V225.969Z" fill="#FFDB27"/>
<path d="M188.906 226.186C188.906 224.223 191.318 222.632 194.292 222.632C197.265 222.632 199.677 224.223 199.677 226.186" stroke="#281000" stroke-width="0.253856" stroke-miterlimit="10"/>
<path d="M191.88 222.745C191.88 222.31 192.233 221.961 192.664 221.961H195.47C195.905 221.961 196.254 222.315 196.254 222.745C196.254 223.18 195.901 223.529 195.47 223.529H192.664C192.229 223.529 191.88 223.176 191.88 222.745Z" fill="#93214A"/>
<path d="M226.291 231.028C226.255 231.028 205.733 231.69 205.733 231.69C206.128 225.253 206.894 218.739 208.313 212.442C208.784 210.352 208.653 205.516 210.684 204.187C211.676 203.539 213.617 203.843 214.772 203.689C222.95 202.605 223.843 210.062 224.9 216.128C225.09 217.229 227.452 230.987 226.291 231.028Z" fill="#A7DCEA"/>
<path d="M194.501 190.524C193.812 189.953 193.218 188.811 193.626 187.886C193.771 187.909 193.88 187.972 194.025 187.999C194.356 187.351 193.893 186.2 194.687 186.023C195.679 185.796 195.924 187.324 196.273 187.791C197.08 188.865 198.635 190.243 197.746 191.812C196.831 191.725 196.001 191.295 195.153 190.95" fill="#FFD5BA"/>
<path d="M194.057 190.552L197.67 189.105C199.311 191.744 201.255 194.251 203.341 196.549C204.991 198.367 206.704 200.062 208.622 201.599C210.825 203.371 212.398 203.702 215.272 203.884C215.222 204.74 211.119 210.973 210.766 210.896C201.831 208.974 196.763 198.371 194.057 190.552Z" fill="#A7DCEA"/>
<path d="M213.784 204.413C213.784 205.655 214.8 206.662 216.042 206.657C217.284 206.657 218.29 205.642 218.286 204.4L218.277 201.154C218.277 199.912 217.261 198.906 216.019 198.91C214.777 198.91 213.771 199.926 213.775 201.168L213.784 204.413Z" fill="#FFD5BA"/>
<path d="M213.607 201.717C214.668 202.474 216.84 202.356 217.855 201.526" stroke="#231100" stroke-width="0.271988" stroke-miterlimit="10" stroke-linecap="round"/>
<path d="M217.416 193.625C217.751 193.67 218.091 193.756 218.445 193.888C221.106 194.894 221.087 197.392 220.122 199.79C219.455 201.454 216.731 203.149 214.841 202.555C212.697 201.88 211.173 198.942 212.338 196.884C213.503 194.826 215.258 193.339 217.416 193.625Z" fill="#FFD5BA"/>
<path d="M222.665 194.913C223.014 195.194 223.322 195.516 223.553 195.91C224.6 197.674 224.17 199.954 223.186 201.649C222.143 203.444 219.863 203.471 218.036 203.199C218.956 201.971 218.975 200.167 218.716 198.698C218.44 197.134 217.606 195.566 218.689 194.11C218.118 194.881 216.237 193.217 215.239 193.843C216.69 192.569 218.39 191.731 220.049 193.145C220.829 193.811 221.849 194.256 222.655 194.913H222.665Z" fill="#0A203A"/>
<path d="M218.798 199.355C219.183 199.106 219.415 198.702 219.868 198.979C220.185 199.169 220.235 199.872 220.113 200.171C219.795 200.964 218.766 201.386 218.182 200.611" fill="#FFD5BA"/>
<path d="M216.259 196.658C215.842 196.767 215.72 197.501 216.287 197.279C216.581 197.161 216.667 196.776 216.323 196.663" fill="#231100"/>
<path d="M214.492 194.958C214.075 195.071 213.952 195.801 214.519 195.575C214.814 195.457 214.9 195.067 214.555 194.958" fill="#231100"/>
<path d="M219.605 199.781C219.329 199.867 219.084 200.031 218.88 200.239" stroke="#231100" stroke-width="0.271988" stroke-miterlimit="10" stroke-linecap="round"/>
<path d="M216.903 195.828C217.012 195.946 217.098 196.087 217.144 196.241" stroke="#231100" stroke-width="0.271988" stroke-miterlimit="10" stroke-linecap="round"/>
<path d="M215.303 194.174C215.375 194.174 215.47 194.215 215.529 194.287" stroke="#231100" stroke-width="0.271988" stroke-miterlimit="10" stroke-linecap="round"/>
<path d="M214.909 196.468C214.51 196.667 213.98 196.708 213.554 196.885C213.753 197.089 213.975 197.279 214.184 197.474" stroke="#231100" stroke-width="0.271988" stroke-miterlimit="10" stroke-linecap="round"/>
<path d="M218.775 193.956C216.989 194.604 217.583 198.308 218.929 199.06L218.775 193.956Z" fill="#0A203A"/>
<path d="M213 197.787C213.113 198.336 214.038 198.771 214.532 198.902C214.047 200.684 211.844 199.818 213.14 198.222" stroke="#231100" stroke-width="0.271988" stroke-miterlimit="10" stroke-linecap="round"/>
<path d="M212.964 199.029C213.259 199.124 213.553 199.192 213.857 199.238" stroke="#231100" stroke-width="0.271988" stroke-miterlimit="10" stroke-linecap="round"/>
<path d="M197.914 223.607C197.162 224.093 195.897 224.319 195.135 223.648C195.199 223.517 195.294 223.431 195.362 223.304C194.845 222.792 193.608 222.887 193.676 222.08C193.762 221.064 195.289 221.291 195.838 221.096C197.103 220.652 198.884 219.582 200.117 220.901C199.759 221.749 199.097 222.406 198.517 223.118" fill="#FFD5BA"/>
<path d="M197.805 224.042C197.805 224.01 197.51 220.162 197.51 220.162C197.429 219.078 207.692 217.691 208.63 217.02C210.257 215.855 210.674 213.09 211.767 211.381C214.043 207.827 216.25 208.951 219.618 210.597C219.55 210.565 216.028 219.396 215.661 220.239C214.056 223.902 208.938 224.781 205.235 224.591C204.387 224.545 197.805 224.015 197.805 224.038V224.042Z" fill="#A7DCEA"/>
<path d="M219.334 215.724C218.604 217.859 217.425 220.842 216.047 222.609C215.077 223.852 213.404 223.729 212.013 223.956C210.131 224.269 208.218 224.491 206.301 224.445" stroke="#D9F5FC" stroke-width="0.453314" stroke-miterlimit="10"/>
<path d="M207.094 217.424C208 217.329 208.961 217.157 209.823 216.853C210.902 216.468 210.426 216.558 210.965 215.847C211.953 214.546 212.855 212.837 214.12 211.758" stroke="#D9F5FC" stroke-width="0.453314" stroke-miterlimit="10"/>
<path d="M210.38 216.857C210.91 217.342 211.386 217.809 211.74 218.444" stroke="#D9F5FC" stroke-width="0.453314" stroke-miterlimit="10"/>
<path d="M210.834 204.845C209.456 205.674 209.306 208.344 208.794 209.718" stroke="#D9F5FC" stroke-width="0.453314" stroke-miterlimit="10"/>
</g>
<defs>
<clipPath id="clip0_425_5341">
<rect width="345" height="238" fill="white" transform="translate(0 31)"/>
</clipPath>
</defs>
</svg>
