<svg width="723" height="762" viewBox="0 0 723 762" fill="none" xmlns="http://www.w3.org/2000/svg">
<path d="M591.703 458.501C600.533 458.501 607.754 465.67 607.093 474.476C605.4 497.003 600.135 519.153 591.464 540.086C580.75 565.952 565.046 589.454 545.249 609.251C525.453 629.048 501.95 644.752 476.085 655.466C455.151 664.137 433.001 669.402 410.474 671.095C401.668 671.756 394.499 664.535 394.499 655.704C394.499 646.874 401.672 639.788 410.468 639.01C428.792 637.389 446.794 632.984 463.847 625.921C485.833 616.814 505.81 603.466 522.637 586.639C539.464 569.811 552.812 549.835 561.919 527.849C568.982 510.796 573.387 492.794 575.008 474.47C575.786 465.674 582.872 458.501 591.703 458.501Z" fill="#CBE0FF"/>
<path d="M445.54 648.983C447.826 657.513 442.77 666.343 434.093 667.983C411.895 672.179 389.137 672.826 366.673 669.868C338.915 666.214 312.15 657.128 287.904 643.13C263.658 629.131 242.406 610.494 225.363 588.283C211.569 570.307 200.751 550.274 193.285 528.953C190.367 520.618 195.486 511.825 204.016 509.539C212.546 507.254 221.247 512.348 224.275 520.643C230.583 537.923 239.497 554.172 250.733 568.815C265.22 587.695 283.284 603.537 303.893 615.435C324.502 627.334 347.253 635.057 370.847 638.163C389.147 640.572 407.675 640.167 425.794 636.991C434.492 635.466 443.254 640.453 445.54 648.983Z" fill="url(#paint0_linear_182_5076)"/>
<path d="M255.056 597.944C248.812 604.188 238.637 604.225 232.878 597.53C218.146 580.404 206.207 561.019 197.536 540.085C186.822 514.22 181.307 486.497 181.307 458.5C181.307 430.503 186.822 402.78 197.536 376.915C206.207 355.981 218.146 336.596 232.878 319.47C238.637 312.775 248.812 312.812 255.056 319.056C261.301 325.301 261.239 335.382 255.569 342.153C243.759 356.256 234.144 372.1 227.08 389.152C217.973 411.138 213.286 434.703 213.286 458.5C213.286 482.297 217.973 505.862 227.08 527.848C234.144 544.9 243.759 560.744 255.569 574.847C261.239 581.618 261.3 591.7 255.056 597.944Z" fill="url(#paint1_linear_182_5076)"/>
<path d="M223.716 359.898C216.069 355.483 213.399 345.664 218.375 338.369C231.105 319.706 246.74 303.156 264.716 289.363C286.927 272.319 312.278 259.818 339.321 252.572C366.364 245.325 394.569 243.477 422.326 247.131C444.791 250.089 466.606 256.604 486.962 266.401C494.919 270.231 497.516 280.069 493.101 287.717C488.686 295.365 478.931 297.915 470.924 294.19C454.245 286.432 436.452 281.246 418.152 278.836C394.559 275.73 370.584 277.302 347.598 283.461C324.611 289.62 303.063 300.246 284.183 314.733C269.54 325.97 256.724 339.358 246.158 354.416C241.086 361.645 231.364 364.314 223.716 359.898Z" fill="url(#paint2_linear_182_5076)"/>
<path d="M445.539 268.016C447.825 259.486 456.618 254.367 464.953 257.285C486.274 264.751 506.307 275.569 524.283 289.363C546.494 306.406 565.131 327.658 579.13 351.904C593.128 376.15 602.214 402.915 605.868 430.673C608.826 453.137 608.179 475.895 603.983 498.093C602.343 506.77 593.513 511.826 584.983 509.54C576.453 507.254 571.465 498.492 572.99 489.794C576.167 471.675 576.572 453.147 574.163 434.847C571.057 411.253 563.334 388.502 551.435 367.893C539.536 347.284 523.695 329.22 504.815 314.733C490.172 303.497 473.923 294.583 456.643 288.275C448.348 285.247 443.254 276.546 445.539 268.016Z" fill="url(#paint3_linear_182_5076)"/>
<path d="M591.703 458.501C600.533 458.501 607.754 465.67 607.093 474.476C604.812 504.836 596.048 534.42 581.322 561.208C566.595 587.995 546.312 611.246 521.901 629.44C514.82 634.717 504.898 632.461 500.166 625.005C495.434 617.549 497.694 607.724 504.704 602.353C524.601 587.11 541.167 567.867 553.298 545.802C565.429 523.736 572.799 499.437 575.008 474.47C575.786 465.674 582.872 458.501 591.703 458.501Z" fill="url(#paint4_linear_182_5076)"/>
<circle cx="393" cy="458" r="144.5" fill="white" stroke="url(#paint5_linear_182_5076)"/>
<path d="M303.686 418.1V432.52H308.466C312.526 432.52 314.526 430.32 314.526 426.34V424.28C314.526 420.3 312.426 418.1 308.466 418.1H303.686ZM305.666 419.84H308.286C310.866 419.84 312.506 421.14 312.506 424.38V426.24C312.506 429.48 310.866 430.76 308.286 430.76H305.666V419.84ZM320.496 421.38C317.496 421.38 315.616 423.18 315.616 426.36V427.7C315.616 430.86 317.496 432.68 320.496 432.68C323.496 432.68 325.376 430.86 325.376 427.7V426.36C325.376 423.2 323.496 421.38 320.496 421.38ZM320.496 430.98C318.756 430.98 317.576 429.86 317.576 427.54V426.52C317.576 424.2 318.756 423.08 320.496 423.08C322.236 423.08 323.416 424.2 323.416 426.52V427.54C323.416 429.86 322.236 430.98 320.496 430.98ZM335.754 425.28C335.754 422.64 334.034 421.38 331.914 421.38C330.414 421.38 329.294 421.94 328.634 422.96H328.614V421.58H326.734V432.52H328.674V425.74C328.674 424.02 330.114 423.1 331.434 423.1C333.054 423.1 333.814 423.88 333.814 425.72V432.52H335.754V425.28ZM346.306 421.58H344.366V422.72C343.926 422.08 342.966 421.38 341.306 421.38C338.746 421.38 336.966 423.12 336.966 426.08V427.82C336.966 430.78 338.466 432.48 341.226 432.48C342.546 432.48 343.746 432.08 344.366 431.04V432.38C344.366 434.32 343.366 435.22 341.486 435.22C340.406 435.22 339.386 434.84 338.666 434.3L337.786 435.82C338.686 436.52 339.946 436.98 341.426 436.98C344.646 436.98 346.306 435.44 346.306 432.38V421.58ZM344.386 428.02C344.386 429.72 343.086 430.78 341.506 430.78C339.886 430.78 338.886 429.58 338.886 427.5V426.36C338.886 424.3 339.866 423.08 341.506 423.08C343.186 423.08 344.386 424.26 344.386 425.4V428.02ZM350.161 417.4H348.221V432.52H350.101V431.24H350.141C350.621 432.02 351.581 432.68 353.221 432.68C355.781 432.68 357.561 430.94 357.561 427.98V426.04C357.561 423.08 356.041 421.38 353.281 421.38C352.081 421.38 350.861 421.76 350.161 422.84V417.4ZM350.141 425.86C350.141 424.16 351.441 423.08 353.021 423.08C354.641 423.08 355.641 424.28 355.641 426.36V427.7C355.641 429.76 354.661 430.98 353.021 430.98C351.341 430.98 350.141 429.76 350.141 428.62V425.86ZM358.775 428.82C358.775 431.46 360.455 432.72 362.575 432.72C364.075 432.72 365.155 432.16 365.815 431.14H365.835V432.52H367.715V421.58H365.775V428.36C365.775 430.08 364.375 431 363.055 431C361.435 431 360.715 430.22 360.715 428.38V421.58H358.775V428.82ZM382.869 429.38C381.669 430.56 380.229 430.9 378.849 430.9C376.669 430.9 375.069 429.44 375.069 426.14V424.48C375.069 421.18 376.669 419.72 378.849 419.72C380.149 419.72 381.289 419.98 382.589 421.04L383.609 419.42C382.269 418.36 380.829 417.88 378.849 417.88C375.429 417.88 373.069 420.02 373.069 424.22V426.4C373.069 430.64 375.409 432.74 378.849 432.74C380.789 432.74 382.509 432.28 383.949 430.9L382.869 429.38ZM389.225 421.38C386.225 421.38 384.345 423.18 384.345 426.36V427.7C384.345 430.86 386.225 432.68 389.225 432.68C392.225 432.68 394.105 430.86 394.105 427.7V426.36C394.105 423.2 392.225 421.38 389.225 421.38ZM389.225 430.98C387.485 430.98 386.305 429.86 386.305 427.54V426.52C386.305 424.2 387.485 423.08 389.225 423.08C390.965 423.08 392.145 424.2 392.145 426.52V427.54C392.145 429.86 390.965 430.98 389.225 430.98ZM402.003 421.6C401.563 421.46 401.083 421.38 400.583 421.38C398.983 421.38 398.003 422.1 397.363 423.32H397.343V421.58H395.463V432.52H397.403V426.14C397.403 424.42 398.643 423.22 400.083 423.22C400.603 423.22 401.043 423.32 401.423 423.48L402.003 421.6ZM404.483 421.58H402.603V436.8H404.543V431.32C404.983 431.96 405.943 432.68 407.563 432.68C410.183 432.68 411.943 431 411.943 427.98V426.04C411.943 423.16 410.443 421.38 407.683 421.38C406.383 421.38 405.123 421.82 404.483 422.94V421.58ZM404.523 425.86C404.523 424.16 405.823 423.08 407.403 423.08C409.023 423.08 410.023 424.28 410.023 426.36V427.7C410.023 429.76 409.043 430.98 407.403 430.98C405.723 430.98 404.523 429.76 404.523 428.62V425.86ZM417.539 421.38C414.539 421.38 412.659 423.18 412.659 426.36V427.7C412.659 430.86 414.539 432.68 417.539 432.68C420.539 432.68 422.419 430.86 422.419 427.7V426.36C422.419 423.2 420.539 421.38 417.539 421.38ZM417.539 430.98C415.799 430.98 414.619 429.86 414.619 427.54V426.52C414.619 424.2 415.799 423.08 417.539 423.08C419.279 423.08 420.459 424.2 420.459 426.52V427.54C420.459 429.86 419.279 430.98 417.539 430.98ZM430.317 421.6C429.877 421.46 429.397 421.38 428.897 421.38C427.297 421.38 426.317 422.1 425.677 423.32H425.657V421.58H423.777V432.52H425.717V426.14C425.717 424.42 426.957 423.22 428.397 423.22C428.917 423.22 429.357 423.32 429.737 423.48L430.317 421.6ZM433.957 432.68C434.917 432.68 435.557 432.5 436.137 432.18C436.557 431.94 436.957 431.6 437.157 431.2H437.177V432.52H439.037V424.86C439.037 422.66 437.317 421.38 434.877 421.38C433.117 421.38 431.817 422.02 430.757 422.76L431.717 424.2C432.737 423.54 433.577 423.1 434.857 423.1C436.457 423.1 437.117 423.8 437.117 425.26V425.9H434.337C431.537 425.9 430.357 427.2 430.357 429.06V429.6C430.357 431.52 431.757 432.68 433.957 432.68ZM437.117 428.62C437.117 429.44 436.897 429.92 436.377 430.32C435.797 430.78 435.117 431 434.157 431C433.117 431 432.257 430.54 432.257 429.48V429.2C432.257 428.16 432.857 427.54 434.377 427.54H437.117V428.62ZM441.549 429.46C441.549 431.66 442.509 432.68 444.589 432.68C445.369 432.68 446.189 432.5 446.629 432.32L446.329 430.76C445.829 430.94 445.369 431.02 444.889 431.02C444.069 431.02 443.489 430.8 443.489 429.46V423.24H446.369V421.58H443.489V418.82H441.549V421.58H439.749V423.24H441.549V429.46ZM447.502 421.58V432.52H449.442V421.58H447.502ZM447.442 417.66V419.78H449.502V417.66H447.442ZM455.738 421.38C452.738 421.38 450.858 423.18 450.858 426.36V427.7C450.858 430.86 452.738 432.68 455.738 432.68C458.738 432.68 460.618 430.86 460.618 427.7V426.36C460.618 423.2 458.738 421.38 455.738 421.38ZM455.738 430.98C453.998 430.98 452.818 429.86 452.818 427.54V426.52C452.818 424.2 453.998 423.08 455.738 423.08C457.478 423.08 458.658 424.2 458.658 426.52V427.54C458.658 429.86 457.478 430.98 455.738 430.98ZM470.996 425.28C470.996 422.64 469.276 421.38 467.156 421.38C465.656 421.38 464.536 421.94 463.876 422.96H463.856V421.58H461.976V432.52H463.916V425.74C463.916 424.02 465.356 423.1 466.676 423.1C468.296 423.1 469.056 423.88 469.056 425.72V432.52H470.996V425.28ZM471.589 421.4H473.129L474.629 416.84H472.429L471.589 421.4ZM478.953 431C477.633 431 476.513 430.5 475.533 429.84L474.633 431.36C475.673 432.16 477.213 432.68 479.033 432.68C481.573 432.68 483.193 431.34 483.193 429.62V429.36C483.193 427.34 481.933 426.54 479.273 426.04C477.573 425.72 476.913 425.4 476.913 424.54V424.36C476.913 423.6 477.573 423.04 479.193 423.04C480.293 423.04 481.353 423.38 482.073 423.92L482.933 422.46C481.853 421.7 480.533 421.38 479.053 421.38C476.213 421.38 474.973 422.82 474.973 424.34V424.58C474.973 426.5 476.313 427.28 478.733 427.78C480.793 428.2 481.233 428.5 481.233 429.42V429.58C481.233 430.46 480.393 431 478.953 431ZM338.048 455.04C339.708 455.04 340.748 456.12 340.748 457.8V458.16H335.268V457.88C335.268 456.2 336.428 455.04 338.048 455.04ZM341.548 462.02C340.608 462.62 339.648 463 338.228 463C336.488 463 335.268 461.88 335.268 459.82V459.74H342.628V458.28C342.628 455.16 340.848 453.38 338.048 453.38C335.348 453.38 333.348 455.08 333.348 458.4V459.64C333.348 463.18 335.448 464.68 338.148 464.68C340.128 464.68 341.408 464.14 342.368 463.48L341.548 462.02ZM352.842 457.28C352.842 454.64 351.122 453.38 349.002 453.38C347.502 453.38 346.382 453.94 345.722 454.96H345.702V453.58H343.822V464.52H345.762V457.74C345.762 456.02 347.202 455.1 348.522 455.1C350.142 455.1 350.902 455.88 350.902 457.72V464.52H352.842V457.28ZM358.214 462.7L355.334 453.58H353.234L356.974 464.52H359.454L363.154 453.58H361.114L358.254 462.7H358.214ZM363.767 453.58V464.52H365.707V453.58H363.767ZM363.707 449.66V451.78H365.767V449.66H363.707ZM374.223 453.6C373.783 453.46 373.303 453.38 372.803 453.38C371.203 453.38 370.223 454.1 369.583 455.32H369.563V453.58H367.683V464.52H369.623V458.14C369.623 456.42 370.863 455.22 372.303 455.22C372.823 455.22 373.263 455.32 373.643 455.48L374.223 453.6ZM379.142 453.38C376.142 453.38 374.262 455.18 374.262 458.36V459.7C374.262 462.86 376.142 464.68 379.142 464.68C382.142 464.68 384.022 462.86 384.022 459.7V458.36C384.022 455.2 382.142 453.38 379.142 453.38ZM379.142 462.98C377.402 462.98 376.222 461.86 376.222 459.54V458.52C376.222 456.2 377.402 455.08 379.142 455.08C380.882 455.08 382.062 456.2 382.062 458.52V459.54C382.062 461.86 380.882 462.98 379.142 462.98ZM394.4 457.28C394.4 454.64 392.68 453.38 390.56 453.38C389.06 453.38 387.94 453.94 387.28 454.96H387.26V453.58H385.38V464.52H387.32V457.74C387.32 456.02 388.76 455.1 390.08 455.1C391.7 455.1 392.46 455.88 392.46 457.72V464.52H394.4V457.28ZM411.173 457.34C411.173 454.82 409.793 453.38 407.553 453.38C405.833 453.38 404.853 454.14 404.153 455.2C403.593 454.04 402.473 453.38 401.013 453.38C399.493 453.38 398.513 454.1 398.093 455.06H398.073V453.58H396.153V464.52H398.093V457.6C398.093 455.88 399.433 455.14 400.633 455.14C402.013 455.14 402.693 456.06 402.693 457.96V464.52H404.633V457.7C404.633 455.92 405.953 455.14 407.173 455.14C408.553 455.14 409.233 456.06 409.233 457.96V464.52H411.173V457.34ZM417.081 455.04C418.741 455.04 419.781 456.12 419.781 457.8V458.16H414.301V457.88C414.301 456.2 415.461 455.04 417.081 455.04ZM420.581 462.02C419.641 462.62 418.681 463 417.261 463C415.521 463 414.301 461.88 414.301 459.82V459.74H421.661V458.28C421.661 455.16 419.881 453.38 417.081 453.38C414.381 453.38 412.381 455.08 412.381 458.4V459.64C412.381 463.18 414.481 464.68 417.181 464.68C419.161 464.68 420.441 464.14 421.401 463.48L420.581 462.02ZM431.875 457.28C431.875 454.64 430.155 453.38 428.035 453.38C426.535 453.38 425.415 453.94 424.755 454.96H424.735V453.58H422.855V464.52H424.795V457.74C424.795 456.02 426.235 455.1 427.555 455.1C429.175 455.1 429.935 455.88 429.935 457.72V464.52H431.875V457.28ZM434.307 461.46C434.307 463.66 435.267 464.68 437.347 464.68C438.127 464.68 438.947 464.5 439.387 464.32L439.087 462.76C438.587 462.94 438.127 463.02 437.647 463.02C436.827 463.02 436.247 462.8 436.247 461.46V455.24H439.127V453.58H436.247V450.82H434.307V453.58H432.507V455.24H434.307V461.46ZM443.241 464.68C444.201 464.68 444.841 464.5 445.421 464.18C445.841 463.94 446.241 463.6 446.441 463.2H446.461V464.52H448.321V456.86C448.321 454.66 446.601 453.38 444.161 453.38C442.401 453.38 441.101 454.02 440.041 454.76L441.001 456.2C442.021 455.54 442.861 455.1 444.141 455.1C445.741 455.1 446.401 455.8 446.401 457.26V457.9H443.621C440.821 457.9 439.641 459.2 439.641 461.06V461.6C439.641 463.52 441.041 464.68 443.241 464.68ZM446.401 460.62C446.401 461.44 446.181 461.92 445.661 462.32C445.081 462.78 444.401 463 443.441 463C442.401 463 441.541 462.54 441.541 461.48V461.2C441.541 460.16 442.141 459.54 443.661 459.54H446.401V460.62ZM450.153 449.4V464.52H452.093V449.4H450.153ZM321.016 489.34C321.016 486.82 319.636 485.38 317.396 485.38C315.676 485.38 314.696 486.14 313.996 487.2C313.436 486.04 312.316 485.38 310.856 485.38C309.336 485.38 308.356 486.1 307.936 487.06H307.916V485.58H305.996V496.52H307.936V489.6C307.936 487.88 309.276 487.14 310.476 487.14C311.856 487.14 312.536 488.06 312.536 489.96V496.52H314.476V489.7C314.476 487.92 315.796 487.14 317.016 487.14C318.396 487.14 319.076 488.06 319.076 489.96V496.52H321.016V489.34ZM325.824 496.68C326.784 496.68 327.424 496.5 328.004 496.18C328.424 495.94 328.824 495.6 329.024 495.2H329.044V496.52H330.904V488.86C330.904 486.66 329.184 485.38 326.744 485.38C324.984 485.38 323.684 486.02 322.624 486.76L323.584 488.2C324.604 487.54 325.444 487.1 326.724 487.1C328.324 487.1 328.984 487.8 328.984 489.26V489.9H326.204C323.404 489.9 322.224 491.2 322.224 493.06V493.6C322.224 495.52 323.624 496.68 325.824 496.68ZM328.984 492.62C328.984 493.44 328.764 493.92 328.244 494.32C327.664 494.78 326.984 495 326.024 495C324.984 495 324.124 494.54 324.124 493.48V493.2C324.124 492.16 324.724 491.54 326.244 491.54H328.984V492.62ZM341.757 489.28C341.757 486.64 340.037 485.38 337.917 485.38C336.417 485.38 335.297 485.94 334.637 486.96H334.617V485.58H332.737V496.52H334.677V489.74C334.677 488.02 336.117 487.1 337.437 487.1C339.057 487.1 339.817 487.88 339.817 489.72V496.52H341.757V489.28ZM346.549 496.68C347.509 496.68 348.149 496.5 348.729 496.18C349.149 495.94 349.549 495.6 349.749 495.2H349.769V496.52H351.629V488.86C351.629 486.66 349.909 485.38 347.469 485.38C345.709 485.38 344.409 486.02 343.349 486.76L344.309 488.2C345.329 487.54 346.169 487.1 347.449 487.1C349.049 487.1 349.709 487.8 349.709 489.26V489.9H346.929C344.129 489.9 342.949 491.2 342.949 493.06V493.6C342.949 495.52 344.349 496.68 346.549 496.68ZM349.709 492.62C349.709 493.44 349.489 493.92 348.969 494.32C348.389 494.78 347.709 495 346.749 495C345.709 495 344.849 494.54 344.849 493.48V493.2C344.849 492.16 345.449 491.54 346.969 491.54H349.709V492.62ZM362.262 485.58H360.322V486.72C359.882 486.08 358.922 485.38 357.262 485.38C354.702 485.38 352.922 487.12 352.922 490.08V491.82C352.922 494.78 354.422 496.48 357.182 496.48C358.502 496.48 359.702 496.08 360.322 495.04V496.38C360.322 498.32 359.322 499.22 357.442 499.22C356.362 499.22 355.342 498.84 354.622 498.3L353.742 499.82C354.642 500.52 355.902 500.98 357.382 500.98C360.602 500.98 362.262 499.44 362.262 496.38V485.58ZM360.342 492.02C360.342 493.72 359.042 494.78 357.462 494.78C355.842 494.78 354.842 493.58 354.842 491.5V490.36C354.842 488.3 355.822 487.08 357.462 487.08C359.142 487.08 360.342 488.26 360.342 489.4V492.02ZM368.316 487.04C369.976 487.04 371.016 488.12 371.016 489.8V490.16H365.536V489.88C365.536 488.2 366.696 487.04 368.316 487.04ZM371.816 494.02C370.876 494.62 369.916 495 368.496 495C366.756 495 365.536 493.88 365.536 491.82V491.74H372.896V490.28C372.896 487.16 371.116 485.38 368.316 485.38C365.616 485.38 363.616 487.08 363.616 490.4V491.64C363.616 495.18 365.716 496.68 368.416 496.68C370.396 496.68 371.676 496.14 372.636 495.48L371.816 494.02ZM389.109 489.34C389.109 486.82 387.729 485.38 385.489 485.38C383.769 485.38 382.789 486.14 382.089 487.2C381.529 486.04 380.409 485.38 378.949 485.38C377.429 485.38 376.449 486.1 376.029 487.06H376.009V485.58H374.089V496.52H376.029V489.6C376.029 487.88 377.369 487.14 378.569 487.14C379.949 487.14 380.629 488.06 380.629 489.96V496.52H382.569V489.7C382.569 487.92 383.889 487.14 385.109 487.14C386.489 487.14 387.169 488.06 387.169 489.96V496.52H389.109V489.34ZM395.017 487.04C396.677 487.04 397.717 488.12 397.717 489.8V490.16H392.237V489.88C392.237 488.2 393.397 487.04 395.017 487.04ZM398.517 494.02C397.577 494.62 396.617 495 395.197 495C393.457 495 392.237 493.88 392.237 491.82V491.74H399.597V490.28C399.597 487.16 397.817 485.38 395.017 485.38C392.317 485.38 390.317 487.08 390.317 490.4V491.64C390.317 495.18 392.417 496.68 395.117 496.68C397.097 496.68 398.377 496.14 399.337 495.48L398.517 494.02ZM409.81 489.28C409.81 486.64 408.09 485.38 405.97 485.38C404.47 485.38 403.35 485.94 402.69 486.96H402.67V485.58H400.79V496.52H402.73V489.74C402.73 488.02 404.17 487.1 405.49 487.1C407.11 487.1 407.87 487.88 407.87 489.72V496.52H409.81V489.28ZM412.243 493.46C412.243 495.66 413.203 496.68 415.283 496.68C416.063 496.68 416.883 496.5 417.323 496.32L417.023 494.76C416.523 494.94 416.063 495.02 415.583 495.02C414.763 495.02 414.183 494.8 414.183 493.46V487.24H417.063V485.58H414.183V482.82H412.243V485.58H410.443V487.24H412.243V493.46ZM425.337 495C424.017 495 422.897 494.5 421.917 493.84L421.017 495.36C422.057 496.16 423.597 496.68 425.417 496.68C427.957 496.68 429.577 495.34 429.577 493.62V493.36C429.577 491.34 428.317 490.54 425.657 490.04C423.957 489.72 423.297 489.4 423.297 488.54V488.36C423.297 487.6 423.957 487.04 425.577 487.04C426.677 487.04 427.737 487.38 428.457 487.92L429.317 486.46C428.237 485.7 426.917 485.38 425.437 485.38C422.597 485.38 421.357 486.82 421.357 488.34V488.58C421.357 490.5 422.697 491.28 425.117 491.78C427.177 492.2 427.617 492.5 427.617 493.42V493.58C427.617 494.46 426.777 495 425.337 495ZM434.337 494.32L431.437 485.58H429.337L433.317 496.68L431.897 500.42L433.657 501.04L439.337 485.58H437.297L434.417 494.32H434.337ZM443.288 495C441.968 495 440.848 494.5 439.868 493.84L438.968 495.36C440.008 496.16 441.548 496.68 443.368 496.68C445.908 496.68 447.528 495.34 447.528 493.62V493.36C447.528 491.34 446.268 490.54 443.608 490.04C441.908 489.72 441.248 489.4 441.248 488.54V488.36C441.248 487.6 441.908 487.04 443.528 487.04C444.628 487.04 445.688 487.38 446.408 487.92L447.268 486.46C446.188 485.7 444.868 485.38 443.388 485.38C440.548 485.38 439.308 486.82 439.308 488.34V488.58C439.308 490.5 440.648 491.28 443.068 491.78C445.128 492.2 445.568 492.5 445.568 493.42V493.58C445.568 494.46 444.728 495 443.288 495ZM449.329 493.46C449.329 495.66 450.289 496.68 452.369 496.68C453.149 496.68 453.969 496.5 454.409 496.32L454.109 494.76C453.609 494.94 453.149 495.02 452.669 495.02C451.849 495.02 451.269 494.8 451.269 493.46V487.24H454.149V485.58H451.269V482.82H449.329V485.58H447.529V487.24H449.329V493.46ZM459.363 487.04C461.023 487.04 462.063 488.12 462.063 489.8V490.16H456.583V489.88C456.583 488.2 457.743 487.04 459.363 487.04ZM462.863 494.02C461.923 494.62 460.963 495 459.543 495C457.803 495 456.583 493.88 456.583 491.82V491.74H463.943V490.28C463.943 487.16 462.163 485.38 459.363 485.38C456.663 485.38 454.663 487.08 454.663 490.4V491.64C454.663 495.18 456.763 496.68 459.463 496.68C461.443 496.68 462.723 496.14 463.683 495.48L462.863 494.02ZM480.156 489.34C480.156 486.82 478.776 485.38 476.536 485.38C474.816 485.38 473.836 486.14 473.136 487.2C472.576 486.04 471.456 485.38 469.996 485.38C468.476 485.38 467.496 486.1 467.076 487.06H467.056V485.58H465.136V496.52H467.076V489.6C467.076 487.88 468.416 487.14 469.616 487.14C470.996 487.14 471.676 488.06 471.676 489.96V496.52H473.616V489.7C473.616 487.92 474.936 487.14 476.156 487.14C477.536 487.14 478.216 488.06 478.216 489.96V496.52H480.156V489.34Z" fill="#19B29B"/>
<path d="M393 245H394V201H393V245Z" fill="#CCCCCC"/>
<g filter="url(#filter0_d_182_5076)">
<circle cx="394" cy="139" r="63" fill="white"/>
</g>
<path d="M353.369 115.27V125.364H359.753V124.174H354.755V120.786H359.361V119.596H354.755V116.46H359.655V115.27H353.369ZM363.22 124.3C362.296 124.3 361.512 123.95 360.826 123.488L360.196 124.552C360.924 125.112 362.002 125.476 363.276 125.476C365.054 125.476 366.188 124.538 366.188 123.334V123.152C366.188 121.738 365.306 121.178 363.444 120.828C362.254 120.604 361.792 120.38 361.792 119.778V119.652C361.792 119.12 362.254 118.728 363.388 118.728C364.158 118.728 364.9 118.966 365.404 119.344L366.006 118.322C365.25 117.79 364.326 117.566 363.29 117.566C361.302 117.566 360.434 118.574 360.434 119.638V119.806C360.434 121.15 361.372 121.696 363.066 122.046C364.508 122.34 364.816 122.55 364.816 123.194V123.306C364.816 123.922 364.228 124.3 363.22 124.3ZM367.449 123.222C367.449 124.762 368.121 125.476 369.577 125.476C370.123 125.476 370.697 125.35 371.005 125.224L370.795 124.132C370.445 124.258 370.123 124.314 369.787 124.314C369.213 124.314 368.807 124.16 368.807 123.222V118.868H370.823V117.706H368.807V115.774H367.449V117.706H366.189V118.868H367.449V123.222ZM373.702 125.476C374.374 125.476 374.822 125.35 375.228 125.126C375.522 124.958 375.802 124.72 375.942 124.44H375.956V125.364H377.258V120.002C377.258 118.462 376.054 117.566 374.346 117.566C373.114 117.566 372.204 118.014 371.462 118.532L372.134 119.54C372.848 119.078 373.436 118.77 374.332 118.77C375.452 118.77 375.914 119.26 375.914 120.282V120.73H373.968C372.008 120.73 371.182 121.64 371.182 122.942V123.32C371.182 124.664 372.162 125.476 373.702 125.476ZM375.914 122.634C375.914 123.208 375.76 123.544 375.396 123.824C374.99 124.146 374.514 124.3 373.842 124.3C373.114 124.3 372.512 123.978 372.512 123.236V123.04C372.512 122.312 372.932 121.878 373.996 121.878H375.914V122.634ZM379.899 114.78H378.541V125.364H379.857V124.468H379.885C380.221 125.014 380.893 125.476 382.041 125.476C383.833 125.476 385.079 124.258 385.079 122.186V120.828C385.079 118.756 384.015 117.566 382.083 117.566C381.243 117.566 380.389 117.832 379.899 118.588V114.78ZM379.885 120.702C379.885 119.512 380.795 118.756 381.901 118.756C383.035 118.756 383.735 119.596 383.735 121.052V121.99C383.735 123.432 383.049 124.286 381.901 124.286C380.725 124.286 379.885 123.432 379.885 122.634V120.702ZM386.04 114.78V125.364H387.398V114.78H386.04ZM388.783 117.706V125.364H390.141V117.706H388.783ZM388.741 114.962V116.446H390.183V114.962H388.741ZM393.904 124.3C392.98 124.3 392.196 123.95 391.51 123.488L390.88 124.552C391.608 125.112 392.686 125.476 393.96 125.476C395.738 125.476 396.872 124.538 396.872 123.334V123.152C396.872 121.738 395.99 121.178 394.128 120.828C392.938 120.604 392.476 120.38 392.476 119.778V119.652C392.476 119.12 392.938 118.728 394.072 118.728C394.842 118.728 395.584 118.966 396.088 119.344L396.69 118.322C395.934 117.79 395.01 117.566 393.974 117.566C391.986 117.566 391.118 118.574 391.118 119.638V119.806C391.118 121.15 392.056 121.696 393.75 122.046C395.192 122.34 395.5 122.55 395.5 123.194V123.306C395.5 123.922 394.912 124.3 393.904 124.3ZM403.971 120.296C403.971 118.448 402.767 117.566 401.283 117.566C400.247 117.566 399.477 117.944 399.015 118.63V114.78H397.657V125.364H399.015V120.618C399.015 119.414 400.023 118.77 400.947 118.77C402.081 118.77 402.613 119.316 402.613 120.604V125.364H403.971V120.296ZM415.712 120.338C415.712 118.574 414.746 117.566 413.178 117.566C411.974 117.566 411.288 118.098 410.798 118.84C410.406 118.028 409.622 117.566 408.6 117.566C407.536 117.566 406.85 118.07 406.556 118.742H406.542V117.706H405.198V125.364H406.556V120.52C406.556 119.316 407.494 118.798 408.334 118.798C409.3 118.798 409.776 119.442 409.776 120.772V125.364H411.134V120.59C411.134 119.344 412.058 118.798 412.912 118.798C413.878 118.798 414.354 119.442 414.354 120.772V125.364H415.712V120.338ZM419.848 118.728C421.01 118.728 421.738 119.484 421.738 120.66V120.912H417.902V120.716C417.902 119.54 418.714 118.728 419.848 118.728ZM422.298 123.614C421.64 124.034 420.968 124.3 419.974 124.3C418.756 124.3 417.902 123.516 417.902 122.074V122.018H423.054V120.996C423.054 118.812 421.808 117.566 419.848 117.566C417.958 117.566 416.558 118.756 416.558 121.08V121.948C416.558 124.426 418.028 125.476 419.918 125.476C421.304 125.476 422.2 125.098 422.872 124.636L422.298 123.614ZM430.203 120.296C430.203 118.448 428.999 117.566 427.515 117.566C426.465 117.566 425.681 117.958 425.219 118.672H425.205V117.706H423.889V125.364H425.247V120.618C425.247 119.414 426.255 118.77 427.179 118.77C428.313 118.77 428.845 119.316 428.845 120.604V125.364H430.203V120.296ZM431.906 123.222C431.906 124.762 432.578 125.476 434.034 125.476C434.58 125.476 435.154 125.35 435.462 125.224L435.252 124.132C434.902 124.258 434.58 124.314 434.244 124.314C433.67 124.314 433.264 124.16 433.264 123.222V118.868H435.28V117.706H433.264V115.774H431.906V117.706H430.646V118.868H431.906V123.222ZM354.34 135.566C352.24 135.566 350.924 136.826 350.924 139.052V139.99C350.924 142.202 352.24 143.476 354.34 143.476C356.44 143.476 357.756 142.202 357.756 139.99V139.052C357.756 136.84 356.44 135.566 354.34 135.566ZM354.34 142.286C353.122 142.286 352.296 141.502 352.296 139.878V139.164C352.296 137.54 353.122 136.756 354.34 136.756C355.558 136.756 356.384 137.54 356.384 139.164V139.878C356.384 141.502 355.558 142.286 354.34 142.286ZM359.182 143.364H360.54V136.868H362.556V135.706H360.54V135.006C360.54 134.012 361.016 133.858 361.534 133.858C361.87 133.858 362.22 133.9 362.57 133.998L362.78 132.892C362.472 132.78 361.898 132.696 361.408 132.696C359.952 132.696 359.182 133.41 359.182 134.95V135.706H357.922V136.868H359.182V143.364ZM365.832 133.27V143.364H372.216V142.174H367.218V138.786H371.824V137.596H367.218V134.46H372.118V133.27H365.832ZM376.215 135.566C374.213 135.566 372.911 136.812 372.911 139.01V139.976C372.911 142.174 374.115 143.476 376.229 143.476C377.629 143.476 378.525 143.042 379.057 142.594L378.399 141.558C377.853 141.964 377.251 142.258 376.243 142.258C375.235 142.258 374.283 141.614 374.283 139.962V138.996C374.283 137.428 375.207 136.77 376.215 136.77C376.957 136.77 377.503 136.91 378.217 137.428L378.861 136.406C378.231 135.93 377.475 135.566 376.215 135.566ZM382.61 135.566C380.51 135.566 379.194 136.826 379.194 139.052V139.99C379.194 142.202 380.51 143.476 382.61 143.476C384.71 143.476 386.026 142.202 386.026 139.99V139.052C386.026 136.84 384.71 135.566 382.61 135.566ZM382.61 142.286C381.392 142.286 380.566 141.502 380.566 139.878V139.164C380.566 137.54 381.392 136.756 382.61 136.756C383.828 136.756 384.654 137.54 384.654 139.164V139.878C384.654 141.502 383.828 142.286 382.61 142.286ZM386.529 138.912H391.093V137.736H386.529V138.912ZM392.072 133.27V143.364H393.458V139.024H398.022V137.834H393.458V134.46H398.316V133.27H392.072ZM403.711 135.72C403.403 135.622 403.067 135.566 402.717 135.566C401.597 135.566 400.911 136.07 400.463 136.924H400.449V135.706H399.133V143.364H400.491V138.898C400.491 137.694 401.359 136.854 402.367 136.854C402.731 136.854 403.039 136.924 403.305 137.036L403.711 135.72ZM404.173 135.706V143.364H405.531V135.706H404.173ZM404.131 132.962V134.446H405.573V132.962H404.131ZM409.812 136.728C410.974 136.728 411.702 137.484 411.702 138.66V138.912H407.866V138.716C407.866 137.54 408.678 136.728 409.812 136.728ZM412.262 141.614C411.604 142.034 410.932 142.3 409.938 142.3C408.72 142.3 407.866 141.516 407.866 140.074V140.018H413.018V138.996C413.018 136.812 411.772 135.566 409.812 135.566C407.922 135.566 406.522 136.756 406.522 139.08V139.948C406.522 142.426 407.992 143.476 409.882 143.476C411.268 143.476 412.164 143.098 412.836 142.636L412.262 141.614ZM420.167 138.296C420.167 136.448 418.963 135.566 417.479 135.566C416.429 135.566 415.645 135.958 415.183 136.672H415.169V135.706H413.853V143.364H415.211V138.618C415.211 137.414 416.219 136.77 417.143 136.77C418.277 136.77 418.809 137.316 418.809 138.604V143.364H420.167V138.296ZM426.252 142.412V143.364H427.554V132.78H426.196V136.504C425.888 136.056 425.216 135.566 424.054 135.566C422.262 135.566 421.016 136.784 421.016 138.856V140.214C421.016 142.286 422.066 143.476 423.998 143.476C424.95 143.476 425.804 143.182 426.224 142.412H426.252ZM426.21 140.354C426.21 141.544 425.3 142.286 424.194 142.286C423.06 142.286 422.36 141.446 422.36 139.99V139.052C422.36 137.61 423.046 136.756 424.194 136.756C425.37 136.756 426.21 137.582 426.21 138.38V140.354ZM428.894 132.78V143.364H430.252V132.78H428.894ZM434.143 141.824L432.113 135.706H430.643L433.429 143.476L432.435 146.094L433.667 146.528L437.643 135.706H436.215L434.199 141.824H434.143ZM355.296 161.364H359.314C361.498 161.364 362.548 160.356 362.548 158.704V158.354C362.548 156.954 361.694 156.226 360.462 156.044C361.666 155.75 362.086 154.91 362.086 154.028V153.734C362.086 152.082 361.022 151.27 358.88 151.27H355.296V161.364ZM356.682 156.66H358.488C360.504 156.66 361.12 157.136 361.12 158.368V158.676C361.12 159.866 360.378 160.16 358.796 160.16H356.682V156.66ZM358.376 152.46C359.958 152.46 360.672 152.572 360.672 153.762V154.014C360.672 155.274 359.874 155.526 358.474 155.526H356.682V152.46H358.376ZM363.175 158.774C363.175 160.622 364.351 161.504 365.835 161.504C366.885 161.504 367.641 161.112 368.103 160.398H368.117V161.364H369.433V153.706H368.075V158.452C368.075 159.656 367.095 160.3 366.171 160.3C365.037 160.3 364.533 159.754 364.533 158.466V153.706H363.175V158.774ZM373.153 160.3C372.229 160.3 371.445 159.95 370.759 159.488L370.129 160.552C370.857 161.112 371.935 161.476 373.209 161.476C374.987 161.476 376.121 160.538 376.121 159.334V159.152C376.121 157.738 375.239 157.178 373.377 156.828C372.187 156.604 371.725 156.38 371.725 155.778V155.652C371.725 155.12 372.187 154.728 373.321 154.728C374.091 154.728 374.833 154.966 375.337 155.344L375.939 154.322C375.183 153.79 374.259 153.566 373.223 153.566C371.235 153.566 370.367 154.574 370.367 155.638V155.806C370.367 157.15 371.305 157.696 372.999 158.046C374.441 158.34 374.749 158.55 374.749 159.194V159.306C374.749 159.922 374.161 160.3 373.153 160.3ZM376.948 153.706V161.364H378.306V153.706H376.948ZM376.906 150.962V152.446H378.348V150.962H376.906ZM386.003 156.296C386.003 154.448 384.799 153.566 383.315 153.566C382.265 153.566 381.481 153.958 381.019 154.672H381.005V153.706H379.689V161.364H381.047V156.618C381.047 155.414 382.055 154.77 382.979 154.77C384.113 154.77 384.645 155.316 384.645 156.604V161.364H386.003V156.296ZM390.128 154.728C391.29 154.728 392.018 155.484 392.018 156.66V156.912H388.182V156.716C388.182 155.54 388.994 154.728 390.128 154.728ZM392.578 159.614C391.92 160.034 391.248 160.3 390.254 160.3C389.036 160.3 388.182 159.516 388.182 158.074V158.018H393.334V156.996C393.334 154.812 392.088 153.566 390.128 153.566C388.238 153.566 386.838 154.756 386.838 157.08V157.948C386.838 160.426 388.308 161.476 390.198 161.476C391.584 161.476 392.48 161.098 393.152 160.636L392.578 159.614ZM396.549 160.3C395.625 160.3 394.841 159.95 394.155 159.488L393.525 160.552C394.253 161.112 395.331 161.476 396.605 161.476C398.383 161.476 399.517 160.538 399.517 159.334V159.152C399.517 157.738 398.635 157.178 396.773 156.828C395.583 156.604 395.121 156.38 395.121 155.778V155.652C395.121 155.12 395.583 154.728 396.717 154.728C397.487 154.728 398.229 154.966 398.733 155.344L399.335 154.322C398.579 153.79 397.655 153.566 396.619 153.566C394.631 153.566 393.763 154.574 393.763 155.638V155.806C393.763 157.15 394.701 157.696 396.395 158.046C397.837 158.34 398.145 158.55 398.145 159.194V159.306C398.145 159.922 397.557 160.3 396.549 160.3ZM402.682 160.3C401.758 160.3 400.974 159.95 400.288 159.488L399.658 160.552C400.386 161.112 401.464 161.476 402.738 161.476C404.516 161.476 405.65 160.538 405.65 159.334V159.152C405.65 157.738 404.768 157.178 402.906 156.828C401.716 156.604 401.254 156.38 401.254 155.778V155.652C401.254 155.12 401.716 154.728 402.85 154.728C403.62 154.728 404.362 154.966 404.866 155.344L405.468 154.322C404.712 153.79 403.788 153.566 402.752 153.566C400.764 153.566 399.896 154.574 399.896 155.638V155.806C399.896 157.15 400.834 157.696 402.528 158.046C403.97 158.34 404.278 158.55 404.278 159.194V159.306C404.278 159.922 403.69 160.3 402.682 160.3ZM409.15 161.364H410.536V157.43H412.762C414.96 157.43 416.108 156.086 416.108 154.448V154.154C416.108 152.502 415.044 151.27 412.762 151.27H409.15V161.364ZM412.678 152.474C413.98 152.474 414.708 153.02 414.708 154.168V154.42C414.708 155.638 413.98 156.226 412.524 156.226H410.536V152.474H412.678ZM416.895 150.78V161.364H418.253V150.78H416.895ZM421.724 161.476C422.396 161.476 422.844 161.35 423.25 161.126C423.544 160.958 423.824 160.72 423.964 160.44H423.978V161.364H425.28V156.002C425.28 154.462 424.076 153.566 422.368 153.566C421.136 153.566 420.226 154.014 419.484 154.532L420.156 155.54C420.87 155.078 421.458 154.77 422.354 154.77C423.474 154.77 423.936 155.26 423.936 156.282V156.73H421.99C420.03 156.73 419.204 157.64 419.204 158.942V159.32C419.204 160.664 420.184 161.476 421.724 161.476ZM423.936 158.634C423.936 159.208 423.782 159.544 423.418 159.824C423.012 160.146 422.536 160.3 421.864 160.3C421.136 160.3 420.534 159.978 420.534 159.236V159.04C420.534 158.312 420.954 157.878 422.018 157.878H423.936V158.634ZM432.877 156.296C432.877 154.448 431.673 153.566 430.189 153.566C429.139 153.566 428.355 153.958 427.893 154.672H427.879V153.706H426.563V161.364H427.921V156.618C427.921 155.414 428.929 154.77 429.853 154.77C430.987 154.77 431.519 155.316 431.519 156.604V161.364H432.877V156.296Z" fill="#222222"/>
<path d="M1.5 28C2.32843 28 3 27.3284 3 26.5C3 25.6716 2.32843 25 1.5 25C0.671573 25 0 25.6716 0 26.5C0 27.3284 0.671573 28 1.5 28Z" fill="#CCCCCC"/>
<path d="M1.5 3C2.32843 3 3 2.32843 3 1.5C3 0.671573 2.32843 0 1.5 0C0.671573 0 0 0.671573 0 1.5C0 2.32843 0.671573 3 1.5 3Z" fill="#CCCCCC"/>
<path d="M195.293 621.293L196 622L227.113 590.887L226.406 590.18L195.293 621.293Z" fill="#CCCCCC"/>
<g filter="url(#filter1_d_182_5076)">
<circle cx="157" cy="669" r="63" fill="white"/>
</g>
<path d="M118.576 655.364H119.962V651.43H122.188C124.386 651.43 125.534 650.086 125.534 648.448V648.154C125.534 646.502 124.47 645.27 122.188 645.27H118.576V655.364ZM122.104 646.474C123.406 646.474 124.134 647.02 124.134 648.168V648.42C124.134 649.638 123.406 650.226 121.95 650.226H119.962V646.474H122.104ZM130.898 647.72C130.59 647.622 130.254 647.566 129.904 647.566C128.784 647.566 128.098 648.07 127.65 648.924H127.636V647.706H126.32V655.364H127.678V650.898C127.678 649.694 128.546 648.854 129.554 648.854C129.918 648.854 130.226 648.924 130.492 649.036L130.898 647.72ZM134.216 648.728C135.378 648.728 136.106 649.484 136.106 650.66V650.912H132.27V650.716C132.27 649.54 133.082 648.728 134.216 648.728ZM136.666 653.614C136.008 654.034 135.336 654.3 134.342 654.3C133.124 654.3 132.27 653.516 132.27 652.074V652.018H137.422V650.996C137.422 648.812 136.176 647.566 134.216 647.566C132.326 647.566 130.926 648.756 130.926 651.08V651.948C130.926 654.426 132.396 655.476 134.286 655.476C135.672 655.476 136.568 655.098 137.24 654.636L136.666 653.614ZM140.792 654.09L138.776 647.706H137.306L139.924 655.364H141.66L144.25 647.706H142.822L140.82 654.09H140.792ZM147.466 648.728C148.628 648.728 149.356 649.484 149.356 650.66V650.912H145.52V650.716C145.52 649.54 146.332 648.728 147.466 648.728ZM149.916 653.614C149.258 654.034 148.586 654.3 147.592 654.3C146.374 654.3 145.52 653.516 145.52 652.074V652.018H150.672V650.996C150.672 648.812 149.426 647.566 147.466 647.566C145.576 647.566 144.176 648.756 144.176 651.08V651.948C144.176 654.426 145.646 655.476 147.536 655.476C148.922 655.476 149.818 655.098 150.49 654.636L149.916 653.614ZM157.821 650.296C157.821 648.448 156.617 647.566 155.133 647.566C154.083 647.566 153.299 647.958 152.837 648.672H152.823V647.706H151.507V655.364H152.865V650.618C152.865 649.414 153.873 648.77 154.797 648.77C155.931 648.77 156.463 649.316 156.463 650.604V655.364H157.821V650.296ZM159.524 653.222C159.524 654.762 160.196 655.476 161.652 655.476C162.198 655.476 162.772 655.35 163.08 655.224L162.87 654.132C162.52 654.258 162.198 654.314 161.862 654.314C161.288 654.314 160.882 654.16 160.882 653.222V648.868H162.898V647.706H160.882V645.774H159.524V647.706H158.264V648.868H159.524V653.222ZM163.691 647.706V655.364H165.049V647.706H163.691ZM163.649 644.962V646.446H165.091V644.962H163.649ZM169.457 647.566C167.357 647.566 166.041 648.826 166.041 651.052V651.99C166.041 654.202 167.357 655.476 169.457 655.476C171.557 655.476 172.873 654.202 172.873 651.99V651.052C172.873 648.84 171.557 647.566 169.457 647.566ZM169.457 654.286C168.239 654.286 167.413 653.502 167.413 651.878V651.164C167.413 649.54 168.239 648.756 169.457 648.756C170.675 648.756 171.501 649.54 171.501 651.164V651.878C171.501 653.502 170.675 654.286 169.457 654.286ZM180.137 650.296C180.137 648.448 178.933 647.566 177.449 647.566C176.399 647.566 175.615 647.958 175.153 648.672H175.139V647.706H173.823V655.364H175.181V650.618C175.181 649.414 176.189 648.77 177.113 648.77C178.247 648.77 178.779 649.316 178.779 650.604V655.364H180.137V650.296ZM187.048 647.566C184.948 647.566 183.632 648.826 183.632 651.052V651.99C183.632 654.202 184.948 655.476 187.048 655.476C189.148 655.476 190.464 654.202 190.464 651.99V651.052C190.464 648.84 189.148 647.566 187.048 647.566ZM187.048 654.286C185.83 654.286 185.004 653.502 185.004 651.878V651.164C185.004 649.54 185.83 648.756 187.048 648.756C188.266 648.756 189.092 649.54 189.092 651.164V651.878C189.092 653.502 188.266 654.286 187.048 654.286ZM191.89 655.364H193.248V648.868H195.264V647.706H193.248V647.006C193.248 646.012 193.724 645.858 194.242 645.858C194.578 645.858 194.928 645.9 195.278 645.998L195.488 644.892C195.18 644.78 194.606 644.696 194.116 644.696C192.66 644.696 191.89 645.41 191.89 646.95V647.706H190.63V648.868H191.89V655.364ZM118.034 666.728C119.196 666.728 119.924 667.484 119.924 668.66V668.912H116.088V668.716C116.088 667.54 116.9 666.728 118.034 666.728ZM120.484 671.614C119.826 672.034 119.154 672.3 118.16 672.3C116.942 672.3 116.088 671.516 116.088 670.074V670.018H121.24V668.996C121.24 666.812 119.994 665.566 118.034 665.566C116.144 665.566 114.744 666.756 114.744 669.08V669.948C114.744 672.426 116.214 673.476 118.104 673.476C119.49 673.476 120.386 673.098 121.058 672.636L120.484 671.614ZM128.389 668.296C128.389 666.448 127.185 665.566 125.701 665.566C124.651 665.566 123.867 665.958 123.405 666.672H123.391V665.706H122.075V673.364H123.433V668.618C123.433 667.414 124.441 666.77 125.365 666.77C126.499 666.77 127.031 667.316 127.031 668.604V673.364H128.389V668.296ZM132.15 672.09L130.134 665.706H128.664L131.282 673.364H133.018L135.608 665.706H134.18L132.178 672.09H132.15ZM136.037 665.706V673.364H137.395V665.706H136.037ZM135.995 662.962V664.446H137.437V662.962H135.995ZM143.356 665.72C143.048 665.622 142.712 665.566 142.362 665.566C141.242 665.566 140.556 666.07 140.108 666.924H140.094V665.706H138.778V673.364H140.136V668.898C140.136 667.694 141.004 666.854 142.012 666.854C142.376 666.854 142.684 666.924 142.95 667.036L143.356 665.72ZM146.8 665.566C144.7 665.566 143.384 666.826 143.384 669.052V669.99C143.384 672.202 144.7 673.476 146.8 673.476C148.9 673.476 150.216 672.202 150.216 669.99V669.052C150.216 666.84 148.9 665.566 146.8 665.566ZM146.8 672.286C145.582 672.286 144.756 671.502 144.756 669.878V669.164C144.756 667.54 145.582 666.756 146.8 666.756C148.018 666.756 148.844 667.54 148.844 669.164V669.878C148.844 671.502 148.018 672.286 146.8 672.286ZM157.48 668.296C157.48 666.448 156.276 665.566 154.792 665.566C153.742 665.566 152.958 665.958 152.496 666.672H152.482V665.706H151.166V673.364H152.524V668.618C152.524 667.414 153.532 666.77 154.456 666.77C155.59 666.77 156.122 667.316 156.122 668.604V673.364H157.48V668.296ZM169.221 668.338C169.221 666.574 168.255 665.566 166.687 665.566C165.483 665.566 164.797 666.098 164.307 666.84C163.915 666.028 163.131 665.566 162.109 665.566C161.045 665.566 160.359 666.07 160.065 666.742H160.051V665.706H158.707V673.364H160.065V668.52C160.065 667.316 161.003 666.798 161.843 666.798C162.809 666.798 163.285 667.442 163.285 668.772V673.364H164.643V668.59C164.643 667.344 165.567 666.798 166.421 666.798C167.387 666.798 167.863 667.442 167.863 668.772V673.364H169.221V668.338ZM173.357 666.728C174.519 666.728 175.247 667.484 175.247 668.66V668.912H171.411V668.716C171.411 667.54 172.223 666.728 173.357 666.728ZM175.807 671.614C175.149 672.034 174.477 672.3 173.483 672.3C172.265 672.3 171.411 671.516 171.411 670.074V670.018H176.563V668.996C176.563 666.812 175.317 665.566 173.357 665.566C171.467 665.566 170.067 666.756 170.067 669.08V669.948C170.067 672.426 171.537 673.476 173.427 673.476C174.813 673.476 175.709 673.098 176.381 672.636L175.807 671.614ZM183.712 668.296C183.712 666.448 182.508 665.566 181.024 665.566C179.974 665.566 179.19 665.958 178.728 666.672H178.714V665.706H177.398V673.364H178.756V668.618C178.756 667.414 179.764 666.77 180.688 666.77C181.822 666.77 182.354 667.316 182.354 668.604V673.364H183.712V668.296ZM185.415 671.222C185.415 672.762 186.087 673.476 187.543 673.476C188.089 673.476 188.663 673.35 188.971 673.224L188.761 672.132C188.411 672.258 188.089 672.314 187.753 672.314C187.179 672.314 186.773 672.16 186.773 671.222V666.868H188.789V665.706H186.773V663.774H185.415V665.706H184.155V666.868H185.415V671.222ZM191.668 673.476C192.34 673.476 192.788 673.35 193.194 673.126C193.488 672.958 193.768 672.72 193.908 672.44H193.922V673.364H195.224V668.002C195.224 666.462 194.02 665.566 192.312 665.566C191.08 665.566 190.17 666.014 189.428 666.532L190.1 667.54C190.814 667.078 191.402 666.77 192.298 666.77C193.418 666.77 193.88 667.26 193.88 668.282V668.73H191.934C189.974 668.73 189.148 669.64 189.148 670.942V671.32C189.148 672.664 190.128 673.476 191.668 673.476ZM193.88 670.634C193.88 671.208 193.726 671.544 193.362 671.824C192.956 672.146 192.48 672.3 191.808 672.3C191.08 672.3 190.478 671.978 190.478 671.236V671.04C190.478 670.312 190.898 669.878 191.962 669.878H193.88V670.634ZM196.507 662.78V673.364H197.865V662.78H196.507ZM131.785 691.476C132.457 691.476 132.905 691.35 133.311 691.126C133.605 690.958 133.885 690.72 134.025 690.44H134.039V691.364H135.341V686.002C135.341 684.462 134.137 683.566 132.429 683.566C131.197 683.566 130.287 684.014 129.545 684.532L130.217 685.54C130.931 685.078 131.519 684.77 132.415 684.77C133.535 684.77 133.997 685.26 133.997 686.282V686.73H132.051C130.091 686.73 129.265 687.64 129.265 688.942V689.32C129.265 690.664 130.245 691.476 131.785 691.476ZM133.997 688.634C133.997 689.208 133.843 689.544 133.479 689.824C133.073 690.146 132.597 690.3 131.925 690.3C131.197 690.3 130.595 689.978 130.595 689.236V689.04C130.595 688.312 131.015 687.878 132.079 687.878H133.997V688.634ZM139.536 683.566C137.534 683.566 136.232 684.812 136.232 687.01V687.976C136.232 690.174 137.436 691.476 139.55 691.476C140.95 691.476 141.846 691.042 142.378 690.594L141.72 689.558C141.174 689.964 140.572 690.258 139.564 690.258C138.556 690.258 137.604 689.614 137.604 687.962V686.996C137.604 685.428 138.528 684.77 139.536 684.77C140.278 684.77 140.824 684.91 141.538 685.428L142.182 684.406C141.552 683.93 140.796 683.566 139.536 683.566ZM145.819 683.566C143.817 683.566 142.515 684.812 142.515 687.01V687.976C142.515 690.174 143.719 691.476 145.833 691.476C147.233 691.476 148.129 691.042 148.661 690.594L148.003 689.558C147.457 689.964 146.855 690.258 145.847 690.258C144.839 690.258 143.887 689.614 143.887 687.962V686.996C143.887 685.428 144.811 684.77 145.819 684.77C146.561 684.77 147.107 684.91 147.821 685.428L148.465 684.406C147.835 683.93 147.079 683.566 145.819 683.566ZM149.232 683.706V691.364H150.59V683.706H149.232ZM149.19 680.962V682.446H150.632V680.962H149.19ZM156.831 690.412V691.364H158.133V680.78H156.775V684.504C156.467 684.056 155.795 683.566 154.633 683.566C152.841 683.566 151.595 684.784 151.595 686.856V688.214C151.595 690.286 152.645 691.476 154.577 691.476C155.529 691.476 156.383 691.182 156.803 690.412H156.831ZM156.789 688.354C156.789 689.544 155.879 690.286 154.773 690.286C153.639 690.286 152.939 689.446 152.939 687.99V687.052C152.939 685.61 153.625 684.756 154.773 684.756C155.949 684.756 156.789 685.582 156.789 686.38V688.354ZM162.371 684.728C163.533 684.728 164.261 685.484 164.261 686.66V686.912H160.425V686.716C160.425 685.54 161.237 684.728 162.371 684.728ZM164.821 689.614C164.163 690.034 163.491 690.3 162.497 690.3C161.279 690.3 160.425 689.516 160.425 688.074V688.018H165.577V686.996C165.577 684.812 164.331 683.566 162.371 683.566C160.481 683.566 159.081 684.756 159.081 687.08V687.948C159.081 690.426 160.551 691.476 162.441 691.476C163.827 691.476 164.723 691.098 165.395 690.636L164.821 689.614ZM172.726 686.296C172.726 684.448 171.522 683.566 170.038 683.566C168.988 683.566 168.204 683.958 167.742 684.672H167.728V683.706H166.412V691.364H167.77V686.618C167.77 685.414 168.778 684.77 169.702 684.77C170.836 684.77 171.368 685.316 171.368 686.604V691.364H172.726V686.296ZM174.429 689.222C174.429 690.762 175.101 691.476 176.557 691.476C177.103 691.476 177.677 691.35 177.985 691.224L177.775 690.132C177.425 690.258 177.103 690.314 176.767 690.314C176.193 690.314 175.787 690.16 175.787 689.222V684.868H177.803V683.706H175.787V681.774H174.429V683.706H173.169V684.868H174.429V689.222ZM180.934 690.3C180.01 690.3 179.226 689.95 178.54 689.488L177.91 690.552C178.638 691.112 179.716 691.476 180.99 691.476C182.768 691.476 183.902 690.538 183.902 689.334V689.152C183.902 687.738 183.02 687.178 181.158 686.828C179.968 686.604 179.506 686.38 179.506 685.778V685.652C179.506 685.12 179.968 684.728 181.102 684.728C181.872 684.728 182.614 684.966 183.118 685.344L183.72 684.322C182.964 683.79 182.04 683.566 181.004 683.566C179.016 683.566 178.148 684.574 178.148 685.638V685.806C178.148 687.15 179.086 687.696 180.78 688.046C182.222 688.34 182.53 688.55 182.53 689.194V689.306C182.53 689.922 181.942 690.3 180.934 690.3Z" fill="#222222"/>
<path d="M591.82 621.293L591.113 622L560.001 590.887L560.708 590.18L591.82 621.293Z" fill="#CCCCCC"/>
<g filter="url(#filter2_d_182_5076)">
<circle cx="63" cy="63" r="63" transform="matrix(-1 0 0 1 693 606)" fill="white"/>
</g>
<path d="M592.542 645.258C591.674 645.258 590.442 644.768 589.686 644.194L588.986 645.328C589.826 646 591.072 646.518 592.5 646.518C594.572 646.518 596.098 645.566 596.098 643.718V643.466C596.098 642.066 595.328 641.184 592.836 640.624C591.338 640.288 590.512 639.952 590.512 639.028V638.804C590.512 638.006 591.338 637.362 592.598 637.362C593.522 637.362 594.264 637.572 595.006 638.076L595.664 636.998C594.81 636.424 593.816 636.116 592.584 636.116C590.26 636.116 589.126 637.446 589.126 638.818V639.07C589.126 640.89 590.582 641.478 592.486 641.884C594.124 642.234 594.698 642.682 594.698 643.564V643.788C594.698 644.586 593.97 645.258 592.542 645.258ZM597.529 644.222C597.529 645.762 598.201 646.476 599.657 646.476C600.203 646.476 600.777 646.35 601.085 646.224L600.875 645.132C600.525 645.258 600.203 645.314 599.867 645.314C599.293 645.314 598.887 645.16 598.887 644.222V639.868H600.903V638.706H598.887V636.774H597.529V638.706H596.269V639.868H597.529V644.222ZM606.232 638.72C605.924 638.622 605.588 638.566 605.238 638.566C604.118 638.566 603.432 639.07 602.984 639.924H602.97V638.706H601.654V646.364H603.012V641.898C603.012 640.694 603.88 639.854 604.888 639.854C605.252 639.854 605.56 639.924 605.826 640.036L606.232 638.72ZM609.55 639.728C610.712 639.728 611.44 640.484 611.44 641.66V641.912H607.604V641.716C607.604 640.54 608.416 639.728 609.55 639.728ZM612 644.614C611.342 645.034 610.67 645.3 609.676 645.3C608.458 645.3 607.604 644.516 607.604 643.074V643.018H612.756V641.996C612.756 639.812 611.51 638.566 609.55 638.566C607.66 638.566 606.26 639.756 606.26 642.08V642.948C606.26 645.426 607.73 646.476 609.62 646.476C611.006 646.476 611.902 646.098 612.574 645.636L612 644.614ZM619.905 641.296C619.905 639.448 618.701 638.566 617.217 638.566C616.167 638.566 615.383 638.958 614.921 639.672H614.907V638.706H613.591V646.364H614.949V641.618C614.949 640.414 615.957 639.77 616.881 639.77C618.015 639.77 618.547 640.316 618.547 641.604V646.364H619.905V641.296ZM627.292 638.706H625.934V639.504C625.626 639.056 624.954 638.566 623.792 638.566C622 638.566 620.754 639.784 620.754 641.856V643.074C620.754 645.146 621.804 646.336 623.736 646.336C624.66 646.336 625.5 646.056 625.934 645.328V646.266C625.934 647.624 625.234 648.254 623.918 648.254C623.162 648.254 622.448 647.988 621.944 647.61L621.328 648.674C621.958 649.164 622.84 649.486 623.876 649.486C626.13 649.486 627.292 648.408 627.292 646.266V638.706ZM625.948 643.214C625.948 644.404 625.038 645.146 623.932 645.146C622.798 645.146 622.098 644.306 622.098 642.85V642.052C622.098 640.61 622.784 639.756 623.932 639.756C625.108 639.756 625.948 640.582 625.948 641.38V643.214ZM629.108 644.222C629.108 645.762 629.78 646.476 631.236 646.476C631.782 646.476 632.356 646.35 632.664 646.224L632.454 645.132C632.104 645.258 631.782 645.314 631.446 645.314C630.872 645.314 630.466 645.16 630.466 644.222V639.868H632.482V638.706H630.466V636.774H629.108V638.706H627.848V639.868H629.108V644.222ZM639.547 641.296C639.547 639.448 638.343 638.566 636.859 638.566C635.823 638.566 635.053 638.944 634.591 639.63V635.78H633.233V646.364H634.591V641.618C634.591 640.414 635.599 639.77 636.523 639.77C637.657 639.77 638.189 640.316 638.189 641.604V646.364H639.547V641.296ZM643.672 639.728C644.834 639.728 645.562 640.484 645.562 641.66V641.912H641.726V641.716C641.726 640.54 642.538 639.728 643.672 639.728ZM646.122 644.614C645.464 645.034 644.792 645.3 643.798 645.3C642.58 645.3 641.726 644.516 641.726 643.074V643.018H646.878V641.996C646.878 639.812 645.632 638.566 643.672 638.566C641.782 638.566 640.382 639.756 640.382 642.08V642.948C640.382 645.426 641.852 646.476 643.742 646.476C645.128 646.476 646.024 646.098 646.696 645.636L646.122 644.614ZM654.028 641.296C654.028 639.448 652.824 638.566 651.34 638.566C650.29 638.566 649.506 638.958 649.044 639.672H649.03V638.706H647.714V646.364H649.072V641.618C649.072 640.414 650.08 639.77 651.004 639.77C652.138 639.77 652.67 640.316 652.67 641.604V646.364H654.028V641.296ZM655.296 638.706V646.364H656.654V638.706H655.296ZM655.254 635.962V637.446H656.696V635.962H655.254ZM664.352 641.296C664.352 639.448 663.148 638.566 661.664 638.566C660.614 638.566 659.83 638.958 659.368 639.672H659.354V638.706H658.038V646.364H659.396V641.618C659.396 640.414 660.404 639.77 661.328 639.77C662.462 639.77 662.994 640.316 662.994 641.604V646.364H664.352V641.296ZM671.738 638.706H670.38V639.504C670.072 639.056 669.4 638.566 668.238 638.566C666.446 638.566 665.2 639.784 665.2 641.856V643.074C665.2 645.146 666.25 646.336 668.182 646.336C669.106 646.336 669.946 646.056 670.38 645.328V646.266C670.38 647.624 669.68 648.254 668.364 648.254C667.608 648.254 666.894 647.988 666.39 647.61L665.774 648.674C666.404 649.164 667.286 649.486 668.322 649.486C670.576 649.486 671.738 648.408 671.738 646.266V638.706ZM670.394 643.214C670.394 644.404 669.484 645.146 668.378 645.146C667.244 645.146 666.544 644.306 666.544 642.85V642.052C666.544 640.61 667.23 639.756 668.378 639.756C669.554 639.756 670.394 640.582 670.394 641.38V643.214ZM592.034 657.728C593.196 657.728 593.924 658.484 593.924 659.66V659.912H590.088V659.716C590.088 658.54 590.9 657.728 592.034 657.728ZM594.484 662.614C593.826 663.034 593.154 663.3 592.16 663.3C590.942 663.3 590.088 662.516 590.088 661.074V661.018H595.24V659.996C595.24 657.812 593.994 656.566 592.034 656.566C590.144 656.566 588.744 657.756 588.744 660.08V660.948C588.744 663.426 590.214 664.476 592.104 664.476C593.49 664.476 594.386 664.098 595.058 663.636L594.484 662.614ZM602.389 659.296C602.389 657.448 601.185 656.566 599.701 656.566C598.651 656.566 597.867 656.958 597.405 657.672H597.391V656.706H596.075V664.364H597.433V659.618C597.433 658.414 598.441 657.77 599.365 657.77C600.499 657.77 601.031 658.316 601.031 659.604V664.364H602.389V659.296ZM606.15 663.09L604.134 656.706H602.664L605.282 664.364H607.018L609.608 656.706H608.18L606.178 663.09H606.15ZM610.037 656.706V664.364H611.395V656.706H610.037ZM609.995 653.962V655.446H611.437V653.962H609.995ZM617.356 656.72C617.048 656.622 616.712 656.566 616.362 656.566C615.242 656.566 614.556 657.07 614.108 657.924H614.094V656.706H612.778V664.364H614.136V659.898C614.136 658.694 615.004 657.854 616.012 657.854C616.376 657.854 616.684 657.924 616.95 658.036L617.356 656.72ZM620.8 656.566C618.7 656.566 617.384 657.826 617.384 660.052V660.99C617.384 663.202 618.7 664.476 620.8 664.476C622.9 664.476 624.216 663.202 624.216 660.99V660.052C624.216 657.84 622.9 656.566 620.8 656.566ZM620.8 663.286C619.582 663.286 618.756 662.502 618.756 660.878V660.164C618.756 658.54 619.582 657.756 620.8 657.756C622.018 657.756 622.844 658.54 622.844 660.164V660.878C622.844 662.502 622.018 663.286 620.8 663.286ZM631.48 659.296C631.48 657.448 630.276 656.566 628.792 656.566C627.742 656.566 626.958 656.958 626.496 657.672H626.482V656.706H625.166V664.364H626.524V659.618C626.524 658.414 627.532 657.77 628.456 657.77C629.59 657.77 630.122 658.316 630.122 659.604V664.364H631.48V659.296ZM643.221 659.338C643.221 657.574 642.255 656.566 640.687 656.566C639.483 656.566 638.797 657.098 638.307 657.84C637.915 657.028 637.131 656.566 636.109 656.566C635.045 656.566 634.359 657.07 634.065 657.742H634.051V656.706H632.707V664.364H634.065V659.52C634.065 658.316 635.003 657.798 635.843 657.798C636.809 657.798 637.285 658.442 637.285 659.772V664.364H638.643V659.59C638.643 658.344 639.567 657.798 640.421 657.798C641.387 657.798 641.863 658.442 641.863 659.772V664.364H643.221V659.338ZM647.357 657.728C648.519 657.728 649.247 658.484 649.247 659.66V659.912H645.411V659.716C645.411 658.54 646.223 657.728 647.357 657.728ZM649.807 662.614C649.149 663.034 648.477 663.3 647.483 663.3C646.265 663.3 645.411 662.516 645.411 661.074V661.018H650.563V659.996C650.563 657.812 649.317 656.566 647.357 656.566C645.467 656.566 644.067 657.756 644.067 660.08V660.948C644.067 663.426 645.537 664.476 647.427 664.476C648.813 664.476 649.709 664.098 650.381 663.636L649.807 662.614ZM657.712 659.296C657.712 657.448 656.508 656.566 655.024 656.566C653.974 656.566 653.19 656.958 652.728 657.672H652.714V656.706H651.398V664.364H652.756V659.618C652.756 658.414 653.764 657.77 654.688 657.77C655.822 657.77 656.354 658.316 656.354 659.604V664.364H657.712V659.296ZM659.415 662.222C659.415 663.762 660.087 664.476 661.543 664.476C662.089 664.476 662.663 664.35 662.971 664.224L662.761 663.132C662.411 663.258 662.089 663.314 661.753 663.314C661.179 663.314 660.773 663.16 660.773 662.222V657.868H662.789V656.706H660.773V654.774H659.415V656.706H658.155V657.868H659.415V662.222ZM665.668 664.476C666.34 664.476 666.788 664.35 667.194 664.126C667.488 663.958 667.768 663.72 667.908 663.44H667.922V664.364H669.224V659.002C669.224 657.462 668.02 656.566 666.312 656.566C665.08 656.566 664.17 657.014 663.428 657.532L664.1 658.54C664.814 658.078 665.402 657.77 666.298 657.77C667.418 657.77 667.88 658.26 667.88 659.282V659.73H665.934C663.974 659.73 663.148 660.64 663.148 661.942V662.32C663.148 663.664 664.128 664.476 665.668 664.476ZM667.88 661.634C667.88 662.208 667.726 662.544 667.362 662.824C666.956 663.146 666.48 663.3 665.808 663.3C665.08 663.3 664.478 662.978 664.478 662.236V662.04C664.478 661.312 664.898 660.878 665.962 660.878H667.88V661.634ZM670.507 653.78V664.364H671.865V653.78H670.507ZM602.437 677.338C602.437 675.574 601.471 674.566 599.903 674.566C598.699 674.566 598.013 675.098 597.523 675.84C597.131 675.028 596.347 674.566 595.325 674.566C594.261 674.566 593.575 675.07 593.281 675.742H593.267V674.706H591.923V682.364H593.281V677.52C593.281 676.316 594.219 675.798 595.059 675.798C596.025 675.798 596.501 676.442 596.501 677.772V682.364H597.859V677.59C597.859 676.344 598.783 675.798 599.637 675.798C600.603 675.798 601.079 676.442 601.079 677.772V682.364H602.437V677.338ZM605.803 682.476C606.475 682.476 606.923 682.35 607.329 682.126C607.623 681.958 607.903 681.72 608.043 681.44H608.057V682.364H609.359V677.002C609.359 675.462 608.155 674.566 606.447 674.566C605.215 674.566 604.305 675.014 603.563 675.532L604.235 676.54C604.949 676.078 605.537 675.77 606.433 675.77C607.553 675.77 608.015 676.26 608.015 677.282V677.73H606.069C604.109 677.73 603.283 678.64 603.283 679.942V680.32C603.283 681.664 604.263 682.476 605.803 682.476ZM608.015 679.634C608.015 680.208 607.861 680.544 607.497 680.824C607.091 681.146 606.615 681.3 605.943 681.3C605.215 681.3 604.613 680.978 604.613 680.236V680.04C604.613 679.312 605.033 678.878 606.097 678.878H608.015V679.634ZM616.955 677.296C616.955 675.448 615.751 674.566 614.267 674.566C613.217 674.566 612.433 674.958 611.971 675.672H611.957V674.706H610.641V682.364H611.999V677.618C611.999 676.414 613.007 675.77 613.931 675.77C615.065 675.77 615.597 676.316 615.597 677.604V682.364H616.955V677.296ZM620.31 682.476C620.982 682.476 621.43 682.35 621.836 682.126C622.13 681.958 622.41 681.72 622.55 681.44H622.564V682.364H623.866V677.002C623.866 675.462 622.662 674.566 620.954 674.566C619.722 674.566 618.812 675.014 618.07 675.532L618.742 676.54C619.456 676.078 620.044 675.77 620.94 675.77C622.06 675.77 622.522 676.26 622.522 677.282V677.73H620.576C618.616 677.73 617.79 678.64 617.79 679.942V680.32C617.79 681.664 618.77 682.476 620.31 682.476ZM622.522 679.634C622.522 680.208 622.368 680.544 622.004 680.824C621.598 681.146 621.122 681.3 620.45 681.3C619.722 681.3 619.12 680.978 619.12 680.236V680.04C619.12 679.312 619.54 678.878 620.604 678.878H622.522V679.634ZM631.309 674.706H629.951V675.504C629.643 675.056 628.971 674.566 627.809 674.566C626.017 674.566 624.771 675.784 624.771 677.856V679.074C624.771 681.146 625.821 682.336 627.753 682.336C628.677 682.336 629.517 682.056 629.951 681.328V682.266C629.951 683.624 629.251 684.254 627.935 684.254C627.179 684.254 626.465 683.988 625.961 683.61L625.345 684.674C625.975 685.164 626.857 685.486 627.893 685.486C630.147 685.486 631.309 684.408 631.309 682.266V674.706ZM629.965 679.214C629.965 680.404 629.055 681.146 627.949 681.146C626.815 681.146 626.115 680.306 626.115 678.85V678.052C626.115 676.61 626.801 675.756 627.949 675.756C629.125 675.756 629.965 676.582 629.965 677.38V679.214ZM635.547 675.728C636.709 675.728 637.437 676.484 637.437 677.66V677.912H633.601V677.716C633.601 676.54 634.413 675.728 635.547 675.728ZM637.997 680.614C637.339 681.034 636.667 681.3 635.673 681.3C634.455 681.3 633.601 680.516 633.601 679.074V679.018H638.753V677.996C638.753 675.812 637.507 674.566 635.547 674.566C633.657 674.566 632.257 675.756 632.257 678.08V678.948C632.257 681.426 633.727 682.476 635.617 682.476C637.003 682.476 637.899 682.098 638.571 681.636L637.997 680.614ZM650.102 677.338C650.102 675.574 649.136 674.566 647.568 674.566C646.364 674.566 645.678 675.098 645.188 675.84C644.796 675.028 644.012 674.566 642.99 674.566C641.926 674.566 641.24 675.07 640.946 675.742H640.932V674.706H639.588V682.364H640.946V677.52C640.946 676.316 641.884 675.798 642.724 675.798C643.69 675.798 644.166 676.442 644.166 677.772V682.364H645.524V677.59C645.524 676.344 646.448 675.798 647.302 675.798C648.268 675.798 648.744 676.442 648.744 677.772V682.364H650.102V677.338ZM654.238 675.728C655.4 675.728 656.128 676.484 656.128 677.66V677.912H652.292V677.716C652.292 676.54 653.104 675.728 654.238 675.728ZM656.688 680.614C656.03 681.034 655.358 681.3 654.364 681.3C653.146 681.3 652.292 680.516 652.292 679.074V679.018H657.444V677.996C657.444 675.812 656.198 674.566 654.238 674.566C652.348 674.566 650.948 675.756 650.948 678.08V678.948C650.948 681.426 652.418 682.476 654.308 682.476C655.694 682.476 656.59 682.098 657.262 681.636L656.688 680.614ZM664.593 677.296C664.593 675.448 663.389 674.566 661.905 674.566C660.855 674.566 660.071 674.958 659.609 675.672H659.595V674.706H658.279V682.364H659.637V677.618C659.637 676.414 660.645 675.77 661.569 675.77C662.703 675.77 663.235 676.316 663.235 677.604V682.364H664.593V677.296ZM666.296 680.222C666.296 681.762 666.968 682.476 668.424 682.476C668.97 682.476 669.544 682.35 669.852 682.224L669.642 681.132C669.292 681.258 668.97 681.314 668.634 681.314C668.06 681.314 667.654 681.16 667.654 680.222V675.868H669.67V674.706H667.654V672.774H666.296V674.706H665.036V675.868H666.296V680.222ZM602.148 692.566C600.146 692.566 598.844 693.812 598.844 696.01V696.976C598.844 699.174 600.048 700.476 602.162 700.476C603.562 700.476 604.458 700.042 604.99 699.594L604.332 698.558C603.786 698.964 603.184 699.258 602.176 699.258C601.168 699.258 600.216 698.614 600.216 696.962V695.996C600.216 694.428 601.14 693.77 602.148 693.77C602.89 693.77 603.436 693.91 604.15 694.428L604.794 693.406C604.164 692.93 603.408 692.566 602.148 692.566ZM607.647 700.476C608.319 700.476 608.767 700.35 609.173 700.126C609.467 699.958 609.747 699.72 609.887 699.44H609.901V700.364H611.203V695.002C611.203 693.462 609.999 692.566 608.291 692.566C607.059 692.566 606.149 693.014 605.407 693.532L606.079 694.54C606.793 694.078 607.381 693.77 608.277 693.77C609.397 693.77 609.859 694.26 609.859 695.282V695.73H607.913C605.953 695.73 605.127 696.64 605.127 697.942V698.32C605.127 699.664 606.107 700.476 607.647 700.476ZM609.859 697.634C609.859 698.208 609.705 698.544 609.341 698.824C608.935 699.146 608.459 699.3 607.787 699.3C607.059 699.3 606.457 698.978 606.457 698.236V698.04C606.457 697.312 606.877 696.878 607.941 696.878H609.859V697.634ZM613.802 692.706H612.486V703.36H613.844V699.524C614.152 699.972 614.824 700.476 615.958 700.476C617.792 700.476 619.024 699.3 619.024 697.186V695.828C619.024 693.812 617.974 692.566 616.042 692.566C615.132 692.566 614.25 692.874 613.802 693.658V692.706ZM613.83 695.702C613.83 694.512 614.74 693.756 615.846 693.756C616.98 693.756 617.68 694.596 617.68 696.052V696.99C617.68 698.432 616.994 699.286 615.846 699.286C614.67 699.286 613.83 698.432 613.83 697.634V695.702ZM622.046 700.476C622.718 700.476 623.166 700.35 623.572 700.126C623.866 699.958 624.146 699.72 624.286 699.44H624.3V700.364H625.602V695.002C625.602 693.462 624.398 692.566 622.69 692.566C621.458 692.566 620.548 693.014 619.806 693.532L620.478 694.54C621.192 694.078 621.78 693.77 622.676 693.77C623.796 693.77 624.258 694.26 624.258 695.282V695.73H622.312C620.352 695.73 619.526 696.64 619.526 697.942V698.32C619.526 699.664 620.506 700.476 622.046 700.476ZM624.258 697.634C624.258 698.208 624.104 698.544 623.74 698.824C623.334 699.146 622.858 699.3 622.186 699.3C621.458 699.3 620.856 698.978 620.856 698.236V698.04C620.856 697.312 621.276 696.878 622.34 696.878H624.258V697.634ZM628.242 689.78H626.884V700.364H628.2V699.468H628.228C628.564 700.014 629.236 700.476 630.384 700.476C632.176 700.476 633.422 699.258 633.422 697.186V695.828C633.422 693.756 632.358 692.566 630.426 692.566C629.586 692.566 628.732 692.832 628.242 693.588V689.78ZM628.228 695.702C628.228 694.512 629.138 693.756 630.244 693.756C631.378 693.756 632.078 694.596 632.078 696.052V696.99C632.078 698.432 631.392 699.286 630.244 699.286C629.068 699.286 628.228 698.432 628.228 697.634V695.702ZM634.426 692.706V700.364H635.784V692.706H634.426ZM634.384 689.962V691.446H635.826V689.962H634.384ZM637.167 689.78V700.364H638.525V689.78H637.167ZM639.91 692.706V700.364H641.268V692.706H639.91ZM639.868 689.962V691.446H641.31V689.962H639.868ZM643.127 698.222C643.127 699.762 643.799 700.476 645.255 700.476C645.801 700.476 646.375 700.35 646.683 700.224L646.473 699.132C646.123 699.258 645.801 699.314 645.465 699.314C644.891 699.314 644.485 699.16 644.485 698.222V693.868H646.501V692.706H644.485V690.774H643.127V692.706H641.867V693.868H643.127V698.222ZM647.295 692.706V700.364H648.653V692.706H647.295ZM647.253 689.962V691.446H648.695V689.962H647.253ZM652.934 693.728C654.096 693.728 654.824 694.484 654.824 695.66V695.912H650.988V695.716C650.988 694.54 651.8 693.728 652.934 693.728ZM655.384 698.614C654.726 699.034 654.054 699.3 653.06 699.3C651.842 699.3 650.988 698.516 650.988 697.074V697.018H656.14V695.996C656.14 693.812 654.894 692.566 652.934 692.566C651.044 692.566 649.644 693.756 649.644 696.08V696.948C649.644 699.426 651.114 700.476 653.004 700.476C654.39 700.476 655.286 700.098 655.958 699.636L655.384 698.614ZM659.355 699.3C658.431 699.3 657.647 698.95 656.961 698.488L656.331 699.552C657.059 700.112 658.137 700.476 659.411 700.476C661.189 700.476 662.323 699.538 662.323 698.334V698.152C662.323 696.738 661.441 696.178 659.579 695.828C658.389 695.604 657.927 695.38 657.927 694.778V694.652C657.927 694.12 658.389 693.728 659.523 693.728C660.293 693.728 661.035 693.966 661.539 694.344L662.141 693.322C661.385 692.79 660.461 692.566 659.425 692.566C657.437 692.566 656.569 693.574 656.569 694.638V694.806C656.569 696.15 657.507 696.696 659.201 697.046C660.643 697.34 660.951 697.55 660.951 698.194V698.306C660.951 698.922 660.363 699.3 659.355 699.3Z" fill="#222222"/>
<defs>
<filter id="filter0_d_182_5076" x="321" y="66" width="166" height="166" filterUnits="userSpaceOnUse" color-interpolation-filters="sRGB">
<feFlood flood-opacity="0" result="BackgroundImageFix"/>
<feColorMatrix in="SourceAlpha" type="matrix" values="0 0 0 0 0 0 0 0 0 0 0 0 0 0 0 0 0 0 127 0" result="hardAlpha"/>
<feOffset dx="10" dy="10"/>
<feGaussianBlur stdDeviation="10"/>
<feComposite in2="hardAlpha" operator="out"/>
<feColorMatrix type="matrix" values="0 0 0 0 0 0 0 0 0 0 0 0 0 0 0 0 0 0 0.1 0"/>
<feBlend mode="normal" in2="BackgroundImageFix" result="effect1_dropShadow_182_5076"/>
<feBlend mode="normal" in="SourceGraphic" in2="effect1_dropShadow_182_5076" result="shape"/>
</filter>
<filter id="filter1_d_182_5076" x="84" y="596" width="166" height="166" filterUnits="userSpaceOnUse" color-interpolation-filters="sRGB">
<feFlood flood-opacity="0" result="BackgroundImageFix"/>
<feColorMatrix in="SourceAlpha" type="matrix" values="0 0 0 0 0 0 0 0 0 0 0 0 0 0 0 0 0 0 127 0" result="hardAlpha"/>
<feOffset dx="10" dy="10"/>
<feGaussianBlur stdDeviation="10"/>
<feComposite in2="hardAlpha" operator="out"/>
<feColorMatrix type="matrix" values="0 0 0 0 0 0 0 0 0 0 0 0 0 0 0 0 0 0 0.1 0"/>
<feBlend mode="normal" in2="BackgroundImageFix" result="effect1_dropShadow_182_5076"/>
<feBlend mode="normal" in="SourceGraphic" in2="effect1_dropShadow_182_5076" result="shape"/>
</filter>
<filter id="filter2_d_182_5076" x="557" y="596" width="166" height="166" filterUnits="userSpaceOnUse" color-interpolation-filters="sRGB">
<feFlood flood-opacity="0" result="BackgroundImageFix"/>
<feColorMatrix in="SourceAlpha" type="matrix" values="0 0 0 0 0 0 0 0 0 0 0 0 0 0 0 0 0 0 127 0" result="hardAlpha"/>
<feOffset dx="10" dy="10"/>
<feGaussianBlur stdDeviation="10"/>
<feComposite in2="hardAlpha" operator="out"/>
<feColorMatrix type="matrix" values="0 0 0 0 0 0 0 0 0 0 0 0 0 0 0 0 0 0 0.1 0"/>
<feBlend mode="normal" in2="BackgroundImageFix" result="effect1_dropShadow_182_5076"/>
<feBlend mode="normal" in="SourceGraphic" in2="effect1_dropShadow_182_5076" result="shape"/>
</filter>
<linearGradient id="paint0_linear_182_5076" x1="433.301" y1="656.343" x2="231.621" y2="567.654" gradientUnits="userSpaceOnUse">
<stop stop-color="#34BAA5"/>
<stop offset="1" stop-color="#C7EFE9"/>
</linearGradient>
<linearGradient id="paint1_linear_182_5076" x1="244.838" y1="584.284" x2="243.75" y2="307.75" gradientUnits="userSpaceOnUse">
<stop stop-color="#319EBA"/>
<stop offset="1" stop-color="#78E3FF"/>
</linearGradient>
<linearGradient id="paint2_linear_182_5076" x1="233.325" y1="343.803" x2="442.254" y2="262.789" gradientUnits="userSpaceOnUse">
<stop stop-color="#4C8BDD"/>
<stop offset="1" stop-color="#CFE4FF"/>
</linearGradient>
<linearGradient id="paint3_linear_182_5076" x1="463.147" y1="272.596" x2="590.636" y2="497.728" gradientUnits="userSpaceOnUse">
<stop stop-color="#33B9A5"/>
<stop offset="1" stop-color="#C6EFE9"/>
</linearGradient>
<linearGradient id="paint4_linear_182_5076" x1="592.769" y1="467.882" x2="508.771" y2="619.675" gradientUnits="userSpaceOnUse">
<stop stop-color="#4D8CDE"/>
<stop offset="1" stop-color="#CAE0FE"/>
</linearGradient>
<linearGradient id="paint5_linear_182_5076" x1="393" y1="313" x2="393" y2="603" gradientUnits="userSpaceOnUse">
<stop stop-color="#33B9A5"/>
<stop offset="0.69" stop-color="#40A7C9"/>
<stop offset="1" stop-color="#5082E6"/>
</linearGradient>
</defs>
</svg>
