<svg width="639" height="696" viewBox="0 0 639 696" fill="none" xmlns="http://www.w3.org/2000/svg">
<path d="M507.703 392.501C516.533 392.501 523.754 399.67 523.093 408.476C521.4 431.003 516.135 453.153 507.464 474.086C496.75 499.952 481.046 523.454 461.249 543.251C441.453 563.048 417.95 578.752 392.085 589.466C371.151 598.137 349.001 603.402 326.474 605.095C317.668 605.756 310.499 598.535 310.499 589.704V589.704C310.499 580.874 317.672 573.788 326.468 573.01C344.792 571.389 362.794 566.984 379.847 559.921C401.833 550.814 421.81 537.466 438.637 520.639C455.464 503.811 468.812 483.835 477.919 461.849C484.982 444.796 489.387 426.794 491.008 408.47C491.786 399.674 498.872 392.501 507.703 392.501V392.501Z" fill="#CBE0FF"/>
<path d="M361.54 582.983C363.826 591.513 358.77 600.343 350.093 601.983C327.895 606.179 305.137 606.826 282.673 603.868C254.915 600.214 228.15 591.128 203.904 577.13C179.658 563.131 158.406 544.494 141.363 522.283C127.569 504.307 116.751 484.274 109.285 462.953C106.367 454.618 111.486 445.825 120.016 443.539V443.539C128.546 441.254 137.247 446.348 140.275 454.643C146.583 471.923 155.497 488.172 166.733 502.815C181.22 521.695 199.284 537.537 219.893 549.435C240.502 561.334 263.253 569.057 286.847 572.163C305.147 574.572 323.675 574.167 341.794 570.991C350.492 569.466 359.254 574.453 361.54 582.983V582.983Z" fill="url(#paint0_linear_171_3170)"/>
<path d="M171.056 531.944C164.812 538.188 154.637 538.225 148.878 531.53C134.146 514.404 122.207 495.019 113.536 474.085C102.822 448.22 97.3073 420.497 97.3073 392.5C97.3073 364.503 102.822 336.78 113.536 310.915C122.207 289.981 134.146 270.596 148.878 253.47C154.637 246.775 164.812 246.812 171.056 253.056V253.056C177.301 259.301 177.239 269.382 171.569 276.153C159.759 290.256 150.144 306.1 143.08 323.152C133.973 345.138 129.286 368.703 129.286 392.5C129.286 416.297 133.973 439.862 143.08 461.848C150.144 478.9 159.759 494.744 171.569 508.847C177.239 515.618 177.301 525.699 171.056 531.944V531.944Z" fill="url(#paint1_linear_171_3170)"/>
<path d="M139.716 293.898C132.069 289.483 129.399 279.664 134.375 272.369C147.105 253.706 162.74 237.156 180.716 223.363C202.927 206.319 228.278 193.818 255.321 186.572C282.364 179.325 310.569 177.477 338.326 181.131C360.791 184.089 382.606 190.604 402.962 200.401C410.919 204.231 413.516 214.069 409.101 221.717V221.717C404.686 229.365 394.931 231.915 386.924 228.19C370.245 220.432 352.452 215.246 334.152 212.836C310.559 209.73 286.584 211.302 263.598 217.461C240.611 223.62 219.063 234.246 200.183 248.733C185.54 259.97 172.724 273.358 162.158 288.416C157.086 295.645 147.364 298.314 139.716 293.898V293.898Z" fill="url(#paint2_linear_171_3170)"/>
<path d="M361.539 202.016C363.825 193.486 372.618 188.367 380.953 191.285C402.274 198.751 422.307 209.569 440.283 223.363C462.494 240.406 481.131 261.658 495.13 285.904C509.128 310.15 518.214 336.915 521.868 364.673C524.826 387.137 524.179 409.895 519.983 432.093C518.343 440.77 509.513 445.826 500.983 443.54V443.54C492.453 441.254 487.465 432.492 488.99 423.794C492.167 405.675 492.572 387.147 490.163 368.847C487.057 345.253 479.334 322.502 467.435 301.893C455.536 281.284 439.695 263.22 420.815 248.733C406.172 237.497 389.923 228.583 372.643 222.275C364.348 219.247 359.254 210.546 361.539 202.016V202.016Z" fill="url(#paint3_linear_171_3170)"/>
<path d="M507.703 392.501C516.533 392.501 523.754 399.67 523.093 408.476C520.812 438.836 512.048 468.42 497.322 495.208C482.595 521.995 462.312 545.246 437.901 563.44C430.82 568.717 420.898 566.461 416.166 559.005V559.005C411.434 551.549 413.694 541.724 420.704 536.353C440.601 521.11 457.167 501.867 469.298 479.802C481.429 457.736 488.799 433.437 491.008 408.47C491.786 399.674 498.872 392.501 507.703 392.501V392.501Z" fill="url(#paint4_linear_171_3170)"/>
<circle cx="309" cy="392" r="144.5" fill="white" stroke="url(#paint5_linear_171_3170)"/>
<path d="M219.686 352.1V366.52H224.466C228.526 366.52 230.526 364.32 230.526 360.34V358.28C230.526 354.3 228.426 352.1 224.466 352.1H219.686ZM221.666 353.84H224.286C226.866 353.84 228.506 355.14 228.506 358.38V360.24C228.506 363.48 226.866 364.76 224.286 364.76H221.666V353.84ZM236.496 355.38C233.496 355.38 231.616 357.18 231.616 360.36V361.7C231.616 364.86 233.496 366.68 236.496 366.68C239.496 366.68 241.376 364.86 241.376 361.7V360.36C241.376 357.2 239.496 355.38 236.496 355.38ZM236.496 364.98C234.756 364.98 233.576 363.86 233.576 361.54V360.52C233.576 358.2 234.756 357.08 236.496 357.08C238.236 357.08 239.416 358.2 239.416 360.52V361.54C239.416 363.86 238.236 364.98 236.496 364.98ZM251.754 359.28C251.754 356.64 250.034 355.38 247.914 355.38C246.414 355.38 245.294 355.94 244.634 356.96H244.614V355.58H242.734V366.52H244.674V359.74C244.674 358.02 246.114 357.1 247.434 357.1C249.054 357.1 249.814 357.88 249.814 359.72V366.52H251.754V359.28ZM262.306 355.58H260.366V356.72C259.926 356.08 258.966 355.38 257.306 355.38C254.746 355.38 252.966 357.12 252.966 360.08V361.82C252.966 364.78 254.466 366.48 257.226 366.48C258.546 366.48 259.746 366.08 260.366 365.04V366.38C260.366 368.32 259.366 369.22 257.486 369.22C256.406 369.22 255.386 368.84 254.666 368.3L253.786 369.82C254.686 370.52 255.946 370.98 257.426 370.98C260.646 370.98 262.306 369.44 262.306 366.38V355.58ZM260.386 362.02C260.386 363.72 259.086 364.78 257.506 364.78C255.886 364.78 254.886 363.58 254.886 361.5V360.36C254.886 358.3 255.866 357.08 257.506 357.08C259.186 357.08 260.386 358.26 260.386 359.4V362.02ZM266.161 351.4H264.221V366.52H266.101V365.24H266.141C266.621 366.02 267.581 366.68 269.221 366.68C271.781 366.68 273.561 364.94 273.561 361.98V360.04C273.561 357.08 272.041 355.38 269.281 355.38C268.081 355.38 266.861 355.76 266.161 356.84V351.4ZM266.141 359.86C266.141 358.16 267.441 357.08 269.021 357.08C270.641 357.08 271.641 358.28 271.641 360.36V361.7C271.641 363.76 270.661 364.98 269.021 364.98C267.341 364.98 266.141 363.76 266.141 362.62V359.86ZM274.775 362.82C274.775 365.46 276.455 366.72 278.575 366.72C280.075 366.72 281.155 366.16 281.815 365.14H281.835V366.52H283.715V355.58H281.775V362.36C281.775 364.08 280.375 365 279.055 365C277.435 365 276.715 364.22 276.715 362.38V355.58H274.775V362.82ZM298.869 363.38C297.669 364.56 296.229 364.9 294.849 364.9C292.669 364.9 291.069 363.44 291.069 360.14V358.48C291.069 355.18 292.669 353.72 294.849 353.72C296.149 353.72 297.289 353.98 298.589 355.04L299.609 353.42C298.269 352.36 296.829 351.88 294.849 351.88C291.429 351.88 289.069 354.02 289.069 358.22V360.4C289.069 364.64 291.409 366.74 294.849 366.74C296.789 366.74 298.509 366.28 299.949 364.9L298.869 363.38ZM305.225 355.38C302.225 355.38 300.345 357.18 300.345 360.36V361.7C300.345 364.86 302.225 366.68 305.225 366.68C308.225 366.68 310.105 364.86 310.105 361.7V360.36C310.105 357.2 308.225 355.38 305.225 355.38ZM305.225 364.98C303.485 364.98 302.305 363.86 302.305 361.54V360.52C302.305 358.2 303.485 357.08 305.225 357.08C306.965 357.08 308.145 358.2 308.145 360.52V361.54C308.145 363.86 306.965 364.98 305.225 364.98ZM318.003 355.6C317.563 355.46 317.083 355.38 316.583 355.38C314.983 355.38 314.003 356.1 313.363 357.32H313.343V355.58H311.463V366.52H313.403V360.14C313.403 358.42 314.643 357.22 316.083 357.22C316.603 357.22 317.043 357.32 317.423 357.48L318.003 355.6ZM320.483 355.58H318.603V370.8H320.543V365.32C320.983 365.96 321.943 366.68 323.563 366.68C326.183 366.68 327.943 365 327.943 361.98V360.04C327.943 357.16 326.443 355.38 323.683 355.38C322.383 355.38 321.123 355.82 320.483 356.94V355.58ZM320.523 359.86C320.523 358.16 321.823 357.08 323.403 357.08C325.023 357.08 326.023 358.28 326.023 360.36V361.7C326.023 363.76 325.043 364.98 323.403 364.98C321.723 364.98 320.523 363.76 320.523 362.62V359.86ZM333.539 355.38C330.539 355.38 328.659 357.18 328.659 360.36V361.7C328.659 364.86 330.539 366.68 333.539 366.68C336.539 366.68 338.419 364.86 338.419 361.7V360.36C338.419 357.2 336.539 355.38 333.539 355.38ZM333.539 364.98C331.799 364.98 330.619 363.86 330.619 361.54V360.52C330.619 358.2 331.799 357.08 333.539 357.08C335.279 357.08 336.459 358.2 336.459 360.52V361.54C336.459 363.86 335.279 364.98 333.539 364.98ZM346.317 355.6C345.877 355.46 345.397 355.38 344.897 355.38C343.297 355.38 342.317 356.1 341.677 357.32H341.657V355.58H339.777V366.52H341.717V360.14C341.717 358.42 342.957 357.22 344.397 357.22C344.917 357.22 345.357 357.32 345.737 357.48L346.317 355.6ZM349.957 366.68C350.917 366.68 351.557 366.5 352.137 366.18C352.557 365.94 352.957 365.6 353.157 365.2H353.177V366.52H355.037V358.86C355.037 356.66 353.317 355.38 350.877 355.38C349.117 355.38 347.817 356.02 346.757 356.76L347.717 358.2C348.737 357.54 349.577 357.1 350.857 357.1C352.457 357.1 353.117 357.8 353.117 359.26V359.9H350.337C347.537 359.9 346.357 361.2 346.357 363.06V363.6C346.357 365.52 347.757 366.68 349.957 366.68ZM353.117 362.62C353.117 363.44 352.897 363.92 352.377 364.32C351.797 364.78 351.117 365 350.157 365C349.117 365 348.257 364.54 348.257 363.48V363.2C348.257 362.16 348.857 361.54 350.377 361.54H353.117V362.62ZM357.549 363.46C357.549 365.66 358.509 366.68 360.589 366.68C361.369 366.68 362.189 366.5 362.629 366.32L362.329 364.76C361.829 364.94 361.369 365.02 360.889 365.02C360.069 365.02 359.489 364.8 359.489 363.46V357.24H362.369V355.58H359.489V352.82H357.549V355.58H355.749V357.24H357.549V363.46ZM363.502 355.58V366.52H365.442V355.58H363.502ZM363.442 351.66V353.78H365.502V351.66H363.442ZM371.738 355.38C368.738 355.38 366.858 357.18 366.858 360.36V361.7C366.858 364.86 368.738 366.68 371.738 366.68C374.738 366.68 376.618 364.86 376.618 361.7V360.36C376.618 357.2 374.738 355.38 371.738 355.38ZM371.738 364.98C369.998 364.98 368.818 363.86 368.818 361.54V360.52C368.818 358.2 369.998 357.08 371.738 357.08C373.478 357.08 374.658 358.2 374.658 360.52V361.54C374.658 363.86 373.478 364.98 371.738 364.98ZM386.996 359.28C386.996 356.64 385.276 355.38 383.156 355.38C381.656 355.38 380.536 355.94 379.876 356.96H379.856V355.58H377.976V366.52H379.916V359.74C379.916 358.02 381.356 357.1 382.676 357.1C384.296 357.1 385.056 357.88 385.056 359.72V366.52H386.996V359.28ZM387.589 355.4H389.129L390.629 350.84H388.429L387.589 355.4ZM394.953 365C393.633 365 392.513 364.5 391.533 363.84L390.633 365.36C391.673 366.16 393.213 366.68 395.033 366.68C397.573 366.68 399.193 365.34 399.193 363.62V363.36C399.193 361.34 397.933 360.54 395.273 360.04C393.573 359.72 392.913 359.4 392.913 358.54V358.36C392.913 357.6 393.573 357.04 395.193 357.04C396.293 357.04 397.353 357.38 398.073 357.92L398.933 356.46C397.853 355.7 396.533 355.38 395.053 355.38C392.213 355.38 390.973 356.82 390.973 358.34V358.58C390.973 360.5 392.313 361.28 394.733 361.78C396.793 362.2 397.233 362.5 397.233 363.42V363.58C397.233 364.46 396.393 365 394.953 365ZM254.048 389.04C255.708 389.04 256.748 390.12 256.748 391.8V392.16H251.268V391.88C251.268 390.2 252.428 389.04 254.048 389.04ZM257.548 396.02C256.608 396.62 255.648 397 254.228 397C252.488 397 251.268 395.88 251.268 393.82V393.74H258.628V392.28C258.628 389.16 256.848 387.38 254.048 387.38C251.348 387.38 249.348 389.08 249.348 392.4V393.64C249.348 397.18 251.448 398.68 254.148 398.68C256.128 398.68 257.408 398.14 258.368 397.48L257.548 396.02ZM268.842 391.28C268.842 388.64 267.122 387.38 265.002 387.38C263.502 387.38 262.382 387.94 261.722 388.96H261.702V387.58H259.822V398.52H261.762V391.74C261.762 390.02 263.202 389.1 264.522 389.1C266.142 389.1 266.902 389.88 266.902 391.72V398.52H268.842V391.28ZM274.214 396.7L271.334 387.58H269.234L272.974 398.52H275.454L279.154 387.58H277.114L274.254 396.7H274.214ZM279.767 387.58V398.52H281.707V387.58H279.767ZM279.707 383.66V385.78H281.767V383.66H279.707ZM290.223 387.6C289.783 387.46 289.303 387.38 288.803 387.38C287.203 387.38 286.223 388.1 285.583 389.32H285.563V387.58H283.683V398.52H285.623V392.14C285.623 390.42 286.863 389.22 288.303 389.22C288.823 389.22 289.263 389.32 289.643 389.48L290.223 387.6ZM295.142 387.38C292.142 387.38 290.262 389.18 290.262 392.36V393.7C290.262 396.86 292.142 398.68 295.142 398.68C298.142 398.68 300.022 396.86 300.022 393.7V392.36C300.022 389.2 298.142 387.38 295.142 387.38ZM295.142 396.98C293.402 396.98 292.222 395.86 292.222 393.54V392.52C292.222 390.2 293.402 389.08 295.142 389.08C296.882 389.08 298.062 390.2 298.062 392.52V393.54C298.062 395.86 296.882 396.98 295.142 396.98ZM310.4 391.28C310.4 388.64 308.68 387.38 306.56 387.38C305.06 387.38 303.94 387.94 303.28 388.96H303.26V387.58H301.38V398.52H303.32V391.74C303.32 390.02 304.76 389.1 306.08 389.1C307.7 389.1 308.46 389.88 308.46 391.72V398.52H310.4V391.28ZM327.173 391.34C327.173 388.82 325.793 387.38 323.553 387.38C321.833 387.38 320.853 388.14 320.153 389.2C319.593 388.04 318.473 387.38 317.013 387.38C315.493 387.38 314.513 388.1 314.093 389.06H314.073V387.58H312.153V398.52H314.093V391.6C314.093 389.88 315.433 389.14 316.633 389.14C318.013 389.14 318.693 390.06 318.693 391.96V398.52H320.633V391.7C320.633 389.92 321.953 389.14 323.173 389.14C324.553 389.14 325.233 390.06 325.233 391.96V398.52H327.173V391.34ZM333.081 389.04C334.741 389.04 335.781 390.12 335.781 391.8V392.16H330.301V391.88C330.301 390.2 331.461 389.04 333.081 389.04ZM336.581 396.02C335.641 396.62 334.681 397 333.261 397C331.521 397 330.301 395.88 330.301 393.82V393.74H337.661V392.28C337.661 389.16 335.881 387.38 333.081 387.38C330.381 387.38 328.381 389.08 328.381 392.4V393.64C328.381 397.18 330.481 398.68 333.181 398.68C335.161 398.68 336.441 398.14 337.401 397.48L336.581 396.02ZM347.875 391.28C347.875 388.64 346.155 387.38 344.035 387.38C342.535 387.38 341.415 387.94 340.755 388.96H340.735V387.58H338.855V398.52H340.795V391.74C340.795 390.02 342.235 389.1 343.555 389.1C345.175 389.1 345.935 389.88 345.935 391.72V398.52H347.875V391.28ZM350.307 395.46C350.307 397.66 351.267 398.68 353.347 398.68C354.127 398.68 354.947 398.5 355.387 398.32L355.087 396.76C354.587 396.94 354.127 397.02 353.647 397.02C352.827 397.02 352.247 396.8 352.247 395.46V389.24H355.127V387.58H352.247V384.82H350.307V387.58H348.507V389.24H350.307V395.46ZM359.241 398.68C360.201 398.68 360.841 398.5 361.421 398.18C361.841 397.94 362.241 397.6 362.441 397.2H362.461V398.52H364.321V390.86C364.321 388.66 362.601 387.38 360.161 387.38C358.401 387.38 357.101 388.02 356.041 388.76L357.001 390.2C358.021 389.54 358.861 389.1 360.141 389.1C361.741 389.1 362.401 389.8 362.401 391.26V391.9H359.621C356.821 391.9 355.641 393.2 355.641 395.06V395.6C355.641 397.52 357.041 398.68 359.241 398.68ZM362.401 394.62C362.401 395.44 362.181 395.92 361.661 396.32C361.081 396.78 360.401 397 359.441 397C358.401 397 357.541 396.54 357.541 395.48V395.2C357.541 394.16 358.141 393.54 359.661 393.54H362.401V394.62ZM366.153 383.4V398.52H368.093V383.4H366.153ZM237.016 423.34C237.016 420.82 235.636 419.38 233.396 419.38C231.676 419.38 230.696 420.14 229.996 421.2C229.436 420.04 228.316 419.38 226.856 419.38C225.336 419.38 224.356 420.1 223.936 421.06H223.916V419.58H221.996V430.52H223.936V423.6C223.936 421.88 225.276 421.14 226.476 421.14C227.856 421.14 228.536 422.06 228.536 423.96V430.52H230.476V423.7C230.476 421.92 231.796 421.14 233.016 421.14C234.396 421.14 235.076 422.06 235.076 423.96V430.52H237.016V423.34ZM241.824 430.68C242.784 430.68 243.424 430.5 244.004 430.18C244.424 429.94 244.824 429.6 245.024 429.2H245.044V430.52H246.904V422.86C246.904 420.66 245.184 419.38 242.744 419.38C240.984 419.38 239.684 420.02 238.624 420.76L239.584 422.2C240.604 421.54 241.444 421.1 242.724 421.1C244.324 421.1 244.984 421.8 244.984 423.26V423.9H242.204C239.404 423.9 238.224 425.2 238.224 427.06V427.6C238.224 429.52 239.624 430.68 241.824 430.68ZM244.984 426.62C244.984 427.44 244.764 427.92 244.244 428.32C243.664 428.78 242.984 429 242.024 429C240.984 429 240.124 428.54 240.124 427.48V427.2C240.124 426.16 240.724 425.54 242.244 425.54H244.984V426.62ZM257.757 423.28C257.757 420.64 256.037 419.38 253.917 419.38C252.417 419.38 251.297 419.94 250.637 420.96H250.617V419.58H248.737V430.52H250.677V423.74C250.677 422.02 252.117 421.1 253.437 421.1C255.057 421.1 255.817 421.88 255.817 423.72V430.52H257.757V423.28ZM262.549 430.68C263.509 430.68 264.149 430.5 264.729 430.18C265.149 429.94 265.549 429.6 265.749 429.2H265.769V430.52H267.629V422.86C267.629 420.66 265.909 419.38 263.469 419.38C261.709 419.38 260.409 420.02 259.349 420.76L260.309 422.2C261.329 421.54 262.169 421.1 263.449 421.1C265.049 421.1 265.709 421.8 265.709 423.26V423.9H262.929C260.129 423.9 258.949 425.2 258.949 427.06V427.6C258.949 429.52 260.349 430.68 262.549 430.68ZM265.709 426.62C265.709 427.44 265.489 427.92 264.969 428.32C264.389 428.78 263.709 429 262.749 429C261.709 429 260.849 428.54 260.849 427.48V427.2C260.849 426.16 261.449 425.54 262.969 425.54H265.709V426.62ZM278.262 419.58H276.322V420.72C275.882 420.08 274.922 419.38 273.262 419.38C270.702 419.38 268.922 421.12 268.922 424.08V425.82C268.922 428.78 270.422 430.48 273.182 430.48C274.502 430.48 275.702 430.08 276.322 429.04V430.38C276.322 432.32 275.322 433.22 273.442 433.22C272.362 433.22 271.342 432.84 270.622 432.3L269.742 433.82C270.642 434.52 271.902 434.98 273.382 434.98C276.602 434.98 278.262 433.44 278.262 430.38V419.58ZM276.342 426.02C276.342 427.72 275.042 428.78 273.462 428.78C271.842 428.78 270.842 427.58 270.842 425.5V424.36C270.842 422.3 271.822 421.08 273.462 421.08C275.142 421.08 276.342 422.26 276.342 423.4V426.02ZM284.316 421.04C285.976 421.04 287.016 422.12 287.016 423.8V424.16H281.536V423.88C281.536 422.2 282.696 421.04 284.316 421.04ZM287.816 428.02C286.876 428.62 285.916 429 284.496 429C282.756 429 281.536 427.88 281.536 425.82V425.74H288.896V424.28C288.896 421.16 287.116 419.38 284.316 419.38C281.616 419.38 279.616 421.08 279.616 424.4V425.64C279.616 429.18 281.716 430.68 284.416 430.68C286.396 430.68 287.676 430.14 288.636 429.48L287.816 428.02ZM305.109 423.34C305.109 420.82 303.729 419.38 301.489 419.38C299.769 419.38 298.789 420.14 298.089 421.2C297.529 420.04 296.409 419.38 294.949 419.38C293.429 419.38 292.449 420.1 292.029 421.06H292.009V419.58H290.089V430.52H292.029V423.6C292.029 421.88 293.369 421.14 294.569 421.14C295.949 421.14 296.629 422.06 296.629 423.96V430.52H298.569V423.7C298.569 421.92 299.889 421.14 301.109 421.14C302.489 421.14 303.169 422.06 303.169 423.96V430.52H305.109V423.34ZM311.017 421.04C312.677 421.04 313.717 422.12 313.717 423.8V424.16H308.237V423.88C308.237 422.2 309.397 421.04 311.017 421.04ZM314.517 428.02C313.577 428.62 312.617 429 311.197 429C309.457 429 308.237 427.88 308.237 425.82V425.74H315.597V424.28C315.597 421.16 313.817 419.38 311.017 419.38C308.317 419.38 306.317 421.08 306.317 424.4V425.64C306.317 429.18 308.417 430.68 311.117 430.68C313.097 430.68 314.377 430.14 315.337 429.48L314.517 428.02ZM325.81 423.28C325.81 420.64 324.09 419.38 321.97 419.38C320.47 419.38 319.35 419.94 318.69 420.96H318.67V419.58H316.79V430.52H318.73V423.74C318.73 422.02 320.17 421.1 321.49 421.1C323.11 421.1 323.87 421.88 323.87 423.72V430.52H325.81V423.28ZM328.243 427.46C328.243 429.66 329.203 430.68 331.283 430.68C332.063 430.68 332.883 430.5 333.323 430.32L333.023 428.76C332.523 428.94 332.063 429.02 331.583 429.02C330.763 429.02 330.183 428.8 330.183 427.46V421.24H333.063V419.58H330.183V416.82H328.243V419.58H326.443V421.24H328.243V427.46ZM341.337 429C340.017 429 338.897 428.5 337.917 427.84L337.017 429.36C338.057 430.16 339.597 430.68 341.417 430.68C343.957 430.68 345.577 429.34 345.577 427.62V427.36C345.577 425.34 344.317 424.54 341.657 424.04C339.957 423.72 339.297 423.4 339.297 422.54V422.36C339.297 421.6 339.957 421.04 341.577 421.04C342.677 421.04 343.737 421.38 344.457 421.92L345.317 420.46C344.237 419.7 342.917 419.38 341.437 419.38C338.597 419.38 337.357 420.82 337.357 422.34V422.58C337.357 424.5 338.697 425.28 341.117 425.78C343.177 426.2 343.617 426.5 343.617 427.42V427.58C343.617 428.46 342.777 429 341.337 429ZM350.337 428.32L347.437 419.58H345.337L349.317 430.68L347.897 434.42L349.657 435.04L355.337 419.58H353.297L350.417 428.32H350.337ZM359.288 429C357.968 429 356.848 428.5 355.868 427.84L354.968 429.36C356.008 430.16 357.548 430.68 359.368 430.68C361.908 430.68 363.528 429.34 363.528 427.62V427.36C363.528 425.34 362.268 424.54 359.608 424.04C357.908 423.72 357.248 423.4 357.248 422.54V422.36C357.248 421.6 357.908 421.04 359.528 421.04C360.628 421.04 361.688 421.38 362.408 421.92L363.268 420.46C362.188 419.7 360.868 419.38 359.388 419.38C356.548 419.38 355.308 420.82 355.308 422.34V422.58C355.308 424.5 356.648 425.28 359.068 425.78C361.128 426.2 361.568 426.5 361.568 427.42V427.58C361.568 428.46 360.728 429 359.288 429ZM365.329 427.46C365.329 429.66 366.289 430.68 368.369 430.68C369.149 430.68 369.969 430.5 370.409 430.32L370.109 428.76C369.609 428.94 369.149 429.02 368.669 429.02C367.849 429.02 367.269 428.8 367.269 427.46V421.24H370.149V419.58H367.269V416.82H365.329V419.58H363.529V421.24H365.329V427.46ZM375.363 421.04C377.023 421.04 378.063 422.12 378.063 423.8V424.16H372.583V423.88C372.583 422.2 373.743 421.04 375.363 421.04ZM378.863 428.02C377.923 428.62 376.963 429 375.543 429C373.803 429 372.583 427.88 372.583 425.82V425.74H379.943V424.28C379.943 421.16 378.163 419.38 375.363 419.38C372.663 419.38 370.663 421.08 370.663 424.4V425.64C370.663 429.18 372.763 430.68 375.463 430.68C377.443 430.68 378.723 430.14 379.683 429.48L378.863 428.02ZM396.156 423.34C396.156 420.82 394.776 419.38 392.536 419.38C390.816 419.38 389.836 420.14 389.136 421.2C388.576 420.04 387.456 419.38 385.996 419.38C384.476 419.38 383.496 420.1 383.076 421.06H383.056V419.58H381.136V430.52H383.076V423.6C383.076 421.88 384.416 421.14 385.616 421.14C386.996 421.14 387.676 422.06 387.676 423.96V430.52H389.616V423.7C389.616 421.92 390.936 421.14 392.156 421.14C393.536 421.14 394.216 422.06 394.216 423.96V430.52H396.156V423.34Z" fill="#19B29B"/>
<path d="M309 179H310V135H309V179Z" fill="#CCCCCC"/>
<g filter="url(#filter0_d_171_3170)">
<circle cx="310" cy="73" r="63" fill="white"/>
</g>
<path d="M269.369 49.27V59.364H275.753V58.174H270.755V54.786H275.361V53.596H270.755V50.46H275.655V49.27H269.369ZM279.22 58.3C278.296 58.3 277.512 57.95 276.826 57.488L276.196 58.552C276.924 59.112 278.002 59.476 279.276 59.476C281.054 59.476 282.188 58.538 282.188 57.334V57.152C282.188 55.738 281.306 55.178 279.444 54.828C278.254 54.604 277.792 54.38 277.792 53.778V53.652C277.792 53.12 278.254 52.728 279.388 52.728C280.158 52.728 280.9 52.966 281.404 53.344L282.006 52.322C281.25 51.79 280.326 51.566 279.29 51.566C277.302 51.566 276.434 52.574 276.434 53.638V53.806C276.434 55.15 277.372 55.696 279.066 56.046C280.508 56.34 280.816 56.55 280.816 57.194V57.306C280.816 57.922 280.228 58.3 279.22 58.3ZM283.449 57.222C283.449 58.762 284.121 59.476 285.577 59.476C286.123 59.476 286.697 59.35 287.005 59.224L286.795 58.132C286.445 58.258 286.123 58.314 285.787 58.314C285.213 58.314 284.807 58.16 284.807 57.222V52.868H286.823V51.706H284.807V49.774H283.449V51.706H282.189V52.868H283.449V57.222ZM289.702 59.476C290.374 59.476 290.822 59.35 291.228 59.126C291.522 58.958 291.802 58.72 291.942 58.44H291.956V59.364H293.258V54.002C293.258 52.462 292.054 51.566 290.346 51.566C289.114 51.566 288.204 52.014 287.462 52.532L288.134 53.54C288.848 53.078 289.436 52.77 290.332 52.77C291.452 52.77 291.914 53.26 291.914 54.282V54.73H289.968C288.008 54.73 287.182 55.64 287.182 56.942V57.32C287.182 58.664 288.162 59.476 289.702 59.476ZM291.914 56.634C291.914 57.208 291.76 57.544 291.396 57.824C290.99 58.146 290.514 58.3 289.842 58.3C289.114 58.3 288.512 57.978 288.512 57.236V57.04C288.512 56.312 288.932 55.878 289.996 55.878H291.914V56.634ZM295.899 48.78H294.541V59.364H295.857V58.468H295.885C296.221 59.014 296.893 59.476 298.041 59.476C299.833 59.476 301.079 58.258 301.079 56.186V54.828C301.079 52.756 300.015 51.566 298.083 51.566C297.243 51.566 296.389 51.832 295.899 52.588V48.78ZM295.885 54.702C295.885 53.512 296.795 52.756 297.901 52.756C299.035 52.756 299.735 53.596 299.735 55.052V55.99C299.735 57.432 299.049 58.286 297.901 58.286C296.725 58.286 295.885 57.432 295.885 56.634V54.702ZM302.04 48.78V59.364H303.398V48.78H302.04ZM304.783 51.706V59.364H306.141V51.706H304.783ZM304.741 48.962V50.446H306.183V48.962H304.741ZM309.904 58.3C308.98 58.3 308.196 57.95 307.51 57.488L306.88 58.552C307.608 59.112 308.686 59.476 309.96 59.476C311.738 59.476 312.872 58.538 312.872 57.334V57.152C312.872 55.738 311.99 55.178 310.128 54.828C308.938 54.604 308.476 54.38 308.476 53.778V53.652C308.476 53.12 308.938 52.728 310.072 52.728C310.842 52.728 311.584 52.966 312.088 53.344L312.69 52.322C311.934 51.79 311.01 51.566 309.974 51.566C307.986 51.566 307.118 52.574 307.118 53.638V53.806C307.118 55.15 308.056 55.696 309.75 56.046C311.192 56.34 311.5 56.55 311.5 57.194V57.306C311.5 57.922 310.912 58.3 309.904 58.3ZM319.971 54.296C319.971 52.448 318.767 51.566 317.283 51.566C316.247 51.566 315.477 51.944 315.015 52.63V48.78H313.657V59.364H315.015V54.618C315.015 53.414 316.023 52.77 316.947 52.77C318.081 52.77 318.613 53.316 318.613 54.604V59.364H319.971V54.296ZM331.712 54.338C331.712 52.574 330.746 51.566 329.178 51.566C327.974 51.566 327.288 52.098 326.798 52.84C326.406 52.028 325.622 51.566 324.6 51.566C323.536 51.566 322.85 52.07 322.556 52.742H322.542V51.706H321.198V59.364H322.556V54.52C322.556 53.316 323.494 52.798 324.334 52.798C325.3 52.798 325.776 53.442 325.776 54.772V59.364H327.134V54.59C327.134 53.344 328.058 52.798 328.912 52.798C329.878 52.798 330.354 53.442 330.354 54.772V59.364H331.712V54.338ZM335.848 52.728C337.01 52.728 337.738 53.484 337.738 54.66V54.912H333.902V54.716C333.902 53.54 334.714 52.728 335.848 52.728ZM338.298 57.614C337.64 58.034 336.968 58.3 335.974 58.3C334.756 58.3 333.902 57.516 333.902 56.074V56.018H339.054V54.996C339.054 52.812 337.808 51.566 335.848 51.566C333.958 51.566 332.558 52.756 332.558 55.08V55.948C332.558 58.426 334.028 59.476 335.918 59.476C337.304 59.476 338.2 59.098 338.872 58.636L338.298 57.614ZM346.203 54.296C346.203 52.448 344.999 51.566 343.515 51.566C342.465 51.566 341.681 51.958 341.219 52.672H341.205V51.706H339.889V59.364H341.247V54.618C341.247 53.414 342.255 52.77 343.179 52.77C344.313 52.77 344.845 53.316 344.845 54.604V59.364H346.203V54.296ZM347.906 57.222C347.906 58.762 348.578 59.476 350.034 59.476C350.58 59.476 351.154 59.35 351.462 59.224L351.252 58.132C350.902 58.258 350.58 58.314 350.244 58.314C349.67 58.314 349.264 58.16 349.264 57.222V52.868H351.28V51.706H349.264V49.774H347.906V51.706H346.646V52.868H347.906V57.222ZM270.34 69.566C268.24 69.566 266.924 70.826 266.924 73.052V73.99C266.924 76.202 268.24 77.476 270.34 77.476C272.44 77.476 273.756 76.202 273.756 73.99V73.052C273.756 70.84 272.44 69.566 270.34 69.566ZM270.34 76.286C269.122 76.286 268.296 75.502 268.296 73.878V73.164C268.296 71.54 269.122 70.756 270.34 70.756C271.558 70.756 272.384 71.54 272.384 73.164V73.878C272.384 75.502 271.558 76.286 270.34 76.286ZM275.182 77.364H276.54V70.868H278.556V69.706H276.54V69.006C276.54 68.012 277.016 67.858 277.534 67.858C277.87 67.858 278.22 67.9 278.57 67.998L278.78 66.892C278.472 66.78 277.898 66.696 277.408 66.696C275.952 66.696 275.182 67.41 275.182 68.95V69.706H273.922V70.868H275.182V77.364ZM281.832 67.27V77.364H288.216V76.174H283.218V72.786H287.824V71.596H283.218V68.46H288.118V67.27H281.832ZM292.215 69.566C290.213 69.566 288.911 70.812 288.911 73.01V73.976C288.911 76.174 290.115 77.476 292.229 77.476C293.629 77.476 294.525 77.042 295.057 76.594L294.399 75.558C293.853 75.964 293.251 76.258 292.243 76.258C291.235 76.258 290.283 75.614 290.283 73.962V72.996C290.283 71.428 291.207 70.77 292.215 70.77C292.957 70.77 293.503 70.91 294.217 71.428L294.861 70.406C294.231 69.93 293.475 69.566 292.215 69.566ZM298.61 69.566C296.51 69.566 295.194 70.826 295.194 73.052V73.99C295.194 76.202 296.51 77.476 298.61 77.476C300.71 77.476 302.026 76.202 302.026 73.99V73.052C302.026 70.84 300.71 69.566 298.61 69.566ZM298.61 76.286C297.392 76.286 296.566 75.502 296.566 73.878V73.164C296.566 71.54 297.392 70.756 298.61 70.756C299.828 70.756 300.654 71.54 300.654 73.164V73.878C300.654 75.502 299.828 76.286 298.61 76.286ZM302.529 72.912H307.093V71.736H302.529V72.912ZM308.072 67.27V77.364H309.458V73.024H314.022V71.834H309.458V68.46H314.316V67.27H308.072ZM319.711 69.72C319.403 69.622 319.067 69.566 318.717 69.566C317.597 69.566 316.911 70.07 316.463 70.924H316.449V69.706H315.133V77.364H316.491V72.898C316.491 71.694 317.359 70.854 318.367 70.854C318.731 70.854 319.039 70.924 319.305 71.036L319.711 69.72ZM320.173 69.706V77.364H321.531V69.706H320.173ZM320.131 66.962V68.446H321.573V66.962H320.131ZM325.812 70.728C326.974 70.728 327.702 71.484 327.702 72.66V72.912H323.866V72.716C323.866 71.54 324.678 70.728 325.812 70.728ZM328.262 75.614C327.604 76.034 326.932 76.3 325.938 76.3C324.72 76.3 323.866 75.516 323.866 74.074V74.018H329.018V72.996C329.018 70.812 327.772 69.566 325.812 69.566C323.922 69.566 322.522 70.756 322.522 73.08V73.948C322.522 76.426 323.992 77.476 325.882 77.476C327.268 77.476 328.164 77.098 328.836 76.636L328.262 75.614ZM336.167 72.296C336.167 70.448 334.963 69.566 333.479 69.566C332.429 69.566 331.645 69.958 331.183 70.672H331.169V69.706H329.853V77.364H331.211V72.618C331.211 71.414 332.219 70.77 333.143 70.77C334.277 70.77 334.809 71.316 334.809 72.604V77.364H336.167V72.296ZM342.252 76.412V77.364H343.554V66.78H342.196V70.504C341.888 70.056 341.216 69.566 340.054 69.566C338.262 69.566 337.016 70.784 337.016 72.856V74.214C337.016 76.286 338.066 77.476 339.998 77.476C340.95 77.476 341.804 77.182 342.224 76.412H342.252ZM342.21 74.354C342.21 75.544 341.3 76.286 340.194 76.286C339.06 76.286 338.36 75.446 338.36 73.99V73.052C338.36 71.61 339.046 70.756 340.194 70.756C341.37 70.756 342.21 71.582 342.21 72.38V74.354ZM344.894 66.78V77.364H346.252V66.78H344.894ZM350.143 75.824L348.113 69.706H346.643L349.429 77.476L348.435 80.094L349.667 80.528L353.643 69.706H352.215L350.199 75.824H350.143ZM271.296 95.364H275.314C277.498 95.364 278.548 94.356 278.548 92.704V92.354C278.548 90.954 277.694 90.226 276.462 90.044C277.666 89.75 278.086 88.91 278.086 88.028V87.734C278.086 86.082 277.022 85.27 274.88 85.27H271.296V95.364ZM272.682 90.66H274.488C276.504 90.66 277.12 91.136 277.12 92.368V92.676C277.12 93.866 276.378 94.16 274.796 94.16H272.682V90.66ZM274.376 86.46C275.958 86.46 276.672 86.572 276.672 87.762V88.014C276.672 89.274 275.874 89.526 274.474 89.526H272.682V86.46H274.376ZM279.175 92.774C279.175 94.622 280.351 95.504 281.835 95.504C282.885 95.504 283.641 95.112 284.103 94.398H284.117V95.364H285.433V87.706H284.075V92.452C284.075 93.656 283.095 94.3 282.171 94.3C281.037 94.3 280.533 93.754 280.533 92.466V87.706H279.175V92.774ZM289.153 94.3C288.229 94.3 287.445 93.95 286.759 93.488L286.129 94.552C286.857 95.112 287.935 95.476 289.209 95.476C290.987 95.476 292.121 94.538 292.121 93.334V93.152C292.121 91.738 291.239 91.178 289.377 90.828C288.187 90.604 287.725 90.38 287.725 89.778V89.652C287.725 89.12 288.187 88.728 289.321 88.728C290.091 88.728 290.833 88.966 291.337 89.344L291.939 88.322C291.183 87.79 290.259 87.566 289.223 87.566C287.235 87.566 286.367 88.574 286.367 89.638V89.806C286.367 91.15 287.305 91.696 288.999 92.046C290.441 92.34 290.749 92.55 290.749 93.194V93.306C290.749 93.922 290.161 94.3 289.153 94.3ZM292.948 87.706V95.364H294.306V87.706H292.948ZM292.906 84.962V86.446H294.348V84.962H292.906ZM302.003 90.296C302.003 88.448 300.799 87.566 299.315 87.566C298.265 87.566 297.481 87.958 297.019 88.672H297.005V87.706H295.689V95.364H297.047V90.618C297.047 89.414 298.055 88.77 298.979 88.77C300.113 88.77 300.645 89.316 300.645 90.604V95.364H302.003V90.296ZM306.128 88.728C307.29 88.728 308.018 89.484 308.018 90.66V90.912H304.182V90.716C304.182 89.54 304.994 88.728 306.128 88.728ZM308.578 93.614C307.92 94.034 307.248 94.3 306.254 94.3C305.036 94.3 304.182 93.516 304.182 92.074V92.018H309.334V90.996C309.334 88.812 308.088 87.566 306.128 87.566C304.238 87.566 302.838 88.756 302.838 91.08V91.948C302.838 94.426 304.308 95.476 306.198 95.476C307.584 95.476 308.48 95.098 309.152 94.636L308.578 93.614ZM312.549 94.3C311.625 94.3 310.841 93.95 310.155 93.488L309.525 94.552C310.253 95.112 311.331 95.476 312.605 95.476C314.383 95.476 315.517 94.538 315.517 93.334V93.152C315.517 91.738 314.635 91.178 312.773 90.828C311.583 90.604 311.121 90.38 311.121 89.778V89.652C311.121 89.12 311.583 88.728 312.717 88.728C313.487 88.728 314.229 88.966 314.733 89.344L315.335 88.322C314.579 87.79 313.655 87.566 312.619 87.566C310.631 87.566 309.763 88.574 309.763 89.638V89.806C309.763 91.15 310.701 91.696 312.395 92.046C313.837 92.34 314.145 92.55 314.145 93.194V93.306C314.145 93.922 313.557 94.3 312.549 94.3ZM318.682 94.3C317.758 94.3 316.974 93.95 316.288 93.488L315.658 94.552C316.386 95.112 317.464 95.476 318.738 95.476C320.516 95.476 321.65 94.538 321.65 93.334V93.152C321.65 91.738 320.768 91.178 318.906 90.828C317.716 90.604 317.254 90.38 317.254 89.778V89.652C317.254 89.12 317.716 88.728 318.85 88.728C319.62 88.728 320.362 88.966 320.866 89.344L321.468 88.322C320.712 87.79 319.788 87.566 318.752 87.566C316.764 87.566 315.896 88.574 315.896 89.638V89.806C315.896 91.15 316.834 91.696 318.528 92.046C319.97 92.34 320.278 92.55 320.278 93.194V93.306C320.278 93.922 319.69 94.3 318.682 94.3ZM325.15 95.364H326.536V91.43H328.762C330.96 91.43 332.108 90.086 332.108 88.448V88.154C332.108 86.502 331.044 85.27 328.762 85.27H325.15V95.364ZM328.678 86.474C329.98 86.474 330.708 87.02 330.708 88.168V88.42C330.708 89.638 329.98 90.226 328.524 90.226H326.536V86.474H328.678ZM332.895 84.78V95.364H334.253V84.78H332.895ZM337.724 95.476C338.396 95.476 338.844 95.35 339.25 95.126C339.544 94.958 339.824 94.72 339.964 94.44H339.978V95.364H341.28V90.002C341.28 88.462 340.076 87.566 338.368 87.566C337.136 87.566 336.226 88.014 335.484 88.532L336.156 89.54C336.87 89.078 337.458 88.77 338.354 88.77C339.474 88.77 339.936 89.26 339.936 90.282V90.73H337.99C336.03 90.73 335.204 91.64 335.204 92.942V93.32C335.204 94.664 336.184 95.476 337.724 95.476ZM339.936 92.634C339.936 93.208 339.782 93.544 339.418 93.824C339.012 94.146 338.536 94.3 337.864 94.3C337.136 94.3 336.534 93.978 336.534 93.236V93.04C336.534 92.312 336.954 91.878 338.018 91.878H339.936V92.634ZM348.877 90.296C348.877 88.448 347.673 87.566 346.189 87.566C345.139 87.566 344.355 87.958 343.893 88.672H343.879V87.706H342.563V95.364H343.921V90.618C343.921 89.414 344.929 88.77 345.853 88.77C346.987 88.77 347.519 89.316 347.519 90.604V95.364H348.877V90.296Z" fill="#222222"/>
<path d="M111.293 555.293L112 556L143.113 524.887L142.406 524.18L111.293 555.293Z" fill="#CCCCCC"/>
<g filter="url(#filter1_d_171_3170)">
<circle cx="73" cy="603" r="63" fill="white"/>
</g>
<path d="M34.5757 589.364H35.9617V585.43H38.1877C40.3857 585.43 41.5337 584.086 41.5337 582.448V582.154C41.5337 580.502 40.4697 579.27 38.1877 579.27H34.5757V589.364ZM38.1037 580.474C39.4057 580.474 40.1337 581.02 40.1337 582.168V582.42C40.1337 583.638 39.4057 584.226 37.9497 584.226H35.9617V580.474H38.1037ZM46.8983 581.72C46.5903 581.622 46.2543 581.566 45.9043 581.566C44.7843 581.566 44.0983 582.07 43.6503 582.924H43.6363V581.706H42.3203V589.364H43.6783V584.898C43.6783 583.694 44.5463 582.854 45.5543 582.854C45.9183 582.854 46.2263 582.924 46.4923 583.036L46.8983 581.72ZM50.2162 582.728C51.3782 582.728 52.1062 583.484 52.1062 584.66V584.912H48.2702V584.716C48.2702 583.54 49.0822 582.728 50.2162 582.728ZM52.6662 587.614C52.0082 588.034 51.3362 588.3 50.3422 588.3C49.1242 588.3 48.2702 587.516 48.2702 586.074V586.018H53.4222V584.996C53.4222 582.812 52.1762 581.566 50.2162 581.566C48.3262 581.566 46.9262 582.756 46.9262 585.08V585.948C46.9262 588.426 48.3962 589.476 50.2862 589.476C51.6722 589.476 52.5682 589.098 53.2402 588.636L52.6662 587.614ZM56.7915 588.09L54.7755 581.706H53.3055L55.9235 589.364H57.6595L60.2495 581.706H58.8215L56.8195 588.09H56.7915ZM63.4659 582.728C64.6279 582.728 65.3559 583.484 65.3559 584.66V584.912H61.5199V584.716C61.5199 583.54 62.3319 582.728 63.4659 582.728ZM65.9159 587.614C65.2579 588.034 64.5859 588.3 63.5919 588.3C62.3739 588.3 61.5199 587.516 61.5199 586.074V586.018H66.6719V584.996C66.6719 582.812 65.4259 581.566 63.4659 581.566C61.5759 581.566 60.1759 582.756 60.1759 585.08V585.948C60.1759 588.426 61.6459 589.476 63.5359 589.476C64.9219 589.476 65.8179 589.098 66.4899 588.636L65.9159 587.614ZM73.8212 584.296C73.8212 582.448 72.6172 581.566 71.1332 581.566C70.0832 581.566 69.2992 581.958 68.8372 582.672H68.8232V581.706H67.5072V589.364H68.8652V584.618C68.8652 583.414 69.8732 582.77 70.7972 582.77C71.9312 582.77 72.4632 583.316 72.4632 584.604V589.364H73.8212V584.296ZM75.5241 587.222C75.5241 588.762 76.1961 589.476 77.6521 589.476C78.1981 589.476 78.7721 589.35 79.0801 589.224L78.8701 588.132C78.5201 588.258 78.1981 588.314 77.8621 588.314C77.2881 588.314 76.8821 588.16 76.8821 587.222V582.868H78.8981V581.706H76.8821V579.774H75.5241V581.706H74.2641V582.868H75.5241V587.222ZM79.6915 581.706V589.364H81.0495V581.706H79.6915ZM79.6495 578.962V580.446H81.0915V578.962H79.6495ZM85.4565 581.566C83.3565 581.566 82.0405 582.826 82.0405 585.052V585.99C82.0405 588.202 83.3565 589.476 85.4565 589.476C87.5565 589.476 88.8725 588.202 88.8725 585.99V585.052C88.8725 582.84 87.5565 581.566 85.4565 581.566ZM85.4565 588.286C84.2385 588.286 83.4125 587.502 83.4125 585.878V585.164C83.4125 583.54 84.2385 582.756 85.4565 582.756C86.6745 582.756 87.5005 583.54 87.5005 585.164V585.878C87.5005 587.502 86.6745 588.286 85.4565 588.286ZM96.137 584.296C96.137 582.448 94.933 581.566 93.449 581.566C92.399 581.566 91.615 581.958 91.153 582.672H91.139V581.706H89.823V589.364H91.181V584.618C91.181 583.414 92.189 582.77 93.113 582.77C94.247 582.77 94.779 583.316 94.779 584.604V589.364H96.137V584.296ZM103.048 581.566C100.948 581.566 99.6318 582.826 99.6318 585.052V585.99C99.6318 588.202 100.948 589.476 103.048 589.476C105.148 589.476 106.464 588.202 106.464 585.99V585.052C106.464 582.84 105.148 581.566 103.048 581.566ZM103.048 588.286C101.83 588.286 101.004 587.502 101.004 585.878V585.164C101.004 583.54 101.83 582.756 103.048 582.756C104.266 582.756 105.092 583.54 105.092 585.164V585.878C105.092 587.502 104.266 588.286 103.048 588.286ZM107.89 589.364H109.248V582.868H111.264V581.706H109.248V581.006C109.248 580.012 109.724 579.858 110.242 579.858C110.578 579.858 110.928 579.9 111.278 579.998L111.488 578.892C111.18 578.78 110.606 578.696 110.116 578.696C108.66 578.696 107.89 579.41 107.89 580.95V581.706H106.63V582.868H107.89V589.364ZM34.0339 600.728C35.1959 600.728 35.9239 601.484 35.9239 602.66V602.912H32.0879V602.716C32.0879 601.54 32.8999 600.728 34.0339 600.728ZM36.4839 605.614C35.8259 606.034 35.1539 606.3 34.1599 606.3C32.9419 606.3 32.0879 605.516 32.0879 604.074V604.018H37.2399V602.996C37.2399 600.812 35.9939 599.566 34.0339 599.566C32.1439 599.566 30.7439 600.756 30.7439 603.08V603.948C30.7439 606.426 32.2139 607.476 34.1039 607.476C35.4899 607.476 36.3859 607.098 37.0579 606.636L36.4839 605.614ZM44.3892 602.296C44.3892 600.448 43.1852 599.566 41.7012 599.566C40.6512 599.566 39.8672 599.958 39.4052 600.672H39.3912V599.706H38.0752V607.364H39.4332V602.618C39.4332 601.414 40.4412 600.77 41.3652 600.77C42.4992 600.77 43.0312 601.316 43.0312 602.604V607.364H44.3892V602.296ZM48.1501 606.09L46.1341 599.706H44.6641L47.2821 607.364H49.0181L51.6081 599.706H50.1801L48.1781 606.09H48.1501ZM52.0368 599.706V607.364H53.3948V599.706H52.0368ZM51.9948 596.962V598.446H53.4368V596.962H51.9948ZM59.3559 599.72C59.0479 599.622 58.7119 599.566 58.3619 599.566C57.2419 599.566 56.5559 600.07 56.1079 600.924H56.0939V599.706H54.7779V607.364H56.1359V602.898C56.1359 601.694 57.0039 600.854 58.0119 600.854C58.3759 600.854 58.6839 600.924 58.9499 601.036L59.3559 599.72ZM62.7998 599.566C60.6998 599.566 59.3838 600.826 59.3838 603.052V603.99C59.3838 606.202 60.6998 607.476 62.7998 607.476C64.8998 607.476 66.2158 606.202 66.2158 603.99V603.052C66.2158 600.84 64.8998 599.566 62.7998 599.566ZM62.7998 606.286C61.5818 606.286 60.7558 605.502 60.7558 603.878V603.164C60.7558 601.54 61.5818 600.756 62.7998 600.756C64.0178 600.756 64.8438 601.54 64.8438 603.164V603.878C64.8438 605.502 64.0178 606.286 62.7998 606.286ZM73.4802 602.296C73.4802 600.448 72.2762 599.566 70.7922 599.566C69.7422 599.566 68.9582 599.958 68.4962 600.672H68.4822V599.706H67.1662V607.364H68.5242V602.618C68.5242 601.414 69.5322 600.77 70.4562 600.77C71.5902 600.77 72.1222 601.316 72.1222 602.604V607.364H73.4802V602.296ZM85.2211 602.338C85.2211 600.574 84.2551 599.566 82.6871 599.566C81.4831 599.566 80.7971 600.098 80.3071 600.84C79.9151 600.028 79.1311 599.566 78.1091 599.566C77.0451 599.566 76.3591 600.07 76.0651 600.742H76.0511V599.706H74.7071V607.364H76.0651V602.52C76.0651 601.316 77.0031 600.798 77.8431 600.798C78.8091 600.798 79.2851 601.442 79.2851 602.772V607.364H80.6431V602.59C80.6431 601.344 81.5671 600.798 82.4211 600.798C83.3871 600.798 83.8631 601.442 83.8631 602.772V607.364H85.2211V602.338ZM89.3569 600.728C90.5189 600.728 91.2469 601.484 91.2469 602.66V602.912H87.4109V602.716C87.4109 601.54 88.2229 600.728 89.3569 600.728ZM91.8069 605.614C91.1489 606.034 90.4769 606.3 89.4829 606.3C88.2649 606.3 87.4109 605.516 87.4109 604.074V604.018H92.5629V602.996C92.5629 600.812 91.3169 599.566 89.3569 599.566C87.4669 599.566 86.0669 600.756 86.0669 603.08V603.948C86.0669 606.426 87.5369 607.476 89.4269 607.476C90.8129 607.476 91.7089 607.098 92.3809 606.636L91.8069 605.614ZM99.7122 602.296C99.7122 600.448 98.5082 599.566 97.0242 599.566C95.9742 599.566 95.1902 599.958 94.7282 600.672H94.7142V599.706H93.3982V607.364H94.7562V602.618C94.7562 601.414 95.7642 600.77 96.6882 600.77C97.8222 600.77 98.3542 601.316 98.3542 602.604V607.364H99.7122V602.296ZM101.415 605.222C101.415 606.762 102.087 607.476 103.543 607.476C104.089 607.476 104.663 607.35 104.971 607.224L104.761 606.132C104.411 606.258 104.089 606.314 103.753 606.314C103.179 606.314 102.773 606.16 102.773 605.222V600.868H104.789V599.706H102.773V597.774H101.415V599.706H100.155V600.868H101.415V605.222ZM107.668 607.476C108.34 607.476 108.788 607.35 109.194 607.126C109.488 606.958 109.768 606.72 109.908 606.44H109.922V607.364H111.224V602.002C111.224 600.462 110.02 599.566 108.312 599.566C107.08 599.566 106.17 600.014 105.428 600.532L106.1 601.54C106.814 601.078 107.402 600.77 108.298 600.77C109.418 600.77 109.88 601.26 109.88 602.282V602.73H107.934C105.974 602.73 105.148 603.64 105.148 604.942V605.32C105.148 606.664 106.128 607.476 107.668 607.476ZM109.88 604.634C109.88 605.208 109.726 605.544 109.362 605.824C108.956 606.146 108.48 606.3 107.808 606.3C107.08 606.3 106.478 605.978 106.478 605.236V605.04C106.478 604.312 106.898 603.878 107.962 603.878H109.88V604.634ZM112.507 596.78V607.364H113.865V596.78H112.507ZM47.7851 625.476C48.4571 625.476 48.9051 625.35 49.3111 625.126C49.6051 624.958 49.8851 624.72 50.0251 624.44H50.0391V625.364H51.3411V620.002C51.3411 618.462 50.1371 617.566 48.4291 617.566C47.1971 617.566 46.2871 618.014 45.5451 618.532L46.2171 619.54C46.9311 619.078 47.5191 618.77 48.4151 618.77C49.5351 618.77 49.9971 619.26 49.9971 620.282V620.73H48.0511C46.0911 620.73 45.2651 621.64 45.2651 622.942V623.32C45.2651 624.664 46.2451 625.476 47.7851 625.476ZM49.9971 622.634C49.9971 623.208 49.8431 623.544 49.4791 623.824C49.0731 624.146 48.5971 624.3 47.9251 624.3C47.1971 624.3 46.5951 623.978 46.5951 623.236V623.04C46.5951 622.312 47.0151 621.878 48.0791 621.878H49.9971V622.634ZM55.5357 617.566C53.5337 617.566 52.2317 618.812 52.2317 621.01V621.976C52.2317 624.174 53.4357 625.476 55.5497 625.476C56.9497 625.476 57.8457 625.042 58.3777 624.594L57.7197 623.558C57.1737 623.964 56.5717 624.258 55.5637 624.258C54.5557 624.258 53.6037 623.614 53.6037 621.962V620.996C53.6037 619.428 54.5277 618.77 55.5357 618.77C56.2777 618.77 56.8237 618.91 57.5377 619.428L58.1817 618.406C57.5517 617.93 56.7957 617.566 55.5357 617.566ZM61.8188 617.566C59.8168 617.566 58.5148 618.812 58.5148 621.01V621.976C58.5148 624.174 59.7188 625.476 61.8328 625.476C63.2328 625.476 64.1288 625.042 64.6608 624.594L64.0028 623.558C63.4568 623.964 62.8548 624.258 61.8468 624.258C60.8388 624.258 59.8868 623.614 59.8868 621.962V620.996C59.8868 619.428 60.8108 618.77 61.8188 618.77C62.5608 618.77 63.1068 618.91 63.8208 619.428L64.4648 618.406C63.8348 617.93 63.0788 617.566 61.8188 617.566ZM65.2318 617.706V625.364H66.5898V617.706H65.2318ZM65.1898 614.962V616.446H66.6318V614.962H65.1898ZM72.8309 624.412V625.364H74.1329V614.78H72.7749V618.504C72.4669 618.056 71.7949 617.566 70.6329 617.566C68.8409 617.566 67.5949 618.784 67.5949 620.856V622.214C67.5949 624.286 68.6449 625.476 70.5769 625.476C71.5289 625.476 72.3829 625.182 72.8029 624.412H72.8309ZM72.7889 622.354C72.7889 623.544 71.8789 624.286 70.7729 624.286C69.6389 624.286 68.9389 623.446 68.9389 621.99V621.052C68.9389 619.61 69.6249 618.756 70.7729 618.756C71.9489 618.756 72.7889 619.582 72.7889 620.38V622.354ZM78.3707 618.728C79.5327 618.728 80.2607 619.484 80.2607 620.66V620.912H76.4247V620.716C76.4247 619.54 77.2367 618.728 78.3707 618.728ZM80.8207 623.614C80.1627 624.034 79.4907 624.3 78.4967 624.3C77.2787 624.3 76.4247 623.516 76.4247 622.074V622.018H81.5767V620.996C81.5767 618.812 80.3307 617.566 78.3707 617.566C76.4807 617.566 75.0807 618.756 75.0807 621.08V621.948C75.0807 624.426 76.5507 625.476 78.4407 625.476C79.8267 625.476 80.7227 625.098 81.3947 624.636L80.8207 623.614ZM88.726 620.296C88.726 618.448 87.522 617.566 86.038 617.566C84.988 617.566 84.204 617.958 83.742 618.672H83.728V617.706H82.412V625.364H83.77V620.618C83.77 619.414 84.778 618.77 85.702 618.77C86.836 618.77 87.368 619.316 87.368 620.604V625.364H88.726V620.296ZM90.4289 623.222C90.4289 624.762 91.1009 625.476 92.5569 625.476C93.1029 625.476 93.6769 625.35 93.9849 625.224L93.7749 624.132C93.4249 624.258 93.1029 624.314 92.7669 624.314C92.1929 624.314 91.7869 624.16 91.7869 623.222V618.868H93.8029V617.706H91.7869V615.774H90.4289V617.706H89.1689V618.868H90.4289V623.222ZM96.9343 624.3C96.0103 624.3 95.2263 623.95 94.5403 623.488L93.9103 624.552C94.6383 625.112 95.7163 625.476 96.9903 625.476C98.7683 625.476 99.9023 624.538 99.9023 623.334V623.152C99.9023 621.738 99.0203 621.178 97.1583 620.828C95.9683 620.604 95.5063 620.38 95.5063 619.778V619.652C95.5063 619.12 95.9683 618.728 97.1023 618.728C97.8723 618.728 98.6143 618.966 99.1183 619.344L99.7203 618.322C98.9643 617.79 98.0403 617.566 97.0043 617.566C95.0163 617.566 94.1483 618.574 94.1483 619.638V619.806C94.1483 621.15 95.0863 621.696 96.7803 622.046C98.2223 622.34 98.5303 622.55 98.5303 623.194V623.306C98.5303 623.922 97.9423 624.3 96.9343 624.3Z" fill="#222222"/>
<path d="M507.82 555.293L507.113 556L476.001 524.887L476.708 524.18L507.82 555.293Z" fill="#CCCCCC"/>
<g filter="url(#filter2_d_171_3170)">
<circle cx="63" cy="63" r="63" transform="matrix(-1 0 0 1 609 540)" fill="white"/>
</g>
<path d="M508.542 579.258C507.674 579.258 506.442 578.768 505.686 578.194L504.986 579.328C505.826 580 507.072 580.518 508.5 580.518C510.572 580.518 512.098 579.566 512.098 577.718V577.466C512.098 576.066 511.328 575.184 508.836 574.624C507.338 574.288 506.512 573.952 506.512 573.028V572.804C506.512 572.006 507.338 571.362 508.598 571.362C509.522 571.362 510.264 571.572 511.006 572.076L511.664 570.998C510.81 570.424 509.816 570.116 508.584 570.116C506.26 570.116 505.126 571.446 505.126 572.818V573.07C505.126 574.89 506.582 575.478 508.486 575.884C510.124 576.234 510.698 576.682 510.698 577.564V577.788C510.698 578.586 509.97 579.258 508.542 579.258ZM513.529 578.222C513.529 579.762 514.201 580.476 515.657 580.476C516.203 580.476 516.777 580.35 517.085 580.224L516.875 579.132C516.525 579.258 516.203 579.314 515.867 579.314C515.293 579.314 514.887 579.16 514.887 578.222V573.868H516.903V572.706H514.887V570.774H513.529V572.706H512.269V573.868H513.529V578.222ZM522.232 572.72C521.924 572.622 521.588 572.566 521.238 572.566C520.118 572.566 519.432 573.07 518.984 573.924H518.97V572.706H517.654V580.364H519.012V575.898C519.012 574.694 519.88 573.854 520.888 573.854C521.252 573.854 521.56 573.924 521.826 574.036L522.232 572.72ZM525.55 573.728C526.712 573.728 527.44 574.484 527.44 575.66V575.912H523.604V575.716C523.604 574.54 524.416 573.728 525.55 573.728ZM528 578.614C527.342 579.034 526.67 579.3 525.676 579.3C524.458 579.3 523.604 578.516 523.604 577.074V577.018H528.756V575.996C528.756 573.812 527.51 572.566 525.55 572.566C523.66 572.566 522.26 573.756 522.26 576.08V576.948C522.26 579.426 523.73 580.476 525.62 580.476C527.006 580.476 527.902 580.098 528.574 579.636L528 578.614ZM535.905 575.296C535.905 573.448 534.701 572.566 533.217 572.566C532.167 572.566 531.383 572.958 530.921 573.672H530.907V572.706H529.591V580.364H530.949V575.618C530.949 574.414 531.957 573.77 532.881 573.77C534.015 573.77 534.547 574.316 534.547 575.604V580.364H535.905V575.296ZM543.292 572.706H541.934V573.504C541.626 573.056 540.954 572.566 539.792 572.566C538 572.566 536.754 573.784 536.754 575.856V577.074C536.754 579.146 537.804 580.336 539.736 580.336C540.66 580.336 541.5 580.056 541.934 579.328V580.266C541.934 581.624 541.234 582.254 539.918 582.254C539.162 582.254 538.448 581.988 537.944 581.61L537.328 582.674C537.958 583.164 538.84 583.486 539.876 583.486C542.13 583.486 543.292 582.408 543.292 580.266V572.706ZM541.948 577.214C541.948 578.404 541.038 579.146 539.932 579.146C538.798 579.146 538.098 578.306 538.098 576.85V576.052C538.098 574.61 538.784 573.756 539.932 573.756C541.108 573.756 541.948 574.582 541.948 575.38V577.214ZM545.108 578.222C545.108 579.762 545.78 580.476 547.236 580.476C547.782 580.476 548.356 580.35 548.664 580.224L548.454 579.132C548.104 579.258 547.782 579.314 547.446 579.314C546.872 579.314 546.466 579.16 546.466 578.222V573.868H548.482V572.706H546.466V570.774H545.108V572.706H543.848V573.868H545.108V578.222ZM555.547 575.296C555.547 573.448 554.343 572.566 552.859 572.566C551.823 572.566 551.053 572.944 550.591 573.63V569.78H549.233V580.364H550.591V575.618C550.591 574.414 551.599 573.77 552.523 573.77C553.657 573.77 554.189 574.316 554.189 575.604V580.364H555.547V575.296ZM559.672 573.728C560.834 573.728 561.562 574.484 561.562 575.66V575.912H557.726V575.716C557.726 574.54 558.538 573.728 559.672 573.728ZM562.122 578.614C561.464 579.034 560.792 579.3 559.798 579.3C558.58 579.3 557.726 578.516 557.726 577.074V577.018H562.878V575.996C562.878 573.812 561.632 572.566 559.672 572.566C557.782 572.566 556.382 573.756 556.382 576.08V576.948C556.382 579.426 557.852 580.476 559.742 580.476C561.128 580.476 562.024 580.098 562.696 579.636L562.122 578.614ZM570.028 575.296C570.028 573.448 568.824 572.566 567.34 572.566C566.29 572.566 565.506 572.958 565.044 573.672H565.03V572.706H563.714V580.364H565.072V575.618C565.072 574.414 566.08 573.77 567.004 573.77C568.138 573.77 568.67 574.316 568.67 575.604V580.364H570.028V575.296ZM571.296 572.706V580.364H572.654V572.706H571.296ZM571.254 569.962V571.446H572.696V569.962H571.254ZM580.352 575.296C580.352 573.448 579.148 572.566 577.664 572.566C576.614 572.566 575.83 572.958 575.368 573.672H575.354V572.706H574.038V580.364H575.396V575.618C575.396 574.414 576.404 573.77 577.328 573.77C578.462 573.77 578.994 574.316 578.994 575.604V580.364H580.352V575.296ZM587.738 572.706H586.38V573.504C586.072 573.056 585.4 572.566 584.238 572.566C582.446 572.566 581.2 573.784 581.2 575.856V577.074C581.2 579.146 582.25 580.336 584.182 580.336C585.106 580.336 585.946 580.056 586.38 579.328V580.266C586.38 581.624 585.68 582.254 584.364 582.254C583.608 582.254 582.894 581.988 582.39 581.61L581.774 582.674C582.404 583.164 583.286 583.486 584.322 583.486C586.576 583.486 587.738 582.408 587.738 580.266V572.706ZM586.394 577.214C586.394 578.404 585.484 579.146 584.378 579.146C583.244 579.146 582.544 578.306 582.544 576.85V576.052C582.544 574.61 583.23 573.756 584.378 573.756C585.554 573.756 586.394 574.582 586.394 575.38V577.214ZM508.034 591.728C509.196 591.728 509.924 592.484 509.924 593.66V593.912H506.088V593.716C506.088 592.54 506.9 591.728 508.034 591.728ZM510.484 596.614C509.826 597.034 509.154 597.3 508.16 597.3C506.942 597.3 506.088 596.516 506.088 595.074V595.018H511.24V593.996C511.24 591.812 509.994 590.566 508.034 590.566C506.144 590.566 504.744 591.756 504.744 594.08V594.948C504.744 597.426 506.214 598.476 508.104 598.476C509.49 598.476 510.386 598.098 511.058 597.636L510.484 596.614ZM518.389 593.296C518.389 591.448 517.185 590.566 515.701 590.566C514.651 590.566 513.867 590.958 513.405 591.672H513.391V590.706H512.075V598.364H513.433V593.618C513.433 592.414 514.441 591.77 515.365 591.77C516.499 591.77 517.031 592.316 517.031 593.604V598.364H518.389V593.296ZM522.15 597.09L520.134 590.706H518.664L521.282 598.364H523.018L525.608 590.706H524.18L522.178 597.09H522.15ZM526.037 590.706V598.364H527.395V590.706H526.037ZM525.995 587.962V589.446H527.437V587.962H525.995ZM533.356 590.72C533.048 590.622 532.712 590.566 532.362 590.566C531.242 590.566 530.556 591.07 530.108 591.924H530.094V590.706H528.778V598.364H530.136V593.898C530.136 592.694 531.004 591.854 532.012 591.854C532.376 591.854 532.684 591.924 532.95 592.036L533.356 590.72ZM536.8 590.566C534.7 590.566 533.384 591.826 533.384 594.052V594.99C533.384 597.202 534.7 598.476 536.8 598.476C538.9 598.476 540.216 597.202 540.216 594.99V594.052C540.216 591.84 538.9 590.566 536.8 590.566ZM536.8 597.286C535.582 597.286 534.756 596.502 534.756 594.878V594.164C534.756 592.54 535.582 591.756 536.8 591.756C538.018 591.756 538.844 592.54 538.844 594.164V594.878C538.844 596.502 538.018 597.286 536.8 597.286ZM547.48 593.296C547.48 591.448 546.276 590.566 544.792 590.566C543.742 590.566 542.958 590.958 542.496 591.672H542.482V590.706H541.166V598.364H542.524V593.618C542.524 592.414 543.532 591.77 544.456 591.77C545.59 591.77 546.122 592.316 546.122 593.604V598.364H547.48V593.296ZM559.221 593.338C559.221 591.574 558.255 590.566 556.687 590.566C555.483 590.566 554.797 591.098 554.307 591.84C553.915 591.028 553.131 590.566 552.109 590.566C551.045 590.566 550.359 591.07 550.065 591.742H550.051V590.706H548.707V598.364H550.065V593.52C550.065 592.316 551.003 591.798 551.843 591.798C552.809 591.798 553.285 592.442 553.285 593.772V598.364H554.643V593.59C554.643 592.344 555.567 591.798 556.421 591.798C557.387 591.798 557.863 592.442 557.863 593.772V598.364H559.221V593.338ZM563.357 591.728C564.519 591.728 565.247 592.484 565.247 593.66V593.912H561.411V593.716C561.411 592.54 562.223 591.728 563.357 591.728ZM565.807 596.614C565.149 597.034 564.477 597.3 563.483 597.3C562.265 597.3 561.411 596.516 561.411 595.074V595.018H566.563V593.996C566.563 591.812 565.317 590.566 563.357 590.566C561.467 590.566 560.067 591.756 560.067 594.08V594.948C560.067 597.426 561.537 598.476 563.427 598.476C564.813 598.476 565.709 598.098 566.381 597.636L565.807 596.614ZM573.712 593.296C573.712 591.448 572.508 590.566 571.024 590.566C569.974 590.566 569.19 590.958 568.728 591.672H568.714V590.706H567.398V598.364H568.756V593.618C568.756 592.414 569.764 591.77 570.688 591.77C571.822 591.77 572.354 592.316 572.354 593.604V598.364H573.712V593.296ZM575.415 596.222C575.415 597.762 576.087 598.476 577.543 598.476C578.089 598.476 578.663 598.35 578.971 598.224L578.761 597.132C578.411 597.258 578.089 597.314 577.753 597.314C577.179 597.314 576.773 597.16 576.773 596.222V591.868H578.789V590.706H576.773V588.774H575.415V590.706H574.155V591.868H575.415V596.222ZM581.668 598.476C582.34 598.476 582.788 598.35 583.194 598.126C583.488 597.958 583.768 597.72 583.908 597.44H583.922V598.364H585.224V593.002C585.224 591.462 584.02 590.566 582.312 590.566C581.08 590.566 580.17 591.014 579.428 591.532L580.1 592.54C580.814 592.078 581.402 591.77 582.298 591.77C583.418 591.77 583.88 592.26 583.88 593.282V593.73H581.934C579.974 593.73 579.148 594.64 579.148 595.942V596.32C579.148 597.664 580.128 598.476 581.668 598.476ZM583.88 595.634C583.88 596.208 583.726 596.544 583.362 596.824C582.956 597.146 582.48 597.3 581.808 597.3C581.08 597.3 580.478 596.978 580.478 596.236V596.04C580.478 595.312 580.898 594.878 581.962 594.878H583.88V595.634ZM586.507 587.78V598.364H587.865V587.78H586.507ZM518.437 611.338C518.437 609.574 517.471 608.566 515.903 608.566C514.699 608.566 514.013 609.098 513.523 609.84C513.131 609.028 512.347 608.566 511.325 608.566C510.261 608.566 509.575 609.07 509.281 609.742H509.267V608.706H507.923V616.364H509.281V611.52C509.281 610.316 510.219 609.798 511.059 609.798C512.025 609.798 512.501 610.442 512.501 611.772V616.364H513.859V611.59C513.859 610.344 514.783 609.798 515.637 609.798C516.603 609.798 517.079 610.442 517.079 611.772V616.364H518.437V611.338ZM521.803 616.476C522.475 616.476 522.923 616.35 523.329 616.126C523.623 615.958 523.903 615.72 524.043 615.44H524.057V616.364H525.359V611.002C525.359 609.462 524.155 608.566 522.447 608.566C521.215 608.566 520.305 609.014 519.563 609.532L520.235 610.54C520.949 610.078 521.537 609.77 522.433 609.77C523.553 609.77 524.015 610.26 524.015 611.282V611.73H522.069C520.109 611.73 519.283 612.64 519.283 613.942V614.32C519.283 615.664 520.263 616.476 521.803 616.476ZM524.015 613.634C524.015 614.208 523.861 614.544 523.497 614.824C523.091 615.146 522.615 615.3 521.943 615.3C521.215 615.3 520.613 614.978 520.613 614.236V614.04C520.613 613.312 521.033 612.878 522.097 612.878H524.015V613.634ZM532.955 611.296C532.955 609.448 531.751 608.566 530.267 608.566C529.217 608.566 528.433 608.958 527.971 609.672H527.957V608.706H526.641V616.364H527.999V611.618C527.999 610.414 529.007 609.77 529.931 609.77C531.065 609.77 531.597 610.316 531.597 611.604V616.364H532.955V611.296ZM536.31 616.476C536.982 616.476 537.43 616.35 537.836 616.126C538.13 615.958 538.41 615.72 538.55 615.44H538.564V616.364H539.866V611.002C539.866 609.462 538.662 608.566 536.954 608.566C535.722 608.566 534.812 609.014 534.07 609.532L534.742 610.54C535.456 610.078 536.044 609.77 536.94 609.77C538.06 609.77 538.522 610.26 538.522 611.282V611.73H536.576C534.616 611.73 533.79 612.64 533.79 613.942V614.32C533.79 615.664 534.77 616.476 536.31 616.476ZM538.522 613.634C538.522 614.208 538.368 614.544 538.004 614.824C537.598 615.146 537.122 615.3 536.45 615.3C535.722 615.3 535.12 614.978 535.12 614.236V614.04C535.12 613.312 535.54 612.878 536.604 612.878H538.522V613.634ZM547.309 608.706H545.951V609.504C545.643 609.056 544.971 608.566 543.809 608.566C542.017 608.566 540.771 609.784 540.771 611.856V613.074C540.771 615.146 541.821 616.336 543.753 616.336C544.677 616.336 545.517 616.056 545.951 615.328V616.266C545.951 617.624 545.251 618.254 543.935 618.254C543.179 618.254 542.465 617.988 541.961 617.61L541.345 618.674C541.975 619.164 542.857 619.486 543.893 619.486C546.147 619.486 547.309 618.408 547.309 616.266V608.706ZM545.965 613.214C545.965 614.404 545.055 615.146 543.949 615.146C542.815 615.146 542.115 614.306 542.115 612.85V612.052C542.115 610.61 542.801 609.756 543.949 609.756C545.125 609.756 545.965 610.582 545.965 611.38V613.214ZM551.547 609.728C552.709 609.728 553.437 610.484 553.437 611.66V611.912H549.601V611.716C549.601 610.54 550.413 609.728 551.547 609.728ZM553.997 614.614C553.339 615.034 552.667 615.3 551.673 615.3C550.455 615.3 549.601 614.516 549.601 613.074V613.018H554.753V611.996C554.753 609.812 553.507 608.566 551.547 608.566C549.657 608.566 548.257 609.756 548.257 612.08V612.948C548.257 615.426 549.727 616.476 551.617 616.476C553.003 616.476 553.899 616.098 554.571 615.636L553.997 614.614ZM566.102 611.338C566.102 609.574 565.136 608.566 563.568 608.566C562.364 608.566 561.678 609.098 561.188 609.84C560.796 609.028 560.012 608.566 558.99 608.566C557.926 608.566 557.24 609.07 556.946 609.742H556.932V608.706H555.588V616.364H556.946V611.52C556.946 610.316 557.884 609.798 558.724 609.798C559.69 609.798 560.166 610.442 560.166 611.772V616.364H561.524V611.59C561.524 610.344 562.448 609.798 563.302 609.798C564.268 609.798 564.744 610.442 564.744 611.772V616.364H566.102V611.338ZM570.238 609.728C571.4 609.728 572.128 610.484 572.128 611.66V611.912H568.292V611.716C568.292 610.54 569.104 609.728 570.238 609.728ZM572.688 614.614C572.03 615.034 571.358 615.3 570.364 615.3C569.146 615.3 568.292 614.516 568.292 613.074V613.018H573.444V611.996C573.444 609.812 572.198 608.566 570.238 608.566C568.348 608.566 566.948 609.756 566.948 612.08V612.948C566.948 615.426 568.418 616.476 570.308 616.476C571.694 616.476 572.59 616.098 573.262 615.636L572.688 614.614ZM580.593 611.296C580.593 609.448 579.389 608.566 577.905 608.566C576.855 608.566 576.071 608.958 575.609 609.672H575.595V608.706H574.279V616.364H575.637V611.618C575.637 610.414 576.645 609.77 577.569 609.77C578.703 609.77 579.235 610.316 579.235 611.604V616.364H580.593V611.296ZM582.296 614.222C582.296 615.762 582.968 616.476 584.424 616.476C584.97 616.476 585.544 616.35 585.852 616.224L585.642 615.132C585.292 615.258 584.97 615.314 584.634 615.314C584.06 615.314 583.654 615.16 583.654 614.222V609.868H585.67V608.706H583.654V606.774H582.296V608.706H581.036V609.868H582.296V614.222ZM518.148 626.566C516.146 626.566 514.844 627.812 514.844 630.01V630.976C514.844 633.174 516.048 634.476 518.162 634.476C519.562 634.476 520.458 634.042 520.99 633.594L520.332 632.558C519.786 632.964 519.184 633.258 518.176 633.258C517.168 633.258 516.216 632.614 516.216 630.962V629.996C516.216 628.428 517.14 627.77 518.148 627.77C518.89 627.77 519.436 627.91 520.15 628.428L520.794 627.406C520.164 626.93 519.408 626.566 518.148 626.566ZM523.647 634.476C524.319 634.476 524.767 634.35 525.173 634.126C525.467 633.958 525.747 633.72 525.887 633.44H525.901V634.364H527.203V629.002C527.203 627.462 525.999 626.566 524.291 626.566C523.059 626.566 522.149 627.014 521.407 627.532L522.079 628.54C522.793 628.078 523.381 627.77 524.277 627.77C525.397 627.77 525.859 628.26 525.859 629.282V629.73H523.913C521.953 629.73 521.127 630.64 521.127 631.942V632.32C521.127 633.664 522.107 634.476 523.647 634.476ZM525.859 631.634C525.859 632.208 525.705 632.544 525.341 632.824C524.935 633.146 524.459 633.3 523.787 633.3C523.059 633.3 522.457 632.978 522.457 632.236V632.04C522.457 631.312 522.877 630.878 523.941 630.878H525.859V631.634ZM529.802 626.706H528.486V637.36H529.844V633.524C530.152 633.972 530.824 634.476 531.958 634.476C533.792 634.476 535.024 633.3 535.024 631.186V629.828C535.024 627.812 533.974 626.566 532.042 626.566C531.132 626.566 530.25 626.874 529.802 627.658V626.706ZM529.83 629.702C529.83 628.512 530.74 627.756 531.846 627.756C532.98 627.756 533.68 628.596 533.68 630.052V630.99C533.68 632.432 532.994 633.286 531.846 633.286C530.67 633.286 529.83 632.432 529.83 631.634V629.702ZM538.046 634.476C538.718 634.476 539.166 634.35 539.572 634.126C539.866 633.958 540.146 633.72 540.286 633.44H540.3V634.364H541.602V629.002C541.602 627.462 540.398 626.566 538.69 626.566C537.458 626.566 536.548 627.014 535.806 627.532L536.478 628.54C537.192 628.078 537.78 627.77 538.676 627.77C539.796 627.77 540.258 628.26 540.258 629.282V629.73H538.312C536.352 629.73 535.526 630.64 535.526 631.942V632.32C535.526 633.664 536.506 634.476 538.046 634.476ZM540.258 631.634C540.258 632.208 540.104 632.544 539.74 632.824C539.334 633.146 538.858 633.3 538.186 633.3C537.458 633.3 536.856 632.978 536.856 632.236V632.04C536.856 631.312 537.276 630.878 538.34 630.878H540.258V631.634ZM544.242 623.78H542.884V634.364H544.2V633.468H544.228C544.564 634.014 545.236 634.476 546.384 634.476C548.176 634.476 549.422 633.258 549.422 631.186V629.828C549.422 627.756 548.358 626.566 546.426 626.566C545.586 626.566 544.732 626.832 544.242 627.588V623.78ZM544.228 629.702C544.228 628.512 545.138 627.756 546.244 627.756C547.378 627.756 548.078 628.596 548.078 630.052V630.99C548.078 632.432 547.392 633.286 546.244 633.286C545.068 633.286 544.228 632.432 544.228 631.634V629.702ZM550.426 626.706V634.364H551.784V626.706H550.426ZM550.384 623.962V625.446H551.826V623.962H550.384ZM553.167 623.78V634.364H554.525V623.78H553.167ZM555.91 626.706V634.364H557.268V626.706H555.91ZM555.868 623.962V625.446H557.31V623.962H555.868ZM559.127 632.222C559.127 633.762 559.799 634.476 561.255 634.476C561.801 634.476 562.375 634.35 562.683 634.224L562.473 633.132C562.123 633.258 561.801 633.314 561.465 633.314C560.891 633.314 560.485 633.16 560.485 632.222V627.868H562.501V626.706H560.485V624.774H559.127V626.706H557.867V627.868H559.127V632.222ZM563.295 626.706V634.364H564.653V626.706H563.295ZM563.253 623.962V625.446H564.695V623.962H563.253ZM568.934 627.728C570.096 627.728 570.824 628.484 570.824 629.66V629.912H566.988V629.716C566.988 628.54 567.8 627.728 568.934 627.728ZM571.384 632.614C570.726 633.034 570.054 633.3 569.06 633.3C567.842 633.3 566.988 632.516 566.988 631.074V631.018H572.14V629.996C572.14 627.812 570.894 626.566 568.934 626.566C567.044 626.566 565.644 627.756 565.644 630.08V630.948C565.644 633.426 567.114 634.476 569.004 634.476C570.39 634.476 571.286 634.098 571.958 633.636L571.384 632.614ZM575.355 633.3C574.431 633.3 573.647 632.95 572.961 632.488L572.331 633.552C573.059 634.112 574.137 634.476 575.411 634.476C577.189 634.476 578.323 633.538 578.323 632.334V632.152C578.323 630.738 577.441 630.178 575.579 629.828C574.389 629.604 573.927 629.38 573.927 628.778V628.652C573.927 628.12 574.389 627.728 575.523 627.728C576.293 627.728 577.035 627.966 577.539 628.344L578.141 627.322C577.385 626.79 576.461 626.566 575.425 626.566C573.437 626.566 572.569 627.574 572.569 628.638V628.806C572.569 630.15 573.507 630.696 575.201 631.046C576.643 631.34 576.951 631.55 576.951 632.194V632.306C576.951 632.922 576.363 633.3 575.355 633.3Z" fill="#222222"/>
<defs>
<filter id="filter0_d_171_3170" x="237" y="0" width="166" height="166" filterUnits="userSpaceOnUse" color-interpolation-filters="sRGB">
<feFlood flood-opacity="0" result="BackgroundImageFix"/>
<feColorMatrix in="SourceAlpha" type="matrix" values="0 0 0 0 0 0 0 0 0 0 0 0 0 0 0 0 0 0 127 0" result="hardAlpha"/>
<feOffset dx="10" dy="10"/>
<feGaussianBlur stdDeviation="10"/>
<feComposite in2="hardAlpha" operator="out"/>
<feColorMatrix type="matrix" values="0 0 0 0 0 0 0 0 0 0 0 0 0 0 0 0 0 0 0.1 0"/>
<feBlend mode="normal" in2="BackgroundImageFix" result="effect1_dropShadow_171_3170"/>
<feBlend mode="normal" in="SourceGraphic" in2="effect1_dropShadow_171_3170" result="shape"/>
</filter>
<filter id="filter1_d_171_3170" x="0" y="530" width="166" height="166" filterUnits="userSpaceOnUse" color-interpolation-filters="sRGB">
<feFlood flood-opacity="0" result="BackgroundImageFix"/>
<feColorMatrix in="SourceAlpha" type="matrix" values="0 0 0 0 0 0 0 0 0 0 0 0 0 0 0 0 0 0 127 0" result="hardAlpha"/>
<feOffset dx="10" dy="10"/>
<feGaussianBlur stdDeviation="10"/>
<feComposite in2="hardAlpha" operator="out"/>
<feColorMatrix type="matrix" values="0 0 0 0 0 0 0 0 0 0 0 0 0 0 0 0 0 0 0.1 0"/>
<feBlend mode="normal" in2="BackgroundImageFix" result="effect1_dropShadow_171_3170"/>
<feBlend mode="normal" in="SourceGraphic" in2="effect1_dropShadow_171_3170" result="shape"/>
</filter>
<filter id="filter2_d_171_3170" x="473" y="530" width="166" height="166" filterUnits="userSpaceOnUse" color-interpolation-filters="sRGB">
<feFlood flood-opacity="0" result="BackgroundImageFix"/>
<feColorMatrix in="SourceAlpha" type="matrix" values="0 0 0 0 0 0 0 0 0 0 0 0 0 0 0 0 0 0 127 0" result="hardAlpha"/>
<feOffset dx="10" dy="10"/>
<feGaussianBlur stdDeviation="10"/>
<feComposite in2="hardAlpha" operator="out"/>
<feColorMatrix type="matrix" values="0 0 0 0 0 0 0 0 0 0 0 0 0 0 0 0 0 0 0.1 0"/>
<feBlend mode="normal" in2="BackgroundImageFix" result="effect1_dropShadow_171_3170"/>
<feBlend mode="normal" in="SourceGraphic" in2="effect1_dropShadow_171_3170" result="shape"/>
</filter>
<linearGradient id="paint0_linear_171_3170" x1="349.301" y1="590.343" x2="147.621" y2="501.654" gradientUnits="userSpaceOnUse">
<stop stop-color="#34BAA5"/>
<stop offset="1" stop-color="#C7EFE9"/>
</linearGradient>
<linearGradient id="paint1_linear_171_3170" x1="160.838" y1="518.284" x2="159.75" y2="241.75" gradientUnits="userSpaceOnUse">
<stop stop-color="#319EBA"/>
<stop offset="1" stop-color="#78E3FF"/>
</linearGradient>
<linearGradient id="paint2_linear_171_3170" x1="149.325" y1="277.803" x2="358.254" y2="196.789" gradientUnits="userSpaceOnUse">
<stop stop-color="#4C8BDD"/>
<stop offset="1" stop-color="#CFE4FF"/>
</linearGradient>
<linearGradient id="paint3_linear_171_3170" x1="379.147" y1="206.596" x2="506.636" y2="431.728" gradientUnits="userSpaceOnUse">
<stop stop-color="#33B9A5"/>
<stop offset="1" stop-color="#C6EFE9"/>
</linearGradient>
<linearGradient id="paint4_linear_171_3170" x1="508.769" y1="401.882" x2="424.771" y2="553.675" gradientUnits="userSpaceOnUse">
<stop stop-color="#4D8CDE"/>
<stop offset="1" stop-color="#CAE0FE"/>
</linearGradient>
<linearGradient id="paint5_linear_171_3170" x1="309" y1="247" x2="309" y2="537" gradientUnits="userSpaceOnUse">
<stop stop-color="#33B9A5"/>
<stop offset="0.69" stop-color="#40A7C9"/>
<stop offset="1" stop-color="#5082E6"/>
</linearGradient>
</defs>
</svg>
