<svg width="329" height="314" viewBox="0 0 329 314" fill="none" xmlns="http://www.w3.org/2000/svg">
<path d="M2.085 3.63C2.7 2.655 3.54 2.37 4.395 2.37C5.7 2.37 6.51 3.045 6.51 4.125V4.245C6.51 5.175 5.85 6.3 4.5 6.3H3.24V7.2H4.455C5.49 7.2 6.96 7.62 6.96 9.255V9.45C6.96 10.455 6.255 11.595 4.365 11.595C3.375 11.595 2.475 11.28 1.425 10.515L0.9 11.355C1.92 12.165 3.105 12.555 4.365 12.555C7.02 12.555 7.995 10.98 7.995 9.435V9.21C7.995 7.95 7.2 6.945 5.715 6.69C7.155 6.195 7.575 5.115 7.575 4.26V4.11C7.575 2.49 6.345 1.41 4.38 1.41C2.73 1.41 1.8 2.22 1.26 3.09L2.085 3.63ZM9.17414 12.825H10.6891V11.325H9.17414V12.825ZM19.0459 6.135C19.0459 3.105 17.9059 1.41 15.3559 1.41C12.8359 1.41 11.6959 3.105 11.6959 6.135V7.815C11.6959 10.845 12.7909 12.555 15.3559 12.555C17.9509 12.555 19.0459 10.875 19.0459 7.815V6.135ZM17.9659 7.83C17.9659 10.53 17.0809 11.61 15.3559 11.61C13.6909 11.61 12.7759 10.515 12.7759 7.83V6.12C12.7759 3.465 13.6909 2.355 15.3559 2.355C17.0809 2.355 17.9659 3.45 17.9659 6.12V7.83Z" fill="#222222"/>
<path d="M5.715 174.39V163.575H4.92L1.575 165.645L2.055 166.485L4.665 164.895V174.39H5.715ZM9.17414 174.825H10.6891V173.325H9.17414V174.825ZM19.0459 168.135C19.0459 165.105 17.9059 163.41 15.3559 163.41C12.8359 163.41 11.6959 165.105 11.6959 168.135V169.815C11.6959 172.845 12.7909 174.555 15.3559 174.555C17.9509 174.555 19.0459 172.875 19.0459 169.815V168.135ZM17.9659 169.83C17.9659 172.53 17.0809 173.61 15.3559 173.61C13.6909 173.61 12.7759 172.515 12.7759 169.83V168.12C12.7759 165.465 13.6909 164.355 15.3559 164.355C17.0809 164.355 17.9659 165.45 17.9659 168.12V169.83Z" fill="#222222"/>
<path d="M1.155 92.49V93.39H8.025V92.43H2.475L5.835 88.485C6.765 87.405 7.635 86.43 7.635 85.26V85.11C7.635 83.49 6.405 82.41 4.485 82.41C2.685 82.41 1.68 83.55 1.17 84.48L2.01 85.005C2.715 83.745 3.57 83.37 4.515 83.37C5.82 83.37 6.57 84.045 6.57 85.125V85.245C6.57 85.815 6.375 86.37 5.19 87.765L1.155 92.49ZM9.17414 93.825H10.6891V92.325H9.17414V93.825ZM19.0459 87.135C19.0459 84.105 17.9059 82.41 15.3559 82.41C12.8359 82.41 11.6959 84.105 11.6959 87.135V88.815C11.6959 91.845 12.7909 93.555 15.3559 93.555C17.9509 93.555 19.0459 91.875 19.0459 88.815V87.135ZM17.9659 88.83C17.9659 91.53 17.0809 92.61 15.3559 92.61C13.6909 92.61 12.7759 91.515 12.7759 88.83V87.12C12.7759 84.465 13.6909 83.355 15.3559 83.355C17.0809 83.355 17.9659 84.45 17.9659 87.12V88.83Z" fill="#222222"/>
<path d="M19.175 249.135C19.175 246.105 18.035 244.41 15.485 244.41C12.965 244.41 11.825 246.105 11.825 249.135V250.815C11.825 253.845 12.92 255.555 15.485 255.555C18.08 255.555 19.175 253.875 19.175 250.815V249.135ZM18.095 250.83C18.095 253.53 17.21 254.61 15.485 254.61C13.82 254.61 12.905 253.515 12.905 250.83V249.12C12.905 246.465 13.82 245.355 15.485 245.355C17.21 245.355 18.095 246.45 18.095 249.12V250.83Z" fill="#222222"/>
<path d="M329 251H29V250H329V251Z" fill="#DDDDDD"/>
<path d="M329 170H29V169H329V170Z" fill="#DDDDDD"/>
<path d="M329 8H29V7H329V8Z" fill="#DDDDDD"/>
<path d="M329 89H29V88H329V89Z" fill="#DDDDDD"/>
<path d="M80.96 270.145V271.39H88.22V270.1H82.79L86.165 266.5C87.14 265.465 87.83 264.445 87.83 263.275V263.125C87.83 261.55 86.645 260.41 84.455 260.41C82.46 260.41 81.5 261.655 80.99 262.585L82.13 263.32C82.835 262.06 83.69 261.745 84.485 261.745C85.61 261.745 86.345 262.27 86.345 263.125V263.245C86.345 263.815 86.225 264.415 84.995 265.765L80.96 270.145ZM96.6553 265.135C96.6553 262.105 95.3803 260.41 92.8303 260.41C90.3103 260.41 89.0053 262.105 89.0053 265.135V266.815C89.0053 269.845 90.2653 271.555 92.8303 271.555C95.4253 271.555 96.6553 269.875 96.6553 266.815V265.135ZM95.1403 266.83C95.1403 269.5 94.1503 270.175 92.8303 270.175C91.5703 270.175 90.5203 269.485 90.5203 266.83V265.12C90.5203 262.495 91.5703 261.79 92.8303 261.79C94.1503 261.79 95.1403 262.48 95.1403 265.12V266.83ZM97.4705 270.145V271.39H104.731V270.1H99.3005L102.676 266.5C103.651 265.465 104.341 264.445 104.341 263.275V263.125C104.341 261.55 103.156 260.41 100.966 260.41C98.9705 260.41 98.0105 261.655 97.5005 262.585L98.6405 263.32C99.3455 262.06 100.201 261.745 100.996 261.745C102.121 261.745 102.856 262.27 102.856 263.125V263.245C102.856 263.815 102.736 264.415 101.506 265.765L97.4705 270.145ZM111.141 271.39V260.575H109.896L106.416 262.615L107.121 263.815L109.656 262.315V271.39H111.141Z" fill="#222222"/>
<path d="M95 250H75V249H95V250Z" fill="#33B9A5"/>
<path d="M178 250H158V93H178V250Z" fill="#33B9A5"/>
<path d="M260 250H240V249H260V250Z" fill="#33B9A5"/>
<path d="M117 73H97V250H117V73Z" fill="#4A89DB"/>
<path d="M200 44H180V250H200V44Z" fill="#4A89DB"/>
<path d="M282 87H262V250H282V87Z" fill="#4A89DB"/>
<path d="M10 299H0V289H10V299Z" fill="#33B9A5"/>
<path d="M13.83 290.05V297.26H16.08C17.9 297.26 19 296.16 19 294.17V293.14C19 291.15 17.9 290.05 16.08 290.05H13.83ZM14.53 290.67H16.09C17.38 290.67 18.3 291.47 18.3 293.19V294.12C18.3 295.84 17.38 296.64 16.09 296.64H14.53V290.67ZM21.9197 291.77C20.4797 291.77 19.6297 292.66 19.6297 294.22V294.89C19.6297 296.44 20.4797 297.34 21.9197 297.34C23.3597 297.34 24.2097 296.44 24.2097 294.89V294.22C24.2097 292.67 23.3597 291.77 21.9197 291.77ZM21.9197 296.74C20.9297 296.74 20.3197 296.12 20.3197 294.85V294.26C20.3197 292.99 20.9297 292.37 21.9197 292.37C22.9097 292.37 23.5197 292.99 23.5197 294.26V294.85C23.5197 296.12 22.9097 296.74 21.9197 296.74ZM27.2833 291.77C26.4333 291.77 25.8833 292.21 25.6333 292.62V291.87H24.9633V297.26H25.6433V293.76C25.6433 293.13 26.2733 292.39 27.1833 292.39C28.2533 292.39 28.5433 293.03 28.5433 293.8V297.26H29.2233V293.63C29.2233 292.51 28.5133 291.77 27.2833 291.77ZM33.6836 297.19C33.6836 298.32 33.1536 298.85 32.1636 298.85C31.5536 298.85 31.1736 298.75 30.6736 298.4L30.3636 298.93C30.8136 299.28 31.4036 299.49 32.1636 299.49C33.5036 299.49 34.3636 298.7 34.3636 297.17V291.87H33.6936V292.53C33.4136 292.13 32.8636 291.77 32.0736 291.77C30.8436 291.77 29.9336 292.61 29.9336 294.08V294.93C29.9336 296.4 30.8436 297.24 32.0836 297.24C32.7036 297.24 33.3736 296.99 33.6736 296.45H33.6836V297.19ZM30.6136 294.18C30.6136 293.04 31.2036 292.37 32.1136 292.37C33.0336 292.37 33.6836 293.08 33.6836 293.71V295.23C33.6836 296.18 32.9836 296.64 32.1136 296.64C31.2136 296.64 30.6136 295.98 30.6136 294.83V294.18ZM36.0546 296.62C36.3446 297 36.9046 297.34 37.6646 297.34C38.8946 297.34 39.8046 296.5 39.8046 295.03V294.08C39.8046 292.61 38.9446 291.77 37.6646 291.77C36.9946 291.77 36.3746 292.09 36.0546 292.63V289.7H35.3746V297.26H36.0446V296.62H36.0546ZM39.1246 294.93C39.1246 296.07 38.5346 296.74 37.6246 296.74C36.7046 296.74 36.0546 296.1 36.0546 295.47V293.89C36.0546 292.94 36.8846 292.39 37.6246 292.39C38.5446 292.39 39.1246 293.03 39.1246 294.18V294.93ZM42.4056 297.34C43.2556 297.34 43.8156 296.92 44.0656 296.51V297.26H44.7356V291.87H44.0556V295.37C44.0556 296 43.4156 296.72 42.5056 296.72C41.4356 296.72 41.2056 296.08 41.2056 295.31V291.87H40.5256V295.48C40.5256 296.6 41.1756 297.34 42.4056 297.34ZM50.2669 289.94C48.5169 289.94 47.4969 291.13 47.4969 293.17V294.06C47.4969 296.15 48.4569 297.37 50.3269 297.37C51.4669 297.37 52.1969 296.99 52.7269 296.51L52.3169 295.96C51.8469 296.37 51.2369 296.7 50.3369 296.7C49.0069 296.7 48.2069 295.83 48.2069 294.06V293.14C48.2069 291.63 48.9369 290.6 50.2669 290.6C50.9969 290.6 51.5369 290.75 52.1869 291.21L52.5469 290.66C51.9469 290.2 51.2269 289.94 50.2669 289.94ZM55.288 291.77C53.848 291.77 52.998 292.66 52.998 294.22V294.89C52.998 296.44 53.848 297.34 55.288 297.34C56.728 297.34 57.578 296.44 57.578 294.89V294.22C57.578 292.67 56.728 291.77 55.288 291.77ZM55.288 296.74C54.298 296.74 53.688 296.12 53.688 294.85V294.26C53.688 292.99 54.298 292.37 55.288 292.37C56.278 292.37 56.888 292.99 56.888 294.26V294.85C56.888 296.12 56.278 296.74 55.288 296.74ZM61.3216 291.88C61.1016 291.8 60.8516 291.77 60.5516 291.77C59.7316 291.77 59.2316 292.3 59.0016 292.82V291.87H58.3316V297.26H59.0116V294.2C59.0116 293.19 59.5716 292.46 60.4616 292.46C60.7216 292.46 60.9316 292.5 61.1116 292.57L61.3216 291.88ZM62.3279 296.62C62.6179 297 63.1679 297.34 63.9279 297.34C65.1579 297.34 66.0679 296.5 66.0679 295.03V294.08C66.0679 292.61 65.2079 291.77 63.9279 291.77C63.2579 291.77 62.6279 292.09 62.3079 292.63V291.87H61.6379V299.4H62.3179V296.62H62.3279ZM65.3879 294.93C65.3879 296.07 64.7979 296.74 63.8879 296.74C62.9679 296.74 62.3179 296.1 62.3179 295.47V293.89C62.3179 292.94 63.1479 292.39 63.8879 292.39C64.8079 292.39 65.3879 293.03 65.3879 294.18V294.93ZM68.8201 291.77C67.3801 291.77 66.5301 292.66 66.5301 294.22V294.89C66.5301 296.44 67.3801 297.34 68.8201 297.34C70.2601 297.34 71.1101 296.44 71.1101 294.89V294.22C71.1101 292.67 70.2601 291.77 68.8201 291.77ZM68.8201 296.74C67.8301 296.74 67.2201 296.12 67.2201 294.85V294.26C67.2201 292.99 67.8301 292.37 68.8201 292.37C69.8101 292.37 70.4201 292.99 70.4201 294.26V294.85C70.4201 296.12 69.8101 296.74 68.8201 296.74ZM74.8537 291.88C74.6337 291.8 74.3837 291.77 74.0837 291.77C73.2637 291.77 72.7637 292.3 72.5337 292.82V291.87H71.8637V297.26H72.5437V294.2C72.5437 293.19 73.1037 292.46 73.9937 292.46C74.2537 292.46 74.4637 292.5 74.6437 292.57L74.8537 291.88ZM76.6299 297.34C77.0399 297.34 77.4199 297.26 77.7199 297.11C77.9999 296.97 78.2199 296.77 78.3199 296.6H78.3299V297.26H78.9899V293.49C78.9899 292.4 78.2499 291.77 77.0499 291.77C76.2299 291.77 75.6199 292.06 75.1199 292.41L75.4499 292.93C75.9099 292.61 76.4599 292.38 77.0399 292.38C77.8799 292.38 78.3199 292.82 78.3199 293.6V294.1H76.7999C75.5499 294.1 74.8999 294.71 74.8999 295.58V295.8C74.8999 296.75 75.6099 297.34 76.6299 297.34ZM78.3199 295.58C78.3199 295.99 78.0999 296.26 77.8099 296.44C77.4899 296.64 77.1599 296.75 76.7299 296.75C76.1799 296.75 75.5799 296.47 75.5799 295.77V295.61C75.5799 295.06 75.9499 294.67 76.8099 294.67H78.3199V295.58ZM80.322 295.76C80.322 296.93 80.772 297.31 81.712 297.31C82.002 297.31 82.412 297.26 82.622 297.18L82.522 296.62C82.272 296.69 82.032 296.72 81.762 296.72C81.222 296.72 81.002 296.46 81.002 295.73V292.45H82.492V291.87H81.002V290.48H80.322V291.87H79.402V292.45H80.322V295.76ZM83.2089 297.26H83.8889V291.87H83.2089V297.26ZM83.1789 290.84H83.9189V290.08H83.1789V290.84ZM86.9627 291.77C85.5227 291.77 84.6727 292.66 84.6727 294.22V294.89C84.6727 296.44 85.5227 297.34 86.9627 297.34C88.4027 297.34 89.2527 296.44 89.2527 294.89V294.22C89.2527 292.67 88.4027 291.77 86.9627 291.77ZM86.9627 296.74C85.9727 296.74 85.3627 296.12 85.3627 294.85V294.26C85.3627 292.99 85.9727 292.37 86.9627 292.37C87.9527 292.37 88.5627 292.99 88.5627 294.26V294.85C88.5627 296.12 87.9527 296.74 86.9627 296.74ZM92.3263 291.77C91.4763 291.77 90.9263 292.21 90.6763 292.62V291.87H90.0063V297.26H90.6863V293.76C90.6863 293.13 91.3163 292.39 92.2263 292.39C93.2963 292.39 93.5863 293.03 93.5863 293.8V297.26H94.2663V293.63C94.2663 292.51 93.5563 291.77 92.3263 291.77Z" fill="#555555"/>
<path d="M125.69 290.05H124.9L122.22 297.26H122.94L123.76 295.02H126.81L127.61 297.26H128.36L125.69 290.05ZM124.7 292.46C124.88 291.97 125.02 291.61 125.29 290.67C125.58 291.61 125.71 291.97 125.89 292.46L126.59 294.41H123.98L124.7 292.46ZM130.433 297.26L132.373 291.87H131.663L130.063 296.56L128.433 291.87H127.703L129.673 297.26H130.433ZM133.124 294.21V294.12C133.124 293.06 133.684 292.37 134.634 292.37C135.574 292.37 136.124 293 136.124 294.12V294.21H133.124ZM136.384 296.21C135.994 296.49 135.454 296.74 134.734 296.74C133.744 296.74 133.124 296.06 133.124 294.87V294.78H136.804V294.22C136.804 292.71 136.034 291.77 134.634 291.77C133.284 291.77 132.444 292.67 132.444 294.2V294.87C132.444 296.44 133.294 297.34 134.724 297.34C135.634 297.34 136.254 297.03 136.684 296.73L136.384 296.21ZM140.533 291.88C140.313 291.8 140.063 291.77 139.763 291.77C138.943 291.77 138.443 292.3 138.213 292.82V291.87H137.543V297.26H138.223V294.2C138.223 293.19 138.783 292.46 139.673 292.46C139.933 292.46 140.143 292.5 140.323 292.57L140.533 291.88ZM142.309 297.34C142.719 297.34 143.099 297.26 143.399 297.11C143.679 296.97 143.899 296.77 143.999 296.6H144.009V297.26H144.669V293.49C144.669 292.4 143.929 291.77 142.729 291.77C141.909 291.77 141.299 292.06 140.799 292.41L141.129 292.93C141.589 292.61 142.139 292.38 142.719 292.38C143.559 292.38 143.999 292.82 143.999 293.6V294.1H142.479C141.229 294.1 140.579 294.71 140.579 295.58V295.8C140.579 296.75 141.289 297.34 142.309 297.34ZM143.999 295.58C143.999 295.99 143.779 296.26 143.489 296.44C143.169 296.64 142.839 296.75 142.409 296.75C141.859 296.75 141.259 296.47 141.259 295.77V295.61C141.259 295.06 141.629 294.67 142.489 294.67H143.999V295.58ZM149.081 297.19C149.081 298.32 148.551 298.85 147.561 298.85C146.951 298.85 146.571 298.75 146.071 298.4L145.761 298.93C146.211 299.28 146.801 299.49 147.561 299.49C148.901 299.49 149.761 298.7 149.761 297.17V291.87H149.091V292.53C148.811 292.13 148.261 291.77 147.471 291.77C146.241 291.77 145.331 292.61 145.331 294.08V294.93C145.331 296.4 146.241 297.24 147.481 297.24C148.101 297.24 148.771 296.99 149.071 296.45H149.081V297.19ZM146.011 294.18C146.011 293.04 146.601 292.37 147.511 292.37C148.431 292.37 149.081 293.08 149.081 293.71V295.23C149.081 296.18 148.381 296.64 147.511 296.64C146.611 296.64 146.011 295.98 146.011 294.83V294.18ZM151.202 294.21V294.12C151.202 293.06 151.762 292.37 152.712 292.37C153.652 292.37 154.202 293 154.202 294.12V294.21H151.202ZM154.462 296.21C154.072 296.49 153.532 296.74 152.812 296.74C151.822 296.74 151.202 296.06 151.202 294.87V294.78H154.882V294.22C154.882 292.71 154.112 291.77 152.712 291.77C151.362 291.77 150.522 292.67 150.522 294.2V294.87C150.522 296.44 151.372 297.34 152.802 297.34C153.712 297.34 154.332 297.03 154.762 296.73L154.462 296.21ZM159.561 291.77C158.121 291.77 157.271 292.66 157.271 294.22V294.89C157.271 296.44 158.121 297.34 159.561 297.34C161.001 297.34 161.851 296.44 161.851 294.89V294.22C161.851 292.67 161.001 291.77 159.561 291.77ZM159.561 296.74C158.571 296.74 157.961 296.12 157.961 294.85V294.26C157.961 292.99 158.571 292.37 159.561 292.37C160.551 292.37 161.161 292.99 161.161 294.26V294.85C161.161 296.12 160.551 296.74 159.561 296.74ZM163.045 297.26H163.725V292.45H165.215V291.87H163.725V291.22C163.725 290.49 163.945 290.23 164.485 290.23C164.755 290.23 164.995 290.26 165.245 290.33L165.345 289.77C165.135 289.69 164.725 289.64 164.435 289.64C163.535 289.64 163.045 290.02 163.045 291.19V291.87H162.125V292.45H163.045V297.26ZM169.625 291.77C168.305 291.77 167.395 292.63 167.395 294.2V294.87C167.395 296.44 168.235 297.34 169.635 297.34C170.605 297.34 171.155 297.03 171.545 296.73L171.225 296.19C170.835 296.48 170.395 296.72 169.645 296.72C168.685 296.72 168.085 296.05 168.085 294.87V294.18C168.085 293.06 168.675 292.38 169.625 292.38C170.135 292.38 170.585 292.48 171.085 292.83L171.395 292.3C170.945 291.96 170.385 291.77 169.625 291.77ZM174.027 291.77C172.587 291.77 171.737 292.66 171.737 294.22V294.89C171.737 296.44 172.587 297.34 174.027 297.34C175.467 297.34 176.317 296.44 176.317 294.89V294.22C176.317 292.67 175.467 291.77 174.027 291.77ZM174.027 296.74C173.037 296.74 172.427 296.12 172.427 294.85V294.26C172.427 292.99 173.037 292.37 174.027 292.37C175.017 292.37 175.627 292.99 175.627 294.26V294.85C175.627 296.12 175.017 296.74 174.027 296.74ZM182.52 291.77C181.66 291.77 181.12 292.29 180.88 292.75C180.64 292.13 180.11 291.77 179.25 291.77C178.46 291.77 177.98 292.19 177.74 292.62V291.87H177.07V297.26H177.75V293.76C177.75 293.13 178.24 292.39 179.13 292.39C180.1 292.39 180.34 292.94 180.34 293.81V297.26H181.02V293.72C181.04 293.1 181.53 292.39 182.4 292.39C183.37 292.39 183.61 292.94 183.61 293.81V297.26H184.29V293.63C184.29 292.49 183.74 291.77 182.52 291.77ZM185.94 296.62C186.23 297 186.78 297.34 187.54 297.34C188.77 297.34 189.68 296.5 189.68 295.03V294.08C189.68 292.61 188.82 291.77 187.54 291.77C186.87 291.77 186.24 292.09 185.92 292.63V291.87H185.25V299.4H185.93V296.62H185.94ZM189 294.93C189 296.07 188.41 296.74 187.5 296.74C186.58 296.74 185.93 296.1 185.93 295.47V293.89C185.93 292.94 186.76 292.39 187.5 292.39C188.42 292.39 189 293.03 189 294.18V294.93ZM193.431 291.88C193.211 291.8 192.961 291.77 192.661 291.77C191.841 291.77 191.341 292.3 191.111 292.82V291.87H190.441V297.26H191.121V294.2C191.121 293.19 191.681 292.46 192.571 292.46C192.831 292.46 193.041 292.5 193.221 292.57L193.431 291.88ZM194.177 294.21V294.12C194.177 293.06 194.737 292.37 195.687 292.37C196.627 292.37 197.177 293 197.177 294.12V294.21H194.177ZM197.437 296.21C197.047 296.49 196.507 296.74 195.787 296.74C194.797 296.74 194.177 296.06 194.177 294.87V294.78H197.857V294.22C197.857 292.71 197.087 291.77 195.687 291.77C194.337 291.77 193.497 292.67 193.497 294.2V294.87C193.497 296.44 194.347 297.34 195.777 297.34C196.687 297.34 197.307 297.03 197.737 296.73L197.437 296.21ZM200.916 291.77C200.066 291.77 199.526 292.21 199.276 292.62V289.7H198.596V297.26H199.276V293.76C199.276 293.13 199.906 292.39 200.816 292.39C201.886 292.39 202.176 293.03 202.176 293.8V297.26H202.856V293.63C202.856 292.51 202.146 291.77 200.916 291.77ZM204.246 294.21V294.12C204.246 293.06 204.806 292.37 205.756 292.37C206.696 292.37 207.246 293 207.246 294.12V294.21H204.246ZM207.506 296.21C207.116 296.49 206.576 296.74 205.856 296.74C204.866 296.74 204.246 296.06 204.246 294.87V294.78H207.926V294.22C207.926 292.71 207.156 291.77 205.756 291.77C204.406 291.77 203.566 292.67 203.566 294.2V294.87C203.566 296.44 204.416 297.34 205.846 297.34C206.756 297.34 207.376 297.03 207.806 296.73L207.506 296.21ZM210.986 291.77C210.136 291.77 209.586 292.21 209.336 292.62V291.87H208.666V297.26H209.346V293.76C209.346 293.13 209.976 292.39 210.886 292.39C211.956 292.39 212.246 293.03 212.246 293.8V297.26H212.926V293.63C212.926 292.51 212.216 291.77 210.986 291.77ZM215.596 296.73C214.966 296.73 214.386 296.5 213.896 296.17L213.566 296.71C214.076 297.08 214.766 297.34 215.636 297.34C216.776 297.34 217.616 296.74 217.616 295.88V295.73C217.616 294.87 217.056 294.44 215.726 294.19C214.876 294.03 214.376 293.79 214.376 293.32V293.21C214.376 292.74 214.816 292.37 215.626 292.37C216.316 292.37 216.736 292.54 217.186 292.84L217.496 292.33C217.056 292 216.466 291.77 215.646 291.77C214.326 291.77 213.696 292.43 213.696 293.2V293.34C213.696 294.22 214.406 294.57 215.486 294.78C216.516 294.98 216.936 295.22 216.936 295.76V295.86C216.936 296.32 216.466 296.73 215.596 296.73ZM218.267 297.26H218.947V291.87H218.267V297.26ZM218.237 290.84H218.977V290.08H218.237V290.84ZM222.081 297.26L224.021 291.87H223.311L221.711 296.56L220.081 291.87H219.351L221.321 297.26H222.081ZM224.772 294.21V294.12C224.772 293.06 225.332 292.37 226.282 292.37C227.222 292.37 227.772 293 227.772 294.12V294.21H224.772ZM228.032 296.21C227.642 296.49 227.102 296.74 226.382 296.74C225.392 296.74 224.772 296.06 224.772 294.87V294.78H228.452V294.22C228.452 292.71 227.682 291.77 226.282 291.77C224.932 291.77 224.092 292.67 224.092 294.2V294.87C224.092 296.44 224.942 297.34 226.372 297.34C227.282 297.34 227.902 297.03 228.332 296.73L228.032 296.21ZM124.78 305.77C123.46 305.77 122.55 306.63 122.55 308.2V308.87C122.55 310.44 123.39 311.34 124.79 311.34C125.76 311.34 126.31 311.03 126.7 310.73L126.38 310.19C125.99 310.48 125.55 310.72 124.8 310.72C123.84 310.72 123.24 310.05 123.24 308.87V308.18C123.24 307.06 123.83 306.38 124.78 306.38C125.29 306.38 125.74 306.48 126.24 306.83L126.55 306.3C126.1 305.96 125.54 305.77 124.78 305.77ZM129.181 305.77C127.741 305.77 126.891 306.66 126.891 308.22V308.89C126.891 310.44 127.741 311.34 129.181 311.34C130.621 311.34 131.471 310.44 131.471 308.89V308.22C131.471 306.67 130.621 305.77 129.181 305.77ZM129.181 310.74C128.191 310.74 127.581 310.12 127.581 308.85V308.26C127.581 306.99 128.191 306.37 129.181 306.37C130.171 306.37 130.781 306.99 130.781 308.26V308.85C130.781 310.12 130.171 310.74 129.181 310.74ZM134.545 305.77C133.695 305.77 133.145 306.21 132.895 306.62V305.87H132.225V311.26H132.905V307.76C132.905 307.13 133.535 306.39 134.445 306.39C135.515 306.39 135.805 307.03 135.805 307.8V311.26H136.485V307.63C136.485 306.51 135.775 305.77 134.545 305.77ZM139.155 310.73C138.525 310.73 137.945 310.5 137.455 310.17L137.125 310.71C137.635 311.08 138.325 311.34 139.195 311.34C140.335 311.34 141.175 310.74 141.175 309.88V309.73C141.175 308.87 140.615 308.44 139.285 308.19C138.435 308.03 137.935 307.79 137.935 307.32V307.21C137.935 306.74 138.375 306.37 139.185 306.37C139.875 306.37 140.295 306.54 140.745 306.84L141.055 306.33C140.615 306 140.025 305.77 139.205 305.77C137.885 305.77 137.255 306.43 137.255 307.2V307.34C137.255 308.22 137.965 308.57 139.045 308.78C140.075 308.98 140.495 309.22 140.495 309.76V309.86C140.495 310.32 140.025 310.73 139.155 310.73ZM142.216 309.76C142.216 310.93 142.666 311.31 143.606 311.31C143.896 311.31 144.306 311.26 144.516 311.18L144.416 310.62C144.166 310.69 143.926 310.72 143.656 310.72C143.116 310.72 142.896 310.46 142.896 309.73V306.45H144.386V305.87H142.896V304.48H142.216V305.87H141.296V306.45H142.216V309.76ZM148.063 305.88C147.843 305.8 147.593 305.77 147.293 305.77C146.473 305.77 145.973 306.3 145.743 306.82V305.87H145.073V311.26H145.753V308.2C145.753 307.19 146.313 306.46 147.203 306.46C147.463 306.46 147.673 306.5 147.853 306.57L148.063 305.88ZM150.22 311.34C151.07 311.34 151.63 310.92 151.88 310.51V311.26H152.55V305.87H151.87V309.37C151.87 310 151.23 310.72 150.32 310.72C149.25 310.72 149.02 310.08 149.02 309.31V305.87H148.34V309.48C148.34 310.6 148.99 311.34 150.22 311.34ZM155.541 305.77C154.221 305.77 153.311 306.63 153.311 308.2V308.87C153.311 310.44 154.151 311.34 155.551 311.34C156.521 311.34 157.071 311.03 157.461 310.73L157.141 310.19C156.751 310.48 156.311 310.72 155.561 310.72C154.601 310.72 154.001 310.05 154.001 308.87V308.18C154.001 307.06 154.591 306.38 155.541 306.38C156.051 306.38 156.501 306.48 157.001 306.83L157.311 306.3C156.861 305.96 156.301 305.77 155.541 305.77ZM158.322 309.76C158.322 310.93 158.772 311.31 159.712 311.31C160.002 311.31 160.412 311.26 160.622 311.18L160.522 310.62C160.272 310.69 160.032 310.72 159.762 310.72C159.222 310.72 159.002 310.46 159.002 309.73V306.45H160.492V305.87H159.002V304.48H158.322V305.87H157.402V306.45H158.322V309.76ZM161.209 311.26H161.889V305.87H161.209V311.26ZM161.179 304.84H161.919V304.08H161.179V304.84ZM164.963 305.77C163.523 305.77 162.673 306.66 162.673 308.22V308.89C162.673 310.44 163.523 311.34 164.963 311.34C166.403 311.34 167.253 310.44 167.253 308.89V308.22C167.253 306.67 166.403 305.77 164.963 305.77ZM164.963 310.74C163.973 310.74 163.363 310.12 163.363 308.85V308.26C163.363 306.99 163.973 306.37 164.963 306.37C165.953 306.37 166.563 306.99 166.563 308.26V308.85C166.563 310.12 165.953 310.74 164.963 310.74ZM170.327 305.77C169.477 305.77 168.927 306.21 168.677 306.62V305.87H168.007V311.26H168.687V307.76C168.687 307.13 169.317 306.39 170.227 306.39C171.297 306.39 171.587 307.03 171.587 307.8V311.26H172.267V307.63C172.267 306.51 171.557 305.77 170.327 305.77ZM177.107 305.77C175.787 305.77 174.877 306.63 174.877 308.2V308.87C174.877 310.44 175.717 311.34 177.117 311.34C178.087 311.34 178.637 311.03 179.027 310.73L178.707 310.19C178.317 310.48 177.877 310.72 177.127 310.72C176.167 310.72 175.567 310.05 175.567 308.87V308.18C175.567 307.06 176.157 306.38 177.107 306.38C177.617 306.38 178.067 306.48 178.567 306.83L178.877 306.3C178.427 305.96 177.867 305.77 177.107 305.77ZM181.508 305.77C180.068 305.77 179.218 306.66 179.218 308.22V308.89C179.218 310.44 180.068 311.34 181.508 311.34C182.948 311.34 183.798 310.44 183.798 308.89V308.22C183.798 306.67 182.948 305.77 181.508 305.77ZM181.508 310.74C180.518 310.74 179.908 310.12 179.908 308.85V308.26C179.908 306.99 180.518 306.37 181.508 306.37C182.498 306.37 183.108 306.99 183.108 308.26V308.85C183.108 310.12 182.498 310.74 181.508 310.74ZM190.002 305.77C189.142 305.77 188.602 306.29 188.362 306.75C188.122 306.13 187.592 305.77 186.732 305.77C185.942 305.77 185.462 306.19 185.222 306.62V305.87H184.552V311.26H185.232V307.76C185.232 307.13 185.722 306.39 186.612 306.39C187.582 306.39 187.822 306.94 187.822 307.81V311.26H188.502V307.72C188.522 307.1 189.012 306.39 189.882 306.39C190.852 306.39 191.092 306.94 191.092 307.81V311.26H191.772V307.63C191.772 306.49 191.222 305.77 190.002 305.77ZM193.421 310.62C193.711 311 194.261 311.34 195.021 311.34C196.251 311.34 197.161 310.5 197.161 309.03V308.08C197.161 306.61 196.301 305.77 195.021 305.77C194.351 305.77 193.721 306.09 193.401 306.63V305.87H192.731V313.4H193.411V310.62H193.421ZM196.481 308.93C196.481 310.07 195.891 310.74 194.981 310.74C194.061 310.74 193.411 310.1 193.411 309.47V307.89C193.411 306.94 194.241 306.39 194.981 306.39C195.901 306.39 196.481 307.03 196.481 308.18V308.93ZM199.285 311.34C199.695 311.34 200.075 311.26 200.375 311.11C200.655 310.97 200.875 310.77 200.975 310.6H200.985V311.26H201.645V307.49C201.645 306.4 200.905 305.77 199.705 305.77C198.885 305.77 198.275 306.06 197.775 306.41L198.105 306.93C198.565 306.61 199.115 306.38 199.695 306.38C200.535 306.38 200.975 306.82 200.975 307.6V308.1H199.455C198.205 308.1 197.555 308.71 197.555 309.58V309.8C197.555 310.75 198.265 311.34 199.285 311.34ZM200.975 309.58C200.975 309.99 200.755 310.26 200.465 310.44C200.145 310.64 199.815 310.75 199.385 310.75C198.835 310.75 198.235 310.47 198.235 309.77V309.61C198.235 309.06 198.605 308.67 199.465 308.67H200.975V309.58ZM204.877 305.77C204.027 305.77 203.477 306.21 203.227 306.62V305.87H202.557V311.26H203.237V307.76C203.237 307.13 203.867 306.39 204.777 306.39C205.847 306.39 206.137 307.03 206.137 307.8V311.26H206.817V307.63C206.817 306.51 206.107 305.77 204.877 305.77ZM207.807 311.26H208.487V305.87H207.807V311.26ZM207.777 304.84H208.517V304.08H207.777V304.84ZM209.951 308.21V308.12C209.951 307.06 210.511 306.37 211.461 306.37C212.401 306.37 212.951 307 212.951 308.12V308.21H209.951ZM213.211 310.21C212.821 310.49 212.281 310.74 211.561 310.74C210.571 310.74 209.951 310.06 209.951 308.87V308.78H213.631V308.22C213.631 306.71 212.861 305.77 211.461 305.77C210.111 305.77 209.271 306.67 209.271 308.2V308.87C209.271 310.44 210.121 311.34 211.551 311.34C212.461 311.34 213.081 311.03 213.511 310.73L213.211 310.21ZM216.08 310.73C215.45 310.73 214.87 310.5 214.38 310.17L214.05 310.71C214.56 311.08 215.25 311.34 216.12 311.34C217.26 311.34 218.1 310.74 218.1 309.88V309.73C218.1 308.87 217.54 308.44 216.21 308.19C215.36 308.03 214.86 307.79 214.86 307.32V307.21C214.86 306.74 215.3 306.37 216.11 306.37C216.8 306.37 217.22 306.54 217.67 306.84L217.98 306.33C217.54 306 216.95 305.77 216.13 305.77C214.81 305.77 214.18 306.43 214.18 307.2V307.34C214.18 308.22 214.89 308.57 215.97 308.78C217 308.98 217.42 309.22 217.42 309.76V309.86C217.42 310.32 216.95 310.73 216.08 310.73Z" fill="#555555"/>
<path d="M116 289H106V299H116V289Z" fill="#4A89DB"/>
<path d="M141 53H97V73H141V53Z" fill="#F8F8F8"/>
<path d="M224 24H180V44H224V24Z" fill="#F8F8F8"/>
<path d="M101.768 66.316V67.312H107.576V66.28H103.232L105.932 63.4C106.712 62.572 107.264 61.756 107.264 60.82V60.7C107.264 59.44 106.316 58.528 104.564 58.528C102.968 58.528 102.2 59.524 101.792 60.268L102.704 60.856C103.268 59.848 103.952 59.596 104.588 59.596C105.488 59.596 106.076 60.016 106.076 60.7V60.796C106.076 61.252 105.98 61.732 104.996 62.812L101.768 66.316ZM108.684 67.804H110.052V66.424H108.684V67.804ZM111.18 66.316V67.312H116.988V66.28H112.644L115.344 63.4C116.124 62.572 116.676 61.756 116.676 60.82V60.7C116.676 59.44 115.728 58.528 113.976 58.528C112.38 58.528 111.612 59.524 111.204 60.268L112.116 60.856C112.68 59.848 113.364 59.596 114 59.596C114.9 59.596 115.488 60.016 115.488 60.7V60.796C115.488 61.252 115.392 61.732 114.408 62.812L111.18 66.316ZM123.736 62.308C123.736 59.884 122.716 58.528 120.676 58.528C118.66 58.528 117.616 59.884 117.616 62.308V63.652C117.616 66.076 118.624 67.444 120.676 67.444C122.752 67.444 123.736 66.1 123.736 63.652V62.308ZM122.524 63.664C122.524 65.8 121.732 66.34 120.676 66.34C119.668 66.34 118.828 65.788 118.828 63.664V62.296C118.828 60.196 119.668 59.632 120.676 59.632C121.732 59.632 122.524 60.184 122.524 62.296V63.664Z" fill="#222222"/>
<path d="M184.768 37.316V38.312H190.576V37.28H186.232L188.932 34.4C189.712 33.572 190.264 32.756 190.264 31.82V31.7C190.264 30.44 189.316 29.528 187.564 29.528C185.968 29.528 185.2 30.524 184.792 31.268L185.704 31.856C186.268 30.848 186.952 30.596 187.588 30.596C188.488 30.596 189.076 31.016 189.076 31.7V31.796C189.076 32.252 188.98 32.732 187.996 33.812L184.768 37.316ZM191.684 38.804H193.052V37.424H191.684V38.804ZM200.12 35.528C200.12 34.064 199.184 32.852 197.54 32.852C196.82 32.852 196.196 33.092 195.812 33.38L195.944 30.68H199.556V29.66H194.864L194.588 34.532H195.5C195.884 34.16 196.46 33.848 197.192 33.848C198.296 33.848 198.932 34.412 198.932 35.564V35.708C198.932 36.512 198.392 37.364 197.132 37.364C196.328 37.364 195.584 37.184 194.756 36.536L194.168 37.484C194.984 38.132 195.932 38.444 197.108 38.444C199.268 38.444 200.12 36.98 200.12 35.708V35.528ZM206.736 33.308C206.736 30.884 205.716 29.528 203.676 29.528C201.66 29.528 200.616 30.884 200.616 33.308V34.652C200.616 37.076 201.624 38.444 203.676 38.444C205.752 38.444 206.736 37.1 206.736 34.652V33.308ZM205.524 34.664C205.524 36.8 204.732 37.34 203.676 37.34C202.668 37.34 201.828 36.788 201.828 34.664V33.296C201.828 31.196 202.668 30.632 203.676 30.632C204.732 30.632 205.524 31.184 205.524 33.296V34.664Z" fill="#222222"/>
<path d="M300 67H256V87H300V67Z" fill="#F8F8F8"/>
<path d="M266.768 80.316V81.312H272.576V80.28H268.232L270.932 77.4C271.712 76.572 272.264 75.756 272.264 74.82V74.7C272.264 73.44 271.316 72.528 269.564 72.528C267.968 72.528 267.2 73.524 266.792 74.268L267.704 74.856C268.268 73.848 268.952 73.596 269.588 73.596C270.488 73.596 271.076 74.016 271.076 74.7V74.796C271.076 75.252 270.98 75.732 269.996 76.812L266.768 80.316ZM273.684 81.804H275.052V80.424H273.684V81.804ZM282.132 76.308C282.132 73.884 281.112 72.528 279.072 72.528C277.056 72.528 276.012 73.884 276.012 76.308V77.652C276.012 80.076 277.02 81.444 279.072 81.444C281.148 81.444 282.132 80.1 282.132 77.652V76.308ZM280.92 77.664C280.92 79.8 280.128 80.34 279.072 80.34C278.064 80.34 277.224 79.788 277.224 77.664V76.296C277.224 74.196 278.064 73.632 279.072 73.632C280.128 73.632 280.92 74.184 280.92 76.296V77.664ZM287.116 81.312V72.66H286.12L283.336 74.292L283.9 75.252L285.928 74.052V81.312H287.116Z" fill="#222222"/>
<path d="M72.72 237.308C72.72 234.884 71.7 233.528 69.66 233.528C67.644 233.528 66.6 234.884 66.6 237.308V238.652C66.6 241.076 67.608 242.444 69.66 242.444C71.736 242.444 72.72 241.1 72.72 238.652V237.308ZM71.508 238.664C71.508 240.8 70.716 241.34 69.66 241.34C68.652 241.34 67.812 240.788 67.812 238.664V237.296C67.812 235.196 68.652 234.632 69.66 234.632C70.716 234.632 71.508 235.184 71.508 237.296V238.664ZM73.6842 242.804H75.0522V241.424H73.6842V242.804ZM82.1316 237.308C82.1316 234.884 81.1116 233.528 79.0716 233.528C77.0556 233.528 76.0116 234.884 76.0116 237.308V238.652C76.0116 241.076 77.0196 242.444 79.0716 242.444C81.1476 242.444 82.1316 241.1 82.1316 238.652V237.308ZM80.9196 238.664C80.9196 240.8 80.1276 241.34 79.0716 241.34C78.0636 241.34 77.2236 240.788 77.2236 238.664V237.296C77.2236 235.196 78.0636 234.632 79.0716 234.632C80.1276 234.632 80.9196 235.184 80.9196 237.296V238.664ZM88.7358 237.308C88.7358 234.884 87.7158 233.528 85.6758 233.528C83.6598 233.528 82.6158 234.884 82.6158 237.308V238.652C82.6158 241.076 83.6238 242.444 85.6758 242.444C87.7518 242.444 88.7358 241.1 88.7358 238.652V237.308ZM87.5238 238.664C87.5238 240.8 86.7318 241.34 85.6758 241.34C84.6678 241.34 83.8278 240.788 83.8278 238.664V237.296C83.8278 235.196 84.6678 234.632 85.6758 234.632C86.7318 234.632 87.5238 235.184 87.5238 237.296V238.664Z" fill="#222222"/>
<path d="M180 73H142V93H180V73Z" fill="#F8F8F8"/>
<path d="M154.1 87.312V78.66H153.104L150.32 80.292L150.884 81.252L152.912 80.052V87.312H154.1ZM156.684 87.804H158.052V86.424H156.684V87.804ZM159.42 86.832C160.068 87.228 160.884 87.444 161.664 87.444C163.812 87.444 164.988 86.28 164.988 82.488V82.044C164.988 79.728 163.896 78.528 161.976 78.528C160.212 78.528 159.024 79.704 159.024 81.36V81.624C159.024 83.316 160.212 84.384 161.748 84.384C162.708 84.384 163.524 83.904 163.812 83.4C163.764 85.656 162.936 86.352 161.736 86.352C161.052 86.352 160.416 86.136 159.876 85.824L159.42 86.832ZM163.776 81.624C163.776 82.572 163.044 83.328 161.988 83.328C160.968 83.328 160.212 82.704 160.212 81.552V81.396C160.212 80.268 160.908 79.608 162.024 79.608C163.104 79.608 163.776 80.34 163.776 81.456V81.624ZM169.66 81.792V84.444H166.732L170.716 78.66H169.408L165.34 84.564V85.452H169.66V87.312H170.836V85.452H172.06V84.444H170.836V81.792H169.66Z" fill="#222222"/>
<path d="M237.72 237.308C237.72 234.884 236.7 233.528 234.66 233.528C232.644 233.528 231.6 234.884 231.6 237.308V238.652C231.6 241.076 232.608 242.444 234.66 242.444C236.736 242.444 237.72 241.1 237.72 238.652V237.308ZM236.508 238.664C236.508 240.8 235.716 241.34 234.66 241.34C233.652 241.34 232.812 240.788 232.812 238.664V237.296C232.812 235.196 233.652 234.632 234.66 234.632C235.716 234.632 236.508 235.184 236.508 237.296V238.664ZM238.684 242.804H240.052V241.424H238.684V242.804ZM247.132 237.308C247.132 234.884 246.112 233.528 244.072 233.528C242.056 233.528 241.012 234.884 241.012 237.308V238.652C241.012 241.076 242.02 242.444 244.072 242.444C246.148 242.444 247.132 241.1 247.132 238.652V237.308ZM245.92 238.664C245.92 240.8 245.128 241.34 244.072 241.34C243.064 241.34 242.224 240.788 242.224 238.664V237.296C242.224 235.196 243.064 234.632 244.072 234.632C245.128 234.632 245.92 235.184 245.92 237.296V238.664ZM253.736 237.308C253.736 234.884 252.716 233.528 250.676 233.528C248.66 233.528 247.616 234.884 247.616 237.308V238.652C247.616 241.076 248.624 242.444 250.676 242.444C252.752 242.444 253.736 241.1 253.736 238.652V237.308ZM252.524 238.664C252.524 240.8 251.732 241.34 250.676 241.34C249.668 241.34 248.828 240.788 248.828 238.664V237.296C248.828 235.196 249.668 234.632 250.676 234.632C251.732 234.632 252.524 235.184 252.524 237.296V238.664Z" fill="#222222"/>
<path d="M162.96 270.145V271.39H170.22V270.1H164.79L168.165 266.5C169.14 265.465 169.83 264.445 169.83 263.275V263.125C169.83 261.55 168.645 260.41 166.455 260.41C164.46 260.41 163.5 261.655 162.99 262.585L164.13 263.32C164.835 262.06 165.69 261.745 166.485 261.745C167.61 261.745 168.345 262.27 168.345 263.125V263.245C168.345 263.815 168.225 264.415 166.995 265.765L162.96 270.145ZM178.655 265.135C178.655 262.105 177.38 260.41 174.83 260.41C172.31 260.41 171.005 262.105 171.005 265.135V266.815C171.005 269.845 172.265 271.555 174.83 271.555C177.425 271.555 178.655 269.875 178.655 266.815V265.135ZM177.14 266.83C177.14 269.5 176.15 270.175 174.83 270.175C173.57 270.175 172.52 269.485 172.52 266.83V265.12C172.52 262.495 173.57 261.79 174.83 261.79C176.15 261.79 177.14 262.48 177.14 265.12V266.83ZM179.471 270.145V271.39H186.731V270.1H181.301L184.676 266.5C185.651 265.465 186.341 264.445 186.341 263.275V263.125C186.341 261.55 185.156 260.41 182.966 260.41C180.971 260.41 180.011 261.655 179.501 262.585L180.641 263.32C181.346 262.06 182.201 261.745 182.996 261.745C184.121 261.745 184.856 262.27 184.856 263.125V263.245C184.856 263.815 184.736 264.415 183.506 265.765L179.471 270.145ZM195.166 265.135C195.166 262.105 193.891 260.41 191.341 260.41C188.821 260.41 187.516 262.105 187.516 265.135V266.815C187.516 269.845 188.776 271.555 191.341 271.555C193.936 271.555 195.166 269.875 195.166 266.815V265.135ZM193.651 266.83C193.651 269.5 192.661 270.175 191.341 270.175C190.081 270.175 189.031 269.485 189.031 266.83V265.12C189.031 262.495 190.081 261.79 191.341 261.79C192.661 261.79 193.651 262.48 193.651 265.12V266.83Z" fill="#222222"/>
<path d="M244.96 270.145V271.39H252.22V270.1H246.79L250.165 266.5C251.14 265.465 251.83 264.445 251.83 263.275V263.125C251.83 261.55 250.645 260.41 248.455 260.41C246.46 260.41 245.5 261.655 244.99 262.585L246.13 263.32C246.835 262.06 247.69 261.745 248.485 261.745C249.61 261.745 250.345 262.27 250.345 263.125V263.245C250.345 263.815 250.225 264.415 248.995 265.765L244.96 270.145ZM260.655 265.135C260.655 262.105 259.38 260.41 256.83 260.41C254.31 260.41 253.005 262.105 253.005 265.135V266.815C253.005 269.845 254.265 271.555 256.83 271.555C259.425 271.555 260.655 269.875 260.655 266.815V265.135ZM259.14 266.83C259.14 269.5 258.15 270.175 256.83 270.175C255.57 270.175 254.52 269.485 254.52 266.83V265.12C254.52 262.495 255.57 261.79 256.83 261.79C258.15 261.79 259.14 262.48 259.14 265.12V266.83ZM266.886 271.39V260.575H265.641L262.161 262.615L262.866 263.815L265.401 262.315V271.39H266.886ZM270.026 270.79C270.836 271.285 271.856 271.555 272.831 271.555C275.516 271.555 276.986 270.1 276.986 265.36V264.805C276.986 261.91 275.621 260.41 273.221 260.41C271.016 260.41 269.531 261.88 269.531 263.95V264.28C269.531 266.395 271.016 267.73 272.936 267.73C274.136 267.73 275.156 267.13 275.516 266.5C275.456 269.32 274.421 270.19 272.921 270.19C272.066 270.19 271.271 269.92 270.596 269.53L270.026 270.79ZM275.471 264.28C275.471 265.465 274.556 266.41 273.236 266.41C271.961 266.41 271.016 265.63 271.016 264.19V263.995C271.016 262.585 271.886 261.76 273.281 261.76C274.631 261.76 275.471 262.675 275.471 264.07V264.28Z" fill="#222222"/>
<path d="M283 12H239V32H283V12Z" fill="#F8F8F8"/>
</svg>
