<svg width="345" height="198" viewBox="0 0 345 198" fill="none" xmlns="http://www.w3.org/2000/svg">
<path d="M48.7619 1.22363H39.0078V11.002H48.7619V1.22363Z" fill="#33B9A5"/>
<path d="M56.3368 8.25066H57.0199L59.0176 4.02756C59.1936 3.67563 59.2764 3.53072 59.3695 3.08564V9.49275H60.0837V2.02986H59.2246L56.6887 7.49506L54.1631 2.02986H53.2729V9.49275H53.9871V3.08564C54.101 3.53072 54.1838 3.67563 54.3598 4.02756L56.3368 8.25066ZM62.6633 9.57556C63.0877 9.57556 63.481 9.49275 63.7916 9.33749C64.0814 9.19258 64.3091 8.98557 64.4126 8.8096H64.423V9.49275H65.1061V5.59052C65.1061 4.46229 64.3401 3.81019 63.0981 3.81019C62.2493 3.81019 61.6179 4.11036 61.1004 4.47264L61.4419 5.01088C61.9181 4.67965 62.4874 4.44159 63.0877 4.44159C63.9572 4.44159 64.4126 4.89702 64.4126 5.70438V6.22192H62.8393C61.5454 6.22192 60.8726 6.85331 60.8726 7.75383V7.98154C60.8726 8.96486 61.6075 9.57556 62.6633 9.57556ZM64.4126 7.75383C64.4126 8.17821 64.1849 8.45768 63.8847 8.64399C63.5535 8.85101 63.2119 8.96486 62.7668 8.96486C62.1975 8.96486 61.5765 8.67504 61.5765 7.95049V7.78488C61.5765 7.21559 61.9595 6.81191 62.8496 6.81191H64.4126V7.75383ZM66.0501 9.49275H66.754V1.66759H66.0501V9.49275ZM68.2294 6.33577V6.24262C68.2294 5.14544 68.809 4.43124 69.7923 4.43124C70.7653 4.43124 71.3346 5.08333 71.3346 6.24262V6.33577H68.2294ZM71.6037 8.40592C71.2 8.69574 70.6411 8.95451 69.8958 8.95451C68.8711 8.95451 68.2294 8.25066 68.2294 7.01892V6.92577H72.0384V6.34612C72.0384 4.78316 71.2414 3.81019 69.7923 3.81019C68.395 3.81019 67.5255 4.74176 67.5255 6.32542V7.01892C67.5255 8.64399 68.4053 9.57556 69.8855 9.57556C70.8274 9.57556 71.4691 9.25469 71.9142 8.94416L71.6037 8.40592Z" fill="#555555"/>
<path d="M92.6682 1.22363H82.9141V11.002H92.6682V1.22363Z" fill="#FFC531"/>
<path d="M97.904 9.49275V6.17016H101.392V5.52842H97.904V2.67161H101.61V2.02986H97.1794V9.49275H97.904ZM102.774 6.33577V6.24262C102.774 5.14544 103.354 4.43124 104.337 4.43124C105.31 4.43124 105.88 5.08333 105.88 6.24262V6.33577H102.774ZM106.149 8.40592C105.745 8.69574 105.186 8.95451 104.441 8.95451C103.416 8.95451 102.774 8.25066 102.774 7.01892V6.92577H106.584V6.34612C106.584 4.78316 105.787 3.81019 104.337 3.81019C102.94 3.81019 102.071 4.74176 102.071 6.32542V7.01892C102.071 8.64399 102.95 9.57556 104.431 9.57556C105.373 9.57556 106.014 9.25469 106.459 8.94416L106.149 8.40592ZM112.99 3.81019C112.1 3.81019 111.541 4.34843 111.292 4.82456C111.044 4.18282 110.495 3.81019 109.605 3.81019C108.787 3.81019 108.291 4.24492 108.042 4.69V3.9137H107.349V9.49275H108.053V5.86999C108.053 5.21789 108.56 4.45194 109.481 4.45194C110.485 4.45194 110.733 5.02123 110.733 5.92174V9.49275H111.437V5.82859C111.458 5.18684 111.965 4.45194 112.866 4.45194C113.87 4.45194 114.118 5.02123 114.118 5.92174V9.49275H114.822V5.73543C114.822 4.55545 114.253 3.81019 112.99 3.81019ZM117.326 9.57556C117.75 9.57556 118.144 9.49275 118.454 9.33749C118.744 9.19258 118.972 8.98557 119.075 8.8096H119.086V9.49275H119.769V5.59052C119.769 4.46229 119.003 3.81019 117.761 3.81019C116.912 3.81019 116.281 4.11036 115.763 4.47264L116.105 5.01088C116.581 4.67965 117.15 4.44159 117.75 4.44159C118.62 4.44159 119.075 4.89702 119.075 5.70438V6.22192H117.502C116.208 6.22192 115.535 6.85331 115.535 7.75383V7.98154C115.535 8.96486 116.27 9.57556 117.326 9.57556ZM119.075 7.75383C119.075 8.17821 118.848 8.45768 118.547 8.64399C118.216 8.85101 117.875 8.96486 117.43 8.96486C116.86 8.96486 116.239 8.67504 116.239 7.95049V7.78488C116.239 7.21559 116.622 6.81191 117.512 6.81191H119.075V7.75383ZM120.713 9.49275H121.417V1.66759H120.713V9.49275ZM122.892 6.33577V6.24262C122.892 5.14544 123.472 4.43124 124.455 4.43124C125.428 4.43124 125.997 5.08333 125.997 6.24262V6.33577H122.892ZM126.266 8.40592C125.863 8.69574 125.304 8.95451 124.559 8.95451C123.534 8.95451 122.892 8.25066 122.892 7.01892V6.92577H126.701V6.34612C126.701 4.78316 125.904 3.81019 124.455 3.81019C123.058 3.81019 122.188 4.74176 122.188 6.32542V7.01892C122.188 8.64399 123.068 9.57556 124.548 9.57556C125.49 9.57556 126.132 9.25469 126.577 8.94416L126.266 8.40592Z" fill="#555555"/>
<path d="M301.142 23.833H39V56.8349H301.142V23.833Z" fill="#33B9A5"/>
<path d="M343.807 23.833H301.133V56.8349H343.807V23.833Z" fill="#FFC531"/>
<path d="M282.675 38.0112C282.675 37.1832 283.271 36.6839 284.136 36.6839C285.013 36.6839 285.597 37.1832 285.597 38.0112V38.1452C285.597 39.0098 284.964 39.5334 284.136 39.5334C283.32 39.5334 282.675 39.0098 282.675 38.1452V38.0112ZM282.443 42.0663C282.443 41.0921 283.198 40.5928 284.148 40.5928C285.11 40.5928 285.829 41.1165 285.829 42.0663V42.2002C285.829 43.0283 285.195 43.5885 284.148 43.5885C283.101 43.5885 282.443 43.0283 282.443 42.2002V42.0663ZM281.201 42.2611C281.201 43.6615 282.297 44.6722 284.136 44.6722C285.975 44.6722 287.071 43.6615 287.071 42.2611V42.0541C287.071 41.0921 286.413 40.2884 285.561 40.0327C286.413 39.5943 286.815 38.8393 286.815 38.0965V37.926C286.815 36.6717 285.829 35.6245 284.136 35.6245C282.419 35.6245 281.457 36.6717 281.457 37.926V38.0965C281.457 38.8393 281.871 39.6308 282.711 40.0327C281.871 40.2884 281.201 41.0921 281.201 42.0541V42.2611ZM293.529 36.2212C292.871 35.8193 292.043 35.6245 291.252 35.6245C289.279 35.6245 287.879 36.757 287.879 40.605V41.0556C287.879 43.4058 288.962 44.6722 290.935 44.6722C292.725 44.6722 293.931 43.5276 293.931 41.8471V41.5792C293.931 39.8622 292.725 38.7784 291.167 38.7784C290.192 38.7784 289.364 39.2655 289.072 39.7769C289.157 37.4632 289.985 36.7326 291.179 36.7326C291.873 36.7326 292.518 36.9274 293.066 37.2441L293.529 36.2212ZM289.109 41.5548C289.109 40.5928 289.851 39.85 290.923 39.85C291.995 39.85 292.725 40.4589 292.725 41.6279V41.7862C292.725 42.9309 292.019 43.5763 290.887 43.5763C289.791 43.5763 289.109 42.8578 289.109 41.7253V41.5548Z" fill="white"/>
<path d="M328.253 44.5383V35.7584H327.243L324.418 37.4145L324.99 38.3887L327.048 37.171V44.5383H328.253ZM334.493 38.9367V41.6279H331.521L335.564 35.7584H334.237L330.109 41.7497V42.6508H334.493V44.5383H335.686V42.6508H336.928V41.6279H335.686V38.9367H334.493Z" fill="white"/>
<path d="M307.238 114.283H39V147.285H307.238V114.283Z" fill="#33B9A5"/>
<path d="M343.812 114.283H307.234V147.285H343.812V114.283Z" fill="#FFC531"/>
<path d="M288.768 128.461C288.768 127.633 289.365 127.134 290.23 127.134C291.106 127.134 291.691 127.633 291.691 128.461V128.595C291.691 129.46 291.058 129.984 290.23 129.984C289.414 129.984 288.768 129.46 288.768 128.595V128.461ZM288.537 132.516C288.537 131.542 289.292 131.043 290.242 131.043C291.204 131.043 291.922 131.567 291.922 132.516V132.65C291.922 133.478 291.289 134.039 290.242 134.039C289.195 134.039 288.537 133.478 288.537 132.65V132.516ZM287.295 132.711C287.295 134.112 288.391 135.122 290.23 135.122C292.068 135.122 293.164 134.112 293.164 132.711V132.504C293.164 131.542 292.507 130.739 291.654 130.483C292.507 130.044 292.909 129.289 292.909 128.547V128.376C292.909 127.122 291.922 126.075 290.23 126.075C288.513 126.075 287.551 127.122 287.551 128.376V128.547C287.551 129.289 287.965 130.081 288.805 130.483C287.965 130.739 287.295 131.542 287.295 132.504V132.711ZM295.47 128.461C295.47 127.633 296.067 127.134 296.932 127.134C297.808 127.134 298.393 127.633 298.393 128.461V128.595C298.393 129.46 297.76 129.984 296.932 129.984C296.116 129.984 295.47 129.46 295.47 128.595V128.461ZM295.239 132.516C295.239 131.542 295.994 131.043 296.944 131.043C297.906 131.043 298.624 131.567 298.624 132.516V132.65C298.624 133.478 297.991 134.039 296.944 134.039C295.896 134.039 295.239 133.478 295.239 132.65V132.516ZM293.997 132.711C293.997 134.112 295.093 135.122 296.932 135.122C298.77 135.122 299.866 134.112 299.866 132.711V132.504C299.866 131.542 299.209 130.739 298.356 130.483C299.209 130.044 299.611 129.289 299.611 128.547V128.376C299.611 127.122 298.624 126.075 296.932 126.075C295.215 126.075 294.253 127.122 294.253 128.376V128.547C294.253 129.289 294.667 130.081 295.507 130.483C294.667 130.739 293.997 131.542 293.997 132.504V132.711Z" fill="white"/>
<path d="M328.253 134.988V126.209H327.243L324.418 127.865L324.99 128.839L327.048 127.621V134.988H328.253ZM330.559 133.978V134.988H336.453V133.941H332.045L334.785 131.019C335.576 130.178 336.137 129.35 336.137 128.401V128.279C336.137 127 335.175 126.075 333.397 126.075C331.777 126.075 330.998 127.085 330.584 127.84L331.509 128.437C332.081 127.414 332.776 127.158 333.421 127.158C334.334 127.158 334.931 127.585 334.931 128.279V128.376C334.931 128.839 334.834 129.326 333.835 130.422L330.559 133.978Z" fill="white"/>
<path d="M303.58 69.0586H39V102.06H303.58V69.0586Z" fill="#33B9A5"/>
<path d="M343.814 69.0586H303.578V102.06H343.814V69.0586Z" fill="#FFC531"/>
<path d="M275.964 83.2368C275.964 82.4088 276.56 81.9095 277.425 81.9095C278.302 81.9095 278.886 82.4088 278.886 83.2368V83.3708C278.886 84.2354 278.253 84.759 277.425 84.759C276.609 84.759 275.964 84.2354 275.964 83.3708V83.2368ZM275.732 87.2919C275.732 86.3177 276.487 85.8184 277.437 85.8184C278.399 85.8184 279.118 86.342 279.118 87.2919V87.4258C279.118 88.2539 278.484 88.814 277.437 88.814C276.39 88.814 275.732 88.2539 275.732 87.4258V87.2919ZM274.49 87.4867C274.49 88.8871 275.586 89.8978 277.425 89.8978C279.264 89.8978 280.36 88.8871 280.36 87.4867V87.2797C280.36 86.3177 279.702 85.514 278.85 85.2583C279.702 84.8199 280.104 84.0649 280.104 83.3221V83.1516C280.104 81.8973 279.118 80.8501 277.425 80.8501C275.708 80.8501 274.746 81.8973 274.746 83.1516V83.3221C274.746 84.0649 275.16 84.8564 276 85.2583C275.16 85.514 274.49 86.3177 274.49 87.2797V87.4867ZM286.818 81.4467C286.16 81.0449 285.332 80.8501 284.541 80.8501C282.568 80.8501 281.168 81.9825 281.168 85.8306V86.2812C281.168 88.6314 282.252 89.8978 284.224 89.8978C286.014 89.8978 287.22 88.7532 287.22 87.0727V86.8048C287.22 85.0878 286.014 84.004 284.456 84.004C283.481 84.004 282.653 84.4911 282.361 85.0025C282.446 82.6888 283.274 81.9582 284.468 81.9582C285.162 81.9582 285.807 82.153 286.355 82.4696L286.818 81.4467ZM282.398 86.7804C282.398 85.8184 283.14 85.0756 284.212 85.0756C285.284 85.0756 286.014 85.6845 286.014 86.8535V87.0118C286.014 88.1565 285.308 88.8019 284.176 88.8019C283.08 88.8019 282.398 88.0834 282.398 86.9509V86.7804ZM288.211 90.2631H289.599V88.8628H288.211V90.2631ZM292.216 83.2368C292.216 82.4088 292.813 81.9095 293.678 81.9095C294.554 81.9095 295.139 82.4088 295.139 83.2368V83.3708C295.139 84.2354 294.506 84.759 293.678 84.759C292.862 84.759 292.216 84.2354 292.216 83.3708V83.2368ZM291.985 87.2919C291.985 86.3177 292.74 85.8184 293.69 85.8184C294.652 85.8184 295.37 86.342 295.37 87.2919V87.4258C295.37 88.2539 294.737 88.814 293.69 88.814C292.642 88.814 291.985 88.2539 291.985 87.4258V87.2919ZM290.743 87.4867C290.743 88.8871 291.839 89.8978 293.678 89.8978C295.516 89.8978 296.612 88.8871 296.612 87.4867V87.2797C296.612 86.3177 295.955 85.514 295.102 85.2583C295.955 84.8199 296.357 84.0649 296.357 83.3221V83.1516C296.357 81.8973 295.37 80.8501 293.678 80.8501C291.961 80.8501 290.998 81.8973 290.998 83.1516V83.3221C290.998 84.0649 291.413 84.8564 292.253 85.2583C291.413 85.514 290.743 86.3177 290.743 87.2797V87.4867Z" fill="white"/>
<path d="M319.121 89.7639V80.984H318.11L315.285 82.6401L315.857 83.6143L317.915 82.3966V89.7639H319.121ZM322.425 82.7984C322.9 82.1774 323.411 81.9217 324.13 81.9217C324.921 81.9217 325.579 82.3113 325.579 83.0785V83.1759C325.579 83.9309 325.201 84.6616 324.106 84.6616H323.07V85.7088H324.154C325.177 85.7088 325.969 86.0498 325.969 87.2066V87.3649C325.969 88.1565 325.384 88.8019 324.106 88.8019C323.351 88.8019 322.742 88.5827 321.889 87.9616L321.293 88.9236C322.121 89.5812 323.083 89.8978 324.106 89.8978C326.261 89.8978 327.174 88.6436 327.174 87.3528V87.1701C327.174 86.1594 326.578 85.3557 325.396 85.1487C326.48 84.759 326.772 83.8579 326.772 83.1638V83.042C326.772 81.7268 325.737 80.8501 324.118 80.8501C322.803 80.8501 322.072 81.4346 321.56 82.1652L322.425 82.7984ZM328.445 90.2631H329.833V88.8628H328.445V90.2631ZM330.977 88.7532V89.7639H336.871V88.7166H332.463L335.203 85.7941C335.994 84.9538 336.554 84.1258 336.554 83.1759V83.0542C336.554 81.7755 335.592 80.8501 333.814 80.8501C332.195 80.8501 331.416 81.8608 331.001 82.6158L331.927 83.2125C332.499 82.1896 333.193 81.9338 333.839 81.9338C334.752 81.9338 335.349 82.36 335.349 83.0542V83.1516C335.349 83.6143 335.251 84.1014 334.253 85.1974L330.977 88.7532Z" fill="white"/>
<path d="M0.937656 134.256V134.987H6.51488V134.207H2.00926L4.73699 131.005C5.49199 130.128 6.19827 129.336 6.19827 128.386V128.265C6.19827 126.949 5.19973 126.073 3.64103 126.073C2.17975 126.073 1.36386 126.998 0.949833 127.753L1.63177 128.179C2.2041 127.156 2.89821 126.852 3.66538 126.852C4.72481 126.852 5.33368 127.4 5.33368 128.277V128.374C5.33368 128.837 5.17537 129.288 4.21336 130.42L0.937656 134.256ZM13.2077 129.909C13.2077 127.449 12.2822 126.073 10.212 126.073C8.16625 126.073 7.24077 127.449 7.24077 129.909V131.272C7.24077 133.732 8.12971 135.12 10.212 135.12C12.3187 135.12 13.2077 133.757 13.2077 131.272V129.909ZM12.3309 131.285C12.3309 133.477 11.6124 134.353 10.212 134.353C8.86036 134.353 8.11754 133.464 8.11754 131.285V129.896C8.11754 127.741 8.86036 126.84 10.212 126.84C11.6124 126.84 12.3309 127.729 12.3309 129.896V131.285ZM14.0797 134.256V134.987H19.6569V134.207H15.1513L17.879 131.005C18.634 130.128 19.3403 129.336 19.3403 128.386V128.265C19.3403 126.949 18.3418 126.073 16.7831 126.073C15.3218 126.073 14.5059 126.998 14.0919 127.753L14.7738 128.179C15.3461 127.156 16.0402 126.852 16.8074 126.852C17.8668 126.852 18.4757 127.4 18.4757 128.277V128.374C18.4757 128.837 18.3174 129.288 17.3554 130.42L14.0797 134.256ZM26.3497 129.909C26.3497 127.449 25.4242 126.073 23.3541 126.073C21.3083 126.073 20.3828 127.449 20.3828 129.909V131.272C20.3828 133.732 21.2717 135.12 23.3541 135.12C25.4607 135.12 26.3497 133.757 26.3497 131.272V129.909ZM25.4729 131.285C25.4729 133.477 24.7545 134.353 23.3541 134.353C22.0024 134.353 21.2596 133.464 21.2596 131.285V129.896C21.2596 127.741 22.0024 126.84 23.3541 126.84C24.7545 126.84 25.4729 127.729 25.4729 129.896V131.285Z" fill="#222222"/>
<path d="M0.937656 89.0332V89.7639H6.51488V88.9845H2.00926L4.73699 85.7819C5.49199 84.9051 6.19827 84.1136 6.19827 83.1638V83.042C6.19827 81.7268 5.19973 80.8501 3.64103 80.8501C2.17975 80.8501 1.36386 81.7755 0.949833 82.5305L1.63177 82.9567C2.2041 81.9338 2.89821 81.6294 3.66538 81.6294C4.72481 81.6294 5.33368 82.1774 5.33368 83.0542V83.1516C5.33368 83.6143 5.17537 84.0649 4.21336 85.1974L0.937656 89.0332ZM13.2077 84.6859C13.2077 82.2261 12.2822 80.8501 10.212 80.8501C8.16625 80.8501 7.24077 82.2261 7.24077 84.6859V86.0498C7.24077 88.5096 8.12971 89.8978 10.212 89.8978C12.3187 89.8978 13.2077 88.534 13.2077 86.0498V84.6859ZM12.3309 86.062C12.3309 88.2539 11.6124 89.1307 10.212 89.1307C8.86036 89.1307 8.11754 88.2417 8.11754 86.062V84.6737C8.11754 82.5184 8.86036 81.6172 10.212 81.6172C11.6124 81.6172 12.3309 82.5062 12.3309 84.6737V86.062ZM14.0797 89.0332V89.7639H19.6569V88.9845H15.1513L17.879 85.7819C18.634 84.9051 19.3403 84.1136 19.3403 83.1638V83.042C19.3403 81.7268 18.3418 80.8501 16.7831 80.8501C15.3218 80.8501 14.5059 81.7755 14.0919 82.5305L14.7738 82.9567C15.3461 81.9338 16.0402 81.6294 16.8074 81.6294C17.8668 81.6294 18.4757 82.1774 18.4757 83.0542V83.1516C18.4757 83.6143 18.3174 84.0649 17.3554 85.1974L14.0797 89.0332ZM24.3526 89.7639V80.984H23.7072L20.9917 82.6645L21.3813 83.3464L23.5002 82.0556V89.7639H24.3526Z" fill="#222222"/>
<path d="M0.937656 43.8096V44.5402H6.51488V43.7609H2.00926L4.73699 40.5582C5.49199 39.6815 6.19827 38.89 6.19827 37.9401V37.8183C6.19827 36.5032 5.19973 35.6264 3.64103 35.6264C2.17975 35.6264 1.36386 36.5519 0.949833 37.3069L1.63177 37.7331C2.2041 36.7102 2.89821 36.4058 3.66538 36.4058C4.72481 36.4058 5.33368 36.9538 5.33368 37.8305V37.9279C5.33368 38.3907 5.17537 38.8412 4.21336 39.9737L0.937656 43.8096ZM13.2077 39.4623C13.2077 37.0025 12.2822 35.6264 10.212 35.6264C8.16625 35.6264 7.24077 37.0025 7.24077 39.4623V40.8262C7.24077 43.286 8.12971 44.6742 10.212 44.6742C12.3187 44.6742 13.2077 43.3103 13.2077 40.8262V39.4623ZM12.3309 40.8383C12.3309 43.0303 11.6124 43.907 10.212 43.907C8.86036 43.907 8.11754 43.0181 8.11754 40.8383V39.4501C8.11754 37.2947 8.86036 36.3936 10.212 36.3936C11.6124 36.3936 12.3309 37.2825 12.3309 39.4501V40.8383ZM14.0797 43.8096V44.5402H19.6569V43.7609H15.1513L17.879 40.5582C18.634 39.6815 19.3403 38.89 19.3403 37.9401V37.8183C19.3403 36.5032 18.3418 35.6264 16.7831 35.6264C15.3218 35.6264 14.5059 36.5519 14.0919 37.3069L14.7738 37.7331C15.3461 36.7102 16.0402 36.4058 16.8074 36.4058C17.8668 36.4058 18.4757 36.9538 18.4757 37.8305V37.9279C18.4757 38.3907 18.3174 38.8412 17.3554 39.9737L14.0797 43.8096ZM20.6507 43.8096V44.5402H26.2279V43.7609H21.7223L24.45 40.5582C25.205 39.6815 25.9113 38.89 25.9113 37.9401V37.8183C25.9113 36.5032 24.9128 35.6264 23.3541 35.6264C21.8928 35.6264 21.0769 36.5519 20.6629 37.3069L21.3448 37.7331C21.9171 36.7102 22.6112 36.4058 23.3784 36.4058C24.4378 36.4058 25.0467 36.9538 25.0467 37.8305V37.9279C25.0467 38.3907 24.8884 38.8412 23.9264 39.9737L20.6507 43.8096Z" fill="#222222"/>
<path d="M317.452 4.0409C317.452 2.57962 317.808 1.20967 318.703 0.00411119H318.119C317.215 1.08181 316.776 2.46089 316.776 4.08657V4.45189C316.776 6.07757 317.215 7.47492 318.119 8.55261H318.703C317.763 7.26486 317.452 5.88577 317.452 4.49755V4.0409ZM320.799 7.31052C321.576 7.31052 322.087 6.92694 322.315 6.55248V7.23746H322.927V2.31476H322.306V5.51132C322.306 6.0867 321.722 6.74428 320.891 6.74428C319.913 6.74428 319.703 6.15976 319.703 5.45652V2.31476H319.082V5.61178C319.082 6.63468 319.676 7.31052 320.799 7.31052ZM325.97 2.22343C325.193 2.22343 324.691 2.62529 324.463 2.99974V2.31476H323.851V7.23746H324.472V4.0409C324.472 3.46552 325.047 2.78968 325.878 2.78968C326.856 2.78968 327.12 3.37419 327.12 4.07744V7.23746H327.741V3.92217C327.741 2.89928 327.093 2.22343 325.97 2.22343ZM328.646 7.23746H329.267V2.31476H328.646V7.23746ZM328.619 1.37406H329.294V0.679954H328.619V1.37406ZM330.595 5.86751C330.595 6.93607 331.006 7.28312 331.864 7.28312C332.129 7.28312 332.504 7.23746 332.695 7.16439L332.604 6.65295C332.376 6.71688 332.156 6.74428 331.91 6.74428C331.417 6.74428 331.216 6.50682 331.216 5.84011V2.84448H332.577V2.31476H331.216V1.04527H330.595V2.31476H329.754V2.84448H330.595V5.86751ZM333.405 6.77167H334.327V5.85837H333.405V6.77167ZM333.405 2.73488H334.327V1.82158H333.405V2.73488ZM337 7.22833L340.928 0.652555H340.352L336.416 7.22833H337ZM340.59 3.86738C339.704 3.86738 339.174 4.42449 339.174 5.38346V5.79444C339.174 6.75341 339.704 7.31052 340.59 7.31052C341.476 7.31052 342.005 6.75341 342.005 5.79444V5.38346C342.005 4.42449 341.476 3.86738 340.59 3.86738ZM340.59 6.84474C340.06 6.84474 339.704 6.54335 339.704 5.77618V5.40172C339.704 4.64368 340.06 4.33316 340.59 4.33316C341.119 4.33316 341.476 4.64368 341.476 5.40172V5.77618C341.476 6.54335 341.119 6.84474 340.59 6.84474ZM336.763 0.579491C335.877 0.579491 335.347 1.13661 335.347 2.09557V2.50656C335.347 3.46552 335.877 4.02264 336.763 4.02264C337.649 4.02264 338.179 3.46552 338.179 2.50656V2.09557C338.179 1.13661 337.649 0.579491 336.763 0.579491ZM336.763 3.55685C336.233 3.55685 335.877 3.25546 335.877 2.48829V2.11384C335.877 1.3558 336.233 1.04527 336.763 1.04527C337.293 1.04527 337.649 1.3558 337.649 2.11384V2.48829C337.649 3.25546 337.293 3.55685 336.763 3.55685ZM343.578 4.49755C343.578 5.88577 343.267 7.26486 342.326 8.55261H342.911C343.815 7.47492 344.253 6.07757 344.253 4.45189V4.08657C344.253 2.46089 343.815 1.08181 342.911 0.00411119H342.326C343.221 1.20967 343.578 2.57962 343.578 4.0409V4.49755Z" fill="#555555"/>
<path d="M76.3816 194.312V186.68H79.0216V185.66H72.5536V186.68H75.1936V194.312H76.3816ZM82.7595 187.76C82.4955 187.676 82.2075 187.628 81.9075 187.628C80.9475 187.628 80.3595 188.06 79.9755 188.792H79.9635V187.748H78.8355V194.312H79.9995V190.484C79.9995 189.452 80.7435 188.732 81.6075 188.732C81.9195 188.732 82.1835 188.792 82.4115 188.888L82.7595 187.76ZM85.6034 188.624C86.5994 188.624 87.2234 189.272 87.2234 190.28V190.496H83.9354V190.328C83.9354 189.32 84.6314 188.624 85.6034 188.624ZM87.7034 192.812C87.1394 193.172 86.5634 193.4 85.7114 193.4C84.6674 193.4 83.9354 192.728 83.9354 191.492V191.444H88.3514V190.568C88.3514 188.696 87.2834 187.628 85.6034 187.628C83.9834 187.628 82.7834 188.648 82.7834 190.64V191.384C82.7834 193.508 84.0434 194.408 85.6634 194.408C86.8514 194.408 87.6194 194.084 88.1954 193.688L87.7034 192.812ZM94.4793 189.968C94.4793 188.384 93.4473 187.628 92.1753 187.628C91.2753 187.628 90.6033 187.964 90.2073 188.576H90.1953V187.748H89.0673V194.312H90.2313V190.244C90.2313 189.212 91.0953 188.66 91.8873 188.66C92.8593 188.66 93.3153 189.128 93.3153 190.232V194.312H94.4793V189.968ZM99.6949 193.496V194.312H100.811V185.24H99.6469V188.432C99.3829 188.048 98.8069 187.628 97.8109 187.628C96.2749 187.628 95.2069 188.672 95.2069 190.448V191.612C95.2069 193.388 96.1069 194.408 97.7629 194.408C98.5789 194.408 99.3109 194.156 99.6709 193.496H99.6949ZM99.6589 191.732C99.6589 192.752 98.8789 193.388 97.9309 193.388C96.9589 193.388 96.3589 192.668 96.3589 191.42V190.616C96.3589 189.38 96.9469 188.648 97.9309 188.648C98.9389 188.648 99.6589 189.356 99.6589 190.04V191.732ZM103.999 193.4C103.207 193.4 102.535 193.1 101.947 192.704L101.407 193.616C102.031 194.096 102.955 194.408 104.047 194.408C105.571 194.408 106.543 193.604 106.543 192.572V192.416C106.543 191.204 105.787 190.724 104.191 190.424C103.171 190.232 102.775 190.04 102.775 189.524V189.416C102.775 188.96 103.171 188.624 104.143 188.624C104.803 188.624 105.439 188.828 105.871 189.152L106.387 188.276C105.739 187.82 104.947 187.628 104.059 187.628C102.355 187.628 101.611 188.492 101.611 189.404V189.548C101.611 190.7 102.415 191.168 103.867 191.468C105.103 191.72 105.367 191.9 105.367 192.452V192.548C105.367 193.076 104.863 193.4 103.999 193.4ZM109.532 187.748V194.312H110.696V187.748H109.532ZM109.496 185.396V186.668H110.732V185.396H109.496ZM117.293 189.968C117.293 188.384 116.261 187.628 114.989 187.628C114.089 187.628 113.417 187.964 113.021 188.576H113.009V187.748H111.881V194.312H113.045V190.244C113.045 189.212 113.909 188.66 114.701 188.66C115.673 188.66 116.129 189.128 116.129 190.232V194.312H117.293V189.968ZM125.905 187.748H124.741V188.432C124.477 188.048 123.901 187.628 122.905 187.628C121.369 187.628 120.301 188.672 120.301 190.448V191.492C120.301 193.268 121.201 194.288 122.857 194.288C123.649 194.288 124.369 194.048 124.741 193.424V194.228C124.741 195.392 124.141 195.932 123.013 195.932C122.365 195.932 121.753 195.704 121.321 195.38L120.793 196.292C121.333 196.712 122.089 196.988 122.977 196.988C124.909 196.988 125.905 196.064 125.905 194.228V187.748ZM124.753 191.612C124.753 192.632 123.973 193.268 123.025 193.268C122.053 193.268 121.453 192.548 121.453 191.3V190.616C121.453 189.38 122.041 188.648 123.025 188.648C124.033 188.648 124.753 189.356 124.753 190.04V191.612ZM129.537 188.624C130.533 188.624 131.157 189.272 131.157 190.28V190.496H127.869V190.328C127.869 189.32 128.565 188.624 129.537 188.624ZM131.637 192.812C131.073 193.172 130.497 193.4 129.645 193.4C128.601 193.4 127.869 192.728 127.869 191.492V191.444H132.285V190.568C132.285 188.696 131.217 187.628 129.537 187.628C127.917 187.628 126.717 188.648 126.717 190.64V191.384C126.717 193.508 127.977 194.408 129.597 194.408C130.785 194.408 131.553 194.084 132.129 193.688L131.637 192.812ZM138.413 189.968C138.413 188.384 137.381 187.628 136.109 187.628C135.209 187.628 134.537 187.964 134.141 188.576H134.129V187.748H133.001V194.312H134.165V190.244C134.165 189.212 135.029 188.66 135.821 188.66C136.793 188.66 137.249 189.128 137.249 190.232V194.312H138.413V189.968ZM143.629 193.496V194.312H144.745V185.24H143.581V188.432C143.317 188.048 142.741 187.628 141.745 187.628C140.209 187.628 139.141 188.672 139.141 190.448V191.612C139.141 193.388 140.041 194.408 141.697 194.408C142.513 194.408 143.245 194.156 143.605 193.496H143.629ZM143.593 191.732C143.593 192.752 142.813 193.388 141.865 193.388C140.893 193.388 140.293 192.668 140.293 191.42V190.616C140.293 189.38 140.881 188.648 141.865 188.648C142.873 188.648 143.593 189.356 143.593 190.04V191.732ZM148.377 188.624C149.373 188.624 149.997 189.272 149.997 190.28V190.496H146.709V190.328C146.709 189.32 147.405 188.624 148.377 188.624ZM150.477 192.812C149.913 193.172 149.337 193.4 148.485 193.4C147.441 193.4 146.709 192.728 146.709 191.492V191.444H151.125V190.568C151.125 188.696 150.057 187.628 148.377 187.628C146.757 187.628 145.557 188.648 145.557 190.64V191.384C145.557 193.508 146.817 194.408 148.437 194.408C149.625 194.408 150.393 194.084 150.969 193.688L150.477 192.812ZM155.765 187.76C155.501 187.676 155.213 187.628 154.913 187.628C153.953 187.628 153.365 188.06 152.981 188.792H152.969V187.748H151.841V194.312H153.005V190.484C153.005 189.452 153.749 188.732 154.613 188.732C154.925 188.732 155.189 188.792 155.417 188.888L155.765 187.76ZM162.329 187.76C162.065 187.676 161.777 187.628 161.477 187.628C160.517 187.628 159.929 188.06 159.545 188.792H159.533V187.748H158.405V194.312H159.569V190.484C159.569 189.452 160.313 188.732 161.177 188.732C161.489 188.732 161.753 188.792 161.981 188.888L162.329 187.76ZM164.513 194.408C165.089 194.408 165.473 194.3 165.821 194.108C166.073 193.964 166.313 193.76 166.433 193.52H166.445V194.312H167.561V189.716C167.561 188.396 166.529 187.628 165.065 187.628C164.009 187.628 163.229 188.012 162.593 188.456L163.169 189.32C163.781 188.924 164.285 188.66 165.053 188.66C166.013 188.66 166.409 189.08 166.409 189.956V190.34H164.741C163.061 190.34 162.353 191.12 162.353 192.236V192.56C162.353 193.712 163.193 194.408 164.513 194.408ZM166.409 191.972C166.409 192.464 166.277 192.752 165.965 192.992C165.617 193.268 165.209 193.4 164.633 193.4C164.009 193.4 163.493 193.124 163.493 192.488V192.32C163.493 191.696 163.853 191.324 164.765 191.324H166.409V191.972ZM169.069 192.476C169.069 193.796 169.645 194.408 170.893 194.408C171.361 194.408 171.853 194.3 172.117 194.192L171.937 193.256C171.637 193.364 171.361 193.412 171.073 193.412C170.581 193.412 170.233 193.28 170.233 192.476V188.744H171.961V187.748H170.233V186.092H169.069V187.748H167.989V188.744H169.069V192.476ZM172.641 187.748V194.312H173.805V187.748H172.641ZM172.605 185.396V186.668H173.841V185.396H172.605ZM177.582 187.628C175.782 187.628 174.654 188.708 174.654 190.616V191.42C174.654 193.316 175.782 194.408 177.582 194.408C179.382 194.408 180.51 193.316 180.51 191.42V190.616C180.51 188.72 179.382 187.628 177.582 187.628ZM177.582 193.388C176.538 193.388 175.83 192.716 175.83 191.324V190.712C175.83 189.32 176.538 188.648 177.582 188.648C178.626 188.648 179.334 189.32 179.334 190.712V191.324C179.334 192.716 178.626 193.388 177.582 193.388ZM186.197 187.628C184.397 187.628 183.269 188.708 183.269 190.616V191.42C183.269 193.316 184.397 194.408 186.197 194.408C187.997 194.408 189.125 193.316 189.125 191.42V190.616C189.125 188.72 187.997 187.628 186.197 187.628ZM186.197 193.388C185.153 193.388 184.445 192.716 184.445 191.324V190.712C184.445 189.32 185.153 188.648 186.197 188.648C187.241 188.648 187.949 189.32 187.949 190.712V191.324C187.949 192.716 187.241 193.388 186.197 193.388ZM190.348 194.312H191.512V188.744H193.24V187.748H191.512V187.148C191.512 186.296 191.92 186.164 192.364 186.164C192.652 186.164 192.952 186.2 193.252 186.284L193.432 185.336C193.168 185.24 192.676 185.168 192.256 185.168C191.008 185.168 190.348 185.78 190.348 187.1V187.748H189.268V188.744H190.348V194.312ZM201.412 189.968C201.412 188.384 200.38 187.628 199.108 187.628C198.208 187.628 197.536 187.964 197.14 188.576H197.128V187.748H196V194.312H197.164V190.244C197.164 189.212 198.028 188.66 198.82 188.66C199.792 188.66 200.248 189.128 200.248 190.232V194.312H201.412V189.968ZM204.947 188.624C205.943 188.624 206.567 189.272 206.567 190.28V190.496H203.279V190.328C203.279 189.32 203.975 188.624 204.947 188.624ZM207.047 192.812C206.483 193.172 205.907 193.4 205.055 193.4C204.011 193.4 203.279 192.728 203.279 191.492V191.444H207.695V190.568C207.695 188.696 206.627 187.628 204.947 187.628C203.327 187.628 202.127 188.648 202.127 190.64V191.384C202.127 193.508 203.387 194.408 205.007 194.408C206.195 194.408 206.963 194.084 207.539 193.688L207.047 192.812ZM212.083 189.2L213.415 194.312H214.783L216.463 187.748H215.311L214.087 193.1H214.063L212.683 187.748H211.507L210.115 193.1H210.091L208.891 187.748H207.667L209.371 194.312H210.739L212.059 189.2H212.083ZM221.631 188.624C222.627 188.624 223.251 189.272 223.251 190.28V190.496H219.963V190.328C219.963 189.32 220.659 188.624 221.631 188.624ZM223.731 192.812C223.167 193.172 222.591 193.4 221.739 193.4C220.695 193.4 219.963 192.728 219.963 191.492V191.444H224.379V190.568C224.379 188.696 223.311 187.628 221.631 187.628C220.011 187.628 218.811 188.648 218.811 190.64V191.384C218.811 193.508 220.071 194.408 221.691 194.408C222.879 194.408 223.647 194.084 224.223 193.688L223.731 192.812ZM234.107 190.004C234.107 188.492 233.279 187.628 231.935 187.628C230.903 187.628 230.315 188.084 229.895 188.72C229.559 188.024 228.887 187.628 228.011 187.628C227.099 187.628 226.511 188.06 226.259 188.636H226.247V187.748H225.095V194.312H226.259V190.16C226.259 189.128 227.063 188.684 227.783 188.684C228.611 188.684 229.019 189.236 229.019 190.376V194.312H230.183V190.22C230.183 189.152 230.975 188.684 231.707 188.684C232.535 188.684 232.943 189.236 232.943 190.376V194.312H234.107V190.004ZM236.296 187.748H235.168V196.88H236.332V193.592C236.596 193.976 237.172 194.408 238.144 194.408C239.716 194.408 240.772 193.4 240.772 191.588V190.424C240.772 188.696 239.872 187.628 238.216 187.628C237.436 187.628 236.68 187.892 236.296 188.564V187.748ZM236.32 190.316C236.32 189.296 237.1 188.648 238.048 188.648C239.02 188.648 239.62 189.368 239.62 190.616V191.42C239.62 192.656 239.032 193.388 238.048 193.388C237.04 193.388 236.32 192.656 236.32 191.972V190.316ZM241.596 185.24V194.312H242.76V185.24H241.596ZM246.503 187.628C244.703 187.628 243.575 188.708 243.575 190.616V191.42C243.575 193.316 244.703 194.408 246.503 194.408C248.303 194.408 249.431 193.316 249.431 191.42V190.616C249.431 188.72 248.303 187.628 246.503 187.628ZM246.503 193.388C245.459 193.388 244.751 192.716 244.751 191.324V190.712C244.751 189.32 245.459 188.648 246.503 188.648C247.547 188.648 248.255 189.32 248.255 190.712V191.324C248.255 192.716 247.547 193.388 246.503 193.388ZM252.43 192.992L250.69 187.748H249.43L251.818 194.408L250.966 196.652L252.022 197.024L255.43 187.748H254.206L252.478 192.992H252.43ZM258.186 188.624C259.182 188.624 259.806 189.272 259.806 190.28V190.496H256.518V190.328C256.518 189.32 257.214 188.624 258.186 188.624ZM260.286 192.812C259.722 193.172 259.146 193.4 258.294 193.4C257.25 193.4 256.518 192.728 256.518 191.492V191.444H260.934V190.568C260.934 188.696 259.866 187.628 258.186 187.628C256.566 187.628 255.366 188.648 255.366 190.64V191.384C255.366 193.508 256.626 194.408 258.246 194.408C259.434 194.408 260.202 194.084 260.778 193.688L260.286 192.812ZM264.134 188.624C265.13 188.624 265.754 189.272 265.754 190.28V190.496H262.466V190.328C262.466 189.32 263.162 188.624 264.134 188.624ZM266.234 192.812C265.67 193.172 265.094 193.4 264.242 193.4C263.198 193.4 262.466 192.728 262.466 191.492V191.444H266.882V190.568C266.882 188.696 265.814 187.628 264.134 187.628C262.514 187.628 261.314 188.648 261.314 190.64V191.384C261.314 193.508 262.574 194.408 264.194 194.408C265.382 194.408 266.15 194.084 266.726 193.688L266.234 192.812ZM269.638 193.4C268.846 193.4 268.174 193.1 267.586 192.704L267.046 193.616C267.67 194.096 268.594 194.408 269.686 194.408C271.21 194.408 272.182 193.604 272.182 192.572V192.416C272.182 191.204 271.426 190.724 269.83 190.424C268.81 190.232 268.414 190.04 268.414 189.524V189.416C268.414 188.96 268.81 188.624 269.782 188.624C270.442 188.624 271.078 188.828 271.51 189.152L272.026 188.276C271.378 187.82 270.586 187.628 269.698 187.628C267.994 187.628 267.25 188.492 267.25 189.404V189.548C267.25 190.7 268.054 191.168 269.506 191.468C270.742 191.72 271.006 191.9 271.006 192.452V192.548C271.006 193.076 270.502 193.4 269.638 193.4Z" fill="#222222"/>
<path d="M40.8866 162.026L40.8226 163.415H41.4254L41.3615 162.026L42.5305 162.784L42.8045 162.264L41.5076 161.634L42.8045 161.013L42.5305 160.492L41.3615 161.25L41.4254 159.853H40.8226L40.8774 161.25L39.7175 160.492L39.4344 161.013L40.7313 161.634L39.4344 162.264L39.7175 162.784L40.8866 162.026ZM45.8274 160.063C44.1926 160.063 43.261 161.204 43.261 163.004V163.908C43.261 165.707 44.2017 166.849 45.8274 166.849C47.4531 166.849 48.3938 165.707 48.3938 163.908V163.004C48.3938 161.204 47.4531 160.063 45.8274 160.063ZM45.8274 166.273C44.6584 166.273 43.9095 165.424 43.9095 163.853V163.058C43.9095 161.488 44.6584 160.638 45.8274 160.638C46.9964 160.638 47.7453 161.488 47.7453 163.058V163.853C47.7453 165.424 46.9964 166.273 45.8274 166.273ZM49.7946 166.164C50.0595 166.511 50.5709 166.821 51.265 166.821C52.3884 166.821 53.2195 166.054 53.2195 164.712V163.844C53.2195 162.501 52.4341 161.734 51.265 161.734C50.6531 161.734 50.0869 162.026 49.7946 162.52V159.844H49.1736V166.748H49.7855V166.164H49.7946ZM52.5984 164.62C52.5984 165.661 52.0596 166.273 51.2285 166.273C50.3883 166.273 49.7946 165.689 49.7946 165.113V163.67C49.7946 162.803 50.5527 162.3 51.2285 162.3C52.0687 162.3 52.5984 162.885 52.5984 163.935V164.62ZM53.9967 160.885H54.6726V160.191H53.9967V160.885ZM54.6452 161.826H54.0241V167.324C54.0241 167.99 53.8232 168.246 53.33 168.246C53.0834 168.246 52.8642 168.219 52.6359 168.155L52.5446 168.666C52.7364 168.739 53.1108 168.785 53.3757 168.785C54.1977 168.785 54.6452 168.42 54.6452 167.351V161.826ZM55.9801 163.963V163.88C55.9801 162.912 56.4915 162.282 57.3592 162.282C58.2177 162.282 58.72 162.858 58.72 163.88V163.963H55.9801ZM58.9575 165.789C58.6013 166.045 58.1081 166.273 57.4505 166.273C56.5463 166.273 55.9801 165.652 55.9801 164.565V164.483H59.341V163.972C59.341 162.593 58.6378 161.734 57.3592 161.734C56.1262 161.734 55.359 162.556 55.359 163.953V164.565C55.359 165.999 56.1354 166.821 57.4414 166.821C58.2725 166.821 58.8387 166.538 59.2314 166.264L58.9575 165.789ZM61.7799 161.734C60.5744 161.734 59.7432 162.52 59.7432 163.953V164.565C59.7432 165.999 60.5104 166.821 61.789 166.821C62.6749 166.821 63.1773 166.538 63.5334 166.264L63.2412 165.771C62.885 166.036 62.4832 166.255 61.7982 166.255C60.9214 166.255 60.3734 165.643 60.3734 164.565V163.935C60.3734 162.912 60.9123 162.291 61.7799 162.291C62.2457 162.291 62.6567 162.383 63.1133 162.702L63.3965 162.218C62.9855 161.908 62.474 161.734 61.7799 161.734ZM64.3202 165.378C64.3202 166.447 64.7312 166.794 65.5897 166.794C65.8545 166.794 66.229 166.748 66.4208 166.675L66.3294 166.164C66.1011 166.228 65.8819 166.255 65.6353 166.255C65.1421 166.255 64.9412 166.018 64.9412 165.351V162.355H66.302V161.826H64.9412V160.556H64.3202V161.826H63.4799V162.355H64.3202V165.378ZM66.9568 166.748H67.5779V161.826H66.9568V166.748ZM66.9294 160.885H67.6053V160.191H66.9294V160.885ZM70.4399 166.748L72.2117 161.826H71.5633L70.102 166.109L68.6133 161.826H67.9466L69.7458 166.748H70.4399ZM72.8976 163.963V163.88C72.8976 162.912 73.409 162.282 74.2767 162.282C75.1352 162.282 75.6375 162.858 75.6375 163.88V163.963H72.8976ZM75.8749 165.789C75.5187 166.045 75.0256 166.273 74.368 166.273C73.4638 166.273 72.8976 165.652 72.8976 164.565V164.483H76.2585V163.972C76.2585 162.593 75.5553 161.734 74.2767 161.734C73.0437 161.734 72.2765 162.556 72.2765 163.953V164.565C72.2765 165.999 73.0528 166.821 74.3589 166.821C75.19 166.821 75.7562 166.538 76.1489 166.264L75.8749 165.789ZM77.1346 166.282H78.057V165.369H77.1346V166.282ZM77.1346 162.246H78.057V161.332H77.1346V162.246ZM80.9311 166.748H81.5704V160.163H80.9311V166.748ZM87.4916 161.734C86.7061 161.734 86.2129 162.209 85.9937 162.629C85.7745 162.063 85.2905 161.734 84.5051 161.734C83.7836 161.734 83.3452 162.118 83.126 162.51V161.826H82.5141V166.748H83.1351V163.552C83.1351 162.976 83.5826 162.3 84.3955 162.3C85.2814 162.3 85.5006 162.803 85.5006 163.597V166.748H86.1216V163.515C86.1399 162.949 86.5874 162.3 87.382 162.3C88.2679 162.3 88.4871 162.803 88.4871 163.597V166.748H89.1081V163.433C89.1081 162.392 88.6058 161.734 87.4916 161.734ZM90.6144 166.164C90.8793 166.511 91.3816 166.821 92.0757 166.821C93.199 166.821 94.0302 166.054 94.0302 164.712V163.844C94.0302 162.501 93.2447 161.734 92.0757 161.734C91.4638 161.734 90.8884 162.026 90.5961 162.52V161.826H89.9842V168.703H90.6053V166.164H90.6144ZM93.4091 164.62C93.4091 165.661 92.8703 166.273 92.0392 166.273C91.1989 166.273 90.6053 165.689 90.6053 165.113V163.67C90.6053 162.803 91.3633 162.3 92.0392 162.3C92.8794 162.3 93.4091 162.885 93.4091 163.935V164.62ZM97.456 161.835C97.255 161.762 97.0267 161.734 96.7527 161.734C96.0038 161.734 95.5472 162.218 95.3371 162.693V161.826H94.7252V166.748H95.3462V163.953C95.3462 163.031 95.8577 162.364 96.6705 162.364C96.908 162.364 97.0998 162.401 97.2642 162.465L97.456 161.835ZM99.6079 161.734C98.2928 161.734 97.5165 162.547 97.5165 163.972V164.584C97.5165 165.999 98.2928 166.821 99.6079 166.821C100.923 166.821 101.699 165.999 101.699 164.584V163.972C101.699 162.556 100.923 161.734 99.6079 161.734ZM99.6079 166.273C98.7038 166.273 98.1466 165.707 98.1466 164.547V164.008C98.1466 162.848 98.7038 162.282 99.6079 162.282C100.512 162.282 101.069 162.848 101.069 164.008V164.547C101.069 165.707 100.512 166.273 99.6079 166.273ZM104.261 166.748L106.033 161.826H105.384L103.923 166.109L102.434 161.826H101.768L103.567 166.748H104.261ZM106.719 163.963V163.88C106.719 162.912 107.23 162.282 108.098 162.282C108.956 162.282 109.459 162.858 109.459 163.88V163.963H106.719ZM109.696 165.789C109.34 166.045 108.847 166.273 108.189 166.273C107.285 166.273 106.719 165.652 106.719 164.565V164.483H110.08V163.972C110.08 162.593 109.376 161.734 108.098 161.734C106.865 161.734 106.098 162.556 106.098 163.953V164.565C106.098 165.999 106.874 166.821 108.18 166.821C109.011 166.821 109.577 166.538 109.97 166.264L109.696 165.789ZM115.732 161.734C114.947 161.734 114.454 162.209 114.234 162.629C114.015 162.063 113.531 161.734 112.746 161.734C112.024 161.734 111.586 162.118 111.367 162.51V161.826H110.755V166.748H111.376V163.552C111.376 162.976 111.823 162.3 112.636 162.3C113.522 162.3 113.741 162.803 113.741 163.597V166.748H114.362V163.515C114.381 162.949 114.828 162.3 115.623 162.3C116.508 162.3 116.728 162.803 116.728 163.597V166.748H117.349V163.433C117.349 162.392 116.846 161.734 115.732 161.734ZM118.618 163.963V163.88C118.618 162.912 119.129 162.282 119.997 162.282C120.855 162.282 121.357 162.858 121.357 163.88V163.963H118.618ZM121.595 165.789C121.239 166.045 120.746 166.273 120.088 166.273C119.184 166.273 118.618 165.652 118.618 164.565V164.483H121.979V163.972C121.979 162.593 121.275 161.734 119.997 161.734C118.764 161.734 117.997 162.556 117.997 163.953V164.565C117.997 165.999 118.773 166.821 120.079 166.821C120.91 166.821 121.476 166.538 121.869 166.264L121.595 165.789ZM124.773 161.734C123.996 161.734 123.494 162.136 123.266 162.51V161.826H122.654V166.748H123.275V163.552C123.275 162.976 123.85 162.3 124.681 162.3C125.658 162.3 125.923 162.885 125.923 163.588V166.748H126.544V163.433C126.544 162.41 125.896 161.734 124.773 161.734ZM127.805 165.378C127.805 166.447 128.216 166.794 129.074 166.794C129.339 166.794 129.714 166.748 129.906 166.675L129.814 166.164C129.586 166.228 129.367 166.255 129.12 166.255C128.627 166.255 128.426 166.018 128.426 165.351V162.355H129.787V161.826H128.426V160.556H127.805V161.826H126.965V162.355H127.805V165.378ZM134.013 161.734C132.697 161.734 131.921 162.547 131.921 163.972V164.584C131.921 165.999 132.697 166.821 134.013 166.821C135.328 166.821 136.104 165.999 136.104 164.584V163.972C136.104 162.556 135.328 161.734 134.013 161.734ZM134.013 166.273C133.108 166.273 132.551 165.707 132.551 164.547V164.008C132.551 162.848 133.108 162.282 134.013 162.282C134.917 162.282 135.474 162.848 135.474 164.008V164.547C135.474 165.707 134.917 166.273 134.013 166.273ZM137.194 166.748H137.815V162.355H139.176V161.826H137.815V161.232C137.815 160.565 138.016 160.328 138.509 160.328C138.756 160.328 138.975 160.355 139.203 160.419L139.295 159.908C139.103 159.835 138.729 159.789 138.464 159.789C137.642 159.789 137.194 160.136 137.194 161.204V161.826H136.354V162.355H137.194V166.748ZM143.103 161.323V163.305H141.158V163.89H143.103V165.999H143.706V163.89H145.652V163.305H143.706V161.323H143.103ZM149.073 166.748V160.163H148.589L146.552 161.424L146.844 161.935L148.434 160.967V166.748H149.073ZM152.814 166.739L156.741 160.163H156.166L152.229 166.739H152.814ZM156.403 163.378C155.517 163.378 154.988 163.935 154.988 164.894V165.305C154.988 166.264 155.517 166.821 156.403 166.821C157.289 166.821 157.819 166.264 157.819 165.305V164.894C157.819 163.935 157.289 163.378 156.403 163.378ZM156.403 166.355C155.873 166.355 155.517 166.054 155.517 165.287V164.912C155.517 164.154 155.873 163.844 156.403 163.844C156.933 163.844 157.289 164.154 157.289 164.912V165.287C157.289 166.054 156.933 166.355 156.403 166.355ZM152.576 160.09C151.691 160.09 151.161 160.647 151.161 161.606V162.017C151.161 162.976 151.691 163.533 152.576 163.533C153.462 163.533 153.992 162.976 153.992 162.017V161.606C153.992 160.647 153.462 160.09 152.576 160.09ZM152.576 163.068C152.047 163.068 151.691 162.766 151.691 161.999V161.625C151.691 160.867 152.047 160.556 152.576 160.556C153.106 160.556 153.462 160.867 153.462 161.625V161.999C153.462 162.766 153.106 163.068 152.576 163.068ZM162.186 161.734C160.98 161.734 160.149 162.52 160.149 163.953V164.565C160.149 165.999 160.916 166.821 162.195 166.821C163.081 166.821 163.583 166.538 163.939 166.264L163.647 165.771C163.291 166.036 162.889 166.255 162.204 166.255C161.327 166.255 160.779 165.643 160.779 164.565V163.935C160.779 162.912 161.318 162.291 162.186 162.291C162.651 162.291 163.062 162.383 163.519 162.702L163.802 162.218C163.391 161.908 162.88 161.734 162.186 161.734ZM166.205 161.734C164.89 161.734 164.114 162.547 164.114 163.972V164.584C164.114 165.999 164.89 166.821 166.205 166.821C167.521 166.821 168.297 165.999 168.297 164.584V163.972C168.297 162.556 167.521 161.734 166.205 161.734ZM166.205 166.273C165.301 166.273 164.744 165.707 164.744 164.547V164.008C164.744 162.848 165.301 162.282 166.205 162.282C167.11 162.282 167.667 162.848 167.667 164.008V164.547C167.667 165.707 167.11 166.273 166.205 166.273ZM173.963 161.734C173.177 161.734 172.684 162.209 172.465 162.629C172.246 162.063 171.762 161.734 170.976 161.734C170.255 161.734 169.816 162.118 169.597 162.51V161.826H168.985V166.748H169.606V163.552C169.606 162.976 170.054 162.3 170.867 162.3C171.752 162.3 171.972 162.803 171.972 163.597V166.748H172.593V163.515C172.611 162.949 173.058 162.3 173.853 162.3C174.739 162.3 174.958 162.803 174.958 163.597V166.748H175.579V163.433C175.579 162.392 175.077 161.734 173.963 161.734ZM177.085 166.164C177.35 166.511 177.853 166.821 178.547 166.821C179.67 166.821 180.501 166.054 180.501 164.712V163.844C180.501 162.501 179.716 161.734 178.547 161.734C177.935 161.734 177.359 162.026 177.067 162.52V161.826H176.455V168.703H177.076V166.164H177.085ZM179.88 164.62C179.88 165.661 179.341 166.273 178.51 166.273C177.67 166.273 177.076 165.689 177.076 165.113V163.67C177.076 162.803 177.834 162.3 178.51 162.3C179.35 162.3 179.88 162.885 179.88 163.935V164.62ZM182.441 166.821C182.815 166.821 183.162 166.748 183.436 166.611C183.692 166.483 183.893 166.301 183.984 166.145H183.993V166.748H184.596V163.305C184.596 162.31 183.92 161.734 182.824 161.734C182.075 161.734 181.518 161.999 181.061 162.319L181.363 162.794C181.783 162.501 182.285 162.291 182.815 162.291C183.582 162.291 183.984 162.693 183.984 163.406V163.862H182.596C181.454 163.862 180.86 164.419 180.86 165.214V165.415C180.86 166.282 181.509 166.821 182.441 166.821ZM183.984 165.214C183.984 165.588 183.783 165.835 183.518 165.999C183.226 166.182 182.925 166.282 182.532 166.282C182.03 166.282 181.482 166.027 181.482 165.387V165.241C181.482 164.739 181.819 164.383 182.605 164.383H183.984V165.214ZM188.16 161.835C187.959 161.762 187.73 161.734 187.456 161.734C186.707 161.734 186.251 162.218 186.041 162.693V161.826H185.429V166.748H186.05V163.953C186.05 163.031 186.561 162.364 187.374 162.364C187.612 162.364 187.803 162.401 187.968 162.465L188.16 161.835ZM188.841 163.963V163.88C188.841 162.912 189.353 162.282 190.22 162.282C191.079 162.282 191.581 162.858 191.581 163.88V163.963H188.841ZM191.819 165.789C191.462 166.045 190.969 166.273 190.312 166.273C189.407 166.273 188.841 165.652 188.841 164.565V164.483H192.202V163.972C192.202 162.593 191.499 161.734 190.22 161.734C188.987 161.734 188.22 162.556 188.22 163.953V164.565C188.22 165.999 188.996 166.821 190.302 166.821C191.134 166.821 191.7 166.538 192.093 166.264L191.819 165.789ZM196.047 166.748H196.659V159.844H196.038V162.428C195.783 162.063 195.289 161.734 194.568 161.734C193.445 161.734 192.613 162.501 192.613 163.844V164.712C192.613 166.054 193.445 166.821 194.577 166.821C195.143 166.821 195.764 166.593 196.038 166.1H196.047V166.748ZM193.235 163.935C193.235 162.894 193.773 162.282 194.604 162.282C195.445 162.282 196.038 162.931 196.038 163.506V164.986C196.038 165.853 195.399 166.273 194.604 166.273C193.782 166.273 193.235 165.671 193.235 164.62V163.935ZM199.692 165.378C199.692 166.447 200.103 166.794 200.962 166.794C201.227 166.794 201.601 166.748 201.793 166.675L201.702 166.164C201.473 166.228 201.254 166.255 201.008 166.255C200.514 166.255 200.314 166.018 200.314 165.351V162.355H201.674V161.826H200.314V160.556H199.692V161.826H198.852V162.355H199.692V165.378ZM204.165 161.734C202.85 161.734 202.073 162.547 202.073 163.972V164.584C202.073 165.999 202.85 166.821 204.165 166.821C205.48 166.821 206.256 165.999 206.256 164.584V163.972C206.256 162.556 205.48 161.734 204.165 161.734ZM204.165 166.273C203.261 166.273 202.704 165.707 202.704 164.547V164.008C202.704 162.848 203.261 162.282 204.165 162.282C205.069 162.282 205.626 162.848 205.626 164.008V164.547C205.626 165.707 205.069 166.273 204.165 166.273ZM210.013 166.821C210.388 166.821 210.735 166.748 211.009 166.611C211.265 166.483 211.465 166.301 211.557 166.145H211.566V166.748H212.169V163.305C212.169 162.31 211.493 161.734 210.397 161.734C209.648 161.734 209.091 161.999 208.634 162.319L208.936 162.794C209.356 162.501 209.858 162.291 210.388 162.291C211.155 162.291 211.557 162.693 211.557 163.406V163.862H210.169C209.027 163.862 208.433 164.419 208.433 165.214V165.415C208.433 166.282 209.082 166.821 210.013 166.821ZM211.557 165.214C211.557 165.588 211.356 165.835 211.091 165.999C210.799 166.182 210.497 166.282 210.105 166.282C209.602 166.282 209.054 166.027 209.054 165.387V165.241C209.054 164.739 209.392 164.383 210.178 164.383H211.557V165.214ZM214.92 166.748L216.691 161.826H216.043L214.582 166.109L213.093 161.826H212.426L214.225 166.748H214.92ZM217.377 163.963V163.88C217.377 162.912 217.889 162.282 218.756 162.282C219.615 162.282 220.117 162.858 220.117 163.88V163.963H217.377ZM220.355 165.789C219.998 166.045 219.505 166.273 218.848 166.273C217.943 166.273 217.377 165.652 217.377 164.565V164.483H220.738V163.972C220.738 162.593 220.035 161.734 218.756 161.734C217.523 161.734 216.756 162.556 216.756 163.953V164.565C216.756 165.999 217.532 166.821 218.838 166.821C219.67 166.821 220.236 166.538 220.629 166.264L220.355 165.789ZM224.144 161.835C223.943 161.762 223.715 161.734 223.441 161.734C222.692 161.734 222.235 162.218 222.025 162.693V161.826H221.413V166.748H222.034V163.953C222.034 163.031 222.546 162.364 223.359 162.364C223.596 162.364 223.788 162.401 223.952 162.465L224.144 161.835ZM225.766 166.821C226.141 166.821 226.488 166.748 226.762 166.611C227.018 166.483 227.218 166.301 227.31 166.145H227.319V166.748H227.922V163.305C227.922 162.31 227.246 161.734 226.15 161.734C225.401 161.734 224.844 161.999 224.387 162.319L224.689 162.794C225.109 162.501 225.611 162.291 226.141 162.291C226.908 162.291 227.31 162.693 227.31 163.406V163.862H225.922C224.78 163.862 224.186 164.419 224.186 165.214V165.415C224.186 166.282 224.835 166.821 225.766 166.821ZM227.31 165.214C227.31 165.588 227.109 165.835 226.844 165.999C226.552 166.182 226.25 166.282 225.858 166.282C225.355 166.282 224.807 166.027 224.807 165.387V165.241C224.807 164.739 225.145 164.383 225.931 164.383H227.31V165.214ZM231.951 166.684C231.951 167.716 231.467 168.2 230.563 168.2C230.006 168.2 229.659 168.109 229.202 167.789L228.919 168.273C229.33 168.593 229.869 168.785 230.563 168.785C231.787 168.785 232.572 168.063 232.572 166.666V161.826H231.96V162.428C231.705 162.063 231.202 161.734 230.481 161.734C229.357 161.734 228.526 162.501 228.526 163.844V164.62C228.526 165.963 229.357 166.73 230.49 166.73C231.056 166.73 231.668 166.502 231.942 166.008H231.951V166.684ZM229.147 163.935C229.147 162.894 229.686 162.282 230.517 162.282C231.358 162.282 231.951 162.931 231.951 163.506V164.894C231.951 165.762 231.312 166.182 230.517 166.182C229.695 166.182 229.147 165.579 229.147 164.529V163.935ZM233.888 163.963V163.88C233.888 162.912 234.4 162.282 235.267 162.282C236.126 162.282 236.628 162.858 236.628 163.88V163.963H233.888ZM236.866 165.789C236.51 166.045 236.016 166.273 235.359 166.273C234.455 166.273 233.888 165.652 233.888 164.565V164.483H237.249V163.972C237.249 162.593 236.546 161.734 235.267 161.734C234.034 161.734 233.267 162.556 233.267 163.953V164.565C233.267 165.999 234.044 166.821 235.35 166.821C236.181 166.821 236.747 166.538 237.14 166.264L236.866 165.789ZM240.29 166.164C240.555 166.511 241.057 166.821 241.751 166.821C242.875 166.821 243.706 166.054 243.706 164.712V163.844C243.706 162.501 242.92 161.734 241.751 161.734C241.139 161.734 240.564 162.026 240.272 162.52V161.826H239.66V168.703H240.281V166.164H240.29ZM243.085 164.62C243.085 165.661 242.546 166.273 241.715 166.273C240.874 166.273 240.281 165.689 240.281 165.113V163.67C240.281 162.803 241.039 162.3 241.715 162.3C242.555 162.3 243.085 162.885 243.085 163.935V164.62ZM244.749 163.963V163.88C244.749 162.912 245.26 162.282 246.128 162.282C246.986 162.282 247.489 162.858 247.489 163.88V163.963H244.749ZM247.726 165.789C247.37 166.045 246.877 166.273 246.219 166.273C245.315 166.273 244.749 165.652 244.749 164.565V164.483H248.11V163.972C248.11 162.593 247.406 161.734 246.128 161.734C244.895 161.734 244.128 162.556 244.128 163.953V164.565C244.128 165.999 244.904 166.821 246.21 166.821C247.041 166.821 247.607 166.538 248 166.264L247.726 165.789ZM251.516 161.835C251.315 161.762 251.086 161.734 250.812 161.734C250.063 161.734 249.607 162.218 249.397 162.693V161.826H248.785V166.748H249.406V163.953C249.406 163.031 249.917 162.364 250.73 162.364C250.968 162.364 251.159 162.401 251.324 162.465L251.516 161.835ZM252.429 166.748H253.05V162.355H254.411V161.826H253.05V161.232C253.05 160.565 253.251 160.328 253.744 160.328C253.991 160.328 254.21 160.355 254.439 160.419L254.53 159.908C254.338 159.835 253.964 159.789 253.699 159.789C252.877 159.789 252.429 160.136 252.429 161.204V161.826H251.589V162.355H252.429V166.748ZM256.687 161.734C255.372 161.734 254.596 162.547 254.596 163.972V164.584C254.596 165.999 255.372 166.821 256.687 166.821C258.002 166.821 258.779 165.999 258.779 164.584V163.972C258.779 162.556 258.002 161.734 256.687 161.734ZM256.687 166.273C255.783 166.273 255.226 165.707 255.226 164.547V164.008C255.226 162.848 255.783 162.282 256.687 162.282C257.591 162.282 258.148 162.848 258.148 164.008V164.547C258.148 165.707 257.591 166.273 256.687 166.273ZM262.198 161.835C261.997 161.762 261.768 161.734 261.494 161.734C260.746 161.734 260.289 162.218 260.079 162.693V161.826H259.467V166.748H260.088V163.953C260.088 163.031 260.599 162.364 261.412 162.364C261.65 162.364 261.842 162.401 262.006 162.465L262.198 161.835ZM267.464 161.734C266.679 161.734 266.185 162.209 265.966 162.629C265.747 162.063 265.263 161.734 264.478 161.734C263.756 161.734 263.318 162.118 263.098 162.51V161.826H262.487V166.748H263.108V163.552C263.108 162.976 263.555 162.3 264.368 162.3C265.254 162.3 265.473 162.803 265.473 163.597V166.748H266.094V163.515C266.112 162.949 266.56 162.3 267.354 162.3C268.24 162.3 268.46 162.803 268.46 163.597V166.748H269.081V163.433C269.081 162.392 268.578 161.734 267.464 161.734ZM271.29 166.821C271.665 166.821 272.012 166.748 272.286 166.611C272.541 166.483 272.742 166.301 272.834 166.145H272.843V166.748H273.445V163.305C273.445 162.31 272.77 161.734 271.674 161.734C270.925 161.734 270.368 161.999 269.911 162.319L270.212 162.794C270.633 162.501 271.135 162.291 271.665 162.291C272.432 162.291 272.834 162.693 272.834 163.406V163.862H271.445C270.304 163.862 269.71 164.419 269.71 165.214V165.415C269.71 166.282 270.359 166.821 271.29 166.821ZM272.834 165.214C272.834 165.588 272.633 165.835 272.368 165.999C272.076 166.182 271.774 166.282 271.381 166.282C270.879 166.282 270.331 166.027 270.331 165.387V165.241C270.331 164.739 270.669 164.383 271.454 164.383H272.834V165.214ZM276.397 161.734C275.621 161.734 275.119 162.136 274.89 162.51V161.826H274.278V166.748H274.899V163.552C274.899 162.976 275.475 162.3 276.306 162.3C277.283 162.3 277.548 162.885 277.548 163.588V166.748H278.169V163.433C278.169 162.41 277.521 161.734 276.397 161.734ZM280.855 161.734C279.649 161.734 278.818 162.52 278.818 163.953V164.565C278.818 165.999 279.585 166.821 280.864 166.821C281.75 166.821 282.252 166.538 282.608 166.264L282.316 165.771C281.96 166.036 281.558 166.255 280.873 166.255C279.996 166.255 279.448 165.643 279.448 164.565V163.935C279.448 162.912 279.987 162.291 280.855 162.291C281.32 162.291 281.731 162.383 282.188 162.702L282.471 162.218C282.06 161.908 281.549 161.734 280.855 161.734ZM283.404 163.963V163.88C283.404 162.912 283.915 162.282 284.783 162.282C285.641 162.282 286.144 162.858 286.144 163.88V163.963H283.404ZM286.381 165.789C286.025 166.045 285.532 166.273 284.874 166.273C283.97 166.273 283.404 165.652 283.404 164.565V164.483H286.765V163.972C286.765 162.593 286.062 161.734 284.783 161.734C283.55 161.734 282.783 162.556 282.783 163.953V164.565C282.783 165.999 283.559 166.821 284.865 166.821C285.696 166.821 286.263 166.538 286.655 166.264L286.381 165.789ZM289.577 166.748H290.198V162.355H291.559V161.826H290.198V161.232C290.198 160.565 290.399 160.328 290.892 160.328C291.139 160.328 291.358 160.355 291.586 160.419L291.678 159.908C291.486 159.835 291.111 159.789 290.847 159.789C290.025 159.789 289.577 160.136 289.577 161.204V161.826H288.737V162.355H289.577V166.748ZM293.835 161.734C292.52 161.734 291.744 162.547 291.744 163.972V164.584C291.744 165.999 292.52 166.821 293.835 166.821C295.15 166.821 295.926 165.999 295.926 164.584V163.972C295.926 162.556 295.15 161.734 293.835 161.734ZM293.835 166.273C292.931 166.273 292.374 165.707 292.374 164.547V164.008C292.374 162.848 292.931 162.282 293.835 162.282C294.739 162.282 295.296 162.848 295.296 164.008V164.547C295.296 165.707 294.739 166.273 293.835 166.273ZM299.346 161.835C299.145 161.762 298.916 161.734 298.642 161.734C297.893 161.734 297.437 162.218 297.227 162.693V161.826H296.615V166.748H297.236V163.953C297.236 163.031 297.747 162.364 298.56 162.364C298.798 162.364 298.989 162.401 299.154 162.465L299.346 161.835ZM301.908 161.415C302.283 160.821 302.794 160.647 303.315 160.647C304.11 160.647 304.603 161.058 304.603 161.716V161.789C304.603 162.355 304.201 163.04 303.379 163.04H302.612V163.588H303.351C303.982 163.588 304.877 163.844 304.877 164.839V164.958C304.877 165.57 304.447 166.264 303.297 166.264C302.694 166.264 302.146 166.072 301.507 165.607L301.187 166.118C301.808 166.611 302.53 166.849 303.297 166.849C304.913 166.849 305.507 165.89 305.507 164.949V164.812C305.507 164.045 305.023 163.433 304.119 163.278C304.995 162.976 305.251 162.319 305.251 161.798V161.707C305.251 160.72 304.502 160.063 303.306 160.063C302.301 160.063 301.735 160.556 301.406 161.086L301.908 161.415ZM307.458 161.826L309.303 166.83L308.672 168.593L309.202 168.785L311.759 161.826H311.12L309.622 166.054L308.097 161.826H307.458ZM312.444 163.963V163.88C312.444 162.912 312.956 162.282 313.823 162.282C314.682 162.282 315.184 162.858 315.184 163.88V163.963H312.444ZM315.422 165.789C315.066 166.045 314.572 166.273 313.915 166.273C313.011 166.273 312.444 165.652 312.444 164.565V164.483H315.805V163.972C315.805 162.593 315.102 161.734 313.823 161.734C312.591 161.734 311.823 162.556 311.823 163.953V164.565C311.823 165.999 312.6 166.821 313.906 166.821C314.737 166.821 315.303 166.538 315.696 166.264L315.422 165.789ZM317.814 166.821C318.188 166.821 318.535 166.748 318.809 166.611C319.065 166.483 319.266 166.301 319.357 166.145H319.366V166.748H319.969V163.305C319.969 162.31 319.293 161.734 318.197 161.734C317.449 161.734 316.891 161.999 316.435 162.319L316.736 162.794C317.156 162.501 317.659 162.291 318.188 162.291C318.956 162.291 319.357 162.693 319.357 163.406V163.862H317.969C316.828 163.862 316.234 164.419 316.234 165.214V165.415C316.234 166.282 316.882 166.821 317.814 166.821ZM319.357 165.214C319.357 165.588 319.156 165.835 318.892 165.999C318.599 166.182 318.298 166.282 317.905 166.282C317.403 166.282 316.855 166.027 316.855 165.387V165.241C316.855 164.739 317.193 164.383 317.978 164.383H319.357V165.214ZM323.533 161.835C323.332 161.762 323.104 161.734 322.83 161.734C322.081 161.734 321.624 162.218 321.414 162.693V161.826H320.802V166.748H321.423V163.953C321.423 163.031 321.935 162.364 322.748 162.364C322.985 162.364 323.177 162.401 323.341 162.465L323.533 161.835ZM325.384 166.264C324.808 166.264 324.278 166.054 323.831 165.753L323.53 166.246C323.995 166.584 324.626 166.821 325.42 166.821C326.461 166.821 327.228 166.273 327.228 165.488V165.351C327.228 164.565 326.717 164.173 325.502 163.944C324.726 163.798 324.269 163.579 324.269 163.15V163.049C324.269 162.62 324.671 162.282 325.411 162.282C326.041 162.282 326.425 162.437 326.836 162.711L327.119 162.246C326.717 161.944 326.178 161.734 325.429 161.734C324.224 161.734 323.648 162.337 323.648 163.04V163.168C323.648 163.972 324.297 164.291 325.283 164.483C326.224 164.666 326.607 164.885 326.607 165.378V165.47C326.607 165.89 326.178 166.264 325.384 166.264Z" fill="#555555"/>
</svg>
