<svg width="1006" height="234" viewBox="0 0 1006 234" fill="none" xmlns="http://www.w3.org/2000/svg">
<rect width="990" height="218" rx="109" fill="url(#paint0_linear_182_8040)"/>
<path d="M759 109L749 115V103L759 109Z" fill="white"/>
<path d="M502 109L492 115V103L502 109Z" fill="white"/>
<path d="M245 109L235 115V103L245 109Z" fill="white"/>
<g filter="url(#filter0_d_182_8040)">
<circle cx="367" cy="109" r="95" fill="white"/>
</g>
<g filter="url(#filter1_d_182_8040)">
<circle cx="623" cy="109" r="95" fill="white"/>
</g>
<g filter="url(#filter2_d_182_8040)">
<path d="M976 109C976 161.467 933.467 204 881 204C828.533 204 786 161.467 786 109C786 56.5329 828.533 14 881 14C933.467 14 976 56.5329 976 109Z" fill="white"/>
</g>
<path d="M844.766 115.1V129.52H846.746V115.1H844.766ZM857.76 122.28C857.76 119.64 856.04 118.38 853.92 118.38C852.42 118.38 851.3 118.94 850.64 119.96H850.62V118.58H848.74V129.52H850.68V122.74C850.68 121.02 852.12 120.1 853.44 120.1C855.06 120.1 855.82 120.88 855.82 122.72V129.52H857.76V122.28ZM860.193 126.46C860.193 128.66 861.153 129.68 863.233 129.68C864.013 129.68 864.833 129.5 865.273 129.32L864.973 127.76C864.473 127.94 864.013 128.02 863.533 128.02C862.713 128.02 862.133 127.8 862.133 126.46V120.24H865.013V118.58H862.133V115.82H860.193V118.58H858.393V120.24H860.193V126.46ZM870.226 120.04C871.886 120.04 872.926 121.12 872.926 122.8V123.16H867.446V122.88C867.446 121.2 868.606 120.04 870.226 120.04ZM873.726 127.02C872.786 127.62 871.826 128 870.406 128C868.666 128 867.446 126.88 867.446 124.82V124.74H874.806V123.28C874.806 120.16 873.026 118.38 870.226 118.38C867.526 118.38 865.526 120.08 865.526 123.4V124.64C865.526 128.18 867.626 129.68 870.326 129.68C872.306 129.68 873.586 129.14 874.546 128.48L873.726 127.02ZM882.539 118.6C882.099 118.46 881.619 118.38 881.119 118.38C879.519 118.38 878.539 119.1 877.899 120.32H877.879V118.58H875.999V129.52H877.939V123.14C877.939 121.42 879.179 120.22 880.619 120.22C881.139 120.22 881.579 120.32 881.959 120.48L882.539 118.6ZM886.759 127.7L883.879 118.58H881.779L885.519 129.52H887.999L891.699 118.58H889.659L886.799 127.7H886.759ZM892.312 118.58V129.52H894.252V118.58H892.312ZM892.252 114.66V116.78H894.312V114.66H892.252ZM900.368 120.04C902.028 120.04 903.068 121.12 903.068 122.8V123.16H897.588V122.88C897.588 121.2 898.748 120.04 900.368 120.04ZM903.868 127.02C902.928 127.62 901.968 128 900.548 128C898.808 128 897.588 126.88 897.588 124.82V124.74H904.948V123.28C904.948 120.16 903.168 118.38 900.368 118.38C897.668 118.38 895.668 120.08 895.668 123.4V124.64C895.668 128.18 897.768 129.68 900.468 129.68C902.448 129.68 903.728 129.14 904.688 128.48L903.868 127.02ZM912.261 121L914.481 129.52H916.761L919.561 118.58H917.641L915.601 127.5H915.561L913.261 118.58H911.301L908.981 127.5H908.941L906.941 118.58H904.901L907.741 129.52H910.021L912.221 121H912.261Z" fill="#222222"/>
<path d="M861.662 98.046C860.546 98.046 858.962 97.416 857.99 96.678L857.09 98.136C858.17 99 859.772 99.666 861.608 99.666C864.272 99.666 866.234 98.442 866.234 96.066V95.742C866.234 93.942 865.244 92.808 862.04 92.088C860.114 91.656 859.052 91.224 859.052 90.036V89.748C859.052 88.722 860.114 87.894 861.734 87.894C862.922 87.894 863.876 88.164 864.83 88.812L865.676 87.426C864.578 86.688 863.3 86.292 861.716 86.292C858.728 86.292 857.27 88.002 857.27 89.766V90.09C857.27 92.43 859.142 93.186 861.59 93.708C863.696 94.158 864.434 94.734 864.434 95.868V96.156C864.434 97.182 863.498 98.046 861.662 98.046ZM872.088 99.468V88.02H876.048V86.49H866.346V88.02H870.306V99.468H872.088ZM876.737 86.49V99.468H884.945V97.938H878.519V93.582H884.441V92.052H878.519V88.02H884.819V86.49H876.737ZM886.415 99.468H888.197V94.41H891.059C893.885 94.41 895.361 92.682 895.361 90.576V90.198C895.361 88.074 893.993 86.49 891.059 86.49H886.415V99.468ZM890.951 88.038C892.625 88.038 893.561 88.74 893.561 90.216V90.54C893.561 92.106 892.625 92.862 890.753 92.862H888.197V88.038H890.951ZM901.934 91.188V95.166H897.542L903.518 86.49H901.556L895.454 95.346V96.678H901.934V99.468H903.698V96.678H905.534V95.166H903.698V91.188H901.934Z" fill="#5082E6"/>
<path d="M581.132 102.1H579.212L573.852 116.52H575.872L577.392 112.28H582.912L584.432 116.52H586.512L581.132 102.1ZM579.212 107.2C579.632 106 579.752 105.64 580.152 104.3C580.552 105.62 580.672 106 581.112 107.2L582.312 110.58H577.992L579.212 107.2ZM587.349 102.1V116.52H589.329V102.1H587.349ZM599.283 105.38C596.423 105.38 594.563 107.16 594.563 110.3V111.68C594.563 114.82 596.283 116.68 599.303 116.68C601.303 116.68 602.583 116.06 603.343 115.42L602.403 113.94C601.623 114.52 600.763 114.94 599.323 114.94C597.883 114.94 596.523 114.02 596.523 111.66V110.28C596.523 108.04 597.843 107.1 599.283 107.1C600.343 107.1 601.123 107.3 602.143 108.04L603.063 106.58C602.163 105.9 601.083 105.38 599.283 105.38ZM607.139 116.68C608.099 116.68 608.739 116.5 609.319 116.18C609.739 115.94 610.139 115.6 610.339 115.2H610.359V116.52H612.219V108.86C612.219 106.66 610.499 105.38 608.059 105.38C606.299 105.38 604.999 106.02 603.939 106.76L604.899 108.2C605.919 107.54 606.759 107.1 608.039 107.1C609.639 107.1 610.299 107.8 610.299 109.26V109.9H607.519C604.719 109.9 603.539 111.2 603.539 113.06V113.6C603.539 115.52 604.939 116.68 607.139 116.68ZM610.299 112.62C610.299 113.44 610.079 113.92 609.559 114.32C608.979 114.78 608.299 115 607.339 115C606.299 115 605.439 114.54 605.439 113.48V113.2C605.439 112.16 606.039 111.54 607.559 111.54H610.299V112.62ZM615.931 105.58H614.051V120.8H615.991V115.32C616.431 115.96 617.391 116.68 619.011 116.68C621.631 116.68 623.391 115 623.391 111.98V110.04C623.391 107.16 621.891 105.38 619.131 105.38C617.831 105.38 616.571 105.82 615.931 106.94V105.58ZM615.971 109.86C615.971 108.16 617.271 107.08 618.851 107.08C620.471 107.08 621.471 108.28 621.471 110.36V111.7C621.471 113.76 620.491 114.98 618.851 114.98C617.171 114.98 615.971 113.76 615.971 112.62V109.86ZM627.707 116.68C628.667 116.68 629.307 116.5 629.887 116.18C630.307 115.94 630.707 115.6 630.907 115.2H630.927V116.52H632.787V108.86C632.787 106.66 631.067 105.38 628.627 105.38C626.867 105.38 625.567 106.02 624.507 106.76L625.467 108.2C626.487 107.54 627.327 107.1 628.607 107.1C630.207 107.1 630.867 107.8 630.867 109.26V109.9H628.087C625.287 109.9 624.107 111.2 624.107 113.06V113.6C624.107 115.52 625.507 116.68 627.707 116.68ZM630.867 112.62C630.867 113.44 630.647 113.92 630.127 114.32C629.547 114.78 628.867 115 627.907 115C626.867 115 626.007 114.54 626.007 113.48V113.2C626.007 112.16 626.607 111.54 628.127 111.54H630.867V112.62ZM636.56 101.4H634.62V116.52H636.5V115.24H636.54C637.02 116.02 637.98 116.68 639.62 116.68C642.18 116.68 643.96 114.94 643.96 111.98V110.04C643.96 107.08 642.44 105.38 639.68 105.38C638.48 105.38 637.26 105.76 636.56 106.84V101.4ZM636.54 109.86C636.54 108.16 637.84 107.08 639.42 107.08C641.04 107.08 642.04 108.28 642.04 110.36V111.7C642.04 113.76 641.06 114.98 639.42 114.98C637.74 114.98 636.54 113.76 636.54 112.62V109.86ZM645.394 105.58V116.52H647.334V105.58H645.394ZM645.334 101.66V103.78H647.394V101.66H645.334ZM649.31 101.4V116.52H651.25V101.4H649.31ZM653.228 105.58V116.52H655.168V105.58H653.228ZM653.168 101.66V103.78H655.228V101.66H653.168ZM657.824 113.46C657.824 115.66 658.784 116.68 660.864 116.68C661.644 116.68 662.464 116.5 662.904 116.32L662.604 114.76C662.104 114.94 661.644 115.02 661.164 115.02C660.344 115.02 659.764 114.8 659.764 113.46V107.24H662.644V105.58H659.764V102.82H657.824V105.58H656.024V107.24H657.824V113.46ZM667.357 114.32L664.457 105.58H662.357L666.337 116.68L664.917 120.42L666.677 121.04L672.357 105.58H670.317L667.437 114.32H667.357ZM576.927 133.04C578.587 133.04 579.627 134.12 579.627 135.8V136.16H574.147V135.88C574.147 134.2 575.307 133.04 576.927 133.04ZM580.427 140.02C579.487 140.62 578.527 141 577.107 141C575.367 141 574.147 139.88 574.147 137.82V137.74H581.507V136.28C581.507 133.16 579.727 131.38 576.927 131.38C574.227 131.38 572.227 133.08 572.227 136.4V137.64C572.227 141.18 574.327 142.68 577.027 142.68C579.007 142.68 580.287 142.14 581.247 141.48L580.427 140.02ZM590.905 131.58H588.745L586.285 135.62L583.865 131.58H581.525L585.005 136.84L581.345 142.52H583.565L586.165 138.12L588.705 142.52H591.045L587.445 136.84L590.905 131.58ZM594.852 142.68C595.812 142.68 596.452 142.5 597.032 142.18C597.452 141.94 597.852 141.6 598.052 141.2H598.072V142.52H599.932V134.86C599.932 132.66 598.212 131.38 595.772 131.38C594.012 131.38 592.712 132.02 591.652 132.76L592.612 134.2C593.632 133.54 594.472 133.1 595.752 133.1C597.352 133.1 598.012 133.8 598.012 135.26V135.9H595.232C592.432 135.9 591.252 137.2 591.252 139.06V139.6C591.252 141.52 592.652 142.68 594.852 142.68ZM598.012 138.62C598.012 139.44 597.792 139.92 597.272 140.32C596.692 140.78 596.012 141 595.052 141C594.012 141 593.152 140.54 593.152 139.48V139.2C593.152 138.16 593.752 137.54 595.272 137.54H598.012V138.62ZM616.785 135.34C616.785 132.82 615.405 131.38 613.165 131.38C611.445 131.38 610.465 132.14 609.765 133.2C609.205 132.04 608.085 131.38 606.625 131.38C605.105 131.38 604.125 132.1 603.705 133.06H603.685V131.58H601.765V142.52H603.705V135.6C603.705 133.88 605.045 133.14 606.245 133.14C607.625 133.14 608.305 134.06 608.305 135.96V142.52H610.245V135.7C610.245 133.92 611.565 133.14 612.785 133.14C614.165 133.14 614.845 134.06 614.845 135.96V142.52H616.785V135.34ZM618.613 131.58V142.52H620.553V131.58H618.613ZM618.553 127.66V129.78H620.613V127.66H618.553ZM631.549 135.28C631.549 132.64 629.829 131.38 627.709 131.38C626.209 131.38 625.089 131.94 624.429 132.96H624.409V131.58H622.529V142.52H624.469V135.74C624.469 134.02 625.909 133.1 627.229 133.1C628.849 133.1 629.609 133.88 629.609 135.72V142.52H631.549V135.28ZM636.341 142.68C637.301 142.68 637.941 142.5 638.521 142.18C638.941 141.94 639.341 141.6 639.541 141.2H639.561V142.52H641.421V134.86C641.421 132.66 639.701 131.38 637.261 131.38C635.501 131.38 634.201 132.02 633.141 132.76L634.101 134.2C635.121 133.54 635.961 133.1 637.241 133.1C638.841 133.1 639.501 133.8 639.501 135.26V135.9H636.721C633.921 135.9 632.741 137.2 632.741 139.06V139.6C632.741 141.52 634.141 142.68 636.341 142.68ZM639.501 138.62C639.501 139.44 639.281 139.92 638.761 140.32C638.181 140.78 637.501 141 636.541 141C635.501 141 634.641 140.54 634.641 139.48V139.2C634.641 138.16 635.241 137.54 636.761 137.54H639.501V138.62ZM643.934 139.46C643.934 141.66 644.894 142.68 646.974 142.68C647.754 142.68 648.574 142.5 649.014 142.32L648.714 140.76C648.214 140.94 647.754 141.02 647.274 141.02C646.454 141.02 645.874 140.8 645.874 139.46V133.24H648.754V131.58H645.874V128.82H643.934V131.58H642.134V133.24H643.934V139.46ZM649.887 131.58V142.52H651.827V131.58H649.887ZM649.827 127.66V129.78H651.887V127.66H649.827ZM658.123 131.38C655.123 131.38 653.243 133.18 653.243 136.36V137.7C653.243 140.86 655.123 142.68 658.123 142.68C661.123 142.68 663.003 140.86 663.003 137.7V136.36C663.003 133.2 661.123 131.38 658.123 131.38ZM658.123 140.98C656.383 140.98 655.203 139.86 655.203 137.54V136.52C655.203 134.2 656.383 133.08 658.123 133.08C659.863 133.08 661.043 134.2 661.043 136.52V137.54C661.043 139.86 659.863 140.98 658.123 140.98ZM673.381 135.28C673.381 132.64 671.661 131.38 669.541 131.38C668.041 131.38 666.921 131.94 666.261 132.96H666.241V131.58H664.361V142.52H666.301V135.74C666.301 134.02 667.741 133.1 669.061 133.1C670.681 133.1 671.441 133.88 671.441 135.72V142.52H673.381V135.28Z" fill="#222222"/>
<path d="M603.662 85.046C602.546 85.046 600.962 84.416 599.99 83.678L599.09 85.136C600.17 86 601.772 86.666 603.608 86.666C606.272 86.666 608.234 85.442 608.234 83.066V82.742C608.234 80.942 607.244 79.808 604.04 79.088C602.114 78.656 601.052 78.224 601.052 77.036V76.748C601.052 75.722 602.114 74.894 603.734 74.894C604.922 74.894 605.876 75.164 606.83 75.812L607.676 74.426C606.578 73.688 605.3 73.292 603.716 73.292C600.728 73.292 599.27 75.002 599.27 76.766V77.09C599.27 79.43 601.142 80.186 603.59 80.708C605.696 81.158 606.434 81.734 606.434 82.868V83.156C606.434 84.182 605.498 85.046 603.662 85.046ZM614.088 86.468V75.02H618.048V73.49H608.346V75.02H612.306V86.468H614.088ZM618.737 73.49V86.468H626.945V84.938H620.519V80.582H626.441V79.052H620.519V75.02H626.819V73.49H618.737ZM628.415 86.468H630.197V81.41H633.059C635.885 81.41 637.361 79.682 637.361 77.576V77.198C637.361 75.074 635.993 73.49 633.059 73.49H628.415V86.468ZM632.951 75.038C634.625 75.038 635.561 75.74 635.561 77.216V77.54C635.561 79.106 634.625 79.862 632.753 79.862H630.197V75.038H632.951ZM639.596 76.172C640.298 75.254 641.054 74.876 642.116 74.876C643.286 74.876 644.258 75.452 644.258 76.586V76.73C644.258 77.846 643.7 78.926 642.08 78.926H640.55V80.474H642.152C643.664 80.474 644.834 80.978 644.834 82.688V82.922C644.834 84.092 643.97 85.046 642.08 85.046C640.964 85.046 640.064 84.722 638.804 83.804L637.922 85.226C639.146 86.198 640.568 86.666 642.08 86.666C645.266 86.666 646.616 84.812 646.616 82.904V82.634C646.616 81.14 645.734 79.952 643.988 79.646C645.59 79.07 646.022 77.738 646.022 76.712V76.532C646.022 74.588 644.492 73.292 642.098 73.292C640.154 73.292 639.074 74.156 638.318 75.236L639.596 76.172Z" fill="#5082E6"/>
<path d="M325.117 102.1V116.52H329.897C333.957 116.52 335.957 114.32 335.957 110.34V108.28C335.957 104.3 333.857 102.1 329.897 102.1H325.117ZM327.097 103.84H329.717C332.297 103.84 333.937 105.14 333.937 108.38V110.24C333.937 113.48 332.297 114.76 329.717 114.76H327.097V103.84ZM341.927 105.38C338.927 105.38 337.047 107.18 337.047 110.36V111.7C337.047 114.86 338.927 116.68 341.927 116.68C344.927 116.68 346.807 114.86 346.807 111.7V110.36C346.807 107.2 344.927 105.38 341.927 105.38ZM341.927 114.98C340.187 114.98 339.007 113.86 339.007 111.54V110.52C339.007 108.2 340.187 107.08 341.927 107.08C343.667 107.08 344.847 108.2 344.847 110.52V111.54C344.847 113.86 343.667 114.98 341.927 114.98ZM352.325 105.38C349.465 105.38 347.605 107.16 347.605 110.3V111.68C347.605 114.82 349.325 116.68 352.345 116.68C354.345 116.68 355.625 116.06 356.385 115.42L355.445 113.94C354.665 114.52 353.805 114.94 352.365 114.94C350.925 114.94 349.565 114.02 349.565 111.66V110.28C349.565 108.04 350.885 107.1 352.325 107.1C353.385 107.1 354.165 107.3 355.185 108.04L356.105 106.58C355.205 105.9 354.125 105.38 352.325 105.38ZM356.98 112.82C356.98 115.46 358.66 116.72 360.78 116.72C362.28 116.72 363.36 116.16 364.02 115.14H364.04V116.52H365.92V105.58H363.98V112.36C363.98 114.08 362.58 115 361.26 115C359.64 115 358.92 114.22 358.92 112.38V105.58H356.98V112.82ZM382.855 109.34C382.855 106.82 381.475 105.38 379.235 105.38C377.515 105.38 376.535 106.14 375.835 107.2C375.275 106.04 374.155 105.38 372.695 105.38C371.175 105.38 370.195 106.1 369.775 107.06H369.755V105.58H367.835V116.52H369.775V109.6C369.775 107.88 371.115 107.14 372.315 107.14C373.695 107.14 374.375 108.06 374.375 109.96V116.52H376.315V109.7C376.315 107.92 377.635 107.14 378.855 107.14C380.235 107.14 380.915 108.06 380.915 109.96V116.52H382.855V109.34ZM388.763 107.04C390.423 107.04 391.463 108.12 391.463 109.8V110.16H385.983V109.88C385.983 108.2 387.143 107.04 388.763 107.04ZM392.263 114.02C391.323 114.62 390.363 115 388.943 115C387.203 115 385.983 113.88 385.983 111.82V111.74H393.343V110.28C393.343 107.16 391.563 105.38 388.763 105.38C386.063 105.38 384.063 107.08 384.063 110.4V111.64C384.063 115.18 386.163 116.68 388.863 116.68C390.843 116.68 392.123 116.14 393.083 115.48L392.263 114.02ZM403.557 109.28C403.557 106.64 401.837 105.38 399.717 105.38C398.217 105.38 397.097 105.94 396.437 106.96H396.417V105.58H394.537V116.52H396.477V109.74C396.477 108.02 397.917 107.1 399.237 107.1C400.857 107.1 401.617 107.88 401.617 109.72V116.52H403.557V109.28ZM405.989 113.46C405.989 115.66 406.949 116.68 409.029 116.68C409.809 116.68 410.629 116.5 411.069 116.32L410.769 114.76C410.269 114.94 409.809 115.02 409.329 115.02C408.509 115.02 407.929 114.8 407.929 113.46V107.24H410.809V105.58H407.929V102.82H405.989V105.58H404.189V107.24H405.989V113.46ZM331.391 141C330.071 141 328.951 140.5 327.971 139.84L327.071 141.36C328.111 142.16 329.651 142.68 331.471 142.68C334.011 142.68 335.631 141.34 335.631 139.62V139.36C335.631 137.34 334.371 136.54 331.711 136.04C330.011 135.72 329.351 135.4 329.351 134.54V134.36C329.351 133.6 330.011 133.04 331.631 133.04C332.731 133.04 333.791 133.38 334.511 133.92L335.371 132.46C334.291 131.7 332.971 131.38 331.491 131.38C328.651 131.38 327.411 132.82 327.411 134.34V134.58C327.411 136.5 328.751 137.28 331.171 137.78C333.231 138.2 333.671 138.5 333.671 139.42V139.58C333.671 140.46 332.831 141 331.391 141ZM340.912 131.38C338.052 131.38 336.192 133.16 336.192 136.3V137.68C336.192 140.82 337.912 142.68 340.932 142.68C342.932 142.68 344.212 142.06 344.972 141.42L344.032 139.94C343.252 140.52 342.392 140.94 340.952 140.94C339.512 140.94 338.152 140.02 338.152 137.66V136.28C338.152 134.04 339.472 133.1 340.912 133.1C341.972 133.1 342.752 133.3 343.772 134.04L344.692 132.58C343.792 131.9 342.712 131.38 340.912 131.38ZM352.268 131.6C351.828 131.46 351.348 131.38 350.848 131.38C349.248 131.38 348.268 132.1 347.628 133.32H347.608V131.58H345.728V142.52H347.668V136.14C347.668 134.42 348.908 133.22 350.348 133.22C350.868 133.22 351.308 133.32 351.688 133.48L352.268 131.6ZM357.007 133.04C358.667 133.04 359.707 134.12 359.707 135.8V136.16H354.227V135.88C354.227 134.2 355.387 133.04 357.007 133.04ZM360.507 140.02C359.567 140.62 358.607 141 357.187 141C355.447 141 354.227 139.88 354.227 137.82V137.74H361.587V136.28C361.587 133.16 359.807 131.38 357.007 131.38C354.307 131.38 352.307 133.08 352.307 136.4V137.64C352.307 141.18 354.407 142.68 357.107 142.68C359.087 142.68 360.367 142.14 361.327 141.48L360.507 140.02ZM366.921 133.04C368.581 133.04 369.621 134.12 369.621 135.8V136.16H364.141V135.88C364.141 134.2 365.301 133.04 366.921 133.04ZM370.421 140.02C369.481 140.62 368.521 141 367.101 141C365.361 141 364.141 139.88 364.141 137.82V137.74H371.501V136.28C371.501 133.16 369.721 131.38 366.921 131.38C364.221 131.38 362.221 133.08 362.221 136.4V137.64C362.221 141.18 364.321 142.68 367.021 142.68C369.001 142.68 370.281 142.14 371.241 141.48L370.421 140.02ZM381.714 135.28C381.714 132.64 379.994 131.38 377.874 131.38C376.374 131.38 375.254 131.94 374.594 132.96H374.574V131.58H372.694V142.52H374.634V135.74C374.634 134.02 376.074 133.1 377.394 133.1C379.014 133.1 379.774 133.88 379.774 135.72V142.52H381.714V135.28ZM383.527 131.58V142.52H385.467V131.58H383.527ZM383.467 127.66V129.78H385.527V127.66H383.467ZM396.462 135.28C396.462 132.64 394.742 131.38 392.622 131.38C391.122 131.38 390.002 131.94 389.342 132.96H389.322V131.58H387.442V142.52H389.382V135.74C389.382 134.02 390.822 133.1 392.142 133.1C393.762 133.1 394.522 133.88 394.522 135.72V142.52H396.462V135.28ZM407.015 131.58H405.075V132.72C404.635 132.08 403.675 131.38 402.015 131.38C399.455 131.38 397.675 133.12 397.675 136.08V137.82C397.675 140.78 399.175 142.48 401.935 142.48C403.255 142.48 404.455 142.08 405.075 141.04V142.38C405.075 144.32 404.075 145.22 402.195 145.22C401.115 145.22 400.095 144.84 399.375 144.3L398.495 145.82C399.395 146.52 400.655 146.98 402.135 146.98C405.355 146.98 407.015 145.44 407.015 142.38V131.58ZM405.095 138.02C405.095 139.72 403.795 140.78 402.215 140.78C400.595 140.78 399.595 139.58 399.595 137.5V136.36C399.595 134.3 400.575 133.08 402.215 133.08C403.895 133.08 405.095 134.26 405.095 135.4V138.02Z" fill="#222222"/>
<path d="M347.662 85.046C346.546 85.046 344.962 84.416 343.99 83.678L343.09 85.136C344.17 86 345.772 86.666 347.608 86.666C350.272 86.666 352.234 85.442 352.234 83.066V82.742C352.234 80.942 351.244 79.808 348.04 79.088C346.114 78.656 345.052 78.224 345.052 77.036V76.748C345.052 75.722 346.114 74.894 347.734 74.894C348.922 74.894 349.876 75.164 350.83 75.812L351.676 74.426C350.578 73.688 349.3 73.292 347.716 73.292C344.728 73.292 343.27 75.002 343.27 76.766V77.09C343.27 79.43 345.142 80.186 347.59 80.708C349.696 81.158 350.434 81.734 350.434 82.868V83.156C350.434 84.182 349.498 85.046 347.662 85.046ZM358.088 86.468V75.02H362.048V73.49H352.346V75.02H356.306V86.468H358.088ZM362.737 73.49V86.468H370.945V84.938H364.519V80.582H370.441V79.052H364.519V75.02H370.819V73.49H362.737ZM372.415 86.468H374.197V81.41H377.059C379.885 81.41 381.361 79.682 381.361 77.576V77.198C381.361 75.074 379.993 73.49 377.059 73.49H372.415V86.468ZM376.951 75.038C378.625 75.038 379.561 75.74 379.561 77.216V77.54C379.561 79.106 378.625 79.862 376.753 79.862H374.197V75.038H376.951ZM382.12 84.974V86.468H390.832V84.92H384.316L388.366 80.6C389.536 79.358 390.364 78.134 390.364 76.73V76.55C390.364 74.66 388.942 73.292 386.314 73.292C383.92 73.292 382.768 74.786 382.156 75.902L383.524 76.784C384.37 75.272 385.396 74.894 386.35 74.894C387.7 74.894 388.582 75.524 388.582 76.55V76.694C388.582 77.378 388.438 78.098 386.962 79.718L382.12 84.974Z" fill="#5082E6"/>
<g filter="url(#filter3_d_182_8040)">
<circle cx="109" cy="109" r="95" fill="white"/>
</g>
<path d="M70.4163 102.1H68.4963L63.1363 116.52H65.1563L66.6763 112.28H72.1963L73.7163 116.52H75.7963L70.4163 102.1ZM68.4963 107.2C68.9163 106 69.0363 105.64 69.4363 104.3C69.8363 105.62 69.9563 106 70.3963 107.2L71.5963 110.58H67.2763L68.4963 107.2ZM78.4334 105.58H76.5534V120.8H78.4934V115.32C78.9334 115.96 79.8934 116.68 81.5134 116.68C84.1334 116.68 85.8934 115 85.8934 111.98V110.04C85.8934 107.16 84.3934 105.38 81.6334 105.38C80.3334 105.38 79.0734 105.82 78.4334 106.94V105.58ZM78.4734 109.86C78.4734 108.16 79.7734 107.08 81.3534 107.08C82.9734 107.08 83.9734 108.28 83.9734 110.36V111.7C83.9734 113.76 82.9934 114.98 81.3534 114.98C79.6734 114.98 78.4734 113.76 78.4734 112.62V109.86ZM89.1474 105.58H87.2674V120.8H89.2074V115.32C89.6474 115.96 90.6074 116.68 92.2274 116.68C94.8474 116.68 96.6074 115 96.6074 111.98V110.04C96.6074 107.16 95.1074 105.38 92.3474 105.38C91.0474 105.38 89.7874 105.82 89.1474 106.94V105.58ZM89.1874 109.86C89.1874 108.16 90.4874 107.08 92.0674 107.08C93.6874 107.08 94.6874 108.28 94.6874 110.36V111.7C94.6874 113.76 93.7074 114.98 92.0674 114.98C90.3874 114.98 89.1874 113.76 89.1874 112.62V109.86ZM97.9815 101.4V116.52H99.9215V101.4H97.9815ZM101.9 105.58V116.52H103.84V105.58H101.9ZM101.84 101.66V103.78H103.9V101.66H101.84ZM109.976 105.38C107.116 105.38 105.256 107.16 105.256 110.3V111.68C105.256 114.82 106.976 116.68 109.996 116.68C111.996 116.68 113.276 116.06 114.036 115.42L113.096 113.94C112.316 114.52 111.456 114.94 110.016 114.94C108.576 114.94 107.216 114.02 107.216 111.66V110.28C107.216 108.04 108.536 107.1 109.976 107.1C111.036 107.1 111.816 107.3 112.836 108.04L113.756 106.58C112.856 105.9 111.776 105.38 109.976 105.38ZM117.832 116.68C118.792 116.68 119.432 116.5 120.012 116.18C120.432 115.94 120.832 115.6 121.032 115.2H121.052V116.52H122.912V108.86C122.912 106.66 121.192 105.38 118.752 105.38C116.992 105.38 115.692 106.02 114.632 106.76L115.592 108.2C116.612 107.54 117.452 107.1 118.732 107.1C120.332 107.1 120.992 107.8 120.992 109.26V109.9H118.212C115.412 109.9 114.232 111.2 114.232 113.06V113.6C114.232 115.52 115.632 116.68 117.832 116.68ZM120.992 112.62C120.992 113.44 120.772 113.92 120.252 114.32C119.672 114.78 118.992 115 118.032 115C116.992 115 116.132 114.54 116.132 113.48V113.2C116.132 112.16 116.732 111.54 118.252 111.54H120.992V112.62ZM125.424 113.46C125.424 115.66 126.384 116.68 128.464 116.68C129.244 116.68 130.064 116.5 130.504 116.32L130.204 114.76C129.704 114.94 129.244 115.02 128.764 115.02C127.944 115.02 127.364 114.8 127.364 113.46V107.24H130.244V105.58H127.364V102.82H125.424V105.58H123.624V107.24H125.424V113.46ZM131.377 105.58V116.52H133.317V105.58H131.377ZM131.317 101.66V103.78H133.377V101.66H131.317ZM139.613 105.38C136.613 105.38 134.733 107.18 134.733 110.36V111.7C134.733 114.86 136.613 116.68 139.613 116.68C142.613 116.68 144.493 114.86 144.493 111.7V110.36C144.493 107.2 142.613 105.38 139.613 105.38ZM139.613 114.98C137.873 114.98 136.693 113.86 136.693 111.54V110.52C136.693 108.2 137.873 107.08 139.613 107.08C141.353 107.08 142.533 108.2 142.533 110.52V111.54C142.533 113.86 141.353 114.98 139.613 114.98ZM154.871 109.28C154.871 106.64 153.151 105.38 151.031 105.38C149.531 105.38 148.411 105.94 147.751 106.96H147.731V105.58H145.851V116.52H147.791V109.74C147.791 108.02 149.231 107.1 150.551 107.1C152.171 107.1 152.931 107.88 152.931 109.72V116.52H154.871V109.28ZM66.9791 141C65.6591 141 64.5391 140.5 63.5591 139.84L62.6591 141.36C63.6991 142.16 65.2391 142.68 67.0591 142.68C69.5991 142.68 71.2191 141.34 71.2191 139.62V139.36C71.2191 137.34 69.9591 136.54 67.2991 136.04C65.5991 135.72 64.9391 135.4 64.9391 134.54V134.36C64.9391 133.6 65.5991 133.04 67.2191 133.04C68.3191 133.04 69.3791 133.38 70.0991 133.92L70.9591 132.46C69.8791 131.7 68.5591 131.38 67.0791 131.38C64.2391 131.38 62.9991 132.82 62.9991 134.34V134.58C62.9991 136.5 64.3391 137.28 66.7591 137.78C68.8191 138.2 69.2591 138.5 69.2591 139.42V139.58C69.2591 140.46 68.4191 141 66.9791 141ZM72.1801 138.82C72.1801 141.46 73.8601 142.72 75.9801 142.72C77.4801 142.72 78.5601 142.16 79.2201 141.14H79.2401V142.52H81.1201V131.58H79.1801V138.36C79.1801 140.08 77.7801 141 76.4601 141C74.8401 141 74.1201 140.22 74.1201 138.38V131.58H72.1801V138.82ZM84.9746 127.4H83.0346V142.52H84.9146V141.24H84.9546C85.4346 142.02 86.3946 142.68 88.0346 142.68C90.5946 142.68 92.3746 140.94 92.3746 137.98V136.04C92.3746 133.08 90.8546 131.38 88.0946 131.38C86.8946 131.38 85.6746 131.76 84.9746 132.84V127.4ZM84.9546 135.86C84.9546 134.16 86.2546 133.08 87.8346 133.08C89.4546 133.08 90.4546 134.28 90.4546 136.36V137.7C90.4546 139.76 89.4746 140.98 87.8346 140.98C86.1546 140.98 84.9546 139.76 84.9546 138.62V135.86ZM108.769 135.34C108.769 132.82 107.389 131.38 105.149 131.38C103.429 131.38 102.449 132.14 101.749 133.2C101.189 132.04 100.069 131.38 98.6087 131.38C97.0887 131.38 96.1087 132.1 95.6887 133.06H95.6687V131.58H93.7487V142.52H95.6887V135.6C95.6887 133.88 97.0287 133.14 98.2287 133.14C99.6087 133.14 100.289 134.06 100.289 135.96V142.52H102.229V135.7C102.229 133.92 103.549 133.14 104.769 133.14C106.149 133.14 106.829 134.06 106.829 135.96V142.52H108.769V135.34ZM110.597 131.58V142.52H112.537V131.58H110.597ZM110.537 127.66V129.78H112.597V127.66H110.537ZM117.913 141C116.593 141 115.473 140.5 114.493 139.84L113.593 141.36C114.633 142.16 116.173 142.68 117.993 142.68C120.533 142.68 122.153 141.34 122.153 139.62V139.36C122.153 137.34 120.893 136.54 118.233 136.04C116.533 135.72 115.873 135.4 115.873 134.54V134.36C115.873 133.6 116.533 133.04 118.153 133.04C119.253 133.04 120.313 133.38 121.033 133.92L121.893 132.46C120.813 131.7 119.493 131.38 118.013 131.38C115.173 131.38 113.933 132.82 113.933 134.34V134.58C113.933 136.5 115.273 137.28 117.693 137.78C119.753 138.2 120.193 138.5 120.193 139.42V139.58C120.193 140.46 119.353 141 117.913 141ZM126.674 141C125.354 141 124.234 140.5 123.254 139.84L122.354 141.36C123.394 142.16 124.934 142.68 126.754 142.68C129.294 142.68 130.914 141.34 130.914 139.62V139.36C130.914 137.34 129.654 136.54 126.994 136.04C125.294 135.72 124.634 135.4 124.634 134.54V134.36C124.634 133.6 125.294 133.04 126.914 133.04C128.014 133.04 129.074 133.38 129.794 133.92L130.654 132.46C129.574 131.7 128.254 131.38 126.774 131.38C123.934 131.38 122.694 132.82 122.694 134.34V134.58C122.694 136.5 124.034 137.28 126.454 137.78C128.514 138.2 128.954 138.5 128.954 139.42V139.58C128.954 140.46 128.114 141 126.674 141ZM132.095 131.58V142.52H134.035V131.58H132.095ZM132.035 127.66V129.78H134.095V127.66H132.035ZM140.33 131.38C137.33 131.38 135.45 133.18 135.45 136.36V137.7C135.45 140.86 137.33 142.68 140.33 142.68C143.33 142.68 145.21 140.86 145.21 137.7V136.36C145.21 133.2 143.33 131.38 140.33 131.38ZM140.33 140.98C138.59 140.98 137.41 139.86 137.41 137.54V136.52C137.41 134.2 138.59 133.08 140.33 133.08C142.07 133.08 143.25 134.2 143.25 136.52V137.54C143.25 139.86 142.07 140.98 140.33 140.98ZM155.588 135.28C155.588 132.64 153.868 131.38 151.748 131.38C150.248 131.38 149.128 131.94 148.468 132.96H148.448V131.58H146.568V142.52H148.508V135.74C148.508 134.02 149.948 133.1 151.268 133.1C152.888 133.1 153.648 133.88 153.648 135.72V142.52H155.588V135.28Z" fill="#222222"/>
<path d="M89.6617 85.046C88.5457 85.046 86.9617 84.416 85.9897 83.678L85.0897 85.136C86.1697 86 87.7717 86.666 89.6077 86.666C92.2717 86.666 94.2337 85.442 94.2337 83.066V82.742C94.2337 80.942 93.2437 79.808 90.0397 79.088C88.1137 78.656 87.0517 78.224 87.0517 77.036V76.748C87.0517 75.722 88.1137 74.894 89.7337 74.894C90.9217 74.894 91.8757 75.164 92.8297 75.812L93.6757 74.426C92.5777 73.688 91.2997 73.292 89.7157 73.292C86.7277 73.292 85.2697 75.002 85.2697 76.766V77.09C85.2697 79.43 87.1417 80.186 89.5897 80.708C91.6957 81.158 92.4337 81.734 92.4337 82.868V83.156C92.4337 84.182 91.4977 85.046 89.6617 85.046ZM100.088 86.468V75.02H104.048V73.49H94.3455V75.02H98.3055V86.468H100.088ZM104.737 73.49V86.468H112.945V84.938H106.519V80.582H112.441V79.052H106.519V75.02H112.819V73.49H104.737ZM114.415 86.468H116.197V81.41H119.059C121.885 81.41 123.361 79.682 123.361 77.576V77.198C123.361 75.074 121.993 73.49 119.059 73.49H114.415V86.468ZM118.951 75.038C120.625 75.038 121.561 75.74 121.561 77.216V77.54C121.561 79.106 120.625 79.862 118.753 79.862H116.197V75.038H118.951ZM130.618 86.468V73.49H129.124L124.948 75.938L125.794 77.378L128.836 75.578V86.468H130.618Z" fill="#5082E6"/>
<defs>
<filter id="filter0_d_182_8040" x="262" y="4" width="230" height="230" filterUnits="userSpaceOnUse" color-interpolation-filters="sRGB">
<feFlood flood-opacity="0" result="BackgroundImageFix"/>
<feColorMatrix in="SourceAlpha" type="matrix" values="0 0 0 0 0 0 0 0 0 0 0 0 0 0 0 0 0 0 127 0" result="hardAlpha"/>
<feOffset dx="10" dy="10"/>
<feGaussianBlur stdDeviation="10"/>
<feColorMatrix type="matrix" values="0 0 0 0 0 0 0 0 0 0 0 0 0 0 0 0 0 0 0.102 0"/>
<feBlend mode="normal" in2="BackgroundImageFix" result="effect1_dropShadow_182_8040"/>
<feBlend mode="normal" in="SourceGraphic" in2="effect1_dropShadow_182_8040" result="shape"/>
</filter>
<filter id="filter1_d_182_8040" x="518" y="4" width="230" height="230" filterUnits="userSpaceOnUse" color-interpolation-filters="sRGB">
<feFlood flood-opacity="0" result="BackgroundImageFix"/>
<feColorMatrix in="SourceAlpha" type="matrix" values="0 0 0 0 0 0 0 0 0 0 0 0 0 0 0 0 0 0 127 0" result="hardAlpha"/>
<feOffset dx="10" dy="10"/>
<feGaussianBlur stdDeviation="10"/>
<feColorMatrix type="matrix" values="0 0 0 0 0 0 0 0 0 0 0 0 0 0 0 0 0 0 0.102 0"/>
<feBlend mode="normal" in2="BackgroundImageFix" result="effect1_dropShadow_182_8040"/>
<feBlend mode="normal" in="SourceGraphic" in2="effect1_dropShadow_182_8040" result="shape"/>
</filter>
<filter id="filter2_d_182_8040" x="776" y="4" width="230" height="230" filterUnits="userSpaceOnUse" color-interpolation-filters="sRGB">
<feFlood flood-opacity="0" result="BackgroundImageFix"/>
<feColorMatrix in="SourceAlpha" type="matrix" values="0 0 0 0 0 0 0 0 0 0 0 0 0 0 0 0 0 0 127 0" result="hardAlpha"/>
<feOffset dx="10" dy="10"/>
<feGaussianBlur stdDeviation="10"/>
<feColorMatrix type="matrix" values="0 0 0 0 0 0 0 0 0 0 0 0 0 0 0 0 0 0 0.102 0"/>
<feBlend mode="normal" in2="BackgroundImageFix" result="effect1_dropShadow_182_8040"/>
<feBlend mode="normal" in="SourceGraphic" in2="effect1_dropShadow_182_8040" result="shape"/>
</filter>
<filter id="filter3_d_182_8040" x="4" y="4" width="230" height="230" filterUnits="userSpaceOnUse" color-interpolation-filters="sRGB">
<feFlood flood-opacity="0" result="BackgroundImageFix"/>
<feColorMatrix in="SourceAlpha" type="matrix" values="0 0 0 0 0 0 0 0 0 0 0 0 0 0 0 0 0 0 127 0" result="hardAlpha"/>
<feOffset dx="10" dy="10"/>
<feGaussianBlur stdDeviation="10"/>
<feColorMatrix type="matrix" values="0 0 0 0 0 0 0 0 0 0 0 0 0 0 0 0 0 0 0.102 0"/>
<feBlend mode="normal" in2="BackgroundImageFix" result="effect1_dropShadow_182_8040"/>
<feBlend mode="normal" in="SourceGraphic" in2="effect1_dropShadow_182_8040" result="shape"/>
</filter>
<linearGradient id="paint0_linear_182_8040" x1="22.0757" y1="109" x2="964.719" y2="109" gradientUnits="userSpaceOnUse">
<stop stop-color="#33B9A5"/>
<stop offset="0.69" stop-color="#40A7C9"/>
<stop offset="1" stop-color="#5082E6"/>
</linearGradient>
</defs>
</svg>
