<svg width="565" height="321" viewBox="0 0 565 321" fill="none" xmlns="http://www.w3.org/2000/svg">
<path d="M80 2H64V18H80V2Z" fill="#33B9A5"/>
<path d="M89.451 18.278H98.801V12.277H89.451V18.278ZM90.607 13.348H97.645V17.207H90.607V13.348ZM87.53 3.624V10.067C92.171 10.067 93.514 9.999 96.2 9.642L96.064 8.571C93.48 8.911 92.035 8.979 88.737 8.979V3.624H87.53ZM98.801 2.774H97.611V11.359H98.801V7.381H101.181V6.327H98.801V2.774ZM109.276 12.294C106.726 12.294 104.567 13.331 104.567 15.167V15.83C104.567 17.615 106.726 18.72 109.276 18.72C111.826 18.72 113.985 17.615 113.985 15.83V15.167C113.985 13.382 111.826 12.294 109.276 12.294ZM109.276 17.7C107.457 17.7 105.723 17.003 105.723 15.796V15.218C105.723 14.011 107.457 13.314 109.276 13.314C111.095 13.314 112.829 14.011 112.829 15.218V15.796C112.829 17.003 111.095 17.7 109.276 17.7ZM105.808 7.942C105.893 8.214 106.352 8.673 107.134 9.336C107.712 9.829 108.46 10.441 109.361 11.121L110.075 10.288C109.327 9.744 108.426 9.03 107.593 8.299C106.454 7.279 106.352 6.871 106.352 5.613V3.471H105.128V5.647C105.128 6.922 105.009 7.364 103.938 8.435C103.173 9.2 102.102 10.084 101.184 10.764L101.932 11.631C102.867 10.883 103.87 10.033 104.465 9.472C105.213 8.758 105.74 8.231 105.791 7.942H105.808ZM109.208 6.276V7.33H112.71V11.937H113.9V2.774H112.71V6.276H109.208Z" fill="#555555"/>
<path d="M152 2H136V18H152V2Z" fill="#FFC531"/>
<path d="M171.481 2.774H170.308V6.531H166.551C166.041 4.848 164.783 3.879 162.981 3.879C160.584 3.879 159.156 5.545 159.156 8.367V9.965C159.156 12.804 160.584 14.47 162.981 14.47C164.8 14.47 166.058 13.518 166.551 11.801H170.308V18.329H171.481V2.774ZM165.633 9.761C165.633 12.345 164.579 13.365 162.981 13.365C161.383 13.365 160.329 12.345 160.329 9.761V8.588C160.329 6.004 161.383 5.001 162.981 5.001C164.579 5.001 165.633 6.004 165.633 8.588V9.761ZM166.806 8.384C166.806 8.129 166.789 7.874 166.772 7.619H170.308V10.713H166.772C166.789 10.475 166.806 10.22 166.806 9.965V8.384ZM181.276 12.294C178.726 12.294 176.567 13.331 176.567 15.167V15.83C176.567 17.615 178.726 18.72 181.276 18.72C183.826 18.72 185.985 17.615 185.985 15.83V15.167C185.985 13.382 183.826 12.294 181.276 12.294ZM181.276 17.7C179.457 17.7 177.723 17.003 177.723 15.796V15.218C177.723 14.011 179.457 13.314 181.276 13.314C183.095 13.314 184.829 14.011 184.829 15.218V15.796C184.829 17.003 183.095 17.7 181.276 17.7ZM177.808 7.942C177.893 8.214 178.352 8.673 179.134 9.336C179.712 9.829 180.46 10.441 181.361 11.121L182.075 10.288C181.327 9.744 180.426 9.03 179.593 8.299C178.454 7.279 178.352 6.871 178.352 5.613V3.471H177.128V5.647C177.128 6.922 177.009 7.364 175.938 8.435C175.173 9.2 174.102 10.084 173.184 10.764L173.932 11.631C174.867 10.883 175.87 10.033 176.465 9.472C177.213 8.758 177.74 8.231 177.791 7.942H177.808ZM181.208 6.276V7.33H184.71V11.937H185.9V2.774H184.71V6.276H181.208Z" fill="#555555"/>
<path d="M494 39H64V93H494V39Z" fill="#33B9A5"/>
<path d="M564 39H494V93H564V39Z" fill="#FFC531"/>
<path d="M463.7 61.8C463.7 60.44 464.68 59.62 466.1 59.62C467.54 59.62 468.5 60.44 468.5 61.8V62.02C468.5 63.44 467.46 64.3 466.1 64.3C464.76 64.3 463.7 63.44 463.7 62.02V61.8ZM463.32 68.46C463.32 66.86 464.56 66.04 466.12 66.04C467.7 66.04 468.88 66.9 468.88 68.46V68.68C468.88 70.04 467.84 70.96 466.12 70.96C464.4 70.96 463.32 70.04 463.32 68.68V68.46ZM461.28 68.78C461.28 71.08 463.08 72.74 466.1 72.74C469.12 72.74 470.92 71.08 470.92 68.78V68.44C470.92 66.86 469.84 65.54 468.44 65.12C469.84 64.4 470.5 63.16 470.5 61.94V61.66C470.5 59.6 468.88 57.88 466.1 57.88C463.28 57.88 461.7 59.6 461.7 61.66V61.94C461.7 63.16 462.38 64.46 463.76 65.12C462.38 65.54 461.28 66.86 461.28 68.44V68.78ZM481.527 58.86C480.447 58.2 479.087 57.88 477.787 57.88C474.547 57.88 472.247 59.74 472.247 66.06V66.8C472.247 70.66 474.027 72.74 477.267 72.74C480.207 72.74 482.187 70.86 482.187 68.1V67.66C482.187 64.84 480.207 63.06 477.647 63.06C476.047 63.06 474.687 63.86 474.207 64.7C474.347 60.9 475.707 59.7 477.667 59.7C478.807 59.7 479.867 60.02 480.767 60.54L481.527 58.86ZM474.267 67.62C474.267 66.04 475.487 64.82 477.247 64.82C479.007 64.82 480.207 65.82 480.207 67.74V68C480.207 69.88 479.047 70.94 477.187 70.94C475.387 70.94 474.267 69.76 474.267 67.9V67.62Z" fill="white"/>
<path d="M538.5 72.52V58.1H536.84L532.2 60.82L533.14 62.42L536.52 60.42V72.52H538.5ZM548.747 63.32V67.74H543.867L550.507 58.1H548.327L541.547 67.94V69.42H548.747V72.52H550.707V69.42H552.747V67.74H550.707V63.32H548.747Z" fill="white"/>
<path d="M504 187H64V241H504V187Z" fill="#33B9A5"/>
<path d="M564 187H504V241H564V187Z" fill="#FFC531"/>
<path d="M473.7 209.8C473.7 208.44 474.68 207.62 476.1 207.62C477.54 207.62 478.5 208.44 478.5 209.8V210.02C478.5 211.44 477.46 212.3 476.1 212.3C474.76 212.3 473.7 211.44 473.7 210.02V209.8ZM473.32 216.46C473.32 214.86 474.56 214.04 476.12 214.04C477.7 214.04 478.88 214.9 478.88 216.46V216.68C478.88 218.04 477.84 218.96 476.12 218.96C474.4 218.96 473.32 218.04 473.32 216.68V216.46ZM471.28 216.78C471.28 219.08 473.08 220.74 476.1 220.74C479.12 220.74 480.92 219.08 480.92 216.78V216.44C480.92 214.86 479.84 213.54 478.44 213.12C479.84 212.4 480.5 211.16 480.5 209.94V209.66C480.5 207.6 478.88 205.88 476.1 205.88C473.28 205.88 471.7 207.6 471.7 209.66V209.94C471.7 211.16 472.38 212.46 473.76 213.12C472.38 213.54 471.28 214.86 471.28 216.44V216.78ZM484.707 209.8C484.707 208.44 485.687 207.62 487.107 207.62C488.547 207.62 489.507 208.44 489.507 209.8V210.02C489.507 211.44 488.467 212.3 487.107 212.3C485.767 212.3 484.707 211.44 484.707 210.02V209.8ZM484.327 216.46C484.327 214.86 485.567 214.04 487.127 214.04C488.707 214.04 489.887 214.9 489.887 216.46V216.68C489.887 218.04 488.847 218.96 487.127 218.96C485.407 218.96 484.327 218.04 484.327 216.68V216.46ZM482.287 216.78C482.287 219.08 484.087 220.74 487.107 220.74C490.127 220.74 491.927 219.08 491.927 216.78V216.44C491.927 214.86 490.847 213.54 489.447 213.12C490.847 212.4 491.507 211.16 491.507 209.94V209.66C491.507 207.6 489.887 205.88 487.107 205.88C484.287 205.88 482.707 207.6 482.707 209.66V209.94C482.707 211.16 483.387 212.46 484.767 213.12C483.387 213.54 482.287 214.86 482.287 216.44V216.78Z" fill="white"/>
<path d="M538.5 220.52V206.1H536.84L532.2 208.82L533.14 210.42L536.52 208.42V220.52H538.5ZM542.287 218.86V220.52H551.967V218.8H544.727L549.227 214C550.527 212.62 551.447 211.26 551.447 209.7V209.5C551.447 207.4 549.867 205.88 546.947 205.88C544.287 205.88 543.007 207.54 542.327 208.78L543.847 209.76C544.787 208.08 545.927 207.66 546.987 207.66C548.487 207.66 549.467 208.36 549.467 209.5V209.66C549.467 210.42 549.307 211.22 547.667 213.02L542.287 218.86Z" fill="white"/>
<path d="M498 113H64V167H498V113Z" fill="#33B9A5"/>
<path d="M564 113H498V167H564V113Z" fill="#FFC531"/>
<path d="M452.7 135.8C452.7 134.44 453.68 133.62 455.1 133.62C456.54 133.62 457.5 134.44 457.5 135.8V136.02C457.5 137.44 456.46 138.3 455.1 138.3C453.76 138.3 452.7 137.44 452.7 136.02V135.8ZM452.32 142.46C452.32 140.86 453.56 140.04 455.12 140.04C456.7 140.04 457.88 140.9 457.88 142.46V142.68C457.88 144.04 456.84 144.96 455.12 144.96C453.4 144.96 452.32 144.04 452.32 142.68V142.46ZM450.28 142.78C450.28 145.08 452.08 146.74 455.1 146.74C458.12 146.74 459.92 145.08 459.92 142.78V142.44C459.92 140.86 458.84 139.54 457.44 139.12C458.84 138.4 459.5 137.16 459.5 135.94V135.66C459.5 133.6 457.88 131.88 455.1 131.88C452.28 131.88 450.7 133.6 450.7 135.66V135.94C450.7 137.16 451.38 138.46 452.76 139.12C451.38 139.54 450.28 140.86 450.28 142.44V142.78ZM470.527 132.86C469.447 132.2 468.087 131.88 466.787 131.88C463.547 131.88 461.247 133.74 461.247 140.06V140.8C461.247 144.66 463.027 146.74 466.267 146.74C469.207 146.74 471.187 144.86 471.187 142.1V141.66C471.187 138.84 469.207 137.06 466.647 137.06C465.047 137.06 463.687 137.86 463.207 138.7C463.347 134.9 464.707 133.7 466.667 133.7C467.807 133.7 468.867 134.02 469.767 134.54L470.527 132.86ZM463.267 141.62C463.267 140.04 464.487 138.82 466.247 138.82C468.007 138.82 469.207 139.82 469.207 141.74V142C469.207 143.88 468.047 144.94 466.187 144.94C464.387 144.94 463.267 143.76 463.267 141.9V141.62ZM472.814 147.34H475.094V145.04H472.814V147.34ZM479.393 135.8C479.393 134.44 480.373 133.62 481.793 133.62C483.233 133.62 484.193 134.44 484.193 135.8V136.02C484.193 137.44 483.153 138.3 481.793 138.3C480.453 138.3 479.393 137.44 479.393 136.02V135.8ZM479.013 142.46C479.013 140.86 480.253 140.04 481.813 140.04C483.393 140.04 484.573 140.9 484.573 142.46V142.68C484.573 144.04 483.533 144.96 481.813 144.96C480.093 144.96 479.013 144.04 479.013 142.68V142.46ZM476.973 142.78C476.973 145.08 478.773 146.74 481.793 146.74C484.813 146.74 486.613 145.08 486.613 142.78V142.44C486.613 140.86 485.533 139.54 484.133 139.12C485.533 138.4 486.193 137.16 486.193 135.94V135.66C486.193 133.6 484.573 131.88 481.793 131.88C478.973 131.88 477.393 133.6 477.393 135.66V135.94C477.393 137.16 478.073 138.46 479.453 139.12C478.073 139.54 476.973 140.86 476.973 142.44V142.78Z" fill="white"/>
<path d="M523.5 146.52V132.1H521.84L517.2 134.82L518.14 136.42L521.52 134.42V146.52H523.5ZM528.927 135.08C529.707 134.06 530.547 133.64 531.727 133.64C533.027 133.64 534.107 134.28 534.107 135.54V135.7C534.107 136.94 533.487 138.14 531.687 138.14H529.987V139.86H531.767C533.447 139.86 534.747 140.42 534.747 142.32V142.58C534.747 143.88 533.787 144.94 531.687 144.94C530.447 144.94 529.447 144.58 528.047 143.56L527.067 145.14C528.427 146.22 530.007 146.74 531.687 146.74C535.227 146.74 536.727 144.68 536.727 142.56V142.26C536.727 140.6 535.747 139.28 533.807 138.94C535.587 138.3 536.067 136.82 536.067 135.68V135.48C536.067 133.32 534.367 131.88 531.707 131.88C529.547 131.88 528.347 132.84 527.507 134.04L528.927 135.08ZM538.814 147.34H541.094V145.04H538.814V147.34ZM542.973 144.86V146.52H552.653V144.8H545.413L549.913 140C551.213 138.62 552.133 137.26 552.133 135.7V135.5C552.133 133.4 550.553 131.88 547.633 131.88C544.973 131.88 543.693 133.54 543.013 134.78L544.533 135.76C545.473 134.08 546.613 133.66 547.673 133.66C549.173 133.66 550.153 134.36 550.153 135.5V135.66C550.153 136.42 549.993 137.22 548.353 139.02L542.973 144.86Z" fill="white"/>
<path d="M1.54 219.32V220.52H10.7V219.24H3.3L7.78 213.98C9.02 212.54 10.18 211.24 10.18 209.68V209.48C10.18 207.32 8.54 205.88 5.98 205.88C3.58 205.88 2.24 207.4 1.56 208.64L2.68 209.34C3.62 207.66 4.76 207.16 6.02 207.16C7.76 207.16 8.76 208.06 8.76 209.5V209.66C8.76 210.42 8.5 211.16 6.92 213.02L1.54 219.32ZM21.6922 212.18C21.6922 208.14 20.1722 205.88 16.7722 205.88C13.4122 205.88 11.8922 208.14 11.8922 212.18V214.42C11.8922 218.46 13.3522 220.74 16.7722 220.74C20.2322 220.74 21.6922 218.5 21.6922 214.42V212.18ZM20.2522 214.44C20.2522 218.04 19.0722 219.48 16.7722 219.48C14.5522 219.48 13.3322 218.02 13.3322 214.44V212.16C13.3322 208.62 14.5522 207.14 16.7722 207.14C19.0722 207.14 20.2522 208.6 20.2522 212.16V214.44ZM23.1244 219.32V220.52H32.2844V219.24H24.8844L29.3644 213.98C30.6044 212.54 31.7644 211.24 31.7644 209.68V209.48C31.7644 207.32 30.1244 205.88 27.5644 205.88C25.1644 205.88 23.8244 207.4 23.1444 208.64L24.2644 209.34C25.2044 207.66 26.3444 207.16 27.6044 207.16C29.3444 207.16 30.3444 208.06 30.3444 209.5V209.66C30.3444 210.42 30.0844 211.16 28.5044 213.02L23.1244 219.32ZM43.2766 212.18C43.2766 208.14 41.7566 205.88 38.3566 205.88C34.9966 205.88 33.4766 208.14 33.4766 212.18V214.42C33.4766 218.46 34.9366 220.74 38.3566 220.74C41.8166 220.74 43.2766 218.5 43.2766 214.42V212.18ZM41.8366 214.44C41.8366 218.04 40.6566 219.48 38.3566 219.48C36.1366 219.48 34.9166 218.02 34.9166 214.44V212.16C34.9166 208.62 36.1366 207.14 38.3566 207.14C40.6566 207.14 41.8366 208.6 41.8366 212.16V214.44Z" fill="#222222"/>
<path d="M1.54 145.32V146.52H10.7V145.24H3.3L7.78 139.98C9.02 138.54 10.18 137.24 10.18 135.68V135.48C10.18 133.32 8.54 131.88 5.98 131.88C3.58 131.88 2.24 133.4 1.56 134.64L2.68 135.34C3.62 133.66 4.76 133.16 6.02 133.16C7.76 133.16 8.76 134.06 8.76 135.5V135.66C8.76 136.42 8.5 137.16 6.92 139.02L1.54 145.32ZM21.6922 138.18C21.6922 134.14 20.1722 131.88 16.7722 131.88C13.4122 131.88 11.8922 134.14 11.8922 138.18V140.42C11.8922 144.46 13.3522 146.74 16.7722 146.74C20.2322 146.74 21.6922 144.5 21.6922 140.42V138.18ZM20.2522 140.44C20.2522 144.04 19.0722 145.48 16.7722 145.48C14.5522 145.48 13.3322 144.02 13.3322 140.44V138.16C13.3322 134.62 14.5522 133.14 16.7722 133.14C19.0722 133.14 20.2522 134.6 20.2522 138.16V140.44ZM23.1244 145.32V146.52H32.2844V145.24H24.8844L29.3644 139.98C30.6044 138.54 31.7644 137.24 31.7644 135.68V135.48C31.7644 133.32 30.1244 131.88 27.5644 131.88C25.1644 131.88 23.8244 133.4 23.1444 134.64L24.2644 135.34C25.2044 133.66 26.3444 133.16 27.6044 133.16C29.3444 133.16 30.3444 134.06 30.3444 135.5V135.66C30.3444 136.42 30.0844 137.16 28.5044 139.02L23.1244 145.32ZM39.9966 146.52V132.1H38.9366L34.4766 134.86L35.1166 135.98L38.5966 133.86V146.52H39.9966Z" fill="#222222"/>
<path d="M1.54 71.32V72.52H10.7V71.24H3.3L7.78 65.98C9.02 64.54 10.18 63.24 10.18 61.68V61.48C10.18 59.32 8.54 57.88 5.98 57.88C3.58 57.88 2.24 59.4 1.56 60.64L2.68 61.34C3.62 59.66 4.76 59.16 6.02 59.16C7.76 59.16 8.76 60.06 8.76 61.5V61.66C8.76 62.42 8.5 63.16 6.92 65.02L1.54 71.32ZM21.6922 64.18C21.6922 60.14 20.1722 57.88 16.7722 57.88C13.4122 57.88 11.8922 60.14 11.8922 64.18V66.42C11.8922 70.46 13.3522 72.74 16.7722 72.74C20.2322 72.74 21.6922 70.5 21.6922 66.42V64.18ZM20.2522 66.44C20.2522 70.04 19.0722 71.48 16.7722 71.48C14.5522 71.48 13.3322 70.02 13.3322 66.44V64.16C13.3322 60.62 14.5522 59.14 16.7722 59.14C19.0722 59.14 20.2522 60.6 20.2522 64.16V66.44ZM23.1244 71.32V72.52H32.2844V71.24H24.8844L29.3644 65.98C30.6044 64.54 31.7644 63.24 31.7644 61.68V61.48C31.7644 59.32 30.1244 57.88 27.5644 57.88C25.1644 57.88 23.8244 59.4 23.1444 60.64L24.2644 61.34C25.2044 59.66 26.3444 59.16 27.6044 59.16C29.3444 59.16 30.3444 60.06 30.3444 61.5V61.66C30.3444 62.42 30.0844 63.16 28.5044 65.02L23.1244 71.32ZM33.9166 71.32V72.52H43.0766V71.24H35.6766L40.1566 65.98C41.3966 64.54 42.5566 63.24 42.5566 61.68V61.48C42.5566 59.32 40.9166 57.88 38.3566 57.88C35.9566 57.88 34.6166 59.4 33.9366 60.64L35.0566 61.34C35.9966 59.66 37.1366 59.16 38.3966 59.16C40.1366 59.16 41.1366 60.06 41.1366 61.5V61.66C41.1366 62.42 40.8766 63.16 39.2966 65.02L33.9166 71.32Z" fill="#222222"/>
<path d="M517.265 7.14C517.265 4.74 517.85 2.49 519.32 0.51H518.36C516.875 2.28 516.155 4.545 516.155 7.215V7.815C516.155 10.485 516.875 12.78 518.36 14.55H519.32C517.775 12.435 517.265 10.17 517.265 7.89V7.14ZM520.062 7.68C524.262 7.68 525.462 7.635 527.697 7.365L527.577 6.435C525.432 6.69 524.142 6.735 521.127 6.735V2.175H526.347V1.23H520.062V7.68ZM530.112 0.329999H529.062V10.14H530.112V4.995H532.212V4.065H530.112V0.329999ZM522.972 9.36H521.907V13.875H530.532V12.93H522.972V9.36ZM536.684 6.45C538.619 6.45 540.179 5.385 540.179 3.855V3.225C540.179 1.695 538.619 0.63 536.684 0.63C534.749 0.63 533.189 1.695 533.189 3.225V3.855C533.189 5.385 534.749 6.45 536.684 6.45ZM536.684 1.575C538.019 1.575 539.159 2.28 539.159 3.3V3.78C539.159 4.8 538.019 5.505 536.684 5.505C535.349 5.505 534.209 4.8 534.209 3.78V3.3C534.209 2.28 535.349 1.575 536.684 1.575ZM543.554 0.329999H542.489V14.04H543.554V0.329999ZM541.439 7.56C539.429 7.785 536.699 7.89 532.364 7.89V8.82C533.864 8.82 535.094 8.805 536.174 8.79V13.605H537.254V8.745C538.904 8.685 540.164 8.61 541.529 8.475L541.439 7.56ZM545.837 11.625H547.352V10.125H545.837V11.625ZM545.837 4.995H547.352V3.495H545.837V4.995ZM551.742 12.375L558.192 1.575H557.247L550.782 12.375H551.742ZM557.637 6.855C556.182 6.855 555.312 7.77 555.312 9.345V10.02C555.312 11.595 556.182 12.51 557.637 12.51C559.092 12.51 559.962 11.595 559.962 10.02V9.345C559.962 7.77 559.092 6.855 557.637 6.855ZM557.637 11.745C556.767 11.745 556.182 11.25 556.182 9.99V9.375C556.182 8.13 556.767 7.62 557.637 7.62C558.507 7.62 559.092 8.13 559.092 9.375V9.99C559.092 11.25 558.507 11.745 557.637 11.745ZM551.352 1.455C549.897 1.455 549.027 2.37 549.027 3.945V4.62C549.027 6.195 549.897 7.11 551.352 7.11C552.807 7.11 553.677 6.195 553.677 4.62V3.945C553.677 2.37 552.807 1.455 551.352 1.455ZM551.352 6.345C550.482 6.345 549.897 5.85 549.897 4.59V3.975C549.897 2.73 550.482 2.22 551.352 2.22C552.222 2.22 552.807 2.73 552.807 3.975V4.59C552.807 5.85 552.222 6.345 551.352 6.345ZM562.544 7.89C562.544 10.17 562.034 12.435 560.489 14.55H561.449C562.934 12.78 563.654 10.485 563.654 7.815V7.215C563.654 4.545 562.934 2.28 561.449 0.51H560.489C561.959 2.49 562.544 4.74 562.544 7.14V7.89Z" fill="#555555"/>
<path d="M212.32 313.4H210.34V319.6H222.3V317.88H212.32V313.4ZM221.86 314.48V301.36H219.9V314.48H221.86ZM212.42 308.2C212.54 308.5 212.96 308.92 213.56 309.42C214.52 310.22 215.5 311.04 216.52 311.82L217.68 310.44C216.5 309.58 215.32 308.64 214.38 307.78C213.42 306.9 213.34 306.24 213.34 305V302.22H211.34V305.08C211.34 306.48 211.06 307.24 210.04 308.26C209.34 308.96 208.06 310.04 206.78 311.02L207.96 312.42C209.02 311.58 210.24 310.56 211.06 309.8C211.68 309.24 212.3 308.54 212.4 308.2H212.42ZM229.883 319.76V312.44H234.323V319.76H236.303V312.44H240.563V310.76H237.443C237.823 308.78 238.003 306.76 238.003 304.86V302.5H225.763V304.24H236.023V305.32C236.023 307.08 235.863 308.82 235.463 310.76H223.643V312.44H227.903V319.76H229.883ZM256.706 301.36H254.766V308.02H252.666V301.74H250.726V318.9H252.666V309.74H254.766V319.8H256.706V301.36ZM245.346 310.98C245.486 311.38 245.786 311.82 246.186 312.3C246.986 313.26 247.826 314.14 248.886 315.2L250.226 313.88C249.046 312.74 248.166 311.8 247.326 310.72C246.526 309.68 246.266 308.74 246.266 307.6V305.82H249.406V304.16H246.266V301.76H244.346V304.16H241.006V305.82H244.346V307.6C244.346 308.74 244.146 309.72 243.346 310.76C242.486 311.88 241.446 312.96 240.246 314.1L241.586 315.44C242.646 314.36 243.666 313.26 244.466 312.3C244.866 311.82 245.186 311.38 245.326 310.98H245.346ZM266.109 301.6C262.609 301.6 260.189 302.84 260.189 304.94V305.5C260.189 306.62 260.849 307.48 262.009 308.06V310.48H257.649V312.16H274.569V310.48H270.229V308.04C271.369 307.48 272.029 306.6 272.029 305.5V304.94C272.029 302.84 269.609 301.6 266.109 301.6ZM266.109 320.32C269.909 320.32 271.929 318.64 271.929 317.02V316.34C271.929 314.72 269.909 313.04 266.109 313.04C262.309 313.04 260.289 314.72 260.289 316.34V317.02C260.289 318.66 262.309 320.32 266.109 320.32ZM266.109 307.2C263.789 307.2 262.129 306.48 262.129 305.42V305.02C262.129 303.96 263.789 303.24 266.109 303.24C268.429 303.24 270.089 303.96 270.089 305.02V305.42C270.089 306.48 268.429 307.2 266.109 307.2ZM266.109 314.66C268.509 314.66 269.969 315.64 269.969 316.5V316.86C269.969 317.72 268.509 318.7 266.109 318.7C263.709 318.7 262.249 317.72 262.249 316.86V316.5C262.249 315.64 263.709 314.66 266.109 314.66ZM266.109 308.84C266.889 308.84 267.609 308.78 268.269 308.66V310.48H263.969V308.68C264.609 308.8 265.329 308.84 266.109 308.84ZM284.193 313.48H282.213V319.6H294.113V317.88H284.193V313.48ZM293.733 314.52V301.36H291.773V314.52H293.733ZM286.573 307.28C286.573 308.5 285.773 309.86 283.853 309.86C281.953 309.86 281.133 308.5 281.133 307.28V306.4C281.133 305.18 281.933 303.82 283.853 303.82C285.773 303.82 286.573 305.18 286.573 306.4V307.28ZM279.233 307.36C279.233 309.18 280.733 311.58 283.853 311.58C286.973 311.58 288.473 309.18 288.473 307.36V306.32C288.473 304.5 286.973 302.1 283.853 302.1C280.733 302.1 279.233 304.5 279.233 306.32V307.36ZM301.536 308.62C304.356 308.62 306.076 307.12 306.076 305.48V304.84C306.076 303.2 304.356 301.7 301.536 301.7C298.716 301.7 296.996 303.2 296.996 304.84V305.48C296.996 307.12 298.716 308.62 301.536 308.62ZM310.856 315.64V301.36H308.896V312.34H304.996V314H308.896V315.64H310.856ZM300.756 314.68H298.776V319.62H311.236V317.92H300.756V314.68ZM302.316 313.94V311.24C304.256 311.16 305.996 311.04 307.696 310.86L307.556 309.2C303.176 309.56 300.216 309.66 295.796 309.64V311.36C297.436 311.36 298.956 311.34 300.356 311.3V313.94H302.316ZM301.536 306.96C299.836 306.96 298.876 306.14 298.876 305.36V304.96C298.876 304.18 299.836 303.38 301.536 303.38C303.236 303.38 304.196 304.18 304.196 304.96V305.36C304.196 306.14 303.236 306.96 301.536 306.96ZM320.339 316.82C320.339 318.76 322.459 320.32 325.999 320.32C329.539 320.32 331.659 318.76 331.659 316.82V316.02C331.659 314.08 329.539 312.52 325.999 312.52C322.459 312.52 320.339 314.08 320.339 316.02V316.82ZM321.919 307.78C322.039 308.08 322.459 308.52 323.059 309.02C324.019 309.82 324.939 310.58 325.979 311.36L327.139 309.98C325.959 309.12 324.819 308.22 323.879 307.36C322.919 306.48 322.839 305.82 322.839 304.58V302.18H320.839V304.66C320.839 306.06 320.559 306.82 319.539 307.84C318.839 308.54 317.599 309.6 316.319 310.58L317.499 311.98C318.559 311.14 319.739 310.14 320.559 309.38C321.179 308.82 321.799 308.12 321.899 307.78H321.919ZM331.579 312.26V301.36H329.619V305.34H325.919V307.04H329.619V312.26H331.579ZM329.719 316.7C329.719 317.68 328.279 318.7 325.999 318.7C323.719 318.7 322.279 317.68 322.279 316.7V316.14C322.279 315.16 323.719 314.14 325.999 314.14C328.279 314.14 329.719 315.16 329.719 316.14V316.7ZM349.182 319.92V318.28H339.182V316.58H348.662V311.66H337.142V313.3H346.722V314.98H337.242V319.92H349.182ZM342.982 310.06V301.92H341.042V304.58H336.302V301.92H334.362V310.06H342.982ZM348.662 310.7V301.36H346.722V303.66H343.842V305.36H346.722V307.1H343.842V308.8H346.722V310.7H348.662ZM336.302 306.2H341.042V308.42H336.302V306.2ZM365.545 319.8V301.36H363.565V319.8H365.545ZM360.185 314.96V302.86H358.225V307.22H353.565V302.86H351.605V314.96H360.185ZM353.565 308.9H358.225V313.26H353.565V308.9ZM382.288 319.92V318.3H371.628V316.94H381.748V312.4H379.608V310.64H384.188V309H367.268V310.64H371.848V312.4H369.588V314.02H379.808V315.36H369.688V319.92H382.288ZM375.728 301.42C372.068 301.42 369.828 302.66 369.828 304.5V304.94C369.828 306.78 372.068 308.02 375.728 308.02C379.388 308.02 381.628 306.78 381.628 304.94V304.5C381.628 302.66 379.388 301.42 375.728 301.42ZM375.728 306.38C373.208 306.38 371.768 305.72 371.768 304.88V304.56C371.768 303.72 373.208 303.06 375.728 303.06C378.248 303.06 379.688 303.72 379.688 304.56V304.88C379.688 305.72 378.248 306.38 375.728 306.38ZM373.828 310.64H377.628V312.4H373.828V310.64ZM395.531 304.96V305.1C395.531 305.86 395.191 306.64 393.651 307.34C392.351 307.94 390.971 308.48 389.451 309.02L390.151 310.56C391.851 309.96 393.211 309.42 394.291 308.94C395.611 308.36 396.211 307.98 396.511 307.48H396.531C396.831 307.94 397.431 308.34 398.751 308.92C399.831 309.4 401.191 309.96 402.891 310.56L403.551 309.02C402.051 308.5 400.691 307.96 399.371 307.34C397.811 306.6 397.511 305.92 397.511 305.1V304.96H402.851V303.28H397.511V301.26H395.531V303.28H390.211V304.96H395.531ZM397.551 319.8V313.72H405.011V312.04H388.091V313.72H395.551V319.8H397.551ZM420.354 319.8V301.36H418.374V319.8H420.354ZM410.654 302.6C407.954 302.6 405.994 304.42 405.994 307.96V310.04C405.994 313.56 407.954 315.38 410.654 315.38C413.354 315.38 415.314 313.56 415.314 310.04V307.96C415.314 304.44 413.354 302.6 410.654 302.6ZM410.654 313.6C409.214 313.6 407.894 312.58 407.894 309.76V308.24C407.894 305.42 409.214 304.4 410.654 304.4C412.074 304.4 413.414 305.42 413.414 308.24V309.76C413.414 312.58 412.094 313.6 410.654 313.6Z" fill="#222222"/>
<path d="M67.06 265.635L66.955 267.915H67.945L67.84 265.635L69.76 266.88L70.21 266.025L68.08 264.99L70.21 263.97L69.76 263.115L67.84 264.36L67.945 262.065H66.955L67.045 264.36L65.14 263.115L64.675 263.97L66.805 264.99L64.675 266.025L65.14 266.88L67.06 265.635ZM75.2498 261.855V266.61H79.1348V268.305H73.3598V269.205H85.9598V268.305H80.1848V266.61H84.0698V261.855H75.2498ZM76.2848 262.755H83.0348V265.71H76.2848V262.755ZM74.9648 271.695H83.0948V275.145H84.1448V270.78H74.9648V271.695ZM86.1121 272.19V273.105H98.7121V272.19H95.0221V268.86H97.3921V267.975H95.2771V263.4H97.2571V262.515H87.5671V263.4H89.5471V267.975H87.4321V268.86H89.8021V272.19H86.1121ZM90.5971 263.4H94.2271V267.975H90.5971V263.4ZM90.8521 268.86H93.9721V272.19H90.8521V268.86ZM102.719 272.625H104.234V271.125H102.719V272.625ZM102.719 265.995H104.234V264.495H102.719V265.995ZM109.795 264.63C110.41 263.655 111.25 263.37 112.105 263.37C113.41 263.37 114.22 264.045 114.22 265.125V265.245C114.22 266.175 113.56 267.3 112.21 267.3H110.95V268.2H112.165C113.2 268.2 114.67 268.62 114.67 270.255V270.45C114.67 271.455 113.965 272.595 112.075 272.595C111.085 272.595 110.185 272.28 109.135 271.515L108.61 272.355C109.63 273.165 110.815 273.555 112.075 273.555C114.73 273.555 115.705 271.98 115.705 270.435V270.21C115.705 268.95 114.91 267.945 113.425 267.69C114.865 267.195 115.285 266.115 115.285 265.26V265.11C115.285 263.49 114.055 262.41 112.09 262.41C110.44 262.41 109.51 263.22 108.97 264.09L109.795 264.63ZM124.969 261.615H123.919V274.365H124.969V267.225H127.039V275.04H128.089V261.33H127.039V266.28H124.969V261.615ZM117.154 272.025C121.384 269.145 121.984 268.2 121.984 265.2V262.695H116.824V263.64H120.949V265.14C120.949 267.78 120.604 268.47 116.569 271.2L117.154 272.025ZM135.246 263.04V263.955H139.386V265.53H135.246V266.445H139.386V271.14H140.421V261.33H139.386V263.04H135.246ZM129.996 262.125V269.025C134.091 269.025 135.276 268.965 137.646 268.65L137.526 267.705C135.246 268.005 133.971 268.065 131.061 268.065V262.125H129.996ZM133.071 270.585H132.006V274.875H140.766V273.945H133.071V270.585ZM152.019 269.85C149.769 269.85 147.864 270.735 147.864 272.34V272.91C147.864 274.485 149.769 275.4 152.019 275.4C154.269 275.4 156.174 274.485 156.174 272.91V272.34C156.174 270.765 154.269 269.85 152.019 269.85ZM153.219 267.585C152.529 267.66 151.824 267.705 151.104 267.75V263.1H152.619V262.2H145.134V263.1H146.499V267.825H145.044V268.725C147.879 268.725 150.804 268.725 153.309 268.47L153.219 267.585ZM152.019 274.5C150.414 274.5 148.884 273.915 148.884 272.85V272.4C148.884 271.335 150.414 270.75 152.019 270.75C153.624 270.75 155.154 271.335 155.154 272.4V272.85C155.154 273.915 153.624 274.5 152.019 274.5ZM152.679 263.67V264.57H155.064V265.815H152.679V266.715H155.064V269.535H156.099V261.33H155.064V263.67H152.679ZM147.519 267.825V263.1H150.084V267.78C149.259 267.81 148.404 267.825 147.519 267.825ZM157.436 267.195V268.095H161.876V271.71H162.911V268.095H165.566V271.71H166.601V268.095H170.036V267.195H167.756C167.966 266.1 168.086 264.915 168.086 263.91V262.005H159.101V262.935H167.036V263.85C167.036 264.84 166.931 266.025 166.661 267.195H157.436ZM160.316 270.495H159.251V274.875H168.581V273.945H160.316V270.495ZM172.993 268.92V269.835H180.418V271.56H173.068V275.085H181.813V274.185H174.103V272.445H181.453V268.92H172.993ZM181.453 261.33H180.403V268.11H181.453V261.33ZM174.478 265.245C174.568 265.5 175.123 265.98 175.828 266.535C176.263 266.88 176.938 267.39 177.643 267.885L178.243 267.12C177.448 266.595 176.593 265.95 176.038 265.485C175.093 264.69 174.958 264.345 174.958 263.25V261.675H173.878V263.295C173.878 264.39 173.638 264.9 172.768 265.695C172.153 266.25 171.268 266.955 170.338 267.6L170.968 268.365C171.988 267.63 172.828 266.94 173.353 266.475C174.013 265.905 174.388 265.485 174.463 265.245H174.478ZM187.366 266.115C187.426 266.31 188.011 266.82 188.716 267.39C189.166 267.75 189.871 268.275 190.486 268.695L191.101 267.96C190.246 267.39 189.406 266.76 188.926 266.355C187.951 265.515 187.846 265.11 187.846 264.225V263.07H190.786V262.155H183.691V263.07H186.781V264.27C186.781 265.08 186.616 265.605 185.881 266.325C185.146 267.045 184.186 267.78 183.301 268.41L183.946 269.16C184.636 268.665 185.656 267.855 186.181 267.39C186.811 266.835 187.291 266.34 187.351 266.115H187.366ZM185.521 271.02H193.291V275.145H194.341V270.09H185.521V271.02ZM194.341 261.33H193.291V264.765H190.426V265.695H193.291V269.28H194.341V261.33ZM207.228 261.615H206.178V274.365H207.228V267.21H209.223V275.04H210.273V261.33H209.223V266.265H207.228V261.615ZM199.188 262.635V271.305H200.973C202.488 271.305 203.778 271.23 205.218 270.99L205.098 270.045C203.733 270.285 202.518 270.345 200.883 270.345H200.253V263.595H204.363V262.635H199.188ZM222.65 261.33H221.585V275.04H222.65V261.33ZM218.645 262.455H217.595V265.845H213.395V262.455H212.345V271.41H218.645V262.455ZM213.395 266.79H217.595V270.45H213.395V266.79ZM230.378 264.48V267.735H227.183V268.695H230.378V272.16H231.368V268.695H234.563V267.735H231.368V264.48H230.378ZM240.182 273.39V262.575H239.387L236.042 264.645L236.522 265.485L239.132 263.895V273.39H240.182ZM246.326 273.375L252.776 262.575H251.831L245.366 273.375H246.326ZM252.221 267.855C250.766 267.855 249.896 268.77 249.896 270.345V271.02C249.896 272.595 250.766 273.51 252.221 273.51C253.676 273.51 254.546 272.595 254.546 271.02V270.345C254.546 268.77 253.676 267.855 252.221 267.855ZM252.221 272.745C251.351 272.745 250.766 272.25 250.766 270.99V270.375C250.766 269.13 251.351 268.62 252.221 268.62C253.091 268.62 253.676 269.13 253.676 270.375V270.99C253.676 272.25 253.091 272.745 252.221 272.745ZM245.936 262.455C244.481 262.455 243.611 263.37 243.611 264.945V265.62C243.611 267.195 244.481 268.11 245.936 268.11C247.391 268.11 248.261 267.195 248.261 265.62V264.945C248.261 263.37 247.391 262.455 245.936 262.455ZM245.936 267.345C245.066 267.345 244.481 266.85 244.481 265.59V264.975C244.481 263.73 245.066 263.22 245.936 263.22C246.806 263.22 247.391 263.73 247.391 264.975V265.59C247.391 266.85 246.806 267.345 245.936 267.345ZM266.713 261.615H265.663V274.365H266.713V267.225H268.783V275.04H269.833V261.33H268.783V266.28H266.713V261.615ZM258.898 272.025C263.128 269.145 263.728 268.2 263.728 265.2V262.695H258.568V263.64H262.693V265.14C262.693 267.78 262.348 268.47 258.313 271.2L258.898 272.025ZM275.025 266.25C275.1 266.49 275.505 266.895 276.195 267.48C276.705 267.915 277.365 268.455 278.16 269.055L278.79 268.32C278.13 267.84 277.335 267.21 276.6 266.565C275.595 265.665 275.505 265.305 275.505 264.195V261.975H274.425V264.225C274.425 265.35 274.32 265.74 273.375 266.685C272.7 267.36 271.755 268.14 270.945 268.74L271.605 269.505C272.43 268.845 273.315 268.095 273.84 267.6C274.5 266.97 274.965 266.505 275.01 266.25H275.025ZM282.165 261.33H281.115V264.6H278.025V265.53H281.115V271.11H282.165V261.33ZM274.845 270.3H273.78V274.875H282.51V273.945H274.845V270.3Z" fill="#555555"/>
</svg>
