<svg width="345" height="198" viewBox="0 0 345 198" fill="none" xmlns="http://www.w3.org/2000/svg">
<path d="M48.7709 1.21875H39.0156V10.978H48.7709V1.21875Z" fill="#BBBBBB"/>
<path d="M53.2899 9.48821H54.0154V2.0159H53.2899V9.48821ZM58.185 3.91247C57.957 3.82956 57.6979 3.79847 57.387 3.79847C56.5372 3.79847 56.019 4.34775 55.7806 4.88667V3.90211H55.0862V9.48821H55.791V6.31688C55.791 5.27013 56.3713 4.51358 57.2937 4.51358C57.5632 4.51358 57.7808 4.55503 57.9674 4.62758L58.185 3.91247ZM61.6115 3.91247C61.3835 3.82956 61.1244 3.79847 60.8135 3.79847C59.9637 3.79847 59.4455 4.34775 59.2071 4.88667V3.90211H58.5128V9.48821H59.2175V6.31688C59.2175 5.27013 59.7979 4.51358 60.7203 4.51358C60.9897 4.51358 61.2074 4.55503 61.3939 4.62758L61.6115 3.91247ZM62.3849 6.32724V6.23397C62.3849 5.13541 62.9653 4.4203 63.9499 4.4203C64.9241 4.4203 65.4941 5.07322 65.4941 6.23397V6.32724H62.3849ZM65.7636 8.40001C65.3594 8.6902 64.7997 8.94929 64.0535 8.94929C63.0275 8.94929 62.3849 8.24455 62.3849 7.01126V6.91798H66.1988V6.33761C66.1988 4.77267 65.4008 3.79847 63.9499 3.79847C62.5508 3.79847 61.6802 4.73122 61.6802 6.31688V7.01126C61.6802 8.63838 62.5611 9.57112 64.0432 9.57112C64.9863 9.57112 65.6288 9.24984 66.0745 8.93893L65.7636 8.40001ZM70.5417 9.41566C70.5417 10.5868 69.9924 11.1361 68.9664 11.1361C68.3342 11.1361 67.9404 11.0324 67.4222 10.6697L67.1009 11.219C67.5673 11.5817 68.1787 11.7993 68.9664 11.7993C70.3551 11.7993 71.2464 10.9806 71.2464 9.39493V3.90211H70.552V4.58612C70.2619 4.17157 69.6918 3.79847 68.8731 3.79847C67.5984 3.79847 66.6552 4.66903 66.6552 6.19251V7.07344C66.6552 8.59692 67.5984 9.46748 68.8835 9.46748C69.526 9.46748 70.2204 9.20839 70.5313 8.64874H70.5417V9.41566ZM67.36 6.29615C67.36 5.11468 67.9714 4.4203 68.9146 4.4203C69.868 4.4203 70.5417 5.15613 70.5417 5.80905V7.38435C70.5417 8.36892 69.8162 8.84565 68.9146 8.84565C67.9818 8.84565 67.36 8.16164 67.36 6.9698V6.29615ZM74.2012 9.57112C75.0821 9.57112 75.6625 9.13584 75.9216 8.71092V9.48821H76.6159V3.90211H75.9112V7.52945C75.9112 8.18237 75.2479 8.92856 74.3048 8.92856C73.1959 8.92856 72.9575 8.26528 72.9575 7.46726V3.90211H72.2528V7.64345C72.2528 8.8042 72.9264 9.57112 74.2012 9.57112ZM77.664 9.48821H78.3687V1.65316H77.664V9.48821ZM80.9134 9.57112C81.3383 9.57112 81.7322 9.48821 82.0431 9.33275C82.3333 9.18766 82.5613 8.98038 82.6649 8.8042H82.6753V9.48821H83.3593V5.58105C83.3593 4.45139 82.5924 3.79847 81.3487 3.79847C80.4989 3.79847 79.8667 4.09902 79.3485 4.46176L79.6905 5.00068C80.1672 4.66903 80.7372 4.43067 81.3383 4.43067C82.2089 4.43067 82.6649 4.88667 82.6649 5.69505V6.21324H81.0896C79.7941 6.21324 79.1205 6.84544 79.1205 7.74709V7.97509C79.1205 8.95965 79.8563 9.57112 80.9134 9.57112ZM82.6649 7.74709C82.6649 8.172 82.4369 8.45183 82.1364 8.63838C81.8047 8.84565 81.4627 8.95965 81.0171 8.95965C80.4471 8.95965 79.8252 8.66947 79.8252 7.944V7.77818C79.8252 7.20817 80.2087 6.80398 81.1 6.80398H82.6649V7.74709ZM87.4033 3.91247C87.1753 3.82956 86.9162 3.79847 86.6053 3.79847C85.7554 3.79847 85.2372 4.34775 84.9989 4.88667V3.90211H84.3045V9.48821H85.0092V6.31688C85.0092 5.27013 85.5896 4.51358 86.512 4.51358C86.7815 4.51358 86.9991 4.55503 87.1856 4.62758L87.4033 3.91247ZM91.4206 9.48821L92.7782 4.68976L94.167 9.48821H94.9857L96.4781 3.90211H95.7941L94.5919 8.78347L93.1928 3.90211H92.3948L91.0267 8.78347L89.7934 3.90211H89.0783L90.6018 9.48821H91.4206ZM98.9755 3.79847C97.4832 3.79847 96.6022 4.72085 96.6022 6.33761V7.03198C96.6022 8.63838 97.4832 9.57112 98.9755 9.57112C100.468 9.57112 101.349 8.63838 101.349 7.03198V6.33761C101.349 4.73122 100.468 3.79847 98.9755 3.79847ZM98.9755 8.94929C97.9495 8.94929 97.3173 8.30673 97.3173 6.99053V6.37906C97.3173 5.06286 97.9495 4.4203 98.9755 4.4203C100.002 4.4203 100.634 5.06286 100.634 6.37906V6.99053C100.634 8.30673 100.002 8.94929 98.9755 8.94929ZM105.229 3.91247C105.001 3.82956 104.742 3.79847 104.431 3.79847C103.581 3.79847 103.063 4.34775 102.824 4.88667V3.90211H102.13V9.48821H102.835V6.31688C102.835 5.27013 103.415 4.51358 104.337 4.51358C104.607 4.51358 104.824 4.55503 105.011 4.62758L105.229 3.91247ZM109.899 3.90211H108.956L106.261 6.54488V1.65316H105.556V9.48821H106.261V7.38435L107.163 6.51379L109.236 9.48821H110.096L107.66 6.04742L109.899 3.90211ZM110.835 6.32724V6.23397C110.835 5.13541 111.416 4.4203 112.4 4.4203C113.375 4.4203 113.945 5.07322 113.945 6.23397V6.32724H110.835ZM114.214 8.40001C113.81 8.6902 113.25 8.94929 112.504 8.94929C111.478 8.94929 110.835 8.24455 110.835 7.01126V6.91798H114.649V6.33761C114.649 4.77267 113.851 3.79847 112.4 3.79847C111.001 3.79847 110.131 4.73122 110.131 6.31688V7.01126C110.131 8.63838 111.012 9.57112 112.494 9.57112C113.437 9.57112 114.079 9.24984 114.525 8.93893L114.214 8.40001ZM118.514 3.91247C118.286 3.82956 118.027 3.79847 117.716 3.79847C116.866 3.79847 116.348 4.34775 116.11 4.88667V3.90211H115.415V9.48821H116.12V6.31688C116.12 5.27013 116.701 4.51358 117.623 4.51358C117.892 4.51358 118.11 4.55503 118.297 4.62758L118.514 3.91247Z" fill="#555555"/>
<path d="M136.755 1.21875H127V10.978H136.755V1.21875Z" fill="#5082E6"/>
<path d="M145.586 9.48821H146.363L144.86 6.09924C145.689 5.79869 146.207 5.10431 146.207 4.20266V4.0472C146.207 2.87609 145.347 2.0159 143.855 2.0159H141.274V9.48821H142V6.26506H143.865C143.958 6.26506 144.052 6.26506 144.145 6.2547L145.586 9.48821ZM143.751 2.66882C144.912 2.66882 145.472 3.19737 145.472 4.06793V4.17157C145.472 5.07322 144.933 5.61214 143.637 5.61214H142V2.66882H143.751ZM147.595 6.32724V6.23397C147.595 5.13541 148.175 4.4203 149.16 4.4203C150.134 4.4203 150.704 5.07322 150.704 6.23397V6.32724H147.595ZM150.974 8.40001C150.569 8.6902 150.01 8.94929 149.264 8.94929C148.238 8.94929 147.595 8.24455 147.595 7.01126V6.91798H151.409V6.33761C151.409 4.77267 150.611 3.79847 149.16 3.79847C147.761 3.79847 146.89 4.73122 146.89 6.31688V7.01126C146.89 8.63838 147.771 9.57112 149.253 9.57112C150.196 9.57112 150.839 9.24984 151.284 8.93893L150.974 8.40001ZM155.752 9.41566C155.752 10.5868 155.202 11.1361 154.176 11.1361C153.544 11.1361 153.15 11.0324 152.632 10.6697L152.311 11.219C152.777 11.5817 153.389 11.7993 154.176 11.7993C155.565 11.7993 156.456 10.9806 156.456 9.39493V3.90211H155.762V4.58612C155.472 4.17157 154.902 3.79847 154.083 3.79847C152.808 3.79847 151.865 4.66903 151.865 6.19251V7.07344C151.865 8.59692 152.808 9.46748 154.093 9.46748C154.736 9.46748 155.43 9.20839 155.741 8.64874H155.752V9.41566ZM152.57 6.29615C152.57 5.11468 153.181 4.4203 154.125 4.4203C155.078 4.4203 155.752 5.15613 155.752 5.80905V7.38435C155.752 8.36892 155.026 8.84565 154.125 8.84565C153.192 8.84565 152.57 8.16164 152.57 6.9698V6.29615ZM159.411 9.57112C160.292 9.57112 160.872 9.13584 161.132 8.71092V9.48821H161.826V3.90211H161.121V7.52945C161.121 8.18237 160.458 8.92856 159.515 8.92856C158.406 8.92856 158.168 8.26528 158.168 7.46726V3.90211H157.463V7.64345C157.463 8.8042 158.136 9.57112 159.411 9.57112ZM162.874 9.48821H163.579V1.65316H162.874V9.48821ZM166.123 9.57112C166.548 9.57112 166.942 9.48821 167.253 9.33275C167.543 9.18766 167.771 8.98038 167.875 8.8042H167.885V9.48821H168.569V5.58105C168.569 4.45139 167.802 3.79847 166.559 3.79847C165.709 3.79847 165.077 4.09902 164.559 4.46176L164.901 5.00068C165.377 4.66903 165.947 4.43067 166.548 4.43067C167.419 4.43067 167.875 4.88667 167.875 5.69505V6.21324H166.3C165.004 6.21324 164.331 6.84544 164.331 7.74709V7.97509C164.331 8.95965 165.066 9.57112 166.123 9.57112ZM167.875 7.74709C167.875 8.172 167.647 8.45183 167.346 8.63838C167.015 8.84565 166.673 8.95965 166.227 8.95965C165.657 8.95965 165.035 8.66947 165.035 7.944V7.77818C165.035 7.20817 165.419 6.80398 166.31 6.80398H167.875V7.74709ZM172.613 3.91247C172.385 3.82956 172.126 3.79847 171.815 3.79847C170.965 3.79847 170.447 4.34775 170.209 4.88667V3.90211H169.515V9.48821H170.219V6.31688C170.219 5.27013 170.8 4.51358 171.722 4.51358C171.991 4.51358 172.209 4.55503 172.396 4.62758L172.613 3.91247ZM176.631 9.48821L177.988 4.68976L179.377 9.48821H180.196L181.688 3.90211H181.004L179.802 8.78347L178.403 3.90211H177.605L176.237 8.78347L175.003 3.90211H174.288L175.812 9.48821H176.631ZM184.186 3.79847C182.693 3.79847 181.812 4.72085 181.812 6.33761V7.03198C181.812 8.63838 182.693 9.57112 184.186 9.57112C185.678 9.57112 186.559 8.63838 186.559 7.03198V6.33761C186.559 4.73122 185.678 3.79847 184.186 3.79847ZM184.186 8.94929C183.16 8.94929 182.527 8.30673 182.527 6.99053V6.37906C182.527 5.06286 183.16 4.4203 184.186 4.4203C185.212 4.4203 185.844 5.06286 185.844 6.37906V6.99053C185.844 8.30673 185.212 8.94929 184.186 8.94929ZM190.439 3.91247C190.211 3.82956 189.952 3.79847 189.641 3.79847C188.791 3.79847 188.273 4.34775 188.034 4.88667V3.90211H187.34V9.48821H188.045V6.31688C188.045 5.27013 188.625 4.51358 189.547 4.51358C189.817 4.51358 190.034 4.55503 190.221 4.62758L190.439 3.91247ZM195.109 3.90211H194.166L191.471 6.54488V1.65316H190.766V9.48821H191.471V7.38435L192.373 6.51379L194.446 9.48821H195.306L192.87 6.04742L195.109 3.90211ZM196.045 6.32724V6.23397C196.045 5.13541 196.626 4.4203 197.61 4.4203C198.585 4.4203 199.155 5.07322 199.155 6.23397V6.32724H196.045ZM199.424 8.40001C199.02 8.6902 198.46 8.94929 197.714 8.94929C196.688 8.94929 196.045 8.24455 196.045 7.01126V6.91798H199.859V6.33761C199.859 4.77267 199.061 3.79847 197.61 3.79847C196.211 3.79847 195.341 4.73122 195.341 6.31688V7.01126C195.341 8.63838 196.222 9.57112 197.704 9.57112C198.647 9.57112 199.289 9.24984 199.735 8.93893L199.424 8.40001ZM203.724 3.91247C203.496 3.82956 203.237 3.79847 202.926 3.79847C202.076 3.79847 201.558 4.34775 201.32 4.88667V3.90211H200.625V9.48821H201.33V6.31688C201.33 5.27013 201.911 4.51358 202.833 4.51358C203.102 4.51358 203.32 4.55503 203.507 4.62758L203.724 3.91247Z" fill="#555555"/>
<path d="M142.056 23.7881H39.0156V56.7257H142.056V23.7881Z" fill="#CCCCCC"/>
<path d="M343.876 23.7881H142.062V56.7257H343.876V23.7881Z" fill="#5082E6"/>
<path d="M113.96 37.501C114.435 36.8791 114.947 36.6231 115.667 36.6231C116.459 36.6231 117.118 37.0133 117.118 37.7814V37.8789C117.118 38.6349 116.74 39.3665 115.642 39.3665H114.606V40.415H115.691C116.715 40.415 117.508 40.7564 117.508 41.9147V42.0732C117.508 42.8658 116.923 43.512 115.642 43.512C114.886 43.512 114.277 43.2925 113.423 42.6707L112.826 43.6339C113.655 44.2923 114.618 44.6093 115.642 44.6093C117.801 44.6093 118.715 43.3535 118.715 42.0611V41.8782C118.715 40.8662 118.118 40.0614 116.935 39.8542C118.02 39.464 118.313 38.5617 118.313 37.8668V37.7448C118.313 36.428 117.276 35.5501 115.655 35.5501C114.338 35.5501 113.606 36.1354 113.094 36.867L113.96 37.501ZM120.67 37.501C121.146 36.8791 121.658 36.6231 122.377 36.6231C123.17 36.6231 123.828 37.0133 123.828 37.7814V37.8789C123.828 38.6349 123.45 39.3665 122.353 39.3665H121.316V40.415H122.401C123.426 40.415 124.218 40.7564 124.218 41.9147V42.0732C124.218 42.8658 123.633 43.512 122.353 43.512C121.597 43.512 120.987 43.2925 120.134 42.6707L119.536 43.6339C120.365 44.2923 121.329 44.6093 122.353 44.6093C124.511 44.6093 125.425 43.3535 125.425 42.0611V41.8782C125.425 40.8662 124.828 40.0614 123.645 39.8542C124.73 39.464 125.023 38.5617 125.023 37.8668V37.7448C125.023 36.428 123.987 35.5501 122.365 35.5501C121.048 35.5501 120.317 36.1354 119.804 36.867L120.67 37.501ZM126.698 44.9751H128.088V43.573H126.698V44.9751ZM130.708 37.9399C130.708 37.1108 131.306 36.6109 132.171 36.6109C133.049 36.6109 133.635 37.1108 133.635 37.9399V38.074C133.635 38.9397 133.001 39.464 132.171 39.464C131.355 39.464 130.708 38.9397 130.708 38.074V37.9399ZM130.477 42.0001C130.477 41.0247 131.233 40.5248 132.184 40.5248C133.147 40.5248 133.866 41.0491 133.866 42.0001V42.1342C133.866 42.9633 133.232 43.5242 132.184 43.5242C131.135 43.5242 130.477 42.9633 130.477 42.1342V42.0001ZM129.233 42.1952C129.233 43.5973 130.33 44.6093 132.171 44.6093C134.013 44.6093 135.11 43.5973 135.11 42.1952V41.9879C135.11 41.0247 134.452 40.22 133.598 39.9639C134.452 39.525 134.854 38.769 134.854 38.0253V37.8546C134.854 36.5987 133.866 35.5501 132.171 35.5501C130.452 35.5501 129.489 36.5987 129.489 37.8546V38.0253C129.489 38.769 129.904 39.5615 130.745 39.9639C129.904 40.22 129.233 41.0247 129.233 41.9879V42.1952Z" fill="white"/>
<path d="M320.406 36.1476C319.747 35.7452 318.918 35.5501 318.126 35.5501C316.15 35.5501 314.748 36.6841 314.748 40.537V40.9881C314.748 43.3413 315.833 44.6093 317.809 44.6093C319.601 44.6093 320.808 43.4632 320.808 41.7806V41.5124C320.808 39.7932 319.601 38.7081 318.04 38.7081C317.065 38.7081 316.236 39.1958 315.943 39.7079C316.028 37.3912 316.857 36.6597 318.052 36.6597C318.747 36.6597 319.394 36.8548 319.942 37.1718L320.406 36.1476ZM315.98 41.488C315.98 40.5248 316.723 39.781 317.796 39.781C318.869 39.781 319.601 40.3906 319.601 41.5612V41.7197C319.601 42.8658 318.894 43.512 317.76 43.512C316.662 43.512 315.98 42.7926 315.98 41.6587V41.488ZM327.116 36.1476C326.457 35.7452 325.628 35.5501 324.836 35.5501C322.861 35.5501 321.458 36.6841 321.458 40.537V40.9881C321.458 43.3413 322.544 44.6093 324.519 44.6093C326.311 44.6093 327.518 43.4632 327.518 41.7806V41.5124C327.518 39.7932 326.311 38.7081 324.75 38.7081C323.775 38.7081 322.946 39.1958 322.653 39.7079C322.739 37.3912 323.568 36.6597 324.763 36.6597C325.458 36.6597 326.104 36.8548 326.653 37.1718L327.116 36.1476ZM322.69 41.488C322.69 40.5248 323.434 39.781 324.507 39.781C325.58 39.781 326.311 40.3906 326.311 41.5612V41.7197C326.311 42.8658 325.604 43.512 324.47 43.512C323.373 43.512 322.69 42.7926 322.69 41.6587V41.488ZM328.51 44.9751H329.9V43.573H328.51V44.9751ZM331.046 43.4632V44.4752H336.947V43.4266H332.533L335.276 40.5004C336.069 39.6591 336.63 38.83 336.63 37.8789V37.757C336.63 36.4768 335.667 35.5501 333.886 35.5501C332.265 35.5501 331.484 36.5621 331.07 37.3181L331.997 37.9155C332.57 36.8913 333.265 36.6353 333.911 36.6353C334.825 36.6353 335.423 37.062 335.423 37.757V37.8546C335.423 38.3179 335.325 38.8056 334.325 39.9029L331.046 43.4632Z" fill="white"/>
<path d="M153.641 114.062H39.0156V147H153.641V114.062Z" fill="#CCCCCC"/>
<path d="M343.869 114.062H153.641V147H343.869V114.062Z" fill="#5082E6"/>
<path d="M125.546 127.775C126.021 127.154 126.533 126.898 127.253 126.898C128.045 126.898 128.704 127.288 128.704 128.056V128.153C128.704 128.909 128.326 129.641 127.228 129.641H126.192V130.689H127.277C128.301 130.689 129.094 131.031 129.094 132.189V132.348C129.094 133.14 128.509 133.786 127.228 133.786C126.472 133.786 125.863 133.567 125.009 132.945L124.412 133.908C125.241 134.567 126.204 134.884 127.228 134.884C129.386 134.884 130.301 133.628 130.301 132.335V132.153C130.301 131.141 129.703 130.336 128.521 130.129C129.606 129.738 129.899 128.836 129.899 128.141V128.019C129.899 126.702 128.862 125.825 127.241 125.825C125.924 125.825 125.192 126.41 124.68 127.141L125.546 127.775ZM137.255 126.885V125.959H131.171V127.007H135.95L132.463 134.75H133.78L137.255 126.885ZM138.284 135.25H139.674V133.847H138.284V135.25ZM146.452 126.422C145.794 126.02 144.964 125.825 144.172 125.825C142.197 125.825 140.795 126.958 140.795 130.811V131.263C140.795 133.616 141.88 134.884 143.855 134.884C145.647 134.884 146.854 133.738 146.854 132.055V131.787C146.854 130.068 145.647 128.982 144.087 128.982C143.111 128.982 142.282 129.47 141.989 129.982C142.075 127.666 142.904 126.934 144.099 126.934C144.794 126.934 145.44 127.129 145.989 127.446L146.452 126.422ZM142.026 131.762C142.026 130.799 142.77 130.055 143.843 130.055C144.916 130.055 145.647 130.665 145.647 131.836V131.994C145.647 133.14 144.94 133.786 143.806 133.786C142.709 133.786 142.026 133.067 142.026 131.933V131.762Z" fill="white"/>
<path d="M320.406 126.422C319.747 126.02 318.918 125.825 318.126 125.825C316.15 125.825 314.748 126.958 314.748 130.811V131.263C314.748 133.616 315.833 134.884 317.809 134.884C319.601 134.884 320.808 133.738 320.808 132.055V131.787C320.808 130.068 319.601 128.982 318.04 128.982C317.065 128.982 316.236 129.47 315.943 129.982C316.028 127.666 316.857 126.934 318.052 126.934C318.747 126.934 319.394 127.129 319.942 127.446L320.406 126.422ZM315.98 131.762C315.98 130.799 316.723 130.055 317.796 130.055C318.869 130.055 319.601 130.665 319.601 131.836V131.994C319.601 133.14 318.894 133.786 317.76 133.786C316.662 133.786 315.98 133.067 315.98 131.933V131.762ZM321.483 133.738V134.75H327.384V133.701H322.97L325.714 130.775C326.506 129.934 327.067 129.104 327.067 128.153V128.031C327.067 126.751 326.104 125.825 324.324 125.825C322.702 125.825 321.922 126.837 321.507 127.592L322.434 128.19C323.007 127.166 323.702 126.91 324.348 126.91C325.263 126.91 325.86 127.336 325.86 128.031V128.129C325.86 128.592 325.762 129.08 324.763 130.177L321.483 133.738ZM328.51 135.25H329.9V133.847H328.51V135.25ZM334.984 129.141V131.836H332.009L336.057 125.959H334.728L330.594 131.957V132.86H334.984V134.75H336.179V132.86H337.422V131.836H336.179V129.141H334.984Z" fill="white"/>
<path d="M142.056 68.9238H39.0156V101.861H142.056V68.9238Z" fill="#CCCCCC"/>
<path d="M343.876 68.9238H142.062V101.861H343.876V68.9238Z" fill="#5082E6"/>
<path d="M113.96 82.6367C114.435 82.0149 114.947 81.7588 115.667 81.7588C116.459 81.7588 117.118 82.149 117.118 82.9171V83.0147C117.118 83.7706 116.74 84.5022 115.642 84.5022H114.606V85.5508H115.691C116.715 85.5508 117.508 85.8922 117.508 87.0505V87.209C117.508 88.0015 116.923 88.6477 115.642 88.6477C114.886 88.6477 114.277 88.4283 113.423 87.8064L112.826 88.7697C113.655 89.4281 114.618 89.7451 115.642 89.7451C117.801 89.7451 118.715 88.4892 118.715 87.1968V87.0139C118.715 86.0019 118.118 85.1972 116.935 84.9899C118.02 84.5997 118.313 83.6975 118.313 83.0025V82.8806C118.313 81.5638 117.276 80.6859 115.655 80.6859C114.338 80.6859 113.606 81.2711 113.094 82.0027L113.96 82.6367ZM120.67 82.6367C121.146 82.0149 121.658 81.7588 122.377 81.7588C123.17 81.7588 123.828 82.149 123.828 82.9171V83.0147C123.828 83.7706 123.45 84.5022 122.353 84.5022H121.316V85.5508H122.401C123.426 85.5508 124.218 85.8922 124.218 87.0505V87.209C124.218 88.0015 123.633 88.6477 122.353 88.6477C121.597 88.6477 120.987 88.4283 120.134 87.8064L119.536 88.7697C120.365 89.4281 121.329 89.7451 122.353 89.7451C124.511 89.7451 125.425 88.4892 125.425 87.1968V87.0139C125.425 86.0019 124.828 85.1972 123.645 84.9899C124.73 84.5997 125.023 83.6975 125.023 83.0025V82.8806C125.023 81.5638 123.987 80.6859 122.365 80.6859C121.048 80.6859 120.317 81.2711 119.804 82.0027L120.67 82.6367ZM126.698 90.1109H128.088V88.7087H126.698V90.1109ZM130.708 83.0757C130.708 82.2465 131.306 81.7466 132.171 81.7466C133.049 81.7466 133.635 82.2465 133.635 83.0757V83.2098C133.635 84.0755 133.001 84.5997 132.171 84.5997C131.355 84.5997 130.708 84.0755 130.708 83.2098V83.0757ZM130.477 87.1358C130.477 86.1604 131.233 85.6605 132.184 85.6605C133.147 85.6605 133.866 86.1848 133.866 87.1358V87.27C133.866 88.0991 133.232 88.6599 132.184 88.6599C131.135 88.6599 130.477 88.0991 130.477 87.27V87.1358ZM129.233 87.3309C129.233 88.7331 130.33 89.7451 132.171 89.7451C134.013 89.7451 135.11 88.7331 135.11 87.3309V87.1236C135.11 86.1604 134.452 85.3557 133.598 85.0996C134.452 84.6607 134.854 83.9048 134.854 83.161V82.9903C134.854 81.7345 133.866 80.6859 132.171 80.6859C130.452 80.6859 129.489 81.7345 129.489 82.9903V83.161C129.489 83.9048 129.904 84.6973 130.745 85.0996C129.904 85.3557 129.233 86.1604 129.233 87.1236V87.3309Z" fill="white"/>
<path d="M320.406 81.2833C319.747 80.881 318.918 80.6859 318.126 80.6859C316.15 80.6859 314.748 81.8198 314.748 85.6727V86.1238C314.748 88.477 315.833 89.7451 317.809 89.7451C319.601 89.7451 320.808 88.599 320.808 86.9164V86.6481C320.808 84.9289 319.601 83.8438 318.04 83.8438C317.065 83.8438 316.236 84.3315 315.943 84.8436C316.028 82.527 316.857 81.7954 318.052 81.7954C318.747 81.7954 319.394 81.9905 319.942 82.3075L320.406 81.2833ZM315.98 86.6237C315.98 85.6605 316.723 84.9168 317.796 84.9168C318.869 84.9168 319.601 85.5264 319.601 86.6969V86.8554C319.601 88.0015 318.894 88.6477 317.76 88.6477C316.662 88.6477 315.98 87.9284 315.98 86.7944V86.6237ZM327.116 81.2833C326.457 80.881 325.628 80.6859 324.836 80.6859C322.861 80.6859 321.458 81.8198 321.458 85.6727V86.1238C321.458 88.477 322.544 89.7451 324.519 89.7451C326.311 89.7451 327.518 88.599 327.518 86.9164V86.6481C327.518 84.9289 326.311 83.8438 324.75 83.8438C323.775 83.8438 322.946 84.3315 322.653 84.8436C322.739 82.527 323.568 81.7954 324.763 81.7954C325.458 81.7954 326.104 81.9905 326.653 82.3075L327.116 81.2833ZM322.69 86.6237C322.69 85.6605 323.434 84.9168 324.507 84.9168C325.58 84.9168 326.311 85.5264 326.311 86.6969V86.8554C326.311 88.0015 325.604 88.6477 324.47 88.6477C323.373 88.6477 322.69 87.9284 322.69 86.7944V86.6237ZM328.51 90.1109H329.9V88.7087H328.51V90.1109ZM331.046 88.599V89.611H336.947V88.5624H332.533L335.276 85.6361C336.069 84.7948 336.63 83.9657 336.63 83.0147V82.8928C336.63 81.6125 335.667 80.6859 333.886 80.6859C332.265 80.6859 331.484 81.6979 331.07 82.4538L331.997 83.0513C332.57 82.0271 333.265 81.771 333.911 81.771C334.825 81.771 335.423 82.1978 335.423 82.8928V82.9903C335.423 83.4536 335.325 83.9413 334.325 85.0387L331.046 88.599Z" fill="white"/>
<path d="M0.93884 134.016V134.748H6.52311V133.967H2.0118L4.74297 130.761C5.49892 129.883 6.2061 129.09 6.2061 128.139V128.017C6.2061 126.7 5.2063 125.823 3.64563 125.823C2.1825 125.823 1.36559 126.749 0.951033 127.505L1.63383 127.932C2.20688 126.908 2.90187 126.603 3.67001 126.603C4.73078 126.603 5.34042 127.152 5.34042 128.029V128.127C5.34042 128.59 5.18191 129.041 4.21868 130.175L0.93884 134.016ZM13.2243 129.663C13.2243 127.2 12.2977 125.823 10.2249 125.823C8.17656 125.823 7.24991 127.2 7.24991 129.663V131.029C7.24991 133.492 8.13998 134.882 10.2249 134.882C12.3343 134.882 13.2243 133.516 13.2243 131.029V129.663ZM12.3465 131.041C12.3465 133.236 11.6271 134.114 10.2249 134.114C8.87154 134.114 8.12779 133.224 8.12779 131.041V129.651C8.12779 127.493 8.87154 126.591 10.2249 126.591C11.6271 126.591 12.3465 127.481 12.3465 129.651V131.041ZM14.0975 134.016V134.748H19.6817V133.967H15.1704L17.9016 130.761C18.6575 129.883 19.3647 129.09 19.3647 128.139V128.017C19.3647 126.7 18.3649 125.823 16.8042 125.823C15.3411 125.823 14.5242 126.749 14.1097 127.505L14.7924 127.932C15.3655 126.908 16.0605 126.603 16.8286 126.603C17.8894 126.603 18.499 127.152 18.499 128.029V128.127C18.499 128.59 18.3405 129.041 17.3773 130.175L14.0975 134.016ZM26.383 129.663C26.383 127.2 25.4563 125.823 23.3836 125.823C21.3352 125.823 20.4085 127.2 20.4085 129.663V131.029C20.4085 133.492 21.2986 134.882 23.3836 134.882C25.4929 134.882 26.383 133.516 26.383 131.029V129.663ZM25.5051 131.041C25.5051 133.236 24.7857 134.114 23.3836 134.114C22.0302 134.114 21.2864 133.224 21.2864 131.041V129.651C21.2864 127.493 22.0302 126.591 23.3836 126.591C24.7857 126.591 25.5051 127.481 25.5051 129.651V131.041Z" fill="#222222"/>
<path d="M0.93884 88.8794V89.611H6.52311V88.8306H2.0118L4.74297 85.6239C5.49892 84.7461 6.2061 83.9535 6.2061 83.0025V82.8806C6.2061 81.5638 5.2063 80.6859 3.64563 80.6859C2.1825 80.6859 1.36559 81.6125 0.951033 82.3685L1.63383 82.7952C2.20688 81.771 2.90187 81.4662 3.67001 81.4662C4.73078 81.4662 5.34042 82.0149 5.34042 82.8928V82.9903C5.34042 83.4536 5.18191 83.9048 4.21868 85.0387L0.93884 88.8794ZM13.2243 84.5266C13.2243 82.0637 12.2977 80.6859 10.2249 80.6859C8.17656 80.6859 7.24991 82.0637 7.24991 84.5266V85.8922C7.24991 88.3551 8.13998 89.7451 10.2249 89.7451C12.3343 89.7451 13.2243 88.3795 13.2243 85.8922V84.5266ZM12.3465 85.9044C12.3465 88.0991 11.6271 88.9769 10.2249 88.9769C8.87154 88.9769 8.12779 88.0869 8.12779 85.9044V84.5144C8.12779 82.3563 8.87154 81.454 10.2249 81.454C11.6271 81.454 12.3465 82.3441 12.3465 84.5144V85.9044ZM14.0975 88.8794V89.611H19.6817V88.8306H15.1704L17.9016 85.6239C18.6575 84.7461 19.3647 83.9535 19.3647 83.0025V82.8806C19.3647 81.5638 18.3649 80.6859 16.8042 80.6859C15.3411 80.6859 14.5242 81.6125 14.1097 82.3685L14.7924 82.7952C15.3655 81.771 16.0605 81.4662 16.8286 81.4662C17.8894 81.4662 18.499 82.0149 18.499 82.8928V82.9903C18.499 83.4536 18.3405 83.9048 17.3773 85.0387L14.0975 88.8794ZM24.3834 89.611V80.82H23.7371L21.0182 82.5026L21.4083 83.1854L23.5299 81.893V89.611H24.3834Z" fill="#222222"/>
<path d="M0.93884 43.7427V44.4742H6.52311V43.6939H2.0118L4.74297 40.4872C5.49892 39.6093 6.2061 38.8168 6.2061 37.8658V37.7439C6.2061 36.427 5.2063 35.5492 3.64563 35.5492C2.1825 35.5492 1.36559 36.4758 0.951033 37.2318L1.63383 37.6585C2.20688 36.6343 2.90187 36.3295 3.67001 36.3295C4.73078 36.3295 5.34042 36.8782 5.34042 37.756V37.8536C5.34042 38.3169 5.18191 38.768 4.21868 39.902L0.93884 43.7427ZM13.2243 39.3899C13.2243 36.9269 12.2977 35.5492 10.2249 35.5492C8.17656 35.5492 7.24991 36.9269 7.24991 39.3899V40.7555C7.24991 43.2184 8.13998 44.6084 10.2249 44.6084C12.3343 44.6084 13.2243 43.2428 13.2243 40.7555V39.3899ZM12.3465 40.7676C12.3465 42.9623 11.6271 43.8402 10.2249 43.8402C8.87154 43.8402 8.12779 42.9501 8.12779 40.7676V39.3777C8.12779 37.2196 8.87154 36.3173 10.2249 36.3173C11.6271 36.3173 12.3465 37.2074 12.3465 39.3777V40.7676ZM14.0975 43.7427V44.4742H19.6817V43.6939H15.1704L17.9016 40.4872C18.6575 39.6093 19.3647 38.8168 19.3647 37.8658V37.7439C19.3647 36.427 18.3649 35.5492 16.8042 35.5492C15.3411 35.5492 14.5242 36.4758 14.1097 37.2318L14.7924 37.6585C15.3655 36.6343 16.0605 36.3295 16.8286 36.3295C17.8894 36.3295 18.499 36.8782 18.499 37.756V37.8536C18.499 38.3169 18.3405 38.768 17.3773 39.902L14.0975 43.7427ZM20.6768 43.7427V44.4742H26.261V43.6939H21.7497L24.4809 40.4872C25.2369 39.6093 25.944 38.8168 25.944 37.8658V37.7439C25.944 36.427 24.9442 35.5492 23.3836 35.5492C21.9204 35.5492 21.1035 36.4758 20.689 37.2318L21.3718 37.6585C21.9448 36.6343 22.6398 36.3295 23.4079 36.3295C24.4687 36.3295 25.0783 36.8782 25.0783 37.756V37.8536C25.0783 38.3169 24.9198 38.768 23.9566 39.902L20.6768 43.7427Z" fill="#222222"/>
<path d="M317.379 4.0409C317.379 2.57962 317.735 1.20967 318.63 0.00411119H318.046C317.142 1.08181 316.703 2.46089 316.703 4.08657V4.45189C316.703 6.07757 317.142 7.47492 318.046 8.55261H318.63C317.69 7.26486 317.379 5.88577 317.379 4.49755V4.0409ZM320.726 7.31052C321.502 7.31052 322.014 6.92694 322.242 6.55248V7.23746H322.854V2.31476H322.233V5.51132C322.233 6.0867 321.649 6.74428 320.817 6.74428C319.84 6.74428 319.63 6.15976 319.63 5.45652V2.31476H319.009V5.61178C319.009 6.63468 319.603 7.31052 320.726 7.31052ZM325.897 2.22343C325.12 2.22343 324.618 2.62529 324.39 2.99974V2.31476H323.778V7.23746H324.399V4.0409C324.399 3.46552 324.974 2.78968 325.805 2.78968C326.782 2.78968 327.047 3.37419 327.047 4.07744V7.23746H327.668V3.92217C327.668 2.89928 327.02 2.22343 325.897 2.22343ZM328.573 7.23746H329.194V2.31476H328.573V7.23746ZM328.545 1.37406H329.221V0.679954H328.545V1.37406ZM330.522 5.86751C330.522 6.93607 330.933 7.28312 331.791 7.28312C332.056 7.28312 332.43 7.23746 332.622 7.16439L332.531 6.65295C332.303 6.71688 332.083 6.74428 331.837 6.74428C331.344 6.74428 331.143 6.50682 331.143 5.84011V2.84448H332.503V2.31476H331.143V1.04527H330.522V2.31476H329.681V2.84448H330.522V5.86751ZM333.332 6.77167H334.254V5.85837H333.332V6.77167ZM333.332 2.73488H334.254V1.82158H333.332V2.73488ZM336.927 7.22833L340.854 0.652555H340.279L336.343 7.22833H336.927ZM340.517 3.86738C339.631 3.86738 339.101 4.42449 339.101 5.38346V5.79444C339.101 6.75341 339.631 7.31052 340.517 7.31052C341.402 7.31052 341.932 6.75341 341.932 5.79444V5.38346C341.932 4.42449 341.402 3.86738 340.517 3.86738ZM340.517 6.84474C339.987 6.84474 339.631 6.54335 339.631 5.77618V5.40172C339.631 4.64368 339.987 4.33316 340.517 4.33316C341.046 4.33316 341.402 4.64368 341.402 5.40172V5.77618C341.402 6.54335 341.046 6.84474 340.517 6.84474ZM336.69 0.579491C335.804 0.579491 335.274 1.13661 335.274 2.09557V2.50656C335.274 3.46552 335.804 4.02264 336.69 4.02264C337.576 4.02264 338.105 3.46552 338.105 2.50656V2.09557C338.105 1.13661 337.576 0.579491 336.69 0.579491ZM336.69 3.55685C336.16 3.55685 335.804 3.25546 335.804 2.48829V2.11384C335.804 1.3558 336.16 1.04527 336.69 1.04527C337.22 1.04527 337.576 1.3558 337.576 2.11384V2.48829C337.576 3.25546 337.22 3.55685 336.69 3.55685ZM343.504 4.49755C343.504 5.88577 343.194 7.26486 342.253 8.55261H342.838C343.742 7.47492 344.18 6.07757 344.18 4.45189V4.08657C344.18 2.46089 343.742 1.08181 342.838 0.00411119H342.253C343.148 1.20967 343.504 2.57962 343.504 4.0409V4.49755Z" fill="#555555"/>
<path d="M83.3549 185.66V194.312H88.8269V193.292H84.5429V190.388H88.4909V189.368H84.5429V186.68H88.7429V185.66H83.3549ZM98.7707 190.004C98.7707 188.492 97.9427 187.628 96.5987 187.628C95.5667 187.628 94.9787 188.084 94.5587 188.72C94.2227 188.024 93.5507 187.628 92.6747 187.628C91.7627 187.628 91.1747 188.06 90.9227 188.636H90.9107V187.748H89.7587V194.312H90.9227V190.16C90.9227 189.128 91.7267 188.684 92.4467 188.684C93.2747 188.684 93.6827 189.236 93.6827 190.376V194.312H94.8467V190.22C94.8467 189.152 95.6387 188.684 96.3707 188.684C97.1987 188.684 97.6067 189.236 97.6067 190.376V194.312H98.7707V190.004ZM100.96 187.748H99.8317V196.88H100.996V193.592C101.26 193.976 101.836 194.408 102.808 194.408C104.38 194.408 105.436 193.4 105.436 191.588V190.424C105.436 188.696 104.536 187.628 102.88 187.628C102.1 187.628 101.344 187.892 100.96 188.564V187.748ZM100.984 190.316C100.984 189.296 101.764 188.648 102.712 188.648C103.684 188.648 104.284 189.368 104.284 190.616V191.42C104.284 192.656 103.696 193.388 102.712 193.388C101.704 193.388 100.984 192.656 100.984 191.972V190.316ZM106.26 185.24V194.312H107.424V185.24H106.26ZM111.167 187.628C109.367 187.628 108.239 188.708 108.239 190.616V191.42C108.239 193.316 109.367 194.408 111.167 194.408C112.967 194.408 114.095 193.316 114.095 191.42V190.616C114.095 188.72 112.967 187.628 111.167 187.628ZM111.167 193.388C110.123 193.388 109.415 192.716 109.415 191.324V190.712C109.415 189.32 110.123 188.648 111.167 188.648C112.211 188.648 112.919 189.32 112.919 190.712V191.324C112.919 192.716 112.211 193.388 111.167 193.388ZM117.094 192.992L115.354 187.748H114.094L116.482 194.408L115.63 196.652L116.686 197.024L120.094 187.748H118.87L117.142 192.992H117.094ZM129.436 190.004C129.436 188.492 128.608 187.628 127.264 187.628C126.232 187.628 125.644 188.084 125.224 188.72C124.888 188.024 124.216 187.628 123.34 187.628C122.428 187.628 121.84 188.06 121.588 188.636H121.576V187.748H120.424V194.312H121.588V190.16C121.588 189.128 122.392 188.684 123.112 188.684C123.94 188.684 124.348 189.236 124.348 190.376V194.312H125.512V190.22C125.512 189.152 126.304 188.684 127.036 188.684C127.864 188.684 128.272 189.236 128.272 190.376V194.312H129.436V190.004ZM132.981 188.624C133.977 188.624 134.601 189.272 134.601 190.28V190.496H131.313V190.328C131.313 189.32 132.009 188.624 132.981 188.624ZM135.081 192.812C134.517 193.172 133.941 193.4 133.089 193.4C132.045 193.4 131.313 192.728 131.313 191.492V191.444H135.729V190.568C135.729 188.696 134.661 187.628 132.981 187.628C131.361 187.628 130.161 188.648 130.161 190.64V191.384C130.161 193.508 131.421 194.408 133.041 194.408C134.229 194.408 134.997 194.084 135.573 193.688L135.081 192.812ZM141.857 189.968C141.857 188.384 140.825 187.628 139.553 187.628C138.653 187.628 137.981 187.964 137.585 188.576H137.573V187.748H136.445V194.312H137.609V190.244C137.609 189.212 138.473 188.66 139.265 188.66C140.237 188.66 140.693 189.128 140.693 190.232V194.312H141.857V189.968ZM143.317 192.476C143.317 193.796 143.893 194.408 145.141 194.408C145.609 194.408 146.101 194.3 146.365 194.192L146.185 193.256C145.885 193.364 145.609 193.412 145.321 193.412C144.829 193.412 144.481 193.28 144.481 192.476V188.744H146.209V187.748H144.481V186.092H143.317V187.748H142.237V188.744H143.317V192.476ZM153.057 187.76C152.793 187.676 152.505 187.628 152.205 187.628C151.245 187.628 150.657 188.06 150.273 188.792H150.261V187.748H149.133V194.312H150.297V190.484C150.297 189.452 151.041 188.732 151.905 188.732C152.217 188.732 152.481 188.792 152.709 188.888L153.057 187.76ZM155.241 194.408C155.817 194.408 156.201 194.3 156.549 194.108C156.801 193.964 157.041 193.76 157.161 193.52H157.173V194.312H158.289V189.716C158.289 188.396 157.257 187.628 155.793 187.628C154.737 187.628 153.957 188.012 153.321 188.456L153.897 189.32C154.509 188.924 155.013 188.66 155.781 188.66C156.741 188.66 157.137 189.08 157.137 189.956V190.34H155.469C153.789 190.34 153.081 191.12 153.081 192.236V192.56C153.081 193.712 153.921 194.408 155.241 194.408ZM157.137 191.972C157.137 192.464 157.005 192.752 156.693 192.992C156.345 193.268 155.937 193.4 155.361 193.4C154.737 193.4 154.221 193.124 154.221 192.488V192.32C154.221 191.696 154.581 191.324 155.493 191.324H157.137V191.972ZM159.796 192.476C159.796 193.796 160.372 194.408 161.62 194.408C162.088 194.408 162.58 194.3 162.844 194.192L162.664 193.256C162.364 193.364 162.088 193.412 161.8 193.412C161.308 193.412 160.96 193.28 160.96 192.476V188.744H162.688V187.748H160.96V186.092H159.796V187.748H158.716V188.744H159.796V192.476ZM165.816 188.624C166.812 188.624 167.436 189.272 167.436 190.28V190.496H164.148V190.328C164.148 189.32 164.844 188.624 165.816 188.624ZM167.916 192.812C167.352 193.172 166.776 193.4 165.924 193.4C164.88 193.4 164.148 192.728 164.148 191.492V191.444H168.564V190.568C168.564 188.696 167.496 187.628 165.816 187.628C164.196 187.628 162.996 188.648 162.996 190.64V191.384C162.996 193.508 164.256 194.408 165.876 194.408C167.064 194.408 167.832 194.084 168.408 193.688L167.916 192.812ZM174.152 187.628C172.352 187.628 171.224 188.708 171.224 190.616V191.42C171.224 193.316 172.352 194.408 174.152 194.408C175.952 194.408 177.08 193.316 177.08 191.42V190.616C177.08 188.72 175.952 187.628 174.152 187.628ZM174.152 193.388C173.108 193.388 172.4 192.716 172.4 191.324V190.712C172.4 189.32 173.108 188.648 174.152 188.648C175.196 188.648 175.904 189.32 175.904 190.712V191.324C175.904 192.716 175.196 193.388 174.152 193.388ZM178.303 194.312H179.467V188.744H181.195V187.748H179.467V187.148C179.467 186.296 179.875 186.164 180.319 186.164C180.607 186.164 180.907 186.2 181.207 186.284L181.387 185.336C181.123 185.24 180.631 185.168 180.211 185.168C178.963 185.168 178.303 185.78 178.303 187.1V187.748H177.223V188.744H178.303V194.312ZM184.363 194.312H185.527V188.744H187.255V187.748H185.527V187.148C185.527 186.296 185.935 186.164 186.379 186.164C186.667 186.164 186.967 186.2 187.267 186.284L187.447 185.336C187.183 185.24 186.691 185.168 186.271 185.168C185.023 185.168 184.363 185.78 184.363 187.1V187.748H183.283V188.744H184.363V194.312ZM187.639 192.092C187.639 193.676 188.647 194.432 189.919 194.432C190.819 194.432 191.467 194.096 191.863 193.484H191.875V194.312H193.003V187.748H191.839V191.816C191.839 192.848 190.999 193.4 190.207 193.4C189.235 193.4 188.803 192.932 188.803 191.828V187.748H187.639V192.092ZM194.152 185.24V194.312H195.316V185.24H194.152ZM196.467 185.24V194.312H197.631V185.24H196.467ZM198.398 190.496H202.31V189.488H198.398V190.496ZM203.509 192.476C203.509 193.796 204.085 194.408 205.333 194.408C205.801 194.408 206.293 194.3 206.557 194.192L206.377 193.256C206.077 193.364 205.801 193.412 205.513 193.412C205.021 193.412 204.673 193.28 204.673 192.476V188.744H206.401V187.748H204.673V186.092H203.509V187.748H202.429V188.744H203.509V192.476ZM207.081 187.748V194.312H208.245V187.748H207.081ZM207.045 185.396V186.668H208.281V185.396H207.045ZM218.443 190.004C218.443 188.492 217.615 187.628 216.271 187.628C215.239 187.628 214.651 188.084 214.231 188.72C213.895 188.024 213.223 187.628 212.347 187.628C211.435 187.628 210.847 188.06 210.595 188.636H210.583V187.748H209.431V194.312H210.595V190.16C210.595 189.128 211.399 188.684 212.119 188.684C212.947 188.684 213.355 189.236 213.355 190.376V194.312H214.519V190.22C214.519 189.152 215.311 188.684 216.043 188.684C216.871 188.684 217.279 189.236 217.279 190.376V194.312H218.443V190.004ZM221.988 188.624C222.984 188.624 223.608 189.272 223.608 190.28V190.496H220.32V190.328C220.32 189.32 221.016 188.624 221.988 188.624ZM224.088 192.812C223.524 193.172 222.948 193.4 222.096 193.4C221.052 193.4 220.32 192.728 220.32 191.492V191.444H224.736V190.568C224.736 188.696 223.668 187.628 221.988 187.628C220.368 187.628 219.168 188.648 219.168 190.64V191.384C219.168 193.508 220.428 194.408 222.048 194.408C223.236 194.408 224.004 194.084 224.58 193.688L224.088 192.812ZM231.404 189.2L232.736 194.312H234.104L235.784 187.748H234.632L233.408 193.1H233.384L232.004 187.748H230.828L229.436 193.1H229.412L228.212 187.748H226.988L228.692 194.312H230.06L231.38 189.2H231.404ZM238.744 187.628C236.944 187.628 235.816 188.708 235.816 190.616V191.42C235.816 193.316 236.944 194.408 238.744 194.408C240.544 194.408 241.672 193.316 241.672 191.42V190.616C241.672 188.72 240.544 187.628 238.744 187.628ZM238.744 193.388C237.7 193.388 236.992 192.716 236.992 191.324V190.712C236.992 189.32 237.7 188.648 238.744 188.648C239.788 188.648 240.496 189.32 240.496 190.712V191.324C240.496 192.716 239.788 193.388 238.744 193.388ZM246.411 187.76C246.147 187.676 245.859 187.628 245.559 187.628C244.599 187.628 244.011 188.06 243.627 188.792H243.615V187.748H242.487V194.312H243.651V190.484C243.651 189.452 244.395 188.732 245.259 188.732C245.571 188.732 245.835 188.792 246.063 188.888L246.411 187.76ZM252.243 187.748H250.743L247.935 190.7V185.24H246.771V194.312H247.935V192.116L248.847 191.192L250.935 194.312H252.399L249.651 190.376L252.243 187.748ZM255.097 188.624C256.093 188.624 256.717 189.272 256.717 190.28V190.496H253.429V190.328C253.429 189.32 254.125 188.624 255.097 188.624ZM257.197 192.812C256.633 193.172 256.057 193.4 255.205 193.4C254.161 193.4 253.429 192.728 253.429 191.492V191.444H257.845V190.568C257.845 188.696 256.777 187.628 255.097 187.628C253.477 187.628 252.277 188.648 252.277 190.64V191.384C252.277 193.508 253.537 194.408 255.157 194.408C256.345 194.408 257.113 194.084 257.689 193.688L257.197 192.812ZM262.485 187.76C262.221 187.676 261.933 187.628 261.633 187.628C260.673 187.628 260.085 188.06 259.701 188.792H259.689V187.748H258.561V194.312H259.725V190.484C259.725 189.452 260.469 188.732 261.333 188.732C261.645 188.732 261.909 188.792 262.137 188.888L262.485 187.76Z" fill="#222222"/>
<path d="M43.428 163.174L46.326 160.285L45.966 159.907L43.068 162.814L40.197 159.907L39.828 160.303L42.708 163.192L39.81 166.072L40.188 166.45L43.059 163.543L45.939 166.45L46.344 166.054L43.428 163.174ZM43.626 160.501C43.626 160.168 43.338 159.88 43.005 159.88C42.672 159.88 42.384 160.168 42.384 160.501C42.384 160.834 42.681 161.131 43.014 161.131C43.356 161.131 43.635 160.834 43.635 160.501H43.626ZM40.953 163.201C40.953 162.859 40.665 162.571 40.332 162.571C40.008 162.571 39.711 162.859 39.711 163.201C39.711 163.525 40.017 163.813 40.341 163.813C40.683 163.813 40.962 163.525 40.962 163.201H40.953ZM46.479 163.201C46.479 162.841 46.182 162.571 45.849 162.571C45.516 162.571 45.237 162.841 45.237 163.201C45.237 163.525 45.534 163.804 45.858 163.804C46.191 163.804 46.479 163.525 46.479 163.201ZM43.635 165.973C43.635 165.622 43.338 165.343 43.005 165.343C42.672 165.343 42.402 165.622 42.402 165.973C42.402 166.297 42.681 166.585 43.014 166.585C43.356 166.585 43.635 166.297 43.635 165.973ZM49.1084 166.234H51.4574C52.8614 166.234 53.5364 165.586 53.5364 164.524V164.299C53.5364 163.399 52.9874 162.931 52.1954 162.814C52.9694 162.625 53.2394 162.085 53.2394 161.518V161.329C53.2394 160.267 52.5554 159.745 51.1784 159.745H49.1084V166.234ZM49.7294 163.111H51.2054C52.5014 163.111 52.8974 163.525 52.8974 164.317V164.515C52.8974 165.28 52.4204 165.676 51.4034 165.676H49.7294V163.111ZM51.1334 160.294C52.1504 160.294 52.6094 160.573 52.6094 161.338V161.5C52.6094 162.31 52.0964 162.58 51.1964 162.58H49.7294V160.294H51.1334ZM55.3925 166.306C55.7615 166.306 56.1035 166.234 56.3735 166.099C56.6255 165.973 56.8235 165.793 56.9135 165.64H56.9225V166.234H57.5165V162.841C57.5165 161.86 56.8505 161.293 55.7705 161.293C55.0325 161.293 54.4835 161.554 54.0335 161.869L54.3305 162.337C54.7445 162.049 55.2395 161.842 55.7615 161.842C56.5175 161.842 56.9135 162.238 56.9135 162.94V163.39H55.5455C54.4205 163.39 53.8355 163.939 53.8355 164.722V164.92C53.8355 165.775 54.4745 166.306 55.3925 166.306ZM56.9135 164.722C56.9135 165.091 56.7155 165.334 56.4545 165.496C56.1665 165.676 55.8695 165.775 55.4825 165.775C54.9875 165.775 54.4475 165.523 54.4475 164.893V164.749C54.4475 164.254 54.7805 163.903 55.5545 163.903H56.9135V164.722ZM59.8763 165.757C59.3093 165.757 58.7873 165.55 58.3463 165.253L58.0493 165.739C58.5083 166.072 59.1293 166.306 59.9123 166.306C60.9383 166.306 61.6943 165.766 61.6943 164.992V164.857C61.6943 164.083 61.1903 163.696 59.9933 163.471C59.2283 163.327 58.7783 163.111 58.7783 162.688V162.589C58.7783 162.166 59.1743 161.833 59.9033 161.833C60.5243 161.833 60.9023 161.986 61.3073 162.256L61.5863 161.797C61.1903 161.5 60.6593 161.293 59.9213 161.293C58.7333 161.293 58.1663 161.887 58.1663 162.58V162.706C58.1663 163.498 58.8053 163.813 59.7773 164.002C60.7043 164.182 61.0823 164.398 61.0823 164.884V164.974C61.0823 165.388 60.6593 165.757 59.8763 165.757ZM62.6404 163.489V163.408C62.6404 162.454 63.1444 161.833 63.9994 161.833C64.8454 161.833 65.3404 162.4 65.3404 163.408V163.489H62.6404ZM65.5744 165.289C65.2234 165.541 64.7374 165.766 64.0894 165.766C63.1984 165.766 62.6404 165.154 62.6404 164.083V164.002H65.9524V163.498C65.9524 162.139 65.2594 161.293 63.9994 161.293C62.7844 161.293 62.0284 162.103 62.0284 163.48V164.083C62.0284 165.496 62.7934 166.306 64.0804 166.306C64.8994 166.306 65.4574 166.027 65.8444 165.757L65.5744 165.289ZM69.7418 166.234H70.3448V159.43H69.7328V161.977C69.4808 161.617 68.9948 161.293 68.2838 161.293C67.1768 161.293 66.3578 162.049 66.3578 163.372V164.227C66.3578 165.55 67.1768 166.306 68.2928 166.306C68.8508 166.306 69.4628 166.081 69.7328 165.595H69.7418V166.234ZM66.9698 163.462C66.9698 162.436 67.5008 161.833 68.3198 161.833C69.1478 161.833 69.7328 162.472 69.7328 163.039V164.497C69.7328 165.352 69.1028 165.766 68.3198 165.766C67.5098 165.766 66.9698 165.172 66.9698 164.137V163.462ZM74.7917 161.293C73.4957 161.293 72.7307 162.094 72.7307 163.498V164.101C72.7307 165.496 73.4957 166.306 74.7917 166.306C76.0877 166.306 76.8527 165.496 76.8527 164.101V163.498C76.8527 162.103 76.0877 161.293 74.7917 161.293ZM74.7917 165.766C73.9007 165.766 73.3517 165.208 73.3517 164.065V163.534C73.3517 162.391 73.9007 161.833 74.7917 161.833C75.6827 161.833 76.2317 162.391 76.2317 163.534V164.065C76.2317 165.208 75.6827 165.766 74.7917 165.766ZM79.6189 161.293C78.8539 161.293 78.3589 161.689 78.1339 162.058V161.383H77.5309V166.234H78.1429V163.084C78.1429 162.517 78.7099 161.851 79.5289 161.851C80.4919 161.851 80.7529 162.427 80.7529 163.12V166.234H81.3649V162.967C81.3649 161.959 80.7259 161.293 79.6189 161.293ZM86.6302 161.392C86.4322 161.32 86.2072 161.293 85.9372 161.293C85.1992 161.293 84.7492 161.77 84.5422 162.238V161.383H83.9392V166.234H84.5512V163.48C84.5512 162.571 85.0552 161.914 85.8562 161.914C86.0902 161.914 86.2792 161.95 86.4412 162.013L86.6302 161.392ZM87.3018 163.489V163.408C87.3018 162.454 87.8058 161.833 88.6608 161.833C89.5068 161.833 90.0018 162.4 90.0018 163.408V163.489H87.3018ZM90.2358 165.289C89.8848 165.541 89.3988 165.766 88.7508 165.766C87.8598 165.766 87.3018 165.154 87.3018 164.083V164.002H90.6138V163.498C90.6138 162.139 89.9208 161.293 88.6608 161.293C87.4458 161.293 86.6898 162.103 86.6898 163.48V164.083C86.6898 165.496 87.4548 166.306 88.7418 166.306C89.5608 166.306 90.1188 166.027 90.5058 165.757L90.2358 165.289ZM93.0172 161.293C91.8292 161.293 91.0102 162.067 91.0102 163.48V164.083C91.0102 165.496 91.7662 166.306 93.0262 166.306C93.8992 166.306 94.3942 166.027 94.7452 165.757L94.4572 165.271C94.1062 165.532 93.7102 165.748 93.0352 165.748C92.1712 165.748 91.6312 165.145 91.6312 164.083V163.462C91.6312 162.454 92.1622 161.842 93.0172 161.842C93.4762 161.842 93.8812 161.932 94.3312 162.247L94.6102 161.77C94.2052 161.464 93.7012 161.293 93.0172 161.293ZM96.9784 161.293C95.6824 161.293 94.9174 162.094 94.9174 163.498V164.101C94.9174 165.496 95.6824 166.306 96.9784 166.306C98.2744 166.306 99.0394 165.496 99.0394 164.101V163.498C99.0394 162.103 98.2744 161.293 96.9784 161.293ZM96.9784 165.766C96.0874 165.766 95.5384 165.208 95.5384 164.065V163.534C95.5384 162.391 96.0874 161.833 96.9784 161.833C97.8694 161.833 98.4184 162.391 98.4184 163.534V164.065C98.4184 165.208 97.8694 165.766 96.9784 165.766ZM102.409 161.392C102.211 161.32 101.986 161.293 101.716 161.293C100.978 161.293 100.528 161.77 100.321 162.238V161.383H99.7177V166.234H100.33V163.48C100.33 162.571 100.834 161.914 101.635 161.914C101.869 161.914 102.058 161.95 102.22 162.013L102.409 161.392ZM105.861 166.234H106.464V159.43H105.852V161.977C105.6 161.617 105.114 161.293 104.403 161.293C103.296 161.293 102.477 162.049 102.477 163.372V164.227C102.477 165.55 103.296 166.306 104.412 166.306C104.97 166.306 105.582 166.081 105.852 165.595H105.861V166.234ZM103.089 163.462C103.089 162.436 103.62 161.833 104.439 161.833C105.267 161.833 105.852 162.472 105.852 163.039V164.497C105.852 165.352 105.222 165.766 104.439 165.766C103.629 165.766 103.089 165.172 103.089 164.137V163.462ZM107.752 163.489V163.408C107.752 162.454 108.256 161.833 109.111 161.833C109.957 161.833 110.452 162.4 110.452 163.408V163.489H107.752ZM110.686 165.289C110.335 165.541 109.849 165.766 109.201 165.766C108.31 165.766 107.752 165.154 107.752 164.083V164.002H111.064V163.498C111.064 162.139 110.371 161.293 109.111 161.293C107.896 161.293 107.14 162.103 107.14 163.48V164.083C107.14 165.496 107.905 166.306 109.192 166.306C110.011 166.306 110.569 166.027 110.956 165.757L110.686 165.289ZM114.854 166.234H115.457V159.43H114.845V161.977C114.593 161.617 114.107 161.293 113.396 161.293C112.289 161.293 111.47 162.049 111.47 163.372V164.227C111.47 165.55 112.289 166.306 113.405 166.306C113.963 166.306 114.575 166.081 114.845 165.595H114.854V166.234ZM112.082 163.462C112.082 162.436 112.613 161.833 113.432 161.833C114.26 161.833 114.845 162.472 114.845 163.039V164.497C114.845 165.352 114.215 165.766 113.432 165.766C112.622 165.766 112.082 165.172 112.082 164.137V163.462ZM119.606 165.757C119.039 165.757 118.517 165.55 118.076 165.253L117.779 165.739C118.238 166.072 118.859 166.306 119.642 166.306C120.668 166.306 121.424 165.766 121.424 164.992V164.857C121.424 164.083 120.92 163.696 119.723 163.471C118.958 163.327 118.508 163.111 118.508 162.688V162.589C118.508 162.166 118.904 161.833 119.633 161.833C120.254 161.833 120.632 161.986 121.037 162.256L121.316 161.797C120.92 161.5 120.389 161.293 119.651 161.293C118.463 161.293 117.896 161.887 117.896 162.58V162.706C117.896 163.498 118.535 163.813 119.507 164.002C120.434 164.182 120.812 164.398 120.812 164.884V164.974C120.812 165.388 120.389 165.757 119.606 165.757ZM122.362 164.884C122.362 165.937 122.767 166.279 123.613 166.279C123.874 166.279 124.243 166.234 124.432 166.162L124.342 165.658C124.117 165.721 123.901 165.748 123.658 165.748C123.172 165.748 122.974 165.514 122.974 164.857V161.905H124.315V161.383H122.974V160.132H122.362V161.383H121.534V161.905H122.362V164.884ZM126.247 166.306C126.616 166.306 126.958 166.234 127.228 166.099C127.48 165.973 127.678 165.793 127.768 165.64H127.777V166.234H128.371V162.841C128.371 161.86 127.705 161.293 126.625 161.293C125.887 161.293 125.338 161.554 124.888 161.869L125.185 162.337C125.599 162.049 126.094 161.842 126.616 161.842C127.372 161.842 127.768 162.238 127.768 162.94V163.39H126.4C125.275 163.39 124.69 163.939 124.69 164.722V164.92C124.69 165.775 125.329 166.306 126.247 166.306ZM127.768 164.722C127.768 165.091 127.57 165.334 127.309 165.496C127.021 165.676 126.724 165.775 126.337 165.775C125.842 165.775 125.302 165.523 125.302 164.893V164.749C125.302 164.254 125.635 163.903 126.409 163.903H127.768V164.722ZM129.57 164.884C129.57 165.937 129.975 166.279 130.821 166.279C131.082 166.279 131.451 166.234 131.64 166.162L131.55 165.658C131.325 165.721 131.109 165.748 130.866 165.748C130.38 165.748 130.182 165.514 130.182 164.857V161.905H131.523V161.383H130.182V160.132H129.57V161.383H128.742V161.905H129.57V164.884ZM132.528 163.489V163.408C132.528 162.454 133.032 161.833 133.887 161.833C134.733 161.833 135.228 162.4 135.228 163.408V163.489H132.528ZM135.462 165.289C135.111 165.541 134.625 165.766 133.977 165.766C133.086 165.766 132.528 165.154 132.528 164.083V164.002H135.84V163.498C135.84 162.139 135.147 161.293 133.887 161.293C132.672 161.293 131.916 162.103 131.916 163.48V164.083C131.916 165.496 132.681 166.306 133.968 166.306C134.787 166.306 135.345 166.027 135.732 165.757L135.462 165.289ZM141.41 161.293C140.636 161.293 140.15 161.761 139.934 162.175C139.718 161.617 139.241 161.293 138.467 161.293C137.756 161.293 137.324 161.671 137.108 162.058V161.383H136.505V166.234H137.117V163.084C137.117 162.517 137.558 161.851 138.359 161.851C139.232 161.851 139.448 162.346 139.448 163.129V166.234H140.06V163.048C140.078 162.49 140.519 161.851 141.302 161.851C142.175 161.851 142.391 162.346 142.391 163.129V166.234H143.003V162.967C143.003 161.941 142.508 161.293 141.41 161.293ZM144.254 163.489V163.408C144.254 162.454 144.758 161.833 145.613 161.833C146.459 161.833 146.954 162.4 146.954 163.408V163.489H144.254ZM147.188 165.289C146.837 165.541 146.351 165.766 145.703 165.766C144.812 165.766 144.254 165.154 144.254 164.083V164.002H147.566V163.498C147.566 162.139 146.873 161.293 145.613 161.293C144.398 161.293 143.642 162.103 143.642 163.48V164.083C143.642 165.496 144.407 166.306 145.694 166.306C146.513 166.306 147.071 166.027 147.458 165.757L147.188 165.289ZM150.319 161.293C149.554 161.293 149.059 161.689 148.834 162.058V161.383H148.231V166.234H148.843V163.084C148.843 162.517 149.41 161.851 150.229 161.851C151.192 161.851 151.453 162.427 151.453 163.12V166.234H152.065V162.967C152.065 161.959 151.426 161.293 150.319 161.293ZM153.307 164.884C153.307 165.937 153.712 166.279 154.558 166.279C154.819 166.279 155.188 166.234 155.377 166.162L155.287 165.658C155.062 165.721 154.846 165.748 154.603 165.748C154.117 165.748 153.919 165.514 153.919 164.857V161.905H155.26V161.383H153.919V160.132H153.307V161.383H152.479V161.905H153.307V164.884ZM159.424 161.293C158.128 161.293 157.363 162.094 157.363 163.498V164.101C157.363 165.496 158.128 166.306 159.424 166.306C160.72 166.306 161.485 165.496 161.485 164.101V163.498C161.485 162.103 160.72 161.293 159.424 161.293ZM159.424 165.766C158.533 165.766 157.984 165.208 157.984 164.065V163.534C157.984 162.391 158.533 161.833 159.424 161.833C160.315 161.833 160.864 162.391 160.864 163.534V164.065C160.864 165.208 160.315 165.766 159.424 165.766ZM162.56 166.234H163.172V161.905H164.513V161.383H163.172V160.798C163.172 160.141 163.37 159.907 163.856 159.907C164.099 159.907 164.315 159.934 164.54 159.997L164.63 159.493C164.441 159.421 164.072 159.376 163.811 159.376C163.001 159.376 162.56 159.718 162.56 160.771V161.383H161.732V161.905H162.56V166.234ZM168.014 166.306C168.383 166.306 168.725 166.234 168.995 166.099C169.247 165.973 169.445 165.793 169.535 165.64H169.544V166.234H170.138V162.841C170.138 161.86 169.472 161.293 168.392 161.293C167.654 161.293 167.105 161.554 166.655 161.869L166.952 162.337C167.366 162.049 167.861 161.842 168.383 161.842C169.139 161.842 169.535 162.238 169.535 162.94V163.39H168.167C167.042 163.39 166.457 163.939 166.457 164.722V164.92C166.457 165.775 167.096 166.306 168.014 166.306ZM169.535 164.722C169.535 165.091 169.337 165.334 169.076 165.496C168.788 165.676 168.491 165.775 168.104 165.775C167.609 165.775 167.069 165.523 167.069 164.893V164.749C167.069 164.254 167.402 163.903 168.176 163.903H169.535V164.722ZM171.355 166.234H171.967V161.905H173.308V161.383H171.967V160.798C171.967 160.141 172.165 159.907 172.651 159.907C172.894 159.907 173.11 159.934 173.335 159.997L173.425 159.493C173.236 159.421 172.867 159.376 172.606 159.376C171.796 159.376 171.355 159.718 171.355 160.771V161.383H170.527V161.905H171.355V166.234ZM174.181 166.234H174.793V161.905H176.134V161.383H174.793V160.798C174.793 160.141 174.991 159.907 175.477 159.907C175.72 159.907 175.936 159.934 176.161 159.997L176.251 159.493C176.062 159.421 175.693 159.376 175.432 159.376C174.622 159.376 174.181 159.718 174.181 160.771V161.383H173.353V161.905H174.181V166.234ZM177.925 166.306C178.294 166.306 178.636 166.234 178.906 166.099C179.158 165.973 179.356 165.793 179.446 165.64H179.455V166.234H180.049V162.841C180.049 161.86 179.383 161.293 178.303 161.293C177.565 161.293 177.016 161.554 176.566 161.869L176.863 162.337C177.277 162.049 177.772 161.842 178.294 161.842C179.05 161.842 179.446 162.238 179.446 162.94V163.39H178.078C176.953 163.39 176.368 163.939 176.368 164.722V164.92C176.368 165.775 177.007 166.306 177.925 166.306ZM179.446 164.722C179.446 165.091 179.248 165.334 178.987 165.496C178.699 165.676 178.402 165.775 178.015 165.775C177.52 165.775 176.98 165.523 176.98 164.893V164.749C176.98 164.254 177.313 163.903 178.087 163.903H179.446V164.722ZM180.897 166.234H181.509V161.383H180.897V166.234ZM180.87 160.456H181.536V159.772H180.87V160.456ZM185.13 161.392C184.932 161.32 184.707 161.293 184.437 161.293C183.699 161.293 183.249 161.77 183.042 162.238V161.383H182.439V166.234H183.051V163.48C183.051 162.571 183.555 161.914 184.356 161.914C184.59 161.914 184.779 161.95 184.941 162.013L185.13 161.392ZM186.954 165.757C186.387 165.757 185.865 165.55 185.424 165.253L185.127 165.739C185.586 166.072 186.207 166.306 186.99 166.306C188.016 166.306 188.772 165.766 188.772 164.992V164.857C188.772 164.083 188.268 163.696 187.071 163.471C186.306 163.327 185.856 163.111 185.856 162.688V162.589C185.856 162.166 186.252 161.833 186.981 161.833C187.602 161.833 187.98 161.986 188.385 162.256L188.664 161.797C188.268 161.5 187.737 161.293 186.999 161.293C185.811 161.293 185.244 161.887 185.244 162.58V162.706C185.244 163.498 185.883 163.813 186.855 164.002C187.782 164.182 188.16 164.398 188.16 164.884V164.974C188.16 165.388 187.737 165.757 186.954 165.757Z" fill="#555555"/>
</svg>
