<svg width="692" height="220" viewBox="0 0 692 220" fill="none" xmlns="http://www.w3.org/2000/svg">
<g filter="url(#filter0_d_182_8016)">
<path d="M661 100C661 149.153 621.153 189 572 189C522.847 189 483 149.153 483 100C483 50.8467 522.847 11 572 11C621.153 11 661 50.8467 661 100Z" fill="white" stroke="url(#paint0_linear_182_8016)" stroke-width="2"/>
</g>
<path d="M542.556 72.32V79.544H534.516V72.32H532.14V89.624H534.516V81.656H542.556V89.624H544.932V72.32H542.556ZM552.522 76.256C548.922 76.256 546.666 78.416 546.666 82.232V83.84C546.666 87.632 548.922 89.816 552.522 89.816C556.122 89.816 558.378 87.632 558.378 83.84V82.232C558.378 78.44 556.122 76.256 552.522 76.256ZM552.522 87.776C550.434 87.776 549.018 86.432 549.018 83.648V82.424C549.018 79.64 550.434 78.296 552.522 78.296C554.61 78.296 556.026 79.64 556.026 82.424V83.648C556.026 86.432 554.61 87.776 552.522 87.776ZM570.831 80.936C570.831 77.768 568.767 76.256 566.223 76.256C564.423 76.256 563.079 76.928 562.287 78.152H562.263V76.496H560.007V89.624H562.335V81.488C562.335 79.424 564.063 78.32 565.647 78.32C567.591 78.32 568.503 79.256 568.503 81.464V89.624H570.831V80.936ZM577.903 78.248C579.895 78.248 581.143 79.544 581.143 81.56V81.992H574.567V81.656C574.567 79.64 575.959 78.248 577.903 78.248ZM582.103 86.624C580.975 87.344 579.823 87.8 578.118 87.8C576.031 87.8 574.567 86.456 574.567 83.984V83.888H583.398V82.136C583.398 78.392 581.263 76.256 577.903 76.256C574.663 76.256 572.263 78.296 572.263 82.28V83.768C572.263 88.016 574.783 89.816 578.023 89.816C580.399 89.816 581.935 89.168 583.087 88.376L582.103 86.624ZM588.91 87.8C587.326 87.8 585.982 87.2 584.806 86.408L583.726 88.232C584.974 89.192 586.822 89.816 589.006 89.816C592.054 89.816 593.998 88.208 593.998 86.144V85.832C593.998 83.408 592.486 82.448 589.294 81.848C587.254 81.464 586.462 81.08 586.462 80.048V79.832C586.462 78.92 587.254 78.248 589.198 78.248C590.518 78.248 591.79 78.656 592.654 79.304L593.686 77.552C592.39 76.64 590.806 76.256 589.03 76.256C585.622 76.256 584.134 77.984 584.134 79.808V80.096C584.134 82.4 585.742 83.336 588.646 83.936C591.118 84.44 591.646 84.8 591.646 85.904V86.096C591.646 87.152 590.638 87.8 588.91 87.8ZM596.16 85.952C596.16 88.592 597.312 89.816 599.808 89.816C600.744 89.816 601.728 89.6 602.256 89.384L601.896 87.512C601.296 87.728 600.744 87.824 600.168 87.824C599.184 87.824 598.488 87.56 598.488 85.952V78.488H601.944V76.496H598.488V73.184H596.16V76.496H594V78.488H596.16V85.952ZM607.6 86.984L604.12 76.496H601.6L606.376 89.816L604.672 94.304L606.784 95.048L613.6 76.496H611.152L607.696 86.984H607.6ZM542.904 123.824C540.888 123.824 539.376 122.696 539.376 121.352V120.968C539.376 119.552 540.384 118.688 542.64 117.488L546.696 122.336C545.736 123.272 544.416 123.824 542.904 123.824ZM541.368 111.68C541.368 110.864 542.184 110.072 543.504 110.072C544.68 110.072 545.64 110.792 545.64 111.68V111.944C545.64 112.784 545.256 113.72 543.168 114.92C542.328 113.936 541.368 112.808 541.368 111.944V111.68ZM548.76 116.336C548.76 118.352 548.496 119.576 547.968 120.584L544.464 116.48C547.08 114.92 547.824 113.576 547.824 112.04V111.584C547.824 109.88 546.168 108.056 543.504 108.056C540.696 108.056 539.208 109.712 539.208 111.584V112.016C539.208 113.528 540.312 114.752 541.272 115.88C538.488 117.272 537.144 118.664 537.144 120.872V121.424C537.144 124.472 539.904 125.888 542.808 125.888H542.952C544.728 125.888 546.648 125.264 548.064 123.92L549.48 125.6H552.216L549.432 122.312C550.44 120.752 550.944 118.76 550.944 116.336H548.76ZM563.562 125.624V110.36H568.842V108.32H555.906V110.36H561.186V125.624H563.562ZM576.318 112.52C575.79 112.352 575.214 112.256 574.614 112.256C572.694 112.256 571.518 113.12 570.75 114.584H570.726V112.496H568.47V125.624H570.798V117.968C570.798 115.904 572.286 114.464 574.014 114.464C574.638 114.464 575.166 114.584 575.622 114.776L576.318 112.52ZM576.845 121.184C576.845 124.352 578.861 125.864 581.405 125.864C583.205 125.864 584.501 125.192 585.293 123.968H585.317V125.624H587.573V112.496H585.245V120.632C585.245 122.696 583.565 123.8 581.981 123.8C580.037 123.8 579.173 122.864 579.173 120.656V112.496H576.845V121.184ZM593.951 123.8C592.367 123.8 591.023 123.2 589.847 122.408L588.767 124.232C590.015 125.192 591.863 125.816 594.047 125.816C597.095 125.816 599.039 124.208 599.039 122.144V121.832C599.039 119.408 597.527 118.448 594.335 117.848C592.295 117.464 591.503 117.08 591.503 116.048V115.832C591.503 114.92 592.295 114.248 594.239 114.248C595.559 114.248 596.831 114.656 597.695 115.304L598.727 113.552C597.431 112.64 595.847 112.256 594.071 112.256C590.663 112.256 589.175 113.984 589.175 115.808V116.096C589.175 118.4 590.783 119.336 593.687 119.936C596.159 120.44 596.687 120.8 596.687 121.904V122.096C596.687 123.152 595.679 123.8 593.951 123.8ZM601.2 121.952C601.2 124.592 602.352 125.816 604.848 125.816C605.784 125.816 606.768 125.6 607.296 125.384L606.936 123.512C606.336 123.728 605.784 123.824 605.208 123.824C604.224 123.824 603.528 123.56 603.528 121.952V114.488H606.984V112.496H603.528V109.184H601.2V112.496H599.04V114.488H601.2V121.952Z" fill="#222222"/>
<path d="M454 102L446 110M454 102L446 94M454 102L462 94M454 102L462 110" stroke="#AAAAAA" stroke-width="2"/>
<g filter="url(#filter1_d_182_8016)">
<path d="M425 100C425 149.153 385.153 189 336 189C286.847 189 247 149.153 247 100C247 50.8467 286.847 11 336 11C385.153 11 425 50.8467 425 100Z" fill="white" stroke="url(#paint1_linear_182_8016)" stroke-width="2"/>
</g>
<path d="M298.968 107.624H301.344V100.88H305.16C308.928 100.88 310.896 98.576 310.896 95.768V95.264C310.896 92.432 309.072 90.32 305.16 90.32H298.968V107.624ZM305.016 92.384C307.248 92.384 308.496 93.32 308.496 95.288V95.72C308.496 97.808 307.248 98.816 304.752 98.816H301.344V92.384H305.016ZM315.541 107.816C316.693 107.816 317.461 107.6 318.157 107.216C318.661 106.928 319.141 106.52 319.381 106.04H319.405V107.624H321.637V98.432C321.637 95.792 319.573 94.256 316.645 94.256C314.533 94.256 312.973 95.024 311.701 95.912L312.853 97.64C314.077 96.848 315.085 96.32 316.621 96.32C318.541 96.32 319.333 97.16 319.333 98.912V99.68H315.997C312.637 99.68 311.221 101.24 311.221 103.472V104.12C311.221 106.424 312.901 107.816 315.541 107.816ZM319.333 102.944C319.333 103.928 319.069 104.504 318.445 104.984C317.749 105.536 316.933 105.8 315.781 105.8C314.533 105.8 313.501 105.248 313.501 103.976V103.64C313.501 102.392 314.221 101.648 316.045 101.648H319.333V102.944ZM327.916 105.8C326.332 105.8 324.988 105.2 323.812 104.408L322.732 106.232C323.98 107.192 325.828 107.816 328.012 107.816C331.06 107.816 333.004 106.208 333.004 104.144V103.832C333.004 101.408 331.492 100.448 328.3 99.848C326.26 99.464 325.468 99.08 325.468 98.048V97.832C325.468 96.92 326.26 96.248 328.204 96.248C329.524 96.248 330.796 96.656 331.66 97.304L332.692 95.552C331.396 94.64 329.812 94.256 328.036 94.256C324.628 94.256 323.14 95.984 323.14 97.808V98.096C323.14 100.4 324.748 101.336 327.652 101.936C330.124 102.44 330.652 102.8 330.652 103.904V104.096C330.652 105.152 329.644 105.8 327.916 105.8ZM338.429 105.8C336.845 105.8 335.501 105.2 334.325 104.408L333.245 106.232C334.493 107.192 336.341 107.816 338.525 107.816C341.573 107.816 343.517 106.208 343.517 104.144V103.832C343.517 101.408 342.005 100.448 338.813 99.848C336.773 99.464 335.981 99.08 335.981 98.048V97.832C335.981 96.92 336.773 96.248 338.717 96.248C340.037 96.248 341.309 96.656 342.173 97.304L343.205 95.552C341.909 94.64 340.325 94.256 338.549 94.256C335.141 94.256 333.653 95.984 333.653 97.808V98.096C333.653 100.4 335.261 101.336 338.165 101.936C340.637 102.44 341.165 102.8 341.165 103.904V104.096C341.165 105.152 340.157 105.8 338.429 105.8ZM344.934 94.496V107.624H347.262V94.496H344.934ZM344.862 89.792V92.336H347.334V89.792H344.862ZM354.817 94.256C351.217 94.256 348.961 96.416 348.961 100.232V101.84C348.961 105.632 351.217 107.816 354.817 107.816C358.417 107.816 360.673 105.632 360.673 101.84V100.232C360.673 96.44 358.417 94.256 354.817 94.256ZM354.817 105.776C352.729 105.776 351.313 104.432 351.313 101.648V100.424C351.313 97.64 352.729 96.296 354.817 96.296C356.905 96.296 358.321 97.64 358.321 100.424V101.648C358.321 104.432 356.905 105.776 354.817 105.776ZM373.126 98.936C373.126 95.768 371.062 94.256 368.518 94.256C366.718 94.256 365.374 94.928 364.582 96.152H364.558V94.496H362.302V107.624H364.63V99.488C364.63 97.424 366.358 96.32 367.942 96.32C369.886 96.32 370.798 97.256 370.798 99.464V107.624H373.126V98.936Z" fill="#222222"/>
<path d="M218 102L210 110M218 102L210 94M218 102L226 94M218 102L226 110" stroke="#AAAAAA" stroke-width="2"/>
<g filter="url(#filter2_d_182_8016)">
<path d="M189 100C189 149.153 149.153 189 100 189C50.8467 189 11 149.153 11 100C11 50.8467 50.8467 11 100 11C149.153 11 189 50.8467 189 100Z" fill="white" stroke="url(#paint2_linear_182_8016)" stroke-width="2"/>
</g>
<path d="M67.2 103.856C65.76 105.272 64.032 105.68 62.376 105.68C59.76 105.68 57.84 103.928 57.84 99.968V97.976C57.84 94.016 59.76 92.264 62.376 92.264C63.936 92.264 65.304 92.576 66.864 93.848L68.088 91.904C66.48 90.632 64.752 90.056 62.376 90.056C58.272 90.056 55.44 92.624 55.44 97.664V100.28C55.44 105.368 58.248 107.888 62.376 107.888C64.704 107.888 66.768 107.336 68.496 105.68L67.2 103.856ZM77.7253 94.52C77.1973 94.352 76.6213 94.256 76.0213 94.256C74.1013 94.256 72.9253 95.12 72.1573 96.584H72.1333V94.496H69.8773V107.624H72.2053V99.968C72.2053 97.904 73.6933 96.464 75.4213 96.464C76.0453 96.464 76.5733 96.584 77.0293 96.776L77.7253 94.52ZM83.4131 96.248C85.4051 96.248 86.6531 97.544 86.6531 99.56V99.992H80.0771V99.656C80.0771 97.64 81.4691 96.248 83.4131 96.248ZM87.6131 104.624C86.4851 105.344 85.3331 105.8 83.6291 105.8C81.5411 105.8 80.0771 104.456 80.0771 101.984V101.888H88.9091V100.136C88.9091 96.392 86.7731 94.256 83.4131 94.256C80.1731 94.256 77.7731 96.296 77.7731 100.28V101.768C77.7731 106.016 80.2931 107.816 83.5331 107.816C85.9091 107.816 87.4451 107.168 88.5971 106.376L87.6131 104.624ZM93.9891 107.816C95.1411 107.816 95.9091 107.6 96.6051 107.216C97.1091 106.928 97.5891 106.52 97.8291 106.04H97.8531V107.624H100.085V98.432C100.085 95.792 98.0211 94.256 95.0931 94.256C92.9811 94.256 91.4211 95.024 90.1491 95.912L91.3011 97.64C92.5251 96.848 93.5331 96.32 95.0691 96.32C96.9891 96.32 97.7811 97.16 97.7811 98.912V99.68H94.4451C91.0851 99.68 89.6691 101.24 89.6691 103.472V104.12C89.6691 106.424 91.3491 107.816 93.9891 107.816ZM97.7811 102.944C97.7811 103.928 97.5171 104.504 96.8931 104.984C96.1971 105.536 95.3811 105.8 94.2291 105.8C92.9811 105.8 91.9491 105.248 91.9491 103.976V103.64C91.9491 102.392 92.6691 101.648 94.4931 101.648H97.7811V102.944ZM103.1 103.952C103.1 106.592 104.252 107.816 106.748 107.816C107.684 107.816 108.668 107.6 109.196 107.384L108.836 105.512C108.236 105.728 107.684 105.824 107.108 105.824C106.124 105.824 105.428 105.56 105.428 103.952V96.488H108.884V94.496H105.428V91.184H103.1V94.496H100.94V96.488H103.1V103.952ZM110.244 94.496V107.624H112.572V94.496H110.244ZM110.172 89.792V92.336H112.644V89.792H110.172ZM119.287 105.44L115.831 94.496H113.311L117.799 107.624H120.775L125.215 94.496H122.767L119.335 105.44H119.287ZM125.95 94.496V107.624H128.278V94.496H125.95ZM125.878 89.792V92.336H128.35V89.792H125.878ZM131.465 103.952C131.465 106.592 132.617 107.816 135.113 107.816C136.049 107.816 137.033 107.6 137.561 107.384L137.201 105.512C136.601 105.728 136.049 105.824 135.473 105.824C134.489 105.824 133.793 105.56 133.793 103.952V96.488H137.249V94.496H133.793V91.184H131.465V94.496H129.305V96.488H131.465V103.952ZM142.905 104.984L139.425 94.496H136.905L141.681 107.816L139.977 112.304L142.089 113.048L148.905 94.496H146.457L143.001 104.984H142.905Z" fill="#222222"/>
<defs>
<filter id="filter0_d_182_8016" x="472" y="0" width="220" height="220" filterUnits="userSpaceOnUse" color-interpolation-filters="sRGB">
<feFlood flood-opacity="0" result="BackgroundImageFix"/>
<feColorMatrix in="SourceAlpha" type="matrix" values="0 0 0 0 0 0 0 0 0 0 0 0 0 0 0 0 0 0 127 0" result="hardAlpha"/>
<feOffset dx="10" dy="10"/>
<feGaussianBlur stdDeviation="10"/>
<feColorMatrix type="matrix" values="0 0 0 0 0 0 0 0 0 0 0 0 0 0 0 0 0 0 0.102 0"/>
<feBlend mode="normal" in2="BackgroundImageFix" result="effect1_dropShadow_182_8016"/>
<feBlend mode="normal" in="SourceGraphic" in2="effect1_dropShadow_182_8016" result="shape"/>
</filter>
<filter id="filter1_d_182_8016" x="236" y="0" width="220" height="220" filterUnits="userSpaceOnUse" color-interpolation-filters="sRGB">
<feFlood flood-opacity="0" result="BackgroundImageFix"/>
<feColorMatrix in="SourceAlpha" type="matrix" values="0 0 0 0 0 0 0 0 0 0 0 0 0 0 0 0 0 0 127 0" result="hardAlpha"/>
<feOffset dx="10" dy="10"/>
<feGaussianBlur stdDeviation="10"/>
<feColorMatrix type="matrix" values="0 0 0 0 0 0 0 0 0 0 0 0 0 0 0 0 0 0 0.102 0"/>
<feBlend mode="normal" in2="BackgroundImageFix" result="effect1_dropShadow_182_8016"/>
<feBlend mode="normal" in="SourceGraphic" in2="effect1_dropShadow_182_8016" result="shape"/>
</filter>
<filter id="filter2_d_182_8016" x="0" y="0" width="220" height="220" filterUnits="userSpaceOnUse" color-interpolation-filters="sRGB">
<feFlood flood-opacity="0" result="BackgroundImageFix"/>
<feColorMatrix in="SourceAlpha" type="matrix" values="0 0 0 0 0 0 0 0 0 0 0 0 0 0 0 0 0 0 127 0" result="hardAlpha"/>
<feOffset dx="10" dy="10"/>
<feGaussianBlur stdDeviation="10"/>
<feColorMatrix type="matrix" values="0 0 0 0 0 0 0 0 0 0 0 0 0 0 0 0 0 0 0.102 0"/>
<feBlend mode="normal" in2="BackgroundImageFix" result="effect1_dropShadow_182_8016"/>
<feBlend mode="normal" in="SourceGraphic" in2="effect1_dropShadow_182_8016" result="shape"/>
</filter>
<linearGradient id="paint0_linear_182_8016" x1="572" y1="10" x2="572" y2="190" gradientUnits="userSpaceOnUse">
<stop stop-color="#33B9A5"/>
<stop offset="0.69" stop-color="#40A7C9"/>
<stop offset="1" stop-color="#5082E6"/>
</linearGradient>
<linearGradient id="paint1_linear_182_8016" x1="336" y1="10" x2="336" y2="190" gradientUnits="userSpaceOnUse">
<stop stop-color="#33B9A5"/>
<stop offset="0.69" stop-color="#40A7C9"/>
<stop offset="1" stop-color="#5082E6"/>
</linearGradient>
<linearGradient id="paint2_linear_182_8016" x1="100" y1="10" x2="100" y2="190" gradientUnits="userSpaceOnUse">
<stop stop-color="#33B9A5"/>
<stop offset="0.69" stop-color="#40A7C9"/>
<stop offset="1" stop-color="#5082E6"/>
</linearGradient>
</defs>
</svg>
