<svg width="345" height="667" viewBox="0 0 345 667" fill="none" xmlns="http://www.w3.org/2000/svg">
<g filter="url(#filter0_d_1_16858)">
<path d="M172 220C221.706 220 262 179.706 262 130C262 80.2944 221.706 40 172 40C122.294 40 82 80.2944 82 130C82 179.706 122.294 220 172 220Z" fill="white"/>
<path d="M261.5 130C261.5 179.429 221.429 219.5 172 219.5C122.571 219.5 82.5 179.429 82.5 130C82.5 80.5705 122.571 40.5 172 40.5C221.429 40.5 261.5 80.5705 261.5 130Z" stroke="#DDDDDD"/>
</g>
<path d="M145.185 130.76C143.097 130.952 141.393 131.048 139.352 131.12V129.752C141.921 129.464 143.24 128.192 143.24 126.632V126.008C143.24 124.256 141.537 122.84 138.177 122.84C134.817 122.84 133.113 124.232 133.113 126.008V126.632C133.113 128.192 134.408 129.464 137.001 129.752V131.168C135.417 131.192 133.569 131.192 131.264 131.192V133.208C138.657 133.208 141.561 133.088 145.377 132.704L145.185 130.76ZM148.881 135.056V127.424H152.001V125.36H148.881V118.232H146.529V135.056H148.881ZM137.145 134.408H134.768V140.144H149.481V138.104H137.145V134.408ZM139.352 120.104V118.04H137.001V120.104H132.104V122.096H144.177V120.104H139.352ZM138.177 124.712C140.072 124.712 140.913 125.408 140.913 126.176V126.464C140.913 127.232 140.072 127.928 138.177 127.928C136.281 127.928 135.441 127.232 135.441 126.464V126.176C135.441 125.408 136.281 124.712 138.177 124.712ZM156.636 136.76C156.636 139.088 159.18 140.984 163.428 140.984C167.676 140.984 170.22 139.088 170.22 136.76V135.8C170.22 133.472 167.676 131.576 163.428 131.576C159.18 131.576 156.636 133.472 156.636 135.8V136.76ZM160.332 122.912C160.332 125.456 159.036 126.632 152.364 129.416L153.3 131.312C160.86 128.096 162.66 126.752 162.66 123.08V119.6H153.276V121.616H160.332V122.912ZM170.124 131.288V118.232H167.796V121.424H163.884V123.464H167.796V126.032H163.524V128.072H167.796V131.288H170.124ZM167.892 136.616C167.892 137.792 166.164 139.04 163.428 139.04C160.692 139.04 158.964 137.792 158.964 136.616V135.944C158.964 134.768 160.692 133.52 163.428 133.52C166.164 133.52 167.892 134.768 167.892 135.944V136.616ZM190.528 129.776V118.232H188.176V122.984H183.832V119.24H181.504V122.408H175.696V119.24H173.368V129.032H183.832V125.024H188.176V129.776H190.528ZM188.176 130.856V133.568H179.08V130.856H176.728V140.36H190.528V130.856H188.176ZM179.08 138.344V135.56H188.176V138.344H179.08ZM175.696 124.4H181.504V127.016H175.696V124.4ZM199.94 140.312V131.528H205.268V140.312H207.644V131.528H212.756V129.512H209.012C209.468 127.136 209.684 124.712 209.684 122.432V119.6H194.996V121.688H207.308V122.984C207.308 125.096 207.116 127.184 206.636 129.512H192.452V131.528H197.564V140.312H199.94Z" fill="#222222"/>
<path d="M21.03 285.14V275.27H19.56V278.93H16.395C16.41 278.825 16.41 278.705 16.41 278.585V276.155H10.515V277.415H14.955V278.51C14.955 280.025 14.235 280.76 9.945 282.635L10.53 283.835C13.995 282.35 15.525 281.435 16.095 280.205H19.56V285.14H21.03ZM13.875 284.405H12.39V288.95H21.315V287.66H13.875V284.405ZM34.1123 289.19V287.96H26.6123V286.625H33.7223V282.875H25.0823V284.105H32.2673V285.425H25.1573V289.19H34.1123ZM26.4773 279.5C26.5673 279.725 26.8823 280.01 27.3323 280.385C28.0523 280.985 28.6973 281.465 29.5073 282.035L30.3323 280.985C29.4473 280.385 28.6523 279.815 27.9473 279.17C27.2273 278.51 27.1673 277.985 27.1673 277.025V275.615H25.6673V277.085C25.6673 278.18 25.5023 278.735 24.7223 279.485C24.1973 279.995 23.2673 280.745 22.2473 281.465L23.1023 282.515C23.9423 281.9 24.8723 281.18 25.4873 280.61C25.9523 280.19 26.3873 279.755 26.4623 279.5H26.4773ZM33.7223 282.185V275.27H32.2523V277.79H29.4923V279.095H32.2523V282.185H33.7223ZM38.2547 285.365C39.7247 285.365 41.0747 285.29 42.3347 285.125L42.2147 283.94C41.7347 284.015 41.2547 284.06 40.7747 284.09V277.85H42.0197V276.635H35.0747V277.85H36.3647V284.15H35.0597V285.365H38.2547ZM43.1597 278.84H41.5247V280.115H43.1597V281.585H41.5247V282.86H43.1597V288.44H44.5997V275.555H43.1597V278.84ZM47.1497 275.27H45.7097V289.1H47.1497V275.27ZM37.8047 284.15V277.85H39.3347V284.15H38.6447H37.8047ZM49.102 286.085C54.577 282.77 54.787 281.93 54.787 279.2V276.545H48.592V277.82H53.317V279.185C53.317 281.315 53.107 282.095 48.322 284.9L49.102 286.085ZM59.197 289.1V275.27H57.712V289.1H59.197ZM71.7544 289.19V287.975H63.7594V286.94H71.3494V283.52H67.5844V282.215H73.1794V280.985H60.4894V282.215H66.0844V283.52H62.2294V284.735H69.8944V285.755H62.3044V289.19H71.7544ZM71.3344 275.585H62.3344V280.04H71.3344V275.585ZM69.8794 278.81H63.7894V276.815H69.8794V278.81ZM77.9217 282.86C80.1867 282.86 81.5967 281.39 81.5967 279.845V279.155C81.5967 277.61 80.1867 276.14 77.9217 276.14C75.6567 276.14 74.2467 277.61 74.2467 279.155V279.845C74.2467 281.39 75.6567 282.86 77.9217 282.86ZM77.9217 281.57C76.6617 281.57 75.6717 280.73 75.6717 279.755V279.245C75.6717 278.225 76.6617 277.43 77.9217 277.43C79.1817 277.43 80.1717 278.225 80.1717 279.245V279.755C80.1717 280.73 79.1817 281.57 77.9217 281.57ZM82.5417 284.615C80.0517 284.855 77.5317 284.945 73.5717 284.93V286.22C77.5017 286.22 80.1417 286.115 82.6767 285.86L82.5417 284.615ZM84.8667 289.1V275.27H83.3967V289.1H84.8667ZM93.1641 282.485C93.2841 282.785 93.6591 283.205 94.0791 283.655C94.6491 284.27 95.2791 284.9 96.2991 285.83L97.2741 284.825C96.3891 284.045 95.7591 283.46 95.1141 282.755C94.0491 281.6 93.8841 281.15 93.8841 279.965V278.57H96.8391V277.28H93.8841V275.33H92.3841V277.28H89.2941V278.57H92.3841V279.965C92.3841 281.075 92.2191 281.645 91.2291 282.74C90.5541 283.49 89.8191 284.225 88.9191 285.035L89.8941 286.04C90.8991 285.11 91.6491 284.345 92.2641 283.67C92.7441 283.145 93.0141 282.815 93.1491 282.485H93.1641ZM100.409 289.1V275.27H98.9241V280.19H96.2391V281.495H98.9241V289.1H100.409ZM113.041 289.1V275.27H111.556V289.1H113.041ZM108.781 281.54V276.365H102.556V277.64H107.311V280.295H102.601V285.755H105.121C107.611 285.755 108.976 285.635 110.371 285.425L110.236 284.18C108.676 284.405 107.476 284.48 105.481 284.48H104.071V281.54H108.781ZM117.199 281.69V282.95H129.889V281.69H117.199ZM119.074 275.78V280.505H128.029V279.245H120.544V277.04H127.939V275.78H119.074ZM123.544 289.49C126.199 289.49 127.864 288.395 127.864 287V286.49C127.864 285.065 126.184 284 123.544 284C120.904 284 119.224 285.05 119.224 286.49V287C119.224 288.41 120.904 289.49 123.544 289.49ZM123.544 285.215C125.239 285.215 126.394 285.86 126.394 286.58V286.91C126.394 287.63 125.239 288.275 123.544 288.275C121.849 288.275 120.694 287.63 120.694 286.91V286.58C120.694 285.86 121.849 285.215 123.544 285.215ZM133.326 276.305C131.331 276.305 130.281 277.64 130.281 280.28V281.75C130.281 284.39 131.331 285.725 133.326 285.725C135.321 285.725 136.371 284.39 136.371 281.75V281.615H137.796V288.425H139.251V275.555H137.796V280.325H136.371V280.28C136.371 277.64 135.321 276.305 133.326 276.305ZM141.996 275.27H140.541V289.1H141.996V275.27ZM133.326 284.42C132.216 284.42 131.691 283.61 131.691 281.585V280.445C131.691 278.42 132.216 277.625 133.326 277.625C134.436 277.625 134.961 278.42 134.961 280.445V281.585C134.961 283.61 134.436 284.42 133.326 284.42ZM156.563 285.53V280.775H158.513V279.485H156.563V275.27H155.093V285.53H156.563ZM149.228 284.81H147.743V288.965H156.938V287.69H149.228V284.81ZM154.238 281.9C152.663 282.05 151.433 282.125 149.783 282.17V279.335H148.313V282.2H145.553V283.475C150.173 283.475 151.973 283.37 154.358 283.13L154.238 281.9ZM152.933 280.91C153.143 280.04 153.278 278.69 153.278 277.625V275.975H146.483V277.25H151.808V277.835C151.808 278.69 151.703 279.695 151.478 280.73L152.933 280.91ZM162.446 284.135C164.591 284.135 165.671 282.875 165.671 281.585V281.135C165.671 279.845 164.591 278.585 162.446 278.585C160.301 278.585 159.221 279.83 159.221 281.135V281.585C159.221 282.875 160.301 284.135 162.446 284.135ZM171.191 279.38H169.226V275.27H167.756V285.305H169.226V280.67H171.191V279.38ZM162.266 285.125H160.781V288.95H169.601V287.66H162.266V285.125ZM166.406 276.8H163.181V275.135H161.711V276.8H158.471V278.06H166.406V276.8ZM162.446 282.95C161.231 282.95 160.631 282.245 160.631 281.51V281.21C160.631 280.475 161.216 279.77 162.446 279.77C163.676 279.77 164.261 280.475 164.261 281.21V281.51C164.261 282.245 163.661 282.95 162.446 282.95ZM185.458 282.35V275.27H183.988V278.27H181.183C180.988 276.995 179.848 275.75 177.778 275.75C175.498 275.75 174.343 277.25 174.343 278.645V279.215C174.343 280.61 175.498 282.11 177.778 282.11C179.878 282.11 181.018 280.835 181.183 279.545H183.988V282.35H185.458ZM183.988 283.025V284.78H178.303V283.025H176.833V289.1H185.458V283.025H183.988ZM177.778 280.835C176.503 280.835 175.768 279.965 175.768 279.14V278.72C175.768 277.895 176.503 277.04 177.778 277.04C179.053 277.04 179.788 277.895 179.788 278.72V279.14C179.788 279.965 179.053 280.835 177.778 280.835ZM178.303 287.84V286.025H183.988V287.84H178.303ZM197.535 276.05H188.475V281.705H197.535V276.05ZM193.755 289.1V284.555H199.35V283.295H186.66V284.555H192.255V289.1H193.755ZM189.945 277.295H196.065V280.46H189.945V277.295ZM203.733 282.485C203.853 282.785 204.228 283.205 204.648 283.655C205.218 284.27 205.848 284.9 206.868 285.83L207.843 284.825C206.958 284.045 206.328 283.46 205.683 282.755C204.618 281.6 204.453 281.15 204.453 279.965V278.57H207.408V277.28H204.453V275.33H202.953V277.28H199.863V278.57H202.953V279.965C202.953 281.075 202.788 281.645 201.798 282.74C201.123 283.49 200.388 284.225 199.488 285.035L200.463 286.04C201.468 285.11 202.218 284.345 202.833 283.67C203.313 283.145 203.583 282.815 203.718 282.485H203.733ZM210.978 289.1V275.27H209.493V280.19H206.808V281.495H209.493V289.1H210.978ZM223.61 289.1V275.27H222.125V289.1H223.61ZM219.35 281.54V276.365H213.125V277.64H217.88V280.295H213.17V285.755H215.69C218.18 285.755 219.545 285.635 220.94 285.425L220.805 284.18C219.245 284.405 218.045 284.48 216.05 284.48H214.64V281.54H219.35ZM229.538 282.29C229.658 282.59 230.033 283.01 230.453 283.46C231.023 284.075 231.653 284.705 232.673 285.635L233.648 284.63C232.763 283.85 232.133 283.265 231.488 282.56C230.423 281.405 230.258 280.955 230.258 279.77V277.805H233.153V276.515H225.788V277.805H228.758V279.77C228.758 280.88 228.593 281.45 227.603 282.545C226.928 283.295 226.193 284.03 225.293 284.84L226.268 285.845C227.273 284.915 228.023 284.15 228.638 283.475C229.118 282.95 229.388 282.62 229.523 282.29H229.538ZM236.513 289.1V275.27H235.028V289.1H236.513ZM240.505 283.895V289.085H249.13V283.895H240.505ZM242.26 280.385C242.365 280.61 242.665 280.895 243.115 281.27C243.835 281.87 244.51 282.38 245.29 282.92L246.13 281.84C245.245 281.255 244.435 280.67 243.73 280.025C243.07 279.425 242.95 278.915 242.95 277.985V277.955H245.785V276.68H242.95V275.105H241.45V276.68H238.435V277.955H241.45V278.045C241.45 279.11 241.195 279.68 240.46 280.4C239.92 280.925 239.005 281.615 238.045 282.29L238.915 283.355C239.755 282.77 240.595 282.11 241.24 281.555C241.72 281.15 242.155 280.64 242.245 280.385H242.26ZM241.975 285.155H247.66V287.825H241.975V285.155ZM249.13 283.22V275.27H247.66V283.22H249.13ZM265.287 275.27H263.832V280.1H262.167V275.555H260.712V288.425H262.167V281.39H263.832V289.1H265.287V275.27ZM257.607 279.185C257.607 281.225 257.607 282.275 253.377 284.99L254.202 286.145C258.552 283.235 259.062 282.125 259.062 279.44V276.62H253.767V277.895H257.607V279.185ZM269.145 286.865C269.145 288.32 270.735 289.49 273.39 289.49C276.045 289.49 277.635 288.32 277.635 286.865V286.265C277.635 284.81 276.045 283.64 273.39 283.64C270.735 283.64 269.145 284.81 269.145 286.265V286.865ZM270.495 280.385C270.6 280.61 270.9 280.895 271.35 281.27C272.07 281.87 272.715 282.365 273.495 282.905L274.335 281.825C273.45 281.24 272.67 280.67 271.965 280.025C271.305 279.425 271.185 278.915 271.185 277.955V277.4H273.915V276.125H266.775V277.4H269.685V278.015C269.685 279.11 269.43 279.68 268.695 280.4C268.155 280.925 267.27 281.6 266.31 282.275L267.18 283.34C268.02 282.755 268.83 282.11 269.475 281.555C269.955 281.15 270.39 280.64 270.48 280.385H270.495ZM276.18 286.775C276.18 287.51 275.1 288.275 273.39 288.275C271.68 288.275 270.6 287.51 270.6 286.775V286.355C270.6 285.62 271.68 284.855 273.39 284.855C275.1 284.855 276.18 285.62 276.18 286.355V286.775ZM277.575 283.445V275.27H276.105V278.66H273.555V279.935H276.105V283.445H277.575Z" fill="#222222"/>
<path d="M10.963 301.788C10.963 299.708 11.47 297.758 12.744 296.042H11.912C10.625 297.576 10.001 299.539 10.001 301.853V302.373C10.001 304.687 10.625 306.676 11.912 308.21H12.744C11.405 306.377 10.963 304.414 10.963 302.438V301.788ZM13.2962 305.558V306.338H19.2502V305.506H14.4402L17.3522 302.087C18.1582 301.151 18.9122 300.306 18.9122 299.292V299.162C18.9122 297.758 17.8462 296.822 16.1822 296.822C14.6222 296.822 13.7512 297.81 13.3092 298.616L14.0372 299.071C14.6482 297.979 15.3892 297.654 16.2082 297.654C17.3392 297.654 17.9892 298.239 17.9892 299.175V299.279C17.9892 299.773 17.8202 300.254 16.7932 301.463L13.2962 305.558ZM26.3951 300.917C26.3951 298.291 25.4071 296.822 23.1971 296.822C21.0131 296.822 20.0251 298.291 20.0251 300.917V302.373C20.0251 304.999 20.9741 306.481 23.1971 306.481C25.4461 306.481 26.3951 305.025 26.3951 302.373V300.917ZM25.4591 302.386C25.4591 304.726 24.6921 305.662 23.1971 305.662C21.7541 305.662 20.9611 304.713 20.9611 302.386V300.904C20.9611 298.603 21.7541 297.641 23.1971 297.641C24.6921 297.641 25.4591 298.59 25.4591 300.904V302.386ZM27.326 305.558V306.338H33.28V305.506H28.47L31.382 302.087C32.188 301.151 32.942 300.306 32.942 299.292V299.162C32.942 297.758 31.876 296.822 30.212 296.822C28.652 296.822 27.781 297.81 27.339 298.616L28.067 299.071C28.678 297.979 29.419 297.654 30.238 297.654C31.369 297.654 32.019 298.239 32.019 299.175V299.279C32.019 299.773 31.85 300.254 30.823 301.463L27.326 305.558ZM34.341 305.558V306.338H40.295V305.506H35.485L38.397 302.087C39.203 301.151 39.957 300.306 39.957 299.292V299.162C39.957 297.758 38.891 296.822 37.227 296.822C35.667 296.822 34.796 297.81 34.354 298.616L35.082 299.071C35.693 297.979 36.434 297.654 37.253 297.654C38.384 297.654 39.034 298.239 39.034 299.175V299.279C39.034 299.773 38.865 300.254 37.838 301.463L34.341 305.558ZM41.2909 306.715H42.6039V305.415H41.2909V306.715ZM49.8464 300.917C49.8464 298.291 48.8584 296.822 46.6484 296.822C44.4644 296.822 43.4764 298.291 43.4764 300.917V302.373C43.4764 304.999 44.4254 306.481 46.6484 306.481C48.8974 306.481 49.8464 305.025 49.8464 302.373V300.917ZM48.9104 302.386C48.9104 304.726 48.1434 305.662 46.6484 305.662C45.2054 305.662 44.4124 304.713 44.4124 302.386V300.904C44.4124 298.603 45.2054 297.641 46.6484 297.641C48.1434 297.641 48.9104 298.59 48.9104 300.904V302.386ZM50.8943 305.844C51.5963 306.247 52.4153 306.481 53.2603 306.481C55.5873 306.481 56.7183 305.168 56.7183 301.034V300.644C56.7183 298.031 55.2883 296.822 53.5463 296.822C51.8043 296.822 50.4783 298.005 50.4783 299.851V300.163C50.4783 301.996 51.8563 303.088 53.4553 303.088C54.7683 303.088 55.5613 302.282 55.8213 301.736C55.7433 304.167 55.2103 305.649 53.2863 305.649C52.5453 305.649 51.8563 305.415 51.2713 305.077L50.8943 305.844ZM55.7303 300.202C55.7303 301.398 54.6513 302.295 53.5593 302.295C52.4153 302.295 51.3753 301.489 51.3753 300.085V299.89C51.3753 298.486 52.2983 297.641 53.5723 297.641C54.8463 297.641 55.7303 298.629 55.7303 300.033V300.202ZM57.7273 306.715H59.0403V305.415H57.7273V306.715ZM66.2828 300.917C66.2828 298.291 65.2948 296.822 63.0848 296.822C60.9008 296.822 59.9128 298.291 59.9128 300.917V302.373C59.9128 304.999 60.8618 306.481 63.0848 306.481C65.3338 306.481 66.2828 305.025 66.2828 302.373V300.917ZM65.3468 302.386C65.3468 304.726 64.5798 305.662 63.0848 305.662C61.6418 305.662 60.8488 304.713 60.8488 302.386V300.904C60.8488 298.603 61.6418 297.641 63.0848 297.641C64.5798 297.641 65.3468 298.59 65.3468 300.904V302.386ZM72.9207 297.459C72.2187 297.069 71.3607 296.822 70.5157 296.822C68.3837 296.822 67.0707 298.33 67.0707 302.36V302.672C67.0707 305.285 68.4747 306.481 70.2427 306.481C71.9847 306.481 73.3107 305.337 73.3107 303.491V303.179C73.3107 301.346 71.9327 300.28 70.3337 300.28C69.0207 300.28 68.2537 301.034 67.9677 301.593C68.1107 299.11 68.7477 297.641 70.5027 297.641C71.2177 297.641 71.9067 297.862 72.4917 298.2L72.9207 297.459ZM68.0587 303.14C68.0587 301.944 69.1377 301.073 70.2297 301.073C71.3737 301.073 72.4137 301.853 72.4137 303.257V303.452C72.4137 304.856 71.4907 305.662 70.2167 305.662C68.9427 305.662 68.0587 304.713 68.0587 303.309V303.14ZM74.1636 306.715H75.4766V305.415H74.1636V306.715ZM77.7401 302.438C77.7401 304.414 77.2981 306.377 75.9591 308.21H76.7911C78.0781 306.676 78.7021 304.687 78.7021 302.373V301.853C78.7021 299.539 78.0781 297.576 76.7911 296.042H75.9591C77.2331 297.758 77.7401 299.708 77.7401 301.788V302.438Z" fill="#BBBBBB"/>
<path d="M10.53 341.76C14.175 340.185 15.57 339.3 16.08 338.04H19.845V343.14H20.895V333.33H19.845V337.11H16.29C16.32 336.855 16.335 336.57 16.335 336.27V334.23H10.56V335.16H15.3V336.21C15.3 338.19 14.895 338.805 10.095 340.89L10.53 341.76ZM13.56 342.405H12.495V346.875H21.24V345.945H13.56V342.405ZM25.1573 340.95V341.865H32.5823V343.575H25.2323V347.085H33.9773V346.185H26.2673V344.46H33.6173V340.95H25.1573ZM26.4773 337.305C26.5673 337.56 27.1223 338.04 27.8273 338.595C28.2623 338.94 28.9223 339.435 29.6123 339.93L30.2123 339.165C29.4323 338.64 28.5923 338.01 28.0373 337.545C27.0923 336.75 26.9573 336.405 26.9573 335.31V333.675H25.8773V335.355C25.8773 336.45 25.6373 336.96 24.7673 337.755C24.1523 338.31 23.2973 338.985 22.3523 339.645L22.9973 340.41C24.0023 339.675 24.8273 339 25.3523 338.535C26.0123 337.965 26.3873 337.545 26.4623 337.305H26.4773ZM29.4923 335.97V336.9H32.5673V340.14H33.6173V333.33H32.5673V335.97H29.4923ZM35.1047 343.29H38.1797C39.4097 343.29 41.1047 343.215 42.3797 343.05L42.2897 342.165C41.7497 342.24 41.1797 342.285 40.6247 342.315V335.625H42.0197V334.71H35.1197V335.625H36.4847V342.375H35.1047V343.29ZM41.5247 337.005V337.935H43.4147V339.765H41.5247V340.695H43.4147V346.365H44.4647V333.615H43.4147V337.005H41.5247ZM46.9997 333.33H45.9497V347.04H46.9997V333.33ZM38.5397 342.375H37.5047V335.625H39.6047V342.36C39.2447 342.375 38.8847 342.375 38.5397 342.375ZM59.062 333.33H57.997V347.04H59.062V333.33ZM49.042 343.92C53.917 341.07 54.652 340.05 54.652 337.32V334.62H48.637V335.58H53.617V337.305C53.617 339.54 53.092 340.425 48.487 343.065L49.042 343.92ZM60.5344 339.135V340.035H66.3094V341.595H62.3344V342.48H70.2244V343.905H62.4094V347.1H71.6644V346.215H63.4444V344.775H71.2594V341.595H67.3594V340.035H73.1344V339.135H60.5344ZM62.4244 333.705V337.875H71.2444V333.705H62.4244ZM63.4594 334.605H70.2094V336.96H63.4594V334.605ZM86.8617 333.72H85.8267V335.43H79.0467V333.72H78.0117V338.94H86.8617V333.72ZM76.1367 340.53V341.43H82.0617V344.19H83.1117V341.43H88.7367V340.53H76.1367ZM79.0617 342.975H77.9967V346.875H87.1617V345.945H79.0617V342.975ZM79.0467 336.315H85.8267V338.025H79.0467V336.315ZM95.8941 333.72H94.8741V335.835H90.7491V333.72H89.7291V339.69H95.8941V333.72ZM91.7991 341.1V342.015H99.2241V343.65H91.8741V347.085H100.619V346.185H92.9091V344.535H100.259V341.1H91.7991ZM96.7491 335.175V336.09H99.2241V337.755H96.7491V338.67H99.2241V340.29H100.259V333.33H99.2241V335.175H96.7491ZM90.7491 336.75H94.8741V338.775H90.7491V336.75ZM110.581 333.615H109.531V346.365H110.581V339.525H112.501V347.04H113.551V333.33H112.501V338.58H110.581V333.615ZM105.196 343.545C107.116 343.545 108.181 342.195 108.181 340.86V340.23C108.181 338.88 107.116 337.545 105.196 337.545C103.276 337.545 102.211 338.88 102.211 340.23V340.86C102.211 342.21 103.276 343.545 105.196 343.545ZM105.196 338.475C106.411 338.475 107.176 339.375 107.176 340.305V340.785C107.176 341.715 106.411 342.615 105.196 342.615C103.981 342.615 103.216 341.715 103.216 340.785V340.305C103.216 339.375 103.981 338.475 105.196 338.475ZM101.686 336.66H108.481V335.73H105.706V333.72H104.656V335.73H101.686V336.66ZM114.799 335.61H117.319V337.65C117.319 338.985 117.169 339.6 116.449 340.515C115.999 341.1 115.099 342.06 114.214 342.9L114.919 343.605C115.864 342.675 116.554 341.91 117.109 341.265C117.559 340.725 117.814 340.305 117.859 340.14H117.874C117.934 340.305 118.249 340.785 118.684 341.28C119.194 341.85 119.989 342.765 120.649 343.425L121.339 342.75C120.499 341.91 119.779 341.115 119.284 340.5C118.534 339.54 118.369 339.045 118.369 337.65V335.61H120.784V334.68H114.799V335.61ZM120.049 337.965V338.925H122.479V346.365H123.529V333.615H122.479V337.965H120.049ZM126.199 333.33H125.149V347.04H126.199V333.33ZM128.886 340.14C128.886 337.74 129.471 335.49 130.941 333.51H129.981C128.496 335.28 127.776 337.545 127.776 340.215V340.815C127.776 343.485 128.496 345.78 129.981 347.55H130.941C129.396 345.435 128.886 343.17 128.886 340.89V340.14ZM135.148 338.25C135.223 338.49 135.628 338.895 136.318 339.48C136.828 339.915 137.488 340.455 138.283 341.055L138.913 340.32C138.253 339.84 137.458 339.21 136.723 338.565C135.718 337.665 135.628 337.305 135.628 336.195V333.975H134.548V336.225C134.548 337.35 134.443 337.74 133.498 338.685C132.823 339.36 131.878 340.14 131.068 340.74L131.728 341.505C132.553 340.845 133.438 340.095 133.963 339.6C134.623 338.97 135.088 338.505 135.133 338.25H135.148ZM142.288 333.33H141.238V336.6H138.148V337.53H141.238V343.11H142.288V333.33ZM134.968 342.3H133.903V346.875H142.633V345.945H134.968V342.3ZM154.426 333.72H153.391V335.43H146.611V333.72H145.576V338.94H154.426V333.72ZM143.701 340.53V341.43H149.626V344.19H150.676V341.43H156.301V340.53H143.701ZM146.626 342.975H145.561V346.875H154.726V345.945H146.626V342.975ZM146.611 336.315H153.391V338.025H146.611V336.315ZM163.458 333.72H162.438V335.835H158.313V333.72H157.293V339.69H163.458V333.72ZM159.363 341.1V342.015H166.788V343.65H159.438V347.085H168.183V346.185H160.473V344.535H167.823V341.1H159.363ZM164.313 335.175V336.09H166.788V337.755H164.313V338.67H166.788V340.29H167.823V333.33H166.788V335.175H164.313ZM158.313 336.75H162.438V338.775H158.313V336.75ZM174.74 341.205H176.255V339.705H174.74V341.205ZM188.258 341.07C190.733 341.07 192.398 340.26 192.398 338.88V338.46C192.398 337.08 190.733 336.27 188.258 336.27C185.783 336.27 184.118 337.08 184.118 338.46V338.88C184.118 340.26 185.783 341.07 188.258 341.07ZM181.958 342.075V342.99H187.733V347.04H188.798V342.99H194.558V342.075H181.958ZM188.258 337.155C190.073 337.155 191.378 337.725 191.378 338.535V338.805C191.378 339.615 190.073 340.185 188.258 340.185C186.443 340.185 185.138 339.615 185.138 338.805V338.535C185.138 337.725 186.443 337.155 188.258 337.155ZM188.798 333.045H187.733V334.605H183.248V335.505H193.268V334.605H188.798V333.045ZM203.65 333.615H202.6V346.365H203.65V339.525H205.57V347.04H206.62V333.33H205.57V338.58H203.65V333.615ZM198.265 343.545C200.185 343.545 201.25 342.195 201.25 340.86V340.23C201.25 338.88 200.185 337.545 198.265 337.545C196.345 337.545 195.28 338.88 195.28 340.23V340.86C195.28 342.21 196.345 343.545 198.265 343.545ZM198.265 338.475C199.48 338.475 200.245 339.375 200.245 340.305V340.785C200.245 341.715 199.48 342.615 198.265 342.615C197.05 342.615 196.285 341.715 196.285 340.785V340.305C196.285 339.375 197.05 338.475 198.265 338.475ZM194.755 336.66H201.55V335.73H198.775V333.72H197.725V335.73H194.755V336.66ZM207.732 336.42H210.402V337.77C210.402 339.105 210.252 339.72 209.532 340.635C209.082 341.22 208.182 342.18 207.297 343.02L208.002 343.725C208.947 342.795 209.637 342.03 210.192 341.385C210.642 340.845 210.897 340.425 210.942 340.26H210.957C211.017 340.425 211.332 340.905 211.767 341.4C212.277 341.97 213.072 342.885 213.732 343.545L214.422 342.87C213.582 342.03 212.862 341.235 212.367 340.62C211.617 339.66 211.452 339.165 211.452 337.77V336.42H213.987V335.49H211.452V333.615H210.402V335.49H207.732V336.42ZM213.192 338.4V339.36H215.577V346.365H216.627V333.615H215.577V338.4H213.192ZM219.282 333.33H218.232V347.04H219.282V333.33ZM222.12 340.89C222.12 343.17 221.61 345.435 220.065 347.55H221.025C222.51 345.78 223.23 343.485 223.23 340.815V340.215C223.23 337.545 222.51 335.28 221.025 333.51H220.065C221.535 335.49 222.12 337.74 222.12 340.14V340.89ZM238.417 333.33H237.352V347.04H238.417V333.33ZM236.302 342.765C233.977 343.02 231.577 343.095 227.212 343.095V344.025C231.802 344.025 233.917 343.935 236.392 343.68L236.302 342.765ZM231.502 340.755C233.452 340.755 235.072 339.48 235.072 337.86V337.14C235.072 335.52 233.452 334.245 231.502 334.245C229.552 334.245 227.932 335.505 227.932 337.14V337.86C227.932 339.48 229.552 340.755 231.502 340.755ZM231.502 335.175C232.822 335.175 234.052 336.075 234.052 337.2V337.8C234.052 338.925 232.822 339.825 231.502 339.825C230.182 339.825 228.952 338.925 228.952 337.8V337.2C228.952 336.075 230.182 335.175 231.502 335.175ZM241.494 334.155V339.495H250.344V334.155H241.494ZM242.544 335.085H249.294V338.565H242.544V335.085ZM239.619 341.415V342.33H245.394V347.04H246.459V342.33H252.219V341.415H239.619ZM261.206 343.17C259.976 343.305 258.791 343.395 257.321 343.44V341.745C258.896 341.535 259.961 340.545 259.961 339.48V338.91C259.961 337.695 258.611 336.615 256.706 336.615C254.801 336.615 253.451 337.68 253.451 338.91V339.48C253.451 340.59 254.591 341.61 256.256 341.76V343.47C255.176 343.5 253.931 343.5 252.416 343.5V344.43C257.006 344.43 258.821 344.34 261.296 344.085L261.206 343.17ZM263.306 333.33H262.241V347.04H263.306V339.93H265.481V338.985H263.306V333.33ZM256.706 337.515C258.056 337.515 258.956 338.25 258.956 338.985V339.405C258.956 340.14 258.056 340.89 256.706 340.89C255.356 340.89 254.456 340.14 254.456 339.405V338.985C254.456 338.25 255.356 337.515 256.706 337.515ZM257.231 333.21H256.181V334.92H252.701V335.85H260.576V334.92H257.231V333.21ZM271.004 347.01H279.389V341.82H271.004V347.01ZM276.584 339.045C275.909 339.12 275.204 339.165 274.499 339.21V335.055H275.984V334.155H268.424V335.055H269.789V339.285H268.334V340.185C271.169 340.185 274.169 340.185 276.674 339.93L276.584 339.045ZM272.024 342.765H278.369V346.065H272.024V342.765ZM270.809 339.285V335.055H273.479V339.24C272.609 339.27 271.724 339.285 270.809 339.285ZM279.389 333.33H278.339V336.57H275.969V337.5H278.339V341.01H279.389V333.33ZM282.166 334.59V335.475H284.161V340.365H282.031V341.25H292.021V340.365H289.891V335.475H291.886V334.59H282.166ZM285.211 335.475H288.841V340.365H285.211V335.475ZM280.726 344.19V345.105H293.326V344.19H280.726ZM294.484 344.055C299.449 341.385 300.064 340.155 300.064 337.56V334.59H294.124V335.55H299.029V338.025L293.839 338.115L293.869 339.06L298.939 338.94C298.654 340.215 297.619 341.235 293.989 343.2L294.484 344.055ZM304.084 333.33H303.019V347.04H304.084V339.45H306.364V338.505H304.084V333.33ZM13.77 365.475C13.83 365.67 14.415 366.18 15.12 366.75C15.57 367.11 16.29 367.65 16.89 368.07L17.505 367.32C16.65 366.75 15.81 366.12 15.33 365.715C14.355 364.875 14.25 364.47 14.25 363.585V362.145H17.205V361.23H10.095V362.145H13.185V363.63C13.185 364.44 13.02 364.965 12.285 365.685C11.55 366.405 10.59 367.14 9.705 367.77L10.35 368.52C11.04 368.025 12.06 367.215 12.585 366.75C13.215 366.195 13.695 365.7 13.755 365.475H13.77ZM20.295 360.33H19.245V370.125H20.295V365.22H22.395V364.29H20.295V360.33ZM13.155 369.33H12.09V373.875H20.715V372.945H13.155V369.33ZM33.6473 360.33H32.6123V363.645H29.2973C28.8473 362.16 27.7373 361.305 26.1473 361.305C24.0323 361.305 22.7723 362.775 22.7723 365.265V366.675C22.7723 369.18 24.0323 370.65 26.1473 370.65C27.7523 370.65 28.8623 369.81 29.2973 368.295H32.6123V374.055H33.6473V360.33ZM28.4873 366.495C28.4873 368.775 27.5573 369.675 26.1473 369.675C24.7373 369.675 23.8073 368.775 23.8073 366.495V365.46C23.8073 363.18 24.7373 362.295 26.1473 362.295C27.5573 362.295 28.4873 363.18 28.4873 365.46V366.495ZM29.5223 365.28C29.5223 365.055 29.5073 364.83 29.4923 364.605H32.6123V367.335H29.4923C29.5073 367.125 29.5223 366.9 29.5223 366.675V365.28ZM39.5447 366.33H43.2497V361.53H38.5097V362.445H42.2147V365.415H38.5097V370.485H40.5647C41.8697 370.485 43.2497 370.455 44.8097 370.215L44.6897 369.285C43.1747 369.51 42.0647 369.54 40.7747 369.54H39.5447V366.33ZM44.0147 365.385V366.345H45.9197V373.365H46.9697V360.615H45.9197V365.385H44.0147ZM49.6097 360.33H48.5597V374.04H49.6097V360.33ZM61.972 360.33H60.907V374.04H61.972V360.33ZM51.637 361.575V370.425H57.982V361.575H51.637ZM56.932 369.465H52.687V362.535H56.932V369.465ZM65.0194 364.575L73.0444 364.425C72.9994 365.055 72.8944 365.715 72.7444 366.42L73.7794 366.54C74.0494 365.265 74.1544 363.915 74.1544 362.85V360.96H65.1544V361.89H73.1194V362.775C73.1194 363.015 73.1194 363.27 73.1044 363.51L64.9894 363.63L65.0194 364.575ZM63.3844 367.68V368.58H75.9844V367.68H69.4744V365.46H68.3944V367.68H63.3844ZM66.3094 369.84H65.2444V373.875H74.3944V372.945H66.3094V369.84ZM76.3167 374.625H77.1867L78.2667 371.25H76.9467L76.3167 374.625ZM93.0735 360.33H92.0085V374.04H93.0735V360.33ZM84.4035 367.44C83.6985 368.235 82.8735 369.03 81.8835 369.9L82.5885 370.635C83.4735 369.855 84.4635 368.85 84.9885 368.28C85.4385 367.785 86.0085 367.08 86.0535 366.885H86.0685C86.1435 367.08 86.5785 367.575 87.0285 368.055C87.6285 368.7 88.4685 369.525 89.4135 370.425L90.1035 369.705C88.9785 368.685 88.0935 367.785 87.4935 367.095C86.6835 366.165 86.5935 365.67 86.5935 364.515V361.32H85.4985V364.59C85.4985 365.775 85.3485 366.36 84.4035 367.44ZM95.0708 361.26V367.695H100.351V364.785H102.466V369.735H103.501V360.51H102.466V363.84H100.351V361.26H95.0708ZM99.3158 366.765H96.1058V362.19H99.3158V366.765ZM98.4908 369.375H97.4258V373.875H106.441V372.945H98.4908V369.375ZM106.141 360.33H105.106V370.065H106.141V360.33ZM118.188 367.665H110.148V365.46H117.993V364.56H110.148V362.355H118.068V361.455H109.113V368.565H118.188V367.665ZM107.268 371.19V372.105H119.868V371.19H107.268ZM122.871 371.19V372.105H135.471V371.19H129.696V368.1H134.151V367.215H132.036V362.415H134.016V361.53H124.326V362.415H126.306V367.215H124.191V368.1H128.646V371.19H122.871ZM127.356 362.415H130.986V367.215H127.356V362.415ZM144.308 360.615H143.258V373.365H144.308V366.21H146.303V374.04H147.353V360.33H146.303V365.265H144.308V360.615ZM136.268 361.635V370.305H138.053C139.568 370.305 140.858 370.23 142.298 369.99L142.178 369.045C140.813 369.285 139.598 369.345 137.963 369.345H137.333V362.595H141.443V361.635H136.268ZM161.875 360.915H153.13V365.37H161.95V364.455H154.165V361.83H161.875V360.915ZM151.225 366.87V367.785H163.825V366.87H151.225ZM157.525 369.09C155.275 369.09 153.265 369.885 153.265 371.49V372C153.265 373.575 155.275 374.4 157.525 374.4C159.775 374.4 161.785 373.575 161.785 372V371.49C161.785 369.915 159.775 369.09 157.525 369.09ZM157.525 373.5C155.905 373.5 154.285 372.945 154.285 371.94V371.55C154.285 370.545 155.905 369.99 157.525 369.99C159.145 369.99 160.765 370.545 160.765 371.55V371.94C160.765 372.945 159.145 373.5 157.525 373.5ZM175.528 360.33H174.463V374.04H175.528V360.33ZM173.413 369.765C171.088 370.02 168.688 370.095 164.323 370.095V371.025C168.913 371.025 171.028 370.935 173.503 370.68L173.413 369.765ZM168.613 367.755C170.563 367.755 172.183 366.48 172.183 364.86V364.14C172.183 362.52 170.563 361.245 168.613 361.245C166.663 361.245 165.043 362.505 165.043 364.14V364.86C165.043 366.48 166.663 367.755 168.613 367.755ZM168.613 362.175C169.933 362.175 171.163 363.075 171.163 364.2V364.8C171.163 365.925 169.933 366.825 168.613 366.825C167.293 366.825 166.063 365.925 166.063 364.8V364.2C166.063 363.075 167.293 362.175 168.613 362.175ZM190.305 360.72H189.27V362.43H182.49V360.72H181.455V365.94H190.305V360.72ZM179.58 367.53V368.43H185.505V371.19H186.555V368.43H192.18V367.53H179.58ZM182.505 369.975H181.44V373.875H190.605V372.945H182.505V369.975ZM182.49 363.315H189.27V365.025H182.49V363.315ZM194.147 361.065V361.98H201.992V363.645H194.192V367.14H203.342V366.225H195.227V364.545H203.027V361.065H194.147ZM192.332 368.655V369.57H195.692V374.025H196.757V369.57H200.507V374.025H201.572V369.57H204.932V368.655H192.332ZM209.87 360.405H208.805V362.415H205.535V363.345H208.805V364.98C208.805 366.12 208.67 366.69 207.725 367.755C207.035 368.535 206.18 369.36 205.235 370.2L205.94 370.905C206.84 370.125 207.845 369.06 208.25 368.64C208.685 368.175 209.27 367.5 209.345 367.23H209.36C209.435 367.425 209.855 367.89 210.29 368.355C210.89 369 211.61 369.735 212.645 370.695L213.335 369.99C212.225 369 211.34 368.115 210.755 367.44C209.96 366.525 209.87 366.045 209.87 364.905V363.345H213.035V362.415H209.87V360.405ZM212.39 365.37V366.33H215.375V374.04H216.44V360.33H215.375V365.37H212.39ZM229.147 360.33H228.082V374.04H229.147V360.33ZM219.937 366.315H224.902V361.44H218.887V362.37H223.852V365.385H218.887V370.635H221.722C223.357 370.635 225.067 370.56 226.657 370.305L226.537 369.39C225.142 369.615 223.507 369.69 221.992 369.69H219.937V366.315ZM241.869 360.33H240.804V374.04H241.869V360.33ZM231.849 370.92C236.724 368.07 237.459 367.05 237.459 364.32V361.62H231.444V362.58H236.424V364.305C236.424 366.54 235.899 367.425 231.294 370.065L231.849 370.92ZM249.627 363.96H249.642C249.807 364.275 250.497 364.665 251.427 365.04C252.207 365.37 253.242 365.76 254.472 366.165L254.862 365.34C253.602 364.935 252.462 364.515 251.727 364.2C250.497 363.675 250.167 363.24 250.167 362.46V361.86H254.292V360.96H244.992V361.86H249.102V362.46C249.102 363.24 248.757 363.66 247.527 364.2C246.777 364.53 245.757 364.905 244.392 365.355L244.812 366.18C246.147 365.73 246.987 365.415 247.842 365.055C248.772 364.665 249.462 364.29 249.627 363.96ZM243.342 367.215V368.115H249.267V371.055H250.317V368.115H255.942V367.215H243.342ZM246.267 369.72H245.202V373.875H254.367V372.945H246.267V369.72ZM266.114 366.015C266.114 364.77 264.929 363.6 262.979 363.6C261.029 363.6 259.844 364.77 259.844 366.015V366.585C259.844 367.83 261.029 369 262.979 369C264.929 369 266.114 367.83 266.114 366.585V366.015ZM266.969 363.945V364.86H269.294V366.885H266.969V367.8H269.294V370.305H270.329V360.33H269.294V363.945H266.969ZM262.979 368.1C261.644 368.1 260.849 367.275 260.849 366.54V366.06C260.849 365.325 261.644 364.5 262.979 364.5C264.314 364.5 265.109 365.325 265.109 366.06V366.54C265.109 367.275 264.314 368.1 262.979 368.1ZM262.994 370.08H261.929V373.875H270.674V372.945H262.994V370.08ZM263.489 360.18H262.439V361.95H259.064V362.865H267.014V361.95H263.489V360.18ZM274.501 367.92V368.835H281.926V370.56H274.576V374.085H283.321V373.185H275.611V371.445H282.961V367.92H274.501ZM282.961 360.33H281.911V367.11H282.961V360.33ZM275.986 364.245C276.076 364.5 276.631 364.98 277.336 365.535C277.771 365.88 278.446 366.39 279.151 366.885L279.751 366.12C278.956 365.595 278.101 364.95 277.546 364.485C276.601 363.69 276.466 363.345 276.466 362.25V360.675H275.386V362.295C275.386 363.39 275.146 363.9 274.276 364.695C273.661 365.25 272.776 365.955 271.846 366.6L272.476 367.365C273.496 366.63 274.336 365.94 274.861 365.475C275.521 364.905 275.896 364.485 275.971 364.245H275.986ZM293.284 370.17C292.054 370.305 290.869 370.395 289.399 370.44V368.745C290.974 368.535 292.039 367.545 292.039 366.48V365.91C292.039 364.695 290.689 363.615 288.784 363.615C286.879 363.615 285.529 364.68 285.529 365.91V366.48C285.529 367.59 286.669 368.61 288.334 368.76V370.47C287.254 370.5 286.009 370.5 284.494 370.5V371.43C289.084 371.43 290.899 371.34 293.374 371.085L293.284 370.17ZM295.384 360.33H294.319V374.04H295.384V366.93H297.559V365.985H295.384V360.33ZM288.784 364.515C290.134 364.515 291.034 365.25 291.034 365.985V366.405C291.034 367.14 290.134 367.89 288.784 367.89C287.434 367.89 286.534 367.14 286.534 366.405V365.985C286.534 365.25 287.434 364.515 288.784 364.515ZM289.309 360.21H288.259V361.92H284.779V362.85H292.654V361.92H289.309V360.21Z" fill="#222222"/>
<path d="M9.85 395.866H15.154V394.778H9.85V395.866ZM35.0799 398.892V387.706H33.4139V391.854H29.8269C29.8439 391.735 29.8439 391.599 29.8439 391.463V388.709H23.1629V390.137H28.1949V391.378C28.1949 393.095 27.3789 393.928 22.5169 396.053L23.1799 397.413C27.1069 395.73 28.8409 394.693 29.4869 393.299H33.4139V398.892H35.0799ZM26.9709 398.059H25.2879V403.21H35.4029V401.748H26.9709V398.059ZM49.9065 403.482V402.088H41.4065V400.575H49.4645V396.325H39.6725V397.719H47.8155V399.215H39.7575V403.482H49.9065ZM41.2535 392.5C41.3555 392.755 41.7125 393.078 42.2225 393.503C43.0385 394.183 43.7695 394.727 44.6875 395.373L45.6225 394.183C44.6195 393.503 43.7185 392.857 42.9195 392.126C42.1035 391.378 42.0355 390.783 42.0355 389.695V388.097H40.3355V389.763C40.3355 391.004 40.1485 391.633 39.2645 392.483C38.6695 393.061 37.6155 393.911 36.4595 394.727L37.4285 395.917C38.3805 395.22 39.4345 394.404 40.1315 393.758C40.6585 393.282 41.1515 392.789 41.2365 392.5H41.2535ZM49.4645 395.543V387.706H47.7985V390.562H44.6705V392.041H47.7985V395.543H49.4645ZM54.6012 399.147C56.2672 399.147 57.7972 399.062 59.2252 398.875L59.0892 397.532C58.5452 397.617 58.0012 397.668 57.4572 397.702V390.63H58.8682V389.253H50.9972V390.63H52.4592V397.77H50.9802V399.147H54.6012ZM60.1602 391.752H58.3072V393.197H60.1602V394.863H58.3072V396.308H60.1602V402.632H61.7922V388.029H60.1602V391.752ZM64.6822 387.706H63.0502V403.38H64.6822V387.706ZM54.0912 397.77V390.63H55.8252V397.77H55.0432H54.0912ZM66.8948 399.963C73.0998 396.206 73.3378 395.254 73.3378 392.16V389.151H66.3168V390.596H71.6718V392.143C71.6718 394.557 71.4338 395.441 66.0108 398.62L66.8948 399.963ZM78.3358 403.38V387.706H76.6528V403.38H78.3358ZM92.5675 403.482V402.105H83.5065V400.932H92.1085V397.056H87.8415V395.577H94.1825V394.183H79.8005V395.577H86.1415V397.056H81.7725V398.433H90.4595V399.589H81.8575V403.482H92.5675ZM92.0915 388.063H81.8915V393.112H92.0915V388.063ZM90.4425 391.718H83.5405V389.457H90.4425V391.718ZM109.791 388.114H108.125V389.967H101.206V388.131H99.5401V394.353H109.791V388.114ZM105.728 400.082V397.175H111.865V395.747H97.4831V397.175H104.028V400.082H105.728ZM101.24 398.756H99.5571V403.21H110.097V401.748H101.24V398.756ZM101.206 391.327H108.125V392.942H101.206V391.327ZM124.907 403.38V387.706H123.224V403.38H124.907ZM120.079 394.812V388.947H113.024V390.392H118.413V393.401H113.075V399.589H115.931C118.753 399.589 120.3 399.453 121.881 399.215L121.728 397.804C119.96 398.059 118.6 398.144 116.339 398.144H114.741V394.812H120.079ZM138.747 388.845H137.081V391.531H130.077V388.862H128.411V396.903H132.729V399.861H126.388V401.289H140.77V399.861H134.412V396.903H138.747V388.845ZM130.077 392.959H137.081V395.475H130.077V392.959ZM153.319 399.334V393.945H155.529V392.483H153.319V387.706H151.653V399.334H153.319ZM145.006 398.518H143.323V403.227H153.744V401.782H145.006V398.518ZM150.684 395.22C148.899 395.39 147.505 395.475 145.635 395.526V392.313H143.969V395.56H140.841V397.005C146.077 397.005 148.117 396.886 150.82 396.614L150.684 395.22ZM149.205 394.098C149.443 393.112 149.596 391.582 149.596 390.375V388.505H141.895V389.95H147.93V390.613C147.93 391.582 147.811 392.721 147.556 393.894L149.205 394.098ZM171.002 399.334V393.945H173.212V392.483H171.002V387.706H169.336V399.334H171.002ZM162.689 398.518H161.006V403.227H171.427V401.782H162.689V398.518ZM168.367 395.22C166.582 395.39 165.188 395.475 163.318 395.526V392.313H161.652V395.56H158.524V397.005C163.76 397.005 165.8 396.886 168.503 396.614L168.367 395.22ZM166.888 394.098C167.126 393.112 167.279 391.582 167.279 390.375V388.505H159.578V389.95H165.613V390.613C165.613 391.582 165.494 392.721 165.239 393.894L166.888 394.098ZM176.478 397.005C178.96 397.005 180.456 396.954 182.343 396.733L182.19 395.339C180.099 395.577 178.518 395.577 176.648 395.577H175.56V393.435H180.473V388.505H173.843V389.933H178.807V392.041H173.894V397.005H176.478ZM186.066 398.96V387.706H184.417V389.899H181.595V391.344H184.417V392.823H181.595V394.268H184.417V398.96H186.066ZM177.957 398.518H176.274V403.21H186.389V401.748H177.957V398.518ZM195.895 395.662C196.031 396.002 196.456 396.478 196.932 396.988C197.578 397.685 198.292 398.399 199.448 399.453L200.553 398.314C199.55 397.43 198.836 396.767 198.105 395.968C196.898 394.659 196.711 394.149 196.711 392.806V390.579H199.992V389.117H191.645V390.579H195.011V392.806C195.011 394.064 194.824 394.71 193.702 395.951C192.937 396.801 192.104 397.634 191.084 398.552L192.189 399.691C193.328 398.637 194.178 397.77 194.875 397.005C195.419 396.41 195.725 396.036 195.878 395.662H195.895ZM203.8 403.38V387.706H202.117V403.38H203.8ZM208.325 397.481V403.363H218.1V397.481H208.325ZM210.314 393.503C210.433 393.758 210.773 394.081 211.283 394.506C212.099 395.186 212.864 395.764 213.748 396.376L214.7 395.152C213.697 394.489 212.779 393.826 211.98 393.095C211.232 392.415 211.096 391.837 211.096 390.783V390.749H214.309V389.304H211.096V387.519H209.396V389.304H205.979V390.749H209.396V390.851C209.396 392.058 209.107 392.704 208.274 393.52C207.662 394.115 206.625 394.897 205.537 395.662L206.523 396.869C207.475 396.206 208.427 395.458 209.158 394.829C209.702 394.37 210.195 393.792 210.297 393.503H210.314ZM209.991 398.909H216.434V401.935H209.991V398.909ZM218.1 396.716V387.706H216.434V396.716H218.1ZM229.985 392.126C230.155 392.483 231.345 393.044 232.076 393.35C233.164 393.809 234.167 394.183 235.34 394.574L235.952 393.214C234.575 392.772 233.606 392.432 232.705 392.024C231.549 391.497 230.818 390.987 230.818 390.256V389.763H235.306V388.369H224.664V389.763H229.135V390.256C229.135 390.987 228.37 391.565 227.248 392.041C226.33 392.432 225.395 392.772 224.001 393.214L224.63 394.574C225.769 394.2 226.789 393.826 227.928 393.35C228.642 393.044 229.798 392.483 229.968 392.126H229.985ZM231.039 399.929V396.869H237.176V395.441H222.794V396.869H229.339V399.929H231.039ZM226.551 398.518H224.868V403.21H235.408V401.748H226.551V398.518ZM245.288 403.38V397.991H251.629V396.563H237.247V397.991H243.588V403.38H245.288ZM246.325 393.588C247.243 394.047 248.552 394.642 249.946 395.186L250.592 393.826C249.334 393.35 247.94 392.755 246.852 392.16C245.696 391.531 245.271 390.919 245.271 389.644V388.25H243.588V389.644C243.588 390.919 243.146 391.531 241.99 392.16C240.902 392.755 239.508 393.35 238.25 393.826L238.913 395.203C240.307 394.659 241.616 394.064 242.534 393.605C243.656 393.044 244.217 392.602 244.421 392.228H244.438C244.659 392.602 245.203 393.027 246.325 393.588Z" fill="#19B29B"/>
<path d="M1.5 341C2.32843 341 3 340.328 3 339.5C3 338.672 2.32843 338 1.5 338C0.671573 338 0 338.672 0 339.5C0 340.328 0.671573 341 1.5 341Z" fill="#CCCCCC"/>
<path d="M173 445L179 435H167L173 445Z" fill="#19B29B"/>
<rect x="1.5" y="516.5" width="342" height="149" rx="74.5" fill="white" stroke="url(#paint0_linear_1_16858)" stroke-width="3"/>
<path d="M89.695 572.015C89.695 570.77 88.51 569.6 86.56 569.6C84.61 569.6 83.425 570.77 83.425 572.015V572.585C83.425 573.83 84.61 575 86.56 575C88.51 575 89.695 573.83 89.695 572.585V572.015ZM90.55 569.945V570.86H92.875V572.885H90.55V573.8H92.875V576.305H93.91V566.33H92.875V569.945H90.55ZM86.56 574.1C85.225 574.1 84.43 573.275 84.43 572.54V572.06C84.43 571.325 85.225 570.5 86.56 570.5C87.895 570.5 88.69 571.325 88.69 572.06V572.54C88.69 573.275 87.895 574.1 86.56 574.1ZM86.575 576.08H85.51V579.875H94.255V578.945H86.575V576.08ZM87.07 566.18H86.02V567.95H82.645V568.865H90.595V567.95H87.07V566.18ZM102.042 574.7C99.7923 574.7 97.9623 575.66 97.9623 577.265V577.835C97.9623 579.41 99.7923 580.4 102.042 580.4C104.292 580.4 106.122 579.41 106.122 577.835V577.265C106.122 575.69 104.292 574.7 102.042 574.7ZM102.042 579.5C100.437 579.5 98.9823 578.855 98.9823 577.79V577.31C98.9823 576.245 100.437 575.6 102.042 575.6C103.647 575.6 105.102 576.245 105.102 577.31V577.79C105.102 578.855 103.647 579.5 102.042 579.5ZM99.5223 571.1C99.5823 571.295 100.167 571.805 100.872 572.375C101.322 572.735 102.042 573.275 102.642 573.695L103.257 572.945C102.402 572.375 101.562 571.745 101.082 571.34C100.107 570.5 100.002 570.095 100.002 569.21V568.115H102.957V567.2H95.8473V568.115H98.9373V569.255C98.9373 570.065 98.7723 570.59 98.0373 571.31C97.3023 572.03 96.3423 572.765 95.4573 573.395L96.1023 574.145C96.7923 573.65 97.8123 572.84 98.3373 572.375C98.9673 571.82 99.4473 571.325 99.5073 571.1H99.5223ZM106.047 566.33H104.997V574.4H106.047V570.725H108.147V569.795H106.047V566.33ZM119.07 567.59H111.75V568.52H114.9V570.785C114.9 571.925 114.765 572.495 113.82 573.56C113.13 574.34 112.275 575.165 111.33 576.005L112.035 576.71C112.935 575.93 113.94 574.865 114.345 574.445C114.78 573.98 115.365 573.305 115.44 573.035H115.455C115.53 573.23 115.95 573.695 116.385 574.16C116.985 574.805 117.705 575.54 118.74 576.5L119.43 575.795C118.32 574.805 117.435 573.92 116.85 573.245C116.055 572.33 115.965 571.85 115.965 570.71V568.52H119.07V567.59ZM122.355 566.33H121.29V580.04H122.355V566.33ZM128.147 571.64C129.977 571.64 131.447 570.68 131.447 569.405V568.835C131.447 567.56 129.977 566.6 128.147 566.6C126.317 566.6 124.847 567.56 124.847 568.835V569.405C124.847 570.68 126.317 571.64 128.147 571.64ZM130.847 574.595V575.525H133.937V576.98H134.987V566.33H133.937V574.595H130.847ZM128.147 567.5C129.407 567.5 130.442 568.145 130.442 568.925V569.315C130.442 570.095 129.407 570.74 128.147 570.74C126.887 570.74 125.852 570.095 125.852 569.315V568.925C125.852 568.145 126.887 567.5 128.147 567.5ZM127.292 576.245H126.227V579.875H135.302V578.945H127.292V576.245ZM132.797 572.285C130.217 572.555 128.207 572.615 123.887 572.615V573.53C125.267 573.53 126.422 573.53 127.427 573.5V575.66H128.492V573.485C130.262 573.425 131.537 573.335 132.887 573.2L132.797 572.285ZM139.399 580.01H147.784V574.835H139.399V580.01ZM140.419 575.78H146.764V579.065H140.419V575.78ZM140.809 570.98C140.869 571.175 141.454 571.685 142.159 572.255C142.609 572.615 143.314 573.14 143.929 573.56L144.544 572.825C143.689 572.255 142.849 571.625 142.369 571.22C141.394 570.38 141.289 569.975 141.289 569.09V568.07H144.229V567.155H137.134V568.07H140.224V569.135C140.224 569.945 140.059 570.47 139.324 571.19C138.589 571.91 137.629 572.645 136.744 573.275L137.389 574.025C138.079 573.53 139.099 572.72 139.624 572.255C140.254 571.7 140.734 571.205 140.794 570.98H140.809ZM147.784 566.33H146.734V569.72H143.884V570.65H146.734V574.025H147.784V566.33ZM152.122 580.01H160.507V574.79H152.122V580.01ZM150.112 574.28C153.697 572.75 155.137 571.94 155.662 570.665H159.457V573.98H160.507V566.33H159.457V569.735H155.902C155.932 569.465 155.947 569.18 155.947 568.865V567.155H150.172V568.085H154.912V568.775C154.912 570.8 154.447 571.43 149.707 573.41L150.112 574.28ZM153.142 575.735H159.487V579.065H153.142V575.735ZM176.049 566.33H174.984V580.04H176.049V566.33ZM167.379 573.44C166.674 574.235 165.849 575.03 164.859 575.9L165.564 576.635C166.449 575.855 167.439 574.85 167.964 574.28C168.414 573.785 168.984 573.08 169.029 572.885H169.044C169.119 573.08 169.554 573.575 170.004 574.055C170.604 574.7 171.444 575.525 172.389 576.425L173.079 575.705C171.954 574.685 171.069 573.785 170.469 573.095C169.659 572.165 169.569 571.67 169.569 570.515V567.32H168.474V570.59C168.474 571.775 168.324 572.36 167.379 573.44ZM189.176 574.145C188.036 574.265 186.851 574.355 185.141 574.4V573.32C186.881 573.185 187.706 572.375 187.706 571.4V571.04C187.706 569.99 186.716 569.105 184.616 569.105C182.516 569.105 181.526 569.975 181.526 571.04V571.4C181.526 572.375 182.351 573.185 184.091 573.32V574.43C183.041 574.445 181.826 574.445 180.356 574.445V575.375C184.931 575.375 187.406 575.255 189.266 575.03L189.176 574.145ZM191.201 566.33H190.151V576.71H191.201V571.85H193.256V570.905H191.201V566.33ZM183.776 576.32H182.711V579.89H191.576V578.96H183.776V576.32ZM184.616 569.975C186.026 569.975 186.701 570.515 186.701 571.085V571.355C186.701 571.925 186.026 572.465 184.616 572.465C183.206 572.465 182.531 571.925 182.531 571.355V571.085C182.531 570.515 183.206 569.975 184.616 569.975ZM180.866 567.53V568.445H188.366V567.53H185.141V566.195H184.091V567.53H180.866ZM200.384 574.7C198.134 574.7 196.229 575.63 196.229 577.25V577.835C196.229 579.41 198.134 580.4 200.384 580.4C202.634 580.4 204.539 579.41 204.539 577.835V577.25C204.539 575.675 202.634 574.7 200.384 574.7ZM200.384 579.5C198.779 579.5 197.249 578.87 197.249 577.805V577.295C197.249 576.23 198.779 575.6 200.384 575.6C201.989 575.6 203.519 576.23 203.519 577.295V577.805C203.519 578.87 201.989 579.5 200.384 579.5ZM194.084 574.37C199.094 572.225 199.859 571.505 199.859 568.985V567.2H194.114V568.13H198.824V568.895C198.824 570.92 198.404 571.52 193.649 573.515L194.084 574.37ZM200.699 568.445V569.36H203.429V571.325H200.474V572.24H203.429V574.4H204.464V566.33H203.429V568.445H200.699ZM208.381 580.01H216.616V574.79H208.381V580.01ZM209.401 575.735H215.596V579.065H209.401V575.735ZM206.566 572.975C210.766 572.975 211.966 572.93 214.201 572.66L214.081 571.73C211.936 571.985 210.631 572.03 207.616 572.03V568.085H212.851V567.155H206.566V572.975ZM216.616 566.33H215.566V573.98H216.616V570.485H218.716V569.555H216.616V566.33ZM225.378 574.7C223.128 574.7 221.298 575.66 221.298 577.265V577.835C221.298 579.41 223.128 580.4 225.378 580.4C227.628 580.4 229.458 579.41 229.458 577.835V577.265C229.458 575.69 227.628 574.7 225.378 574.7ZM225.378 579.5C223.773 579.5 222.318 578.855 222.318 577.79V577.31C222.318 576.245 223.773 575.6 225.378 575.6C226.983 575.6 228.438 576.245 228.438 577.31V577.79C228.438 578.855 226.983 579.5 225.378 579.5ZM219.333 573.29C223.533 573.29 224.733 573.245 226.968 572.975L226.848 572.045C224.703 572.3 223.413 572.345 220.398 572.345V568.13H225.618V567.2H219.333V573.29ZM229.383 566.33H228.333V574.4H229.383V570.575H231.483V569.645H229.383V566.33ZM239.076 567.605H231.756V568.535H234.906V570.755C234.906 571.895 234.771 572.465 233.826 573.53C233.136 574.31 232.281 575.135 231.336 575.975L232.041 576.68C232.941 575.9 233.946 574.835 234.351 574.415C234.786 573.95 235.371 573.275 235.446 573.005H235.461C235.536 573.2 235.956 573.665 236.391 574.13C236.991 574.775 237.711 575.51 238.746 576.47L239.436 575.765C238.326 574.775 237.441 573.89 236.856 573.215C236.061 572.3 235.971 571.82 235.971 570.68V568.535H239.076V567.605ZM241.986 566.33H240.921V580.04H241.986V572.51H244.266V571.565H241.986V566.33ZM246.953 577.19V578.105H259.553V577.19H254.438V572.165H253.373V577.19H251.048V572.165H249.983V577.19H246.953ZM257.333 575.405C257.678 573.47 257.798 571.745 257.798 569.225V567.605H248.543V568.535H256.718V569.78C256.718 571.73 256.613 573.425 256.253 575.285L257.333 575.405ZM266.005 571.865C268.255 571.865 270.31 571.01 270.31 569.495V568.955C270.31 567.44 268.255 566.585 266.005 566.585C263.755 566.585 261.7 567.425 261.7 568.955V569.495C261.7 571.01 263.755 571.865 266.005 571.865ZM261.31 576.74H269.44V580.145H270.49V575.825H268.66V573.86H272.305V572.96H259.705V573.86H263.35V575.825H261.31V576.74ZM266.005 567.485C267.625 567.485 269.29 568.1 269.29 569.045V569.405C269.29 570.35 267.625 570.965 266.005 570.965C264.385 570.965 262.72 570.35 262.72 569.405V569.045C262.72 568.1 264.385 567.485 266.005 567.485ZM264.385 573.86H267.625V575.825H264.385V573.86Z" fill="#222222"/>
<path d="M74.5 575C75.3284 575 76 574.328 76 573.5C76 572.672 75.3284 572 74.5 572C73.6716 572 73 572.672 73 573.5C73 574.328 73.6716 575 74.5 575Z" fill="#CCCCCC"/>
<path d="M86.95 606.715C87.055 606.94 87.355 607.225 87.805 607.6C88.525 608.2 89.17 608.695 89.95 609.235L90.79 608.155C89.92 607.57 89.14 607 88.42 606.37C87.775 605.815 87.64 605.245 87.64 604.285V603.43H90.37V602.155H83.23V603.43H86.14V604.345C86.14 605.44 85.9 606.04 85.165 606.73C84.64 607.225 83.725 607.93 82.765 608.605L83.635 609.67C84.475 609.085 85.3 608.455 85.93 607.885C86.395 607.465 86.845 606.97 86.935 606.715H86.95ZM94.03 611.125V601.27H92.56V604.795H90.01V606.07H92.56V611.125H94.03ZM86.875 610.33H85.39V614.95H94.315V613.66H86.875V610.33ZM108.177 606.265H106.047V601.27H104.562V615.1H106.047V607.555H108.177V606.265ZM99.3423 608.155C99.4623 608.455 99.8223 608.875 100.242 609.325C100.812 609.94 101.487 610.615 102.522 611.575L103.482 610.555C102.582 609.76 101.922 609.13 101.277 608.425C100.362 607.405 100.077 606.79 100.077 605.605V602.275H98.5773V605.605C98.5773 606.67 98.3373 607.345 97.4223 608.38C96.7473 609.13 95.9673 609.895 95.0523 610.705L96.0273 611.71C97.0473 610.78 97.8423 609.985 98.4573 609.31C98.9373 608.785 99.1923 608.485 99.3273 608.155H99.3423ZM114.105 611.365C115.575 611.365 116.925 611.29 118.185 611.125L118.065 609.94C117.585 610.015 117.105 610.06 116.625 610.09V603.85H117.87V602.635H110.925V603.85H112.215V610.15H110.91V611.365H114.105ZM119.01 604.84H117.375V606.115H119.01V607.585H117.375V608.86H119.01V614.44H120.45V601.555H119.01V604.84ZM123 601.27H121.56V615.1H123V601.27ZM113.655 610.15V603.85H115.185V610.15H114.495H113.655ZM124.952 612.085C130.427 608.77 130.637 607.93 130.637 605.2V602.545H124.442V603.82H129.167V605.185C129.167 607.315 128.957 608.095 124.172 610.9L124.952 612.085ZM135.047 615.1V601.27H133.562V615.1H135.047ZM147.604 615.19V613.975H139.609V612.94H147.199V609.52H143.434V608.215H149.029V606.985H136.339V608.215H141.934V609.52H138.079V610.735H145.744V611.755H138.154V615.19H147.604ZM147.184 601.585H138.184V606.04H147.184V601.585ZM145.729 604.81H139.639V602.815H145.729V604.81ZM156.262 608.485C156.382 608.785 156.757 609.205 157.177 609.655C157.747 610.27 158.377 610.9 159.397 611.83L160.372 610.825C159.487 610.045 158.857 609.46 158.212 608.755C157.147 607.6 156.982 607.15 156.982 605.965V604.57H159.937V603.28H156.982V601.33H155.482V603.28H152.392V604.57H155.482V605.965C155.482 607.075 155.317 607.645 154.327 608.74C153.652 609.49 152.917 610.225 152.017 611.035L152.992 612.04C153.997 611.11 154.747 610.345 155.362 609.67C155.842 609.145 156.112 608.815 156.247 608.485H156.262ZM163.507 615.1V601.27H162.022V606.19H159.337V607.495H162.022V615.1H163.507ZM176.139 615.1V601.27H174.654V615.1H176.139ZM171.879 607.54V602.365H165.654V603.64H170.409V606.295H165.699V611.755H168.219C170.709 611.755 172.074 611.635 173.469 611.425L173.334 610.18C171.774 610.405 170.574 610.48 168.579 610.48H167.169V607.54H171.879ZM182.066 608.29C182.186 608.59 182.561 609.01 182.981 609.46C183.551 610.075 184.181 610.705 185.201 611.635L186.176 610.63C185.291 609.85 184.661 609.265 184.016 608.56C182.951 607.405 182.786 606.955 182.786 605.77V603.805H185.681V602.515H178.316V603.805H181.286V605.77C181.286 606.88 181.121 607.45 180.131 608.545C179.456 609.295 178.721 610.03 177.821 610.84L178.796 611.845C179.801 610.915 180.551 610.15 181.166 609.475C181.646 608.95 181.916 608.62 182.051 608.29H182.066ZM189.041 615.1V601.27H187.556V615.1H189.041ZM193.034 609.895V615.085H201.659V609.895H193.034ZM194.789 606.385C194.894 606.61 195.194 606.895 195.644 607.27C196.364 607.87 197.039 608.38 197.819 608.92L198.659 607.84C197.774 607.255 196.964 606.67 196.259 606.025C195.599 605.425 195.479 604.915 195.479 603.985V603.955H198.314V602.68H195.479V601.105H193.979V602.68H190.964V603.955H193.979V604.045C193.979 605.11 193.724 605.68 192.989 606.4C192.449 606.925 191.534 607.615 190.574 608.29L191.444 609.355C192.284 608.77 193.124 608.11 193.769 607.555C194.249 607.15 194.684 606.64 194.774 606.385H194.789ZM194.504 611.155H200.189V613.825H194.504V611.155ZM201.659 609.22V601.27H200.189V609.22H201.659Z" fill="#4A89DB"/>
<path d="M209.641 608.86C211.696 608.86 213.001 607.315 213.001 605.83V604.96C213.001 603.475 211.696 601.93 209.641 601.93C207.586 601.93 206.281 603.49 206.281 604.96V605.83C206.281 607.315 207.586 608.86 209.641 608.86ZM209.641 602.875C211.036 602.875 211.981 603.925 211.981 605.05V605.74C211.981 606.865 211.036 607.915 209.641 607.915C208.246 607.915 207.301 606.865 207.301 605.74V605.05C207.301 603.955 208.246 602.875 209.641 602.875ZM216.616 601.33H215.566V611.14H216.616V606.415H218.716V605.485H216.616V601.33ZM209.491 610.375H208.426V614.875H217.036V613.945H209.491V610.375ZM227.118 601.615H226.068V614.365H227.118V606.895H229.263V615.04H230.313V601.33H229.263V605.95H227.118V601.615ZM219.348 611.185H220.863C222.138 611.185 223.728 611.14 225.108 610.87L224.988 609.925C223.653 610.165 222.363 610.225 221.373 610.225H220.413V602.62H219.348V611.185Z" fill="#222222"/>
<path d="M74.5 610C75.3284 610 76 609.328 76 608.5C76 607.672 75.3284 607 74.5 607C73.6716 607 73 607.672 73 608.5C73 609.328 73.6716 610 74.5 610Z" fill="#CCCCCC"/>
<path d="M136.094 13.12C142.174 13.12 145.554 13.06 147.754 12.84L147.574 10.78C146.394 10.88 145.034 10.94 143.194 10.98V10.06C145.174 9.74 146.274 8.68 146.274 7.46V6.94C146.274 5.48 144.714 4.26 141.934 4.26C139.154 4.26 137.594 5.48 137.594 6.94V7.46C137.594 8.7 138.694 9.74 140.694 10.06V11.02C139.374 11.04 137.854 11.04 136.094 11.04V13.12ZM150.994 0.28H148.494V14.4H150.994V8.28H153.454V6.08H150.994V0.28ZM141.414 13.76H138.874V18.76H151.494V16.62H141.414V13.76ZM136.814 1.7V3.76H146.954V1.7H143.194V0.0999997H140.674V1.7H136.814ZM141.934 6.14C143.214 6.14 143.894 6.66 143.894 7.14V7.26C143.894 7.74 143.214 8.26 141.934 8.26C140.654 8.26 139.974 7.74 139.974 7.26V7.14C139.974 6.66 140.654 6.14 141.934 6.14ZM162.757 19.44C166.057 19.44 168.577 18.1 168.577 15.84V14.96C168.577 12.7 166.057 11.36 162.757 11.36C159.457 11.36 156.937 12.7 156.937 14.96V15.84C156.937 18.1 159.457 19.44 162.757 19.44ZM162.757 13.42C164.497 13.42 166.097 14.2 166.097 15.14V15.66C166.097 16.6 164.497 17.38 162.757 17.38C161.017 17.38 159.417 16.6 159.417 15.66V15.14C159.417 14.2 161.017 13.42 162.757 13.42ZM163.217 2.86V4.98H166.017V6.74H162.897V8.86H166.017V11.28H168.517V0.28H166.017V2.86H163.217ZM154.337 11.68C160.717 8.98 162.277 7.8 162.277 4.62V1.38H154.117V3.52H159.757V4.38C159.757 6.5 158.977 7.22 153.317 9.62L154.337 11.68ZM179.62 14.5C183.02 14.5 184.42 12.24 184.42 9.12V6.9C184.42 3.78 183.02 1.52 179.62 1.52C176.22 1.52 174.82 3.78 174.82 6.9V9.12C174.82 12.24 176.22 14.5 179.62 14.5ZM179.62 3.74C181.32 3.74 182 4.94 182 7.2V8.82C182 11.08 181.32 12.28 179.62 12.28C177.92 12.28 177.24 11.08 177.24 8.82V7.2C177.24 4.94 177.92 3.74 179.62 3.74ZM189.54 0.28H187V18.88H189.54V0.28ZM190.883 10.66V12.8H194.963V18.82H197.463V12.8H201.343V18.82H203.843V12.8H207.923V10.66H190.883ZM199.463 6.02C199.663 6.38 200.363 6.86 201.663 7.52C202.783 8.08 204.563 8.9 205.823 9.42L206.843 7.38C205.443 6.8 203.763 6.04 202.423 5.32C201.183 4.66 200.683 3.9 200.683 2.68V0.92H198.123V2.68C198.123 3.9 197.623 4.66 196.383 5.32C195.043 6.04 193.363 6.8 191.963 7.38L193.003 9.46C194.263 8.94 196.043 8.12 197.163 7.56C198.463 6.9 199.263 6.4 199.443 6.02H199.463Z" fill="#5082E6"/>
<path d="M148.234 475.66H145.814V492.98H148.234V483.8H149.874V493.88H152.294V475.28H149.874V481.62H148.234V475.66ZM136.694 477.04V488.94H139.774C141.434 488.94 143.374 488.88 144.994 488.6L144.734 486.44C143.074 486.7 141.394 486.76 139.774 486.76H139.194V479.22H143.874V477.04H136.694ZM153.077 483.98V486.04H170.117V483.98H153.077ZM161.597 482.94C165.177 482.94 167.697 481.72 167.697 479.46V478.98C167.697 476.72 165.177 475.5 161.597 475.5C158.017 475.5 155.497 476.72 155.497 478.98V479.46C155.497 481.72 158.017 482.94 161.597 482.94ZM161.597 477.54C163.637 477.54 165.197 478.16 165.197 479.06V479.38C165.197 480.28 163.637 480.9 161.597 480.9C159.557 480.9 157.997 480.28 157.997 479.38V479.06C157.997 478.16 159.557 477.54 161.597 477.54ZM161.597 494.44C164.837 494.44 167.597 493.34 167.597 491.02V490.42C167.597 488.1 164.837 487 161.597 487C158.357 487 155.597 488.1 155.597 490.42V491.02C155.597 493.34 158.357 494.44 161.597 494.44ZM161.597 489.04C163.377 489.04 165.097 489.64 165.097 490.58V490.86C165.097 491.8 163.377 492.4 161.597 492.4C159.817 492.4 158.097 491.8 158.097 490.86V490.58C158.097 489.64 159.817 489.04 161.597 489.04ZM186.8 488.52H189.32V475.28H186.8V480H183.82V482.16H186.8V488.52ZM180.02 487.44H177.48V493.68H189.62V491.52H180.02V487.44ZM174.76 478.6H178.38V480.16C178.38 481.14 177.98 481.88 177.28 482.5C176.44 483.24 175.24 484.16 173.98 485.02L175.46 486.88C176.46 486.18 177.34 485.5 178.2 484.82C179.12 484.1 179.68 483.56 179.76 483.32H179.78C179.86 483.52 180.38 483.98 181.22 484.6C181.96 485.14 182.82 485.74 183.68 486.3L185.04 484.5C184.04 483.86 183.04 483.18 182.2 482.54C181.14 481.72 180.9 481.14 180.9 480.16V478.6H184.36V476.44H174.76V478.6ZM193.623 489.64H202.963V494.12H205.483V487.52H193.623V489.64ZM205.483 475.28H202.983V486.68H205.483V483.9H207.883V481.74H205.483V480.04H207.883V477.88H205.483V475.28ZM193.943 481.98H199.923V476.12H191.463V478.22H197.443V479.96H191.463V485.82C196.563 485.82 199.403 485.78 201.703 485.52L201.483 483.44C199.043 483.68 196.743 483.72 193.943 483.72V481.98Z" fill="#33B9A5"/>
<defs>
<filter id="filter0_d_1_16858" x="72" y="30" width="220" height="220" filterUnits="userSpaceOnUse" color-interpolation-filters="sRGB">
<feFlood flood-opacity="0" result="BackgroundImageFix"/>
<feColorMatrix in="SourceAlpha" type="matrix" values="0 0 0 0 0 0 0 0 0 0 0 0 0 0 0 0 0 0 127 0" result="hardAlpha"/>
<feOffset dx="10" dy="10"/>
<feGaussianBlur stdDeviation="10"/>
<feColorMatrix type="matrix" values="0 0 0 0 0 0 0 0 0 0 0 0 0 0 0 0 0 0 0.1 0"/>
<feBlend mode="normal" in2="BackgroundImageFix" result="effect1_dropShadow_1_16858"/>
<feBlend mode="normal" in="SourceGraphic" in2="effect1_dropShadow_1_16858" result="shape"/>
</filter>
<linearGradient id="paint0_linear_1_16858" x1="172.5" y1="515" x2="172.5" y2="667" gradientUnits="userSpaceOnUse">
<stop stop-color="#33B9A5"/>
<stop offset="0.69" stop-color="#40A7C9"/>
<stop offset="1" stop-color="#5082E6"/>
</linearGradient>
</defs>
</svg>
