<svg width="822" height="718" viewBox="0 0 822 718" fill="none" xmlns="http://www.w3.org/2000/svg">
<path d="M119 64L119 652" stroke="#AAAAAA"/>
<path d="M338 278L119 278" stroke="#AAAAAA"/>
<path d="M327 594H675C691.569 594 705 607.431 705 624V711" stroke="#AAAAAA"/>
<path d="M119 594H382C398.569 594 412 607.431 412 624V711" stroke="#AAAAAA"/>
<rect x="3.5" y="0.5" width="234" height="82" rx="41" fill="white" stroke="#333333"/>
<path d="M96.7337 40.5C97.8138 41.04 99.1737 41.7 100.834 42.34L101.594 40.74C100.114 40.18 98.6338 39.52 97.3538 38.82C95.7337 37.94 95.5138 37.08 95.4937 36.1H100.814V34.42H88.2137V36.1H93.5137C93.4937 37.08 93.2537 37.94 91.6337 38.82C90.3537 39.52 88.8737 40.18 87.3937 40.74L88.1737 42.36C89.8337 41.72 91.1937 41.06 92.2737 40.52C93.5937 39.86 94.2737 39.36 94.4937 38.9H94.5137C94.7537 39.36 95.4138 39.84 96.7337 40.5ZM95.4937 51.8V45.48H102.954V43.8H86.0337V45.48H93.4937V51.8H95.4937ZM113.737 40.5C114.817 41.04 116.177 41.7 117.837 42.34L118.597 40.74C117.117 40.18 115.637 39.52 114.357 38.82C112.737 37.94 112.517 37.08 112.497 36.1H117.817V34.42H105.217V36.1H110.517C110.497 37.08 110.257 37.94 108.637 38.82C107.357 39.52 105.877 40.18 104.397 40.74L105.177 42.36C106.837 41.72 108.197 41.06 109.277 40.52C110.597 39.86 111.277 39.36 111.497 38.9H111.517C111.757 39.36 112.417 39.84 113.737 40.5ZM112.497 51.8V45.48H119.957V43.8H103.037V45.48H110.497V51.8H112.497ZM128.5 52.36C132.04 52.36 134.26 50.92 134.26 49.1V48.46C134.26 46.6 132.02 45.2 128.5 45.2C124.98 45.2 122.74 46.58 122.74 48.46V49.1C122.74 50.94 124.98 52.36 128.5 52.36ZM128.5 38.68C128.8 39.2 129.68 39.64 130.52 39.96C132 40.54 133.4 41.04 134.88 41.48L135.5 39.88C133.88 39.4 132.6 38.96 131.7 38.58C130.28 38 129.54 37.38 129.48 36.58H134.82V34.94H129.48V33.12H127.5V34.94H122.18V36.58H127.5C127.42 37.38 126.7 38.04 125.3 38.58C123.96 39.1 122.86 39.48 121.5 39.88L122.12 41.48C123.58 41.04 125 40.54 126.5 39.96C127.34 39.64 128.18 39.2 128.48 38.68H128.5ZM129.5 42.6V40.72H127.5V42.6H120.04V44.28H136.96V42.6H129.5ZM128.5 46.82C130.76 46.82 132.3 47.68 132.3 48.58V48.98C132.3 49.88 130.76 50.74 128.5 50.74C126.24 50.74 124.7 49.88 124.7 48.98V48.58C124.7 47.68 126.24 46.82 128.5 46.82ZM149.583 46.32C147.943 46.48 146.423 46.6 144.523 46.66V44.86C146.663 44.52 147.903 43.2 147.903 41.8V41.04C147.903 39.42 146.243 37.9 143.423 37.9C140.603 37.9 138.943 39.42 138.943 41.04V41.8C138.943 43.26 140.263 44.62 142.563 44.9V46.72C141.143 46.76 139.503 46.76 137.503 46.76V48.44C143.823 48.44 146.403 48.32 149.743 48L149.583 46.32ZM152.623 51.8V33.36H150.663V51.8H152.623ZM148.663 35.44H144.383V33.22H142.423V35.44H138.003V37.14H148.663V35.44ZM143.423 43.32C141.763 43.32 140.863 42.48 140.863 41.64V41.2C140.863 40.36 141.743 39.52 143.423 39.52C145.083 39.52 145.983 40.36 145.983 41.2V41.64C145.983 42.48 145.103 43.32 143.423 43.32Z" fill="#222222"/>
<rect x="3.5" y="159.5" width="234" height="82" rx="41" fill="white" stroke="#333333"/>
<path d="M110.315 210.8V192.36H108.335V210.8H110.315ZM100.615 193.6C97.9153 193.6 95.9553 195.42 95.9553 198.96V201.04C95.9553 204.56 97.9153 206.38 100.615 206.38C103.315 206.38 105.275 204.56 105.275 201.04V198.96C105.275 195.44 103.315 193.6 100.615 193.6ZM100.615 204.6C99.1753 204.6 97.8553 203.58 97.8553 200.76V199.24C97.8553 196.42 99.1753 195.4 100.615 195.4C102.035 195.4 103.375 196.42 103.375 199.24V200.76C103.375 203.58 102.055 204.6 100.615 204.6ZM129.298 199.02H126.458V192.36H124.478V210.8H126.458V200.74H129.298V199.02ZM117.518 201.54C117.678 201.94 118.158 202.5 118.718 203.1C119.478 203.92 120.378 204.82 121.758 206.1L123.038 204.74C121.838 203.68 120.958 202.84 120.098 201.9C118.878 200.54 118.498 199.72 118.498 198.14V193.7H116.498V198.14C116.498 199.56 116.178 200.46 114.958 201.84C114.058 202.84 113.018 203.86 111.798 204.94L113.098 206.28C114.458 205.04 115.518 203.98 116.338 203.08C116.978 202.38 117.318 201.98 117.498 201.54H117.518ZM141.582 205.32C139.942 205.48 138.422 205.6 136.522 205.66V203.86C138.662 203.52 139.902 202.2 139.902 200.8V200.04C139.902 198.42 138.242 196.9 135.422 196.9C132.602 196.9 130.942 198.42 130.942 200.04V200.8C130.942 202.26 132.262 203.62 134.562 203.9V205.72C133.142 205.76 131.502 205.76 129.502 205.76V207.44C135.822 207.44 138.402 207.32 141.742 207L141.582 205.32ZM144.622 210.8V192.36H142.662V210.8H144.622ZM140.662 194.44H136.382V192.22H134.422V194.44H130.002V196.14H140.662V194.44ZM135.422 202.32C133.762 202.32 132.862 201.48 132.862 200.64V200.2C132.862 199.36 133.742 198.52 135.422 198.52C137.082 198.52 137.982 199.36 137.982 200.2V200.64C137.982 201.48 137.102 202.32 135.422 202.32Z" fill="#222222"/>
<rect x="2.5" y="317.5" width="234" height="82" rx="41" fill="white" stroke="#333333"/>
<path d="M98.1953 365.8C98.1953 367.74 100.315 369.32 103.855 369.32C107.395 369.32 109.515 367.74 109.515 365.8V365C109.515 363.06 107.395 361.48 103.855 361.48C100.315 361.48 98.1953 363.06 98.1953 365V365.8ZM101.275 354.26C101.275 356.38 100.195 357.36 94.6353 359.68L95.4153 361.26C101.715 358.58 103.215 357.46 103.215 354.4V351.5H95.3953V353.18H101.275V354.26ZM109.435 361.24V350.36H107.495V353.02H104.235V354.72H107.495V356.86H103.935V358.56H107.495V361.24H109.435ZM107.575 365.68C107.575 366.66 106.135 367.7 103.855 367.7C101.575 367.7 100.135 366.66 100.135 365.68V365.12C100.135 364.14 101.575 363.1 103.855 363.1C106.135 363.1 107.575 364.14 107.575 365.12V365.68ZM115.198 365.8C115.198 367.74 117.318 369.32 120.858 369.32C124.398 369.32 126.518 367.74 126.518 365.8V365C126.518 363.06 124.398 361.48 120.858 361.48C117.318 361.48 115.198 363.06 115.198 365V365.8ZM120.778 355.1C120.778 353.32 119.338 351.06 116.198 351.06C113.058 351.06 111.618 353.32 111.618 355.1V356.12C111.618 357.9 113.058 360.16 116.198 360.16C119.338 360.16 120.778 357.9 120.778 356.12V355.1ZM126.438 361.24V350.36H124.498V352.66H121.598V354.36H124.498V356.82H121.598V358.52H124.498V361.24H126.438ZM124.578 365.68C124.578 366.66 123.138 367.7 120.858 367.7C118.578 367.7 117.138 366.66 117.138 365.68V365.12C117.138 364.14 118.578 363.1 120.858 363.1C123.138 363.1 124.578 364.14 124.578 365.12V365.68ZM118.878 356.02C118.878 357.2 118.038 358.44 116.198 358.44C114.358 358.44 113.518 357.2 113.518 356.02V355.2C113.518 354.02 114.358 352.78 116.198 352.78C118.038 352.78 118.878 354.02 118.878 355.2V356.02ZM134.122 357.54C134.262 357.84 134.662 358.22 135.262 358.72C136.222 359.52 137.122 360.2 138.162 360.92L139.282 359.48C138.122 358.7 137.042 357.92 136.082 357.08C135.222 356.34 135.042 355.58 135.042 354.3V353.24H138.742V351.54H129.122V353.24H133.042V354.38C133.042 355.84 132.722 356.64 131.742 357.56C131.042 358.22 129.782 359.18 128.502 360.08L129.662 361.5C130.782 360.72 131.922 359.86 132.762 359.1C133.382 358.54 133.982 357.88 134.102 357.54H134.122ZM133.782 362.38H131.802V368.6H143.702V366.88H133.782V362.38ZM143.322 363.5V350.36H141.362V363.5H143.322Z" fill="#222222"/>
<rect x="310.5" y="236.5" width="236" height="84" rx="42" fill="white" stroke="#33B9A5" stroke-width="3"/>
<path d="M385.088 272.1V286.52H394.208V284.82H387.068V279.98H393.648V278.28H387.068V273.8H394.068V272.1H385.088ZM400.441 284.94C399.201 284.94 397.441 284.24 396.361 283.42L395.361 285.04C396.561 286 398.341 286.74 400.381 286.74C403.341 286.74 405.521 285.38 405.521 282.74V282.38C405.521 280.38 404.421 279.12 400.861 278.32C398.721 277.84 397.541 277.36 397.541 276.04V275.72C397.541 274.58 398.721 273.66 400.521 273.66C401.841 273.66 402.901 273.96 403.961 274.68L404.901 273.14C403.681 272.32 402.261 271.88 400.501 271.88C397.181 271.88 395.561 273.78 395.561 275.74V276.1C395.561 278.7 397.641 279.54 400.361 280.12C402.701 280.62 403.521 281.26 403.521 282.52V282.84C403.521 283.98 402.481 284.94 400.441 284.94ZM417.585 278.6H412.405V280.3H415.605V284.36C414.845 284.74 413.825 284.94 412.745 284.94C410.165 284.94 408.505 283.48 408.505 280.14V278.48C408.505 275.14 410.025 273.68 412.525 273.68C413.885 273.68 415.025 274 416.285 275L417.305 273.4C415.965 272.34 414.385 271.88 412.525 271.88C408.865 271.88 406.525 274.02 406.525 278.22V280.4C406.525 284.64 408.865 286.74 412.685 286.74C414.485 286.74 416.325 286.32 417.585 285.44V278.6ZM428.183 278.72C431.123 278.72 432.983 277.02 432.983 275.12V274.32C432.983 272.42 431.163 270.72 428.183 270.72C425.203 270.72 423.383 272.42 423.383 274.32V275.12C423.383 277.02 425.243 278.72 428.183 278.72ZM437.483 288.8V270.36H435.523V288.8H437.483ZM429.283 288.24V281.88C431.183 281.8 432.863 281.68 434.523 281.5L434.363 279.84C431.043 280.16 427.663 280.28 422.383 280.26V281.98C424.183 281.98 425.803 281.98 427.263 281.94V288.24H429.283ZM428.183 277C426.483 277 425.283 276.14 425.283 274.98V274.46C425.283 273.24 426.483 272.44 428.183 272.44C429.883 272.44 431.083 273.24 431.083 274.46V274.98C431.083 276.14 429.883 277 428.183 277ZM445.066 277.62C447.886 277.62 449.606 276.12 449.606 274.48V273.84C449.606 272.2 447.886 270.7 445.066 270.7C442.246 270.7 440.526 272.2 440.526 273.84V274.48C440.526 276.12 442.246 277.62 445.066 277.62ZM454.386 284.64V270.36H452.426V281.34H448.526V283H452.426V284.64H454.386ZM444.286 283.68H442.306V288.62H454.766V286.92H444.286V283.68ZM445.846 282.94V280.24C447.786 280.16 449.526 280.04 451.226 279.86L451.086 278.2C446.706 278.56 443.746 278.66 439.326 278.64V280.36C440.966 280.36 442.486 280.34 443.886 280.3V282.94H445.846ZM445.066 275.96C443.366 275.96 442.406 275.14 442.406 274.36V273.96C442.406 273.18 443.366 272.38 445.066 272.38C446.766 272.38 447.726 273.18 447.726 273.96V274.36C447.726 275.14 446.766 275.96 445.066 275.96ZM468.529 283.32C466.889 283.48 465.369 283.6 463.469 283.66V281.86C465.609 281.52 466.849 280.2 466.849 278.8V278.04C466.849 276.42 465.189 274.9 462.369 274.9C459.549 274.9 457.889 276.42 457.889 278.04V278.8C457.889 280.26 459.209 281.62 461.509 281.9V283.72C460.089 283.76 458.449 283.76 456.449 283.76V285.44C462.769 285.44 465.349 285.32 468.689 285L468.529 283.32ZM471.569 288.8V270.36H469.609V288.8H471.569ZM467.609 272.44H463.329V270.22H461.369V272.44H456.949V274.14H467.609V272.44ZM462.369 280.32C460.709 280.32 459.809 279.48 459.809 278.64V278.2C459.809 277.36 460.689 276.52 462.369 276.52C464.029 276.52 464.929 277.36 464.929 278.2V278.64C464.929 279.48 464.049 280.32 462.369 280.32Z" fill="#222222"/>
<rect x="1.5" y="475.5" width="236" height="84" rx="42" fill="white" stroke="#33B9A5" stroke-width="3"/>
<path d="M85.9892 498.1V512.52H95.1092V510.82H87.9692V505.98H94.5492V504.28H87.9692V499.8H94.9692V498.1H85.9892ZM101.342 510.94C100.102 510.94 98.3423 510.24 97.2623 509.42L96.2623 511.04C97.4623 512 99.2423 512.74 101.282 512.74C104.242 512.74 106.422 511.38 106.422 508.74V508.38C106.422 506.38 105.322 505.12 101.762 504.32C99.6223 503.84 98.4423 503.36 98.4423 502.04V501.72C98.4423 500.58 99.6223 499.66 101.422 499.66C102.742 499.66 103.802 499.96 104.862 500.68L105.802 499.14C104.582 498.32 103.162 497.88 101.402 497.88C98.0823 497.88 96.4623 499.78 96.4623 501.74V502.1C96.4623 504.7 98.5423 505.54 101.262 506.12C103.602 506.62 104.422 507.26 104.422 508.52V508.84C104.422 509.98 103.382 510.94 101.342 510.94ZM118.487 504.6H113.307V506.3H116.507V510.36C115.747 510.74 114.727 510.94 113.647 510.94C111.067 510.94 109.407 509.48 109.407 506.14V504.48C109.407 501.14 110.927 499.68 113.427 499.68C114.787 499.68 115.927 500 117.187 501L118.207 499.4C116.867 498.34 115.287 497.88 113.427 497.88C109.767 497.88 107.427 500.02 107.427 504.22V506.4C107.427 510.64 109.767 512.74 113.587 512.74C115.387 512.74 117.227 512.32 118.487 511.44V504.6ZM123.245 511.8C123.245 513.74 125.365 515.32 128.905 515.32C132.445 515.32 134.565 513.74 134.565 511.8V511C134.565 509.06 132.445 507.48 128.905 507.48C125.365 507.48 123.245 509.06 123.245 511V511.8ZM126.325 500.26C126.325 502.38 125.245 503.36 119.685 505.68L120.465 507.26C126.765 504.58 128.265 503.46 128.265 500.4V497.5H120.445V499.18H126.325V500.26ZM134.485 507.24V496.36H132.545V499.02H129.285V500.72H132.545V502.86H128.985V504.56H132.545V507.24H134.485ZM132.625 511.68C132.625 512.66 131.185 513.7 128.905 513.7C126.625 513.7 125.185 512.66 125.185 511.68V511.12C125.185 510.14 126.625 509.1 128.905 509.1C131.185 509.1 132.625 510.14 132.625 511.12V511.68ZM140.248 511.8C140.248 513.74 142.368 515.32 145.908 515.32C149.448 515.32 151.568 513.74 151.568 511.8V511C151.568 509.06 149.448 507.48 145.908 507.48C142.368 507.48 140.248 509.06 140.248 511V511.8ZM145.828 501.1C145.828 499.32 144.388 497.06 141.248 497.06C138.108 497.06 136.668 499.32 136.668 501.1V502.12C136.668 503.9 138.108 506.16 141.248 506.16C144.388 506.16 145.828 503.9 145.828 502.12V501.1ZM151.488 507.24V496.36H149.548V498.66H146.648V500.36H149.548V502.82H146.648V504.52H149.548V507.24H151.488ZM149.628 511.68C149.628 512.66 148.188 513.7 145.908 513.7C143.628 513.7 142.188 512.66 142.188 511.68V511.12C142.188 510.14 143.628 509.1 145.908 509.1C148.188 509.1 149.628 510.14 149.628 511.12V511.68ZM143.928 502.02C143.928 503.2 143.088 504.44 141.248 504.44C139.408 504.44 138.568 503.2 138.568 502.02V501.2C138.568 500.02 139.408 498.78 141.248 498.78C143.088 498.78 143.928 500.02 143.928 501.2V502.02ZM113.368 536.38C112.168 537.56 110.728 537.9 109.348 537.9C107.168 537.9 105.568 536.44 105.568 533.14V531.48C105.568 528.18 107.168 526.72 109.348 526.72C110.648 526.72 111.788 526.98 113.088 528.04L114.108 526.42C112.768 525.36 111.328 524.88 109.348 524.88C105.928 524.88 103.568 527.02 103.568 531.22V533.4C103.568 537.64 105.908 539.74 109.348 539.74C111.288 539.74 113.008 539.28 114.448 537.9L113.368 536.38ZM115.679 525.1V539.52H117.659V533.32H124.179V531.62H117.659V526.8H124.599V525.1H115.679ZM130.906 539.52V526.8H135.306V525.1H124.526V526.8H128.926V539.52H130.906Z" fill="#222222"/>
<rect x="3" y="636" width="233" height="81" rx="40.5" fill="#4A89DB"/>
<path d="M96.6537 665.8C94.9137 665.96 93.4937 666.04 91.7937 666.1V664.96C93.9337 664.72 95.0337 663.66 95.0337 662.36V661.84C95.0337 660.38 93.6137 659.2 90.8137 659.2C88.0137 659.2 86.5937 660.36 86.5937 661.84V662.36C86.5937 663.66 87.6737 664.72 89.8337 664.96V666.14C88.5137 666.16 86.9737 666.16 85.0537 666.16V667.84C91.2137 667.84 93.6337 667.74 96.8138 667.42L96.6537 665.8ZM99.7337 669.38V663.02H102.334V661.3H99.7337V655.36H97.7737V669.38H99.7337ZM89.9537 668.84H87.9737V673.62H100.234V671.92H89.9537V668.84ZM91.7937 656.92V655.2H89.8337V656.92H85.7537V658.58H95.8138V656.92H91.7937ZM90.8137 660.76C92.3937 660.76 93.0937 661.34 93.0937 661.98V662.22C93.0937 662.86 92.3937 663.44 90.8137 663.44C89.2337 663.44 88.5337 662.86 88.5337 662.22V661.98C88.5337 661.34 89.2337 660.76 90.8137 660.76ZM106.197 670.8C106.197 672.74 108.317 674.32 111.857 674.32C115.397 674.32 117.517 672.74 117.517 670.8V670C117.517 668.06 115.397 666.48 111.857 666.48C108.317 666.48 106.197 668.06 106.197 670V670.8ZM109.277 659.26C109.277 661.38 108.197 662.36 102.637 664.68L103.417 666.26C109.717 663.58 111.217 662.46 111.217 659.4V656.5H103.397V658.18H109.277V659.26ZM117.437 666.24V655.36H115.497V658.02H112.237V659.72H115.497V661.86H111.937V663.56H115.497V666.24H117.437ZM115.577 670.68C115.577 671.66 114.137 672.7 111.857 672.7C109.577 672.7 108.137 671.66 108.137 670.68V670.12C108.137 669.14 109.577 668.1 111.857 668.1C114.137 668.1 115.577 669.14 115.577 670.12V670.68ZM122.36 666.62V673.78H133.6V666.62H122.36ZM129.96 662.34C127.18 662.64 125.94 662.72 121.84 662.72V658.14H128.44V656.44H119.9V664.42C125.66 664.42 127.34 664.34 130.16 663.98L129.96 662.34ZM124.32 668.3H131.64V672.1H124.32V668.3ZM136.22 659.5H133.6V655.36H131.64V665.72H133.6V661.22H136.22V659.5ZM139.563 670.8C139.563 672.74 141.643 674.32 145.123 674.32C148.603 674.32 150.683 672.74 150.683 670.8V670C150.683 668.06 148.603 666.48 145.123 666.48C141.643 666.48 139.563 668.06 139.563 670V670.8ZM146.963 662.72C144.183 663.02 142.943 663.1 138.843 663.1V658.22H145.443V656.52H136.903V664.8C142.663 664.8 144.343 664.72 147.163 664.36L146.963 662.72ZM148.743 670.68C148.743 671.66 147.343 672.7 145.123 672.7C142.903 672.7 141.503 671.66 141.503 670.68V670.12C141.503 669.14 142.903 668.1 145.123 668.1C147.343 668.1 148.743 669.14 148.743 670.12V670.68ZM153.223 659.62H150.603V655.36H148.643V666.24H150.603V661.34H153.223V659.62ZM100.254 691.54V682.36H98.2938V691.54H100.254ZM100.774 700.92V699.28H90.7737V697.48H100.254V692.46H88.7337V694.1H98.3138V695.88H88.8337V700.92H100.774ZM90.8137 687.88C90.9137 688.16 91.4337 688.66 91.9537 689.1C92.8937 689.9 93.8737 690.6 94.8937 691.34L96.0337 689.9C94.8937 689.14 93.7137 688.3 92.7737 687.46C91.8737 686.64 91.7337 686 91.7337 684.76V682.82H89.7337V684.84C89.7337 686.26 89.4137 687 88.4337 687.92C87.7137 688.58 86.4137 689.6 85.1337 690.56L86.2737 691.96C87.3737 691.18 88.6137 690.18 89.4537 689.44C90.1937 688.78 90.7137 688.2 90.7937 687.88H90.8137ZM116.537 683.4H104.457V690.94H116.537V683.4ZM111.497 700.8V694.74H118.957V693.06H102.037V694.74H109.497V700.8H111.497ZM106.417 685.06H114.577V689.28H106.417V685.06ZM127.52 689.32C127.72 689.66 128.38 690.26 129.7 691.1C131.04 691.94 132.1 692.54 133.8 693.44L134.78 691.86C133.1 691 132.12 690.48 130.58 689.5C128.98 688.48 128.5 687.62 128.5 686.12V685.64H133.86V683.92H121.14V685.64H126.5V686.12C126.5 687.64 125.94 688.54 124.4 689.54C123.12 690.36 121.94 691 120.22 691.88L121.2 693.46C122.7 692.68 123.92 692 125.28 691.14C126.6 690.3 127.28 689.68 127.5 689.32H127.52ZM128.5 696.66V692.72H126.5V696.66H119.04V698.34H135.96V696.66H128.5ZM142.123 689C142.263 689.3 142.663 689.68 143.263 690.18C144.223 690.98 145.123 691.66 146.163 692.38L147.283 690.94C146.103 690.16 145.023 689.38 144.083 688.52C143.203 687.72 143.043 687.04 143.043 685.76V685.14H146.743V683.44H137.123V685.14H141.043V685.84C141.043 687.3 140.703 688.06 139.723 689.02C139.003 689.72 137.783 690.64 136.503 691.54L137.663 692.96C138.783 692.18 139.903 691.3 140.763 690.56C141.403 690.02 141.983 689.34 142.103 689H142.123ZM139.183 695.74H149.343V700.98H151.323V694.04H139.183V695.74ZM151.323 693.08V682.36H149.363V693.08H151.323Z" fill="white"/>
<rect x="296" y="636" width="233" height="81" rx="40.5" fill="#4A89DB"/>
<path d="M395.294 662.02H392.454V655.36H390.474V673.8H392.454V663.74H395.294V662.02ZM383.514 664.54C383.674 664.94 384.154 665.5 384.714 666.1C385.474 666.92 386.374 667.82 387.754 669.1L389.034 667.74C387.834 666.68 386.954 665.84 386.094 664.9C384.874 663.54 384.494 662.72 384.494 661.14V656.7H382.494V661.14C382.494 662.56 382.174 663.46 380.954 664.84C380.054 665.84 379.014 666.86 377.794 667.94L379.094 669.28C380.454 668.04 381.514 666.98 382.334 666.08C382.974 665.38 383.314 664.98 383.494 664.54H383.514ZM407.577 668.32C405.937 668.48 404.417 668.6 402.517 668.66V666.86C404.657 666.52 405.897 665.2 405.897 663.8V663.04C405.897 661.42 404.237 659.9 401.417 659.9C398.597 659.9 396.937 661.42 396.937 663.04V663.8C396.937 665.26 398.257 666.62 400.557 666.9V668.72C399.137 668.76 397.497 668.76 395.497 668.76V670.44C401.817 670.44 404.397 670.32 407.737 670L407.577 668.32ZM410.617 673.8V655.36H408.657V673.8H410.617ZM406.657 657.44H402.377V655.22H400.417V657.44H395.997V659.14H406.657V657.44ZM401.417 665.32C399.757 665.32 398.857 664.48 398.857 663.64V663.2C398.857 662.36 399.737 661.52 401.417 661.52C403.077 661.52 403.977 662.36 403.977 663.2V663.64C403.977 664.48 403.097 665.32 401.417 665.32ZM415.36 666.62V673.78H426.6V666.62H415.36ZM422.96 662.34C420.18 662.64 418.94 662.72 414.84 662.72V658.14H421.44V656.44H412.9V664.42C418.66 664.42 420.34 664.34 423.16 663.98L422.96 662.34ZM417.32 668.3H424.64V672.1H417.32V668.3ZM429.22 659.5H426.6V655.36H424.64V665.72H426.6V661.22H429.22V659.5ZM432.563 670.8C432.563 672.74 434.643 674.32 438.123 674.32C441.603 674.32 443.683 672.74 443.683 670.8V670C443.683 668.06 441.603 666.48 438.123 666.48C434.643 666.48 432.563 668.06 432.563 670V670.8ZM439.963 662.72C437.183 663.02 435.943 663.1 431.843 663.1V658.22H438.443V656.52H429.903V664.8C435.663 664.8 437.343 664.72 440.163 664.36L439.963 662.72ZM441.743 670.68C441.743 671.66 440.343 672.7 438.123 672.7C435.903 672.7 434.503 671.66 434.503 670.68V670.12C434.503 669.14 435.903 668.1 438.123 668.1C440.343 668.1 441.743 669.14 441.743 670.12V670.68ZM446.223 659.62H443.603V655.36H441.643V666.24H443.603V661.34H446.223V659.62ZM393.254 691.54V682.36H391.294V691.54H393.254ZM393.774 700.92V699.28H383.774V697.48H393.254V692.46H381.734V694.1H391.314V695.88H381.834V700.92H393.774ZM383.814 687.88C383.914 688.16 384.434 688.66 384.954 689.1C385.894 689.9 386.874 690.6 387.894 691.34L389.034 689.9C387.894 689.14 386.714 688.3 385.774 687.46C384.874 686.64 384.734 686 384.734 684.76V682.82H382.734V684.84C382.734 686.26 382.414 687 381.434 687.92C380.714 688.58 379.414 689.6 378.134 690.56L379.274 691.96C380.374 691.18 381.614 690.18 382.454 689.44C383.194 688.78 383.714 688.2 383.794 687.88H383.814ZM409.537 683.4H397.457V690.94H409.537V683.4ZM404.497 700.8V694.74H411.957V693.06H395.037V694.74H402.497V700.8H404.497ZM399.417 685.06H407.577V689.28H399.417V685.06ZM420.52 689.32C420.72 689.66 421.38 690.26 422.7 691.1C424.04 691.94 425.1 692.54 426.8 693.44L427.78 691.86C426.1 691 425.12 690.48 423.58 689.5C421.98 688.48 421.5 687.62 421.5 686.12V685.64H426.86V683.92H414.14V685.64H419.5V686.12C419.5 687.64 418.94 688.54 417.4 689.54C416.12 690.36 414.94 691 413.22 691.88L414.2 693.46C415.7 692.68 416.92 692 418.28 691.14C419.6 690.3 420.28 689.68 420.5 689.32H420.52ZM421.5 696.66V692.72H419.5V696.66H412.04V698.34H428.96V696.66H421.5ZM435.123 689C435.263 689.3 435.663 689.68 436.263 690.18C437.223 690.98 438.123 691.66 439.163 692.38L440.283 690.94C439.103 690.16 438.023 689.38 437.083 688.52C436.203 687.72 436.043 687.04 436.043 685.76V685.14H439.743V683.44H430.123V685.14H434.043V685.84C434.043 687.3 433.703 688.06 432.723 689.02C432.003 689.72 430.783 690.64 429.503 691.54L430.663 692.96C431.783 692.18 432.903 691.3 433.763 690.56C434.403 690.02 434.983 689.34 435.103 689H435.123ZM432.183 695.74H442.343V700.98H444.323V694.04H432.183V695.74ZM444.323 693.08V682.36H442.363V693.08H444.323Z" fill="white"/>
<rect x="589" y="637" width="233" height="81" rx="40.5" fill="#4A89DB"/>
<path d="M660.191 665.72C660.351 666.12 660.851 666.68 661.411 667.28C662.171 668.1 663.011 668.94 664.371 670.18L665.671 668.84C664.491 667.8 663.651 667.02 662.791 666.08C661.371 664.54 661.151 663.94 661.151 662.36V659.74H665.011V658.02H655.191V659.74H659.151V662.36C659.151 663.84 658.931 664.6 657.611 666.06C656.711 667.06 655.731 668.04 654.531 669.12L655.831 670.46C657.171 669.22 658.171 668.2 658.991 667.3C659.631 666.6 659.991 666.16 660.171 665.72H660.191ZM669.491 674.8V656.36H667.511V674.8H669.491ZM679.214 669.9V657.96H677.294V662.24H673.734V657.96H671.814V669.9H679.214ZM687.094 656.36H685.154V663.1H683.054V656.74H681.114V673.9H683.054V664.82H685.154V674.8H687.094V656.36ZM673.734 663.92H677.294V668.22H673.734V663.92ZM701.837 665.8C702.217 663.8 702.397 661.78 702.397 659.86V657.5H690.157V659.24H700.417V660.32C700.417 662.1 700.257 663.84 699.837 665.8H688.037V667.48H695.497V674.8H697.497V667.48H704.957V665.8H701.837ZM713.52 663.32C713.72 663.66 714.38 664.26 715.7 665.1C717.04 665.94 718.1 666.54 719.8 667.44L720.78 665.86C719.1 665 718.12 664.48 716.58 663.5C714.98 662.48 714.5 661.62 714.5 660.12V659.64H719.86V657.92H707.14V659.64H712.5V660.12C712.5 661.64 711.94 662.54 710.4 663.54C709.12 664.36 707.94 665 706.22 665.88L707.2 667.46C708.7 666.68 709.92 666 711.28 665.14C712.6 664.3 713.28 663.68 713.5 663.32H713.52ZM714.5 670.66V666.72H712.5V670.66H705.04V672.34H721.96V670.66H714.5ZM725.363 667.62V674.78H736.603V667.62H725.363ZM732.963 663.34C730.183 663.64 728.943 663.72 724.843 663.72V659.14H731.443V657.44H722.903V665.42C728.663 665.42 730.343 665.34 733.163 664.98L732.963 663.34ZM727.323 669.3H734.643V673.1H727.323V669.3ZM739.223 660.5H736.603V656.36H734.643V666.72H736.603V662.22H739.223V660.5ZM742.566 671.8C742.566 673.74 744.646 675.32 748.126 675.32C751.606 675.32 753.686 673.74 753.686 671.8V671C753.686 669.06 751.606 667.48 748.126 667.48C744.646 667.48 742.566 669.06 742.566 671V671.8ZM749.966 663.72C747.186 664.02 745.946 664.1 741.846 664.1V659.22H748.446V657.52H739.906V665.8C745.666 665.8 747.346 665.72 750.166 665.36L749.966 663.72ZM751.746 671.68C751.746 672.66 750.346 673.7 748.126 673.7C745.906 673.7 744.506 672.66 744.506 671.68V671.12C744.506 670.14 745.906 669.1 748.126 669.1C750.346 669.1 751.746 670.14 751.746 671.12V671.68ZM756.226 660.62H753.606V656.36H751.646V667.24H753.606V662.34H756.226V660.62ZM686.254 692.54V683.36H684.294V692.54H686.254ZM686.774 701.92V700.28H676.774V698.48H686.254V693.46H674.734V695.1H684.314V696.88H674.834V701.92H686.774ZM676.814 688.88C676.914 689.16 677.434 689.66 677.954 690.1C678.894 690.9 679.874 691.6 680.894 692.34L682.034 690.9C680.894 690.14 679.714 689.3 678.774 688.46C677.874 687.64 677.734 687 677.734 685.76V683.82H675.734V685.84C675.734 687.26 675.414 688 674.434 688.92C673.714 689.58 672.414 690.6 671.134 691.56L672.274 692.96C673.374 692.18 674.614 691.18 675.454 690.44C676.194 689.78 676.714 689.2 676.794 688.88H676.814ZM702.537 684.4H690.457V691.94H702.537V684.4ZM697.497 701.8V695.74H704.957V694.06H688.037V695.74H695.497V701.8H697.497ZM692.417 686.06H700.577V690.28H692.417V686.06ZM713.52 690.32C713.72 690.66 714.38 691.26 715.7 692.1C717.04 692.94 718.1 693.54 719.8 694.44L720.78 692.86C719.1 692 718.12 691.48 716.58 690.5C714.98 689.48 714.5 688.62 714.5 687.12V686.64H719.86V684.92H707.14V686.64H712.5V687.12C712.5 688.64 711.94 689.54 710.4 690.54C709.12 691.36 707.94 692 706.22 692.88L707.2 694.46C708.7 693.68 709.92 693 711.28 692.14C712.6 691.3 713.28 690.68 713.5 690.32H713.52ZM714.5 697.66V693.72H712.5V697.66H705.04V699.34H721.96V697.66H714.5ZM728.123 690C728.263 690.3 728.663 690.68 729.263 691.18C730.223 691.98 731.123 692.66 732.163 693.38L733.283 691.94C732.103 691.16 731.023 690.38 730.083 689.52C729.203 688.72 729.043 688.04 729.043 686.76V686.14H732.743V684.44H723.123V686.14H727.043V686.84C727.043 688.3 726.703 689.06 725.723 690.02C725.003 690.72 723.783 691.64 722.503 692.54L723.663 693.96C724.783 693.18 725.903 692.3 726.763 691.56C727.403 691.02 727.983 690.34 728.103 690H728.123ZM725.183 696.74H735.343V701.98H737.323V695.04H725.183V696.74ZM737.323 694.08V683.36H735.363V694.08H737.323Z" fill="white"/>
</svg>
