<svg width="822" height="718" viewBox="0 0 822 718" fill="none" xmlns="http://www.w3.org/2000/svg">
<path d="M119 64L119 652" stroke="#AAAAAA"/>
<path d="M338 278L119 278" stroke="#AAAAAA"/>
<path d="M327 594H675C691.568 594 705 607.431 705 624V711" stroke="#AAAAAA"/>
<path d="M119 594H382C398.568 594 412 607.431 412 624V711" stroke="#AAAAAA"/>
<rect x="3.49988" y="0.5" width="234" height="82" rx="41" fill="white" stroke="#333333"/>
<path d="M34.6047 47.94C33.3647 47.94 31.6047 47.24 30.5247 46.42L29.5247 48.04C30.7247 49 32.5047 49.74 34.5447 49.74C37.5047 49.74 39.6847 48.38 39.6847 45.74V45.38C39.6847 43.38 38.5847 42.12 35.0247 41.32C32.8847 40.84 31.7047 40.36 31.7047 39.04V38.72C31.7047 37.58 32.8847 36.66 34.6847 36.66C36.0047 36.66 37.0647 36.96 38.1247 37.68L39.0647 36.14C37.8447 35.32 36.4247 34.88 34.6647 34.88C31.3447 34.88 29.7247 36.78 29.7247 38.74V39.1C29.7247 41.7 31.8047 42.54 34.5247 43.12C36.8647 43.62 37.6847 44.26 37.6847 45.52V45.84C37.6847 46.98 36.6447 47.94 34.6047 47.94ZM50.0689 42.28C50.0689 39.64 48.3489 38.38 46.2289 38.38C44.7489 38.38 43.6489 38.92 42.9889 39.9V34.4H41.0489V49.52H42.9889V42.74C42.9889 41.02 44.4289 40.1 45.7489 40.1C47.3689 40.1 48.1289 40.88 48.1289 42.72V49.52H50.0689V42.28ZM54.8616 49.68C55.8216 49.68 56.4616 49.5 57.0416 49.18C57.4616 48.94 57.8616 48.6 58.0616 48.2H58.0816V49.52H59.9416V41.86C59.9416 39.66 58.2216 38.38 55.7816 38.38C54.0216 38.38 52.7216 39.02 51.6616 39.76L52.6216 41.2C53.6416 40.54 54.4816 40.1 55.7616 40.1C57.3616 40.1 58.0216 40.8 58.0216 42.26V42.9H55.2416C52.4416 42.9 51.2616 44.2 51.2616 46.06V46.6C51.2616 48.52 52.6616 49.68 54.8616 49.68ZM58.0216 45.62C58.0216 46.44 57.8016 46.92 57.2816 47.32C56.7016 47.78 56.0216 48 55.0616 48C54.0216 48 53.1616 47.54 53.1616 46.48V46.2C53.1616 45.16 53.7616 44.54 55.2816 44.54H58.0216V45.62ZM68.3139 38.6C67.8739 38.46 67.3939 38.38 66.8939 38.38C65.2939 38.38 64.3139 39.1 63.6739 40.32H63.6539V38.58H61.7739V49.52H63.7139V43.14C63.7139 41.42 64.9539 40.22 66.3939 40.22C66.9139 40.22 67.3539 40.32 67.7339 40.48L68.3139 38.6ZM73.0538 40.04C74.7138 40.04 75.7538 41.12 75.7538 42.8V43.16H70.2738V42.88C70.2738 41.2 71.4338 40.04 73.0538 40.04ZM76.5538 47.02C75.6138 47.62 74.6538 48 73.2338 48C71.4938 48 70.2738 46.88 70.2738 44.82V44.74H77.6338V43.28C77.6338 40.16 75.8538 38.38 73.0538 38.38C70.3538 38.38 68.3538 40.08 68.3538 43.4V44.64C68.3538 48.18 70.4538 49.68 73.1538 49.68C75.1338 49.68 76.4138 49.14 77.3738 48.48L76.5538 47.02ZM87.8471 42.28C87.8471 39.64 86.1271 38.38 84.0071 38.38C82.5271 38.38 81.4271 38.92 80.7671 39.9V34.4H78.8271V49.52H80.7671V42.74C80.7671 41.02 82.2071 40.1 83.5271 40.1C85.1471 40.1 85.9071 40.88 85.9071 42.72V49.52H87.8471V42.28ZM93.9197 38.38C90.9197 38.38 89.0397 40.18 89.0397 43.36V44.7C89.0397 47.86 90.9197 49.68 93.9197 49.68C96.9197 49.68 98.7997 47.86 98.7997 44.7V43.36C98.7997 40.2 96.9197 38.38 93.9197 38.38ZM93.9197 47.98C92.1797 47.98 90.9997 46.86 90.9997 44.54V43.52C90.9997 41.2 92.1797 40.08 93.9197 40.08C95.6597 40.08 96.8397 41.2 96.8397 43.52V44.54C96.8397 46.86 95.6597 47.98 93.9197 47.98ZM100.158 34.4V49.52H102.098V34.4H100.158ZM110.956 48.16V49.52H112.816V34.4H110.876V39.72C110.436 39.08 109.476 38.38 107.816 38.38C105.256 38.38 103.476 40.12 103.476 43.08V45.02C103.476 47.98 104.976 49.68 107.736 49.68C109.096 49.68 110.316 49.26 110.916 48.16H110.956ZM110.896 45.22C110.896 46.92 109.596 47.98 108.016 47.98C106.396 47.98 105.396 46.78 105.396 44.7V43.36C105.396 41.3 106.376 40.08 108.016 40.08C109.696 40.08 110.896 41.26 110.896 42.4V45.22ZM118.87 40.04C120.53 40.04 121.57 41.12 121.57 42.8V43.16H116.09V42.88C116.09 41.2 117.25 40.04 118.87 40.04ZM122.37 47.02C121.43 47.62 120.47 48 119.05 48C117.31 48 116.09 46.88 116.09 44.82V44.74H123.45V43.28C123.45 40.16 121.67 38.38 118.87 38.38C116.17 38.38 114.17 40.08 114.17 43.4V44.64C114.17 48.18 116.27 49.68 118.97 49.68C120.95 49.68 122.23 49.14 123.19 48.48L122.37 47.02ZM131.183 38.6C130.743 38.46 130.263 38.38 129.763 38.38C128.163 38.38 127.183 39.1 126.543 40.32H126.523V38.58H124.643V49.52H126.583V43.14C126.583 41.42 127.823 40.22 129.263 40.22C129.783 40.22 130.223 40.32 130.603 40.48L131.183 38.6ZM135.183 48C133.863 48 132.743 47.5 131.763 46.84L130.863 48.36C131.903 49.16 133.443 49.68 135.263 49.68C137.803 49.68 139.423 48.34 139.423 46.62V46.36C139.423 44.34 138.163 43.54 135.503 43.04C133.803 42.72 133.143 42.4 133.143 41.54V41.36C133.143 40.6 133.803 40.04 135.423 40.04C136.523 40.04 137.583 40.38 138.303 40.92L139.163 39.46C138.083 38.7 136.763 38.38 135.283 38.38C132.443 38.38 131.203 39.82 131.203 41.34V41.58C131.203 43.5 132.543 44.28 134.963 44.78C137.023 45.2 137.463 45.5 137.463 46.42V46.58C137.463 47.46 136.623 48 135.183 48ZM159.364 42.34C159.364 39.82 157.984 38.38 155.744 38.38C154.024 38.38 153.044 39.14 152.344 40.2C151.784 39.04 150.664 38.38 149.204 38.38C147.684 38.38 146.704 39.1 146.284 40.06H146.264V38.58H144.344V49.52H146.284V42.6C146.284 40.88 147.624 40.14 148.824 40.14C150.204 40.14 150.884 41.06 150.884 42.96V49.52H152.824V42.7C152.824 40.92 154.144 40.14 155.364 40.14C156.744 40.14 157.424 41.06 157.424 42.96V49.52H159.364V42.34ZM165.273 40.04C166.933 40.04 167.973 41.12 167.973 42.8V43.16H162.493V42.88C162.493 41.2 163.653 40.04 165.273 40.04ZM168.773 47.02C167.833 47.62 166.873 48 165.453 48C163.713 48 162.493 46.88 162.493 44.82V44.74H169.853V43.28C169.853 40.16 168.073 38.38 165.273 38.38C162.573 38.38 160.573 40.08 160.573 43.4V44.64C160.573 48.18 162.673 49.68 165.373 49.68C167.353 49.68 168.633 49.14 169.593 48.48L168.773 47.02ZM175.186 40.04C176.846 40.04 177.886 41.12 177.886 42.8V43.16H172.406V42.88C172.406 41.2 173.566 40.04 175.186 40.04ZM178.686 47.02C177.746 47.62 176.786 48 175.366 48C173.626 48 172.406 46.88 172.406 44.82V44.74H179.766V43.28C179.766 40.16 177.986 38.38 175.186 38.38C172.486 38.38 170.486 40.08 170.486 43.4V44.64C170.486 48.18 172.586 49.68 175.286 49.68C177.266 49.68 178.546 49.14 179.506 48.48L178.686 47.02ZM181.639 46.46C181.639 48.66 182.599 49.68 184.679 49.68C185.459 49.68 186.279 49.5 186.719 49.32L186.419 47.76C185.919 47.94 185.459 48.02 184.979 48.02C184.159 48.02 183.579 47.8 183.579 46.46V40.24H186.459V38.58H183.579V35.82H181.639V38.58H179.839V40.24H181.639V46.46ZM187.593 38.58V49.52H189.533V38.58H187.593ZM187.533 34.66V36.78H189.593V34.66H187.533ZM200.528 42.28C200.528 39.64 198.808 38.38 196.688 38.38C195.188 38.38 194.068 38.94 193.408 39.96H193.388V38.58H191.508V49.52H193.448V42.74C193.448 41.02 194.888 40.1 196.208 40.1C197.828 40.1 198.588 40.88 198.588 42.72V49.52H200.528V42.28ZM211.081 38.58H209.141V39.72C208.701 39.08 207.741 38.38 206.081 38.38C203.521 38.38 201.741 40.12 201.741 43.08V44.82C201.741 47.78 203.241 49.48 206.001 49.48C207.321 49.48 208.521 49.08 209.141 48.04V49.38C209.141 51.32 208.141 52.22 206.261 52.22C205.181 52.22 204.161 51.84 203.441 51.3L202.561 52.82C203.461 53.52 204.721 53.98 206.201 53.98C209.421 53.98 211.081 52.44 211.081 49.38V38.58ZM209.161 45.02C209.161 46.72 207.861 47.78 206.281 47.78C204.661 47.78 203.661 46.58 203.661 44.5V43.36C203.661 41.3 204.641 40.08 206.281 40.08C207.961 40.08 209.161 41.26 209.161 42.4V45.02Z" fill="#222222"/>
<rect x="3.49988" y="159.5" width="234" height="82" rx="41" fill="white" stroke="#333333"/>
<path d="M96.659 208.52H102.399C105.519 208.52 107.019 207.08 107.019 204.72V204.22C107.019 202.22 105.799 201.18 104.039 200.92C105.759 200.5 106.359 199.3 106.359 198.04V197.62C106.359 195.26 104.839 194.1 101.779 194.1H96.659V208.52ZM98.639 201.8H101.219C104.099 201.8 104.979 202.48 104.979 204.24V204.68C104.979 206.38 103.919 206.8 101.659 206.8H98.639V201.8ZM101.059 195.8C103.319 195.8 104.339 195.96 104.339 197.66V198.02C104.339 199.82 103.199 200.18 101.199 200.18H98.639V195.8H101.059ZM112.394 197.38C109.394 197.38 107.514 199.18 107.514 202.36V203.7C107.514 206.86 109.394 208.68 112.394 208.68C115.394 208.68 117.274 206.86 117.274 203.7V202.36C117.274 199.2 115.394 197.38 112.394 197.38ZM112.394 206.98C110.654 206.98 109.474 205.86 109.474 203.54V202.52C109.474 200.2 110.654 199.08 112.394 199.08C114.134 199.08 115.314 200.2 115.314 202.52V203.54C115.314 205.86 114.134 206.98 112.394 206.98ZM121.574 208.68C122.534 208.68 123.174 208.5 123.754 208.18C124.174 207.94 124.574 207.6 124.774 207.2H124.794V208.52H126.654V200.86C126.654 198.66 124.934 197.38 122.494 197.38C120.734 197.38 119.434 198.02 118.374 198.76L119.334 200.2C120.354 199.54 121.194 199.1 122.474 199.1C124.074 199.1 124.734 199.8 124.734 201.26V201.9H121.954C119.154 201.9 117.974 203.2 117.974 205.06V205.6C117.974 207.52 119.374 208.68 121.574 208.68ZM124.734 204.62C124.734 205.44 124.514 205.92 123.994 206.32C123.414 206.78 122.734 207 121.774 207C120.734 207 119.874 206.54 119.874 205.48V205.2C119.874 204.16 120.474 203.54 121.994 203.54H124.734V204.62ZM135.027 197.6C134.587 197.46 134.107 197.38 133.607 197.38C132.007 197.38 131.027 198.1 130.387 199.32H130.367V197.58H128.487V208.52H130.427V202.14C130.427 200.42 131.667 199.22 133.107 199.22C133.627 199.22 134.067 199.32 134.447 199.48L135.027 197.6ZM142.567 207.16V208.52H144.427V193.4H142.487V198.72C142.047 198.08 141.087 197.38 139.427 197.38C136.867 197.38 135.087 199.12 135.087 202.08V204.02C135.087 206.98 136.587 208.68 139.347 208.68C140.707 208.68 141.927 208.26 142.527 207.16H142.567ZM142.507 204.22C142.507 205.92 141.207 206.98 139.627 206.98C138.007 206.98 137.007 205.78 137.007 203.7V202.36C137.007 200.3 137.987 199.08 139.627 199.08C141.307 199.08 142.507 200.26 142.507 201.4V204.22Z" fill="#222222"/>
<rect x="2.49988" y="317.5" width="234" height="82" rx="41" fill="white" stroke="#333333"/>
<path d="M70.9876 364.12H72.6676L76.1076 356.12C76.3676 355.52 76.5076 355.16 76.7876 354.12V366.52H78.6876V352.1H75.7876L71.8876 361.54L67.8876 352.1H64.9676V366.52H66.8476V354.12C67.1676 355.1 67.3476 355.52 67.5876 356.12L70.9876 364.12ZM83.7198 366.68C84.6798 366.68 85.3198 366.5 85.8998 366.18C86.3198 365.94 86.7198 365.6 86.9198 365.2H86.9398V366.52H88.7998V358.86C88.7998 356.66 87.0798 355.38 84.6398 355.38C82.8798 355.38 81.5798 356.02 80.5198 356.76L81.4798 358.2C82.4998 357.54 83.3398 357.1 84.6198 357.1C86.2198 357.1 86.8798 357.8 86.8798 359.26V359.9H84.0998C81.2998 359.9 80.1198 361.2 80.1198 363.06V363.6C80.1198 365.52 81.5198 366.68 83.7198 366.68ZM86.8798 362.62C86.8798 363.44 86.6598 363.92 86.1398 364.32C85.5598 364.78 84.8798 365 83.9198 365C82.8798 365 82.0198 364.54 82.0198 363.48V363.2C82.0198 362.16 82.6198 361.54 84.1398 361.54H86.8798V362.62ZM99.6521 359.28C99.6521 356.64 97.9321 355.38 95.8121 355.38C94.3121 355.38 93.1921 355.94 92.5321 356.96H92.5121V355.58H90.6321V366.52H92.5721V359.74C92.5721 358.02 94.0121 357.1 95.3321 357.1C96.9521 357.1 97.7121 357.88 97.7121 359.72V366.52H99.6521V359.28ZM104.445 366.68C105.405 366.68 106.045 366.5 106.625 366.18C107.045 365.94 107.445 365.6 107.645 365.2H107.665V366.52H109.525V358.86C109.525 356.66 107.805 355.38 105.365 355.38C103.605 355.38 102.305 356.02 101.245 356.76L102.205 358.2C103.225 357.54 104.065 357.1 105.345 357.1C106.945 357.1 107.605 357.8 107.605 359.26V359.9H104.825C102.025 359.9 100.845 361.2 100.845 363.06V363.6C100.845 365.52 102.245 366.68 104.445 366.68ZM107.605 362.62C107.605 363.44 107.385 363.92 106.865 364.32C106.285 364.78 105.605 365 104.645 365C103.605 365 102.745 364.54 102.745 363.48V363.2C102.745 362.16 103.345 361.54 104.865 361.54H107.605V362.62ZM120.157 355.58H118.217V356.72C117.777 356.08 116.817 355.38 115.157 355.38C112.597 355.38 110.817 357.12 110.817 360.08V361.82C110.817 364.78 112.317 366.48 115.077 366.48C116.397 366.48 117.597 366.08 118.217 365.04V366.38C118.217 368.32 117.217 369.22 115.337 369.22C114.257 369.22 113.237 368.84 112.517 368.3L111.637 369.82C112.537 370.52 113.797 370.98 115.277 370.98C118.497 370.98 120.157 369.44 120.157 366.38V355.58ZM118.237 362.02C118.237 363.72 116.937 364.78 115.357 364.78C113.737 364.78 112.737 363.58 112.737 361.5V360.36C112.737 358.3 113.717 357.08 115.357 357.08C117.037 357.08 118.237 358.26 118.237 359.4V362.02ZM126.211 357.04C127.871 357.04 128.911 358.12 128.911 359.8V360.16H123.431V359.88C123.431 358.2 124.591 357.04 126.211 357.04ZM129.711 364.02C128.771 364.62 127.811 365 126.391 365C124.651 365 123.431 363.88 123.431 361.82V361.74H130.791V360.28C130.791 357.16 129.011 355.38 126.211 355.38C123.511 355.38 121.511 357.08 121.511 360.4V361.64C121.511 365.18 123.611 366.68 126.311 366.68C128.291 366.68 129.571 366.14 130.531 365.48L129.711 364.02ZM147.004 359.34C147.004 356.82 145.624 355.38 143.384 355.38C141.664 355.38 140.684 356.14 139.984 357.2C139.424 356.04 138.304 355.38 136.844 355.38C135.324 355.38 134.344 356.1 133.924 357.06H133.904V355.58H131.984V366.52H133.924V359.6C133.924 357.88 135.264 357.14 136.464 357.14C137.844 357.14 138.524 358.06 138.524 359.96V366.52H140.464V359.7C140.464 357.92 141.784 357.14 143.004 357.14C144.384 357.14 145.064 358.06 145.064 359.96V366.52H147.004V359.34ZM152.913 357.04C154.573 357.04 155.613 358.12 155.613 359.8V360.16H150.133V359.88C150.133 358.2 151.293 357.04 152.913 357.04ZM156.413 364.02C155.473 364.62 154.513 365 153.093 365C151.353 365 150.133 363.88 150.133 361.82V361.74H157.493V360.28C157.493 357.16 155.713 355.38 152.913 355.38C150.213 355.38 148.213 357.08 148.213 360.4V361.64C148.213 365.18 150.313 366.68 153.013 366.68C154.993 366.68 156.273 366.14 157.233 365.48L156.413 364.02ZM167.706 359.28C167.706 356.64 165.986 355.38 163.866 355.38C162.366 355.38 161.246 355.94 160.586 356.96H160.566V355.58H158.686V366.52H160.626V359.74C160.626 358.02 162.066 357.1 163.386 357.1C165.006 357.1 165.766 357.88 165.766 359.72V366.52H167.706V359.28ZM170.139 363.46C170.139 365.66 171.099 366.68 173.179 366.68C173.959 366.68 174.779 366.5 175.219 366.32L174.919 364.76C174.419 364.94 173.959 365.02 173.479 365.02C172.659 365.02 172.079 364.8 172.079 363.46V357.24H174.959V355.58H172.079V352.82H170.139V355.58H168.339V357.24H170.139V363.46Z" fill="#222222"/>
<rect x="310.5" y="236.5" width="236" height="84" rx="42" fill="white" stroke="#33B9A5" stroke-width="3"/>
<path d="M363.813 272.1V286.52H372.933V284.82H365.793V279.98H372.373V278.28H365.793V273.8H372.793V272.1H363.813ZM379.166 284.94C377.926 284.94 376.166 284.24 375.086 283.42L374.086 285.04C375.286 286 377.066 286.74 379.106 286.74C382.066 286.74 384.246 285.38 384.246 282.74V282.38C384.246 280.38 383.146 279.12 379.586 278.32C377.446 277.84 376.266 277.36 376.266 276.04V275.72C376.266 274.58 377.446 273.66 379.246 273.66C380.566 273.66 381.626 273.96 382.686 274.68L383.626 273.14C382.406 272.32 380.986 271.88 379.226 271.88C375.906 271.88 374.286 273.78 374.286 275.74V276.1C374.286 278.7 376.366 279.54 379.086 280.12C381.426 280.62 382.246 281.26 382.246 282.52V282.84C382.246 283.98 381.206 284.94 379.166 284.94ZM396.31 278.6H391.13V280.3H394.33V284.36C393.57 284.74 392.55 284.94 391.47 284.94C388.89 284.94 387.23 283.48 387.23 280.14V278.48C387.23 275.14 388.75 273.68 391.25 273.68C392.61 273.68 393.75 274 395.01 275L396.03 273.4C394.69 272.34 393.11 271.88 391.25 271.88C387.59 271.88 385.25 274.02 385.25 278.22V280.4C385.25 284.64 387.59 286.74 391.41 286.74C393.21 286.74 395.05 286.32 396.31 285.44V278.6ZM411.068 283.38C409.868 284.56 408.428 284.9 407.048 284.9C404.868 284.9 403.268 283.44 403.268 280.14V278.48C403.268 275.18 404.868 273.72 407.048 273.72C408.348 273.72 409.488 273.98 410.788 275.04L411.808 273.42C410.468 272.36 409.028 271.88 407.048 271.88C403.628 271.88 401.268 274.02 401.268 278.22V280.4C401.268 284.64 403.608 286.74 407.048 286.74C408.988 286.74 410.708 286.28 412.148 284.9L411.068 283.38ZM417.424 275.38C414.424 275.38 412.544 277.18 412.544 280.36V281.7C412.544 284.86 414.424 286.68 417.424 286.68C420.424 286.68 422.304 284.86 422.304 281.7V280.36C422.304 277.2 420.424 275.38 417.424 275.38ZM417.424 284.98C415.684 284.98 414.504 283.86 414.504 281.54V280.52C414.504 278.2 415.684 277.08 417.424 277.08C419.164 277.08 420.344 278.2 420.344 280.52V281.54C420.344 283.86 419.164 284.98 417.424 284.98ZM438.681 279.34C438.681 276.82 437.301 275.38 435.061 275.38C433.341 275.38 432.361 276.14 431.661 277.2C431.101 276.04 429.981 275.38 428.521 275.38C427.001 275.38 426.021 276.1 425.601 277.06H425.581V275.58H423.661V286.52H425.601V279.6C425.601 277.88 426.941 277.14 428.141 277.14C429.521 277.14 430.201 278.06 430.201 279.96V286.52H432.141V279.7C432.141 277.92 433.461 277.14 434.681 277.14C436.061 277.14 436.741 278.06 436.741 279.96V286.52H438.681V279.34ZM455.47 279.34C455.47 276.82 454.09 275.38 451.85 275.38C450.13 275.38 449.15 276.14 448.45 277.2C447.89 276.04 446.77 275.38 445.31 275.38C443.79 275.38 442.81 276.1 442.39 277.06H442.37V275.58H440.45V286.52H442.39V279.6C442.39 277.88 443.73 277.14 444.93 277.14C446.31 277.14 446.99 278.06 446.99 279.96V286.52H448.93V279.7C448.93 277.92 450.25 277.14 451.47 277.14C452.85 277.14 453.53 278.06 453.53 279.96V286.52H455.47V279.34ZM457.298 275.58V286.52H459.238V275.58H457.298ZM457.238 271.66V273.78H459.298V271.66H457.238ZM461.894 283.46C461.894 285.66 462.854 286.68 464.934 286.68C465.714 286.68 466.534 286.5 466.974 286.32L466.674 284.76C466.174 284.94 465.714 285.02 465.234 285.02C464.414 285.02 463.834 284.8 463.834 283.46V277.24H466.714V275.58H463.834V272.82H461.894V275.58H460.094V277.24H461.894V283.46ZM468.467 283.46C468.467 285.66 469.427 286.68 471.507 286.68C472.287 286.68 473.107 286.5 473.547 286.32L473.247 284.76C472.747 284.94 472.287 285.02 471.807 285.02C470.987 285.02 470.407 284.8 470.407 283.46V277.24H473.287V275.58H470.407V272.82H468.467V275.58H466.667V277.24H468.467V283.46ZM478.501 277.04C480.161 277.04 481.201 278.12 481.201 279.8V280.16H475.721V279.88C475.721 278.2 476.881 277.04 478.501 277.04ZM482.001 284.02C481.061 284.62 480.101 285 478.681 285C476.941 285 475.721 283.88 475.721 281.82V281.74H483.081V280.28C483.081 277.16 481.301 275.38 478.501 275.38C475.801 275.38 473.801 277.08 473.801 280.4V281.64C473.801 285.18 475.901 286.68 478.601 286.68C480.581 286.68 481.861 286.14 482.821 285.48L482.001 284.02ZM488.414 277.04C490.074 277.04 491.114 278.12 491.114 279.8V280.16H485.634V279.88C485.634 278.2 486.794 277.04 488.414 277.04ZM491.914 284.02C490.974 284.62 490.014 285 488.594 285C486.854 285 485.634 283.88 485.634 281.82V281.74H492.994V280.28C492.994 277.16 491.214 275.38 488.414 275.38C485.714 275.38 483.714 277.08 483.714 280.4V281.64C483.714 285.18 485.814 286.68 488.514 286.68C490.494 286.68 491.774 286.14 492.734 285.48L491.914 284.02Z" fill="#222222"/>
<rect x="1.49988" y="475.5" width="236" height="84" rx="42" fill="white" stroke="#33B9A5" stroke-width="3"/>
<path d="M46.02 498.1V512.52H55.14V510.82H48V505.98H54.58V504.28H48V499.8H55V498.1H46.02ZM61.3731 510.94C60.1331 510.94 58.3731 510.24 57.2931 509.42L56.2931 511.04C57.4931 512 59.2731 512.74 61.3131 512.74C64.2731 512.74 66.4531 511.38 66.4531 508.74V508.38C66.4531 506.38 65.3531 505.12 61.7931 504.32C59.6531 503.84 58.4731 503.36 58.4731 502.04V501.72C58.4731 500.58 59.6531 499.66 61.4531 499.66C62.7731 499.66 63.8331 499.96 64.8931 500.68L65.8331 499.14C64.6131 498.32 63.1931 497.88 61.4331 497.88C58.1131 497.88 56.4931 499.78 56.4931 501.74V502.1C56.4931 504.7 58.5731 505.54 61.2931 506.12C63.6331 506.62 64.4531 507.26 64.4531 508.52V508.84C64.4531 509.98 63.4131 510.94 61.3731 510.94ZM78.5173 504.6H73.3373V506.3H76.5373V510.36C75.7773 510.74 74.7573 510.94 73.6773 510.94C71.0973 510.94 69.4373 509.48 69.4373 506.14V504.48C69.4373 501.14 70.9573 499.68 73.4573 499.68C74.8173 499.68 75.9573 500 77.2173 501L78.2373 499.4C76.8973 498.34 75.3173 497.88 73.4573 497.88C69.7973 497.88 67.4573 500.02 67.4573 504.22V506.4C67.4573 510.64 69.7973 512.74 73.6173 512.74C75.4173 512.74 77.2573 512.32 78.5173 511.44V504.6ZM89.9353 510.12H91.6153L95.0553 502.12C95.3153 501.52 95.4553 501.16 95.7353 500.12V512.52H97.6353V498.1H94.7353L90.8353 507.54L86.8353 498.1H83.9153V512.52H85.7953V500.12C86.1153 501.1 86.2953 501.52 86.5353 502.12L89.9353 510.12ZM102.667 512.68C103.627 512.68 104.267 512.5 104.847 512.18C105.267 511.94 105.667 511.6 105.867 511.2H105.887V512.52H107.747V504.86C107.747 502.66 106.027 501.38 103.587 501.38C101.827 501.38 100.527 502.02 99.4675 502.76L100.427 504.2C101.447 503.54 102.287 503.1 103.567 503.1C105.167 503.1 105.827 503.8 105.827 505.26V505.9H103.047C100.247 505.9 99.0675 507.2 99.0675 509.06V509.6C99.0675 511.52 100.467 512.68 102.667 512.68ZM105.827 508.62C105.827 509.44 105.607 509.92 105.087 510.32C104.507 510.78 103.827 511 102.867 511C101.827 511 100.967 510.54 100.967 509.48V509.2C100.967 508.16 101.567 507.54 103.087 507.54H105.827V508.62ZM118.6 505.28C118.6 502.64 116.88 501.38 114.76 501.38C113.26 501.38 112.14 501.94 111.48 502.96H111.46V501.58H109.58V512.52H111.52V505.74C111.52 504.02 112.96 503.1 114.28 503.1C115.9 503.1 116.66 503.88 116.66 505.72V512.52H118.6V505.28ZM123.392 512.68C124.352 512.68 124.992 512.5 125.572 512.18C125.992 511.94 126.392 511.6 126.592 511.2H126.612V512.52H128.472V504.86C128.472 502.66 126.752 501.38 124.312 501.38C122.552 501.38 121.252 502.02 120.192 502.76L121.152 504.2C122.172 503.54 123.012 503.1 124.292 503.1C125.892 503.1 126.552 503.8 126.552 505.26V505.9H123.772C120.972 505.9 119.792 507.2 119.792 509.06V509.6C119.792 511.52 121.192 512.68 123.392 512.68ZM126.552 508.62C126.552 509.44 126.332 509.92 125.812 510.32C125.232 510.78 124.552 511 123.592 511C122.552 511 121.692 510.54 121.692 509.48V509.2C121.692 508.16 122.292 507.54 123.812 507.54H126.552V508.62ZM139.105 501.58H137.165V502.72C136.725 502.08 135.765 501.38 134.105 501.38C131.545 501.38 129.765 503.12 129.765 506.08V507.82C129.765 510.78 131.265 512.48 134.025 512.48C135.345 512.48 136.545 512.08 137.165 511.04V512.38C137.165 514.32 136.165 515.22 134.285 515.22C133.205 515.22 132.185 514.84 131.465 514.3L130.585 515.82C131.485 516.52 132.745 516.98 134.225 516.98C137.445 516.98 139.105 515.44 139.105 512.38V501.58ZM137.185 508.02C137.185 509.72 135.885 510.78 134.305 510.78C132.685 510.78 131.685 509.58 131.685 507.5V506.36C131.685 504.3 132.665 503.08 134.305 503.08C135.985 503.08 137.185 504.26 137.185 505.4V508.02ZM145.159 503.04C146.819 503.04 147.859 504.12 147.859 505.8V506.16H142.379V505.88C142.379 504.2 143.539 503.04 145.159 503.04ZM148.659 510.02C147.719 510.62 146.759 511 145.339 511C143.599 511 142.379 509.88 142.379 507.82V507.74H149.739V506.28C149.739 503.16 147.959 501.38 145.159 501.38C142.459 501.38 140.459 503.08 140.459 506.4V507.64C140.459 511.18 142.559 512.68 145.259 512.68C147.239 512.68 148.519 512.14 149.479 511.48L148.659 510.02ZM165.952 505.34C165.952 502.82 164.572 501.38 162.332 501.38C160.612 501.38 159.632 502.14 158.932 503.2C158.372 502.04 157.252 501.38 155.792 501.38C154.272 501.38 153.292 502.1 152.872 503.06H152.852V501.58H150.932V512.52H152.872V505.6C152.872 503.88 154.212 503.14 155.412 503.14C156.792 503.14 157.472 504.06 157.472 505.96V512.52H159.412V505.7C159.412 503.92 160.732 503.14 161.952 503.14C163.332 503.14 164.012 504.06 164.012 505.96V512.52H165.952V505.34ZM171.86 503.04C173.52 503.04 174.56 504.12 174.56 505.8V506.16H169.08V505.88C169.08 504.2 170.24 503.04 171.86 503.04ZM175.36 510.02C174.42 510.62 173.46 511 172.04 511C170.3 511 169.08 509.88 169.08 507.82V507.74H176.44V506.28C176.44 503.16 174.66 501.38 171.86 501.38C169.16 501.38 167.16 503.08 167.16 506.4V507.64C167.16 511.18 169.26 512.68 171.96 512.68C173.94 512.68 175.22 512.14 176.18 511.48L175.36 510.02ZM186.654 505.28C186.654 502.64 184.934 501.38 182.814 501.38C181.314 501.38 180.194 501.94 179.534 502.96H179.514V501.58H177.634V512.52H179.574V505.74C179.574 504.02 181.014 503.1 182.334 503.1C183.954 503.1 184.714 503.88 184.714 505.72V512.52H186.654V505.28ZM189.086 509.46C189.086 511.66 190.046 512.68 192.126 512.68C192.906 512.68 193.726 512.5 194.166 512.32L193.866 510.76C193.366 510.94 192.906 511.02 192.426 511.02C191.606 511.02 191.026 510.8 191.026 509.46V503.24H193.906V501.58H191.026V498.82H189.086V501.58H187.286V503.24H189.086V509.46ZM113.868 536.38C112.668 537.56 111.228 537.9 109.848 537.9C107.668 537.9 106.068 536.44 106.068 533.14V531.48C106.068 528.18 107.668 526.72 109.848 526.72C111.148 526.72 112.288 526.98 113.588 528.04L114.608 526.42C113.268 525.36 111.828 524.88 109.848 524.88C106.428 524.88 104.068 527.02 104.068 531.22V533.4C104.068 537.64 106.408 539.74 109.848 539.74C111.788 539.74 113.508 539.28 114.948 537.9L113.868 536.38ZM116.179 525.1V539.52H118.159V533.32H124.679V531.62H118.159V526.8H125.099V525.1H116.179ZM131.406 539.52V526.8H135.806V525.1H125.026V526.8H129.426V539.52H131.406Z" fill="#222222"/>
<rect x="2.99988" y="636" width="233" height="81" rx="40.5" fill="#4A89DB"/>
<path d="M66.9739 670.1V684.52H76.0939V682.82H68.9539V677.98H75.5339V676.28H68.9539V671.8H75.9539V670.1H66.9739ZM86.667 677.28C86.667 674.64 84.947 673.38 82.827 673.38C81.327 673.38 80.207 673.94 79.547 674.96H79.527V673.58H77.647V684.52H79.587V677.74C79.587 676.02 81.027 675.1 82.347 675.1C83.967 675.1 84.727 675.88 84.727 677.72V684.52H86.667V677.28ZM92.0396 682.7L89.1596 673.58H87.0596L90.7996 684.52H93.2796L96.9796 673.58H94.9396L92.0796 682.7H92.0396ZM97.5921 673.58V684.52H99.5321V673.58H97.5921ZM97.5321 669.66V671.78H99.5921V669.66H97.5321ZM108.048 673.6C107.608 673.46 107.128 673.38 106.628 673.38C105.028 673.38 104.048 674.1 103.408 675.32H103.388V673.58H101.508V684.52H103.448V678.14C103.448 676.42 104.688 675.22 106.128 675.22C106.648 675.22 107.088 675.32 107.468 675.48L108.048 673.6ZM112.968 673.38C109.968 673.38 108.088 675.18 108.088 678.36V679.7C108.088 682.86 109.968 684.68 112.968 684.68C115.968 684.68 117.848 682.86 117.848 679.7V678.36C117.848 675.2 115.968 673.38 112.968 673.38ZM112.968 682.98C111.228 682.98 110.048 681.86 110.048 679.54V678.52C110.048 676.2 111.228 675.08 112.968 675.08C114.708 675.08 115.888 676.2 115.888 678.52V679.54C115.888 681.86 114.708 682.98 112.968 682.98ZM128.226 677.28C128.226 674.64 126.506 673.38 124.386 673.38C122.886 673.38 121.766 673.94 121.106 674.96H121.086V673.58H119.206V684.52H121.146V677.74C121.146 676.02 122.586 675.1 123.906 675.1C125.526 675.1 126.286 675.88 126.286 677.72V684.52H128.226V677.28ZM144.998 677.34C144.998 674.82 143.618 673.38 141.378 673.38C139.658 673.38 138.678 674.14 137.978 675.2C137.418 674.04 136.298 673.38 134.838 673.38C133.318 673.38 132.338 674.1 131.918 675.06H131.898V673.58H129.978V684.52H131.918V677.6C131.918 675.88 133.258 675.14 134.458 675.14C135.838 675.14 136.518 676.06 136.518 677.96V684.52H138.458V677.7C138.458 675.92 139.778 675.14 140.998 675.14C142.378 675.14 143.058 676.06 143.058 677.96V684.52H144.998V677.34ZM150.907 675.04C152.567 675.04 153.607 676.12 153.607 677.8V678.16H148.127V677.88C148.127 676.2 149.287 675.04 150.907 675.04ZM154.407 682.02C153.467 682.62 152.507 683 151.087 683C149.347 683 148.127 681.88 148.127 679.82V679.74H155.487V678.28C155.487 675.16 153.707 673.38 150.907 673.38C148.207 673.38 146.207 675.08 146.207 678.4V679.64C146.207 683.18 148.307 684.68 151.007 684.68C152.987 684.68 154.267 684.14 155.227 683.48L154.407 682.02ZM165.7 677.28C165.7 674.64 163.98 673.38 161.86 673.38C160.36 673.38 159.24 673.94 158.58 674.96H158.56V673.58H156.68V684.52H158.62V677.74C158.62 676.02 160.06 675.1 161.38 675.1C163 675.1 163.76 675.88 163.76 677.72V684.52H165.7V677.28ZM168.132 681.46C168.132 683.66 169.092 684.68 171.172 684.68C171.952 684.68 172.772 684.5 173.212 684.32L172.912 682.76C172.412 682.94 171.952 683.02 171.472 683.02C170.652 683.02 170.072 682.8 170.072 681.46V675.24H172.952V673.58H170.072V670.82H168.132V673.58H166.332V675.24H168.132V681.46Z" fill="white"/>
<rect x="296" y="636" width="233" height="81" rx="40.5" fill="#4A89DB"/>
<path d="M387.484 682.94C386.244 682.94 384.484 682.24 383.404 681.42L382.404 683.04C383.604 684 385.384 684.74 387.424 684.74C390.384 684.74 392.564 683.38 392.564 680.74V680.38C392.564 678.38 391.464 677.12 387.904 676.32C385.764 675.84 384.584 675.36 384.584 674.04V673.72C384.584 672.58 385.764 671.66 387.564 671.66C388.884 671.66 389.944 671.96 391.004 672.68L391.944 671.14C390.724 670.32 389.304 669.88 387.544 669.88C384.224 669.88 382.604 671.78 382.604 673.74V674.1C382.604 676.7 384.684 677.54 387.404 678.12C389.744 678.62 390.564 679.26 390.564 680.52V680.84C390.564 681.98 389.524 682.94 387.484 682.94ZM398.249 673.38C395.249 673.38 393.369 675.18 393.369 678.36V679.7C393.369 682.86 395.249 684.68 398.249 684.68C401.249 684.68 403.129 682.86 403.129 679.7V678.36C403.129 675.2 401.249 673.38 398.249 673.38ZM398.249 682.98C396.509 682.98 395.329 681.86 395.329 679.54V678.52C395.329 676.2 396.509 675.08 398.249 675.08C399.989 675.08 401.169 676.2 401.169 678.52V679.54C401.169 681.86 399.989 682.98 398.249 682.98ZM408.646 673.38C405.786 673.38 403.926 675.16 403.926 678.3V679.68C403.926 682.82 405.646 684.68 408.666 684.68C410.666 684.68 411.946 684.06 412.706 683.42L411.766 681.94C410.986 682.52 410.126 682.94 408.686 682.94C407.246 682.94 405.886 682.02 405.886 679.66V678.28C405.886 676.04 407.206 675.1 408.646 675.1C409.706 675.1 410.486 675.3 411.506 676.04L412.426 674.58C411.526 673.9 410.446 673.38 408.646 673.38ZM413.522 673.58V684.52H415.462V673.58H413.522ZM413.462 669.66V671.78H415.522V669.66H413.462ZM421.578 675.04C423.238 675.04 424.278 676.12 424.278 677.8V678.16H418.798V677.88C418.798 676.2 419.958 675.04 421.578 675.04ZM425.078 682.02C424.138 682.62 423.178 683 421.758 683C420.018 683 418.798 681.88 418.798 679.82V679.74H426.158V678.28C426.158 675.16 424.378 673.38 421.578 673.38C418.878 673.38 416.878 675.08 416.878 678.4V679.64C416.878 683.18 418.978 684.68 421.678 684.68C423.658 684.68 424.938 684.14 425.898 683.48L425.078 682.02ZM428.031 681.46C428.031 683.66 428.991 684.68 431.071 684.68C431.851 684.68 432.671 684.5 433.111 684.32L432.811 682.76C432.311 682.94 431.851 683.02 431.371 683.02C430.551 683.02 429.971 682.8 429.971 681.46V675.24H432.851V673.58H429.971V670.82H428.031V673.58H426.231V675.24H428.031V681.46ZM437.565 682.32L434.665 673.58H432.565L436.545 684.68L435.125 688.42L436.885 689.04L442.565 673.58H440.525L437.645 682.32H437.565Z" fill="white"/>
<rect x="589" y="637" width="233" height="81" rx="40.5" fill="#4A89DB"/>
<path d="M667.593 677.6H662.413V679.3H665.613V683.36C664.853 683.74 663.833 683.94 662.753 683.94C660.173 683.94 658.513 682.48 658.513 679.14V677.48C658.513 674.14 660.033 672.68 662.533 672.68C663.893 672.68 665.033 673 666.293 674L667.313 672.4C665.973 671.34 664.393 670.88 662.533 670.88C658.873 670.88 656.533 673.02 656.533 677.22V679.4C656.533 683.64 658.873 685.74 662.693 685.74C664.493 685.74 666.333 685.32 667.593 684.44V677.6ZM673.431 674.38C670.431 674.38 668.551 676.18 668.551 679.36V680.7C668.551 683.86 670.431 685.68 673.431 685.68C676.431 685.68 678.311 683.86 678.311 680.7V679.36C678.311 676.2 676.431 674.38 673.431 674.38ZM673.431 683.98C671.691 683.98 670.511 682.86 670.511 680.54V679.52C670.511 677.2 671.691 676.08 673.431 676.08C675.171 676.08 676.351 677.2 676.351 679.52V680.54C676.351 682.86 675.171 683.98 673.431 683.98ZM683.192 683.7L680.312 674.58H678.212L681.952 685.52H684.432L688.132 674.58H686.092L683.232 683.7H683.192ZM692.726 676.04C694.386 676.04 695.426 677.12 695.426 678.8V679.16H689.946V678.88C689.946 677.2 691.106 676.04 692.726 676.04ZM696.226 683.02C695.286 683.62 694.326 684 692.906 684C691.166 684 689.946 682.88 689.946 680.82V680.74H697.306V679.28C697.306 676.16 695.526 674.38 692.726 674.38C690.026 674.38 688.026 676.08 688.026 679.4V680.64C688.026 684.18 690.126 685.68 692.826 685.68C694.806 685.68 696.086 685.14 697.046 684.48L696.226 683.02ZM705.04 674.6C704.6 674.46 704.12 674.38 703.62 674.38C702.02 674.38 701.04 675.1 700.4 676.32H700.38V674.58H698.5V685.52H700.44V679.14C700.44 677.42 701.68 676.22 703.12 676.22C703.64 676.22 704.08 676.32 704.46 676.48L705.04 674.6ZM714.66 678.28C714.66 675.64 712.94 674.38 710.82 674.38C709.32 674.38 708.2 674.94 707.54 675.96H707.52V674.58H705.64V685.52H707.58V678.74C707.58 677.02 709.02 676.1 710.34 676.1C711.96 676.1 712.72 676.88 712.72 678.72V685.52H714.66V678.28ZM719.452 685.68C720.412 685.68 721.052 685.5 721.632 685.18C722.052 684.94 722.452 684.6 722.652 684.2H722.672V685.52H724.532V677.86C724.532 675.66 722.812 674.38 720.372 674.38C718.612 674.38 717.312 675.02 716.252 675.76L717.212 677.2C718.232 676.54 719.072 676.1 720.352 676.1C721.952 676.1 722.612 676.8 722.612 678.26V678.9H719.832C717.032 678.9 715.852 680.2 715.852 682.06V682.6C715.852 684.52 717.252 685.68 719.452 685.68ZM722.612 681.62C722.612 682.44 722.392 682.92 721.872 683.32C721.292 683.78 720.612 684 719.652 684C718.612 684 717.752 683.54 717.752 682.48V682.2C717.752 681.16 718.352 680.54 719.872 680.54H722.612V681.62ZM735.385 678.28C735.385 675.64 733.665 674.38 731.545 674.38C730.045 674.38 728.925 674.94 728.265 675.96H728.245V674.58H726.365V685.52H728.305V678.74C728.305 677.02 729.745 676.1 731.065 676.1C732.685 676.1 733.445 676.88 733.445 678.72V685.52H735.385V678.28ZM741.297 674.38C738.437 674.38 736.577 676.16 736.577 679.3V680.68C736.577 683.82 738.297 685.68 741.317 685.68C743.317 685.68 744.597 685.06 745.357 684.42L744.417 682.94C743.637 683.52 742.777 683.94 741.337 683.94C739.897 683.94 738.537 683.02 738.537 680.66V679.28C738.537 677.04 739.857 676.1 741.297 676.1C742.357 676.1 743.137 676.3 744.157 677.04L745.077 675.58C744.177 674.9 743.097 674.38 741.297 674.38ZM750.253 676.04C751.913 676.04 752.953 677.12 752.953 678.8V679.16H747.473V678.88C747.473 677.2 748.633 676.04 750.253 676.04ZM753.753 683.02C752.813 683.62 751.853 684 750.433 684C748.693 684 747.473 682.88 747.473 680.82V680.74H754.833V679.28C754.833 676.16 753.053 674.38 750.253 674.38C747.553 674.38 745.553 676.08 745.553 679.4V680.64C745.553 684.18 747.653 685.68 750.353 685.68C752.333 685.68 753.613 685.14 754.573 684.48L753.753 683.02Z" fill="white"/>
<circle cx="119" cy="637" r="5" fill="#4A89DB"/>
<circle cx="412" cy="637" r="5" fill="#4A89DB"/>
<circle cx="705" cy="638" r="5" fill="#4A89DB"/>
<path fill-rule="evenodd" clip-rule="evenodd" d="M114 561C114.308 563.47 116.415 565.382 118.969 565.382C121.523 565.382 123.63 563.47 123.938 561H114Z" fill="#33B9A5"/>
<path fill-rule="evenodd" clip-rule="evenodd" d="M114 400C114.281 402.255 116.205 404 118.536 404C120.867 404 122.791 402.255 123.072 400H114Z" fill="#333333"/>
<path fill-rule="evenodd" clip-rule="evenodd" d="M114 242C114.308 244.47 116.415 246.382 118.969 246.382C121.523 246.382 123.63 244.47 123.938 242H114Z" fill="#333333"/>
<path fill-rule="evenodd" clip-rule="evenodd" d="M114 83C114.31 85.4857 116.43 87.4092 119 87.4092C121.57 87.4092 123.69 85.4857 124 83H114Z" fill="#333333"/>
<path fill-rule="evenodd" clip-rule="evenodd" d="M310 282.877C307.545 282.571 305.645 280.477 305.645 277.939C305.645 275.401 307.545 273.307 310 273.001L310 282.877Z" fill="#33B9A5"/>
</svg>
