<svg width="880" height="418" viewBox="0 0 880 418" fill="none" xmlns="http://www.w3.org/2000/svg">
<path d="M140.646 170.354C140.842 170.549 141.158 170.549 141.354 170.354L144.536 167.172C144.731 166.976 144.731 166.66 144.536 166.464C144.34 166.269 144.024 166.269 143.828 166.464L141 169.293L138.172 166.464C137.976 166.269 137.66 166.269 137.464 166.464C137.269 166.66 137.269 166.976 137.464 167.172L140.646 170.354ZM140.5 119L140.5 170H141.5L141.5 119H140.5Z" fill="#BBBBBB"/>
<path d="M342.646 236.354C342.842 236.549 343.158 236.549 343.354 236.354L346.536 233.172C346.731 232.976 346.731 232.66 346.536 232.464C346.34 232.269 346.024 232.269 345.828 232.464L343 235.293L340.172 232.464C339.976 232.269 339.66 232.269 339.464 232.464C339.269 232.66 339.269 232.976 339.464 233.172L342.646 236.354ZM342.5 218L342.5 236L343.5 236L343.5 218L342.5 218Z" fill="#BBBBBB"/>
<path d="M342.646 302.354C342.842 302.549 343.158 302.549 343.354 302.354L346.536 299.172C346.731 298.976 346.731 298.66 346.536 298.464C346.34 298.269 346.024 298.269 345.828 298.464L343 301.293L340.172 298.464C339.976 298.269 339.66 298.269 339.464 298.464C339.269 298.66 339.269 298.976 339.464 299.172L342.646 302.354ZM342.5 286L342.5 302L343.5 302L343.5 286L342.5 286Z" fill="#BBBBBB"/>
<path d="M342.646 368.354C342.842 368.549 343.158 368.549 343.354 368.354L346.536 365.172C346.731 364.976 346.731 364.66 346.536 364.464C346.34 364.269 346.024 364.269 345.828 364.464L343 367.293L340.172 364.464C339.976 364.269 339.66 364.269 339.464 364.464C339.269 364.66 339.269 364.976 339.464 365.172L342.646 368.354ZM342.5 352L342.5 368L343.5 368L343.5 352L342.5 352Z" fill="#BBBBBB"/>
<path d="M678.354 396.354C678.549 396.158 678.549 395.842 678.354 395.646L675.172 392.464C674.976 392.269 674.66 392.269 674.464 392.464C674.269 392.66 674.269 392.976 674.464 393.172L677.293 396L674.464 398.828C674.269 399.024 674.269 399.34 674.464 399.536C674.66 399.731 674.976 399.731 675.172 399.536L678.354 396.354ZM662 396.5L678 396.5L678 395.5L662 395.5L662 396.5Z" fill="#BBBBBB"/>
<path d="M248.354 198.354C248.549 198.158 248.549 197.842 248.354 197.646L245.172 194.464C244.976 194.269 244.66 194.269 244.464 194.464C244.269 194.66 244.269 194.976 244.464 195.172L247.293 198L244.464 200.828C244.269 201.024 244.269 201.34 244.464 201.536C244.66 201.731 244.976 201.731 245.172 201.536L248.354 198.354ZM196 198.5H248V197.5H196V198.5Z" fill="#BBBBBB"/>
<path d="M210.646 64.6464C210.451 64.8417 210.451 65.1583 210.646 65.3536L213.828 68.5355C214.024 68.7308 214.34 68.7308 214.536 68.5355C214.731 68.3403 214.731 68.0237 214.536 67.8284L211.707 65L214.536 62.1716C214.731 61.9763 214.731 61.6597 214.536 61.4645C214.34 61.2692 214.024 61.2692 213.828 61.4645L210.646 64.6464ZM409 64.5L211 64.5V65.5L409 65.5V64.5Z" fill="#BBBBBB"/>
<path d="M432 330L573 330" stroke="#BBBBBB"/>
<path d="M573 287V374" stroke="#BBBBBB"/>
<path d="M678.354 199.354C678.549 199.158 678.549 198.842 678.354 198.646L675.172 195.464C674.976 195.269 674.66 195.269 674.464 195.464C674.269 195.66 674.269 195.976 674.464 196.172L677.293 199L674.464 201.828C674.269 202.024 674.269 202.34 674.464 202.536C674.66 202.731 674.976 202.731 675.172 202.536L678.354 199.354ZM572.5 204V242H573.5V204H572.5ZM578 199.5H678V198.5H578V199.5ZM573.5 204C573.5 201.515 575.515 199.5 578 199.5V198.5C574.962 198.5 572.5 200.962 572.5 204H573.5Z" fill="#BBBBBB"/>
<path d="M515.646 65.3536C515.451 65.1583 515.451 64.8417 515.646 64.6464L518.828 61.4645C519.024 61.2692 519.34 61.2692 519.536 61.4645C519.731 61.6597 519.731 61.9763 519.536 62.1716L516.707 65L519.536 67.8284C519.731 68.0237 519.731 68.3403 519.536 68.5355C519.34 68.7308 519.024 68.7308 518.828 68.5355L515.646 65.3536ZM772.5 70V175H771.5V70H772.5ZM767 65.5L516 65.5V64.5L767 64.5V65.5ZM771.5 70C771.5 67.5147 769.485 65.5 767 65.5V64.5C770.038 64.5 772.5 66.9624 772.5 70H771.5Z" fill="#BBBBBB"/>
<path d="M70.4423 65.3536C70.6375 65.1583 70.6375 64.8417 70.4423 64.6465L67.2603 61.4645C67.065 61.2692 66.7485 61.2692 66.5532 61.4645C66.3579 61.6597 66.3579 61.9763 66.5532 62.1716L69.3816 65L66.5532 67.8284C66.3579 68.0237 66.3579 68.3403 66.5532 68.5356C66.7485 68.7308 67.065 68.7308 67.2603 68.5356L70.4423 65.3536ZM27 397.5L223 397.5V396.5L27 396.5V397.5ZM27 65.5L70.0887 65.5V64.5L27 64.5V65.5ZM22.5 392L22.5 70L21.5 70L21.5 392L22.5 392ZM27 396.5C24.5147 396.5 22.5 394.485 22.5 392L21.5 392C21.5 395.038 23.9624 397.5 27 397.5V396.5ZM27 64.5C23.9624 64.5 21.5 66.9625 21.5 70L22.5 70C22.5 67.5147 24.5147 65.5 27 65.5V64.5Z" fill="#BBBBBB"/>
<path d="M807.41 397L874 397C876.761 397 879 394.761 879 392V70C879 67.2386 876.761 65 874 65L767 65" stroke="#BBBBBB"/>
<circle cx="141" cy="65" r="64.5" fill="white" stroke="#33B9A5"/>
<path d="M116.583 68.215C118.98 68.215 120.901 68.164 122.55 67.977L122.431 66.617C121.7 66.702 120.952 66.753 120.238 66.787V59.562H121.87V58.185H112.724V59.562H114.356V66.838H112.554V68.215H116.583ZM125.287 72.38V56.706H123.604V72.38H125.287ZM116.005 66.838V59.562H118.589V66.838H117.059H116.005ZM135.387 71.615H137.036V63.982H138.719V72.38H140.368V56.706H138.719V62.52H137.036V57.029H135.387V71.615ZM130.661 61.534C128.587 61.534 127.193 62.962 127.193 64.577V65.393C127.193 67.008 128.587 68.436 130.661 68.436C132.735 68.436 134.129 67.008 134.129 65.393V64.577C134.129 62.962 132.735 61.534 130.661 61.534ZM134.384 59.341H131.426V57.148H129.777V59.341H126.632V60.752H134.384V59.341ZM130.661 67.059C129.386 67.059 128.706 66.107 128.706 65.308V64.662C128.706 63.863 129.386 62.911 130.661 62.911C131.936 62.911 132.616 63.863 132.616 64.662V65.308C132.616 66.107 131.936 67.059 130.661 67.059ZM146.202 62.35C146.321 62.605 146.661 62.928 147.171 63.353C147.987 64.033 148.752 64.611 149.636 65.223L150.588 63.999C149.585 63.336 148.667 62.673 147.868 61.942C147.12 61.262 146.984 60.684 146.984 59.596V59.069H150.129V57.624H141.952V59.069H145.284V59.664C145.284 60.905 144.995 61.551 144.162 62.367C143.55 62.962 142.513 63.744 141.425 64.509L142.411 65.716C143.363 65.053 144.315 64.305 145.046 63.676C145.59 63.217 146.083 62.639 146.185 62.35H146.202ZM143.703 68.079H152.339V72.533H154.022V66.634H143.703V68.079ZM154.022 65.818V56.706H152.356V65.818H154.022ZM160.655 62.877C163.052 62.877 164.514 61.602 164.514 60.208V59.664C164.514 58.27 163.052 56.995 160.655 56.995C158.258 56.995 156.796 58.27 156.796 59.664V60.208C156.796 61.602 158.258 62.877 160.655 62.877ZM168.577 68.844V56.706H166.911V66.039H163.596V67.45H166.911V68.844H168.577ZM159.992 68.028H158.309V72.227H168.9V70.782H159.992V68.028ZM161.318 67.399V65.104C162.967 65.036 164.446 64.934 165.891 64.781L165.772 63.37C162.049 63.676 159.533 63.761 155.776 63.744V65.206C157.17 65.206 158.462 65.189 159.652 65.155V67.399H161.318ZM160.655 61.466C159.21 61.466 158.394 60.769 158.394 60.106V59.766C158.394 59.103 159.21 58.423 160.655 58.423C162.1 58.423 162.916 59.103 162.916 59.766V60.106C162.916 60.769 162.1 61.466 160.655 61.466Z" fill="black"/>
<rect x="76.5" y="175.5" width="129" height="44" rx="9.5" fill="#F7FAFB" stroke="#CAE2EA"/>
<rect y="330" width="190" height="45" rx="10" transform="rotate(-90 0 330)" fill="#5082E6"/>
<rect x="253.5" y="175.5" width="178" height="44" rx="9.5" fill="#F7FAFB" stroke="#CAE2EA"/>
<rect x="683.5" y="175.5" width="178" height="44" rx="9.5" fill="#F7FAFB" stroke="#CAE2EA"/>
<rect x="683.5" y="373.5" width="178" height="44" rx="9.5" fill="#F7FAFB" stroke="#CAE2EA"/>
<rect x="253.5" y="241.5" width="178" height="44" rx="9.5" fill="#F7FAFB" stroke="#CAE2EA"/>
<rect x="253.5" y="307.5" width="178" height="44" rx="9.5" fill="#F7FAFB" stroke="#CAE2EA"/>
<rect x="223" y="373" width="240" height="45" rx="10" fill="#5082E6"/>
<rect x="483" y="373" width="179" height="45" rx="10" fill="#5082E6"/>
<rect x="483" y="241" width="179" height="45" rx="10" fill="#5082E6"/>
<rect x="409" y="42" width="179" height="45" rx="10" fill="#5082E6"/>
<path d="M96.112 202.082V203.119H110.392V202.082H102.759V196.115H101.535V202.082H96.112ZM107.655 200.093C108.063 197.9 108.25 195.928 108.25 193.072V191.236H97.914V192.29H107.009V193.701C107.009 195.979 106.788 197.849 106.397 199.94L107.655 200.093ZM110.565 197.305V198.325H117.11V199.991C114.798 200.127 112.877 200.96 112.877 202.609V203.068C112.877 204.836 115.155 205.737 117.705 205.737C120.255 205.737 122.533 204.836 122.533 203.068V202.626C122.533 200.977 120.595 200.127 118.3 199.991V198.325H124.845V197.305H110.565ZM117.688 194.092H117.705C117.943 194.398 118.266 194.687 119.558 195.18C120.357 195.486 121.53 195.877 123.23 196.37L123.638 195.418C121.989 194.959 120.714 194.551 119.932 194.245C118.504 193.684 118.3 193.276 118.3 192.426V192.188H123.026V191.168H118.3V189.553H117.093V191.168H112.384V192.188H117.093V192.426C117.093 193.276 116.838 193.701 115.41 194.262C114.611 194.568 113.285 194.993 111.738 195.435L112.163 196.404C113.846 195.894 115.019 195.52 115.835 195.197C117.076 194.721 117.501 194.398 117.688 194.092ZM117.705 204.717C115.886 204.717 114.033 204.207 114.033 203V202.677C114.033 201.521 115.886 200.977 117.705 200.977C119.524 200.977 121.377 201.487 121.377 202.694V203C121.377 204.207 119.524 204.717 117.705 204.717ZM137.053 189.774H135.846V205.312H137.053V196.642H139.654V195.571H137.053V189.774ZM127.737 197.798C126.938 198.699 126.003 199.6 124.881 200.586L125.68 201.419C126.683 200.535 127.805 199.396 128.4 198.75C128.91 198.189 129.556 197.39 129.607 197.169H129.624C129.709 197.39 130.202 197.951 130.712 198.495C131.392 199.226 132.344 200.161 133.415 201.181L134.197 200.365C132.922 199.209 131.919 198.189 131.239 197.407C130.321 196.353 130.219 195.792 130.219 194.483V190.913H128.978V194.568C128.978 195.911 128.808 196.574 127.737 197.798ZM147.171 199.991C144.417 199.991 142.564 201.045 142.564 202.575V203.153C142.564 204.683 144.417 205.737 147.171 205.737C149.925 205.737 151.778 204.683 151.778 203.153V202.575C151.778 201.045 149.925 199.991 147.171 199.991ZM144.111 199.175C146.202 199.175 147.664 197.985 147.664 196.591V195.979C147.664 194.585 146.202 193.395 144.111 193.395C142.02 193.395 140.558 194.585 140.558 195.979V196.591C140.558 197.985 142.02 199.175 144.111 199.175ZM147.171 204.734C145.25 204.734 143.72 204.071 143.72 203.085V202.643C143.72 201.657 145.25 200.994 147.171 200.994C149.092 200.994 150.622 201.657 150.622 202.643V203.085C150.622 204.071 149.092 204.734 147.171 204.734ZM144.111 194.398C145.539 194.398 146.525 195.146 146.525 196.03V196.54C146.525 197.424 145.539 198.172 144.111 198.172C142.683 198.172 141.697 197.424 141.697 196.54V196.03C141.697 195.146 142.683 194.398 144.111 194.398ZM151.693 189.774H150.503V199.515H151.693V195.265H154.073V194.211H151.693V189.774ZM144.706 189.587H143.516V191.559H139.657V192.596H148.599V191.559H144.706V189.587ZM164.973 190.216H163.817V192.613H159.125V190.216H157.969V196.965H164.973V190.216ZM159.958 198.546V199.583H168.237V201.453H160.043V205.363H169.818V204.343H161.216V202.456H169.41V198.546H159.958ZM169.41 189.774H168.22V197.628H169.41V194.143H171.79V193.089H169.41V189.774ZM159.125 193.65H163.817V195.928H159.125V193.65ZM180.02 205.72C182.57 205.72 184.814 204.666 184.814 202.881V202.269C184.814 200.484 182.57 199.43 180.02 199.43C177.47 199.43 175.226 200.467 175.226 202.269V202.881C175.226 204.666 177.47 205.72 180.02 205.72ZM180.02 200.45C181.839 200.45 183.658 201.113 183.658 202.32V202.83C183.658 204.037 181.839 204.7 180.02 204.7C178.201 204.7 176.382 204.037 176.382 202.83V202.32C176.382 201.113 178.201 200.45 180.02 200.45ZM181.278 189.978H180.105V198.478H181.278V194.653H183.556V199.09H184.729V189.774H183.556V193.582H181.278V189.978ZM179.136 197.356C178.32 196.693 177.572 195.979 177.045 195.435C176.161 194.5 176.042 194.007 176.042 192.732V190.573H174.852V192.749C174.852 194.041 174.699 194.585 173.866 195.554C173.271 196.251 172.251 197.203 171.469 197.832L172.234 198.631C172.982 198.036 174.121 196.931 174.648 196.353C175.141 195.809 175.43 195.384 175.464 195.214H175.481C175.532 195.384 175.906 195.826 176.518 196.421C177.028 196.931 177.742 197.594 178.388 198.138L179.136 197.356Z" fill="black"/>
<path d="M22.0157 167.622C22.1857 167.911 22.7467 168.421 23.8687 169.135C25.0077 169.849 25.9087 170.359 27.3537 171.124L28.1867 169.781C26.7587 169.05 25.9257 168.608 24.6167 167.775C23.2567 166.908 22.8487 166.177 22.8487 164.902V164.494H27.4047V163.032H16.5927V164.494H21.1487V164.902C21.1487 166.194 20.6727 166.959 19.3637 167.809C18.2757 168.506 17.2727 169.05 15.8107 169.798L16.6437 171.141C17.9187 170.478 18.9557 169.9 20.1117 169.169C21.2337 168.455 21.8117 167.928 21.9987 167.622H22.0157ZM22.8487 173.861V170.512H21.1487V173.861H14.8077V175.289H29.1897V173.861H22.8487ZM29.4787 185.367H27.0647V179.706H25.3817V195.38H27.0647V186.829H29.4787V185.367ZM19.4657 187.509C19.6017 187.849 20.0097 188.325 20.4857 188.835C21.1317 189.532 21.8967 190.297 23.0697 191.385L24.1577 190.229C23.1377 189.328 22.3897 188.614 21.6587 187.815C20.6217 186.659 20.2987 185.962 20.2987 184.619V180.845H18.5987V184.619C18.5987 185.826 18.3267 186.591 17.2897 187.764C16.5247 188.614 15.6407 189.481 14.6037 190.399L15.7087 191.538C16.8647 190.484 17.7657 189.583 18.4627 188.818C19.0067 188.223 19.2957 187.883 19.4487 187.509H19.4657ZM28.3397 213.482V212.088H19.8397V210.609H27.8977V206.393H18.1057V207.787H26.2487V209.249H18.1907V213.482H28.3397ZM20.9617 200.375C20.9617 202.16 20.1287 202.857 15.3177 204.693L15.8957 206.053C21.2167 204.064 22.6107 203.146 22.6107 200.46V198.386H15.9637V199.797H20.9617V200.375ZM27.8977 205.611V197.706H26.2487V199.508H23.4777V200.919H26.2487V202.466H23.2227V203.877H26.2487V205.611H27.8977ZM27.3537 231.38V222.948H29.6997V221.486H27.3537V215.706H25.6877V231.38H27.3537ZM24.6847 226.042C23.0187 226.195 21.6417 226.297 19.5847 226.348V221.69H17.9187V226.382C17.0347 226.399 16.0147 226.399 14.8587 226.399V227.861C20.2307 227.861 21.9987 227.776 24.8207 227.504L24.6847 226.042ZM15.6237 218.647H21.8797V219.803C21.8797 220.636 21.8457 222.37 21.5057 224.002L23.1547 224.206C23.4437 222.863 23.5457 220.653 23.5457 219.531V217.185H15.6237V218.647ZM19.2617 263.215C21.6587 263.215 23.5797 263.164 25.2287 262.977L25.1097 261.617C24.3787 261.702 23.6307 261.753 22.9167 261.787V254.562H24.5487V253.185H15.4027V254.562H17.0347V261.838H15.2327V263.215H19.2617ZM27.9657 267.38V251.706H26.2827V267.38H27.9657ZM18.6837 261.838V254.562H21.2677V261.838H19.7377H18.6837ZM14.8077 281.861V283.289H29.1897V281.861H14.8077ZM27.3537 277.101H18.4287V272.494H27.1667V271.049H16.7457V278.546H27.3537V277.101ZM21.6077 295.849V288.522H20.0097V290.919H17.0007V288.522H15.4027V295.849H21.6077ZM26.5207 291.412H24.9397V287.91H23.3417V296.852H24.9397V292.857H26.5207V296.886H28.1357V287.706H26.5207V291.412ZM17.8507 299.147H26.4527V303.533H28.1357V297.702H17.8507V299.147ZM17.0007 292.296H20.0097V294.438H17.0007V292.296Z" fill="white"/>
<path d="M275.933 202.082V203.119H290.213V202.082H282.58V196.115H281.356V202.082H275.933ZM287.476 200.093C287.884 197.9 288.071 195.928 288.071 193.072V191.236H277.735V192.29H286.83V193.701C286.83 195.979 286.609 197.849 286.218 199.94L287.476 200.093ZM290.386 197.305V198.325H296.931V199.991C294.619 200.127 292.698 200.96 292.698 202.609V203.068C292.698 204.836 294.976 205.737 297.526 205.737C300.076 205.737 302.354 204.836 302.354 203.068V202.626C302.354 200.977 300.416 200.127 298.121 199.991V198.325H304.666V197.305H290.386ZM297.509 194.092H297.526C297.764 194.398 298.087 194.687 299.379 195.18C300.178 195.486 301.351 195.877 303.051 196.37L303.459 195.418C301.81 194.959 300.535 194.551 299.753 194.245C298.325 193.684 298.121 193.276 298.121 192.426V192.188H302.847V191.168H298.121V189.553H296.914V191.168H292.205V192.188H296.914V192.426C296.914 193.276 296.659 193.701 295.231 194.262C294.432 194.568 293.106 194.993 291.559 195.435L291.984 196.404C293.667 195.894 294.84 195.52 295.656 195.197C296.897 194.721 297.322 194.398 297.509 194.092ZM297.526 204.717C295.707 204.717 293.854 204.207 293.854 203V202.677C293.854 201.521 295.707 200.977 297.526 200.977C299.345 200.977 301.198 201.487 301.198 202.694V203C301.198 204.207 299.345 204.717 297.526 204.717ZM312.437 199.26C309.887 199.26 307.813 200.348 307.813 202.167V202.813C307.813 204.598 309.887 205.72 312.437 205.72C314.987 205.72 317.061 204.598 317.061 202.813V202.167C317.061 200.382 314.987 199.26 312.437 199.26ZM312.437 204.7C310.618 204.7 308.969 203.969 308.969 202.762V202.218C308.969 201.011 310.618 200.28 312.437 200.28C314.256 200.28 315.905 201.011 315.905 202.218V202.762C315.905 203.969 314.256 204.7 312.437 204.7ZM309.36 194.891C309.445 195.163 309.904 195.622 310.686 196.285C311.264 196.778 312.012 197.39 312.913 198.07L313.627 197.237C312.879 196.693 311.978 195.979 311.145 195.248C310.006 194.228 309.904 193.82 309.904 192.562V190.471H308.68V192.596C308.68 193.871 308.561 194.313 307.49 195.384C306.725 196.149 305.654 197.033 304.736 197.713L305.484 198.58C306.419 197.832 307.422 196.982 308.017 196.421C308.765 195.707 309.292 195.18 309.343 194.891H309.36ZM316.976 189.774H315.786V198.92H316.976V194.755H319.356V193.701H316.976V189.774ZM322.164 205.278H331.497V199.362H322.164V205.278ZM323.32 200.433H330.341V204.207H323.32V200.433ZM320.107 197.305C324.867 197.305 326.227 197.254 328.76 196.948L328.624 195.894C326.193 196.183 324.714 196.234 321.297 196.234V191.763H327.23V190.709H320.107V197.305ZM331.497 189.774H330.307V198.444H331.497V194.483H333.877V193.429H331.497V189.774ZM338.861 195.792C340.935 195.792 342.601 194.704 342.601 193.259V192.613C342.601 191.168 340.935 190.08 338.861 190.08C336.787 190.08 335.121 191.168 335.121 192.613V193.259C335.121 194.704 336.787 195.792 338.861 195.792ZM341.921 199.141V200.195H345.423V201.844H346.613V189.774H345.423V199.141H341.921ZM338.861 191.1C340.289 191.1 341.462 191.831 341.462 192.715V193.157C341.462 194.041 340.289 194.772 338.861 194.772C337.433 194.772 336.26 194.041 336.26 193.157V192.715C336.26 191.831 337.433 191.1 338.861 191.1ZM337.892 201.011H336.685V205.125H346.97V204.071H337.892V201.011ZM344.131 196.523C341.207 196.829 338.929 196.897 334.033 196.897V197.934C335.597 197.934 336.906 197.934 338.045 197.9V200.348H339.252V197.883C341.258 197.815 342.703 197.713 344.233 197.56L344.131 196.523ZM351.97 201.402C354.214 201.402 355.285 199.787 355.285 196.88V196.71H357.376V204.547H358.566V190.097H357.376V195.639H355.285V195.554C355.285 192.647 354.214 191.032 351.97 191.032C349.726 191.032 348.655 192.647 348.655 195.554V196.88C348.655 199.787 349.726 201.402 351.97 201.402ZM351.97 192.137C353.483 192.137 354.129 193.361 354.129 195.69V196.744C354.129 199.073 353.483 200.297 351.97 200.297C350.457 200.297 349.811 199.073 349.811 196.744V195.69C349.811 193.361 350.457 192.137 351.97 192.137ZM361.558 189.774H360.368V205.312H361.558V189.774ZM363.584 201.895C366.916 199.634 368.259 198.41 368.769 196.744H371.659V204.547H372.849V190.097H371.659V195.673H368.973C369.024 195.231 369.058 194.721 369.058 194.16V191.321H363.21V192.392H367.885V194.092C367.885 197.084 367.494 197.866 362.921 200.96L363.584 201.895ZM375.977 189.774H374.787V205.312H375.977V189.774ZM392.079 198.631V200.773H384.939V198.631H383.766V205.295H393.252V198.631H392.079ZM385.347 194.942C385.432 195.163 385.993 195.639 386.809 196.234C387.472 196.71 388.288 197.288 388.934 197.696L389.597 196.846C388.747 196.336 387.88 195.741 387.166 195.197C385.993 194.313 385.891 194.075 385.891 192.732V191.746H389.223V190.709H381.182V191.746H384.684V192.885C384.684 194.041 384.48 194.466 383.494 195.299C382.695 195.962 381.726 196.659 380.74 197.288L381.42 198.172C382.355 197.56 383.477 196.71 384.089 196.217C384.854 195.588 385.279 195.163 385.33 194.942H385.347ZM384.939 204.224V201.827H392.079V204.224H384.939ZM388.815 193.429V194.483H392.062V197.713H393.252V189.774H392.062V193.429H388.815ZM394.784 198.699V199.736H401.329V205.312H402.536V199.736H409.064V198.699H394.784ZM403.913 195.401C404.831 195.86 406.123 196.455 407.5 196.999L408.01 196.064C406.752 195.588 405.375 194.976 404.287 194.415C402.978 193.752 402.519 193.191 402.519 191.678V190.318H401.312V191.678C401.312 193.191 400.836 193.752 399.527 194.415C398.439 194.976 397.028 195.605 395.77 196.081L396.297 197.033C397.674 196.489 399 195.877 399.918 195.418C401.04 194.857 401.703 194.364 401.907 193.973H401.924C402.111 194.364 402.791 194.84 403.913 195.401Z" fill="black"/>
<path d="M724.925 200.042H723.718V205.125H733.612V204.071H724.925V200.042ZM733.221 189.774H732.031V200.892H733.221V189.774ZM724.925 198.308C727.254 198.308 728.75 196.574 728.75 194.891V193.871C728.75 192.188 727.254 190.454 724.925 190.454C722.596 190.454 721.1 192.188 721.1 193.871V194.891C721.1 196.574 722.596 198.308 724.925 198.308ZM724.925 191.525C726.506 191.525 727.594 192.698 727.594 193.973V194.789C727.594 196.064 726.506 197.237 724.925 197.237C723.344 197.237 722.256 196.064 722.256 194.789V193.973C722.256 192.698 723.344 191.525 724.925 191.525ZM746.874 189.774H745.667V205.312H746.874V196.642H749.475V195.571H746.874V189.774ZM737.558 197.798C736.759 198.699 735.824 199.6 734.702 200.586L735.501 201.419C736.504 200.535 737.626 199.396 738.221 198.75C738.731 198.189 739.377 197.39 739.428 197.169H739.445C739.53 197.39 740.023 197.951 740.533 198.495C741.213 199.226 742.165 200.161 743.236 201.181L744.018 200.365C742.743 199.209 741.74 198.189 741.06 197.407C740.142 196.353 740.04 195.792 740.04 194.483V190.913H738.799V194.568C738.799 195.911 738.629 196.574 737.558 197.798ZM754.51 196.71C756.703 196.71 758.471 195.503 758.471 193.769V193.055C758.471 191.321 756.703 190.114 754.51 190.114C752.317 190.114 750.549 191.321 750.549 193.055V193.769C750.549 195.503 752.317 196.71 754.51 196.71ZM754.51 191.185C756.023 191.185 757.315 191.984 757.315 193.14V193.684C757.315 194.84 756.023 195.639 754.51 195.639C752.997 195.639 751.705 194.84 751.705 193.684V193.14C751.705 191.984 752.997 191.185 754.51 191.185ZM762.296 189.774H761.089V205.312H762.296V189.774ZM759.899 197.968C757.621 198.223 754.527 198.342 749.614 198.342V199.396C751.314 199.396 752.708 199.379 753.932 199.362V204.819H755.156V199.311C757.026 199.243 758.454 199.158 760.001 199.005L759.899 197.968ZM768.861 195.792C770.935 195.792 772.601 194.704 772.601 193.259V192.613C772.601 191.168 770.935 190.08 768.861 190.08C766.787 190.08 765.121 191.168 765.121 192.613V193.259C765.121 194.704 766.787 195.792 768.861 195.792ZM771.921 199.141V200.195H775.423V201.844H776.613V189.774H775.423V199.141H771.921ZM768.861 191.1C770.289 191.1 771.462 191.831 771.462 192.715V193.157C771.462 194.041 770.289 194.772 768.861 194.772C767.433 194.772 766.26 194.041 766.26 193.157V192.715C766.26 191.831 767.433 191.1 768.861 191.1ZM767.892 201.011H766.685V205.125H776.97V204.071H767.892V201.011ZM774.131 196.523C771.207 196.829 768.929 196.897 764.033 196.897V197.934C765.597 197.934 766.906 197.934 768.045 197.9V200.348H769.252V197.883C771.258 197.815 772.703 197.713 774.233 197.56L774.131 196.523ZM788.923 200.926C787.512 201.079 786.067 201.181 784.282 201.232V199.311C786.084 199.073 787.274 197.951 787.274 196.744V196.098C787.274 194.721 785.778 193.497 783.568 193.497C781.375 193.497 779.862 194.721 779.862 196.098V196.744C779.862 198.002 781.154 199.158 783.075 199.328V201.266C781.8 201.3 780.338 201.3 778.621 201.3V202.354C783.823 202.354 786.22 202.252 789.025 201.963L788.923 200.926ZM791.303 189.774H790.096V205.312H791.303V189.774ZM783.568 194.517C785.149 194.517 786.135 195.367 786.135 196.166V196.676C786.135 197.475 785.149 198.342 783.568 198.342C781.987 198.342 781.001 197.475 781.001 196.676V196.166C781.001 195.367 781.987 194.517 783.568 194.517ZM784.146 189.638H782.956V191.576H779.012V192.63H787.988V191.576H784.146V189.638ZM806.606 200.926C805.195 201.079 803.75 201.181 801.965 201.232V199.311C803.767 199.073 804.957 197.951 804.957 196.744V196.098C804.957 194.721 803.461 193.497 801.251 193.497C799.058 193.497 797.545 194.721 797.545 196.098V196.744C797.545 198.002 798.837 199.158 800.758 199.328V201.266C799.483 201.3 798.021 201.3 796.304 201.3V202.354C801.506 202.354 803.903 202.252 806.708 201.963L806.606 200.926ZM808.986 189.774H807.779V205.312H808.986V189.774ZM801.251 194.517C802.832 194.517 803.818 195.367 803.818 196.166V196.676C803.818 197.475 802.832 198.342 801.251 198.342C799.67 198.342 798.684 197.475 798.684 196.676V196.166C798.684 195.367 799.67 194.517 801.251 194.517ZM801.829 189.638H800.639V191.576H796.695V192.63H805.671V191.576H801.829V189.638ZM821.331 190.369V192.698H813.613V190.369H812.44V197.033H822.504V190.369H821.331ZM810.332 199.107V200.144H816.877V205.312H818.084V200.144H824.612V199.107H810.332ZM813.613 196.03V193.735H821.331V196.03H813.613Z" fill="black"/>
<path d="M706.324 389.032V395.951H710.863V400.082H704.318V401.119H718.598V400.082H712.053V395.951H716.745V394.914H707.531V389.032H706.324ZM730.807 387.774H729.6V403.312H730.807V394.642H733.408V393.571H730.807V387.774ZM721.491 395.798C720.692 396.699 719.757 397.6 718.635 398.586L719.434 399.419C720.437 398.535 721.559 397.396 722.154 396.75C722.664 396.189 723.31 395.39 723.361 395.169H723.378C723.463 395.39 723.956 395.951 724.466 396.495C725.146 397.226 726.098 398.161 727.169 399.181L727.951 398.365C726.676 397.209 725.673 396.189 724.993 395.407C724.075 394.353 723.973 393.792 723.973 392.483V388.913H722.732V392.568C722.732 393.911 722.562 394.574 721.491 395.798ZM744.953 397.379V399.215H737.813V397.379H736.64V403.312H746.126V397.379H744.953ZM737.796 396.614C740.193 396.614 741.332 395.39 741.332 394.2V393.69C741.332 392.5 740.193 391.276 737.796 391.276C735.399 391.276 734.26 392.5 734.26 393.69V394.2C734.26 395.39 735.399 396.614 737.796 396.614ZM742.318 391.531V392.568H744.953V394.234H742.318V395.271H744.953V396.461H746.126V387.774H744.953V391.531H742.318ZM737.813 402.241V400.269H744.953V402.241H737.813ZM737.796 392.279C739.428 392.279 740.176 393.078 740.176 393.758V394.132C740.176 394.812 739.428 395.611 737.796 395.611C736.164 395.611 735.416 394.812 735.416 394.132V393.758C735.416 393.078 736.164 392.279 737.796 392.279ZM738.374 387.553H737.184V389.508H733.359V390.545H742.369V389.508H738.374V387.553ZM760.766 387.774H759.559V403.312H760.766V387.774ZM758.369 398.467C755.734 398.756 753.014 398.841 748.067 398.841V399.895C753.269 399.895 755.666 399.793 758.471 399.504L758.369 398.467ZM752.929 396.189C755.139 396.189 756.975 394.744 756.975 392.908V392.092C756.975 390.256 755.139 388.811 752.929 388.811C750.719 388.811 748.883 390.239 748.883 392.092V392.908C748.883 394.744 750.719 396.189 752.929 396.189ZM752.929 389.865C754.425 389.865 755.819 390.885 755.819 392.16V392.84C755.819 394.115 754.425 395.135 752.929 395.135C751.433 395.135 750.039 394.115 750.039 392.84V392.16C750.039 390.885 751.433 389.865 752.929 389.865ZM772.856 398.926C771.445 399.079 770 399.181 768.215 399.232V397.311C770.017 397.073 771.207 395.951 771.207 394.744V394.098C771.207 392.721 769.711 391.497 767.501 391.497C765.308 391.497 763.795 392.721 763.795 394.098V394.744C763.795 396.002 765.087 397.158 767.008 397.328V399.266C765.733 399.3 764.271 399.3 762.554 399.3V400.354C767.756 400.354 770.153 400.252 772.958 399.963L772.856 398.926ZM775.236 387.774H774.029V403.312H775.236V387.774ZM767.501 392.517C769.082 392.517 770.068 393.367 770.068 394.166V394.676C770.068 395.475 769.082 396.342 767.501 396.342C765.92 396.342 764.934 395.475 764.934 394.676V394.166C764.934 393.367 765.92 392.517 767.501 392.517ZM768.079 387.638H766.889V389.576H762.945V390.63H771.921V389.576H768.079V387.638ZM784.112 396.308C786.441 396.308 787.92 394.557 787.92 392.874V391.888C787.92 390.205 786.441 388.454 784.112 388.454C781.783 388.454 780.304 390.222 780.304 391.888V392.874C780.304 394.557 781.783 396.308 784.112 396.308ZM784.112 389.525C785.693 389.525 786.764 390.715 786.764 391.99V392.772C786.764 394.047 785.693 395.237 784.112 395.237C782.531 395.237 781.46 394.047 781.46 392.772V391.99C781.46 390.749 782.531 389.525 784.112 389.525ZM792.017 387.774H790.827V398.892H792.017V393.537H794.397V392.483H792.017V387.774ZM783.942 398.025H782.735V403.125H792.493V402.071H783.942V398.025ZM795.403 397.328C799.534 395.543 801.115 394.54 801.693 393.112H805.96V398.892H807.15V387.774H805.96V392.058H801.931C801.965 391.769 801.982 391.446 801.982 391.106V388.794H795.437V389.848H800.809V391.038C800.809 393.282 800.35 393.979 794.91 396.342L795.403 397.328ZM798.837 398.059H797.63V403.125H807.541V402.071H798.837V398.059ZM819.546 397.26C816.996 397.26 814.922 398.348 814.922 400.167V400.813C814.922 402.598 816.996 403.72 819.546 403.72C822.096 403.72 824.17 402.598 824.17 400.813V400.167C824.17 398.382 822.096 397.26 819.546 397.26ZM819.546 402.7C817.727 402.7 816.078 401.969 816.078 400.762V400.218C816.078 399.011 817.727 398.28 819.546 398.28C821.365 398.28 823.014 399.011 823.014 400.218V400.762C823.014 401.969 821.365 402.7 819.546 402.7ZM816.469 392.891C816.554 393.163 817.013 393.622 817.795 394.285C818.373 394.778 819.121 395.39 820.022 396.07L820.736 395.237C819.988 394.693 819.087 393.979 818.254 393.248C817.115 392.228 817.013 391.82 817.013 390.562V388.471H815.789V390.596C815.789 391.871 815.67 392.313 814.599 393.384C813.834 394.149 812.763 395.033 811.845 395.713L812.593 396.58C813.528 395.832 814.531 394.982 815.126 394.421C815.874 393.707 816.401 393.18 816.452 392.891H816.469ZM824.085 387.774H822.895V396.92H824.085V392.755H826.465V391.701H824.085V387.774ZM834.695 397.294C832.145 397.294 829.986 398.331 829.986 400.167V400.83C829.986 402.615 832.145 403.72 834.695 403.72C837.245 403.72 839.404 402.615 839.404 400.83V400.167C839.404 398.382 837.245 397.294 834.695 397.294ZM834.695 402.7C832.876 402.7 831.142 402.003 831.142 400.796V400.218C831.142 399.011 832.876 398.314 834.695 398.314C836.514 398.314 838.248 399.011 838.248 400.218V400.796C838.248 402.003 836.514 402.7 834.695 402.7ZM831.414 393.282C831.482 393.503 832.145 394.081 832.944 394.727C833.454 395.135 834.27 395.747 834.95 396.223L835.647 395.373C834.678 394.727 833.726 394.013 833.182 393.554C832.077 392.602 831.958 392.143 831.958 391.14V389.797H835.29V388.76H827.249V389.797H830.751V391.191C830.751 392.109 830.564 392.704 829.731 393.52C828.898 394.336 827.81 395.169 826.807 395.883L827.538 396.733C828.32 396.172 829.476 395.254 830.071 394.727C830.785 394.098 831.329 393.537 831.397 393.282H831.414ZM839.319 387.774H838.129V391.752H834.882V392.806H838.129V396.937H839.319V387.774Z" fill="black"/>
<path d="M319.688 259.599H319.705C319.892 259.956 320.674 260.398 321.728 260.823C322.612 261.197 323.785 261.639 325.179 262.098L325.621 261.163C324.193 260.704 322.901 260.228 322.068 259.871C320.674 259.276 320.3 258.783 320.3 257.899V257.457H324.975V256.437H314.435V257.457H319.093V257.899C319.093 258.783 318.702 259.259 317.308 259.871C316.458 260.245 315.302 260.67 313.755 261.18L314.231 262.115C315.625 261.656 316.696 261.248 317.665 260.84C318.719 260.398 319.501 259.973 319.688 259.599ZM314.384 267.419H323.598V271.431H324.788V266.382H314.384V267.419ZM312.565 263.356V264.393H326.845V263.356H312.565ZM339.835 255.774H338.628V271.312H339.835V255.774ZM330.009 263.832C329.21 264.733 328.275 265.634 327.153 266.62L327.952 267.453C328.955 266.569 330.077 265.43 330.672 264.784C331.182 264.223 331.828 263.424 331.879 263.203H331.896C331.981 263.424 332.474 263.985 332.984 264.529C333.664 265.26 334.616 266.195 335.687 267.215L336.469 266.399C335.194 265.243 334.191 264.223 333.511 263.441C332.593 262.387 332.491 261.826 332.491 260.517V256.896H331.25V260.602C331.25 261.945 331.08 262.608 330.009 263.832ZM346.485 258.205H351.228V258.8C351.228 260.551 350.905 260.942 349.273 262.03C348.491 262.54 347.131 263.322 345.703 264.036L346.332 264.971C347.539 264.342 348.95 263.526 349.953 262.88C351.126 262.115 351.704 261.656 351.84 261.333H351.857C352.01 261.656 352.571 262.098 353.744 262.863C354.747 263.509 356.141 264.308 357.331 264.92L357.943 264.019C356.515 263.305 355.189 262.54 354.407 262.03C352.775 260.942 352.452 260.551 352.452 258.8V258.205H357.195V257.168H346.485V258.205ZM344.7 268.082V269.119H358.98V268.082H352.452V264.512H351.228V268.082H344.7ZM371.189 255.774H369.982V271.312H371.189V262.642H373.79V261.571H371.189V255.774ZM361.873 263.798C361.074 264.699 360.139 265.6 359.017 266.586L359.816 267.419C360.819 266.535 361.941 265.396 362.536 264.75C363.046 264.189 363.692 263.39 363.743 263.169H363.76C363.845 263.39 364.338 263.951 364.848 264.495C365.528 265.226 366.48 266.161 367.551 267.181L368.333 266.365C367.058 265.209 366.055 264.189 365.375 263.407C364.457 262.353 364.355 261.792 364.355 260.483V256.913H363.114V260.568C363.114 261.911 362.944 262.574 361.873 263.798Z" fill="black"/>
<path d="M317.478 330.478V331.515H325.893V333.419H317.563V337.363H327.474V336.343H318.736V334.422H327.066V330.478H317.478ZM315.268 329.968C320.929 327.809 321.847 327.01 321.847 324.103V322.471H315.336V323.525H320.674V324.035C320.674 326.33 320.215 326.908 314.826 328.982L315.268 329.968ZM322.544 326.653V327.69H325.893V329.56H327.066V321.774H325.893V323.695H322.799V324.732H325.893V326.653H322.544ZM341.025 321.774H339.818V337.312H341.025V328.761H343.49V327.69H341.025V321.774ZM338.628 332.28C336.945 332.467 335.364 332.569 333.171 332.62V327.69H331.964V332.637C330.995 332.654 329.924 332.654 328.683 332.654V333.708C333.885 333.708 335.925 333.606 338.73 333.317L338.628 332.28ZM329.465 323.27V324.341H336.01V325.395C336.01 326.84 335.908 328.727 335.602 330.104L336.809 330.257C337.081 329.152 337.217 326.789 337.217 325.157V323.27H329.465ZM354.084 322.964V325.752H346.366V322.964H345.193V330.716H349.63V334.082H343.085V335.119H357.365V334.082H350.82V330.716H355.257V322.964H354.084ZM346.366 329.713V326.789H354.084V329.713H346.366ZM357.538 334.082V335.119H371.818V334.082H364.185V328.115H362.961V334.082H357.538ZM369.081 332.093C369.489 329.9 369.676 327.928 369.676 325.072V323.236H359.34V324.29H368.435V325.701C368.435 327.979 368.214 329.849 367.823 331.94L369.081 332.093Z" fill="black"/>
<path d="M254.907 400.83C254.907 402.479 256.709 403.822 259.718 403.822C262.727 403.822 264.529 402.479 264.529 400.83V400.15C264.529 398.501 262.727 397.158 259.718 397.158C256.709 397.158 254.907 398.501 254.907 400.15V400.83ZM256.641 393.418C256.76 393.673 257.1 393.996 257.61 394.421C258.426 395.101 259.191 395.679 260.075 396.291L261.027 395.067C260.024 394.404 259.106 393.741 258.307 393.01C257.559 392.33 257.423 391.752 257.423 390.664V390.12H260.568V388.675H252.391V390.12H255.723V390.732C255.723 391.973 255.434 392.619 254.601 393.435C253.989 394.03 252.952 394.812 251.864 395.577L252.85 396.784C253.802 396.121 254.754 395.373 255.485 394.744C256.029 394.285 256.522 393.707 256.624 393.418H256.641ZM262.88 400.728C262.88 401.561 261.656 402.445 259.718 402.445C257.78 402.445 256.556 401.561 256.556 400.728V400.252C256.556 399.419 257.78 398.535 259.718 398.535C261.656 398.535 262.88 399.419 262.88 400.252V400.728ZM264.461 396.954V387.706H262.795V396.954H264.461ZM270.805 392.143C270.805 394.455 270.805 395.645 266.011 398.722L266.946 400.031C271.553 396.954 272.352 395.645 272.437 392.993H274.698V395.577H272.403V397.039H274.698V402.615H276.347V388.029H274.698V391.531H272.454V389.236H266.453V390.681H270.805V392.143ZM279.543 387.706H277.894V403.38H279.543V387.706ZM291.649 399.861V396.92H289.949V399.861H283.608V401.289H297.99V399.861H291.649ZM292.584 394.795V390.443H296.358V389.032H290.969V396.206H296.528V394.795H292.584ZM290.255 394.574C289.286 394.71 288.045 394.795 286.855 394.795H286.617V390.443H290.017V389.032H285.002V396.206H286.311C287.96 396.206 289.388 396.104 290.374 395.968L290.255 394.574ZM298.061 395.628V397.056H312.443V395.628H298.061ZM301.818 398.484H300.135V403.21H310.675V401.748H301.818V398.484ZM300.237 388.318V393.826H310.386V392.398H301.903V388.318H300.237ZM319.739 395.747C319.858 396.087 320.113 396.461 320.453 396.869C321.133 397.685 321.847 398.433 322.748 399.334L323.887 398.212C322.884 397.243 322.136 396.444 321.422 395.526C320.742 394.642 320.521 393.843 320.521 392.874V390.63H323.037V389.219H316.203V390.63H318.889V392.874C318.889 393.843 318.719 394.676 318.039 395.56C317.308 396.512 316.424 397.43 315.404 398.399L316.543 399.538C317.444 398.62 318.311 397.685 318.991 396.869C319.331 396.461 319.603 396.087 319.722 395.747H319.739ZM324.635 392.84H322.255V394.302H324.635V402.615H326.284V388.029H324.635V392.84ZM329.395 387.706H327.746V403.38H329.395V387.706ZM342.742 394.965H333.817V390.443H342.555V389.015H332.134V396.393H336.537V399.861H330.196V401.289H344.578V399.861H338.237V396.393H342.742V394.965ZM358.266 387.706H356.617V393.18H354.73V388.029H353.081V402.615H354.73V394.642H356.617V403.38H358.266V387.706ZM349.562 392.143C349.562 394.455 349.562 395.645 344.768 398.722L345.703 400.031C350.633 396.733 351.211 395.475 351.211 392.432V389.236H345.21V390.681H349.562V392.143ZM363.913 393.571C364.015 393.826 364.372 394.2 364.882 394.625C365.698 395.305 366.48 395.951 367.364 396.614L368.35 395.441C367.347 394.71 366.378 393.945 365.579 393.214C364.763 392.466 364.695 391.905 364.695 390.851V388.437H362.995V390.919C362.995 392.109 362.757 392.755 361.89 393.622C361.295 394.217 360.241 395.118 359.153 395.951L360.156 397.141C361.057 396.427 362.06 395.577 362.757 394.931C363.284 394.455 363.811 393.86 363.896 393.571H363.913ZM372.124 398.858V387.706H370.458V391.259H367.313V392.704H370.458V398.858H372.124ZM364.015 397.94H362.332V403.21H372.447V401.748H364.015V397.94ZM389.551 403.482V402.105H380.49V401.017H389.092V397.226H384.825V395.9H391.166V394.506H376.784V395.9H383.125V397.226H378.756V398.603H387.443V399.674H378.841V403.482H389.551ZM389.092 387.842H387.426V389.457H380.507V387.859H378.841V393.469H389.092V387.842ZM380.507 390.817H387.426V392.058H380.507V390.817ZM391.679 394.982C397.102 394.948 399.074 394.863 401.148 394.676L401.029 393.367C400.349 393.435 399.703 393.469 398.989 393.52V389.729H400.451V388.369H391.781V389.729H393.277V393.639H391.679V394.982ZM404.667 403.482V402.088H396.167V400.592H404.225V396.359H394.433V397.753H402.576V399.232H394.518V403.482H404.667ZM404.225 395.577V387.706H402.559V395.577H404.225ZM394.892 393.639V389.729H397.374V393.588L394.892 393.639ZM416.485 399.861V396.07C417.505 395.407 418.151 394.438 418.151 393.197V392.381C418.151 390.018 415.754 388.556 412.881 388.556C410.008 388.556 407.611 390.018 407.611 392.381V393.197C407.611 394.438 408.257 395.407 409.277 396.07V399.861H405.69V401.289H420.072V399.861H416.485ZM412.881 390.018C414.836 390.018 416.502 390.953 416.502 392.466V393.112C416.502 394.625 414.836 395.56 412.881 395.56C410.926 395.56 409.26 394.625 409.26 393.112V392.466C409.26 390.953 410.926 390.018 412.881 390.018ZM412.881 397.005C413.561 397.005 414.207 396.92 414.819 396.767V399.861H410.943V396.767C411.538 396.92 412.201 397.005 412.881 397.005ZM433.13 403.38V387.706H431.447V403.38H433.13ZM425.072 395.543C425.208 395.883 425.616 396.359 426.092 396.869C426.738 397.566 427.503 398.331 428.676 399.419L429.764 398.263C428.744 397.362 427.996 396.648 427.265 395.849C426.228 394.693 425.905 393.996 425.905 392.653V388.828H424.205V392.653C424.205 393.86 423.933 394.625 422.896 395.798C422.131 396.648 421.247 397.515 420.21 398.433L421.315 399.572C422.471 398.518 423.372 397.617 424.069 396.852C424.613 396.257 424.902 395.917 425.055 395.543H425.072Z" fill="white"/>
<path d="M524.33 395.747C524.449 396.087 524.704 396.461 525.044 396.869C525.724 397.685 526.438 398.433 527.339 399.334L528.478 398.212C527.475 397.243 526.727 396.444 526.013 395.526C525.333 394.642 525.112 393.843 525.112 392.874V390.63H527.628V389.219H520.794V390.63H523.48V392.874C523.48 393.843 523.31 394.676 522.63 395.56C521.899 396.512 521.015 397.43 519.995 398.399L521.134 399.538C522.035 398.62 522.902 397.685 523.582 396.869C523.922 396.461 524.194 396.087 524.313 395.747H524.33ZM529.226 392.84H526.846V394.302H529.226V402.615H530.875V388.029H529.226V392.84ZM533.986 387.706H532.337V403.38H533.986V387.706ZM547.333 394.965H538.408V390.443H547.146V389.015H536.725V396.393H541.128V399.861H534.787V401.289H549.169V399.861H542.828V396.393H547.333V394.965ZM562.857 387.706H561.208V393.18H559.321V388.029H557.672V402.615H559.321V394.642H561.208V403.38H562.857V387.706ZM554.153 392.143C554.153 394.455 554.153 395.645 549.359 398.722L550.294 400.031C555.224 396.733 555.802 395.475 555.802 392.432V389.236H549.801V390.681H554.153V392.143ZM568.504 393.571C568.606 393.826 568.963 394.2 569.473 394.625C570.289 395.305 571.071 395.951 571.955 396.614L572.941 395.441C571.938 394.71 570.969 393.945 570.17 393.214C569.354 392.466 569.286 391.905 569.286 390.851V388.437H567.586V390.919C567.586 392.109 567.348 392.755 566.481 393.622C565.886 394.217 564.832 395.118 563.744 395.951L564.747 397.141C565.648 396.427 566.651 395.577 567.348 394.931C567.875 394.455 568.402 393.86 568.487 393.571H568.504ZM576.715 398.858V387.706H575.049V391.259H571.904V392.704H575.049V398.858H576.715ZM568.606 397.94H566.923V403.21H577.038V401.748H568.606V397.94ZM581.817 394.982C587.24 394.948 589.212 394.863 591.286 394.676L591.167 393.367C590.487 393.435 589.841 393.469 589.127 393.52V389.729H590.589V388.369H581.919V389.729H583.415V393.639H581.817V394.982ZM594.805 403.482V402.088H586.305V400.592H594.363V396.359H584.571V397.753H592.714V399.232H584.656V403.482H594.805ZM594.363 395.577V387.706H592.697V395.577H594.363ZM585.03 393.639V389.729H587.512V393.588L585.03 393.639ZM606.623 399.861V396.07C607.643 395.407 608.289 394.438 608.289 393.197V392.381C608.289 390.018 605.892 388.556 603.019 388.556C600.146 388.556 597.749 390.018 597.749 392.381V393.197C597.749 394.438 598.395 395.407 599.415 396.07V399.861H595.828V401.289H610.21V399.861H606.623ZM603.019 390.018C604.974 390.018 606.64 390.953 606.64 392.466V393.112C606.64 394.625 604.974 395.56 603.019 395.56C601.064 395.56 599.398 394.625 599.398 393.112V392.466C599.398 390.953 601.064 390.018 603.019 390.018ZM603.019 397.005C603.699 397.005 604.345 396.92 604.957 396.767V399.861H601.081V396.767C601.676 396.92 602.339 397.005 603.019 397.005ZM623.269 403.38V387.706H621.586V403.38H623.269ZM615.211 395.543C615.347 395.883 615.755 396.359 616.231 396.869C616.877 397.566 617.642 398.331 618.815 399.419L619.903 398.263C618.883 397.362 618.135 396.648 617.404 395.849C616.367 394.693 616.044 393.996 616.044 392.653V388.828H614.344V392.653C614.344 393.86 614.072 394.625 613.035 395.798C612.27 396.648 611.386 397.515 610.349 398.433L611.454 399.572C612.61 398.518 613.511 397.617 614.208 396.852C614.752 396.257 615.041 395.917 615.194 395.543H615.211Z" fill="white"/>
<path d="M538.221 268.83C538.221 270.479 540.023 271.822 543.032 271.822C546.041 271.822 547.843 270.479 547.843 268.83V268.15C547.843 266.501 546.041 265.158 543.032 265.158C540.023 265.158 538.221 266.501 538.221 268.15V268.83ZM539.955 261.418C540.074 261.673 540.414 261.996 540.924 262.421C541.74 263.101 542.505 263.679 543.389 264.291L544.341 263.067C543.338 262.404 542.42 261.741 541.621 261.01C540.873 260.33 540.737 259.752 540.737 258.664V258.12H543.882V256.675H535.705V258.12H539.037V258.732C539.037 259.973 538.748 260.619 537.915 261.435C537.303 262.03 536.266 262.812 535.178 263.577L536.164 264.784C537.116 264.121 538.068 263.373 538.799 262.744C539.343 262.285 539.836 261.707 539.938 261.418H539.955ZM546.194 268.728C546.194 269.561 544.97 270.445 543.032 270.445C541.094 270.445 539.87 269.561 539.87 268.728V268.252C539.87 267.419 541.094 266.535 543.032 266.535C544.97 266.535 546.194 267.419 546.194 268.252V268.728ZM547.775 264.954V255.706H546.109V264.954H547.775ZM554.119 260.143C554.119 262.455 554.119 263.645 549.325 266.722L550.26 268.031C554.867 264.954 555.666 263.645 555.751 260.993H558.012V263.577H555.717V265.039H558.012V270.615H559.661V256.029H558.012V259.531H555.768V257.236H549.767V258.681H554.119V260.143ZM562.857 255.706H561.208V271.38H562.857V255.706ZM567.365 262.982C572.788 262.948 574.76 262.863 576.834 262.676L576.715 261.367C576.035 261.435 575.389 261.469 574.675 261.52V257.729H576.137V256.369H567.467V257.729H568.963V261.639H567.365V262.982ZM580.353 271.482V270.088H571.853V268.592H579.911V264.359H570.119V265.753H578.262V267.232H570.204V271.482H580.353ZM579.911 263.577V255.706H578.245V263.577H579.911ZM570.578 261.639V257.729H573.06V261.588L570.578 261.639ZM592.17 267.861V264.07C593.19 263.407 593.836 262.438 593.836 261.197V260.381C593.836 258.018 591.439 256.556 588.566 256.556C585.693 256.556 583.296 258.018 583.296 260.381V261.197C583.296 262.438 583.942 263.407 584.962 264.07V267.861H581.375V269.289H595.757V267.861H592.17ZM588.566 258.018C590.521 258.018 592.187 258.953 592.187 260.466V261.112C592.187 262.625 590.521 263.56 588.566 263.56C586.611 263.56 584.945 262.625 584.945 261.112V260.466C584.945 258.953 586.611 258.018 588.566 258.018ZM588.566 265.005C589.246 265.005 589.892 264.92 590.504 264.767V267.861H586.628V264.767C587.223 264.92 587.886 265.005 588.566 265.005ZM608.816 271.38V255.706H607.133V271.38H608.816ZM600.758 263.543C600.894 263.883 601.302 264.359 601.778 264.869C602.424 265.566 603.189 266.331 604.362 267.419L605.45 266.263C604.43 265.362 603.682 264.648 602.951 263.849C601.914 262.693 601.591 261.996 601.591 260.653V256.828H599.891V260.653C599.891 261.86 599.619 262.625 598.582 263.798C597.817 264.648 596.933 265.515 595.896 266.433L597.001 267.572C598.157 266.518 599.058 265.617 599.755 264.852C600.299 264.257 600.588 263.917 600.741 263.543H600.758Z" fill="white"/>
<path d="M453.543 62.622C453.713 62.911 454.274 63.421 455.396 64.135C456.535 64.849 457.436 65.359 458.881 66.124L459.714 64.781C458.286 64.05 457.453 63.608 456.144 62.775C454.784 61.908 454.376 61.177 454.376 59.902V59.494H458.932V58.032H448.12V59.494H452.676V59.902C452.676 61.194 452.2 61.959 450.891 62.809C449.803 63.506 448.8 64.05 447.338 64.798L448.171 66.141C449.446 65.478 450.483 64.9 451.639 64.169C452.761 63.455 453.339 62.928 453.526 62.622H453.543ZM454.376 68.861V65.512H452.676V68.861H446.335V70.289H460.717V68.861H454.376ZM466.04 64.917C466.176 65.257 466.601 65.733 467.077 66.243C467.723 66.94 468.437 67.654 469.593 68.708L470.698 67.569C469.695 66.685 468.981 66.022 468.25 65.223C467.043 63.914 466.856 63.404 466.856 62.061V60.446H470.222V58.984H466.856V56.757H465.156V58.984H461.654V60.446H465.156V62.061C465.156 63.319 464.969 63.965 463.847 65.206C463.082 66.056 462.249 66.889 461.229 67.807L462.334 68.946C463.473 67.892 464.323 67.025 465.02 66.26C465.564 65.665 465.87 65.291 466.023 64.917H466.04ZM473.928 72.38V56.706H472.245V72.38H473.928ZM488.772 72.482V71.088H480.272V69.609H488.33V65.393H478.538V66.787H486.681V68.249H478.623V72.482H488.772ZM481.394 59.375C481.394 61.16 480.561 61.857 475.75 63.693L476.328 65.053C481.649 63.064 483.043 62.146 483.043 59.46V57.386H476.396V58.797H481.394V59.375ZM488.33 64.611V56.706H486.681V58.508H483.91V59.919H486.681V61.466H483.655V62.877H486.681V64.611H488.33ZM502.239 72.38V63.948H504.585V62.486H502.239V56.706H500.573V72.38H502.239ZM499.57 67.042C497.904 67.195 496.527 67.297 494.47 67.348V62.69H492.804V67.382C491.92 67.399 490.9 67.399 489.744 67.399V68.861C495.116 68.861 496.884 68.776 499.706 68.504L499.57 67.042ZM490.509 59.647H496.765V60.803C496.765 61.636 496.731 63.37 496.391 65.002L498.04 65.206C498.329 63.863 498.431 61.653 498.431 60.531V58.185H490.509V59.647ZM511.829 68.215C514.226 68.215 516.147 68.164 517.796 67.977L517.677 66.617C516.946 66.702 516.198 66.753 515.484 66.787V59.562H517.116V58.185H507.97V59.562H509.602V66.838H507.8V68.215H511.829ZM520.533 72.38V56.706H518.85V72.38H520.533ZM511.251 66.838V59.562H513.835V66.838H512.305H511.251ZM521.828 68.861V70.289H536.21V68.861H521.828ZM534.374 64.101H525.449V59.494H534.187V58.049H523.766V65.546H534.374V64.101ZM543.081 64.849V57.522H541.483V59.919H538.474V57.522H536.876V64.849H543.081ZM547.994 60.412H546.413V56.91H544.815V65.852H546.413V61.857H547.994V65.886H549.609V56.706H547.994V60.412ZM539.324 68.147H547.926V72.533H549.609V66.702H539.324V68.147ZM538.474 61.296H541.483V63.438H538.474V61.296Z" fill="white"/>
</svg>
