<svg width="772" height="337" viewBox="0 0 772 337" fill="none" xmlns="http://www.w3.org/2000/svg">
<g filter="url(#filter0_d_182_6626)">
<path d="M189.5 210C189.5 259.429 149.429 299.5 100 299.5C50.5705 299.5 10.5 259.429 10.5 210C10.5 160.571 50.5705 120.5 100 120.5C149.429 120.5 189.5 160.571 189.5 210Z" fill="white" stroke="#DDDDDD"/>
</g>
<path d="M74.7472 182.468H76.9792L79.7152 172.478L82.3432 182.468H84.5392L88.1212 169.49H85.9072L83.4412 179.102L80.8312 169.49H78.6172L75.9892 179.12L73.6132 169.49H71.2192L74.7472 182.468ZM92.4397 180.632C91.0897 180.632 90.0817 179.912 90.0817 178.022V176.924C90.0817 175.034 91.0177 174.314 92.4397 174.314C93.8617 174.314 94.7977 175.034 94.7977 176.924V178.022C94.7977 179.912 93.7897 180.632 92.4397 180.632ZM92.4397 182.612C95.2477 182.612 97.0837 180.956 97.0837 178.058V176.888C97.0837 173.972 95.2477 172.334 92.4397 172.334C89.6317 172.334 87.7957 173.972 87.7957 176.888V178.058C87.7957 180.956 89.6317 182.612 92.4397 182.612ZM104.579 172.532C104.219 172.406 103.679 172.334 103.175 172.334C101.771 172.334 100.925 173 100.403 173.99H100.367V172.55H98.1888V182.468H100.457V176.582C100.457 175.304 101.411 174.368 102.671 174.368C103.247 174.368 103.589 174.44 103.931 174.584L104.579 172.532ZM113.91 172.55H111.048L107.34 176.744V168.86H105.072V182.468H107.34V179.516L108.474 178.256L111.174 182.468H114.072L110.058 176.654L113.91 172.55ZM115.949 176.618V176.24C115.949 175.124 116.705 174.206 118.217 174.206C119.801 174.206 120.413 175.124 120.413 176.186V176.618H115.949ZM121.403 179.912C120.413 180.488 119.567 180.722 118.397 180.722C116.813 180.722 115.949 179.912 115.949 178.328H122.591V176.69C122.591 173.792 120.773 172.334 118.253 172.334C115.733 172.334 113.735 173.738 113.735 176.96V177.986C113.735 181.532 115.985 182.612 118.271 182.612C120.125 182.612 121.385 182.198 122.339 181.55L121.403 179.912ZM130.044 172.532C129.684 172.406 129.144 172.334 128.64 172.334C127.236 172.334 126.39 173 125.868 173.99H125.832V172.55H123.654V182.468H125.922V176.582C125.922 175.304 126.876 174.368 128.136 174.368C128.712 174.368 129.054 174.44 129.396 174.584L130.044 172.532ZM62.8097 194.334C60.0377 194.334 58.3277 195.99 58.3277 198.816V200.058C58.3277 202.884 59.9117 204.612 62.8277 204.612C64.6277 204.612 65.9597 204.036 66.6257 203.424L65.5457 201.768C64.8437 202.29 64.0877 202.614 62.8457 202.614C61.8557 202.614 60.6137 202.038 60.6137 200.022V198.816C60.6137 196.98 61.6757 196.314 62.8097 196.314C63.7457 196.314 64.5197 196.512 65.3297 197.16L66.4277 195.504C65.6537 194.91 64.6817 194.334 62.8097 194.334ZM71.3839 202.632C70.0339 202.632 69.0259 201.912 69.0259 200.022V198.924C69.0259 197.034 69.9619 196.314 71.3839 196.314C72.8059 196.314 73.7419 197.034 73.7419 198.924V200.022C73.7419 201.912 72.7339 202.632 71.3839 202.632ZM71.3839 204.612C74.1919 204.612 76.0279 202.956 76.0279 200.058V198.888C76.0279 195.972 74.1919 194.334 71.3839 194.334C68.5759 194.334 66.7399 195.972 66.7399 198.888V200.058C66.7399 202.956 68.5759 204.612 71.3839 204.612ZM87.753 194.334C86.259 194.334 85.377 194.856 84.675 195.846C84.315 194.946 83.253 194.334 82.029 194.334C80.751 194.334 79.797 194.91 79.311 195.81H79.275V194.55H77.133V204.468H79.401V198.384C79.401 197.016 80.157 196.35 81.219 196.35C82.227 196.35 83.019 196.836 83.019 198.51V204.468H85.287V198.474C85.287 196.818 86.223 196.35 87.105 196.35C88.059 196.35 88.905 196.764 88.905 198.546V204.468H91.173V198.078C91.173 195.594 89.589 194.334 87.753 194.334ZM103.32 194.334C101.826 194.334 100.944 194.856 100.242 195.846C99.8815 194.946 98.8195 194.334 97.5955 194.334C96.3175 194.334 95.3635 194.91 94.8775 195.81H94.8415V194.55H92.6995V204.468H94.9675V198.384C94.9675 197.016 95.7235 196.35 96.7855 196.35C97.7935 196.35 98.5855 196.836 98.5855 198.51V204.468H100.854V198.474C100.854 196.818 101.79 196.35 102.672 196.35C103.626 196.35 104.472 196.764 104.472 198.546V204.468H106.74V198.078C106.74 195.594 105.156 194.334 103.32 194.334ZM108.32 204.468H110.588V194.55H108.32V204.468ZM108.266 193.092H110.642V190.644H108.266V193.092ZM112.896 201.66C112.896 203.514 113.598 204.612 115.866 204.612C116.748 204.612 117.486 204.378 117.9 204.198L117.54 202.38C117.018 202.596 116.586 202.668 116.136 202.668C115.542 202.668 115.164 202.488 115.164 201.642V196.422H117.666V194.55H115.164V192.012H112.896V194.55H111.312V196.422H112.896V201.66ZM119.252 201.66C119.252 203.514 119.954 204.612 122.222 204.612C123.104 204.612 123.842 204.378 124.256 204.198L123.896 202.38C123.374 202.596 122.942 202.668 122.492 202.668C121.898 202.668 121.52 202.488 121.52 201.642V196.422H124.022V194.55H121.52V192.012H119.252V194.55H117.668V196.422H119.252V201.66ZM126.669 198.618V198.24C126.669 197.124 127.425 196.206 128.937 196.206C130.521 196.206 131.133 197.124 131.133 198.186V198.618H126.669ZM132.123 201.912C131.133 202.488 130.287 202.722 129.117 202.722C127.533 202.722 126.669 201.912 126.669 200.328H133.311V198.69C133.311 195.792 131.493 194.334 128.973 194.334C126.453 194.334 124.455 195.738 124.455 198.96V199.986C124.455 203.532 126.705 204.612 128.991 204.612C130.845 204.612 132.105 204.198 133.059 203.55L132.123 201.912ZM136.066 198.618V198.24C136.066 197.124 136.822 196.206 138.334 196.206C139.918 196.206 140.53 197.124 140.53 198.186V198.618H136.066ZM141.52 201.912C140.53 202.488 139.684 202.722 138.514 202.722C136.93 202.722 136.066 201.912 136.066 200.328H142.708V198.69C142.708 195.792 140.89 194.334 138.37 194.334C135.85 194.334 133.852 195.738 133.852 198.96V199.986C133.852 203.532 136.102 204.612 138.388 204.612C140.242 204.612 141.502 204.198 142.456 203.55L141.52 201.912ZM60.0377 213.49V226.468H64.5917C68.6237 226.468 70.1897 224.488 70.1897 220.906V219.052C70.1897 215.47 68.4077 213.49 64.5557 213.49H60.0377ZM62.3237 215.434H64.2497C66.6437 215.434 67.8677 216.406 67.8677 219.142V220.816C67.8677 223.552 66.5717 224.524 64.2497 224.524H62.3237V215.434ZM71.5072 226.468H73.7752V216.55H71.5072V226.468ZM71.4532 215.092H73.8292V212.644H71.4532V215.092ZM81.8433 216.532C81.4833 216.406 80.9433 216.334 80.4393 216.334C79.0353 216.334 78.1893 217 77.6673 217.99H77.6313V216.55H75.4533V226.468H77.7213V220.582C77.7213 219.304 78.6753 218.368 79.9353 218.368C80.5113 218.368 80.8533 218.44 81.1953 218.584L81.8433 216.532ZM83.9403 220.618V220.24C83.9403 219.124 84.6963 218.206 86.2083 218.206C87.7923 218.206 88.4043 219.124 88.4043 220.186V220.618H83.9403ZM89.3943 223.912C88.4043 224.488 87.5583 224.722 86.3883 224.722C84.8043 224.722 83.9403 223.912 83.9403 222.328H90.5823V220.69C90.5823 217.792 88.7643 216.334 86.2443 216.334C83.7243 216.334 81.7263 217.738 81.7263 220.96V221.986C81.7263 225.532 83.9763 226.612 86.2623 226.612C88.1163 226.612 89.3763 226.198 90.3303 225.55L89.3943 223.912ZM95.6048 216.334C92.8328 216.334 91.1228 217.99 91.1228 220.816V222.058C91.1228 224.884 92.7068 226.612 95.6228 226.612C97.4228 226.612 98.7548 226.036 99.4208 225.424L98.3408 223.768C97.6388 224.29 96.8828 224.614 95.6408 224.614C94.6508 224.614 93.4088 224.038 93.4088 222.022V220.816C93.4088 218.98 94.4708 218.314 95.6048 218.314C96.5408 218.314 97.3148 218.512 98.1248 219.16L99.2228 217.504C98.4488 216.91 97.4768 216.334 95.6048 216.334ZM100.687 223.66C100.687 225.514 101.389 226.612 103.657 226.612C104.539 226.612 105.277 226.378 105.691 226.198L105.331 224.38C104.809 224.596 104.377 224.668 103.927 224.668C103.333 224.668 102.955 224.488 102.955 223.642V218.422H105.457V216.55H102.955V214.012H100.687V216.55H99.103V218.422H100.687V223.66ZM110.535 224.632C109.185 224.632 108.177 223.912 108.177 222.022V220.924C108.177 219.034 109.113 218.314 110.535 218.314C111.957 218.314 112.893 219.034 112.893 220.924V222.022C112.893 223.912 111.885 224.632 110.535 224.632ZM110.535 226.612C113.343 226.612 115.179 224.956 115.179 222.058V220.888C115.179 217.972 113.343 216.334 110.535 216.334C107.727 216.334 105.891 217.972 105.891 220.888V222.058C105.891 224.956 107.727 226.612 110.535 226.612ZM122.674 216.532C122.314 216.406 121.774 216.334 121.27 216.334C119.866 216.334 119.02 217 118.498 217.99H118.462V216.55H116.284V226.468H118.552V220.582C118.552 219.304 119.506 218.368 120.766 218.368C121.342 218.368 121.684 218.44 122.026 218.584L122.674 216.532ZM130.709 224.632C129.359 224.632 128.351 223.912 128.351 222.022V220.924C128.351 219.034 129.287 218.314 130.709 218.314C132.131 218.314 133.067 219.034 133.067 220.924V222.022C133.067 223.912 132.059 224.632 130.709 224.632ZM130.709 226.612C133.517 226.612 135.353 224.956 135.353 222.058V220.888C135.353 217.972 133.517 216.334 130.709 216.334C127.901 216.334 126.065 217.972 126.065 220.888V222.058C126.065 224.956 127.901 226.612 130.709 226.612ZM137.106 226.468H139.374V218.404H141.876V216.55H139.374V215.92C139.374 215.092 139.77 214.678 140.562 214.678C141.066 214.678 141.48 214.732 141.858 214.858L142.218 213.04C141.804 212.896 141.084 212.752 140.346 212.752C138.168 212.752 137.106 213.886 137.106 215.866V216.55H135.522V218.404H137.106V226.468ZM54.4918 235.49V248.468H62.7178V246.524H56.7958V235.49H54.4918ZM66.2029 248.612C67.2469 248.612 68.6509 248.126 69.0289 247.244L69.0649 248.468H71.0989V241.502C71.0989 239.504 69.4249 238.334 67.1029 238.334C65.4109 238.334 64.1689 238.964 63.1609 239.666L64.2769 241.322C65.1049 240.674 66.0229 240.332 67.0849 240.332C68.3089 240.332 68.8489 240.836 68.8489 242.06V242.438H66.5809C63.7909 242.438 62.8369 243.644 62.8369 245.264V245.84C62.8369 247.586 64.0789 248.612 66.2029 248.612ZM68.8489 244.472C68.8489 245.21 68.8489 245.642 68.4349 246.038C67.9669 246.506 67.3369 246.704 66.3829 246.704C65.5009 246.704 65.0329 246.326 65.0329 245.678V245.462C65.0329 244.688 65.4469 244.202 66.6349 244.202H68.8489V244.472ZM74.7933 247.316C75.2433 248.072 76.1433 248.612 77.4573 248.612C79.8513 248.612 81.4353 246.992 81.4353 244.31V242.564C81.4353 239.99 80.1213 238.334 77.5653 238.334C76.7733 238.334 75.4953 238.586 74.8473 239.522V234.86H72.5793V248.468H74.7393V247.316H74.7933ZM79.1853 244.058C79.1853 245.714 78.4833 246.686 77.1693 246.686C75.8013 246.686 74.8113 245.642 74.8113 244.724V242.618C74.8113 241.268 75.6033 240.278 77.1153 240.278C78.5733 240.278 79.1853 241.25 79.1853 242.924V244.058ZM86.6603 246.632C85.3103 246.632 84.3023 245.912 84.3023 244.022V242.924C84.3023 241.034 85.2383 240.314 86.6603 240.314C88.0823 240.314 89.0183 241.034 89.0183 242.924V244.022C89.0183 245.912 88.0103 246.632 86.6603 246.632ZM86.6603 248.612C89.4683 248.612 91.3043 246.956 91.3043 244.058V242.888C91.3043 239.972 89.4683 238.334 86.6603 238.334C83.8523 238.334 82.0163 239.972 82.0163 242.888V244.058C82.0163 246.956 83.8523 248.612 86.6603 248.612ZM98.7995 238.532C98.4395 238.406 97.8995 238.334 97.3955 238.334C95.9915 238.334 95.1455 239 94.6235 239.99H94.5875V238.55H92.4095V248.468H94.6775V242.582C94.6775 241.304 95.6315 240.368 96.8915 240.368C97.4675 240.368 97.8095 240.44 98.1515 240.584L98.7995 238.532ZM107.626 246.578C105.736 246.578 104.89 245.714 104.89 243.158V235.49H102.586V243.122C102.586 247.37 104.386 248.666 107.626 248.666C110.884 248.666 112.666 247.37 112.666 243.122V235.49H110.362V243.158C110.362 245.714 109.516 246.578 107.626 246.578ZM119.278 238.334C118.108 238.334 117.046 238.694 116.344 239.684H116.308V238.55H114.166V248.468H116.434V242.6C116.434 240.638 117.838 240.314 118.576 240.314C119.854 240.314 120.466 241.016 120.466 242.492V248.468H122.734V242.006C122.734 239.342 121.06 238.334 119.278 238.334ZM124.319 248.468H126.587V238.55H124.319V248.468ZM124.265 237.092H126.641V234.644H124.265V237.092ZM132.387 246.632C131.037 246.632 130.029 245.912 130.029 244.022V242.924C130.029 241.034 130.965 240.314 132.387 240.314C133.809 240.314 134.745 241.034 134.745 242.924V244.022C134.745 245.912 133.737 246.632 132.387 246.632ZM132.387 248.612C135.195 248.612 137.031 246.956 137.031 244.058V242.888C137.031 239.972 135.195 238.334 132.387 238.334C129.579 238.334 127.743 239.972 127.743 242.888V244.058C127.743 246.956 129.579 248.612 132.387 248.612ZM143.249 238.334C142.079 238.334 141.017 238.694 140.315 239.684H140.279V238.55H138.137V248.468H140.405V242.6C140.405 240.638 141.809 240.314 142.547 240.314C143.825 240.314 144.437 241.016 144.437 242.492V248.468H146.705V242.006C146.705 239.342 145.031 238.334 143.249 238.334Z" fill="#222222"/>
<g filter="url(#filter1_d_182_6626)">
<path d="M389.5 210C389.5 259.429 349.429 299.5 300 299.5C250.571 299.5 210.5 259.429 210.5 210C210.5 160.571 250.571 120.5 300 120.5C349.429 120.5 389.5 160.571 389.5 210Z" fill="white" stroke="#DDDDDD"/>
</g>
<path d="M264.254 169.49V182.468H272.732V180.56H266.54V176.762H272.228V174.89H266.54V171.398H272.606V169.49H264.254ZM284.637 172.334C283.143 172.334 282.261 172.856 281.559 173.846C281.199 172.946 280.137 172.334 278.913 172.334C277.635 172.334 276.681 172.91 276.195 173.81H276.159V172.55H274.017V182.468H276.285V176.384C276.285 175.016 277.041 174.35 278.103 174.35C279.111 174.35 279.903 174.836 279.903 176.51V182.468H282.171V176.474C282.171 174.818 283.107 174.35 283.989 174.35C284.943 174.35 285.789 174.764 285.789 176.546V182.468H288.057V176.078C288.057 173.594 286.473 172.334 284.637 172.334ZM294.443 182.612C296.873 182.612 298.439 180.974 298.439 178.31V176.564C298.439 174.026 297.161 172.334 294.551 172.334C293.633 172.334 292.445 172.622 291.761 173.63V172.55H289.583V186.32H291.851V181.46C292.373 182.162 293.255 182.612 294.443 182.612ZM296.189 178.058C296.189 179.714 295.487 180.686 294.173 180.686C292.805 180.686 291.815 179.642 291.815 178.724V176.618C291.815 175.268 292.607 174.278 294.119 174.278C295.577 174.278 296.189 175.25 296.189 176.924V178.058ZM299.542 182.468H301.81V168.86H299.542V182.468ZM307.559 180.632C306.209 180.632 305.201 179.912 305.201 178.022V176.924C305.201 175.034 306.137 174.314 307.559 174.314C308.981 174.314 309.917 175.034 309.917 176.924V178.022C309.917 179.912 308.909 180.632 307.559 180.632ZM307.559 182.612C310.367 182.612 312.203 180.956 312.203 178.058V176.888C312.203 173.972 310.367 172.334 307.559 172.334C304.751 172.334 302.915 173.972 302.915 176.888V178.058C302.915 180.956 304.751 182.612 307.559 182.612ZM312.228 172.55L315.756 182.594L314.478 185.852L316.602 186.59L321.75 172.55H319.338L317.07 179.876H316.998L314.748 172.55H312.228ZM323.887 176.618V176.24C323.887 175.124 324.643 174.206 326.155 174.206C327.739 174.206 328.351 175.124 328.351 176.186V176.618H323.887ZM329.341 179.912C328.351 180.488 327.505 180.722 326.335 180.722C324.751 180.722 323.887 179.912 323.887 178.328H330.529V176.69C330.529 173.792 328.711 172.334 326.191 172.334C323.671 172.334 321.673 173.738 321.673 176.96V177.986C321.673 181.532 323.923 182.612 326.209 182.612C328.063 182.612 329.323 182.198 330.277 181.55L329.341 179.912ZM337.981 172.532C337.621 172.406 337.081 172.334 336.577 172.334C335.173 172.334 334.327 173 333.805 173.99H333.769V172.55H331.591V182.468H333.859V176.582C333.859 175.304 334.813 174.368 336.073 174.368C336.649 174.368 336.991 174.44 337.333 174.584L337.981 172.532ZM262.81 194.334C260.038 194.334 258.328 195.99 258.328 198.816V200.058C258.328 202.884 259.912 204.612 262.828 204.612C264.628 204.612 265.96 204.036 266.626 203.424L265.546 201.768C264.844 202.29 264.088 202.614 262.846 202.614C261.856 202.614 260.614 202.038 260.614 200.022V198.816C260.614 196.98 261.676 196.314 262.81 196.314C263.746 196.314 264.52 196.512 265.33 197.16L266.428 195.504C265.654 194.91 264.682 194.334 262.81 194.334ZM271.384 202.632C270.034 202.632 269.026 201.912 269.026 200.022V198.924C269.026 197.034 269.962 196.314 271.384 196.314C272.806 196.314 273.742 197.034 273.742 198.924V200.022C273.742 201.912 272.734 202.632 271.384 202.632ZM271.384 204.612C274.192 204.612 276.028 202.956 276.028 200.058V198.888C276.028 195.972 274.192 194.334 271.384 194.334C268.576 194.334 266.74 195.972 266.74 198.888V200.058C266.74 202.956 268.576 204.612 271.384 204.612ZM287.753 194.334C286.259 194.334 285.377 194.856 284.675 195.846C284.315 194.946 283.253 194.334 282.029 194.334C280.751 194.334 279.797 194.91 279.311 195.81H279.275V194.55H277.133V204.468H279.401V198.384C279.401 197.016 280.157 196.35 281.219 196.35C282.227 196.35 283.019 196.836 283.019 198.51V204.468H285.287V198.474C285.287 196.818 286.223 196.35 287.105 196.35C288.059 196.35 288.905 196.764 288.905 198.546V204.468H291.173V198.078C291.173 195.594 289.589 194.334 287.753 194.334ZM303.32 194.334C301.826 194.334 300.944 194.856 300.242 195.846C299.882 194.946 298.82 194.334 297.596 194.334C296.318 194.334 295.364 194.91 294.878 195.81H294.842V194.55H292.7V204.468H294.968V198.384C294.968 197.016 295.724 196.35 296.786 196.35C297.794 196.35 298.586 196.836 298.586 198.51V204.468H300.854V198.474C300.854 196.818 301.79 196.35 302.672 196.35C303.626 196.35 304.472 196.764 304.472 198.546V204.468H306.74V198.078C306.74 195.594 305.156 194.334 303.32 194.334ZM308.32 204.468H310.588V194.55H308.32V204.468ZM308.266 193.092H310.642V190.644H308.266V193.092ZM312.896 201.66C312.896 203.514 313.598 204.612 315.866 204.612C316.748 204.612 317.486 204.378 317.9 204.198L317.54 202.38C317.018 202.596 316.586 202.668 316.136 202.668C315.542 202.668 315.164 202.488 315.164 201.642V196.422H317.666V194.55H315.164V192.012H312.896V194.55H311.312V196.422H312.896V201.66ZM319.252 201.66C319.252 203.514 319.954 204.612 322.222 204.612C323.104 204.612 323.842 204.378 324.256 204.198L323.896 202.38C323.374 202.596 322.942 202.668 322.492 202.668C321.898 202.668 321.52 202.488 321.52 201.642V196.422H324.022V194.55H321.52V192.012H319.252V194.55H317.668V196.422H319.252V201.66ZM326.669 198.618V198.24C326.669 197.124 327.425 196.206 328.937 196.206C330.521 196.206 331.133 197.124 331.133 198.186V198.618H326.669ZM332.123 201.912C331.133 202.488 330.287 202.722 329.117 202.722C327.533 202.722 326.669 201.912 326.669 200.328H333.311V198.69C333.311 195.792 331.493 194.334 328.973 194.334C326.453 194.334 324.455 195.738 324.455 198.96V199.986C324.455 203.532 326.705 204.612 328.991 204.612C330.845 204.612 332.105 204.198 333.059 203.55L332.123 201.912ZM336.066 198.618V198.24C336.066 197.124 336.822 196.206 338.334 196.206C339.918 196.206 340.53 197.124 340.53 198.186V198.618H336.066ZM341.52 201.912C340.53 202.488 339.684 202.722 338.514 202.722C336.93 202.722 336.066 201.912 336.066 200.328H342.708V198.69C342.708 195.792 340.89 194.334 338.37 194.334C335.85 194.334 333.852 195.738 333.852 198.96V199.986C333.852 203.532 336.102 204.612 338.388 204.612C340.242 204.612 341.502 204.198 342.456 203.55L341.52 201.912ZM274.915 226.468H277.219V213.49H274.915V218.746H269.533V213.49H267.229V226.468H269.533V220.654H274.915V226.468ZM286.18 226.468H288.682C287.818 224.578 287.008 222.724 286.144 220.834C287.476 220.24 288.16 219.07 288.16 217.72V217.054C288.16 214.984 286.666 213.49 283.966 213.49H279.052V226.468H281.356V221.266H284.002L286.18 226.468ZM283.678 215.416C285.262 215.416 285.874 216.118 285.874 217.126V217.666C285.874 218.656 285.262 219.34 283.48 219.34H281.356V215.416H283.678ZM291.996 213.49V215.434H295.812V226.468H298.116V215.434H301.914V213.49H291.996ZM302.989 220.618V220.24C302.989 219.124 303.745 218.206 305.257 218.206C306.841 218.206 307.453 219.124 307.453 220.186V220.618H302.989ZM308.443 223.912C307.453 224.488 306.607 224.722 305.437 224.722C303.853 224.722 302.989 223.912 302.989 222.328H309.631V220.69C309.631 217.792 307.813 216.334 305.293 216.334C302.773 216.334 300.775 217.738 300.775 220.96V221.986C300.775 225.532 303.025 226.612 305.311 226.612C307.165 226.612 308.425 226.198 309.379 225.55L308.443 223.912ZM313.556 226.612C314.6 226.612 316.004 226.126 316.382 225.244L316.418 226.468H318.452V219.502C318.452 217.504 316.778 216.334 314.456 216.334C312.764 216.334 311.522 216.964 310.514 217.666L311.63 219.322C312.458 218.674 313.376 218.332 314.438 218.332C315.662 218.332 316.202 218.836 316.202 220.06V220.438H313.934C311.144 220.438 310.19 221.644 310.19 223.264V223.84C310.19 225.586 311.432 226.612 313.556 226.612ZM316.202 222.472C316.202 223.21 316.202 223.642 315.788 224.038C315.32 224.506 314.69 224.704 313.736 224.704C312.854 224.704 312.386 224.326 312.386 223.678V223.462C312.386 222.688 312.8 222.202 313.988 222.202H316.202V222.472ZM330.552 216.334C329.058 216.334 328.176 216.856 327.474 217.846C327.114 216.946 326.052 216.334 324.828 216.334C323.55 216.334 322.596 216.91 322.11 217.81H322.074V216.55H319.932V226.468H322.2V220.384C322.2 219.016 322.956 218.35 324.018 218.35C325.026 218.35 325.818 218.836 325.818 220.51V226.468H328.086V220.474C328.086 218.818 329.022 218.35 329.904 218.35C330.858 218.35 331.704 218.764 331.704 220.546V226.468H333.972V220.078C333.972 217.594 332.388 216.334 330.552 216.334ZM274.512 235.49V248.468H282.738V246.524H276.816V235.49H274.512ZM285.053 242.618V242.24C285.053 241.124 285.809 240.206 287.321 240.206C288.905 240.206 289.517 241.124 289.517 242.186V242.618H285.053ZM290.507 245.912C289.517 246.488 288.671 246.722 287.501 246.722C285.917 246.722 285.053 245.912 285.053 244.328H291.695V242.69C291.695 239.792 289.877 238.334 287.357 238.334C284.837 238.334 282.839 239.738 282.839 242.96V243.986C282.839 247.532 285.089 248.612 287.375 248.612C289.229 248.612 290.489 248.198 291.443 247.55L290.507 245.912ZM295.619 248.612C296.663 248.612 298.067 248.126 298.445 247.244L298.481 248.468H300.515V241.502C300.515 239.504 298.841 238.334 296.519 238.334C294.827 238.334 293.585 238.964 292.577 239.666L293.693 241.322C294.521 240.674 295.439 240.332 296.501 240.332C297.725 240.332 298.265 240.836 298.265 242.06V242.438H295.997C293.207 242.438 292.253 243.644 292.253 245.264V245.84C292.253 247.586 293.495 248.612 295.619 248.612ZM298.265 244.472C298.265 245.21 298.265 245.642 297.851 246.038C297.383 246.506 296.753 246.704 295.799 246.704C294.917 246.704 294.449 246.326 294.449 245.678V245.462C294.449 244.688 294.863 244.202 296.051 244.202H298.265V244.472ZM308.17 248.468H310.312V234.86H308.044V239.396C307.756 238.964 307 238.334 305.434 238.334C303.04 238.334 301.474 239.954 301.474 242.636V244.382C301.474 247.064 302.734 248.612 305.272 248.612C306.46 248.612 307.594 248.252 308.116 247.298H308.17V248.468ZM303.706 242.924C303.706 241.268 304.372 240.278 305.812 240.278C307.378 240.278 308.08 241.322 308.08 242.24V244.256C308.08 245.606 307.216 246.686 305.722 246.686C304.408 246.686 303.706 245.714 303.706 244.04V242.924ZM313.629 242.618V242.24C313.629 241.124 314.385 240.206 315.897 240.206C317.481 240.206 318.093 241.124 318.093 242.186V242.618H313.629ZM319.083 245.912C318.093 246.488 317.247 246.722 316.077 246.722C314.493 246.722 313.629 245.912 313.629 244.328H320.271V242.69C320.271 239.792 318.453 238.334 315.933 238.334C313.413 238.334 311.415 239.738 311.415 242.96V243.986C311.415 247.532 313.665 248.612 315.951 248.612C317.805 248.612 319.065 248.198 320.019 247.55L319.083 245.912ZM327.724 238.532C327.364 238.406 326.824 238.334 326.32 238.334C324.916 238.334 324.07 239 323.548 239.99H323.512V238.55H321.334V248.468H323.602V242.582C323.602 241.304 324.556 240.368 325.816 240.368C326.392 240.368 326.734 240.44 327.076 240.584L327.724 238.532Z" fill="#222222"/>
<path d="M200 45L200 108" stroke="#AAAAAA" stroke-width="2" stroke-dasharray="4 4"/>
<path d="M100 120V110H300V120" fill="white"/>
<path d="M100 120V110H300V120" stroke="#AAAAAA" stroke-width="2" stroke-dasharray="4 4"/>
<rect x="64" width="272" height="74" rx="37" fill="#5082E6"/>
<path d="M124.664 35.6H119.484V37.3H122.684V41.36C121.924 41.74 120.904 41.94 119.824 41.94C117.244 41.94 115.584 40.48 115.584 37.14V35.48C115.584 32.14 117.104 30.68 119.604 30.68C120.964 30.68 122.104 31 123.364 32L124.384 30.4C123.044 29.34 121.464 28.88 119.604 28.88C115.944 28.88 113.604 31.02 113.604 35.22V37.4C113.604 41.64 115.944 43.74 119.764 43.74C121.564 43.74 123.404 43.32 124.664 42.44V35.6ZM132.721 32.6C132.281 32.46 131.801 32.38 131.301 32.38C129.701 32.38 128.721 33.1 128.081 34.32H128.061V32.58H126.181V43.52H128.121V37.14C128.121 35.42 129.361 34.22 130.801 34.22C131.321 34.22 131.761 34.32 132.141 34.48L132.721 32.6ZM133.381 32.58V43.52H135.321V32.58H133.381ZM133.321 28.66V30.78H135.381V28.66H133.321ZM141.437 34.04C143.097 34.04 144.137 35.12 144.137 36.8V37.16H138.657V36.88C138.657 35.2 139.817 34.04 141.437 34.04ZM144.937 41.02C143.997 41.62 143.037 42 141.617 42C139.877 42 138.657 40.88 138.657 38.82V38.74H146.017V37.28C146.017 34.16 144.237 32.38 141.437 32.38C138.737 32.38 136.737 34.08 136.737 37.4V38.64C136.737 42.18 138.837 43.68 141.537 43.68C143.517 43.68 144.797 43.14 145.757 42.48L144.937 41.02ZM150.83 41.7L147.95 32.58H145.85L149.59 43.52H152.07L155.77 32.58H153.73L150.87 41.7H150.83ZM159.265 43.68C160.225 43.68 160.865 43.5 161.445 43.18C161.865 42.94 162.265 42.6 162.465 42.2H162.485V43.52H164.345V35.86C164.345 33.66 162.625 32.38 160.185 32.38C158.425 32.38 157.125 33.02 156.065 33.76L157.025 35.2C158.045 34.54 158.885 34.1 160.165 34.1C161.765 34.1 162.425 34.8 162.425 36.26V36.9H159.645C156.845 36.9 155.665 38.2 155.665 40.06V40.6C155.665 42.52 157.065 43.68 159.265 43.68ZM162.425 39.62C162.425 40.44 162.205 40.92 161.685 41.32C161.105 41.78 160.425 42 159.465 42C158.425 42 157.565 41.54 157.565 40.48V40.2C157.565 39.16 158.165 38.54 159.685 38.54H162.425V39.62ZM175.198 36.28C175.198 33.64 173.478 32.38 171.358 32.38C169.858 32.38 168.738 32.94 168.078 33.96H168.058V32.58H166.178V43.52H168.118V36.74C168.118 35.02 169.558 34.1 170.878 34.1C172.498 34.1 173.258 34.88 173.258 36.72V43.52H175.198V36.28ZM181.11 32.38C178.25 32.38 176.39 34.16 176.39 37.3V38.68C176.39 41.82 178.11 43.68 181.13 43.68C183.13 43.68 184.41 43.06 185.17 42.42L184.23 40.94C183.45 41.52 182.59 41.94 181.15 41.94C179.71 41.94 178.35 41.02 178.35 38.66V37.28C178.35 35.04 179.67 34.1 181.11 34.1C182.17 34.1 182.95 34.3 183.97 35.04L184.89 33.58C183.99 32.9 182.91 32.38 181.11 32.38ZM190.066 34.04C191.726 34.04 192.766 35.12 192.766 36.8V37.16H187.286V36.88C187.286 35.2 188.446 34.04 190.066 34.04ZM193.566 41.02C192.626 41.62 191.666 42 190.246 42C188.506 42 187.286 40.88 187.286 38.82V38.74H194.646V37.28C194.646 34.16 192.866 32.38 190.066 32.38C187.366 32.38 185.366 34.08 185.366 37.4V38.64C185.366 42.18 187.466 43.68 190.166 43.68C192.146 43.68 193.426 43.14 194.386 42.48L193.566 41.02ZM209.079 40.38C207.879 41.56 206.439 41.9 205.059 41.9C202.879 41.9 201.279 40.44 201.279 37.14V35.48C201.279 32.18 202.879 30.72 205.059 30.72C206.359 30.72 207.499 30.98 208.799 32.04L209.819 30.42C208.479 29.36 207.039 28.88 205.059 28.88C201.639 28.88 199.279 31.02 199.279 35.22V37.4C199.279 41.64 201.619 43.74 205.059 43.74C206.999 43.74 208.719 43.28 210.159 41.9L209.079 40.38ZM215.435 32.38C212.435 32.38 210.555 34.18 210.555 37.36V38.7C210.555 41.86 212.435 43.68 215.435 43.68C218.435 43.68 220.315 41.86 220.315 38.7V37.36C220.315 34.2 218.435 32.38 215.435 32.38ZM215.435 41.98C213.695 41.98 212.515 40.86 212.515 38.54V37.52C212.515 35.2 213.695 34.08 215.435 34.08C217.175 34.08 218.355 35.2 218.355 37.52V38.54C218.355 40.86 217.175 41.98 215.435 41.98ZM236.693 36.34C236.693 33.82 235.313 32.38 233.073 32.38C231.353 32.38 230.373 33.14 229.673 34.2C229.113 33.04 227.993 32.38 226.533 32.38C225.013 32.38 224.033 33.1 223.613 34.06H223.593V32.58H221.673V43.52H223.613V36.6C223.613 34.88 224.953 34.14 226.153 34.14C227.533 34.14 228.213 35.06 228.213 36.96V43.52H230.153V36.7C230.153 34.92 231.473 34.14 232.693 34.14C234.073 34.14 234.753 35.06 234.753 36.96V43.52H236.693V36.34ZM253.481 36.34C253.481 33.82 252.101 32.38 249.861 32.38C248.141 32.38 247.161 33.14 246.461 34.2C245.901 33.04 244.781 32.38 243.321 32.38C241.801 32.38 240.821 33.1 240.401 34.06H240.381V32.58H238.461V43.52H240.401V36.6C240.401 34.88 241.741 34.14 242.941 34.14C244.321 34.14 245.001 35.06 245.001 36.96V43.52H246.941V36.7C246.941 34.92 248.261 34.14 249.481 34.14C250.861 34.14 251.541 35.06 251.541 36.96V43.52H253.481V36.34ZM255.309 32.58V43.52H257.249V32.58H255.309ZM255.249 28.66V30.78H257.309V28.66H255.249ZM259.905 40.46C259.905 42.66 260.865 43.68 262.945 43.68C263.725 43.68 264.545 43.5 264.985 43.32L264.685 41.76C264.185 41.94 263.725 42.02 263.245 42.02C262.425 42.02 261.845 41.8 261.845 40.46V34.24H264.725V32.58H261.845V29.82H259.905V32.58H258.105V34.24H259.905V40.46ZM266.479 40.46C266.479 42.66 267.439 43.68 269.519 43.68C270.299 43.68 271.119 43.5 271.559 43.32L271.259 41.76C270.759 41.94 270.299 42.02 269.819 42.02C268.999 42.02 268.419 41.8 268.419 40.46V34.24H271.299V32.58H268.419V29.82H266.479V32.58H264.679V34.24H266.479V40.46ZM276.512 34.04C278.172 34.04 279.212 35.12 279.212 36.8V37.16H273.732V36.88C273.732 35.2 274.892 34.04 276.512 34.04ZM280.012 41.02C279.072 41.62 278.112 42 276.692 42C274.952 42 273.732 40.88 273.732 38.82V38.74H281.092V37.28C281.092 34.16 279.312 32.38 276.512 32.38C273.812 32.38 271.812 34.08 271.812 37.4V38.64C271.812 42.18 273.912 43.68 276.612 43.68C278.592 43.68 279.872 43.14 280.832 42.48L280.012 41.02ZM286.425 34.04C288.085 34.04 289.125 35.12 289.125 36.8V37.16H283.645V36.88C283.645 35.2 284.805 34.04 286.425 34.04ZM289.925 41.02C288.985 41.62 288.025 42 286.605 42C284.865 42 283.645 40.88 283.645 38.82V38.74H291.005V37.28C291.005 34.16 289.225 32.38 286.425 32.38C283.725 32.38 281.725 34.08 281.725 37.4V38.64C281.725 42.18 283.825 43.68 286.525 43.68C288.505 43.68 289.785 43.14 290.745 42.48L289.925 41.02Z" fill="white"/>
<path d="M174.864 334.442H176.054V322.185H174.864V334.442ZM181.754 325.109C180.309 325.109 179.374 325.857 178.949 326.554V325.279H177.81V334.442H178.966V328.492C178.966 327.421 180.037 326.163 181.584 326.163C183.403 326.163 183.896 327.251 183.896 328.56V334.442H185.052V328.271C185.052 326.367 183.845 325.109 181.754 325.109ZM187.399 331.892C187.399 333.881 188.164 334.527 189.762 334.527C190.255 334.527 190.952 334.442 191.309 334.306L191.139 333.354C190.714 333.473 190.306 333.524 189.847 333.524C188.929 333.524 188.555 333.082 188.555 331.841V326.265H191.088V325.279H188.555V322.916H187.399V325.279H185.835V326.265H187.399V331.892ZM192.987 329.257V329.104C192.987 327.302 193.939 326.129 195.554 326.129C197.152 326.129 198.087 327.2 198.087 329.104V329.257H192.987ZM198.529 332.657C197.866 333.133 196.948 333.558 195.724 333.558C194.041 333.558 192.987 332.402 192.987 330.379V330.226H199.243V329.274C199.243 326.707 197.934 325.109 195.554 325.109C193.259 325.109 191.831 326.639 191.831 329.24V330.379C191.831 333.048 193.276 334.578 195.707 334.578C197.254 334.578 198.308 334.051 199.039 333.541L198.529 332.657ZM205.582 325.296C205.208 325.16 204.783 325.109 204.273 325.109C202.879 325.109 202.029 326.01 201.638 326.894V325.279H200.499V334.442H201.655V329.24C201.655 327.523 202.607 326.282 204.12 326.282C204.562 326.282 204.919 326.35 205.225 326.469L205.582 325.296ZM210.064 325.109C208.619 325.109 207.684 325.857 207.259 326.554V325.279H206.12V334.442H207.276V328.492C207.276 327.421 208.347 326.163 209.894 326.163C211.713 326.163 212.206 327.251 212.206 328.56V334.442H213.362V328.271C213.362 326.367 212.155 325.109 210.064 325.109ZM217.477 334.578C218.174 334.578 218.82 334.442 219.33 334.187C219.806 333.949 220.18 333.609 220.35 333.32H220.367V334.442H221.489V328.033C221.489 326.18 220.231 325.109 218.191 325.109C216.797 325.109 215.76 325.602 214.91 326.197L215.471 327.081C216.253 326.537 217.188 326.146 218.174 326.146C219.602 326.146 220.35 326.894 220.35 328.22V329.07H217.766C215.641 329.07 214.536 330.107 214.536 331.586V331.96C214.536 333.575 215.743 334.578 217.477 334.578ZM220.35 331.586C220.35 332.283 219.976 332.742 219.483 333.048C218.939 333.388 218.378 333.575 217.647 333.575C216.712 333.575 215.692 333.099 215.692 331.909V331.637C215.692 330.702 216.321 330.039 217.783 330.039H220.35V331.586ZM223.039 334.442H224.195V321.59H223.039V334.442Z" fill="#555555"/>
<path d="M576.391 334.442H577.581V322.185H576.391V334.442ZM583.281 325.109C581.836 325.109 580.901 325.857 580.476 326.554V325.279H579.337V334.442H580.493V328.492C580.493 327.421 581.564 326.163 583.111 326.163C584.93 326.163 585.423 327.251 585.423 328.56V334.442H586.579V328.271C586.579 326.367 585.372 325.109 583.281 325.109ZM588.926 331.892C588.926 333.881 589.691 334.527 591.289 334.527C591.782 334.527 592.479 334.442 592.836 334.306L592.666 333.354C592.241 333.473 591.833 333.524 591.374 333.524C590.456 333.524 590.082 333.082 590.082 331.841V326.265H592.615V325.279H590.082V322.916H588.926V325.279H587.362V326.265H588.926V331.892ZM594.514 329.257V329.104C594.514 327.302 595.466 326.129 597.081 326.129C598.679 326.129 599.614 327.2 599.614 329.104V329.257H594.514ZM600.056 332.657C599.393 333.133 598.475 333.558 597.251 333.558C595.568 333.558 594.514 332.402 594.514 330.379V330.226H600.77V329.274C600.77 326.707 599.461 325.109 597.081 325.109C594.786 325.109 593.358 326.639 593.358 329.24V330.379C593.358 333.048 594.803 334.578 597.234 334.578C598.781 334.578 599.835 334.051 600.566 333.541L600.056 332.657ZM607.109 325.296C606.735 325.16 606.31 325.109 605.8 325.109C604.406 325.109 603.556 326.01 603.165 326.894V325.279H602.026V334.442H603.182V329.24C603.182 327.523 604.134 326.282 605.647 326.282C606.089 326.282 606.446 326.35 606.752 326.469L607.109 325.296ZM611.591 325.109C610.146 325.109 609.211 325.857 608.786 326.554V325.279H607.647V334.442H608.803V328.492C608.803 327.421 609.874 326.163 611.421 326.163C613.24 326.163 613.733 327.251 613.733 328.56V334.442H614.889V328.271C614.889 326.367 613.682 325.109 611.591 325.109ZM619.004 334.578C619.701 334.578 620.347 334.442 620.857 334.187C621.333 333.949 621.707 333.609 621.877 333.32H621.894V334.442H623.016V328.033C623.016 326.18 621.758 325.109 619.718 325.109C618.324 325.109 617.287 325.602 616.437 326.197L616.998 327.081C617.78 326.537 618.715 326.146 619.701 326.146C621.129 326.146 621.877 326.894 621.877 328.22V329.07H619.293C617.168 329.07 616.063 330.107 616.063 331.586V331.96C616.063 333.575 617.27 334.578 619.004 334.578ZM621.877 331.586C621.877 332.283 621.503 332.742 621.01 333.048C620.466 333.388 619.905 333.575 619.174 333.575C618.239 333.575 617.219 333.099 617.219 331.909V331.637C617.219 330.702 617.848 330.039 619.31 330.039H621.877V331.586ZM624.566 334.442H625.722V321.59H624.566V334.442ZM632.922 329.699H634.639V327.999H632.922V329.699ZM641.918 322.185V334.442H649.415V333.388H643.108V328.679H648.939V327.625H643.108V323.239H649.296V322.185H641.918ZM657.607 325.279H656.349L653.85 329.019L651.334 325.279H650.042L653.119 329.699L649.855 334.442H651.13L653.816 330.413L656.417 334.442H657.76L654.53 329.699L657.607 325.279ZM659.184 331.892C659.184 333.881 659.949 334.527 661.547 334.527C662.04 334.527 662.737 334.442 663.094 334.306L662.924 333.354C662.499 333.473 662.091 333.524 661.632 333.524C660.714 333.524 660.34 333.082 660.34 331.841V326.265H662.873V325.279H660.34V322.916H659.184V325.279H657.62V326.265H659.184V331.892ZM664.772 329.257V329.104C664.772 327.302 665.724 326.129 667.339 326.129C668.937 326.129 669.872 327.2 669.872 329.104V329.257H664.772ZM670.314 332.657C669.651 333.133 668.733 333.558 667.509 333.558C665.826 333.558 664.772 332.402 664.772 330.379V330.226H671.028V329.274C671.028 326.707 669.719 325.109 667.339 325.109C665.044 325.109 663.616 326.639 663.616 329.24V330.379C663.616 333.048 665.061 334.578 667.492 334.578C669.039 334.578 670.093 334.051 670.824 333.541L670.314 332.657ZM677.368 325.296C676.994 325.16 676.569 325.109 676.059 325.109C674.665 325.109 673.815 326.01 673.424 326.894V325.279H672.285V334.442H673.441V329.24C673.441 327.523 674.393 326.282 675.906 326.282C676.348 326.282 676.705 326.35 677.011 326.469L677.368 325.296ZM681.85 325.109C680.405 325.109 679.47 325.857 679.045 326.554V325.279H677.906V334.442H679.062V328.492C679.062 327.421 680.133 326.163 681.68 326.163C683.499 326.163 683.992 327.251 683.992 328.56V334.442H685.148V328.271C685.148 326.367 683.941 325.109 681.85 325.109ZM689.262 334.578C689.959 334.578 690.605 334.442 691.115 334.187C691.591 333.949 691.965 333.609 692.135 333.32H692.152V334.442H693.274V328.033C693.274 326.18 692.016 325.109 689.976 325.109C688.582 325.109 687.545 325.602 686.695 326.197L687.256 327.081C688.038 326.537 688.973 326.146 689.959 326.146C691.387 326.146 692.135 326.894 692.135 328.22V329.07H689.551C687.426 329.07 686.321 330.107 686.321 331.586V331.96C686.321 333.575 687.528 334.578 689.262 334.578ZM692.135 331.586C692.135 332.283 691.761 332.742 691.268 333.048C690.724 333.388 690.163 333.575 689.432 333.575C688.497 333.575 687.477 333.099 687.477 331.909V331.637C687.477 330.702 688.106 330.039 689.568 330.039H692.135V331.586ZM694.825 334.442H695.981V321.59H694.825V334.442Z" fill="#555555"/>
<g filter="url(#filter2_d_182_6626)">
<path d="M725.5 210C725.5 259.429 685.429 299.5 636 299.5C586.571 299.5 546.5 259.429 546.5 210C546.5 160.571 586.571 120.5 636 120.5C685.429 120.5 725.5 160.571 725.5 210Z" fill="white" stroke="#DDDDDD"/>
</g>
<path d="M590.407 191.308H592.243L594.961 184.468C595.123 184 595.303 183.586 595.573 182.506V193.468H597.751V180.49H594.439L591.379 188.554L588.193 180.49H584.917V193.468H587.059V182.506C587.365 183.442 587.545 184.018 587.725 184.468L590.407 191.308ZM602.341 193.612C603.385 193.612 604.789 193.126 605.167 192.244L605.203 193.468H607.237V186.502C607.237 184.504 605.563 183.334 603.241 183.334C601.549 183.334 600.307 183.964 599.299 184.666L600.415 186.322C601.243 185.674 602.161 185.332 603.223 185.332C604.447 185.332 604.987 185.836 604.987 187.06V187.438H602.719C599.929 187.438 598.975 188.644 598.975 190.264V190.84C598.975 192.586 600.217 193.612 602.341 193.612ZM604.987 189.472C604.987 190.21 604.987 190.642 604.573 191.038C604.105 191.506 603.475 191.704 602.521 191.704C601.639 191.704 601.171 191.326 601.171 190.678V190.462C601.171 189.688 601.585 189.202 602.773 189.202H604.987V189.472ZM613.829 183.334C612.659 183.334 611.597 183.694 610.895 184.684H610.859V183.55H608.717V193.468H610.985V187.6C610.985 185.638 612.389 185.314 613.127 185.314C614.405 185.314 615.017 186.016 615.017 187.492V193.468H617.285V187.006C617.285 184.342 615.611 183.334 613.829 183.334ZM621.679 193.612C622.723 193.612 624.127 193.126 624.505 192.244L624.541 193.468H626.575V186.502C626.575 184.504 624.901 183.334 622.579 183.334C620.887 183.334 619.645 183.964 618.637 184.666L619.753 186.322C620.581 185.674 621.499 185.332 622.561 185.332C623.785 185.332 624.325 185.836 624.325 187.06V187.438H622.057C619.267 187.438 618.313 188.644 618.313 190.264V190.84C618.313 192.586 619.555 193.612 621.679 193.612ZM624.325 189.472C624.325 190.21 624.325 190.642 623.911 191.038C623.443 191.506 622.813 191.704 621.859 191.704C620.977 191.704 620.509 191.326 620.509 190.678V190.462C620.509 189.688 620.923 189.202 622.111 189.202H624.325V189.472ZM634.139 193.36C634.139 194.818 633.293 195.484 631.691 195.484C630.755 195.484 629.675 194.98 629.279 194.638L628.253 196.402C629.063 197.032 630.413 197.482 631.655 197.482C634.895 197.482 636.371 196.132 636.371 193.378V183.55H634.193V184.414H634.175C633.869 183.982 633.041 183.334 631.493 183.334C629.099 183.334 627.533 184.972 627.533 187.636V189.202C627.533 191.884 628.793 193.432 631.331 193.432C632.519 193.432 633.581 193.09 634.103 192.136H634.139V193.36ZM629.765 187.924C629.765 186.268 630.431 185.278 631.871 185.278C633.437 185.278 634.139 186.322 634.139 187.24V189.076C634.139 190.426 633.275 191.506 631.781 191.506C630.467 191.506 629.765 190.534 629.765 188.86V187.924ZM639.689 187.618V187.24C639.689 186.124 640.445 185.206 641.957 185.206C643.541 185.206 644.153 186.124 644.153 187.186V187.618H639.689ZM645.143 190.912C644.153 191.488 643.307 191.722 642.137 191.722C640.553 191.722 639.689 190.912 639.689 189.328H646.331V187.69C646.331 184.792 644.513 183.334 641.993 183.334C639.473 183.334 637.475 184.738 637.475 187.96V188.986C637.475 192.532 639.725 193.612 642.011 193.612C643.865 193.612 645.125 193.198 646.079 192.55L645.143 190.912ZM658.013 183.334C656.519 183.334 655.637 183.856 654.935 184.846C654.575 183.946 653.513 183.334 652.289 183.334C651.011 183.334 650.057 183.91 649.571 184.81H649.535V183.55H647.393V193.468H649.661V187.384C649.661 186.016 650.417 185.35 651.479 185.35C652.487 185.35 653.279 185.836 653.279 187.51V193.468H655.547V187.474C655.547 185.818 656.483 185.35 657.365 185.35C658.319 185.35 659.165 185.764 659.165 187.546V193.468H661.433V187.078C661.433 184.594 659.849 183.334 658.013 183.334ZM664.652 187.618V187.24C664.652 186.124 665.408 185.206 666.92 185.206C668.504 185.206 669.116 186.124 669.116 187.186V187.618H664.652ZM670.106 190.912C669.116 191.488 668.27 191.722 667.1 191.722C665.516 191.722 664.652 190.912 664.652 189.328H671.294V187.69C671.294 184.792 669.476 183.334 666.956 183.334C664.436 183.334 662.438 184.738 662.438 187.96V188.986C662.438 192.532 664.688 193.612 666.974 193.612C668.828 193.612 670.088 193.198 671.042 192.55L670.106 190.912ZM677.468 183.334C676.298 183.334 675.236 183.694 674.534 184.684H674.498V183.55H672.356V193.468H674.624V187.6C674.624 185.638 676.028 185.314 676.766 185.314C678.044 185.314 678.656 186.016 678.656 187.492V193.468H680.924V187.006C680.924 184.342 679.25 183.334 677.468 183.334ZM683.086 190.66C683.086 192.514 683.788 193.612 686.056 193.612C686.938 193.612 687.676 193.378 688.09 193.198L687.73 191.38C687.208 191.596 686.776 191.668 686.326 191.668C685.732 191.668 685.354 191.488 685.354 190.642V185.422H687.856V183.55H685.354V181.012H683.086V183.55H681.502V185.422H683.086V190.66ZM592.581 202.292C589.575 202.292 587.163 204.002 587.163 207.89V210.212C587.163 214.082 589.647 215.666 592.473 215.666C593.913 215.666 595.803 215.45 597.351 213.938L596.127 212.174C595.101 213.236 593.769 213.524 592.563 213.524C590.943 213.524 589.485 212.498 589.485 209.744V208.412C589.485 205.19 591.033 204.416 592.581 204.416C593.751 204.416 594.741 204.596 595.803 205.496L597.045 203.732C595.731 202.67 594.417 202.292 592.581 202.292ZM602.237 213.632C600.887 213.632 599.879 212.912 599.879 211.022V209.924C599.879 208.034 600.815 207.314 602.237 207.314C603.659 207.314 604.595 208.034 604.595 209.924V211.022C604.595 212.912 603.587 213.632 602.237 213.632ZM602.237 215.612C605.045 215.612 606.881 213.956 606.881 211.058V209.888C606.881 206.972 605.045 205.334 602.237 205.334C599.429 205.334 597.593 206.972 597.593 209.888V211.058C597.593 213.956 599.429 215.612 602.237 215.612ZM613.098 205.334C611.928 205.334 610.866 205.694 610.164 206.684H610.128V205.55H607.986V215.468H610.254V209.6C610.254 207.638 611.658 207.314 612.396 207.314C613.674 207.314 614.286 208.016 614.286 209.492V215.468H616.554V209.006C616.554 206.342 614.88 205.334 613.098 205.334ZM621.362 213.686C620.12 213.686 619.13 213.254 618.248 212.66L617.24 214.388C618.194 215.162 619.76 215.612 621.416 215.612C623.936 215.612 625.358 214.28 625.358 212.732V212.534C625.358 210.41 624.242 209.852 621.722 209.348C620.192 209.042 619.886 208.934 619.886 208.232V208.124C619.886 207.602 620.336 207.242 621.74 207.242C622.604 207.242 623.468 207.422 624.134 207.872L625.106 206.234C623.954 205.46 622.586 205.334 621.452 205.334C618.68 205.334 617.618 206.756 617.618 208.106V208.286C617.618 210.158 618.572 210.914 620.984 211.382C622.838 211.742 623.054 211.904 623.054 212.588V212.696C623.054 213.452 622.388 213.686 621.362 213.686ZM629.583 215.63C630.663 215.63 631.905 215.216 632.463 214.28H632.499V215.468H634.659V205.55H632.391V211.328C632.391 213.11 631.185 213.65 630.285 213.65C629.223 213.65 628.413 213.2 628.413 211.472V205.55H626.145V211.958C626.145 214.37 627.513 215.63 629.583 215.63ZM636.282 215.468H638.55V201.86H636.282V215.468ZM640.806 212.66C640.806 214.514 641.508 215.612 643.776 215.612C644.658 215.612 645.396 215.378 645.81 215.198L645.45 213.38C644.928 213.596 644.496 213.668 644.046 213.668C643.452 213.668 643.074 213.488 643.074 212.642V207.422H645.576V205.55H643.074V203.012H640.806V205.55H639.222V207.422H640.806V212.66ZM649.394 215.612C650.438 215.612 651.842 215.126 652.22 214.244L652.256 215.468H654.29V208.502C654.29 206.504 652.616 205.334 650.294 205.334C648.602 205.334 647.36 205.964 646.352 206.666L647.468 208.322C648.296 207.674 649.214 207.332 650.276 207.332C651.5 207.332 652.04 207.836 652.04 209.06V209.438H649.772C646.982 209.438 646.028 210.644 646.028 212.264V212.84C646.028 214.586 647.27 215.612 649.394 215.612ZM652.04 211.472C652.04 212.21 652.04 212.642 651.626 213.038C651.158 213.506 650.528 213.704 649.574 213.704C648.692 213.704 648.224 213.326 648.224 212.678V212.462C648.224 211.688 648.638 211.202 649.826 211.202H652.04V211.472ZM656.4 212.66C656.4 214.514 657.102 215.612 659.37 215.612C660.252 215.612 660.99 215.378 661.404 215.198L661.044 213.38C660.522 213.596 660.09 213.668 659.64 213.668C659.046 213.668 658.668 213.488 658.668 212.642V207.422H661.17V205.55H658.668V203.012H656.4V205.55H654.816V207.422H656.4V212.66ZM662.18 215.468H664.448V205.55H662.18V215.468ZM662.126 204.092H664.502V201.644H662.126V204.092ZM670.248 213.632C668.898 213.632 667.89 212.912 667.89 211.022V209.924C667.89 208.034 668.826 207.314 670.248 207.314C671.67 207.314 672.606 208.034 672.606 209.924V211.022C672.606 212.912 671.598 213.632 670.248 213.632ZM670.248 215.612C673.056 215.612 674.892 213.956 674.892 211.058V209.888C674.892 206.972 673.056 205.334 670.248 205.334C667.44 205.334 665.604 206.972 665.604 209.888V211.058C665.604 213.956 667.44 215.612 670.248 215.612ZM681.109 205.334C679.939 205.334 678.877 205.694 678.175 206.684H678.139V205.55H675.997V215.468H678.265V209.6C678.265 207.638 679.669 207.314 680.407 207.314C681.685 207.314 682.297 208.016 682.297 209.492V215.468H684.565V209.006C684.565 206.342 682.891 205.334 681.109 205.334ZM614.474 224.49V226.434H618.29V237.468H620.594V226.434H624.392V224.49H614.474ZM625.467 231.618V231.24C625.467 230.124 626.223 229.206 627.735 229.206C629.319 229.206 629.931 230.124 629.931 231.186V231.618H625.467ZM630.921 234.912C629.931 235.488 629.085 235.722 627.915 235.722C626.331 235.722 625.467 234.912 625.467 233.328H632.109V231.69C632.109 228.792 630.291 227.334 627.771 227.334C625.251 227.334 623.253 228.738 623.253 231.96V232.986C623.253 236.532 625.503 237.612 627.789 237.612C629.643 237.612 630.903 237.198 631.857 236.55L630.921 234.912ZM636.033 237.612C637.077 237.612 638.481 237.126 638.859 236.244L638.895 237.468H640.929V230.502C640.929 228.504 639.255 227.334 636.933 227.334C635.241 227.334 633.999 227.964 632.991 228.666L634.107 230.322C634.935 229.674 635.853 229.332 636.915 229.332C638.139 229.332 638.679 229.836 638.679 231.06V231.438H636.411C633.621 231.438 632.667 232.644 632.667 234.264V234.84C632.667 236.586 633.909 237.612 636.033 237.612ZM638.679 233.472C638.679 234.21 638.679 234.642 638.265 235.038C637.797 235.506 637.167 235.704 636.213 235.704C635.331 235.704 634.863 235.326 634.863 234.678V234.462C634.863 233.688 635.277 233.202 636.465 233.202H638.679V233.472ZM653.03 227.334C651.536 227.334 650.654 227.856 649.952 228.846C649.592 227.946 648.53 227.334 647.306 227.334C646.028 227.334 645.074 227.91 644.588 228.81H644.552V227.55H642.41V237.468H644.678V231.384C644.678 230.016 645.434 229.35 646.496 229.35C647.504 229.35 648.296 229.836 648.296 231.51V237.468H650.564V231.474C650.564 229.818 651.5 229.35 652.382 229.35C653.336 229.35 654.182 229.764 654.182 231.546V237.468H656.45V231.078C656.45 228.594 654.866 227.334 653.03 227.334Z" fill="#222222"/>
<path d="M636 46L636 120" stroke="#AAAAAA" stroke-width="2" stroke-dasharray="4 4"/>
<rect x="500" width="272" height="74" rx="37" fill="#33B9A5"/>
<path d="M580.155 40.38C578.955 41.56 577.515 41.9 576.135 41.9C573.955 41.9 572.355 40.44 572.355 37.14V35.48C572.355 32.18 573.955 30.72 576.135 30.72C577.435 30.72 578.575 30.98 579.875 32.04L580.895 30.42C579.555 29.36 578.115 28.88 576.135 28.88C572.715 28.88 570.355 31.02 570.355 35.22V37.4C570.355 41.64 572.695 43.74 576.135 43.74C578.075 43.74 579.795 43.28 581.235 41.9L580.155 40.38ZM586.027 41.32L583.127 32.58H581.027L585.007 43.68L583.587 47.42L585.347 48.04L591.027 32.58H588.987L586.107 41.32H586.027ZM593.517 28.4H591.577V43.52H593.457V42.24H593.497C593.977 43.02 594.937 43.68 596.577 43.68C599.137 43.68 600.917 41.94 600.917 38.98V37.04C600.917 34.08 599.397 32.38 596.637 32.38C595.437 32.38 594.217 32.76 593.517 33.84V28.4ZM593.497 36.86C593.497 35.16 594.797 34.08 596.377 34.08C597.997 34.08 598.997 35.28 598.997 37.36V38.7C598.997 40.76 598.017 41.98 596.377 41.98C594.697 41.98 593.497 40.76 593.497 39.62V36.86ZM606.334 34.04C607.994 34.04 609.034 35.12 609.034 36.8V37.16H603.554V36.88C603.554 35.2 604.714 34.04 606.334 34.04ZM609.834 41.02C608.894 41.62 607.934 42 606.514 42C604.774 42 603.554 40.88 603.554 38.82V38.74H610.914V37.28C610.914 34.16 609.134 32.38 606.334 32.38C603.634 32.38 601.634 34.08 601.634 37.4V38.64C601.634 42.18 603.734 43.68 606.434 43.68C608.414 43.68 609.694 43.14 610.654 42.48L609.834 41.02ZM618.647 32.6C618.207 32.46 617.727 32.38 617.227 32.38C615.627 32.38 614.647 33.1 614.007 34.32H613.987V32.58H612.107V43.52H614.047V37.14C614.047 35.42 615.287 34.22 616.727 34.22C617.247 34.22 617.687 34.32 618.067 34.48L618.647 32.6ZM627.727 41.94C626.487 41.94 624.727 41.24 623.647 40.42L622.647 42.04C623.847 43 625.627 43.74 627.667 43.74C630.627 43.74 632.807 42.38 632.807 39.74V39.38C632.807 37.38 631.707 36.12 628.147 35.32C626.007 34.84 624.827 34.36 624.827 33.04V32.72C624.827 31.58 626.007 30.66 627.807 30.66C629.127 30.66 630.187 30.96 631.247 31.68L632.187 30.14C630.967 29.32 629.547 28.88 627.787 28.88C624.467 28.88 622.847 30.78 622.847 32.74V33.1C622.847 35.7 624.927 36.54 627.647 37.12C629.987 37.62 630.807 38.26 630.807 39.52V39.84C630.807 40.98 629.767 41.94 627.727 41.94ZM634.231 32.58V43.52H636.171V32.58H634.231ZM634.171 28.66V30.78H636.231V28.66H634.171ZM647.167 36.28C647.167 33.64 645.447 32.38 643.327 32.38C641.827 32.38 640.707 32.94 640.047 33.96H640.027V32.58H638.147V43.52H640.087V36.74C640.087 35.02 641.527 34.1 642.847 34.1C644.467 34.1 645.227 34.88 645.227 36.72V43.52H647.167V36.28ZM663.939 36.34C663.939 33.82 662.559 32.38 660.319 32.38C658.599 32.38 657.619 33.14 656.919 34.2C656.359 33.04 655.239 32.38 653.779 32.38C652.259 32.38 651.279 33.1 650.859 34.06H650.839V32.58H648.919V43.52H650.859V36.6C650.859 34.88 652.199 34.14 653.399 34.14C654.779 34.14 655.459 35.06 655.459 36.96V43.52H657.399V36.7C657.399 34.92 658.719 34.14 659.939 34.14C661.319 34.14 661.999 35.06 661.999 36.96V43.52H663.939V36.34ZM665.548 39.82C665.548 42.46 667.228 43.72 669.348 43.72C670.848 43.72 671.928 43.16 672.588 42.14H672.608V43.52H674.488V32.58H672.548V39.36C672.548 41.08 671.148 42 669.828 42C668.208 42 667.488 41.22 667.488 39.38V32.58H665.548V39.82ZM685.422 36.28C685.422 33.64 683.702 32.38 681.582 32.38C680.082 32.38 678.962 32.94 678.302 33.96H678.282V32.58H676.402V43.52H678.342V36.74C678.342 35.02 679.782 34.1 681.102 34.1C682.722 34.1 683.482 34.88 683.482 36.72V43.52H685.422V36.28ZM695.975 32.58H694.035V33.72C693.595 33.08 692.635 32.38 690.975 32.38C688.415 32.38 686.635 34.12 686.635 37.08V38.82C686.635 41.78 688.135 43.48 690.895 43.48C692.215 43.48 693.415 43.08 694.035 42.04V43.38C694.035 45.32 693.035 46.22 691.155 46.22C690.075 46.22 689.055 45.84 688.335 45.3L687.455 46.82C688.355 47.52 689.615 47.98 691.095 47.98C694.315 47.98 695.975 46.44 695.975 43.38V32.58ZM694.055 39.02C694.055 40.72 692.755 41.78 691.175 41.78C689.555 41.78 688.555 40.58 688.555 38.5V37.36C688.555 35.3 689.535 34.08 691.175 34.08C692.855 34.08 694.055 35.26 694.055 36.4V39.02ZM702.209 32.38C699.209 32.38 697.329 34.18 697.329 37.36V38.7C697.329 41.86 699.209 43.68 702.209 43.68C705.209 43.68 707.089 41.86 707.089 38.7V37.36C707.089 34.2 705.209 32.38 702.209 32.38ZM702.209 41.98C700.469 41.98 699.289 40.86 699.289 38.54V37.52C699.289 35.2 700.469 34.08 702.209 34.08C703.949 34.08 705.129 35.2 705.129 37.52V38.54C705.129 40.86 703.949 41.98 702.209 41.98Z" fill="white"/>
<defs>
<filter id="filter0_d_182_6626" x="0" y="110" width="220" height="220" filterUnits="userSpaceOnUse" color-interpolation-filters="sRGB">
<feFlood flood-opacity="0" result="BackgroundImageFix"/>
<feColorMatrix in="SourceAlpha" type="matrix" values="0 0 0 0 0 0 0 0 0 0 0 0 0 0 0 0 0 0 127 0" result="hardAlpha"/>
<feOffset dx="10" dy="10"/>
<feGaussianBlur stdDeviation="10"/>
<feColorMatrix type="matrix" values="0 0 0 0 0 0 0 0 0 0 0 0 0 0 0 0 0 0 0.059 0"/>
<feBlend mode="normal" in2="BackgroundImageFix" result="effect1_dropShadow_182_6626"/>
<feBlend mode="normal" in="SourceGraphic" in2="effect1_dropShadow_182_6626" result="shape"/>
</filter>
<filter id="filter1_d_182_6626" x="200" y="110" width="220" height="220" filterUnits="userSpaceOnUse" color-interpolation-filters="sRGB">
<feFlood flood-opacity="0" result="BackgroundImageFix"/>
<feColorMatrix in="SourceAlpha" type="matrix" values="0 0 0 0 0 0 0 0 0 0 0 0 0 0 0 0 0 0 127 0" result="hardAlpha"/>
<feOffset dx="10" dy="10"/>
<feGaussianBlur stdDeviation="10"/>
<feColorMatrix type="matrix" values="0 0 0 0 0 0 0 0 0 0 0 0 0 0 0 0 0 0 0.059 0"/>
<feBlend mode="normal" in2="BackgroundImageFix" result="effect1_dropShadow_182_6626"/>
<feBlend mode="normal" in="SourceGraphic" in2="effect1_dropShadow_182_6626" result="shape"/>
</filter>
<filter id="filter2_d_182_6626" x="536" y="110" width="220" height="220" filterUnits="userSpaceOnUse" color-interpolation-filters="sRGB">
<feFlood flood-opacity="0" result="BackgroundImageFix"/>
<feColorMatrix in="SourceAlpha" type="matrix" values="0 0 0 0 0 0 0 0 0 0 0 0 0 0 0 0 0 0 127 0" result="hardAlpha"/>
<feOffset dx="10" dy="10"/>
<feGaussianBlur stdDeviation="10"/>
<feColorMatrix type="matrix" values="0 0 0 0 0 0 0 0 0 0 0 0 0 0 0 0 0 0 0.059 0"/>
<feBlend mode="normal" in2="BackgroundImageFix" result="effect1_dropShadow_182_6626"/>
<feBlend mode="normal" in="SourceGraphic" in2="effect1_dropShadow_182_6626" result="shape"/>
</filter>
</defs>
</svg>
