<svg width="345" height="518" viewBox="0 0 345 518" fill="none" xmlns="http://www.w3.org/2000/svg">
<path d="M345 0.988281H0V443.988H345V0.988281Z" fill="white"/>
<path d="M196.684 37.2043C196.684 38.2963 197.584 39.7363 199.456 39.7363C201.328 39.7363 202.228 38.2963 202.228 37.2043V36.5803C202.228 35.4883 201.328 34.0483 199.456 34.0483C197.584 34.0483 196.684 35.4883 196.684 36.5803V37.2043ZM206.692 36.7003H205.12V33.6043H203.944V41.5003H205.12V37.7323H206.692V36.7003ZM199.552 40.8763H198.364V44.5483H205.42V43.5163H199.552V40.8763ZM201.088 37.1563C201.088 37.8883 200.608 38.7043 199.456 38.7043C198.316 38.7043 197.824 37.8883 197.824 37.1563V36.6283C197.824 35.8963 198.304 35.0803 199.456 35.0803C200.608 35.0803 201.088 35.8963 201.088 36.6283V37.1563ZM210.162 37.9603C210.246 38.1403 210.486 38.3683 210.846 38.6683C211.422 39.1483 211.938 39.5443 212.562 39.9763L213.234 39.1123C212.538 38.6443 211.914 38.1883 211.338 37.6843C210.822 37.2403 210.714 36.7843 210.714 36.0163V35.3323H212.898V34.3123H207.186V35.3323H209.514V36.0643C209.514 36.9403 209.322 37.4203 208.734 37.9723C208.314 38.3683 207.582 38.9323 206.814 39.4723L207.51 40.3243C208.182 39.8563 208.842 39.3523 209.346 38.8963C209.718 38.5603 210.078 38.1643 210.15 37.9603H210.162ZM215.826 41.4883V33.6043H214.65V36.4243H212.61V37.4443H214.65V41.4883H215.826ZM210.102 40.8523H208.914V44.5483H216.054V43.5163H210.102V40.8523ZM225.512 34.4083H224.336V36.3043H219.392V34.4203H218.216V40.0963H221.264V42.1843H216.788V43.1923H226.94V42.1843H222.452V40.0963H225.512V34.4083ZM219.392 37.3123H224.336V39.0883H219.392V37.3123ZM236.23 41.5003V33.6043H235.054V36.5323H232.522C232.534 36.4483 232.534 36.3523 232.534 36.2563V34.3123H227.818V35.3203H231.37V36.1963C231.37 37.4083 230.794 37.9963 227.362 39.4963L227.83 40.4563C230.602 39.2683 231.826 38.5363 232.282 37.5523H235.054V41.5003H236.23ZM230.506 40.9123H229.318V44.5483H236.458V43.5163H230.506V40.9123ZM239.687 42.8683C239.687 44.0323 240.959 44.9803 243.083 44.9803C245.207 44.9803 246.479 44.0323 246.479 42.8683V42.3883C246.479 41.2243 245.207 40.2763 243.083 40.2763C240.959 40.2763 239.687 41.2243 239.687 42.3883V42.8683ZM241.535 35.9443C241.535 37.2163 240.887 37.8043 237.551 39.1963L238.019 40.1443C241.799 38.5363 242.699 37.8643 242.699 36.0283V34.2883H238.007V35.2963H241.535V35.9443ZM246.431 40.1323V33.6043H245.267V35.2003H243.311V36.2203H245.267V37.5043H243.131V38.5243H245.267V40.1323H246.431ZM245.315 42.7963C245.315 43.3843 244.451 44.0083 243.083 44.0083C241.715 44.0083 240.851 43.3843 240.851 42.7963V42.4603C240.851 41.8723 241.715 41.2483 243.083 41.2483C244.451 41.2483 245.315 41.8723 245.315 42.4603V42.7963ZM249.889 42.8683C249.889 44.0323 251.161 44.9803 253.285 44.9803C255.409 44.9803 256.681 44.0323 256.681 42.8683V42.3883C256.681 41.2243 255.409 40.2763 253.285 40.2763C251.161 40.2763 249.889 41.2243 249.889 42.3883V42.8683ZM253.237 36.4483C253.237 35.3803 252.373 34.0243 250.489 34.0243C248.605 34.0243 247.741 35.3803 247.741 36.4483V37.0603C247.741 38.1283 248.605 39.4843 250.489 39.4843C252.373 39.4843 253.237 38.1283 253.237 37.0603V36.4483ZM256.633 40.1323V33.6043H255.469V34.9843H253.729V36.0043H255.469V37.4803H253.729V38.5003H255.469V40.1323H256.633ZM255.517 42.7963C255.517 43.3843 254.653 44.0083 253.285 44.0083C251.917 44.0083 251.053 43.3843 251.053 42.7963V42.4603C251.053 41.8723 251.917 41.2483 253.285 41.2483C254.653 41.2483 255.517 41.8723 255.517 42.4603V42.7963ZM252.097 37.0003C252.097 37.7083 251.593 38.4523 250.489 38.4523C249.385 38.4523 248.881 37.7083 248.881 37.0003V36.5083C248.881 35.8003 249.385 35.0563 250.489 35.0563C251.593 35.0563 252.097 35.8003 252.097 36.5083V37.0003ZM266.763 44.6683V33.6043H265.575V44.6683H266.763ZM261.075 39.1363C261.171 39.3763 261.459 39.7123 261.795 40.0723C262.251 40.5643 262.791 41.1043 263.619 41.8723L264.387 41.0563C263.667 40.4203 263.139 39.9163 262.623 39.3523C261.891 38.5363 261.663 38.0443 261.663 37.0963V34.3963H260.463V37.0963C260.463 37.9483 260.271 38.4883 259.539 39.3163C258.999 39.9163 258.375 40.5283 257.643 41.1763L258.423 41.9803C259.239 41.2363 259.875 40.6003 260.367 40.0603C260.751 39.6403 260.955 39.4003 261.063 39.1363H261.075ZM267.797 42.1843V43.1923H277.949V42.1843H267.797ZM272.885 37.7923C273.017 38.0683 273.509 38.4883 274.289 38.9803C275.009 39.4363 275.885 39.9403 276.773 40.4443L277.349 39.5203C276.401 39.0043 275.705 38.6083 274.949 38.1163C273.653 37.2643 273.473 36.7723 273.473 35.5963V34.3843H272.273V35.5963C272.273 36.7723 272.021 37.2883 270.929 38.0323C270.125 38.5723 269.369 39.0043 268.409 39.5323L268.997 40.4683C269.993 39.9163 270.761 39.4483 271.457 39.0043C272.261 38.4883 272.753 38.0683 272.873 37.7923H272.885ZM287.407 40.6123H280.363V44.6803H287.407V40.6123ZM283.159 38.3323C282.031 38.4643 281.371 38.5003 279.571 38.5003V37.3123H282.199V36.3643H279.571V35.1763H282.679V34.2043H278.431V39.4723C281.407 39.4723 282.151 39.4483 283.279 39.2923L283.159 38.3323ZM286.243 43.6843H281.527V41.6083H286.243V43.6843ZM282.799 37.1923H284.203V40.0123H285.331V33.7483H284.203V36.1843H282.799V37.1923ZM286.267 40.0363H287.407V33.6043H286.267V40.0363Z" fill="#222222"/>
<path d="M197.476 61.2563C201.856 58.6043 202.024 57.9323 202.024 55.7483V53.6243H197.068V54.6443H200.848V55.7363C200.848 57.4403 200.68 58.0643 196.852 60.3083L197.476 61.2563ZM205.552 63.6683V52.6043H204.364V63.6683H205.552ZM212.298 58.7363V53.1683H211.134V55.0763H208.29V53.1683H207.126V58.7363H212.298ZM216.894 55.7003H215.322V52.6043H214.146V60.5003H215.322V56.7323H216.894V55.7003ZM209.754 59.9603H208.566V63.5483H215.622V62.5163H209.754V59.9603ZM208.29 56.0723H211.134V57.7283H208.29V56.0723ZM224.156 56.7803C224.276 56.9843 224.672 57.3443 225.464 57.8483C226.268 58.3523 226.904 58.7123 227.924 59.2523L228.512 58.3043C227.504 57.7883 226.916 57.4763 225.992 56.8883C225.032 56.2763 224.744 55.7603 224.744 54.8603V54.5723H227.96V53.5403H220.328V54.5723H223.544V54.8603C223.544 55.7723 223.208 56.3123 222.284 56.9123C221.516 57.4043 220.808 57.7883 219.776 58.3163L220.364 59.2643C221.264 58.7963 221.996 58.3883 222.812 57.8723C223.604 57.3683 224.012 56.9963 224.144 56.7803H224.156ZM224.744 61.1843V58.8203H223.544V61.1843H219.068V62.1923H229.22V61.1843H224.744ZM231.718 61.8803C231.718 63.0443 232.99 63.9803 235.114 63.9803C237.238 63.9803 238.51 63.0443 238.51 61.8803V61.4003C238.51 60.2363 237.238 59.3003 235.114 59.3003C232.99 59.3003 231.718 60.2363 231.718 61.4003V61.8803ZM232.666 56.4563C232.738 56.6363 232.99 56.9003 233.35 57.2003C233.926 57.6803 234.478 58.1363 235.102 58.6043L235.798 57.7763C235.09 57.2603 234.406 56.7203 233.842 56.2043C233.266 55.6763 233.218 55.2803 233.218 54.5363V53.0963H232.018V54.5843C232.018 55.4243 231.85 55.8803 231.238 56.4923C230.818 56.9123 230.074 57.5483 229.306 58.1363L230.014 58.9763C230.65 58.4723 231.358 57.8723 231.85 57.4163C232.222 57.0803 232.594 56.6603 232.654 56.4563H232.666ZM238.462 59.1443V52.6043H237.286V54.9923H235.066V56.0123H237.286V59.1443H238.462ZM237.346 61.8083C237.346 62.3963 236.482 63.0083 235.114 63.0083C233.746 63.0083 232.882 62.3963 232.882 61.8083V61.4723C232.882 60.8843 233.746 60.2723 235.114 60.2723C236.482 60.2723 237.346 60.8843 237.346 61.4723V61.8083Z" fill="#222222"/>
<path d="M203.65 16.4563V3.47828H202.156L197.98 5.92628L198.826 7.36628L201.868 5.56628V16.4563H203.65ZM219.73 9.02228C217.228 9.29228 216.112 9.36428 212.422 9.36428V4.52228H218.362V2.99228H210.676V10.8943C215.86 10.8943 217.372 10.8223 219.91 10.4983L219.73 9.02228ZM225.364 6.23228H223.006V1.91228H221.242V13.7563H223.006V7.78028H225.364V6.23228ZM214.654 12.8203H212.872V18.3283H223.456V16.7803H214.654V12.8203ZM230.371 6.61028C230.371 9.05828 230.371 10.3183 225.295 13.5763L226.285 14.9623C231.163 11.7043 232.009 10.3183 232.099 7.51028H234.493V10.2463H232.063V11.7943H234.493V17.6983H236.239V2.25428H234.493V5.96228H232.117V3.53228H225.763V5.06228H230.371V6.61028ZM239.623 1.91228H237.877V18.5083H239.623V1.91228Z" fill="#4A89DB"/>
<path d="M134.832 14.0043V3.47628H133.28V5.26828H129.104V6.56428H133.28V7.84428H129.104V9.14028H133.28V14.0043H134.832ZM123.424 4.35628V11.9083C127.712 11.9083 129.344 11.8123 131.632 11.5083L131.472 10.1963C129.104 10.5003 127.616 10.5483 124.976 10.5483V4.35628H123.424ZM127.2 13.4923H125.616V18.0683H135.136V16.6923H127.2V13.4923Z" fill="#4A89DB"/>
<path d="M75.092 12.8123C76.712 12.8123 77.648 11.5343 77.792 9.55428H76.262C76.136 10.6523 75.83 11.3003 75.11 11.3003C73.994 11.3003 73.472 9.60828 71.726 9.60828C70.16 9.60828 69.188 11.0663 69.044 12.8663H70.61C70.7 12.1823 71.006 11.1203 71.744 11.1203C72.806 11.1203 73.328 12.8123 75.092 12.8123ZM78.865 15.9623V17.4563H87.577V15.9083H81.061L85.111 11.5883C86.281 10.3463 87.109 9.12228 87.109 7.71828V7.53828C87.109 5.64828 85.687 4.28028 83.059 4.28028C80.665 4.28028 79.513 5.77428 78.901 6.89028L80.269 7.77228C81.115 6.26028 82.141 5.88228 83.095 5.88228C84.445 5.88228 85.327 6.51228 85.327 7.53828V7.68228C85.327 8.36628 85.183 9.08628 83.707 10.7063L78.865 15.9623ZM97.6993 9.95028C97.6993 6.31428 96.1693 4.28028 93.1093 4.28028C90.0853 4.28028 88.5193 6.31428 88.5193 9.95028V11.9663C88.5193 15.6023 90.0313 17.6543 93.1093 17.6543C96.2233 17.6543 97.6993 15.6383 97.6993 11.9663V9.95028ZM95.8813 11.9843C95.8813 15.1883 94.6933 15.9983 93.1093 15.9983C91.5973 15.9983 90.3373 15.1703 90.3373 11.9843V9.93228C90.3373 6.78228 91.5973 5.93628 93.1093 5.93628C94.6933 5.93628 95.8813 6.76428 95.8813 9.93228V11.9843ZM105.176 17.4563V4.47828H103.682L99.5056 6.92628L100.352 8.36628L103.394 6.56628V17.4563H105.176ZM115.082 17.4563V4.47828H113.588L109.412 6.92628L110.258 8.36628L113.3 6.56628V17.4563H115.082Z" fill="#4A89DB"/>
<path d="M196.682 163.204C196.682 164.296 197.582 165.736 199.454 165.736C201.326 165.736 202.226 164.296 202.226 163.204V162.58C202.226 161.488 201.326 160.048 199.454 160.048C197.582 160.048 196.682 161.488 196.682 162.58V163.204ZM206.69 162.7H205.118V159.604H203.942V167.5H205.118V163.732H206.69V162.7ZM199.55 166.876H198.362V170.548H205.418V169.516H199.55V166.876ZM201.086 163.156C201.086 163.888 200.606 164.704 199.454 164.704C198.314 164.704 197.822 163.888 197.822 163.156V162.628C197.822 161.896 198.302 161.08 199.454 161.08C200.606 161.08 201.086 161.896 201.086 162.628V163.156ZM210.16 163.96C210.244 164.14 210.484 164.368 210.844 164.668C211.42 165.148 211.936 165.544 212.56 165.976L213.232 165.112C212.536 164.644 211.912 164.188 211.336 163.684C210.82 163.24 210.712 162.784 210.712 162.016V161.332H212.896V160.312H207.184V161.332H209.512V162.064C209.512 162.94 209.32 163.42 208.732 163.972C208.312 164.368 207.58 164.932 206.812 165.472L207.508 166.324C208.18 165.856 208.84 165.352 209.344 164.896C209.716 164.56 210.076 164.164 210.148 163.96H210.16ZM215.824 167.488V159.604H214.648V162.424H212.608V163.444H214.648V167.488H215.824ZM210.1 166.852H208.912V170.548H216.052V169.516H210.1V166.852ZM225.51 160.408H224.334V162.304H219.39V160.42H218.214V166.096H221.262V168.184H216.786V169.192H226.938V168.184H222.45V166.096H225.51V160.408ZM219.39 163.312H224.334V165.088H219.39V163.312ZM236.228 167.5V159.604H235.052V162.532H232.52C232.532 162.448 232.532 162.352 232.532 162.256V160.312H227.816V161.32H231.368V162.196C231.368 163.408 230.792 163.996 227.36 165.496L227.828 166.456C230.6 165.268 231.824 164.536 232.28 163.552H235.052V167.5H236.228ZM230.504 166.912H229.316V170.548H236.456V169.516H230.504V166.912ZM239.686 168.868C239.686 170.032 240.958 170.98 243.082 170.98C245.206 170.98 246.478 170.032 246.478 168.868V168.388C246.478 167.224 245.206 166.276 243.082 166.276C240.958 166.276 239.686 167.224 239.686 168.388V168.868ZM241.534 161.944C241.534 163.216 240.886 163.804 237.55 165.196L238.018 166.144C241.798 164.536 242.698 163.864 242.698 162.028V160.288H238.006V161.296H241.534V161.944ZM246.43 166.132V159.604H245.266V161.2H243.31V162.22H245.266V163.504H243.13V164.524H245.266V166.132H246.43ZM245.314 168.796C245.314 169.384 244.45 170.008 243.082 170.008C241.714 170.008 240.85 169.384 240.85 168.796V168.46C240.85 167.872 241.714 167.248 243.082 167.248C244.45 167.248 245.314 167.872 245.314 168.46V168.796ZM249.887 168.868C249.887 170.032 251.159 170.98 253.283 170.98C255.407 170.98 256.679 170.032 256.679 168.868V168.388C256.679 167.224 255.407 166.276 253.283 166.276C251.159 166.276 249.887 167.224 249.887 168.388V168.868ZM253.235 162.448C253.235 161.38 252.371 160.024 250.487 160.024C248.603 160.024 247.739 161.38 247.739 162.448V163.06C247.739 164.128 248.603 165.484 250.487 165.484C252.371 165.484 253.235 164.128 253.235 163.06V162.448ZM256.631 166.132V159.604H255.467V160.984H253.727V162.004H255.467V163.48H253.727V164.5H255.467V166.132H256.631ZM255.515 168.796C255.515 169.384 254.651 170.008 253.283 170.008C251.915 170.008 251.051 169.384 251.051 168.796V168.46C251.051 167.872 251.915 167.248 253.283 167.248C254.651 167.248 255.515 167.872 255.515 168.46V168.796ZM252.095 163C252.095 163.708 251.591 164.452 250.487 164.452C249.383 164.452 248.879 163.708 248.879 163V162.508C248.879 161.8 249.383 161.056 250.487 161.056C251.591 161.056 252.095 161.8 252.095 162.508V163ZM266.761 170.668V159.604H265.573V170.668H266.761ZM261.073 165.136C261.169 165.376 261.457 165.712 261.793 166.072C262.249 166.564 262.789 167.104 263.617 167.872L264.385 167.056C263.665 166.42 263.137 165.916 262.621 165.352C261.889 164.536 261.661 164.044 261.661 163.096V160.396H260.461V163.096C260.461 163.948 260.269 164.488 259.537 165.316C258.997 165.916 258.373 166.528 257.641 167.176L258.421 167.98C259.237 167.236 259.873 166.6 260.365 166.06C260.749 165.64 260.953 165.4 261.061 165.136H261.073ZM267.795 168.184V169.192H277.947V168.184H267.795ZM272.883 163.792C273.015 164.068 273.507 164.488 274.287 164.98C275.007 165.436 275.883 165.94 276.771 166.444L277.347 165.52C276.399 165.004 275.703 164.608 274.947 164.116C273.651 163.264 273.471 162.772 273.471 161.596V160.384H272.271V161.596C272.271 162.772 272.019 163.288 270.927 164.032C270.123 164.572 269.367 165.004 268.407 165.532L268.995 166.468C269.991 165.916 270.759 165.448 271.455 165.004C272.259 164.488 272.751 164.068 272.871 163.792H272.883ZM287.405 166.612H280.361V170.68H287.405V166.612ZM283.157 164.332C282.029 164.464 281.369 164.5 279.569 164.5V163.312H282.197V162.364H279.569V161.176H282.677V160.204H278.429V165.472C281.405 165.472 282.149 165.448 283.277 165.292L283.157 164.332ZM286.241 169.684H281.525V167.608H286.241V169.684ZM282.797 163.192H284.201V166.012H285.329V159.748H284.201V162.184H282.797V163.192ZM286.265 166.036H287.405V159.604H286.265V166.036ZM298.759 165.268C298.987 164.068 299.095 162.856 299.095 161.704V160.288H291.751V161.332H297.907V161.98C297.907 163.048 297.811 164.092 297.559 165.268H290.479V166.276H294.955V170.668H296.155V166.276H300.631V165.268H298.759ZM301.989 168.208H308.217V170.8H309.417V167.2H306.357V166H310.833V164.992H300.681V166H305.157V167.2H301.989V168.208ZM305.757 162.856C305.937 163.168 306.465 163.396 306.969 163.588C307.857 163.924 308.697 164.2 309.597 164.452L309.957 163.492C308.973 163.216 308.217 162.976 307.677 162.76C306.801 162.412 306.357 162.112 306.345 161.536H309.549V160.552H306.345V159.46H305.157V160.552H301.965V161.536H305.157C305.145 162.112 304.713 162.436 303.837 162.76C303.033 163.06 302.385 163.264 301.557 163.492L301.917 164.452C302.805 164.2 303.657 163.924 304.557 163.588C305.061 163.396 305.565 163.168 305.745 162.856H305.757Z" fill="#222222"/>
<path d="M197.222 187.688H198.434V186.488H197.222V187.688ZM197.222 182.384H198.434V181.184H197.222V182.384ZM208.354 179.648H207.226L203.05 184.016V179.648H202.21V188.3H203.05V185.096L204.154 183.956L207.502 188.3H208.582L204.754 183.344L208.354 179.648ZM211.888 179.516C209.74 179.516 208.516 181.016 208.516 183.38V184.568C208.516 186.932 209.752 188.432 211.888 188.432C214.024 188.432 215.26 186.932 215.26 184.568V183.38C215.26 181.016 214.024 179.516 211.888 179.516ZM211.888 187.676C210.352 187.676 209.368 186.56 209.368 184.496V183.452C209.368 181.388 210.352 180.272 211.888 180.272C213.424 180.272 214.408 181.388 214.408 183.452V184.496C214.408 186.56 213.424 187.676 211.888 187.676ZM218.949 187.652C218.169 187.652 217.329 187.388 216.477 186.764L216.045 187.472C216.813 188.06 217.845 188.432 218.985 188.432C220.857 188.432 221.961 187.4 221.961 186.164V185.888C221.961 184.652 221.337 183.992 219.105 183.488C217.533 183.128 217.053 182.696 217.053 181.952V181.712C217.053 180.812 217.965 180.284 219.033 180.284C219.921 180.284 220.653 180.536 221.205 180.932L221.601 180.248C221.013 179.828 220.197 179.516 219.033 179.516C217.389 179.516 216.201 180.404 216.201 181.712V181.988C216.201 183.08 216.825 183.8 218.841 184.256C220.689 184.676 221.109 185.096 221.109 185.912V186.164C221.109 186.944 220.305 187.652 218.949 187.652ZM228.17 188.3H229.01V179.648H228.17V183.368H223.718V179.648H222.878V188.3H223.718V184.208H228.17V188.3ZM233.712 179.648H232.764L229.548 188.3H230.412L231.396 185.612H235.056L236.016 188.3H236.916L233.712 179.648ZM232.524 182.54C232.74 181.952 232.908 181.52 233.232 180.392C233.58 181.52 233.736 181.952 233.952 182.54L234.792 184.88H231.66L232.524 182.54ZM243.314 188.3V179.648H242.678L240.002 181.304L240.386 181.976L242.474 180.704V188.3H243.314ZM247.125 181.712C247.125 180.824 247.785 180.26 248.817 180.26C249.837 180.26 250.509 180.824 250.509 181.712V181.856C250.509 182.792 249.849 183.548 248.817 183.548C247.785 183.548 247.125 182.792 247.125 181.856V181.712ZM246.885 185.936C246.885 184.892 247.701 184.232 248.817 184.232C249.957 184.232 250.749 184.916 250.749 185.936V186.08C250.749 186.968 250.029 187.676 248.817 187.676C247.617 187.676 246.885 186.968 246.885 186.08V185.936ZM246.033 186.104C246.033 187.484 247.149 188.432 248.817 188.432C250.485 188.432 251.601 187.484 251.601 186.104V185.9C251.601 184.952 250.941 184.148 250.005 183.872C250.845 183.488 251.325 182.768 251.325 181.868V181.676C251.325 180.44 250.269 179.516 248.817 179.516C247.365 179.516 246.309 180.44 246.309 181.676V181.868C246.309 182.768 246.789 183.488 247.617 183.872C246.681 184.16 246.033 184.952 246.033 185.9V186.104ZM258.233 183.296C258.233 180.872 257.321 179.516 255.281 179.516C253.265 179.516 252.353 180.872 252.353 183.296V184.64C252.353 187.064 253.229 188.432 255.281 188.432C257.357 188.432 258.233 187.088 258.233 184.64V183.296ZM257.369 184.652C257.369 186.812 256.661 187.676 255.281 187.676C253.949 187.676 253.217 186.8 253.217 184.652V183.284C253.217 181.16 253.949 180.272 255.281 180.272C256.661 180.272 257.369 181.148 257.369 183.284V184.652ZM264.708 183.296C264.708 180.872 263.796 179.516 261.756 179.516C259.74 179.516 258.828 180.872 258.828 183.296V184.64C258.828 187.064 259.704 188.432 261.756 188.432C263.832 188.432 264.708 187.088 264.708 184.64V183.296ZM263.844 184.652C263.844 186.812 263.136 187.676 261.756 187.676C260.424 187.676 259.692 186.8 259.692 184.652V183.284C259.692 181.16 260.424 180.272 261.756 180.272C263.136 180.272 263.844 181.148 263.844 183.284V184.652ZM269.215 188.3V179.648H268.579L265.903 181.304L266.287 181.976L268.375 180.704V188.3H269.215ZM277.023 185.9H276.171V189.488H283.155V188.744H277.023V185.9ZM282.879 178.652H282.039V186.5H282.879V178.652ZM277.023 184.676C278.667 184.676 279.723 183.452 279.723 182.264V181.544C279.723 180.356 278.667 179.132 277.023 179.132C275.379 179.132 274.323 180.356 274.323 181.544V182.264C274.323 183.452 275.379 184.676 277.023 184.676ZM277.023 179.888C278.139 179.888 278.907 180.716 278.907 181.616V182.192C278.907 183.092 278.139 183.92 277.023 183.92C275.907 183.92 275.139 183.092 275.139 182.192V181.616C275.139 180.716 275.907 179.888 277.023 179.888ZM289.06 185.612C287.26 185.612 285.652 186.26 285.652 187.556V187.964C285.652 189.236 287.26 189.908 289.06 189.908C290.86 189.908 292.468 189.236 292.468 187.964V187.556C292.468 186.284 290.86 185.612 289.06 185.612ZM289.048 181.352H289.06C289.192 181.604 289.744 181.916 290.488 182.216C291.112 182.48 291.94 182.792 292.924 183.116L293.236 182.456C292.228 182.132 291.316 181.796 290.728 181.544C289.744 181.124 289.48 180.776 289.48 180.152V179.84H292.78V179.12H285.34V179.84H288.628V180.152C288.628 180.776 288.352 181.112 287.368 181.544C286.768 181.808 285.952 182.108 284.86 182.468L285.196 183.128C286.18 182.804 286.936 182.516 287.62 182.228C288.364 181.916 288.916 181.616 289.048 181.352ZM289.06 189.188C287.764 189.188 286.468 188.732 286.468 187.916V187.604C286.468 186.788 287.764 186.332 289.06 186.332C290.356 186.332 291.652 186.788 291.652 187.604V187.916C291.652 188.732 290.356 189.188 289.06 189.188ZM284.02 183.884V184.616H294.1V183.884H284.02ZM300.306 182.132C300.378 182.3 300.75 182.564 301.11 182.804C301.626 183.14 302.274 183.524 302.91 183.884L303.33 183.26C302.514 182.804 301.722 182.336 301.338 182.048C300.762 181.604 300.69 181.352 300.69 180.704V180.476H303.174V179.744H300.69V178.556H299.85V179.744H297.366V180.476H299.85V180.728C299.85 181.376 299.766 181.64 299.226 182.06C298.818 182.384 297.978 182.9 297.006 183.44L297.462 184.076C298.038 183.752 298.914 183.236 299.526 182.816C299.922 182.54 300.222 182.288 300.294 182.132H300.306ZM305.682 178.652H304.83V189.62H305.682V178.652ZM303.99 184.568C302.382 184.748 300.198 184.832 296.73 184.832V185.576C297.918 185.576 298.902 185.564 299.766 185.552V189.272H300.63V185.516C301.95 185.468 302.97 185.408 304.062 185.3L303.99 184.568ZM306.704 184.112V184.844H316.784V184.112H306.704ZM307.988 186.872H314.492V189.704H315.332V186.14H307.988V186.872ZM315.224 179.12H308.228V182.828H315.284V182.096H309.056V179.852H315.224V179.12Z" fill="#222222"/>
<path d="M197.15 140.962V142.456H205.862V140.908H199.346L203.396 136.588C204.566 135.346 205.394 134.122 205.394 132.718V132.538C205.394 130.648 203.972 129.28 201.344 129.28C198.95 129.28 197.798 130.774 197.186 131.89L198.554 132.772C199.4 131.26 200.426 130.882 201.38 130.882C202.73 130.882 203.612 131.512 203.612 132.538V132.682C203.612 133.366 203.468 134.086 201.992 135.706L197.15 140.962ZM219.728 135.022C217.226 135.292 216.11 135.364 212.42 135.364V130.522H218.36V128.992H210.674V136.894C215.858 136.894 217.37 136.822 219.908 136.498L219.728 135.022ZM225.362 132.232H223.004V127.912H221.24V139.756H223.004V133.78H225.362V132.232ZM214.652 138.82H212.87V144.328H223.454V142.78H214.652V138.82ZM230.369 132.61C230.369 135.058 230.369 136.318 225.293 139.576L226.283 140.962C231.161 137.704 232.007 136.318 232.097 133.51H234.491V136.246H232.061V137.794H234.491V143.698H236.237V128.254H234.491V131.962H232.115V129.532H225.761V131.062H230.369V132.61ZM239.621 127.912H237.875V144.508H239.621V127.912Z" fill="#4798D5"/>
<path d="M134.832 140.004V129.476H133.28V131.268H129.104V132.564H133.28V133.844H129.104V135.14H133.28V140.004H134.832ZM123.424 130.356V137.908C127.712 137.908 129.344 137.812 131.632 137.508L131.472 136.196C129.104 136.5 127.616 136.548 124.976 136.548V130.356H123.424ZM127.2 139.492H125.616V144.068H135.136V142.692H127.2V139.492Z" fill="#4798D5"/>
<path d="M79.152 141.962V143.456H87.864V141.908H81.348L85.398 137.588C86.568 136.346 87.396 135.122 87.396 133.718V133.538C87.396 131.648 85.974 130.28 83.346 130.28C80.952 130.28 79.8 131.774 79.188 132.89L80.556 133.772C81.402 132.26 82.428 131.882 83.382 131.882C84.732 131.882 85.614 132.512 85.614 133.538V133.682C85.614 134.366 85.47 135.086 83.994 136.706L79.152 141.962ZM97.9863 135.95C97.9863 132.314 96.4563 130.28 93.3963 130.28C90.3723 130.28 88.8063 132.314 88.8063 135.95V137.966C88.8063 141.602 90.3183 143.654 93.3963 143.654C96.5103 143.654 97.9863 141.638 97.9863 137.966V135.95ZM96.1683 137.984C96.1683 141.188 94.9803 141.998 93.3963 141.998C91.8843 141.998 90.6243 141.17 90.6243 137.984V135.932C90.6243 132.782 91.8843 131.936 93.3963 131.936C94.9803 131.936 96.1683 132.764 96.1683 135.932V137.984ZM105.463 143.456V130.478H103.969L99.7927 132.926L100.639 134.366L103.681 132.566V143.456H105.463ZM108.871 141.962V143.456H117.583V141.908H111.067L115.117 137.588C116.287 136.346 117.115 135.122 117.115 133.718V133.538C117.115 131.648 115.693 130.28 113.065 130.28C110.671 130.28 109.519 131.774 108.907 132.89L110.275 133.772C111.121 132.26 112.147 131.882 113.101 131.882C114.451 131.882 115.333 132.512 115.333 133.538V133.682C115.333 134.366 115.189 135.086 113.713 136.706L108.871 141.962Z" fill="#4798D5"/>
<path d="M196.682 289.204C196.682 290.296 197.582 291.736 199.454 291.736C201.326 291.736 202.226 290.296 202.226 289.204V288.58C202.226 287.488 201.326 286.048 199.454 286.048C197.582 286.048 196.682 287.488 196.682 288.58V289.204ZM206.69 288.7H205.118V285.604H203.942V293.5H205.118V289.732H206.69V288.7ZM199.55 292.876H198.362V296.548H205.418V295.516H199.55V292.876ZM201.086 289.156C201.086 289.888 200.606 290.704 199.454 290.704C198.314 290.704 197.822 289.888 197.822 289.156V288.628C197.822 287.896 198.302 287.08 199.454 287.08C200.606 287.08 201.086 287.896 201.086 288.628V289.156ZM210.16 289.96C210.244 290.14 210.484 290.368 210.844 290.668C211.42 291.148 211.936 291.544 212.56 291.976L213.232 291.112C212.536 290.644 211.912 290.188 211.336 289.684C210.82 289.24 210.712 288.784 210.712 288.016V287.332H212.896V286.312H207.184V287.332H209.512V288.064C209.512 288.94 209.32 289.42 208.732 289.972C208.312 290.368 207.58 290.932 206.812 291.472L207.508 292.324C208.18 291.856 208.84 291.352 209.344 290.896C209.716 290.56 210.076 290.164 210.148 289.96H210.16ZM215.824 293.488V285.604H214.648V288.424H212.608V289.444H214.648V293.488H215.824ZM210.1 292.852H208.912V296.548H216.052V295.516H210.1V292.852ZM225.51 286.408H224.334V288.304H219.39V286.42H218.214V292.096H221.262V294.184H216.786V295.192H226.938V294.184H222.45V292.096H225.51V286.408ZM219.39 289.312H224.334V291.088H219.39V289.312ZM236.228 293.5V285.604H235.052V288.532H232.52C232.532 288.448 232.532 288.352 232.532 288.256V286.312H227.816V287.32H231.368V288.196C231.368 289.408 230.792 289.996 227.36 291.496L227.828 292.456C230.6 291.268 231.824 290.536 232.28 289.552H235.052V293.5H236.228ZM230.504 292.912H229.316V296.548H236.456V295.516H230.504V292.912ZM239.686 294.868C239.686 296.032 240.958 296.98 243.082 296.98C245.206 296.98 246.478 296.032 246.478 294.868V294.388C246.478 293.224 245.206 292.276 243.082 292.276C240.958 292.276 239.686 293.224 239.686 294.388V294.868ZM241.534 287.944C241.534 289.216 240.886 289.804 237.55 291.196L238.018 292.144C241.798 290.536 242.698 289.864 242.698 288.028V286.288H238.006V287.296H241.534V287.944ZM246.43 292.132V285.604H245.266V287.2H243.31V288.22H245.266V289.504H243.13V290.524H245.266V292.132H246.43ZM245.314 294.796C245.314 295.384 244.45 296.008 243.082 296.008C241.714 296.008 240.85 295.384 240.85 294.796V294.46C240.85 293.872 241.714 293.248 243.082 293.248C244.45 293.248 245.314 293.872 245.314 294.46V294.796ZM249.887 294.868C249.887 296.032 251.159 296.98 253.283 296.98C255.407 296.98 256.679 296.032 256.679 294.868V294.388C256.679 293.224 255.407 292.276 253.283 292.276C251.159 292.276 249.887 293.224 249.887 294.388V294.868ZM253.235 288.448C253.235 287.38 252.371 286.024 250.487 286.024C248.603 286.024 247.739 287.38 247.739 288.448V289.06C247.739 290.128 248.603 291.484 250.487 291.484C252.371 291.484 253.235 290.128 253.235 289.06V288.448ZM256.631 292.132V285.604H255.467V286.984H253.727V288.004H255.467V289.48H253.727V290.5H255.467V292.132H256.631ZM255.515 294.796C255.515 295.384 254.651 296.008 253.283 296.008C251.915 296.008 251.051 295.384 251.051 294.796V294.46C251.051 293.872 251.915 293.248 253.283 293.248C254.651 293.248 255.515 293.872 255.515 294.46V294.796ZM252.095 289C252.095 289.708 251.591 290.452 250.487 290.452C249.383 290.452 248.879 289.708 248.879 289V288.508C248.879 287.8 249.383 287.056 250.487 287.056C251.591 287.056 252.095 287.8 252.095 288.508V289ZM266.761 296.668V285.604H265.573V296.668H266.761ZM261.073 291.136C261.169 291.376 261.457 291.712 261.793 292.072C262.249 292.564 262.789 293.104 263.617 293.872L264.385 293.056C263.665 292.42 263.137 291.916 262.621 291.352C261.889 290.536 261.661 290.044 261.661 289.096V286.396H260.461V289.096C260.461 289.948 260.269 290.488 259.537 291.316C258.997 291.916 258.373 292.528 257.641 293.176L258.421 293.98C259.237 293.236 259.873 292.6 260.365 292.06C260.749 291.64 260.953 291.4 261.061 291.136H261.073ZM267.795 294.184V295.192H277.947V294.184H267.795ZM272.883 289.792C273.015 290.068 273.507 290.488 274.287 290.98C275.007 291.436 275.883 291.94 276.771 292.444L277.347 291.52C276.399 291.004 275.703 290.608 274.947 290.116C273.651 289.264 273.471 288.772 273.471 287.596V286.384H272.271V287.596C272.271 288.772 272.019 289.288 270.927 290.032C270.123 290.572 269.367 291.004 268.407 291.532L268.995 292.468C269.991 291.916 270.759 291.448 271.455 291.004C272.259 290.488 272.751 290.068 272.871 289.792H272.883ZM287.405 292.612H280.361V296.68H287.405V292.612ZM283.157 290.332C282.029 290.464 281.369 290.5 279.569 290.5V289.312H282.197V288.364H279.569V287.176H282.677V286.204H278.429V291.472C281.405 291.472 282.149 291.448 283.277 291.292L283.157 290.332ZM286.241 295.684H281.525V293.608H286.241V295.684ZM282.797 289.192H284.201V292.012H285.329V285.748H284.201V288.184H282.797V289.192ZM286.265 292.036H287.405V285.604H286.265V292.036Z" fill="#222222"/>
<path d="M200.078 310.22C200.174 310.46 200.474 310.796 200.81 311.156C201.266 311.648 201.77 312.152 202.586 312.896L203.366 312.092C202.658 311.468 202.154 311 201.638 310.436C200.786 309.512 200.654 309.152 200.654 308.204V306.632H202.97V305.6H197.078V306.632H199.454V308.204C199.454 309.092 199.322 309.548 198.53 310.424C197.99 311.024 197.402 311.612 196.682 312.26L197.462 313.064C198.266 312.32 198.866 311.708 199.358 311.168C199.742 310.748 199.958 310.484 200.066 310.22H200.078ZM205.658 315.668V304.604H204.47V315.668H205.658ZM212.26 310.004V308.576H211.06V310.004H206.584V311.012H216.736V310.004H212.26ZM215.98 308.18C214.888 307.784 213.964 307.364 213.364 307.064C212.488 306.62 212.248 306.308 212.248 305.492V304.76H211.072V305.492C211.072 306.308 210.808 306.608 209.956 307.064C209.38 307.376 208.48 307.76 207.352 308.18L207.808 309.152C208.66 308.828 209.536 308.456 210.136 308.168C211.192 307.664 211.576 307.388 211.66 307.148H211.672C211.756 307.376 212.14 307.664 213.196 308.168C213.796 308.456 214.684 308.828 215.524 309.152L215.98 308.18ZM207.892 313.124H214.132V315.776H215.32V312.116H207.892V313.124ZM220.362 308.636C220.446 308.816 220.686 309.044 221.046 309.344C221.622 309.824 222.138 310.22 222.762 310.652L223.434 309.788C222.726 309.32 222.102 308.864 221.538 308.348C221.01 307.868 220.914 307.46 220.914 306.692V306.272H223.098V305.252H217.386V306.272H219.714V306.74C219.714 307.616 219.51 308.072 218.922 308.648C218.49 309.068 217.782 309.608 217.014 310.148L217.71 311C218.382 310.532 219.03 310.016 219.546 309.572C219.93 309.248 220.278 308.84 220.35 308.636H220.362ZM218.742 312.644H224.838V315.776H226.026V311.624H218.742V312.644ZM226.026 311.048V304.604H224.85V307.256H222.81V308.276H224.85V311.048H226.026ZM238.88 304.604H237.716V308.468H236.384V304.832H235.22V315.128H236.384V309.5H237.716V315.668H238.88V304.604ZM232.736 307.736C232.736 309.368 232.736 310.208 229.352 312.38L230.012 313.304C233.492 310.976 233.9 310.088 233.9 307.94V305.684H229.664V306.704H232.736V307.736ZM242.866 308.744C242.938 308.924 243.19 309.188 243.55 309.488C244.126 309.968 244.678 310.424 245.302 310.892L245.998 310.064C245.29 309.548 244.606 309.008 244.042 308.492C243.466 307.964 243.418 307.568 243.418 306.824V305.12H242.218V306.872C242.218 307.712 242.05 308.168 241.438 308.78C241.018 309.2 240.274 309.836 239.506 310.424L240.214 311.264C240.85 310.76 241.558 310.16 242.05 309.704C242.422 309.368 242.794 308.948 242.854 308.744H242.866ZM248.662 312.476V304.604H247.486V307.112H245.266V308.132H247.486V312.476H248.662ZM242.938 311.828H241.75V315.548H248.89V314.516H242.938V311.828Z" fill="#222222"/>
<path d="M198.624 258.16C199.326 257.242 200.082 256.864 201.144 256.864C202.314 256.864 203.286 257.44 203.286 258.574V258.718C203.286 259.834 202.728 260.914 201.108 260.914H199.578V262.462H201.18C202.692 262.462 203.862 262.966 203.862 264.676V264.91C203.862 266.08 202.998 267.034 201.108 267.034C199.992 267.034 199.092 266.71 197.832 265.792L196.95 267.214C198.174 268.186 199.596 268.654 201.108 268.654C204.294 268.654 205.644 266.8 205.644 264.892V264.622C205.644 263.128 204.762 261.94 203.016 261.634C204.618 261.058 205.05 259.726 205.05 258.7V258.52C205.05 256.576 203.52 255.28 201.126 255.28C199.182 255.28 198.102 256.144 197.346 257.224L198.624 258.16ZM219.726 261.022C217.224 261.292 216.108 261.364 212.418 261.364V256.522H218.358V254.992H210.672V262.894C215.856 262.894 217.368 262.822 219.906 262.498L219.726 261.022ZM225.36 258.232H223.002V253.912H221.238V265.756H223.002V259.78H225.36V258.232ZM214.65 264.82H212.868V270.328H223.452V268.78H214.65V264.82ZM230.367 258.61C230.367 261.058 230.367 262.318 225.291 265.576L226.281 266.962C231.159 263.704 232.005 262.318 232.095 259.51H234.489V262.246H232.059V263.794H234.489V269.698H236.235V254.254H234.489V257.962H232.113V255.532H225.759V257.062H230.367V258.61ZM239.619 253.912H237.873V270.508H239.619V253.912Z" fill="#3DABC1"/>
<path d="M134.832 265.004V254.476H133.28V256.268H129.104V257.564H133.28V258.844H129.104V260.14H133.28V265.004H134.832ZM123.424 255.356V262.908C127.712 262.908 129.344 262.812 131.632 262.508L131.472 261.196C129.104 261.5 127.616 261.548 124.976 261.548V255.356H123.424ZM127.2 264.492H125.616V269.068H135.136V267.692H127.2V264.492Z" fill="#3DABC1"/>
<path d="M29.152 266.962V268.456H37.864V266.908H31.348L35.398 262.588C36.568 261.346 37.396 260.122 37.396 258.718V258.538C37.396 256.648 35.974 255.28 33.346 255.28C30.952 255.28 29.8 256.774 29.188 257.89L30.556 258.772C31.402 257.26 32.428 256.882 33.382 256.882C34.732 256.882 35.614 257.512 35.614 258.538V258.682C35.614 259.366 35.47 260.086 33.994 261.706L29.152 266.962ZM47.9863 260.95C47.9863 257.314 46.4563 255.28 43.3963 255.28C40.3723 255.28 38.8063 257.314 38.8063 260.95V262.966C38.8063 266.602 40.3183 268.654 43.3963 268.654C46.5103 268.654 47.9863 266.638 47.9863 262.966V260.95ZM46.1683 262.984C46.1683 266.188 44.9803 266.998 43.3963 266.998C41.8843 266.998 40.6243 266.17 40.6243 262.984V260.932C40.6243 257.782 41.8843 256.936 43.3963 256.936C44.9803 256.936 46.1683 257.764 46.1683 260.932V262.984ZM55.4627 268.456V255.478H53.9687L49.7927 257.926L50.6387 259.366L53.6807 257.566V268.456H55.4627ZM60.347 258.16C61.049 257.242 61.805 256.864 62.867 256.864C64.037 256.864 65.009 257.44 65.009 258.574V258.718C65.009 259.834 64.451 260.914 62.831 260.914H61.301V262.462H62.903C64.415 262.462 65.585 262.966 65.585 264.676V264.91C65.585 266.08 64.721 267.034 62.831 267.034C61.715 267.034 60.815 266.71 59.555 265.792L58.673 267.214C59.897 268.186 61.319 268.654 62.831 268.654C66.017 268.654 67.367 266.8 67.367 264.892V264.622C67.367 263.128 66.485 261.94 64.739 261.634C66.341 261.058 66.773 259.726 66.773 258.7V258.52C66.773 256.576 65.243 255.28 62.849 255.28C60.905 255.28 59.825 256.144 59.069 257.224L60.347 258.16ZM74.7173 263.812C76.3373 263.812 77.2733 262.534 77.4173 260.554H75.8873C75.7613 261.652 75.4553 262.3 74.7353 262.3C73.6193 262.3 73.0973 260.608 71.3513 260.608C69.7853 260.608 68.8133 262.066 68.6693 263.866H70.2353C70.3253 263.182 70.6313 262.12 71.3693 262.12C72.4313 262.12 72.9533 263.812 74.7173 263.812ZM78.4903 266.962V268.456H87.2023V266.908H80.6863L84.7363 262.588C85.9063 261.346 86.7343 260.122 86.7343 258.718V258.538C86.7343 256.648 85.3123 255.28 82.6843 255.28C80.2903 255.28 79.1383 256.774 78.5263 257.89L79.8943 258.772C80.7403 257.26 81.7663 256.882 82.7203 256.882C84.0703 256.882 84.9523 257.512 84.9523 258.538V258.682C84.9523 259.366 84.8083 260.086 83.3323 261.706L78.4903 266.962ZM97.3246 260.95C97.3246 257.314 95.7946 255.28 92.7346 255.28C89.7106 255.28 88.1446 257.314 88.1446 260.95V262.966C88.1446 266.602 89.6566 268.654 92.7346 268.654C95.8486 268.654 97.3246 266.638 97.3246 262.966V260.95ZM95.5066 262.984C95.5066 266.188 94.3186 266.998 92.7346 266.998C91.2226 266.998 89.9626 266.17 89.9626 262.984V260.932C89.9626 257.782 91.2226 256.936 92.7346 256.936C94.3186 256.936 95.5066 257.764 95.5066 260.932V262.984ZM98.3029 266.962V268.456H107.015V266.908H100.499L104.549 262.588C105.719 261.346 106.547 260.122 106.547 258.718V258.538C106.547 256.648 105.125 255.28 102.497 255.28C100.103 255.28 98.9509 256.774 98.3389 257.89L99.7069 258.772C100.553 257.26 101.579 256.882 102.533 256.882C103.883 256.882 104.765 257.512 104.765 258.538V258.682C104.765 259.366 104.621 260.086 103.145 261.706L98.3029 266.962ZM117.137 260.95C117.137 257.314 115.607 255.28 112.547 255.28C109.523 255.28 107.957 257.314 107.957 260.95V262.966C107.957 266.602 109.469 268.654 112.547 268.654C115.661 268.654 117.137 266.638 117.137 262.966V260.95ZM115.319 262.984C115.319 266.188 114.131 266.998 112.547 266.998C111.035 266.998 109.775 266.17 109.775 262.984V260.932C109.775 257.782 111.035 256.936 112.547 256.936C114.131 256.936 115.319 257.764 115.319 260.932V262.984Z" fill="#3DABC1"/>
<path d="M196.682 415.204C196.682 416.296 197.582 417.736 199.454 417.736C201.326 417.736 202.226 416.296 202.226 415.204V414.58C202.226 413.488 201.326 412.048 199.454 412.048C197.582 412.048 196.682 413.488 196.682 414.58V415.204ZM206.69 414.7H205.118V411.604H203.942V419.5H205.118V415.732H206.69V414.7ZM199.55 418.876H198.362V422.548H205.418V421.516H199.55V418.876ZM201.086 415.156C201.086 415.888 200.606 416.704 199.454 416.704C198.314 416.704 197.822 415.888 197.822 415.156V414.628C197.822 413.896 198.302 413.08 199.454 413.08C200.606 413.08 201.086 413.896 201.086 414.628V415.156ZM210.16 415.96C210.244 416.14 210.484 416.368 210.844 416.668C211.42 417.148 211.936 417.544 212.56 417.976L213.232 417.112C212.536 416.644 211.912 416.188 211.336 415.684C210.82 415.24 210.712 414.784 210.712 414.016V413.332H212.896V412.312H207.184V413.332H209.512V414.064C209.512 414.94 209.32 415.42 208.732 415.972C208.312 416.368 207.58 416.932 206.812 417.472L207.508 418.324C208.18 417.856 208.84 417.352 209.344 416.896C209.716 416.56 210.076 416.164 210.148 415.96H210.16ZM215.824 419.488V411.604H214.648V414.424H212.608V415.444H214.648V419.488H215.824ZM210.1 418.852H208.912V422.548H216.052V421.516H210.1V418.852ZM225.51 412.408H224.334V414.304H219.39V412.42H218.214V418.096H221.262V420.184H216.786V421.192H226.938V420.184H222.45V418.096H225.51V412.408ZM219.39 415.312H224.334V417.088H219.39V415.312ZM236.228 419.5V411.604H235.052V414.532H232.52C232.532 414.448 232.532 414.352 232.532 414.256V412.312H227.816V413.32H231.368V414.196C231.368 415.408 230.792 415.996 227.36 417.496L227.828 418.456C230.6 417.268 231.824 416.536 232.28 415.552H235.052V419.5H236.228ZM230.504 418.912H229.316V422.548H236.456V421.516H230.504V418.912ZM239.686 420.868C239.686 422.032 240.958 422.98 243.082 422.98C245.206 422.98 246.478 422.032 246.478 420.868V420.388C246.478 419.224 245.206 418.276 243.082 418.276C240.958 418.276 239.686 419.224 239.686 420.388V420.868ZM241.534 413.944C241.534 415.216 240.886 415.804 237.55 417.196L238.018 418.144C241.798 416.536 242.698 415.864 242.698 414.028V412.288H238.006V413.296H241.534V413.944ZM246.43 418.132V411.604H245.266V413.2H243.31V414.22H245.266V415.504H243.13V416.524H245.266V418.132H246.43ZM245.314 420.796C245.314 421.384 244.45 422.008 243.082 422.008C241.714 422.008 240.85 421.384 240.85 420.796V420.46C240.85 419.872 241.714 419.248 243.082 419.248C244.45 419.248 245.314 419.872 245.314 420.46V420.796ZM249.887 420.868C249.887 422.032 251.159 422.98 253.283 422.98C255.407 422.98 256.679 422.032 256.679 420.868V420.388C256.679 419.224 255.407 418.276 253.283 418.276C251.159 418.276 249.887 419.224 249.887 420.388V420.868ZM253.235 414.448C253.235 413.38 252.371 412.024 250.487 412.024C248.603 412.024 247.739 413.38 247.739 414.448V415.06C247.739 416.128 248.603 417.484 250.487 417.484C252.371 417.484 253.235 416.128 253.235 415.06V414.448ZM256.631 418.132V411.604H255.467V412.984H253.727V414.004H255.467V415.48H253.727V416.5H255.467V418.132H256.631ZM255.515 420.796C255.515 421.384 254.651 422.008 253.283 422.008C251.915 422.008 251.051 421.384 251.051 420.796V420.46C251.051 419.872 251.915 419.248 253.283 419.248C254.651 419.248 255.515 419.872 255.515 420.46V420.796ZM252.095 415C252.095 415.708 251.591 416.452 250.487 416.452C249.383 416.452 248.879 415.708 248.879 415V414.508C248.879 413.8 249.383 413.056 250.487 413.056C251.591 413.056 252.095 413.8 252.095 414.508V415ZM266.761 422.668V411.604H265.573V422.668H266.761ZM261.073 417.136C261.169 417.376 261.457 417.712 261.793 418.072C262.249 418.564 262.789 419.104 263.617 419.872L264.385 419.056C263.665 418.42 263.137 417.916 262.621 417.352C261.889 416.536 261.661 416.044 261.661 415.096V412.396H260.461V415.096C260.461 415.948 260.269 416.488 259.537 417.316C258.997 417.916 258.373 418.528 257.641 419.176L258.421 419.98C259.237 419.236 259.873 418.6 260.365 418.06C260.749 417.64 260.953 417.4 261.061 417.136H261.073ZM267.795 420.184V421.192H277.947V420.184H267.795ZM272.883 415.792C273.015 416.068 273.507 416.488 274.287 416.98C275.007 417.436 275.883 417.94 276.771 418.444L277.347 417.52C276.399 417.004 275.703 416.608 274.947 416.116C273.651 415.264 273.471 414.772 273.471 413.596V412.384H272.271V413.596C272.271 414.772 272.019 415.288 270.927 416.032C270.123 416.572 269.367 417.004 268.407 417.532L268.995 418.468C269.991 417.916 270.759 417.448 271.455 417.004C272.259 416.488 272.751 416.068 272.871 415.792H272.883ZM287.405 418.612H280.361V422.68H287.405V418.612ZM283.157 416.332C282.029 416.464 281.369 416.5 279.569 416.5V415.312H282.197V414.364H279.569V413.176H282.677V412.204H278.429V417.472C281.405 417.472 282.149 417.448 283.277 417.292L283.157 416.332ZM286.241 421.684H281.525V419.608H286.241V421.684ZM282.797 415.192H284.201V418.012H285.329V411.748H284.201V414.184H282.797V415.192ZM286.265 418.036H287.405V411.604H286.265V418.036ZM292.975 420.88C292.975 422.044 294.247 422.98 296.371 422.98C298.495 422.98 299.767 422.044 299.767 420.88V420.4C299.767 419.236 298.495 418.3 296.371 418.3C294.247 418.3 292.975 419.236 292.975 420.4V420.88ZM294.055 415.696C294.139 415.876 294.379 416.104 294.739 416.404C295.315 416.884 295.831 417.28 296.455 417.712L297.127 416.848C296.419 416.38 295.795 415.924 295.231 415.408C294.703 414.928 294.607 414.52 294.607 413.752V413.308H296.791V412.288H291.079V413.308H293.407V413.8C293.407 414.676 293.203 415.132 292.615 415.708C292.183 416.128 291.475 416.668 290.707 417.208L291.403 418.06C292.075 417.592 292.723 417.076 293.239 416.632C293.623 416.308 293.971 415.9 294.043 415.696H294.055ZM298.603 420.808C298.603 421.396 297.739 422.008 296.371 422.008C295.003 422.008 294.139 421.396 294.139 420.808V420.472C294.139 419.884 295.003 419.272 296.371 419.272C297.739 419.272 298.603 419.884 298.603 420.472V420.808ZM299.719 418.144V411.604H298.543V414.316H296.503V415.336H298.543V418.144H299.719ZM304.125 415.828C304.209 416.008 304.449 416.236 304.809 416.536C305.385 417.016 305.901 417.412 306.525 417.844L307.197 416.98C306.489 416.512 305.865 416.056 305.301 415.54C304.773 415.06 304.677 414.652 304.677 413.908V413.8H306.933V412.78H304.677V411.472H303.477V412.78H301.077V413.8H303.477V413.956C303.477 414.808 303.273 415.264 302.685 415.84C302.253 416.26 301.545 416.8 300.777 417.34L301.473 418.192C302.145 417.724 302.793 417.208 303.309 416.764C303.693 416.44 304.041 416.032 304.113 415.828H304.125ZM302.421 419.8H308.229V422.776H309.417V418.78H302.421V419.8ZM310.989 414.364H309.417V411.604H308.241V418.204H309.417V415.396H310.989V414.364Z" fill="#222222"/>
<path d="M197.222 439.688H198.434V438.488H197.222V439.688ZM197.222 434.384H198.434V433.184H197.222V434.384ZM208.354 431.648H207.226L203.05 436.016V431.648H202.21V440.3H203.05V437.096L204.154 435.956L207.502 440.3H208.582L204.754 435.344L208.354 431.648ZM211.888 431.516C209.74 431.516 208.516 433.016 208.516 435.38V436.568C208.516 438.932 209.752 440.432 211.888 440.432C214.024 440.432 215.26 438.932 215.26 436.568V435.38C215.26 433.016 214.024 431.516 211.888 431.516ZM211.888 439.676C210.352 439.676 209.368 438.56 209.368 436.496V435.452C209.368 433.388 210.352 432.272 211.888 432.272C213.424 432.272 214.408 433.388 214.408 435.452V436.496C214.408 438.56 213.424 439.676 211.888 439.676ZM218.949 439.652C218.169 439.652 217.329 439.388 216.477 438.764L216.045 439.472C216.813 440.06 217.845 440.432 218.985 440.432C220.857 440.432 221.961 439.4 221.961 438.164V437.888C221.961 436.652 221.337 435.992 219.105 435.488C217.533 435.128 217.053 434.696 217.053 433.952V433.712C217.053 432.812 217.965 432.284 219.033 432.284C219.921 432.284 220.653 432.536 221.205 432.932L221.601 432.248C221.013 431.828 220.197 431.516 219.033 431.516C217.389 431.516 216.201 432.404 216.201 433.712V433.988C216.201 435.08 216.825 435.8 218.841 436.256C220.689 436.676 221.109 437.096 221.109 437.912V438.164C221.109 438.944 220.305 439.652 218.949 439.652ZM228.17 440.3H229.01V431.648H228.17V435.368H223.718V431.648H222.878V440.3H223.718V436.208H228.17V440.3ZM233.712 431.648H232.764L229.548 440.3H230.412L231.396 437.612H235.056L236.016 440.3H236.916L233.712 431.648ZM232.524 434.54C232.74 433.952 232.908 433.52 233.232 432.392C233.58 433.52 233.736 433.952 233.952 434.54L234.792 436.88H231.66L232.524 434.54ZM237.062 436.364H240.806V435.596H237.062V436.364ZM245.235 438.86H246.027L248.343 433.964C248.547 433.556 248.643 433.388 248.751 432.872V440.3H249.579V431.648H248.583L245.643 437.984L242.715 431.648H241.683V440.3H242.511V432.872C242.643 433.388 242.739 433.556 242.943 433.964L245.235 438.86ZM253.482 439.652C252.702 439.652 251.862 439.388 251.01 438.764L250.578 439.472C251.346 440.06 252.378 440.432 253.518 440.432C255.39 440.432 256.494 439.4 256.494 438.164V437.888C256.494 436.652 255.87 435.992 253.638 435.488C252.066 435.128 251.586 434.696 251.586 433.952V433.712C251.586 432.812 252.498 432.284 253.566 432.284C254.454 432.284 255.186 432.536 255.738 432.932L256.134 432.248C255.546 431.828 254.73 431.516 253.566 431.516C251.922 431.516 250.734 432.404 250.734 433.712V433.988C250.734 435.08 251.358 435.8 253.374 436.256C255.222 436.676 255.642 437.096 255.642 437.912V438.164C255.642 438.944 254.838 439.652 253.482 439.652ZM262.319 437.9H261.467V441.488H268.451V440.744H262.319V437.9ZM268.175 430.652H267.335V438.5H268.175V430.652ZM262.319 436.676C263.963 436.676 265.019 435.452 265.019 434.264V433.544C265.019 432.356 263.963 431.132 262.319 431.132C260.675 431.132 259.619 432.356 259.619 433.544V434.264C259.619 435.452 260.675 436.676 262.319 436.676ZM262.319 431.888C263.435 431.888 264.203 432.716 264.203 433.616V434.192C264.203 435.092 263.435 435.92 262.319 435.92C261.203 435.92 260.435 435.092 260.435 434.192V433.616C260.435 432.716 261.203 431.888 262.319 431.888ZM274.357 437.612C272.557 437.612 270.949 438.26 270.949 439.556V439.964C270.949 441.236 272.557 441.908 274.357 441.908C276.157 441.908 277.765 441.236 277.765 439.964V439.556C277.765 438.284 276.157 437.612 274.357 437.612ZM274.345 433.352H274.357C274.489 433.604 275.041 433.916 275.785 434.216C276.409 434.48 277.237 434.792 278.221 435.116L278.533 434.456C277.525 434.132 276.613 433.796 276.025 433.544C275.041 433.124 274.777 432.776 274.777 432.152V431.84H278.077V431.12H270.637V431.84H273.925V432.152C273.925 432.776 273.649 433.112 272.665 433.544C272.065 433.808 271.249 434.108 270.157 434.468L270.493 435.128C271.477 434.804 272.233 434.516 272.917 434.228C273.661 433.916 274.213 433.616 274.345 433.352ZM274.357 441.188C273.061 441.188 271.765 440.732 271.765 439.916V439.604C271.765 438.788 273.061 438.332 274.357 438.332C275.653 438.332 276.949 438.788 276.949 439.604V439.916C276.949 440.732 275.653 441.188 274.357 441.188ZM269.317 435.884V436.616H279.397V435.884H269.317ZM285.339 434.816C285.387 434.972 285.855 435.38 286.419 435.836C286.779 436.124 287.343 436.544 287.835 436.88L288.327 436.292C287.643 435.836 286.971 435.332 286.587 435.008C285.807 434.336 285.723 434.012 285.723 433.304V432.104H288.075V431.372H282.399V432.104H284.871V433.34C284.871 433.988 284.739 434.408 284.151 434.984C283.563 435.56 282.795 436.148 282.087 436.652L282.603 437.252C283.155 436.856 283.971 436.208 284.391 435.836C284.895 435.392 285.279 434.996 285.327 434.816H285.339ZM287.787 433.568V434.312H290.079V438.488H290.919V430.652H290.079V433.568H287.787ZM285.051 437.852H284.199V441.488H291.195V440.744H285.051V437.852ZM299.069 436.904C298.157 437 297.209 437.072 295.841 437.108V436.244C297.233 436.136 297.893 435.488 297.893 434.708V434.42C297.893 433.58 297.101 432.872 295.421 432.872C293.741 432.872 292.949 433.568 292.949 434.42V434.708C292.949 435.488 293.609 436.136 295.001 436.244V437.132C294.161 437.144 293.189 437.144 292.013 437.144V437.888C295.673 437.888 297.653 437.792 299.141 437.612L299.069 436.904ZM300.689 430.652H299.849V438.956H300.689V435.068H302.333V434.312H300.689V430.652ZM294.749 438.644H293.897V441.5H300.989V440.756H294.749V438.644ZM295.421 433.568C296.549 433.568 297.089 434 297.089 434.456V434.672C297.089 435.128 296.549 435.56 295.421 435.56C294.293 435.56 293.753 435.128 293.753 434.672V434.456C293.753 434 294.293 433.568 295.421 433.568ZM292.421 431.612V432.344H298.421V431.612H295.841V430.544H295.001V431.612H292.421Z" fill="#222222"/>
<path d="M197.222 458.688H198.434V457.488H197.222V458.688ZM197.222 453.384H198.434V452.184H197.222V453.384ZM202.21 459.3H203.05V450.648H202.21V459.3ZM206.954 458.652C206.174 458.652 205.334 458.388 204.482 457.764L204.05 458.472C204.818 459.06 205.85 459.432 206.99 459.432C208.862 459.432 209.966 458.4 209.966 457.164V456.888C209.966 455.652 209.342 454.992 207.11 454.488C205.538 454.128 205.058 453.696 205.058 452.952V452.712C205.058 451.812 205.97 451.284 207.038 451.284C207.926 451.284 208.658 451.536 209.21 451.932L209.606 451.248C209.018 450.828 208.202 450.516 207.038 450.516C205.394 450.516 204.206 451.404 204.206 452.712V452.988C204.206 454.08 204.83 454.8 206.846 455.256C208.694 455.676 209.114 456.096 209.114 456.912V457.164C209.114 457.944 208.31 458.652 206.954 458.652ZM214.04 450.516C211.892 450.516 210.668 452.016 210.668 454.38V455.568C210.668 457.932 211.904 459.432 214.04 459.432C216.176 459.432 217.412 457.932 217.412 455.568V454.38C217.412 452.016 216.176 450.516 214.04 450.516ZM214.04 458.676C212.504 458.676 211.52 457.56 211.52 455.496V454.452C211.52 452.388 212.504 451.272 214.04 451.272C215.576 451.272 216.56 452.388 216.56 454.452V455.496C216.56 457.56 215.576 458.676 214.04 458.676ZM224.556 453.888V456.612H221.196L225.384 450.648H224.424L220.224 456.612V457.38H224.556V459.3H225.396V457.38H226.668V456.612H225.396V453.888H224.556ZM231.931 456.852C231.931 457.644 231.379 458.664 229.831 458.664C229.027 458.664 228.283 458.424 227.455 457.788L227.023 458.472C227.791 459.06 228.655 459.432 229.831 459.432C231.991 459.432 232.759 458.076 232.759 456.84V456.66C232.759 455.124 231.883 453.948 230.179 453.948C229.459 453.948 228.751 454.2 228.367 454.56L228.499 451.416H232.207V450.648H227.755L227.479 455.388H228.271C228.655 455.016 229.243 454.704 229.975 454.704C231.223 454.704 231.931 455.316 231.931 456.696V456.852ZM239.247 454.296C239.247 451.872 238.335 450.516 236.295 450.516C234.279 450.516 233.367 451.872 233.367 454.296V455.64C233.367 458.064 234.243 459.432 236.295 459.432C238.371 459.432 239.247 458.088 239.247 455.64V454.296ZM238.383 455.652C238.383 457.812 237.675 458.676 236.295 458.676C234.963 458.676 234.231 457.8 234.231 455.652V454.284C234.231 452.16 234.963 451.272 236.295 451.272C237.675 451.272 238.383 452.148 238.383 454.284V455.652ZM245.722 454.296C245.722 451.872 244.81 450.516 242.77 450.516C240.754 450.516 239.842 451.872 239.842 454.296V455.64C239.842 458.064 240.718 459.432 242.77 459.432C244.846 459.432 245.722 458.088 245.722 455.64V454.296ZM244.858 455.652C244.858 457.812 244.15 458.676 242.77 458.676C241.438 458.676 240.706 457.8 240.706 455.652V454.284C240.706 452.16 241.438 451.272 242.77 451.272C244.15 451.272 244.858 452.148 244.858 454.284V455.652ZM250.229 459.3V450.648H249.593L246.917 452.304L247.301 452.976L249.389 451.704V459.3H250.229ZM258.037 456.9H257.185V460.488H264.169V459.744H258.037V456.9ZM263.893 449.652H263.053V457.5H263.893V449.652ZM258.037 455.676C259.681 455.676 260.737 454.452 260.737 453.264V452.544C260.737 451.356 259.681 450.132 258.037 450.132C256.393 450.132 255.337 451.356 255.337 452.544V453.264C255.337 454.452 256.393 455.676 258.037 455.676ZM258.037 450.888C259.153 450.888 259.921 451.716 259.921 452.616V453.192C259.921 454.092 259.153 454.92 258.037 454.92C256.921 454.92 256.153 454.092 256.153 453.192V452.616C256.153 451.716 256.921 450.888 258.037 450.888ZM270.075 456.612C268.275 456.612 266.667 457.26 266.667 458.556V458.964C266.667 460.236 268.275 460.908 270.075 460.908C271.875 460.908 273.483 460.236 273.483 458.964V458.556C273.483 457.284 271.875 456.612 270.075 456.612ZM270.063 452.352H270.075C270.207 452.604 270.759 452.916 271.503 453.216C272.127 453.48 272.955 453.792 273.939 454.116L274.251 453.456C273.243 453.132 272.331 452.796 271.743 452.544C270.759 452.124 270.495 451.776 270.495 451.152V450.84H273.795V450.12H266.355V450.84H269.643V451.152C269.643 451.776 269.367 452.112 268.383 452.544C267.783 452.808 266.967 453.108 265.875 453.468L266.211 454.128C267.195 453.804 267.951 453.516 268.635 453.228C269.379 452.916 269.931 452.616 270.063 452.352ZM270.075 460.188C268.779 460.188 267.483 459.732 267.483 458.916V458.604C267.483 457.788 268.779 457.332 270.075 457.332C271.371 457.332 272.667 457.788 272.667 458.604V458.916C272.667 459.732 271.371 460.188 270.075 460.188ZM265.035 454.884V455.616H275.115V454.884H265.035ZM281.32 453.132C281.392 453.3 281.764 453.564 282.124 453.804C282.64 454.14 283.288 454.524 283.924 454.884L284.344 454.26C283.528 453.804 282.736 453.336 282.352 453.048C281.776 452.604 281.704 452.352 281.704 451.704V451.476H284.188V450.744H281.704V449.556H280.864V450.744H278.38V451.476H280.864V451.728C280.864 452.376 280.78 452.64 280.24 453.06C279.832 453.384 278.992 453.9 278.02 454.44L278.476 455.076C279.052 454.752 279.928 454.236 280.54 453.816C280.936 453.54 281.236 453.288 281.308 453.132H281.32ZM286.696 449.652H285.844V460.62H286.696V449.652ZM285.004 455.568C283.396 455.748 281.212 455.832 277.744 455.832V456.576C278.932 456.576 279.916 456.564 280.78 456.552V460.272H281.644V456.516C282.964 456.468 283.984 456.408 285.076 456.3L285.004 455.568ZM287.718 455.112V455.844H297.798V455.112H287.718ZM289.002 457.872H295.506V460.704H296.346V457.14H289.002V457.872ZM296.238 450.12H289.242V453.828H296.298V453.096H290.07V450.852H296.238V450.12Z" fill="#222222"/>
<path d="M202.964 386.176V390.154H198.572L204.548 381.478H202.586L196.484 390.334V391.666H202.964V394.456H204.728V391.666H206.564V390.154H204.728V386.176H202.964ZM219.728 387.022C217.226 387.292 216.11 387.364 212.42 387.364V382.522H218.36V380.992H210.674V388.894C215.858 388.894 217.37 388.822 219.908 388.498L219.728 387.022ZM225.362 384.232H223.004V379.912H221.24V391.756H223.004V385.78H225.362V384.232ZM214.652 390.82H212.87V396.328H223.454V394.78H214.652V390.82ZM230.369 384.61C230.369 387.058 230.369 388.318 225.293 391.576L226.283 392.962C231.161 389.704 232.007 388.318 232.097 385.51H234.491V388.246H232.061V389.794H234.491V395.698H236.237V380.254H234.491V383.962H232.115V381.532H225.761V383.062H230.369V384.61ZM239.621 379.912H237.875V396.508H239.621V379.912Z" fill="#33B9A5"/>
<path d="M134.832 392.004V381.476H133.28V383.268H129.104V384.564H133.28V385.844H129.104V387.14H133.28V392.004H134.832ZM123.424 382.356V389.908C127.712 389.908 129.344 389.812 131.632 389.508L131.472 388.196C129.104 388.5 127.616 388.548 124.976 388.548V382.356H123.424ZM127.2 391.492H125.616V396.068H135.136V394.692H127.2V391.492ZM141.907 390.276C143.347 390.276 144.179 389.14 144.307 387.38H142.947C142.835 388.356 142.563 388.932 141.923 388.932C140.931 388.932 140.467 387.428 138.915 387.428C137.523 387.428 136.658 388.724 136.53 390.324H137.923C138.003 389.716 138.275 388.772 138.931 388.772C139.875 388.772 140.339 390.276 141.907 390.276Z" fill="#33B9A5"/>
<path d="M79.152 393.962V395.456H87.864V393.908H81.348L85.398 389.588C86.568 388.346 87.396 387.122 87.396 385.718V385.538C87.396 383.648 85.974 382.28 83.346 382.28C80.952 382.28 79.8 383.774 79.188 384.89L80.556 385.772C81.402 384.26 82.428 383.882 83.382 383.882C84.732 383.882 85.614 384.512 85.614 385.538V385.682C85.614 386.366 85.47 387.086 83.994 388.706L79.152 393.962ZM97.9863 387.95C97.9863 384.314 96.4563 382.28 93.3963 382.28C90.3723 382.28 88.8063 384.314 88.8063 387.95V389.966C88.8063 393.602 90.3183 395.654 93.3963 395.654C96.5103 395.654 97.9863 393.638 97.9863 389.966V387.95ZM96.1683 389.984C96.1683 393.188 94.9803 393.998 93.3963 393.998C91.8843 393.998 90.6243 393.17 90.6243 389.984V387.932C90.6243 384.782 91.8843 383.936 93.3963 383.936C94.9803 383.936 96.1683 384.764 96.1683 387.932V389.984ZM98.9647 393.962V395.456H107.677V393.908H101.161L105.211 389.588C106.381 388.346 107.209 387.122 107.209 385.718V385.538C107.209 383.648 105.787 382.28 103.159 382.28C100.765 382.28 99.6127 383.774 99.0007 384.89L100.369 385.772C101.215 384.26 102.241 383.882 103.195 383.882C104.545 383.882 105.427 384.512 105.427 385.538V385.682C105.427 386.366 105.283 387.086 103.807 388.706L98.9647 393.962ZM115.369 395.456V382.478H113.875L109.699 384.926L110.545 386.366L113.587 384.566V395.456H115.369Z" fill="#33B9A5"/>
<rect width="139.462" height="14.1675" rx="7.08376" transform="matrix(-4.37114e-08 1 1 4.37114e-08 162.098 0)" fill="#5083E6"/>
<rect width="8.8547" height="8.8547" rx="4.42735" transform="matrix(-4.37114e-08 1 1 4.37114e-08 164.754 2.65625)" fill="white"/>
<rect width="140.347" height="14.1675" rx="7.08376" transform="matrix(-4.37114e-08 1 1 4.37114e-08 162 125)" fill="#449DD0"/>
<rect width="8.8547" height="8.8547" rx="4.42735" transform="matrix(-4.37114e-08 1 1 4.37114e-08 164.754 127.949)" fill="white"/>
<rect width="139.904" height="14.1675" rx="7.08376" transform="matrix(-4.37114e-08 1 1 4.37114e-08 162.098 251.475)" fill="#3DADC0"/>
<rect width="8.8547" height="8.8547" rx="4.42735" transform="matrix(-4.37114e-08 1 1 4.37114e-08 164.754 254.129)" fill="white"/>
<rect width="140" height="14" rx="7" transform="matrix(0 1 1 0 162 378)" fill="#33B9A5"/>
<rect width="8.8547" height="8.8547" rx="4.42735" transform="matrix(-4.37114e-08 1 1 4.37114e-08 164.754 380.311)" fill="white"/>
</svg>
