<svg width="410" height="179" viewBox="0 0 410 179" fill="none" xmlns="http://www.w3.org/2000/svg">
<path d="M410 178H0V179H410V178Z" fill="#DDDDDD"/>
<path d="M140 120H0V178H140V120Z" fill="white"/>
<path d="M230 120H140V178H230V120Z" fill="white"/>
<path d="M320 120H230V178H320V120Z" fill="white"/>
<path d="M410 120H320V178H410V120Z" fill="white"/>
<path d="M29.825 151.09C27.575 151.09 25.565 151.885 25.565 153.49V154C25.565 155.575 27.575 156.4 29.825 156.4C32.075 156.4 34.085 155.575 34.085 154V153.49C34.085 151.915 32.075 151.09 29.825 151.09ZM29.81 145.555H29.825C29.99 145.87 30.68 146.305 31.61 146.71C32.39 147.055 33.53 147.505 34.64 147.895L35.045 147.07C34.025 146.71 32.795 146.26 31.925 145.87C30.71 145.33 30.35 144.835 30.35 144.055V143.785H34.475V142.885H25.175V143.785H29.285V144.055C29.285 144.835 28.895 145.33 27.695 145.87C26.96 146.2 25.835 146.635 24.575 147.085L25.01 147.91C26.18 147.49 27.245 147.07 28.025 146.725C28.94 146.335 29.675 145.87 29.81 145.555ZM29.825 155.5C28.205 155.5 26.585 154.945 26.585 153.94V153.55C26.585 152.545 28.205 151.99 29.825 151.99C31.445 151.99 33.065 152.545 33.065 153.55V153.94C33.065 154.945 31.445 155.5 29.825 155.5ZM23.525 149.065V149.965H36.125V149.065H30.35V147.31H29.3V149.065H23.525ZM46.0273 150.85V152.455H39.8773V150.85H38.8423V156.04H47.0623V150.85H46.0273ZM40.3723 150.13C42.4873 150.13 43.5073 149.05 43.5073 148V147.55C43.5073 146.5 42.4873 145.42 40.3723 145.42C38.2573 145.42 37.2373 146.5 37.2373 147.55V148C37.2373 149.05 38.2573 150.13 40.3723 150.13ZM39.8773 155.095V153.385H46.0273V155.095H39.8773ZM40.3723 146.305C41.8123 146.305 42.4873 147.01 42.4873 147.61V147.94C42.4873 148.54 41.8123 149.245 40.3723 149.245C38.9323 149.245 38.2573 148.54 38.2573 147.94V147.61C38.2573 147.01 38.9323 146.305 40.3723 146.305ZM47.0623 142.33H46.0123V150.04H47.0623V146.665H49.1623V145.735H47.0623V142.33ZM40.8973 142.135H39.8473V143.86H36.4423V144.775H44.3323V143.86H40.8973V142.135ZM50.0347 150.76C53.6797 149.185 55.0747 148.3 55.5847 147.04H59.3497V152.14H60.3997V142.33H59.3497V146.11H55.7947C55.8247 145.855 55.8397 145.57 55.8397 145.27V143.23H50.0647V144.16H54.8047V145.21C54.8047 147.19 54.3997 147.805 49.5997 149.89L50.0347 150.76ZM53.0647 151.405H51.9997V155.875H60.7447V154.945H53.0647V151.405ZM64.662 149.95V150.865H72.087V152.575H64.737V156.085H73.482V155.185H65.772V153.46H73.122V149.95H64.662ZM65.982 146.305C66.072 146.56 66.627 147.04 67.332 147.595C67.767 147.94 68.427 148.435 69.117 148.93L69.717 148.165C68.937 147.64 68.097 147.01 67.542 146.545C66.597 145.75 66.462 145.405 66.462 144.31V142.675H65.382V144.355C65.382 145.45 65.142 145.96 64.272 146.755C63.657 147.31 62.802 147.985 61.857 148.645L62.502 149.41C63.507 148.675 64.332 148 64.857 147.535C65.517 146.965 65.892 146.545 65.967 146.305H65.982ZM68.997 144.97V145.9H72.072V149.14H73.122V142.33H72.072V144.97H68.997ZM75.0144 146.29C75.0144 147.67 76.3644 149.02 78.3594 149.02C80.3094 149.02 81.6444 147.73 81.7044 146.38H84.8244V149.335H85.8744V142.33H84.8244V145.45H81.7044C81.6294 144.115 80.2944 142.84 78.3594 142.84C76.3644 142.84 75.0144 144.19 75.0144 145.57V146.29ZM84.8394 150.145V152.035H78.5394V150.145H77.5044V156.025H85.8744V150.145H84.8394ZM80.6844 146.185C80.6844 147.175 79.6944 148.075 78.3594 148.075C77.0244 148.075 76.0344 147.175 76.0344 146.185V145.675C76.0344 144.685 77.0244 143.785 78.3594 143.785C79.6944 143.785 80.6844 144.685 80.6844 145.675V146.185ZM78.5394 155.08V152.965H84.8394V155.08H78.5394ZM97.4717 150.85C95.2217 150.85 93.3167 151.735 93.3167 153.34V153.91C93.3167 155.485 95.2217 156.4 97.4717 156.4C99.7217 156.4 101.627 155.485 101.627 153.91V153.34C101.627 151.765 99.7217 150.85 97.4717 150.85ZM98.6717 148.585C97.9817 148.66 97.2767 148.705 96.5567 148.75V144.1H98.0717V143.2H90.5867V144.1H91.9517V148.825H90.4967V149.725C93.3317 149.725 96.2567 149.725 98.7617 149.47L98.6717 148.585ZM97.4717 155.5C95.8667 155.5 94.3367 154.915 94.3367 153.85V153.4C94.3367 152.335 95.8667 151.75 97.4717 151.75C99.0767 151.75 100.607 152.335 100.607 153.4V153.85C100.607 154.915 99.0767 155.5 97.4717 155.5ZM98.1317 144.67V145.57H100.517V146.815H98.1317V147.715H100.517V150.535H101.552V142.33H100.517V144.67H98.1317ZM92.9717 148.825V144.1H95.5367V148.78C94.7117 148.81 93.8567 148.825 92.9717 148.825ZM102.889 148.195V149.095H107.329V152.71H108.364V149.095H111.019V152.71H112.054V149.095H115.489V148.195H113.209C113.419 147.1 113.539 145.915 113.539 144.91V143.005H104.554V143.935H112.489V144.85C112.489 145.84 112.384 147.025 112.114 148.195H102.889ZM105.769 151.495H104.704V155.875H114.034V154.945H105.769V151.495Z" fill="#555555"/>
<path d="M410 119H0V120H410V119Z" fill="#DDDDDD"/>
<path d="M140 61H0V119H140V61Z" fill="white"/>
<path d="M230 61H140V119H230V61Z" fill="white"/>
<path d="M320 61H230V119H320V61Z" fill="white"/>
<path d="M410 61H320V119H410V61Z" fill="white"/>
<path d="M44.825 92.09C42.575 92.09 40.565 92.885 40.565 94.49V95C40.565 96.575 42.575 97.4 44.825 97.4C47.075 97.4 49.085 96.575 49.085 95V94.49C49.085 92.915 47.075 92.09 44.825 92.09ZM38.525 90.095V90.995H51.125V90.095H45.35V88.37H49.25V87.47H41.465V84.785H49.175V83.885H40.43V88.37H44.3V90.095H38.525ZM44.825 96.5C43.205 96.5 41.585 95.945 41.585 94.94V94.55C41.585 93.545 43.205 92.99 44.825 92.99C46.445 92.99 48.065 93.545 48.065 94.55V94.94C48.065 95.945 46.445 96.5 44.825 96.5ZM60.9823 83.855V85.91H54.1723V83.855H53.1373V89.735H62.0173V83.855H60.9823ZM51.2773 91.565V92.48H57.0523V97.04H58.1173V92.48H63.8773V91.565H51.2773ZM54.1723 88.85V86.825H60.9823V88.85H54.1723ZM65.0347 91.76C68.6797 90.185 70.0747 89.3 70.5847 88.04H74.3497V93.14H75.3997V83.33H74.3497V87.11H70.7947C70.8247 86.855 70.8397 86.57 70.8397 86.27V84.23H65.0647V85.16H69.8047V86.21C69.8047 88.19 69.3997 88.805 64.5997 90.89L65.0347 91.76ZM68.0647 92.405H66.9997V96.875H75.7447V95.945H68.0647V92.405ZM79.662 90.95V91.865H87.087V93.575H79.737V97.085H88.482V96.185H80.772V94.46H88.122V90.95H79.662ZM80.982 87.305C81.072 87.56 81.627 88.04 82.332 88.595C82.767 88.94 83.427 89.435 84.117 89.93L84.717 89.165C83.937 88.64 83.097 88.01 82.542 87.545C81.597 86.75 81.462 86.405 81.462 85.31V83.675H80.382V85.355C80.382 86.45 80.142 86.96 79.272 87.755C78.657 88.31 77.802 88.985 76.857 89.645L77.502 90.41C78.507 89.675 79.332 89 79.857 88.535C80.517 87.965 80.892 87.545 80.967 87.305H80.982ZM83.997 85.97V86.9H87.072V90.14H88.122V83.33H87.072V85.97H83.997ZM90.4644 90.14C90.4644 87.74 91.0494 85.49 92.5194 83.51H91.5894C90.1044 85.28 89.3844 87.545 89.3844 90.215V90.815C89.3844 93.485 90.1044 95.78 91.5894 97.55H92.5194C90.9744 95.435 90.4644 93.17 90.4644 90.89V90.14ZM101.204 90.89C101.204 93.17 100.694 95.435 99.1494 97.55H100.079C101.564 95.78 102.284 93.485 102.284 90.815V90.215C102.284 87.545 101.564 85.28 100.079 83.51H99.1494C100.619 85.49 101.204 87.74 101.204 90.14V90.89ZM92.5194 86.06V86.87H95.3394V87.11C95.3394 87.935 94.7094 88.295 92.0844 89.405L92.4744 90.185C94.7694 89.21 95.6394 88.715 95.8344 88.385C95.9994 88.685 96.8994 89.24 99.1644 90.185L99.5544 89.405C96.9144 88.295 96.2994 87.95 96.2994 87.11V86.87H99.1344V86.06H92.5194ZM91.3944 90.995V91.805H95.3544V95.12H96.2994V91.805H100.259V90.995H91.3944Z" fill="#555555"/>
<path d="M140 2H0V60H140V2Z" fill="#F8F8F8"/>
<path d="M67.83 31.35C68.115 29.85 68.25 28.335 68.25 26.895V25.125H59.07V26.43H66.765V27.24C66.765 28.575 66.645 29.88 66.33 31.35H57.48V32.61H63.075V38.1H64.575V32.61H70.17V31.35H67.83ZM81.0923 24.63H79.6223V26.265H73.5173V24.645H72.0473V30.135H81.0923V24.63ZM77.5073 35.19V32.625H82.9223V31.365H70.2323V32.625H76.0073V35.19H77.5073ZM73.5473 34.02H72.0623V37.95H81.3623V36.66H73.5473V34.02ZM73.5173 27.465H79.6223V28.89H73.5173V27.465Z" fill="#222222"/>
<path d="M230 2H140V60H230V2Z" fill="#F8F8F8"/>
<path d="M320 2H230V60H320V2Z" fill="#F8F8F8"/>
<path d="M410 2H320V60H410V2Z" fill="#F8F8F8"/>
<path d="M352.175 153.49V154.39H359.045V153.43H353.495L356.855 149.485C357.785 148.405 358.655 147.43 358.655 146.26V146.11C358.655 144.49 357.425 143.41 355.505 143.41C353.705 143.41 352.7 144.55 352.19 145.48L353.03 146.005C353.735 144.745 354.59 144.37 355.535 144.37C356.84 144.37 357.59 145.045 357.59 146.125V146.245C357.59 146.815 357.395 147.37 356.21 148.765L352.175 153.49ZM360.195 154.825H361.71V153.325H360.195V154.825ZM370.066 148.135C370.066 145.105 368.926 143.41 366.376 143.41C363.856 143.41 362.716 145.105 362.716 148.135V149.815C362.716 152.845 363.811 154.555 366.376 154.555C368.971 154.555 370.066 152.875 370.066 149.815V148.135ZM368.986 149.83C368.986 152.53 368.101 153.61 366.376 153.61C364.711 153.61 363.796 152.515 363.796 149.83V148.12C363.796 145.465 364.711 144.355 366.376 144.355C368.101 144.355 368.986 145.45 368.986 148.12V149.83ZM375.7 154.39V143.575H374.905L371.56 145.645L372.04 146.485L374.65 144.895V154.39H375.7Z" fill="#555555"/>
<path d="M359.195 89.135C359.195 86.105 358.055 84.41 355.505 84.41C352.985 84.41 351.845 86.105 351.845 89.135V90.815C351.845 93.845 352.94 95.555 355.505 95.555C358.1 95.555 359.195 93.875 359.195 90.815V89.135ZM358.115 90.83C358.115 93.53 357.23 94.61 355.505 94.61C353.84 94.61 352.925 93.515 352.925 90.83V89.12C352.925 86.465 353.84 85.355 355.505 85.355C357.23 85.355 358.115 86.45 358.115 89.12V90.83ZM360.195 95.825H361.71V94.325H360.195V95.825ZM370.066 89.135C370.066 86.105 368.926 84.41 366.376 84.41C363.856 84.41 362.716 86.105 362.716 89.135V90.815C362.716 93.845 363.811 95.555 366.376 95.555C368.971 95.555 370.066 93.875 370.066 90.815V89.135ZM368.986 90.83C368.986 93.53 368.101 94.61 366.376 94.61C364.711 94.61 363.796 93.515 363.796 90.83V89.12C363.796 86.465 364.711 85.355 366.376 85.355C368.101 85.355 368.986 86.45 368.986 89.12V90.83ZM378.16 89.135C378.16 86.105 377.02 84.41 374.47 84.41C371.95 84.41 370.81 86.105 370.81 89.135V90.815C370.81 93.845 371.905 95.555 374.47 95.555C377.065 95.555 378.16 93.875 378.16 90.815V89.135ZM377.08 90.83C377.08 93.53 376.195 94.61 374.47 94.61C372.805 94.61 371.89 93.515 371.89 90.83V89.12C371.89 86.465 372.805 85.355 374.47 85.355C376.195 85.355 377.08 86.45 377.08 89.12V90.83Z" fill="#555555"/>
<path d="M343.81 35.145V36.39H351.07V35.1H345.64L349.015 31.5C349.99 30.465 350.68 29.445 350.68 28.275V28.125C350.68 26.55 349.495 25.41 347.305 25.41C345.31 25.41 344.35 26.655 343.84 27.585L344.98 28.32C345.685 27.06 346.54 26.745 347.335 26.745C348.46 26.745 349.195 27.27 349.195 28.125V28.245C349.195 28.815 349.075 29.415 347.845 30.765L343.81 35.145ZM359.505 30.135C359.505 27.105 358.23 25.41 355.68 25.41C353.16 25.41 351.855 27.105 351.855 30.135V31.815C351.855 34.845 353.115 36.555 355.68 36.555C358.275 36.555 359.505 34.875 359.505 31.815V30.135ZM357.99 31.83C357.99 34.5 357 35.175 355.68 35.175C354.42 35.175 353.37 34.485 353.37 31.83V30.12C353.37 27.495 354.42 26.79 355.68 26.79C357 26.79 357.99 27.48 357.99 30.12V31.83ZM365.736 36.39V25.575H364.491L361.011 27.615L361.716 28.815L364.251 27.315V36.39H365.736ZM368.876 35.79C369.686 36.285 370.706 36.555 371.681 36.555C374.366 36.555 375.836 35.1 375.836 30.36V29.805C375.836 26.91 374.471 25.41 372.071 25.41C369.866 25.41 368.381 26.88 368.381 28.95V29.28C368.381 31.395 369.866 32.73 371.786 32.73C372.986 32.73 374.006 32.13 374.366 31.5C374.306 34.32 373.271 35.19 371.771 35.19C370.916 35.19 370.121 34.92 369.446 34.53L368.876 35.79ZM374.321 29.28C374.321 30.465 373.406 31.41 372.086 31.41C370.811 31.41 369.866 30.63 369.866 29.19V28.995C369.866 27.585 370.736 26.76 372.131 26.76C373.481 26.76 374.321 27.675 374.321 29.07V29.28ZM387.901 34.14V24.27H386.446V25.95H382.531V27.165H386.446V28.365H382.531V29.58H386.446V34.14H387.901ZM377.206 25.095V32.175C381.226 32.175 382.756 32.085 384.901 31.8L384.751 30.57C382.531 30.855 381.136 30.9 378.661 30.9V25.095H377.206ZM380.746 33.66H379.261V37.95H388.186V36.66H380.746V33.66Z" fill="#222222"/>
<path d="M262.175 153.49V154.39H269.045V153.43H263.495L266.855 149.485C267.785 148.405 268.655 147.43 268.655 146.26V146.11C268.655 144.49 267.425 143.41 265.505 143.41C263.705 143.41 262.7 144.55 262.19 145.48L263.03 146.005C263.735 144.745 264.59 144.37 265.535 144.37C266.84 144.37 267.59 145.045 267.59 146.125V146.245C267.59 146.815 267.395 147.37 266.21 148.765L262.175 153.49ZM270.195 154.825H271.71V153.325H270.195V154.825ZM279.016 151.33C279.016 152.32 278.326 153.595 276.391 153.595C275.386 153.595 274.456 153.295 273.421 152.5L272.881 153.355C273.841 154.09 274.921 154.555 276.391 154.555C279.091 154.555 280.051 152.86 280.051 151.315V151.09C280.051 149.17 278.956 147.7 276.826 147.7C275.926 147.7 275.041 148.015 274.561 148.465L274.726 144.535H279.361V143.575H273.796L273.451 149.5H274.441C274.921 149.035 275.656 148.645 276.571 148.645C278.131 148.645 279.016 149.41 279.016 151.135V151.33ZM288.16 148.135C288.16 145.105 287.02 143.41 284.47 143.41C281.95 143.41 280.81 145.105 280.81 148.135V149.815C280.81 152.845 281.905 154.555 284.47 154.555C287.065 154.555 288.16 152.875 288.16 149.815V148.135ZM287.08 149.83C287.08 152.53 286.195 153.61 284.47 153.61C282.805 153.61 281.89 152.515 281.89 149.83V148.12C281.89 145.465 282.805 144.355 284.47 144.355C286.195 144.355 287.08 145.45 287.08 148.12V149.83Z" fill="#555555"/>
<path d="M266.735 95.39V84.575H265.94L262.595 86.645L263.075 87.485L265.685 85.895V95.39H266.735ZM270.195 95.825H271.71V94.325H270.195V95.825ZM273.181 94.82C273.991 95.285 274.936 95.555 275.911 95.555C278.596 95.555 279.901 94.04 279.901 89.27V88.82C279.901 85.805 278.251 84.41 276.241 84.41C274.231 84.41 272.701 85.775 272.701 87.905V88.265C272.701 90.38 274.291 91.64 276.136 91.64C277.651 91.64 278.566 90.71 278.866 90.08C278.776 92.885 278.161 94.595 275.941 94.595C275.086 94.595 274.291 94.325 273.616 93.935L273.181 94.82ZM278.761 88.31C278.761 89.69 277.516 90.725 276.256 90.725C274.936 90.725 273.736 89.795 273.736 88.175V87.95C273.736 86.33 274.801 85.355 276.271 85.355C277.741 85.355 278.761 86.495 278.761 88.115V88.31ZM285.985 88.625V92.03H281.785L287.02 84.575H285.82L280.57 92.03V92.99H285.985V95.39H287.035V92.99H288.625V92.03H287.035V88.625H285.985Z" fill="#555555"/>
<path d="M253.81 35.145V36.39H261.07V35.1H255.64L259.015 31.5C259.99 30.465 260.68 29.445 260.68 28.275V28.125C260.68 26.55 259.495 25.41 257.305 25.41C255.31 25.41 254.35 26.655 253.84 27.585L254.98 28.32C255.685 27.06 256.54 26.745 257.335 26.745C258.46 26.745 259.195 27.27 259.195 28.125V28.245C259.195 28.815 259.075 29.415 257.845 30.765L253.81 35.145ZM269.505 30.135C269.505 27.105 268.23 25.41 265.68 25.41C263.16 25.41 261.855 27.105 261.855 30.135V31.815C261.855 34.845 263.115 36.555 265.68 36.555C268.275 36.555 269.505 34.875 269.505 31.815V30.135ZM267.99 31.83C267.99 34.5 267 35.175 265.68 35.175C264.42 35.175 263.37 34.485 263.37 31.83V30.12C263.37 27.495 264.42 26.79 265.68 26.79C267 26.79 267.99 27.48 267.99 30.12V31.83ZM270.321 35.145V36.39H277.581V35.1H272.151L275.526 31.5C276.501 30.465 277.191 29.445 277.191 28.275V28.125C277.191 26.55 276.006 25.41 273.816 25.41C271.821 25.41 270.861 26.655 270.351 27.585L271.491 28.32C272.196 27.06 273.051 26.745 273.846 26.745C274.971 26.745 275.706 27.27 275.706 28.125V28.245C275.706 28.815 275.586 29.415 274.356 30.765L270.321 35.145ZM286.016 30.135C286.016 27.105 284.741 25.41 282.191 25.41C279.671 25.41 278.366 27.105 278.366 30.135V31.815C278.366 34.845 279.626 36.555 282.191 36.555C284.786 36.555 286.016 34.875 286.016 31.815V30.135ZM284.501 31.83C284.501 34.5 283.511 35.175 282.191 35.175C280.931 35.175 279.881 34.485 279.881 31.83V30.12C279.881 27.495 280.931 26.79 282.191 26.79C283.511 26.79 284.501 27.48 284.501 30.12V31.83ZM297.901 34.14V24.27H296.446V25.95H292.531V27.165H296.446V28.365H292.531V29.58H296.446V34.14H297.901ZM287.206 25.095V32.175C291.226 32.175 292.756 32.085 294.901 31.8L294.751 30.57C292.531 30.855 291.136 30.9 288.661 30.9V25.095H287.206ZM290.746 33.66H289.261V37.95H298.186V36.66H290.746V33.66Z" fill="#222222"/>
<path d="M172.175 153.49V154.39H179.045V153.43H173.495L176.855 149.485C177.785 148.405 178.655 147.43 178.655 146.26V146.11C178.655 144.49 177.425 143.41 175.505 143.41C173.705 143.41 172.7 144.55 172.19 145.48L173.03 146.005C173.735 144.745 174.59 144.37 175.535 144.37C176.84 144.37 177.59 145.045 177.59 146.125V146.245C177.59 146.815 177.395 147.37 176.21 148.765L172.175 153.49ZM180.195 154.825H181.71V153.325H180.195V154.825ZM183.046 153.49V154.39H189.916V153.43H184.366L187.726 149.485C188.656 148.405 189.526 147.43 189.526 146.26V146.11C189.526 144.49 188.296 143.41 186.376 143.41C184.576 143.41 183.571 144.55 183.061 145.48L183.901 146.005C184.606 144.745 185.461 144.37 186.406 144.37C187.711 144.37 188.461 145.045 188.461 146.125V146.245C188.461 146.815 188.266 147.37 187.081 148.765L183.046 153.49ZM198.16 148.135C198.16 145.105 197.02 143.41 194.47 143.41C191.95 143.41 190.81 145.105 190.81 148.135V149.815C190.81 152.845 191.905 154.555 194.47 154.555C197.065 154.555 198.16 152.875 198.16 149.815V148.135ZM197.08 149.83C197.08 152.53 196.195 153.61 194.47 153.61C192.805 153.61 191.89 152.515 191.89 149.83V148.12C191.89 145.465 192.805 144.355 194.47 144.355C196.195 144.355 197.08 145.45 197.08 148.12V149.83Z" fill="#555555"/>
<path d="M179.195 89.135C179.195 86.105 178.055 84.41 175.505 84.41C172.985 84.41 171.845 86.105 171.845 89.135V90.815C171.845 93.845 172.94 95.555 175.505 95.555C178.1 95.555 179.195 93.875 179.195 90.815V89.135ZM178.115 90.83C178.115 93.53 177.23 94.61 175.505 94.61C173.84 94.61 172.925 93.515 172.925 90.83V89.12C172.925 86.465 173.84 85.355 175.505 85.355C177.23 85.355 178.115 86.45 178.115 89.12V90.83ZM180.195 95.825H181.71V94.325H180.195V95.825ZM190.066 89.135C190.066 86.105 188.926 84.41 186.376 84.41C183.856 84.41 182.716 86.105 182.716 89.135V90.815C182.716 93.845 183.811 95.555 186.376 95.555C188.971 95.555 190.066 93.875 190.066 90.815V89.135ZM188.986 90.83C188.986 93.53 188.101 94.61 186.376 94.61C184.711 94.61 183.796 93.515 183.796 90.83V89.12C183.796 86.465 184.711 85.355 186.376 85.355C188.101 85.355 188.986 86.45 188.986 89.12V90.83ZM198.16 89.135C198.16 86.105 197.02 84.41 194.47 84.41C191.95 84.41 190.81 86.105 190.81 89.135V90.815C190.81 93.845 191.905 95.555 194.47 95.555C197.065 95.555 198.16 93.875 198.16 90.815V89.135ZM197.08 90.83C197.08 93.53 196.195 94.61 194.47 94.61C192.805 94.61 191.89 93.515 191.89 90.83V89.12C191.89 86.465 192.805 85.355 194.47 85.355C196.195 85.355 197.08 86.45 197.08 89.12V90.83Z" fill="#555555"/>
<path d="M163.81 35.145V36.39H171.07V35.1H165.64L169.015 31.5C169.99 30.465 170.68 29.445 170.68 28.275V28.125C170.68 26.55 169.495 25.41 167.305 25.41C165.31 25.41 164.35 26.655 163.84 27.585L164.98 28.32C165.685 27.06 166.54 26.745 167.335 26.745C168.46 26.745 169.195 27.27 169.195 28.125V28.245C169.195 28.815 169.075 29.415 167.845 30.765L163.81 35.145ZM179.505 30.135C179.505 27.105 178.23 25.41 175.68 25.41C173.16 25.41 171.855 27.105 171.855 30.135V31.815C171.855 34.845 173.115 36.555 175.68 36.555C178.275 36.555 179.505 34.875 179.505 31.815V30.135ZM177.99 31.83C177.99 34.5 177 35.175 175.68 35.175C174.42 35.175 173.37 34.485 173.37 31.83V30.12C173.37 27.495 174.42 26.79 175.68 26.79C177 26.79 177.99 27.48 177.99 30.12V31.83ZM180.321 35.145V36.39H187.581V35.1H182.151L185.526 31.5C186.501 30.465 187.191 29.445 187.191 28.275V28.125C187.191 26.55 186.006 25.41 183.816 25.41C181.821 25.41 180.861 26.655 180.351 27.585L181.491 28.32C182.196 27.06 183.051 26.745 183.846 26.745C184.971 26.745 185.706 27.27 185.706 28.125V28.245C185.706 28.815 185.586 29.415 184.356 30.765L180.321 35.145ZM193.991 36.39V25.575H192.746L189.266 27.615L189.971 28.815L192.506 27.315V36.39H193.991ZM207.901 34.14V24.27H206.446V25.95H202.531V27.165H206.446V28.365H202.531V29.58H206.446V34.14H207.901ZM197.206 25.095V32.175C201.226 32.175 202.756 32.085 204.901 31.8L204.751 30.57C202.531 30.855 201.136 30.9 198.661 30.9V25.095H197.206ZM200.746 33.66H199.261V37.95H208.186V36.66H200.746V33.66Z" fill="#222222"/>
<path d="M410 60H0V61H410V60Z" fill="#DDDDDD"/>
<path d="M410 0H0V2H410V0Z" fill="#333333"/>
</svg>
